<?xml version="1.0" encoding="utf-8"?>
<!-- Generator: Adobe Illustrator 22.0.1, SVG Export Plug-In . SVG Version: 6.00 Build 0)  -->
<svg version="1.1" id="Ebene_1" xmlns="http://www.w3.org/2000/svg" xmlns:xlink="http://www.w3.org/1999/xlink" x="0px" y="0px"
	 viewBox="0 0 30 30" style="enable-background:new 0 0 30 30;" xml:space="preserve">
<path d="M25.2,16.2l-3-2.6c-0.2-0.2-0.5-0.2-0.7,0l-2.9,2.8c-0.2,0.2-0.2,0.5,0,0.7c0.1,0.1,0.2,0.2,0.4,0.2
	c0.1,0,0.2,0,0.3-0.1l2.1-2.1c0.1,2.9-1.7,5.6-4.5,6.2c-2,0.5-4.1-0.1-5.6-1.7c-0.2-0.2-0.5-0.2-0.7,0c-0.2,0.2-0.2,0.5,0,0.7
	c1.3,1.4,3.1,2.1,4.9,2.1c0.5,0,1.1-0.1,1.6-0.2c3.2-0.8,5.4-3.8,5.3-7.1l2,1.8c0.2,0.2,0.5,0.2,0.7,0
	C25.4,16.7,25.4,16.4,25.2,16.2z M21.4,10c-1.8-2.1-4.5-3-7.2-2.3c-2,0.5-3.7,1.7-4.7,3.4c-0.8,1.4-1.1,3-1,4.6l-2-1.8
	C6.3,13.7,6,13.8,5.8,14c-0.2,0.2-0.2,0.5,0.1,0.7l3,2.6c0.1,0.1,0.2,0.1,0.3,0.1c0.1,0,0.3,0,0.3-0.1l2.8-2.7
	c0.2-0.2,0.2-0.5,0-0.7s-0.5-0.2-0.7,0l-2.1,2c-0.2-1.5,0-3,0.8-4.2c0.9-1.5,2.4-2.5,4-3c2.3-0.5,4.6,0.2,6.2,2
	c0.2,0.2,0.5,0.2,0.7,0C21.5,10.5,21.6,10.2,21.4,10z"/>
</svg>
