<?xml version="1.0" encoding="utf-8"?>
<!-- Generator: Adobe Illustrator 22.0.1, SVG Export Plug-In . SVG Version: 6.00 Build 0)  -->
<svg version="1.1" id="Ebene_1" xmlns="http://www.w3.org/2000/svg" xmlns:xlink="http://www.w3.org/1999/xlink" x="0px" y="0px"
	 viewBox="0 0 30 30" style="enable-background:new 0 0 30 30;" xml:space="preserve">
<path d="M16.5,25.2h-4.1c-0.3,0-0.5-0.2-0.5-0.5v-9.3H10c-0.3,0-0.5-0.2-0.5-0.5v-3.3c0-0.3,0.2-0.5,0.5-0.5h1.9V9.9
	c0-1,0.3-4.4,4.3-4.4l3.5,0c0.3,0,0.5,0.2,0.5,0.5v3.2c0,0.3-0.2,0.5-0.5,0.5h-2.4c-0.2,0-0.3,0.1-0.3,0.4v1.1h3
	c0.1,0,0.3,0.1,0.4,0.2c0.1,0.1,0.1,0.2,0.1,0.4L20.2,15c0,0.3-0.2,0.4-0.5,0.4H17v9.3C17,25,16.8,25.2,16.5,25.2z M12.9,24.2H16
	v-9.3c0-0.3,0.2-0.5,0.5-0.5h2.7l0.2-2.3h-2.9c-0.3,0-0.5-0.2-0.5-0.5v-1.6c0-1,0.7-1.4,1.3-1.4h1.9V6.5l-3,0
	c-2.9,0-3.3,2.1-3.3,3.4v1.7c0,0.3-0.2,0.5-0.5,0.5h-1.9v2.3h1.9c0.3,0,0.5,0.2,0.5,0.5V24.2z"/>
</svg>
