<svg width="30" height="30" viewBox="0 0 30 30" fill="none" xmlns="http://www.w3.org/2000/svg">
<path d="M26.1667 10.1667L16.3333 0.5C16.1667 0.166667 16 0 15.6667 0H3.83333C3.33333 0 3 0.333333 3 0.833333V29.1667C3 29.6667 3.33333 30 3.83333 30H25.5C26 30 26.3333 29.6667 26.3333 29.1667V10.6667C26.3333 10.5 26.1667 10.3333 26.1667 10.1667ZM16.3333 2.83333L23.5 10H16.3333V2.83333ZM4.66667 28.3333V1.66667H14.6667V10.8333C14.6667 11.3333 15 11.6667 15.5 11.6667H24.6667V28.3333H4.66667Z" fill="black"/>
</svg>
