<?xml version="1.0" encoding="utf-8"?>
<!-- Generator: Adobe Illustrator 22.0.1, SVG Export Plug-In . SVG Version: 6.00 Build 0)  -->
<svg version="1.1" xmlns="http://www.w3.org/2000/svg" xmlns:xlink="http://www.w3.org/1999/xlink" x="0px" y="0px"
	 viewBox="0 0 30 30" style="enable-background:new 0 0 30 30;" xml:space="preserve">
<path d="M15,24.5c-5.2,0-9.5-4.3-9.5-9.5S9.8,5.5,15,5.5s9.5,4.3,9.5,9.5S20.2,24.5,15,24.5z M15,6.5
	c-4.7,0-8.5,3.8-8.5,8.5c0,4.7,3.8,8.5,8.5,8.5c4.7,0,8.5-3.8,8.5-8.5C23.5,10.3,19.7,6.5,15,6.5z"/>
<path d="M19,19.6c-0.1,0-0.2,0-0.3-0.1l-4-3.6c-0.1-0.1-0.2-0.2-0.2-0.4V11c0-0.3,0.2-0.5,0.5-0.5
	s0.5,0.2,0.5,0.5v4.3l3.9,3.4c0.2,0.2,0.2,0.5,0,0.7C19.3,19.5,19.2,19.6,19,19.6z"/>
</svg>
