<svg width="30" height="30" viewBox="0 0 30 30" fill="none" xmlns="http://www.w3.org/2000/svg">
<path d="M9.89999 20.5H5.99999C5.79999 20.5 5.69999 20.4 5.59999 20.3C5.49999 20.1 5.49999 20 5.59999 19.8L8.59999 14.6L6.29999 10.2C6.19999 10 6.19999 9.9 6.29999 9.7C6.39999 9.6 6.59999 9.5 6.69999 9.5H10.6C10.8 9.5 11 9.6 11 9.8L13.3 14.3C13.4 14.4 13.4 14.6 13.3 14.8L10.2 20.3C10.3 20.4 10.1 20.5 9.89999 20.5ZM6.89999 19.5H9.69999L12.5 14.5L10.4 10.5H7.59999L9.49999 14.3C9.59999 14.4 9.59999 14.6 9.49999 14.8L6.89999 19.5Z" fill="black"/>
<path d="M22.7 24.5H18.3C18.1 24.5 18 24.4 17.9 24.3L13.7 17.2C13.6 17 13.6 16.8 13.7 16.7L20.3 5.79998C20.4 5.59998 20.6 5.59998 20.7 5.59998H25C25.2 5.59998 25.3 5.69998 25.4 5.89998C25.5 6.09998 25.5 6.19998 25.4 6.39998L19 16.9L23.1 23.7C23.2 23.9 23.2 24 23.1 24.2C23 24.4 22.8 24.5 22.7 24.5ZM18.5 23.5H21.8L18 17.2C17.9 17 17.9 16.8 18 16.7L24.1 6.49998H20.8L14.6 16.9L18.5 23.5Z" fill="black"/>
</svg>
