<?xml version="1.0" encoding="utf-8"?>
<!-- Generator: Adobe Illustrator 22.0.1, SVG Export Plug-In . SVG Version: 6.00 Build 0)  -->
<svg version="1.1" id="Ebene_1" xmlns="http://www.w3.org/2000/svg" xmlns:xlink="http://www.w3.org/1999/xlink" x="0px" y="0px"
	 viewBox="0 0 30 30" style="enable-background:new 0 0 30 30;" xml:space="preserve">
<g id="Assets">
	<g id="icon-contact">
		<g id="Stroke-1">
			<path d="M9.8,24.5c-0.1,0-0.1,0-0.2-0.1c-0.2-0.1-0.3-0.3-0.3-0.4v-2.8H5c-0.3,0-0.5-0.2-0.5-0.5V7
				c0-0.3,0.2-0.5,0.5-0.5h20c0.3,0,0.5,0.2,0.5,0.5v13.7c0,0.3-0.2,0.5-0.5,0.5H14.3l-4.2,3.2C10,24.5,9.9,24.5,9.8,24.5z
				 M5.5,20.2h4.3c0.3,0,0.5,0.2,0.5,0.5V23l3.5-2.7c0.1-0.1,0.2-0.1,0.3-0.1h10.4V7.5h-19V20.2z"/>
		</g>
		<g id="_x2E_..">
			<path d="M10.3,14.2c0,0.5,0.4,0.9,0.9,0.9s0.9-0.4,0.9-0.9c0-0.5-0.4-0.9-0.9-0.9S10.3,13.7,10.3,14.2z M14.3,14.2
				c0,0.5,0.4,0.9,0.9,0.9s0.9-0.4,0.9-0.9c0-0.5-0.4-0.9-0.9-0.9S14.3,13.7,14.3,14.2z M18.3,14.2c0,0.5,0.4,0.9,0.9,0.9
				s0.9-0.4,0.9-0.9c0-0.5-0.4-0.9-0.9-0.9S18.3,13.7,18.3,14.2z"/>
		</g>
	</g>
</g>
</svg>
