<svg width="30" height="30" viewBox="0 0 30 30" fill="none" xmlns="http://www.w3.org/2000/svg">
<path d="M25.5 0H3.83333C3.33333 0 3 0.333333 3 0.833333V29.1667C3 29.6667 3.33333 30 3.83333 30H15.5C15.8333 30 16.1667 29.8333 16.1667 29.5L26 19.8333C26.1667 19.6667 26.1667 19.5 26.1667 19.1667V0.833333C26.3333 0.333333 26 0 25.5 0ZM4.66667 1.66667H24.6667V18.3333H15.5C15 18.3333 14.6667 18.6667 14.6667 19.1667V28.3333H4.66667V1.66667ZM23.5 20L16.3333 27.1667V20H23.5Z" fill="black"/>
<path d="M12.1667 12.5V9.16669H15.5V7.50002H12.1667V4.16669H10.5V7.50002H7.16667V9.16669H10.5V12.5H12.1667Z" fill="black"/>
</svg>
