<svg width="30" height="30" viewBox="0 0 30 30" fill="none" xmlns="http://www.w3.org/2000/svg">
<path d="M15 22.5263C14.8421 22.5263 14.6842 22.5263 14.5263 22.3684L6.63159 14.9474C6.4737 14.7895 6.3158 14.3158 6.4737 14.1579C6.63159 13.8421 6.94738 13.6842 7.26317 13.6842H10.4211V2.78947C10.4211 2.31579 10.7369 2 11.2105 2H19.1053C19.4211 2 19.7369 2.31579 19.7369 2.78947V13.5263H22.8947C23.2105 13.5263 23.5263 13.6842 23.6842 14C23.8421 14.3158 23.6842 14.6316 23.5263 14.7895L15.6316 22.2105C15.3158 22.5263 15.1579 22.5263 15 22.5263ZM9.15791 15.1053L15 20.6316L20.8421 15.1053H18.9474C18.4737 15.1053 18.1579 14.7895 18.1579 14.3158V3.57895H11.8421V14.3158C11.8421 14.7895 11.5263 15.1053 11.0526 15.1053H9.15791Z" fill="black"/>
<path d="M29.2105 28.8421H0.789474C0.315789 28.8421 0 28.5263 0 28.0526V23.3158C0 22.8421 0.315789 22.5263 0.789474 22.5263C1.26316 22.5263 1.57895 22.8421 1.57895 23.3158V27.2631H28.4211V23.3158C28.4211 22.8421 28.7368 22.5263 29.2105 22.5263C29.6842 22.5263 30 22.8421 30 23.3158V28.0526C30 28.5263 29.6842 28.8421 29.2105 28.8421Z" fill="black"/>
</svg>
