<?xml version="1.0" encoding="utf-8"?>
<!-- Generator: Adobe Illustrator 22.0.1, SVG Export Plug-In . SVG Version: 6.00 Build 0)  -->
<svg version="1.1" id="Ebene_1" xmlns="http://www.w3.org/2000/svg" xmlns:xlink="http://www.w3.org/1999/xlink" x="0px" y="0px"
	 viewBox="0 0 30 30" style="enable-background:new 0 0 30 30;" xml:space="preserve">
<path d="M19.2,22.5c-0.5,0-1-0.1-1.5-0.4c-3.8-2.5-7.2-5.9-9.7-9.7c-0.7-1.1-0.6-2.5,0.3-3.4l0.9-0.9
	c0.8-0.8,2-0.8,2.8,0l1.6,1.6c0.8,0.8,0.8,2,0,2.8l0,0l-0.2,0.2c1.2,1.5,2.6,2.8,4.1,4.1l0.2-0.2c0.7-0.7,2-0.7,2.8,0l1.6,1.6
	c0.4,0.4,0.6,0.9,0.6,1.4s-0.2,1-0.6,1.4l-0.9,0.9C20.5,22.2,19.9,22.5,19.2,22.5z M10.5,8.5c-0.2,0-0.5,0.1-0.7,0.3L9,9.6
	c-0.6,0.6-0.7,1.5-0.2,2.1c2.5,3.7,5.7,7,9.4,9.4c0.7,0.4,1.6,0.4,2.1-0.2l0.9-0.9c0.2-0.2,0.3-0.4,0.3-0.7c0-0.3-0.1-0.5-0.3-0.7
	l-1.6-1.6c-0.4-0.4-1-0.4-1.4,0l-0.5,0.5c-0.2,0.2-0.5,0.2-0.7,0c-1.7-1.4-3.4-3.1-4.8-4.9c-0.2-0.2-0.1-0.5,0-0.7l0.5-0.5
	c0.4-0.4,0.4-1,0-1.4l-1.6-1.6C11,8.6,10.8,8.5,10.5,8.5z M13.1,12.1L13.1,12.1L13.1,12.1z"/>
</svg>
