<svg width="30" height="30" viewBox="0 0 30 30" fill="none" xmlns="http://www.w3.org/2000/svg">
<g clip-path="url(#clip0)">
<path d="M11.746 13.9604C12.2222 13.9604 12.5397 13.6429 12.5397 13.1667C12.5397 11.8969 13.6508 10.7858 14.9206 10.7858C15.3968 10.7858 15.7143 10.4683 15.7143 9.99212C15.7143 9.51593 15.3968 9.19847 14.9206 9.19847C12.6984 9.19847 10.9524 10.9445 10.9524 13.1667C10.9524 13.6429 11.2698 13.9604 11.746 13.9604ZM30 14.9128C30 14.9128 30 14.754 30 14.9128C30 14.754 30 14.5953 30 14.5953V14.4366V14.2778C25.7143 9.03974 21.1111 6.34133 16.3492 6.02387C11.2698 5.70641 5.71429 8.56355 0.317461 14.1191C0.317461 14.1191 0.31746 14.2778 0.15873 14.2778C0.15873 14.2778 0.15873 14.4366 0 14.4366V14.5953V14.754V14.9128V15.0715C0 15.0715 0 15.0715 0 15.2302C0 15.2302 -1.53742e-07 15.3889 0.15873 15.3889C5.55556 20.7858 10.6349 23.4842 15.7143 23.4842C15.873 23.4842 16.1905 23.4842 16.3492 23.4842C21.1111 23.3255 25.7143 20.4683 30 15.2302C29.8413 15.0715 29.8413 15.0715 30 14.9128C30 14.9128 30 15.0715 30 14.9128ZM15.2381 8.40482C18.0952 8.40482 20.3175 10.7858 20.3175 13.4842C20.3175 16.1826 17.9365 18.5636 15.2381 18.5636C12.5397 18.5636 10.1587 16.3413 10.1587 13.4842C10.1587 10.627 12.5397 8.40482 15.2381 8.40482ZM16.1905 21.8969C11.746 22.2143 6.8254 19.6747 1.90476 14.754C5.07937 11.7382 8.09524 9.51593 11.1111 8.56355C9.52381 9.67466 8.57143 11.5794 8.57143 13.4842C8.57143 17.135 11.5873 20.1509 15.2381 20.1509C18.8889 20.1509 21.9048 17.135 21.9048 13.4842C21.9048 11.262 20.7937 9.3572 19.2064 8.24609C22.2222 9.19847 25.0794 11.4207 27.9365 14.754C24.2857 19.3572 20.3175 21.7382 16.1905 21.8969Z" fill="black"/>
</g>
<defs>
<clipPath id="clip0">
<rect width="30" height="30" fill="white"/>
</clipPath>
</defs>
</svg>
