<?xml version="1.0" encoding="utf-8"?>
<!-- Generator: Adobe Illustrator 22.0.1, SVG Export Plug-In . SVG Version: 6.00 Build 0)  -->
<svg version="1.1" id="Ebene_1" xmlns="http://www.w3.org/2000/svg" xmlns:xlink="http://www.w3.org/1999/xlink" x="0px" y="0px"
	 viewBox="0 0 30 30" style="enable-background:new 0 0 30 30;" xml:space="preserve">
<path d="M9.9,20.5H6c-0.2,0-0.3-0.1-0.4-0.2c-0.1-0.2-0.1-0.3,0-0.5l3-5.2l-2.3-4.4c-0.1-0.2-0.1-0.3,0-0.5
	c0.1-0.1,0.3-0.2,0.4-0.2h3.9c0.2,0,0.4,0.1,0.4,0.3l2.3,4.5c0.1,0.1,0.1,0.3,0,0.5l-3.1,5.5C10.3,20.4,10.1,20.5,9.9,20.5z
	 M6.9,19.5h2.8l2.8-5l-2.1-4H7.6l1.9,3.8c0.1,0.1,0.1,0.3,0,0.5L6.9,19.5z"/>
<path d="M22.7,24.5h-4.4c-0.2,0-0.3-0.1-0.4-0.2l-4.2-7.1c-0.1-0.2-0.1-0.4,0-0.5l6.6-10.9c0.1-0.2,0.3-0.2,0.4-0.2H25
	c0.2,0,0.3,0.1,0.4,0.3c0.1,0.2,0.1,0.3,0,0.5L19,16.9l4.1,6.8c0.1,0.2,0.1,0.3,0,0.5C23,24.4,22.8,24.5,22.7,24.5z M18.5,23.5h3.3
	L18,17.2c-0.1-0.2-0.1-0.4,0-0.5l6.1-10.2h-3.3l-6.2,10.4L18.5,23.5z"/>
</svg>
