<?xml version="1.0" encoding="utf-8"?>
<!-- Generator: Adobe Illustrator 22.0.1, SVG Export Plug-In . SVG Version: 6.00 Build 0)  -->
<svg version="1.1" id="Ebene_1" xmlns="http://www.w3.org/2000/svg" xmlns:xlink="http://www.w3.org/1999/xlink" x="0px" y="0px"
	 viewBox="0 0 30 30" style="enable-background:new 0 0 30 30;" xml:space="preserve">
<path d="M23.1,9.8c-0.7-0.7-1.7-1.1-2.6-1.1c-1-1.9-2.9-3.2-5-3.2c-2.8,0-5.2,2.2-5.6,5.1c-0.7,0-1.5,0.2-2.1,0.7
	C7,12,6.5,13,6.5,14.1c0,1,0.3,1.9,0.9,2.5c1,1,2.4,1,2.5,1l0,0h2.2c0.3,0,0.5-0.2,0.5-0.5s-0.2-0.5-0.5-0.5H10
	c-0.1,0-1.1,0-1.8-0.7c-0.4-0.4-0.6-1-0.6-1.7c0-0.8,0.3-1.5,0.9-2c0.5-0.4,1.2-0.6,1.8-0.4c0.1,0,0.3,0,0.4-0.1
	c0.1-0.1,0.2-0.2,0.2-0.4C11,8.6,13,6.5,15.5,6.5c1.8,0,3.4,1.1,4.2,2.9c0.1,0.2,0.2,0.3,0.5,0.3c0.8,0,1.6,0.3,2.2,0.9
	c0.7,0.6,1.1,1.6,1.1,2.6c0,3-2.8,3.4-2.8,3.4h-1.9c-0.3,0-0.5,0.2-0.5,0.5s0.2,0.5,0.5,0.5h1.9c1.3-0.2,3.8-1.3,3.8-4.4
	C24.5,11.8,24,10.6,23.1,9.8z"/>
<path d="M18.4,14.7l-2.5-3c-0.2-0.2-0.6-0.2-0.8,0l-2.5,3c-0.2,0.2-0.1,0.5,0.1,0.7c0.2,0.2,0.5,0.1,0.7-0.1l1.6-1.9
	v9.1c0,0.3,0.2,0.5,0.5,0.5s0.5-0.2,0.5-0.5v-9.1l1.6,1.9c0.1,0.1,0.2,0.2,0.4,0.2c0.1,0,0.2,0,0.3-0.1
	C18.5,15.2,18.6,14.9,18.4,14.7z"/>
</svg>
