<svg xmlns="http://www.w3.org/2000/svg" viewBox="0 0 14 14"><path fill-rule="evenodd" d="M7.00003 0.00585938C6.72396 0.00585938 6.45324 0.0820473 6.21769 0.226033C5.98215 0.370019 5.7909 0.576216 5.66503 0.821919L5.665 0.821908L5.66281 0.826292L0.163513 11.8249L0.163109 11.8257C0.0483198 12.0538 -0.0063228 12.3075 0.00436625 12.5627C0.0150678 12.8182 0.0908985 13.0667 0.224657 13.2846C0.358416 13.5025 0.545662 13.6826 0.768612 13.8078C0.991563 13.933 1.24282 13.9991 1.49851 13.9999L1.50003 13.9999H12.5L12.5015 13.9999C12.7572 13.9991 13.0085 13.933 13.2314 13.8078C13.4544 13.6826 13.6416 13.5025 13.7754 13.2846C13.9092 13.0667 13.985 12.8182 13.9957 12.5627C14.0064 12.3075 13.9517 12.0537 13.8369 11.8256L13.8365 11.8249L8.33724 0.826292L8.33726 0.826281L8.33503 0.821919C8.20915 0.576216 8.01791 0.370019 7.78236 0.226033C7.54681 0.0820473 7.2761 0.00585938 7.00003 0.00585938ZM7 4.37598C7.34518 4.37598 7.625 4.6558 7.625 5.00098V8.00098C7.625 8.34615 7.34518 8.62598 7 8.62598C6.65482 8.62598 6.375 8.34615 6.375 8.00098V5.00098C6.375 4.6558 6.65482 4.37598 7 4.37598ZM7 12.001C7.55228 12.001 8 11.5533 8 11.001C8 10.4487 7.55228 10.001 7 10.001C6.44772 10.001 6 10.4487 6 11.001C6 11.5533 6.44772 12.001 7 12.001Z" clip-rule="evenodd"/></svg>