<svg viewBox="0 0 28 28" xmlns="http://www.w3.org/2000/svg" focusable="false" aria-hidden="true"><path d="M28 14C28 11.2311 27.1789 8.5243 25.6406 6.22202C24.1022 3.91973 21.9157 2.12531 19.3576 1.06569C16.7994 0.00605891 13.9845 -0.271187 11.2687 0.269006C8.55301 0.8092 6.05844 2.14257 4.10051 4.10051C2.14257 6.05844 0.809205 8.553 0.269012 11.2687C-0.271181 13.9845 0.00606559 16.7994 1.06569 19.3576C2.12532 21.9157 3.91973 24.1022 6.22202 25.6406C8.52431 27.1789 11.2311 28 14 28C17.713 28 21.274 26.525 23.8995 23.8995C26.525 21.274 28 17.713 28 14ZM14.44 19.56C14.1591 19.2787 14.0013 18.8975 14.0013 18.5C14.0013 18.1025 14.1591 17.7212 14.44 17.44L16.44 15.44L8.00001 15.44C7.60218 15.44 7.22065 15.282 6.93934 15.0007C6.65804 14.7194 6.50001 14.3378 6.50001 13.94C6.50001 13.5422 6.65804 13.1606 6.93934 12.8793C7.22065 12.598 7.60218 12.44 8.00001 12.44L16.38 12.44L14.38 10.44C14.1869 10.1425 14.1055 9.78617 14.1502 9.43431C14.1949 9.08244 14.3628 8.7578 14.6242 8.51802C14.8855 8.27824 15.2234 8.13883 15.5778 8.12455C15.9322 8.11026 16.2802 8.22203 16.56 8.44L21.06 12.94C21.3409 13.2212 21.4987 13.6025 21.4987 14C21.4987 14.3975 21.3409 14.7787 21.06 15.06L16.56 19.56C16.2788 19.8409 15.8975 19.9987 15.5 19.9987C15.1025 19.9987 14.7213 19.8409 14.44 19.56Z"/></svg>