<svg viewBox="0 0 14 14" xmlns="http://www.w3.org/2000/svg"><path fill-rule="evenodd" clip-rule="evenodd" d="M5.35017 1.002C5.35004 0.853756 5.30598 0.708879 5.22356 0.585663C5.14114 0.462448 5.02406 0.36642 4.8871 0.309709C4.75013 0.252997 4.59943 0.238146 4.45404 0.26703C4.30864 0.295915 4.17506 0.367239 4.07017 0.471996L1.67017 2.872C1.52972 3.01262 1.45083 3.20324 1.45083 3.402C1.45083 3.60075 1.52972 3.79137 1.67017 3.932L4.07017 6.331C4.17506 6.43575 4.30864 6.50708 4.45404 6.53596C4.59943 6.56485 4.75013 6.54999 4.8871 6.49328C5.02406 6.43657 5.14114 6.34054 5.22356 6.21733C5.30598 6.09411 5.35004 5.94924 5.35017 5.801V4.4H6.99917C7.75026 4.4 8.48449 4.62269 9.10902 5.03994C9.73355 5.45718 10.2204 6.05023 10.5079 6.7441C10.7954 7.43798 10.8707 8.20153 10.7243 8.93821C10.578 9.6749 10.2164 10.3516 9.68547 10.8829C9.15451 11.4141 8.47796 11.776 7.74135 11.9228C7.00474 12.0695 6.24115 11.9946 5.54713 11.7075C4.8531 11.4203 4.25979 10.9338 3.84222 10.3095C3.42465 9.68519 3.20157 8.95108 3.20117 8.2C3.20117 7.93478 3.09581 7.68043 2.90828 7.49289C2.72074 7.30535 2.46639 7.2 2.20117 7.2C1.93596 7.2 1.6816 7.30535 1.49407 7.49289C1.30653 7.68043 1.20117 7.93478 1.20117 8.2C1.20137 9.34669 1.54158 10.4676 2.1788 11.4209C2.81601 12.3743 3.7216 13.1173 4.78107 13.5559C5.84053 13.9946 7.00628 14.1093 8.13092 13.8855C9.25555 13.6616 10.2886 13.1094 11.0993 12.2984C11.9101 11.4875 12.4622 10.4544 12.6858 9.32976C12.9095 8.20509 12.7946 7.03935 12.3557 5.97997C11.9169 4.92058 11.1737 4.01511 10.2203 3.37807C9.26681 2.74102 8.14587 2.401 6.99917 2.401H5.35017V1.002Z"/></svg>