<svg xmlns="http://www.w3.org/2000/svg" viewBox="0 0 48 48"><g transform="matrix(3.4285714285714284,0,0,3.4285714285714284,0,0)"><path d="M14,1.31a1.24,1.24,0,0,0-.46-1,1.26,1.26,0,0,0-1-.26L5,1.63A1.25,1.25,0,0,0,4,2.85V8.37a.24.24,0,0,1-.11.2.22.22,0,0,1-.22,0,2.82,2.82,0,0,0-.92-.16A2.75,2.75,0,1,0,5.5,11.19V6.26A.26.26,0,0,1,5.7,6l6.5-1.33a.23.23,0,0,1,.21.05.22.22,0,0,1,.09.19v1.7a.24.24,0,0,1-.11.2.22.22,0,0,1-.22,0,2.82,2.82,0,0,0-.92-.16A2.75,2.75,0,1,0,14,9.44ZM5.5,3.26A.26.26,0,0,1,5.7,3l6.5-1.33a.23.23,0,0,1,.21.05.22.22,0,0,1,.09.19v1a.24.24,0,0,1-.2.24L5.8,4.46a.23.23,0,0,1-.21,0,.25.25,0,0,1-.09-.19Z"/></g></svg>