<svg xmlns="http://www.w3.org/2000/svg" viewBox="0 0 14 14"><path fill-rule="evenodd" d="M3.69134 1.03807C3.87818 1.11547 4 1.29778 4 1.50001V3.50001H9C11.7614 3.50001 14 5.73859 14 8.50001C14 11.2614 11.7614 13.5 9 13.5H5C4.44771 13.5 4 13.0523 4 12.5C4 11.9477 4.44771 11.5 5 11.5H9C10.6569 11.5 12 10.1569 12 8.50001C12 6.84316 10.6569 5.50001 9 5.50001H4V7.50001C4 7.70225 3.87818 7.88456 3.69134 7.96195C3.5045 8.03935 3.28945 7.99657 3.14645 7.85357L0.146447 4.85357C-0.0488155 4.65831 -0.0488155 4.34172 0.146447 4.14646L3.14645 1.14646C3.28945 1.00346 3.5045 0.960684 3.69134 1.03807Z" clip-rule="evenodd"/></svg>