<svg xmlns="http://www.w3.org/2000/svg" viewBox="0 0 14 14"><path fill-rule="evenodd" d="M13.637 1.19792C14.0627 1.54974 14.1227 2.18006 13.7708 2.60579L5.73084 12.335L5.72842 12.3379C5.54554 12.5575 5.31602 12.7336 5.05655 12.8534C4.79707 12.9731 4.51417 13.0336 4.22842 13.0302L4.22752 13.0302C3.93709 13.0266 3.65125 12.9573 3.39146 12.8274C3.13254 12.6979 2.9062 12.5117 2.72931 12.2826C2.72871 12.2818 2.72812 12.281 2.72752 12.2802L0.210633 9.04426C-0.128437 8.60831 -0.0499029 7.98003 0.386044 7.64096C0.821992 7.30189 1.45027 7.38043 1.78934 7.81638L4.25291 10.9838L12.2291 1.33176C12.5809 0.906034 13.2113 0.846112 13.637 1.19792Z" clip-rule="evenodd"/></svg>