<svg xmlns="http://www.w3.org/2000/svg" viewBox="0 0 48 48"><g transform="matrix(3.4285714285714284,0,0,3.4285714285714284,0,0)"><path d="M11.29,1.64A6.08,6.08,0,0,0,8.3,0a.26.26,0,0,0-.21,0A.25.25,0,0,0,8,.26V3.14a.26.26,0,0,0,.15.24,3,3,0,1,1-2.3,0A.26.26,0,0,0,6,3.14V.25A.22.22,0,0,0,5.91.06.23.23,0,0,0,5.7,0,6.27,6.27,0,0,0,.75,6.14a6.12,6.12,0,0,0,2.88,5.23.22.22,0,0,1,.12.21V13.5a.5.5,0,0,0,.5.5h5.5a.5.5,0,0,0,.5-.5v-.88a.25.25,0,0,1,.25-.25h.75a2,2,0,0,0,2-2v-4A6.76,6.76,0,0,0,11.29,1.64Z"/></g></svg>