<svg xmlns="http://www.w3.org/2000/svg" viewBox="0 0 14 14"><path fill-rule="evenodd" d="M10.0202 0.735645C9.07748 0.281417 8.04439 0.0458216 6.99794 0.0464172H6.9978C5.74005 0.0468352 4.50595 0.388385 3.42696 1.03469C2.34792 1.68103 1.4644 2.60794 0.870497 3.7167C0.276597 4.82546 -0.00544202 6.07455 0.0544209 7.33092C0.110161 8.50077 0.460382 9.63614 1.07073 10.6324L0.0765003 13.2776C0.013186 13.4461 0.045278 13.6356 0.160531 13.7738C0.275783 13.912 0.456415 13.9776 0.6335 13.9456L4.09948 13.3188C4.9988 13.7319 5.97656 13.9486 6.96747 13.9535C8.01395 13.9586 9.04811 13.7276 9.99286 13.2774C10.9376 12.8273 11.7686 12.1697 12.4238 11.3537C13.079 10.5378 13.5416 9.58442 13.7771 8.56476C14.0126 7.5451 14.0149 6.48545 13.7839 5.46477C13.5528 4.4441 13.0944 3.48874 12.4427 2.66991C11.7911 1.85108 10.963 1.18989 10.0202 0.735645ZM3.39453 5.40595C3.39453 5.06077 3.67435 4.78095 4.01953 4.78095H9.97667C10.3218 4.78095 10.6017 5.06077 10.6017 5.40595C10.6017 5.75113 10.3218 6.03095 9.97667 6.03095H4.01953C3.67435 6.03095 3.39453 5.75113 3.39453 5.40595ZM4.01953 7.96901C3.67435 7.96901 3.39453 8.24883 3.39453 8.59401C3.39453 8.93919 3.67435 9.21901 4.01953 9.21901H7.99095C8.33613 9.21901 8.61595 8.93919 8.61595 8.59401C8.61595 8.24883 8.33613 7.96901 7.99095 7.96901H4.01953Z" clip-rule="evenodd"/></svg>