<svg xmlns="http://www.w3.org/2000/svg" viewBox="0 0 14 14"><path fill-rule="evenodd" d="M2.25 1.75C2.25 1.61193 2.36193 1.5 2.5 1.5H7.5C7.91421 1.5 8.25 1.16421 8.25 0.75C8.25 0.335786 7.91421 0 7.5 0H2.5C1.5335 0 0.75 0.783502 0.75 1.75V9.5C0.75 9.91421 1.08579 10.25 1.5 10.25C1.91421 10.25 2.25 9.91421 2.25 9.5V1.75ZM5.49997 3H8.375V6.5C8.375 6.84518 8.65482 7.125 9 7.125H12.5V12.5C12.5 13.3284 11.8284 14 11 14H5.49997C4.67154 14 3.99997 13.3284 3.99997 12.5V4.5C3.99997 3.67157 4.67154 3 5.49997 3ZM9.625 3.12503L12.375 5.875H9.625V3.12503Z" clip-rule="evenodd"/></svg>