<svg xmlns="http://www.w3.org/2000/svg" viewBox="0 0 48 48">
  
<g transform="matrix(3.4285714285714284,0,0,3.4285714285714284,0,0)"><g>
    <path d="M7,10.5a1,1,0,0,0-1-1H4.75a.25.25,0,0,1-.25-.25V8a1,1,0,0,0-2,0V9.25a.25.25,0,0,1-.25.25H1a1,1,0,0,0,0,2H2.25a.25.25,0,0,1,.25.25V13a1,1,0,0,0,2,0V11.75a.25.25,0,0,1,.25-.25H6A1,1,0,0,0,7,10.5Z" style="fill: #000000"></path>
    <path d="M13.78,4,10,.22A.75.75,0,0,0,9.5,0H3.75A1.76,1.76,0,0,0,2,1.75v3.8a.24.24,0,0,0,.12.21.23.23,0,0,0,.24,0,2.58,2.58,0,0,1,.91-.26.25.25,0,0,0,.23-.25V1.75a.25.25,0,0,1,.25-.25H9.09a.26.26,0,0,1,.17.07l3.17,3.17a.26.26,0,0,1,.07.17v7.34a.25.25,0,0,1-.25.25H7.58a.24.24,0,0,0-.14.05A2.57,2.57,0,0,1,6.22,13a.26.26,0,0,0-.23.23,2.33,2.33,0,0,1-.08.46.22.22,0,0,0,0,.22.25.25,0,0,0,.2.1h6.1A1.76,1.76,0,0,0,14,12.25V4.5A.75.75,0,0,0,13.78,4Z" style="fill: #000000"></path>
  </g></g></svg>