<svg xmlns="http://www.w3.org/2000/svg" viewBox="0 0 48 48"><g transform="matrix(3.4285714285714284,0,0,3.4285714285714284,0,0)"><path d="M12.25,1.5H11a.25.25,0,0,1-.25-.25V.75a.75.75,0,0,0-1.5,0v.5A.25.25,0,0,1,9,1.5H5a.25.25,0,0,1-.25-.25V.75a.75.75,0,0,0-1.5,0v.5A.25.25,0,0,1,3,1.5H1.75A1.76,1.76,0,0,0,0,3.25v9A1.76,1.76,0,0,0,1.75,14h10.5A1.76,1.76,0,0,0,14,12.25v-9A1.76,1.76,0,0,0,12.25,1.5ZM4,12.25H3a.75.75,0,0,1,0-1.5H4a2.23,2.23,0,0,0,.62-.07.19.19,0,0,0,.13-.18c0-.24-.5-.25-.5-.25a.75.75,0,0,1-.68-.43.77.77,0,0,1,.1-.8.19.19,0,0,0,0-.18.19.19,0,0,0-.15-.09H3a.75.75,0,0,1,0-1.5H5.5a.75.75,0,0,1,.68.43.77.77,0,0,1-.1.8l-.38.45a.25.25,0,0,0,0,.35,1.57,1.57,0,0,1,.53,1.22C6.25,11.15,6,12.25,4,12.25Zm7.5,0h-3a.75.75,0,0,1,0-1.5H9a.25.25,0,0,0,.25-.25V9A.25.25,0,0,0,9,8.75H8.75a.75.75,0,0,1,0-1.5H10a.76.76,0,0,1,.75.75v2.5a.25.25,0,0,0,.25.25h.5a.75.75,0,0,1,0,1.5Zm1-7a.25.25,0,0,1-.25.25H1.75a.25.25,0,0,1-.25-.25v-2A.25.25,0,0,1,1.75,3H3a.25.25,0,0,1,.25.25v.5a.75.75,0,0,0,1.5,0v-.5A.25.25,0,0,1,5,3H9a.25.25,0,0,1,.25.25v.5a.75.75,0,0,0,1.5,0v-.5A.25.25,0,0,1,11,3h1.25a.25.25,0,0,1,.25.25Z"/></g></svg>