<svg xmlns="http://www.w3.org/2000/svg" viewBox="0 0 48 48">
  
<g transform="matrix(3.4285714285714284,0,0,3.4285714285714284,0,0)"><path d="M12.25,1.5H11a.25.25,0,0,1-.25-.25V.75a.75.75,0,0,0-1.5,0v.5A.25.25,0,0,1,9,1.5H5a.25.25,0,0,1-.25-.25V.75a.75.75,0,0,0-1.5,0v.5A.25.25,0,0,1,3,1.5H1.75A1.76,1.76,0,0,0,0,3.25v9A1.76,1.76,0,0,0,1.75,14h10.5A1.76,1.76,0,0,0,14,12.25v-9A1.76,1.76,0,0,0,12.25,1.5ZM3,12.5a1,1,0,1,1,1-1A1,1,0,0,1,3,12.5ZM3,9A1,1,0,1,1,4,8,1,1,0,0,1,3,9ZM7,9A1,1,0,1,1,8,8,1,1,0,0,1,7,9Zm4,0a1,1,0,1,1,1-1A1,1,0,0,1,11,9Zm1.5-3.75a.25.25,0,0,1-.25.25H1.75a.25.25,0,0,1-.25-.25v-2A.25.25,0,0,1,1.75,3H3a.25.25,0,0,1,.25.25v.5a.75.75,0,0,0,1.5,0v-.5A.25.25,0,0,1,5,3H9a.25.25,0,0,1,.25.25v.5a.75.75,0,0,0,1.5,0v-.5A.25.25,0,0,1,11,3h1.25a.25.25,0,0,1,.25.25Z" style="fill: #000000"></path></g></svg>