<svg xmlns="http://www.w3.org/2000/svg" viewBox="0 0 48 48"><g transform="matrix(3.4285714285714284,0,0,3.4285714285714284,0,0)"><g><path d="M14,4.25a.76.76,0,0,0-.75-.75H10.5a.25.25,0,0,1-.25-.25,3.25,3.25,0,0,0-6.5,0,.25.25,0,0,1-.25.25H.75A.75.75,0,0,0,.75,5h1A.25.25,0,0,1,2,5.25v7A1.76,1.76,0,0,0,3.75,14h6.5A1.76,1.76,0,0,0,12,12.25v-7A.25.25,0,0,1,12.25,5h1A.76.76,0,0,0,14,4.25Zm-8.75-1a1.75,1.75,0,0,1,3.5,0,.25.25,0,0,1-.25.25h-3A.25.25,0,0,1,5.25,3.25Zm5.25,9a.25.25,0,0,1-.25.25H3.75a.25.25,0,0,1-.25-.25v-7A.25.25,0,0,1,3.75,5h6.5a.25.25,0,0,1,.25.25Z"/><path d="M8.5,11.12a.75.75,0,0,0,.75-.74V7.12a.75.75,0,0,0-1.5,0v3.26A.75.75,0,0,0,8.5,11.12Z"/><path d="M5.5,11.12a.75.75,0,0,0,.75-.74V7.12a.75.75,0,0,0-1.5,0v3.26A.75.75,0,0,0,5.5,11.12Z"/></g></g></svg>