<svg xmlns="http://www.w3.org/2000/svg" fill="none" viewBox="0 0 14 14" height="48" width="48"><path fill="#000000" fill-rule="evenodd" d="M4.34961 0.577145C5.52686 0.06699 6.82167 -0.109798 8.09258 0.0660955C9.3635 0.241989 10.5616 0.763799 11.5561 1.57451C12.5503 2.3851 13.3028 3.45332 13.7311 4.6625C14.0005 5.42021 13.8807 6.28804 13.4161 6.94442C12.9516 7.6006 12.1733 8.002 11.3693 8H9.50002L9.49863 8C9.14156 7.99901 8.79585 8.12544 8.52365 8.35655C8.25146 8.58766 8.07063 8.90828 8.01369 9.26079C7.95674 9.61329 8.02742 9.97455 8.213 10.2796C8.39859 10.5847 8.68691 10.8135 9.02613 10.925C9.03219 10.927 9.03821 10.9291 9.04419 10.9313C9.59426 11.1357 9.97901 11.6332 10.016 12.217C10.0967 12.8877 9.65913 13.5577 9.00582 13.7412C8.39542 13.9146 7.76375 14.0017 7.1292 14C5.84638 13.9993 4.5884 13.6461 3.49268 12.979C1.27918 11.6313 -0.0290515 9.1028 0.149587 6.51747C0.328225 3.93215 1.97179 1.60757 4.34961 0.577145ZM4.5 7C5.32843 7 6 6.32843 6 5.5C6 4.67157 5.32843 4 4.5 4C3.67157 4 3 4.67157 3 5.5C3 6.32843 3.67157 7 4.5 7ZM10.4999 4.00049C10.4999 4.82892 9.82831 5.50049 8.99988 5.50049C8.17145 5.50049 7.49988 4.82892 7.49988 4.00049C7.49988 3.17206 8.17145 2.50049 8.99988 2.50049C9.82831 2.50049 10.4999 3.17206 10.4999 4.00049ZM4.49988 10.4995C5.05216 10.4995 5.49988 10.0518 5.49988 9.49951C5.49988 8.94723 5.05216 8.49951 4.49988 8.49951C3.94759 8.49951 3.49988 8.94723 3.49988 9.49951C3.49988 10.0518 3.94759 10.4995 4.49988 10.4995Z" clip-rule="evenodd"></path></svg>