<svg xmlns="http://www.w3.org/2000/svg" viewBox="0 0 14 14"><path fill-rule="evenodd" d="M1.43934 0.43934C1.72064 0.158035 2.10218 0 2.5 0H7.5C7.63261 0 7.75979 0.0526784 7.85355 0.146447L12.8536 5.14645C12.9473 5.24021 13 5.36739 13 5.5V12.5C13 12.8978 12.842 13.2794 12.5607 13.5607C12.2794 13.842 11.8978 14 11.5 14H2.5C2.10217 14 1.72064 13.842 1.43934 13.5607C1.15804 13.2794 1 12.8978 1 12.5V1.5C1 1.10218 1.15804 0.720644 1.43934 0.43934ZM4.5 3.875C4.15482 3.875 3.875 4.15482 3.875 4.5C3.875 4.84518 4.15482 5.125 4.5 5.125H6.5C6.84518 5.125 7.125 4.84518 7.125 4.5C7.125 4.15482 6.84518 3.875 6.5 3.875H4.5ZM3.875 7.5C3.875 7.15482 4.15482 6.875 4.5 6.875H9.5C9.84518 6.875 10.125 7.15482 10.125 7.5C10.125 7.84518 9.84518 8.125 9.5 8.125H4.5C4.15482 8.125 3.875 7.84518 3.875 7.5ZM4.5 9.875C4.15482 9.875 3.875 10.1548 3.875 10.5C3.875 10.8452 4.15482 11.125 4.5 11.125H9.5C9.84518 11.125 10.125 10.8452 10.125 10.5C10.125 10.1548 9.84518 9.875 9.5 9.875H4.5Z" clip-rule="evenodd"/></svg>