<svg xmlns="http://www.w3.org/2000/svg" viewBox="0 0 14 14"><path fill-rule="evenodd" d="M8.99999 6.5C9.2883 6.5 9.55108 6.66526 9.67597 6.92511C9.80086 7.18496 9.76575 7.49339 9.58564 7.71852L7.58564 10.2185C7.44332 10.3964 7.22783 10.5 6.99999 10.5C6.77215 10.5 6.55667 10.3964 6.41434 10.2185L4.41434 7.71852C4.23424 7.49339 4.19913 7.18496 4.32402 6.92511C4.44891 6.66526 4.71169 6.5 4.99999 6.5H6V1C6 0.447716 6.44772 0 7 0C7.55229 0 8 0.447716 8 1V6.5H8.99999ZM11 12V5.99998C10.4477 5.99998 10 5.55227 10 4.99998C10 4.4477 10.4477 3.99998 11 3.99998H11.5C11.8978 3.99998 12.2794 4.15802 12.5607 4.43932C12.842 4.72062 13 5.10216 13 5.49998V12.5C13 12.8979 12.842 13.2794 12.5607 13.5607C12.2794 13.842 11.8978 14 11.5 14L2.5 14.0001C2.10218 14.0001 1.72065 13.842 1.43934 13.5607C1.15803 13.2794 1 12.8979 1 12.5001V5.5C1 5.10218 1.15803 4.72065 1.43934 4.43934C1.72064 4.15804 2.10218 4 2.5 4H3C3.55229 4 4 4.44772 4 5C4 5.55228 3.55229 6 3 6V12.0001L11 12Z" clip-rule="evenodd"/></svg>