<svg xmlns="http://www.w3.org/2000/svg" viewBox="0 0 48 48"><g transform="matrix(3.4285714285714284,0,0,3.4285714285714284,0,0)"><g><path d="M13.33,5.5c-.2-.21-.43-.46-.69-.72a.25.25,0,0,0-.18-.08.26.26,0,0,0-.17.07L11.22,5.84a.24.24,0,0,0,0,.35c.21.21.41.42.61.64a.25.25,0,0,1,0,.34C10.57,8.53,9.11,9.93,7.16,10a.28.28,0,0,0-.17.07L5.61,11.45a.25.25,0,0,0-.06.25.24.24,0,0,0,.19.17A6.4,6.4,0,0,0,7,12c3.1,0,5.2-2.28,6.33-3.5l.14-.15a2,2,0,0,0,0-2.7Z" /><path d="M13.78.22a.75.75,0,0,0-1.06,0L10.25,2.69a.26.26,0,0,1-.29,0A6.51,6.51,0,0,0,7,2C3.9,2,1.8,4.28.67,5.5l-.14.15a2,2,0,0,0,0,2.7l.14.15a18.42,18.42,0,0,0,1.71,1.67.21.21,0,0,1,.09.18.23.23,0,0,1-.07.19L.22,12.72a.75.75,0,0,0,0,1.06.75.75,0,0,0,1.06,0l12.5-12.5A.75.75,0,0,0,13.78.22Zm-11.61,7a.25.25,0,0,1,0-.34C3.49,5.41,5,4,7,4a4.18,4.18,0,0,1,1.24.18.26.26,0,0,1,.17.18.27.27,0,0,1-.07.24L4.18,8.76a.26.26,0,0,1-.33,0A16,16,0,0,1,2.17,7.17Z" /></g></g></svg>