<svg xmlns="http://www.w3.org/2000/svg" viewBox="0 0 14 14"><path d="M8.06356 3.75515C8.06356 2.67675 8.60345 2.67675 9.14334 2.67675H9.79121C9.89938 2.6782 10.0067 2.65799 10.107 2.61732C10.2072 2.57664 10.2982 2.51633 10.3747 2.43993C10.4512 2.36353 10.5116 2.2726 10.5523 2.17251C10.5931 2.07242 10.6133 1.96519 10.6118 1.85716V0.84346C10.6119 0.734917 10.5903 0.627453 10.5484 0.527307C10.5064 0.42716 10.445 0.336327 10.3677 0.260078C10.2903 0.18383 10.1986 0.123686 10.0978 0.0831375C9.99696 0.0425893 9.88909 0.0224446 9.78041 0.0238728L8.24712 0.00230466C7.80066 -0.0149417 7.35577 0.0647696 6.94316 0.235937C6.53054 0.407104 6.16003 0.665651 5.8572 0.993733C5.55436 1.32181 5.32641 1.71162 5.18908 2.13624C5.05175 2.56086 5.00831 3.01018 5.06176 3.4532V5.01689H4.20873C3.99108 5.01689 3.78235 5.10324 3.62845 5.25694C3.47455 5.41064 3.38809 5.61911 3.38809 5.83648V6.85018C3.38809 7.06754 3.47455 7.27601 3.62845 7.42971C3.78235 7.58341 3.99108 7.66976 4.20873 7.66976H5.06176V13.4608C5.06176 13.6038 5.11864 13.741 5.21989 13.8421C5.32114 13.9432 5.45846 14 5.60165 14H7.55606C7.69356 13.9917 7.8227 13.9313 7.91705 13.8311C8.01139 13.7308 8.0638 13.5984 8.06356 13.4608V7.66976H9.01377C9.23141 7.66976 9.44014 7.58341 9.59404 7.42971C9.74794 7.27601 9.8344 7.06754 9.8344 6.85018V5.83648C9.8344 5.61911 9.74794 5.41064 9.59404 5.25694C9.44014 5.10324 9.23141 5.01689 9.01377 5.01689H8.06356V3.75515Z"/></svg>