<svg xmlns="http://www.w3.org/2000/svg" viewBox="0 0 48 48"><g transform="matrix(3.4285714285714284,0,0,3.4285714285714284,0,0)"><path d="M14,1.54A1.54,1.54,0,0,0,12.46,0H1.54A1.54,1.54,0,0,0,0,1.54V12.46A1.54,1.54,0,0,0,1.54,14h5a.25.25,0,0,0,.25-.25V9a.25.25,0,0,0-.25-.25H6.12a.61.61,0,0,1-.62-.61V7.38a.61.61,0,0,1,.62-.61h.39a.25.25,0,0,0,.25-.25V5.6A2.32,2.32,0,0,1,9.15,3L10.3,3a.62.62,0,0,1,.6.62v.74a.58.58,0,0,1-.18.43.55.55,0,0,1-.43.18H9.8C9.42,5,9,5,9,5.83v.69a.25.25,0,0,0,.25.25h.46a.61.61,0,0,1,.61.61v.77a.61.61,0,0,1-.61.61H9.29A.25.25,0,0,0,9,9v4.74a.25.25,0,0,0,.25.25h3.17A1.54,1.54,0,0,0,14,12.46Z"/></g></svg>