<svg viewBox="0 0 14 14" xmlns="http://www.w3.org/2000/svg"><path d="M7.02324 3.17e-07C5.35174 -0.000507231 3.7349 0.608474 2.46344 1.71744C1.19199 2.82641 0.349338 4.3626 0.0870178 6.04979C-0.175303 7.73698 0.159915 9.46447 1.03239 10.9216C1.90487 12.3788 3.25737 13.47 4.84669 13.9991H5.01051C5.15997 14.0066 5.30654 13.9552 5.42008 13.8556C5.48839 13.7948 5.5427 13.7193 5.57911 13.6345C5.61553 13.5497 5.63315 13.4578 5.63071 13.3652V13.2397C5.63071 13.138 5.63071 13.0005 5.63071 12.5878C5.62601 12.549 5.61374 12.5116 5.59465 12.4777C5.57556 12.4438 5.55002 12.4141 5.51955 12.3905C5.48624 12.3633 5.44752 12.3438 5.40608 12.3335C5.36464 12.3231 5.32149 12.3222 5.27966 12.3307C3.70575 12.6775 3.37225 11.6729 3.35469 11.6071C3.15678 11.0748 2.80339 10.6175 2.34248 10.2975L2.25472 10.2317C2.3238 10.1976 2.40061 10.1832 2.47705 10.1899C2.62287 10.2123 2.76068 10.2724 2.87741 10.3645C2.99413 10.4566 3.08592 10.5776 3.14406 10.7161C3.3704 11.1189 3.74079 11.4163 4.17729 11.5457C4.61378 11.675 5.08236 11.6263 5.48444 11.4098C5.52789 11.3901 5.56631 11.3604 5.59675 11.3231C5.62718 11.2857 5.64881 11.2417 5.65997 11.1945C5.68369 10.92 5.79943 10.6623 5.98762 10.465C6.03101 10.4267 6.06245 10.3763 6.07805 10.3199C6.09366 10.2636 6.09273 10.2038 6.07539 10.148C6.05941 10.0921 6.0275 10.0424 5.98373 10.0051C5.93996 9.9678 5.88632 9.9447 5.82965 9.93871C4.44297 9.77725 3.02119 9.28092 3.02119 6.83511C3.01109 6.22007 3.23321 5.6247 3.64139 5.17268C3.67828 5.13138 3.70285 5.08016 3.71218 5.02506C3.72151 4.96996 3.71522 4.91328 3.69405 4.86172C3.532 4.39524 3.53407 3.88563 3.6999 3.42054C4.2402 3.51922 4.74736 3.75577 5.17434 4.10824C5.20987 4.13307 5.25051 4.14921 5.29312 4.15544C5.33573 4.16166 5.37917 4.15779 5.42008 4.14412C5.94306 4.00157 6.48198 3.9292 7.02324 3.92884C7.56661 3.92621 8.10785 3.99862 8.63225 4.14412C8.67219 4.15774 8.71471 4.16158 8.75637 4.15535C8.79803 4.14912 8.83769 4.13298 8.87214 4.10824C9.29858 3.75488 9.80597 3.51822 10.3466 3.42054C10.5073 3.88074 10.5073 4.38358 10.3466 4.84378C10.3254 4.89576 10.3197 4.95296 10.3301 5.00825C10.3405 5.06354 10.3666 5.11448 10.4051 5.15474C10.8069 5.60316 11.0266 6.19118 11.0194 6.79923C11.0194 9.25102 9.59766 9.74137 8.20513 9.89685C8.14846 9.90284 8.09481 9.92594 8.05105 9.96322C8.00728 10.0005 7.97537 10.0503 7.95939 10.1062C7.94252 10.1611 7.94185 10.2198 7.95746 10.2751C7.97307 10.3304 8.00426 10.3798 8.04715 10.4171C8.17658 10.5552 8.27543 10.7201 8.33701 10.9007C8.39859 11.0812 8.42146 11.2732 8.40406 11.4636V13.3652C8.40276 13.4582 8.42147 13.5503 8.45888 13.6351C8.4963 13.7198 8.55149 13.7951 8.62055 13.8556C8.70769 13.9235 8.80938 13.9692 8.91723 13.9889C9.02507 14.0087 9.13597 14.0019 9.24075 13.9692C10.8119 13.4228 12.1428 12.3252 12.9974 10.8712C13.8521 9.41726 14.1751 7.70088 13.9094 6.0266C13.6436 4.35231 12.8061 2.82838 11.5455 1.72515C10.285 0.621917 8.68279 0.0107244 7.02324 3.17e-07V3.17e-07Z"/></svg>