<svg viewBox="0 0 14 14" xmlns="http://www.w3.org/2000/svg"><g clip-path="url(#clip0_560_7145)"><path d="M7.37242 6.61499C7.17696 6.61618 6.98626 6.67545 6.82455 6.78526C6.66285 6.89508 6.53744 7.05049 6.46427 7.23175C6.39109 7.413 6.37345 7.61192 6.41358 7.80322C6.45372 7.99453 6.54982 8.16958 6.68967 8.30614C6.82952 8.44271 7.00682 8.53461 7.19902 8.57018C7.39123 8.60575 7.58967 8.58338 7.76913 8.50591C7.94859 8.42844 8.10097 8.29936 8.20691 8.13509C8.31285 7.97082 8.36756 7.77876 8.36409 7.58332C8.358 7.32438 8.25083 7.0781 8.06552 6.89715C7.8802 6.71619 7.63144 6.61492 7.37242 6.61499Z"/><path d="M9.64299 1.27167C9.60479 1.25641 9.5701 1.23355 9.54102 1.20447C9.51194 1.17538 9.48907 1.14069 9.47382 1.1025C9.35387 0.779661 9.13825 0.501121 8.85576 0.30411C8.57327 0.107099 8.23738 0.00100252 7.89298 0L6.85465 0C6.49849 0.00083666 6.15168 0.114065 5.86363 0.32355C5.57559 0.533035 5.36102 0.828089 5.25049 1.16667C5.23845 1.20797 5.21687 1.24586 5.18748 1.27727C5.15809 1.30868 5.12173 1.33274 5.08132 1.3475C4.19582 1.66809 3.42433 2.24233 2.86311 2.99858C2.30189 3.75483 1.97579 4.6596 1.92549 5.6C1.91827 5.76878 1.87448 5.93397 1.79715 6.08417C1.71549 6.25333 1.59882 6.4575 1.49965 6.62667C1.03012 7.29557 0.744486 8.07604 0.671319 8.89C0.661861 9.04381 0.700604 9.19674 0.782152 9.3275C0.850388 9.4186 0.938254 9.49316 1.03924 9.54567C1.14022 9.59818 1.25172 9.62729 1.36549 9.63083H1.68632C1.76367 9.63083 1.83786 9.66156 1.89256 9.71626C1.94726 9.77096 1.97799 9.84514 1.97799 9.9225V11.0892C1.97799 11.4759 2.13163 11.8469 2.40512 12.1204C2.67861 12.3939 3.04954 12.5475 3.43632 12.5475H4.31132C4.38867 12.5475 4.46286 12.5782 4.51756 12.6329C4.57226 12.6876 4.60299 12.7618 4.60299 12.8392V13.7142C4.60299 13.7915 4.63371 13.8657 4.68841 13.9204C4.74311 13.9751 4.8173 14.0058 4.89465 14.0058H10.728C10.8053 14.0058 10.8795 13.9751 10.9342 13.9204C10.9889 13.8657 11.0197 13.7915 11.0197 13.7142V11.5442C11.0195 11.4968 11.0312 11.4501 11.0536 11.4084C11.076 11.3666 11.1084 11.3311 11.148 11.305C12.6122 10.3192 13.353 8.785 13.353 6.74333C13.3665 5.56176 13.0183 4.4043 12.3552 3.42627C11.6921 2.44824 10.7457 1.69641 9.64299 1.27167V1.27167ZM7.58382 9.91667C7.4627 9.92233 7.34728 9.96973 7.25715 10.0508C6.60736 10.6061 5.8511 11.0229 5.03465 11.2758C4.97425 11.2939 4.92114 11.3306 4.88299 11.3808C4.81475 11.4711 4.72662 11.5443 4.62544 11.5949C4.52426 11.6455 4.41277 11.6721 4.29965 11.6725H4.00799C3.8146 11.6725 3.62913 11.5957 3.49239 11.4589C3.35564 11.3222 3.27882 11.1367 3.27882 10.9433C3.27882 10.7499 3.35564 10.5645 3.49239 10.4277C3.62913 10.291 3.8146 10.2142 4.00799 10.2142H4.29965C4.44742 10.2147 4.59165 10.2594 4.71382 10.3425C4.75082 10.3681 4.79336 10.3847 4.83796 10.3907C4.88256 10.3968 4.92797 10.3923 4.97049 10.3775C5.38416 10.2372 5.77669 10.0409 6.13715 9.79417C6.15754 9.78105 6.17417 9.76287 6.18542 9.74139C6.19666 9.71992 6.20214 9.69589 6.20132 9.67167C6.2011 9.64762 6.19517 9.62398 6.18401 9.60268C6.17285 9.58138 6.15679 9.56304 6.13715 9.54917C5.80015 9.33936 5.52341 9.04563 5.33402 8.69675C5.14463 8.34786 5.04908 7.95578 5.05672 7.55888C5.06436 7.16198 5.17494 6.77386 5.37763 6.43253C5.58031 6.0912 5.86816 5.80835 6.21298 5.61167C6.25707 5.58622 6.29372 5.54967 6.3193 5.50567C6.34489 5.46167 6.35851 5.41173 6.35882 5.36083V1.68C6.35874 1.54683 6.41042 1.41885 6.50293 1.32307C6.59545 1.22729 6.72156 1.17121 6.85465 1.16667H7.89298C8.02967 1.16666 8.16085 1.22055 8.25804 1.31666C8.35524 1.41276 8.41062 1.54332 8.41215 1.68V5.36083C8.41246 5.41173 8.42608 5.46167 8.45167 5.50567C8.47725 5.54967 8.5139 5.58622 8.55798 5.61167C8.91045 5.81106 9.20398 6.10003 9.40885 6.44934C9.61372 6.79865 9.72267 7.19588 9.72465 7.60083C9.72226 8.1847 9.50106 8.74645 9.10472 9.17519C8.70838 9.60393 8.1657 9.8685 7.58382 9.91667Z"/></g><defs><clipPath id="clip0_560_7145"><rect width="14" height="14"/></clipPath></defs></svg>