<svg width="30" height="30" viewBox="0 0 30 30" fill="none" xmlns="http://www.w3.org/2000/svg">
<g clip-path="url(#clip0)">
<path d="M29.7875 17.3149L25.2141 13.3513C24.9092 13.0464 24.4518 13.0464 24.1469 13.3513L19.7259 17.6198C19.421 17.9247 19.421 18.3821 19.7259 18.687C19.8784 18.8394 20.0308 18.9919 20.3357 18.9919C20.4881 18.9919 20.6406 18.9919 20.793 18.8394L23.9945 15.638C24.1469 20.059 21.4028 24.1751 17.1343 25.0898C14.0853 25.8521 10.8839 24.9374 8.59716 22.4982C8.29227 22.1933 7.83492 22.1933 7.53002 22.4982C7.22513 22.8031 7.22513 23.2604 7.53002 23.5653C9.51185 25.6996 12.2559 26.7667 15 26.7667C15.7622 26.7667 16.6769 26.6143 17.4392 26.4619C22.3175 25.2423 25.6714 20.6688 25.5189 15.638L28.5679 18.3821C28.8728 18.687 29.3302 18.687 29.6351 18.3821C30.0924 18.0772 30.0924 17.6198 29.7875 17.3149ZM23.9945 7.86313C21.2504 4.66171 17.1343 3.28968 13.0182 4.35682C9.9692 5.11906 7.37757 6.94844 5.85309 9.54007C4.6335 11.6743 4.17616 14.1135 4.3286 16.5527L1.27963 13.8086C0.974737 13.5037 0.517392 13.6562 0.212495 13.9611C-0.0924025 14.266 -0.0924026 14.7233 0.364943 15.0282L4.9384 18.9919C5.09085 19.1443 5.24329 19.1443 5.39574 19.1443C5.54819 19.1443 5.85309 19.1443 5.85309 18.9919L10.1216 14.8758C10.4265 14.5709 10.4265 14.1135 10.1216 13.8086C9.81675 13.5037 9.35941 13.5037 9.05451 13.8086L5.85309 16.8576C5.54819 14.5709 5.85309 12.2841 7.07268 10.4548C8.44471 8.16803 10.7314 6.64354 13.1706 5.8813C16.6769 5.11906 20.1832 6.1862 22.6224 8.93027C22.9273 9.23517 23.3847 9.23517 23.6896 8.93027C24.1469 8.62537 24.2994 8.16803 23.9945 7.86313Z" fill="black"/>
</g>
<defs>
<clipPath id="clip0">
<rect width="30" height="30" fill="white"/>
</clipPath>
</defs>
</svg>
