<svg width="30" height="30" viewBox="0 0 30 30" fill="none" xmlns="http://www.w3.org/2000/svg">
<g clip-path="url(#clip0)">
<path d="M29.4036 2.55683H25.1422V0.710232C25.1422 0.284093 24.8581 0 24.432 0H20.7388C20.3126 0 20.0285 0.284093 20.0285 0.710232V2.41479H10.2273V0.710232C10.2273 0.284093 9.94325 0 9.51711 0H5.68185C5.25572 0 4.97162 0.284093 4.97162 0.710232V2.41479H0.710232C0.284093 2.41479 0 2.69888 0 3.12502V29.2616C0 29.6877 0.284093 29.9718 0.710232 29.9718H29.2616C29.6877 29.9718 29.9718 29.6877 29.9718 29.2616V3.26707C30.1138 2.84093 29.6877 2.55683 29.4036 2.55683ZM21.307 1.42046H23.5797V3.12502V4.82958H21.307V3.26707V1.42046ZM6.39209 1.42046H8.66483V3.12502V4.82958H6.39209V3.26707V1.42046ZM4.97162 3.9773V5.68185C4.97162 6.10799 5.25572 6.39209 5.68185 6.39209H9.37506C9.8012 6.39209 10.0853 6.10799 10.0853 5.68185V3.9773H19.8865V5.68185C19.8865 6.10799 20.1706 6.39209 20.5967 6.39209H24.2899C24.7161 6.39209 25.0002 6.10799 25.0002 5.68185V3.9773H28.5513V8.80687H1.42046V3.9773H4.97162ZM1.42046 28.6934V10.2273H28.5513V28.6934H1.42046Z" fill="black"/>
<path d="M14.4887 23.7217H12.6421V14.4887C12.6421 14.2046 12.5001 13.9205 12.216 13.7785C11.9319 13.6365 11.6478 13.7785 11.5057 13.9205L8.94891 16.4774C8.66482 16.7615 8.66482 17.1876 8.94891 17.4717C9.233 17.7558 9.65914 17.7558 9.94323 17.4717L11.2217 16.1933V23.7217H9.51709C9.09096 23.7217 8.80686 24.0058 8.80686 24.432C8.80686 24.8581 9.09096 25.1422 9.51709 25.1422H14.4887C14.9149 25.1422 15.199 24.8581 15.199 24.432C15.199 24.0058 14.7728 23.7217 14.4887 23.7217Z" fill="black"/>
<path d="M21.8752 14.0626C21.7331 13.9205 21.5911 13.7785 21.307 13.7785H15.0569C14.6308 13.7785 14.3467 14.0626 14.3467 14.4887V15.7672C14.3467 16.1933 14.6308 16.4774 15.0569 16.4774C15.4831 16.4774 15.7672 16.1933 15.7672 15.7672V15.199H20.3126L19.0342 18.7501H17.0456C16.6194 18.7501 16.3353 19.0342 16.3353 19.4604C16.3353 19.8865 16.6194 20.1706 17.0456 20.1706H18.466L16.9035 24.1479C16.7615 24.574 16.9035 24.8581 17.3297 25.0002C17.4717 25.0002 17.4717 25.0002 17.6138 25.0002C17.8979 25.0002 18.1819 24.8581 18.324 24.574L20.0285 20.0285H20.7388C21.1649 20.0285 21.449 19.7445 21.449 19.3183C21.449 18.8922 21.1649 18.6081 20.7388 18.6081H20.4547L22.0172 14.6308C22.0172 14.4887 22.0172 14.2046 21.8752 14.0626Z" fill="black"/>
</g>
<defs>
<clipPath id="clip0">
<rect width="30" height="30" fill="white"/>
</clipPath>
</defs>
</svg>
