<svg viewBox="0 0 30 30" xmlns="http://www.w3.org/2000/svg"><path d="M27.6667 12.1667C26.5 11 24.8333 10.3333 23.3333 10.3333C21.6667 7.16667 18.5 5 15 5C10.3333 5 6.33333 8.66667 5.66667 13.5C4.5 13.5 3.16667 13.8333 2.16667 14.6667C0.833334 15.8333 0 17.5 0 19.3333C0 21 0.5 22.5 1.5 23.5C3.16667 25.1667 5.5 25.1667 5.66667 25.1667H9.33333C9.83333 25.1667 10.1667 24.8333 10.1667 24.3333C10.1667 23.8333 9.83333 23.5 9.33333 23.5H5.83333C5.66667 23.5 4 23.5 2.83333 22.3333C2.16667 21.6667 1.83333 20.6667 1.83333 19.5C1.83333 18.1667 2.33333 17 3.33333 16.1667C4.16667 15.5 5.33333 15.1667 6.33333 15.5C6.5 15.5 6.83333 15.5 7 15.3333C7.16667 15.1667 7.33333 15 7.33333 14.6667C7.5 10.1667 10.8333 6.66667 15 6.66667C18 6.66667 20.6667 8.5 22 11.5C22.1667 11.8333 22.3333 12 22.8333 12C24.1667 12 25.5 12.5 26.5 13.5C27.6667 14.5 28.3333 16.1667 28.3333 17.8333C28.3333 22.8333 23.6667 23.5 23.6667 23.5H20.5C20 23.5 19.6667 23.8333 19.6667 24.3333C19.6667 24.8333 20 25.1667 20.5 25.1667H23.6667C25.8333 24.8333 30 23 30 17.8333C30 15.5 29.1667 13.5 27.6667 12.1667Z"/><path d="M18.4 14.7L15.9 11.7C15.7 11.5 15.3 11.5 15.1 11.7L12.6 14.7C12.4 14.9 12.5 15.2 12.7 15.4C12.9 15.6 13.2 15.5 13.4 15.3L15 13.4V22.5C15 22.8 15.2 23 15.5 23C15.8 23 16 22.8 16 22.5V13.4L17.6 15.3C17.7 15.4 17.8 15.5 18 15.5C18.1 15.5 18.2 15.5 18.3 15.4C18.5 15.2 18.6 14.9 18.4 14.7Z"/></svg>