<svg xmlns="http://www.w3.org/2000/svg" viewBox="0 0 48 48"><path d="M8.44 1.888C5.969 2.325 3.548 3.83 2.016 5.88 1.109 7.094.349 8.933.117 10.473c-.173 1.143-.173 25.911 0 27.054.622 4.13 3.676 7.461 7.763 8.468 1.314.323 1.917.336 14.16.307l11.76-.029.78-.178c3.597-.821 6.367-3.201 7.631-6.557.256-.679.243-.86-.083-1.186-.339-.339-.583-.349-1.547-.066-1.297.382-2.869.359-4.308-.064-.682-.2-.864-.165-1.352.257-.514.445-.963.692-1.518.837-.42.109-1.84.124-11.963.124-10.062 0-11.545-.015-11.957-.123-1.19-.31-2.049-1.108-2.44-2.268C6.882 36.57 6.88 36.43 6.88 24s.002-12.57.163-13.049c.09-.266.247-.616.35-.777.48-.755 1.392-1.368 2.278-1.534.276-.051 4.515-.08 11.8-.079 12.407.001 11.963-.014 12.763.455.196.114.506.347.69.516.451.416.661.442 1.561.193 1.371-.378 2.977-.36 4.301.049.785.242 1.036.219 1.351-.125.314-.342.325-.52.074-1.187-1.103-2.93-3.479-5.23-6.42-6.216-1.512-.507-.915-.487-14.421-.479-10.222.006-12.398.026-12.93.121m29.539 12.754c-.801.201-1.515.848-1.815 1.642-.141.373-.172.589-.144.997.053.776.28 1.198 1.09 2.03.391.401.75.808.8.904.159.308.107.644-.143.924l-.234.261-10.106.04-10.107.04-.379.175c-.208.096-.554.35-.768.565-1.219 1.218-.864 3.313.69 4.076l.457.224 10.107.04 10.106.04.234.261c.25.28.302.616.143.924-.05.096-.409.503-.8.904-.81.832-1.037 1.254-1.09 2.03-.049.708.187 1.331.716 1.891.533.563 1.046.784 1.826.788.518.002.673-.033 1.12-.254.459-.227.936-.677 4.205-3.96 4.174-4.193 4.069-4.059 4.069-5.184s.105-.991-4.069-5.184c-3.157-3.171-3.756-3.737-4.167-3.94-.533-.262-1.246-.358-1.741-.234" fill-rule="evenodd"/></svg>