<svg xmlns="http://www.w3.org/2000/svg" viewBox="0 0 24 24"><path d="m15.191.636-.13.117-.021.523-.02.522-.32.158c-.176.087-.4.212-.499.279l-.178.122-.342-.186c-.187-.102-.386-.21-.441-.238-.162-.085-.39-.067-.496.04-.088.088-1.006 1.597-1.186 1.951-.101.198-.082.381.053.507.049.045.257.179.463.296l.373.213-.001.559-.001.558-.373.213c-.483.276-.608.409-.581.613.025.183 1.107 2.038 1.259 2.158.173.136.345.102.827-.162l.437-.239.243.158c.134.086.363.213.509.282l.266.124.014.521.014.522.131.116.13.117 1.25-.001c1.576-.001 1.509.034 1.509-.793v-.48l.214-.098c.117-.054.335-.179.483-.279l.27-.181.411.236c.506.291.668.311.85.104.202-.231 1.179-1.944 1.201-2.107.027-.203-.102-.339-.582-.61l-.372-.211-.003-.56-.002-.56.381-.22c.21-.121.418-.253.463-.294.124-.113.143-.276.055-.474-.138-.309-1.089-1.89-1.193-1.982-.187-.167-.384-.12-.953.228l-.25.153-.277-.18a5.057 5.057 0 0 0-.486-.279l-.21-.098v-.48c0-.827.067-.792-1.509-.793L15.321.52l-.13.116m1.895 1.257c.018.489.07.595.347.715l.427.186c.132.057.389.218.572.357.182.139.375.269.427.289.128.048.286-.001.63-.2.156-.09.299-.148.317-.13.051.051.474.774.474.81 0 .016-.15.114-.332.217-.462.259-.494.321-.428.82.048.364.04.817-.023 1.305-.023.18-.014.215.081.328.059.07.24.201.404.291.164.091.298.184.298.207 0 .058-.451.832-.485.832-.014 0-.15-.072-.301-.161-.329-.192-.506-.248-.636-.198a3.103 3.103 0 0 0-.426.288c-.183.139-.44.3-.572.357l-.427.186c-.277.12-.329.226-.347.716l-.015.414-.506-.011-.505-.011-.02-.42c-.011-.231-.042-.458-.069-.505-.046-.081-.275-.209-.491-.275-.221-.067-.717-.343-.933-.519-.381-.311-.47-.312-1.015-.01l-.328.181-.242-.415c-.133-.228-.242-.432-.242-.453 0-.021.131-.111.291-.199.16-.088.336-.208.39-.266.112-.119.12-.248.051-.799a2.812 2.812 0 0 1-.006-.6l.059-.481c.022-.179.013-.216-.083-.329-.058-.07-.24-.201-.404-.291-.164-.091-.298-.181-.298-.2 0-.059.483-.839.519-.839.019 0 .165.074.325.165.502.284.606.282.983-.026.245-.199.673-.427 1.088-.579.352-.129.405-.222.405-.723 0-.211.012-.396.027-.41.014-.015.246-.027.515-.027h.489l.015.413M15.99 3.561c-.518.13-1.051.584-1.3 1.106-.149.312-.15.315-.15.833s.001.521.15.833c.203.427.55.774.977.977.312.149.315.15.833.15s.521-.001.833-.15c.427-.203.774-.55.977-.977.149-.312.15-.315.15-.833s-.001-.521-.15-.833a2.071 2.071 0 0 0-.974-.975c-.291-.139-.336-.148-.753-.158-.244-.006-.51.006-.593.027m.684.958a.997.997 0 0 1 .38 1.805c-.719.495-1.695-.15-1.532-1.013.07-.371.408-.718.768-.789.094-.018.172-.035.175-.038.002-.002.096.013.209.035M6.557 8.637l-.117.117-.001.673v.673l-.389.18a6.752 6.752 0 0 0-.763.43c-.206.138-.384.25-.396.25-.011 0-.266-.139-.566-.309-.446-.253-.577-.309-.719-.31-.148-.001-.191.018-.28.126-.191.23-1.81 3.043-1.83 3.18-.033.221.083.345.588.63.717.403.668.351.627.671-.019.15-.03.53-.023.846l.012.574-.54.311c-.677.39-.779.532-.615.853.281.549 1.69 2.915 1.798 3.018.216.207.261.196 1.081-.262.244-.136.457-.248.473-.248.016 0 .14.078.276.174.328.231.667.424.997.567l.27.117v1.348l.117.117.117.117H8.54c1.203 0 1.893-.015 1.942-.041.165-.089.198-.239.198-.91v-.635l.299-.131c.273-.12.721-.393 1.048-.639l.128-.095.452.261c.59.34.692.39.795.39.203 0 .309-.128.803-.977 1.064-1.824 1.315-2.279 1.315-2.38 0-.203-.133-.334-.604-.6-.724-.407-.667-.34-.626-.73.031-.3.009-1.176-.033-1.288-.009-.025.238-.189.549-.365.619-.35.732-.463.698-.692-.026-.173-1.71-3.074-1.871-3.223-.183-.168-.327-.132-.953.236l-.525.31-.128-.095a6.305 6.305 0 0 0-1.048-.639l-.299-.131v-.635c0-.671-.033-.821-.198-.91-.049-.026-.739-.041-1.942-.041H6.674l-.117.117M9.681 9.95c.002.777.058.893.509 1.047.433.148.856.379 1.19.651.667.541.655.539 1.32.154.423-.245.484-.27.517-.21l.566.977.529.908-.432.243c-.684.384-.723.449-.622 1.025.078.45.079 1.022.002 1.538-.089.592-.093.586.73 1.056l.329.188-.096.166-.562.967c-.256.44-.482.795-.503.79a8.433 8.433 0 0 1-.487-.27c-.63-.365-.617-.366-1.282.17-.329.265-.758.5-1.189.651-.462.162-.517.274-.519 1.05l-.001.47-1.13-.01-1.13-.011-.02-.606c-.024-.717-.022-.715-.475-.89-.685-.265-.89-.382-1.564-.894-.346-.263-.407-.258-1.031.091a6.553 6.553 0 0 1-.512.27 93.29 93.29 0 0 1-.499-.851c-.269-.462-.523-.897-.565-.966l-.076-.126.331-.189c.822-.469.823-.471.732-1.037a5.527 5.527 0 0 1 0-1.604c.091-.566.089-.569-.727-1.035l-.327-.186.541-.928c.298-.511.562-.95.587-.975.034-.035.164.022.525.229.603.346.673.351 1.021.087.663-.504.884-.63 1.568-.895.457-.178.471-.203.471-.894 0-.312.012-.58.027-.594.014-.015.527-.027 1.14-.027H9.68l.001.47M7.8 12.582c-.341.073-.924.367-1.201.606-.511.44-.901 1.064-1.019 1.632a4.138 4.138 0 0 0 0 1.36c.118.568.508 1.192 1.019 1.632.284.245.864.534 1.221.608a4.138 4.138 0 0 0 1.36 0c.357-.074.937-.363 1.221-.608.511-.44.901-1.064 1.019-1.632a4.138 4.138 0 0 0 0-1.36c-.118-.568-.508-1.192-1.019-1.632-.284-.245-.864-.534-1.221-.608-.348-.073-1.035-.072-1.38.002m1.28 1.004c.417.114.865.457 1.123.859.385.6.385 1.51 0 2.11a1.99 1.99 0 0 1-1.703.937c-.552 0-.969-.166-1.369-.544-.422-.399-.616-.845-.621-1.428-.004-.569.156-.981.542-1.389.536-.567 1.247-.758 2.028-.545" fill-rule="evenodd"/></svg>