<?xml version="1.0" encoding="UTF-8"?><svg viewBox="0 0 22 17" version="1.1" xmlns="http://www.w3.org/2000/svg" xmlns:xlink="http://www.w3.org/1999/xlink"><!--Generator: Sketch 52.3 (67297) - http://www.bohemiancoding.com/sketch--><title>icon-send</title><desc>Created with Sketch.</desc><g id="Page-1" stroke-width="1" fill-rule="evenodd"><g id="icon-send" transform="translate(1.000000, 1.000000)" fill-rule="nonzero"><path d="M7.69047619,10.5 L7.69047619,11.5 L1.21428571,11.5 C0.271142808,11.5 -0.5,10.7515379 -0.5,9.82142857 L-0.5,1.17857143 C-0.5,0.248462139 0.271142808,-0.5 1.21428571,-0.5 L15.7857143,-0.5 C16.7288572,-0.5 17.5,0.248462141 17.5,1.17857143 L17.5,5.5 L16.5,5.5 L16.5,1.17857143 C16.5,0.807537863 16.1831428,0.5 15.7857143,0.5 L1.21428571,0.5 C0.816857191,0.5 0.5,0.807537862 0.5,1.17857143 L0.5,9.82142857 C0.5,10.1924621 0.816857191,10.5 1.21428571,10.5 L7.69047619,10.5 Z" id="Stroke-1"/><path d="M19.5802462,10.9032338 L14.9937555,16.2708528 L10.4187927,10.8884444 L12.7473789,10.8884444 L12.7473789,6 L17.2421368,6 L17.2421368,10.8914108 L19.5802462,10.9032338 Z M14.9957603,14.7291472 L17.4197538,11.8923218 L16.2421368,11.886367 L16.2421368,7 L13.7473789,7 L13.7473789,11.8884444 L12.5812073,11.8884444 L14.9957603,14.7291472 Z" id="Stroke-1" transform="translate(14.999519, 11.135426) rotate(-90.000000) translate(-14.999519, -11.135426) "/><polygon id="Stroke-3" points="9 7.33561589 16.6707477 0.623711653 17.3292523 1.37628835 9 8.66438411 0.670747696 1.37628835 1.3292523 0.623711653"/></g></g></svg>