<svg viewBox="0 0 30 30" xmlns="http://www.w3.org/2000/svg"><path d="M28.8895 30H1.06998C0.427992 30 0 29.572 0 28.93C0 28.716 7.6531e-07 26.1481 1.28398 23.5801C2.35396 21.6542 5.3499 20.3702 9.62982 18.8722L10.9138 18.4442V16.0903C10.2718 15.4483 9.41583 14.3783 9.20183 12.4523C8.98783 12.2383 8.77384 11.8103 8.55984 11.1683C8.34585 10.3124 8.34585 9.24238 8.98783 8.3864C8.55984 6.88843 7.70386 4.32047 8.98783 2.8225C9.20183 2.39451 9.84382 1.96652 10.6998 1.75252C11.5558 0.468545 14.1237 -0.173444 16.0497 0.0405523C18.6177 0.0405523 21.6136 0.896536 22.0416 3.25049C22.4696 5.17646 21.6136 7.31642 20.9716 8.60039C21.6136 9.24238 21.6136 10.3124 21.3996 11.1683C21.1856 11.8103 20.9716 12.2383 20.7576 12.4523C20.5436 14.1643 19.6876 15.4483 19.0456 16.0903V18.4442L20.3296 18.8722C24.6095 20.3702 27.8195 21.6542 28.6755 23.5801C29.9594 26.1481 29.9594 28.93 29.9594 28.93C29.9594 29.572 29.5315 30 28.8895 30ZM2.13996 27.86H27.6055C27.3915 27.0041 27.1775 25.7201 26.5355 24.4361C25.8935 23.1521 22.6836 22.0821 19.2596 20.7982L17.3337 20.1562C16.9057 19.9422 16.6917 19.5142 16.6917 19.0862V15.4483C16.6917 15.0203 16.9057 14.8063 17.1197 14.5923C17.1197 14.5923 18.4037 13.7363 18.4037 11.8103C18.4037 11.3823 18.6177 10.9544 19.0456 10.9544C19.0456 10.7404 19.2596 10.3124 19.0456 10.0984C18.6177 9.88437 18.4037 9.45638 18.4037 9.02839C18.4037 8.81439 18.4037 8.3864 18.8317 7.95841C19.2596 7.10242 19.9016 5.17646 19.6876 3.89248C19.4736 3.25049 17.9757 2.39451 15.8357 2.39451C13.6957 2.39451 12.1978 3.0365 12.1978 3.25049C11.9838 3.67849 11.5558 4.10648 11.1278 4.10648C10.4858 4.10648 10.4858 4.32047 10.4858 4.32047C9.84382 4.96246 10.6998 7.31642 10.9138 8.1724C11.1278 8.60039 11.1278 8.81439 11.1278 9.02839C11.1278 9.45638 10.9138 9.88437 10.4858 9.88437C10.2718 10.3124 10.4858 10.7404 10.4858 10.9544C10.9138 11.1683 11.1278 11.5963 11.1278 11.8103C11.1278 13.5223 12.4118 14.5923 12.4118 14.5923C12.6258 14.8063 12.8398 15.0203 12.8398 15.4483V19.0862C12.8398 19.5142 12.6258 19.9422 12.1978 20.1562L10.2718 20.7982C6.84787 22.0821 3.63793 23.1521 2.99594 24.4361C2.56795 25.7201 2.35396 27.0041 2.13996 27.86Z"/></svg>