<svg viewBox="0 0 30 30" xmlns="http://www.w3.org/2000/svg"><path d="M16.5 25.2H12.4C12.1 25.2 11.9 25 11.9 24.7V15.4H10C9.7 15.4 9.5 15.2 9.5 14.9V11.6C9.5 11.3 9.7 11.1 10 11.1H11.9V9.9C11.9 8.9 12.2 5.5 16.2 5.5H19.7C20 5.5 20.2 5.7 20.2 6V9.2C20.2 9.5 20 9.7 19.7 9.7H17.3C17.1 9.7 17 9.8 17 10.1V11.2H20C20.1 11.2 20.3 11.3 20.4 11.4C20.5 11.5 20.5 11.6 20.5 11.8L20.2 15C20.2 15.3 20 15.4 19.7 15.4H17V24.7C17 25 16.8 25.2 16.5 25.2ZM12.9 24.2H16V14.9C16 14.6 16.2 14.4 16.5 14.4H19.2L19.4 12.1H16.5C16.2 12.1 16 11.9 16 11.6V10C16 9 16.7 8.6 17.3 8.6H19.2V6.5H16.2C13.3 6.5 12.9 8.6 12.9 9.9V11.6C12.9 11.9 12.7 12.1 12.4 12.1H10.5V14.4H12.4C12.7 14.4 12.9 14.6 12.9 14.9V24.2V24.2Z"/></svg>