<svg viewBox="0 0 30 30" xmlns="http://www.w3.org/2000/svg"><g clip-path="url(#clip0)"><path d="M23.0736 29.6846C22.0841 29.6846 21.0946 29.4867 20.1051 28.893C12.585 23.9456 5.85652 17.2171 0.909091 9.69697C-0.476191 7.5201 -0.278293 4.74954 1.50278 2.96846L3.28386 1.18738C4.86704 -0.395795 7.24181 -0.395795 8.82498 1.18738L11.9913 4.35374C13.5745 5.93692 13.5745 8.31169 11.9913 9.89487L11.5955 10.2907C13.9703 13.2591 16.7409 15.8318 19.7093 18.4044L20.1051 18.0087C21.4904 16.6234 24.0631 16.6234 25.6463 18.0087L28.8126 21.175C29.6042 21.9666 30 22.9561 30 23.9456C30 24.9351 29.6042 25.9245 28.8126 26.7161L27.0315 28.4972C25.6463 29.0909 24.4589 29.6846 23.0736 29.6846ZM5.85652 1.97897C5.46073 1.97897 4.86704 2.17687 4.47124 2.57266L2.88806 4.15584C1.70068 5.34323 1.50278 7.1243 2.49227 8.31169C7.4397 15.6339 13.7724 22.1645 21.0946 26.914C22.4799 27.7056 24.261 27.7056 25.2505 26.5182L27.0315 24.7372C27.4273 24.3414 27.6252 23.9456 27.6252 23.3519C27.6252 22.7582 27.4273 22.3624 27.0315 21.9666L23.8652 18.8002C23.0736 18.0087 21.8862 18.0087 21.0946 18.8002L20.1051 19.7897C19.7093 20.1855 19.1156 20.1855 18.7199 19.7897C15.3556 17.0192 11.9913 13.6549 9.22078 10.0928C8.82498 9.69697 9.02288 9.10328 9.22078 8.70748L10.2103 7.71799C11.0019 6.9264 11.0019 5.73902 10.2103 4.94743L7.04391 1.78107C6.84601 2.17687 6.45022 1.97897 5.85652 1.97897Z"/></g><defs><clipPath id="clip0"><rect width="30" height="30"/></clipPath></defs></svg>