<svg viewBox="0 0 30 30" xmlns="http://www.w3.org/2000/svg"><g clip-path="url(#clip0)"><path d="M29.6958 5.9832L24.0168 0.30423C23.6112 -0.10141 23.0027 -0.10141 22.5971 0.30423L18.9463 3.955L4.74888 18.1524C4.74888 18.1524 4.54606 18.3552 4.54606 18.5581L0.0840107 28.4962C-0.11881 28.9019 0.0840115 29.3075 0.286832 29.7132C0.489652 29.916 0.692472 29.916 1.09811 29.916C1.30093 29.916 1.30093 29.916 1.50375 29.916L11.4419 25.6568C11.6448 25.6568 11.6448 25.4539 11.8476 25.4539L29.6958 7.60576C30.1014 6.9973 30.1014 6.38884 29.6958 5.9832ZM11.0363 23.2229L6.77708 18.9637L19.5548 6.18602L23.814 10.4452L11.0363 23.2229ZM5.76298 20.5863L9.41374 24.237L3.12631 26.8737L5.76298 20.5863ZM25.4365 9.0255L21.1773 4.76628L23.4083 2.53525L27.6676 6.79448L25.4365 9.0255Z"/></g><defs><clipPath id="clip0"><rect width="30" height="30"/></clipPath></defs></svg>