<svg width="30" height="30" viewBox="0 0 30 30" fill="none" xmlns="http://www.w3.org/2000/svg">
<path d="M0.625 24.75C0.25 24.75 0 24.5 0 24.125V18.5C0 17.25 4.5 15.25 6.875 14.375V12.625C6.375 12.25 5.75 11.375 5.625 9.625C5.125 9.25 4.875 8.5 4.875 7.75C4.875 7.375 5 7 5.125 6.625C5.25 6.5 5.375 6.375 5.5 6.25C5.125 5.375 4.5 4.125 5.25 3.25C5.5 2.875 6 2.75 6.5 2.75C7.125 1.5 9.125 1 10.625 1C12.375 1 14.5 1.625 15 3.375C15.25 4.5 14.875 5.625 14.625 6.25C14.75 6.375 14.875 6.5 14.875 6.625C15 6.875 15.125 7.25 15.125 7.75C15.125 8.5 14.875 9.25 14.25 9.625C14.125 11.5 13.5 12.25 13 12.625V14.375C14.125 14.875 15.375 15.375 16.375 15.875C16.625 16 16.75 16.375 16.625 16.75C16.5 17 16.125 17.125 15.75 17C14.625 16.375 13.25 15.875 12 15.375C12 15.25 11.875 15 11.875 14.75V12.25C11.875 12 12 11.75 12.25 11.625C12.25 11.625 13.125 11.25 13.125 9.125C13.125 8.75 13.375 8.5 13.75 8.5C13.75 8.5 13.875 8.125 13.875 7.625C13.875 7.375 13.75 7.25 13.75 7.25C13.5 7.25 13.125 7 13.125 6.625C13.125 6.375 13.25 6.25 13.375 6C13.625 5.5 14 4.625 13.75 3.625C13.625 2.875 12.25 2.25 10.625 2.25C9 2.25 7.625 2.875 7.5 3.625C7.375 4 7.125 4.125 6.75 4.125C6.25 4 6.125 4.125 6.125 4.125C6 4.25 6.125 4.625 6.625 5.875C6.75 6.25 6.875 6.375 6.875 6.625C6.875 7 6.625 7.25 6.25 7.25C6.25 7.25 6.125 7.25 6.125 7.375C6 7.875 6.125 8.375 6.375 8.5C6.625 8.5 6.875 8.75 6.875 9.125C6.875 11.25 7.75 11.625 7.75 11.625C8 11.75 8.125 12 8.125 12.25V14.75C8.125 15 8 15.25 7.75 15.375C4.5 16.625 1.75 18.125 1.25 18.625V24.125C1.25 24.5 1 24.75 0.625 24.75Z" fill="black"/>
<path d="M26.25 15.5C26.125 15.5 26 15.5 26 15.375C24.75 14.75 23.375 14 21.875 13.5C21.625 13.375 21.5 13.125 21.5 12.875V11.125C21.5 10.875 21.625 10.625 22 10.5C22 10.5 22.75 10.25 22.75 8.75C22.75 8.5 23 8.25 23.25 8.125C23.375 7.875 23.375 7.25 23.375 7C23.25 7 23.125 6.875 23 6.875C22.875 6.75 22.875 6.625 22.875 6.375C22.875 6.125 23 6 23.125 5.75C23.375 5.375 23.625 4.75 23.5 4.25C23.375 3.75 22.375 3.375 21.25 3.375C20.125 3.375 19.125 3.75 19 4.25C18.875 4.5 18.625 4.75 18.25 4.625C18 4.625 17.875 4.625 17.875 4.625C17.875 4.75 18 5.125 18.25 5.75C18 6.125 18.125 6.375 18.125 6.5C18.125 6.875 17.875 7.125 17.5 7.125C17.5 7.25 17.5 8 17.625 8.25C17.875 8.25 18.125 8.5 18.125 8.75C18.125 10.25 18.875 10.5 18.875 10.5C19.125 10.625 19.25 10.875 19.25 11.125V12.75C19.25 13 19.125 13.25 18.875 13.375L16.875 14.125C16.5 14.25 16.25 14.125 16 13.75C15.875 13.375 16 13.125 16.375 12.875L18.125 12.125V11.375C17.625 11.125 17.125 10.375 17 9.125C16.625 8.75 16.375 8.125 16.375 7.375C16.375 7.125 16.375 6.75 16.625 6.375C16.75 6.25 16.75 6.125 16.875 6C16.625 5.375 16.25 4.375 16.875 3.75C17.125 3.5 17.375 3.375 17.875 3.375C18.5 2.5 20 2.125 21.125 2.125C22.5 2.125 24.25 2.625 24.625 3.875C24.875 4.75 24.625 5.625 24.25 6.125C24.5 6.375 24.625 6.75 24.625 7.375C24.625 8 24.375 8.75 24 9C23.875 10.375 23.25 11 22.875 11.25V12.25C24.25 12.875 25.625 13.5 26.75 14.125C27 14.25 27.125 14.625 27 15C26.75 15.375 26.5 15.5 26.25 15.5Z" fill="black"/>
<path d="M22.375 26C22.25 26 22 25.875 21.875 25.75L20.125 23.875C19.875 23.625 19.875 23.25 20.125 23C20.375 22.75 20.75 22.75 21 23L22.375 24.375L25.125 21.125C25.375 20.875 25.75 20.875 26 21C26.25 21.25 26.25 21.625 26.125 21.875L22.875 25.625C22.75 25.875 22.625 26 22.375 26C22.375 26 22.5 26 22.375 26Z" fill="black"/>
<path d="M23.125 29.75C19.375 29.75 16.25 26.625 16.25 22.875C16.25 19.125 19.375 16 23.125 16C26.875 16 30 19.125 30 22.875C30 26.625 26.875 29.75 23.125 29.75ZM23.125 17.25C20 17.25 17.5 19.75 17.5 22.875C17.5 26 20 28.5 23.125 28.5C26.25 28.5 28.75 26 28.75 22.875C28.75 19.75 26.25 17.25 23.125 17.25Z" fill="black"/>
</svg>
