<?xml version="1.0" encoding="UTF-8"?><svg viewBox="0 0 20 9" version="1.1" xmlns="http://www.w3.org/2000/svg" xmlns:xlink="http://www.w3.org/1999/xlink"><!--Generator: Sketch 52.3 (67297) - http://www.bohemiancoding.com/sketch--><title>icon-eye-closed</title><desc>Created with Sketch.</desc><g id="icons" stroke-width="1" fill-rule="evenodd"><g id="icon-eye-closed" transform="translate(0.000000, 1.000000)" fill-rule="nonzero"><g transform="translate(1.000000, 0.000000)" id="Group"><g><path d="M0.356781985,5.35029504 L-0.356781985,4.64970496 C6.39016061,-2.22218101 12.7369732,-2.22218101 18.3869786,4.68338111 L17.6130214,5.3166189 C12.3539358,-1.11115232 6.70074849,-1.11115232 0.356781985,5.35029504 Z" id="Path-25-Copy" transform="translate(9.015098, 2.425144) scale(-1, 1) rotate(-180.000000) translate(-9.015098, -2.425144) "/></g></g><path d="M17.3093731,2.4914152 C17.1036939,2.30715815 17.0863277,1.99105233 17.2705848,1.78537309 C17.4548419,1.57969385 17.7709477,1.56232774 17.9766269,1.7465848 L19.5416269,3.1485848 C19.7473061,3.33284185 19.7646723,3.64894767 19.5804152,3.85462691 C19.3961581,4.06030615 19.0800523,4.07767226 18.8743731,3.8934152 L17.3093731,2.4914152 Z" id="Path"/><path d="M13.7224946,5.13252943 C13.5167569,4.94833761 13.4992904,4.63223722 13.6834822,4.42649943 C13.867674,4.22076164 14.1837744,4.20329518 14.3895122,4.38748699 L15.9555127,5.78948745 C16.1612505,5.97367926 16.178717,6.28977966 15.9945252,6.49551744 C15.8103333,6.70125523 15.4942329,6.7187217 15.2884952,6.53452988 L13.7224946,5.13252943 Z" id="Path" transform="translate(14.839004, 5.461008) rotate(16.962150) translate(-14.839004, -5.461008) "/><path d="M4.21136663,4.94542057 C4.00568732,4.76116345 3.98832121,4.44505751 4.17257833,4.2393782 C4.35683545,4.03369889 4.67294138,4.01633278 4.87862069,4.2005899 L6.44362123,5.60259039 C6.64930054,5.78684751 6.66666666,6.10295344 6.48240954,6.30863275 C6.29815242,6.51431206 5.98204649,6.53167818 5.77636718,6.34742106 L4.21136663,4.94542057 Z" id="Path" transform="translate(5.327494, 5.274005) rotate(75.137164) translate(-5.327494, -5.274005) "/><path d="M9.09536076,6.13639315 C8.88968839,5.95212857 8.87233395,5.63602222 9.05659853,5.43034985 C9.24086311,5.22467748 9.55696947,5.20732304 9.76264183,5.39158762 L11.3286413,6.79458714 C11.5343137,6.97885172 11.5516681,7.29495807 11.3674035,7.50063044 C11.1831389,7.70630281 10.8670326,7.72365725 10.6613602,7.53939267 L9.09536076,6.13639315 Z" id="Path" transform="translate(10.212001, 6.465490) rotate(50.909346) translate(-10.212001, -6.465490) "/><path d="M0.519500778,2.5845184 C0.313763147,2.40032673 0.296296697,2.08422658 0.480488368,1.87848894 C0.66468004,1.67275131 0.980780195,1.65528486 1.18651783,1.83947654 L2.75251714,3.24147592 C2.95825477,3.42566759 2.97572122,3.74176775 2.79152955,3.94750538 C2.60733788,4.15324301 2.29123772,4.17070946 2.08550009,3.98651779 L0.519500778,2.5845184 Z" id="Path" transform="translate(1.636009, 2.912997) rotate(89.496822) translate(-1.636009, -2.912997) "/></g></g></svg>