<svg viewBox="0 0 30 30" xmlns="http://www.w3.org/2000/svg"><path d="M23 7.5C23 3.33333 19.6667 0 15.5 0C11.3333 0 8 3.33333 8 7.5C8 11.3333 11 14.5 14.6667 14.8333V29.1667C14.6667 29.6667 15 30 15.5 30C16 30 16.3333 29.6667 16.3333 29.1667V14.8333C20 14.5 23 11.3333 23 7.5ZM15.5 13.3333C12.3333 13.3333 9.66667 10.6667 9.66667 7.5C9.66667 4.33333 12.3333 1.66667 15.5 1.66667C18.6667 1.66667 21.3333 4.33333 21.3333 7.5C21.3333 10.6667 18.6667 13.3333 15.5 13.3333Z"/><path d="M18.8333 8.33331C18.3333 8.33331 18 7.99998 18 7.49998C18 6.16665 16.8333 4.99998 15.5 4.99998C15 4.99998 14.6667 4.66665 14.6667 4.16665C14.6667 3.66665 15 3.33331 15.5 3.33331C17.8333 3.33331 19.6667 5.16665 19.6667 7.49998C19.6667 7.99998 19.3333 8.33331 18.8333 8.33331Z"/></svg>