<svg viewBox="0 0 30 30" xmlns="http://www.w3.org/2000/svg"><path d="M27.6316 5H2.36842C1.10526 5 0 6.10526 0 7.36842V23.1579C0 24.4211 1.10526 25.5263 2.36842 25.5263H27.6316C28.8947 25.5263 30 24.4211 30 23.1579V7.36842C30 6.10526 28.8947 5 27.6316 5ZM2.36842 6.57895H27.6316C27.9474 6.57895 28.2632 6.73684 28.4211 7.05263L15 18.8947L1.57895 7.05263C1.73684 6.73684 2.05263 6.57895 2.36842 6.57895ZM27.6316 23.9474H2.36842C1.89474 23.9474 1.57895 23.6316 1.57895 23.1579V9.10526L14.5263 20.6316C14.6842 20.7895 14.8421 20.7895 15 20.7895C15.1579 20.7895 15.3158 20.7895 15.4737 20.6316L28.4211 9.10526V23.1579C28.4211 23.6316 28.1053 23.9474 27.6316 23.9474Z"/></svg>