<svg viewBox="0 0 30 30" xmlns="http://www.w3.org/2000/svg"><g clip-path="url(#clip0)"><path d="M29.6963 0.303718C29.3297 -0.0629023 28.963 -0.0629021 28.5964 0.120408L0.549932 14.7852C0.183311 14.9685 0 15.3352 0 15.8851C0.18331 16.2517 0.549931 16.6183 0.916552 16.6183H13.3817V29.0834C13.3817 29.4501 13.7483 29.8167 14.1149 30H14.2982C14.6648 30 15.0315 29.8167 15.0315 29.4501L29.6963 1.40358C30.0629 1.03696 29.8796 0.670339 29.6963 0.303718ZM15.2148 25.4172V15.7018C15.2148 15.1519 14.8481 14.7852 14.2982 14.7852H4.58276L26.7633 3.23668L15.2148 25.4172Z"/></g><defs><clipPath id="clip0"><rect width="30" height="30"/></clipPath></defs></svg>