<svg viewBox="0 0 30 30" xmlns="http://www.w3.org/2000/svg"><path d="M15 30C6.78947 30 0 23.2105 0 15C0 6.78947 6.78947 0 15 0C23.2105 0 30 6.78947 30 15C30 23.2105 23.2105 30 15 30ZM15 1.57895C7.57895 1.57895 1.57895 7.57895 1.57895 15C1.57895 22.4211 7.57895 28.4211 15 28.4211C22.4211 28.4211 28.4211 22.4211 28.4211 15C28.4211 7.57895 22.4211 1.57895 15 1.57895Z"/><path d="M21.1287 22C20.9703 22 20.8119 22 20.6535 21.8462L14.3168 16.3077C14.1584 16.1538 14 16 14 15.6923V8.76923C14 8.30769 14.3168 8 14.7921 8C15.2673 8 15.5842 8.30769 15.5842 8.76923V15.3846L21.7624 20.6154C22.0792 20.9231 22.0792 21.3846 21.7624 21.6923C21.604 21.8462 21.4455 22 21.1287 22Z"/></svg>