<svg viewBox="0 0 30 30" xmlns="http://www.w3.org/2000/svg"><path d="M11.4706 11.5883C10.9412 11.5883 10.5882 11.9412 10.5882 12.4706V23.0588C10.5882 23.5883 10.9412 23.9412 11.4706 23.9412C12 23.9412 12.3529 23.5883 12.3529 23.0588V12.4706C12.3529 11.9412 12 11.5883 11.4706 11.5883Z"/><path d="M15 11.5883C14.4706 11.5883 14.1176 11.9412 14.1176 12.4706V23.0588C14.1176 23.5883 14.4706 23.9412 15 23.9412C15.5294 23.9412 15.8824 23.5883 15.8824 23.0588V12.4706C15.8824 11.9412 15.5294 11.5883 15 11.5883Z"/><path d="M18.5294 11.5883C18 11.5883 17.6471 11.9412 17.6471 12.4706V23.0588C17.6471 23.5883 18 23.9412 18.5294 23.9412C19.0588 23.9412 19.4118 23.5883 19.4118 23.0588V12.4706C19.4118 11.9412 19.0588 11.5883 18.5294 11.5883Z"/><path d="M29.1176 4.52941H23.8235H21.1765V1.88235C21.1765 1.35294 20.8235 1 20.2941 1H9.70588C9.17647 1 8.82353 1.35294 8.82353 1.88235V4.52941H6.17647H0.882353C0.352941 4.52941 0 4.88235 0 5.41176C0 5.94118 0.352941 6.29412 0.882353 6.29412H5.29412V28.3529C5.29412 28.8824 5.64706 29.2353 6.17647 29.2353H23.8235C24.3529 29.2353 24.7059 28.8824 24.7059 28.3529V6.29412H29.1176C29.6471 6.29412 30 5.94118 30 5.41176C30 4.88235 29.6471 4.52941 29.1176 4.52941ZM10.5882 2.76471H19.4118V4.52941H10.5882V2.76471ZM22.9412 27.4706H7.05882V6.29412H22.9412V27.4706Z"/></svg>