<svg xmlns="http://www.w3.org/2000/svg" viewBox="0 0 500 500"><path d="M244.268 10.459c-1.39 1.17-6.448 8.013-11.24 15.209-26.855 40.318-44.824 83.244-54.661 130.582-4.839 23.284-8.414 56.473-6.658 61.796 1.83 5.545-1.988 5.287 78.276 5.287 78.627 0 77.676.053 78.791-4.389 1.148-4.575-2.74-40.209-6.383-58.499-7.812-39.221-22.892-79.841-41.93-112.945-8.613-14.975-21.561-34.373-24.717-37.029-3.441-2.896-8.045-2.9-11.478-.012m-96.944 11.526C95.843 45.557 53.773 85.487 28.531 134.737 16.264 158.672 7.97 183.311 3.73 208.422c-1.222 7.233-1.229 8.301-.071 11.072 2.311 5.532.871 5.417 56.733 4.507 54.801-.894 53.723-.779 55.818-5.931.593-1.459 1.333-6.966 1.645-12.237.312-5.27 1.305-15.395 2.206-22.5 6.683-52.674 20.712-99.055 44.838-148.235 4.614-9.406 4.793-11.39 1.349-14.981-3.5-3.65-7.798-3.225-18.924 1.868m190.422-3.579c-3.282.969-5.246 3.619-5.246 7.077 0 1.566 2.796 8.412 6.987 17.106 23.774 49.32 37.898 102.502 42.482 159.965.602 7.545 1.542 14.553 2.088 15.574 2.36 4.411 1.872 4.373 56.11 4.36 38.255-.01 50.736-.259 52.287-1.044 1.121-.567 2.763-2.272 3.648-3.788 1.6-2.739 1.598-2.825-.271-12.915C480.82 123.694 425.785 53.894 351.25 21.37c-8.138-3.55-10.078-3.976-13.504-2.964m74.631 258.229c-29.209.568-27.776-.286-29.12 17.366-4.472 58.708-20.077 116.401-44.877 165.907-6.581 13.136-7.21 16.337-3.868 19.679 2.665 2.666 5.906 3.386 9.572 2.127 6.408-2.202 28.481-13.533 37.999-19.507 60.1-37.722 100.99-98.244 113.727-168.329 1.428-7.857 1.6-10.375.862-12.613-1.799-5.448-1.817-5.451-33.101-5.255-15.485.097-38.522.378-51.194.625M6.875 278.324c-3.325 2.027-3.424 3.678-.989 16.425 7.511 39.308 22.648 73.972 45.781 104.839 23.626 31.526 52.108 55.518 87.083 73.355 19.989 10.194 24.927 11.311 28.714 6.497 2.923-3.716 2.197-6.525-6.125-23.701-21.522-44.418-34.976-90.007-41.288-139.906-.899-7.104-1.873-16.854-2.165-21.666-.67-11.063-1.526-13.87-4.847-15.895-2.509-1.53-4.8-1.599-53.039-1.599-48.794 0-50.504.053-53.125 1.651m167.529-.427c-1.651.718-2.882 1.971-3.206 3.265-.29 1.155-.094 7.46.435 14.011 5.381 66.599 26.486 127.056 63.593 182.162 7.694 11.426 9.37 13.147 13.568 13.935 3.809.715 7.099-1.944 13.164-10.642 38.732-55.553 61.083-117.918 66.369-185.184.979-12.461.377-15.612-3.355-17.542-3.475-1.797-146.436-1.802-150.568-.005" fill-rule="evenodd"/></svg>