<svg xmlns="http://www.w3.org/2000/svg" viewBox="0 0 14 14"><path fill-rule="evenodd" d="M0.786499 3.39046C0.786499 1.95243 1.95225 0.786682 3.39027 0.786682H10.3337C11.7717 0.786682 12.9374 1.95243 12.9374 3.39046V10.3339C12.9374 11.7719 11.7717 12.9376 10.3337 12.9376H3.39027C1.95225 12.9376 0.786499 11.7719 0.786499 10.3339V3.39046ZM6.8621 4.78204C5.71332 4.78204 4.78204 5.71332 4.78204 6.8621C4.78204 8.01088 5.71332 8.94216 6.8621 8.94216C8.01088 8.94216 8.94216 8.01088 8.94216 6.8621C8.94216 5.71332 8.01088 4.78204 6.8621 4.78204ZM3.78204 6.8621C3.78204 5.16103 5.16103 3.78204 6.8621 3.78204C8.56317 3.78204 9.94216 5.16103 9.94216 6.8621C9.94216 8.56317 8.56317 9.94216 6.8621 9.94216C5.16103 9.94216 3.78204 8.56317 3.78204 6.8621ZM10.3349 3.98516C10.6842 3.98516 10.9673 3.70199 10.9673 3.35269C10.9673 3.00338 10.6842 2.72021 10.3349 2.72021C9.98556 2.72021 9.70239 3.00338 9.70239 3.35269C9.70239 3.70199 9.98556 3.98516 10.3349 3.98516Z" clip-rule="evenodd"/></svg>