<svg xmlns="http://www.w3.org/2000/svg" viewBox="0 0 14 14"><path fill-rule="evenodd" d="M12.5 0C13.3284 0 14 0.671573 14 1.5V9.5C14 10.3284 13.3284 11 12.5 11H4.5C3.67157 11 3 10.3284 3 9.5V1.5C3 0.671573 3.67157 0 4.5 0H12.5ZM6.05806 7.05806L8.11613 4.99999L7.05808 3.94194C6.87933 3.76319 6.82586 3.49437 6.92259 3.26082C7.01933 3.02728 7.24723 2.875 7.50002 2.875H10.5C10.5875 2.875 10.6707 2.89296 10.7463 2.92538C10.8066 2.95124 10.8638 2.98704 10.9152 3.03279C10.934 3.04955 10.9518 3.06744 10.9685 3.08634C11.0106 3.13386 11.0441 3.18625 11.0692 3.24155C11.1051 3.32031 11.125 3.40783 11.125 3.5V6.5C11.125 6.75279 10.9727 6.98069 10.7392 7.07743C10.5056 7.17416 10.2368 7.12069 10.0581 6.94194L9.00001 5.88387L6.94194 7.94194C6.69786 8.18602 6.30214 8.18602 6.05806 7.94194C5.81398 7.69786 5.81398 7.30214 6.05806 7.05806ZM1.5 4.25C1.5 3.83579 1.16421 3.5 0.75 3.5C0.335786 3.5 0 3.83579 0 4.25V11.75C0 12.9926 1.00736 14 2.25 14H9.75C10.1642 14 10.5 13.6642 10.5 13.25C10.5 12.8358 10.1642 12.5 9.75 12.5H2.25C1.83579 12.5 1.5 12.1642 1.5 11.75V4.25Z" clip-rule="evenodd"/></svg>