<svg xmlns="http://www.w3.org/2000/svg" viewBox="0 0 48 48"><g transform="matrix(3.4285714285714284,0,0,3.4285714285714284,0,0)"><g><path d="M2.34,4.46H1.87a1.26,1.26,0,0,0-1,.22.92.92,0,0,0-.23.71V13.1a.91.91,0,0,0,.23.7.91.91,0,0,0,.68.2c.22,0,.41,0,.82,0a1.19,1.19,0,0,0,.93-.19,1,1,0,0,0,.23-.7V5.39a.92.92,0,0,0-.24-.71C3.08,4.44,2.74,4.45,2.34,4.46Z" /><path d="M2.1,0A1.62,1.62,0,0,0,.51,1.56,1.65,1.65,0,0,0,2.1,3.19,1.62,1.62,0,0,0,3.7,1.56,1.62,1.62,0,0,0,2.1,0Z" /><path d="M10,4.36a3.42,3.42,0,0,0-1.85.45.23.23,0,0,1-.18,0,.27.27,0,0,1-.16-.11L7.7,4.63a.64.64,0,0,0-.46-.17,10,10,0,0,0-1.49,0c-.42.08-.62.38-.62.9V13.1a.91.91,0,0,0,.23.7,1.17,1.17,0,0,0,.92.19c.45,0,.58,0,.83,0a.94.94,0,0,0,.68-.2A1,1,0,0,0,8,13.1V9A1.24,1.24,0,0,1,9.29,7.6,1.24,1.24,0,0,1,10.6,9V13.1a1,1,0,0,0,.23.7,1.19,1.19,0,0,0,.93.19h.58a1.17,1.17,0,0,0,.92-.19.91.91,0,0,0,.23-.7V7.83A3.31,3.31,0,0,0,10,4.36Z" /></g></g></svg>