<svg xmlns="http://www.w3.org/2000/svg" viewBox="0 0 48 48"><g transform="matrix(3.4285714285714284,0,0,3.4285714285714284,0,0)"><g><path d="M10.75,13.25A.76.76,0,0,1,10,14H1.75A1.76,1.76,0,0,1,0,12.25V4a.76.76,0,0,1,.75-.75A.76.76,0,0,1,1.5,4v8.25a.25.25,0,0,0,.25.25H10A.76.76,0,0,1,10.75,13.25Z"/><path d="M14,1.5A1.5,1.5,0,0,0,12.5,0h-8A1.5,1.5,0,0,0,3,1.5v8A1.5,1.5,0,0,0,4.5,11h8A1.5,1.5,0,0,0,14,9.5ZM11.5,6.75a.75.75,0,0,1-1.5,0V5.66a.25.25,0,0,0-.15-.23.26.26,0,0,0-.28.06L7,8A.75.75,0,1,1,6,7L8.51,4.43a.26.26,0,0,0,.06-.28A.25.25,0,0,0,8.34,4H7.25a.75.75,0,0,1,0-1.5h3.5a.76.76,0,0,1,.75.75Z"/></g></g></svg>