<svg xmlns="http://www.w3.org/2000/svg" viewBox="0 0 14 14"><path d="M3.31334 1.36381C3.31624 1.73602 3.17257 2.09441 2.9134 2.36157C2.65422 2.62872 2.30034 2.78317 1.92822 2.79156C1.55687 2.77793 1.20495 2.62217 0.945182 2.35645C0.685414 2.09073 0.537655 1.73538 0.53244 1.36381C0.548583 1.0018 0.701774 0.659474 0.96096 0.406224C1.22015 0.152974 1.56593 0.00775305 1.92822 0C2.28945 0.00789779 2.63402 0.153479 2.89148 0.40698C3.14894 0.66048 3.29985 1.00275 3.31334 1.36381ZM0.681607 5.3274C0.681607 4.50698 1.20369 4.63484 1.92822 4.63484C2.65275 4.63484 3.16418 4.50698 3.16418 5.3274V13.3185C3.16418 14.1496 2.64209 13.9791 1.92822 13.9791C1.21435 13.9791 0.681607 14.1496 0.681607 13.3185V5.3274Z"/><path d="M5.31647 5.32741C5.31647 4.86926 5.48694 4.69878 5.75331 4.64551C6.01968 4.59223 6.936 4.64551 7.25564 4.64551C7.57528 4.64551 7.70314 5.16759 7.69249 5.56182C7.96591 5.19486 8.32892 4.9042 8.7468 4.71765C9.16467 4.5311 9.62342 4.4549 10.0792 4.49634C10.5267 4.46898 10.975 4.53608 11.3949 4.69327C11.8148 4.85046 12.1969 5.09424 12.5165 5.40876C12.836 5.72328 13.0858 6.1015 13.2496 6.51887C13.4135 6.93623 13.4877 7.38339 13.4674 7.83129V13.2865C13.4674 14.1176 12.956 13.9471 12.2314 13.9471C11.5069 13.9471 10.9955 14.1176 10.9955 13.2865V9.02463C11.0142 8.80528 10.9855 8.58447 10.9114 8.3772C10.8372 8.16992 10.7193 7.98103 10.5657 7.82335C10.412 7.66568 10.2263 7.54291 10.021 7.46339C9.8157 7.38387 9.59571 7.34945 9.37595 7.36248C9.1572 7.35692 8.93978 7.3979 8.73806 7.48268C8.53635 7.56747 8.35494 7.69414 8.20586 7.85431C8.05677 8.01447 7.94341 8.20447 7.87328 8.41174C7.80314 8.61901 7.77784 8.83881 7.79904 9.05659V13.3185C7.79904 14.1496 7.27695 13.9791 6.55242 13.9791C5.8279 13.9791 5.31647 14.1496 5.31647 13.3185V5.32741Z"/></svg>