<?xml version="1.0" encoding="UTF-8"?><svg id="uuid-0e0beace-aaac-4129-853a-7cabe2ba38fc" xmlns="http://www.w3.org/2000/svg" xmlns:xlink="http://www.w3.org/1999/xlink" viewBox="0 0 24 24" focusable="false" aria-hidden="true"><defs><clipPath id="uuid-77a99ed2-c8f3-4c8a-9ddb-d723b6286364"><rect width="24" height="24" style="fill:none"/></clipPath></defs><g style="clip-path:url(#uuid-77a99ed2-c8f3-4c8a-9ddb-d723b6286364)"><path d="m23.62,11.09c.24.24.38.56.38.9,0,.18-.02.35-.08.52-.06.16-.15.32-.27.44-.12.13-.26.23-.43.3-.16.07-.33.11-.51.11h-1.44c-.1,0-.2.04-.27.1-.08.06-.13.15-.16.25-.34,1.78-1.22,3.41-2.51,4.68-1.29,1.27-2.93,2.13-4.71,2.45-.1.02-.18.08-.25.16-.06.08-.1.17-.1.27v1.44c0,.34-.14.67-.38.91-.24.24-.57.38-.91.38s-.67-.14-.91-.38c-.24-.24-.38-.57-.38-.91v-1.44c0-.1-.04-.2-.1-.27-.06-.08-.15-.13-.25-.16-1.79-.33-3.44-1.19-4.73-2.48-1.29-1.29-2.16-2.94-2.48-4.73-.02-.1-.08-.18-.16-.25-.08-.06-.17-.1-.27-.1h-1.44c-.34,0-.67-.14-.91-.38-.24-.24-.38-.57-.38-.91s.14-.67.38-.91c.24-.24.57-.38.91-.38h1.44c.1,0,.2-.04.27-.1.08-.06.13-.15.16-.25.33-1.8,1.21-3.46,2.52-4.75,1.31-1.29,2.98-2.15,4.78-2.46.1-.02.18-.08.25-.16.06-.08.1-.17.1-.27v-1.44c0-.34.14-.67.38-.91.24-.24.57-.38.91-.38s.67.14.91.38c.24.24.38.57.38.91v1.44c0,.1.04.2.1.27.06.08.15.13.25.16,1.78.34,3.41,1.22,4.68,2.51,1.27,1.29,2.13,2.93,2.45,4.71.02.1.08.18.16.25.08.06.17.1.27.1h1.44c.34,0,.66.14.9.38Zm-15.19,6.25c1.06.71,2.3,1.08,3.57,1.08,1.7,0,3.34-.68,4.55-1.88,1.21-1.21,1.88-2.84,1.88-4.55,0-1.27-.38-2.51-1.08-3.57-.71-1.06-1.71-1.88-2.88-2.37-1.17-.49-2.47-.61-3.71-.37-1.25.25-2.39.86-3.29,1.76-.9.9-1.51,2.04-1.76,3.29-.25,1.25-.12,2.54.37,3.71.49,1.17,1.31,2.18,2.37,2.88Zm6.14-5.34c0,1.42-1.15,2.57-2.57,2.57s-2.57-1.15-2.57-2.57,1.15-2.57,2.57-2.57,2.57,1.15,2.57,2.57Z"/></g></svg>