<svg xmlns="http://www.w3.org/2000/svg" viewBox="0 0 14 14"><path fill-rule="evenodd" d="M0 2.5A1.5 1.5 0 0 1 1.5 1h9A1.5 1.5 0 0 1 12 2.5v.646A2 2 0 0 0 9.266 4.75H5.75a2.25 2.25 0 1 0 0 4.5h3.516A2 2 0 0 0 12 10.854v.646a1.5 1.5 0 0 1-1.5 1.5h-9A1.5 1.5 0 0 1 0 11.5v-9zm12 2.19l-.22-.22.22.22zM10.5 6H5.75a1 1 0 0 1 0 0h4.75z" clip-rule="evenodd"/><path fill-rule="evenodd" d="M10.5 5a.75.75 0 0 1 1.28-.53l2 2a.75.75 0 0 1 0 1.06l-2 2A.75.75 0 0 1 10.5 9V8H5.75a1 1 0 1 1 0-2h4.75V5z" clip-rule="evenodd"/></svg>