<svg xmlns="http://www.w3.org/2000/svg" viewBox="0 0 48 48"><g transform="matrix(3.4285714285714284,0,0,3.4285714285714284,0,0)"><g><path d="M13.78,6.47l-2-2a.75.75,0,0,0-1.06,0,.75.75,0,0,0,0,1.06l.29.29a.26.26,0,0,1,.06.28.25.25,0,0,1-.23.15H5.25a.75.75,0,0,0,0,1.5h5.59a.25.25,0,0,1,.23.15.26.26,0,0,1-.06.28l-.29.29a.75.75,0,0,0,0,1.06.75.75,0,0,0,1.06,0l2-2A.75.75,0,0,0,13.78,6.47Z" /><path d="M11.25,11.25a2.21,2.21,0,0,1-1.59-.66A2.25,2.25,0,0,1,9,9.45a.24.24,0,0,0-.24-.2H5.25a2.25,2.25,0,0,1,0-4.5H8.8A.24.24,0,0,0,9,4.55a2.25,2.25,0,0,1,.62-1.14,2.21,2.21,0,0,1,1.59-.66,2.47,2.47,0,0,1,.39,0,.23.23,0,0,0,.23-.07.26.26,0,0,0,.06-.24A2,2,0,0,0,10,1H2A2,2,0,0,0,0,3v8a2,2,0,0,0,2,2h8a2,2,0,0,0,1.93-1.47.26.26,0,0,0-.06-.24.23.23,0,0,0-.23-.07A2.47,2.47,0,0,1,11.25,11.25Z" /></g></g></svg>