<svg viewBox="0 0 11 14" xmlns="http://www.w3.org/2000/svg"><path fill-rule="evenodd" clip-rule="evenodd" d="M1.66602 1.75C1.66602 1.61193 1.77795 1.5 1.91602 1.5H8.41602C8.55412 1.5 8.66602 1.61193 8.66602 1.75V12.25C8.66602 12.3881 8.55412 12.5 8.41602 12.5H1.96789C1.9629 12.4979 1.95713 12.4954 1.95065 12.4924C1.90453 12.4707 1.84539 12.4343 1.78931 12.3864C1.73271 12.3382 1.69598 12.2927 1.67678 12.26C1.67088 12.2499 1.66767 12.2429 1.66602 12.2388V1.75ZM1.91602 0C0.949516 0 0.166016 0.783502 0.166016 1.75V12.25C0.166016 12.8419 0.527276 13.2816 0.816016 13.5278C0.972146 13.6609 1.14411 13.7709 1.31384 13.8505C1.4682 13.9229 1.6838 14 1.91602 14H8.41602C9.38252 14 10.166 13.2165 10.166 12.25V1.75C10.166 0.783502 9.38252 0 8.41602 0H1.91602ZM4.66602 9.75C4.25181 9.75 3.91602 10.0858 3.91602 10.5C3.91602 10.9142 4.25181 11.25 4.66602 11.25H5.66602C6.08023 11.25 6.41602 10.9142 6.41602 10.5C6.41602 10.0858 6.08023 9.75 5.66602 9.75H4.66602Z"/></svg>