<svg xmlns="http://www.w3.org/2000/svg" viewBox="0 0 14 14"><path fill-rule="evenodd" d="M1.062 1.5a1.5 1.5 0 0 1 1.5-1.5h5.924C9.11 0 9.71.25 10.152.692l.004.004 2.094 2.14c.44.442.688 1.04.688 1.664v8a1.5 1.5 0 0 1-1.5 1.5H2.562a1.5 1.5 0 0 1-1.5-1.5V1.501zm5.014 1.867c.08.338.11.789.108 1.275.689 1.1 1.816 2.47 2.757 3.33.435-.03.857-.02 1.19.07.196.053.465.16.647.407.215.292.202.628.099.896a.935.935 0 0 1-.632.584c-.274.074-.537.014-.728-.056-.317-.116-.656-.34-.985-.605a14.323 14.323 0 0 0-3.188.827c-.13.364-.289.704-.485.948-.122.152-.316.34-.597.409a.919.919 0 0 1-.819-.207c-.205-.172-.379-.44-.353-.785.022-.303.19-.53.328-.673.223-.231.551-.433.905-.607.331-1.182.568-2.904.606-4.2-.222-.385-.405-.76-.5-1.088a1.547 1.547 0 0 1-.065-.625.871.871 0 0 1 .475-.684.802.802 0 0 1 .513-.072c.198.039.342.146.438.252.17.186.245.43.286.604zm-.018 3.267A20.47 20.47 0 0 0 7.39 8.196a16.53 16.53 0 0 0-1.648.43c.133-.631.24-1.32.316-1.992z" clip-rule="evenodd"/></svg>