<svg viewBox="0 0 12 14" xmlns="http://www.w3.org/2000/svg"><path d="M11.3225 2.86417L8.80251 0.344167C8.69397 0.234985 8.56491 0.148364 8.42274 0.0892952C8.28057 0.0302264 8.12812 -0.00012162 7.97417 3.66293e-07H1.16667C0.857255 3.66293e-07 0.560509 0.122917 0.341716 0.341709C0.122924 0.560502 7.62939e-06 0.857248 7.62939e-06 1.16667V12.8333C7.62939e-06 13.1428 0.122924 13.4395 0.341716 13.6583C0.560509 13.8771 0.857255 14 1.16667 14H10.5C10.8094 14 11.1062 13.8771 11.325 13.6583C11.5438 13.4395 11.6667 13.1428 11.6667 12.8333V3.6925C11.6668 3.53855 11.6364 3.3861 11.5774 3.24394C11.5183 3.10177 11.4317 2.9727 11.3225 2.86417ZM3.85001 2.625C4.02307 2.625 4.19224 2.67632 4.33613 2.77246C4.48002 2.86861 4.59218 3.00527 4.6584 3.16515C4.72463 3.32504 4.74196 3.50097 4.70819 3.6707C4.67443 3.84044 4.5911 3.99635 4.46873 4.11872C4.34635 4.24109 4.19045 4.32443 4.02071 4.35819C3.85098 4.39195 3.67505 4.37462 3.51516 4.30839C3.35527 4.24217 3.21862 4.13002 3.12247 3.98612C3.02633 3.84223 2.97501 3.67306 2.97501 3.5C2.97501 3.26794 3.0672 3.04538 3.23129 2.88128C3.39538 2.71719 3.61794 2.625 3.85001 2.625ZM2.96334 7.43167L3.82084 6.0375C3.91043 5.93167 4.03479 5.86122 4.17162 5.83877C4.30845 5.81632 4.4488 5.84335 4.56751 5.915L5.48917 6.62083C5.51644 6.64755 5.55309 6.66252 5.59126 6.66252C5.62943 6.66252 5.66608 6.64755 5.69334 6.62083L6.57417 5.48917C6.62848 5.41485 6.6996 5.35444 6.78172 5.31287C6.86384 5.27131 6.95463 5.24976 7.04667 5.25C7.13574 5.25469 7.22254 5.27974 7.3004 5.32323C7.37827 5.36671 7.44513 5.42747 7.49584 5.50083L8.34167 7.46667C8.36108 7.51113 8.36909 7.55974 8.36497 7.60808C8.36086 7.65642 8.34475 7.70297 8.31811 7.74351C8.29146 7.78406 8.25513 7.81731 8.21239 7.84027C8.16965 7.86323 8.12186 7.87517 8.07334 7.875H3.20834C3.15692 7.87427 3.1066 7.85997 3.06249 7.83352C3.01838 7.80708 2.98205 7.76945 2.95718 7.72444C2.9323 7.67943 2.91977 7.62864 2.92085 7.57722C2.92194 7.52581 2.93659 7.47559 2.96334 7.43167ZM8.45834 12.0983H2.62501C2.50898 12.0983 2.3977 12.0522 2.31565 11.9702C2.2336 11.8881 2.18751 11.7769 2.18751 11.6608C2.18751 11.5448 2.2336 11.4335 2.31565 11.3515C2.3977 11.2694 2.50898 11.2233 2.62501 11.2233H8.45834C8.57437 11.2233 8.68565 11.2694 8.7677 11.3515C8.84975 11.4335 8.89584 11.5448 8.89584 11.6608C8.89584 11.7769 8.84975 11.8881 8.7677 11.9702C8.68565 12.0522 8.57437 12.0983 8.45834 12.0983ZM8.45834 10.0567H2.62501C2.50898 10.0567 2.3977 10.0106 2.31565 9.92853C2.2336 9.84648 2.18751 9.7352 2.18751 9.61917C2.18751 9.50313 2.2336 9.39186 2.31565 9.30981C2.3977 9.22776 2.50898 9.18167 2.62501 9.18167H8.45834C8.57437 9.18167 8.68565 9.22776 8.7677 9.30981C8.84975 9.39186 8.89584 9.50313 8.89584 9.61917C8.89584 9.7352 8.84975 9.84648 8.7677 9.92853C8.68565 10.0106 8.57437 10.0567 8.45834 10.0567Z"/></svg>