<svg viewBox="0 0 24 24" xmlns="http://www.w3.org/2000/svg"><path d="M10.8325 15.5505C10.2705 18.5798 9.58599 21.4845 7.55572 23C6.92967 18.4234 8.47697 14.9838 9.19411 11.334C7.97037 9.21269 9.3415 4.9399 11.9239 5.99263C15.1019 7.28813 9.1722 13.8829 13.1532 14.7075C17.3087 15.5677 19.0068 7.28298 16.4287 4.58756C12.7051 0.697621 5.58862 4.49948 6.46432 10.0691C6.67788 11.4307 8.04299 11.8441 7.01002 13.7244C4.62613 13.1787 3.91543 11.243 4.00781 8.66269C4.15433 4.43975 7.69365 1.48309 11.2416 1.07403C15.7301 0.556685 19.9423 2.76999 20.5236 7.11755C21.1789 12.0241 18.4981 17.3393 13.6989 16.9565C12.3978 16.8534 11.8513 16.1895 10.8325 15.5501V15.5505Z"/></svg>