<svg xmlns="http://www.w3.org/2000/svg" viewBox="0 0 14 14"><path fill-rule="evenodd" d="M3.50744 5.42879C3.50744 3.67177 4.93178 2.24743 6.6888 2.24743C8.44582 2.24743 9.87017 3.67177 9.87017 5.42879C9.87017 6.38391 9.5627 7.26731 9.07647 7.85688C8.61035 8.42206 7.99197 8.71677 7.22751 8.61812C6.91185 8.57738 6.64291 8.40315 6.41814 8.07329L7.14826 5.1883C7.27935 4.67031 6.96571 4.14413 6.44772 4.01304C5.92974 3.88195 5.40356 4.19559 5.27247 4.71358L4.44729 7.97417C4.4469 7.9757 4.44651 7.97723 4.44613 7.97875L3.2616 12.6593C3.13051 13.1773 3.44415 13.7035 3.96213 13.8346C4.48012 13.9657 5.0063 13.652 5.13739 13.134L5.8869 10.1724C6.20153 10.3534 6.56419 10.4835 6.97986 10.5371C8.48789 10.7317 9.73649 10.0977 10.5692 9.08799C11.3818 8.10266 11.8051 6.76502 11.8051 5.42879C11.8051 2.60314 9.51445 0.3125 6.6888 0.3125C3.86315 0.3125 1.57251 2.60314 1.57251 5.42879C1.57251 6.15465 1.72425 6.84762 1.99865 7.47567C2.21258 7.96529 2.78292 8.18879 3.27254 7.97486C3.76216 7.76094 3.98566 7.1906 3.77173 6.70098C3.60205 6.31263 3.50744 5.88304 3.50744 5.42879Z" clip-rule="evenodd"/></svg>