<svg xmlns="http://www.w3.org/2000/svg" viewBox="0 0 14 14"><path fill-rule="evenodd" d="M10.7083 3.07372V0.384215C10.7083 0.282315 10.6525 0.184588 10.5531 0.112534C10.4538 0.0404796 10.319 0 10.1785 0H3.82145C3.68094 0 3.5462 0.0404796 3.44685 0.112534C3.3475 0.184588 3.29169 0.282315 3.29169 0.384215V3.07372H10.7083ZM3.8877 9.5V13C3.8877 13.1326 3.93454 13.2598 4.01792 13.3536C4.1013 13.4473 4.21439 13.5 4.33231 13.5H9.66765C9.78557 13.5 9.89866 13.4473 9.98204 13.3536C10.0654 13.2598 10.1123 13.1326 10.1123 13V9.5H3.8877ZM0.450532 4.80393C0.733887 4.53772 1.11189 4.39316 1.5 4.39316H12.5C12.8881 4.39316 13.2661 4.53772 13.5495 4.80393C13.8339 5.07114 14 5.44047 14 5.83267V10.0605C14 10.4527 13.8339 10.822 13.5495 11.0892C13.2661 11.3554 12.8881 11.5 12.5 11.5H11.3623V9.5C11.3623 8.80964 10.8026 8.25 10.1123 8.25H3.8877C3.19734 8.25 2.6377 8.80964 2.6377 9.5V11.5H1.5C1.11189 11.5 0.733887 11.3554 0.450532 11.0892C0.16612 10.822 0 10.4527 0 10.0605V5.83267C0 5.44047 0.16612 5.07114 0.450532 4.80393ZM9.31476 6.2478C9.31476 5.90262 9.59458 5.6228 9.93976 5.6228H11.5768C11.922 5.6228 12.2018 5.90263 12.2018 6.2478C12.2018 6.59298 11.922 6.8728 11.5768 6.8728H9.93976C9.59458 6.8728 9.31476 6.59298 9.31476 6.2478Z" clip-rule="evenodd"/></svg>