<svg xmlns="http://www.w3.org/2000/svg" viewBox="0 0 48 48"><g transform="matrix(3.4285714285714284,0,0,3.4285714285714284,0,0)"><g><path d="M14,10.18,13.5,8.26a.76.76,0,0,0-.91-.55l-1.93.49a.75.75,0,0,0-.56.61.77.77,0,0,0,.36.76l.36.21a.28.28,0,0,1,.12.18.25.25,0,0,1-.07.2A5.47,5.47,0,0,1,7,12,5.05,5.05,0,0,1,2.28,8.71a.74.74,0,0,0-1-.44.74.74,0,0,0-.44,1A6.56,6.56,0,0,0,7,13.52a7,7,0,0,0,5.24-2.64.25.25,0,0,1,.32-.05l.3.18a.79.79,0,0,0,.39.11.75.75,0,0,0,.73-.94Z"/><path d="M1.41,6.29,3.34,5.8a.75.75,0,0,0,.56-.61.77.77,0,0,0-.36-.76l-.31-.18a.28.28,0,0,1-.12-.18.27.27,0,0,1,.07-.21A5.47,5.47,0,0,1,7,2a5.05,5.05,0,0,1,4.72,3.31.75.75,0,1,0,1.4-.52A6.56,6.56,0,0,0,7,.48,7.07,7.07,0,0,0,1.81,3.15a.25.25,0,0,1-.32.05L1.14,3A.76.76,0,0,0,.3,3,.77.77,0,0,0,0,3.82L.5,5.74a.76.76,0,0,0,.73.57Z"/></g></g></svg>