<svg xmlns="http://www.w3.org/2000/svg" viewBox="0 0 14 14"><path fill-rule="evenodd" d="M6 1.50001C6 1.29778 5.87818 1.11547 5.69134 1.03807C5.50451 0.960684 5.28945 1.00346 5.14645 1.14646L0.146447 6.14646C-0.0422768 6.33519 -0.0495031 6.63886 0.130031 6.83635L5.13003 12.3364C5.26898 12.4892 5.48763 12.5409 5.6803 12.4664C5.87297 12.3919 6 12.2066 6 12V9.50001H7C8.35568 9.50001 9.15471 9.73304 9.96303 10.2368C10.596 10.6313 11.227 11.1833 12.1126 11.958L12.1126 11.958C12.43 12.2356 12.7802 12.5419 13.1748 12.8798C13.3455 13.026 13.5927 13.0403 13.7791 12.9149C13.9655 12.7894 14.0454 12.5551 13.9743 12.3419C13.8792 12.0564 13.7823 11.7456 13.68 11.4177C13.2644 10.085 12.7605 8.46924 11.9258 7.11297C10.8583 5.37826 9.21417 4.00001 6.5 4.00001H6V1.50001Z" clip-rule="evenodd"/></svg>