<svg xmlns="http://www.w3.org/2000/svg" viewBox="0 0 48 48"><g transform="matrix(3.4285714285714284,0,0,3.4285714285714284,0,0)"><path d="M13.52.48a1.62,1.62,0,0,0-1.66-.4L1.11,3.67A1.63,1.63,0,0,0,.47,6.36L3,8.87a.26.26,0,0,1,.07.18L3,12.2a.48.48,0,0,0,.23.43.5.5,0,0,0,.5,0l1.85-1a.24.24,0,0,1,.29.05l1.79,1.79A1.67,1.67,0,0,0,8.79,14a1.5,1.5,0,0,0,.37,0,1.6,1.6,0,0,0,1.17-1.07L13.92,2.14A1.62,1.62,0,0,0,13.52.48ZM10.88,3.87,5.6,9.63a.34.34,0,0,1-.25.11A.35.35,0,0,1,5,9.39V7.27a1,1,0,0,1,.44-.83L10.31,3.2a.45.45,0,0,1,.46,0,.43.43,0,0,1,.23.39A.44.44,0,0,1,10.88,3.87Z" /></g></svg>