<svg viewBox="0 0 14 15" xmlns="http://www.w3.org/2000/svg"><path d="M13.998 12.2424C13.9978 11.7003 13.8371 11.1705 13.5362 10.7196C13.2354 10.2687 12.8078 9.91688 12.3074 9.70851C11.8069 9.50014 11.256 9.44453 10.724 9.54867C10.192 9.65281 9.70275 9.91206 9.31783 10.2937C9.28062 10.3304 9.23288 10.3546 9.18128 10.3628C9.12968 10.3711 9.07679 10.363 9.03001 10.3397L5.61307 8.62789C5.56638 8.60443 5.52819 8.56697 5.50382 8.52074C5.47945 8.47452 5.47013 8.42185 5.47715 8.37007C5.51213 8.12147 5.51213 7.86919 5.47715 7.62059C5.47013 7.56881 5.47945 7.51614 5.50382 7.46991C5.52819 7.42369 5.56638 7.38623 5.61307 7.36277L9.03001 5.65495C9.07672 5.63138 9.12968 5.62314 9.18136 5.63139C9.23303 5.63964 9.28078 5.66397 9.31783 5.70092C9.77905 6.1568 10.3866 6.43499 11.0331 6.4863C11.6796 6.53762 12.3234 6.35877 12.8508 5.98135C13.3782 5.60394 13.7551 5.05226 13.9151 4.42382C14.075 3.79538 14.0076 3.13063 13.7248 2.54706C13.442 1.96349 12.962 1.49867 12.3696 1.23473C11.7773 0.970804 11.1106 0.924761 10.4876 1.10474C9.86454 1.28472 9.32518 1.67914 8.96482 2.21829C8.60446 2.75743 8.44631 3.4066 8.51832 4.05106C8.5241 4.10202 8.51406 4.15351 8.48957 4.19856C8.46507 4.24362 8.42731 4.28004 8.3814 4.30289L4.91749 6.03469C4.87214 6.05813 4.82068 6.06706 4.77009 6.06027C4.7195 6.05347 4.67222 6.03129 4.63466 5.99672C4.24426 5.62832 3.75452 5.3823 3.22588 5.28904C2.69725 5.19577 2.15288 5.25935 1.65996 5.47191C1.16705 5.68446 0.747183 6.03671 0.452191 6.48514C0.157199 6.93358 0 7.45858 0 7.99533C0 8.53208 0.157199 9.05708 0.452191 9.50552C0.747183 9.95395 1.16705 10.3062 1.65996 10.5188C2.15288 10.7313 2.69725 10.7949 3.22588 10.7016C3.75452 10.6084 4.24426 10.3623 4.63466 9.99394C4.67192 9.95898 4.71897 9.93622 4.76951 9.92872C4.82005 9.92122 4.87168 9.92933 4.91749 9.95197L8.3814 11.6928C8.42723 11.7154 8.46496 11.7517 8.48946 11.7966C8.51395 11.8414 8.52403 11.8928 8.51832 11.9436C8.4768 12.3153 8.51158 12.6915 8.62054 13.0492C8.7295 13.407 8.91033 13.7387 9.15197 14.0242C9.39361 14.3096 9.69098 14.5427 10.0259 14.7092C10.3607 14.8758 10.7261 14.9722 11.0995 14.9926C11.473 15.0131 11.8467 14.9571 12.1977 14.8281C12.5488 14.6991 12.8698 14.4998 13.1411 14.2424C13.4125 13.985 13.6284 13.675 13.7758 13.3313C13.9231 12.9875 13.9987 12.6174 13.998 12.2434V12.2424Z"/></svg>