<svg viewBox="0 0 16 16" xmlns="http://www.w3.org/2000/svg"><g clip-path="url(#clip0_8970_217508)"><path d="M6.75 10.24C6.61525 10.2528 6.4793 10.2382 6.35038 10.1969C6.22147 10.1557 6.10226 10.0887 6 10C5.8985 9.90636 5.81749 9.79271 5.76208 9.66621C5.70667 9.53971 5.67807 9.4031 5.67807 9.265C5.67807 9.1269 5.70667 8.99029 5.76208 8.86379C5.81749 8.73729 5.8985 8.62364 6 8.53L8.54 6C8.73096 5.80639 8.991 5.69657 9.26293 5.6947C9.53486 5.69282 9.79639 5.79904 9.99 5.99C10.1836 6.18096 10.2934 6.441 10.2953 6.71293C10.2972 6.98486 10.191 7.24639 10 7.44L7.46 10C7.2634 10.169 7.00883 10.2551 6.75 10.24Z"/><path d="M12 10C11.8684 10.0008 11.7379 9.97554 11.6161 9.92577C11.4943 9.87601 11.3834 9.80268 11.29 9.71C11.1963 9.61704 11.1219 9.50644 11.0711 9.38458C11.0203 9.26272 10.9942 9.13201 10.9942 9C10.9942 8.86799 11.0203 8.73728 11.0711 8.61542C11.1219 8.49356 11.1963 8.38296 11.29 8.29L12.71 6.87C12.8037 6.77704 12.8781 6.66644 12.9289 6.54458C12.9797 6.42272 13.0058 6.29201 13.0058 6.16C13.0058 6.02799 12.9797 5.89728 12.9289 5.77542C12.8781 5.65356 12.8037 5.54296 12.71 5.45L10.54 3.27C10.447 3.17627 10.3364 3.10188 10.2146 3.05111C10.0927 3.00034 9.96201 2.9742 9.83 2.9742C9.69799 2.9742 9.56728 3.00034 9.44543 3.05111C9.32357 3.10188 9.21297 3.17627 9.12 3.27L7.71 4.69C7.61676 4.78324 7.50607 4.8572 7.38425 4.90766C7.26243 4.95812 7.13186 4.98409 7 4.98409C6.86814 4.98409 6.73758 4.95812 6.61575 4.90766C6.49393 4.8572 6.38324 4.78324 6.29 4.69C6.1017 4.5017 5.99591 4.2463 5.99591 3.98C5.99591 3.84814 6.02188 3.71757 6.07234 3.59575C6.1228 3.47393 6.19676 3.36324 6.29 3.27L7.71 1.85C8.28474 1.29224 9.05412 0.980289 9.855 0.980289C10.6559 0.980289 11.4253 1.29224 12 1.85L14.12 4C14.3997 4.27871 14.6216 4.60989 14.773 4.97454C14.9244 5.3392 15.0024 5.73016 15.0024 6.125C15.0024 6.51984 14.9244 6.9108 14.773 7.27546C14.6216 7.64011 14.3997 7.97129 14.12 8.25L12.71 9.7C12.6174 9.79449 12.5069 9.86966 12.3851 9.92115C12.2632 9.97265 12.1323 9.99945 12 10Z"/><path d="M6.17 15C5.37462 14.9993 4.61207 14.6828 4.05 14.12L1.88 11.94C1.60032 11.6613 1.37841 11.3301 1.22699 10.9655C1.07558 10.6008 0.997635 10.2098 0.997635 9.815C0.997635 9.42016 1.07558 9.0292 1.22699 8.66454C1.37841 8.29989 1.60032 7.96871 1.88 7.69L3.29 6.28C3.47698 6.0917 3.7311 5.98538 3.99646 5.98444C4.26183 5.98351 4.5167 6.08802 4.705 6.275C4.8933 6.46198 4.99962 6.7161 5.00056 6.98146C5.00149 7.24683 4.89698 7.5017 4.71 7.69L3.29 9.11C3.19627 9.20296 3.12188 9.31356 3.07111 9.43542C3.02034 9.55728 2.9942 9.68799 2.9942 9.82C2.9942 9.95201 3.02034 10.0827 3.07111 10.2046C3.12188 10.3264 3.19627 10.437 3.29 10.53L5.46 12.7C5.55296 12.7937 5.66356 12.8681 5.78542 12.9189C5.90728 12.9697 6.03799 12.9958 6.17 12.9958C6.30201 12.9958 6.43272 12.9697 6.55458 12.9189C6.67644 12.8681 6.78704 12.7937 6.88 12.7L8.29 11.29C8.47698 11.1017 8.7311 10.9954 8.99646 10.9944C9.26183 10.9935 9.5167 11.098 9.705 11.285C9.8933 11.472 9.99962 11.7261 10.0006 11.9915C10.0015 12.2568 9.89698 12.5117 9.71 12.7L8.29 14.12C7.72793 14.6828 6.96538 14.9993 6.17 15Z"/></g><defs><clipPath id="clip0_8970_217508"><rect width="14" height="14" transform="translate(1 1)"/></clipPath></defs></svg>