<svg xmlns="http://www.w3.org/2000/svg" viewBox="0 0 48 48"><g transform="matrix(3.4285714285714284,0,0,3.4285714285714284,0,0)"><path d="M3.72,13.73a1.7,1.7,0,0,1-1.67-2l.46-2.64a.29.29,0,0,0-.07-.22L.51,7a1.68,1.68,0,0,1,.94-2.87l2.64-.39a.26.26,0,0,0,.19-.13L5.49,1.17A1.68,1.68,0,0,1,7,.27H7a1.65,1.65,0,0,1,1.51.91L9.7,3.58a.23.23,0,0,0,.18.13l2.68.41A1.68,1.68,0,0,1,13.49,7L11.57,8.86a.29.29,0,0,0-.07.22L12,11.76A1.69,1.69,0,0,1,9.5,13.53L7.13,12.29a.27.27,0,0,0-.23,0L4.5,13.53A1.71,1.71,0,0,1,3.72,13.73ZM7,1.77a.2.2,0,0,0-.17.07L5.38,4.73a.74.74,0,0,1-.56.41L1.66,5.6a.18.18,0,0,0-.15.13.17.17,0,0,0,.05.19l2.3,2.27a.72.72,0,0,1,.21.66L3.53,12a.18.18,0,0,0,.08.18.17.17,0,0,0,.19,0l2.87-1.49a.75.75,0,0,1,.7,0L10.2,12.2c.12,0,.16,0,.19,0a.18.18,0,0,0,.08-.18l-.53-3.2a.76.76,0,0,1,.21-.66l2.29-2.23a.17.17,0,0,0,.05-.19h0a.18.18,0,0,0-.15-.13l-3.2-.48a.76.76,0,0,1-.56-.41L7.17,1.84A.2.2,0,0,0,7,1.77Z"/></g></svg>