<svg viewBox="0 0 14 14" xmlns="http://www.w3.org/2000/svg"><path d="M13.6161 6.33726C13.7773 6.20586 13.8959 6.02534 13.956 5.82032C14.0161 5.61529 14.0146 5.39576 13.9518 5.19165C13.8889 4.98755 13.7678 4.80882 13.605 4.67984C13.4421 4.55086 13.2454 4.47792 13.0417 4.47096L9.62466 3.9288C9.58511 3.92394 9.54759 3.90776 9.51616 3.88203C9.48473 3.85629 9.4606 3.82198 9.44638 3.78283L7.93101 0.561124C7.83574 0.390289 7.69971 0.248634 7.5364 0.150208C7.37309 0.0517807 7.18818 0 7 0C6.81182 0 6.62691 0.0517807 6.4636 0.150208C6.30029 0.248634 6.16425 0.390289 6.06899 0.561124L4.5239 3.84539C4.50354 3.88185 4.47636 3.91358 4.44402 3.93867C4.41167 3.96376 4.37483 3.98168 4.33572 3.99135L0.958321 4.47096C0.754615 4.47792 0.557909 4.55086 0.395035 4.67984C0.232161 4.80882 0.111052 4.98755 0.0482274 5.19165C-0.0145968 5.39576 -0.0160762 5.61529 0.043991 5.82032C0.104058 6.02534 0.222747 6.20586 0.383866 6.33726L2.84016 8.89168C2.86989 8.92009 2.89197 8.95627 2.90414 8.99655C2.91632 9.03683 2.91816 9.07979 2.90949 9.12106L2.33503 12.6764C2.28046 12.8817 2.28697 13.0996 2.35369 13.3009C2.42041 13.5022 2.54412 13.6771 2.70817 13.802C2.87221 13.927 3.0687 13.996 3.27116 13.9998C3.47362 14.0036 3.67232 13.942 3.8405 13.8233L6.91086 12.1864C6.98398 12.1556 7.06554 12.1556 7.13866 12.1864L10.1595 13.865C10.3289 13.9651 10.5224 14.0105 10.7162 13.9957C10.9099 13.9809 11.0952 13.9064 11.249 13.7816C11.4062 13.6683 11.5291 13.5097 11.6029 13.3248C11.6767 13.1399 11.6982 12.9365 11.665 12.739L11.1004 9.0585C11.0944 9.01723 11.0975 8.97506 11.1096 8.93527C11.1216 8.89548 11.1422 8.85916 11.1697 8.82913L13.6161 6.33726Z"/></svg>