<svg viewBox="0 0 14 14" xmlns="http://www.w3.org/2000/svg"><path d="M7 0C6.81182 0 6.62691 0.0517807 6.4636 0.150208C6.30029 0.248635 6.16425 0.390289 6.06899 0.561124L4.5239 3.84539C4.50354 3.88185 4.47636 3.91358 4.44402 3.93867C4.41167 3.96376 4.37483 3.98168 4.33572 3.99135L0.958321 4.47096C0.754615 4.47792 0.557909 4.55086 0.395035 4.67984C0.232161 4.80882 0.111052 4.98755 0.0482274 5.19165C-0.0145968 5.39576 -0.0160762 5.61529 0.043991 5.82031C0.104058 6.02534 0.222747 6.20586 0.383866 6.33726L2.84015 8.89168C2.86989 8.92009 2.89196 8.95627 2.90414 8.99655C2.91632 9.03683 2.91816 9.07979 2.90949 9.12106L2.33503 12.6764C2.28046 12.8817 2.28697 13.0996 2.35369 13.3009C2.42041 13.5022 2.54412 13.6771 2.70817 13.802C2.87221 13.927 3.0687 13.996 3.27116 13.9998C3.47362 14.0036 3.67232 13.942 3.8405 13.8233L6.91086 12.1864C6.93961 12.1743 6.96967 12.1669 7 12.1644V0Z"/></svg>