<svg viewBox="0 0 14 14" xmlns="http://www.w3.org/2000/svg"><path d="M3.71734 13.9772C3.46916 13.9767 3.2241 13.9197 2.9994 13.8102C2.7747 13.7007 2.57582 13.5414 2.41675 13.3434C2.25768 13.1454 2.14229 12.9136 2.07868 12.6643C2.01508 12.415 2.00482 12.1543 2.04862 11.9004L2.50827 9.15906C2.51228 9.11803 2.50814 9.07658 2.49611 9.03729C2.48408 8.99799 2.46441 8.96168 2.43832 8.93061L0.509796 6.9888C0.284009 6.76117 0.124315 6.47218 0.0489223 6.1548C-0.0264703 5.83741 -0.0145276 5.5044 0.0833887 5.19372C0.181305 4.88305 0.361254 4.60722 0.60272 4.39768C0.844186 4.18814 1.13745 4.05332 1.44908 4.0086L4.08706 3.60363C4.12655 3.59778 4.16422 3.58257 4.19715 3.55916C4.23007 3.53575 4.25736 3.50477 4.27691 3.46864L5.48599 0.934945C5.62991 0.649566 5.84707 0.411181 6.1134 0.246222C6.37973 0.0812625 6.68481 -0.00382715 6.99483 0.000386928C7.30658 -0.00649818 7.61381 0.0786268 7.88088 0.245883C8.14795 0.41314 8.3639 0.65567 8.50368 0.945329L9.69277 3.43748C9.70935 3.47393 9.73453 3.50542 9.76598 3.52903C9.79743 3.55263 9.83412 3.56758 9.87263 3.57248L12.5506 3.99822C12.8635 4.04305 13.1578 4.17869 13.3998 4.38956C13.6419 4.60043 13.8217 4.87797 13.9188 5.1903C14.0158 5.50263 14.0261 5.83708 13.9485 6.15522C13.8708 6.47336 13.7084 6.76229 13.4799 6.9888L11.5613 8.92022C11.5352 8.9513 11.5156 8.98761 11.5035 9.0269C11.4915 9.0662 11.4874 9.10765 11.4914 9.14867L11.991 11.9316C12.0484 12.2602 12.0144 12.5991 11.8929 12.9083C11.7715 13.2176 11.5676 13.4844 11.3053 13.6774C11.0429 13.8704 10.7331 13.9816 10.412 13.9979C10.091 14.0142 9.77213 13.935 9.49292 13.7695L7.12473 12.4819C7.08879 12.4643 7.04955 12.4552 7.00982 12.4552C6.97009 12.4552 6.93085 12.4643 6.89491 12.4819L4.49674 13.7695C4.25655 13.9023 3.98935 13.9735 3.71734 13.9772ZM6.99483 1.55798C6.96299 1.5551 6.93094 1.56019 6.90138 1.57284C6.87182 1.58549 6.84562 1.60532 6.82496 1.63067L5.37607 4.63164C5.3234 4.74474 5.24485 4.84269 5.14729 4.91691C5.04974 4.99114 4.93616 5.03937 4.8165 5.05738L1.65892 5.53505C1.62395 5.5398 1.5911 5.55513 1.56445 5.57913C1.5378 5.60313 1.51853 5.63475 1.50903 5.67004C1.49668 5.70425 1.49486 5.74161 1.50381 5.77695C1.51276 5.81229 1.53204 5.84387 1.55899 5.86733L3.85723 8.2245C3.94483 8.31119 4.00998 8.41944 4.04666 8.53923C4.08334 8.65902 4.09036 8.78648 4.06707 8.90984L3.52749 12.1808C3.52189 12.2167 3.52647 12.2534 3.54067 12.2866C3.55487 12.3198 3.57806 12.348 3.60742 12.3677C3.63547 12.3873 3.66853 12.3978 3.70235 12.3978C3.73618 12.3978 3.76923 12.3873 3.79728 12.3677L6.66508 10.8205C6.77288 10.7614 6.89293 10.7305 7.01482 10.7305C7.1367 10.7305 7.25675 10.7614 7.36455 10.8205L10.1924 12.3885C10.3123 12.3885 10.3523 12.3885 10.3822 12.3885C10.4116 12.3688 10.4348 12.3406 10.449 12.3074C10.4632 12.2742 10.4678 12.2374 10.4622 12.2016L9.93258 8.87869C9.91281 8.75535 9.92153 8.62889 9.95801 8.50973C9.99449 8.39058 10.0577 8.28214 10.1424 8.19335L12.4307 5.87772C12.4576 5.85425 12.4769 5.82267 12.4859 5.78733C12.4948 5.75199 12.493 5.71464 12.4806 5.68042C12.4711 5.64513 12.4519 5.61352 12.4252 5.58952C12.3986 5.56552 12.3657 5.55018 12.3307 5.54543L9.13319 5.047C9.01409 5.02731 8.90122 4.97842 8.80391 4.90438C8.7066 4.83035 8.62766 4.7333 8.57362 4.62126L7.1647 1.63067C7.14404 1.60532 7.11784 1.58549 7.08828 1.57284C7.05872 1.56019 7.02668 1.5551 6.99483 1.55798Z"/></svg>