<svg viewBox="0 0 24 24" xmlns="http://www.w3.org/2000/svg"><path fill-rule="evenodd" clip-rule="evenodd" d="M23.1429 5.19178C22.2925 5.56353 21.377 5.81489 20.4166 5.92722C21.3973 5.34953 22.1499 4.43356 22.5044 3.34236C21.5861 3.87726 20.5714 4.26634 19.4874 4.47495C18.6235 3.56696 17.3887 3 16.0222 3C13.4019 3 11.276 5.0928 11.276 7.67369C11.276 8.0401 11.3167 8.39584 11.3982 8.73817C7.45212 8.54294 3.95427 6.68417 1.61105 3.85321C1.20217 4.5459 0.96853 5.34953 0.96853 6.20537C0.96853 7.82612 1.80666 9.25699 3.08082 10.0954C2.30383 10.0727 1.57029 9.86013 0.929136 9.51243V9.56995C0.929136 11.8353 2.56599 13.7248 4.73941 14.1527C4.34141 14.2623 3.92166 14.3172 3.48834 14.3172C3.1827 14.3172 2.88386 14.2891 2.59452 14.2343C3.199 16.0904 4.95132 17.4424 7.02966 17.4785C5.40503 18.7328 3.35658 19.4803 1.1329 19.4803C0.749832 19.4803 0.37084 19.4589 0 19.4161C2.10143 20.74 4.59814 21.5143 7.27824 21.5143C16.0127 21.5143 20.7874 14.3934 20.7874 8.21665C20.7874 8.01339 20.7833 7.81012 20.7752 7.61088C21.703 6.95161 22.5085 6.12919 23.1429 5.19178Z"/></svg>