<svg xmlns="http://www.w3.org/2000/svg" viewBox="0 0 14 14"><path fill-rule="evenodd" d="M8.47472 1.1632C9.77685 0.827743 11.3483 1.2901 12.3047 2.30864H13.3782C13.5503 2.30864 13.7102 2.3971 13.8017 2.54283C13.8932 2.68856 13.9033 2.87107 13.8285 3.02602L12.7729 5.21251C13.0724 7.76023 12.0758 10.1961 10.0711 11.636C8.02037 13.109 5.00352 13.4802 1.42635 12.0145C1.23808 11.9436 1.07547 11.8175 0.9599 11.6526C0.842027 11.4844 0.778794 11.284 0.778794 11.0786C0.778794 10.8733 0.842027 10.6729 0.9599 10.5047C1.07777 10.3365 1.24457 10.2087 1.43762 10.1386C1.45068 10.1339 1.46394 10.1297 1.47735 10.1261C2.0275 9.97689 2.55349 9.75372 3.04127 9.46364C2.0748 8.88294 1.28539 8.03895 0.770816 7.02251C0.12836 5.75346 -0.0438169 4.29828 0.284085 2.91498C0.304935 2.7417 0.370821 2.57659 0.475549 2.43629C0.589879 2.28311 0.745713 2.16592 0.924593 2.09857C1.10347 2.03123 1.29791 2.01656 1.48486 2.05631C1.67164 2.09602 1.84315 2.18837 1.9791 2.32245C3.39156 3.71077 4.62741 4.28532 5.48308 4.52023C5.81481 4.61131 6.09255 4.6522 6.30501 4.66875C6.23919 3.78839 6.38908 3.05479 6.7209 2.47463C7.12526 1.76761 7.76774 1.34534 8.47472 1.1632Z" clip-rule="evenodd"/></svg>