<svg xmlns="http://www.w3.org/2000/svg" viewBox="0 0 14 14"><path fill-rule="evenodd" d="M8.99999 4C9.2883 4 9.55108 3.83474 9.67597 3.57489C9.80086 3.31504 9.76575 3.00661 9.58564 2.78148L7.58564 0.281479C7.44331 0.103567 7.22783 0 6.99999 0C6.77215 0 6.55667 0.103567 6.41434 0.281479L4.41434 2.78148C4.23424 3.00661 4.19912 3.31504 4.32401 3.57489C4.4489 3.83474 4.71169 4 4.99999 4H6L6 9.5C6 10.0523 6.44772 10.5 7 10.5C7.55228 10.5 8 10.0523 8 9.5L8 4H8.99999ZM3 12V5.99998C3.55228 5.99998 4 5.55227 4 4.99998C4 4.4477 3.55228 3.99998 3 3.99998H2.5C2.10217 3.99998 1.72064 4.15802 1.43934 4.43932C1.15804 4.72062 1 5.10216 1 5.49998V12.5C1 12.8979 1.15804 13.2794 1.43934 13.5607C1.72065 13.842 2.10218 14 2.5 14L11.5 14.0001C11.8978 14.0001 12.2794 13.842 12.5607 13.5607C12.842 13.2794 13 12.8979 13 12.5001V5.5C13 5.10218 12.842 4.72065 12.5607 4.43934C12.2794 4.15804 11.8978 4 11.5 4H11C10.4477 4 10 4.44772 10 5C10 5.55228 10.4477 6 11 6V12.0001L3 12Z" clip-rule="evenodd"/></svg>