<svg viewBox="0 0 14 14" xmlns="http://www.w3.org/2000/svg"><path fill-rule="evenodd" clip-rule="evenodd" d="M5 6C6.65685 6 8 4.65685 8 3C8 1.34315 6.65685 0 5 0C3.34315 0 2 1.34315 2 3C2 4.65685 3.34315 6 5 6ZM13.6996 7.14974C14.0311 7.39807 14.0986 7.86813 13.8502 8.19965L9.73022 13.6996C9.61097 13.8588 9.43335 13.9642 9.23646 13.9924C9.03956 14.0206 8.83951 13.9695 8.68031 13.8503L5.93031 11.7903C5.59879 11.5419 5.53136 11.0719 5.7797 10.7403C6.02803 10.4088 6.49809 10.3414 6.82961 10.5897L8.97935 12.2001L12.6497 7.30035C12.898 6.96883 13.3681 6.9014 13.6996 7.14974ZM5 6.99998C6.88475 6.99998 8.52593 8.0428 9.37803 9.58294L8.72834 10.4502L7.57904 9.5893C6.695 8.92708 5.4415 9.10689 4.77927 9.99093C4.2044 10.7584 4.26407 11.8042 4.86814 12.5H0.5C0.223858 12.5 0 12.2761 0 12C0 9.23855 2.23858 6.99998 5 6.99998Z"/></svg>