<svg xmlns="http://www.w3.org/2000/svg" viewBox="0 0 14 14"><path fill-rule="evenodd" d="M5.04883 0.275541C2.32493 1.06453 0.285118 3.46373 0.0275269 6.375H3.22773C3.41606 4.22626 4.03911 2.14922 5.04883 0.275541ZM3.22773 7.625H0.0275269C0.285118 10.5363 2.32493 12.9355 5.04883 13.7245C4.0391 11.8508 3.41606 9.77374 3.22773 7.625ZM6.6522 13.9915C5.44618 12.0855 4.69968 9.90183 4.48294 7.625H9.51704C9.30031 9.90183 8.5538 12.0855 7.34777 13.9915C7.23256 13.9971 7.11661 14 7.00001 14C6.88338 14 6.76743 13.9971 6.6522 13.9915ZM8.95115 13.7245C11.6751 12.9355 13.7149 10.5363 13.9725 7.625H10.7722C10.5839 9.77375 9.96087 11.8508 8.95115 13.7245ZM10.7722 6.375H13.9725C13.7149 3.46372 11.6751 1.06451 8.95114 0.275533C9.96087 2.14921 10.5839 4.22625 10.7722 6.375ZM6.65221 0.00848953C6.76743 0.00285182 6.88339 0 7.00001 0C7.11661 0 7.23256 0.0028513 7.34777 0.008488C8.5538 1.91446 9.3003 4.09817 9.51704 6.375H4.48294C4.69968 4.09817 5.44618 1.91446 6.65221 0.00848953Z" clip-rule="evenodd"/></svg>