<svg xmlns="http://www.w3.org/2000/svg" viewBox="0 0 48 48"><g transform="matrix(3.4285714285714284,0,0,3.4285714285714284,0,0)"><g><path d="M9.21,8a.26.26,0,0,0-.06-.19A.27.27,0,0,0,9,7.75H5a.27.27,0,0,0-.19.08A.26.26,0,0,0,4.79,8a10.45,10.45,0,0,0,2,5.66.3.3,0,0,0,.2.1.26.26,0,0,0,.2-.1A10.34,10.34,0,0,0,9.21,8Z" /><path d="M4.79,6a.26.26,0,0,0,.06.19A.27.27,0,0,0,5,6.25H9a.27.27,0,0,0,.19-.08A.26.26,0,0,0,9.21,6,10.45,10.45,0,0,0,7.2.32.3.3,0,0,0,7,.22a.26.26,0,0,0-.2.1A10.34,10.34,0,0,0,4.79,6Z" /><path d="M10.72,6a.25.25,0,0,0,.25.23h2.71a.25.25,0,0,0,.19-.09.26.26,0,0,0,.05-.2A7,7,0,0,0,9.63.51a.27.27,0,0,0-.28.07.24.24,0,0,0,0,.28A12.66,12.66,0,0,1,10.72,6Z" /><path d="M11,7.75a.25.25,0,0,0-.25.23,12.66,12.66,0,0,1-1.4,5.16.24.24,0,0,0,0,.28.25.25,0,0,0,.28.07A7,7,0,0,0,13.92,8a.28.28,0,0,0-.05-.2.25.25,0,0,0-.19-.09Z" /><path d="M3,6.25A.25.25,0,0,0,3.28,6,12.66,12.66,0,0,1,4.68.86a.24.24,0,0,0,0-.28A.27.27,0,0,0,4.37.51,7,7,0,0,0,.08,6a.28.28,0,0,0,.05.2.25.25,0,0,0,.19.09Z" /><path d="M3.28,8A.25.25,0,0,0,3,7.75H.32a.25.25,0,0,0-.19.09.28.28,0,0,0,0,.2,7,7,0,0,0,4.29,5.45.25.25,0,0,0,.28-.07.24.24,0,0,0,0-.28A12.66,12.66,0,0,1,3.28,8Z" /></g></g></svg>