<svg viewBox="0 0 23 24" xmlns="http://www.w3.org/2000/svg"><path fill-rule="evenodd" clip-rule="evenodd" d="M16.7427 23.9972H16.8387C17.507 23.9981 18.1752 23.9981 18.8431 23.9972H19.3042C19.5394 23.9972 19.5781 23.9294 19.4641 23.7289C18.9391 22.8068 18.4136 21.8848 17.8875 20.9631L17.8162 20.838C16.6857 18.8494 15.5521 16.8634 14.4154 14.8801L14.352 14.7693C14.2765 14.6372 14.2821 14.5372 14.3555 14.4107C14.8345 13.5821 15.3101 12.7515 15.7824 11.9189L18.2064 7.66708L20.901 2.9429C21.4145 2.0443 21.9273 1.14496 22.4391 0.244903C22.5285 0.0871532 22.4879 0.0143693 22.3098 0.00343616H22.2994C22.2819 0.00264558 22.2644 0.00302878 22.2469 0.00343616H22.2161C21.8213 0.00343616 21.4265 0.00359391 21.0318 0.00375163C19.7602 0.00425975 18.4891 0.00476766 17.2181 0C17.1466 0 17.0854 0.00939451 17.0318 0.0291027C16.9319 0.0654577 16.8587 0.137431 16.7942 0.250412C16.4095 0.927151 16.0247 1.60381 15.6397 2.28039C14.8257 3.71002 14.0113 5.13957 13.1967 6.56904C12.8048 7.25628 12.4127 7.94344 12.0205 8.63052C10.9167 10.5647 9.81299 12.4985 8.70926 14.4316C8.64678 14.5425 8.63928 14.6363 8.70488 14.7509C10.4215 17.7545 12.1347 20.7597 13.8444 23.7664C13.9381 23.9326 14.0534 24.0016 14.243 24C14.8547 23.9952 15.4657 23.996 16.0766 23.9967C16.2986 23.997 16.5207 23.9972 16.7427 23.9972ZM1.33623 4.3997H1.21751C1.01259 4.3997 0.986971 4.44437 1.08037 4.63086C1.09224 4.65397 1.10442 4.67678 1.11723 4.69958L2.67381 7.44068C3.10552 8.20038 3.53774 8.95987 3.97049 9.71915C4.0414 9.8441 4.06202 9.94499 3.97049 10.0753C3.86865 10.2205 3.77837 10.3739 3.68814 10.5272C3.65162 10.5893 3.6151 10.6513 3.57783 10.7128L0.258818 16.1838C0.180411 16.3128 0.10263 16.4415 0.0270346 16.5724C-0.0295058 16.672 0.00360574 16.7314 0.117311 16.7429C0.145931 16.7456 0.174941 16.7454 0.203724 16.7452H0.203732L0.226643 16.7451C1.82477 16.7451 3.42289 16.7451 5.0207 16.7482C5.04304 16.7482 5.06414 16.7471 5.08414 16.7448C5.21205 16.7311 5.29487 16.6696 5.36321 16.5512C5.49953 16.3142 5.6412 16.0819 5.78299 15.8493C5.8225 15.7845 5.86202 15.7196 5.90143 15.6547C7.02932 13.7956 8.15867 11.9379 9.28947 10.0816C9.35788 9.96789 9.37663 9.87199 9.30665 9.74922C8.3235 8.02074 7.34253 6.29226 6.36375 4.56378C6.29597 4.44508 6.21506 4.39697 6.0773 4.39697C5.47791 4.40092 4.87868 4.40038 4.27938 4.39984C4.07193 4.39966 3.86448 4.39947 3.65701 4.39947C2.88351 4.39908 2.10992 4.39915 1.33623 4.3997Z"/></svg>