<svg xmlns="http://www.w3.org/2000/svg" viewBox="0 0 14 14"><path d="M13.0056 0C13.385 0 13.6262 0.406033 13.4447 0.739215L9.3722 8.21397C9.28942 8.3659 9.29108 8.54984 9.37658 8.70026L11.9644 13.2529C12.1539 13.5862 11.9131 14 11.5297 14H8.88832C8.70848 14 8.5425 13.9034 8.45363 13.7471L5.58749 8.70478C5.50059 8.55191 5.50038 8.36464 5.58694 8.21157L10.0872 0.253872C10.1759 0.0969935 10.3422 0 10.5224 0H13.0056ZM5.60519 5.58358C5.68784 5.73855 5.68312 5.92552 5.59276 6.07613L3.43406 9.67396C3.3437 9.82456 3.18095 9.91671 3.00532 9.91671H0.500779C0.111209 9.91671 -0.128712 9.49091 0.0730986 9.15769L1.97318 6.02035C2.06519 5.86842 2.0697 5.67908 1.98502 5.52295L0.655558 3.07176C0.474862 2.7386 0.716068 2.33337 1.09507 2.33337H3.57175C3.7564 2.33337 3.92603 2.43515 4.01292 2.59808L5.60519 5.58358Z"/></svg>