<svg xmlns="http://www.w3.org/2000/svg" viewBox="0 0 500 500"><path d="M79.671 54.249c-13.666 1.441-28.354 6.778-40.252 14.627-11.033 7.278-24.088 22.133-30.281 34.457-2.959 5.888-6.573 17.262-7.913 24.901-1.831 10.441-1.831 233.091 0 243.532 3.397 19.368 12.064 35.694 26.167 49.289 14.525 14.002 29.457 21.396 49.275 24.401 11.834 1.795 334.832 1.795 346.666 0 19.677-2.983 34.81-10.457 49.132-24.263 12.352-11.908 20.308-25.289 24.884-41.855l2.234-8.088v-242.5l-2.234-8.088c-4.559-16.502-12.559-29.992-24.706-41.657-15.283-14.676-32.776-22.804-53.476-24.847-9.842-.972-330.235-.886-339.496.091m141.636 107.826c4.878 1.473 121.058 65.776 125.344 69.374 1.625 1.365 4.075 4.503 5.444 6.975 2.215 3.999 2.488 5.272 2.488 11.576 0 6.236-.285 7.598-2.383 11.384-1.311 2.365-3.561 5.423-5 6.795-2.748 2.619-119.247 67.925-124.55 69.819-4.365 1.559-12.371 1.426-17.143-.284-5.546-1.988-10.775-6.813-13.585-12.535l-2.339-4.762-.227-67.901c-.154-45.991.061-69.291.667-72.21 2.803-13.502 17.871-22.283 31.284-18.231" fill-rule="evenodd"/></svg>