<svg xmlns="http://www.w3.org/2000/svg" viewBox="0 0 14 14"><path fill-rule="evenodd" d="M0 4C0 2.61929 1.11929 1.5 2.5 1.5H11.5C12.8807 1.5 14 2.61929 14 4V10C14 11.3807 12.8807 12.5 11.5 12.5H2.5C1.11929 12.5 0 11.3807 0 10V4ZM5.30998 5.11998V9.31998C5.30935 9.3905 5.32737 9.45993 5.36222 9.52124C5.39707 9.58255 5.4475 9.63356 5.50842 9.66909C5.56933 9.70462 5.63856 9.72342 5.70908 9.72358C5.7796 9.72374 5.84891 9.70524 5.90998 9.66998L9.50998 7.56998C9.57013 7.53469 9.62001 7.48428 9.65467 7.42377C9.68933 7.36325 9.70756 7.29472 9.70756 7.22498C9.70756 7.15524 9.68933 7.08671 9.65467 7.0262C9.62001 6.96568 9.57013 6.91527 9.50998 6.87998L5.90998 4.77998C5.85023 4.74175 5.78117 4.72055 5.71026 4.71865C5.63935 4.71675 5.56926 4.73422 5.50754 4.7692C5.44582 4.80417 5.39481 4.85532 5.36 4.91713C5.32519 4.97894 5.3079 5.04907 5.30998 5.11998Z" clip-rule="evenodd"/></svg>