<svg viewBox="0 0 28 28" xmlns="http://www.w3.org/2000/svg" focusable="false" aria-hidden="true"><path d="M23.8995 4.10034C21.9416 2.1424 19.447 0.809031 16.7313 0.268838C14.0155 -0.271355 11.2006 0.00589137 8.64244 1.06552C6.08427 2.12515 3.89777 3.91956 2.35943 6.22185C0.821092 8.52414 4.69388e-06 11.2309 5.03106e-06 13.9998C5.19965e-06 16.7688 0.82109 19.4755 2.35943 21.7778C3.89777 24.0801 6.08427 25.8745 8.64244 26.9341C11.2006 27.9938 14.0155 28.271 16.7313 27.7308C19.447 27.1906 21.9416 25.8573 23.8995 23.8993C26.525 21.2738 28 17.7129 28 13.9998C28 10.2868 26.525 6.72585 23.8995 4.10034ZM18.2426 17.6202C17.8451 17.62 17.464 17.462 17.1829 17.1809C16.9018 16.8998 16.7438 16.5187 16.7436 16.1212V13.2927L10.7756 19.2607C10.4943 19.542 10.1128 19.7 9.71494 19.7C9.31711 19.7 8.93558 19.542 8.65428 19.2607C8.37297 18.9794 8.21494 18.5979 8.21494 18.2C8.21494 17.8022 8.37297 17.4207 8.65428 17.1394L14.5798 11.2138L11.7514 11.2138C11.4045 11.14 11.0949 10.9456 10.8777 10.6652C10.6605 10.3848 10.5497 10.0365 10.565 9.68215C10.5803 9.32779 10.7206 8.9903 10.9611 8.7296C11.2016 8.46889 11.5267 8.30185 11.8787 8.25813L18.2426 8.25813C18.6401 8.25837 19.0213 8.41639 19.3024 8.69746C19.5834 8.97854 19.7415 9.35969 19.7417 9.75719V16.1212C19.7415 16.5187 19.5834 16.8998 19.3024 17.1809C19.0213 17.462 18.6401 17.62 18.2426 17.6202Z"/></svg>