<svg xmlns="http://www.w3.org/2000/svg" viewBox="0 0 16 16" focusable="false" aria-hidden="true"><path fill-rule="evenodd" d="M.571 2.286C.571 1.339 1.34.57 2.286.57h3.428c.947 0 1.715.768 1.715 1.715v3.428c0 .947-.768 1.715-1.715 1.715H2.286A1.714 1.714 0 0 1 .57 5.714zm8 0c0-.947.768-1.715 1.715-1.715h3.428c.947 0 1.715.768 1.715 1.715v3.428c0 .947-.768 1.715-1.715 1.715h-3.428A1.714 1.714 0 0 1 8.57 5.714zM2.286 8.57c-.947 0-1.715.768-1.715 1.715v3.428c0 .947.768 1.715 1.715 1.715h3.428c.947 0 1.715-.768 1.715-1.715v-3.428c0-.947-.768-1.715-1.715-1.715zm6.285 1.715c0-.947.768-1.715 1.715-1.715h3.428c.947 0 1.715.768 1.715 1.715v3.428c0 .947-.768 1.715-1.715 1.715h-3.428a1.714 1.714 0 0 1-1.715-1.715z" clip-rule="evenodd"/></svg>