<svg viewBox="0 0 20 20" xmlns="http://www.w3.org/2000/svg"><path fill-rule="evenodd" clip-rule="evenodd" d="M0 5.55556C0 2.48778 2.48778 0 5.55556 0H14.4444C17.5122 0 20 2.48778 20 5.55556V14.4444C20 17.5122 17.5122 20 14.4444 20H5.55556C2.48778 20 0 17.5122 0 14.4444V5.55556ZM17.7778 3.33331C17.7778 2.71998 17.28 2.2222 16.6667 2.2222C16.0533 2.2222 15.5556 2.71998 15.5556 3.33331C15.5556 3.94665 16.0533 4.44442 16.6667 4.44442C17.28 4.44442 17.7778 3.94665 17.7778 3.33331ZM10 4.44446C13.0678 4.44446 15.5556 6.93224 15.5556 10C15.5556 13.0678 13.0678 15.5556 10 15.5556C6.93222 15.5556 4.44444 13.0678 4.44444 10C4.44444 6.93224 6.93222 4.44446 10 4.44446ZM6.66667 10C6.66667 8.15905 8.15905 6.66667 10 6.66667C11.8409 6.66667 13.3333 8.15905 13.3333 10C13.3333 11.8409 11.8409 13.3333 10 13.3333C8.15905 13.3333 6.66667 11.8409 6.66667 10Z"/></svg>