<svg xmlns="http://www.w3.org/2000/svg" viewBox="0 0 48 48"><g transform="matrix(3.4285714285714284,0,0,3.4285714285714284,0,0)"><path d="M14,5.25A1.25,1.25,0,0,0,12.75,4h-1.5A.25.25,0,0,1,11,3.75v-3A.76.76,0,0,0,10.25,0H3.75A.76.76,0,0,0,3,.75v3A.25.25,0,0,1,2.75,4H1.25A1.25,1.25,0,0,0,0,5.25v3.5A1.25,1.25,0,0,0,1.25,10h1.5a.25.25,0,0,1,.25.25v3a.76.76,0,0,0,.75.75h6.5a.76.76,0,0,0,.75-.75v-3a.25.25,0,0,1,.25-.25h1.5A1.25,1.25,0,0,0,14,8.75ZM4.5,1.75a.25.25,0,0,1,.25-.25h4.5a.25.25,0,0,1,.25.25v3.5a.25.25,0,0,1-.25.25H4.75a.25.25,0,0,1-.25-.25Zm5,10.5a.25.25,0,0,1-.25.25H4.75a.25.25,0,0,1-.25-.25v-2A.25.25,0,0,1,4.75,10h4.5a.25.25,0,0,1,.25.25ZM11.5,8a.5.5,0,0,1-.5.5H3a.5.5,0,0,1,0-1h8A.5.5,0,0,1,11.5,8Z"/></g></svg>