<?xml version="1.0" encoding="utf-8"?><svg version="1.1" id="Ebene_1" xmlns="http://www.w3.org/2000/svg" xmlns:xlink="http://www.w3.org/1999/xlink" x="0px" y="0px" viewBox="0 0 48 48" style="enable-background:new 0 0 48 48" xml:space="preserve"><path class="st0" d="M24,0c-0.7,0-1.4,0.2-1.9,0.6c-0.6,0.4-1,0.9-1.3,1.5l-5.4,11.2c-0.1,0.1-0.2,0.2-0.3,0.3c-0.1,0.1-0.2,0.1-0.4,0.1L3.1,15.5c-0.7,0.1-1.3,0.4-1.8,0.8c-0.5,0.4-0.9,1-1.1,1.6c-0.2,0.7-0.3,1.4-0.1,2c0.2,0.7,0.5,1.3,1,1.8l8.6,9.1c0.1,0.1,0.2,0.2,0.2,0.4c0,0.1,0,0.3,0,0.4l-2,12.2c-0.1,0.7,0,1.4,0.3,2c0.3,0.6,0.7,1.1,1.3,1.5c0.5,0.4,1.2,0.6,1.8,0.7c0.7,0,1.3-0.1,1.9-0.5c13.4-7.4,12.6-6.5,12.6-7.7V1.7c0-0.2,0-0.5-0.1-0.7c-0.1-0.2-0.2-0.4-0.4-0.6c-0.2-0.2-0.4-0.3-0.6-0.4C24.5,0,24.2,0,24,0z"/><path class="st0" d="M46.7,21.7c0.6-0.5,1-1.1,1.2-1.8c0.2-0.7,0.2-1.5,0-2.2c-0.2-0.7-0.6-1.3-1.2-1.8c-0.6-0.4-1.2-0.7-1.9-0.7L33,13.5c-0.1,0-0.3-0.1-0.4-0.2c-0.1-0.1-0.2-0.2-0.2-0.3l-5.2-11c-0.3-0.6-0.8-1.1-1.4-1.4C25.3,0.2,24.6,0,24,0s-1.3,0.2-1.8,0.5c-0.6,0.3-1,0.8-1.4,1.4l-5.3,11.3c-0.1,0.1-0.2,0.2-0.3,0.3c-0.1,0.1-0.2,0.1-0.4,0.2L3.3,15.3c-0.7,0-1.4,0.3-1.9,0.7c-0.6,0.4-1,1.1-1.2,1.8c-0.2,0.7-0.2,1.5,0,2.2c0.2,0.7,0.6,1.3,1.2,1.8l8.4,8.8c0.1,0.1,0.2,0.2,0.2,0.4c0,0.1,0,0.3,0,0.4L8,43.5c-0.2,0.7-0.2,1.5,0.1,2.1s0.7,1.3,1.2,1.7c0.6,0.4,1.2,0.7,1.9,0.7c0.7,0,1.4-0.2,2-0.6l10.5-5.6c0.3-0.1,0.5-0.1,0.8,0l10.4,5.8c0.6,0.3,1.2,0.5,1.9,0.4c0.7-0.1,1.3-0.3,1.8-0.7c0.5-0.4,1-0.9,1.2-1.6c0.3-0.6,0.3-1.3,0.2-2l-1.9-12.6c0-0.1,0-0.3,0-0.4c0-0.1,0.1-0.3,0.2-0.4L46.7,21.7z"/></svg>