<svg xmlns="http://www.w3.org/2000/svg" viewBox="0 0 48 48"><g transform="matrix(3.4285714285714284,0,0,3.4285714285714284,0,0)"><path d="M13.92,4.91,12.09,1.24a2.26,2.26,0,0,0-2-1.24H3.93a2.26,2.26,0,0,0-2,1.24L.08,4.91A.81.81,0,0,0,0,5.25v6.5A2.25,2.25,0,0,0,2.25,14h9.5A2.25,2.25,0,0,0,14,11.75V5.25A.81.81,0,0,0,13.92,4.91Zm-2.08-.53a.22.22,0,0,1-.21.12H2.37a.22.22,0,0,1-.21-.12.26.26,0,0,1,0-.24L3.26,1.91a.74.74,0,0,1,.67-.41h6.14a.74.74,0,0,1,.67.41l1.12,2.23A.26.26,0,0,1,11.84,4.38ZM5.25,9.62a.62.62,0,0,1-.44-.18.61.61,0,0,1,0-.88L6.56,6.81a.61.61,0,0,1,.88,0L9.19,8.56a.61.61,0,0,1,0,.88.62.62,0,0,1-.44.18H7.88a.26.26,0,0,0-.26.26v1.87a.62.62,0,1,1-1.24,0V9.87a.26.26,0,0,0-.25-.25Z"/></g></svg>