<?xml version="1.0" encoding="utf-8"?>
<!-- Generator: Adobe Illustrator 22.0.1, SVG Export Plug-In . SVG Version: 6.00 Build 0)  -->
<svg version="1.1" id="Ebene_1" xmlns="http://www.w3.org/2000/svg" xmlns:xlink="http://www.w3.org/1999/xlink" x="0px" y="0px"
	 viewBox="0 0 30 30" style="enable-background:new 0 0 30 30;" xml:space="preserve">
<g>
	<path d="M22,6.5H9C8.7,6.5,8.5,6.7,8.5,7v17c0,0.3,0.2,0.5,0.5,0.5h7c0,0,0,0,0,0c0,0,0,0,0,0c0.2,0,0.4-0.1,0.4-0.3
		l5.9-5.8c0.1-0.1,0.1-0.2,0.1-0.4V7C22.5,6.7,22.3,6.5,22,6.5z M9.5,7.5h12v10H16c-0.3,0-0.5,0.2-0.5,0.5v5.5h-6V7.5z M20.8,18.5
		l-4.3,4.3v-4.3H20.8z"/>
	<path d="M14,14 14,12 16,12 16,11 14,11 14,9 13,9 13,11 11,11 11,12 13,12 13,14z"/>
</g>
</svg>
