<?xml version="1.0" encoding="utf-8"?>
<!-- Generator: Adobe Illustrator 22.0.1, SVG Export Plug-In . SVG Version: 6.00 Build 0)  -->
<svg version="1.1" id="Ebene_1" xmlns="http://www.w3.org/2000/svg" xmlns:xlink="http://www.w3.org/1999/xlink" x="0px" y="0px"
	 viewBox="0 0 30 30" style="enable-background:new 0 0 30 30;" xml:space="preserve">
<path d="M23,8.5H7c-0.8,0-1.5,0.7-1.5,1.5v10c0,0.8,0.7,1.5,1.5,1.5h16c0.8,0,1.5-0.7,1.5-1.5V10
	C24.5,9.2,23.8,8.5,23,8.5z M7,9.5h16c0.2,0,0.4,0.1,0.5,0.3L15,17.3L6.5,9.8C6.6,9.6,6.8,9.5,7,9.5z M23,20.5H7
	c-0.3,0-0.5-0.2-0.5-0.5v-8.9l8.2,7.3c0.1,0.1,0.2,0.1,0.3,0.1s0.2,0,0.3-0.1l8.2-7.3V20C23.5,20.3,23.3,20.5,23,20.5z"/>
</svg>
