<?xml version="1.0" encoding="utf-8"?>
<!-- Generator: Adobe Illustrator 22.0.1, SVG Export Plug-In . SVG Version: 6.00 Build 0)  -->
<svg version="1.1" id="Ebene_1" xmlns="http://www.w3.org/2000/svg" xmlns:xlink="http://www.w3.org/1999/xlink" x="0px" y="0px"
	 viewBox="0 0 30 30" style="enable-background:new 0 0 30 30;" xml:space="preserve">
<g id="icon-download">
	<g id="Stroke-1">
		<path d="M15,19.5c-0.1,0-0.2,0-0.3-0.1l-5-4.7c-0.1-0.1-0.2-0.4-0.1-0.5c0.1-0.2,0.3-0.3,0.5-0.3h2V7
			c0-0.3,0.2-0.5,0.5-0.5h5C17.8,6.5,18,6.7,18,7v6.8l2,0c0.2,0,0.4,0.1,0.5,0.3s0,0.4-0.1,0.5l-5,4.7C15.2,19.5,15.1,19.5,15,19.5z
			 M11.3,14.8l3.7,3.5l3.7-3.5l-1.2,0c-0.3,0-0.5-0.2-0.5-0.5V7.5h-4v6.8c0,0.3-0.2,0.5-0.5,0.5H11.3z"/>
	</g>
	<g id="Stroke-3">
		<path d="M24,23.5H6c-0.3,0-0.5-0.2-0.5-0.5v-3c0-0.3,0.2-0.5,0.5-0.5s0.5,0.2,0.5,0.5v2.5h17V20
			c0-0.3,0.2-0.5,0.5-0.5s0.5,0.2,0.5,0.5v3C24.5,23.3,24.3,23.5,24,23.5z"/>
	</g>
</g>
</svg>
