<?xml version="1.0" encoding="utf-8"?>
<!-- Generator: Adobe Illustrator 22.0.1, SVG Export Plug-In . SVG Version: 6.00 Build 0)  -->
<svg version="1.1" id="Ebene_1" xmlns="http://www.w3.org/2000/svg" xmlns:xlink="http://www.w3.org/1999/xlink" x="0px" y="0px"
	 viewBox="0 0 30 30" style="enable-background:new 0 0 30 30;" xml:space="preserve">
<path d="M22.7,6.6c-0.2-0.2-0.4-0.2-0.6-0.1l-15.3,8c-0.2,0.1-0.3,0.3-0.3,0.6c0.1,0.2,0.3,0.4,0.5,0.4h6.8v6.8
	c0,0.2,0.2,0.4,0.4,0.5c0,0,0.1,0,0.1,0c0.2,0,0.4-0.1,0.4-0.3l8-15.3C22.9,7,22.8,6.8,22.7,6.6z M14.8,20.3V15
	c0-0.3-0.2-0.5-0.5-0.5H9l12.1-6.3L14.8,20.3z"/>
</svg>
