<?xml version="1.0" encoding="utf-8"?>
<!-- Generator: Adobe Illustrator 22.0.1, SVG Export Plug-In . SVG Version: 6.00 Build 0)  -->
<svg version="1.1" id="Ebene_1" xmlns="http://www.w3.org/2000/svg" xmlns:xlink="http://www.w3.org/1999/xlink" x="0px" y="0px"
	 viewBox="0 0 30 30" style="enable-background:new 0 0 30 30;" xml:space="preserve">
<path  d="M13,13.5c-0.3,0-0.5,0.2-0.5,0.5v6c0,0.3,0.2,0.5,0.5,0.5s0.5-0.2,0.5-0.5v-6C13.5,13.7,13.3,13.5,13,13.5z"/>
<path  d="M15,13.5c-0.3,0-0.5,0.2-0.5,0.5v6c0,0.3,0.2,0.5,0.5,0.5s0.5-0.2,0.5-0.5v-6C15.5,13.7,15.3,13.5,15,13.5z"/>
<path  d="M17,13.5c-0.3,0-0.5,0.2-0.5,0.5v6c0,0.3,0.2,0.5,0.5,0.5s0.5-0.2,0.5-0.5v-6C17.5,13.7,17.3,13.5,17,13.5z"/>
<path  d="M23,9.5h-3h-1.5V8c0-0.3-0.2-0.5-0.5-0.5h-6c-0.3,0-0.5,0.2-0.5,0.5v1.5H10H7c-0.3,0-0.5,0.2-0.5,0.5
	s0.2,0.5,0.5,0.5h2.5V23c0,0.3,0.2,0.5,0.5,0.5h10c0.3,0,0.5-0.2,0.5-0.5V10.5H23c0.3,0,0.5-0.2,0.5-0.5S23.3,9.5,23,9.5z M12.5,8.5
	h5v1h-5V8.5z M19.5,22.5h-9v-12h9V22.5z"/>
</svg>
