<?xml version="1.0" encoding="utf-8"?>
<!-- Generator: Adobe Illustrator 22.0.1, SVG Export Plug-In . SVG Version: 6.00 Build 0)  -->
<svg version="1.1" id="Ebene_1" xmlns="http://www.w3.org/2000/svg" xmlns:xlink="http://www.w3.org/1999/xlink" x="0px" y="0px"
	 viewBox="0 0 30 30" style="enable-background:new 0 0 30 30;" xml:space="preserve">
<path d="M13,15.5c0.3,0,0.5-0.2,0.5-0.5c0-0.8,0.7-1.5,1.5-1.5c0.3,0,0.5-0.2,0.5-0.5s-0.2-0.5-0.5-0.5
	c-1.4,0-2.5,1.1-2.5,2.5C12.5,15.3,12.7,15.5,13,15.5z M24.5,16.1C24.5,16.1,24.5,16,24.5,16.1c0-0.1,0-0.2,0-0.2v-0.1v-0.1l0,0
	c-2.7-3.3-5.6-5-8.6-5.2c-3.2-0.2-6.7,1.6-10.1,5.1l0,0l0,0l0,0c0,0,0,0.1-0.1,0.1c0,0,0,0.1-0.1,0.1v0.1V16v0.1v0.1c0,0,0,0,0,0.1
	c0,0,0,0.1,0.1,0.1c3.4,3.4,6.6,5.1,9.8,5.1c0.1,0,0.3,0,0.4,0c3-0.1,5.9-1.9,8.6-5.2l0,0C24.4,16.2,24.4,16.2,24.5,16.1
	C24.5,16.2,24.5,16.1,24.5,16.1z M15.2,12c1.8,0,3.2,1.5,3.2,3.2s-1.5,3.2-3.2,3.2S12,17,12,15.2S13.5,12,15.2,12z M15.8,20.5
	c-2.8,0.2-5.9-1.4-9-4.5c2-1.9,3.9-3.3,5.8-3.9c-1,0.7-1.6,1.9-1.6,3.1c0,2.3,1.9,4.2,4.2,4.2s4.2-1.9,4.2-4.2
	c0-1.4-0.7-2.6-1.7-3.3c1.9,0.6,3.7,2,5.5,4.1C20.9,18.9,18.4,20.4,15.8,20.5z"/>
</svg>
