<?xml version="1.0" encoding="utf-8"?>
<!-- Generator: Adobe Illustrator 22.0.1, SVG Export Plug-In . SVG Version: 6.00 Build 0)  -->
<svg version="1.1" id="Ebene_1" xmlns="http://www.w3.org/2000/svg" xmlns:xlink="http://www.w3.org/1999/xlink" x="0px" y="0px"
	 viewBox="0 0 30 30" style="enable-background:new 0 0 30 30;" xml:space="preserve">
<path d="M22.4,11.6l-5.9-5.8c-0.1-0.2-0.2-0.3-0.4-0.3c0,0,0,0,0,0c0,0,0,0,0,0H9C8.7,5.5,8.5,5.7,8.5,6v17
	c0,0.3,0.2,0.5,0.5,0.5h13c0.3,0,0.5-0.2,0.5-0.5V11.9C22.5,11.8,22.4,11.7,22.4,11.6z M16.5,7.2l4.3,4.3h-4.3V7.2z M9.5,22.5v-16h6
	V12c0,0.3,0.2,0.5,0.5,0.5h5.5v10H9.5z"/>
</svg>
