<?xml version="1.0" encoding="utf-8"?>
<!-- Generator: Adobe Illustrator 22.0.1, SVG Export Plug-In . SVG Version: 6.00 Build 0)  -->
<svg version="1.1" id="Ebene_1" xmlns="http://www.w3.org/2000/svg" xmlns:xlink="http://www.w3.org/1999/xlink" x="0px" y="0px"
	 viewBox="0 0 30 30" style="enable-background:new 0 0 30 30;" xml:space="preserve">
<g id="Group-2" transform="translate(11.000000, 6.000000)">
	<path d="M9,4.5C9,2,7,0,4.5,0S0,2,0,4.5c0,2.3,1.8,4.2,4,4.4v8.6C4,17.8,4.2,18,4.5,18S5,17.8,5,17.5V8.9
		C7.2,8.7,9,6.8,9,4.5z M4.5,8C2.6,8,1,6.4,1,4.5S2.6,1,4.5,1S8,2.6,8,4.5S6.4,8,4.5,8z"/>
	<g id="Stroke-5">
		<path d="M6.5,5C6.2,5,6,4.8,6,4.5C6,3.7,5.3,3,4.5,3C4.2,3,4,2.8,4,2.5S4.2,2,4.5,2C5.9,2,7,3.1,7,4.5
			C7,4.8,6.8,5,6.5,5z"/>
	</g>
</g>
</svg>
