<?xml version="1.0" encoding="utf-8"?>
<!-- Generator: Adobe Illustrator 22.0.1, SVG Export Plug-In . SVG Version: 6.00 Build 0)  -->
<svg version="1.1" id="Ebene_1" xmlns="http://www.w3.org/2000/svg" xmlns:xlink="http://www.w3.org/1999/xlink" x="0px" y="0px"
	 viewBox="0 0 30 30" style="enable-background:new 0 0 30 30;" xml:space="preserve">
<path d="M15,7c1.1,0,2,0.9,2,2s-0.9,2-2,2s-2-0.9-2-2S13.9,7,15,7z"/>
<path d="M15,13c1.1,0,2,0.9,2,2s-0.9,2-2,2s-2-0.9-2-2S13.9,13,15,13z"/>
<path d="M15,19c1.1,0,2,0.9,2,2s-0.9,2-2,2s-2-0.9-2-2S13.9,19,15,19z"/>
</svg>
