<?xml version="1.0" encoding="utf-8"?>
<!-- Generator: Adobe Illustrator 22.0.1, SVG Export Plug-In . SVG Version: 6.00 Build 0)  -->
<svg version="1.1" id="Ebene_1" xmlns="http://www.w3.org/2000/svg" xmlns:xlink="http://www.w3.org/1999/xlink" x="0px" y="0px"
	 viewBox="0 0 30 30" style="enable-background:new 0 0 30 30;" xml:space="preserve">
<g id="Assets">
	<g id="icon-date">
		<g id="Group-2" transform="translate(5.000000, 4.000000)">
			<path d="M20.6,1.7h-3V0.4c0-0.3-0.2-0.5-0.5-0.5h-2.6c-0.3,0-0.5,0.2-0.5,0.5v1.2H7.1V0.4c0-0.3-0.2-0.5-0.5-0.5H3.9
				c-0.3,0-0.5,0.2-0.5,0.5v1.2h-3c-0.3,0-0.5,0.2-0.5,0.5v18.4c0,0.3,0.2,0.5,0.5,0.5h20.1c0.3,0,0.5-0.2,0.5-0.5V2.2
				C21.1,1.9,20.8,1.7,20.6,1.7z M14.9,0.9h1.6v1.2v1.2h-1.6V2.2V0.9z M4.4,0.9h1.6v1.2v1.2H4.4V2.2V0.9z M3.4,2.7v1.2
				c0,0.3,0.2,0.5,0.5,0.5h2.6c0.3,0,0.5-0.2,0.5-0.5V2.7h6.9v1.2c0,0.3,0.2,0.5,0.5,0.5h2.6c0.3,0,0.5-0.2,0.5-0.5V2.7h2.5v3.4H0.9
				V2.7H3.4z M0.9,20.1v-13h19.1v13H0.9z"/>
			<path d="M10.1,16.6H8.8v-6.5c0-0.2-0.1-0.4-0.3-0.5C8.3,9.5,8.1,9.6,8,9.7l-1.8,1.8C6,11.7,6,12,6.2,12.2
				s0.5,0.2,0.7,0l0.9-0.9v5.3H6.6c-0.3,0-0.5,0.2-0.5,0.5s0.2,0.5,0.5,0.5h3.5c0.3,0,0.5-0.2,0.5-0.5S10.3,16.6,10.1,16.6z"/>
			<path d="M15.3,9.8c-0.1-0.1-0.2-0.2-0.4-0.2h-4.4c-0.3,0-0.5,0.2-0.5,0.5v0.9c0,0.3,0.2,0.5,0.5,0.5s0.5-0.2,0.5-0.5
				v-0.4h3.2l-0.9,2.5h-1.4c-0.3,0-0.5,0.2-0.5,0.5s0.2,0.5,0.5,0.5h1l-1.1,2.8c-0.1,0.3,0,0.5,0.3,0.6c0.1,0,0.1,0,0.2,0
				c0.2,0,0.4-0.1,0.5-0.3l1.2-3.2h0.5c0.3,0,0.5-0.2,0.5-0.5s-0.2-0.5-0.5-0.5h-0.2l1.1-2.8C15.4,10.1,15.4,9.9,15.3,9.8z"/>
		</g>
	</g>
</g>
</svg>
