<?xml version="1.0" encoding="utf-8"?>
<!-- Generator: Adobe Illustrator 22.0.1, SVG Export Plug-In . SVG Version: 6.00 Build 0)  -->
<svg version="1.1" id="Ebene_1" xmlns="http://www.w3.org/2000/svg" xmlns:xlink="http://www.w3.org/1999/xlink" x="0px" y="0px"
	 viewBox="0 0 30 30" style="enable-background:new 0 0 30 30;" xml:space="preserve">
<path d="M22,21.5H9c-0.3,0-0.5-0.2-0.5-0.5c0-0.1,0-1.3,0.6-2.5C9.6,17.6,11,17,13,16.3l0.6-0.2V15
	c-0.3-0.3-0.7-0.8-0.8-1.7c-0.1-0.1-0.2-0.3-0.3-0.6c-0.1-0.4-0.1-0.9,0.2-1.3c-0.2-0.7-0.6-1.9,0-2.6c0.1-0.2,0.4-0.4,0.8-0.5
	c0.4-0.6,1.6-0.9,2.5-0.8c1.2,0,2.6,0.4,2.8,1.5c0.2,0.9-0.2,1.9-0.5,2.5c0,0,0,0,0,0c0.3,0.3,0.3,0.8,0.2,1.2
	c-0.1,0.3-0.2,0.5-0.3,0.6c-0.1,0.8-0.5,1.4-0.8,1.7v1.1l0.6,0.2c2,0.7,3.5,1.3,3.9,2.2c0.6,1.2,0.6,2.5,0.6,2.5
	C22.5,21.3,22.3,21.5,22,21.5z M9.5,20.5h11.9c-0.1-0.4-0.2-1-0.5-1.6c-0.3-0.6-1.8-1.1-3.4-1.7l-0.9-0.3c-0.2-0.1-0.3-0.3-0.3-0.5
	v-1.7c0-0.2,0.1-0.3,0.2-0.4c0,0,0.6-0.4,0.6-1.3c0-0.2,0.1-0.4,0.3-0.4c0-0.1,0.1-0.3,0-0.4c-0.2-0.1-0.3-0.3-0.3-0.5
	c0-0.1,0-0.3,0.2-0.5c0.2-0.4,0.5-1.3,0.4-1.9c-0.1-0.3-0.8-0.7-1.8-0.7c-1,0-1.7,0.3-1.7,0.4c-0.1,0.2-0.3,0.4-0.5,0.4
	c-0.3,0-0.3,0.1-0.3,0.1c-0.3,0.3,0.1,1.4,0.2,1.8c0.1,0.2,0.1,0.3,0.1,0.4c0,0.2-0.1,0.4-0.3,0.4c-0.1,0.2,0,0.4,0,0.5
	c0.2,0.1,0.3,0.3,0.3,0.4c0,0.8,0.6,1.3,0.6,1.3c0.1,0.1,0.2,0.2,0.2,0.4v1.7c0,0.2-0.1,0.4-0.3,0.5l-0.9,0.3
	c-1.6,0.6-3.1,1.1-3.4,1.7C9.7,19.5,9.6,20.1,9.5,20.5z"/>
</svg>
