<?xml version="1.0" encoding="utf-8"?>
<!-- Generator: Adobe Illustrator 22.0.1, SVG Export Plug-In . SVG Version: 6.00 Build 0)  -->
<svg version="1.1" id="Ebene_1" xmlns="http://www.w3.org/2000/svg" xmlns:xlink="http://www.w3.org/1999/xlink" x="0px" y="0px"
	 viewBox="0 0 30 30" style="enable-background:new 0 0 30 30;" xml:space="preserve">
<path d="M22.4,21l-4.8-4.8c0.6-0.9,1-2,1-3.2c0-3.1-2.5-5.7-5.7-5.7c-3.1,0-5.7,2.5-5.7,5.7c0,3.1,2.5,5.7,5.7,5.7
	c1.2,0,2.3-0.4,3.2-1l4.8,4.8c0.2,0.2,0.5,0.3,0.7,0.3s0.5-0.1,0.7-0.3C22.8,22,22.8,21.4,22.4,21z M9.3,13c0-2,1.6-3.7,3.7-3.7
	c2,0,3.7,1.6,3.7,3.7c0,2-1.6,3.7-3.7,3.7C10.9,16.6,9.3,15,9.3,13z"/>
</svg>
