<?xml version="1.0" encoding="utf-8"?>
<!-- Generator: Adobe Illustrator 22.0.1, SVG Export Plug-In . SVG Version: 6.00 Build 0)  -->
<svg version="1.1" id="Ebene_1" xmlns="http://www.w3.org/2000/svg" xmlns:xlink="http://www.w3.org/1999/xlink" x="0px" y="0px"
	 viewBox="0 0 30 30" style="enable-background:new 0 0 30 30;" xml:space="preserve">
<path d="M24,23.5h-4.3c-0.3,0-0.5-0.2-0.5-0.5v-6c0-0.7-0.5-1.2-1.2-1.2s-1.2,0.5-1.2,1.2v6c0,0.3-0.2,0.5-0.5,0.5H12
	c-0.1,0-0.3-0.1-0.4-0.1c-0.1-0.1-0.1-0.2-0.1-0.4c0-3.5,0-10.4,0-11.1c0-0.1,0-0.3,0.1-0.4c0.1-0.1,0.2-0.2,0.4-0.2h4.3
	c0.3,0,0.5,0.2,0.5,0.5v0.3c0.6-0.4,1.6-0.8,2.9-0.8c3,0,4.8,2.3,4.8,5.9V23C24.5,23.3,24.3,23.5,24,23.5z M20.2,22.5h3.3v-5.2
	c0-3.1-1.4-4.9-3.8-4.9c-1.8,0-3,1.1-3,1.1c-0.1,0.1-0.4,0.2-0.5,0.1c-0.2-0.1-0.3-0.3-0.3-0.5v-0.8h-3.3c0,2,0,8.3,0,10.1h3.3V17
	c0-1.2,1-2.2,2.2-2.2s2.2,1,2.2,2.2V22.5z M10.3,23.5H6c-0.3,0-0.5-0.2-0.5-0.5V11.9c0-0.3,0.2-0.5,0.5-0.5h4.3
	c0.3,0,0.5,0.2,0.5,0.5V23C10.8,23.3,10.6,23.5,10.3,23.5z M6.5,22.5h3.3V12.4H6.5V22.5z M8.2,10.7L8.2,10.7c-1.5,0-2.7-1.2-2.7-2.6
	c0-1.5,1.2-2.6,2.7-2.6c1.5,0,2.6,1.1,2.7,2.6C10.8,9.6,9.7,10.7,8.2,10.7z M8.2,6.5c-1,0-1.7,0.6-1.7,1.6c0,0.8,0.6,1.6,1.6,1.6h0
	c1.1,0,1.7-0.8,1.7-1.6C9.8,7.3,9.3,6.5,8.2,6.5z"/>
</svg>
