<?xml version="1.0" encoding="utf-8"?>
<!-- Generator: Adobe Illustrator 22.0.1, SVG Export Plug-In . SVG Version: 6.00 Build 0)  -->
<svg version="1.1" id="Ebene_1" xmlns="http://www.w3.org/2000/svg" xmlns:xlink="http://www.w3.org/1999/xlink" x="0px" y="0px"
	 viewBox="0 0 30 30" style="enable-background:new 0 0 30 30;" xml:space="preserve">
<path d="M22.6,10l-2.8-2.8c-0.2-0.2-0.5-0.2-0.7,0L17.3,9c0,0,0,0,0,0s0,0,0,0l-7,7c0,0-0.1,0.1-0.1,0.2L8,21.1
	c-0.1,0.2,0,0.4,0.1,0.6c0.1,0.1,0.2,0.1,0.4,0.1c0.1,0,0.1,0,0.2,0l4.9-2.1c0.1,0,0.1-0.1,0.2-0.1l8.8-8.8
	C22.8,10.5,22.8,10.2,22.6,10z M13.4,18.5l-2.1-2.1l6.3-6.3l2.1,2.1L13.4,18.5z M10.8,17.2l1.8,1.8l-3.1,1.3L10.8,17.2z M20.5,11.5
	l-2.1-2.1l1.1-1.1l2.1,2.1L20.5,11.5z"/>
</svg>
