<svg width="1375" height="706" viewBox="0 0 1375 706" fill="none" xmlns="http://www.w3.org/2000/svg">
<g clip-path="url(#clip0_952_61)">
<path d="M37.11 82.29L39.84 78.622H37.642L36.004 80.82L34.352 78.622H32.056L34.744 82.192L31.86 86H34.058L35.85 83.662L37.614 86H39.896L37.11 82.29ZM44.0486 76.27H41.9766V77.656H40.4366V79.364H41.9766V84.278H40.4086V86H45.2106V84.278H44.0486V76.27ZM52.3655 76.27H49.9575L46.9615 80.288C46.5415 80.848 46.0515 81.66 46.0515 82.766C46.0515 84.81 47.6895 86.182 49.8035 86.182C51.9035 86.182 53.5275 84.824 53.5275 82.752C53.5275 80.764 52.0155 79.504 49.9435 79.462L52.3655 76.27ZM49.8035 84.404C48.8795 84.404 48.1655 83.704 48.1655 82.766C48.1655 81.814 48.8795 81.128 49.8035 81.128C50.7275 81.128 51.4135 81.814 51.4135 82.766C51.4135 83.704 50.7275 84.404 49.8035 84.404Z" fill="black"/>
<path d="M36.032 93.912V93.096H35.612C34.16 93.096 33.332 93.96 33.332 95.412V95.676H32.18V96.552H33.332V102H34.352V96.552H36.008V95.676H34.352V95.316C34.352 94.416 34.844 93.912 35.648 93.912H36.032ZM41.8543 96.9C41.3743 96.084 40.5463 95.604 39.4783 95.604C37.6903 95.604 36.3703 96.96 36.3703 98.832C36.3703 100.728 37.6783 102.132 39.4783 102.132C40.5463 102.132 41.3743 101.628 41.8543 100.788V102H42.8023V95.676H41.8543V96.9ZM39.5983 101.232C38.3263 101.232 37.3783 100.212 37.3783 98.832C37.3783 97.476 38.3263 96.444 39.5983 96.444C40.9183 96.444 41.8183 97.428 41.8183 98.832C41.8183 100.248 40.9063 101.232 39.5983 101.232ZM46.9122 100.992L44.8242 95.676H43.7562L46.3362 102H47.4882L50.0682 95.676H49.0002L46.9122 100.992ZM51.5201 94.5C51.9761 94.5 52.3361 94.176 52.3361 93.72C52.3361 93.264 51.9761 92.928 51.5201 92.928C51.0641 92.928 50.7161 93.264 50.7161 93.72C50.7161 94.176 51.0641 94.5 51.5201 94.5ZM52.0361 102V95.676H51.0161V102H52.0361ZM56.5791 102.132C58.1151 102.132 59.1591 101.208 59.4831 100.176L58.5711 99.804C58.3071 100.68 57.5751 101.22 56.6031 101.22C55.3191 101.22 54.3591 100.248 54.3591 98.844C54.3591 97.44 55.3191 96.468 56.5911 96.468C57.5511 96.468 58.2711 97.008 58.5351 97.884L59.4471 97.524C59.1231 96.468 58.0911 95.556 56.5671 95.556C54.6951 95.556 53.3271 96.972 53.3271 98.844C53.3271 100.74 54.7071 102.132 56.5791 102.132ZM63.5057 102.132C65.4257 102.132 66.7937 100.728 66.7937 98.844C66.7937 96.948 65.4257 95.544 63.5057 95.544C61.5857 95.544 60.2177 96.948 60.2177 98.844C60.2177 100.728 61.5857 102.132 63.5057 102.132ZM63.5177 101.22C62.1737 101.22 61.2497 100.224 61.2497 98.844C61.2497 97.452 62.1737 96.456 63.5177 96.456C64.8617 96.456 65.7737 97.452 65.7737 98.844C65.7737 100.224 64.8497 101.22 63.5177 101.22ZM71.2577 95.544C70.2497 95.544 69.4817 96 69.0737 96.6V95.676H68.1137V102H69.1337V98.088C69.1457 97.236 69.9137 96.456 70.9937 96.456C72.1217 96.444 72.8057 97.14 72.8057 98.316V102H73.8257V98.136C73.8257 96.564 72.8777 95.544 71.2577 95.544Z" fill="black"/>
<rect width="16" height="16" transform="translate(32 122)" fill="#000D6E"/>
<path d="M44.3864 129.712L40.2584 125.613C40.2224 125.577 40.1796 125.549 40.1325 125.529C40.0854 125.51 40.035 125.5 39.984 125.5C39.933 125.5 39.8825 125.51 39.8354 125.529C39.7883 125.549 39.7455 125.577 39.7095 125.613L35.5823 129.712C35.5096 129.784 35.4688 129.882 35.4688 129.984C35.4688 130.087 35.5096 130.185 35.5823 130.257L39.7103 134.356C39.7463 134.392 39.7891 134.42 39.8362 134.439C39.8833 134.459 39.9338 134.469 39.9848 134.469C40.0358 134.469 40.0862 134.459 40.1333 134.439C40.1804 134.42 40.2232 134.392 40.2592 134.356L42.5492 132.081L41.1548 130.697L39.9841 131.86L38.0956 129.984L39.9841 128.109L43.2666 131.369L44.3859 130.257C44.4221 130.222 44.4507 130.179 44.4703 130.132C44.4899 130.086 44.5 130.035 44.5 129.985C44.5 129.934 44.49 129.884 44.4705 129.837C44.4511 129.79 44.4225 129.748 44.3864 129.712V129.712Z" fill="white"/>
<path d="M184.11 82.29L186.84 78.622H184.642L183.004 80.82L181.352 78.622H179.056L181.744 82.192L178.86 86H181.058L182.85 83.662L184.614 86H186.896L184.11 82.29ZM194.003 77.894V76.27H187.549V77.894H191.665L189.215 80.162V81.534H190.811C191.679 81.534 192.365 82.066 192.365 82.948C192.365 83.788 191.735 84.404 190.769 84.404C189.845 84.404 189.173 83.914 188.949 83.158L187.045 83.914C187.451 85.272 188.907 86.182 190.825 86.182C192.981 86.182 194.507 84.852 194.507 83.088C194.507 81.478 193.331 80.274 191.651 80.176L194.003 77.894ZM200.511 82.374C201.743 81.24 202.443 80.232 202.443 78.944C202.443 77.222 201.113 76.102 199.027 76.102C197.249 76.102 195.835 77.096 195.471 78.608L197.431 79.238C197.655 78.328 198.257 77.866 199.013 77.866C199.811 77.866 200.329 78.342 200.329 79.042C200.329 79.854 199.685 80.666 198.887 81.394L195.485 84.628V86H202.611V84.278H198.509L200.511 82.374Z" fill="black"/>
<path d="M183.032 93.912V93.096H182.612C181.16 93.096 180.332 93.96 180.332 95.412V95.676H179.18V96.552H180.332V102H181.352V96.552H183.008V95.676H181.352V95.316C181.352 94.416 181.844 93.912 182.648 93.912H183.032ZM188.854 96.9C188.374 96.084 187.546 95.604 186.478 95.604C184.69 95.604 183.37 96.96 183.37 98.832C183.37 100.728 184.678 102.132 186.478 102.132C187.546 102.132 188.374 101.628 188.854 100.788V102H189.802V95.676H188.854V96.9ZM186.598 101.232C185.326 101.232 184.378 100.212 184.378 98.832C184.378 97.476 185.326 96.444 186.598 96.444C187.918 96.444 188.818 97.428 188.818 98.832C188.818 100.248 187.906 101.232 186.598 101.232ZM193.912 100.992L191.824 95.676H190.756L193.336 102H194.488L197.068 95.676H196L193.912 100.992ZM198.52 94.5C198.976 94.5 199.336 94.176 199.336 93.72C199.336 93.264 198.976 92.928 198.52 92.928C198.064 92.928 197.716 93.264 197.716 93.72C197.716 94.176 198.064 94.5 198.52 94.5ZM199.036 102V95.676H198.016V102H199.036ZM203.579 102.132C205.115 102.132 206.159 101.208 206.483 100.176L205.571 99.804C205.307 100.68 204.575 101.22 203.603 101.22C202.319 101.22 201.359 100.248 201.359 98.844C201.359 97.44 202.319 96.468 203.591 96.468C204.551 96.468 205.271 97.008 205.535 97.884L206.447 97.524C206.123 96.468 205.091 95.556 203.567 95.556C201.695 95.556 200.327 96.972 200.327 98.844C200.327 100.74 201.707 102.132 203.579 102.132ZM210.506 102.132C212.426 102.132 213.794 100.728 213.794 98.844C213.794 96.948 212.426 95.544 210.506 95.544C208.586 95.544 207.218 96.948 207.218 98.844C207.218 100.728 208.586 102.132 210.506 102.132ZM210.518 101.22C209.174 101.22 208.25 100.224 208.25 98.844C208.25 97.452 209.174 96.456 210.518 96.456C211.862 96.456 212.774 97.452 212.774 98.844C212.774 100.224 211.85 101.22 210.518 101.22ZM218.258 95.544C217.25 95.544 216.482 96 216.074 96.6V95.676H215.114V102H216.134V98.088C216.146 97.236 216.914 96.456 217.994 96.456C219.122 96.444 219.806 97.14 219.806 98.316V102H220.826V98.136C220.826 96.564 219.878 95.544 218.258 95.544Z" fill="black"/>
<rect width="32" height="32" transform="translate(179 122)" fill="#000D6E"/>
<path d="M203.773 137.424L195.517 129.226C195.445 129.154 195.359 129.097 195.265 129.059C195.171 129.02 195.07 129 194.968 129C194.866 129 194.765 129.02 194.671 129.059C194.577 129.097 194.491 129.154 194.419 129.226L186.165 137.424C186.019 137.568 185.938 137.764 185.938 137.969C185.938 138.173 186.019 138.369 186.165 138.514L194.421 146.712C194.493 146.783 194.578 146.84 194.672 146.879C194.767 146.918 194.868 146.938 194.97 146.938C195.072 146.938 195.172 146.918 195.267 146.879C195.361 146.84 195.446 146.783 195.518 146.712L200.098 142.162L197.31 139.394L194.968 141.719L191.191 137.969L194.968 134.218L201.533 140.738L203.772 138.515C203.844 138.443 203.901 138.358 203.941 138.265C203.98 138.171 204 138.071 204 137.969C204 137.868 203.98 137.768 203.941 137.674C203.902 137.581 203.845 137.495 203.773 137.424V137.424Z" fill="white"/>
<path d="M336.11 82.29L338.84 78.622H336.642L335.004 80.82L333.352 78.622H331.056L333.744 82.192L330.86 86H333.058L334.85 83.662L336.614 86H338.896L336.11 82.29ZM343.049 76.27H340.977V77.656H339.437V79.364H340.977V84.278H339.409V86H344.211V84.278H343.049V76.27ZM350.498 80.876C351.366 80.512 351.968 79.77 351.968 78.692C351.968 77.222 350.82 76.102 348.762 76.102C346.676 76.102 345.542 77.236 345.542 78.678C345.542 79.756 346.144 80.498 346.942 80.862C345.864 81.254 345.136 82.178 345.136 83.354C345.136 85.048 346.662 86.182 348.762 86.182C350.848 86.182 352.374 85.048 352.374 83.354C352.374 82.192 351.604 81.268 350.498 80.876ZM348.762 77.782C349.504 77.782 350.008 78.258 350.008 78.958C350.008 79.644 349.49 80.148 348.762 80.148C348.02 80.148 347.502 79.644 347.502 78.958C347.502 78.258 348.006 77.782 348.762 77.782ZM348.762 84.502C347.81 84.502 347.208 83.914 347.208 83.102C347.208 82.29 347.824 81.688 348.762 81.688C349.686 81.688 350.302 82.29 350.302 83.102C350.302 83.914 349.7 84.502 348.762 84.502ZM357.817 86.182C360.449 86.182 362.185 84.25 362.185 81.114C362.185 77.922 360.477 76.102 357.817 76.102C355.171 76.102 353.463 77.922 353.463 81.114C353.463 84.25 355.171 86.182 357.817 86.182ZM357.817 84.208C356.473 84.208 355.577 83.13 355.577 81.142C355.577 79.154 356.473 78.076 357.817 78.076C359.161 78.076 360.071 79.154 360.071 81.142C360.071 83.13 359.161 84.208 357.817 84.208Z" fill="black"/>
<path d="M336.952 96.9C336.472 96.084 335.644 95.604 334.576 95.604C332.788 95.604 331.468 96.96 331.468 98.832C331.468 100.728 332.776 102.132 334.576 102.132C335.644 102.132 336.472 101.628 336.952 100.788V102H337.9V95.676H336.952V96.9ZM334.696 101.232C333.424 101.232 332.476 100.212 332.476 98.832C332.476 97.476 333.424 96.444 334.696 96.444C336.016 96.444 336.916 97.428 336.916 98.832C336.916 100.248 336.004 101.232 334.696 101.232ZM342.946 95.544C341.902 95.544 341.062 96.036 340.558 96.84V95.676H339.61V104.148H340.63V100.968C341.134 101.7 341.938 102.132 342.922 102.132C344.722 102.132 346.042 100.728 346.042 98.844C346.042 96.96 344.746 95.544 342.946 95.544ZM342.814 101.232C341.494 101.232 340.582 100.248 340.582 98.844C340.582 97.44 341.506 96.444 342.814 96.444C344.086 96.444 345.022 97.464 345.022 98.844C345.022 100.212 344.074 101.232 342.814 101.232ZM350.704 95.544C349.66 95.544 348.82 96.036 348.316 96.84V95.676H347.368V104.148H348.388V100.968C348.892 101.7 349.696 102.132 350.68 102.132C352.48 102.132 353.8 100.728 353.8 98.844C353.8 96.96 352.504 95.544 350.704 95.544ZM350.572 101.232C349.252 101.232 348.34 100.248 348.34 98.844C348.34 97.44 349.264 96.444 350.572 96.444C351.844 96.444 352.78 97.464 352.78 98.844C352.78 100.212 351.832 101.232 350.572 101.232ZM356.145 102V93.228H355.125V102H356.145ZM363.676 99.216C363.688 99.096 363.7 98.88 363.7 98.7C363.7 97.032 362.488 95.532 360.58 95.532C358.792 95.532 357.388 97.008 357.388 98.844C357.388 100.728 358.708 102.144 360.652 102.144C362.152 102.144 363.028 101.496 363.496 100.596L362.608 100.056C362.296 100.788 361.72 101.184 360.688 101.184C359.524 101.184 358.6 100.392 358.42 99.216H363.676ZM358.432 98.328C358.624 97.128 359.548 96.42 360.616 96.42C361.672 96.42 362.5 97.14 362.656 98.328H358.432ZM367.909 99.408V98.568H364.825V99.408H367.909ZM372.691 102V101.1H371.947C371.131 101.1 370.687 100.62 370.687 99.768V96.552H372.595V95.676H370.723V94.056H369.739V95.1C369.739 95.484 369.559 95.676 369.175 95.676H368.515V96.552H369.667V99.876C369.667 101.184 370.399 102 371.767 102H372.691ZM376.369 102.132C378.289 102.132 379.657 100.728 379.657 98.844C379.657 96.948 378.289 95.544 376.369 95.544C374.449 95.544 373.081 96.948 373.081 98.844C373.081 100.728 374.449 102.132 376.369 102.132ZM376.381 101.22C375.037 101.22 374.113 100.224 374.113 98.844C374.113 97.452 375.037 96.456 376.381 96.456C377.725 96.456 378.637 97.452 378.637 98.844C378.637 100.224 377.713 101.22 376.381 101.22ZM385.477 99.648C385.465 100.452 384.745 101.22 383.677 101.22C382.597 101.232 381.913 100.524 381.913 99.456V95.676H380.893V99.576C380.893 101.076 381.793 102.132 383.413 102.132C384.349 102.132 385.105 101.688 385.525 101.1V102H386.497V95.676H385.477V99.648ZM391.04 102.132C392.576 102.132 393.62 101.208 393.944 100.176L393.032 99.804C392.768 100.68 392.036 101.22 391.064 101.22C389.78 101.22 388.82 100.248 388.82 98.844C388.82 97.44 389.78 96.468 391.052 96.468C392.012 96.468 392.732 97.008 392.996 97.884L393.908 97.524C393.584 96.468 392.552 95.556 391.028 95.556C389.156 95.556 387.788 96.972 387.788 98.844C387.788 100.74 389.168 102.132 391.04 102.132ZM398.219 95.544C397.259 95.544 396.515 95.964 396.095 96.516V93.228H395.075V102H396.095V98.088C396.107 97.236 396.875 96.456 397.955 96.456C399.083 96.444 399.767 97.14 399.767 98.316V102H400.787V98.136C400.787 96.564 399.839 95.544 398.219 95.544ZM405.363 99.408V98.568H402.279V99.408H405.363ZM407.45 94.5C407.906 94.5 408.266 94.176 408.266 93.72C408.266 93.264 407.906 92.928 407.45 92.928C406.994 92.928 406.646 93.264 406.646 93.72C406.646 94.176 406.994 94.5 407.45 94.5ZM407.966 102V95.676H406.946V102H407.966ZM412.509 102.132C414.045 102.132 415.089 101.208 415.413 100.176L414.501 99.804C414.237 100.68 413.505 101.22 412.533 101.22C411.249 101.22 410.289 100.248 410.289 98.844C410.289 97.44 411.249 96.468 412.521 96.468C413.481 96.468 414.201 97.008 414.465 97.884L415.377 97.524C415.053 96.468 414.021 95.556 412.497 95.556C410.625 95.556 409.257 96.972 409.257 98.844C409.257 100.74 410.637 102.132 412.509 102.132ZM419.435 102.132C421.355 102.132 422.723 100.728 422.723 98.844C422.723 96.948 421.355 95.544 419.435 95.544C417.515 95.544 416.147 96.948 416.147 98.844C416.147 100.728 417.515 102.132 419.435 102.132ZM419.447 101.22C418.103 101.22 417.179 100.224 417.179 98.844C417.179 97.452 418.103 96.456 419.447 96.456C420.791 96.456 421.703 97.452 421.703 98.844C421.703 100.224 420.779 101.22 419.447 101.22ZM427.187 95.544C426.179 95.544 425.411 96 425.003 96.6V95.676H424.043V102H425.063V98.088C425.075 97.236 425.843 96.456 426.923 96.456C428.051 96.444 428.735 97.14 428.735 98.316V102H429.755V98.136C429.755 96.564 428.807 95.544 427.187 95.544Z" fill="black"/>
<rect width="180" height="180" transform="translate(331 122)" fill="#000D6E"/>
<path d="M470.347 208.759L423.907 162.645C423.502 162.243 423.021 161.923 422.491 161.705C421.961 161.487 421.393 161.375 420.82 161.375C420.246 161.375 419.678 161.487 419.149 161.705C418.619 161.923 418.137 162.243 417.732 162.645L371.301 208.759C370.483 209.572 370.023 210.675 370.023 211.824C370.023 212.974 370.483 214.076 371.301 214.889L417.741 261.003C418.146 261.406 418.628 261.725 419.158 261.943C419.687 262.161 420.255 262.273 420.829 262.273C421.402 262.273 421.97 262.161 422.5 261.943C423.03 261.725 423.511 261.406 423.916 261.003L449.678 235.413L433.992 219.839L420.821 232.92L399.576 211.824L420.821 190.729L457.75 227.398L470.342 214.895C470.748 214.492 471.071 214.014 471.291 213.488C471.511 212.962 471.624 212.398 471.625 211.828C471.626 211.258 471.513 210.694 471.294 210.167C471.074 209.641 470.753 209.162 470.347 208.759V208.759Z" fill="white"/>
<path d="M580.11 82.29L582.84 78.622H580.642L579.004 80.82L577.352 78.622H575.056L577.744 82.192L574.86 86H577.058L578.85 83.662L580.614 86H582.896L580.11 82.29ZM587.049 76.27H584.977V77.656H583.437V79.364H584.977V84.278H583.409V86H588.211V84.278H587.049V76.27ZM592.459 76.088C590.359 76.088 588.735 77.446 588.735 79.518C588.735 81.506 590.219 82.752 592.305 82.808L589.883 86H592.291L595.287 81.982C595.707 81.422 596.211 80.61 596.211 79.504C596.211 77.46 594.559 76.088 592.459 76.088ZM592.459 81.142C591.535 81.142 590.849 80.456 590.849 79.504C590.849 78.552 591.535 77.866 592.459 77.866C593.383 77.866 594.097 78.566 594.097 79.504C594.097 80.456 593.383 81.142 592.459 81.142ZM602.131 82.374C603.363 81.24 604.063 80.232 604.063 78.944C604.063 77.222 602.733 76.102 600.647 76.102C598.869 76.102 597.455 77.096 597.091 78.608L599.051 79.238C599.275 78.328 599.877 77.866 600.633 77.866C601.431 77.866 601.949 78.342 601.949 79.042C601.949 79.854 601.305 80.666 600.507 81.394L597.105 84.628V86H604.231V84.278H600.129L602.131 82.374Z" fill="black"/>
<path d="M580.952 96.9C580.472 96.084 579.644 95.604 578.576 95.604C576.788 95.604 575.468 96.96 575.468 98.832C575.468 100.728 576.776 102.132 578.576 102.132C579.644 102.132 580.472 101.628 580.952 100.788V102H581.9V95.676H580.952V96.9ZM578.696 101.232C577.424 101.232 576.476 100.212 576.476 98.832C576.476 97.476 577.424 96.444 578.696 96.444C580.016 96.444 580.916 97.428 580.916 98.832C580.916 100.248 580.004 101.232 578.696 101.232ZM586.754 95.544C585.746 95.544 584.978 96 584.57 96.6V95.676H583.61V102H584.63V98.088C584.642 97.236 585.41 96.456 586.49 96.456C587.618 96.444 588.302 97.14 588.302 98.316V102H589.322V98.136C589.322 96.564 588.374 95.544 586.754 95.544ZM595.974 96.744C595.47 95.988 594.654 95.544 593.646 95.544C591.858 95.544 590.562 96.96 590.562 98.832C590.562 100.728 591.87 102.132 593.67 102.132C594.714 102.132 595.554 101.64 596.046 100.836V102H596.994V93.228H595.974V96.744ZM593.79 101.232C592.518 101.232 591.57 100.212 591.57 98.832C591.57 97.476 592.518 96.444 593.79 96.444C595.11 96.444 596.01 97.428 596.01 98.832C596.01 100.248 595.098 101.232 593.79 101.232ZM599.664 95.676H598.704V102H599.724V98.184C599.724 97.284 600.528 96.504 601.68 96.492V95.544C600.792 95.544 600.072 96.012 599.664 96.6V95.676ZM605.322 102.132C607.242 102.132 608.61 100.728 608.61 98.844C608.61 96.948 607.242 95.544 605.322 95.544C603.402 95.544 602.034 96.948 602.034 98.844C602.034 100.728 603.402 102.132 605.322 102.132ZM605.334 101.22C603.99 101.22 603.066 100.224 603.066 98.844C603.066 97.452 603.99 96.456 605.334 96.456C606.678 96.456 607.59 97.452 607.59 98.844C607.59 100.224 606.666 101.22 605.334 101.22ZM610.434 94.5C610.89 94.5 611.25 94.176 611.25 93.72C611.25 93.264 610.89 92.928 610.434 92.928C609.978 92.928 609.63 93.264 609.63 93.72C609.63 94.176 609.978 94.5 610.434 94.5ZM610.95 102V95.676H609.93V102H610.95ZM617.665 96.744C617.161 95.988 616.345 95.544 615.337 95.544C613.549 95.544 612.253 96.96 612.253 98.832C612.253 100.728 613.561 102.132 615.361 102.132C616.405 102.132 617.245 101.64 617.737 100.836V102H618.685V93.228H617.665V96.744ZM615.481 101.232C614.209 101.232 613.261 100.212 613.261 98.832C613.261 97.476 614.209 96.444 615.481 96.444C616.801 96.444 617.701 97.428 617.701 98.832C617.701 100.248 616.789 101.232 615.481 101.232ZM625.946 102.132C627.482 102.132 628.526 101.208 628.85 100.176L627.938 99.804C627.674 100.68 626.942 101.22 625.97 101.22C624.686 101.22 623.726 100.248 623.726 98.844C623.726 97.44 624.686 96.468 625.958 96.468C626.918 96.468 627.638 97.008 627.902 97.884L628.814 97.524C628.49 96.468 627.458 95.556 625.934 95.556C624.062 95.556 622.694 96.972 622.694 98.844C622.694 100.74 624.074 102.132 625.946 102.132ZM633.125 95.544C632.165 95.544 631.421 95.964 631.001 96.516V93.228H629.981V102H631.001V98.088C631.013 97.236 631.781 96.456 632.861 96.456C633.989 96.444 634.673 97.14 634.673 98.316V102H635.693V98.136C635.693 96.564 634.745 95.544 633.125 95.544ZM638.277 95.676H637.317V102H638.337V98.184C638.337 97.284 639.141 96.504 640.293 96.492V95.544C639.405 95.544 638.685 96.012 638.277 96.6V95.676ZM643.935 102.132C645.855 102.132 647.223 100.728 647.223 98.844C647.223 96.948 645.855 95.544 643.935 95.544C642.015 95.544 640.647 96.948 640.647 98.844C640.647 100.728 642.015 102.132 643.935 102.132ZM643.947 101.22C642.603 101.22 641.679 100.224 641.679 98.844C641.679 97.452 642.603 96.456 643.947 96.456C645.291 96.456 646.203 97.452 646.203 98.844C646.203 100.224 645.279 101.22 643.947 101.22ZM655.995 95.544C654.855 95.544 654.075 96.144 653.751 96.828C653.403 96.012 652.683 95.544 651.591 95.544C650.619 95.544 649.887 96.024 649.503 96.612V95.676H648.543V102H649.563V98.016C649.575 97.284 650.247 96.456 651.303 96.456C652.359 96.444 652.995 97.2 652.995 98.28V102H654.015V98.016C654.039 97.284 654.699 96.456 655.767 96.456C656.823 96.444 657.459 97.212 657.459 98.28V102H658.479V98.1C658.479 96.624 657.579 95.544 655.995 95.544ZM665.942 99.216C665.954 99.096 665.966 98.88 665.966 98.7C665.966 97.032 664.754 95.532 662.846 95.532C661.058 95.532 659.654 97.008 659.654 98.844C659.654 100.728 660.974 102.144 662.918 102.144C664.418 102.144 665.294 101.496 665.762 100.596L664.874 100.056C664.562 100.788 663.986 101.184 662.954 101.184C661.79 101.184 660.866 100.392 660.686 99.216H665.942ZM660.698 98.328C660.89 97.128 661.814 96.42 662.882 96.42C663.938 96.42 664.766 97.14 664.922 98.328H660.698Z" fill="black"/>
<rect width="192" height="192" transform="translate(575 122)" fill="#000D6E"/>
<path d="M723.637 214.543L674.101 165.355C673.669 164.925 673.155 164.585 672.59 164.352C672.025 164.12 671.419 164 670.808 164C670.196 164 669.59 164.12 669.025 164.352C668.46 164.585 667.947 164.925 667.514 165.355L617.988 214.543C617.115 215.41 616.625 216.586 616.625 217.813C616.625 219.039 617.115 220.215 617.988 221.082L667.524 270.27C667.956 270.7 668.47 271.04 669.035 271.273C669.6 271.505 670.206 271.625 670.817 271.625C671.429 271.625 672.035 271.505 672.6 271.273C673.165 271.04 673.678 270.7 674.111 270.27L701.59 242.974L684.858 226.362L670.809 240.314L648.148 217.813L670.809 195.311L710.2 234.425L723.631 221.088C724.065 220.659 724.409 220.149 724.643 219.587C724.878 219.026 724.999 218.424 725 217.817C725.001 217.209 724.88 216.607 724.647 216.045C724.413 215.483 724.07 214.973 723.637 214.543V214.543Z" fill="white"/>
<path d="M836.11 82.29L838.84 78.622H836.642L835.004 80.82L833.352 78.622H831.056L833.744 82.192L830.86 86H833.058L834.85 83.662L836.614 86H838.896L836.11 82.29ZM841.873 79.77L841.985 77.894H845.695V76.27H840.221L839.941 81.394H842.601C843.623 81.394 844.239 82.066 844.239 82.934C844.239 83.788 843.623 84.418 842.643 84.418C841.817 84.418 841.131 83.97 840.907 83.116L839.017 83.872C839.549 85.398 840.837 86.182 842.615 86.182C844.953 86.182 846.353 84.852 846.353 82.962C846.353 81.016 844.911 79.77 842.671 79.77H841.873ZM851.088 76.27H849.016V77.656H847.476V79.364H849.016V84.278H847.448V86H852.25V84.278H851.088V76.27ZM858.131 82.374C859.363 81.24 860.063 80.232 860.063 78.944C860.063 77.222 858.733 76.102 856.647 76.102C854.869 76.102 853.455 77.096 853.091 78.608L855.051 79.238C855.275 78.328 855.877 77.866 856.633 77.866C857.431 77.866 857.949 78.342 857.949 79.042C857.949 79.854 857.305 80.666 856.507 81.394L853.105 84.628V86H860.231V84.278H856.129L858.131 82.374Z" fill="black"/>
<path d="M836.952 96.9C836.472 96.084 835.644 95.604 834.576 95.604C832.788 95.604 831.468 96.96 831.468 98.832C831.468 100.728 832.776 102.132 834.576 102.132C835.644 102.132 836.472 101.628 836.952 100.788V102H837.9V95.676H836.952V96.9ZM834.696 101.232C833.424 101.232 832.476 100.212 832.476 98.832C832.476 97.476 833.424 96.444 834.696 96.444C836.016 96.444 836.916 97.428 836.916 98.832C836.916 100.248 836.004 101.232 834.696 101.232ZM842.754 95.544C841.746 95.544 840.978 96 840.57 96.6V95.676H839.61V102H840.63V98.088C840.642 97.236 841.41 96.456 842.49 96.456C843.618 96.444 844.302 97.14 844.302 98.316V102H845.322V98.136C845.322 96.564 844.374 95.544 842.754 95.544ZM851.974 96.744C851.47 95.988 850.654 95.544 849.646 95.544C847.858 95.544 846.562 96.96 846.562 98.832C846.562 100.728 847.87 102.132 849.67 102.132C850.714 102.132 851.554 101.64 852.046 100.836V102H852.994V93.228H851.974V96.744ZM849.79 101.232C848.518 101.232 847.57 100.212 847.57 98.832C847.57 97.476 848.518 96.444 849.79 96.444C851.11 96.444 852.01 97.428 852.01 98.832C852.01 100.248 851.098 101.232 849.79 101.232ZM855.664 95.676H854.704V102H855.724V98.184C855.724 97.284 856.528 96.504 857.68 96.492V95.544C856.792 95.544 856.072 96.012 855.664 96.6V95.676ZM861.322 102.132C863.242 102.132 864.61 100.728 864.61 98.844C864.61 96.948 863.242 95.544 861.322 95.544C859.402 95.544 858.034 96.948 858.034 98.844C858.034 100.728 859.402 102.132 861.322 102.132ZM861.334 101.22C859.99 101.22 859.066 100.224 859.066 98.844C859.066 97.452 859.99 96.456 861.334 96.456C862.678 96.456 863.59 97.452 863.59 98.844C863.59 100.224 862.666 101.22 861.334 101.22ZM866.434 94.5C866.89 94.5 867.25 94.176 867.25 93.72C867.25 93.264 866.89 92.928 866.434 92.928C865.978 92.928 865.63 93.264 865.63 93.72C865.63 94.176 865.978 94.5 866.434 94.5ZM866.95 102V95.676H865.93V102H866.95ZM873.665 96.744C873.161 95.988 872.345 95.544 871.337 95.544C869.549 95.544 868.253 96.96 868.253 98.832C868.253 100.728 869.561 102.132 871.361 102.132C872.405 102.132 873.245 101.64 873.737 100.836V102H874.685V93.228H873.665V96.744ZM871.481 101.232C870.209 101.232 869.261 100.212 869.261 98.832C869.261 97.476 870.209 96.444 871.481 96.444C872.801 96.444 873.701 97.428 873.701 98.832C873.701 100.248 872.789 101.232 871.481 101.232ZM881.946 102.132C883.482 102.132 884.526 101.208 884.85 100.176L883.938 99.804C883.674 100.68 882.942 101.22 881.97 101.22C880.686 101.22 879.726 100.248 879.726 98.844C879.726 97.44 880.686 96.468 881.958 96.468C882.918 96.468 883.638 97.008 883.902 97.884L884.814 97.524C884.49 96.468 883.458 95.556 881.934 95.556C880.062 95.556 878.694 96.972 878.694 98.844C878.694 100.74 880.074 102.132 881.946 102.132ZM889.125 95.544C888.165 95.544 887.421 95.964 887.001 96.516V93.228H885.981V102H887.001V98.088C887.013 97.236 887.781 96.456 888.861 96.456C889.989 96.444 890.673 97.14 890.673 98.316V102H891.693V98.136C891.693 96.564 890.745 95.544 889.125 95.544ZM894.277 95.676H893.317V102H894.337V98.184C894.337 97.284 895.141 96.504 896.293 96.492V95.544C895.405 95.544 894.685 96.012 894.277 96.6V95.676ZM899.935 102.132C901.855 102.132 903.223 100.728 903.223 98.844C903.223 96.948 901.855 95.544 899.935 95.544C898.015 95.544 896.647 96.948 896.647 98.844C896.647 100.728 898.015 102.132 899.935 102.132ZM899.947 101.22C898.603 101.22 897.679 100.224 897.679 98.844C897.679 97.452 898.603 96.456 899.947 96.456C901.291 96.456 902.203 97.452 902.203 98.844C902.203 100.224 901.279 101.22 899.947 101.22ZM911.995 95.544C910.855 95.544 910.075 96.144 909.751 96.828C909.403 96.012 908.683 95.544 907.591 95.544C906.619 95.544 905.887 96.024 905.503 96.612V95.676H904.543V102H905.563V98.016C905.575 97.284 906.247 96.456 907.303 96.456C908.359 96.444 908.995 97.2 908.995 98.28V102H910.015V98.016C910.039 97.284 910.699 96.456 911.767 96.456C912.823 96.444 913.459 97.212 913.459 98.28V102H914.479V98.1C914.479 96.624 913.579 95.544 911.995 95.544ZM921.942 99.216C921.954 99.096 921.966 98.88 921.966 98.7C921.966 97.032 920.754 95.532 918.846 95.532C917.058 95.532 915.654 97.008 915.654 98.844C915.654 100.728 916.974 102.144 918.918 102.144C920.418 102.144 921.294 101.496 921.762 100.596L920.874 100.056C920.562 100.788 919.986 101.184 918.954 101.184C917.79 101.184 916.866 100.392 916.686 99.216H921.942ZM916.698 98.328C916.89 97.128 917.814 96.42 918.882 96.42C919.938 96.42 920.766 97.14 920.922 98.328H916.698Z" fill="black"/>
<rect width="512" height="512" transform="translate(831 122)" fill="#000D6E"/>
<path d="M1227.37 368.781L1095.27 237.614C1094.12 236.468 1092.75 235.559 1091.24 234.939C1089.73 234.319 1088.12 234 1086.49 234C1084.86 234 1083.24 234.319 1081.73 234.939C1080.23 235.559 1078.86 236.468 1077.7 237.614L945.634 368.781C943.307 371.094 942 374.23 942 377.5C942 380.77 943.307 383.906 945.634 386.219L1077.73 517.386C1078.88 518.532 1080.25 519.441 1081.76 520.061C1083.27 520.681 1084.88 521 1086.51 521C1088.14 521 1089.76 520.681 1091.27 520.061C1092.77 519.441 1094.14 518.532 1095.3 517.386L1168.57 444.598L1123.96 400.298L1086.49 437.505L1026.06 377.5L1086.49 317.495L1191.53 421.8L1227.35 386.234C1228.51 385.089 1229.42 383.73 1230.05 382.233C1230.68 380.736 1231 379.132 1231 377.511C1231 375.89 1230.68 374.285 1230.06 372.787C1229.43 371.289 1228.52 369.928 1227.37 368.781Z" fill="white"/>
</g>
<defs>
<clipPath id="clip0_952_61">
<rect width="1375" height="706" fill="white"/>
</clipPath>
</defs>
</svg>
