<svg width="440" height="440" viewBox="0 0 440 440" fill="none" xmlns="http://www.w3.org/2000/svg">
  <!-- Green: upper-left — tabs right + bottom -->
  <path d="M16,0 L220,0 L220,72 Q248,110 220,148 L220,220 L148,220 Q110,248 72,220 L0,220 L0,16 A16,16 0 0,1 16,0Z" fill="#21D9AC"/>
  <!-- Purple: upper-right — socket left, tab bottom -->
  <path d="M220,0 L424,0 A16,16 0 0,1 440,16 L440,220 L368,220 Q330,248 292,220 L220,220 L220,148 Q248,110 220,72 L220,0Z" fill="#BE82FA"/>
  <!-- Yellow: lower-left — socket top, tab right -->
  <path d="M0,220 L72,220 Q110,248 148,220 L220,220 L220,292 Q248,330 220,368 L220,440 L16,440 A16,16 0 0,1 0,424 L0,220Z" fill="#FFBE19"/>
  <!-- Red: lower-right — sockets top + left -->
  <path d="M220,220 L292,220 Q330,248 368,220 L440,220 L440,424 A16,16 0 0,1 424,440 L220,440 L220,368 Q248,330 220,292 L220,220Z" fill="#FF596F"/>
</svg>
