<svg width="1920" height="926" viewBox="0 0 1920 926" fill="none" xmlns="http://www.w3.org/2000/svg">
<rect width="1920" height="926" rx="12" fill="#000C6E"/>
<path d="M758.58 304.496L758.665 304.5H758.75C773.536 304.5 787.716 298.626 798.171 288.171C808.626 277.716 814.5 263.536 814.5 248.75C814.5 233.964 808.626 219.784 798.171 209.329C787.716 198.874 773.536 193 758.75 193C758.286 193 757.841 192.816 757.513 192.487C757.184 192.159 757 191.714 757 191.25V151C757 145.961 759.002 141.128 762.565 137.565C766.128 134.002 770.961 132 776 132H973.25V179.7C973.235 180.142 973.072 180.566 972.787 180.905C972.516 181.228 972.149 181.455 971.741 181.555C955.928 183.657 941.376 191.311 930.684 203.154C919.956 215.037 913.819 230.358 913.377 246.362C912.935 262.365 918.217 278.001 928.272 290.459C938.308 302.892 952.443 311.345 968.143 314.305C969.723 314.685 971.131 315.585 972.14 316.86C973.165 318.154 973.719 319.759 973.71 321.41L973.71 321.42V321.43V346.5C973.71 348.489 972.92 350.397 971.513 351.803C970.107 353.21 968.199 354 966.21 354H931.496C929.276 353.983 927.077 354.444 925.05 355.351C923.022 356.258 921.212 357.592 919.744 359.26C918.289 360.896 917.203 362.825 916.559 364.918C915.924 366.981 915.734 369.154 916.001 371.296C916.096 372.502 916.094 373.714 915.994 374.92L915.98 375.084V375.25C915.98 384.864 912.161 394.084 905.363 400.883C898.565 407.681 889.344 411.5 879.73 411.5C870.116 411.5 860.896 407.681 854.097 400.883C847.299 394.084 843.48 384.864 843.48 375.25V375.085L843.466 374.92C843.366 373.714 843.364 372.502 843.46 371.295C843.726 369.154 843.536 366.981 842.901 364.918C842.257 362.825 841.171 360.895 839.716 359.259C838.248 357.591 836.438 356.258 834.41 355.351L832.776 359.002L834.41 355.351C832.383 354.444 830.185 353.983 827.964 354H764.5C762.511 354 760.603 353.21 759.197 351.803C757.79 350.397 757 348.489 757 346.5V306.25V306.165L756.996 306.08C756.988 305.869 757.022 305.66 757.099 305.463C757.175 305.267 757.291 305.089 757.44 304.94C757.589 304.791 757.767 304.675 757.963 304.599C758.16 304.522 758.369 304.487 758.58 304.496Z" stroke="url(#paint0_linear_102_21)" stroke-width="8"/>
<path d="M973.25 607H776C770.961 607 766.128 604.998 762.565 601.435C759.002 597.872 757 593.039 757 588V547.75V547.687L756.998 547.624C756.921 545.187 756.012 542.85 754.423 541.002L754.226 540.774L753.998 540.577C752.15 538.987 749.813 538.079 747.376 538.002L747.313 538H747.25C734.586 538 722.441 532.969 713.486 524.014C704.531 515.059 699.5 502.914 699.5 490.25C699.5 477.586 704.531 465.441 713.486 456.486C722.441 447.531 734.586 442.5 747.25 442.5C749.836 442.5 752.316 441.473 754.144 439.644C755.973 437.816 757 435.336 757 432.75V392.5C757 390.511 757.79 388.603 759.197 387.197C760.603 385.79 762.511 385 764.5 385H806.59H806.6L806.61 385C808.261 384.992 809.866 385.545 811.16 386.57C812.454 387.595 813.362 389.029 813.732 390.638C817.143 405.465 825.482 418.698 837.385 428.174C849.289 437.65 864.055 442.81 879.27 442.81C894.485 442.81 909.251 437.65 921.155 428.174C933.058 418.698 941.397 405.465 944.808 390.638C945.178 389.029 946.086 387.595 947.38 386.57L944.897 383.434L947.38 386.57C948.674 385.545 950.279 384.992 951.93 385L951.94 385H951.95H965.52C967.509 385 969.417 385.79 970.823 387.197C972.23 388.603 973.02 390.511 973.02 392.5V438.944C973.003 441.165 973.464 443.363 974.371 445.39C975.28 447.423 976.617 449.235 978.29 450.705L978.342 450.751L978.396 450.795C981.72 453.516 985.977 454.826 990.255 454.444L990.291 454.441L990.327 454.437C995.385 453.894 1000.5 454.422 1005.34 455.985C1010.18 457.549 1014.64 460.114 1018.42 463.514C1022.21 466.913 1025.23 471.071 1027.3 475.717C1029.38 480.363 1030.45 485.393 1030.45 490.48C1030.45 495.567 1029.38 500.597 1027.3 505.243C1025.23 509.889 1022.21 514.047 1018.42 517.446C1014.64 520.846 1010.18 523.411 1005.34 524.975C1000.53 526.53 995.44 527.06 990.408 526.531C988.312 526.224 986.174 526.369 984.139 526.958C982.071 527.557 980.158 528.599 978.534 530.013L978.527 530.019L978.52 530.025C976.847 531.494 975.51 533.307 974.601 535.34C973.694 537.367 973.233 539.566 973.25 541.786V607Z" stroke="url(#paint1_linear_102_21)" stroke-width="8"/>
<path d="M993.332 212.151L992.156 208.328L993.332 212.151C995.425 211.507 997.355 210.421 998.991 208.966C1000.66 207.498 1001.99 205.688 1002.9 203.66C1003.81 201.633 1004.27 199.434 1004.25 197.214V139.5C1004.25 137.511 1005.04 135.603 1006.45 134.197L1003.62 131.368L1006.45 134.197C1007.85 132.79 1009.76 132 1011.75 132H1046.17C1046.66 132.024 1047.14 132.184 1047.54 132.459C1047.82 132.863 1047.98 133.337 1048 133.828C1048.02 148.586 1053.89 162.734 1064.33 173.171C1074.78 183.626 1088.96 189.5 1103.75 189.5C1118.54 189.5 1132.72 183.626 1143.17 173.171C1153.63 162.716 1159.5 148.536 1159.5 133.75C1159.5 133.286 1159.68 132.841 1160.01 132.513C1160.34 132.184 1160.79 132 1161.25 132H1201.5C1206.54 132 1211.37 134.002 1214.94 137.565C1218.5 141.128 1220.5 145.961 1220.5 151V346.27C1220.5 348.259 1219.71 350.167 1218.3 351.573C1216.9 352.98 1214.99 353.77 1213 353.77H1176.2H1176.19L1176.18 353.77C1174.53 353.778 1172.92 353.225 1171.63 352.2C1170.34 351.175 1169.43 349.741 1169.06 348.132C1165.65 333.305 1157.31 320.072 1145.4 310.596C1133.5 301.12 1118.74 295.96 1103.52 295.96C1088.3 295.96 1073.54 301.12 1061.64 310.596C1049.73 320.072 1041.39 333.305 1037.98 348.132C1037.61 349.741 1036.7 351.175 1035.41 352.2L1037.89 355.336L1035.41 352.2C1034.12 353.225 1032.51 353.778 1030.86 353.77L1030.85 353.77H1030.84H1011.52C1009.53 353.77 1007.62 352.98 1006.22 351.573C1004.81 350.167 1004.02 348.259 1004.02 346.27V300.286C1004.04 298.066 1003.58 295.867 1002.67 293.84C1001.77 291.821 1000.44 290.019 998.784 288.555C997.194 287.102 995.306 286.012 993.252 285.364C991.2 284.716 989.032 284.523 986.899 284.798C981.855 285.333 976.756 284.804 971.929 283.245C967.089 281.681 962.631 279.116 958.847 275.716C955.063 272.317 952.037 268.159 949.965 263.513C947.894 258.867 946.823 253.837 946.823 248.75C946.823 243.663 947.894 238.633 949.965 233.987C952.037 229.341 955.063 225.183 958.847 221.784C962.631 218.384 967.089 215.819 971.929 214.255L970.7 210.449L971.929 214.255C976.756 212.696 981.856 212.167 986.9 212.703C989.059 212.979 991.252 212.791 993.332 212.151Z" stroke="url(#paint2_linear_102_21)" stroke-width="8"/>
<path d="M1155.27 381C1153.62 381.014 1151.98 380.673 1150.47 379.998C1148.97 379.323 1147.62 378.331 1146.53 377.09C1145.45 375.881 1144.65 374.454 1144.17 372.906C1143.7 371.358 1143.56 369.726 1143.77 368.12C1143.89 366.666 1143.89 365.204 1143.77 363.75C1143.77 353.075 1139.53 342.837 1131.98 335.289C1124.43 327.741 1114.19 323.5 1103.52 323.5C1092.84 323.5 1082.61 327.741 1075.06 335.289C1067.51 342.837 1063.27 353.075 1063.27 363.75C1063.15 365.204 1063.15 366.666 1063.27 368.12C1063.48 369.726 1063.34 371.358 1062.87 372.906C1062.39 374.454 1061.59 375.881 1060.51 377.09C1059.42 378.331 1058.07 379.323 1056.57 379.998C1055.06 380.673 1053.42 381.014 1051.77 381H1011.75C1008.7 381 1005.77 382.212 1003.62 384.368C1001.46 386.525 1000.25 389.45 1000.25 392.5V417.57C1000.24 420.129 1001.1 422.616 1002.68 424.623C1004.27 426.629 1006.5 428.036 1008.99 428.61C1022.94 431.818 1035.38 439.661 1044.29 450.857C1053.21 462.052 1058.06 475.94 1058.06 490.25C1058.06 504.56 1053.21 518.448 1044.29 529.643C1035.38 540.839 1022.94 548.682 1008.99 551.89C1006.5 552.464 1004.27 553.871 1002.68 555.877C1001.1 557.884 1000.24 560.371 1000.25 562.93V599.5C1000.25 602.55 1001.46 605.475 1003.62 607.632C1005.77 609.788 1008.7 611 1011.75 611H1201.5C1207.6 611 1213.45 608.577 1217.76 604.263C1222.08 599.95 1224.5 594.1 1224.5 588V392.5C1224.5 389.45 1223.29 386.525 1221.13 384.368C1218.97 382.212 1216.05 381 1213 381H1155.27Z" fill="url(#paint3_linear_102_21)"/>
<path fill-rule="evenodd" clip-rule="evenodd" d="M678.234 678.386C678.234 671.463 684.105 666.5 690.949 666.5C697.792 666.5 703.128 671.463 703.128 678.386C703.128 685.308 697.792 690.157 690.949 690.157C684.105 690.157 678.234 685.31 678.234 678.386ZM681.206 698.348H700.575V759.159H681.206V698.348ZM577.792 674.809H597.164V759.158H577.792V674.809ZM462.251 760.661C479.998 760.661 492.641 747.043 492.641 728.813C492.641 710.58 480.347 696.965 462.709 696.967C456.103 696.967 450.535 698.927 446.128 702.62V674.811H426.757V759.159H444.621V753.967C449.028 758.237 454.944 760.661 462.251 760.661ZM459.468 713.818C467.587 713.818 473.502 720.159 473.502 728.813C473.502 737.467 467.587 743.697 459.468 743.697C451.001 743.697 445.199 737.581 445.199 728.813C445.199 719.932 450.884 713.818 459.468 713.818ZM565.019 759.16V698.348H547.155V704.695C542.863 700.427 537.062 698.118 529.525 698.118C511.778 698.118 499.018 710.582 499.018 728.813C499.018 747.043 511.778 760.661 529.525 760.661C537.064 760.661 542.863 758.119 547.155 753.621V759.16H565.019ZM532.31 713.818C540.777 713.818 546.462 719.926 546.462 728.813C546.462 737.583 540.775 743.698 532.31 743.698C524.076 743.698 518.274 737.461 518.274 728.813C518.274 720.164 524.191 713.818 532.31 713.818ZM639.049 696.965C619.563 696.965 605.642 710.58 605.642 728.813C605.642 746.929 619.568 760.661 639.049 760.661C658.652 760.661 672.57 746.929 672.57 728.813C672.57 710.58 658.644 696.965 639.049 696.965ZM639.164 714.042C647.631 714.042 653.084 720.042 653.084 728.696C653.084 737.467 647.517 743.581 639.164 743.583C630.696 743.583 625.129 737.351 625.129 728.813C625.129 720.04 630.696 714.042 639.164 714.042ZM724.468 738.275L708.462 744.391C712.057 755.015 721.917 760.661 735.713 760.65C751.836 760.65 762.043 753.034 762.043 740.455C762.043 726.653 749.915 723.466 740.616 721.023C734.834 719.503 730.145 718.271 730.145 714.953C730.145 712.415 732.116 710.916 736.06 710.916C740.12 710.916 743.02 712.877 744.412 716.685L760.428 710.453C757.992 701.919 748.944 696.957 736.416 696.957C720.99 696.957 711.245 704.119 711.245 715.889C711.245 728.341 722.585 731.728 731.742 734.463C737.944 736.316 743.144 737.869 743.144 741.737C743.144 744.505 740.825 746.235 736.416 746.235C730.153 746.235 726.093 743.353 724.468 738.275ZM830.949 727.544C830.949 712.548 819.119 696.848 799.167 696.848C781.537 696.848 767.385 711.281 767.385 728.813C767.385 746.929 780.144 760.661 800.328 760.661C813.647 760.661 821.513 755.555 826.23 749.733L815.09 738.629C811.612 742.91 807.751 744.966 800.906 744.966C793.599 744.966 788.148 741.274 786.176 734.47H830.486C830.805 732.175 830.96 729.86 830.949 727.544ZM785.942 722.466C787.566 715.081 792.554 711.272 799.629 711.272C806.704 711.272 811.344 715.542 812.969 722.466H785.942ZM355.489 669.954L404.131 718.344C404.556 718.767 404.893 719.269 405.123 719.822C405.352 720.375 405.47 720.967 405.47 721.565C405.469 722.163 405.35 722.755 405.12 723.307C404.889 723.859 404.551 724.361 404.126 724.783L390.937 737.904L352.256 699.424L330.004 721.561L352.256 743.697L366.052 729.971L382.482 746.314L355.499 773.167C355.074 773.59 354.57 773.925 354.015 774.154C353.46 774.382 352.865 774.5 352.265 774.5C351.664 774.5 351.069 774.382 350.514 774.154C349.959 773.925 349.455 773.59 349.03 773.167L300.388 724.777C299.531 723.924 299.05 722.767 299.05 721.561C299.05 720.354 299.531 719.198 300.388 718.344L349.021 669.954C349.446 669.532 349.95 669.197 350.505 668.968C351.06 668.739 351.655 668.621 352.255 668.621C352.856 668.621 353.451 668.739 354.006 668.968C354.561 669.197 355.065 669.532 355.489 669.954Z" fill="white"/>
<path d="M920.854 713.528C916.262 704.456 907.638 698.856 896.774 698.856C880.086 698.856 867.878 711.96 867.878 729.432C867.878 747.016 880.086 760.232 896.774 760.232C907.862 760.232 916.598 754.408 921.078 745V759H926.342V677.128H920.854V713.528ZM897.222 755.192C883.558 755.192 873.478 744.216 873.478 729.432C873.478 714.872 883.67 703.784 897.222 703.784C911.222 703.784 920.966 714.312 920.966 729.432C920.966 744.552 911.11 755.192 897.222 755.192ZM997.066 731V728.088C997.066 711.624 985.754 698.856 969.29 698.856C952.938 698.856 940.394 712.184 940.394 729.544C940.394 747.128 952.602 760.232 969.514 760.232C983.066 760.232 991.914 754.072 995.946 743.768L991.466 741.192C988.106 750.6 980.826 755.08 969.626 755.08C956.298 755.08 946.778 745.336 946.106 731H997.066ZM946.218 726.408C947.45 712.968 956.634 703.672 969.402 703.672C982.17 703.672 990.906 712.744 991.578 726.408H946.218ZM1028.07 760.232C1040.95 760.232 1049.8 754.184 1049.8 743.656C1049.8 722.04 1013.51 730.104 1013.51 713.64C1013.51 707.256 1018.66 703.224 1027.62 703.224C1034.9 703.224 1040.05 706.136 1042.41 712.296L1047.22 710.392C1044.53 702.776 1037.59 698.856 1027.62 698.856C1015.86 698.856 1008.02 704.456 1008.02 713.976C1008.02 734.248 1044.31 726.744 1044.31 744.104C1044.31 751.496 1037.81 755.64 1028.18 755.64C1018.44 755.64 1012.05 751.608 1009.93 744.664L1005 746.68C1007.91 755.192 1016.2 760.232 1028.07 760.232ZM1065.68 687.768C1068.93 687.768 1071.39 685.528 1071.39 682.28C1071.39 679.032 1068.93 676.568 1065.68 676.568C1062.43 676.568 1059.97 679.032 1059.97 682.28C1059.97 685.528 1062.43 687.768 1065.68 687.768ZM1068.48 759V699.976H1062.99V759H1068.48ZM1135.78 714.2C1131.42 704.792 1122.68 698.856 1111.48 698.856C1094.9 698.856 1082.58 711.96 1082.58 729.096C1082.58 746.344 1094.79 759.336 1111.48 759.336C1122.68 759.336 1131.42 753.4 1135.78 743.992V752.392C1135.78 766.616 1126.6 775.464 1111.82 775.464C1100.28 775.464 1092.33 770.088 1089.19 760.008L1084.26 761.912C1088.07 773.56 1097.48 780.28 1111.7 780.28C1129.96 780.28 1141.05 769.304 1141.05 752.056V699.976H1135.78V714.2ZM1111.82 754.856C1098.26 754.856 1088.07 743.88 1088.07 729.32C1088.07 714.76 1098.38 703.784 1112.04 703.784C1125.82 703.784 1135.56 714.424 1135.56 729.32C1135.56 744.216 1125.7 754.856 1111.82 754.856ZM1186.12 698.744C1175.48 698.744 1167.76 704.344 1164.4 710.952V699.976H1159.13V759H1164.62V721.704C1164.84 712.632 1173.02 703.896 1185.12 703.784C1197.77 703.672 1205.05 711.4 1205.05 724.392V759H1210.65V723.496C1210.65 708.376 1201.8 698.744 1186.12 698.744ZM1272.41 760.232C1285.29 760.232 1294.14 754.184 1294.14 743.656C1294.14 722.04 1257.85 730.104 1257.85 713.64C1257.85 707.256 1263.01 703.224 1271.97 703.224C1279.25 703.224 1284.4 706.136 1286.75 712.296L1291.57 710.392C1288.88 702.776 1281.93 698.856 1271.97 698.856C1260.21 698.856 1252.37 704.456 1252.37 713.976C1252.37 734.248 1288.65 726.744 1288.65 744.104C1288.65 751.496 1282.16 755.64 1272.53 755.64C1262.78 755.64 1256.4 751.608 1254.27 744.664L1249.34 746.68C1252.25 755.192 1260.54 760.232 1272.41 760.232ZM1326.63 753.736L1304.34 699.976H1298.4L1323.38 759H1324.28L1315.65 779.048H1321.14L1355.19 699.976H1349.36L1326.63 753.736ZM1381.79 760.232C1394.67 760.232 1403.52 754.184 1403.52 743.656C1403.52 722.04 1367.23 730.104 1367.23 713.64C1367.23 707.256 1372.38 703.224 1381.34 703.224C1388.62 703.224 1393.77 706.136 1396.12 712.296L1400.94 710.392C1398.25 702.776 1391.31 698.856 1381.34 698.856C1369.58 698.856 1361.74 704.456 1361.74 713.976C1361.74 734.248 1398.03 726.744 1398.03 744.104C1398.03 751.496 1391.53 755.64 1381.9 755.64C1372.16 755.64 1365.77 751.608 1363.64 744.664L1358.72 746.68C1361.63 755.192 1369.92 760.232 1381.79 760.232ZM1445.4 759V754.072H1438.12C1429.61 754.072 1424.91 748.92 1424.91 739.96V704.904H1444.39V699.976H1425.02V685.08H1419.75V695.048C1419.75 698.408 1418.3 699.976 1414.94 699.976H1408.22V704.904H1419.31V740.408C1419.31 751.944 1425.8 759 1437.34 759H1445.4ZM1505.66 731V728.088C1505.66 711.624 1494.35 698.856 1477.88 698.856C1461.53 698.856 1448.99 712.184 1448.99 729.544C1448.99 747.128 1461.2 760.232 1478.11 760.232C1491.66 760.232 1500.51 754.072 1504.54 743.768L1500.06 741.192C1496.7 750.6 1489.42 755.08 1478.22 755.08C1464.89 755.08 1455.37 745.336 1454.7 731H1505.66ZM1454.81 726.408C1456.04 712.968 1465.23 703.672 1478 703.672C1490.76 703.672 1499.5 712.744 1500.17 726.408H1454.81ZM1588.85 698.744C1577.32 698.744 1569.48 706.024 1566.9 712.968C1563.76 704.12 1556.37 698.744 1545.4 698.744C1535.2 698.744 1527.81 704.568 1524.68 710.84V699.976H1519.41V759H1524.9V720.696C1525.12 712.744 1532.85 703.896 1544.28 703.784C1555.7 703.672 1563.09 711.736 1563.09 723.608V759H1568.58V720.696C1568.8 712.744 1576.53 703.896 1587.96 703.784C1599.38 703.672 1606.77 711.736 1606.77 723.608V759H1612.26V722.824C1612.26 708.6 1603.41 698.744 1588.85 698.744Z" fill="white"/>
<defs>
<linearGradient id="paint0_linear_102_21" x1="759.5" y1="133" x2="970" y2="356.5" gradientUnits="userSpaceOnUse">
<stop stop-color="#21DAAC"/>
<stop offset="1" stop-color="#01B38F"/>
</linearGradient>
<linearGradient id="paint1_linear_102_21" x1="758" y1="380.5" x2="974" y2="611.5" gradientUnits="userSpaceOnUse">
<stop stop-color="#FFBF19"/>
<stop offset="1" stop-color="#FA9319"/>
</linearGradient>
<linearGradient id="paint2_linear_102_21" x1="1004" y1="137" x2="1216" y2="357.5" gradientUnits="userSpaceOnUse">
<stop stop-color="#BE82FA"/>
<stop offset="1" stop-color="#A052CC"/>
</linearGradient>
<linearGradient id="paint3_linear_102_21" x1="1060" y1="376" x2="1225" y2="618.5" gradientUnits="userSpaceOnUse">
<stop stop-color="#FF5970"/>
<stop offset="1" stop-color="#D9304C"/>
</linearGradient>
</defs>
</svg>
