<svg width="1920" height="926" viewBox="0 0 1920 926" fill="none" xmlns="http://www.w3.org/2000/svg">
<rect width="1920" height="926" rx="12" fill="#000C6E"/>
<path d="M758.75 300.5C757.986 300.467 757.224 300.594 756.512 300.871C755.799 301.149 755.152 301.571 754.612 302.112C754.071 302.652 753.649 303.299 753.371 304.012C753.094 304.724 752.968 305.486 753 306.25V346.5C753 349.55 754.212 352.475 756.368 354.632C758.525 356.788 761.45 358 764.5 358H827.98C829.632 357.986 831.268 358.327 832.776 359.002C834.285 359.677 835.63 360.669 836.72 361.91C837.798 363.119 838.602 364.546 839.078 366.094C839.555 367.642 839.692 369.274 839.48 370.88C839.36 372.334 839.36 373.796 839.48 375.25C839.48 385.925 843.721 396.163 851.269 403.711C858.817 411.259 869.055 415.5 879.73 415.5C890.405 415.5 900.643 411.259 908.191 403.711C915.739 396.163 919.98 385.925 919.98 375.25C920.101 373.796 920.101 372.334 919.98 370.88C919.769 369.274 919.906 367.642 920.382 366.094C920.858 364.546 921.663 363.119 922.74 361.91C923.831 360.669 925.176 359.677 926.684 359.002C928.192 358.327 929.828 357.986 931.48 358H966.21C969.26 358 972.185 356.788 974.342 354.632C976.499 352.475 977.71 349.55 977.71 346.5V321.43C977.723 318.871 976.865 316.384 975.276 314.377C973.688 312.371 971.464 310.964 968.97 310.39C954.17 307.621 940.842 299.663 931.385 287.946C921.927 276.23 916.96 261.524 917.375 246.472C917.791 231.421 923.563 217.011 933.653 205.834C943.743 194.658 957.489 187.448 972.42 185.5C973.761 185.238 974.971 184.524 975.85 183.478C976.729 182.432 977.223 181.116 977.25 179.75V128H776C769.9 128 764.05 130.423 759.737 134.737C755.423 139.05 753 144.9 753 151V191.25C753 192.775 753.606 194.238 754.684 195.316C755.763 196.394 757.225 197 758.75 197C772.475 197 785.638 202.452 795.343 212.157C805.048 221.862 810.5 235.025 810.5 248.75C810.5 262.475 805.048 275.638 795.343 285.343C785.638 295.048 772.475 300.5 758.75 300.5Z" fill="#CBF2EC"/>
<path d="M977.25 541.77C977.236 540.118 977.577 538.482 978.252 536.974C978.927 535.465 979.919 534.12 981.16 533.03C982.345 531.998 983.741 531.238 985.251 530.801C986.76 530.364 988.347 530.261 989.9 530.5C995.516 531.103 1001.2 530.517 1006.57 528.781C1011.95 527.044 1016.89 524.196 1021.1 520.422C1025.3 516.647 1028.66 512.03 1030.96 506.872C1033.26 501.713 1034.45 496.128 1034.45 490.48C1034.45 484.832 1033.26 479.247 1030.96 474.088C1028.66 468.93 1025.3 464.313 1021.1 460.538C1016.89 456.764 1011.95 453.916 1006.57 452.179C1001.2 450.443 995.516 449.857 989.9 450.46C986.664 450.749 983.444 449.758 980.93 447.7C979.689 446.61 978.697 445.264 978.022 443.756C977.347 442.248 977.006 440.612 977.02 438.96V392.5C977.02 389.45 975.808 386.525 973.652 384.368C971.495 382.212 968.57 381 965.52 381H951.95C949.391 380.987 946.904 381.845 944.897 383.434C942.891 385.022 941.484 387.246 940.91 389.74C937.702 403.686 929.859 416.132 918.663 425.045C907.468 433.957 893.58 438.81 879.27 438.81C864.96 438.81 851.072 433.957 839.877 425.045C828.681 416.132 820.838 403.686 817.63 389.74C817.056 387.246 815.649 385.022 813.643 383.434C811.636 381.845 809.149 380.987 806.59 381H764.5C761.45 381 758.525 382.212 756.368 384.368C754.212 386.525 753 389.45 753 392.5V432.75C753 434.275 752.394 435.738 751.316 436.816C750.238 437.894 748.775 438.5 747.25 438.5C733.525 438.5 720.362 443.952 710.657 453.657C700.952 463.362 695.5 476.525 695.5 490.25C695.5 503.975 700.952 517.138 710.657 526.843C720.362 536.548 733.525 542 747.25 542C748.773 542.048 750.234 542.616 751.39 543.61C752.384 544.765 752.952 546.227 753 547.75V588C753 594.1 755.423 599.95 759.737 604.263C764.05 608.577 769.9 611 776 611H977.25V541.77Z" fill="#FFECBC"/>
<path d="M1011.75 128C1008.7 128 1005.77 129.212 1003.62 131.368C1001.46 133.525 1000.25 136.45 1000.25 139.5V197.23C1000.26 198.882 999.923 200.518 999.248 202.026C998.573 203.534 997.581 204.88 996.34 205.97C995.131 207.048 993.704 207.852 992.156 208.328C990.608 208.804 988.976 208.941 987.37 208.73C981.754 208.127 976.074 208.713 970.7 210.449C965.325 212.186 960.376 215.034 956.174 218.808C951.973 222.583 948.612 227.2 946.312 232.358C944.012 237.517 942.823 243.102 942.823 248.75C942.823 254.398 944.012 259.983 946.312 265.142C948.612 270.3 951.973 274.917 956.174 278.692C960.376 282.466 965.325 285.314 970.7 287.051C976.074 288.787 981.754 289.373 987.37 288.77C988.94 288.562 990.537 288.701 992.047 289.178C993.557 289.655 994.944 290.458 996.11 291.53C997.351 292.62 998.343 293.966 999.018 295.474C999.693 296.982 1000.03 298.618 1000.02 300.27V346.27C1000.02 349.32 1001.23 352.245 1003.39 354.402C1005.54 356.558 1008.47 357.77 1011.52 357.77H1030.84C1033.4 357.783 1035.89 356.925 1037.89 355.336C1039.9 353.748 1041.31 351.524 1041.88 349.03C1045.09 335.084 1052.93 322.638 1064.13 313.725C1075.32 304.813 1089.21 299.96 1103.52 299.96C1117.83 299.96 1131.72 304.813 1142.91 313.725C1154.11 322.638 1161.95 335.084 1165.16 349.03C1165.73 351.524 1167.14 353.748 1169.15 355.336C1171.15 356.925 1173.64 357.783 1176.2 357.77H1213C1216.05 357.77 1218.98 356.558 1221.13 354.402C1223.29 352.245 1224.5 349.32 1224.5 346.27V151C1224.5 144.9 1222.08 139.05 1217.76 134.737C1213.45 130.423 1207.6 128 1201.5 128H1161.25C1159.73 128 1158.26 128.606 1157.18 129.684C1156.11 130.762 1155.5 132.225 1155.5 133.75C1155.5 147.475 1150.05 160.638 1140.34 170.343C1130.64 180.048 1117.47 185.5 1103.75 185.5C1090.03 185.5 1076.86 180.048 1067.16 170.343C1057.45 160.638 1052 147.475 1052 133.75C1051.95 132.227 1051.38 130.766 1050.39 129.61C1049.23 128.616 1047.77 128.048 1046.25 128H1011.75Z" fill="#E1D9FF"/>
<path d="M1155.27 381C1153.62 381.014 1151.98 380.673 1150.47 379.998C1148.97 379.323 1147.62 378.331 1146.53 377.09C1145.45 375.881 1144.65 374.454 1144.17 372.906C1143.7 371.358 1143.56 369.726 1143.77 368.12C1143.89 366.666 1143.89 365.204 1143.77 363.75C1143.77 353.075 1139.53 342.837 1131.98 335.289C1124.43 327.741 1114.19 323.5 1103.52 323.5C1092.84 323.5 1082.61 327.741 1075.06 335.289C1067.51 342.837 1063.27 353.075 1063.27 363.75C1063.15 365.204 1063.15 366.666 1063.27 368.12C1063.48 369.726 1063.34 371.358 1062.87 372.906C1062.39 374.454 1061.59 375.881 1060.51 377.09C1059.42 378.331 1058.07 379.323 1056.57 379.998C1055.06 380.673 1053.42 381.014 1051.77 381H1011.75C1008.7 381 1005.77 382.212 1003.62 384.368C1001.46 386.525 1000.25 389.45 1000.25 392.5V417.57C1000.24 420.129 1001.1 422.616 1002.68 424.623C1004.27 426.629 1006.5 428.036 1008.99 428.61C1022.94 431.818 1035.38 439.661 1044.29 450.857C1053.21 462.052 1058.06 475.94 1058.06 490.25C1058.06 504.56 1053.21 518.448 1044.29 529.643C1035.38 540.839 1022.94 548.682 1008.99 551.89C1006.5 552.464 1004.27 553.871 1002.68 555.877C1001.1 557.884 1000.24 560.371 1000.25 562.93V599.5C1000.25 602.55 1001.46 605.475 1003.62 607.632C1005.77 609.788 1008.7 611 1011.75 611H1201.5C1207.6 611 1213.45 608.577 1217.76 604.263C1222.08 599.95 1224.5 594.1 1224.5 588V392.5C1224.5 389.45 1223.29 386.525 1221.13 384.368C1218.97 382.212 1216.05 381 1213 381H1155.27Z" fill="url(#paint0_linear_102_21)"/>
<path fill-rule="evenodd" clip-rule="evenodd" d="M678.234 678.386C678.234 671.463 684.105 666.5 690.949 666.5C697.792 666.5 703.128 671.463 703.128 678.386C703.128 685.308 697.792 690.157 690.949 690.157C684.105 690.157 678.234 685.31 678.234 678.386ZM681.206 698.348H700.575V759.159H681.206V698.348ZM577.792 674.809H597.164V759.158H577.792V674.809ZM462.251 760.661C479.998 760.661 492.641 747.043 492.641 728.813C492.641 710.58 480.347 696.965 462.709 696.967C456.103 696.967 450.535 698.927 446.128 702.62V674.811H426.757V759.159H444.621V753.967C449.028 758.237 454.944 760.661 462.251 760.661ZM459.468 713.818C467.587 713.818 473.502 720.159 473.502 728.813C473.502 737.467 467.587 743.697 459.468 743.697C451.001 743.697 445.199 737.581 445.199 728.813C445.199 719.932 450.884 713.818 459.468 713.818ZM565.019 759.16V698.348H547.155V704.695C542.863 700.427 537.062 698.118 529.525 698.118C511.778 698.118 499.018 710.582 499.018 728.813C499.018 747.043 511.778 760.661 529.525 760.661C537.064 760.661 542.863 758.119 547.155 753.621V759.16H565.019ZM532.31 713.818C540.777 713.818 546.462 719.926 546.462 728.813C546.462 737.583 540.775 743.698 532.31 743.698C524.076 743.698 518.274 737.461 518.274 728.813C518.274 720.164 524.191 713.818 532.31 713.818ZM639.049 696.965C619.563 696.965 605.642 710.58 605.642 728.813C605.642 746.929 619.568 760.661 639.049 760.661C658.652 760.661 672.57 746.929 672.57 728.813C672.57 710.58 658.644 696.965 639.049 696.965ZM639.164 714.042C647.631 714.042 653.084 720.042 653.084 728.696C653.084 737.467 647.517 743.581 639.164 743.583C630.696 743.583 625.129 737.351 625.129 728.813C625.129 720.04 630.696 714.042 639.164 714.042ZM724.468 738.275L708.462 744.391C712.057 755.015 721.917 760.661 735.713 760.65C751.836 760.65 762.043 753.034 762.043 740.455C762.043 726.653 749.915 723.466 740.616 721.023C734.834 719.503 730.145 718.271 730.145 714.953C730.145 712.415 732.116 710.916 736.06 710.916C740.12 710.916 743.02 712.877 744.412 716.685L760.428 710.453C757.992 701.919 748.944 696.957 736.416 696.957C720.99 696.957 711.245 704.119 711.245 715.889C711.245 728.341 722.585 731.728 731.742 734.463C737.944 736.316 743.144 737.869 743.144 741.737C743.144 744.505 740.825 746.235 736.416 746.235C730.153 746.235 726.093 743.353 724.468 738.275ZM830.949 727.544C830.949 712.548 819.119 696.848 799.167 696.848C781.537 696.848 767.385 711.281 767.385 728.813C767.385 746.929 780.144 760.661 800.328 760.661C813.647 760.661 821.513 755.555 826.23 749.733L815.09 738.629C811.612 742.91 807.751 744.966 800.906 744.966C793.599 744.966 788.148 741.274 786.176 734.47H830.486C830.805 732.175 830.96 729.86 830.949 727.544ZM785.942 722.466C787.566 715.081 792.554 711.272 799.629 711.272C806.704 711.272 811.344 715.542 812.969 722.466H785.942ZM355.489 669.954L404.131 718.344C404.556 718.767 404.893 719.269 405.123 719.822C405.352 720.375 405.47 720.967 405.47 721.565C405.469 722.163 405.35 722.755 405.12 723.307C404.889 723.859 404.551 724.361 404.126 724.783L390.937 737.904L352.256 699.424L330.004 721.561L352.256 743.697L366.052 729.971L382.482 746.314L355.499 773.167C355.074 773.59 354.57 773.925 354.015 774.154C353.46 774.382 352.865 774.5 352.265 774.5C351.664 774.5 351.069 774.382 350.514 774.154C349.959 773.925 349.455 773.59 349.03 773.167L300.388 724.777C299.531 723.924 299.05 722.767 299.05 721.561C299.05 720.354 299.531 719.198 300.388 718.344L349.021 669.954C349.446 669.532 349.95 669.197 350.505 668.968C351.06 668.739 351.655 668.621 352.255 668.621C352.856 668.621 353.451 668.739 354.006 668.968C354.561 669.197 355.065 669.532 355.489 669.954Z" fill="white"/>
<path d="M920.854 713.528C916.262 704.456 907.638 698.856 896.774 698.856C880.086 698.856 867.878 711.96 867.878 729.432C867.878 747.016 880.086 760.232 896.774 760.232C907.862 760.232 916.598 754.408 921.078 745V759H926.342V677.128H920.854V713.528ZM897.222 755.192C883.558 755.192 873.478 744.216 873.478 729.432C873.478 714.872 883.67 703.784 897.222 703.784C911.222 703.784 920.966 714.312 920.966 729.432C920.966 744.552 911.11 755.192 897.222 755.192ZM997.066 731V728.088C997.066 711.624 985.754 698.856 969.29 698.856C952.938 698.856 940.394 712.184 940.394 729.544C940.394 747.128 952.602 760.232 969.514 760.232C983.066 760.232 991.914 754.072 995.946 743.768L991.466 741.192C988.106 750.6 980.826 755.08 969.626 755.08C956.298 755.08 946.778 745.336 946.106 731H997.066ZM946.218 726.408C947.45 712.968 956.634 703.672 969.402 703.672C982.17 703.672 990.906 712.744 991.578 726.408H946.218ZM1028.07 760.232C1040.95 760.232 1049.8 754.184 1049.8 743.656C1049.8 722.04 1013.51 730.104 1013.51 713.64C1013.51 707.256 1018.66 703.224 1027.62 703.224C1034.9 703.224 1040.05 706.136 1042.41 712.296L1047.22 710.392C1044.53 702.776 1037.59 698.856 1027.62 698.856C1015.86 698.856 1008.02 704.456 1008.02 713.976C1008.02 734.248 1044.31 726.744 1044.31 744.104C1044.31 751.496 1037.81 755.64 1028.18 755.64C1018.44 755.64 1012.05 751.608 1009.93 744.664L1005 746.68C1007.91 755.192 1016.2 760.232 1028.07 760.232ZM1065.68 687.768C1068.93 687.768 1071.39 685.528 1071.39 682.28C1071.39 679.032 1068.93 676.568 1065.68 676.568C1062.43 676.568 1059.97 679.032 1059.97 682.28C1059.97 685.528 1062.43 687.768 1065.68 687.768ZM1068.48 759V699.976H1062.99V759H1068.48ZM1135.78 714.2C1131.42 704.792 1122.68 698.856 1111.48 698.856C1094.9 698.856 1082.58 711.96 1082.58 729.096C1082.58 746.344 1094.79 759.336 1111.48 759.336C1122.68 759.336 1131.42 753.4 1135.78 743.992V752.392C1135.78 766.616 1126.6 775.464 1111.82 775.464C1100.28 775.464 1092.33 770.088 1089.19 760.008L1084.26 761.912C1088.07 773.56 1097.48 780.28 1111.7 780.28C1129.96 780.28 1141.05 769.304 1141.05 752.056V699.976H1135.78V714.2ZM1111.82 754.856C1098.26 754.856 1088.07 743.88 1088.07 729.32C1088.07 714.76 1098.38 703.784 1112.04 703.784C1125.82 703.784 1135.56 714.424 1135.56 729.32C1135.56 744.216 1125.7 754.856 1111.82 754.856ZM1186.12 698.744C1175.48 698.744 1167.76 704.344 1164.4 710.952V699.976H1159.13V759H1164.62V721.704C1164.84 712.632 1173.02 703.896 1185.12 703.784C1197.77 703.672 1205.05 711.4 1205.05 724.392V759H1210.65V723.496C1210.65 708.376 1201.8 698.744 1186.12 698.744ZM1272.41 760.232C1285.29 760.232 1294.14 754.184 1294.14 743.656C1294.14 722.04 1257.85 730.104 1257.85 713.64C1257.85 707.256 1263.01 703.224 1271.97 703.224C1279.25 703.224 1284.4 706.136 1286.75 712.296L1291.57 710.392C1288.88 702.776 1281.93 698.856 1271.97 698.856C1260.21 698.856 1252.37 704.456 1252.37 713.976C1252.37 734.248 1288.65 726.744 1288.65 744.104C1288.65 751.496 1282.16 755.64 1272.53 755.64C1262.78 755.64 1256.4 751.608 1254.27 744.664L1249.34 746.68C1252.25 755.192 1260.54 760.232 1272.41 760.232ZM1326.63 753.736L1304.34 699.976H1298.4L1323.38 759H1324.28L1315.65 779.048H1321.14L1355.19 699.976H1349.36L1326.63 753.736ZM1381.79 760.232C1394.67 760.232 1403.52 754.184 1403.52 743.656C1403.52 722.04 1367.23 730.104 1367.23 713.64C1367.23 707.256 1372.38 703.224 1381.34 703.224C1388.62 703.224 1393.77 706.136 1396.12 712.296L1400.94 710.392C1398.25 702.776 1391.31 698.856 1381.34 698.856C1369.58 698.856 1361.74 704.456 1361.74 713.976C1361.74 734.248 1398.03 726.744 1398.03 744.104C1398.03 751.496 1391.53 755.64 1381.9 755.64C1372.16 755.64 1365.77 751.608 1363.64 744.664L1358.72 746.68C1361.63 755.192 1369.92 760.232 1381.79 760.232ZM1445.4 759V754.072H1438.12C1429.61 754.072 1424.91 748.92 1424.91 739.96V704.904H1444.39V699.976H1425.02V685.08H1419.75V695.048C1419.75 698.408 1418.3 699.976 1414.94 699.976H1408.22V704.904H1419.31V740.408C1419.31 751.944 1425.8 759 1437.34 759H1445.4ZM1505.66 731V728.088C1505.66 711.624 1494.35 698.856 1477.88 698.856C1461.53 698.856 1448.99 712.184 1448.99 729.544C1448.99 747.128 1461.2 760.232 1478.11 760.232C1491.66 760.232 1500.51 754.072 1504.54 743.768L1500.06 741.192C1496.7 750.6 1489.42 755.08 1478.22 755.08C1464.89 755.08 1455.37 745.336 1454.7 731H1505.66ZM1454.81 726.408C1456.04 712.968 1465.23 703.672 1478 703.672C1490.76 703.672 1499.5 712.744 1500.17 726.408H1454.81ZM1588.85 698.744C1577.32 698.744 1569.48 706.024 1566.9 712.968C1563.76 704.12 1556.37 698.744 1545.4 698.744C1535.2 698.744 1527.81 704.568 1524.68 710.84V699.976H1519.41V759H1524.9V720.696C1525.12 712.744 1532.85 703.896 1544.28 703.784C1555.7 703.672 1563.09 711.736 1563.09 723.608V759H1568.58V720.696C1568.8 712.744 1576.53 703.896 1587.96 703.784C1599.38 703.672 1606.77 711.736 1606.77 723.608V759H1612.26V722.824C1612.26 708.6 1603.41 698.744 1588.85 698.744Z" fill="white"/>
<defs>
<linearGradient id="paint0_linear_102_21" x1="1060" y1="376" x2="1225" y2="618.5" gradientUnits="userSpaceOnUse">
<stop stop-color="#FF5970"/>
<stop offset="1" stop-color="#D9304C"/>
</linearGradient>
</defs>
</svg>
