<svg width="1920" height="926" viewBox="0 0 1920 926" fill="none" xmlns="http://www.w3.org/2000/svg">
<rect width="1920" height="926" rx="12" fill="#000C6E"/>
<path d="M758.75 300.5C757.986 300.467 757.224 300.594 756.512 300.871C755.799 301.149 755.152 301.571 754.612 302.112C754.071 302.652 753.649 303.299 753.371 304.012C753.094 304.724 752.968 305.486 753 306.25V346.5C753 349.55 754.212 352.475 756.368 354.632C758.525 356.788 761.45 358 764.5 358H827.98C829.632 357.986 831.268 358.327 832.776 359.002C834.285 359.677 835.63 360.669 836.72 361.91C837.798 363.119 838.602 364.546 839.078 366.094C839.555 367.642 839.692 369.274 839.48 370.88C839.36 372.334 839.36 373.796 839.48 375.25C839.48 385.925 843.721 396.163 851.269 403.711C858.817 411.259 869.055 415.5 879.73 415.5C890.405 415.5 900.643 411.259 908.191 403.711C915.74 396.163 919.98 385.925 919.98 375.25C920.101 373.796 920.101 372.334 919.98 370.88C919.769 369.274 919.906 367.642 920.382 366.094C920.858 364.546 921.663 363.119 922.74 361.91C923.831 360.669 925.176 359.677 926.684 359.002C928.192 358.327 929.828 357.986 931.48 358H966.21C969.26 358 972.185 356.788 974.342 354.632C976.499 352.475 977.71 349.55 977.71 346.5V321.43C977.723 318.871 976.865 316.384 975.276 314.377C973.688 312.371 971.464 310.964 968.97 310.39C954.17 307.621 940.842 299.663 931.385 287.946C921.927 276.23 916.96 261.524 917.375 246.472C917.791 231.421 923.563 217.011 933.653 205.834C943.743 194.658 957.489 187.448 972.42 185.5C973.761 185.238 974.971 184.524 975.85 183.478C976.729 182.432 977.223 181.116 977.25 179.75V128H776C769.9 128 764.05 130.423 759.737 134.737C755.423 139.05 753 144.9 753 151V191.25C753 192.775 753.606 194.238 754.684 195.316C755.763 196.394 757.225 197 758.75 197C772.475 197 785.638 202.452 795.343 212.157C805.048 221.862 810.5 235.025 810.5 248.75C810.5 262.475 805.048 275.638 795.343 285.343C785.638 295.048 772.475 300.5 758.75 300.5Z" fill="#CBF2EC"/>
<path d="M977.25 541.77C977.236 540.118 977.577 538.482 978.252 536.974C978.927 535.466 979.919 534.121 981.16 533.03C982.345 531.999 983.741 531.238 985.251 530.801C986.76 530.364 988.347 530.261 989.9 530.5C995.516 531.103 1001.2 530.517 1006.57 528.781C1011.95 527.045 1016.89 524.196 1021.1 520.422C1025.3 516.647 1028.66 512.03 1030.96 506.872C1033.26 501.713 1034.45 496.128 1034.45 490.48C1034.45 484.832 1033.26 479.247 1030.96 474.088C1028.66 468.93 1025.3 464.313 1021.1 460.538C1016.89 456.764 1011.95 453.916 1006.57 452.179C1001.2 450.443 995.516 449.857 989.9 450.46C986.664 450.749 983.444 449.758 980.93 447.7C979.689 446.61 978.697 445.265 978.022 443.756C977.347 442.248 977.006 440.612 977.02 438.96V392.5C977.02 389.45 975.808 386.525 973.652 384.368C971.495 382.212 968.57 381 965.52 381H951.95C949.391 380.987 946.904 381.845 944.897 383.434C942.891 385.022 941.484 387.246 940.91 389.74C937.702 403.686 929.859 416.132 918.663 425.045C907.468 433.957 893.58 438.81 879.27 438.81C864.96 438.81 851.072 433.957 839.877 425.045C828.681 416.132 820.838 403.686 817.63 389.74C817.056 387.246 815.649 385.022 813.643 383.434C811.636 381.845 809.149 380.987 806.59 381H764.5C761.45 381 758.525 382.212 756.368 384.368C754.212 386.525 753 389.45 753 392.5V432.75C753 434.275 752.394 435.738 751.316 436.816C750.238 437.894 748.775 438.5 747.25 438.5C733.525 438.5 720.362 443.952 710.657 453.657C700.952 463.362 695.5 476.525 695.5 490.25C695.5 503.975 700.952 517.138 710.657 526.843C720.362 536.548 733.525 542 747.25 542C748.773 542.048 750.234 542.616 751.39 543.61C752.384 544.766 752.952 546.227 753 547.75V588C753 594.1 755.423 599.95 759.737 604.264C764.05 608.577 769.9 611 776 611H977.25V541.77Z" fill="#FFECBC"/>
<path d="M1011.75 128C1008.7 128 1005.77 129.212 1003.62 131.368C1001.46 133.525 1000.25 136.45 1000.25 139.5V197.23C1000.26 198.882 999.923 200.518 999.248 202.026C998.573 203.534 997.581 204.88 996.34 205.97C995.131 207.048 993.704 207.852 992.156 208.328C990.608 208.804 988.976 208.941 987.37 208.73C981.754 208.127 976.074 208.713 970.7 210.449C965.325 212.186 960.376 215.034 956.174 218.808C951.973 222.583 948.612 227.2 946.312 232.358C944.012 237.517 942.823 243.102 942.823 248.75C942.823 254.398 944.012 259.983 946.312 265.142C948.612 270.3 951.973 274.917 956.174 278.692C960.376 282.466 965.325 285.314 970.7 287.051C976.074 288.787 981.754 289.373 987.37 288.77C988.94 288.562 990.537 288.701 992.047 289.178C993.557 289.655 994.944 290.458 996.11 291.53C997.351 292.62 998.343 293.966 999.018 295.474C999.693 296.982 1000.03 298.618 1000.02 300.27V346.27C1000.02 349.32 1001.23 352.245 1003.39 354.402C1005.54 356.558 1008.47 357.77 1011.52 357.77H1030.84C1033.4 357.783 1035.89 356.925 1037.89 355.336C1039.9 353.748 1041.31 351.524 1041.88 349.03C1045.09 335.084 1052.93 322.638 1064.13 313.725C1075.32 304.813 1089.21 299.96 1103.52 299.96C1117.83 299.96 1131.72 304.813 1142.91 313.725C1154.11 322.638 1161.95 335.084 1165.16 349.03C1165.73 351.524 1167.14 353.748 1169.15 355.336C1171.15 356.925 1173.64 357.783 1176.2 357.77H1213C1216.05 357.77 1218.98 356.558 1221.13 354.402C1223.29 352.245 1224.5 349.32 1224.5 346.27V151C1224.5 144.9 1222.08 139.05 1217.76 134.737C1213.45 130.423 1207.6 128 1201.5 128H1161.25C1159.73 128 1158.26 128.606 1157.18 129.684C1156.11 130.762 1155.5 132.225 1155.5 133.75C1155.5 147.475 1150.05 160.638 1140.34 170.343C1130.64 180.048 1117.47 185.5 1103.75 185.5C1090.03 185.5 1076.86 180.048 1067.16 170.343C1057.45 160.638 1052 147.475 1052 133.75C1051.95 132.227 1051.38 130.766 1050.39 129.61C1049.23 128.616 1047.77 128.048 1046.25 128H1011.75Z" fill="#E1D9FF"/>
<path d="M1155.27 381C1153.62 381.014 1151.98 380.673 1150.47 379.998C1148.97 379.323 1147.62 378.331 1146.53 377.09C1145.45 375.881 1144.65 374.454 1144.17 372.906C1143.7 371.358 1143.56 369.726 1143.77 368.12C1143.89 366.666 1143.89 365.204 1143.77 363.75C1143.77 353.075 1139.53 342.837 1131.98 335.289C1124.43 327.741 1114.2 323.5 1103.52 323.5C1092.85 323.5 1082.61 327.741 1075.06 335.289C1067.51 342.837 1063.27 353.075 1063.27 363.75C1063.15 365.204 1063.15 366.666 1063.27 368.12C1063.48 369.726 1063.34 371.358 1062.87 372.906C1062.39 374.454 1061.59 375.881 1060.51 377.09C1059.42 378.331 1058.07 379.323 1056.57 379.998C1055.06 380.673 1053.42 381.014 1051.77 381H1011.75C1008.7 381 1005.78 382.212 1003.62 384.368C1001.46 386.525 1000.25 389.45 1000.25 392.5V417.57C1000.24 420.129 1001.1 422.616 1002.68 424.623C1004.27 426.629 1006.5 428.036 1008.99 428.61C1022.94 431.818 1035.38 439.661 1044.29 450.857C1053.21 462.052 1058.06 475.94 1058.06 490.25C1058.06 504.56 1053.21 518.448 1044.29 529.643C1035.38 540.839 1022.94 548.682 1008.99 551.89C1006.5 552.464 1004.27 553.871 1002.68 555.877C1001.1 557.884 1000.24 560.371 1000.25 562.93V599.5C1000.25 602.55 1001.46 605.475 1003.62 607.632C1005.78 609.788 1008.7 611 1011.75 611H1201.5C1207.6 611 1213.45 608.577 1217.76 604.263C1222.08 599.95 1224.5 594.1 1224.5 588V392.5C1224.5 389.45 1223.29 386.525 1221.13 384.368C1218.98 382.212 1216.05 381 1213 381H1155.27Z" fill="url(#paint0_linear_102_21)"/>
<g clip-path="url(#clip0_102_21)">
<path d="M279.832 718.34C278.056 720.119 278.056 722.999 279.832 724.772L328.151 773.166C329.927 774.945 332.803 774.945 334.574 773.166L361.384 746.314L345.066 729.971L331.36 743.699L309.259 721.564L331.36 699.429L369.784 737.912L382.893 724.783C384.669 723.004 384.669 720.124 382.893 718.351L334.574 669.952C332.798 668.173 329.922 668.173 328.151 669.952L279.832 718.34ZM464.672 720.489V759.168H445.421V724.301C445.421 717.721 440.928 713.909 435.161 713.909C429.394 713.909 424.668 718.065 424.668 723.608V759.168H405.416V674.769H424.668V702.246C428.817 698.9 434.352 696.819 441.039 696.819C455.332 696.819 464.672 706.518 464.672 720.489ZM491.646 734.461C493.608 741.274 499.026 744.969 506.289 744.969C513.092 744.969 516.432 742.661 518.853 738.622L533.263 748.204C528.421 754.552 520.815 760.672 505.712 760.672C485.652 760.672 472.976 746.934 472.976 728.806C472.976 710.679 487.042 696.825 504.56 696.825C524.388 696.825 536.144 712.527 536.144 727.536C536.144 730.538 535.911 732.846 535.684 734.461H491.646ZM518.272 722.454C516.66 715.529 512.045 711.256 505.015 711.256C497.984 711.256 493.026 715.068 491.414 722.454H518.272ZM544.897 759.168V674.769H564.149V759.168H544.897ZM616.02 698.323H635.848L614.292 759.168H591.81L570.254 698.323H590.082L602.99 740.231L616.015 698.323H616.02ZM654.983 734.461C656.944 741.274 662.362 744.969 669.625 744.969C676.428 744.969 679.769 742.661 682.19 738.622L696.6 748.204C691.758 754.552 684.151 760.672 669.049 760.672C648.989 760.672 636.313 746.934 636.313 728.806C636.313 710.679 650.379 696.825 667.897 696.825C687.725 696.825 699.481 712.527 699.481 727.536C699.481 730.538 699.248 732.846 699.021 734.461H654.983ZM681.609 722.454C679.996 715.529 675.382 711.256 668.351 711.256C661.321 711.256 656.363 715.068 654.751 722.454H681.609ZM737.17 759.168C721.491 759.168 713.536 749.819 713.536 735.731V714.719H703.392V698.323H708.234C712.5 698.323 714.688 696.015 714.688 691.509V682.16H733.364V698.323H747.197V714.719H732.671V733.423C732.671 739.31 735.785 742.428 741.203 742.428H747.541V759.168H737.164H737.17ZM755.612 678.391C755.612 671.577 760.914 666.5 767.717 666.5C774.52 666.5 779.822 671.582 779.822 678.391C779.822 685.199 774.52 690.165 767.717 690.165C760.914 690.165 755.612 685.315 755.612 678.391ZM758.033 759.168V698.323H777.285V759.168H758.033ZM833.75 698.323H851.5V759.168H833.75V753.625C829.484 758.125 823.722 760.666 816.227 760.666C798.587 760.666 785.912 747.045 785.912 728.801C785.912 710.558 798.593 698.09 816.227 698.09C823.722 698.09 829.484 700.398 833.75 704.671V698.323ZM833.057 728.801C833.057 719.912 827.406 713.792 818.991 713.792C810.576 713.792 805.042 720.14 805.042 728.801C805.042 737.462 810.803 743.694 818.991 743.694C827.179 743.694 833.057 737.574 833.057 728.801Z" fill="white"/>
</g>
<path d="M941.404 713.528C936.812 704.456 928.188 698.856 917.324 698.856C900.636 698.856 888.428 711.96 888.428 729.432C888.428 747.016 900.636 760.232 917.324 760.232C928.412 760.232 937.148 754.408 941.628 745V759H946.892V677.128H941.404V713.528ZM917.772 755.192C904.108 755.192 894.028 744.216 894.028 729.432C894.028 714.872 904.22 703.784 917.772 703.784C931.772 703.784 941.516 714.312 941.516 729.432C941.516 744.552 931.66 755.192 917.772 755.192ZM1017.62 731V728.088C1017.62 711.624 1006.3 698.856 989.84 698.856C973.488 698.856 960.944 712.184 960.944 729.544C960.944 747.128 973.152 760.232 990.064 760.232C1003.62 760.232 1012.46 754.072 1016.5 743.768L1012.02 741.192C1008.66 750.6 1001.38 755.08 990.176 755.08C976.848 755.08 967.328 745.336 966.656 731H1017.62ZM966.768 726.408C968 712.968 977.184 703.672 989.952 703.672C1002.72 703.672 1011.46 712.744 1012.13 726.408H966.768ZM1048.62 760.232C1061.5 760.232 1070.35 754.184 1070.35 743.656C1070.35 722.04 1034.06 730.104 1034.06 713.64C1034.06 707.256 1039.21 703.224 1048.17 703.224C1055.45 703.224 1060.6 706.136 1062.96 712.296L1067.77 710.392C1065.08 702.776 1058.14 698.856 1048.17 698.856C1036.41 698.856 1028.57 704.456 1028.57 713.976C1028.57 734.248 1064.86 726.744 1064.86 744.104C1064.86 751.496 1058.36 755.64 1048.73 755.64C1038.99 755.64 1032.6 751.608 1030.48 744.664L1025.55 746.68C1028.46 755.192 1036.75 760.232 1048.62 760.232ZM1086.23 687.768C1089.48 687.768 1091.94 685.528 1091.94 682.28C1091.94 679.032 1089.48 676.568 1086.23 676.568C1082.98 676.568 1080.52 679.032 1080.52 682.28C1080.52 685.528 1082.98 687.768 1086.23 687.768ZM1089.03 759V699.976H1083.54V759H1089.03ZM1156.33 714.2C1151.97 704.792 1143.23 698.856 1132.03 698.856C1115.45 698.856 1103.13 711.96 1103.13 729.096C1103.13 746.344 1115.34 759.336 1132.03 759.336C1143.23 759.336 1151.97 753.4 1156.33 743.992V752.392C1156.33 766.616 1147.15 775.464 1132.37 775.464C1120.83 775.464 1112.88 770.088 1109.74 760.008L1104.81 761.912C1108.62 773.56 1118.03 780.28 1132.25 780.28C1150.51 780.28 1161.6 769.304 1161.6 752.056V699.976H1156.33V714.2ZM1132.37 754.856C1118.81 754.856 1108.62 743.88 1108.62 729.32C1108.62 714.76 1118.93 703.784 1132.59 703.784C1146.37 703.784 1156.11 714.424 1156.11 729.32C1156.11 744.216 1146.25 754.856 1132.37 754.856ZM1206.67 698.744C1196.03 698.744 1188.31 704.344 1184.95 710.952V699.976H1179.68V759H1185.17V721.704C1185.39 712.632 1193.57 703.896 1205.67 703.784C1218.32 703.672 1225.6 711.4 1225.6 724.392V759H1231.2V723.496C1231.2 708.376 1222.35 698.744 1206.67 698.744ZM1292.96 760.232C1305.84 760.232 1314.69 754.184 1314.69 743.656C1314.69 722.04 1278.4 730.104 1278.4 713.64C1278.4 707.256 1283.56 703.224 1292.52 703.224C1299.8 703.224 1304.95 706.136 1307.3 712.296L1312.12 710.392C1309.43 702.776 1302.48 698.856 1292.52 698.856C1280.76 698.856 1272.92 704.456 1272.92 713.976C1272.92 734.248 1309.2 726.744 1309.2 744.104C1309.2 751.496 1302.71 755.64 1293.08 755.64C1283.33 755.64 1276.95 751.608 1274.82 744.664L1269.89 746.68C1272.8 755.192 1281.09 760.232 1292.96 760.232ZM1347.18 753.736L1324.89 699.976H1318.95L1343.93 759H1344.83L1336.2 779.048H1341.69L1375.74 699.976H1369.91L1347.18 753.736ZM1402.34 760.232C1415.22 760.232 1424.07 754.184 1424.07 743.656C1424.07 722.04 1387.78 730.104 1387.78 713.64C1387.78 707.256 1392.93 703.224 1401.89 703.224C1409.17 703.224 1414.32 706.136 1416.67 712.296L1421.49 710.392C1418.8 702.776 1411.86 698.856 1401.89 698.856C1390.13 698.856 1382.29 704.456 1382.29 713.976C1382.29 734.248 1418.58 726.744 1418.58 744.104C1418.58 751.496 1412.08 755.64 1402.45 755.64C1392.71 755.64 1386.32 751.608 1384.19 744.664L1379.27 746.68C1382.18 755.192 1390.47 760.232 1402.34 760.232ZM1465.95 759V754.072H1458.67C1450.16 754.072 1445.46 748.92 1445.46 739.96V704.904H1464.94V699.976H1445.57V685.08H1440.3V695.048C1440.3 698.408 1438.85 699.976 1435.49 699.976H1428.77V704.904H1439.86V740.408C1439.86 751.944 1446.35 759 1457.89 759H1465.95ZM1526.21 731V728.088C1526.21 711.624 1514.9 698.856 1498.43 698.856C1482.08 698.856 1469.54 712.184 1469.54 729.544C1469.54 747.128 1481.75 760.232 1498.66 760.232C1512.21 760.232 1521.06 754.072 1525.09 743.768L1520.61 741.192C1517.25 750.6 1509.97 755.08 1498.77 755.08C1485.44 755.08 1475.92 745.336 1475.25 731H1526.21ZM1475.36 726.408C1476.59 712.968 1485.78 703.672 1498.55 703.672C1511.31 703.672 1520.05 712.744 1520.72 726.408H1475.36ZM1609.4 698.744C1597.87 698.744 1590.03 706.024 1587.45 712.968C1584.31 704.12 1576.92 698.744 1565.95 698.744C1555.75 698.744 1548.36 704.568 1545.23 710.84V699.976H1539.96V759H1545.45V720.696C1545.67 712.744 1553.4 703.896 1564.83 703.784C1576.25 703.672 1583.64 711.736 1583.64 723.608V759H1589.13V720.696C1589.35 712.744 1597.08 703.896 1608.51 703.784C1619.93 703.672 1627.32 711.736 1627.32 723.608V759H1632.81V722.824C1632.81 708.6 1623.96 698.744 1609.4 698.744Z" fill="white"/>
<defs>
<linearGradient id="paint0_linear_102_21" x1="1060" y1="376" x2="1225" y2="618.5" gradientUnits="userSpaceOnUse">
<stop stop-color="#FF5970"/>
<stop offset="1" stop-color="#D9304C"/>
</linearGradient>
<clipPath id="clip0_102_21">
<rect width="573" height="108" fill="white" transform="translate(278.5 666.5)"/>
</clipPath>
</defs>
</svg>
