<svg width="1920" height="1080" viewBox="0 0 1920 1080" fill="none" xmlns="http://www.w3.org/2000/svg">
<rect width="1920" height="1080" rx="32" fill="#F5F5F6"/>
<path d="M370 68C370 65.2386 372.239 63 375 63H524C526.761 63 529 65.2386 529 68V108C529 110.761 526.761 113 524 113H375C372.239 113 370 110.761 370 108V68Z" fill="#009EE6"/>
<path d="M412.176 92L411.2 80.928H408.752L407.008 87.232C406.8 88 406.656 88.752 406.608 89.088C406.544 88.752 406.448 88.128 406.192 87.2L404.496 80.928H402.048L401.04 92H402.848L403.328 85.312C403.376 84.624 403.44 83.568 403.44 83.2C403.504 83.568 403.712 84.56 403.92 85.296L405.76 92H407.328L409.344 84.992C409.552 84.288 409.696 83.584 409.776 83.216C409.776 83.552 409.808 84.432 409.856 85.136L410.368 92H412.176ZM420.869 91.216C420.245 90.784 420.149 90.432 420.165 89.344L420.197 87.024C420.213 85.824 420.213 85.392 420.069 85.04C419.717 84.16 418.869 83.696 417.605 83.696C416.389 83.696 415.381 84.032 414.165 84.8L414.949 86.064C414.949 86.064 416.197 85.136 417.365 85.136C418.325 85.136 418.485 85.632 418.485 86.56V86.992H417.941C415.349 86.992 413.941 87.936 413.941 89.808C413.941 91.216 414.773 92.24 416.629 92.24C417.493 92.24 418.197 91.984 418.853 91.248C419.045 91.76 419.461 92.144 419.957 92.336L420.869 91.216ZM418.453 88.192L418.421 90.112C418.069 90.624 417.525 90.96 416.965 90.96C416.261 90.96 415.845 90.48 415.845 89.712C415.845 88.688 416.373 88.176 418.133 88.176C418.261 88.176 418.453 88.192 418.453 88.192ZM428.415 89.472C428.415 88.528 427.983 87.632 426.351 87.216L425.343 86.96C424.527 86.752 424.255 86.496 424.255 86C424.255 85.376 424.735 84.96 425.487 84.96C426.127 84.96 426.719 85.152 427.471 85.552L428.047 84.336C427.359 83.968 426.479 83.632 425.375 83.632C423.583 83.632 422.367 84.688 422.367 86.208C422.367 87.344 423.087 88.176 424.303 88.432L425.279 88.64C426.191 88.832 426.591 89.152 426.591 89.776C426.591 90.448 426.047 90.912 425.279 90.912C424.367 90.912 423.375 90.48 422.655 90.064L422.031 91.328C423.071 91.904 424.143 92.224 425.135 92.224C427.087 92.224 428.415 91.104 428.415 89.472ZM434.119 91.856L433.895 90.8C433.591 90.912 433.383 90.96 433.143 90.96C432.375 90.96 432.151 90.672 432.151 89.664V85.12H433.639L434.103 83.904H432.167C432.167 83.104 432.231 82.128 432.311 81.472L430.503 81.904C430.423 82.512 430.423 83.216 430.423 83.904H429.527V85.12H430.423V90.128C430.423 91.28 430.967 92.208 432.535 92.208C433.079 92.208 433.591 92.096 434.119 91.856ZM442.086 88.432V88.064C442.086 86.176 441.734 85.184 441.03 84.544C440.342 83.92 439.606 83.712 438.806 83.712C437.782 83.712 436.982 84.048 436.326 84.8C435.622 85.6 435.318 86.544 435.318 87.968C435.318 90.56 436.758 92.208 439.046 92.208C440.134 92.208 441.11 91.856 441.958 91.136L441.27 90.064C440.662 90.592 440.006 90.864 439.254 90.864C437.67 90.864 437.254 89.68 437.254 88.56V88.432H442.086ZM440.262 87.136H437.27C437.27 85.824 437.814 85.04 438.806 85.04C439.686 85.04 440.262 85.824 440.262 87.136ZM448.493 83.808C448.285 83.712 448.125 83.68 447.869 83.68C447.085 83.68 446.445 84.096 445.805 84.976C445.805 84.528 445.693 84.064 445.501 83.696L443.885 84.112C444.061 84.608 444.173 85.264 444.173 86.288V92H445.933V86.528C446.093 85.872 446.717 85.328 447.453 85.328C447.645 85.328 447.773 85.376 447.949 85.44L448.493 83.808ZM460.896 88.864C460.896 87.76 460.384 86.512 458.544 86.064C459.776 85.712 460.448 84.832 460.448 83.648C460.448 82.72 460.032 82 459.2 81.472C458.512 81.04 457.936 80.928 456.288 80.928H453.36V92H456.576C459.376 92 460.896 91.056 460.896 88.864ZM458.864 88.688C458.864 89.68 458.256 90.48 456.848 90.48H455.184V86.976H456.8C457.328 86.976 457.552 86.992 457.824 87.072C458.432 87.248 458.864 87.904 458.864 88.688ZM458.512 83.936C458.512 84.224 458.416 84.688 458.08 85.04C457.728 85.408 457.392 85.456 456.72 85.456H455.152V82.432H456.576C457.104 82.432 457.392 82.48 457.616 82.56C458.144 82.752 458.512 83.296 458.512 83.936ZM469.671 91.424C469.671 91.424 469.175 91.024 469.175 89.808V83.712L467.479 84.032V89.824C467.207 90.4 466.487 90.88 465.895 90.88C464.855 90.88 464.711 90.144 464.711 89.136V83.712L462.983 84.032V89.52C462.983 90.528 463.111 91.056 463.431 91.44C463.831 91.92 464.535 92.24 465.447 92.24C466.375 92.24 467.159 91.92 467.751 91.248C467.895 91.712 468.103 92 468.455 92.256L469.671 91.424ZM475.587 91.856L475.363 90.8C475.059 90.912 474.851 90.96 474.611 90.96C473.843 90.96 473.619 90.672 473.619 89.664V85.12H475.107L475.571 83.904H473.635C473.635 83.104 473.699 82.128 473.779 81.472L471.971 81.904C471.891 82.512 471.891 83.216 471.891 83.904H470.995V85.12H471.891V90.128C471.891 91.28 472.435 92.208 474.003 92.208C474.547 92.208 475.059 92.096 475.587 91.856ZM481.04 91.856L480.816 90.8C480.512 90.912 480.304 90.96 480.064 90.96C479.296 90.96 479.072 90.672 479.072 89.664V85.12H480.56L481.024 83.904H479.088C479.088 83.104 479.152 82.128 479.232 81.472L477.424 81.904C477.344 82.512 477.344 83.216 477.344 83.904H476.448V85.12H477.344V90.128C477.344 91.28 477.888 92.208 479.456 92.208C480 92.208 480.512 92.096 481.04 91.856ZM489.311 87.984C489.311 85.424 487.999 83.712 485.695 83.712C483.551 83.712 482.159 85.376 482.159 87.968C482.159 90.56 483.535 92.208 485.727 92.208C487.919 92.208 489.311 90.592 489.311 87.984ZM487.375 88.016C487.375 90.048 486.799 90.896 485.759 90.896C484.703 90.896 484.111 90.208 484.111 87.856C484.111 85.888 484.591 85.04 485.711 85.04C486.735 85.04 487.375 85.728 487.375 88.016ZM497.645 92V85.952C497.645 84.464 496.781 83.712 495.533 83.712C494.669 83.712 493.917 84.096 493.053 84.832C493.053 84.4 492.957 84.048 492.765 83.68L491.165 84.128C491.389 84.704 491.469 85.2 491.469 86.048V92H493.197V86.128C493.725 85.6 494.461 85.216 494.973 85.216C495.645 85.216 495.901 85.52 495.901 86.624V92H497.645Z" fill="white"/>
<rect x="356.5" y="51.5" width="187" height="73" stroke="#FF3366" stroke-width="3"/>
<rect x="343" y="36" width="28" height="28" fill="#FAFAFA"/>
<path d="M346 50C346 43.9249 350.925 39 357 39C363.075 39 368 43.9249 368 50V61H357C350.925 61 346 56.0751 346 50Z" fill="#F0FBFF" stroke="#FF3366" stroke-width="2"/>
<path d="M348.5 50C348.5 45.3056 352.306 41.5 357 41.5C361.694 41.5 365.5 45.3056 365.5 50V58.5H357C352.306 58.5 348.5 54.6944 348.5 50Z" fill="#F0FBFF" stroke="#FF3366"/>
<path d="M351.5 50C351.5 46.9624 353.962 44.5 357 44.5C360.038 44.5 362.5 46.9624 362.5 50V55.5H357C353.962 55.5 351.5 53.0376 351.5 50Z" fill="#F0FBFF" stroke="#FF3366"/>
<g filter="url(#filter0_d)">
<rect x="358" y="248" width="557" height="478" fill="#F0FBFF"/>
</g>
<g filter="url(#filter1_d)">
<rect x="1020" y="248" width="557" height="421" fill="#F0FBFF"/>
</g>
<rect x="357" y="248" width="558" height="64" fill="#003399"/>
<rect x="1019" y="248" width="558" height="64" fill="#003399"/>
<path d="M401.056 272.928H399.136L398.08 277.952C397.808 279.216 397.44 281.552 397.44 281.552H397.392C397.392 281.552 397.12 279.744 396.848 278.432L395.696 272.928H393.632L392.48 278.208C392.192 279.552 391.872 281.632 391.872 281.632H391.824C391.824 281.632 391.616 279.872 391.232 278.08L390.128 272.928H388.16L390.8 284.064H392.96L394.032 278.88C394.304 277.536 394.592 275.728 394.592 275.728H394.64C394.64 275.728 394.816 277.264 395.184 278.928L396.32 284.064H398.432L401.056 272.928ZM408.382 280.432V280.064C408.382 278.176 408.03 277.184 407.326 276.544C406.638 275.92 405.902 275.712 405.102 275.712C404.078 275.712 403.278 276.048 402.622 276.8C401.918 277.6 401.614 278.544 401.614 279.968C401.614 282.56 403.054 284.208 405.342 284.208C406.43 284.208 407.406 283.856 408.254 283.136L407.566 282.064C406.958 282.592 406.302 282.864 405.55 282.864C403.966 282.864 403.55 281.68 403.55 280.56V280.432H408.382ZM406.558 279.136H403.566C403.566 277.824 404.11 277.04 405.102 277.04C405.982 277.04 406.558 277.824 406.558 279.136ZM417.223 279.824C417.223 277.296 416.007 275.712 414.071 275.712C413.303 275.712 412.711 275.952 412.151 276.496L412.087 276.48C412.087 276.48 412.135 276.24 412.135 275.712V273.824C412.135 273.184 412.103 272.784 412.007 272.208L410.183 272.608C410.327 273.056 410.391 273.632 410.391 274.56V282.192C410.391 283.28 410.327 283.632 410.183 284H411.799C411.927 283.776 411.943 283.664 412.023 283.248C412.519 283.856 413.191 284.176 413.991 284.176C415.879 284.176 417.223 282.416 417.223 279.824ZM415.239 279.84C415.239 281.872 414.759 282.672 413.655 282.672C413.015 282.672 412.503 282.336 412.151 281.968V278.016C412.471 277.616 412.951 277.2 413.687 277.2C414.951 277.2 415.239 278.384 415.239 279.84ZM424.977 281.472C424.977 280.528 424.545 279.632 422.913 279.216L421.905 278.96C421.089 278.752 420.817 278.496 420.817 278C420.817 277.376 421.297 276.96 422.049 276.96C422.689 276.96 423.281 277.152 424.033 277.552L424.609 276.336C423.921 275.968 423.041 275.632 421.937 275.632C420.145 275.632 418.929 276.688 418.929 278.208C418.929 279.344 419.649 280.176 420.865 280.432L421.841 280.64C422.753 280.832 423.153 281.152 423.153 281.776C423.153 282.448 422.609 282.912 421.841 282.912C420.929 282.912 419.937 282.48 419.217 282.064L418.593 283.328C419.633 283.904 420.705 284.224 421.697 284.224C423.649 284.224 424.977 283.104 424.977 281.472ZM428.683 284V275.712L426.907 276.032V284H428.683ZM428.971 273.536C428.971 272.864 428.443 272.352 427.819 272.352C427.163 272.352 426.651 272.88 426.651 273.536C426.651 274.176 427.147 274.704 427.787 274.704C428.443 274.704 428.971 274.176 428.971 273.536ZM435.103 283.856L434.879 282.8C434.575 282.912 434.367 282.96 434.127 282.96C433.359 282.96 433.135 282.672 433.135 281.664V277.12H434.623L435.087 275.904H433.151C433.151 275.104 433.215 274.128 433.295 273.472L431.487 273.904C431.407 274.512 431.407 275.216 431.407 275.904H430.511V277.12H431.407V282.128C431.407 283.28 431.951 284.208 433.519 284.208C434.063 284.208 434.575 284.096 435.103 283.856ZM443.07 280.432V280.064C443.07 278.176 442.718 277.184 442.014 276.544C441.326 275.92 440.59 275.712 439.79 275.712C438.766 275.712 437.966 276.048 437.31 276.8C436.606 277.6 436.302 278.544 436.302 279.968C436.302 282.56 437.742 284.208 440.03 284.208C441.118 284.208 442.094 283.856 442.942 283.136L442.254 282.064C441.646 282.592 440.99 282.864 440.238 282.864C438.654 282.864 438.238 281.68 438.238 280.56V280.432H443.07ZM441.246 279.136H438.254C438.254 277.824 438.798 277.04 439.79 277.04C440.67 277.04 441.246 277.824 441.246 279.136ZM454.671 284V282.576H453.183V273.424H451.935L448.719 275.68L449.151 276.624C449.343 276.56 449.935 276.304 450.367 276.096C450.799 275.888 451.295 275.568 451.455 275.472V282.576H449.599V284H454.671Z" fill="white"/>
<path d="M1058.64 276.24C1058.64 275.024 1058.1 274.032 1057.12 273.456C1056.51 273.088 1055.92 272.928 1054.3 272.928H1051.36V284H1053.18V279.776H1055.06C1057.06 279.776 1058.64 278.416 1058.64 276.24ZM1056.61 276.352C1056.61 277.664 1055.98 278.304 1054.62 278.304H1053.18V274.416H1054.62C1055.34 274.416 1055.82 274.608 1056.16 274.96C1056.46 275.28 1056.61 275.744 1056.61 276.352ZM1064.73 275.808C1064.52 275.712 1064.36 275.68 1064.1 275.68C1063.32 275.68 1062.68 276.096 1062.04 276.976C1062.04 276.528 1061.93 276.064 1061.73 275.696L1060.12 276.112C1060.29 276.608 1060.41 277.264 1060.41 278.288V284H1062.17V278.528C1062.33 277.872 1062.95 277.328 1063.69 277.328C1063.88 277.328 1064.01 277.376 1064.18 277.44L1064.73 275.808ZM1072.51 279.984C1072.51 277.424 1071.2 275.712 1068.9 275.712C1066.75 275.712 1065.36 277.376 1065.36 279.968C1065.36 282.56 1066.74 284.208 1068.93 284.208C1071.12 284.208 1072.51 282.592 1072.51 279.984ZM1070.58 280.016C1070.58 282.048 1070 282.896 1068.96 282.896C1067.91 282.896 1067.31 282.208 1067.31 279.856C1067.31 277.888 1067.79 277.04 1068.91 277.04C1069.94 277.04 1070.58 277.728 1070.58 280.016ZM1081.25 284C1081.09 283.6 1080.99 282.784 1080.99 281.184V272.48L1079.25 272.208V275.168C1079.25 275.872 1079.3 276.496 1079.3 276.496C1078.8 275.984 1078.24 275.76 1077.55 275.76C1075.6 275.76 1074.19 277.488 1074.19 280.032C1074.19 282.56 1075.44 284.176 1077.5 284.176C1078.3 284.176 1078.94 283.92 1079.49 283.376C1079.54 283.712 1079.55 283.824 1079.63 284H1081.25ZM1079.25 281.936C1079.01 282.336 1078.48 282.704 1077.82 282.704C1076.5 282.704 1076.14 281.808 1076.14 280.016C1076.14 278.064 1076.66 277.168 1077.78 277.168C1078.37 277.168 1078.85 277.392 1079.25 277.824V281.936ZM1090.33 283.424C1090.33 283.424 1089.83 283.024 1089.83 281.808V275.712L1088.14 276.032V281.824C1087.86 282.4 1087.14 282.88 1086.55 282.88C1085.51 282.88 1085.37 282.144 1085.37 281.136V275.712L1083.64 276.032V281.52C1083.64 282.528 1083.77 283.056 1084.09 283.44C1084.49 283.92 1085.19 284.24 1086.1 284.24C1087.03 284.24 1087.82 283.92 1088.41 283.248C1088.55 283.712 1088.76 284 1089.11 284.256L1090.33 283.424ZM1098.1 283.136L1097.27 282.064C1096.74 282.592 1096.2 282.864 1095.64 282.864C1095.2 282.864 1094.82 282.688 1094.56 282.4C1094.2 282 1094.02 281.296 1094.02 280.192C1094.02 279.184 1094.12 278.432 1094.36 277.936C1094.61 277.408 1095.08 277.12 1095.64 277.12C1096.1 277.12 1096.52 277.312 1097 277.744L1097.88 276.576C1097.16 275.904 1096.52 275.696 1095.64 275.696C1093.83 275.696 1092.07 277.104 1092.07 280.048C1092.07 282.656 1093.3 284.208 1095.51 284.208C1096.6 284.208 1097.36 283.872 1098.1 283.136ZM1103.71 283.856L1103.49 282.8C1103.18 282.912 1102.98 282.96 1102.74 282.96C1101.97 282.96 1101.74 282.672 1101.74 281.664V277.12H1103.23L1103.7 275.904H1101.76C1101.76 275.104 1101.82 274.128 1101.9 273.472L1100.1 273.904C1100.02 274.512 1100.02 275.216 1100.02 275.904H1099.12V277.12H1100.02V282.128C1100.02 283.28 1100.56 284.208 1102.13 284.208C1102.67 284.208 1103.18 284.096 1103.71 283.856Z" fill="white"/>
<rect opacity="0.2" x="1067" y="360" width="462" height="94" rx="8" fill="#009EE6"/>
<rect opacity="0.2" x="1067" y="470" width="462" height="151" rx="8" fill="#009EE6"/>
<rect opacity="0.2" x="405" y="527" width="462" height="151" rx="8" fill="#009EE6"/>
<rect opacity="0.2" x="405" y="360" width="462" height="151" rx="8" fill="#009EE6"/>
<rect opacity="0.2" x="1083" y="486" width="430" height="22" rx="11" fill="#009EE6"/>
<rect opacity="0.2" x="421" y="543" width="430" height="22" rx="11" fill="#009EE6"/>
<rect opacity="0.2" x="421" y="376" width="430" height="22" rx="11" fill="#009EE6"/>
<rect opacity="0.2" x="1083" y="378" width="430" height="22" rx="11" fill="#009EE6"/>
<rect opacity="0.2" x="1083" y="516" width="186" height="10" rx="5" fill="#009EE6"/>
<rect opacity="0.2" x="421" y="573" width="186" height="10" rx="5" fill="#009EE6"/>
<rect opacity="0.2" x="421" y="406" width="186" height="10" rx="5" fill="#009EE6"/>
<rect opacity="0.2" x="1083" y="408" width="186" height="10" rx="5" fill="#009EE6"/>
<rect opacity="0.2" x="1083" y="534" width="186" height="10" rx="5" fill="#009EE6"/>
<rect opacity="0.2" x="421" y="591" width="186" height="10" rx="5" fill="#009EE6"/>
<rect opacity="0.2" x="421" y="424" width="186" height="10" rx="5" fill="#009EE6"/>
<rect opacity="0.2" x="1083" y="426" width="186" height="10" rx="5" fill="#009EE6"/>
<path d="M1357 560C1357 557.239 1359.24 555 1362 555H1508C1510.76 555 1513 557.239 1513 560V600C1513 602.761 1510.76 605 1508 605H1362C1359.24 605 1357 602.761 1357 600V560Z" fill="#009EE6"/>
<path d="M1396.18 583.216V578H1392.17L1392.42 579.504H1394.31V582.384C1393.9 582.608 1393.42 582.736 1392.84 582.736C1391.99 582.736 1391.19 582.432 1390.74 581.904C1390.22 581.28 1389.93 580.192 1389.93 578.64C1389.93 576.048 1390.68 574.256 1392.73 574.256C1393.58 574.256 1394.3 574.512 1395.06 575.104L1395.99 573.952C1395.08 573.168 1393.96 572.784 1392.7 572.784C1391.62 572.784 1390.76 573.04 1389.96 573.648C1388.57 574.688 1387.88 576.272 1387.88 578.544C1387.88 580.288 1388.26 581.536 1389.11 582.576C1389.98 583.648 1391.18 584.144 1392.73 584.144C1393.96 584.144 1395.18 583.824 1396.18 583.216ZM1405.04 580.432V580.064C1405.04 578.176 1404.69 577.184 1403.98 576.544C1403.29 575.92 1402.56 575.712 1401.76 575.712C1400.73 575.712 1399.93 576.048 1399.28 576.8C1398.57 577.6 1398.27 578.544 1398.27 579.968C1398.27 582.56 1399.71 584.208 1402 584.208C1403.09 584.208 1404.06 583.856 1404.91 583.136L1404.22 582.064C1403.61 582.592 1402.96 582.864 1402.21 582.864C1400.62 582.864 1400.21 581.68 1400.21 580.56V580.432H1405.04ZM1403.21 579.136H1400.22C1400.22 577.824 1400.77 577.04 1401.76 577.04C1402.64 577.04 1403.21 577.824 1403.21 579.136ZM1410.82 583.856L1410.6 582.8C1410.29 582.912 1410.09 582.96 1409.85 582.96C1409.08 582.96 1408.85 582.672 1408.85 581.664V577.12H1410.34L1410.81 575.904H1408.87C1408.87 575.104 1408.93 574.128 1409.01 573.472L1407.21 573.904C1407.13 574.512 1407.13 575.216 1407.13 575.904H1406.23V577.12H1407.13V582.128C1407.13 583.28 1407.67 584.208 1409.24 584.208C1409.78 584.208 1410.29 584.096 1410.82 583.856ZM1417.79 584V575.712L1416.02 576.032V584H1417.79ZM1418.08 573.536C1418.08 572.864 1417.55 572.352 1416.93 572.352C1416.27 572.352 1415.76 572.88 1415.76 573.536C1415.76 574.176 1416.26 574.704 1416.9 574.704C1417.55 574.704 1418.08 574.176 1418.08 573.536ZM1426.69 584V577.952C1426.69 576.464 1425.83 575.712 1424.58 575.712C1423.72 575.712 1422.96 576.096 1422.1 576.832C1422.1 576.4 1422 576.048 1421.81 575.68L1420.21 576.128C1420.44 576.704 1420.52 577.2 1420.52 578.048V584H1422.24V578.128C1422.77 577.6 1423.51 577.216 1424.02 577.216C1424.69 577.216 1424.95 577.52 1424.95 578.624V584H1426.69ZM1434.91 581.472C1434.91 580.528 1434.48 579.632 1432.85 579.216L1431.84 578.96C1431.03 578.752 1430.75 578.496 1430.75 578C1430.75 577.376 1431.23 576.96 1431.99 576.96C1432.63 576.96 1433.22 577.152 1433.97 577.552L1434.55 576.336C1433.86 575.968 1432.98 575.632 1431.87 575.632C1430.08 575.632 1428.87 576.688 1428.87 578.208C1428.87 579.344 1429.59 580.176 1430.8 580.432L1431.78 580.64C1432.69 580.832 1433.09 581.152 1433.09 581.776C1433.09 582.448 1432.55 582.912 1431.78 582.912C1430.87 582.912 1429.87 582.48 1429.15 582.064L1428.53 583.328C1429.57 583.904 1430.64 584.224 1431.63 584.224C1433.59 584.224 1434.91 583.104 1434.91 581.472ZM1443.53 583.424C1443.53 583.424 1443.03 583.024 1443.03 581.808V575.712L1441.34 576.032V581.824C1441.07 582.4 1440.35 582.88 1439.75 582.88C1438.71 582.88 1438.57 582.144 1438.57 581.136V575.712L1436.84 576.032V581.52C1436.84 582.528 1436.97 583.056 1437.29 583.44C1437.69 583.92 1438.39 584.24 1439.31 584.24C1440.23 584.24 1441.02 583.92 1441.61 583.248C1441.75 583.712 1441.96 584 1442.31 584.256L1443.53 583.424ZM1450.07 575.808C1449.86 575.712 1449.7 575.68 1449.45 575.68C1448.66 575.68 1448.02 576.096 1447.38 576.976C1447.38 576.528 1447.27 576.064 1447.08 575.696L1445.46 576.112C1445.64 576.608 1445.75 577.264 1445.75 578.288V584H1447.51V578.528C1447.67 577.872 1448.29 577.328 1449.03 577.328C1449.22 577.328 1449.35 577.376 1449.53 577.44L1450.07 575.808ZM1457.56 583.216C1456.93 582.784 1456.84 582.432 1456.85 581.344L1456.88 579.024C1456.9 577.824 1456.9 577.392 1456.76 577.04C1456.4 576.16 1455.56 575.696 1454.29 575.696C1453.08 575.696 1452.07 576.032 1450.85 576.8L1451.64 578.064C1451.64 578.064 1452.88 577.136 1454.05 577.136C1455.01 577.136 1455.17 577.632 1455.17 578.56V578.992H1454.63C1452.04 578.992 1450.63 579.936 1450.63 581.808C1450.63 583.216 1451.46 584.24 1453.32 584.24C1454.18 584.24 1454.88 583.984 1455.54 583.248C1455.73 583.76 1456.15 584.144 1456.64 584.336L1457.56 583.216ZM1455.14 580.192L1455.11 582.112C1454.76 582.624 1454.21 582.96 1453.65 582.96C1452.95 582.96 1452.53 582.48 1452.53 581.712C1452.53 580.688 1453.06 580.176 1454.82 580.176C1454.95 580.176 1455.14 580.192 1455.14 580.192ZM1465.77 584V577.952C1465.77 576.464 1464.91 575.712 1463.66 575.712C1462.79 575.712 1462.04 576.096 1461.18 576.832C1461.18 576.4 1461.08 576.048 1460.89 575.68L1459.29 576.128C1459.51 576.704 1459.59 577.2 1459.59 578.048V584H1461.32V578.128C1461.85 577.6 1462.59 577.216 1463.1 577.216C1463.77 577.216 1464.03 577.52 1464.03 578.624V584H1465.77ZM1474.04 583.136L1473.21 582.064C1472.68 582.592 1472.13 582.864 1471.57 582.864C1471.14 582.864 1470.76 582.688 1470.5 582.4C1470.13 582 1469.96 581.296 1469.96 580.192C1469.96 579.184 1470.05 578.432 1470.29 577.936C1470.55 577.408 1471.01 577.12 1471.57 577.12C1472.04 577.12 1472.45 577.312 1472.93 577.744L1473.81 576.576C1473.09 575.904 1472.45 575.696 1471.57 575.696C1469.77 575.696 1468.01 577.104 1468.01 580.048C1468.01 582.656 1469.24 584.208 1471.45 584.208C1472.53 584.208 1473.3 583.872 1474.04 583.136ZM1481.93 580.432V580.064C1481.93 578.176 1481.58 577.184 1480.87 576.544C1480.19 575.92 1479.45 575.712 1478.65 575.712C1477.63 575.712 1476.83 576.048 1476.17 576.8C1475.47 577.6 1475.16 578.544 1475.16 579.968C1475.16 582.56 1476.6 584.208 1478.89 584.208C1479.98 584.208 1480.95 583.856 1481.8 583.136L1481.11 582.064C1480.51 582.592 1479.85 582.864 1479.1 582.864C1477.51 582.864 1477.1 581.68 1477.1 580.56V580.432H1481.93ZM1480.11 579.136H1477.11C1477.11 577.824 1477.66 577.04 1478.65 577.04C1479.53 577.04 1480.11 577.824 1480.11 579.136Z" fill="white"/>
<path d="M695 617C695 614.239 697.239 612 700 612H846C848.761 612 851 614.239 851 617V657C851 659.761 848.761 662 846 662H700C697.239 662 695 659.761 695 657V617Z" fill="#009EE6"/>
<path d="M734.184 640.216V635H730.168L730.424 636.504H732.312V639.384C731.896 639.608 731.416 639.736 730.84 639.736C729.992 639.736 729.192 639.432 728.744 638.904C728.216 638.28 727.928 637.192 727.928 635.64C727.928 633.048 728.68 631.256 730.728 631.256C731.576 631.256 732.296 631.512 733.064 632.104L733.992 630.952C733.08 630.168 731.96 629.784 730.696 629.784C729.624 629.784 728.76 630.04 727.96 630.648C726.568 631.688 725.88 633.272 725.88 635.544C725.88 637.288 726.264 638.536 727.112 639.576C727.976 640.648 729.176 641.144 730.728 641.144C731.96 641.144 733.176 640.824 734.184 640.216ZM743.039 637.432V637.064C743.039 635.176 742.687 634.184 741.983 633.544C741.295 632.92 740.559 632.712 739.759 632.712C738.735 632.712 737.935 633.048 737.279 633.8C736.575 634.6 736.271 635.544 736.271 636.968C736.271 639.56 737.711 641.208 739.999 641.208C741.087 641.208 742.063 640.856 742.911 640.136L742.223 639.064C741.615 639.592 740.959 639.864 740.207 639.864C738.623 639.864 738.207 638.68 738.207 637.56V637.432H743.039ZM741.215 636.136H738.223C738.223 634.824 738.767 634.04 739.759 634.04C740.639 634.04 741.215 634.824 741.215 636.136ZM748.822 640.856L748.598 639.8C748.294 639.912 748.086 639.96 747.846 639.96C747.078 639.96 746.854 639.672 746.854 638.664V634.12H748.342L748.806 632.904H746.87C746.87 632.104 746.934 631.128 747.014 630.472L745.206 630.904C745.126 631.512 745.126 632.216 745.126 632.904H744.23V634.12H745.126V639.128C745.126 640.28 745.67 641.208 747.238 641.208C747.782 641.208 748.294 641.096 748.822 640.856ZM755.792 641V632.712L754.016 633.032V641H755.792ZM756.08 630.536C756.08 629.864 755.552 629.352 754.928 629.352C754.272 629.352 753.76 629.88 753.76 630.536C753.76 631.176 754.256 631.704 754.896 631.704C755.552 631.704 756.08 631.176 756.08 630.536ZM764.692 641V634.952C764.692 633.464 763.828 632.712 762.58 632.712C761.716 632.712 760.964 633.096 760.1 633.832C760.1 633.4 760.004 633.048 759.812 632.68L758.212 633.128C758.436 633.704 758.516 634.2 758.516 635.048V641H760.244V635.128C760.772 634.6 761.508 634.216 762.02 634.216C762.692 634.216 762.948 634.52 762.948 635.624V641H764.692ZM772.915 638.472C772.915 637.528 772.483 636.632 770.851 636.216L769.843 635.96C769.027 635.752 768.755 635.496 768.755 635C768.755 634.376 769.235 633.96 769.987 633.96C770.627 633.96 771.219 634.152 771.971 634.552L772.547 633.336C771.859 632.968 770.979 632.632 769.875 632.632C768.083 632.632 766.867 633.688 766.867 635.208C766.867 636.344 767.587 637.176 768.803 637.432L769.779 637.64C770.691 637.832 771.091 638.152 771.091 638.776C771.091 639.448 770.547 639.912 769.779 639.912C768.867 639.912 767.875 639.48 767.155 639.064L766.531 640.328C767.571 640.904 768.643 641.224 769.635 641.224C771.587 641.224 772.915 640.104 772.915 638.472ZM781.531 640.424C781.531 640.424 781.035 640.024 781.035 638.808V632.712L779.339 633.032V638.824C779.067 639.4 778.347 639.88 777.755 639.88C776.715 639.88 776.571 639.144 776.571 638.136V632.712L774.843 633.032V638.52C774.843 639.528 774.971 640.056 775.291 640.44C775.691 640.92 776.395 641.24 777.307 641.24C778.235 641.24 779.019 640.92 779.611 640.248C779.755 640.712 779.963 641 780.315 641.256L781.531 640.424ZM788.071 632.808C787.863 632.712 787.703 632.68 787.447 632.68C786.663 632.68 786.023 633.096 785.383 633.976C785.383 633.528 785.271 633.064 785.079 632.696L783.463 633.112C783.639 633.608 783.751 634.264 783.751 635.288V641H785.511V635.528C785.671 634.872 786.295 634.328 787.031 634.328C787.223 634.328 787.351 634.376 787.527 634.44L788.071 632.808ZM795.556 640.216C794.932 639.784 794.836 639.432 794.852 638.344L794.884 636.024C794.9 634.824 794.9 634.392 794.756 634.04C794.404 633.16 793.556 632.696 792.292 632.696C791.076 632.696 790.068 633.032 788.852 633.8L789.636 635.064C789.636 635.064 790.884 634.136 792.052 634.136C793.012 634.136 793.172 634.632 793.172 635.56V635.992H792.628C790.036 635.992 788.628 636.936 788.628 638.808C788.628 640.216 789.46 641.24 791.316 641.24C792.18 641.24 792.884 640.984 793.54 640.248C793.732 640.76 794.148 641.144 794.644 641.336L795.556 640.216ZM793.14 637.192L793.108 639.112C792.756 639.624 792.212 639.96 791.652 639.96C790.948 639.96 790.532 639.48 790.532 638.712C790.532 637.688 791.06 637.176 792.82 637.176C792.948 637.176 793.14 637.192 793.14 637.192ZM803.77 641V634.952C803.77 633.464 802.906 632.712 801.658 632.712C800.794 632.712 800.042 633.096 799.178 633.832C799.178 633.4 799.082 633.048 798.89 632.68L797.29 633.128C797.514 633.704 797.594 634.2 797.594 635.048V641H799.322V635.128C799.85 634.6 800.586 634.216 801.098 634.216C801.77 634.216 802.026 634.52 802.026 635.624V641H803.77ZM812.037 640.136L811.205 639.064C810.677 639.592 810.133 639.864 809.573 639.864C809.141 639.864 808.757 639.688 808.501 639.4C808.133 639 807.957 638.296 807.957 637.192C807.957 636.184 808.053 635.432 808.293 634.936C808.549 634.408 809.013 634.12 809.573 634.12C810.037 634.12 810.453 634.312 810.933 634.744L811.813 633.576C811.093 632.904 810.453 632.696 809.573 632.696C807.765 632.696 806.005 634.104 806.005 637.048C806.005 639.656 807.237 641.208 809.445 641.208C810.533 641.208 811.301 640.872 812.037 640.136ZM819.929 637.432V637.064C819.929 635.176 819.577 634.184 818.873 633.544C818.185 632.92 817.449 632.712 816.649 632.712C815.625 632.712 814.825 633.048 814.169 633.8C813.465 634.6 813.161 635.544 813.161 636.968C813.161 639.56 814.601 641.208 816.889 641.208C817.977 641.208 818.953 640.856 819.801 640.136L819.113 639.064C818.505 639.592 817.849 639.864 817.097 639.864C815.513 639.864 815.097 638.68 815.097 637.56V637.432H819.929ZM818.105 636.136H815.113C815.113 634.824 815.657 634.04 816.649 634.04C817.529 634.04 818.105 634.824 818.105 636.136Z" fill="white"/>
<path d="M695 450C695 447.239 697.239 445 700 445H846C848.761 445 851 447.239 851 450V490C851 492.761 848.761 495 846 495H700C697.239 495 695 492.761 695 490V450Z" fill="#009EE6"/>
<path d="M734.184 473.216V468H730.168L730.424 469.504H732.312V472.384C731.896 472.608 731.416 472.736 730.84 472.736C729.992 472.736 729.192 472.432 728.744 471.904C728.216 471.28 727.928 470.192 727.928 468.64C727.928 466.048 728.68 464.256 730.728 464.256C731.576 464.256 732.296 464.512 733.064 465.104L733.992 463.952C733.08 463.168 731.96 462.784 730.696 462.784C729.624 462.784 728.76 463.04 727.96 463.648C726.568 464.688 725.88 466.272 725.88 468.544C725.88 470.288 726.264 471.536 727.112 472.576C727.976 473.648 729.176 474.144 730.728 474.144C731.96 474.144 733.176 473.824 734.184 473.216ZM743.039 470.432V470.064C743.039 468.176 742.687 467.184 741.983 466.544C741.295 465.92 740.559 465.712 739.759 465.712C738.735 465.712 737.935 466.048 737.279 466.8C736.575 467.6 736.271 468.544 736.271 469.968C736.271 472.56 737.711 474.208 739.999 474.208C741.087 474.208 742.063 473.856 742.911 473.136L742.223 472.064C741.615 472.592 740.959 472.864 740.207 472.864C738.623 472.864 738.207 471.68 738.207 470.56V470.432H743.039ZM741.215 469.136H738.223C738.223 467.824 738.767 467.04 739.759 467.04C740.639 467.04 741.215 467.824 741.215 469.136ZM748.822 473.856L748.598 472.8C748.294 472.912 748.086 472.96 747.846 472.96C747.078 472.96 746.854 472.672 746.854 471.664V467.12H748.342L748.806 465.904H746.87C746.87 465.104 746.934 464.128 747.014 463.472L745.206 463.904C745.126 464.512 745.126 465.216 745.126 465.904H744.23V467.12H745.126V472.128C745.126 473.28 745.67 474.208 747.238 474.208C747.782 474.208 748.294 474.096 748.822 473.856ZM755.792 474V465.712L754.016 466.032V474H755.792ZM756.08 463.536C756.08 462.864 755.552 462.352 754.928 462.352C754.272 462.352 753.76 462.88 753.76 463.536C753.76 464.176 754.256 464.704 754.896 464.704C755.552 464.704 756.08 464.176 756.08 463.536ZM764.692 474V467.952C764.692 466.464 763.828 465.712 762.58 465.712C761.716 465.712 760.964 466.096 760.1 466.832C760.1 466.4 760.004 466.048 759.812 465.68L758.212 466.128C758.436 466.704 758.516 467.2 758.516 468.048V474H760.244V468.128C760.772 467.6 761.508 467.216 762.02 467.216C762.692 467.216 762.948 467.52 762.948 468.624V474H764.692ZM772.915 471.472C772.915 470.528 772.483 469.632 770.851 469.216L769.843 468.96C769.027 468.752 768.755 468.496 768.755 468C768.755 467.376 769.235 466.96 769.987 466.96C770.627 466.96 771.219 467.152 771.971 467.552L772.547 466.336C771.859 465.968 770.979 465.632 769.875 465.632C768.083 465.632 766.867 466.688 766.867 468.208C766.867 469.344 767.587 470.176 768.803 470.432L769.779 470.64C770.691 470.832 771.091 471.152 771.091 471.776C771.091 472.448 770.547 472.912 769.779 472.912C768.867 472.912 767.875 472.48 767.155 472.064L766.531 473.328C767.571 473.904 768.643 474.224 769.635 474.224C771.587 474.224 772.915 473.104 772.915 471.472ZM781.531 473.424C781.531 473.424 781.035 473.024 781.035 471.808V465.712L779.339 466.032V471.824C779.067 472.4 778.347 472.88 777.755 472.88C776.715 472.88 776.571 472.144 776.571 471.136V465.712L774.843 466.032V471.52C774.843 472.528 774.971 473.056 775.291 473.44C775.691 473.92 776.395 474.24 777.307 474.24C778.235 474.24 779.019 473.92 779.611 473.248C779.755 473.712 779.963 474 780.315 474.256L781.531 473.424ZM788.071 465.808C787.863 465.712 787.703 465.68 787.447 465.68C786.663 465.68 786.023 466.096 785.383 466.976C785.383 466.528 785.271 466.064 785.079 465.696L783.463 466.112C783.639 466.608 783.751 467.264 783.751 468.288V474H785.511V468.528C785.671 467.872 786.295 467.328 787.031 467.328C787.223 467.328 787.351 467.376 787.527 467.44L788.071 465.808ZM795.556 473.216C794.932 472.784 794.836 472.432 794.852 471.344L794.884 469.024C794.9 467.824 794.9 467.392 794.756 467.04C794.404 466.16 793.556 465.696 792.292 465.696C791.076 465.696 790.068 466.032 788.852 466.8L789.636 468.064C789.636 468.064 790.884 467.136 792.052 467.136C793.012 467.136 793.172 467.632 793.172 468.56V468.992H792.628C790.036 468.992 788.628 469.936 788.628 471.808C788.628 473.216 789.46 474.24 791.316 474.24C792.18 474.24 792.884 473.984 793.54 473.248C793.732 473.76 794.148 474.144 794.644 474.336L795.556 473.216ZM793.14 470.192L793.108 472.112C792.756 472.624 792.212 472.96 791.652 472.96C790.948 472.96 790.532 472.48 790.532 471.712C790.532 470.688 791.06 470.176 792.82 470.176C792.948 470.176 793.14 470.192 793.14 470.192ZM803.77 474V467.952C803.77 466.464 802.906 465.712 801.658 465.712C800.794 465.712 800.042 466.096 799.178 466.832C799.178 466.4 799.082 466.048 798.89 465.68L797.29 466.128C797.514 466.704 797.594 467.2 797.594 468.048V474H799.322V468.128C799.85 467.6 800.586 467.216 801.098 467.216C801.77 467.216 802.026 467.52 802.026 468.624V474H803.77ZM812.037 473.136L811.205 472.064C810.677 472.592 810.133 472.864 809.573 472.864C809.141 472.864 808.757 472.688 808.501 472.4C808.133 472 807.957 471.296 807.957 470.192C807.957 469.184 808.053 468.432 808.293 467.936C808.549 467.408 809.013 467.12 809.573 467.12C810.037 467.12 810.453 467.312 810.933 467.744L811.813 466.576C811.093 465.904 810.453 465.696 809.573 465.696C807.765 465.696 806.005 467.104 806.005 470.048C806.005 472.656 807.237 474.208 809.445 474.208C810.533 474.208 811.301 473.872 812.037 473.136ZM819.929 470.432V470.064C819.929 468.176 819.577 467.184 818.873 466.544C818.185 465.92 817.449 465.712 816.649 465.712C815.625 465.712 814.825 466.048 814.169 466.8C813.465 467.6 813.161 468.544 813.161 469.968C813.161 472.56 814.601 474.208 816.889 474.208C817.977 474.208 818.953 473.856 819.801 473.136L819.113 472.064C818.505 472.592 817.849 472.864 817.097 472.864C815.513 472.864 815.097 471.68 815.097 470.56V470.432H819.929ZM818.105 469.136H815.113C815.113 467.824 815.657 467.04 816.649 467.04C817.529 467.04 818.105 467.824 818.105 469.136Z" fill="white"/>
<rect x="688.5" y="605.5" width="169" height="63" stroke="#FF3366" stroke-width="3"/>
<rect x="688.5" y="437.5" width="169" height="63" stroke="#FF3366" stroke-width="3"/>
<rect x="1350.5" y="547.5" width="169" height="63" stroke="#FF3366" stroke-width="3"/>
<rect x="677" y="592" width="20" height="20" fill="#C0E8FA"/>
<path d="M680 602C680 598.134 683.134 595 687 595C690.866 595 694 598.134 694 602V609H687C683.134 609 680 605.866 680 602Z" fill="#F0FBFF" stroke="#FF3366" stroke-width="2"/>
<path d="M680 434C680 430.134 683.134 427 687 427C690.866 427 694 430.134 694 434V441H687C683.134 441 680 437.866 680 434Z" fill="#F0FBFF" stroke="#FF3366" stroke-width="2"/>
<path d="M1342 544C1342 540.134 1345.13 537 1349 537C1352.87 537 1356 540.134 1356 544V551H1349C1345.13 551 1342 547.866 1342 544Z" fill="#F0FBFF" stroke="#FF3366" stroke-width="2"/>
<path d="M545 83.5C542.5 83.5 540.5 85.5 540.5 88C540.5 90.5 542.5 92.5 545 92.5C547.5 92.5 549.5 90.5 549.5 88C549.5 85.5 547.5 83.5 545 83.5Z" fill="white"/>
<path d="M688.061 470.061C688.646 469.475 688.646 468.525 688.061 467.939L678.515 458.393C677.929 457.808 676.979 457.808 676.393 458.393C675.808 458.979 675.808 459.929 676.393 460.515L684.879 469L676.393 477.485C675.808 478.071 675.808 479.021 676.393 479.607C676.979 480.192 677.929 480.192 678.515 479.607L688.061 470.061ZM542 88C542 86.3284 543.328 85 545 85V82C541.672 82 539 84.6716 539 88H542ZM545 85C546.672 85 548 86.3284 548 88H551C551 84.6716 548.328 82 545 82V85ZM548 88C548 89.6716 546.672 91 545 91V94C548.328 94 551 91.3284 551 88H548ZM545 91C543.328 91 542 89.6716 542 88H539C539 91.3284 541.672 94 545 94V91ZM549.5 89.5H596V86.5H549.5V89.5ZM614.5 108V449H617.5V108H614.5ZM636 470.5H687V467.5H636V470.5ZM614.5 449C614.5 460.874 624.126 470.5 636 470.5V467.5C625.783 467.5 617.5 459.217 617.5 449H614.5ZM596 89.5C606.217 89.5 614.5 97.7827 614.5 108H617.5C617.5 96.1259 607.874 86.5 596 86.5V89.5Z" fill="#FF3366"/>
<path d="M545 83.5C542.5 83.5 540.5 85.5 540.5 88C540.5 90.5 542.5 92.5 545 92.5C547.5 92.5 549.5 90.5 549.5 88C549.5 85.5 547.5 83.5 545 83.5Z" fill="white"/>
<path d="M688.061 638.061C688.646 637.475 688.646 636.525 688.061 635.939L678.515 626.393C677.929 625.808 676.979 625.808 676.393 626.393C675.808 626.979 675.808 627.929 676.393 628.515L684.879 637L676.393 645.485C675.808 646.071 675.808 647.021 676.393 647.607C676.979 648.192 677.929 648.192 678.515 647.607L688.061 638.061ZM542 88C542 86.3284 543.328 85 545 85V82C541.672 82 539 84.6716 539 88H542ZM545 85C546.672 85 548 86.3284 548 88H551C551 84.6716 548.328 82 545 82V85ZM548 88C548 89.6716 546.672 91 545 91V94C548.328 94 551 91.3284 551 88H548ZM545 91C543.328 91 542 89.6716 542 88H539C539 91.3284 541.672 94 545 94V91ZM549.5 89.5H596V86.5H549.5V89.5ZM614.5 108V617H617.5V108H614.5ZM636 638.5H687V635.5H636V638.5ZM614.5 617C614.5 628.874 624.126 638.5 636 638.5V635.5C625.783 635.5 617.5 627.217 617.5 617H614.5ZM596 89.5C606.217 89.5 614.5 97.7827 614.5 108H617.5C617.5 96.1259 607.874 86.5 596 86.5V89.5Z" fill="#FF3366"/>
<path d="M545 83.5C542.5 83.5 540.5 85.5 540.5 88C540.5 90.5 542.5 92.5 545 92.5C547.5 92.5 549.5 90.5 549.5 88C549.5 85.5 547.5 83.5 545 83.5Z" fill="white"/>
<path d="M1350.06 580.061C1350.65 579.475 1350.65 578.525 1350.06 577.939L1340.51 568.393C1339.93 567.808 1338.98 567.808 1338.39 568.393C1337.81 568.979 1337.81 569.929 1338.39 570.515L1346.88 579L1338.39 587.485C1337.81 588.071 1337.81 589.021 1338.39 589.607C1338.98 590.192 1339.93 590.192 1340.51 589.607L1350.06 580.061ZM542 88C542 86.3284 543.328 85 545 85V82C541.672 82 539 84.6716 539 88H542ZM545 85C546.672 85 548 86.3284 548 88H551C551 84.6716 548.328 82 545 82V85ZM548 88C548 89.6716 546.672 91 545 91V94C548.328 94 551 91.3284 551 88H548ZM545 91C543.328 91 542 89.6716 542 88H539C539 91.3284 541.672 94 545 94V91ZM549.5 89.5H946V86.5H549.5V89.5ZM964.5 108V559H967.5V108H964.5ZM986 580.5H1349V577.5H986V580.5ZM964.5 559C964.5 570.874 974.126 580.5 986 580.5V577.5C975.783 577.5 967.5 569.217 967.5 559H964.5ZM946 89.5C956.217 89.5 964.5 97.7827 964.5 108H967.5C967.5 96.1259 957.874 86.5 946 86.5V89.5Z" fill="#FF3366"/>
<path d="M0 794H1920V1048C1920 1065.67 1905.67 1080 1888 1080H32C14.3269 1080 0 1065.67 0 1048V794Z" fill="#003399"/>
<path d="M559.743 948.48C559.743 956.72 556.983 962.72 551.463 966.48C545.943 970.16 537.903 972 527.343 972H503.223V888.96H525.183C528.303 888.96 530.943 889.04 533.103 889.2C535.263 889.28 537.143 889.48 538.743 889.8C540.423 890.12 541.903 890.56 543.183 891.12C544.463 891.6 545.743 892.24 547.023 893.04C553.263 897.04 556.383 902.48 556.383 909.36C556.383 913.84 555.143 917.64 552.663 920.76C550.263 923.88 546.743 926.12 542.103 927.48C545.543 928.36 548.383 929.56 550.623 931.08C552.943 932.52 554.743 934.2 556.023 936.12C557.383 938.04 558.343 940.08 558.903 942.24C559.463 944.32 559.743 946.4 559.743 948.48ZM544.503 947.16C544.503 944.2 543.783 941.6 542.343 939.36C540.903 937.12 539.023 935.68 536.703 935.04C535.663 934.72 534.623 934.52 533.583 934.44C532.543 934.36 531.023 934.32 529.023 934.32H516.903V960.6H529.383C534.663 960.6 538.503 959.32 540.903 956.76C543.303 954.12 544.503 950.92 544.503 947.16ZM541.863 911.52C541.863 909.12 541.223 907 539.943 905.16C538.743 903.24 537.143 901.92 535.143 901.2C534.263 900.88 533.223 900.64 532.023 900.48C530.903 900.32 529.343 900.24 527.343 900.24H516.903V922.92H528.423C530.983 922.92 532.983 922.76 534.423 922.44C535.863 922.04 537.263 921.16 538.623 919.8C539.903 918.44 540.743 917 541.143 915.48C541.623 913.96 541.863 912.64 541.863 911.52ZM616.331 974.52C614.491 973.8 612.811 972.76 611.291 971.4C609.851 969.96 608.771 968.28 608.051 966.36C605.571 969.16 602.971 971.08 600.251 972.12C597.611 973.24 594.651 973.8 591.371 973.8C584.411 973.8 579.291 972.08 576.011 968.64C572.811 965.2 571.211 960.84 571.211 955.56C571.211 948.52 573.771 943.24 578.891 939.72C584.011 936.2 591.451 934.44 601.211 934.44H605.291V931.2C605.291 927.68 604.771 925.04 603.731 923.28C602.771 921.44 600.491 920.52 596.891 920.52C594.971 920.52 593.011 920.84 591.011 921.48C589.091 922.04 587.291 922.72 585.611 923.52C583.931 924.24 582.491 925 581.291 925.8C580.091 926.6 579.251 927.16 578.771 927.48L572.891 918C577.451 915.12 581.731 913.04 585.731 911.76C589.811 910.4 594.131 909.72 598.691 909.72C608.291 909.72 614.451 913.08 617.171 919.8C617.411 920.44 617.611 921.16 617.771 921.96C617.931 922.76 618.011 923.72 618.011 924.84C618.091 925.96 618.131 927.32 618.131 928.92C618.131 930.52 618.131 932.44 618.131 934.68L617.891 952.08C617.891 954.16 617.931 955.92 618.011 957.36C618.091 958.72 618.331 959.92 618.731 960.96C619.131 962 619.651 962.92 620.291 963.72C621.011 964.52 621.971 965.32 623.171 966.12L616.331 974.52ZM605.051 943.44C604.891 943.44 604.531 943.44 603.971 943.44C603.491 943.36 603.051 943.32 602.651 943.32C599.371 943.32 596.611 943.56 594.371 944.04C592.211 944.52 590.451 945.24 589.091 946.2C587.811 947.16 586.891 948.36 586.331 949.8C585.771 951.24 585.491 952.92 585.491 954.84C585.491 957.72 586.211 960 587.651 961.68C589.171 963.36 591.251 964.2 593.891 964.2C595.971 964.2 597.971 963.64 599.891 962.52C601.811 961.32 603.451 959.76 604.811 957.84L605.051 943.44ZM658.995 971.88C656.595 972.84 653.955 973.32 651.075 973.32C647.715 973.32 645.115 972.68 643.275 971.4C641.515 970.04 640.195 968.48 639.315 966.72C638.515 964.88 638.035 963 637.875 961.08C637.795 959.08 637.755 957.44 637.755 956.16V904.44C637.755 902.36 637.715 900.52 637.635 898.92C637.635 897.24 637.555 895.72 637.395 894.36C637.315 893 637.195 891.72 637.035 890.52C636.955 889.24 636.795 887.96 636.555 886.68L650.115 883.68C650.595 885.52 650.875 887.76 650.955 890.4C651.115 893.04 651.195 896.36 651.195 900.36V951.84C651.195 953.92 651.195 955.6 651.195 956.88C651.275 958.08 651.355 959.08 651.435 959.88C651.595 960.6 651.755 961.2 651.915 961.68C652.075 962.08 652.275 962.44 652.515 962.76C652.915 963.32 653.515 963.72 654.315 963.96C655.195 964.2 656.035 964.12 656.835 963.72L658.995 971.88ZM721.062 941.88C721.062 946.76 720.422 951.16 719.142 955.08C717.942 959 716.142 962.32 713.742 965.04C711.422 967.76 708.582 969.88 705.222 971.4C701.942 972.84 698.262 973.56 694.182 973.56C690.102 973.56 686.382 972.84 683.022 971.4C679.742 969.88 676.942 967.76 674.622 965.04C672.302 962.24 670.502 958.88 669.222 954.96C668.022 951.04 667.422 946.64 667.422 941.76C667.422 936.88 668.022 932.48 669.222 928.56C670.502 924.64 672.302 921.32 674.622 918.6C676.942 915.8 679.742 913.64 683.022 912.12C686.302 910.6 689.942 909.84 693.942 909.84C698.262 909.84 702.102 910.6 705.462 912.12C708.822 913.64 711.662 915.84 713.982 918.72C716.302 921.52 718.062 924.88 719.262 928.8C720.462 932.72 721.062 937.08 721.062 941.88ZM706.542 942.12C706.542 937.8 706.222 934.24 705.582 931.44C705.022 928.56 704.182 926.28 703.062 924.6C702.022 922.84 700.742 921.6 699.222 920.88C697.702 920.16 695.982 919.8 694.062 919.8C689.822 919.8 686.742 921.48 684.822 924.84C682.982 928.12 682.062 933.48 682.062 940.92C682.062 945.32 682.342 949 682.902 951.96C683.462 954.84 684.262 957.16 685.302 958.92C686.342 960.68 687.622 961.92 689.142 962.64C690.662 963.36 692.422 963.72 694.422 963.72C698.342 963.72 701.342 962.04 703.422 958.68C705.502 955.32 706.542 949.8 706.542 942.12ZM736.661 972V912.24L749.981 909.84V972H736.661ZM752.141 893.52C752.141 895.92 751.261 898 749.501 899.76C747.821 901.44 745.741 902.28 743.261 902.28C740.861 902.28 738.821 901.44 737.141 899.76C735.541 898 734.741 895.92 734.741 893.52C734.741 891.04 735.581 888.96 737.261 887.28C738.941 885.52 741.021 884.64 743.501 884.64C745.821 884.64 747.821 885.48 749.501 887.16C751.261 888.84 752.141 890.96 752.141 893.52ZM811.719 953.04C811.719 956.08 811.119 958.88 809.919 961.44C808.719 964 807.039 966.2 804.879 968.04C802.719 969.8 800.119 971.16 797.079 972.12C794.119 973.16 790.799 973.68 787.119 973.68C783.359 973.68 779.519 973.12 775.599 972C771.679 970.8 767.759 969.12 763.839 966.96L768.519 957.48C771.239 959.08 774.319 960.56 777.759 961.92C781.279 963.2 784.759 963.84 788.199 963.84C791.079 963.84 793.439 963.08 795.279 961.56C797.119 959.96 798.039 957.88 798.039 955.32C798.039 953 797.239 951.2 795.639 949.92C794.119 948.56 791.639 947.52 788.199 946.8L780.879 945.24C776.319 944.28 772.759 942.36 770.199 939.48C767.639 936.52 766.359 932.88 766.359 928.56C766.359 925.68 766.879 923.08 767.919 920.76C769.039 918.36 770.599 916.32 772.599 914.64C774.599 912.96 776.959 911.64 779.679 910.68C782.479 909.72 785.559 909.24 788.919 909.24C793.079 909.24 796.799 909.8 800.079 910.92C803.439 911.96 806.399 913.16 808.959 914.52L804.639 923.64C801.839 922.12 799.239 921 796.839 920.28C794.519 919.56 792.159 919.2 789.759 919.2C786.959 919.2 784.719 919.92 783.039 921.36C781.359 922.8 780.519 924.68 780.519 927C780.519 928.84 781.119 930.32 782.319 931.44C783.519 932.48 785.639 933.4 788.679 934.2L796.239 936.12C799.279 936.92 801.799 937.92 803.799 939.12C805.799 940.32 807.359 941.68 808.479 943.2C809.679 944.64 810.519 946.2 810.999 947.88C811.479 949.56 811.719 951.28 811.719 953.04ZM838.284 945.24V946.2C838.284 948.28 838.484 950.36 838.884 952.44C839.364 954.52 840.164 956.4 841.284 958.08C842.484 959.68 844.044 961 845.964 962.04C847.884 963 850.324 963.48 853.284 963.48C858.724 963.48 863.764 961.48 868.404 957.48L873.564 965.52C867.244 970.88 859.964 973.56 851.724 973.56C847.404 973.56 843.524 972.84 840.084 971.4C836.644 969.88 833.724 967.76 831.324 965.04C828.924 962.24 827.044 958.88 825.684 954.96C824.404 951.04 823.764 946.64 823.764 941.76C823.764 936.4 824.364 931.88 825.564 928.2C826.764 924.44 828.684 921.04 831.324 918C833.804 915.2 836.564 913.16 839.604 911.88C842.644 910.52 846.084 909.84 849.924 909.84C852.964 909.84 855.844 910.32 858.564 911.28C861.364 912.16 864.044 913.76 866.604 916.08C869.244 918.48 871.204 921.72 872.484 925.8C873.844 929.88 874.524 935.44 874.524 942.48V945.24H838.284ZM860.844 935.52C860.844 930.56 859.844 926.72 857.844 924C855.924 921.2 853.284 919.8 849.924 919.8C846.164 919.8 843.284 921.2 841.284 924C839.364 926.72 838.404 930.56 838.404 935.52H860.844Z" fill="white"/>
<path d="M979.764 933.696C979.764 940.491 978.943 946.277 977.3 951.056C975.732 955.76 973.642 959.531 971.028 962.368C969.311 964.235 967.594 965.803 965.876 967.072C964.159 968.267 962.33 969.237 960.388 969.984C958.522 970.731 956.468 971.253 954.228 971.552C951.988 971.851 949.524 972 946.836 972H926.788V895.168H942.132C945.044 895.168 947.62 895.243 949.86 895.392C952.1 895.467 954.154 895.728 956.02 896.176C957.887 896.549 959.679 897.147 961.396 897.968C963.114 898.715 964.906 899.76 966.772 901.104C971.178 904.24 974.426 908.571 976.516 914.096C978.682 919.621 979.764 926.155 979.764 933.696ZM969.796 934.816C969.796 929.067 969.311 924.213 968.34 920.256C967.444 916.299 965.727 912.789 963.188 909.728C961.919 908.235 960.65 907.04 959.38 906.144C958.111 905.173 956.73 904.464 955.236 904.016C953.818 903.493 952.287 903.157 950.644 903.008C949.002 902.784 947.172 902.672 945.156 902.672H935.972V964.384H945.156C947.172 964.384 949.114 964.309 950.98 964.16C952.847 964.011 954.602 963.675 956.244 963.152C957.962 962.555 959.53 961.733 960.948 960.688C962.367 959.568 963.599 958.112 964.644 956.32C966.362 953.333 967.631 950.011 968.452 946.352C969.348 942.693 969.796 938.848 969.796 934.816ZM1004.38 945.568V946.912C1004.38 949.525 1004.57 951.84 1004.94 953.856C1005.32 955.872 1005.99 957.627 1006.96 959.12C1008.53 961.509 1010.51 963.264 1012.9 964.384C1015.36 965.429 1018.01 965.952 1020.85 965.952C1026.15 965.952 1030.7 964.197 1034.51 960.688L1037.87 966.288C1035.41 968.528 1032.53 970.245 1029.25 971.44C1026.04 972.635 1022.64 973.232 1019.06 973.232C1011.29 973.232 1005.2 970.619 1000.8 965.392C996.469 960.091 994.303 952.811 994.303 943.552C994.303 938.848 994.826 934.891 995.871 931.68C996.917 928.395 998.634 925.333 1001.02 922.496C1005.43 917.344 1010.99 914.768 1017.71 914.768C1023.91 914.768 1028.95 916.784 1032.83 920.816C1034.03 922.085 1035.03 923.392 1035.86 924.736C1036.68 926.08 1037.31 927.648 1037.76 929.44C1038.28 931.232 1038.66 933.323 1038.88 935.712C1039.1 938.101 1039.22 940.976 1039.22 944.336V945.568H1004.38ZM1029.92 938.96C1029.84 935.899 1029.58 933.397 1029.14 931.456C1028.76 929.515 1028.16 927.872 1027.34 926.528C1026.37 925.035 1024.99 923.84 1023.2 922.944C1021.41 922.048 1019.43 921.6 1017.26 921.6C1009.12 921.6 1004.83 927.387 1004.38 938.96H1029.92ZM1092.59 955.424C1092.59 958.112 1092.07 960.576 1091.03 962.816C1090.06 965.056 1088.64 966.997 1086.77 968.64C1084.9 970.208 1082.66 971.44 1080.05 972.336C1077.51 973.232 1074.67 973.68 1071.54 973.68C1067.95 973.68 1064.33 973.157 1060.67 972.112C1057.09 971.141 1053.88 969.797 1051.04 968.08L1054.4 961.584C1060.15 965.093 1066.05 966.848 1072.1 966.848C1075.53 966.848 1078.26 965.989 1080.27 964.272C1082.37 962.555 1083.41 960.203 1083.41 957.216C1083.41 954.677 1082.66 952.699 1081.17 951.28C1079.75 949.787 1077.44 948.704 1074.23 948.032L1067.28 946.576C1062.65 945.605 1059.14 943.776 1056.75 941.088C1054.37 938.4 1053.17 935.115 1053.17 931.232C1053.17 928.693 1053.66 926.379 1054.63 924.288C1055.6 922.197 1056.94 920.405 1058.66 918.912C1060.45 917.419 1062.54 916.261 1064.93 915.44C1067.39 914.544 1070.08 914.096 1072.99 914.096C1075.91 914.096 1078.86 914.507 1081.84 915.328C1084.9 916.149 1087.63 917.232 1090.02 918.576L1086.77 925.072C1084.31 923.877 1081.95 922.907 1079.71 922.16C1077.55 921.413 1075.23 921.04 1072.77 921.04C1069.56 921.04 1066.98 921.899 1065.04 923.616C1063.18 925.259 1062.24 927.461 1062.24 930.224C1062.24 932.389 1062.84 934.144 1064.03 935.488C1065.23 936.757 1067.32 937.691 1070.31 938.288L1077.7 939.856C1087.63 941.947 1092.59 947.136 1092.59 955.424ZM1108.35 972V916.448L1117.42 914.992V972H1108.35ZM1119.89 898.976C1119.89 900.917 1119.21 902.56 1117.87 903.904C1116.6 905.173 1115 905.808 1113.05 905.808C1111.11 905.808 1109.47 905.173 1108.13 903.904C1106.86 902.56 1106.22 900.955 1106.22 899.088C1106.22 897.147 1106.86 895.504 1108.13 894.16C1109.47 892.816 1111.11 892.144 1113.05 892.144C1115 892.144 1116.6 892.816 1117.87 894.16C1119.21 895.429 1119.89 897.035 1119.89 898.976ZM1185.69 921.152C1183.97 922.421 1182.4 923.317 1180.98 923.84C1179.56 924.288 1177.99 924.512 1176.28 924.512C1174.71 924.512 1173.44 924.288 1172.47 923.84C1174.71 926.677 1175.83 929.851 1175.83 933.36C1175.83 936.496 1175.08 939.445 1173.59 942.208C1172.17 944.896 1170.15 947.061 1167.54 948.704C1166.12 949.6 1164.52 950.235 1162.73 950.608C1161.01 950.981 1159.14 951.168 1157.13 951.168C1153.32 952.512 1150.67 953.707 1149.17 954.752C1147.75 955.723 1147.05 956.693 1147.05 957.664C1147.05 959.456 1148.54 960.352 1151.53 960.352H1160.49C1163.77 960.352 1166.38 960.576 1168.33 961.024C1170.34 961.472 1172.21 962.293 1173.93 963.488C1176.09 964.981 1177.66 966.736 1178.63 968.752C1179.6 970.693 1180.09 972.859 1180.09 975.248C1180.09 981.296 1178.07 985.739 1174.04 988.576C1170.08 991.413 1164.7 992.832 1157.91 992.832C1153.5 992.832 1149.77 992.459 1146.71 991.712C1143.65 990.965 1141.15 989.957 1139.21 988.688C1137.34 987.419 1135.96 985.925 1135.06 984.208C1134.17 982.491 1133.72 980.624 1133.72 978.608C1133.72 977.563 1133.79 976.592 1133.94 975.696C1134.17 974.8 1134.46 973.792 1134.84 972.672L1144.02 971.888C1143.65 972.485 1143.27 973.232 1142.9 974.128C1142.6 975.099 1142.45 976.032 1142.45 976.928C1142.45 979.915 1143.54 982.08 1145.7 983.424C1147.05 984.245 1148.69 984.88 1150.63 985.328C1152.65 985.776 1154.77 986 1157.01 986C1161.34 986 1164.67 985.253 1166.98 983.76C1169.37 982.267 1170.57 979.765 1170.57 976.256C1170.57 973.12 1169.56 970.88 1167.54 969.536C1166.5 968.789 1165.08 968.267 1163.29 967.968C1161.57 967.669 1159.33 967.52 1156.57 967.52C1155.97 967.52 1155.26 967.52 1154.44 967.52C1153.69 967.52 1152.91 967.557 1152.09 967.632C1151.26 967.632 1150.48 967.632 1149.73 967.632C1148.99 967.632 1148.39 967.632 1147.94 967.632C1144.58 967.632 1141.97 966.923 1140.1 965.504C1138.31 964.085 1137.41 962.107 1137.41 959.568C1137.41 957.328 1138.12 955.499 1139.54 954.08C1141.03 952.587 1143.69 951.243 1147.49 950.048C1143.69 948.853 1140.62 946.8 1138.31 943.888C1136.07 940.976 1134.95 937.653 1134.95 933.92C1134.95 931.157 1135.43 928.619 1136.41 926.304C1137.45 923.989 1138.87 922.011 1140.66 920.368C1142.45 918.651 1144.62 917.344 1147.16 916.448C1149.7 915.552 1152.5 915.104 1155.56 915.104C1157.65 915.104 1159.4 915.291 1160.82 915.664C1162.24 915.963 1163.51 916.299 1164.63 916.672C1165.82 917.045 1167.02 917.419 1168.21 917.792C1169.41 918.091 1170.86 918.24 1172.58 918.24C1174.07 918.24 1175.38 918.053 1176.5 917.68C1177.7 917.307 1178.97 916.672 1180.31 915.776L1185.69 921.152ZM1165.64 933.472C1165.64 929.664 1164.85 926.864 1163.29 925.072C1161.72 923.205 1159.07 922.272 1155.33 922.272C1148.31 922.272 1144.81 926.117 1144.81 933.808C1144.81 937.392 1145.7 940.155 1147.49 942.096C1149.29 943.963 1151.97 944.896 1155.56 944.896C1162.28 944.896 1165.64 941.088 1165.64 933.472ZM1228.43 972V934.256C1228.43 932.763 1228.4 931.531 1228.32 930.56C1228.25 929.589 1228.13 928.768 1227.98 928.096C1227.84 927.424 1227.61 926.864 1227.31 926.416C1227.09 925.893 1226.79 925.408 1226.42 924.96C1225.07 923.392 1223.02 922.608 1220.26 922.608C1219.14 922.608 1217.87 922.832 1216.45 923.28C1215.1 923.653 1213.72 924.213 1212.3 924.96C1210.96 925.632 1209.62 926.453 1208.27 927.424C1206.93 928.395 1205.77 929.403 1204.8 930.448V972H1196.29V928.992C1196.29 925.408 1195.99 922.645 1195.39 920.704C1194.8 918.763 1194.38 917.605 1194.16 917.232L1202.67 914.88C1202.9 915.253 1203.27 916.299 1203.79 918.016C1204.39 919.733 1204.69 921.6 1204.69 923.616C1210.44 917.867 1216.3 914.992 1222.27 914.992C1225.33 914.992 1228.1 915.739 1230.56 917.232C1233.02 918.725 1234.82 920.704 1235.94 923.168C1236.83 925.184 1237.28 927.349 1237.28 929.664V972H1228.43ZM1331.73 950.272C1331.73 953.856 1330.79 957.291 1328.93 960.576C1327.14 963.861 1324.52 966.587 1321.09 968.752C1318.55 970.395 1315.94 971.589 1313.25 972.336C1310.56 973.083 1307.42 973.456 1303.84 973.456C1299.21 973.456 1294.88 972.896 1290.85 971.776C1286.89 970.656 1283.01 968.901 1279.2 966.512L1283.23 959.344C1286.44 961.659 1289.69 963.339 1292.98 964.384C1296.34 965.429 1299.96 965.952 1303.84 965.952C1306.75 965.952 1309.1 965.728 1310.9 965.28C1312.69 964.757 1314.4 963.861 1316.05 962.592C1319.71 959.829 1321.54 956.171 1321.54 951.616C1321.54 944.821 1316.94 940.043 1307.76 937.28L1300.03 934.928C1296.52 933.883 1293.72 932.875 1291.63 931.904C1289.62 930.933 1287.86 929.664 1286.37 928.096C1283.16 924.661 1281.55 920.48 1281.55 915.552C1281.55 912.267 1282.15 909.28 1283.34 906.592C1284.54 903.904 1286.22 901.589 1288.38 899.648C1290.55 897.707 1293.16 896.213 1296.22 895.168C1299.28 894.048 1302.68 893.488 1306.42 893.488C1314.55 893.488 1322.28 895.952 1329.6 900.88L1325.57 907.488C1323.7 906.293 1321.98 905.285 1320.42 904.464C1318.85 903.643 1317.32 902.971 1315.82 902.448C1314.4 901.925 1312.95 901.552 1311.46 901.328C1310.04 901.104 1308.51 900.992 1306.86 900.992C1302.01 900.992 1298.24 902.112 1295.55 904.352C1292.86 906.592 1291.52 909.691 1291.52 913.648C1291.52 916.784 1292.49 919.285 1294.43 921.152C1296.45 923.019 1299.73 924.699 1304.29 926.192L1313.14 928.992C1316.57 930.037 1319.3 931.157 1321.31 932.352C1323.33 933.472 1325.12 934.928 1326.69 936.72C1328.26 938.512 1329.49 940.64 1330.38 943.104C1331.28 945.493 1331.73 947.883 1331.73 950.272ZM1368.47 974.016C1367.58 976.853 1366.57 979.392 1365.45 981.632C1364.41 983.947 1363.17 986 1361.75 987.792C1360.34 989.584 1358.69 991.077 1356.83 992.272C1355.03 993.467 1352.91 994.363 1350.44 994.96L1347.87 989.024C1349.66 988.501 1351.19 987.829 1352.46 987.008C1353.73 986.187 1354.85 985.141 1355.82 983.872C1356.79 982.603 1357.65 980.997 1358.39 979.056C1359.22 977.115 1360 974.725 1360.75 971.888L1357.16 972.448C1357.01 971.552 1356.71 970.283 1356.27 968.64C1355.82 966.923 1355.33 965.093 1354.81 963.152C1354.29 961.211 1353.73 959.307 1353.13 957.44C1352.53 955.499 1352.01 953.819 1351.56 952.4L1339.58 917.456L1348.2 914.544L1359.63 950.72C1360 951.915 1360.37 953.221 1360.75 954.64C1361.12 956.059 1361.46 957.44 1361.75 958.784C1362.05 960.128 1362.31 961.323 1362.54 962.368C1362.76 963.413 1362.91 964.16 1362.99 964.608H1363.21C1363.81 962.667 1364.37 960.725 1364.89 958.784C1365.49 956.768 1366.09 954.789 1366.68 952.848L1377.66 916.224H1387.63L1368.47 974.016ZM1437.02 955.424C1437.02 958.112 1436.49 960.576 1435.45 962.816C1434.48 965.056 1433.06 966.997 1431.19 968.64C1429.33 970.208 1427.09 971.44 1424.47 972.336C1421.93 973.232 1419.1 973.68 1415.96 973.68C1412.38 973.68 1408.76 973.157 1405.1 972.112C1401.51 971.141 1398.3 969.797 1395.46 968.08L1398.82 961.584C1404.57 965.093 1410.47 966.848 1416.52 966.848C1419.96 966.848 1422.68 965.989 1424.7 964.272C1426.79 962.555 1427.83 960.203 1427.83 957.216C1427.83 954.677 1427.09 952.699 1425.59 951.28C1424.17 949.787 1421.86 948.704 1418.65 948.032L1411.7 946.576C1407.08 945.605 1403.57 943.776 1401.18 941.088C1398.79 938.4 1397.59 935.115 1397.59 931.232C1397.59 928.693 1398.08 926.379 1399.05 924.288C1400.02 922.197 1401.36 920.405 1403.08 918.912C1404.87 917.419 1406.96 916.261 1409.35 915.44C1411.82 914.544 1414.5 914.096 1417.42 914.096C1420.33 914.096 1423.28 914.507 1426.26 915.328C1429.33 916.149 1432.05 917.232 1434.44 918.576L1431.19 925.072C1428.73 923.877 1426.38 922.907 1424.14 922.16C1421.97 921.413 1419.66 921.04 1417.19 921.04C1413.98 921.04 1411.41 921.899 1409.46 923.616C1407.6 925.259 1406.66 927.461 1406.66 930.224C1406.66 932.389 1407.26 934.144 1408.46 935.488C1409.65 936.757 1411.74 937.691 1414.73 938.288L1422.12 939.856C1432.05 941.947 1437.02 947.136 1437.02 955.424ZM1473.59 922.832H1461.94V958.784C1461.94 961.92 1462.43 964.085 1463.4 965.28C1464.45 966.475 1466.35 967.072 1469.11 967.072C1470.38 967.072 1471.39 966.997 1472.14 966.848C1472.96 966.624 1473.78 966.325 1474.6 965.952L1475.83 971.552C1472.99 973.045 1469.71 973.792 1465.98 973.792C1464.48 973.792 1463.14 973.643 1461.94 973.344C1460.82 973.12 1459.74 972.747 1458.7 972.224C1456.75 971.253 1455.37 969.872 1454.55 968.08C1453.73 966.288 1453.32 963.973 1453.32 961.136V922.832H1446.04V916.224H1453.32C1453.32 915.029 1453.36 913.723 1453.43 912.304C1453.51 910.811 1453.58 909.392 1453.66 908.048C1453.81 906.704 1453.92 905.509 1453.99 904.464C1454.07 903.344 1454.14 902.56 1454.22 902.112L1463.4 900.096C1463.33 900.544 1463.21 901.328 1463.06 902.448C1462.99 903.568 1462.88 904.875 1462.73 906.368C1462.65 907.861 1462.54 909.467 1462.39 911.184C1462.32 912.901 1462.28 914.581 1462.28 916.224H1476.28L1473.59 922.832ZM1495.91 945.568V946.912C1495.91 949.525 1496.1 951.84 1496.47 953.856C1496.85 955.872 1497.52 957.627 1498.49 959.12C1500.06 961.509 1502.04 963.264 1504.43 964.384C1506.89 965.429 1509.54 965.952 1512.38 965.952C1517.68 965.952 1522.23 964.197 1526.04 960.688L1529.4 966.288C1526.94 968.528 1524.06 970.245 1520.78 971.44C1517.57 972.635 1514.17 973.232 1510.59 973.232C1502.82 973.232 1496.74 970.619 1492.33 965.392C1488 960.091 1485.83 952.811 1485.83 943.552C1485.83 938.848 1486.36 934.891 1487.4 931.68C1488.45 928.395 1490.17 925.333 1492.55 922.496C1496.96 917.344 1502.52 914.768 1509.24 914.768C1515.44 914.768 1520.48 916.784 1524.36 920.816C1525.56 922.085 1526.57 923.392 1527.39 924.736C1528.21 926.08 1528.84 927.648 1529.29 929.44C1529.81 931.232 1530.19 933.323 1530.41 935.712C1530.63 938.101 1530.75 940.976 1530.75 944.336V945.568H1495.91ZM1521.45 938.96C1521.38 935.899 1521.11 933.397 1520.67 931.456C1520.29 929.515 1519.7 927.872 1518.87 926.528C1517.9 925.035 1516.52 923.84 1514.73 922.944C1512.94 922.048 1510.96 921.6 1508.79 921.6C1500.66 921.6 1496.36 927.387 1495.91 938.96H1521.45ZM1608.3 972V930.784C1608.3 925.333 1605.92 922.608 1601.14 922.608C1598.6 922.608 1596.21 923.392 1593.97 924.96C1591.8 926.453 1589.26 928.544 1586.35 931.232V972H1577.5V932.352C1577.5 930.635 1577.39 929.216 1577.17 928.096C1576.94 926.976 1576.53 926.005 1575.94 925.184C1574.67 923.691 1572.76 922.944 1570.22 922.944C1568.06 922.944 1565.86 923.541 1563.62 924.736C1561.45 925.856 1558.91 927.723 1556 930.336V972H1547.6V928.768C1547.6 925.184 1547.3 922.421 1546.7 920.48C1546.18 918.464 1545.81 917.269 1545.58 916.896L1554.1 914.88C1554.32 915.328 1554.69 916.411 1555.22 918.128C1555.81 919.771 1556.11 921.451 1556.11 923.168C1557.01 922.123 1558.09 921.115 1559.36 920.144C1560.63 919.099 1561.97 918.203 1563.39 917.456C1564.89 916.635 1566.38 916 1567.87 915.552C1569.44 915.029 1570.93 914.768 1572.35 914.768C1575.12 914.768 1577.69 915.589 1580.08 917.232C1582.54 918.8 1584.3 921.077 1585.34 924.064C1588.03 921.227 1590.98 918.987 1594.19 917.344C1597.4 915.627 1600.43 914.768 1603.26 914.768C1607.45 914.768 1610.81 916.187 1613.34 919.024C1615.96 921.787 1617.26 925.408 1617.26 929.888V972H1608.3Z" fill="white"/>
<path fill-rule="evenodd" clip-rule="evenodd" d="M293 934.927L365.843 1007.76L410.051 963.48L389.082 942.488L365.835 965.683L335.558 935.446L365.847 905.13L417.183 956.45H461.999V927.552H431.235L365.843 862.081L293 934.927Z" fill="white"/>
<defs>
<filter id="filter0_d" x="346" y="244" width="581" height="502" filterUnits="userSpaceOnUse" color-interpolation-filters="sRGB">
<feFlood flood-opacity="0" result="BackgroundImageFix"/>
<feColorMatrix in="SourceAlpha" type="matrix" values="0 0 0 0 0 0 0 0 0 0 0 0 0 0 0 0 0 0 127 0"/>
<feOffset dy="8"/>
<feGaussianBlur stdDeviation="6"/>
<feColorMatrix type="matrix" values="0 0 0 0 0 0 0 0 0 0.2 0 0 0 0 0.6 0 0 0 0.15 0"/>
<feBlend mode="normal" in2="BackgroundImageFix" result="effect1_dropShadow"/>
<feBlend mode="normal" in="SourceGraphic" in2="effect1_dropShadow" result="shape"/>
</filter>
<filter id="filter1_d" x="1008" y="244" width="581" height="445" filterUnits="userSpaceOnUse" color-interpolation-filters="sRGB">
<feFlood flood-opacity="0" result="BackgroundImageFix"/>
<feColorMatrix in="SourceAlpha" type="matrix" values="0 0 0 0 0 0 0 0 0 0 0 0 0 0 0 0 0 0 127 0"/>
<feOffset dy="8"/>
<feGaussianBlur stdDeviation="6"/>
<feColorMatrix type="matrix" values="0 0 0 0 0 0 0 0 0 0.2 0 0 0 0 0.6 0 0 0 0.15 0"/>
<feBlend mode="normal" in2="BackgroundImageFix" result="effect1_dropShadow"/>
<feBlend mode="normal" in="SourceGraphic" in2="effect1_dropShadow" result="shape"/>
</filter>
</defs>
</svg>
