<svg width="1048" height="1048" viewBox="0 0 1048 1048" fill="none" xmlns="http://www.w3.org/2000/svg">
<rect width="1048" height="1048" rx="100" fill="white"/>
<path fill-rule="evenodd" clip-rule="evenodd" d="M143 128C143 100.386 165.386 78 193 78H371.993C399.607 78 421.993 100.386 421.993 128V273.883C445.482 268.94 469.834 266.34 494.793 266.34C689.083 266.34 846.586 423.86 846.586 618.17C846.586 812.48 689.083 970 494.793 970C300.648 970 143.236 812.716 143 618.606H143V618.17V128Z" fill="url(#paint0_linear)"/>
<g filter="url(#filter0_d)">
<path d="M284.24 353.916V353.916C339.035 362.467 394.486 366.081 449.927 364.714L462.457 364.405C468.001 364.268 473.482 363.205 478.675 361.26V361.26C510.349 349.397 521.196 310.059 500.079 283.638L488.832 269.566C484.161 263.722 480.572 257.09 478.234 249.983L472.967 233.972C469.042 222.04 468.404 209.271 471.119 197.006V197.006C477.506 168.16 501.335 146.441 530.649 142.748L541.911 141.329C549.397 140.386 556.974 140.432 564.448 141.467L576.707 143.164C602.041 146.672 623.105 164.427 630.848 188.802V188.802C636.316 206.014 634.532 224.711 625.908 240.579L614.957 260.729L592.482 293.208C587.425 300.516 584.716 309.191 584.716 318.078V327.764C584.716 342.969 595.45 356.06 610.361 359.039L619.141 360.793C649.577 366.873 680.839 367.616 711.53 362.989V362.989C726.049 360.8 740.363 357.42 754.328 352.885L838.222 325.638L816.862 390.063C809.241 413.05 803.645 436.659 800.138 460.621L796.421 486.023C794.714 497.691 803.759 508.155 815.551 508.155V508.155C819.02 508.155 822.424 507.222 825.408 505.454L867.1 480.742C875.239 475.918 884.152 472.539 893.443 470.754L898.43 469.796C935.537 462.669 972.257 483.838 984.683 519.521V519.521C990.65 536.657 990.26 555.463 983.657 572.364V572.364C971.434 603.65 940.266 623.616 906.75 621.403L904.73 621.27C891.895 620.422 879.455 616.484 868.47 609.791L833.121 588.253C825.475 583.595 815.982 583.151 807.935 587.076V587.076C798.909 591.479 793.183 600.644 793.183 610.687V617.907C793.183 653.388 798.175 688.692 808.012 722.781L824.71 780.646L712.756 790.928L681.524 791.485C654.397 791.969 627.308 789.266 600.812 783.431V783.431C579.275 778.688 567.587 755.303 576.722 735.231L583.224 720.942C584.217 718.76 585.375 716.657 586.686 714.65L610.88 677.63C613.59 673.484 615.842 669.056 617.596 664.424L617.823 663.826C621.849 653.198 623.065 641.711 621.353 630.475V630.475C617.457 604.899 598.989 583.951 574.103 576.88L562.607 573.613C548.058 569.479 532.626 569.629 518.161 574.044L511.199 576.168C486.527 583.698 468.36 604.712 464.474 630.213V630.213C462.736 641.621 463.971 653.283 468.059 664.074L468.764 665.935C470.14 669.568 471.798 673.088 473.722 676.462L495.035 713.848C496.483 716.387 497.7 719.051 498.672 721.807L502.717 733.275C510.378 754.996 497.231 778.509 474.714 783.358V783.358C431.699 792.62 387.407 794.385 343.791 788.576L284.24 780.646V353.916Z" fill="url(#paint1_linear)"/>
</g>
<defs>
<filter id="filter0_d" x="274.24" y="139.908" width="729.689" height="677.447" filterUnits="userSpaceOnUse" color-interpolation-filters="sRGB">
<feFlood flood-opacity="0" result="BackgroundImageFix"/>
<feColorMatrix in="SourceAlpha" type="matrix" values="0 0 0 0 0 0 0 0 0 0 0 0 0 0 0 0 0 0 127 0"/>
<feOffset dy="10"/>
<feGaussianBlur stdDeviation="5"/>
<feColorMatrix type="matrix" values="0 0 0 0 0 0 0 0 0 0 0 0 0 0 0 0 0 0 0.4 0"/>
<feBlend mode="normal" in2="BackgroundImageFix" result="effect1_dropShadow"/>
<feBlend mode="normal" in="SourceGraphic" in2="effect1_dropShadow" result="shape"/>
</filter>
<linearGradient id="paint0_linear" x1="143" y1="78" x2="846.677" y2="969.928" gradientUnits="userSpaceOnUse">
<stop stop-color="#009EE7"/>
<stop offset="0.863411" stop-color="#003399"/>
</linearGradient>
<linearGradient id="paint1_linear" x1="284.24" y1="139.908" x2="993.806" y2="797.539" gradientUnits="userSpaceOnUse">
<stop stop-color="#F4D94E"/>
<stop offset="0.828125" stop-color="#FFA800"/>
</linearGradient>
</defs>
</svg>
