<svg viewBox="0 0 28 28" xmlns="http://www.w3.org/2000/svg" focusable="false" aria-hidden="true"><path d="M23.8997 23.8995C25.8576 21.9416 27.191 19.447 27.7312 16.7313C28.2714 14.0155 27.9941 11.2006 26.9345 8.64244C25.8749 6.08427 24.0804 3.89777 21.7781 2.35943C19.4759 0.821091 16.7691 3.51377e-06 14.0002 3.85095e-06C11.2312 4.01954e-06 8.52447 0.821089 6.22218 2.35943C3.91989 3.89777 2.12548 6.08427 1.06585 8.64244C0.00622598 11.2006 -0.271021 14.0155 0.269172 16.7313C0.809365 19.447 2.14274 21.9416 4.10067 23.8995C6.72618 26.525 10.2871 28 14.0002 28C17.7132 28 21.2742 26.525 23.8997 23.8995ZM10.3798 18.2426C10.38 17.8451 10.538 17.464 10.8191 17.1829C11.1002 16.9018 11.4813 16.7438 11.8788 16.7436H14.7073L8.73929 10.7756C8.45799 10.4943 8.29995 10.1128 8.29995 9.71494C8.29995 9.31711 8.45799 8.93558 8.73929 8.65428C9.0206 8.37297 9.40213 8.21494 9.79995 8.21494C10.1978 8.21494 10.5793 8.37297 10.8606 8.65428L16.7862 14.5798L16.7862 11.7514C16.86 11.4045 17.0544 11.0949 17.3348 10.8777C17.6152 10.6605 17.9635 10.5497 18.3178 10.565C18.6722 10.5803 19.0097 10.7206 19.2704 10.9611C19.5311 11.2016 19.6981 11.5267 19.7419 11.8787L19.7419 18.2426C19.7416 18.6401 19.5836 19.0213 19.3025 19.3024C19.0215 19.5834 18.6403 19.7415 18.2428 19.7417H11.8788C11.4813 19.7415 11.1002 19.5834 10.8191 19.3024C10.538 19.0213 10.38 18.6401 10.3798 18.2426Z"/></svg>