<svg xmlns="http://www.w3.org/2000/svg" viewBox="0 0 18 18"><path d="M5.52 3.448C6.452 2.521 7.716 2 9.033 2s2.562 0.521 3.493 1.448C13.478 4.374 14.001 5.632 14.001 6.942v4.413c0 0.31 0.124 0.605 0.344 0.824 0.249 0.248 0.445 0.342 0.719 0.342 0.278 0 0.503 0.224 0.503 0.501 0 0.277-0.225 0.501-0.503 0.501H3.003c-0.278 0-0.503-0.224-0.503-0.501 0-0.277 0.225-0.501 0.503-0.501 0.275 0 0.47-0.094 0.719-0.342 0.219-0.219 0.344-0.514 0.344-0.824V6.942c0-1.311 0.523-2.569 1.456-3.494zM7.274 15.25c0-0.414 0.338-0.75 0.754-0.75h2.01c0.416 0 0.754 0.336 0.754 0.75s-0.338 0.75-0.754 0.75h-2.01c-0.416 0-0.754-0.336-0.754-0.75z" fill="#000D6E"/></svg>