<svg viewBox="0 0 14 14" xmlns="http://www.w3.org/2000/svg" focusable="false" aria-hidden="true"><path fill-rule="evenodd" clip-rule="evenodd" d="M14 7C14 10.866 10.866 14 7 14C3.13401 14 0 10.866 0 7C0 3.13401 3.13401 0 7 0C10.866 0 14 3.13401 14 7ZM4.94115 9.7979C5.0838 9.8695 5.2409 9.9078 5.40057 9.91C5.55361 9.9139 5.70562 9.8838 5.84551 9.8217C5.9854 9.7597 6.10966 9.6673 6.20923 9.5512L10.5585 4.98342C10.6065 4.93304 10.644 4.87373 10.6691 4.80887C10.6941 4.74401 10.706 4.67487 10.7042 4.60539C10.7025 4.53592 10.687 4.46748 10.6587 4.40397C10.6304 4.34046 10.5899 4.28313 10.5394 4.23526C10.4889 4.18738 10.4295 4.1499 10.3645 4.12495C10.2995 4.1 10.2302 4.08806 10.1606 4.08983C10.0909 4.0916 10.0223 4.10704 9.9587 4.13526C9.895 4.16348 9.8376 4.20393 9.7896 4.25431L5.49442 8.72105C5.48172 8.73426 5.4664 8.74469 5.44944 8.75168C5.43249 8.75867 5.41426 8.76208 5.39592 8.76168C5.37758 8.76128 5.35952 8.75709 5.34289 8.74937C5.32625 8.74165 5.3114 8.73056 5.29928 8.71682L4.20958 7.47923C4.11493 7.38091 3.98589 7.32283 3.84938 7.31711C3.71287 7.3114 3.57941 7.35848 3.47684 7.44855C3.37426 7.53862 3.31049 7.66471 3.29882 7.80055C3.28714 7.93639 3.32847 8.07148 3.41417 8.17766L4.57706 9.4967C4.67399 9.6233 4.79849 9.7263 4.94115 9.7979Z"/></svg>