<svg viewBox="0 0 28 28" fill="none" xmlns="http://www.w3.org/2000/svg"><path d="M23.8995 4.10051C21.9416 2.14257 19.447 0.809205 16.7313 0.269012C14.0155 -0.271181 11.2006 0.00606573 8.64244 1.06569C6.08426 2.12532 3.89777 3.91973 2.35943 6.22202C0.821087 8.52431 -3.3718e-07 11.2311 0 14C1.6859e-07 16.769 0.821085 19.4757 2.35943 21.778C3.89777 24.0803 6.08426 25.8747 8.64244 26.9343C11.2006 27.994 14.0155 28.2712 16.7313 27.731C19.447 27.1908 21.9416 25.8575 23.8995 23.8995C26.525 21.274 28 17.7131 28 14C28 10.287 26.525 6.72602 23.8995 4.10051Z" fill="#000D6E"/></svg>