<svg fill="#000D6E" xmlns="http://www.w3.org/2000/svg" viewBox="0 0 16 16" focusable="false" aria-hidden="true"><path fill-rule="evenodd" d="M0.25105142857142854 1.4632342857142855c-0.33473497142857145 -0.33473485714285717 -0.33473497142857145 -0.8774479999999999 0 -1.212182857142857 0.33473485714285717 -0.3347352 0.8774479999999999 -0.3347352 1.212182857142857 0l2.7314971428571426 2.7314971428571426C5.305611428571428 2.2539885714285712 6.5985257142857145 1.7142857142857142 8 1.7142857142857142c1.7831885714285713 0 3.39064 0.8737371428571428 4.670971428571429 1.8985142857142856 1.2872000000000001 1.03024 2.3052571428571427 2.2621942857142856 2.920914285714286 3.0887314285714287l0.004685714285714286 0.006365714285714285 0 0.00003428571428571428C15.863428571428571 7.076868571428571 16 7.537702857142857 16 8c0 0.4622971428571428 -0.13657142857142857 0.9231314285714285 -0.40342857142857136 1.2920685714285713l-0.004685714285714286 0.006434285714285714 0 -0.00003428571428571428c-0.5329142857142857 0.7155085714285714 -1.3674285714285712 1.734845714285714 -2.4171428571428573 2.66416l2.5741714285714288 2.5741714285714288c0.3347428571428571 0.3347428571428571 0.3347428571428571 0.8773714285714286 0 1.2121142857142857 -0.3347428571428571 0.3347428571428571 -0.8773714285714286 0.3347428571428571 -1.2121142857142857 0L0.25105142857142854 1.4632342857142855ZM10.321028571428572 9.108857142857142c0.45668571428571425 -0.9558514285714285 0.2891657142857143 -2.135405714285714 -0.50256 -2.9271314285714287 -0.7917257142857143 -0.7917257142857143 -1.9712799999999997 -0.9592457142857143 -2.9271314285714287 -0.50256L10.321028571428572 9.108857142857142ZM0.4081451428571428 6.701531428571428c0.3461874285714286 -0.46482285714285715 0.819672 -1.0578514285714284 1.396734857142857 -1.6711314285714285l8.699154285714286 8.6992C9.724845714285713 14.070971428571427 8.884011428571428 14.285714285714285 8 14.285714285714285c-1.7831885714285713 0 -3.39064 -0.8737142857142857 -4.670994285714285 -1.8985142857142856C2.0418285714285713 11.35696 1.0237302857142856 10.125005714285713 0.4081451428571428 9.298468571428572l-0.004742857142857142 -0.006365714285714285 0.00004457142857142857 -0.00003428571428571428C0.13656457142857142 8.923131428571429 0 8.462297142857143 0 8c0 -0.4622971428571428 0.13656457142857142 -0.9231314285714285 0.4034468571428571 -1.2920685714285713l0.004653714285714285 -0.006434285714285714 0.00004457142857142857 0.00003428571428571428Z" clip-rule="evenodd"/></svg>