<svg xmlns="http://www.w3.org/2000/svg" viewBox="0 0 18 18" focusable="false" aria-hidden="true"><path d="M6.176 13.705c-0.65 0-1.176 0.514-1.176 1.147 0 0.635 0.526 1.149 1.176 1.149h2.824h2.824c0.65 0 1.176-0.514 1.176-1.149 0-0.633-0.526-1.147-1.176-1.147h-1.647V8.426c0-0.634-0.526-1.147-1.176-1.147H7.118C6.468 7.279 5.941 7.792 5.941 8.426c0 0.633 0.526 1.147 1.176 1.147h0.706v4.132H6.176zM10.882 3.836c0 1.014-0.843 1.836-1.882 1.836S7.118 4.85 7.118 3.836C7.118 2.822 7.96 2 9 2s1.882 0.822 1.882 1.836z"/></svg>