<svg xmlns="http://www.w3.org/2000/svg" fill="none" viewBox="0 0 14 14"><g clip-path="url(#a)"><path fill="#000" d="M4.176 11.705c-.65 0-1.176.514-1.176 1.147 0 .635.526 1.149 1.176 1.149h5.648c.65 0 1.176-.514 1.176-1.149 0-.633-.526-1.147-1.176-1.147H8.177V6.426c0-.634-.526-1.147-1.176-1.147H5.118c-.65 0-1.177.513-1.177 1.147 0 .633.526 1.147 1.176 1.147h.706v4.132zm4.706-9.869c0 1.014-.843 1.836-1.882 1.836S5.118 2.85 5.118 1.836 5.96 0 7 0s1.882.822 1.882 1.836"/></g><defs><clipPath id="a"><path fill="#fff" d="M0 0h14v14H0z"/></clipPath></defs></svg>