<svg fill="#000D6E" xmlns="http://www.w3.org/2000/svg" viewBox="0 0 16 16" focusable="false" aria-hidden="true"><path fill-rule="evenodd" d="M8 0C3.581725714285714 0 0 3.581725714285714 0 8c0 4.418285714285714 3.581725714285714 8 8 8 4.418285714285714 0 8 -3.5817142857142854 8 -8 0 -4.418274285714285 -3.5817142857142854 -8 -8 -8Zm2.993725714285714 5.006308571428571c0.15303999999999998 0.15303999999999998 0.20648 0.37942857142857145 0.13804571428571427 0.5847542857142857L9.024377142857142 11.913257142857141c-0.07056 0.21165714285714285 -0.25792 0.36297142857142856 -0.4797485714285714 0.38731428571428567 -0.2218285714285714 0.024342857142857142 -0.43753142857142857 -0.08274285714285715 -0.5523428571428571 -0.27405714285714283L6.485245714285714 9.514788571428571 3.9735085714285714 8.007748571428571c-0.19136 -0.11482285714285714 -0.2983657142857143 -0.3305257142857143 -0.2740114285714286 -0.5523542857142857 0.024342857142857142 -0.2218285714285714 0.1756 -0.40917714285714285 0.38731428571428567 -0.4797485714285714l6.3221485714285715 -2.107382857142857c0.20533714285714283 -0.06844571428571428 0.43171428571428566 -0.015005714285714284 0.5847657142857142 0.13804571428571427Z" clip-rule="evenodd"/></svg>