<svg viewBox="0 0 14 15" xmlns="http://www.w3.org/2000/svg" focusable="false" aria-hidden="true"><path fill-rule="evenodd" clip-rule="evenodd" d="M13.3608 1.15369C13.4169 1.2059 13.4622 1.26865 13.494 1.33837C13.5259 1.40808 13.5436 1.48339 13.5464 1.55999C13.5491 1.63659 13.5367 1.71297 13.5098 1.78477C13.483 1.85656 13.4423 1.92236 13.39 1.97841L8.64428 7.06727L13.8824 14.0198C13.9477 14.1064 13.9876 14.2095 13.9975 14.3176C14.0075 14.4256 13.9871 14.5343 13.9386 14.6313C13.8902 14.7284 13.8156 14.81 13.7233 14.8671C13.631 14.9241 13.5246 14.9542 13.4161 14.9541H10.2207C10.1303 14.9542 10.0412 14.9333 9.96026 14.893C9.87935 14.8528 9.8089 14.7943 9.75447 14.7222L6.06784 9.8299L1.46336 14.7684C1.41113 14.8245 1.34837 14.8696 1.27867 14.9014C1.20897 14.9332 1.13369 14.9509 1.05714 14.9536C0.980585 14.9563 0.904251 14.9439 0.832496 14.9171C0.760741 14.8903 0.69497 14.8496 0.63894 14.7973C0.582909 14.7451 0.537715 14.6823 0.505938 14.6126C0.474162 14.5429 0.456425 14.4677 0.45374 14.3911C0.451056 14.3146 0.463476 14.2382 0.490292 14.1665C0.517108 14.0947 0.557794 14.029 0.610028 13.9729L5.35572 8.88407L0.117626 1.93154C0.0523114 1.84497 0.0124314 1.74191 0.00246702 1.63393C-0.00749732 1.52595 0.0128489 1.41733 0.0612194 1.32027C0.10959 1.22322 0.184068 1.14157 0.276285 1.08451C0.368503 1.02746 0.474805 0.997244 0.583248 0.997273H3.7793C3.86956 0.997249 3.9586 1.01818 4.0394 1.05842C4.1202 1.09866 4.19055 1.15711 4.24492 1.22917L7.93155 6.12144L12.5354 1.18291C12.5876 1.12679 12.6504 1.08151 12.7201 1.04966C12.7898 1.01782 12.8651 1.00003 12.9417 0.997314C13.0183 0.9946 13.0947 1.00702 13.1665 1.03385C13.2383 1.06068 13.3047 1.10141 13.3608 1.15369ZM7.44036 7.40872C7.42386 7.38964 7.40861 7.36951 7.39471 7.34846L3.48836 2.16343H1.75308L10.511 13.7885H12.2463L7.43975 7.40933L7.44036 7.40872Z"/></svg>