<svg xmlns="http://www.w3.org/2000/svg" viewBox="0 0 16 16" focusable="false" aria-hidden="true"><g id="whatsapp"><path id="Subtract" fill-rule="evenodd" d="M8.000205714285714 0.43359428571428565C12.12982857142857 0.4312468571428571 15.573828571428571 3.881382857142857 15.573828571428571 8.00294857142857c0 4.126651428571428 -3.4437714285714285 7.5664228571428565 -7.573828571428572 7.56368 -1.07592 -0.0006857142857142856 -2.153257142857143 -0.22742857142857142 -3.146468571428571 -0.6813714285714285l-3.7494045714285713 0.6779428571428571c-0.20238285714285711 0.03657142857142857 -0.4088182857142857 -0.0384 -0.5405359999999999 -0.19634285714285715 -0.13171771428571427 -0.15794285714285713 -0.16839428571428572 -0.3745142857142857 -0.09603542857142856 -0.5669714285714286l1.0730959999999998 -2.8550857142857144C0.8182114285714285 10.759634285714286 0.4332045714285714 9.38958857142857 0.43319771428571424 8.00294857142857 0.4331782857142857 3.8793599999999997 3.873005714285714 0.4349702857142857 8.000045714285713 0.43359428571428565h0.00015999999999999999ZM11.799885714285713 11.218137142857143c-0.84264 0.68152 -2.14616 1.3691771428571426 -3.3925942857142855 0.5690628571428571 -1.6349371428571426 -1.0495085714285715 -3.0817142857142854 -2.42984 -4.13136 -4.064685714285714 -0.6153485714285714 -0.9584342857142857 -0.036251428571428566 -2.4923314285714286 0.8300914285714286 -3.427005714285714 0.34587428571428575 -0.3731657142857142 0.9146514285714286 -0.31416 1.2904114285714285 0.02888l0.7910742857142856 0.7222057142857142c0.24060571428571426 0.21965714285714286 0.24906285714285714 0.6014399999999999 0.09906285714285713 0.8906399999999999 -0.23652571428571428 0.4560114285714285 -0.3756342857142857 1.0674285714285714 -0.08316571428571429 1.5230514285714285 0.36744 0.5724 0.8208799999999999 1.1353485714285714 1.901222857142857 1.4641485714285714 0.32681142857142853 0.09946285714285713 0.74696 0.05657142857142857 1.1029371428571428 -0.08764571428571427 0.2989942857142857 -0.12113142857142857 0.6770628571428571 -0.11972571428571428 0.8979314285714285 0.11539428571428571l0.7353028571428571 0.7827999999999999c0.40559999999999996 0.4317371428571428 0.4195428571428571 1.1106399999999998 -0.04091428571428571 1.4831542857142856Z" clip-rule="evenodd" stroke-width="1.1428571428571428"/></g></svg>