<svg width="80" height="80" viewBox="0 0 80 80" fill="none" xmlns="http://www.w3.org/2000/svg">
<path d="M49 19H31V76H49V19Z" fill="#D9304C"/>
<path d="M13 34H28V76H13C12.2044 76 11.4413 75.6839 10.8787 75.1213C10.3161 74.5587 10 73.7957 10 73V37C10 36.2044 10.3161 35.4413 10.8787 34.8787C11.4413 34.3161 12.2044 34 13 34Z" fill="#000D6E"/>
<path d="M52 4H67C67.7956 4 68.5587 4.31607 69.1213 4.87868C69.6839 5.44129 70 6.20435 70 7V73C70 73.7956 69.6839 74.5587 69.1213 75.1213C68.5587 75.6839 67.7956 76 67 76H52V4Z" fill="#FFACA6"/>
</svg>
