<svg width="80" height="80" viewBox="0 0 80 80" fill="none" xmlns="http://www.w3.org/2000/svg">
<g clip-path="url(#clip0_25372_218355)">
<path d="M58 60.4286H70.8571V68.1429C70.8571 68.8249 70.5862 69.4789 70.104 69.9612C69.6217 70.4434 68.9677 70.7143 68.2857 70.7143H60.5714C59.8894 70.7143 59.2354 70.4434 58.7532 69.9612C58.2709 69.4789 58 68.8249 58 68.1429V60.4286Z" fill="#000D6E"/>
<path d="M9.14282 60.4286H22V68.1429C22 68.8249 21.729 69.4789 21.2468 69.9612C20.7646 70.4434 20.1105 70.7143 19.4285 70.7143H11.7143C11.0323 70.7143 10.3782 70.4434 9.89598 69.9612C9.41374 69.4789 9.14282 68.8249 9.14282 68.1429V60.4286Z" fill="#000D6E"/>
<path d="M74.7143 24.4286H69.5715C68.8614 24.4286 68.2858 25.0042 68.2858 25.7143V28.2857C68.2858 28.9958 68.8614 29.5714 69.5715 29.5714H74.7143C75.4244 29.5714 76.0001 28.9958 76.0001 28.2857V25.7143C76.0001 25.0042 75.4244 24.4286 74.7143 24.4286Z" fill="#1B5951"/>
<path d="M10.4286 24.4286H5.28571C4.57563 24.4286 4 25.0042 4 25.7143V28.2857C4 28.9958 4.57563 29.5714 5.28571 29.5714H10.4286C11.1387 29.5714 11.7143 28.9958 11.7143 28.2857V25.7143C11.7143 25.0042 11.1387 24.4286 10.4286 24.4286Z" fill="#1B5951"/>
<path d="M70.06 39.8571L67.4885 32.1428H12.5628L9.9914 39.8571C9.44149 41.1054 9.15271 42.4531 9.14282 43.8171V57.8571H70.8571V43.8171C70.8635 42.4566 70.5922 41.1092 70.06 39.8571ZM18.1428 50.1428C17.1198 50.1428 16.1388 49.7365 15.4154 49.0131C14.6921 48.2897 14.2857 47.3087 14.2857 46.2857C14.2857 45.2627 14.6921 44.2816 15.4154 43.5583C16.1388 42.8349 17.1198 42.4285 18.1428 42.4285C19.1658 42.4285 20.1469 42.8349 20.8702 43.5583C21.5936 44.2816 22 45.2627 22 46.2857C22 47.3087 21.5936 48.2897 20.8702 49.0131C20.1469 49.7365 19.1658 50.1428 18.1428 50.1428ZM61.8571 50.1428C60.8341 50.1428 59.8531 49.7365 59.1297 49.0131C58.4063 48.2897 58 47.3087 58 46.2857C58 45.2627 58.4063 44.2816 59.1297 43.5583C59.8531 42.8349 60.8341 42.4285 61.8571 42.4285C62.8801 42.4285 63.8612 42.8349 64.5845 43.5583C65.3079 44.2816 65.7143 45.2627 65.7143 46.2857C65.7143 47.3087 65.3079 48.2897 64.5845 49.0131C63.8612 49.7365 62.8801 50.1428 61.8571 50.1428Z" fill="#1B5951"/>
<path d="M59.98 13.7571C59.3956 12.3491 58.4072 11.1458 57.1395 10.2992C55.8717 9.45251 54.3816 9.00042 52.8571 9H27.1429C25.6184 9.00042 24.1282 9.45251 22.8605 10.2992C21.5928 11.1458 20.6044 12.3491 20.02 13.7571L13.4371 29.5714H66.5629L59.98 13.7571Z" fill="#94E3D4"/>
</g>
<defs>
<clipPath id="clip0_25372_218355">
<rect width="72" height="61.7143" fill="white" transform="translate(4 9)"/>
</clipPath>
</defs>
</svg>
