<svg width="80" height="80" viewBox="0 0 80 80" fill="none" xmlns="http://www.w3.org/2000/svg">
<path d="M53.3918 41.128L51.1118 28H28.8398L26.5598 41.128H53.3918Z" fill="#94E3D4"/>
<path d="M26.32 28H17.944L4 41.128H24.04L26.32 28Z" fill="#94E3D4"/>
<path d="M4.0481 43.5278L37.7441 75.9998L24.2561 43.5278H4.0481Z" fill="#94E3D4"/>
<path d="M53.0322 43.5278H26.9202L39.9762 74.9198L53.0322 43.5278Z" fill="#94E3D4"/>
<path d="M75.9998 41.128L62.5838 28H53.6318L55.9118 41.128H75.9998Z" fill="#94E3D4"/>
<path d="M42.2078 75.9998L75.9038 43.5278H55.6958L42.2078 75.9998Z" fill="#94E3D4"/>
<path d="M40 16C39.6818 16 39.3766 15.8736 39.1515 15.6485C38.9265 15.4235 38.8 15.1183 38.8 14.8V5.2C38.8 4.88174 38.9265 4.57652 39.1515 4.35147C39.3766 4.12643 39.6818 4 40 4C40.3183 4 40.6235 4.12643 40.8486 4.35147C41.0736 4.57652 41.2 4.88174 41.2 5.2V14.8C41.2 15.1183 41.0736 15.4235 40.8486 15.6485C40.6235 15.8736 40.3183 16 40 16Z" fill="#000D6E"/>
<path d="M56.8001 20.8C56.6427 20.8019 56.4867 20.7709 56.342 20.7089C56.1973 20.6469 56.0672 20.5553 55.9601 20.44C55.8453 20.3323 55.7538 20.2022 55.6912 20.0577C55.6287 19.9132 55.5964 19.7575 55.5964 19.6C55.5964 19.4426 55.6287 19.2868 55.6912 19.1424C55.7538 18.9979 55.8453 18.8678 55.9601 18.76L62.7281 11.968C62.84 11.8561 62.9728 11.7674 63.119 11.7068C63.2652 11.6463 63.4219 11.6151 63.5801 11.6151C63.7383 11.6151 63.895 11.6463 64.0412 11.7068C64.1874 11.7674 64.3202 11.8561 64.4321 11.968C64.544 12.0799 64.6327 12.2127 64.6933 12.3589C64.7538 12.5051 64.785 12.6618 64.785 12.82C64.785 12.9783 64.7538 13.1349 64.6933 13.2811C64.6327 13.4273 64.544 13.5601 64.4321 13.672L57.6401 20.44C57.5329 20.5553 57.4028 20.6469 57.2582 20.7089C57.1135 20.7709 56.9575 20.8019 56.8001 20.8Z" fill="#000D6E"/>
<path d="M23.1998 20.8C23.0424 20.8019 22.8863 20.7709 22.7417 20.7089C22.597 20.6469 22.4669 20.5553 22.3598 20.44L15.5678 13.6C15.4559 13.4881 15.3671 13.3553 15.3066 13.2091C15.246 13.0629 15.2148 12.9062 15.2148 12.748C15.2148 12.5898 15.246 12.4331 15.3066 12.2869C15.3671 12.1407 15.4559 12.0079 15.5678 11.896C15.6796 11.7841 15.8125 11.6954 15.9587 11.6348C16.1048 11.5743 16.2615 11.5431 16.4198 11.5431C16.578 11.5431 16.7347 11.5743 16.8809 11.6348C17.027 11.6954 17.1599 11.7841 17.2718 11.896L24.0398 18.688C24.1545 18.7957 24.246 18.9259 24.3086 19.0703C24.3711 19.2148 24.4034 19.3706 24.4034 19.528C24.4034 19.6854 24.3711 19.8412 24.3086 19.9857C24.246 20.1301 24.1545 20.2603 24.0398 20.368C23.9393 20.4964 23.8122 20.6016 23.6672 20.6762C23.5221 20.7507 23.3627 20.793 23.1998 20.8Z" fill="#000D6E"/>
</svg>
