<svg width="80" height="80" viewBox="0 0 80 80" fill="none" xmlns="http://www.w3.org/2000/svg">
<path d="M50.5066 19.541C50.1175 19.5444 49.7323 19.4639 49.3771 19.305C49.0219 19.1461 48.7052 18.9126 48.4484 18.6202C48.1946 18.3355 48.0052 17.9994 47.8931 17.6349C47.7809 17.2704 47.7486 16.886 47.7984 16.5078C47.8268 16.1654 47.8268 15.8212 47.7984 15.4787C47.7984 12.9648 46.7998 10.5539 45.0222 8.77625C43.2446 6.99865 40.8336 6 38.3197 6C35.8058 6 33.3948 6.99865 31.6172 8.77625C29.8396 10.5539 28.841 12.9648 28.841 15.4787C28.8126 15.8212 28.8126 16.1654 28.841 16.5078C28.8908 16.886 28.8585 17.2704 28.7463 17.6349C28.6342 17.9994 28.4448 18.3355 28.191 18.6202C27.9342 18.9126 27.6175 19.1461 27.2623 19.305C26.9071 19.4639 26.5219 19.5444 26.1328 19.541H16.7082C15.99 19.541 15.3011 19.8263 14.7932 20.3342C14.2854 20.8421 14 21.531 14 22.2492V28.1531C13.997 28.7558 14.1991 29.3415 14.5732 29.814C14.9472 30.2866 15.471 30.6177 16.0583 30.753C19.3425 31.5085 22.2734 33.3554 24.3724 35.992C26.4713 38.6285 27.6141 41.8989 27.6141 45.2689C27.6141 48.639 26.4713 51.9094 24.3724 54.5459C22.2734 57.1825 19.3425 59.0294 16.0583 59.7849C15.471 59.9202 14.9472 60.2513 14.5732 60.7239C14.1991 61.1964 13.997 61.7821 14 62.3848V70.9969C14 71.7151 14.2854 72.404 14.7932 72.9119C15.3011 73.4198 15.99 73.7051 16.7082 73.7051H61.3936C62.8301 73.7051 64.2078 73.1344 65.2236 72.1187C66.2393 71.1029 66.81 69.7252 66.81 68.2887V22.2492C66.81 21.531 66.5247 20.8421 66.0168 20.3342C65.5089 19.8263 64.8201 19.541 64.1018 19.541H50.5066Z" fill="#D9304C" fill-opacity="0.866667"/>
</svg>
