<svg width="225" height="288" viewBox="0 0 225 288" fill="none" xmlns="http://www.w3.org/2000/svg">
<path d="M155.02 57.5C153.368 57.5144 151.732 57.1726 150.224 56.4979C148.716 55.8231 147.371 54.8313 146.28 53.59C145.203 52.381 144.398 50.9539 143.922 49.406C143.446 47.8581 143.309 46.2257 143.52 44.62C143.641 43.1658 143.641 41.7042 143.52 40.25C143.52 29.575 139.28 19.3373 131.731 11.7889C124.183 4.2406 113.945 0 103.27 0C92.5952 0 82.3574 4.2406 74.8091 11.7889C67.2608 19.3373 63.0201 29.575 63.0201 40.25C62.8996 41.7042 62.8996 43.1658 63.0201 44.62C63.2316 46.2257 63.0945 47.8581 62.6183 49.406C62.142 50.9539 61.3377 52.381 60.2602 53.59C59.1697 54.8313 57.8246 55.8231 56.3164 56.4979C54.8082 57.1726 53.1723 57.5144 51.5201 57.5H11.5001C8.45016 57.5 5.52508 58.7116 3.36841 60.8683C1.21174 63.0249 0.000147392 65.95 0.000147392 69V94.07C-0.0129359 96.6291 0.84534 99.1165 2.4338 101.123C4.02227 103.129 6.24632 104.536 8.74015 105.11C22.6861 108.318 35.132 116.161 44.0447 127.357C52.9574 138.552 57.8101 152.44 57.8101 166.75C57.8101 181.06 52.9574 194.948 44.0447 206.143C35.132 217.339 22.6861 225.182 8.74015 228.39C6.24632 228.964 4.02227 230.371 2.4338 232.377C0.84534 234.384 -0.0129359 236.871 0.000147392 239.43V276C0.000147392 279.05 1.21174 281.975 3.36841 284.132C5.52508 286.288 8.45016 287.5 11.5001 287.5H201.25C207.35 287.5 213.2 285.077 217.514 280.763C221.827 276.45 224.25 270.6 224.25 264.5V69C224.25 65.95 223.039 63.0249 220.882 60.8683C218.725 58.7116 215.8 57.5 212.75 57.5H155.02Z" fill="#BE82FA"/>
</svg>
