<svg width="282" height="230" viewBox="0 0 282 230" fill="none" xmlns="http://www.w3.org/2000/svg">
<path d="M53.5898 0.000147359C56.1488 -0.0129352 58.6362 0.845442 60.6426 2.43374C62.6491 4.0222 64.0554 6.24656 64.6299 8.74038C67.8381 22.6863 75.6811 35.1324 86.877 44.0451C98.0726 52.9575 111.96 57.8106 126.27 57.8107C140.58 57.8107 154.467 52.9576 165.663 44.0451C176.859 35.1324 184.702 22.6863 187.91 8.74038C188.485 6.24656 189.891 4.0222 191.897 2.43374C193.904 0.845454 196.391 -0.0129352 198.95 0.000147359H212.52C215.569 0.000147359 218.495 1.21183 220.651 3.36831C222.808 5.52494 224.019 8.45021 224.02 11.5001V57.9601C224.005 59.6123 224.348 61.2488 225.022 62.757C225.697 64.2649 226.689 65.6101 227.93 66.7003C230.444 68.7581 233.664 69.7487 236.9 69.4601C242.516 68.8572 248.196 69.4435 253.57 71.1798C258.945 72.9162 263.894 75.7637 268.096 79.5382C272.297 83.3129 275.658 87.9304 277.958 93.089C280.258 98.2475 281.446 103.833 281.446 109.481C281.446 115.129 280.258 120.714 277.958 125.872C275.658 131.031 272.297 135.647 268.096 139.422C263.894 143.197 258.945 146.045 253.57 147.781C248.196 149.518 242.516 150.103 236.9 149.5C235.347 149.261 233.76 149.364 232.251 149.801C230.742 150.238 229.346 150.999 228.16 152.03C226.919 153.121 225.927 154.466 225.252 155.974C224.577 157.482 224.236 159.118 224.25 160.771V230H23C16.9 230 11.0497 227.577 6.73633 223.264C2.42304 218.95 0 213.1 0 207V11.5001C3.92104e-05 8.45021 1.21153 5.52494 3.36816 3.36831C5.52483 1.21169 8.45004 0.000147359 11.5 0.000147359H53.5898Z" fill="#FF596F"/>
</svg>
