<svg width="1658" height="483" viewBox="0 0 1658 483" fill="none" xmlns="http://www.w3.org/2000/svg">
<path d="M401.77 253C400.118 253.014 398.482 252.673 396.974 251.998C395.465 251.323 394.12 250.331 393.03 249.09C391.952 247.881 391.148 246.454 390.672 244.906C390.196 243.358 390.059 241.726 390.27 240.12C390.391 238.666 390.391 237.204 390.27 235.75C390.27 225.075 386.029 214.837 378.481 207.289C370.933 199.741 360.695 195.5 350.02 195.5C339.345 195.5 329.107 199.741 321.559 207.289C314.011 214.837 309.77 225.075 309.77 235.75C309.649 237.204 309.649 238.666 309.77 240.12C309.981 241.726 309.844 243.358 309.368 244.906C308.892 246.454 308.088 247.881 307.01 249.09C305.92 250.331 304.574 251.323 303.066 251.998C301.558 252.673 299.922 253.014 298.27 253H258.25C255.2 253 252.275 254.212 250.118 256.368C247.962 258.525 246.75 261.45 246.75 264.5V289.57C246.737 292.129 247.595 294.616 249.184 296.623C250.772 298.629 252.996 300.036 255.49 300.61C269.436 303.818 281.882 311.661 290.795 322.857C299.707 334.052 304.56 347.94 304.56 362.25C304.56 376.56 299.707 390.448 290.795 401.643C281.882 412.839 269.436 420.682 255.49 423.89C252.996 424.464 250.772 425.871 249.184 427.877C247.595 429.884 246.737 432.371 246.75 434.93V471.5C246.75 474.55 247.962 477.475 250.118 479.632C252.275 481.788 255.2 483 258.25 483H448C454.1 483 459.95 480.577 464.263 476.263C468.577 471.95 471 466.1 471 460V264.5C471 261.45 469.788 258.525 467.632 256.368C465.475 254.212 462.55 253 459.5 253H401.77Z" fill="#BE82FA"/>
<path d="M448.001 0C454.101 0 459.951 2.423 464.265 6.73633C468.578 11.0497 471.001 16.9 471.001 23V218.27C471.001 221.319 469.789 224.245 467.633 226.401C465.476 228.558 462.551 229.77 459.501 229.77H422.701C420.142 229.783 417.655 228.924 415.648 227.336C413.642 225.748 412.236 223.524 411.661 221.03C408.453 207.084 400.61 194.638 389.414 185.726C378.218 176.813 364.331 171.96 350.021 171.96C335.71 171.96 321.824 176.813 310.628 185.726C299.432 194.638 291.589 207.084 288.381 221.03C287.806 223.524 286.4 225.748 284.394 227.336C282.387 228.924 279.9 229.783 277.341 229.77H258.021C254.971 229.769 252.046 228.558 249.89 226.401C247.733 224.245 246.521 221.32 246.521 218.27V172.27C246.535 170.617 246.193 168.982 245.519 167.474C244.844 165.966 243.852 164.621 242.611 163.53C241.446 162.458 240.058 161.655 238.548 161.178C237.038 160.701 235.441 160.561 233.871 160.77C228.255 161.372 222.575 160.787 217.2 159.051C211.826 157.314 206.876 154.466 202.675 150.691C198.473 146.917 195.114 142.3 192.813 137.142C190.513 131.983 189.324 126.398 189.324 120.75C189.324 115.102 190.513 109.517 192.813 104.358C195.114 99.2 198.473 94.5832 202.675 90.8086C206.876 87.034 211.826 84.1856 217.2 82.4492C222.575 80.7128 228.255 80.1275 233.871 80.7305C235.477 80.9419 237.109 80.8044 238.657 80.3281C240.205 79.8518 241.632 79.0472 242.841 77.9697C244.082 76.8793 245.074 75.5345 245.749 74.0264C246.424 72.5183 246.765 70.8825 246.751 69.2305V11.5C246.751 8.45001 247.962 5.52483 250.119 3.36816C252.276 1.2115 255.201 0 258.251 0H448.001Z" fill="#FFBE19"/>
<path d="M224.255 0V51.75C224.228 53.1159 223.734 54.4314 222.855 55.4775C221.977 56.5237 220.766 57.2375 219.425 57.5C204.494 59.4477 190.748 66.6585 180.658 77.835C170.568 89.0114 164.797 103.42 164.381 118.472C163.965 133.523 168.932 148.23 178.39 159.946C187.847 171.663 201.174 179.621 215.975 182.39C218.468 182.964 220.693 184.371 222.281 186.377C223.87 188.383 224.728 190.871 224.715 193.43V218.5C224.715 221.55 223.503 224.475 221.347 226.632C219.19 228.788 216.265 230 213.215 230H178.485C176.833 229.986 175.197 230.327 173.688 231.002C172.18 231.677 170.836 232.669 169.745 233.91C168.668 235.119 167.863 236.546 167.387 238.094C166.91 239.642 166.774 241.274 166.985 242.88C167.106 244.334 167.106 245.796 166.985 247.25C166.985 257.925 162.745 268.163 155.196 275.711C147.648 283.259 137.41 287.5 126.735 287.5C116.06 287.5 105.823 283.259 98.2744 275.711C90.7261 268.163 86.4854 257.925 86.4854 247.25C86.3648 245.796 86.3648 244.334 86.4854 242.88C86.6968 241.274 86.5593 239.642 86.083 238.094C85.6067 236.546 84.8021 235.119 83.7246 233.91C82.6342 232.669 81.2894 231.677 79.7812 231.002C78.2732 230.327 76.6374 229.986 74.9854 230H11.5049C8.45494 230 5.52969 228.788 3.37305 226.632C1.21642 224.475 0.00488281 221.55 0.00488281 218.5V180H0V64H0.0556641C0.023114 63.7526 0.00488281 63.5023 0.00488281 63.25V23C0.00488281 16.9 2.42791 11.0497 6.74121 6.73633C11.0545 2.42302 16.9049 3.20438e-05 23.0049 0H224.255Z" fill="#21D9AC"/>
<path d="M53.5898 253C56.1488 252.987 58.6362 253.845 60.6426 255.434C62.6491 257.022 64.0554 259.247 64.6299 261.74C67.8381 275.686 75.6811 288.132 86.877 297.045C98.0726 305.958 111.96 310.811 126.27 310.811C140.58 310.811 154.467 305.958 165.663 297.045C176.859 288.132 184.702 275.686 187.91 261.74C188.485 259.247 189.891 257.022 191.897 255.434C193.904 253.845 196.391 252.987 198.95 253H212.52C215.569 253 218.495 254.212 220.651 256.368C222.808 258.525 224.019 261.45 224.02 264.5V310.96C224.005 312.612 224.348 314.249 225.022 315.757C225.697 317.265 226.689 318.61 227.93 319.7C230.444 321.758 233.664 322.749 236.9 322.46C242.516 321.857 248.196 322.444 253.57 324.18C258.945 325.916 263.894 328.764 268.096 332.538C272.297 336.313 275.658 340.93 277.958 346.089C280.258 351.247 281.446 356.833 281.446 362.481C281.446 368.129 280.258 373.714 277.958 378.872C275.658 384.031 272.297 388.647 268.096 392.422C263.894 396.197 258.945 399.045 253.57 400.781C248.196 402.518 242.516 403.103 236.9 402.5C235.347 402.261 233.76 402.364 232.251 402.801C230.742 403.238 229.346 403.999 228.16 405.03C226.919 406.121 225.927 407.466 225.252 408.974C224.577 410.482 224.236 412.118 224.25 413.771V483H23C16.9 483 11.0497 480.577 6.73633 476.264C2.42304 471.95 0 466.1 0 460V264.5C3.92104e-05 261.45 1.21153 258.525 3.36816 256.368C5.52483 254.212 8.45004 253 11.5 253H53.5898Z" fill="#FF596F"/>
<g clip-path="url(#clip0_3153_304)">
<path d="M528.003 115.26C525.334 117.928 525.334 122.248 528.003 124.909L600.608 197.499C603.277 200.167 607.597 200.167 610.258 197.499L650.544 157.221L626.025 132.707L605.429 153.298L572.22 120.096L605.429 86.8942L663.165 144.619L682.863 124.924C685.532 122.256 685.532 117.936 682.863 115.276L610.258 42.6777C607.589 40.0095 603.269 40.0095 600.608 42.6777L528.003 115.26ZM805.747 118.484V176.502H776.819V124.202C776.819 114.331 770.067 108.613 761.402 108.613C752.736 108.613 745.635 114.847 745.635 123.162V176.502H716.708V49.9042H745.635V91.1189C751.871 86.1001 760.187 82.9792 770.234 82.9792C791.712 82.9792 805.747 97.5274 805.747 118.484ZM846.279 139.441C849.225 149.661 857.367 155.204 868.28 155.204C878.503 155.204 883.523 151.742 887.16 145.683L908.812 160.056C901.537 169.578 890.107 178.758 867.414 178.758C837.272 178.758 818.225 158.15 818.225 130.96C818.225 103.769 839.361 82.9871 865.683 82.9871C895.476 82.9871 913.141 106.541 913.141 129.054C913.141 133.557 912.792 137.019 912.45 139.441H846.279ZM886.287 121.43C883.864 111.043 876.93 104.635 866.366 104.635C855.802 104.635 848.352 110.352 845.929 121.43H886.287ZM926.295 176.502V49.9042H955.222V176.502H926.295ZM1033.16 85.2345H1062.96L1030.57 176.502H996.787L964.396 85.2345H994.19L1013.59 148.097L1033.16 85.2345H1033.16ZM1091.71 139.441C1094.66 149.661 1102.8 155.204 1113.71 155.204C1123.94 155.204 1128.96 151.742 1132.59 145.683L1154.25 160.056C1146.97 169.578 1135.54 178.758 1112.85 178.758C1082.7 178.758 1063.66 158.15 1063.66 130.96C1063.66 103.769 1084.79 82.9871 1111.12 82.9871C1140.91 82.9871 1158.57 106.541 1158.57 129.054C1158.57 133.557 1158.22 137.019 1157.88 139.441H1091.71ZM1131.72 121.43C1129.3 111.043 1122.36 104.635 1111.8 104.635C1101.23 104.635 1093.78 110.352 1091.36 121.43H1131.72ZM1215.21 176.502C1191.65 176.502 1179.69 162.478 1179.69 141.347V109.828H1164.45V85.2345H1171.73C1178.14 85.2345 1181.43 81.7721 1181.43 75.0142V60.9901H1209.49V85.2345H1230.27V109.828H1208.45V137.884C1208.45 146.715 1213.13 151.392 1221.27 151.392H1230.79V176.502H1215.2H1215.21ZM1242.92 55.336C1242.92 45.1157 1250.89 37.5001 1261.11 37.5001C1271.33 37.5001 1279.3 45.1236 1279.3 55.336C1279.3 65.5483 1271.33 72.9971 1261.11 72.9971C1250.89 72.9971 1242.92 65.723 1242.92 55.336ZM1246.56 176.502V85.2345H1275.48V176.502H1246.56ZM1360.33 85.2345H1387V176.502H1360.33V168.188C1353.92 174.938 1345.26 178.75 1334 178.75C1307.49 178.75 1288.45 158.317 1288.45 130.952C1288.45 103.587 1307.5 84.8851 1334 84.8851C1345.26 84.8851 1353.92 88.3474 1360.33 94.756V85.2345ZM1359.29 130.952C1359.29 117.619 1350.8 108.439 1338.15 108.439C1325.51 108.439 1317.19 117.96 1317.19 130.952C1317.19 143.944 1325.85 153.29 1338.15 153.29C1350.46 153.29 1359.29 144.11 1359.29 130.952Z" fill="#000D6E"/>
</g>
<path d="M604.401 346.42V299.54H618.001V416.5H605.361V400.98C598.801 411.7 587.601 418.26 573.681 418.26C549.681 418.26 532.241 399.54 532.241 374.26C532.241 349.3 549.521 330.42 573.361 330.42C586.801 330.42 597.681 336.34 604.401 346.42ZM575.281 406.26C592.721 406.26 604.881 393.14 604.881 374.26C604.881 355.54 592.881 342.42 575.281 342.42C558.321 342.42 545.681 356.18 545.681 374.26C545.681 392.66 558.321 406.26 575.281 406.26ZM718.718 379.38H648.638C651.038 395.06 663.358 405.62 678.878 405.62C692.638 405.62 700.318 400.34 704.478 390.58L716.318 397.78C710.078 409.78 698.398 418.42 678.398 418.42C652.478 418.42 634.878 399.54 634.878 374.42C634.878 349.94 653.598 330.26 677.438 330.26C702.878 330.26 719.038 350.26 719.038 372.5C719.038 374.9 718.878 377.78 718.718 379.38ZM648.798 367.54H705.118C703.038 351.7 691.998 342.1 677.918 342.1C663.678 342.1 651.358 351.54 648.798 367.54ZM762.526 418.26C745.086 418.26 732.286 411.22 727.806 397.78L740.766 392.66C743.486 401.3 751.326 406.42 763.006 406.42C773.566 406.42 780.446 401.94 780.446 394.1C780.446 373.78 731.966 382.9 731.966 353.94C731.966 339.38 743.966 330.42 762.526 330.42C777.886 330.42 788.926 336.66 792.606 347.86L779.646 352.98C776.926 345.46 770.846 341.94 762.366 341.94C752.606 341.94 747.006 346.26 747.006 353.14C747.006 372.02 795.806 362.1 795.806 392.98C795.806 408.98 782.526 418.26 762.526 418.26ZM818.456 316.5C812.376 316.5 807.736 312.18 807.736 306.1C807.736 300.02 812.376 295.54 818.456 295.54C824.536 295.54 829.336 300.02 829.336 306.1C829.336 312.18 824.536 316.5 818.456 316.5ZM825.336 416.5H811.736V332.18H825.336V416.5ZM915.83 347.86V332.18H928.47V405.46C928.47 430.58 912.31 446.9 885.11 446.9C863.51 446.9 850.23 437.14 844.79 421.3L856.47 416.82C860.63 429.14 870.87 435.38 885.27 435.38C904.15 435.38 915.83 424.34 915.83 406.58V398.26C909.43 409.14 898.39 415.86 884.31 415.86C860.15 415.86 842.71 397.3 842.71 373.14C842.71 349.3 860.31 330.42 884.31 330.42C898.39 330.42 909.43 337.14 915.83 347.86ZM885.59 405.14C902.87 405.14 915.03 392.02 915.03 373.78C915.03 355.54 903.03 342.42 885.91 342.42C868.95 342.42 856.31 356.02 856.31 373.78C856.31 391.7 868.79 405.14 885.59 405.14ZM992.875 330.42C1014.47 330.42 1027.11 344.02 1027.11 364.98V416.5H1013.51V367.38C1013.51 351.7 1004.39 342.42 989.355 342.58C974.955 342.58 964.715 352.98 964.555 364.34V416.5H950.955V332.18H963.755V344.5C969.195 336.5 979.435 330.42 992.875 330.42ZM1111.74 418.26C1094.3 418.26 1081.5 411.22 1077.02 397.78L1089.98 392.66C1092.7 401.3 1100.54 406.42 1112.22 406.42C1122.78 406.42 1129.66 401.94 1129.66 394.1C1129.66 373.78 1081.18 382.9 1081.18 353.94C1081.18 339.38 1093.18 330.42 1111.74 330.42C1127.1 330.42 1138.14 336.66 1141.82 347.86L1128.86 352.98C1126.14 345.46 1120.06 341.94 1111.58 341.94C1101.82 341.94 1096.22 346.26 1096.22 353.14C1096.22 372.02 1145.02 362.1 1145.02 392.98C1145.02 408.98 1131.74 418.26 1111.74 418.26ZM1190.44 404.98L1218.92 332.18H1233.16L1187.08 445.14H1173.64L1185.64 416.5H1181.96L1149 332.18H1163.24L1190.44 404.98ZM1270.65 418.26C1253.21 418.26 1240.41 411.22 1235.93 397.78L1248.89 392.66C1251.61 401.3 1259.45 406.42 1271.13 406.42C1281.69 406.42 1288.57 401.94 1288.57 394.1C1288.57 373.78 1240.09 382.9 1240.09 353.94C1240.09 339.38 1252.09 330.42 1270.65 330.42C1286.01 330.42 1297.05 336.66 1300.73 347.86L1287.77 352.98C1285.05 345.46 1278.97 341.94 1270.49 341.94C1260.73 341.94 1255.13 346.26 1255.13 353.14C1255.13 372.02 1303.93 362.1 1303.93 392.98C1303.93 408.98 1290.65 418.26 1270.65 418.26ZM1364.85 416.5H1352.53C1334.29 416.5 1324.53 405.62 1324.53 388.18V343.86H1309.17V332.18H1317.97C1323.09 332.18 1325.49 329.62 1325.49 324.5V310.58H1338.61V332.18H1363.57V343.86H1338.13V386.74C1338.13 398.1 1344.05 404.5 1354.93 404.5H1364.85V416.5ZM1453.25 379.38H1383.17C1385.57 395.06 1397.89 405.62 1413.41 405.62C1427.17 405.62 1434.85 400.34 1439.01 390.58L1450.85 397.78C1444.61 409.78 1432.93 418.42 1412.93 418.42C1387.01 418.42 1369.41 399.54 1369.41 374.42C1369.41 349.94 1388.13 330.26 1411.97 330.26C1437.41 330.26 1453.57 350.26 1453.57 372.5C1453.57 374.9 1453.41 377.78 1453.25 379.38ZM1383.33 367.54H1439.65C1437.57 351.7 1426.53 342.1 1412.45 342.1C1398.21 342.1 1385.89 351.54 1383.33 367.54ZM1569.69 330.42C1590.81 330.42 1602.81 344.82 1602.81 364.5V416.5H1589.21V366.9C1589.21 352.66 1580.73 342.42 1566.65 342.58C1552.41 342.58 1543.61 353.62 1543.29 363.38V416.5H1529.69V366.9C1529.69 352.5 1521.21 342.42 1507.13 342.58C1493.05 342.58 1484.09 353.62 1483.93 363.38V416.5H1470.33V332.18H1483.13V344.66C1488.25 336.82 1498.01 330.42 1510.97 330.42C1525.53 330.42 1535.13 336.66 1539.77 347.54C1544.09 338.42 1554.49 330.42 1569.69 330.42Z" fill="#000C6E"/>
<defs>
<clipPath id="clip0_3153_304">
<rect width="861" height="162" fill="white" transform="translate(526.001 37.5001)"/>
</clipPath>
</defs>
</svg>
