<svg width="282" height="230" viewBox="0 0 282 230" fill="none" xmlns="http://www.w3.org/2000/svg">
<path d="M258.677 0C264.777 0 270.627 2.423 274.94 6.73633C279.254 11.0497 281.677 16.9 281.677 23V218.27C281.677 221.319 280.465 224.245 278.309 226.401C276.152 228.558 273.227 229.77 270.177 229.77H233.377C230.818 229.783 228.331 228.924 226.324 227.336C224.318 225.748 222.911 223.524 222.337 221.03C219.129 207.084 211.286 194.638 200.09 185.726C188.894 176.813 175.006 171.96 160.696 171.96C146.386 171.96 132.499 176.813 121.304 185.726C110.108 194.638 102.265 207.084 99.0566 221.03C98.4821 223.524 97.0757 225.748 95.0693 227.336C93.0629 228.924 90.5757 229.783 88.0166 229.77H68.6963C65.6465 229.769 62.722 228.558 60.5654 226.401C58.4088 224.245 57.1963 221.32 57.1963 218.27V172.27C57.2106 170.617 56.869 168.982 56.1943 167.474C55.5197 165.966 54.5282 164.621 53.2871 163.53C52.1214 162.458 50.7339 161.655 49.2236 161.178C47.7134 160.701 46.1168 160.561 44.5469 160.77C38.931 161.372 33.2506 160.787 27.876 159.051C22.5014 157.314 17.5521 154.466 13.3506 150.691C9.14911 146.917 5.7894 142.3 3.48926 137.142C1.18905 131.983 0 126.398 0 120.75C0 115.102 1.18905 109.517 3.48926 104.358C5.7894 99.2 9.14911 94.5832 13.3506 90.8086C17.5521 87.034 22.5014 84.1856 27.876 82.4492C33.2506 80.7128 38.931 80.1275 44.5469 80.7305C46.1525 80.9419 47.7852 80.8044 49.333 80.3281C50.8808 79.8518 52.3076 79.0472 53.5166 77.9697C54.7579 76.8793 55.7501 75.5345 56.4248 74.0264C57.0995 72.5183 57.4411 70.8825 57.4268 69.2305V11.5C57.4268 8.45001 58.6383 5.52483 60.7949 3.36816C62.9516 1.2115 65.8768 0 68.9268 0H258.677Z" fill="#FFBE19"/>
</svg>
