<svg width="2341" height="875" viewBox="0 0 2341 875" fill="none" xmlns="http://www.w3.org/2000/svg">
<path d="M1027.29 701.324C1027.29 716.287 1025.96 727.991 1023.31 736.438C1020.89 744.643 1015.95 751.883 1008.47 758.158C1000.74 764.674 991.693 769.501 981.316 772.638C971.18 775.775 958.51 777.344 943.306 777.344C923.999 777.344 908.554 774.448 896.97 768.656C885.627 762.864 876.577 753.814 869.82 741.506C866.441 735.473 864.39 728.957 863.666 721.958C862.942 714.718 862.58 708.323 862.58 702.772V524.668H891.902V691.912C891.902 698.187 892.143 704.823 892.626 711.822C893.35 718.579 894.557 723.889 896.246 727.75C897.453 730.405 899.142 733.18 901.314 736.076C903.727 738.972 906.865 741.627 910.726 744.04C914.587 746.453 919.293 748.384 924.844 749.832C930.395 751.28 937.031 752.004 944.754 752.004C955.131 752.004 964.061 750.677 971.542 748.022C979.023 745.367 984.695 741.506 988.556 736.438C992.659 730.887 995.193 725.216 996.158 719.424C997.365 713.391 997.968 706.151 997.968 697.704V524.668H1027.29V701.324ZM1094.18 773V524.668H1123.14V773H1094.18ZM1177.27 690.102V662.59H1246.41V690.102H1177.27ZM1424.43 773H1300.63V524.668H1330.31V748.022H1428.41L1424.43 773ZM1468.19 773V593.448L1497.52 588.742V773H1468.19ZM1505.48 536.976C1505.48 543.251 1503.31 548.56 1498.96 552.904C1494.86 557.007 1489.67 559.058 1483.4 559.058C1477.12 559.058 1471.81 557.007 1467.47 552.904C1463.37 548.56 1461.32 543.371 1461.32 537.338C1461.32 531.063 1463.37 525.754 1467.47 521.41C1471.81 517.066 1477.12 514.894 1483.4 514.894C1489.67 514.894 1494.86 517.066 1498.96 521.41C1503.31 525.513 1505.48 530.701 1505.48 536.976ZM1713.85 680.328C1713.85 694.808 1712.16 708.081 1708.78 720.148C1705.4 731.973 1700.58 742.109 1694.3 750.556C1688.03 759.003 1680.42 765.639 1671.49 770.466C1662.81 775.051 1653.03 777.344 1642.17 777.344C1632.76 777.344 1623.35 775.051 1613.94 770.466C1604.77 765.881 1597.65 760.209 1592.58 753.452C1592.1 757.313 1591.61 760.692 1591.13 763.588C1590.65 766.243 1589.44 769.38 1587.51 773H1559.27C1561.21 768.656 1562.53 763.226 1563.26 756.71C1564.22 749.953 1564.7 740.42 1564.7 728.112V550.732C1564.7 540.113 1563.98 531.667 1562.53 525.392C1561.33 518.876 1560.48 515.015 1560 513.808L1588.23 508.378C1588.72 509.826 1589.56 514.291 1590.77 521.772C1592.22 529.012 1592.94 538.786 1592.94 551.094V593.086C1592.94 597.189 1592.82 601.291 1592.58 605.394C1592.34 609.255 1592.22 611.789 1592.22 612.996C1601.15 604.308 1609.59 598.154 1617.56 594.534C1625.52 590.673 1634.33 588.742 1643.98 588.742C1654.84 588.742 1664.5 590.914 1672.94 595.258C1681.63 599.361 1688.99 605.394 1695.02 613.358C1701.06 621.322 1705.64 630.975 1708.78 642.318C1712.16 653.661 1713.85 666.331 1713.85 680.328ZM1682.35 678.518C1682.35 666.451 1681.51 656.677 1679.82 649.196C1678.37 641.715 1675.72 635.319 1671.86 630.01C1668.48 625.183 1663.65 621.443 1657.38 618.788C1651.34 615.892 1644.83 614.444 1637.83 614.444C1628.9 614.444 1620.33 616.737 1612.13 621.322C1603.92 625.666 1597.41 631.217 1592.58 637.974V730.646C1597.41 736.921 1603.92 742.109 1612.13 746.212C1620.33 750.315 1628.66 752.366 1637.1 752.366C1643.38 752.366 1649.53 750.918 1655.57 748.022C1661.6 745.126 1666.31 741.265 1669.68 736.438C1673.06 731.611 1675.96 724.613 1678.37 715.442C1681.03 706.03 1682.35 693.722 1682.35 678.518ZM1845.07 619.874C1842.66 618.909 1840.01 618.426 1837.11 618.426C1825.77 618.426 1815.75 622.77 1807.06 631.458C1802.96 635.561 1800.19 639.543 1798.74 643.404C1797.29 647.024 1796.57 652.575 1796.57 660.056V773H1768.33V633.992C1768.33 622.167 1767.36 613.117 1765.43 606.842C1763.74 600.567 1762.66 596.827 1762.18 595.62L1790.41 588.018C1791.14 589.466 1792.34 593.086 1794.03 598.878C1795.96 604.429 1796.69 610.583 1796.2 617.34C1802.72 608.169 1810.44 600.929 1819.37 595.62C1828.54 590.069 1837.71 587.294 1846.88 587.294C1849.06 587.294 1851.11 587.535 1853.04 588.018C1854.97 588.501 1856.17 588.863 1856.66 589.104L1845.07 619.874ZM2004.16 779.878C1997.88 777.947 1992.57 774.689 1988.23 770.104C1984.12 765.277 1981.23 759.727 1979.54 753.452C1970.85 762.14 1962.53 768.415 1954.56 772.276C1946.84 775.896 1937.79 777.706 1927.41 777.706C1916.31 777.706 1907.02 776.137 1899.54 773C1892.06 769.863 1886.02 765.881 1881.44 761.054C1877.09 756.227 1873.96 750.797 1872.03 744.764C1870.34 738.489 1869.49 732.335 1869.49 726.302C1869.49 705.789 1877.82 689.861 1894.47 678.518C1911.12 667.175 1934.65 661.504 1965.06 661.504C1966.99 661.504 1968.8 661.504 1970.49 661.504C1972.42 661.504 1974.83 661.625 1977.73 661.866V649.196C1977.73 641.232 1977.37 635.319 1976.64 631.458C1976.16 627.355 1974.59 623.856 1971.94 620.96C1969.04 617.581 1965.66 615.168 1961.8 613.72C1957.94 612.031 1953.23 611.186 1947.68 611.186C1942.62 611.186 1937.31 611.789 1931.76 612.996C1926.2 614.203 1920.77 615.892 1915.47 618.064C1910.4 619.995 1905.57 622.287 1900.99 624.942C1896.64 627.355 1893.02 629.889 1890.13 632.544L1876.01 612.272C1900.14 596.103 1925.36 588.018 1951.67 588.018C1977.25 588.018 1993.9 597.43 2001.62 616.254C2003.55 621.081 2004.76 626.873 2005.24 633.63C2005.72 640.387 2005.84 647.869 2005.6 656.074L2004.16 715.442C2003.91 722.682 2003.91 728.715 2004.16 733.542C2004.4 738.369 2005 742.471 2005.97 745.85C2007.17 748.987 2008.74 751.642 2010.67 753.814C2012.6 755.986 2015.26 757.917 2018.64 759.606L2004.16 779.878ZM1977.01 681.414C1975.07 681.173 1972.66 681.052 1969.77 681.052C1967.11 680.811 1964.82 680.69 1962.89 680.69C1951.54 680.69 1941.89 681.655 1933.93 683.586C1925.96 685.517 1919.57 688.292 1914.74 691.912C1909.91 695.532 1906.42 700.117 1904.24 705.668C1902.07 710.977 1900.99 717.011 1900.99 723.768C1900.99 745.729 1911.36 756.71 1932.12 756.71C1941.29 756.71 1949.86 754.176 1957.82 749.108C1965.78 743.799 1971.82 736.921 1975.92 728.474L1977.01 681.414ZM2150.51 619.874C2148.1 618.909 2145.44 618.426 2142.55 618.426C2131.2 618.426 2121.19 622.77 2112.5 631.458C2108.4 635.561 2105.62 639.543 2104.17 643.404C2102.73 647.024 2102 652.575 2102 660.056V773H2073.77V633.992C2073.77 622.167 2072.8 613.117 2070.87 606.842C2069.18 600.567 2068.1 596.827 2067.61 595.62L2095.85 588.018C2096.57 589.466 2097.78 593.086 2099.47 598.878C2101.4 604.429 2102.12 610.583 2101.64 617.34C2108.16 608.169 2115.88 600.929 2124.81 595.62C2133.98 590.069 2143.15 587.294 2152.32 587.294C2154.49 587.294 2156.54 587.535 2158.47 588.018C2160.41 588.501 2161.61 588.863 2162.09 589.104L2150.51 619.874ZM2255.57 779.516C2252.67 788.687 2249.42 796.892 2245.8 804.132C2242.42 811.613 2238.44 818.25 2233.85 824.042C2229.26 829.834 2223.96 834.661 2217.92 838.522C2212.13 842.383 2205.25 845.279 2197.29 847.21L2188.96 828.024C2194.75 826.335 2199.7 824.163 2203.8 821.508C2207.91 818.853 2211.53 815.475 2214.66 811.372C2217.8 807.269 2220.58 802.081 2222.99 795.806C2225.64 789.531 2228.18 781.809 2230.59 772.638L2219.01 774.448C2218.53 771.552 2217.56 767.449 2216.11 762.14C2214.66 756.589 2213.1 750.677 2211.41 744.402C2209.72 738.127 2207.91 731.973 2205.98 725.94C2204.05 719.665 2202.36 714.235 2200.91 709.65L2162.17 596.706L2190.05 587.294L2226.97 704.22C2228.18 708.081 2229.39 712.305 2230.59 716.89C2231.8 721.475 2232.88 725.94 2233.85 730.284C2234.82 734.628 2235.66 738.489 2236.38 741.868C2237.11 745.247 2237.59 747.66 2237.83 749.108H2238.56C2240.49 742.833 2242.3 736.559 2243.99 730.284C2245.92 723.768 2247.85 717.373 2249.78 711.098L2285.25 592.724H2317.47L2255.57 779.516Z" fill="#009EE7"/>
<path d="M1086.32 331.88C1086.32 364.153 1075.51 387.653 1053.89 402.38C1032.27 416.793 1000.78 424 959.42 424H864.95V98.76H950.96C963.18 98.76 973.52 99.0733 981.98 99.7C990.44 100.013 997.803 100.797 1004.07 102.05C1010.65 103.303 1016.45 105.027 1021.46 107.22C1026.47 109.1 1031.49 111.607 1036.5 114.74C1060.94 130.407 1073.16 151.713 1073.16 178.66C1073.16 196.207 1068.3 211.09 1058.59 223.31C1049.19 235.53 1035.4 244.303 1017.23 249.63C1030.7 253.077 1041.83 257.777 1050.6 263.73C1059.69 269.37 1066.74 275.95 1071.75 283.47C1077.08 290.99 1080.84 298.98 1083.03 307.44C1085.22 315.587 1086.32 323.733 1086.32 331.88ZM1026.63 326.71C1026.63 315.117 1023.81 304.933 1018.17 296.16C1012.53 287.387 1005.17 281.747 996.08 279.24C992.007 277.987 987.933 277.203 983.86 276.89C979.787 276.577 973.833 276.42 966 276.42H918.53V379.35H967.41C988.09 379.35 1003.13 374.337 1012.53 364.31C1021.93 353.97 1026.63 341.437 1026.63 326.71ZM1016.29 187.12C1016.29 177.72 1013.78 169.417 1008.77 162.21C1004.07 154.69 997.803 149.52 989.97 146.7C986.523 145.447 982.45 144.507 977.75 143.88C973.363 143.253 967.253 142.94 959.42 142.94H918.53V231.77H963.65C973.677 231.77 981.51 231.143 987.15 229.89C992.79 228.323 998.273 224.877 1003.6 219.55C1008.61 214.223 1011.9 208.583 1013.47 202.63C1015.35 196.677 1016.29 191.507 1016.29 187.12ZM1307.95 433.87C1300.75 431.05 1294.17 426.977 1288.21 421.65C1282.57 416.01 1278.34 409.43 1275.52 401.91C1265.81 412.877 1255.63 420.397 1244.97 424.47C1234.63 428.857 1223.04 431.05 1210.19 431.05C1182.93 431.05 1162.88 424.313 1150.03 410.84C1137.5 397.367 1131.23 380.29 1131.23 359.61C1131.23 332.037 1141.26 311.357 1161.31 297.57C1181.37 283.783 1210.51 276.89 1248.73 276.89H1264.71V264.2C1264.71 250.413 1262.68 240.073 1258.6 233.18C1254.84 225.973 1245.91 222.37 1231.81 222.37C1224.29 222.37 1216.62 223.623 1208.78 226.13C1201.26 228.323 1194.21 230.987 1187.63 234.12C1181.05 236.94 1175.41 239.917 1170.71 243.05C1166.01 246.183 1162.72 248.377 1160.84 249.63L1137.81 212.5C1155.67 201.22 1172.44 193.073 1188.1 188.06C1204.08 182.733 1221 180.07 1238.86 180.07C1276.46 180.07 1300.59 193.23 1311.24 219.55C1312.18 222.057 1312.97 224.877 1313.59 228.01C1314.22 231.143 1314.53 234.903 1314.53 239.29C1314.85 243.677 1315 249.003 1315 255.27C1315 261.537 1315 269.057 1315 277.83L1314.06 345.98C1314.06 354.127 1314.22 361.02 1314.53 366.66C1314.85 371.987 1315.79 376.687 1317.35 380.76C1318.92 384.833 1320.96 388.437 1323.46 391.57C1326.28 394.703 1330.04 397.837 1334.74 400.97L1307.95 433.87ZM1263.77 312.14C1263.15 312.14 1261.74 312.14 1259.54 312.14C1257.66 311.827 1255.94 311.67 1254.37 311.67C1241.53 311.67 1230.72 312.61 1221.94 314.49C1213.48 316.37 1206.59 319.19 1201.26 322.95C1196.25 326.71 1192.65 331.41 1190.45 337.05C1188.26 342.69 1187.16 349.27 1187.16 356.79C1187.16 368.07 1189.98 377 1195.62 383.58C1201.58 390.16 1209.72 393.45 1220.06 393.45C1228.21 393.45 1236.04 391.257 1243.56 386.87C1251.08 382.17 1257.51 376.06 1262.83 368.54L1263.77 312.14ZM1475.05 423.53C1465.65 427.29 1455.31 429.17 1444.03 429.17C1430.87 429.17 1420.69 426.663 1413.48 421.65C1406.59 416.323 1401.42 410.213 1397.97 403.32C1394.84 396.113 1392.96 388.75 1392.33 381.23C1392.02 373.397 1391.86 366.973 1391.86 361.96V159.39C1391.86 151.243 1391.71 144.037 1391.39 137.77C1391.39 131.19 1391.08 125.237 1390.45 119.91C1390.14 114.583 1389.67 109.57 1389.04 104.87C1388.73 99.8566 1388.1 94.8433 1387.16 89.83L1440.27 78.08C1442.15 85.2866 1443.25 94.06 1443.56 104.4C1444.19 114.74 1444.5 127.743 1444.5 143.41V345.04C1444.5 353.187 1444.5 359.767 1444.5 364.78C1444.82 369.48 1445.13 373.397 1445.44 376.53C1446.07 379.35 1446.7 381.7 1447.32 383.58C1447.95 385.147 1448.73 386.557 1449.67 387.81C1451.24 390.003 1453.59 391.57 1456.72 392.51C1460.17 393.45 1463.46 393.137 1466.59 391.57L1475.05 423.53ZM1718.15 306.03C1718.15 325.143 1715.64 342.377 1710.63 357.73C1705.93 373.083 1698.88 386.087 1689.48 396.74C1680.39 407.393 1669.27 415.697 1656.11 421.65C1643.26 427.29 1628.85 430.11 1612.87 430.11C1596.89 430.11 1582.32 427.29 1569.16 421.65C1556.31 415.697 1545.35 407.393 1536.26 396.74C1527.17 385.773 1520.12 372.613 1515.11 357.26C1510.41 341.907 1508.06 324.673 1508.06 305.56C1508.06 286.447 1510.41 269.213 1515.11 253.86C1520.12 238.507 1527.17 225.503 1536.26 214.85C1545.35 203.883 1556.31 195.423 1569.16 189.47C1582.01 183.517 1596.26 180.54 1611.93 180.54C1628.85 180.54 1643.89 183.517 1657.05 189.47C1670.21 195.423 1681.33 204.04 1690.42 215.32C1699.51 226.287 1706.4 239.447 1711.1 254.8C1715.8 270.153 1718.15 287.23 1718.15 306.03ZM1661.28 306.97C1661.28 290.05 1660.03 276.107 1657.52 265.14C1655.33 253.86 1652.04 244.93 1647.65 238.35C1643.58 231.457 1638.56 226.6 1632.61 223.78C1626.66 220.96 1619.92 219.55 1612.4 219.55C1595.79 219.55 1583.73 226.13 1576.21 239.29C1569 252.137 1565.4 273.13 1565.4 302.27C1565.4 319.503 1566.5 333.917 1568.69 345.51C1570.88 356.79 1574.02 365.877 1578.09 372.77C1582.16 379.663 1587.18 384.52 1593.13 387.34C1599.08 390.16 1605.98 391.57 1613.81 391.57C1629.16 391.57 1640.91 384.99 1649.06 371.83C1657.21 358.67 1661.28 337.05 1661.28 306.97ZM1779.25 424V189.94L1831.42 180.54V424H1779.25ZM1839.88 116.62C1839.88 126.02 1836.43 134.167 1829.54 141.06C1822.96 147.64 1814.81 150.93 1805.1 150.93C1795.7 150.93 1787.71 147.64 1781.13 141.06C1774.86 134.167 1771.73 126.02 1771.73 116.62C1771.73 106.907 1775.02 98.76 1781.6 92.18C1788.18 85.2866 1796.32 81.84 1806.04 81.84C1815.12 81.84 1822.96 85.13 1829.54 91.71C1836.43 98.29 1839.88 106.593 1839.88 116.62ZM2073.22 349.74C2073.22 361.647 2070.87 372.613 2066.17 382.64C2061.47 392.667 2054.89 401.283 2046.43 408.49C2037.97 415.383 2027.79 420.71 2015.88 424.47C2004.29 428.543 1991.29 430.58 1976.87 430.58C1962.15 430.58 1947.11 428.387 1931.75 424C1916.4 419.3 1901.05 412.72 1885.69 404.26L1904.02 367.13C1914.68 373.397 1926.74 379.193 1940.21 384.52C1954 389.533 1967.63 392.04 1981.1 392.04C1992.38 392.04 2001.63 389.063 2008.83 383.11C2016.04 376.843 2019.64 368.697 2019.64 358.67C2019.64 349.583 2016.51 342.533 2010.24 337.52C2004.29 332.193 1994.58 328.12 1981.1 325.3L1952.43 319.19C1934.57 315.43 1920.63 307.91 1910.6 296.63C1900.58 285.037 1895.56 270.78 1895.56 253.86C1895.56 242.58 1897.6 232.397 1901.67 223.31C1906.06 213.91 1912.17 205.92 1920 199.34C1927.84 192.76 1937.08 187.59 1947.73 183.83C1958.7 180.07 1970.76 178.19 1983.92 178.19C2000.22 178.19 2014.79 180.383 2027.63 184.77C2040.79 188.843 2052.39 193.543 2062.41 198.87L2045.49 234.59C2034.53 228.637 2024.34 224.25 2014.94 221.43C2005.86 218.61 1996.61 217.2 1987.21 217.2C1976.25 217.2 1967.47 220.02 1960.89 225.66C1954.31 231.3 1951.02 238.663 1951.02 247.75C1951.02 254.957 1953.37 260.753 1958.07 265.14C1962.77 269.213 1971.08 272.817 1982.98 275.95L2012.59 283.47C2024.5 286.603 2034.37 290.52 2042.2 295.22C2050.04 299.92 2056.15 305.247 2060.53 311.2C2065.23 316.84 2068.52 322.95 2070.4 329.53C2072.28 336.11 2073.22 342.847 2073.22 349.74ZM2177.27 319.19V322.95C2177.27 331.097 2178.05 339.243 2179.62 347.39C2181.5 355.537 2184.63 362.9 2189.02 369.48C2193.72 375.747 2199.83 380.917 2207.35 384.99C2214.87 388.75 2224.43 390.63 2236.02 390.63C2257.33 390.63 2277.07 382.797 2295.24 367.13L2315.45 398.62C2290.7 419.613 2262.18 430.11 2229.91 430.11C2212.99 430.11 2197.79 427.29 2184.32 421.65C2170.85 415.697 2159.41 407.393 2150.01 396.74C2140.61 385.773 2133.25 372.613 2127.92 357.26C2122.91 341.907 2120.4 324.673 2120.4 305.56C2120.4 284.567 2122.75 266.863 2127.45 252.45C2132.15 237.723 2139.67 224.407 2150.01 212.5C2159.72 201.533 2170.53 193.543 2182.44 188.53C2194.35 183.203 2207.82 180.54 2222.86 180.54C2234.77 180.54 2246.05 182.42 2256.7 186.18C2267.67 189.627 2278.16 195.893 2288.19 204.98C2298.53 214.38 2306.21 227.07 2311.22 243.05C2316.55 259.03 2319.21 280.807 2319.21 308.38V319.19H2177.27ZM2265.63 281.12C2265.63 261.693 2261.71 246.653 2253.88 236C2246.36 225.033 2236.02 219.55 2222.86 219.55C2208.13 219.55 2196.85 225.033 2189.02 236C2181.5 246.653 2177.74 261.693 2177.74 281.12H2265.63Z" fill="#003399"/>
<path d="M473.167 549.839L459.014 554.809L459.014 554.809L473.167 549.839ZM485.915 537.091L480.945 551.244L480.945 551.244L485.915 537.091ZM616.286 582.869L621.256 568.716L621.256 568.716L616.286 582.869ZM621.58 587.199L608.653 594.808L609.622 596.454L610.973 597.805L621.58 587.199ZM755.735 721.354L745.128 731.96L745.891 732.723L746.756 733.369L755.735 721.354ZM757.908 723.235L747.301 733.841L747.301 733.841L757.908 723.235ZM734.607 798.922L724 788.316L724 788.316L734.607 798.922ZM656.001 818.523L668.777 810.663L667.853 809.162L666.608 807.916L656.001 818.523ZM522.414 684.936L533.021 674.33L532.226 673.534L531.32 672.866L522.414 684.936ZM518.944 680.211L504.791 685.18L504.791 685.18L518.944 680.211ZM487.32 544.87C488.709 548.827 484.903 552.633 480.945 551.244L490.884 522.938C471.099 515.991 452.066 535.023 459.014 554.809L487.32 544.87ZM480.945 551.244L611.317 597.021L621.256 568.716L490.884 522.938L480.945 551.244ZM611.317 597.021C610.214 596.634 609.248 595.818 608.653 594.808L634.507 579.59C631.648 574.733 627.093 570.765 621.256 568.716L611.317 597.021ZM610.973 597.805L745.128 731.96L766.342 710.747L632.187 576.592L610.973 597.805ZM746.756 733.369C746.951 733.515 747.132 733.671 747.301 733.841L768.515 712.628C767.32 711.434 766.051 710.337 764.714 709.338L746.756 733.369ZM747.301 733.841C748.668 735.207 751.184 740.188 747.597 751.839C744.234 762.763 736.291 776.024 724 788.316L745.213 809.529C760.257 794.485 771.199 777.135 776.269 760.666C781.115 744.924 781.614 725.728 768.515 712.628L747.301 733.841ZM724 788.316C711.709 800.607 698.448 808.549 687.523 811.912C675.872 815.499 670.892 812.983 669.526 811.617L648.312 832.83C661.412 845.93 680.608 845.431 696.35 840.584C712.82 835.514 730.17 824.573 745.213 809.529L724 788.316ZM669.526 811.617C669.251 811.342 669.003 811.03 668.777 810.663L643.225 826.383C644.65 828.699 646.345 830.863 648.312 832.83L669.526 811.617ZM666.608 807.916L533.021 674.33L511.808 695.543L645.394 829.129L666.608 807.916ZM531.32 672.866C532.147 673.476 532.777 674.329 533.097 675.241L504.791 685.18C506.518 690.099 509.623 694.139 513.508 697.006L531.32 672.866ZM533.097 675.241L487.32 544.87L459.014 554.809L504.791 685.18L533.097 675.241Z" fill="#FF9900"/>
<path fill-rule="evenodd" clip-rule="evenodd" d="M196 210H296V210.001C296.167 210 296.333 210 296.5 210C348.691 210 391 252.309 391 304.5C391 356.691 348.691 399 296.5 399C296.333 399 296.167 399 296 398.999V399H196V377H258.72V376.999C258.847 377 258.975 377 259.103 377C299.144 377 331.603 344.541 331.603 304.5C331.603 264.459 299.144 232 259.103 232C258.975 232 258.847 232 258.72 232.001V232H196V210Z" fill="#A7E3FB"/>
<path fill-rule="evenodd" clip-rule="evenodd" d="M218 496H318V496.001C318.167 496 318.333 496 318.5 496C370.691 496 413 544.577 413 604.5C413 664.423 370.691 713 318.5 713C318.333 713 318.167 713 318 712.999V713H218V687.741H280.72V687.74C280.847 687.74 280.975 687.741 281.103 687.741C321.144 687.741 353.603 650.473 353.603 604.5C353.603 558.527 321.144 521.259 281.103 521.259C280.975 521.259 280.847 521.26 280.72 521.26V521.259H218V496Z" fill="#A7E3FB"/>
<path fill-rule="evenodd" clip-rule="evenodd" d="M86 196V156H46V196H86ZM86 236H46V276H86V236ZM86 316H46V808H86V316Z" fill="#A7E3FB"/>
<path fill-rule="evenodd" clip-rule="evenodd" d="M223 76H230C256.261 76 279.065 76.6621 298.22 78.0553C317.355 78.7932 334.932 80.6073 350.662 83.7402C366.52 86.7716 381.419 91.0676 395.038 96.9222C408.096 101.9 420.817 108.341 433.2 116.08L433.394 116.201L433.587 116.325C496 156.333 530 213.824 530 286C530 331.078 517.362 371.74 490.51 405.642C482.569 415.926 473.621 425.172 463.761 433.429L463.779 433.441C486.616 447.725 505.766 465.208 519.961 486.332C524.495 492.768 528.622 499.38 532.329 506.163L449.623 477.089C445.061 473.582 440.186 470.219 435 467C430.24 463.77 425.154 460.713 419.743 457.829C403.937 449.406 385.356 442.463 364 437C384.556 430.975 402.474 422.877 417.755 412.707C431.217 403.747 442.632 393.178 452 381C472.667 355 483 323.333 483 286C483 228.667 457 183.333 405 150C394.333 143.333 383.667 138 373 134C362.333 129.333 350 125.667 336 123C322.667 120.333 307 118.667 289 118C271 116.667 249 116 223 116H87H80H47V116H0V116V76H7H40H47H223ZM486.421 715C475.353 733.701 460.546 749.367 442 762C396 792.667 329 808 241 808H87H80H47V768V316H0V808V848H7H40H47H241H248C339.616 848 415.784 832.218 471.188 795.282L471.354 795.171L471.519 795.059C491.409 781.511 507.661 765.335 520.485 746.878L491.141 715H486.421ZM47 276H0V236H47V276ZM47 196H0V156L47 156V196ZM241 210H248C264.667 210 277.667 210.667 287 212C297 213.333 305.667 215.333 313 218C329.667 224 343 235 353 251C363.667 266.333 369 284 369 304C369 313.333 367 324.333 363 337C359.667 349.667 352.667 361.667 342 373C330.667 384.333 319 391.667 307 395C295 397.667 278.333 399 257 399H250H201H194H161H154V359V250V210H161H194H201H241ZM201 250V359H250C269.223 359 282.193 357.814 290.138 356.204C293.797 355.007 299.238 352.09 306.282 345.147C312.95 337.948 316.001 331.821 317.317 326.82L317.564 325.881L317.857 324.955C321.102 314.679 322 307.922 322 304C322 291.558 318.83 281.988 313.164 273.843L312.602 273.035L312.08 272.2C306.503 263.277 300.106 258.391 292.451 255.635L292.391 255.614L292.33 255.592C288.363 254.149 282.637 252.706 274.714 251.649L274.528 251.624L274.343 251.598C267.782 250.661 256.974 250 241 250H201ZM258 713H265C309 713 341 702.333 361 681C381 659 391 632.333 391 601C391 576.333 385 554.667 373 536C361 517.333 345.333 505.333 326 500C317.333 497.333 308.667 495.667 300 495C291.333 494.333 278.667 494 262 494H255H201H194H161H154V534V673V713H161H194H201H258ZM344 601C344 622.843 337.401 639.684 324.626 653.847C315.229 663.721 296.243 673 258 673H201V534H255C271.389 534 282.828 534.336 289.932 534.882C295.524 535.312 301.277 536.397 307.237 538.231L307.797 538.404L308.363 538.56C317.167 540.988 325.066 546.295 332.353 557.63C339.751 569.139 344 583.118 344 601Z" fill="#003399"/>
</svg>
