<?xml version="1.0" encoding="UTF-8"?>
<svg width="832px" height="676px" viewBox="0 0 832 676" version="1.1" xmlns="http://www.w3.org/2000/svg" xmlns:xlink="http://www.w3.org/1999/xlink">
    <!-- Generator: Sketch 52.3 (67297) - http://www.bohemiancoding.com/sketch -->
    <title>ci-cd</title>
    <desc>Created with Sketch.</desc>
    <g id="Page-2" stroke="none" stroke-width="1" fill="none" fill-rule="evenodd">
        <g id="ci-cd">
            <g id="Group-2" transform="translate(103.000000, 59.000000)" fill="#D8D8D8" fill-rule="nonzero">
                <path id="Line-3" d="M500.61933,113.952406 L575.621764,59.7839812 L576.837783,58.9057453 L578.594255,61.337783 L577.378236,62.2160188 L502.375802,116.384444 L507.059726,122.869877 L486.09466,126.292745 L495.935405,107.466972 L500.61933,113.952406 Z"></path>
                <path id="Line-3" d="M484.5,287.5 L484.5,246 L484.5,244.5 L487.5,244.5 L487.5,246 L487.5,287.5 L495.5,287.5 L486,306.5 L476.5,287.5 L484.5,287.5 Z"></path>
                <path id="Line-3" d="M371.533714,486.841076 L485.783137,424.682386 L487.100751,423.965523 L488.534477,426.600751 L487.216863,427.317614 L372.96744,489.476304 L376.790709,496.503581 L355.560795,497.238954 L367.710445,479.813799 L371.533714,486.841076 Z"></path>
                <path id="Line-3" d="M601.985065,489.584342 L485.791529,427.322146 L484.469384,426.613675 L485.886325,423.969384 L487.208471,424.677854 L603.402006,486.940051 L607.180516,479.888606 L619.440715,497.236157 L598.206555,496.635786 L601.985065,489.584342 Z"></path>
                <path id="Line-3" d="M659.691586,117.137966 L575.679636,62.2557878 L574.423848,61.4354239 L576.064576,58.9238483 L577.320364,59.7442122 L661.332314,114.626391 L665.707588,107.928856 L676.418596,126.273455 L655.316312,123.835501 L659.691586,117.137966 Z"></path>
                <path id="Line-3" d="M457.5,2.5 L306,2.5 L304.5,2.5 L304.5,-0.5 L306,-0.5 L457.5,-0.5 L457.5,-8.5 L476.5,1 L457.5,10.5 L457.5,2.5 Z"></path>
                <path id="Line-3" d="M87.5,2.5 L0.5,2.5 L-1,2.5 L-1,-0.5 L0.5,-0.5 L87.5,-0.5 L87.5,-8.5 L106.5,1 L87.5,10.5 L87.5,2.5 Z"></path>
                <path id="Line-3" d="M130.61933,113.952406 L205.621764,59.7839812 L206.837783,58.9057453 L208.594255,61.337783 L207.378236,62.2160188 L132.375802,116.384444 L137.059726,122.869877 L116.09466,126.292745 L125.935405,107.466972 L130.61933,113.952406 Z"></path>
                <path id="Line-3" d="M289.691586,117.137966 L205.679636,62.2557878 L204.423848,61.4354239 L206.064576,58.9238483 L207.320364,59.7442122 L291.332314,114.626391 L295.707588,107.928856 L306.418596,126.273455 L285.316312,123.835501 L289.691586,117.137966 Z"></path>
            </g>
            <g transform="translate(209.000000, 0.000000)" id="Group">
                <g>
                    <rect id="Rectangle" fill="#003399" x="0" y="0" width="200" height="119.811912" rx="5"></rect>
                    <text id="Pull-Request-Github" font-family="Arial-BoldMT, Arial" font-size="20" font-weight="bold" fill="#FFFFFF">
                        <tspan x="39.4335938" y="56">Pull Request</tspan>
                        <tspan x="77.4516602" y="78" font-size="14">Github</tspan>
                    </text>
                </g>
            </g>
            <g transform="translate(157.000000, 185.000000)" id="Group">
                <g>
                    <rect id="Rectangle" stroke="#003399" stroke-width="3" fill="#EBF6FA" x="1.5" y="1.5" width="117" height="116.811912" rx="5"></rect>
                    <text id="CI-Travis" font-family="Arial-BoldMT, Arial" font-size="20" font-weight="bold" fill="#003399">
                        <tspan x="50" y="56">CI</tspan>
                        <tspan x="39.762207" y="78" font-size="14">Travis</tspan>
                    </text>
                </g>
                <g transform="translate(185.000000, 0.000000)">
                    <rect id="Rectangle" stroke="#003399" stroke-width="3" fill="#EBF6FA" x="1.5" y="1.5" width="117" height="116.811912" rx="5"></rect>
                    <text id="CD-Now" font-family="Arial-BoldMT, Arial" font-size="20" font-weight="bold" fill="#003399">
                        <tspan x="45.5566406" y="56">CD</tspan>
                        <tspan x="45.2241211" y="78" font-size="14">Now</tspan>
                    </text>
                </g>
            </g>
            <g transform="translate(579.000000, -0.000000)" id="Group">
                <g>
                    <rect id="Rectangle" fill="#003399" x="0" y="0" width="200" height="119.811912" rx="5"></rect>
                    <text id="Master-Github" font-family="Arial-BoldMT, Arial" font-size="20" font-weight="bold" fill="#FFFFFF">
                        <tspan x="67.7636719" y="56">Master</tspan>
                        <tspan x="77.4516602" y="78" font-size="14">Github</tspan>
                    </text>
                </g>
            </g>
            <g transform="translate(489.000000, 365.000000)" id="Group">
                <g>
                    <rect id="Rectangle" fill="#D8D8D8" x="0" y="0" width="200" height="119.811912" rx="5"></rect>
                    <text id="Versioning-Sematic-R" font-family="Arial-BoldMT, Arial" font-size="20" font-weight="bold" fill="#003399">
                        <tspan x="48.8769531" y="56">Versioning</tspan>
                        <tspan x="44.7416992" y="78" font-size="14">Sematic Release</tspan>
                    </text>
                </g>
            </g>
            <g transform="translate(359.000000, 556.000000)" id="Group">
                <g>
                    <rect id="Rectangle" fill="#D8D8D8" x="0" y="0" width="200" height="119.811912" rx="5"></rect>
                    <text id="Registry-NPM" font-family="Arial-BoldMT, Arial" font-size="20" font-weight="bold" fill="#003399">
                        <tspan x="59.9853516" y="56">Registry</tspan>
                        <tspan x="84.4448242" y="78" font-size="14">NPM</tspan>
                    </text>
                </g>
            </g>
            <g transform="translate(622.000000, 556.000000)" id="Group">
                <g>
                    <rect id="Rectangle" fill="#D8D8D8" x="0" y="0" width="200" height="119.811912" rx="5"></rect>
                    <text id="Release-Github" font-family="Arial-BoldMT, Arial" font-size="20" font-weight="bold" fill="#003399">
                        <tspan x="62.1923828" y="56">Release</tspan>
                        <tspan x="77.4516602" y="78" font-size="14">Github</tspan>
                    </text>
                </g>
            </g>
            <path d="M30,60 L67,60 C83.5685425,60 97,73.4314575 97,90 L97,113.590287 C97,115.819084 96.767936,116.627299 96.3321682,117.442114 C95.8964005,118.256929 95.2569291,118.896401 94.4421143,119.332168 C93.6272994,119.767936 92.8190838,120 90.590287,120 L6.409713,120 C4.18091615,120 3.37270056,119.767936 2.55788574,119.332168 C1.74307093,118.896401 1.10359949,118.256929 0.667831759,117.442114 C0.232064028,116.627299 1.00308841e-16,115.819084 -1.72640051e-16,113.590287 L0,90 C-2.02906125e-15,73.4314575 13.4314575,60 30,60 Z" id="Rectangle" fill="#D8D8D8"></path>
            <circle id="Oval" fill="#FFFFFF" cx="48" cy="43" r="30"></circle>
            <circle id="Oval" fill="#D8D8D8" cx="48" cy="30" r="30"></circle>
            <g transform="translate(527.000000, 185.000000)" id="Group">
                <g>
                    <rect id="Rectangle" stroke="#003399" stroke-width="3" fill="#EBF6FA" x="1.5" y="1.5" width="117" height="116.811912" rx="5"></rect>
                    <text id="CI-Travis" font-family="Arial-BoldMT, Arial" font-size="20" font-weight="bold" fill="#003399">
                        <tspan x="50" y="56">CI</tspan>
                        <tspan x="39.762207" y="78" font-size="14">Travis</tspan>
                    </text>
                </g>
                <g transform="translate(185.000000, 0.000000)">
                    <rect id="Rectangle" stroke="#003399" stroke-width="3" fill="#EBF6FA" x="1.5" y="1.5" width="117" height="116.811912" rx="5"></rect>
                    <text id="CD-Now" font-family="Arial-BoldMT, Arial" font-size="20" font-weight="bold" fill="#003399">
                        <tspan x="45.5566406" y="56">CD</tspan>
                        <tspan x="45.2241211" y="78" font-size="14">Now</tspan>
                    </text>
                </g>
            </g>
            <text id="push-feature" font-family="Arial-BoldMT, Arial" font-size="14" font-weight="bold" line-spacing="24" fill="#003399">
                <tspan x="134.779297" y="51">push</tspan>
                <tspan x="128.158691" y="75">feature</tspan>
            </text>
            <text id="merge-pull-request" font-family="Arial-BoldMT, Arial" font-size="14" font-weight="bold" line-spacing="24" fill="#003399">
                <tspan x="466.989746" y="51">merge</tspan>
                <tspan x="447.941406" y="75">pull-request</tspan>
            </text>
        </g>
    </g>
</svg>