<svg width="1024" height="1024" viewBox="0 0 1024 1024" fill="none" xmlns="http://www.w3.org/2000/svg">
<rect width="1024" height="1024" rx="100" fill="white"/>
<path d="M613.167 599.839L599.014 604.809L599.014 604.809L613.167 599.839ZM625.915 587.091L620.945 601.244L620.945 601.244L625.915 587.091ZM756.286 632.869L761.256 618.716L761.256 618.716L756.286 632.869ZM761.58 637.199L748.653 644.808L749.622 646.454L750.973 647.805L761.58 637.199ZM895.735 771.354L885.128 781.96L885.891 782.723L886.756 783.369L895.735 771.354ZM897.908 773.235L887.301 783.841L887.301 783.841L897.908 773.235ZM874.607 848.922L864 838.316L864 838.316L874.607 848.922ZM796.001 868.523L808.777 860.663L807.853 859.162L806.608 857.916L796.001 868.523ZM662.414 734.936L673.021 724.33L672.226 723.534L671.32 722.866L662.414 734.936ZM658.944 730.211L644.791 735.18L644.791 735.18L658.944 730.211ZM627.32 594.87C628.709 598.827 624.903 602.633 620.945 601.244L630.884 572.938C611.099 565.991 592.066 585.023 599.014 604.809L627.32 594.87ZM620.945 601.244L751.317 647.021L761.256 618.716L630.884 572.938L620.945 601.244ZM751.317 647.021C750.214 646.634 749.248 645.818 748.653 644.808L774.507 629.59C771.648 624.733 767.093 620.765 761.256 618.716L751.317 647.021ZM750.973 647.805L885.128 781.96L906.342 760.747L772.187 626.592L750.973 647.805ZM886.756 783.369C886.951 783.515 887.132 783.671 887.301 783.841L908.515 762.628C907.32 761.434 906.051 760.337 904.714 759.338L886.756 783.369ZM887.301 783.841C888.668 785.207 891.184 790.188 887.597 801.839C884.234 812.763 876.291 826.024 864 838.316L885.213 859.529C900.257 844.485 911.199 827.135 916.269 810.666C921.115 794.924 921.614 775.728 908.515 762.628L887.301 783.841ZM864 838.316C851.709 850.607 838.448 858.549 827.523 861.912C815.872 865.499 810.892 862.983 809.526 861.617L788.312 882.83C801.412 895.93 820.608 895.431 836.35 890.584C852.82 885.514 870.17 874.573 885.213 859.529L864 838.316ZM809.526 861.617C809.251 861.342 809.003 861.03 808.777 860.663L783.225 876.383C784.65 878.699 786.345 880.863 788.312 882.83L809.526 861.617ZM806.608 857.916L673.021 724.33L651.808 745.543L785.394 879.129L806.608 857.916ZM671.32 722.866C672.147 723.476 672.777 724.329 673.097 725.241L644.791 735.18C646.518 740.099 649.623 744.139 653.508 747.006L671.32 722.866ZM673.097 725.241L627.32 594.87L599.014 604.809L644.791 735.18L673.097 725.241Z" fill="#FF9900"/>
<path fill-rule="evenodd" clip-rule="evenodd" d="M336 260H436V260.001C436.167 260 436.333 260 436.5 260C488.691 260 531 302.309 531 354.5C531 406.691 488.691 449 436.5 449C436.333 449 436.167 449 436 448.999V449H336V427H398.72V426.999C398.847 427 398.975 427 399.103 427C439.144 427 471.603 394.541 471.603 354.5C471.603 314.459 439.144 282 399.103 282C398.975 282 398.847 282 398.72 282.001V282H336V260Z" fill="#A7E3FB"/>
<path fill-rule="evenodd" clip-rule="evenodd" d="M358 546H458V546.001C458.167 546 458.333 546 458.5 546C510.691 546 553 594.577 553 654.5C553 714.423 510.691 763 458.5 763C458.333 763 458.167 763 458 762.999V763H358V737.741H420.72V737.74C420.847 737.74 420.975 737.741 421.103 737.741C461.144 737.741 493.603 700.473 493.603 654.5C493.603 608.527 461.144 571.259 421.103 571.259C420.975 571.259 420.847 571.26 420.72 571.26V571.259H358V546Z" fill="#A7E3FB"/>
<path fill-rule="evenodd" clip-rule="evenodd" d="M226 246V206H186V246H226ZM226 286H186V326H226V286ZM226 366H186V858H226V366Z" fill="#A7E3FB"/>
<path fill-rule="evenodd" clip-rule="evenodd" d="M363 126H370C396.261 126 419.065 126.662 438.22 128.055C457.355 128.793 474.932 130.607 490.662 133.74C506.52 136.772 521.419 141.068 535.038 146.922C548.096 151.9 560.817 158.341 573.2 166.08L573.394 166.201L573.587 166.325C636 206.333 670 263.824 670 336C670 381.078 657.362 421.74 630.51 455.642C622.569 465.926 613.621 475.172 603.761 483.429L603.779 483.441C626.616 497.725 645.766 515.208 659.961 536.332C664.495 542.768 668.622 549.38 672.329 556.163L589.623 527.089C585.061 523.582 580.186 520.219 575 517C570.24 513.77 565.154 510.713 559.743 507.829C543.937 499.406 525.356 492.463 504 487C524.556 480.975 542.474 472.877 557.755 462.707C571.217 453.747 582.632 443.178 592 431C612.667 405 623 373.333 623 336C623 278.667 597 233.333 545 200C534.333 193.333 523.667 188 513 184C502.333 179.333 490 175.667 476 173C462.667 170.333 447 168.667 429 168C411 166.667 389 166 363 166H227H220H187V166H140V166V126H147H180H187H363ZM626.421 765C615.353 783.701 600.546 799.367 582 812C536 842.667 469 858 381 858H227H220H187V818V366H140V858V898H147H180H187H381H388C479.616 898 555.784 882.218 611.188 845.282L611.354 845.171L611.519 845.059C631.409 831.511 647.661 815.335 660.485 796.878L631.141 765H626.421ZM187 326H140V286H187V326ZM187 246H140V206L187 206V246ZM381 260H388C404.667 260 417.667 260.667 427 262C437 263.333 445.667 265.333 453 268C469.667 274 483 285 493 301C503.667 316.333 509 334 509 354C509 363.333 507 374.333 503 387C499.667 399.667 492.667 411.667 482 423C470.667 434.333 459 441.667 447 445C435 447.667 418.333 449 397 449H390H341H334H301H294V409V300V260H301H334H341H381ZM341 300V409H390C409.223 409 422.193 407.814 430.138 406.204C433.797 405.007 439.238 402.09 446.282 395.147C452.95 387.948 456.001 381.821 457.317 376.82L457.564 375.881L457.857 374.955C461.102 364.679 462 357.922 462 354C462 341.558 458.83 331.988 453.164 323.843L452.602 323.035L452.08 322.2C446.503 313.277 440.106 308.391 432.451 305.635L432.391 305.614L432.33 305.592C428.363 304.149 422.637 302.706 414.714 301.649L414.528 301.624L414.343 301.598C407.782 300.661 396.974 300 381 300H341ZM398 763H405C449 763 481 752.333 501 731C521 709 531 682.333 531 651C531 626.333 525 604.667 513 586C501 567.333 485.333 555.333 466 550C457.333 547.333 448.667 545.667 440 545C431.333 544.333 418.667 544 402 544H395H341H334H301H294V584V723V763H301H334H341H398ZM484 651C484 672.843 477.401 689.684 464.626 703.847C455.229 713.721 436.243 723 398 723H341V584H395C411.389 584 422.828 584.336 429.932 584.882C435.524 585.312 441.277 586.397 447.237 588.231L447.797 588.404L448.363 588.56C457.167 590.988 465.066 596.295 472.353 607.63C479.751 619.139 484 633.118 484 651Z" fill="#003399"/>
</svg>
