<svg width="530" height="483" viewBox="0 0 530 483" fill="none" xmlns="http://www.w3.org/2000/svg">
<path d="M63.7501 172.5C62.9863 172.467 62.2241 172.594 61.5118 172.871C60.7994 173.149 60.1525 173.571 59.6119 174.112C59.0713 174.652 58.6489 175.299 58.3715 176.012C58.094 176.724 57.9676 177.486 58.0001 178.25V218.5C58.0001 221.55 59.2117 224.475 61.3684 226.632C63.5251 228.788 66.4501 230 69.5001 230H132.98C134.632 229.986 136.268 230.327 137.776 231.002C139.285 231.677 140.63 232.669 141.72 233.91C142.798 235.119 143.602 236.546 144.078 238.094C144.555 239.642 144.692 241.274 144.48 242.88C144.36 244.334 144.36 245.796 144.48 247.25C144.48 257.925 148.721 268.163 156.269 275.711C163.817 283.259 174.055 287.5 184.73 287.5C195.405 287.5 205.643 283.259 213.191 275.711C220.739 268.163 224.98 257.925 224.98 247.25C225.101 245.796 225.101 244.334 224.98 242.88C224.769 241.274 224.906 239.642 225.382 238.094C225.858 236.546 226.663 235.119 227.74 233.91C228.831 232.669 230.176 231.677 231.684 231.002C233.192 230.327 234.828 229.986 236.48 230H271.21C274.26 230 277.185 228.788 279.342 226.632C281.499 224.475 282.71 221.55 282.71 218.5V193.43C282.723 190.871 281.865 188.384 280.276 186.377C278.688 184.371 276.464 182.964 273.97 182.39C259.17 179.621 245.842 171.663 236.385 159.946C226.927 148.23 221.96 133.524 222.375 118.472C222.791 103.421 228.563 89.011 238.653 77.8345C248.743 66.6579 262.489 59.4476 277.42 57.5C278.761 57.2375 279.971 56.5238 280.85 55.4777C281.729 54.4315 282.223 53.116 282.25 51.75V0H81.0001C74.9001 0 69.05 2.42321 64.7367 6.73654C60.4233 11.0499 58.0001 16.9 58.0001 23V63.25C58.0001 64.775 58.6059 66.2375 59.6843 67.3159C60.7626 68.3942 62.2251 69 63.7501 69C77.4751 69 90.6379 74.4522 100.343 84.1572C110.048 93.8622 115.5 107.025 115.5 120.75C115.5 134.475 110.048 147.638 100.343 157.343C90.6379 167.048 77.4751 172.5 63.7501 172.5Z" fill="#CBF2EC"/>
<path d="M282.25 413.77C282.236 412.118 282.577 410.482 283.252 408.974C283.927 407.465 284.919 406.12 286.16 405.03C287.345 403.998 288.741 403.238 290.251 402.801C291.76 402.364 293.347 402.261 294.9 402.5C300.516 403.103 306.196 402.517 311.57 400.781C316.945 399.044 321.894 396.196 326.096 392.422C330.297 388.647 333.658 384.03 335.958 378.872C338.258 373.713 339.447 368.128 339.447 362.48C339.447 356.832 338.258 351.247 335.958 346.088C333.658 340.93 330.297 336.313 326.096 332.538C321.894 328.764 316.945 325.916 311.57 324.179C306.196 322.443 300.516 321.857 294.9 322.46C291.664 322.749 288.444 321.758 285.93 319.7C284.689 318.61 283.697 317.264 283.022 315.756C282.347 314.248 282.006 312.612 282.02 310.96V264.5C282.02 261.45 280.808 258.525 278.652 256.368C276.495 254.212 273.57 253 270.52 253H256.95C254.391 252.987 251.904 253.845 249.897 255.434C247.891 257.022 246.484 259.246 245.91 261.74C242.702 275.686 234.859 288.132 223.663 297.045C212.468 305.957 198.58 310.81 184.27 310.81C169.96 310.81 156.072 305.957 144.877 297.045C133.681 288.132 125.838 275.686 122.63 261.74C122.056 259.246 120.649 257.022 118.643 255.434C116.636 253.845 114.149 252.987 111.59 253H69.5C66.45 253 63.5249 254.212 61.3683 256.368C59.2116 258.525 58 261.45 58 264.5V304.75C58 306.275 57.3942 307.738 56.3159 308.816C55.2375 309.894 53.775 310.5 52.25 310.5C38.525 310.5 25.3622 315.952 15.6572 325.657C5.95222 335.362 0.5 348.525 0.5 362.25C0.5 375.975 5.95222 389.138 15.6572 398.843C25.3622 408.548 38.525 414 52.25 414C53.7734 414.048 55.2345 414.616 56.39 415.61C57.3839 416.765 57.9521 418.227 58 419.75V460C58 466.1 60.4232 471.95 64.7365 476.263C69.0499 480.577 74.9 483 81 483H282.25V413.77Z" fill="#FFECBC"/>
<path d="M316.75 0C313.7 0 310.775 1.2116 308.618 3.36827C306.462 5.52494 305.25 8.45001 305.25 11.5V69.23C305.264 70.8822 304.923 72.5181 304.248 74.0263C303.573 75.5345 302.581 76.8796 301.34 77.97C300.131 79.0475 298.704 79.8518 297.156 80.3281C295.608 80.8044 293.976 80.9415 292.37 80.73C286.754 80.1271 281.074 80.7128 275.7 82.4492C270.325 84.1855 265.376 87.0337 261.174 90.8083C256.973 94.583 253.612 99.1997 251.312 104.358C249.012 109.517 247.823 115.102 247.823 120.75C247.823 126.398 249.012 131.983 251.312 137.142C253.612 142.3 256.973 146.917 261.174 150.692C265.376 154.466 270.325 157.314 275.7 159.051C281.074 160.787 286.754 161.373 292.37 160.77C293.94 160.562 295.537 160.701 297.047 161.178C298.557 161.655 299.944 162.458 301.11 163.53C302.351 164.62 303.343 165.966 304.018 167.474C304.693 168.982 305.034 170.618 305.02 172.27V218.27C305.02 221.32 306.232 224.245 308.388 226.402C310.545 228.558 313.47 229.77 316.52 229.77H335.84C338.399 229.783 340.886 228.925 342.893 227.336C344.899 225.748 346.306 223.524 346.88 221.03C350.088 207.084 357.931 194.638 369.127 185.725C380.322 176.813 394.21 171.96 408.52 171.96C422.83 171.96 436.718 176.813 447.913 185.725C459.109 194.638 466.952 207.084 470.16 221.03C470.734 223.524 472.141 225.748 474.147 227.336C476.154 228.925 478.641 229.783 481.2 229.77H518C521.05 229.77 523.975 228.558 526.132 226.402C528.288 224.245 529.5 221.32 529.5 218.27V23C529.5 16.9 527.077 11.0499 522.763 6.73654C518.45 2.42321 512.6 0 506.5 0H466.25C464.725 0 463.262 0.605803 462.184 1.68414C461.106 2.76247 460.5 4.22501 460.5 5.75C460.5 19.475 455.048 32.6378 445.343 42.3428C435.638 52.0478 422.475 57.5 408.75 57.5C395.025 57.5 381.862 52.0478 372.157 42.3428C362.452 32.6378 357 19.475 357 5.75C356.952 4.22658 356.384 2.76552 355.39 1.61C354.234 0.616079 352.773 0.0478852 351.25 0H316.75Z" fill="#E1D9FF"/>
<path d="M460.27 253C458.618 253.014 456.982 252.673 455.474 251.998C453.965 251.323 452.62 250.331 451.53 249.09C450.452 247.881 449.648 246.454 449.172 244.906C448.695 243.358 448.558 241.726 448.77 240.12C448.89 238.666 448.89 237.204 448.77 235.75C448.77 225.075 444.529 214.837 436.981 207.289C429.433 199.741 419.195 195.5 408.52 195.5C397.845 195.5 387.607 199.741 380.059 207.289C372.511 214.837 368.27 225.075 368.27 235.75C368.149 237.204 368.149 238.666 368.27 240.12C368.481 241.726 368.344 243.358 367.868 244.906C367.392 246.454 366.587 247.881 365.51 249.09C364.42 250.331 363.074 251.323 361.566 251.998C360.058 252.673 358.422 253.014 356.77 253H316.75C313.7 253 310.775 254.212 308.618 256.368C306.461 258.525 305.25 261.45 305.25 264.5V289.57C305.237 292.129 306.095 294.616 307.684 296.623C309.272 298.629 311.496 300.036 313.99 300.61C327.936 303.818 340.382 311.661 349.294 322.857C358.207 334.052 363.06 347.94 363.06 362.25C363.06 376.56 358.207 390.448 349.294 401.643C340.382 412.839 327.936 420.682 313.99 423.89C311.496 424.464 309.272 425.871 307.684 427.877C306.095 429.884 305.237 432.371 305.25 434.93V471.5C305.25 474.55 306.461 477.475 308.618 479.632C310.775 481.788 313.7 483 316.75 483H506.5C512.6 483 518.45 480.577 522.763 476.263C527.077 471.95 529.5 466.1 529.5 460V264.5C529.5 261.45 528.288 258.525 526.132 256.368C523.975 254.212 521.05 253 518 253H460.27Z" fill="url(#paint0_linear_401_3)"/>
<defs>
<linearGradient id="paint0_linear_401_3" x1="365" y1="248" x2="530" y2="490.5" gradientUnits="userSpaceOnUse">
<stop stop-color="#FF5970"/>
<stop offset="1" stop-color="#D9304C"/>
</linearGradient>
</defs>
</svg>
