<svg width="530" height="484" viewBox="0 0 530 484" fill="none" xmlns="http://www.w3.org/2000/svg">
<path d="M63.5797 176.996L63.6648 177H63.75C78.5358 177 92.716 171.126 103.171 160.671C113.626 150.216 119.5 136.036 119.5 121.25C119.5 106.464 113.626 92.284 103.171 81.8288C92.716 71.3736 78.5358 65.5 63.75 65.5C63.2859 65.5 62.8407 65.3156 62.5126 64.9874C62.1844 64.6593 62 64.2141 62 63.75V23.5C62 18.4609 64.0018 13.6282 67.565 10.065C71.1282 6.50178 75.9609 4.5 81 4.5H278.25V52.1994C278.235 52.6414 278.072 53.0659 277.787 53.4049C277.516 53.728 277.149 53.9553 276.741 54.0549C260.928 56.1566 246.375 63.8112 235.684 75.6541C224.956 87.5374 218.819 102.858 218.377 118.862C217.935 134.865 223.216 150.501 233.272 162.959C243.308 175.392 257.443 183.845 273.143 186.805C274.723 187.185 276.131 188.085 277.14 189.36C278.165 190.654 278.719 192.259 278.71 193.91L278.71 193.92V193.93V219C278.71 220.989 277.92 222.897 276.513 224.303C275.107 225.71 273.199 226.5 271.21 226.5H236.496C234.276 226.483 232.077 226.944 230.05 227.851C228.022 228.758 226.212 230.092 224.744 231.76C223.289 233.396 222.203 235.325 221.559 237.418C220.924 239.481 220.734 241.654 221.001 243.795C221.096 245.002 221.094 246.214 220.994 247.42L220.98 247.585V247.75C220.98 257.364 217.161 266.584 210.363 273.383C203.564 280.181 194.344 284 184.73 284C175.116 284 165.896 280.181 159.097 273.383C152.299 266.584 148.48 257.364 148.48 247.75V247.585L148.466 247.42C148.366 246.214 148.364 245.002 148.459 243.796C148.726 241.654 148.536 239.481 147.901 237.418C147.257 235.325 146.171 233.395 144.716 231.759C143.248 230.091 141.438 228.758 139.41 227.851C137.383 226.944 135.184 226.483 132.964 226.5H69.5C67.5109 226.5 65.6032 225.71 64.1967 224.303C62.7902 222.897 62 220.989 62 219V178.75V178.665L61.9964 178.58C61.9874 178.369 62.0222 178.16 62.0986 177.963C62.175 177.767 62.2913 177.589 62.4402 177.44C62.5891 177.291 62.7672 177.175 62.9633 177.099C63.1595 177.022 63.3694 176.987 63.5797 176.996Z" stroke="url(#paint0_linear_2_3)" stroke-width="8"/>
<path d="M278.25 479.5H81C75.9609 479.5 71.1282 477.498 67.565 473.935C64.0018 470.372 62 465.539 62 460.5V420.25V420.187L61.998 420.124C61.9214 417.687 61.0125 415.35 59.4225 413.502L59.2264 413.274L58.9984 413.077C57.1499 411.487 54.8127 410.579 52.3757 410.502L52.3129 410.5H52.25C39.5859 410.5 27.4405 405.469 18.4857 396.514C9.53079 387.559 4.5 375.414 4.5 362.75C4.5 350.086 9.53079 337.941 18.4857 328.986C27.4405 320.031 39.5859 315 52.25 315C54.8359 315 57.3158 313.973 59.1443 312.144C60.9728 310.316 62 307.836 62 305.25V265C62 263.011 62.7902 261.103 64.1967 259.697C65.6032 258.29 67.5109 257.5 69.5 257.5H111.59H111.6L111.61 257.5C113.261 257.492 114.866 258.045 116.16 259.07C117.454 260.095 118.362 261.529 118.732 263.138C122.143 277.965 130.482 291.198 142.385 300.674C154.289 310.15 169.055 315.31 184.27 315.31C199.485 315.31 214.251 310.15 226.155 300.674C238.058 291.198 246.397 277.965 249.808 263.138C250.178 261.529 251.086 260.095 252.38 259.07C253.674 258.045 255.279 257.492 256.93 257.5L256.94 257.5H256.95H270.52C272.509 257.5 274.417 258.29 275.823 259.697C277.23 261.103 278.02 263.011 278.02 265V311.444C278.003 313.665 278.464 315.863 279.371 317.89C280.28 319.923 281.617 321.735 283.29 323.205L283.342 323.251L283.396 323.295C286.72 326.016 290.977 327.326 295.255 326.944L295.291 326.941L295.327 326.937C300.385 326.394 305.5 326.922 310.341 328.485C315.181 330.049 319.639 332.614 323.423 336.014C327.207 339.413 330.233 343.571 332.305 348.217C334.376 352.863 335.447 357.893 335.447 362.98C335.447 368.067 334.376 373.097 332.305 377.743C330.233 382.389 327.207 386.547 323.423 389.946C319.639 393.346 315.181 395.911 310.341 397.475C305.526 399.03 300.44 399.56 295.408 399.031C293.312 398.724 291.174 398.869 289.139 399.458C287.071 400.057 285.158 401.099 283.534 402.513L283.527 402.519L283.52 402.525C281.847 403.994 280.51 405.807 279.601 407.84C278.694 409.867 278.233 412.066 278.25 414.286V479.5Z" stroke="url(#paint1_linear_2_3)" stroke-width="8"/>
<path d="M335.86 226.27L335.85 226.27H335.84H316.52C314.531 226.27 312.623 225.48 311.217 224.073C309.81 222.667 309.02 220.759 309.02 218.77V172.786C309.037 170.566 308.576 168.367 307.669 166.34C306.766 164.321 305.441 162.519 303.784 161.055C302.194 159.602 300.306 158.512 298.252 157.864C296.2 157.216 294.032 157.023 291.899 157.298C286.856 157.833 281.756 157.304 276.929 155.745C272.089 154.181 267.631 151.616 263.847 148.216C260.063 144.817 257.037 140.659 254.965 136.013C252.894 131.367 251.823 126.337 251.823 121.25C251.823 116.163 252.894 111.133 254.965 106.487C257.037 101.841 260.063 97.6834 263.847 94.2839C267.631 90.8844 272.089 88.3193 276.929 86.7555C281.756 85.1961 286.856 84.6671 291.9 85.2026C294.059 85.4793 296.252 85.2914 298.332 84.6512C300.425 84.0074 302.355 82.921 303.99 81.4659C305.659 79.9979 306.992 78.1883 307.899 76.1597C308.806 74.1327 309.267 71.9345 309.25 69.7141V12C309.25 10.0109 310.04 8.10322 311.447 6.6967C312.853 5.29018 314.761 4.5 316.75 4.5H351.173C351.664 4.52441 352.137 4.68391 352.541 4.95856C352.816 5.36289 352.976 5.83654 353 6.3281C353.021 21.0857 358.892 35.2345 369.329 45.6712C379.784 56.1264 393.964 62 408.75 62C423.536 62 437.716 56.1264 448.171 45.6712C458.626 35.2161 464.5 21.0358 464.5 6.25C464.5 5.78586 464.684 5.34075 465.013 5.01256C465.341 4.68438 465.786 4.5 466.25 4.5H506.5C511.539 4.5 516.372 6.50178 519.935 10.065C523.498 13.6282 525.5 18.4609 525.5 23.5V218.77C525.5 220.759 524.71 222.667 523.303 224.073C521.897 225.48 519.989 226.27 518 226.27H481.2H481.19L481.18 226.27C479.529 226.278 477.924 225.725 476.63 224.7C475.336 223.675 474.428 222.241 474.058 220.632C470.647 205.805 462.308 192.572 450.405 183.096C438.501 173.62 423.735 168.46 408.52 168.46C393.305 168.46 378.539 173.62 366.635 183.096C354.732 192.572 346.393 205.805 342.982 220.632C342.612 222.241 341.704 223.675 340.41 224.7C339.116 225.725 337.511 226.278 335.86 226.27Z" stroke="url(#paint2_linear_2_3)" stroke-width="8"/>
<path d="M460.27 253.5C458.618 253.514 456.982 253.173 455.474 252.498C453.965 251.823 452.62 250.831 451.53 249.59C450.452 248.381 449.648 246.954 449.172 245.406C448.696 243.858 448.559 242.226 448.77 240.62C448.891 239.166 448.891 237.704 448.77 236.25C448.77 225.575 444.529 215.337 436.981 207.789C429.433 200.241 419.195 196 408.52 196C397.845 196 387.607 200.241 380.059 207.789C372.511 215.337 368.27 225.575 368.27 236.25C368.149 237.704 368.149 239.166 368.27 240.62C368.481 242.226 368.344 243.858 367.868 245.406C367.392 246.954 366.588 248.381 365.51 249.59C364.42 250.831 363.074 251.823 361.566 252.498C360.058 253.173 358.422 253.514 356.77 253.5H316.75C313.7 253.5 310.775 254.712 308.618 256.868C306.462 259.025 305.25 261.95 305.25 265V290.07C305.237 292.629 306.095 295.116 307.684 297.123C309.272 299.129 311.496 300.536 313.99 301.11C327.936 304.318 340.382 312.161 349.295 323.357C358.207 334.552 363.06 348.44 363.06 362.75C363.06 377.06 358.207 390.948 349.295 402.143C340.382 413.339 327.936 421.182 313.99 424.39C311.496 424.964 309.272 426.371 307.684 428.377C306.095 430.384 305.237 432.871 305.25 435.43V472C305.25 475.05 306.462 477.975 308.618 480.132C310.775 482.288 313.7 483.5 316.75 483.5H506.5C512.6 483.5 518.45 481.077 522.763 476.763C527.077 472.45 529.5 466.6 529.5 460.5V265C529.5 261.95 528.288 259.025 526.132 256.868C523.975 254.712 521.05 253.5 518 253.5H460.27Z" fill="url(#paint3_linear_2_3)"/>
<defs>
<linearGradient id="paint0_linear_2_3" x1="64.5" y1="5.5" x2="275" y2="229" gradientUnits="userSpaceOnUse">
<stop stop-color="#21DAAC"/>
<stop offset="1" stop-color="#01B38F"/>
</linearGradient>
<linearGradient id="paint1_linear_2_3" x1="63" y1="253" x2="279" y2="484" gradientUnits="userSpaceOnUse">
<stop stop-color="#FFBF19"/>
<stop offset="1" stop-color="#FA9319"/>
</linearGradient>
<linearGradient id="paint2_linear_2_3" x1="309" y1="9.49999" x2="521" y2="230" gradientUnits="userSpaceOnUse">
<stop stop-color="#BE82FA"/>
<stop offset="1" stop-color="#A052CC"/>
</linearGradient>
<linearGradient id="paint3_linear_2_3" x1="365" y1="248.5" x2="530" y2="491" gradientUnits="userSpaceOnUse">
<stop stop-color="#FF5970"/>
<stop offset="1" stop-color="#D9304C"/>
</linearGradient>
</defs>
</svg>
