<svg width="1920" height="840" viewBox="0 0 1920 840" fill="none" xmlns="http://www.w3.org/2000/svg">
<rect width="1920" height="840" rx="32" fill="#F5F5F6"/>
<path d="M370 81C370 78.2386 372.239 76 375 76H524C526.761 76 529 78.2386 529 81V121C529 123.761 526.761 126 524 126H375C372.239 126 370 123.761 370 121V81Z" fill="#009EE6"/>
<path d="M412.176 105L411.2 93.928H408.752L407.008 100.232C406.8 101 406.656 101.752 406.608 102.088C406.544 101.752 406.448 101.128 406.192 100.2L404.496 93.928H402.048L401.04 105H402.848L403.328 98.312C403.376 97.624 403.44 96.568 403.44 96.2C403.504 96.568 403.712 97.56 403.92 98.296L405.76 105H407.328L409.344 97.992C409.552 97.288 409.696 96.584 409.776 96.216C409.776 96.552 409.808 97.432 409.856 98.136L410.368 105H412.176ZM420.869 104.216C420.245 103.784 420.149 103.432 420.165 102.344L420.197 100.024C420.213 98.824 420.213 98.392 420.069 98.04C419.717 97.16 418.869 96.696 417.605 96.696C416.389 96.696 415.381 97.032 414.165 97.8L414.949 99.064C414.949 99.064 416.197 98.136 417.365 98.136C418.325 98.136 418.485 98.632 418.485 99.56V99.992H417.941C415.349 99.992 413.941 100.936 413.941 102.808C413.941 104.216 414.773 105.24 416.629 105.24C417.493 105.24 418.197 104.984 418.853 104.248C419.045 104.76 419.461 105.144 419.957 105.336L420.869 104.216ZM418.453 101.192L418.421 103.112C418.069 103.624 417.525 103.96 416.965 103.96C416.261 103.96 415.845 103.48 415.845 102.712C415.845 101.688 416.373 101.176 418.133 101.176C418.261 101.176 418.453 101.192 418.453 101.192ZM428.415 102.472C428.415 101.528 427.983 100.632 426.351 100.216L425.343 99.96C424.527 99.752 424.255 99.496 424.255 99C424.255 98.376 424.735 97.96 425.487 97.96C426.127 97.96 426.719 98.152 427.471 98.552L428.047 97.336C427.359 96.968 426.479 96.632 425.375 96.632C423.583 96.632 422.367 97.688 422.367 99.208C422.367 100.344 423.087 101.176 424.303 101.432L425.279 101.64C426.191 101.832 426.591 102.152 426.591 102.776C426.591 103.448 426.047 103.912 425.279 103.912C424.367 103.912 423.375 103.48 422.655 103.064L422.031 104.328C423.071 104.904 424.143 105.224 425.135 105.224C427.087 105.224 428.415 104.104 428.415 102.472ZM434.119 104.856L433.895 103.8C433.591 103.912 433.383 103.96 433.143 103.96C432.375 103.96 432.151 103.672 432.151 102.664V98.12H433.639L434.103 96.904H432.167C432.167 96.104 432.231 95.128 432.311 94.472L430.503 94.904C430.423 95.512 430.423 96.216 430.423 96.904H429.527V98.12H430.423V103.128C430.423 104.28 430.967 105.208 432.535 105.208C433.079 105.208 433.591 105.096 434.119 104.856ZM442.086 101.432V101.064C442.086 99.176 441.734 98.184 441.03 97.544C440.342 96.92 439.606 96.712 438.806 96.712C437.782 96.712 436.982 97.048 436.326 97.8C435.622 98.6 435.318 99.544 435.318 100.968C435.318 103.56 436.758 105.208 439.046 105.208C440.134 105.208 441.11 104.856 441.958 104.136L441.27 103.064C440.662 103.592 440.006 103.864 439.254 103.864C437.67 103.864 437.254 102.68 437.254 101.56V101.432H442.086ZM440.262 100.136H437.27C437.27 98.824 437.814 98.04 438.806 98.04C439.686 98.04 440.262 98.824 440.262 100.136ZM448.493 96.808C448.285 96.712 448.125 96.68 447.869 96.68C447.085 96.68 446.445 97.096 445.805 97.976C445.805 97.528 445.693 97.064 445.501 96.696L443.885 97.112C444.061 97.608 444.173 98.264 444.173 99.288V105H445.933V99.528C446.093 98.872 446.717 98.328 447.453 98.328C447.645 98.328 447.773 98.376 447.949 98.44L448.493 96.808ZM460.896 101.864C460.896 100.76 460.384 99.512 458.544 99.064C459.776 98.712 460.448 97.832 460.448 96.648C460.448 95.72 460.032 95 459.2 94.472C458.512 94.04 457.936 93.928 456.288 93.928H453.36V105H456.576C459.376 105 460.896 104.056 460.896 101.864ZM458.864 101.688C458.864 102.68 458.256 103.48 456.848 103.48H455.184V99.976H456.8C457.328 99.976 457.552 99.992 457.824 100.072C458.432 100.248 458.864 100.904 458.864 101.688ZM458.512 96.936C458.512 97.224 458.416 97.688 458.08 98.04C457.728 98.408 457.392 98.456 456.72 98.456H455.152V95.432H456.576C457.104 95.432 457.392 95.48 457.616 95.56C458.144 95.752 458.512 96.296 458.512 96.936ZM469.671 104.424C469.671 104.424 469.175 104.024 469.175 102.808V96.712L467.479 97.032V102.824C467.207 103.4 466.487 103.88 465.895 103.88C464.855 103.88 464.711 103.144 464.711 102.136V96.712L462.983 97.032V102.52C462.983 103.528 463.111 104.056 463.431 104.44C463.831 104.92 464.535 105.24 465.447 105.24C466.375 105.24 467.159 104.92 467.751 104.248C467.895 104.712 468.103 105 468.455 105.256L469.671 104.424ZM475.587 104.856L475.363 103.8C475.059 103.912 474.851 103.96 474.611 103.96C473.843 103.96 473.619 103.672 473.619 102.664V98.12H475.107L475.571 96.904H473.635C473.635 96.104 473.699 95.128 473.779 94.472L471.971 94.904C471.891 95.512 471.891 96.216 471.891 96.904H470.995V98.12H471.891V103.128C471.891 104.28 472.435 105.208 474.003 105.208C474.547 105.208 475.059 105.096 475.587 104.856ZM481.04 104.856L480.816 103.8C480.512 103.912 480.304 103.96 480.064 103.96C479.296 103.96 479.072 103.672 479.072 102.664V98.12H480.56L481.024 96.904H479.088C479.088 96.104 479.152 95.128 479.232 94.472L477.424 94.904C477.344 95.512 477.344 96.216 477.344 96.904H476.448V98.12H477.344V103.128C477.344 104.28 477.888 105.208 479.456 105.208C480 105.208 480.512 105.096 481.04 104.856ZM489.311 100.984C489.311 98.424 487.999 96.712 485.695 96.712C483.551 96.712 482.159 98.376 482.159 100.968C482.159 103.56 483.535 105.208 485.727 105.208C487.919 105.208 489.311 103.592 489.311 100.984ZM487.375 101.016C487.375 103.048 486.799 103.896 485.759 103.896C484.703 103.896 484.111 103.208 484.111 100.856C484.111 98.888 484.591 98.04 485.711 98.04C486.735 98.04 487.375 98.728 487.375 101.016ZM497.645 105V98.952C497.645 97.464 496.781 96.712 495.533 96.712C494.669 96.712 493.917 97.096 493.053 97.832C493.053 97.4 492.957 97.048 492.765 96.68L491.165 97.128C491.389 97.704 491.469 98.2 491.469 99.048V105H493.197V99.128C493.725 98.6 494.461 98.216 494.973 98.216C495.645 98.216 495.901 98.52 495.901 99.624V105H497.645Z" fill="white"/>
<rect x="356.5" y="64.5" width="187" height="73" stroke="#FF3366" stroke-width="3"/>
<rect x="343" y="49" width="28" height="28" fill="#FAFAFA"/>
<path d="M368 63V74H357C350.925 74 346 69.0751 346 63C346 56.9249 350.925 52 357 52C363.075 52 368 56.9249 368 63Z" fill="#F0FBFF" stroke="#FF3366" stroke-width="2"/>
<path d="M365.5 63V71.5H357C352.306 71.5 348.5 67.6944 348.5 63C348.5 58.3056 352.306 54.5 357 54.5C361.694 54.5 365.5 58.3056 365.5 63Z" fill="#F0FBFF" stroke="#FF3366"/>
<path d="M362.5 63V68.5H357C353.962 68.5 351.5 66.0376 351.5 63C351.5 59.9624 353.962 57.5 357 57.5C360.038 57.5 362.5 59.9624 362.5 63Z" fill="#F0FBFF" stroke="#FF3366"/>
<g filter="url(#filter0_d)">
<rect x="358" y="261" width="557" height="478" fill="#F0FBFF"/>
</g>
<g filter="url(#filter1_d)">
<rect x="1020" y="261" width="557" height="421" fill="#F0FBFF"/>
</g>
<rect x="357" y="261" width="558" height="64" fill="#003399"/>
<rect x="1019" y="261" width="558" height="64" fill="#003399"/>
<path d="M401.056 285.928H399.136L398.08 290.952C397.808 292.216 397.44 294.552 397.44 294.552H397.392C397.392 294.552 397.12 292.744 396.848 291.432L395.696 285.928H393.632L392.48 291.208C392.192 292.552 391.872 294.632 391.872 294.632H391.824C391.824 294.632 391.616 292.872 391.232 291.08L390.128 285.928H388.16L390.8 297.064H392.96L394.032 291.88C394.304 290.536 394.592 288.728 394.592 288.728H394.64C394.64 288.728 394.816 290.264 395.184 291.928L396.32 297.064H398.432L401.056 285.928ZM408.382 293.432V293.064C408.382 291.176 408.03 290.184 407.326 289.544C406.638 288.92 405.902 288.712 405.102 288.712C404.078 288.712 403.278 289.048 402.622 289.8C401.918 290.6 401.614 291.544 401.614 292.968C401.614 295.56 403.054 297.208 405.342 297.208C406.43 297.208 407.406 296.856 408.254 296.136L407.566 295.064C406.958 295.592 406.302 295.864 405.55 295.864C403.966 295.864 403.55 294.68 403.55 293.56V293.432H408.382ZM406.558 292.136H403.566C403.566 290.824 404.11 290.04 405.102 290.04C405.982 290.04 406.558 290.824 406.558 292.136ZM417.223 292.824C417.223 290.296 416.007 288.712 414.071 288.712C413.303 288.712 412.711 288.952 412.151 289.496L412.087 289.48C412.087 289.48 412.135 289.24 412.135 288.712V286.824C412.135 286.184 412.103 285.784 412.007 285.208L410.183 285.608C410.327 286.056 410.391 286.632 410.391 287.56V295.192C410.391 296.28 410.327 296.632 410.183 297H411.799C411.927 296.776 411.943 296.664 412.023 296.248C412.519 296.856 413.191 297.176 413.991 297.176C415.879 297.176 417.223 295.416 417.223 292.824ZM415.239 292.84C415.239 294.872 414.759 295.672 413.655 295.672C413.015 295.672 412.503 295.336 412.151 294.968V291.016C412.471 290.616 412.951 290.2 413.687 290.2C414.951 290.2 415.239 291.384 415.239 292.84ZM424.977 294.472C424.977 293.528 424.545 292.632 422.913 292.216L421.905 291.96C421.089 291.752 420.817 291.496 420.817 291C420.817 290.376 421.297 289.96 422.049 289.96C422.689 289.96 423.281 290.152 424.033 290.552L424.609 289.336C423.921 288.968 423.041 288.632 421.937 288.632C420.145 288.632 418.929 289.688 418.929 291.208C418.929 292.344 419.649 293.176 420.865 293.432L421.841 293.64C422.753 293.832 423.153 294.152 423.153 294.776C423.153 295.448 422.609 295.912 421.841 295.912C420.929 295.912 419.937 295.48 419.217 295.064L418.593 296.328C419.633 296.904 420.705 297.224 421.697 297.224C423.649 297.224 424.977 296.104 424.977 294.472ZM428.683 297V288.712L426.907 289.032V297H428.683ZM428.971 286.536C428.971 285.864 428.443 285.352 427.819 285.352C427.163 285.352 426.651 285.88 426.651 286.536C426.651 287.176 427.147 287.704 427.787 287.704C428.443 287.704 428.971 287.176 428.971 286.536ZM435.103 296.856L434.879 295.8C434.575 295.912 434.367 295.96 434.127 295.96C433.359 295.96 433.135 295.672 433.135 294.664V290.12H434.623L435.087 288.904H433.151C433.151 288.104 433.215 287.128 433.295 286.472L431.487 286.904C431.407 287.512 431.407 288.216 431.407 288.904H430.511V290.12H431.407V295.128C431.407 296.28 431.951 297.208 433.519 297.208C434.063 297.208 434.575 297.096 435.103 296.856ZM443.07 293.432V293.064C443.07 291.176 442.718 290.184 442.014 289.544C441.326 288.92 440.59 288.712 439.79 288.712C438.766 288.712 437.966 289.048 437.31 289.8C436.606 290.6 436.302 291.544 436.302 292.968C436.302 295.56 437.742 297.208 440.03 297.208C441.118 297.208 442.094 296.856 442.942 296.136L442.254 295.064C441.646 295.592 440.99 295.864 440.238 295.864C438.654 295.864 438.238 294.68 438.238 293.56V293.432H443.07ZM441.246 292.136H438.254C438.254 290.824 438.798 290.04 439.79 290.04C440.67 290.04 441.246 290.824 441.246 292.136ZM454.671 297V295.576H453.183V286.424H451.935L448.719 288.68L449.151 289.624C449.343 289.56 449.935 289.304 450.367 289.096C450.799 288.888 451.295 288.568 451.455 288.472V295.576H449.599V297H454.671Z" fill="white"/>
<path d="M1058.64 289.24C1058.64 288.024 1058.1 287.032 1057.12 286.456C1056.51 286.088 1055.92 285.928 1054.3 285.928H1051.36V297H1053.18V292.776H1055.06C1057.06 292.776 1058.64 291.416 1058.64 289.24ZM1056.61 289.352C1056.61 290.664 1055.98 291.304 1054.62 291.304H1053.18V287.416H1054.62C1055.34 287.416 1055.82 287.608 1056.16 287.96C1056.46 288.28 1056.61 288.744 1056.61 289.352ZM1064.73 288.808C1064.52 288.712 1064.36 288.68 1064.1 288.68C1063.32 288.68 1062.68 289.096 1062.04 289.976C1062.04 289.528 1061.93 289.064 1061.73 288.696L1060.12 289.112C1060.29 289.608 1060.41 290.264 1060.41 291.288V297H1062.17V291.528C1062.33 290.872 1062.95 290.328 1063.69 290.328C1063.88 290.328 1064.01 290.376 1064.18 290.44L1064.73 288.808ZM1072.51 292.984C1072.51 290.424 1071.2 288.712 1068.9 288.712C1066.75 288.712 1065.36 290.376 1065.36 292.968C1065.36 295.56 1066.74 297.208 1068.93 297.208C1071.12 297.208 1072.51 295.592 1072.51 292.984ZM1070.58 293.016C1070.58 295.048 1070 295.896 1068.96 295.896C1067.91 295.896 1067.31 295.208 1067.31 292.856C1067.31 290.888 1067.79 290.04 1068.91 290.04C1069.94 290.04 1070.58 290.728 1070.58 293.016ZM1081.25 297C1081.09 296.6 1080.99 295.784 1080.99 294.184V285.48L1079.25 285.208V288.168C1079.25 288.872 1079.3 289.496 1079.3 289.496C1078.8 288.984 1078.24 288.76 1077.55 288.76C1075.6 288.76 1074.19 290.488 1074.19 293.032C1074.19 295.56 1075.44 297.176 1077.5 297.176C1078.3 297.176 1078.94 296.92 1079.49 296.376C1079.54 296.712 1079.55 296.824 1079.63 297H1081.25ZM1079.25 294.936C1079.01 295.336 1078.48 295.704 1077.82 295.704C1076.5 295.704 1076.14 294.808 1076.14 293.016C1076.14 291.064 1076.66 290.168 1077.78 290.168C1078.37 290.168 1078.85 290.392 1079.25 290.824V294.936ZM1090.33 296.424C1090.33 296.424 1089.83 296.024 1089.83 294.808V288.712L1088.14 289.032V294.824C1087.86 295.4 1087.14 295.88 1086.55 295.88C1085.51 295.88 1085.37 295.144 1085.37 294.136V288.712L1083.64 289.032V294.52C1083.64 295.528 1083.77 296.056 1084.09 296.44C1084.49 296.92 1085.19 297.24 1086.1 297.24C1087.03 297.24 1087.82 296.92 1088.41 296.248C1088.55 296.712 1088.76 297 1089.11 297.256L1090.33 296.424ZM1098.1 296.136L1097.27 295.064C1096.74 295.592 1096.2 295.864 1095.64 295.864C1095.2 295.864 1094.82 295.688 1094.56 295.4C1094.2 295 1094.02 294.296 1094.02 293.192C1094.02 292.184 1094.12 291.432 1094.36 290.936C1094.61 290.408 1095.08 290.12 1095.64 290.12C1096.1 290.12 1096.52 290.312 1097 290.744L1097.88 289.576C1097.16 288.904 1096.52 288.696 1095.64 288.696C1093.83 288.696 1092.07 290.104 1092.07 293.048C1092.07 295.656 1093.3 297.208 1095.51 297.208C1096.6 297.208 1097.36 296.872 1098.1 296.136ZM1103.71 296.856L1103.49 295.8C1103.18 295.912 1102.98 295.96 1102.74 295.96C1101.97 295.96 1101.74 295.672 1101.74 294.664V290.12H1103.23L1103.7 288.904H1101.76C1101.76 288.104 1101.82 287.128 1101.9 286.472L1100.1 286.904C1100.02 287.512 1100.02 288.216 1100.02 288.904H1099.12V290.12H1100.02V295.128C1100.02 296.28 1100.56 297.208 1102.13 297.208C1102.67 297.208 1103.18 297.096 1103.71 296.856Z" fill="white"/>
<rect opacity="0.2" x="1067" y="373" width="462" height="94" rx="8" fill="#009EE6"/>
<rect opacity="0.2" x="1067" y="483" width="462" height="151" rx="8" fill="#009EE6"/>
<rect opacity="0.2" x="405" y="540" width="462" height="151" rx="8" fill="#009EE6"/>
<rect opacity="0.2" x="405" y="373" width="462" height="151" rx="8" fill="#009EE6"/>
<rect opacity="0.2" x="1083" y="499" width="430" height="22" rx="11" fill="#009EE6"/>
<rect opacity="0.2" x="421" y="556" width="430" height="22" rx="11" fill="#009EE6"/>
<rect opacity="0.2" x="421" y="389" width="430" height="22" rx="11" fill="#009EE6"/>
<rect opacity="0.2" x="1083" y="391" width="430" height="22" rx="11" fill="#009EE6"/>
<rect opacity="0.2" x="1083" y="529" width="186" height="10" rx="5" fill="#009EE6"/>
<rect opacity="0.2" x="421" y="586" width="186" height="10" rx="5" fill="#009EE6"/>
<rect opacity="0.2" x="421" y="419" width="186" height="10" rx="5" fill="#009EE6"/>
<rect opacity="0.2" x="1083" y="421" width="186" height="10" rx="5" fill="#009EE6"/>
<rect opacity="0.2" x="1083" y="547" width="186" height="10" rx="5" fill="#009EE6"/>
<rect opacity="0.2" x="421" y="604" width="186" height="10" rx="5" fill="#009EE6"/>
<rect opacity="0.2" x="421" y="437" width="186" height="10" rx="5" fill="#009EE6"/>
<rect opacity="0.2" x="1083" y="439" width="186" height="10" rx="5" fill="#009EE6"/>
<path d="M1357 573C1357 570.239 1359.24 568 1362 568H1508C1510.76 568 1513 570.239 1513 573V613C1513 615.761 1510.76 618 1508 618H1362C1359.24 618 1357 615.761 1357 613V573Z" fill="#009EE6"/>
<path d="M1396.18 596.216V591H1392.17L1392.42 592.504H1394.31V595.384C1393.9 595.608 1393.42 595.736 1392.84 595.736C1391.99 595.736 1391.19 595.432 1390.74 594.904C1390.22 594.28 1389.93 593.192 1389.93 591.64C1389.93 589.048 1390.68 587.256 1392.73 587.256C1393.58 587.256 1394.3 587.512 1395.06 588.104L1395.99 586.952C1395.08 586.168 1393.96 585.784 1392.7 585.784C1391.62 585.784 1390.76 586.04 1389.96 586.648C1388.57 587.688 1387.88 589.272 1387.88 591.544C1387.88 593.288 1388.26 594.536 1389.11 595.576C1389.98 596.648 1391.18 597.144 1392.73 597.144C1393.96 597.144 1395.18 596.824 1396.18 596.216ZM1405.04 593.432V593.064C1405.04 591.176 1404.69 590.184 1403.98 589.544C1403.29 588.92 1402.56 588.712 1401.76 588.712C1400.73 588.712 1399.93 589.048 1399.28 589.8C1398.57 590.6 1398.27 591.544 1398.27 592.968C1398.27 595.56 1399.71 597.208 1402 597.208C1403.09 597.208 1404.06 596.856 1404.91 596.136L1404.22 595.064C1403.61 595.592 1402.96 595.864 1402.21 595.864C1400.62 595.864 1400.21 594.68 1400.21 593.56V593.432H1405.04ZM1403.21 592.136H1400.22C1400.22 590.824 1400.77 590.04 1401.76 590.04C1402.64 590.04 1403.21 590.824 1403.21 592.136ZM1410.82 596.856L1410.6 595.8C1410.29 595.912 1410.09 595.96 1409.85 595.96C1409.08 595.96 1408.85 595.672 1408.85 594.664V590.12H1410.34L1410.81 588.904H1408.87C1408.87 588.104 1408.93 587.128 1409.01 586.472L1407.21 586.904C1407.13 587.512 1407.13 588.216 1407.13 588.904H1406.23V590.12H1407.13V595.128C1407.13 596.28 1407.67 597.208 1409.24 597.208C1409.78 597.208 1410.29 597.096 1410.82 596.856ZM1417.79 597V588.712L1416.02 589.032V597H1417.79ZM1418.08 586.536C1418.08 585.864 1417.55 585.352 1416.93 585.352C1416.27 585.352 1415.76 585.88 1415.76 586.536C1415.76 587.176 1416.26 587.704 1416.9 587.704C1417.55 587.704 1418.08 587.176 1418.08 586.536ZM1426.69 597V590.952C1426.69 589.464 1425.83 588.712 1424.58 588.712C1423.72 588.712 1422.96 589.096 1422.1 589.832C1422.1 589.4 1422 589.048 1421.81 588.68L1420.21 589.128C1420.44 589.704 1420.52 590.2 1420.52 591.048V597H1422.24V591.128C1422.77 590.6 1423.51 590.216 1424.02 590.216C1424.69 590.216 1424.95 590.52 1424.95 591.624V597H1426.69ZM1434.91 594.472C1434.91 593.528 1434.48 592.632 1432.85 592.216L1431.84 591.96C1431.03 591.752 1430.75 591.496 1430.75 591C1430.75 590.376 1431.23 589.96 1431.99 589.96C1432.63 589.96 1433.22 590.152 1433.97 590.552L1434.55 589.336C1433.86 588.968 1432.98 588.632 1431.87 588.632C1430.08 588.632 1428.87 589.688 1428.87 591.208C1428.87 592.344 1429.59 593.176 1430.8 593.432L1431.78 593.64C1432.69 593.832 1433.09 594.152 1433.09 594.776C1433.09 595.448 1432.55 595.912 1431.78 595.912C1430.87 595.912 1429.87 595.48 1429.15 595.064L1428.53 596.328C1429.57 596.904 1430.64 597.224 1431.63 597.224C1433.59 597.224 1434.91 596.104 1434.91 594.472ZM1443.53 596.424C1443.53 596.424 1443.03 596.024 1443.03 594.808V588.712L1441.34 589.032V594.824C1441.07 595.4 1440.35 595.88 1439.75 595.88C1438.71 595.88 1438.57 595.144 1438.57 594.136V588.712L1436.84 589.032V594.52C1436.84 595.528 1436.97 596.056 1437.29 596.44C1437.69 596.92 1438.39 597.24 1439.31 597.24C1440.23 597.24 1441.02 596.92 1441.61 596.248C1441.75 596.712 1441.96 597 1442.31 597.256L1443.53 596.424ZM1450.07 588.808C1449.86 588.712 1449.7 588.68 1449.45 588.68C1448.66 588.68 1448.02 589.096 1447.38 589.976C1447.38 589.528 1447.27 589.064 1447.08 588.696L1445.46 589.112C1445.64 589.608 1445.75 590.264 1445.75 591.288V597H1447.51V591.528C1447.67 590.872 1448.29 590.328 1449.03 590.328C1449.22 590.328 1449.35 590.376 1449.53 590.44L1450.07 588.808ZM1457.56 596.216C1456.93 595.784 1456.84 595.432 1456.85 594.344L1456.88 592.024C1456.9 590.824 1456.9 590.392 1456.76 590.04C1456.4 589.16 1455.56 588.696 1454.29 588.696C1453.08 588.696 1452.07 589.032 1450.85 589.8L1451.64 591.064C1451.64 591.064 1452.88 590.136 1454.05 590.136C1455.01 590.136 1455.17 590.632 1455.17 591.56V591.992H1454.63C1452.04 591.992 1450.63 592.936 1450.63 594.808C1450.63 596.216 1451.46 597.24 1453.32 597.24C1454.18 597.24 1454.88 596.984 1455.54 596.248C1455.73 596.76 1456.15 597.144 1456.64 597.336L1457.56 596.216ZM1455.14 593.192L1455.11 595.112C1454.76 595.624 1454.21 595.96 1453.65 595.96C1452.95 595.96 1452.53 595.48 1452.53 594.712C1452.53 593.688 1453.06 593.176 1454.82 593.176C1454.95 593.176 1455.14 593.192 1455.14 593.192ZM1465.77 597V590.952C1465.77 589.464 1464.91 588.712 1463.66 588.712C1462.79 588.712 1462.04 589.096 1461.18 589.832C1461.18 589.4 1461.08 589.048 1460.89 588.68L1459.29 589.128C1459.51 589.704 1459.59 590.2 1459.59 591.048V597H1461.32V591.128C1461.85 590.6 1462.59 590.216 1463.1 590.216C1463.77 590.216 1464.03 590.52 1464.03 591.624V597H1465.77ZM1474.04 596.136L1473.21 595.064C1472.68 595.592 1472.13 595.864 1471.57 595.864C1471.14 595.864 1470.76 595.688 1470.5 595.4C1470.13 595 1469.96 594.296 1469.96 593.192C1469.96 592.184 1470.05 591.432 1470.29 590.936C1470.55 590.408 1471.01 590.12 1471.57 590.12C1472.04 590.12 1472.45 590.312 1472.93 590.744L1473.81 589.576C1473.09 588.904 1472.45 588.696 1471.57 588.696C1469.77 588.696 1468.01 590.104 1468.01 593.048C1468.01 595.656 1469.24 597.208 1471.45 597.208C1472.53 597.208 1473.3 596.872 1474.04 596.136ZM1481.93 593.432V593.064C1481.93 591.176 1481.58 590.184 1480.87 589.544C1480.19 588.92 1479.45 588.712 1478.65 588.712C1477.63 588.712 1476.83 589.048 1476.17 589.8C1475.47 590.6 1475.16 591.544 1475.16 592.968C1475.16 595.56 1476.6 597.208 1478.89 597.208C1479.98 597.208 1480.95 596.856 1481.8 596.136L1481.11 595.064C1480.51 595.592 1479.85 595.864 1479.1 595.864C1477.51 595.864 1477.1 594.68 1477.1 593.56V593.432H1481.93ZM1480.11 592.136H1477.11C1477.11 590.824 1477.66 590.04 1478.65 590.04C1479.53 590.04 1480.11 590.824 1480.11 592.136Z" fill="white"/>
<path d="M695 630C695 627.239 697.239 625 700 625H846C848.761 625 851 627.239 851 630V670C851 672.761 848.761 675 846 675H700C697.239 675 695 672.761 695 670V630Z" fill="#009EE6"/>
<path d="M734.184 653.216V648H730.168L730.424 649.504H732.312V652.384C731.896 652.608 731.416 652.736 730.84 652.736C729.992 652.736 729.192 652.432 728.744 651.904C728.216 651.28 727.928 650.192 727.928 648.64C727.928 646.048 728.68 644.256 730.728 644.256C731.576 644.256 732.296 644.512 733.064 645.104L733.992 643.952C733.08 643.168 731.96 642.784 730.696 642.784C729.624 642.784 728.76 643.04 727.96 643.648C726.568 644.688 725.88 646.272 725.88 648.544C725.88 650.288 726.264 651.536 727.112 652.576C727.976 653.648 729.176 654.144 730.728 654.144C731.96 654.144 733.176 653.824 734.184 653.216ZM743.039 650.432V650.064C743.039 648.176 742.687 647.184 741.983 646.544C741.295 645.92 740.559 645.712 739.759 645.712C738.735 645.712 737.935 646.048 737.279 646.8C736.575 647.6 736.271 648.544 736.271 649.968C736.271 652.56 737.711 654.208 739.999 654.208C741.087 654.208 742.063 653.856 742.911 653.136L742.223 652.064C741.615 652.592 740.959 652.864 740.207 652.864C738.623 652.864 738.207 651.68 738.207 650.56V650.432H743.039ZM741.215 649.136H738.223C738.223 647.824 738.767 647.04 739.759 647.04C740.639 647.04 741.215 647.824 741.215 649.136ZM748.822 653.856L748.598 652.8C748.294 652.912 748.086 652.96 747.846 652.96C747.078 652.96 746.854 652.672 746.854 651.664V647.12H748.342L748.806 645.904H746.87C746.87 645.104 746.934 644.128 747.014 643.472L745.206 643.904C745.126 644.512 745.126 645.216 745.126 645.904H744.23V647.12H745.126V652.128C745.126 653.28 745.67 654.208 747.238 654.208C747.782 654.208 748.294 654.096 748.822 653.856ZM755.792 654V645.712L754.016 646.032V654H755.792ZM756.08 643.536C756.08 642.864 755.552 642.352 754.928 642.352C754.272 642.352 753.76 642.88 753.76 643.536C753.76 644.176 754.256 644.704 754.896 644.704C755.552 644.704 756.08 644.176 756.08 643.536ZM764.692 654V647.952C764.692 646.464 763.828 645.712 762.58 645.712C761.716 645.712 760.964 646.096 760.1 646.832C760.1 646.4 760.004 646.048 759.812 645.68L758.212 646.128C758.436 646.704 758.516 647.2 758.516 648.048V654H760.244V648.128C760.772 647.6 761.508 647.216 762.02 647.216C762.692 647.216 762.948 647.52 762.948 648.624V654H764.692ZM772.915 651.472C772.915 650.528 772.483 649.632 770.851 649.216L769.843 648.96C769.027 648.752 768.755 648.496 768.755 648C768.755 647.376 769.235 646.96 769.987 646.96C770.627 646.96 771.219 647.152 771.971 647.552L772.547 646.336C771.859 645.968 770.979 645.632 769.875 645.632C768.083 645.632 766.867 646.688 766.867 648.208C766.867 649.344 767.587 650.176 768.803 650.432L769.779 650.64C770.691 650.832 771.091 651.152 771.091 651.776C771.091 652.448 770.547 652.912 769.779 652.912C768.867 652.912 767.875 652.48 767.155 652.064L766.531 653.328C767.571 653.904 768.643 654.224 769.635 654.224C771.587 654.224 772.915 653.104 772.915 651.472ZM781.531 653.424C781.531 653.424 781.035 653.024 781.035 651.808V645.712L779.339 646.032V651.824C779.067 652.4 778.347 652.88 777.755 652.88C776.715 652.88 776.571 652.144 776.571 651.136V645.712L774.843 646.032V651.52C774.843 652.528 774.971 653.056 775.291 653.44C775.691 653.92 776.395 654.24 777.307 654.24C778.235 654.24 779.019 653.92 779.611 653.248C779.755 653.712 779.963 654 780.315 654.256L781.531 653.424ZM788.071 645.808C787.863 645.712 787.703 645.68 787.447 645.68C786.663 645.68 786.023 646.096 785.383 646.976C785.383 646.528 785.271 646.064 785.079 645.696L783.463 646.112C783.639 646.608 783.751 647.264 783.751 648.288V654H785.511V648.528C785.671 647.872 786.295 647.328 787.031 647.328C787.223 647.328 787.351 647.376 787.527 647.44L788.071 645.808ZM795.556 653.216C794.932 652.784 794.836 652.432 794.852 651.344L794.884 649.024C794.9 647.824 794.9 647.392 794.756 647.04C794.404 646.16 793.556 645.696 792.292 645.696C791.076 645.696 790.068 646.032 788.852 646.8L789.636 648.064C789.636 648.064 790.884 647.136 792.052 647.136C793.012 647.136 793.172 647.632 793.172 648.56V648.992H792.628C790.036 648.992 788.628 649.936 788.628 651.808C788.628 653.216 789.46 654.24 791.316 654.24C792.18 654.24 792.884 653.984 793.54 653.248C793.732 653.76 794.148 654.144 794.644 654.336L795.556 653.216ZM793.14 650.192L793.108 652.112C792.756 652.624 792.212 652.96 791.652 652.96C790.948 652.96 790.532 652.48 790.532 651.712C790.532 650.688 791.06 650.176 792.82 650.176C792.948 650.176 793.14 650.192 793.14 650.192ZM803.77 654V647.952C803.77 646.464 802.906 645.712 801.658 645.712C800.794 645.712 800.042 646.096 799.178 646.832C799.178 646.4 799.082 646.048 798.89 645.68L797.29 646.128C797.514 646.704 797.594 647.2 797.594 648.048V654H799.322V648.128C799.85 647.6 800.586 647.216 801.098 647.216C801.77 647.216 802.026 647.52 802.026 648.624V654H803.77ZM812.037 653.136L811.205 652.064C810.677 652.592 810.133 652.864 809.573 652.864C809.141 652.864 808.757 652.688 808.501 652.4C808.133 652 807.957 651.296 807.957 650.192C807.957 649.184 808.053 648.432 808.293 647.936C808.549 647.408 809.013 647.12 809.573 647.12C810.037 647.12 810.453 647.312 810.933 647.744L811.813 646.576C811.093 645.904 810.453 645.696 809.573 645.696C807.765 645.696 806.005 647.104 806.005 650.048C806.005 652.656 807.237 654.208 809.445 654.208C810.533 654.208 811.301 653.872 812.037 653.136ZM819.929 650.432V650.064C819.929 648.176 819.577 647.184 818.873 646.544C818.185 645.92 817.449 645.712 816.649 645.712C815.625 645.712 814.825 646.048 814.169 646.8C813.465 647.6 813.161 648.544 813.161 649.968C813.161 652.56 814.601 654.208 816.889 654.208C817.977 654.208 818.953 653.856 819.801 653.136L819.113 652.064C818.505 652.592 817.849 652.864 817.097 652.864C815.513 652.864 815.097 651.68 815.097 650.56V650.432H819.929ZM818.105 649.136H815.113C815.113 647.824 815.657 647.04 816.649 647.04C817.529 647.04 818.105 647.824 818.105 649.136Z" fill="white"/>
<path d="M695 463C695 460.239 697.239 458 700 458H846C848.761 458 851 460.239 851 463V503C851 505.761 848.761 508 846 508H700C697.239 508 695 505.761 695 503V463Z" fill="#009EE6"/>
<path d="M734.184 486.216V481H730.168L730.424 482.504H732.312V485.384C731.896 485.608 731.416 485.736 730.84 485.736C729.992 485.736 729.192 485.432 728.744 484.904C728.216 484.28 727.928 483.192 727.928 481.64C727.928 479.048 728.68 477.256 730.728 477.256C731.576 477.256 732.296 477.512 733.064 478.104L733.992 476.952C733.08 476.168 731.96 475.784 730.696 475.784C729.624 475.784 728.76 476.04 727.96 476.648C726.568 477.688 725.88 479.272 725.88 481.544C725.88 483.288 726.264 484.536 727.112 485.576C727.976 486.648 729.176 487.144 730.728 487.144C731.96 487.144 733.176 486.824 734.184 486.216ZM743.039 483.432V483.064C743.039 481.176 742.687 480.184 741.983 479.544C741.295 478.92 740.559 478.712 739.759 478.712C738.735 478.712 737.935 479.048 737.279 479.8C736.575 480.6 736.271 481.544 736.271 482.968C736.271 485.56 737.711 487.208 739.999 487.208C741.087 487.208 742.063 486.856 742.911 486.136L742.223 485.064C741.615 485.592 740.959 485.864 740.207 485.864C738.623 485.864 738.207 484.68 738.207 483.56V483.432H743.039ZM741.215 482.136H738.223C738.223 480.824 738.767 480.04 739.759 480.04C740.639 480.04 741.215 480.824 741.215 482.136ZM748.822 486.856L748.598 485.8C748.294 485.912 748.086 485.96 747.846 485.96C747.078 485.96 746.854 485.672 746.854 484.664V480.12H748.342L748.806 478.904H746.87C746.87 478.104 746.934 477.128 747.014 476.472L745.206 476.904C745.126 477.512 745.126 478.216 745.126 478.904H744.23V480.12H745.126V485.128C745.126 486.28 745.67 487.208 747.238 487.208C747.782 487.208 748.294 487.096 748.822 486.856ZM755.792 487V478.712L754.016 479.032V487H755.792ZM756.08 476.536C756.08 475.864 755.552 475.352 754.928 475.352C754.272 475.352 753.76 475.88 753.76 476.536C753.76 477.176 754.256 477.704 754.896 477.704C755.552 477.704 756.08 477.176 756.08 476.536ZM764.692 487V480.952C764.692 479.464 763.828 478.712 762.58 478.712C761.716 478.712 760.964 479.096 760.1 479.832C760.1 479.4 760.004 479.048 759.812 478.68L758.212 479.128C758.436 479.704 758.516 480.2 758.516 481.048V487H760.244V481.128C760.772 480.6 761.508 480.216 762.02 480.216C762.692 480.216 762.948 480.52 762.948 481.624V487H764.692ZM772.915 484.472C772.915 483.528 772.483 482.632 770.851 482.216L769.843 481.96C769.027 481.752 768.755 481.496 768.755 481C768.755 480.376 769.235 479.96 769.987 479.96C770.627 479.96 771.219 480.152 771.971 480.552L772.547 479.336C771.859 478.968 770.979 478.632 769.875 478.632C768.083 478.632 766.867 479.688 766.867 481.208C766.867 482.344 767.587 483.176 768.803 483.432L769.779 483.64C770.691 483.832 771.091 484.152 771.091 484.776C771.091 485.448 770.547 485.912 769.779 485.912C768.867 485.912 767.875 485.48 767.155 485.064L766.531 486.328C767.571 486.904 768.643 487.224 769.635 487.224C771.587 487.224 772.915 486.104 772.915 484.472ZM781.531 486.424C781.531 486.424 781.035 486.024 781.035 484.808V478.712L779.339 479.032V484.824C779.067 485.4 778.347 485.88 777.755 485.88C776.715 485.88 776.571 485.144 776.571 484.136V478.712L774.843 479.032V484.52C774.843 485.528 774.971 486.056 775.291 486.44C775.691 486.92 776.395 487.24 777.307 487.24C778.235 487.24 779.019 486.92 779.611 486.248C779.755 486.712 779.963 487 780.315 487.256L781.531 486.424ZM788.071 478.808C787.863 478.712 787.703 478.68 787.447 478.68C786.663 478.68 786.023 479.096 785.383 479.976C785.383 479.528 785.271 479.064 785.079 478.696L783.463 479.112C783.639 479.608 783.751 480.264 783.751 481.288V487H785.511V481.528C785.671 480.872 786.295 480.328 787.031 480.328C787.223 480.328 787.351 480.376 787.527 480.44L788.071 478.808ZM795.556 486.216C794.932 485.784 794.836 485.432 794.852 484.344L794.884 482.024C794.9 480.824 794.9 480.392 794.756 480.04C794.404 479.16 793.556 478.696 792.292 478.696C791.076 478.696 790.068 479.032 788.852 479.8L789.636 481.064C789.636 481.064 790.884 480.136 792.052 480.136C793.012 480.136 793.172 480.632 793.172 481.56V481.992H792.628C790.036 481.992 788.628 482.936 788.628 484.808C788.628 486.216 789.46 487.24 791.316 487.24C792.18 487.24 792.884 486.984 793.54 486.248C793.732 486.76 794.148 487.144 794.644 487.336L795.556 486.216ZM793.14 483.192L793.108 485.112C792.756 485.624 792.212 485.96 791.652 485.96C790.948 485.96 790.532 485.48 790.532 484.712C790.532 483.688 791.06 483.176 792.82 483.176C792.948 483.176 793.14 483.192 793.14 483.192ZM803.77 487V480.952C803.77 479.464 802.906 478.712 801.658 478.712C800.794 478.712 800.042 479.096 799.178 479.832C799.178 479.4 799.082 479.048 798.89 478.68L797.29 479.128C797.514 479.704 797.594 480.2 797.594 481.048V487H799.322V481.128C799.85 480.6 800.586 480.216 801.098 480.216C801.77 480.216 802.026 480.52 802.026 481.624V487H803.77ZM812.037 486.136L811.205 485.064C810.677 485.592 810.133 485.864 809.573 485.864C809.141 485.864 808.757 485.688 808.501 485.4C808.133 485 807.957 484.296 807.957 483.192C807.957 482.184 808.053 481.432 808.293 480.936C808.549 480.408 809.013 480.12 809.573 480.12C810.037 480.12 810.453 480.312 810.933 480.744L811.813 479.576C811.093 478.904 810.453 478.696 809.573 478.696C807.765 478.696 806.005 480.104 806.005 483.048C806.005 485.656 807.237 487.208 809.445 487.208C810.533 487.208 811.301 486.872 812.037 486.136ZM819.929 483.432V483.064C819.929 481.176 819.577 480.184 818.873 479.544C818.185 478.92 817.449 478.712 816.649 478.712C815.625 478.712 814.825 479.048 814.169 479.8C813.465 480.6 813.161 481.544 813.161 482.968C813.161 485.56 814.601 487.208 816.889 487.208C817.977 487.208 818.953 486.856 819.801 486.136L819.113 485.064C818.505 485.592 817.849 485.864 817.097 485.864C815.513 485.864 815.097 484.68 815.097 483.56V483.432H819.929ZM818.105 482.136H815.113C815.113 480.824 815.657 480.04 816.649 480.04C817.529 480.04 818.105 480.824 818.105 482.136Z" fill="white"/>
<rect x="688.5" y="618.5" width="169" height="63" stroke="#FF3366" stroke-width="3"/>
<rect x="688.5" y="450.5" width="169" height="63" stroke="#FF3366" stroke-width="3"/>
<rect x="1350.5" y="560.5" width="169" height="63" stroke="#FF3366" stroke-width="3"/>
<rect x="677" y="605" width="20" height="20" fill="#C0E8FA"/>
<path d="M694 615V622H687C683.134 622 680 618.866 680 615C680 611.134 683.134 608 687 608C690.866 608 694 611.134 694 615Z" fill="#F0FBFF" stroke="#FF3366" stroke-width="2"/>
<path d="M694 447V454H687C683.134 454 680 450.866 680 447C680 443.134 683.134 440 687 440C690.866 440 694 443.134 694 447Z" fill="#F0FBFF" stroke="#FF3366" stroke-width="2"/>
<path d="M1356 557V564H1349C1345.13 564 1342 560.866 1342 557C1342 553.134 1345.13 550 1349 550C1352.87 550 1356 553.134 1356 557Z" fill="#F0FBFF" stroke="#FF3366" stroke-width="2"/>
<path d="M545 96.5C542.5 96.5 540.5 98.5 540.5 101C540.5 103.5 542.5 105.5 545 105.5C547.5 105.5 549.5 103.5 549.5 101C549.5 98.5 547.5 96.5 545 96.5Z" fill="white"/>
<path d="M688.061 483.061C688.646 482.475 688.646 481.525 688.061 480.939L678.515 471.393C677.929 470.808 676.979 470.808 676.393 471.393C675.808 471.979 675.808 472.929 676.393 473.515L684.879 482L676.393 490.485C675.808 491.071 675.808 492.021 676.393 492.607C676.979 493.192 677.929 493.192 678.515 492.607L688.061 483.061ZM542 101C542 99.3284 543.328 98 545 98V95C541.672 95 539 97.6716 539 101H542ZM545 98C546.672 98 548 99.3284 548 101H551C551 97.6716 548.328 95 545 95V98ZM548 101C548 102.672 546.672 104 545 104V107C548.328 107 551 104.328 551 101H548ZM545 104C543.328 104 542 102.672 542 101H539C539 104.328 541.672 107 545 107V104ZM549.5 102.5H596V99.5H549.5V102.5ZM614.5 121V462H617.5V121H614.5ZM636 483.5H687V480.5H636V483.5ZM614.5 462C614.5 473.874 624.126 483.5 636 483.5V480.5C625.783 480.5 617.5 472.217 617.5 462H614.5ZM596 102.5C606.217 102.5 614.5 110.783 614.5 121H617.5C617.5 109.126 607.874 99.5 596 99.5V102.5Z" fill="#FF3366"/>
<path d="M545 96.5C542.5 96.5 540.5 98.5 540.5 101C540.5 103.5 542.5 105.5 545 105.5C547.5 105.5 549.5 103.5 549.5 101C549.5 98.5 547.5 96.5 545 96.5Z" fill="white"/>
<path d="M688.061 651.061C688.646 650.475 688.646 649.525 688.061 648.939L678.515 639.393C677.929 638.808 676.979 638.808 676.393 639.393C675.808 639.979 675.808 640.929 676.393 641.515L684.879 650L676.393 658.485C675.808 659.071 675.808 660.021 676.393 660.607C676.979 661.192 677.929 661.192 678.515 660.607L688.061 651.061ZM542 101C542 99.3284 543.328 98 545 98V95C541.672 95 539 97.6716 539 101H542ZM545 98C546.672 98 548 99.3284 548 101H551C551 97.6716 548.328 95 545 95V98ZM548 101C548 102.672 546.672 104 545 104V107C548.328 107 551 104.328 551 101H548ZM545 104C543.328 104 542 102.672 542 101H539C539 104.328 541.672 107 545 107V104ZM549.5 102.5H596V99.5H549.5V102.5ZM614.5 121V630H617.5V121H614.5ZM636 651.5H687V648.5H636V651.5ZM614.5 630C614.5 641.874 624.126 651.5 636 651.5V648.5C625.783 648.5 617.5 640.217 617.5 630H614.5ZM596 102.5C606.217 102.5 614.5 110.783 614.5 121H617.5C617.5 109.126 607.874 99.5 596 99.5V102.5Z" fill="#FF3366"/>
<path d="M545 96.5C542.5 96.5 540.5 98.5 540.5 101C540.5 103.5 542.5 105.5 545 105.5C547.5 105.5 549.5 103.5 549.5 101C549.5 98.5 547.5 96.5 545 96.5Z" fill="white"/>
<path d="M1350.06 593.061C1350.65 592.475 1350.65 591.525 1350.06 590.939L1340.51 581.393C1339.93 580.808 1338.98 580.808 1338.39 581.393C1337.81 581.979 1337.81 582.929 1338.39 583.515L1346.88 592L1338.39 600.485C1337.81 601.071 1337.81 602.021 1338.39 602.607C1338.98 603.192 1339.93 603.192 1340.51 602.607L1350.06 593.061ZM542 101C542 99.3284 543.328 98 545 98V95C541.672 95 539 97.6716 539 101H542ZM545 98C546.672 98 548 99.3284 548 101H551C551 97.6716 548.328 95 545 95V98ZM548 101C548 102.672 546.672 104 545 104V107C548.328 107 551 104.328 551 101H548ZM545 104C543.328 104 542 102.672 542 101H539C539 104.328 541.672 107 545 107V104ZM549.5 102.5H946V99.5H549.5V102.5ZM964.5 121V572H967.5V121H964.5ZM986 593.5H1349V590.5H986V593.5ZM964.5 572C964.5 583.874 974.126 593.5 986 593.5V590.5C975.783 590.5 967.5 582.217 967.5 572H964.5ZM946 102.5C956.217 102.5 964.5 110.783 964.5 121H967.5C967.5 109.126 957.874 99.5 946 99.5V102.5Z" fill="#FF3366"/>
<defs>
<filter id="filter0_d" x="346" y="257" width="581" height="502" filterUnits="userSpaceOnUse" color-interpolation-filters="sRGB">
<feFlood flood-opacity="0" result="BackgroundImageFix"/>
<feColorMatrix in="SourceAlpha" type="matrix" values="0 0 0 0 0 0 0 0 0 0 0 0 0 0 0 0 0 0 127 0"/>
<feOffset dy="8"/>
<feGaussianBlur stdDeviation="6"/>
<feColorMatrix type="matrix" values="0 0 0 0 0 0 0 0 0 0.2 0 0 0 0 0.6 0 0 0 0.15 0"/>
<feBlend mode="normal" in2="BackgroundImageFix" result="effect1_dropShadow"/>
<feBlend mode="normal" in="SourceGraphic" in2="effect1_dropShadow" result="shape"/>
</filter>
<filter id="filter1_d" x="1008" y="257" width="581" height="445" filterUnits="userSpaceOnUse" color-interpolation-filters="sRGB">
<feFlood flood-opacity="0" result="BackgroundImageFix"/>
<feColorMatrix in="SourceAlpha" type="matrix" values="0 0 0 0 0 0 0 0 0 0 0 0 0 0 0 0 0 0 127 0"/>
<feOffset dy="8"/>
<feGaussianBlur stdDeviation="6"/>
<feColorMatrix type="matrix" values="0 0 0 0 0 0 0 0 0 0.2 0 0 0 0 0.6 0 0 0 0.15 0"/>
<feBlend mode="normal" in2="BackgroundImageFix" result="effect1_dropShadow"/>
<feBlend mode="normal" in="SourceGraphic" in2="effect1_dropShadow" result="shape"/>
</filter>
</defs>
</svg>
