<svg width="1920" height="1085" viewBox="0 0 1920 1085" fill="none" xmlns="http://www.w3.org/2000/svg">
<rect width="1920" height="1084.87" rx="12" fill="#000C6E"/>
<path d="M692.384 361.236L692.469 361.239H692.554C711.855 361.239 730.364 353.572 744.012 339.925C757.659 326.277 765.326 307.768 765.326 288.467C765.326 269.167 757.659 250.657 744.012 237.01C730.364 223.363 711.855 215.696 692.554 215.696C691.589 215.696 690.663 215.312 689.98 214.629C689.297 213.946 688.913 213.02 688.913 212.054V158.565C688.913 151.52 691.712 144.763 696.694 139.781C701.676 134.799 708.433 132 715.478 132H978.924V196.725C978.899 197.615 978.574 198.471 978.001 199.153C977.443 199.817 976.683 200.278 975.838 200.466C955.11 203.206 936.031 213.233 922.018 228.756C907.971 244.315 899.936 264.376 899.357 285.33C898.778 306.284 905.694 326.757 918.86 343.069C932.008 359.357 950.527 370.427 971.096 374.297C973.495 374.867 975.633 376.229 977.165 378.163C978.712 380.118 979.548 382.541 979.535 385.033L979.535 385.043V385.053V418.37C979.535 421.362 978.347 424.232 976.231 426.348C974.115 428.464 971.245 429.652 968.253 429.652H922.115C919.352 429.631 916.615 430.204 914.092 431.333C911.568 432.462 909.316 434.121 907.49 436.197C905.68 438.23 904.328 440.63 903.528 443.232C902.736 445.805 902.501 448.517 902.837 451.187C902.972 452.87 902.97 454.562 902.83 456.246L902.817 456.411V456.576C902.817 469.701 897.603 482.289 888.322 491.57C879.041 500.851 866.453 506.065 853.327 506.065C840.202 506.065 827.614 500.851 818.333 491.57C809.052 482.289 803.838 469.701 803.838 456.576V456.411L803.825 456.246C803.685 454.562 803.683 452.87 803.818 451.187C804.154 448.517 803.919 445.805 803.127 443.232C802.327 440.63 800.976 438.231 799.166 436.197C797.339 434.121 795.087 432.462 792.563 431.333C790.04 430.204 787.303 429.631 784.54 429.652H700.196C697.203 429.652 694.334 428.463 692.218 426.348C690.102 424.232 688.913 421.362 688.913 418.37V364.88V364.795L688.91 364.71C688.89 364.249 688.966 363.788 689.134 363.358C689.302 362.927 689.557 362.536 689.883 362.209L687.062 359.388L689.884 362.209C690.21 361.883 690.601 361.628 691.032 361.46C691.462 361.292 691.923 361.216 692.384 361.236Z" stroke="url(#paint0_linear_102_21)" stroke-width="8"/>
<path d="M985.487 663.242L985.494 663.236C987.508 661.483 989.88 660.191 992.444 659.449C994.977 658.715 997.638 658.536 1000.25 658.923C1007.12 659.65 1014.08 658.927 1020.66 656.8C1027.27 654.665 1033.35 651.164 1038.52 646.522C1043.68 641.881 1047.82 636.205 1050.64 629.862C1053.47 623.519 1054.93 616.653 1054.93 609.708C1054.93 602.763 1053.47 595.896 1050.64 589.554L1054.3 587.925L1050.64 589.553C1047.82 583.211 1043.68 577.534 1038.52 572.893C1033.35 568.252 1027.27 564.75 1020.66 562.615C1014.05 560.48 1007.07 559.76 1000.16 560.502L1000.13 560.505L1000.09 560.509C994.748 560.985 989.431 559.349 985.281 555.952L985.227 555.908L985.174 555.862C983.093 554.033 981.43 551.778 980.299 549.249C979.17 546.726 978.597 543.99 978.618 541.226V479.5C978.618 476.508 977.43 473.638 975.314 471.522C973.198 469.406 970.328 468.217 967.336 468.217H949.302H949.292L949.282 468.217C946.789 468.205 944.366 469.041 942.412 470.588L939.931 467.453L942.412 470.588C940.458 472.135 939.089 474.3 938.529 476.729C938.529 476.729 938.529 476.73 938.529 476.73L934.631 475.832C930.367 494.365 919.945 510.905 905.067 522.749C890.188 534.593 871.733 541.042 852.716 541.042C833.699 541.042 815.244 534.593 800.365 522.749C785.487 510.905 775.065 494.365 770.801 475.832L985.487 663.242ZM985.487 663.242L985.48 663.248C983.399 665.077 981.736 667.332 980.604 669.861C979.476 672.384 978.902 675.121 978.924 677.885V765.87H715.478C708.433 765.87 701.676 763.071 696.694 758.089C691.712 753.107 688.913 746.35 688.913 739.304V685.815V685.752L688.911 685.69C688.819 682.751 687.723 679.934 685.806 677.705L685.61 677.477L685.382 677.281C683.153 675.364 680.335 674.268 677.397 674.176L677.335 674.174H677.272C660.093 674.174 643.618 667.35 631.471 655.203C619.324 643.056 612.5 626.581 612.5 609.402C612.5 592.224 619.324 575.749 631.471 563.602C643.618 551.455 660.093 544.63 677.272 544.63C680.359 544.63 683.32 543.404 685.503 541.221C687.687 539.038 688.913 536.077 688.913 532.989V479.5C688.913 476.508 690.102 473.638 692.218 471.522C694.334 469.406 697.203 468.217 700.196 468.217H756.13H756.14L756.15 468.217C758.643 468.205 761.066 469.041 763.02 470.588C764.974 472.135 766.344 474.301 766.903 476.73L985.487 663.242Z" stroke="url(#paint1_linear_102_21)" stroke-width="8"/>
<path d="M1054.15 429.346L1054.16 429.347C1056.65 429.359 1059.08 428.523 1061.03 426.976C1062.99 425.429 1064.35 423.263 1064.91 420.834C1069.38 401.419 1080.3 384.093 1095.88 371.685C1111.47 359.277 1130.8 352.522 1150.73 352.522C1170.65 352.522 1189.98 359.277 1205.57 371.685C1221.16 384.093 1232.07 401.42 1236.54 420.835M1054.15 429.346L1236.54 420.835M1054.15 429.346H1054.14H1028.47C1025.47 429.346 1022.6 428.158 1020.49 426.042C1018.37 423.926 1017.18 421.056 1017.18 418.064V356.95C1017.2 354.186 1016.63 351.449 1015.5 348.926C1014.38 346.411 1012.73 344.167 1010.66 342.344C1008.69 340.538 1006.34 339.184 1003.79 338.379C1001.24 337.574 998.55 337.335 995.9 337.679C989.01 338.412 982.042 337.69 975.448 335.56C968.84 333.425 962.755 329.923 957.589 325.282C952.423 320.641 948.291 314.964 945.463 308.622C942.635 302.279 941.173 295.412 941.173 288.467C941.173 281.523 942.635 274.656 945.463 268.313C948.291 261.97 952.423 256.294 957.589 251.653C962.755 247.012 968.84 243.51 975.448 241.375C982.043 239.244 989.011 238.523 995.902 239.256C998.589 239.603 1001.32 239.37 1003.91 238.573C1006.51 237.772 1008.91 236.422 1010.94 234.612C1013.02 232.785 1014.68 230.533 1015.81 228.009C1016.94 225.485 1017.51 222.749 1017.49 219.985V143.283C1017.49 140.29 1018.68 137.42 1020.79 135.305C1022.91 133.189 1025.78 132 1028.77 132H1074.55C1075.54 132.042 1076.49 132.386 1077.28 132.983C1077.88 133.77 1078.22 134.723 1078.26 135.715M1054.15 429.346L1078.26 135.715M1236.54 420.835C1237.1 423.263 1238.47 425.429 1240.42 426.976C1242.38 428.523 1244.8 429.359 1247.29 429.347L1247.3 429.346H1247.31H1296.22C1299.21 429.346 1302.08 428.158 1304.2 426.042C1306.31 423.926 1307.5 421.056 1307.5 418.064V158.565C1307.5 151.52 1304.7 144.763 1299.72 139.781C1294.74 134.799 1287.98 132 1280.93 132H1227.45C1226.48 132 1225.55 132.384 1224.87 133.067C1224.19 133.749 1223.8 134.676 1223.8 135.641C1223.8 154.942 1216.14 173.451 1202.49 187.099C1188.84 200.746 1170.33 208.413 1151.03 208.413C1131.73 208.413 1113.22 200.746 1099.58 187.099C1085.95 173.469 1078.28 154.988 1078.26 135.715M1236.54 420.835L1078.26 135.715" stroke="url(#paint2_linear_102_21)" stroke-width="8"/>
<path d="M1219.5 464.217C1217.3 464.237 1215.13 463.782 1213.12 462.886C1211.12 461.989 1209.33 460.671 1207.88 459.021C1206.45 457.415 1205.38 455.518 1204.75 453.461C1204.12 451.404 1203.94 449.235 1204.22 447.101C1204.38 445.168 1204.38 443.226 1204.22 441.293C1204.22 427.107 1198.58 413.502 1188.55 403.471C1178.52 393.44 1164.91 387.804 1150.73 387.804C1136.54 387.804 1122.94 393.44 1112.9 403.471C1102.87 413.502 1097.24 427.107 1097.24 441.293C1097.08 443.226 1097.08 445.168 1097.24 447.101C1097.52 449.235 1097.34 451.404 1096.7 453.461C1096.07 455.518 1095 457.415 1093.57 459.021C1092.12 460.671 1090.33 461.989 1088.33 462.886C1086.32 463.782 1084.15 464.237 1081.96 464.217H1028.77C1024.72 464.217 1020.83 465.828 1017.97 468.694C1015.1 471.56 1013.49 475.447 1013.49 479.5V512.816C1013.47 516.217 1014.61 519.522 1016.72 522.189C1018.83 524.855 1021.79 526.724 1025.1 527.487C1043.64 531.751 1060.18 542.173 1072.02 557.051C1083.87 571.93 1090.31 590.385 1090.31 609.402C1090.31 628.419 1083.87 646.875 1072.02 661.753C1060.18 676.631 1043.64 687.053 1025.1 691.317C1021.79 692.08 1018.83 693.949 1016.72 696.615C1014.61 699.282 1013.47 702.587 1013.49 705.988V754.587C1013.49 758.64 1015.1 762.527 1017.97 765.393C1020.83 768.259 1024.72 769.87 1028.77 769.87H1280.93C1289.04 769.87 1296.82 766.649 1302.55 760.917C1308.28 755.185 1311.5 747.411 1311.5 739.304V479.5C1311.5 475.447 1309.89 471.56 1307.02 468.694C1304.16 465.828 1300.27 464.217 1296.22 464.217H1219.5Z" fill="url(#paint3_linear_102_21)"/>
<path fill-rule="evenodd" clip-rule="evenodd" d="M678.234 837.255C678.234 830.333 684.105 825.37 690.949 825.37C697.792 825.37 703.128 830.333 703.128 837.255C703.128 844.177 697.792 849.026 690.949 849.026C684.105 849.026 678.234 844.179 678.234 837.255ZM681.206 857.218H700.575V918.029H681.206V857.218ZM577.792 833.679H597.164V918.027H577.792V833.679ZM462.251 919.53C479.998 919.53 492.641 905.913 492.641 887.682C492.641 869.45 480.347 855.834 462.709 855.836C456.103 855.836 450.535 857.797 446.128 861.489V833.681H426.757V918.029H444.621V912.837C449.028 917.107 454.944 919.53 462.251 919.53ZM459.468 872.687C467.587 872.687 473.502 879.028 473.502 887.682C473.502 896.337 467.587 902.567 459.468 902.567C451.001 902.567 445.199 896.451 445.199 887.682C445.199 878.801 450.884 872.687 459.468 872.687ZM565.019 918.029V857.218H547.155V863.564C542.863 859.296 537.062 856.987 529.525 856.987C511.778 856.987 499.018 869.452 499.018 887.682C499.018 905.913 511.778 919.531 529.525 919.531C537.064 919.531 542.863 916.989 547.155 912.49V918.029H565.019ZM532.31 872.687C540.777 872.687 546.462 878.796 546.462 887.682C546.462 896.453 540.775 902.567 532.31 902.567C524.076 902.567 518.274 896.331 518.274 887.682C518.274 879.034 524.191 872.687 532.31 872.687ZM639.049 855.834C619.563 855.834 605.642 869.45 605.642 887.682C605.642 905.798 619.568 919.53 639.049 919.53C658.652 919.53 672.57 905.798 672.57 887.682C672.57 869.45 658.644 855.834 639.049 855.834ZM639.164 872.912C647.631 872.912 653.084 878.912 653.084 887.566C653.084 896.336 647.517 902.451 639.164 902.453C630.696 902.453 625.129 896.22 625.129 887.682C625.129 878.91 630.696 872.912 639.164 872.912ZM724.468 897.144L708.462 903.261C712.057 913.885 721.917 919.53 735.713 919.519C751.836 919.519 762.043 911.903 762.043 899.324C762.043 885.522 749.915 882.336 740.616 879.892C734.834 878.373 730.145 877.141 730.145 873.823C730.145 871.285 732.116 869.786 736.06 869.786C740.12 869.786 743.02 871.746 744.412 875.555L760.428 869.323C757.992 860.788 748.944 855.827 736.416 855.827C720.99 855.827 711.245 862.989 711.245 874.758C711.245 887.21 722.585 890.598 731.742 893.333C737.944 895.185 743.144 896.739 743.144 900.606C743.144 903.375 740.825 905.105 736.416 905.105C730.153 905.105 726.093 902.222 724.468 897.144ZM830.949 886.413C830.949 871.418 819.119 855.718 799.167 855.718C781.537 855.718 767.385 870.151 767.385 887.682C767.385 905.798 780.144 919.53 800.328 919.53C813.647 919.53 821.513 914.424 826.23 908.603L815.09 897.499C811.612 901.78 807.751 903.836 800.906 903.836C793.599 903.836 788.148 900.143 786.176 893.339H830.486C830.805 891.044 830.96 888.73 830.949 886.413ZM785.942 881.336C787.566 873.95 792.554 870.142 799.629 870.142C806.704 870.142 811.344 874.411 812.969 881.336H785.942ZM355.489 828.824L404.131 877.214C404.556 877.637 404.893 878.139 405.123 878.692C405.352 879.244 405.47 879.836 405.47 880.434C405.469 881.032 405.35 881.624 405.12 882.176C404.889 882.729 404.551 883.23 404.126 883.652L390.937 896.773L352.256 858.294L330.004 880.43L352.256 902.567L366.052 888.841L382.482 905.184L355.499 932.036C355.074 932.459 354.57 932.794 354.015 933.023C353.46 933.252 352.865 933.37 352.265 933.37C351.664 933.37 351.069 933.252 350.514 933.023C349.959 932.794 349.455 932.459 349.03 932.036L300.388 883.647C299.531 882.793 299.05 881.636 299.05 880.43C299.05 879.224 299.531 878.067 300.388 877.214L349.021 828.824C349.446 828.401 349.95 828.066 350.505 827.837C351.06 827.609 351.655 827.491 352.255 827.491C352.856 827.491 353.451 827.609 354.006 827.837C354.561 828.066 355.065 828.401 355.489 828.824Z" fill="white"/>
<path d="M920.854 872.398C916.262 863.326 907.638 857.726 896.774 857.726C880.086 857.726 867.878 870.83 867.878 888.302C867.878 905.886 880.086 919.102 896.774 919.102C907.862 919.102 916.598 913.278 921.078 903.87V917.87H926.342V835.998H920.854V872.398ZM897.222 914.062C883.558 914.062 873.478 903.086 873.478 888.302C873.478 873.742 883.67 862.654 897.222 862.654C911.222 862.654 920.966 873.182 920.966 888.302C920.966 903.422 911.11 914.062 897.222 914.062ZM997.066 889.87V886.958C997.066 870.494 985.754 857.726 969.29 857.726C952.938 857.726 940.394 871.054 940.394 888.414C940.394 905.998 952.602 919.102 969.514 919.102C983.066 919.102 991.914 912.942 995.946 902.638L991.466 900.062C988.106 909.47 980.826 913.95 969.626 913.95C956.298 913.95 946.778 904.206 946.106 889.87H997.066ZM946.218 885.278C947.45 871.838 956.634 862.542 969.402 862.542C982.17 862.542 990.906 871.614 991.578 885.278H946.218ZM1028.07 919.102C1040.95 919.102 1049.8 913.054 1049.8 902.526C1049.8 880.91 1013.51 888.974 1013.51 872.51C1013.51 866.126 1018.66 862.094 1027.62 862.094C1034.9 862.094 1040.05 865.006 1042.41 871.166L1047.22 869.262C1044.53 861.646 1037.59 857.726 1027.62 857.726C1015.86 857.726 1008.02 863.326 1008.02 872.846C1008.02 893.118 1044.31 885.614 1044.31 902.974C1044.31 910.366 1037.81 914.51 1028.18 914.51C1018.44 914.51 1012.05 910.478 1009.93 903.534L1005 905.55C1007.91 914.062 1016.2 919.102 1028.07 919.102ZM1065.68 846.638C1068.93 846.638 1071.39 844.398 1071.39 841.15C1071.39 837.902 1068.93 835.438 1065.68 835.438C1062.43 835.438 1059.97 837.902 1059.97 841.15C1059.97 844.398 1062.43 846.638 1065.68 846.638ZM1068.48 917.87V858.846H1062.99V917.87H1068.48ZM1135.78 873.07C1131.42 863.662 1122.68 857.726 1111.48 857.726C1094.9 857.726 1082.58 870.83 1082.58 887.966C1082.58 905.214 1094.79 918.206 1111.48 918.206C1122.68 918.206 1131.42 912.27 1135.78 902.862V911.262C1135.78 925.486 1126.6 934.334 1111.82 934.334C1100.28 934.334 1092.33 928.958 1089.19 918.878L1084.26 920.782C1088.07 932.43 1097.48 939.15 1111.7 939.15C1129.96 939.15 1141.05 928.174 1141.05 910.926V858.846H1135.78V873.07ZM1111.82 913.726C1098.26 913.726 1088.07 902.75 1088.07 888.19C1088.07 873.63 1098.38 862.654 1112.04 862.654C1125.82 862.654 1135.56 873.294 1135.56 888.19C1135.56 903.086 1125.7 913.726 1111.82 913.726ZM1186.12 857.614C1175.48 857.614 1167.76 863.214 1164.4 869.822V858.846H1159.13V917.87H1164.62V880.574C1164.84 871.502 1173.02 862.766 1185.12 862.654C1197.77 862.542 1205.05 870.27 1205.05 883.262V917.87H1210.65V882.366C1210.65 867.246 1201.8 857.614 1186.12 857.614ZM1272.41 919.102C1285.29 919.102 1294.14 913.054 1294.14 902.526C1294.14 880.91 1257.85 888.974 1257.85 872.51C1257.85 866.126 1263.01 862.094 1271.97 862.094C1279.25 862.094 1284.4 865.006 1286.75 871.166L1291.57 869.262C1288.88 861.646 1281.93 857.726 1271.97 857.726C1260.21 857.726 1252.37 863.326 1252.37 872.846C1252.37 893.118 1288.65 885.614 1288.65 902.974C1288.65 910.366 1282.16 914.51 1272.53 914.51C1262.78 914.51 1256.4 910.478 1254.27 903.534L1249.34 905.55C1252.25 914.062 1260.54 919.102 1272.41 919.102ZM1326.63 912.606L1304.34 858.846H1298.4L1323.38 917.87H1324.28L1315.65 937.918H1321.14L1355.19 858.846H1349.36L1326.63 912.606ZM1381.79 919.102C1394.67 919.102 1403.52 913.054 1403.52 902.526C1403.52 880.91 1367.23 888.974 1367.23 872.51C1367.23 866.126 1372.38 862.094 1381.34 862.094C1388.62 862.094 1393.77 865.006 1396.12 871.166L1400.94 869.262C1398.25 861.646 1391.31 857.726 1381.34 857.726C1369.58 857.726 1361.74 863.326 1361.74 872.846C1361.74 893.118 1398.03 885.614 1398.03 902.974C1398.03 910.366 1391.53 914.51 1381.9 914.51C1372.16 914.51 1365.77 910.478 1363.64 903.534L1358.72 905.55C1361.63 914.062 1369.92 919.102 1381.79 919.102ZM1445.4 917.87V912.942H1438.12C1429.61 912.942 1424.91 907.79 1424.91 898.83V863.774H1444.39V858.846H1425.02V843.95H1419.75V853.918C1419.75 857.278 1418.3 858.846 1414.94 858.846H1408.22V863.774H1419.31V899.278C1419.31 910.814 1425.8 917.87 1437.34 917.87H1445.4ZM1505.66 889.87V886.958C1505.66 870.494 1494.35 857.726 1477.88 857.726C1461.53 857.726 1448.99 871.054 1448.99 888.414C1448.99 905.998 1461.2 919.102 1478.11 919.102C1491.66 919.102 1500.51 912.942 1504.54 902.638L1500.06 900.062C1496.7 909.47 1489.42 913.95 1478.22 913.95C1464.89 913.95 1455.37 904.206 1454.7 889.87H1505.66ZM1454.81 885.278C1456.04 871.838 1465.23 862.542 1478 862.542C1490.76 862.542 1499.5 871.614 1500.17 885.278H1454.81ZM1588.85 857.614C1577.32 857.614 1569.48 864.894 1566.9 871.838C1563.76 862.99 1556.37 857.614 1545.4 857.614C1535.2 857.614 1527.81 863.438 1524.68 869.71V858.846H1519.41V917.87H1524.9V879.566C1525.12 871.614 1532.85 862.766 1544.28 862.654C1555.7 862.542 1563.09 870.606 1563.09 882.478V917.87H1568.58V879.566C1568.8 871.614 1576.53 862.766 1587.96 862.654C1599.38 862.542 1606.77 870.606 1606.77 882.478V917.87H1612.26V881.694C1612.26 867.47 1603.41 857.614 1588.85 857.614Z" fill="white"/>
<defs>
<linearGradient id="paint0_linear_102_21" x1="693.551" y1="134.645" x2="973.289" y2="431.659" gradientUnits="userSpaceOnUse">
<stop stop-color="#21DAAC"/>
<stop offset="1" stop-color="#01B38F"/>
</linearGradient>
<linearGradient id="paint1_linear_102_21" x1="691.558" y1="463.553" x2="978.605" y2="770.534" gradientUnits="userSpaceOnUse">
<stop stop-color="#FFBF19"/>
<stop offset="1" stop-color="#FA9319"/>
</linearGradient>
<linearGradient id="paint2_linear_102_21" x1="1018.47" y1="139.96" x2="1300.2" y2="432.988" gradientUnits="userSpaceOnUse">
<stop stop-color="#BE82FA"/>
<stop offset="1" stop-color="#A052CC"/>
</linearGradient>
<linearGradient id="paint3_linear_102_21" x1="1092.89" y1="457.573" x2="1312.16" y2="779.836" gradientUnits="userSpaceOnUse">
<stop stop-color="#FF5970"/>
<stop offset="1" stop-color="#D9304C"/>
</linearGradient>
</defs>
</svg>
