<svg width="529" height="483" viewBox="0 0 529 483" fill="none" xmlns="http://www.w3.org/2000/svg">
<path d="M63.0797 176.496L63.1648 176.5H63.25C78.0358 176.5 92.216 170.626 102.671 160.171C113.126 149.716 119 135.536 119 120.75C119 105.964 113.126 91.784 102.671 81.3288C92.216 70.8736 78.0358 65 63.25 65C62.7859 65 62.3407 64.8156 62.0126 64.4874C61.6844 64.1593 61.5 63.7141 61.5 63.25V23C61.5 17.9609 63.5018 13.1282 67.065 9.56497C70.6282 6.00178 75.4609 4 80.5 4H277.75V51.6998C277.735 52.1417 277.572 52.566 277.287 52.9049C277.016 53.228 276.649 53.4553 276.241 53.5549C260.428 55.6566 245.875 63.3111 235.184 75.1541C224.456 87.0374 218.319 102.358 217.877 118.362C217.435 134.365 222.716 150.001 232.772 162.459C242.808 174.892 256.943 183.345 272.643 186.305C274.223 186.685 275.63 187.585 276.64 188.86C277.665 190.154 278.218 191.759 278.21 193.41L278.21 193.42V193.43V218.5C278.21 220.489 277.42 222.397 276.013 223.803C274.607 225.21 272.699 226 270.71 226H235.996C233.776 225.983 231.577 226.444 229.55 227.351C227.521 228.258 225.712 229.592 224.244 231.26C222.789 232.896 221.703 234.825 221.059 236.918C220.424 238.981 220.234 241.154 220.501 243.296C220.596 244.502 220.594 245.714 220.494 246.92L220.48 247.084V247.25C220.48 256.864 216.661 266.084 209.863 272.883C203.064 279.681 193.844 283.5 184.23 283.5C174.616 283.5 165.396 279.681 158.597 272.883C151.799 266.084 147.98 256.864 147.98 247.25V247.085L147.966 246.92C147.866 245.714 147.864 244.502 147.959 243.295C148.226 241.154 148.036 238.981 147.401 236.918C146.757 234.825 145.671 232.895 144.216 231.259C142.748 229.591 140.938 228.258 138.91 227.351L137.276 231.002L138.91 227.351C136.883 226.444 134.684 225.983 132.464 226H69C67.0109 226 65.1032 225.21 63.6967 223.803C62.2902 222.397 61.5 220.489 61.5 218.5V178.25V178.165L61.4964 178.08C61.4874 177.869 61.5222 177.66 61.5986 177.463C61.675 177.267 61.7913 177.089 61.9402 176.94C62.0891 176.791 62.2672 176.675 62.4634 176.599C62.6595 176.522 62.8694 176.487 63.0797 176.496Z" stroke="url(#paint0_linear_2_3)" stroke-width="8"/>
<path d="M277.75 479H80.5C75.4609 479 70.6282 476.998 67.065 473.435C63.5018 469.872 61.5 465.039 61.5 460V419.75V419.687L61.498 419.624C61.4214 417.187 60.5125 414.85 58.9225 413.002L58.7264 412.774L58.4984 412.577C56.6499 410.987 54.3127 410.079 51.8757 410.002L51.8129 410H51.75C39.0859 410 26.9405 404.969 17.9857 396.014C9.03079 387.059 4 374.914 4 362.25C4 349.586 9.03079 337.441 17.9856 328.486C26.9405 319.531 39.0859 314.5 51.75 314.5C54.3358 314.5 56.8158 313.473 58.6443 311.644C60.4728 309.816 61.5 307.336 61.5 304.75V264.5C61.5 262.511 62.2902 260.603 63.6967 259.197C65.1032 257.79 67.0109 257 69 257H111.09H111.1L111.11 257C112.761 256.992 114.366 257.545 115.66 258.57C116.954 259.595 117.862 261.029 118.232 262.638C121.643 277.465 129.982 290.698 141.885 300.174C153.789 309.65 168.555 314.81 183.77 314.81C198.985 314.81 213.751 309.65 225.655 300.174C237.558 290.698 245.897 277.465 249.308 262.638C249.678 261.029 250.586 259.595 251.88 258.57L249.397 255.434L251.88 258.57C253.174 257.545 254.779 256.992 256.43 257L256.44 257H256.45H270.02C272.009 257 273.917 257.79 275.323 259.197C276.73 260.603 277.52 262.511 277.52 264.5V310.944C277.503 313.165 277.964 315.363 278.871 317.39C279.78 319.423 281.117 321.235 282.79 322.705L282.842 322.751L282.896 322.795C286.22 325.516 290.477 326.826 294.755 326.444L294.791 326.441L294.827 326.437C299.885 325.894 305 326.422 309.841 327.985C314.681 329.549 319.139 332.114 322.923 335.514C326.707 338.913 329.733 343.071 331.805 347.717C333.876 352.363 334.947 357.393 334.947 362.48C334.947 367.567 333.876 372.597 331.805 377.243C329.733 381.889 326.707 386.047 322.923 389.446C319.139 392.846 314.681 395.411 309.841 396.975C305.026 398.53 299.94 399.06 294.908 398.531C292.812 398.224 290.674 398.369 288.639 398.958C286.571 399.557 284.658 400.599 283.034 402.013L283.027 402.019L283.02 402.025C281.347 403.494 280.01 405.307 279.101 407.34C278.194 409.367 277.733 411.566 277.75 413.786V479Z" stroke="url(#paint1_linear_2_3)" stroke-width="8"/>
<path d="M297.832 84.1512L296.656 80.3281L297.832 84.1512C299.925 83.5073 301.855 82.4209 303.491 80.9658C305.159 79.4978 306.492 77.6882 307.399 75.6597C308.306 73.6327 308.767 71.4345 308.75 69.2141V11.5C308.75 9.51087 309.54 7.60322 310.947 6.1967L308.118 3.36827L310.947 6.1967C312.353 4.79018 314.261 4 316.25 4H350.673C351.164 4.02441 351.637 4.18392 352.041 4.45857C352.316 4.86289 352.476 5.33654 352.5 5.8281C352.521 20.5857 358.392 34.7345 368.829 45.1712C379.284 55.6264 393.464 61.5 408.25 61.5C423.036 61.5 437.216 55.6264 447.671 45.1712C458.126 34.7161 464 20.5358 464 5.75C464 5.28587 464.184 4.84075 464.513 4.51257C464.841 4.18438 465.286 4 465.75 4H506C511.039 4 515.872 6.00178 519.435 9.56497C522.998 13.1282 525 17.9609 525 23V218.27C525 220.259 524.21 222.167 522.803 223.573C521.397 224.98 519.489 225.77 517.5 225.77H480.7H480.69L480.68 225.77C479.029 225.778 477.424 225.225 476.13 224.2C474.836 223.175 473.928 221.741 473.558 220.132C470.147 205.305 461.808 192.072 449.905 182.596C438.001 173.12 423.235 167.96 408.02 167.96C392.805 167.96 378.039 173.12 366.135 182.596C354.232 192.072 345.893 205.305 342.482 220.132C342.112 221.741 341.204 223.175 339.91 224.2L342.393 227.336L339.91 224.2C338.616 225.225 337.011 225.778 335.36 225.77L335.35 225.77H335.34H316.02C314.031 225.77 312.123 224.98 310.717 223.573C309.31 222.167 308.52 220.259 308.52 218.27V172.286C308.537 170.066 308.076 167.867 307.169 165.84C306.266 163.821 304.941 162.019 303.284 160.555C301.694 159.102 299.806 158.012 297.752 157.364C295.7 156.716 293.532 156.523 291.399 156.798C286.355 157.333 281.256 156.804 276.429 155.245C271.589 153.681 267.131 151.116 263.347 147.716C259.563 144.317 256.537 140.159 254.465 135.513C252.394 130.867 251.323 125.837 251.323 120.75C251.323 115.663 252.394 110.633 254.465 105.987C256.537 101.341 259.563 97.1835 263.347 93.7839C267.131 90.3844 271.589 87.8193 276.429 86.2555L275.2 82.4492L276.429 86.2555C281.256 84.6961 286.356 84.1671 291.4 84.7026C293.559 84.9793 295.752 84.7914 297.832 84.1512Z" stroke="url(#paint2_linear_2_3)" stroke-width="8"/>
<path d="M459.77 253C458.118 253.014 456.482 252.673 454.974 251.998C453.465 251.323 452.12 250.331 451.03 249.09C449.952 247.881 449.148 246.454 448.672 244.906C448.196 243.358 448.059 241.726 448.27 240.12C448.391 238.666 448.391 237.204 448.27 235.75C448.27 225.075 444.029 214.837 436.481 207.289C428.933 199.741 418.695 195.5 408.02 195.5C397.345 195.5 387.107 199.741 379.559 207.289C372.011 214.837 367.77 225.075 367.77 235.75C367.649 237.204 367.649 238.666 367.77 240.12C367.981 241.726 367.844 243.358 367.368 244.906C366.892 246.454 366.088 247.881 365.01 249.09C363.92 250.331 362.574 251.323 361.066 251.998C359.558 252.673 357.922 253.014 356.27 253H316.25C313.2 253 310.275 254.212 308.118 256.368C305.962 258.525 304.75 261.45 304.75 264.5V289.57C304.737 292.129 305.595 294.616 307.184 296.623C308.772 298.629 310.996 300.036 313.49 300.61C327.436 303.818 339.882 311.661 348.795 322.857C357.707 334.052 362.56 347.94 362.56 362.25C362.56 376.56 357.707 390.448 348.795 401.643C339.882 412.839 327.436 420.682 313.49 423.89C310.996 424.464 308.772 425.871 307.184 427.877C305.595 429.884 304.737 432.371 304.75 434.93V471.5C304.75 474.55 305.962 477.475 308.118 479.632C310.275 481.788 313.2 483 316.25 483H506C512.1 483 517.95 480.577 522.263 476.263C526.577 471.95 529 466.1 529 460V264.5C529 261.45 527.788 258.525 525.632 256.368C523.475 254.212 520.55 253 517.5 253H459.77Z" fill="url(#paint3_linear_2_3)"/>
<defs>
<linearGradient id="paint0_linear_2_3" x1="64" y1="5" x2="274.5" y2="228.5" gradientUnits="userSpaceOnUse">
<stop stop-color="#21DAAC"/>
<stop offset="1" stop-color="#01B38F"/>
</linearGradient>
<linearGradient id="paint1_linear_2_3" x1="62.5" y1="252.5" x2="278.5" y2="483.5" gradientUnits="userSpaceOnUse">
<stop stop-color="#FFBF19"/>
<stop offset="1" stop-color="#FA9319"/>
</linearGradient>
<linearGradient id="paint2_linear_2_3" x1="308.5" y1="8.99999" x2="520.5" y2="229.5" gradientUnits="userSpaceOnUse">
<stop stop-color="#BE82FA"/>
<stop offset="1" stop-color="#A052CC"/>
</linearGradient>
<linearGradient id="paint3_linear_2_3" x1="364.5" y1="248" x2="529.5" y2="490.5" gradientUnits="userSpaceOnUse">
<stop stop-color="#FF5970"/>
<stop offset="1" stop-color="#D9304C"/>
</linearGradient>
</defs>
</svg>
