<?xml version="1.0" encoding="UTF-8"?>
<svg width="120px" height="33px" viewBox="0 0 120 33" version="1.1" xmlns="http://www.w3.org/2000/svg" xmlns:xlink="http://www.w3.org/1999/xlink">
    <!-- Generator: Sketch 49.3 (51167) - http://www.bohemiancoding.com/sketch -->
    <title>Group 2</title>
    <desc>Created with Sketch.</desc>
    <defs></defs>
    <g id="Baloise.com" stroke="none" stroke-width="1" fill="none" fill-rule="evenodd">
        <g id="Baloisecom_Blog-Detail" transform="translate(-82.000000, -44.000000)" fill="#003399">
            <g id="nav/regular/pos">
                <g id="Group-3">
                    <g id="Group-2" transform="translate(82.000000, 44.000000)">
                        <path d="M42.1116623,26.7659221 C42.0945195,27.708 42.0025714,28.2105974 41.7547792,28.7233247 C41.2342597,29.7931948 40.2641299,30.3698182 38.9838701,30.3698182 C37.0545195,30.3698182 35.7282857,29.0521558 35.7282857,27.1321558 C35.7282857,25.1841039 37.0732208,23.8578701 39.0391948,23.8578701 C40.3381558,23.8578701 41.2054286,24.4064416 41.7820519,25.5768312 L40.2742597,26.1978701 C39.9991948,25.5402078 39.5784156,25.2292987 38.9659481,25.2292987 C38.0620519,25.2292987 37.3841299,26.042026 37.3841299,27.1407273 C37.3841299,28.2667013 38.0620519,29.0607273 39.0111429,29.0607273 C39.7342597,29.0607273 40.1636104,28.7046234 40.2641299,28.0002078 L38.9659481,28.0002078 L38.9659481,26.7659221 L42.1116623,26.7659221 Z" id="Fill-1"></path>
                        <path d="M44.600026,26.0072727 L44.600026,26.6844156 C44.9397662,26.1623377 45.3324935,25.9519481 45.9636623,25.9519481 C46.0634026,25.9519481 46.100026,25.9519481 46.2465195,25.9605195 L46.2465195,27.36 C46.0088571,27.2415584 45.8709351,27.2142857 45.6247013,27.2142857 C44.9397662,27.2142857 44.600026,27.6077922 44.600026,28.3761039 L44.600026,30.1488312 L43.1374286,30.1488312 L43.1374286,26.0072727 L44.600026,26.0072727 Z" id="Fill-3"></path>
                        <path d="M51.9074805,28.0732208 C51.9074805,29.3815325 50.8734545,30.3049091 49.420987,30.3049091 C47.9568312,30.3049091 46.9235844,29.3815325 46.9235844,28.0732208 C46.9235844,26.7758182 47.9568312,25.8508831 49.420987,25.8508831 C50.8734545,25.8508831 51.9074805,26.7758182 51.9074805,28.0732208 M48.468,28.0646494 C48.468,28.5851688 48.8887792,29.0145195 49.420987,29.0145195 C49.9415065,29.0145195 50.3615065,28.5851688 50.3615065,28.0646494 C50.3615065,27.534 49.9415065,27.114 49.420987,27.114 C48.8887792,27.114 48.468,27.534 48.468,28.0646494" id="Fill-5"></path>
                        <path d="M54.3684156,28.3570909 C54.3684156,28.8604675 54.6154286,29.1176104 55.1188052,29.1176104 C55.6120519,29.1176104 55.8582857,28.8604675 55.8582857,28.3570909 L55.8582857,26.0061818 L57.3224416,26.0061818 L57.3224416,28.6399481 C57.3224416,29.7386494 56.5541299,30.3230649 55.1188052,30.3230649 C53.6733506,30.3230649 52.9042597,29.7386494 52.9042597,28.6399481 L52.9042597,26.0061818 L54.3684156,26.0061818 L54.3684156,28.3570909 Z" id="Fill-7"></path>
                        <path d="M58.4752987,32.2250649 L58.4752987,26.0076623 L59.9386753,26.0076623 L59.9386753,26.4635065 C60.2589351,26.0512987 60.6602338,25.8697403 61.2189351,25.8697403 C62.3986753,25.8697403 63.3127013,26.8398701 63.3127013,28.0827273 C63.3127013,29.3263636 62.408026,30.2871429 61.2275065,30.2871429 C60.6976364,30.2871429 60.3041299,30.1227273 59.9386753,29.7463636 L59.9386753,32.2250649 L58.4752987,32.2250649 Z M59.8927013,28.0741558 C59.8927013,28.5962338 60.3228312,29.0255844 60.8433506,29.0255844 C61.3654286,29.0255844 61.7862078,28.6048052 61.7862078,28.0741558 C61.7862078,27.5536364 61.3654286,27.1328571 60.8433506,27.1328571 C60.3134805,27.1328571 59.8927013,27.5536364 59.8927013,28.0741558 L59.8927013,28.0741558 Z" id="Fill-9"></path>
                        <path d="M40.1377403,12.5032987 L40.6177403,12.5032987 C42.1598182,12.5032987 44.4974805,12.2866753 44.4974805,14.4794026 C44.4974805,16.4788831 42.1356623,16.4064156 40.7385195,16.4064156 L40.1377403,16.4064156 L40.1377403,12.5032987 Z M42.6904675,20.0110909 C46.0115065,20.0110909 49.2577403,18.7612208 49.2577403,14.9601818 C49.2577403,12.4316104 48.1504675,10.6721299 45.5541039,10.3355065 L45.5541039,10.2864156 C47.0338442,9.53836364 47.5637143,8.20511688 47.5637143,6.55083117 C47.5637143,3.07706494 45.399039,1.82875325 42.1683896,1.82875325 L35.4078701,1.82875325 L35.4078701,20.0110909 L42.6904675,20.0110909 Z M40.1377403,5.43264935 L40.4759221,5.43264935 C41.756961,5.43264935 43.2335844,5.52927273 43.2335844,7.20927273 C43.2335844,8.76537662 41.9276104,8.98511688 40.6699481,8.98511688 L40.1377403,8.98511688 L40.1377403,5.43264935 Z" id="Fill-11"></path>
                        <path d="M66.9927273,20.0110909 L71.3766234,20.0110909 L71.3766234,-7.79220779e-05 L66.9927273,-7.79220779e-05 L66.9927273,20.0110909 Z M57.7371429,11.0500519 C59.5238961,11.0500519 60.5618182,12.3232987 60.5618182,13.8357662 C60.5618182,15.3981039 59.5238961,16.5973247 57.7371429,16.5973247 C55.9488312,16.5973247 54.9109091,15.3981039 54.9109091,13.8357662 C54.9109091,12.3232987 55.9488312,11.0500519 57.7371429,11.0500519 L57.7371429,11.0500519 Z M64.7820779,7.63706494 L60.3981818,7.63706494 L60.3981818,8.85420779 C59.4833766,7.76875325 57.9911688,7.23576623 56.5722078,7.23576623 C52.9153247,7.23576623 50.3914286,10.2786234 50.3914286,13.8108312 C50.3914286,17.3453766 52.9644156,20.4116104 56.618961,20.4116104 C58.0636364,20.4116104 59.5792208,19.8568052 60.3498701,18.6256364 L60.3981818,18.6256364 L60.3981818,20.0103117 L64.7820779,20.0103117 L64.7820779,7.63706494 Z" id="Fill-13"></path>
                        <path d="M80.1907792,11.0505974 C81.968961,11.0505974 83.0022078,12.3230649 83.0022078,13.8355325 C83.0022078,15.3963117 81.968961,16.5970909 80.1907792,16.5970909 C78.4133766,16.5970909 77.3809091,15.3963117 77.3809091,13.8355325 C77.3809091,12.3230649 78.4133766,11.0505974 80.1907792,11.0505974 M80.1907792,7.23631169 C76.2237662,7.23631169 72.7546753,9.62774026 72.7546753,13.8355325 C72.7546753,18.0464416 76.2463636,20.4121558 80.1907792,20.4121558 C84.1585714,20.4121558 87.6292208,18.0207273 87.6292208,13.8355325 C87.6292208,9.62774026 84.1585714,7.23631169 80.1907792,7.23631169" id="Fill-15"></path>
                        <path d="M89.0205195,20.0103117 L93.4044156,20.0103117 L93.4044156,7.63784416 L89.0205195,7.63784416 L89.0205195,20.0103117 Z M93.6724675,2.89083117 C93.6724675,4.24122078 92.5620779,5.34927273 91.2132468,5.34927273 C89.8636364,5.34927273 88.754026,4.24122078 88.754026,2.89083117 C88.754026,1.54122078 89.8636364,0.43161039 91.2132468,0.43161039 C92.5620779,0.43161039 93.6724675,1.54122078 93.6724675,2.89083117 L93.6724675,2.89083117 Z" id="Fill-16"></path>
                        <path d="M103.750831,10.8230649 C103.076026,10.4607273 102.138623,10.2207273 101.391351,10.2207273 C100.876286,10.2207273 99.9864156,10.4381299 99.9864156,11.0646234 C99.9864156,11.9085195 101.391351,12.0285195 101.993688,12.1477403 C104.039143,12.5591688 105.582,13.5230649 105.582,15.8131948 C105.582,19.0648831 102.618623,20.4137143 99.7214805,20.4137143 C97.9674545,20.4137143 96.236026,19.9095584 94.743039,18.9931948 L96.3326494,15.9331948 C97.2217403,16.5596883 98.7139481,17.1861818 99.7947273,17.1861818 C100.358104,17.1861818 101.198104,16.9212468 101.198104,16.2472208 C101.198104,15.2825455 99.7947273,15.2326753 98.4240779,14.8718961 C97.0534286,14.5103377 95.6827792,13.833974 95.6827792,11.6178701 C95.6827792,8.58280519 98.4240779,7.23397403 101.147455,7.23397403 C102.546935,7.23397403 103.944078,7.45137662 105.221221,8.03033766 L103.750831,10.8230649 Z" id="Fill-17"></path>
                        <path d="M110.758442,12.0215844 C111.023377,10.753013 112.083117,10.0836623 113.361818,10.0836623 C114.540779,10.0836623 115.627792,10.8488571 115.842857,12.0215844 L110.758442,12.0215844 Z M119.916623,14.0927532 C119.916623,9.89041558 117.434805,7.23638961 113.144416,7.23638961 C109.11974,7.23638961 106.301299,9.72054545 106.301299,13.8278182 C106.301299,18.0963896 109.361299,20.4122338 113.458442,20.4122338 C116.277662,20.4122338 119.05013,19.086 119.748312,16.167039 L115.52961,16.167039 C115.048052,16.9828831 114.373247,17.2969091 113.433506,17.2969091 C111.624935,17.2969091 110.685195,16.333013 110.685195,14.5501558 L119.916623,14.5501558 L119.916623,14.0927532 Z" id="Fill-18"></path>
                        <polygon id="Fill-20" points="0 15.7161039 14.4522078 30.1667532 23.2231169 21.381039 19.0628571 17.2161039 14.4506494 21.8181818 8.44363636 15.818961 14.452987 9.80415584 24.6381818 19.9862338 33.5298701 19.9862338 33.5298701 14.2527273 27.4262338 14.2527273 14.4522078 1.26311688"></polygon>
                    </g>
                </g>
            </g>
        </g>
    </g>
</svg>
