<svg width="1697" height="483" viewBox="0 0 1697 483" fill="none" xmlns="http://www.w3.org/2000/svg">
<path fill-rule="evenodd" clip-rule="evenodd" d="M1183 71.8298C1183 61.4457 1191.73 54 1201.9 54C1212.07 54 1220 61.4457 1220 71.8298C1220 82.2139 1212.07 89.4881 1201.9 89.4881C1191.73 89.4881 1183 82.2167 1183 71.8298ZM1187.42 101.776H1216.21V193H1187.42V101.776ZM858.796 195C885.194 195 904 174.538 904 147.144C904 119.748 885.713 99.2886 859.477 99.2914C849.651 99.2914 841.369 102.237 834.814 107.786V66H806V192.744H832.572V184.942C839.127 191.358 847.928 195 858.796 195ZM854.657 124.612C866.733 124.612 875.531 134.14 875.531 147.144C875.531 160.148 866.733 169.51 854.657 169.51C842.062 169.51 833.432 160.32 833.432 147.144C833.432 133.8 841.888 124.612 854.657 124.612ZM1013 192.743V101.347H986.205V110.885C979.766 104.471 971.064 101 959.759 101C933.139 101 914 119.734 914 147.134C914 174.533 933.139 195 959.759 195C971.067 195 979.766 191.18 986.205 184.419V192.743H1013ZM963.937 124.596C976.638 124.596 985.164 133.778 985.164 147.134C985.164 160.315 976.635 169.505 963.937 169.505C951.586 169.505 942.884 160.132 942.884 147.134C942.884 134.135 951.758 124.596 963.937 124.596ZM1032 66H1061V193H1032V66ZM1123.91 100C1094.8 100 1074 120.307 1074 147.5C1074 174.519 1094.81 195 1123.91 195C1153.2 195 1174 174.519 1174 147.5C1174 120.307 1153.19 100 1123.91 100ZM1124.09 125.471C1136.74 125.471 1144.88 134.419 1144.88 147.327C1144.88 160.407 1136.57 169.527 1124.09 169.529C1111.43 169.529 1103.12 160.234 1103.12 147.5C1103.12 134.417 1111.43 125.471 1124.09 125.471ZM1251.9 161.627L1228 170.75C1233.37 186.596 1248.09 195.017 1268.69 195C1292.76 195 1308 183.641 1308 164.878C1308 144.292 1289.89 139.539 1276.01 135.895C1267.38 133.629 1260.37 131.791 1260.37 126.842C1260.37 123.057 1263.32 120.82 1269.21 120.82C1275.27 120.82 1279.6 123.744 1281.68 129.425L1305.59 120.129C1301.95 107.4 1288.44 100 1269.74 100C1246.71 100 1232.16 110.683 1232.16 128.237C1232.16 146.81 1249.09 151.862 1262.76 155.942C1272.02 158.705 1279.78 161.022 1279.78 166.791C1279.78 170.92 1276.32 173.501 1269.74 173.501C1260.39 173.501 1254.32 169.201 1251.9 161.627ZM1412 145.697C1412 123.373 1394.32 100 1364.5 100C1338.15 100 1317 121.487 1317 147.586C1317 174.557 1336.07 195 1366.23 195C1386.14 195 1397.9 187.399 1404.95 178.731L1388.3 162.2C1383.1 168.574 1377.33 171.635 1367.1 171.635C1356.18 171.635 1348.03 166.138 1345.08 156.008H1411.31C1411.78 152.592 1412.02 149.146 1412 145.697ZM1344.73 138.138C1347.16 127.143 1354.62 121.473 1365.19 121.473C1375.76 121.473 1382.7 127.83 1385.13 138.138H1344.73ZM698.855 59.0019L771.988 131.67C772.627 132.305 773.133 133.059 773.478 133.889C773.824 134.719 774.001 135.608 774 136.506C773.999 137.404 773.82 138.293 773.474 139.122C773.127 139.951 772.619 140.705 771.979 141.339L752.15 161.043L693.994 103.257L660.539 136.5L693.994 169.743L714.736 149.13L739.439 173.673L698.87 213.998C698.231 214.633 697.473 215.136 696.639 215.48C695.804 215.823 694.91 216 694.007 216C693.104 216 692.21 215.823 691.375 215.48C690.541 215.136 689.783 214.633 689.145 213.998L616.012 141.33C614.724 140.049 614 138.311 614 136.5C614 134.689 614.724 132.951 616.012 131.67L689.13 59.0019C689.769 58.3673 690.527 57.8638 691.361 57.5203C692.196 57.1768 693.09 57 693.993 57C694.896 57 695.79 57.1768 696.625 57.5203C697.459 57.8638 698.217 58.3673 698.855 59.0019Z" fill="white"/>
<path d="M696.72 336.04C690.16 323.08 677.84 315.08 662.32 315.08C638.48 315.08 621.04 333.8 621.04 358.76C621.04 383.88 638.48 402.76 662.32 402.76C678.16 402.76 690.64 394.44 697.04 381V401H704.56V284.04H696.72V336.04ZM662.96 395.56C643.44 395.56 629.04 379.88 629.04 358.76C629.04 337.96 643.6 322.12 662.96 322.12C682.96 322.12 696.88 337.16 696.88 358.76C696.88 380.36 682.8 395.56 662.96 395.56ZM805.594 361V356.84C805.594 333.32 789.434 315.08 765.914 315.08C742.554 315.08 724.634 334.12 724.634 358.92C724.634 384.04 742.074 402.76 766.234 402.76C785.594 402.76 798.234 393.96 803.994 379.24L797.594 375.56C792.794 389 782.394 395.4 766.394 395.4C747.354 395.4 733.754 381.48 732.794 361H805.594ZM732.954 354.44C734.714 335.24 747.834 321.96 766.074 321.96C784.314 321.96 796.794 334.92 797.754 354.44H732.954ZM849.885 402.76C868.285 402.76 880.925 394.12 880.925 379.08C880.925 348.2 829.085 359.72 829.085 336.2C829.085 327.08 836.445 321.32 849.245 321.32C859.645 321.32 867.005 325.48 870.365 334.28L877.245 331.56C873.405 320.68 863.485 315.08 849.245 315.08C832.445 315.08 821.245 323.08 821.245 336.68C821.245 365.64 873.085 354.92 873.085 379.72C873.085 390.28 863.805 396.2 850.045 396.2C836.125 396.2 827.005 390.44 823.965 380.52L816.925 383.4C821.085 395.56 832.925 402.76 849.885 402.76ZM903.613 299.24C908.253 299.24 911.773 296.04 911.773 291.4C911.773 286.76 908.253 283.24 903.613 283.24C898.973 283.24 895.453 286.76 895.453 291.4C895.453 296.04 898.973 299.24 903.613 299.24ZM907.613 401V316.68H899.773V401H907.613ZM1003.76 337C997.523 323.56 985.043 315.08 969.043 315.08C945.363 315.08 927.763 333.8 927.763 358.28C927.763 382.92 945.203 401.48 969.043 401.48C985.043 401.48 997.523 393 1003.76 379.56V391.56C1003.76 411.88 990.643 424.52 969.523 424.52C953.043 424.52 941.682 416.84 937.203 402.44L930.163 405.16C935.603 421.8 949.043 431.4 969.363 431.4C995.443 431.4 1011.28 415.72 1011.28 391.08V316.68H1003.76V337ZM969.523 395.08C950.163 395.08 935.603 379.4 935.603 358.6C935.603 337.8 950.323 322.12 969.843 322.12C989.523 322.12 1003.44 337.32 1003.44 358.6C1003.44 379.88 989.363 395.08 969.523 395.08ZM1075.68 314.92C1060.48 314.92 1049.44 322.92 1044.64 332.36V316.68H1037.12V401H1044.96V347.72C1045.28 334.76 1056.96 322.28 1074.24 322.12C1092.32 321.96 1102.72 333 1102.72 351.56V401H1110.72V350.28C1110.72 328.68 1098.08 314.92 1075.68 314.92ZM1198.95 402.76C1217.35 402.76 1229.99 394.12 1229.99 379.08C1229.99 348.2 1178.15 359.72 1178.15 336.2C1178.15 327.08 1185.51 321.32 1198.31 321.32C1208.71 321.32 1216.07 325.48 1219.43 334.28L1226.31 331.56C1222.47 320.68 1212.55 315.08 1198.31 315.08C1181.51 315.08 1170.31 323.08 1170.31 336.68C1170.31 365.64 1222.15 354.92 1222.15 379.72C1222.15 390.28 1212.87 396.2 1199.11 396.2C1185.19 396.2 1176.07 390.44 1173.03 380.52L1165.99 383.4C1170.15 395.56 1181.99 402.76 1198.95 402.76ZM1276.4 393.48L1244.56 316.68H1236.08L1271.76 401H1273.04L1260.72 429.64H1268.56L1317.2 316.68H1308.88L1276.4 393.48ZM1355.2 402.76C1373.6 402.76 1386.24 394.12 1386.24 379.08C1386.24 348.2 1334.4 359.72 1334.4 336.2C1334.4 327.08 1341.76 321.32 1354.56 321.32C1364.96 321.32 1372.32 325.48 1375.68 334.28L1382.56 331.56C1378.72 320.68 1368.8 315.08 1354.56 315.08C1337.76 315.08 1326.56 323.08 1326.56 336.68C1326.56 365.64 1378.4 354.92 1378.4 379.72C1378.4 390.28 1369.12 396.2 1355.36 396.2C1341.44 396.2 1332.32 390.44 1329.28 380.52L1322.24 383.4C1326.4 395.56 1338.24 402.76 1355.2 402.76ZM1446.08 401V393.96H1435.68C1423.52 393.96 1416.8 386.6 1416.8 373.8V323.72H1444.64V316.68H1416.96V295.4H1409.44V309.64C1409.44 314.44 1407.36 316.68 1402.56 316.68H1392.96V323.72H1408.8V374.44C1408.8 390.92 1418.08 401 1434.56 401H1446.08ZM1532.16 361V356.84C1532.16 333.32 1516 315.08 1492.48 315.08C1469.12 315.08 1451.2 334.12 1451.2 358.92C1451.2 384.04 1468.64 402.76 1492.8 402.76C1512.16 402.76 1524.8 393.96 1530.56 379.24L1524.16 375.56C1519.36 389 1508.96 395.4 1492.96 395.4C1473.92 395.4 1460.32 381.48 1459.36 361H1532.16ZM1459.52 354.44C1461.28 335.24 1474.4 321.96 1492.64 321.96C1510.88 321.96 1523.36 334.92 1524.32 354.44H1459.52ZM1651 314.92C1634.52 314.92 1623.32 325.32 1619.64 335.24C1615.16 322.6 1604.6 314.92 1588.92 314.92C1574.36 314.92 1563.8 323.24 1559.32 332.2V316.68H1551.8V401H1559.64V346.28C1559.96 334.92 1571 322.28 1587.32 322.12C1603.64 321.96 1614.2 333.48 1614.2 350.44V401H1622.04V346.28C1622.36 334.92 1633.4 322.28 1649.72 322.12C1666.04 321.96 1676.6 333.48 1676.6 350.44V401H1684.44V349.32C1684.44 329 1671.8 314.92 1651 314.92Z" fill="white"/>
<path d="M63.0797 176.496L63.1648 176.5H63.25C78.0358 176.5 92.216 170.626 102.671 160.171C113.126 149.716 119 135.536 119 120.75C119 105.964 113.126 91.784 102.671 81.3288C92.216 70.8736 78.0358 65 63.25 65C62.7859 65 62.3407 64.8156 62.0126 64.4874C61.6844 64.1593 61.5 63.7141 61.5 63.25V23C61.5 17.9609 63.5018 13.1282 67.065 9.56497C70.6282 6.00178 75.4609 4 80.5 4H277.75V51.6994C277.735 52.1414 277.572 52.5659 277.287 52.9049C277.016 53.228 276.649 53.4553 276.241 53.5549C260.428 55.6566 245.875 63.3112 235.184 75.1541C224.456 87.0374 218.319 102.358 217.877 118.362C217.435 134.365 222.716 150.001 232.772 162.459C242.808 174.892 256.943 183.345 272.643 186.305C274.223 186.685 275.631 187.585 276.64 188.86C277.665 190.154 278.219 191.759 278.21 193.41L278.21 193.42V193.43V218.5C278.21 220.489 277.42 222.397 276.013 223.803C274.607 225.21 272.699 226 270.71 226H235.996C233.776 225.983 231.577 226.444 229.55 227.351C227.522 228.258 225.712 229.592 224.244 231.26C222.789 232.896 221.703 234.825 221.059 236.918C220.424 238.981 220.234 241.154 220.501 243.295C220.596 244.502 220.594 245.714 220.494 246.92L220.48 247.085V247.25C220.48 256.864 216.661 266.084 209.863 272.883C203.064 279.681 193.844 283.5 184.23 283.5C174.616 283.5 165.396 279.681 158.597 272.883C151.799 266.084 147.98 256.864 147.98 247.25V247.085L147.966 246.92C147.866 245.714 147.864 244.502 147.959 243.296C148.226 241.154 148.036 238.981 147.401 236.918C146.757 234.825 145.671 232.895 144.216 231.259C142.748 229.591 140.938 228.258 138.91 227.351C136.883 226.444 134.684 225.983 132.464 226H69C67.0109 226 65.1032 225.21 63.6967 223.803C62.2902 222.397 61.5 220.489 61.5 218.5V178.25V178.165L61.4964 178.08C61.4874 177.869 61.5222 177.66 61.5986 177.463C61.675 177.267 61.7913 177.089 61.9402 176.94C62.0891 176.791 62.2672 176.675 62.4633 176.599C62.6595 176.522 62.8694 176.487 63.0797 176.496Z" stroke="url(#paint0_linear_111_25)" stroke-width="8"/>
<path d="M277.75 479H80.5C75.4609 479 70.6282 476.998 67.065 473.435C63.5018 469.872 61.5 465.039 61.5 460V419.75V419.687L61.498 419.624C61.4214 417.187 60.5125 414.85 58.9225 413.002L58.7264 412.774L58.4984 412.577C56.6499 410.988 54.3127 410.079 51.8757 410.002L51.8129 410H51.75C39.0859 410 26.9405 404.969 17.9857 396.014C9.03079 387.06 4 374.914 4 362.25C4 349.586 9.03079 337.441 17.9857 328.486C26.9405 319.531 39.0859 314.5 51.75 314.5C54.3359 314.5 56.8158 313.473 58.6443 311.644C60.4728 309.816 61.5 307.336 61.5 304.75V264.5C61.5 262.511 62.2902 260.603 63.6967 259.197C65.1032 257.79 67.0109 257 69 257H111.09H111.1L111.11 257C112.761 256.992 114.366 257.545 115.66 258.57C116.954 259.595 117.862 261.029 118.232 262.638C121.643 277.465 129.982 290.698 141.885 300.174C153.789 309.65 168.555 314.81 183.77 314.81C198.985 314.81 213.751 309.65 225.655 300.174C237.558 290.698 245.897 277.465 249.308 262.638C249.678 261.029 250.586 259.595 251.88 258.57C253.174 257.545 254.779 256.992 256.43 257L256.44 257H256.45H270.02C272.009 257 273.917 257.79 275.323 259.197C276.73 260.603 277.52 262.511 277.52 264.5V310.944C277.503 313.165 277.964 315.363 278.871 317.39C279.78 319.423 281.117 321.236 282.79 322.705L282.842 322.751L282.896 322.795C286.22 325.516 290.477 326.826 294.755 326.444L294.791 326.441L294.827 326.437C299.885 325.894 305 326.422 309.841 327.985C314.681 329.549 319.139 332.114 322.923 335.514C326.707 338.913 329.733 343.071 331.805 347.717C333.876 352.363 334.947 357.393 334.947 362.48C334.947 367.567 333.876 372.597 331.805 377.243C329.733 381.889 326.707 386.047 322.923 389.446C319.139 392.846 314.681 395.411 309.841 396.975C305.026 398.53 299.94 399.06 294.908 398.532C292.812 398.224 290.674 398.369 288.639 398.958C286.571 399.557 284.658 400.599 283.034 402.013L283.027 402.019L283.02 402.025C281.347 403.495 280.01 405.307 279.101 407.34C278.194 409.367 277.733 411.566 277.75 413.786V479Z" stroke="url(#paint1_linear_111_25)" stroke-width="8"/>
<path d="M335.36 225.77L335.35 225.77H335.34H316.02C314.031 225.77 312.123 224.98 310.717 223.573C309.31 222.167 308.52 220.259 308.52 218.27V172.286C308.537 170.066 308.076 167.867 307.169 165.84C306.266 163.821 304.941 162.019 303.284 160.555C301.694 159.102 299.806 158.012 297.752 157.364C295.7 156.716 293.532 156.523 291.399 156.798C286.356 157.333 281.256 156.804 276.429 155.245C271.589 153.681 267.131 151.116 263.347 147.716C259.563 144.317 256.537 140.159 254.465 135.513C252.394 130.867 251.323 125.837 251.323 120.75C251.323 115.663 252.394 110.633 254.465 105.987C256.537 101.341 259.563 97.1834 263.347 93.7839C267.131 90.3844 271.589 87.8193 276.429 86.2555C281.256 84.6961 286.356 84.1671 291.4 84.7026C293.559 84.9793 295.752 84.7914 297.832 84.1512C299.925 83.5074 301.855 82.421 303.49 80.9659C305.159 79.4979 306.492 77.6883 307.399 75.6597C308.306 73.6327 308.767 71.4345 308.75 69.2141V11.5C308.75 9.51087 309.54 7.60322 310.947 6.1967C312.353 4.79018 314.261 4 316.25 4H350.673C351.164 4.02441 351.637 4.18391 352.041 4.45856C352.316 4.86289 352.476 5.33654 352.5 5.8281C352.521 20.5857 358.392 34.7345 368.829 45.1712C379.284 55.6264 393.464 61.5 408.25 61.5C423.036 61.5 437.216 55.6264 447.671 45.1712C458.126 34.7161 464 20.5358 464 5.75C464 5.28586 464.184 4.84075 464.513 4.51256C464.841 4.18438 465.286 4 465.75 4H506C511.039 4 515.872 6.00178 519.435 9.56497C522.998 13.1282 525 17.9609 525 23V218.27C525 220.259 524.21 222.167 522.803 223.573C521.397 224.98 519.489 225.77 517.5 225.77H480.7H480.69L480.68 225.77C479.029 225.778 477.424 225.225 476.13 224.2C474.836 223.175 473.928 221.741 473.558 220.132C470.147 205.305 461.808 192.072 449.905 182.596C438.001 173.12 423.235 167.96 408.02 167.96C392.805 167.96 378.039 173.12 366.135 182.596C354.232 192.072 345.893 205.305 342.482 220.132C342.112 221.741 341.204 223.175 339.91 224.2C338.616 225.225 337.011 225.778 335.36 225.77Z" stroke="url(#paint2_linear_111_25)" stroke-width="8"/>
<path d="M459.77 253C458.118 253.014 456.482 252.673 454.974 251.998C453.465 251.323 452.12 250.331 451.03 249.09C449.952 247.881 449.148 246.454 448.672 244.906C448.196 243.358 448.059 241.726 448.27 240.12C448.391 238.666 448.391 237.204 448.27 235.75C448.27 225.075 444.029 214.837 436.481 207.289C428.933 199.741 418.695 195.5 408.02 195.5C397.345 195.5 387.107 199.741 379.559 207.289C372.011 214.837 367.77 225.075 367.77 235.75C367.649 237.204 367.649 238.666 367.77 240.12C367.981 241.726 367.844 243.358 367.368 244.906C366.892 246.454 366.088 247.881 365.01 249.09C363.92 250.331 362.574 251.323 361.066 251.998C359.558 252.673 357.922 253.014 356.27 253H316.25C313.2 253 310.275 254.212 308.118 256.368C305.962 258.525 304.75 261.45 304.75 264.5V289.57C304.737 292.129 305.595 294.616 307.184 296.623C308.772 298.629 310.996 300.036 313.49 300.61C327.436 303.818 339.882 311.661 348.795 322.857C357.707 334.052 362.56 347.94 362.56 362.25C362.56 376.56 357.707 390.448 348.795 401.643C339.882 412.839 327.436 420.682 313.49 423.89C310.996 424.464 308.772 425.871 307.184 427.877C305.595 429.884 304.737 432.371 304.75 434.93V471.5C304.75 474.55 305.962 477.475 308.118 479.632C310.275 481.788 313.2 483 316.25 483H506C512.1 483 517.95 480.577 522.263 476.263C526.577 471.95 529 466.1 529 460V264.5C529 261.45 527.788 258.525 525.632 256.368C523.475 254.212 520.55 253 517.5 253H459.77Z" fill="url(#paint3_linear_111_25)"/>
<defs>
<linearGradient id="paint0_linear_111_25" x1="64" y1="5" x2="274.5" y2="228.5" gradientUnits="userSpaceOnUse">
<stop stop-color="#21DAAC"/>
<stop offset="1" stop-color="#01B38F"/>
</linearGradient>
<linearGradient id="paint1_linear_111_25" x1="62.5" y1="252.5" x2="278.5" y2="483.5" gradientUnits="userSpaceOnUse">
<stop stop-color="#FFBF19"/>
<stop offset="1" stop-color="#FA9319"/>
</linearGradient>
<linearGradient id="paint2_linear_111_25" x1="308.5" y1="8.99999" x2="520.5" y2="229.5" gradientUnits="userSpaceOnUse">
<stop stop-color="#BE82FA"/>
<stop offset="1" stop-color="#A052CC"/>
</linearGradient>
<linearGradient id="paint3_linear_111_25" x1="364.5" y1="248" x2="529.5" y2="490.5" gradientUnits="userSpaceOnUse">
<stop stop-color="#FF5970"/>
<stop offset="1" stop-color="#D9304C"/>
</linearGradient>
</defs>
</svg>
