<svg width="1696" height="1112" viewBox="0 0 1696 1112" fill="none" xmlns="http://www.w3.org/2000/svg">
<rect width="512" height="512" transform="translate(16 16)" fill="#000D6E"/>
<path d="M412.366 262.781L280.27 131.614C279.117 130.468 277.748 129.559 276.241 128.939C274.734 128.319 273.118 128 271.487 128C269.856 128 268.241 128.319 266.734 128.939C265.227 129.559 263.857 130.468 262.704 131.614L130.634 262.781C128.307 265.094 127 268.23 127 271.5C127 274.77 128.307 277.906 130.634 280.219L262.73 411.386C263.883 412.532 265.252 413.441 266.759 414.061C268.266 414.681 269.882 415 271.513 415C273.144 415 274.759 414.681 276.266 414.061C277.773 413.441 279.143 412.532 280.296 411.386L353.574 338.598L308.955 294.298L271.49 331.505L211.06 271.5L271.49 211.495L376.533 315.8L412.35 280.234C413.506 279.089 414.423 277.73 415.049 276.233C415.676 274.736 415.999 273.132 416 271.511C416.001 269.89 415.681 268.285 415.058 266.787C414.434 265.289 413.519 263.928 412.366 262.781Z" fill="white"/>
<rect width="512" height="512" transform="translate(16 584)" fill="white"/>
<rect width="512" height="512" transform="translate(16 584)" fill="white"/>
<path d="M412.366 830.781L280.27 699.614C279.117 698.468 277.748 697.559 276.241 696.939C274.734 696.319 273.118 696 271.487 696C269.856 696 268.241 696.319 266.734 696.939C265.227 697.559 263.857 698.468 262.704 699.614L130.634 830.781C128.307 833.094 127 836.23 127 839.5C127 842.77 128.307 845.906 130.634 848.219L262.73 979.386C263.883 980.532 265.252 981.441 266.759 982.061C268.266 982.681 269.882 983 271.513 983C273.144 983 274.759 982.681 276.266 982.061C277.773 981.441 279.143 980.532 280.296 979.386L353.574 906.598L308.955 862.298L271.49 899.505L211.06 839.5L271.49 779.495L376.533 883.8L412.35 848.234C413.506 847.089 414.423 845.73 415.049 844.233C415.676 842.736 415.999 841.132 416 839.511C416.001 837.89 415.681 836.285 415.058 834.787C414.434 833.289 413.519 831.928 412.366 830.781Z" fill="#000D6E"/>
<rect width="512" height="512" transform="translate(592 584)" fill="#FFACA6"/>
<path d="M988.366 830.781L856.27 699.614C855.117 698.468 853.748 697.559 852.241 696.939C850.734 696.319 849.118 696 847.487 696C845.856 696 844.241 696.319 842.734 696.939C841.227 697.559 839.857 698.468 838.704 699.614L706.634 830.781C704.307 833.094 703 836.23 703 839.5C703 842.77 704.307 845.906 706.634 848.219L838.73 979.386C839.883 980.532 841.252 981.441 842.759 982.061C844.266 982.681 845.882 983 847.513 983C849.144 983 850.759 982.681 852.266 982.061C853.773 981.441 855.143 980.532 856.296 979.386L929.574 906.598L884.955 862.298L847.49 899.505L787.06 839.5L847.49 779.495L952.533 883.8L988.35 848.234C989.506 847.089 990.423 845.73 991.049 844.233C991.676 842.736 991.999 841.132 992 839.511C992.001 837.89 991.681 836.285 991.058 834.787C990.434 833.289 989.519 831.928 988.366 830.781Z" fill="#000D6E"/>
<rect width="512" height="512" transform="translate(1168 584)" fill="#FAE052"/>
<path d="M1564.37 830.781L1432.27 699.614C1431.12 698.468 1429.75 697.559 1428.24 696.939C1426.73 696.319 1425.12 696 1423.49 696C1421.86 696 1420.24 696.319 1418.73 696.939C1417.23 697.559 1415.86 698.468 1414.7 699.614L1282.63 830.781C1280.31 833.094 1279 836.23 1279 839.5C1279 842.77 1280.31 845.906 1282.63 848.219L1414.73 979.386C1415.88 980.532 1417.25 981.441 1418.76 982.061C1420.27 982.681 1421.88 983 1423.51 983C1425.14 983 1426.76 982.681 1428.27 982.061C1429.77 981.441 1431.14 980.532 1432.3 979.386L1505.57 906.598L1460.96 862.298L1423.49 899.505L1363.06 839.5L1423.49 779.495L1528.53 883.8L1564.35 848.234C1565.51 847.089 1566.42 845.73 1567.05 844.233C1567.68 842.736 1568 841.132 1568 839.511C1568 837.89 1567.68 836.285 1567.06 834.787C1566.43 833.289 1565.52 831.928 1564.37 830.781Z" fill="#000D6E"/>
<rect width="512" height="512" transform="translate(592 16)" fill="#B8B2FF"/>
<path d="M988.366 262.781L856.27 131.614C855.117 130.468 853.748 129.559 852.241 128.939C850.734 128.319 849.118 128 847.487 128C845.856 128 844.241 128.319 842.734 128.939C841.227 129.559 839.857 130.468 838.704 131.614L706.634 262.781C704.307 265.094 703 268.23 703 271.5C703 274.77 704.307 277.906 706.634 280.219L838.73 411.386C839.883 412.532 841.252 413.441 842.759 414.061C844.266 414.681 845.882 415 847.513 415C849.144 415 850.759 414.681 852.266 414.061C853.773 413.441 855.143 412.532 856.296 411.386L929.574 338.598L884.955 294.298L847.49 331.505L787.06 271.5L847.49 211.495L952.533 315.8L988.35 280.234C989.506 279.089 990.423 277.73 991.049 276.233C991.676 274.736 991.999 273.132 992 271.511C992.001 269.89 991.681 268.285 991.058 266.787C990.434 265.289 989.519 263.928 988.366 262.781Z" fill="#000D6E"/>
<rect width="512" height="512" transform="translate(1168 16)" fill="#94E3D4"/>
<path d="M1564.37 262.781L1432.27 131.614C1431.12 130.468 1429.75 129.559 1428.24 128.939C1426.73 128.319 1425.12 128 1423.49 128C1421.86 128 1420.24 128.319 1418.73 128.939C1417.23 129.559 1415.86 130.468 1414.7 131.614L1282.63 262.781C1280.31 265.094 1279 268.23 1279 271.5C1279 274.77 1280.31 277.906 1282.63 280.219L1414.73 411.386C1415.88 412.532 1417.25 413.441 1418.76 414.061C1420.27 414.681 1421.88 415 1423.51 415C1425.14 415 1426.76 414.681 1428.27 414.061C1429.77 413.441 1431.14 412.532 1432.3 411.386L1505.57 338.598L1460.96 294.298L1423.49 331.505L1363.06 271.5L1423.49 211.495L1528.53 315.8L1564.35 280.234C1565.51 279.089 1566.42 277.73 1567.05 276.233C1567.68 274.736 1568 273.132 1568 271.511C1568 269.89 1567.68 268.285 1567.06 266.787C1566.43 265.289 1565.52 263.928 1564.37 262.781Z" fill="#000D6E"/>
<rect x="0.5" y="0.5" width="1695" height="1111" rx="4.5" stroke="#9747FF" stroke-dasharray="10 5"/>
</svg>
