<?xml version="1.0" encoding="UTF-8"?><svg xmlns="http://www.w3.org/2000/svg" viewBox="0 0 40 40" focusable="false" aria-hidden="true"><g id="Solid"><rect width="40" height="40" fill="none"/></g><g id="Icon_Purple"><g><path d="M19.4989624,16.96618654c0-.55230713,.44775391-1,1-1h1.50006104v-2.4720459c0-.22949219-.04638672-.39355469-.13037109-.4609375-.09570312-.07714844-.28515625-.06542969-.36279297-.05078125l-.11523438,.01367188h-4.60009766c-1.42236328,0-1.85498047-.84863281-1.88476562-1.29785156l-.00036621-.76245117h-4.90539551v9.06420898h9.4989624v-3.03381348Z" fill="none"/><polygon points="25.4989624 23.22668458 23.4989624 23.22668458 23.4989624 24.86169435 22.99902344 24.86169435 22.99902344 27.00000001 24 27.00000001 24 29.99597169 26 29.99597169 26 32.99597169 14 32.99597169 14 29.99597169 16 29.99597169 16 27.00000001 21.99902344 27.00000001 21.99902344 24.86169435 21.4989624 24.86169435 21.4989624 23.22668458 19.4989624 23.22668458 19.4989624 22.00000001 10 22.00000001 10 33.00000001 30 33.00000001 30 22.00000001 25.4989624 22.00000001 25.4989624 23.22668458" fill="none"/><path d="M15.90478516,11.66503908h.00048828c.00634766,0,.09912109,.33105469,.88525391,.33105469h4.55029297c.19335938-.03515625,.71435547-.0859375,1.14111328,.24707031,.23583984,.18359375,.51708984,.55078125,.51708984,1.25097656v2.4720459h1.49993896c.55230713,0,1,.44769287,1,1v3.03381348h4.5010376V10.93579103H15.90478516v.72924805Z" fill="none"/><polygon points="16 27.00000001 16 29.99597169 14 29.99597169 14 32.99597169 26 32.99597169 26 29.99597169 24 29.99597169 24 27.00000001 22.99902344 27.00000001 22.99902344 24.86169435 21.99902344 24.86169435 21.99902344 27.00000001 16 27.00000001" fill="#b8b2ff"/><path d="M7,6.00311281v29.99688721h6v-1h14v1h6V6.00311281H7Zm3,4.93267822h4.90539551l.00036621,.76245117c.02978516,.44921875,.46240234,1.29785156,1.88476562,1.29785156h4.60009766l.11523438-.01367188c.07763672-.01464844,.26708984-.02636719,.36279297,.05078125,.08398438,.06738281,.13037109,.23144531,.13037109,.4609375v2.4720459h-1.50006104c-.55224609,0-1,.44769287-1,1v3.03381348H10V10.93579103Zm20,22.06420898H10v-11h9.4989624v1.22668457h2v1.63500977h2v-1.63500977h2v-1.22668457h4.5010376v11Zm0-13h-4.5010376v-3.03381348c0-.55230713-.44769287-1-1-1h-1.49993896v-2.4720459c0-.70019531-.28125-1.06738281-.51708984-1.25097656-.42675781-.33300781-.94775391-.28222656-1.14111328-.24707031h-4.55029297c-.78613281,0-.87890625-.33105469-.88525391-.33105469h-.00048828v-.72924805h14.09521484v9.06420898Z" fill="#6c2273"/></g><circle cx="29" cy="8.50000001" r="1" fill="#000d6e"/><circle cx="26" cy="8.50000001" r="1" fill="#000d6e"/><rect x="10" y="8.00000001" width="6" height="1" fill="#000d6e"/></g></svg>