<svg xmlns="http://www.w3.org/2000/svg" viewBox="0 0 40 40" focusable="false" aria-hidden="true"><defs><style>.cls-1{fill:none;}.cls-2{fill:#b8b2ff;}.cls-3{fill:#000d6e;}.cls-4{fill:#6c2273;}</style></defs><g id="Solid"><rect class="cls-1" width="40" height="40"/></g><g id="Icon_Purple" data-name="Icon Purple"><path class="cls-2" d="M30.2978,10.4094a1,1,0,0,0,0-1.4142L28.8836,7.581a1,1,0,0,0-1.4142,0l-.7292.685,2.8726,2.8726Z"/><polygon class="cls-2" points="8.475 25.424 12.454 29.404 24.133 16.972 20.907 13.746 8.475 25.424"/><path class="cls-3" d="M4.1348,29.5013a1,1,0,0,0,0,1.4142L6.9633,33.744a1,1,0,0,0,1.4142,0l3.425-3.6461L7.7808,26.0762Z"/><path class="cls-4" d="M33.1257,16.0657l-9.59-9.59a1.0013,1.0013,0,0,0-.8021-.2889l-5.1658.487a1.0014,1.0014,0,0,0-.6141,1.7051L28.8831,20.3084a1.0014,1.0014,0,0,0,1.4162,0l2.8264-2.8264A1.0015,1.0015,0,0,0,33.1257,16.0657Z"/></g></svg>