<svg xmlns="http://www.w3.org/2000/svg" viewBox="0 0 40 40" focusable="false" aria-hidden="true"><g id="Solid"><rect width="40" height="40" fill="none"/></g><g id="Icon_Green" data-name="Icon Green"><path d="M30.2978,10.4094a1,1,0,0,0,0-1.4142L28.8836,7.581a1,1,0,0,0-1.4142,0l-.7292.685,2.8726,2.8726Z" fill="#94e3d4"/><polygon points="8.475 25.424 12.454 29.404 24.133 16.972 20.907 13.746 8.475 25.424" fill="#94e3d4"/><path d="M4.1348,29.5013a1,1,0,0,0,0,1.4142L6.9633,33.744a1,1,0,0,0,1.4142,0l3.425-3.6461L7.7808,26.0762Z" fill="#000d6e"/><path d="M33.1257,16.0657l-9.59-9.59a1.0013,1.0013,0,0,0-.8021-.2889l-5.1658.487a1.0014,1.0014,0,0,0-.6141,1.7051L28.8831,20.3084a1.0014,1.0014,0,0,0,1.4162,0l2.8264-2.8264A1.0015,1.0015,0,0,0,33.1257,16.0657Z" fill="#1b5951"/></g></svg>