<svg xmlns="http://www.w3.org/2000/svg" viewBox="0 0 40 40" focusable="false" aria-hidden="true"><g id="Solid"><rect width="40" height="40" fill="none"/></g><g id="Icon_Purple" data-name="Icon Purple"><path d="M13.5127,6.02h-.0475c1.6184,0,3.63.3617,3.63,1.98h5.31c0-1.3341,1.3429-2.04,2.7211-2.2471A1.0055,1.0055,0,0,0,26,4.765V4.0063a1,1,0,0,0-1-1H13.5356V6.02Z" fill="#b8b2ff"/><path d="M17.0955,8l0,.3458v.9167A.7394.7394,0,0,0,17.8369,10h3.838a.7394.7394,0,0,0,.7413-.7375V8H17.0955Z" fill="#6c2273"/><path d="M15.6971,7.6072a3.7805,3.7805,0,0,0-1.8812-.5745,7.7525,7.7525,0,0,1-2.023,3.6511c-.4208.4441-.7048.9679-.5481,1.232.1541.2627.8541.1758,1.47-.2956A9.4825,9.4825,0,0,0,15.6971,7.6072Z" fill="#000d6e"/><path d="M22.0206,11H18.0069a1.0205,1.0205,0,0,0-1.0033,1.0175c-.1024,5.3027-.996,6.0174-.996,6.0174a9.33,9.33,0,0,1-.9265,1.2056A8.8215,8.8215,0,0,0,13,24.9615l.0137,12.04A1.0017,1.0017,0,0,0,14.0173,38H25.64a2.397,2.397,0,0,0,1.1761-.3072A2.6534,2.6534,0,0,0,28,35.2486C28.0508,15,23.0242,11,22.0206,11Z" fill="#b8b2ff"/><path d="M12,6.02h1.5356V3.0063H12a1,1,0,0,0-1,1V5.02A1,1,0,0,0,12,6.02Z" fill="#000d6e"/></g></svg>