<svg xmlns="http://www.w3.org/2000/svg" viewBox="0 0 40 40" focusable="false" aria-hidden="true"><g id="Solid"><rect width="40" height="40" fill="none"/></g><g id="Icon_Red" data-name="Icon Red"><path d="M22.4863,20.0132c-.0234-.339-.0448-.537-.0448-.537l.01-1.5306a6.4077,6.4077,0,0,0,2.5766-4.0319.7942.7942,0,0,0,.1394.0193c.5978,0,1.0824-.6662,1.0824-1.4881a1.4918,1.4918,0,0,0-.7813-1.4224v.2513a.381.381,0,0,1-.0836.2305.3886.3886,0,0,1-.057.0631.4108.4108,0,0,1-.2492.0963.39.39,0,0,1-.39-.39V10c0-.0566-.0046-.1053-.0058-.16-.0419-.0723-.0911-.1449-.138-.2176A4.7649,4.7649,0,0,0,23.4689,8.45a4.2143,4.2143,0,0,1-3.0783.0979,7.1651,7.1651,0,0,1-1.2438-.5442,4.1117,4.1117,0,0,1-.755-.5358,8.3492,8.3492,0,0,0-1.8622.5358c-.4227.1768-.7663.3551-1.04.4883a5.6873,5.6873,0,0,0-.1571.9649c-.0134.1695-.0219.3494-.0219.5431v1.2743a.39.39,0,0,1-.39.39.3737.3737,0,0,1-.0633-.0128.3848.3848,0,0,1-.3266-.3771v-.2513a1.4921,1.4921,0,0,0-.7812,1.4224c0,.8219.4846,1.4881,1.0824,1.4881a.8.8,0,0,0,.2121-.0294,6.4383,6.4383,0,0,0,2.5259,4.01h-.02l.0081,1.5625s-.0223.2042-.0462.5563A3.0812,3.0812,0,0,0,19.98,21.23,3.14,3.14,0,0,0,22.4863,20.0132Z" fill="#ffaca6"/><path d="M14.8578,11.6509a.3737.3737,0,0,0,.0633.0128.39.39,0,0,0,.39-.39V10c0-.1937.0085-.3736.0219-.5431a5.6873,5.6873,0,0,1,.1571-.9649c.2733-.1332.6169-.3115,1.04-.4883a8.3492,8.3492,0,0,1,1.8622-.5358,4.1117,4.1117,0,0,0,.755.5358,7.1651,7.1651,0,0,0,1.2438.5442A4.2143,4.2143,0,0,0,23.4689,8.45a4.7649,4.7649,0,0,1,1.0763,1.1726c.0469.0727.0961.1453.138.2176.0012.0545.0058.1032.0058.16v1.2743a.39.39,0,0,0,.39.39.4108.4108,0,0,0,.2492-.0963.3886.3886,0,0,0,.057-.0631.381.381,0,0,0,.0836-.2305V9.5883a25.5561,25.5561,0,0,0,0-2.6121C25.3554,5.8541,23.2541,3.07,20,3.07s-5.4688,2.4557-5.4688,4.6875v3.5164A.3848.3848,0,0,0,14.8578,11.6509Z" fill="#000d6e"/><path d="M30.37,24.3c0-2.09-1.86-2.84-3.89-3.42a1.4242,1.4242,0,0,0-.16-.05c-1.09-.3-2.77-.61-3.83-.82l-.0033.0032A3.14,3.14,0,0,1,19.98,21.23a3.0812,3.0812,0,0,1-2.4672-1.1975L17.5,20.02c-.6.12-1.38.27-2.15.43l5.993,12.2376.2293-.0816,1.9716-.7016a.5.5,0,1,1,.3367.9414l-.4451.1584h2.42A1.9951,1.9951,0,0,1,25.996,36.99H31.94Z" fill="#d9304c"/><path d="M9.63,24.3,8.52,33.12l3.79-11.85C10.81,21.83,9.63,22.65,9.63,24.3Z" fill="#d9304c"/><path d="M27.8592,35.0042a2.0023,2.0023,0,0,0-2.0045-2h-2.42l.4451-.1584a.5.5,0,1,0-.3367-.9414l-1.9716.7016-.2293.0816L23.45,36.99l.0047.0142h2.4c.0484,0,.0938-.0109.1413-.0142A1.9958,1.9958,0,0,0,27.8592,35.0042Z" fill="#ffaca6"/><path d="M21.3426,32.6876,15.35,20.45c-.59.12-1.17.25-1.64.38a14.32,14.32,0,0,0-1.4.44L8.52,33.12l-.02.08a2.8973,2.8973,0,0,0-.11.96A3.0017,3.0017,0,0,0,11,36.99a2.5613,2.5613,0,0,0,.39.03H23.46l-.0053-.0158L23.45,36.99Z" fill="#000d6e"/></g></svg>