<?xml version="1.0" encoding="UTF-8"?><svg id="Calque_1" data-name="Calque 1" xmlns="http://www.w3.org/2000/svg" viewBox="0 0 40 40" focusable="false" aria-hidden="true"><defs><style>.cls-1 {
        fill: none;
      }

      .cls-2 {
        fill: #f4da52;
      }

      .cls-3 {
        fill: #f48d19;
      }

      .cls-4 {
        fill: #000d6e;
      }</style></defs><path class="cls-1" d="M0,0H40V40H0V0Z"/><g><path class="cls-2" d="M34,33H6c-.55,0-1,.45-1,1v2h30v-2c0-.55-.45-1-1-1Z"/><path class="cls-4" d="M36.28,10.44l-15.89-6.35c-.25-.11-.53-.11-.78,0L3.72,10.44c-.26,.09-.39,.38-.3,.64s.38,.39,.64,.3c.01,0,.02,0,.03-.01l15.56-6.2c.24-.09,.5-.09,.74,0l15.52,6.2c.25,.11,.55,0,.66-.25,.11-.25,0-.55-.25-.66-.01,0-.03-.01-.04-.02Z"/><path class="cls-2" d="M34.65,12l-14.28-5.85c-.24-.1-.52-.1-.76,0L5.35,12c-.21,.07-.35,.28-.35,.5v2.5h30v-2.5c0-.22-.13-.43-.35-.5Z"/><path class="cls-3" d="M6.99,16v16h26.01V16H6.99Zm13.01,14c-3.31,0-6-2.69-6-6s2.69-6,6-6,6,2.69,6,6-2.69,6-6,6Z"/></g><path class="cls-2" d="M20,18c-3.31,0-6,2.69-6,6s2.69,6,6,6,6-2.69,6-6-2.69-6-6-6Zm.29,5.1l-.07,.73h-1.59c0,.06,0,.12,0,.18,0,.06,0,.12,0,.18h1.53l-.07,.72h-1.23c.28,.43,.77,.68,1.29,.67,.51,.04,1-.23,1.24-.69l.98,.66c-.49,.73-1.33,1.16-2.21,1.12-1.15,.04-2.19-.67-2.56-1.76h-.67l.07-.72h.47c0-.06,0-.12,0-.19,0-.06,0-.12,0-.18h-.41l.07-.73h.48c.38-1.09,1.42-1.8,2.57-1.76,.88-.03,1.71,.39,2.2,1.11l-.98,.66c-.24-.46-.73-.72-1.25-.68-.51-.02-1,.23-1.28,.67h1.42Z"/><path class="cls-4" d="M20.14,22.43c.51-.04,1,.23,1.25,.68l.98-.66c-.49-.73-1.32-1.15-2.2-1.11-1.15-.04-2.19,.67-2.57,1.76h-.48l-.07,.73h.41c0,.06,0,.12,0,.18,0,.06,0,.12,0,.19h-.47l-.07,.72h.67c.38,1.08,1.42,1.8,2.56,1.76,.88,.04,1.72-.39,2.21-1.12l-.98-.66c-.24,.46-.73,.73-1.24,.69-.52,.02-1-.24-1.29-.67h1.23l.07-.72h-1.53c0-.06,0-.12,0-.19,0-.06,0-.12,0-.18h1.59l.07-.73h-1.43c.28-.43,.76-.68,1.28-.67Z"/></svg>