<?xml version="1.0" encoding="iso-8859-1"?><!--Generator: Adobe Illustrator 26.2.1, SVG Export Plug-In . SVG Version: 6.00 Build 0)--><svg version="1.1" xmlns="http://www.w3.org/2000/svg" xmlns:xlink="http://www.w3.org/1999/xlink" x="0px" y="0px" viewBox="0 0 40 40" style="enable-background:new 0 0 40 40" xml:space="preserve" focusable="false" aria-hidden="true"><g id="Solid"><rect style="fill:none" width="40" height="40"/></g><g id="Icon_Purple"><g><circle style="fill:none" cx="13.125" cy="17.875" r="1.125"/><path style="fill:#B8B2FF" d="M23.5,32.75c0,0.69,0.56,1.25,1.25,1.25S26,33.44,26,32.75v-3.312
			c-0.785,0.31-1.624,0.496-2.5,0.541V32.75z"/><path style="fill:#B8B2FF" d="M12.5,32.75c0,0.69,0.56,1.25,1.25,1.25S15,33.44,15,32.75v-2.803
			c-0.882-0.101-1.721-0.351-2.5-0.721V32.75z"/><path style="fill:#6C2273" d="M33.5,18.5c-0.276,0-0.5,0.224-0.5,0.5v1.144C33,20.616,32.575,21,32.054,21H31.5
			c0-3.473-1.839-6.481-4.527-7.981c-0.041,0.717-0.24,1.384-0.564,1.981h-8.318c-0.365-0.672-0.591-1.431-0.591-2.25
			c0-0.257,0.036-0.504,0.076-0.75h-0.872C16.109,10.535,14.678,9.5,13,9.5v3.062c-2.336,0.922-4.18,2.92-5.012,5.438H7.25
			C6.56,18,6,18.56,6,19.25v3.5C6,23.44,6.56,24,7.25,24h0.738c0.772,2.336,2.412,4.228,4.512,5.225
			c0.779,0.37,1.618,0.621,2.5,0.721C15.296,29.981,15.596,30,15.9,30h7.2c0.135,0,0.266-0.015,0.4-0.022
			c0.876-0.044,1.715-0.231,2.5-0.541c2.928-1.156,5.09-4.001,5.445-7.438h0.608C33.127,22,34,21.167,34,20.144V19
			C34,18.724,33.776,18.5,33.5,18.5z M13.125,19C12.504,19,12,18.496,12,17.875c0-0.621,0.504-1.125,1.125-1.125
			s1.125,0.504,1.125,1.125C14.25,18.496,13.746,19,13.125,19z"/><path style="fill:#B8B2FF" d="M18.091,15h8.318c0.324-0.597,0.523-1.265,0.564-1.981C26.978,12.928,27,12.842,27,12.75
			C27,10.127,24.873,8,22.25,8c-2.366,0-4.313,1.735-4.674,4c-0.039,0.246-0.076,0.493-0.076,0.75
			C17.5,13.569,17.726,14.328,18.091,15z M19.812,12.164c0.153-0.23,0.462-0.292,0.693-0.139l1.175,0.783l2.237-2.236
			c0.195-0.195,0.512-0.195,0.707,0s0.195,0.512,0,0.707l-2.527,2.526c-0.097,0.097-0.225,0.146-0.354,0.146
			c-0.096,0-0.193-0.027-0.277-0.084l-1.516-1.011C19.721,12.704,19.659,12.394,19.812,12.164z"/><path style="fill:#000D6E" d="M21.467,13.868c0.084,0.057,0.181,0.084,0.277,0.084c0.129,0,0.257-0.05,0.354-0.146l2.527-2.526
			c0.195-0.195,0.195-0.512,0-0.707s-0.512-0.195-0.707,0l-2.237,2.236l-1.175-0.783c-0.231-0.153-0.541-0.092-0.693,0.139
			c-0.153,0.229-0.091,0.54,0.139,0.693L21.467,13.868z"/></g></g><g id="Guides" style="display:none"/><g id="Grid" style="display:none"><g style="display:inline"><g/><g/><g/><g/><g/><g/><g/><g/><g/><g/><g/><g/><g/><g/><g/><g/><g/><g/><g/><g/><g/><g/><g/><g/><g/><g/><g/><g/><g/><g/><g/><g/><g/><g/><g/><g/><g/><g/><g/><g/></g></g></svg>