<svg xmlns="http://www.w3.org/2000/svg" viewBox="0 0 40 40" focusable="false" aria-hidden="true"><g id="Solid"><rect width="40" height="40" fill="none"/></g><g id="Icon_Red" data-name="Icon Red"><path d="M33.9994,33H6.0006A1.0005,1.0005,0,0,0,5,34.0005V36H35V34A1,1,0,0,0,33.9994,33Z" fill="#ffaca6"/><path d="M36.2837,10.4414,20.3906,4.0879a.963.963,0,0,0-.7812,0L3.7163,10.4414a.5.5,0,1,0,.3711.9277L19.6487,5.1635a1,1,0,0,1,.7416,0l15.5223,6.2053a.5.5,0,1,0,.3711-.9277Z" fill="#000d6e"/><path d="M34.6545,12.0011,20.3768,6.1552a1,1,0,0,0-.758,0L5.3456,12.0011A.5136.5136,0,0,0,5,12.5V15H35V12.5A.5137.5137,0,0,0,34.6545,12.0011Z" fill="#ffaca6"/><path d="M6.9955,16V32H33.0022V16ZM20,30a6,6,0,1,1,6-6A6,6,0,0,1,20,30Z" fill="#d9304c"/><path d="M20,18a6,6,0,1,0,6,6A6,6,0,0,0,20,18Zm-2.9732,6.88a.7872.7872,0,0,0,.8174-.6328l.6284.2549a1.4341,1.4341,0,0,1-1.437.997,1.584,1.584,0,0,1,.0044-3.1679,1.4414,1.4414,0,0,1,1.4326.998l-.6284.2539a.7965.7965,0,0,0-.8218-.6328.9676.9676,0,0,0,.0044,1.93Zm4.4468.5625h-.6548V24.1768H19.6542v1.2656h-.6548V22.3877h.6548v1.2051h1.1646V22.3877h.6548Zm2.7729-2.4873H22.871v.6767h1.2129v.5664H22.871v1.2442h-.6548V22.3877h2.03Z" fill="#ffaca6"/><path d="M17.0224,22.95a.7965.7965,0,0,1,.8218.6328l.6284-.2539a1.4414,1.4414,0,0,0-1.4326-.998,1.584,1.584,0,0,0-.0044,3.1679,1.4341,1.4341,0,0,0,1.437-.997l-.6284-.2549a.7872.7872,0,0,1-.8174.6328.9676.9676,0,0,1-.0044-1.93Z" fill="#000d6e"/><polygon points="20.819 23.593 19.654 23.593 19.654 22.388 18.999 22.388 18.999 25.442 19.654 25.442 19.654 24.177 20.819 24.177 20.819 25.442 21.474 25.442 21.474 22.388 20.819 22.388 20.819 23.593" fill="#000d6e"/><polygon points="22.216 25.442 22.871 25.442 22.871 24.198 24.084 24.198 24.084 23.632 22.871 23.632 22.871 22.955 24.247 22.955 24.247 22.388 22.216 22.388 22.216 25.442" fill="#000d6e"/></g></svg>