<?xml version="1.0" encoding="UTF-8"?><svg xmlns="http://www.w3.org/2000/svg" viewBox="0 0 40 40" focusable="false" aria-hidden="true"><defs><style>.cls-1{fill:none;}.cls-2{fill:#000d6e;}.cls-3{fill:#ffaca6;}.cls-4{fill:#d9304c;}</style></defs><g id="Solid"><rect class="cls-1" width="40" height="40"/></g><g id="Icon_Red"><path class="cls-3" d="M23.30480957,28.96130372c.64685059-2.11993408,2.27636719-3.80926514,4.35394287-4.54998779l1.99713135-8.45422363,.66345215-1.72503662,2.88067627-.63006592c.82501221-.18048096,1.5357666-.70037842,1.95770264-1.43200684l.54541016-.94573975c.08203125-.14160156,.08886719-.31445312,.01904297-.46289062-.06933594-.1484375-.20751953-.25292969-.36865234-.28027344l-3.96405029-.67004395c-.81671143-1.08349609-.75231934-2.12841797-3.19683838-2.52563477-1.10449219-.17944336-2.06280518,.61505127-2.45117188,1.65246582-.04608154,.04034424-.08685303,.08734131-.11621094,.14428711l-2.85620117,5.53430176-.52081299,.87927246-13.33666992,.40472412c-2.34143066-1.09814453-3.76080322-3.76544189-4.03778076-6.33270264l-.1138916-1.45178223c.00024414-.26226807-.19567871-.49267578-.46722412-.51043701-.27484131-.01879883-.51287842,.1887207-.53155518,.46350098-.58300781,4.01617432,.92169189,8.4942627,4.59643555,10.42437744l.18939209,3.63018799c-.01568604,.0133667-.02056885,.02685547-.01501465,.04040527,.00805664,.08947754,.02081299,.20892334,.0345459,.33465576l.01605225,.30725098c.00250244,.0479126,.01708984,.09185791,.03210449,.13531494,.01104736,.10394287,.02093506,.20111084,.02746582,.27758789,.29559326,2.83081055,.69281006,5.66802979,1.34509277,8.44250488,.23345947,1.00531006,1.7411499,1.03100586,1.99993896,.01806641,.67077637-2.63049316,1.09790039-5.31896973,1.44158936-8.01080322l9.63250732,.85699463c.04418945,1.48132324,.11700439,2.96716309,.24359131,4.43572998Z"/><polygon class="cls-4" points="22.24876798 15.51892232 29.2037393 17.80886988 29.51854758 16.36217405 23.32662748 13.56110856 22.24876798 15.51892232"/><g><path class="cls-2" d="M29.87719727,30.26416017c-.44140625,.04882812-.65429688,.27734375-.65429688,.58007812,0,.48242188,.55615234,.62988281,1.12890625,.82617188,.31054688-.08203125,.50683594-.29394531,.50683594-.62109375,0-.45019531-.45800781-.61425781-.98144531-.78515625Z"/><path class="cls-2" d="M30,25.00000001c-3.31365967,0-6,2.68634033-6,6,0,3.3137207,2.68634033,6,6,6,3.3137207,0,6-2.6862793,6-6,0-3.31365967-2.6862793-6-6-6Zm1.67651367,7.98779297c0,.8828125-.6953125,1.38964844-1.69287109,1.38964844-.93261719,0-1.55419922-.3515625-1.79101562-1.0546875l.81738281-.31933594c.12304688,.43359375,.45800781,.67089844,.95703125,.67089844,.43359375,0,.75244141-.22070312,.75244141-.59667969,0-1.00585938-2.4453125-.57324219-2.4453125-2.15136719,0-.48242188,.26171875-.84277344,.67871094-1.06347656-.29443359-.19628906-.50683594-.48242188-.50683594-.94824219,0-.82617188,.63769531-1.29199219,1.62744141-1.29199219,.82617188,0,1.37402344,.33496094,1.55371094,.91601562l-.81738281,.31054688c-.12304688-.34375-.35205078-.49902344-.73632812-.49902344-.43359375,0-.67871094,.19628906-.67871094,.51464844,0,.98242188,2.41259766,.46679688,2.41259766,2.10253906,0,.49023438-.22070312,.8671875-.59716797,1.09570312,.27832031,.19628906,.46630859,.48242188,.46630859,.92480469Z"/></g><g><path class="cls-1" d="M35.77001953,9.59698488c-.49389648,0-.8963623,.33135986-1.0355835,.77947998l.61907959,.10461426c.16113281,.02734375,.29931641,.13183594,.36865234,.28027344,.06982422,.1484375,.06298828,.32128906-.01904297,.46289062l-.28930664,.50170898c.11297607,.03918457,.2298584,.07189941,.35620117,.07189941,.60772705,0,1.10040283-.49267578,1.10040283-1.10046387,0-.60772705-.49267578-1.10040283-1.10040283-1.10040283Z"/><path class="cls-2" d="M35.72216797,10.76135255c-.06933594-.1484375-.20751953-.25292969-.36865234-.28027344l-.61907959-.10461426c-.03210449,.10327148-.06481934,.20709229-.06481934,.32092285,0,.48144531,.31365967,.87921143,.74420166,1.02856445l.28930664-.50170898c.08203125-.14160156,.08886719-.31445312,.01904297-.46289062Z"/></g><path class="cls-2" d="M29.85577692,10.92308327c.13429327,1.34249895,1.11676309,4.83246864-3.62458411,2.83444317-1.01436882-.42745967-.54327696-2.10637261-.30827452-3.49839284s1.30590996-2.37184539,2.39193888-2.18850075,1.40662648,1.50995147,1.54091975,2.85245042Z"/></g></svg>