<?xml version="1.0" encoding="iso-8859-1"?><!--Generator: Adobe Illustrator 26.2.1, SVG Export Plug-In . SVG Version: 6.00 Build 0)--><svg version="1.1" xmlns="http://www.w3.org/2000/svg" xmlns:xlink="http://www.w3.org/1999/xlink" x="0px" y="0px" viewBox="0 0 40 40" xml:space="preserve" focusable="false" aria-hidden="true" enable-background="new 0 0 40 40"><g id="Solid"><rect width="40" height="40" fill="none"/></g><g id="Icon_Tangerine"><g><rect x="10" y="18.013" width="6" height="3" fill="#FAE052"/><rect x="10" y="21.994" width="6" height="3" fill="#FAE052"/><g><rect x="10" y="21.994" width="6" height="3" fill="none"/><rect x="10" y="18.013" width="6" height="3" fill="none"/><path d="M30.996,8H16v8H9c-0.553,0-1,0.448-1,1v18h8h5v-7h6v7h5V9.004C32,8.449,31.551,8,30.996,8z
				 M16,24.994h-6v-3h6V24.994z M16,21.013h-6v-3h6V21.013z M21,25.006h-3v-3h3V25.006z M21,21.013h-3v-3h3V21.013z M21,17.006h-3
				v-3h3V17.006z M21,13.013h-3v-3h3V13.013z M25.5,25.006h-3v-3h3V25.006z M25.5,21.013h-3v-3h3V21.013z M25.5,17.006h-3v-3h3
				V17.006z M25.5,13.013h-3v-3h3V13.013z M30,24.994h-3v-3h3V24.994z M30,21h-3v-3h3V21z M30,16.994h-3v-3h3V16.994z M30,13h-3v-3
				h3V13z" fill="#FA9319"/><rect x="18" y="10.013" width="3" height="3" fill="#FAE052"/><rect x="22.5" y="10.013" width="3" height="3" fill="#FAE052"/><rect x="27" y="10" width="3" height="3" fill="#FAE052"/><rect x="18" y="14.006" width="3" height="3" fill="#FAE052"/><rect x="22.5" y="14.006" width="3" height="3" fill="#FAE052"/><rect x="27" y="13.994" width="3" height="3" fill="#FAE052"/><rect x="18" y="18.013" width="3" height="3" fill="#FAE052"/><rect x="22.5" y="18.013" width="3" height="3" fill="#FAE052"/><rect x="27" y="18" width="3" height="3" fill="#FAE052"/><rect x="18" y="22.006" width="3" height="3" fill="#FAE052"/><rect x="22.5" y="22.006" width="3" height="3" fill="#FAE052"/><rect x="27" y="21.994" width="3" height="3" fill="#FAE052"/></g><g><rect x="21" y="28" width="6" height="7" fill="#000D6E"/></g></g></g></svg>