<svg xmlns="http://www.w3.org/2000/svg" viewBox="0 0 40 40" focusable="false" aria-hidden="true"><defs><style>.cls-1{fill:none;}.cls-2{fill:#fae052;}.cls-3{fill:#fa9319;}.cls-4{fill:#000d6e;}</style></defs><g id="Solid"><rect class="cls-1" width="40" height="40"/></g><g id="Icon_Tangerine" data-name="Icon Tangerine"><path class="cls-1" d="M17.4315,21.4629a1.309,1.309,0,0,0,1.3108-.91l-.5732-.2325a.718.718,0,0,1-.7456.5772.8824.8824,0,0,1-.004-1.76.726.726,0,0,1,.75.5772l.5732-.2325a1.3149,1.3149,0,0,0-1.3068-.91,1.4451,1.4451,0,0,0-.004,2.89Z"/><polygon class="cls-1" points="19.816 20.256 20.879 20.256 20.879 21.411 21.476 21.411 21.476 18.625 20.879 18.625 20.879 19.723 19.816 19.723 19.816 18.625 19.219 18.625 19.219 21.411 19.816 21.411 19.816 20.256"/><polygon class="cls-1" points="22.747 20.276 23.853 20.276 23.853 19.759 22.747 19.759 22.747 19.142 24.001 19.142 24.001 18.625 22.149 18.625 22.149 21.411 22.747 21.411 22.747 20.276"/><path class="cls-2" d="M24.5839,25.2779l3.6085,4.811A12.9642,12.9642,0,0,0,32.9747,20.5h-6A6.9809,6.9809,0,0,1,24.5839,25.2779Z"/><path class="cls-3" d="M20,27a6.9962,6.9962,0,0,1-.5-13.9747v-6A12.992,12.992,0,1,0,27.3912,30.688L23.7848,25.88A6.9516,6.9516,0,0,1,20,27Z"/><path class="cls-2" d="M26.9747,19.5h6A12.98,12.98,0,0,0,20.5,7.0253v6A7.0008,7.0008,0,0,1,26.9747,19.5Z"/><path class="cls-4" d="M14,20a6,6,0,1,0,6-6A6,6,0,0,0,14,20Zm8.1494-1.3751h1.8518v.5171H22.7466v.6173h1.1063v.5171H22.7466v1.1344h-.5972Zm-2.93,0h.5973v1.0983h1.0622V18.6249h.5973v2.7859h-.5973V20.2563H19.8165v1.1545h-.5973Zm-1.7837-.0521a1.3149,1.3149,0,0,1,1.3068.91l-.5732.2325a.726.726,0,0,0-.75-.5772.8824.8824,0,0,0,.004,1.76.718.718,0,0,0,.7456-.5772l.5732.2325a1.309,1.309,0,0,1-1.3108.91,1.4451,1.4451,0,0,1,.004-2.89Z"/></g></svg>