<?xml version="1.0" encoding="UTF-8"?><svg id="Calque_1" data-name="Calque 1" xmlns="http://www.w3.org/2000/svg" viewBox="0 0 40 40" focusable="false" aria-hidden="true"><defs><style>.cls-1 {
        fill: none;
      }

      .cls-2 {
        fill: #000d6e;
      }

      .cls-3 {
        fill: #6c2273;
      }

      .cls-4 {
        fill: #aba5cd;
      }</style></defs><path class="cls-1" d="M0,0H40V40H0V0Z"/><path class="cls-3" d="M8.94,20.5h4.09c-.01-.17-.02-.33-.02-.5s.01-.33,.02-.5h-4.09c-.28-1.63-1.82-2.73-3.46-2.46s-2.73,1.82-2.46,3.46,1.82,2.73,3.46,2.46c1.26-.21,2.25-1.2,2.46-2.46Zm5.75,4.04l-2.85,2.85c-1.35-.96-3.22-.64-4.18,.71s-.64,3.22,.71,4.18c1.35,.96,3.22,.64,4.18-.71,.74-1.04,.74-2.44,0-3.48l2.85-2.85c-.25-.22-.49-.46-.7-.71Zm5.82,6.55v-4.11c-.17,.01-.33,.02-.5,.02s-.33-.01-.5-.02v4.11c-1.63,.28-2.73,1.82-2.46,3.46,.28,1.63,1.82,2.73,3.46,2.46s2.73-1.82,2.46-3.46c-.21-1.26-1.2-2.25-2.46-2.46Zm4.75-15.7l2.94-2.93c1.35,.96,3.22,.64,4.18-.71,.96-1.35,.64-3.22-.71-4.18-1.35-.96-3.22-.64-4.18,.71-.74,1.04-.74,2.44,0,3.48l-2.94,2.94c.25,.22,.49,.45,.71,.7Zm8.76,1.61c-1.46,0-2.71,1.06-2.95,2.5h-4.09c.01,.17,.02,.33,.02,.5s-.01,.33-.02,.5h4.09c.28,1.63,1.83,2.73,3.46,2.45,1.63-.28,2.73-1.83,2.45-3.46-.25-1.44-1.5-2.49-2.96-2.49Zm-5.79,10.46l-2.92-2.92c-.22,.25-.45,.49-.7,.71l2.91,2.91c-.96,1.35-.64,3.22,.71,4.18,1.35,.96,3.22,.64,4.18-.71,.96-1.35,.64-3.22-.71-4.18-1.04-.74-2.44-.74-3.48,0ZM20,3.01c-1.65,0-3,1.33-3.01,2.98,0,1.47,1.06,2.73,2.51,2.97v4.06c.17-.01,.33-.02,.5-.02s.33,.01,.5,.02v-4.06c1.63-.27,2.74-1.81,2.47-3.44-.24-1.45-1.5-2.51-2.97-2.51Zm-7.74,4.96c-1.17-1.18-3.07-1.18-4.24-.01-1.18,1.17-1.18,3.07-.01,4.24,1.03,1.04,2.67,1.18,3.87,.33l2.87,2.87c.22-.25,.46-.49,.71-.7l-2.87-2.87c.85-1.19,.71-2.82-.32-3.85h0Z"/><path class="cls-4" d="M20,14c-3.31,0-6,2.69-6,6s2.69,6,6,6,6-2.69,6-6-2.69-6-6-6Zm.54,5.18l-.06,.61h-1.79c0,.08,0,.16,0,.25s0,.16,0,.24h1.71l-.06,.61h-1.52c.24,.66,.76,1,1.41,1,.81,0,1.22-.43,1.39-1.07l.86,.26c-.24,.91-.94,1.64-2.27,1.64-1.22,0-2.12-.65-2.41-1.83h-.68l.07-.61h.52c0-.08,0-.16,0-.24s0-.17,0-.25h-.45l.06-.61h.5c.31-1.14,1.25-1.83,2.41-1.83,1.31,0,2.02,.78,2.25,1.68l-.87,.23c-.17-.61-.6-1.08-1.36-1.08-.66,0-1.18,.36-1.41,1.01h1.71Z"/><path class="cls-2" d="M20.54,19.18l-.06,.61h-1.79c0,.08,0,.16,0,.25s0,.16,0,.24h1.71l-.06,.61h-1.52c.24,.66,.76,1,1.41,1,.81,0,1.22-.43,1.39-1.07l.86,.26c-.24,.91-.94,1.64-2.27,1.64-1.22,0-2.12-.65-2.41-1.83h-.68l.07-.61h.52c0-.08,0-.16,0-.24s0-.17,0-.25h-.45l.06-.61h.5c.31-1.14,1.25-1.83,2.41-1.83,1.31,0,2.02,.78,2.25,1.68l-.87,.23c-.17-.61-.6-1.08-1.36-1.08-.66,0-1.18,.36-1.41,1.01h1.71Z"/></svg>