<?xml version="1.0" encoding="UTF-8"?><svg xmlns="http://www.w3.org/2000/svg" viewBox="0 0 40 40" focusable="false" aria-hidden="true"><defs><style>.uuid-e54770b2-209f-4944-8ccb-374c0080cad7{fill:none;}.uuid-e322841f-e681-43e4-b1f2-6940f6edd43e{fill:#000d6e;}.uuid-6031b2d9-3fdc-4853-889a-6f06ab5656c3{fill:#ffaca6;}.uuid-ced1f007-00ea-40c1-acd1-07c10e49e828{fill:#d9304c;}</style></defs><g id="uuid-890df4a0-36ff-4c61-9c6e-3a0131d8f01e"><rect class="uuid-e54770b2-209f-4944-8ccb-374c0080cad7" width="40" height="40"/></g><g id="uuid-b9cf4bd3-4c34-4017-8d9a-480456204028"><path class="uuid-e54770b2-209f-4944-8ccb-374c0080cad7" d="M14.13,16.16l-3.39,3.38,3.38-3.37,3.38,3.37c.16,.16,.36,.23,.57,.23-.2,0-.4-.08-.56-.23l-3.39-3.38Z"/><path class="uuid-6031b2d9-3fdc-4853-889a-6f06ab5656c3" d="M19.49,9.91c.08-.48-.29-.92-.78-.92H9.47c-.49,0-.86,.44-.78,.92l.64,3.84h9.52l.64-3.84Z"/><path class="uuid-ced1f007-00ea-40c1-acd1-07c10e49e828" d="M9.62,19.53c.31,.31,.82,.31,1.13,0l3.39-3.38,3.39,3.38c.15,.15,.36,.23,.56,.23,.21,0,.41-.08,.57-.23,.31-.31,.31-.81,0-1.12l-2.29-2.29-.79-.79h3.29v-1.59H9.33v1.59h3.38l-3.09,3.08c-.31,.31-.31,.81,0,1.12Z"/><path class="uuid-e322841f-e681-43e4-b1f2-6940f6edd43e" d="M10.36,24.76c.59,0,.94,.33,1.08,.83l.83-.34c-.21-.68-.85-1.32-1.89-1.32-1.18,0-2.07,.88-2.07,2.09s.89,2.09,2.07,2.09c1.03,0,1.67-.61,1.9-1.32l-.83-.34c-.14,.51-.49,.83-1.08,.83-.7,0-1.18-.51-1.18-1.27s.49-1.28,1.18-1.28Z"/><polygon class="uuid-e322841f-e681-43e4-b1f2-6940f6edd43e" points="15.36 25.6 13.82 25.6 13.82 24.01 12.96 24.01 12.96 28.04 13.82 28.04 13.82 26.37 15.36 26.37 15.36 28.04 16.22 28.04 16.22 24.01 15.36 24.01 15.36 25.6"/><polygon class="uuid-e322841f-e681-43e4-b1f2-6940f6edd43e" points="17.2 28.04 18.06 28.04 18.06 26.4 19.66 26.4 19.66 25.65 18.06 25.65 18.06 24.76 19.87 24.76 19.87 24.01 17.2 24.01 17.2 28.04"/><path class="uuid-e54770b2-209f-4944-8ccb-374c0080cad7" d="M29.1,21.73l-2.21,2.2,2.21-2.2,2.21,2.2c.1,.1,.24,.15,.37,.15-.13,0-.26-.05-.36-.15l-2.21-2.2Z"/><path class="uuid-6031b2d9-3fdc-4853-889a-6f06ab5656c3" d="M32.59,17.66c.05-.32-.19-.6-.51-.6h-6.02c-.32,0-.56,.29-.51,.6l.42,2.5h6.21l.42-2.5Z"/><path class="uuid-6031b2d9-3fdc-4853-889a-6f06ab5656c3" d="M22.88,25.1s.08-.2,.22-.49c-.96-4.21-4.02-8.47-4.25-8.47-.55,0-1.45,0-2.5,0l2.29,2.29c.31,.31,.31,.81,0,1.12-.16,.16-.36,.23-.57,.23-.21,0-.41-.08-.57-.23l-3.38-3.37-3.38,3.37c-.31,.31-.82,.31-1.13,0-.31-.31-.31-.81,0-1.12l2.29-2.29c-1.05,0-1.95,0-2.51,0-.35,0-7.57,10.31-3.07,14.71,.7,.69,1.63,1.15,2.69,1.15h10.21c1.05,0,1.99-.46,2.69-1.15,.14-.14,.27-.28,.39-.43-.4-1.19-.41-2.9,.58-5.32Zm-12.52,2.2c.59,0,.94-.32,1.08-.83l.83,.34c-.22,.7-.86,1.32-1.9,1.32-1.18,0-2.07-.88-2.07-2.09s.89-2.09,2.07-2.09c1.04,0,1.67,.64,1.89,1.32l-.83,.34c-.14-.5-.49-.83-1.08-.83-.69,0-1.18,.51-1.18,1.28s.49,1.27,1.18,1.27Zm5.86,.74h-.86v-1.67h-1.54v1.67h-.86v-4.03h.86v1.59h1.54v-1.59h.86v4.03Zm3.65-3.28h-1.81v.89h1.6v.75h-1.6v1.64h-.86v-4.03h2.68v.75Z"/><path class="uuid-ced1f007-00ea-40c1-acd1-07c10e49e828" d="M26.15,23.93c.2,.2,.53,.2,.73,0l2.21-2.2,2.21,2.2c.1,.1,.23,.15,.36,.15,.13,0,.27-.05,.37-.15,.2-.2,.2-.53,0-.73l-1.5-1.49-.52-.52h2.14v-1.03h-6.21v1.03h2.2l-2.01,2.01c-.2,.2-.2,.53,0,.73Z"/><path class="uuid-6031b2d9-3fdc-4853-889a-6f06ab5656c3" d="M32.17,21.71c-.36,0-.95,0-1.63,0l1.5,1.49c.2,.2,.2,.53,0,.73-.1,.1-.24,.15-.37,.15-.13,0-.27-.05-.37-.15l-2.21-2.2-2.21,2.2c-.2,.2-.53,.2-.73,0-.2-.2-.2-.53,0-.73l1.5-1.49c-.68,0-1.27,0-1.63,0-.23,0-4.94,6.72-2,9.6,.46,.45,1.07,.75,1.75,.75h6.66c.69,0,1.29-.3,1.75-.75,2.93-2.87-1.77-9.6-2-9.6Z"/></g></svg>