<svg xmlns="http://www.w3.org/2000/svg" viewBox="0 0 40 40" focusable="false" aria-hidden="true"><g id="Solid"><rect width="40" height="40" fill="none"/></g><g id="Icon_Purple" data-name="Icon Purple"><path d="M13.0246,19.5H8.9368a3,3,0,1,0,0,1h4.0879C13.0119,20.3345,13,20.1688,13,20S13.0118,19.6654,13.0246,19.5Z" fill="#6c2273"/><path d="M11.833,27.39a3,3,0,1,0,.7071.707l2.846-2.846a7.0471,7.0471,0,0,1-.7034-.7107Z" fill="#6c2273"/><path d="M19.5,26.9753v4.1109a3,3,0,1,0,1,0V26.9754c-.1655.0128-.3312.0246-.5.0246S19.6655,26.9881,19.5,26.9753Z" fill="#6c2273"/><path d="M28.1859,12.4508a3,3,0,1,0-.707-.707L24.54,14.6827a7.0462,7.0462,0,0,1,.7107.7033Z" fill="#6c2273"/><path d="M34.0128,17a2.9943,2.9943,0,0,0-2.95,2.5H26.9754c.0128.1654.0246.3312.0246.5s-.0119.3345-.0247.5h4.0879a2.9961,2.9961,0,1,0,2.95-3.5Z" fill="#6c2273"/><path d="M27.52,28.1712a3,3,0,1,0,.7071-.7069L25.31,24.5478a7.0542,7.0542,0,0,1-.7041.71Z" fill="#6c2273"/><path d="M20.5,13.0246V8.96a3,3,0,1,0-1,0v4.0649c.1655-.0127.3312-.0246.5-.0246S20.3345,13.0119,20.5,13.0246Z" fill="#6c2273"/><path d="M12.5806,11.8189a3,3,0,1,0-.707.707l2.8685,2.8683a7.0523,7.0523,0,0,1,.71-.7041Z" fill="#6c2273"/><path d="M24.5461,16.09a6.0513,6.0513,0,0,0-.71-.7028,5.9566,5.9566,0,0,0-3.3366-1.3628C20.3342,14.0109,20.1686,14,20,14s-.3342.0109-.4992.0245a5.9553,5.9553,0,0,0-3.3447,1.37,6.0265,6.0265,0,0,0-.7094.7036,5.9483,5.9483,0,0,0-1.4221,3.4024C14.0109,19.6657,14,19.8314,14,20s.0109.3342.0246.4992a5.9563,5.9563,0,0,0,1.3628,3.3366,6.0442,6.0442,0,0,0,.7029.71,5.947,5.947,0,0,0,3.4105,1.4294c.165.0137.3306.0246.4992.0246s.3342-.0109.4993-.0246a5.9487,5.9487,0,0,0,3.4027-1.4223,6.0481,6.0481,0,0,0,.7035-.7093,5.9553,5.9553,0,0,0,1.37-3.3446C25.9891,20.3342,26,20.1685,26,20s-.0109-.3343-.0246-.4993A5.9478,5.9478,0,0,0,24.5461,16.09Zm-3.83,7.5505v1.0147H19.418v-.9922a2.5019,2.5019,0,0,1-2.128-1.7783l1.462-.5459a1.3675,1.3675,0,0,0,1.3535,1.0586c.6,0,.9267-.2842.9267-.7315,0-1.4619-3.4472-.8506-3.4472-3.4258a1.967,1.967,0,0,1,1.833-1.9853V15.251h1.3086v1.0146a2.1823,2.1823,0,0,1,1.7783,1.5606l-1.4727.5556a1.048,1.048,0,0,0-1.0468-.8838c-.5674,0-.8516.2735-.8516.7208,0,1.3525,3.48.6435,3.48,3.3378A2.1164,2.1164,0,0,1,20.7158,23.6406Z" fill="#b8b2ff"/><path d="M19.1338,18.2188c0-.4473.2842-.7208.8516-.7208a1.048,1.048,0,0,1,1.0468.8838l1.4727-.5556a2.1823,2.1823,0,0,0-1.7783-1.5606V15.251H19.418v1.0039A1.967,1.967,0,0,0,17.585,18.24c0,2.5752,3.4472,1.9639,3.4472,3.4258,0,.4473-.3271.7315-.9267.7315a1.3675,1.3675,0,0,1-1.3535-1.0586l-1.462.5459a2.5019,2.5019,0,0,0,2.128,1.7783v.9922h1.2978V23.6406a2.1164,2.1164,0,0,0,1.8985-2.084C22.6143,18.8623,19.1338,19.5713,19.1338,18.2188Z" fill="#000d6e"/></g></svg>