<?xml version="1.0" encoding="UTF-8"?><svg id="Calque_1" data-name="Calque 1" xmlns="http://www.w3.org/2000/svg" viewBox="0 0 40 40" focusable="false" aria-hidden="true"><defs><style>.cls-1 {
        fill: none;
      }

      .cls-2 {
        fill: #000d6e;
      }

      .cls-3 {
        fill: #1b5951;
      }

      .cls-4 {
        fill: #94e3d4;
      }</style></defs><path class="cls-1" d="M0,0H40V40H0V0Z"/><g><path class="cls-4" d="M24.58,25.28l3.61,4.81c2.9-2.36,4.65-5.85,4.78-9.59h-6c-.13,1.85-.99,3.57-2.39,4.78Z"/><path class="cls-3" d="M20,27c-3.86,0-7-3.12-7.01-6.98,0-3.68,2.84-6.74,6.51-6.99V7.02c-7.17,.27-12.76,6.31-12.49,13.48,.27,7.17,6.31,12.76,13.48,12.49,2.47-.09,4.87-.89,6.9-2.3l-3.61-4.81c-1.13,.73-2.44,1.12-3.78,1.12Z"/><path class="cls-4" d="M26.98,19.5h6c-.26-6.78-5.7-12.22-12.47-12.47v6c3.47,.25,6.22,3.01,6.48,6.48Z"/></g><path class="cls-2" d="M20.03,14h0c-3.31-.02-6.02,2.65-6.03,5.97-.02,3.31,2.65,6.02,5.97,6.03,3.31,.02,6.02-2.65,6.03-5.97,.02-3.31-2.65-6.02-5.97-6.03Zm.53,4.9l-.09,.89h-1.93c0,.06-.01,.13-.01,.21,0,.08,0,.15,0,.23h1.87s-.09,.89-.09,.89h-1.5c.34,.52,.93,.83,1.56,.81,.63,.05,1.22-.27,1.51-.83l1.19,.81c-.6,.89-1.62,1.4-2.69,1.35-1.4,.04-2.66-.84-3.11-2.16h-.82s.09-.88,.09-.88h.57c0-.07-.01-.15,0-.22,0-.07,0-.14,.01-.22h-.5s.09-.89,.09-.89h.59c.47-1.32,1.74-2.18,3.14-2.12,1.07-.03,2.08,.49,2.67,1.37l-1.2,.79c-.29-.55-.89-.88-1.51-.84-.62-.03-1.22,.28-1.56,.8h1.73Z"/></svg>