<svg xmlns="http://www.w3.org/2000/svg" viewBox="0 0 40 40" focusable="false" aria-hidden="true"><defs><style>.cls-1{fill:none;}.cls-2{fill:#000d6e;}.cls-3{fill:#fa9319;}.cls-4{fill:#fae052;}</style></defs><g id="Solid"><rect class="cls-1" width="40" height="40"/></g><g id="Icon_Tangerine" data-name="Icon Tangerine"><path class="cls-1" d="M16.9894,30.5978c-.0271-.3025-.0495-.5882-.0708-.8686C16.94,30.01,16.9622,30.295,16.9894,30.5978Z"/><path class="cls-1" d="M17.3975,34.1558c.0578.4221.1221.8617.19,1.3125C17.52,35.0183,17.455,34.5771,17.3975,34.1558Z"/><path class="cls-1" d="M12.4271,14.5132v0l.0045-.0211Z"/><path class="cls-1" d="M22.6028,34.1538c-.0577.4224-.1226.8649-.1908,1.3161C22.48,35.0179,22.5449,34.5771,22.6028,34.1538Z"/><path class="cls-1" d="M17.1747,32.387q.07.6064.1551,1.26C17.2731,33.2119,17.2209,32.79,17.1747,32.387Z"/><path class="cls-1" d="M16.99,30.6c.0406.4542.09.9375.1455,1.4422C17.08,31.5383,17.03,31.0533,16.99,30.6Z"/><path class="cls-1" d="M14.2913,18.1128l.0042.0124c-.0321-.0926-.0647-.1846-.0941-.2791C14.2315,17.9349,14.2608,18.0242,14.2913,18.1128Z"/><path class="cls-1" d="M16.8412,28.5521q-.0181-.3343-.031-.6429C16.8187,28.1152,16.8292,28.329,16.8412,28.5521Z"/><path class="cls-1" d="M16.7734,26.31c-.0012-.58.0119-1.05.03-1.4058C16.7853,25.261,16.7725,25.73,16.7734,26.31Z"/><path class="cls-1" d="M16.8015,27.6832c-.0072-.1979-.0135-.3908-.0177-.572C16.7879,27.2925,16.7944,27.485,16.8015,27.6832Z"/><path class="cls-1" d="M16.78,26.9238c-.0034-.1789-.0063-.3556-.0071-.5173C16.7739,26.5683,16.777,26.7448,16.78,26.9238Z"/><path class="cls-1" d="M16.9031,29.5289c-.0185-.2566-.034-.5-.048-.7379C16.8691,29.0288,16.8846,29.2721,16.9031,29.5289Z"/><path class="cls-1" d="M23.1956,24.8772c.01.2013.0189.4448.0246.7191C23.2143,25.3222,23.206,25.0785,23.1956,24.8772Z"/><path class="cls-1" d="M23.2268,26.3788c-.0006.1544-.0031.3213-.006.4915C23.2236,26.7,23.2263,26.5333,23.2268,26.3788Z"/><path class="cls-1" d="M23.132,24.06c.0087.08.0348.3507.0621.7834C23.1718,24.4254,23.1449,24.1671,23.132,24.06Z"/><path class="cls-1" d="M23.2169,27.0809c-.0042.1818-.01.374-.0173.5728C23.2067,27.4547,23.2128,27.2628,23.2169,27.0809Z"/><path class="cls-1" d="M23.1469,28.7562c-.0143.2448-.03.496-.0491.7609C23.1168,29.2519,23.1327,29.0012,23.1469,28.7562Z"/><path class="cls-1" d="M23.191,27.8771c-.0086.211-.0189.43-.0313.6593C23.172,28.3069,23.1825,28.0883,23.191,27.8771Z"/><path class="cls-1" d="M23.01,30.6057c-.04.4526-.09.936-.1451,1.4382C22.92,31.5407,22.9692,31.0588,23.01,30.6057Z"/><path class="cls-1" d="M23.0829,29.7093c-.0216.2866-.0446.579-.0723.8887C23.0383,30.288,23.0613,29.9961,23.0829,29.7093Z"/><path class="cls-1" d="M22.8252,32.3879c-.0462.4037-.0985.8255-.1553,1.2607Q22.7554,32.9942,22.8252,32.3879Z"/><path class="cls-1" d="M23.2241,25.7667c.0019.1284.0021.2718.0023.4149C23.2261,26.0385,23.226,25.8951,23.2241,25.7667Z"/><path class="cls-1" d="M18.0006,38c-.1223-.6915-.23-1.3484-.33-1.9839C17.77,36.6522,17.8783,37.3086,18.0006,38Z"/><path class="cls-1" d="M16.8732,24.0381,16.8756,24s-.0416.2975-.0722.901c.03-.4928.0605-.7943.068-.8614Z"/><path class="cls-1" d="M23.13,24.0394l.0022.0183-.0049-.0392.0012.02Z"/><path class="cls-1" d="M27.6146,14.406v0c-.0063-.0273-.0105-.0549-.0176-.0817h0c.0071.0266.0115.055.0177.0822Z"/><path class="cls-1" d="M21.9994,38c.1222-.6909.23-1.3469.33-1.9826C22.23,36.6525,22.1216,37.309,21.9994,38Z"/><path class="cls-1" d="M12.89,13.5067c.0081-.0093.0156-.02.0239-.0284Z"/><path class="cls-1" d="M27.39,13.8124l-.026-.0456,0,0,0,0,.0262.0459Z"/><path class="cls-1" d="M15.0807,19.8371v0a7.1531,7.1531,0,0,0,1.91,2.1287l.0033.1338-.0033-.1338A7.1674,7.1674,0,0,1,15.0807,19.8371Z"/><path class="cls-1" d="M16.5217,7.8757a4.5366,4.5366,0,0,0-.6013.0578h0a4.54,4.54,0,0,1,.6025-.0579Z"/><path class="cls-1" d="M17.2208,7.918a4.5512,4.5512,0,0,0-.6728-.0443h0a4.5569,4.5569,0,0,1,.6731.0443Z"/><path class="cls-1" d="M15.7344,7.9684c-.1409.0281-.2771.06-.4088.0981h0c.1316-.0376.2683-.07.4091-.0981Z"/><path class="cls-1" d="M27.028,13.3641l.0226.0179Z"/><path class="cls-1" d="M15.16,8.1141c-.17.0543-.3343.1126-.488.1755l0,0c.1538-.0628.3186-.1214.4886-.1756Z"/><path class="cls-1" d="M13.249,13.2175c.02-.0107.0416-.0185.0624-.0278C13.29,13.1992,13.27,13.2065,13.249,13.2175Z"/><path class="cls-1" d="M17.9753,8.0865c-.1051-.0315-.2052-.05-.3073-.0743.1021.0236.2025.0429.3076.0745Z"/><polygon class="cls-1" points="26.647 13.142 26.647 13.142 26.647 13.142 26.647 13.142 26.647 13.142"/><path class="cls-2" d="M22.412,35.47c.0682-.4512.1331-.8937.1908-1.3161.0234-.1714.0453-.3384.0671-.5052.0568-.4352.1091-.857.1553-1.2607.0132-.1147.0271-.2317.04-.344.0552-.5022.1046-.9856.1451-1.4382L23.01,30.6a3.9352,3.9352,0,0,1-6.021-.0016l0,.0013c.0406.4537.09.9387.1455,1.4422.0125.1126.0264.23.04.3452.0462.4033.0984.8249.1551,1.26.022.168.0441.3362.0677.509.0575.4213.1223.8625.19,1.3125.0278.1831.0531.36.0826.5478.1.6355.2079,1.2924.33,1.9839h3.9988c.1222-.691.23-1.3475.33-1.9826C22.3589,35.83,22.3843,35.653,22.412,35.47Z"/><path class="cls-3" d="M17.5878,35.4683c-.0682-.4508-.1325-.89-.19-1.3125-.0236-.1728-.0457-.341-.0677-.509q-.0855-.654-.1551-1.26c-.0132-.1152-.0271-.2326-.04-.3452-.0556-.5047-.1049-.988-.1455-1.4422l0-.0013h0v0c-.0272-.3028-.05-.5879-.0708-.8686-.005-.0662-.0108-.1353-.0155-.2-.0185-.2568-.034-.5-.048-.7379-.0048-.08-.01-.1607-.0139-.2389-.012-.2231-.0225-.4369-.031-.6429-.0032-.077-.0059-.1513-.0087-.226-.0071-.1982-.0136-.3907-.0177-.572-.0016-.0649-.0024-.1246-.0035-.1874-.0033-.179-.0064-.3555-.0071-.5173,0-.0339,0-.063,0-.0961-.0009-.58.0119-1.0494.03-1.4058l0-.0032v0c.0306-.6035.0722-.901.0722-.901L14.41,25.246l-7.506,3.7925a4.0039,4.0039,0,0,0-2.1673,3.077L4.0006,38h14c-.1223-.6914-.23-1.3478-.33-1.9839C17.6409,35.8282,17.6156,35.6514,17.5878,35.4683Z"/><path class="cls-3" d="M35.2638,32.1155a4.0039,4.0039,0,0,0-2.1673-3.077l-7.506-3.7925L23.1244,24l.0024.0182v0l.0049.0392,0,.0011,0,.0016c.0129.1067.04.365.0621.7834l0,.0006.0014.0328c.01.2013.0187.445.0246.7191.0012.0579.0029.1091.0039.17.0019.1284.002.2718.0023.4149,0,.0661.0007.128,0,.1972-.0005.1545-.0032.3212-.006.4915-.0013.07-.0022.1379-.0039.2106-.0041.1819-.01.3738-.0173.5728-.0026.0735-.0054.1475-.0086.2234-.0085.2112-.019.43-.0313.6593-.0039.0718-.0085.1462-.0128.22-.0142.245-.03.4957-.0491.7609-.0045.0623-.01.1288-.0149.1922-.0216.2868-.0446.5787-.0723.8887l0,.0019h0l-.0006.0058c-.0406.4531-.09.935-.1451,1.4382-.0124.1123-.0263.2293-.04.344q-.07.6069-.1553,1.2607c-.0218.1668-.0437.3338-.0671.5052-.0579.4233-.1224.8641-.1908,1.3161-.0277.1831-.0531.36-.0826.5475-.1.6357-.2078,1.2917-.33,1.9826h14Z"/><path class="cls-2" d="M16.9944,22.1l-.0033-.1338a7.1531,7.1531,0,0,1-1.91-2.1287v0a9.0987,9.0987,0,0,1-.7852-1.7119l-.0042-.0124c-.03-.0886-.06-.1779-.09-.2667a10.0666,10.0666,0,0,1-.2577-.9762.9357.9357,0,0,1-.24.0348c-.7321,0-1.3256-.8528-1.3256-1.9047a2.6585,2.6585,0,0,1,.0492-.4867v0l.0045-.021a2.0776,2.0776,0,0,1,.4581-.9855l.0239-.0284a1.2674,1.2674,0,0,1,.3354-.2608c.0205-.011.0414-.0183.0624-.0278a.9578.9578,0,0,1,.3921-.0944l.0046.0006c-.01-1.3281-.0228-3.0613-.0269-3.6033a5.8991,5.8991,0,0,1,.0521-.7682c.2679-.1294.5812-.2887.938-.4347l0,0c.1537-.0629.318-.1212.488-.1755h0c.0541-.0173.11-.0317.1657-.0476h0c.1317-.0377.2679-.07.4088-.0981h0c.0617-.0123.1223-.0248.1857-.0349h0a4.5366,4.5366,0,0,1,.6013-.0578l.0012,0,.025-.0019h0a4.5512,4.5512,0,0,1,.6728.0443h0c.1442.0191.2963.0594.447.0942.1021.024.2022.0428.3073.0743l0,0a5.6586,5.6586,0,0,1,1.025.4132c.4889.2569,1.0266.5334,1.58.8147,1.7119.87,3.5847,1.79,4.7391,2.3518.53.2584.9076.4409,1.0469.5082.0024.3172.0046.6287.0068.9224a.9465.9465,0,0,1,.2733.0453h0l0,0a1.1294,1.1294,0,0,1,.3813.2217l.0226.0179a1.6044,1.6044,0,0,1,.3128.3845l0,0,0,0,.026.0456h0a2.1917,2.1917,0,0,1,.2074.5116h0c.0071.0268.0113.0544.0176.0817v0l0,0A2.6349,2.6349,0,0,1,27.6869,15c0,1.0519-.5935,1.9047-1.3256,1.9047a.9315.9315,0,0,1-.2014-.0292,8.2435,8.2435,0,0,1-3.1566,5.1672L23.1257,24l4.3821,2.2141,3.2213,1.6276c1.32-.8919,1.9539-1.9182,1.3866-2.8462-.9449-1.5452-1.3338-4.7536-1.925-7.9209a62.0964,62.0964,0,0,0-2.2028-9.14c-.71-2.6951-2.7992-5.7-7.9-5.87-3.7672,0-6.89,2.353-7.52,4.96-.9269,2.5368-3.2708,10.3549.33,16.6307a7.18,7.18,0,0,0,1.3411,1.6782l.1707-.0863L16.8756,24Z"/><path class="cls-4" d="M26.16,16.8755a.9315.9315,0,0,0,.2014.0292c.7321,0,1.3256-.8528,1.3256-1.9047a2.6349,2.6349,0,0,0-.0722-.5938c-.0062-.0272-.0106-.0556-.0177-.0822a2.1917,2.1917,0,0,0-.2074-.5116l-.0262-.0459a1.6044,1.6044,0,0,0-.3128-.3845l-.0226-.0179a1.1294,1.1294,0,0,0-.3813-.2217l0,0a.9465.9465,0,0,0-.2733-.0453c-.0022-.2937-.0044-.6052-.0068-.9224-.1393-.0673-.5165-.25-1.0469-.5082-1.1544-.5623-3.0272-1.4816-4.7391-2.3518-.5532-.2813-1.0909-.5578-1.58-.8147a5.6586,5.6586,0,0,0-1.025-.4132c-.1051-.0316-.2055-.0509-.3076-.0745-.1507-.0348-.3028-.0751-.447-.0942a4.5569,4.5569,0,0,0-.6731-.0443l-.025.0019a4.54,4.54,0,0,0-.6025.0579c-.0634.01-.124.0226-.1857.0349-.1408.0281-.2775.0605-.4091.0981-.0558.0159-.1116.03-.1657.0476-.17.0542-.3348.1128-.4886.1756-.3568.146-.67.3053-.938.4347a5.8991,5.8991,0,0,0-.0521.7682c.0041.542.0171,2.2752.0269,3.6033l-.0046-.0006a.9578.9578,0,0,0-.3921.0944c-.0208.0093-.042.0171-.0624.0278a1.2674,1.2674,0,0,0-.3354.2608c-.0083.0089-.0158.0191-.0239.0284a2.0776,2.0776,0,0,0-.4581.9855l-.0045.0211A2.6585,2.6585,0,0,0,12.3779,15c0,1.0519.5935,1.9047,1.3256,1.9047a.9357.9357,0,0,0,.24-.0348,10.0666,10.0666,0,0,0,.2577.9762c.0294.0945.062.1865.0941.2791a9.0987,9.0987,0,0,0,.7852,1.7119,7.1674,7.1674,0,0,0,1.91,2.1288l.0033.1338L16.8756,24l-.0024.0381-.0018.0015c-.0075.0671-.0381.3686-.068.8614v0l0,.0032c-.018.3561-.0311.8262-.03,1.4058,0,.0331,0,.0622,0,.0961.0008.1617.0037.3384.0071.5173.0011.0628.0019.1225.0035.1874.0042.1812.0105.3741.0177.572.0028.0747.0055.149.0087.226q.0129.3086.031.6429c.0043.0782.0091.1586.0139.2389.014.2377.0295.4813.048.7379.0047.065.0105.1341.0155.2.0213.28.0437.5661.0708.8686v0h0A3.9352,3.9352,0,0,0,23.01,30.6h0l0-.0019c.0277-.31.0507-.6021.0723-.8887.0047-.0634.01-.13.0149-.1922.0191-.2649.0348-.5161.0491-.7609.0043-.0736.0089-.148.0128-.22.0124-.2293.0227-.4483.0313-.6593.0032-.0759.006-.15.0086-.2234.0072-.1988.0131-.391.0173-.5728.0017-.0727.0026-.1407.0039-.2106.0029-.17.0054-.3371.006-.4915,0-.0692,0-.1311,0-.1972,0-.1431,0-.2865-.0023-.4149-.001-.0613-.0027-.1125-.0039-.17-.0057-.2743-.0142-.5178-.0246-.7191l-.0014-.0328,0-.0006c-.0273-.4327-.0534-.7032-.0621-.7834l0-.0016,0-.0011-.0022-.0183-.0015-.0013-.0012-.02v0L23.1244,24l.0013.0006-.1224-1.9579A8.2435,8.2435,0,0,0,26.16,16.8755Z"/></g></svg>