<svg xmlns="http://www.w3.org/2000/svg" viewBox="0 0 40 40" focusable="false" aria-hidden="true"><g id="Solid"><rect width="40" height="40" fill="none"/></g><g id="Icon_Tangerine" data-name="Icon Tangerine"><path d="M23.1057,30.8334c.0052-.0658.01-.1308.015-.1959a4.2551,4.2551,0,0,1-6.2414,0l.0122.1594c.0309.3913.0654.791.1085,1.2081C17.5,36.8458,18,38,18,38h4s.5-1.1542,1-5.995C23.0417,31.601,23.0754,31.2133,23.1057,30.8334Z" fill="#000d6e"/><path d="M16.8314,29.9437q.0209.3393.0479.6938a4.2551,4.2551,0,0,0,6.2414,0q.0269-.3546.0479-.6938a43.6005,43.6005,0,0,0,.0584-4.458C23.187,24.5339,23.1251,24,23.1251,24l.013-1.9592A8.2026,8.2026,0,0,0,26.4362,16.88a1.0043,1.0043,0,0,0,.1784.0247C27.38,16.9047,28,16.0519,28,15a1.91,1.91,0,0,0-1-1.8207v.3217a.5176.5176,0,0,1-.499.499.499.499,0,0,1-.499-.499V11.87c0-.0725-.0059-.1349-.0076-.2047-.0535-.0924-.1165-.1854-.1767-.2784A6.0957,6.0957,0,0,0,24.44,9.8859a5.394,5.394,0,0,1-3.94.1252,9.1694,9.1694,0,0,1-1.5921-.6965,5.2592,5.2592,0,0,1-.9664-.6858,10.6824,10.6824,0,0,0-2.3836.6858c-.5411.2262-.9809.4546-1.3307.625a7.2823,7.2823,0,0,0-.2011,1.235c-.0172.2171-.0281.4473-.0281.6953V13.501a.4989.4989,0,0,1-.499.499.472.472,0,0,1-.0811-.0164A.4925.4925,0,0,1,13,13.501v-.3217A1.91,1.91,0,0,0,12,15c0,1.0519.62,1.9047,1.3854,1.9047a1.028,1.028,0,0,0,.2716-.0376A8.241,8.241,0,0,0,16.89,22h-.0255l.01,2s-.062.5339-.1019,1.4857A43.5948,43.5948,0,0,0,16.8314,29.9437Z" fill="#fae052"/><path d="M16.8915,30.7969l-.0122-.1594q-.0269-.3547-.0479-.6938a43.5948,43.5948,0,0,1-.0583-4.458c.04-.9518.1019-1.4857.1019-1.4857l-.1458.0737L6.9029,29.0385a4.0039,4.0039,0,0,0-2.1673,3.077L4,38H18s-.5-1.1542-1-5.995C16.9569,31.5879,16.9224,31.1882,16.8915,30.7969Z" fill="#fa9319"/><path d="M35.2645,32.1155a4.0041,4.0041,0,0,0-2.1674-3.077L23.1251,24s.0619.5339.1019,1.4857a43.6005,43.6005,0,0,1-.0584,4.458q-.0209.3393-.0479.6938c-.0049.0651-.01.13-.015.1959-.03.38-.064.7676-.1057,1.1716C22.5,36.8458,22,38,22,38H36Z" fill="#fa9319"/><path d="M13.4179,13.9836A.472.472,0,0,0,13.499,14a.4989.4989,0,0,0,.499-.499V11.87c0-.248.0109-.4782.0281-.6953a7.2823,7.2823,0,0,1,.2011-1.235c.35-.17.79-.3988,1.3307-.625a10.6824,10.6824,0,0,1,2.3836-.6858,5.2592,5.2592,0,0,0,.9664.6858,9.1694,9.1694,0,0,0,1.5921.6965,5.394,5.394,0,0,0,3.94-.1252,6.0957,6.0957,0,0,1,1.3775,1.5009c.06.093.1232.186.1767.2784.0017.07.0076.1322.0076.2047V13.501a.499.499,0,0,0,.499.499A.522.522,0,0,0,27,13.501V11.3434A32.7816,32.7816,0,0,0,27,8c-.1451-1.4362-2.8347-5-7-5s-7,3.1433-7,6v4.501A.4925.4925,0,0,0,13.4179,13.9836Z" fill="#000d6e"/></g></svg>