<svg xmlns="http://www.w3.org/2000/svg" viewBox="0 0 40 40" focusable="false" aria-hidden="true"><defs><style>.cls-1{fill:none;}.cls-2{fill:#94e3d4;}.cls-3{fill:#000d6e;}.cls-4{fill:#1b5951;}</style></defs><g id="Solid"><rect class="cls-1" width="40" height="40"/></g><g id="Icon_Green" data-name="Icon Green"><polygon class="cls-1" points="7.589 19.005 17.018 19.005 17.018 13.98 13.185 13.98 7.589 19.005"/><path class="cls-2" d="M11,23a3,3,0,1,0,3,3A3,3,0,0,0,11,23Zm0,4.5A1.5,1.5,0,1,1,12.5,26,1.5,1.5,0,0,1,11,27.5Z"/><circle class="cls-3" cx="11" cy="26" r="1.5"/><path class="cls-2" d="M31,23a3,3,0,1,0,3,3A3,3,0,0,0,31,23Zm0,4.5A1.5,1.5,0,1,1,32.5,26,1.5,1.5,0,0,1,31,27.5Z"/><circle class="cls-3" cx="31" cy="26" r="1.5"/><path class="cls-2" d="M5.8882,20.9828a.9484.9484,0,0,0-.9441-.9528A2.0668,2.0668,0,0,0,4,21.9355h.9441A.9485.9485,0,0,0,5.8882,20.9828Z"/><path class="cls-4" d="M17.5088,13H12.9967a.4936.4936,0,0,0-.3291.1259L6.0024,19.1107,4.9441,20.03a.9528.9528,0,0,1,0,1.9055H4v3.1071A.9508.9508,0,0,0,4.9441,26H7.0126c0-.0107-.0032-.02-.0032-.0312a4.0125,4.0125,0,0,1,8.0249,0c0,.01-.0028.0187-.0029.0284H17.99V19.3983A.4413.4413,0,0,0,18,19.35V13.49A.4907.4907,0,0,0,17.5088,13Zm-.4913,6.0052H7.5889L13.1853,13.98h3.8322Z"/><path class="cls-4" d="M19,20v6h8.0012a3.9988,3.9988,0,0,1,7.9976,0h1.0943A.907.907,0,0,0,37,25.0928V20Z"/><path class="cls-2" d="M27,15a1,1,0,0,0-1-1H20a1,1,0,0,0-1,1v4h8Z"/><path class="cls-2" d="M36,15a1,1,0,0,0-1-1H29a1,1,0,0,0-1,1v4h8Z"/></g></svg>