<svg xmlns="http://www.w3.org/2000/svg" viewBox="0 0 40 40" focusable="false" aria-hidden="true"><defs><style>.cls-1{fill:none;}.cls-2{fill:#ffaca6;}.cls-3{fill:#000d6e;}.cls-4{fill:#d9304c;}</style></defs><g id="Solid"><rect class="cls-1" width="40" height="40"/></g><g id="Icon_Red" data-name="Icon Red"><polygon class="cls-1" points="7.589 19.005 17.017 19.005 17.017 13.98 13.185 13.98 7.589 19.005"/><path class="cls-2" d="M11,22.9987a3,3,0,1,0,3,3A3,3,0,0,0,11,22.9987Zm0,4.5a1.5,1.5,0,1,1,1.5-1.5A1.5,1.5,0,0,1,11,27.4987Z"/><circle class="cls-3" cx="11" cy="26" r="1.5"/><path class="cls-2" d="M31.0317,22.9987a3,3,0,1,0,3,3A3,3,0,0,0,31.0317,22.9987Zm0,4.5a1.5,1.5,0,1,1,1.5-1.5A1.5,1.5,0,0,1,31.0317,27.4987Z"/><circle class="cls-3" cx="31" cy="26" r="1.5"/><path class="cls-2" d="M5.8882,20.9828a.9484.9484,0,0,0-.9441-.9528A2.0668,2.0668,0,0,0,4,21.9355h.9441A.9485.9485,0,0,0,5.8882,20.9828Z"/><path class="cls-4" d="M17.5087,13h-4.512a.4939.4939,0,0,0-.3292.1259L6.0024,19.1107,4.9441,20.03a.9528.9528,0,0,1,0,1.9055H4v3.1071A.9507.9507,0,0,0,4.944,26H7.0125c0-.0107-.0032-.02-.0032-.0312a4.0125,4.0125,0,0,1,8.025,0c0,.01-.0029.0187-.0029.0284H17.99V19.3983A.466.466,0,0,0,18,19.35V13.49A.4907.4907,0,0,0,17.5087,13Zm-.4912,6.0052H7.5888L13.1852,13.98h3.8323Z"/><path class="cls-4" d="M19,20v6h8.0012a3.9988,3.9988,0,0,1,7.9976,0h1.0943A.907.907,0,0,0,37,25.0928V20Z"/><path class="cls-2" d="M27,15a1,1,0,0,0-1-1H20a1,1,0,0,0-1,1v4h8Z"/><path class="cls-2" d="M36,15a1,1,0,0,0-1-1H29a1,1,0,0,0-1,1v4h8Z"/></g></svg>