<?xml version="1.0" encoding="iso-8859-1"?><!--Generator: Adobe Illustrator 26.2.1, SVG Export Plug-In . SVG Version: 6.00 Build 0)--><svg version="1.1" xmlns="http://www.w3.org/2000/svg" xmlns:xlink="http://www.w3.org/1999/xlink" x="0px" y="0px" viewBox="0 0 40 40" style="enable-background:new 0 0 40 40" xml:space="preserve" focusable="false" aria-hidden="true"><g id="Solid"><rect style="fill:none" width="40" height="40"/></g><g id="Icon_Green"><path style="fill:#94E3D4" d="M32.433,16H16.567C15.702,16,15,16.709,15,17.584v8.832C15,27.291,15.702,28,16.567,28h15.865
		C33.298,28,34,27.291,34,26.416v-8.832C34,16.709,33.298,16,32.433,16z"/><path style="fill:#1B5951" d="M6,31v1.974C6,33.541,6.459,34,7.026,34h11.948C19.541,34,20,33.541,20,32.974V31"/><g><circle style="fill:none" cx="17.488" cy="8.5" r="0.5"/><path style="fill:#94E3D4" d="M15.5,8h-5C10.224,8,10,8.224,10,8.5C10,8.776,10.224,9,10.5,9h5C15.776,9,16,8.776,16,8.5
			C16,8.224,15.776,8,15.5,8z"/><path style="fill:#1B5951" d="M19.064,7H6.936C6.419,7,6,7.419,6,7.936V10h14V7.936C20,7.419,19.581,7,19.064,7z M15.5,9h-5
			C10.224,9,10,8.776,10,8.5C10,8.224,10.224,8,10.5,8h5C15.776,8,16,8.224,16,8.5C16,8.776,15.776,9,15.5,9z M17.488,9
			c-0.276,0-0.5-0.224-0.5-0.5c0-0.276,0.224-0.5,0.5-0.5c0.276,0,0.5,0.224,0.5,0.5C17.988,8.776,17.765,9,17.488,9z"/></g><circle style="fill:#94E3D4" cx="17.488" cy="8.5" r="0.5"/><path style="fill:#94E3D4" d="M20,31v-2h-3.433C15.152,29,14,27.841,14,26.416v-8.832C14,16.159,15.152,15,16.567,15H20v-5H6v21"/><path style="fill:#1B5951" d="M17.375,23.421c0-0.793,0.309-1.539,0.869-2.1c0.116-0.116,0.116-0.304,0-0.42s-0.304-0.116-0.42,0
		c-0.673,0.673-1.043,1.568-1.043,2.519s0.371,1.846,1.043,2.519c0.058,0.058,0.134,0.087,0.21,0.087s0.152-0.029,0.21-0.087
		c0.116-0.116,0.116-0.304,0-0.42C17.684,24.96,17.375,24.214,17.375,23.421z"/><path style="fill:#1B5951" d="M18.565,23.422c0-0.477,0.186-0.925,0.523-1.262c0.116-0.116,0.116-0.304,0-0.42
		s-0.304-0.116-0.42,0c-0.449,0.449-0.697,1.047-0.697,1.682s0.248,1.233,0.697,1.683c0.058,0.058,0.134,0.087,0.21,0.087
		s0.152-0.029,0.21-0.087c0.116-0.116,0.116-0.304,0-0.42C18.751,24.347,18.565,23.899,18.565,23.422z"/><path style="fill:#1B5951" d="M19.928,22.579c-0.116-0.116-0.304-0.116-0.42,0c-0.464,0.465-0.464,1.221,0,1.686
		c0.058,0.058,0.134,0.087,0.21,0.087s0.152-0.029,0.21-0.087c0.116-0.116,0.116-0.304,0-0.42c-0.233-0.233-0.233-0.613,0-0.846
		C20.044,22.883,20.044,22.695,19.928,22.579z"/><circle style="fill:#000D6E" cx="13" cy="31" r="1"/><path style="fill:#1B5951" d="M20,31H6C6,31,19.959,31,20,31z"/><path style="fill:#000D6E" d="M30.268,17.836c-0.07-0.07-0.183-0.07-0.252,0l-1.898,1.898c-0.07,0.07-0.07,0.183,0,0.252
		l1.898,1.898c0.07,0.07,0.183,0.07,0.252,0l1.053-1.053l-0.641-0.641l-0.538,0.538l-0.868-0.868l0.868-0.868l1.51,1.51l0.515-0.515
		c0.07-0.07,0.07-0.183,0-0.252L30.268,17.836z"/></g><g id="Guides" style="display:none"/><g id="Grid" style="display:none"><g style="display:inline"><g/><g/><g/><g/><g/><g/><g/><g/><g/><g/><g/><g/><g/><g/><g/><g/><g/><g/><g/><g/><g/><g/><g/><g/><g/><g/><g/><g/><g/><g/><g/><g/><g/><g/><g/><g/><g/><g/><g/><g/></g></g></svg>