<svg xmlns="http://www.w3.org/2000/svg" viewBox="0 0 40 40" focusable="false" aria-hidden="true"><defs><style>.cls-1{fill:none;}.cls-2{fill:#1b5951;}.cls-3{fill:#000d6e;}.cls-4{fill:#94e3d4;}</style></defs><g id="Solid"><rect class="cls-1" width="40" height="40"/></g><g id="Icon"><rect class="cls-2" x="17" y="13" width="6" height="19"/><path class="cls-3" d="M11,18h5a0,0,0,0,1,0,0V32a0,0,0,0,1,0,0H11a1,1,0,0,1-1-1V19A1,1,0,0,1,11,18Z"/><path class="cls-4" d="M24,8h5a1,1,0,0,1,1,1V31a1,1,0,0,1-1,1H24a0,0,0,0,1,0,0V8A0,0,0,0,1,24,8Z"/></g></svg>