<?xml version="1.0" encoding="UTF-8"?><svg xmlns="http://www.w3.org/2000/svg" viewBox="0 0 40 40" focusable="false" aria-hidden="true"><g id="uuid-75b4691b-cc83-4aeb-a793-adcacffb976b"><rect width="40" height="40" fill="none"/></g><g id="uuid-da57de6d-8ab0-478f-8dfc-022670accbfb"><path d="M7.91,17.98h-1.91v11.02h1.91c.6,0,1.09-.67,1.09-1.49v-8.03c0-.83-.49-1.49-1.09-1.49Z" fill="#fae052"/><path d="M33.3,10.88l-3.59-3.58c-.4-.4-1.06-.4-1.46,0l-3.54,3.53c-.4,.4-.4,1.06,0,1.46,.4,.4,1.06,.4,1.46,0l1.8-1.79V27.97c0,.57,.46,1.03,1.04,1.03s1.04-.46,1.04-1.03V10.55l1.8,1.79c.2,.2,.47,.3,.73,.3s.53-.1,.73-.3c.4-.4,.4-1.06,0-1.46Z" fill="#000d6e"/><path d="M23.42,20h.08c.83,0,1.5-.67,1.5-1.5s-.67-1.5-1.5-1.5H15.3c-.26-1.33-.53-2.66-.79-3.99-.06-.33-.13-.67-.27-.97-.3-.64-1.05-1.03-1.75-1.03h-1.5v4.4c0,.65-.36,1.58-.71,2.13-.18,.29-.29,.68-.29,1.1v8.74c0,.9,.49,1.63,1.09,1.63h1.91s.06,0,.06,0c.02,0,.05,0,.07,0h9.39c.83,0,1.5-.67,1.5-1.5s-.67-1.5-1.5-1.5c.83,0,1.5-.67,1.5-1.5s-.67-1.5-1.5-1.5h.89c.82,0,1.5-.67,1.5-1.5s-.68-1.5-1.5-1.5Z" fill="#fa9319"/></g></svg>