<svg xmlns="http://www.w3.org/2000/svg" viewBox="0 0 40 40" focusable="false" aria-hidden="true"><defs><style>.cls-1{fill:none;}.cls-2{fill:#000d6e;}.cls-3{fill:#d9304c;}.cls-4{fill:#ffaca6;}</style></defs><g id="Solid"><rect class="cls-1" width="40" height="40"/></g><g id="Icon_Red" data-name="Icon Red"><rect class="cls-2" x="21" y="25.998" width="3" height="1"/><polygon class="cls-2" points="20 19 17.601 19 18.268 20 20 20 20 19"/><path class="cls-3" d="M27.3391,9.52l-4.2254.8706c-.8654.1442-.77,1.11,0,1.11h4.4157a.9971.9971,0,1,0-.19-1.98Z"/><path class="cls-3" d="M24.1659,22h1.0308a5.9873,5.9873,0,0,1,1.62-2.797l-.5059-.8855A6.9941,6.9941,0,0,0,24.1659,22Z"/><path class="cls-3" d="M31,16.5a6.9762,6.9762,0,0,0-2.09.319l.5128.8974A5.9979,5.9979,0,1,1,25.1967,25H24.1659A6.9985,6.9985,0,1,0,31,16.5Z"/><path class="cls-3" d="M13.4741,18.1223,13,19.0372a6.0253,6.0253,0,1,1-2.663-1.3824l.4709-.9094a6.9934,6.9934,0,1,0,2.6658,1.3769Z"/><path class="cls-4" d="M20,21.5a1.7391,1.7391,0,0,0-.6476.1271L13.9346,13.5H24.21l-3.8314,8.0436A1.7471,1.7471,0,0,0,20,21.5ZM21.7248,23a1.74,1.74,0,0,0-.4717-.9685l3.7879-7.9523L30.1387,23Zm9.71.252L25.5647,12.98,26.27,11.5h-1.107l-.4763,1H13.2891l1.6455-2.7427A.5.5,0,0,0,14.5059,9h-3.918a2.0882,2.0882,0,0,0,0,4.1763.5.5,0,0,0,0-1,1.0882,1.0882,0,0,1,0-2.1763H13.623l-1.8066,3.0107a2.6055,2.6055,0,0,0-.0977,2.5157l.0479.0971A1.6183,1.6183,0,0,1,11.74,17.12l-3.1845,6.15a.4994.4994,0,0,0,.2148.6738A.494.494,0,0,0,9,24a.5.5,0,0,0,.4443-.27l3.1807-6.1421a2.6186,2.6186,0,0,0,.0371-2.41l-.0478-.0966a1.6089,1.6089,0,0,1,.0595-1.5557l.0358-.06,5.8566,8.7848A1.7466,1.7466,0,1,0,21.5751,24H31a.5.5,0,0,0,.5-.5A.4413.4413,0,0,0,31.4346,23.252Z"/></g></svg>