<?xml version="1.0" encoding="iso-8859-1"?><!--Generator: Adobe Illustrator 26.2.1, SVG Export Plug-In . SVG Version: 6.00 Build 0)--><svg version="1.1" xmlns="http://www.w3.org/2000/svg" xmlns:xlink="http://www.w3.org/1999/xlink" x="0px" y="0px" viewBox="0 0 40 40" style="enable-background:new 0 0 40 40" xml:space="preserve" focusable="false" aria-hidden="true"><g id="Solid"><rect style="fill:none" width="40" height="40"/></g><g id="Icon_Red"><g><rect x="21" y="23.998" style="fill:#000D6E" width="3" height="1"/><polygon style="fill:#000D6E" points="20,17 17.601,17 18.268,18 20,18 		"/><path style="fill:#D9304C" d="M27.339,7.52L23.114,8.39c-0.865,0.144-0.77,1.11,0,1.11h4.416c0.536,0,0.971-0.448,0.971-1
			C28.5,7.869,27.94,7.396,27.339,7.52z"/><path style="fill:#D9304C" d="M24.166,20h1.031c0.279-1.08,0.846-2.042,1.62-2.797l-0.506-0.885
			C25.251,17.278,24.483,18.554,24.166,20z"/><path style="fill:#D9304C" d="M31,14.5c-0.728,0-1.429,0.112-2.09,0.319l0.513,0.897C29.926,15.58,30.453,15.5,31,15.5
			c3.314,0,6,2.686,6,6s-2.686,6-6,6c-2.795,0-5.136-1.914-5.803-4.5h-1.031c0.689,3.141,3.49,5.5,6.834,5.5c3.86,0,7-3.14,7-7
			S34.86,14.5,31,14.5z"/><path style="fill:#D9304C" d="M13.474,16.122L13,17.037c1.225,1.098,2,2.688,2,4.463c0,3.314-2.686,6-6,6s-6-2.686-6-6
			s2.686-6,6-6c0.46,0,0.907,0.057,1.337,0.155l0.471-0.909C10.23,14.59,9.626,14.5,9,14.5c-3.86,0-7,3.14-7,7s3.14,7,7,7
			s7-3.14,7-7C16,19.34,15.016,17.407,13.474,16.122z"/><path style="fill:#FFACA6" d="M20,19.5c-0.229,0-0.447,0.047-0.648,0.127L13.935,11.5H24.21l-3.831,8.044
			C20.256,19.517,20.13,19.5,20,19.5z M21.725,21c-0.054-0.374-0.221-0.71-0.472-0.969l3.788-7.952L30.139,21H21.725z
			 M31.435,21.252l-5.87-10.272L26.27,9.5h-1.107l-0.476,1H13.289l1.646-2.743c0.093-0.155,0.095-0.347,0.007-0.504
			C14.852,7.097,14.686,7,14.506,7h-3.918C9.436,7,8.5,7.937,8.5,9.088c0,1.151,0.936,2.088,2.088,2.088c0.276,0,0.5-0.224,0.5-0.5
			c0-0.276-0.224-0.5-0.5-0.5c-0.6,0-1.088-0.488-1.088-1.088C9.5,8.488,9.988,8,10.588,8h3.035l-1.807,3.011
			c-0.463,0.773-0.499,1.713-0.098,2.516l0.048,0.097c0.235,0.47,0.227,1.027-0.026,1.497l-3.184,6.15
			c-0.127,0.245-0.031,0.547,0.215,0.674C8.844,21.982,8.922,22,9,22c0.181,0,0.356-0.099,0.444-0.271l3.181-6.142
			c0.403-0.749,0.417-1.651,0.037-2.41l-0.048-0.097c-0.249-0.497-0.227-1.079,0.06-1.556l0.036-0.06l5.857,8.785
			c-0.198,0.284-0.316,0.627-0.316,0.999c0,0.966,0.784,1.75,1.75,1.75c0.697,0,1.294-0.41,1.575-1H31c0.276,0,0.5-0.224,0.5-0.5
			C31.5,21.404,31.482,21.328,31.435,21.252z"/></g><g><path style="fill:#D9304C" d="M20.53,33.884l-3.226-5.609l-3.197-5.558C13.854,22.275,13.375,22,12.86,22
			c-0.516,0-0.994,0.275-1.249,0.717l-3.197,5.558l-3.226,5.609c-0.252,0.439-0.252,0.963,0.002,1.401
			C5.446,35.726,5.923,36,6.437,36h6.422h6.422c0.514,0,0.992-0.274,1.247-0.715C20.782,34.847,20.783,34.323,20.53,33.884z
			 M19.678,34.794c-0.081,0.14-0.229,0.224-0.397,0.224H12.86H6.437c-0.167,0-0.315-0.084-0.397-0.224
			c-0.036-0.063-0.109-0.23,0-0.419l3.226-5.609l3.197-5.558c0.081-0.141,0.229-0.225,0.397-0.225c0.168,0,0.316,0.084,0.397,0.225
			l3.197,5.558l3.226,5.609C19.788,34.564,19.715,34.731,19.678,34.794z"/><g><path style="fill:#FFACA6" d="M16.453,28.765l-3.197-5.558c-0.081-0.141-0.229-0.225-0.397-0.225
				c-0.168,0-0.316,0.084-0.397,0.225l-3.197,5.558l-3.226,5.609c-0.109,0.19-0.036,0.356,0,0.419
				c0.081,0.14,0.229,0.224,0.397,0.224h6.422h6.422c0.167,0,0.315-0.084,0.397-0.224c0.036-0.063,0.109-0.23,0-0.419L16.453,28.765
				z M12.854,34.171c-0.506,0-0.883-0.388-0.883-0.883c0-0.528,0.377-0.916,0.883-0.916c0.517,0,0.905,0.388,0.905,0.916
				C13.759,33.784,13.371,34.171,12.854,34.171z M13.479,31.456h-1.26l-0.269-5.268h1.821L13.479,31.456z"/></g><polygon style="fill:#000D6E" points="12.219,31.456 13.479,31.456 13.77,26.188 11.949,26.188 		"/><path style="fill:#000D6E" d="M12.854,32.372c-0.506,0-0.883,0.388-0.883,0.916c0,0.496,0.377,0.883,0.883,0.883
			c0.517,0,0.905-0.388,0.905-0.883C13.759,32.76,13.371,32.372,12.854,32.372z"/></g></g><g id="Guides" style="display:none"/><g id="Grid" style="display:none"><g style="display:inline"><g/><g/><g/><g/><g/><g/><g/><g/><g/><g/><g/><g/><g/><g/><g/><g/><g/><g/><g/><g/><g/><g/><g/><g/><g/><g/><g/><g/><g/><g/><g/><g/><g/><g/><g/><g/><g/><g/><g/><g/></g></g></svg>