<?xml version="1.0" encoding="iso-8859-1"?><!--Generator: Adobe Illustrator 26.2.1, SVG Export Plug-In . SVG Version: 6.00 Build 0)--><svg version="1.1" xmlns="http://www.w3.org/2000/svg" xmlns:xlink="http://www.w3.org/1999/xlink" x="0px" y="0px" viewBox="0 0 40 40" xml:space="preserve" focusable="false" aria-hidden="true" enable-background="new 0 0 40 40"><g id="Solid"><rect width="40" height="40" fill="none"/></g><g id="Icon_Red"><g><path d="M34,11c0-0.552-0.448-1-1-1H7c-0.552,0-1,0.448-1,1v17h28V11z" fill="#D9304C"/><path d="M23,29v2h-6v-2H4v1c0,1.105,0.895,2,2,2h28c1.105,0,2-0.895,2-2v-1H23z" fill="#D9304C"/></g><rect x="7" y="11" width="26" height="16" fill="#FFACA6"/><rect x="17" y="29" width="6" height="2" fill="#FFACA6"/><line x1="9.5" y1="15.511" x2="21.5" y2="15.511" fill="none" stroke="#000D6E" stroke-linecap="round" stroke-miterlimit="10"/><line x1="9.5" y1="17.513" x2="21.5" y2="17.513" fill="#1B5951" stroke="#000D6E" stroke-linecap="round" stroke-miterlimit="10"/><line x1="9.5" y1="19.515" x2="21.5" y2="19.515" fill="#1B5951" stroke="#000D6E" stroke-linecap="round" stroke-miterlimit="10"/><line x1="9.5" y1="21.497" x2="21.5" y2="21.497" fill="#1B5951" stroke="#000D6E" stroke-linecap="round" stroke-miterlimit="10"/><path d="M29,22h-4c-0.552,0-1-0.448-1-1v-5c0-0.552,0.448-1,1-1h4c0.552,0,1,0.448,1,1v5
		C30,21.552,29.552,22,29,22z" fill="#000D6E"/></g></svg>