<svg xmlns="http://www.w3.org/2000/svg" viewBox="0 0 40 40" focusable="false" aria-hidden="true"><g id="Solid"><rect width="40" height="40" fill="none"/></g><g id="Icon_Red" data-name="Icon Red"><path d="M35.9022,20H35v8h1V26.019a1.0923,1.0923,0,0,0,1-1.0851V21.105A1.1014,1.1014,0,0,0,35.9022,20Z" fill="#000d6e"/><path d="M34,20H3a15.2355,15.2355,0,0,0,1.1285,2H34Z" fill="#ffaca6"/><path d="M13.1531,28H34V23H5C6.8635,25.4667,9.7475,28,13.1531,28Z" fill="#d9304c"/><path d="M12.7646,15.967c1.5088-1.723,2.0421-1.9679,3.22-1.9679h.037V19H17V13.9991h0V13H15.9842c-1.5548,0-2.33.4525-3.96,2.3147L9,19h1.2762Z" fill="#d9304c"/></g></svg>