<?xml version="1.0" encoding="UTF-8"?><svg xmlns="http://www.w3.org/2000/svg" viewBox="0 0 40 40" focusable="false" aria-hidden="true"><defs><style>.cls-1{fill:none;}.cls-2{fill:#000d6e;}.cls-3{fill:#252c5e;}.cls-4{fill:#1b5951;}.cls-5{fill:#94e3d4;}</style></defs><g id="Solid"><rect class="cls-1" width="40" height="40"/></g><g id="Icon_Green"><path class="cls-5" d="M24.44420234,15.17688644c-.11235581,.01483945-.22301569,.03434272-.33918736,.03434272-.7590907,0-1.45802865-.33017769-1.9341629-.84791539-.46643561-.70354877-1.2636319-1.16855344-2.17095808-1.16855344-.90637221,0-1.70309152,.46394471-2.16973912,1.16627453-.00196093,.00042398-.00402785,.00052998-.00598878,.00095396-.47655824,.51853267-1.17024938,.84924034-1.92960507,.84924034-.11617167,0-.22683154-.01950327-.33876337-.03434272-1.78073362,.9416689-2.93651454,2.42942944-2.93651454,4.11010279,0,1.62979525,1.08497556,3.08066917,2.77497656,4.02530595,1.22658628-.52828431,2.83645427-.85220823,4.60574032-.85220823s3.37915404,.32392393,4.60531633,.85220823c1.690001-.94463679,2.77540054-2.39551071,2.77540054-4.02530595,0-1.68067335-1.15578092-3.16843389-2.93651454-4.11010279Z"/><g><circle class="cls-4" cx="11" cy="20.00000001" r="7.5"/><circle class="cls-4" cx="29" cy="20.00000001" r="7.5"/></g><circle class="cls-5" cx="11" cy="20.00000001" r="6.5"/><circle class="cls-5" cx="29" cy="20.00000001" r="6.5"/><circle class="cls-4" cx="20" cy="18.55958355" r=".86831963"/><circle class="cls-3" cx="11" cy="20" r="4.5"/><circle class="cls-2" cx="29" cy="20" r="4.5"/></g></svg>