<svg xmlns="http://www.w3.org/2000/svg" viewBox="0 0 40 40" focusable="false" aria-hidden="true"><defs><style>.cls-1{fill:none;}.cls-2{fill:#6c2273;}.cls-3{fill:#b8b2ff;}.cls-4{fill:#000d6e;}</style></defs><g id="Solid"><rect class="cls-1" width="40" height="40"/></g><g id="Icon_Purple" data-name="Icon Purple"><polygon class="cls-2" points="29 6 25 6 25 8.306 29 11.994 29 6"/><path class="cls-3" d="M19.3975,8.3311,10,16.9969V34H30V16.9969L20.5884,8.3184A.8945.8945,0,0,0,19.3975,8.3311Z"/><path class="cls-4" d="M32.3388,16.4335,21.94,6.8438a2.9,2.9,0,0,0-3.8842.0048L7.6612,16.4335l0,0L8,16.8008l.3389.3672,10.39-9.58a1.8983,1.8983,0,0,1,2.5376-.0049l10.3945,9.585L32,16.8008l.3389-.3672Z"/></g></svg>