<svg xmlns="http://www.w3.org/2000/svg" viewBox="0 0 40 40" focusable="false" aria-hidden="true"><defs><style>.cls-1{fill:none;}.cls-2{fill:#6c2273;}.cls-3{fill:#fae052;}.cls-4{fill:#b8b2ff;}.cls-5{fill:#000d6e;}</style></defs><g id="Solid"><rect class="cls-1" width="40" height="40"/></g><g id="Icon_Purple" data-name="Icon Purple"><polygon class="cls-2" points="29 6 25 6 25 8.306 29 11.994 29 6"/><path class="cls-3" d="M18.3545,22.5254a.7931.7931,0,1,0-.792.84A.7957.7957,0,0,0,18.3545,22.5254Z"/><path class="cls-3" d="M22.4321,26.3271a.8408.8408,0,1,0,.7915.84A.7954.7954,0,0,0,22.4321,26.3271Z"/><polygon class="cls-4" points="22.544 10.121 15.749 17.939 26.463 25.118 19.99 34 30 34 30 16.997 22.544 10.121"/><path class="cls-4" d="M14.2508,18.1387l7.5574-8.6956-1.22-1.1247a.8945.8945,0,0,0-1.1909.0127L10,16.9969V34h8.7511l6.2908-8.63Z"/><path class="cls-5" d="M32.3388,16.4335,21.94,6.8438a2.9,2.9,0,0,0-3.8842.0048L7.6612,16.4335l0,0L8,16.8008l.3389.3672,10.39-9.58a1.8983,1.8983,0,0,1,2.5376-.0049l10.3945,9.585L32,16.8008l.3389-.3672Z"/></g></svg>