<svg xmlns="http://www.w3.org/2000/svg" viewBox="0 0 40 40" focusable="false" aria-hidden="true"><g id="Solid"><rect width="40" height="40" fill="none"/></g><g id="Icon_Green" data-name="Icon Green"><path d="M7.479,31.0128a3.472,3.472,0,0,1-.4976-.05V35H8.0156V30.9587A3.49,3.49,0,0,1,7.479,31.0128Z" fill="#1b5951"/><path d="M7.479,24a3.5064,3.5064,0,1,0,3.5064,3.5063A3.5063,3.5063,0,0,0,7.479,24Z" fill="#94e3d4"/><rect x="14" y="18.0128" width="6" height="3" fill="#94e3d4"/><rect x="14" y="21.9936" width="6" height="3" fill="#94e3d4"/><rect x="14" y="21.9936" width="6" height="3" fill="none"/><rect x="14" y="18.0128" width="6" height="3" fill="none"/><path d="M34.9961,8H20v8H13a1,1,0,0,0-1,1V35H25V28h6v7h5V9.0039A1.0039,1.0039,0,0,0,34.9961,8ZM20,24.9936H14v-3h6Zm0-3.9808H14v-3h6Zm5,3.9935H22v-3h3Zm0-3.9935H22v-3h3Zm0-4.0065H22v-3h3Zm0-3.9935H22v-3h3Zm4.5,11.9935h-3v-3h3Zm0-3.9935h-3v-3h3Zm0-4.0065h-3v-3h3Zm0-3.9935h-3v-3h3ZM34,24.9936H31v-3h3ZM34,21H31V18h3Zm0-4.0064H31v-3h3ZM34,13H31V10h3Z" fill="#1b5951"/><rect x="22" y="10.0128" width="3" height="3" fill="#fff"/><rect x="26.5" y="10.0128" width="3" height="3" fill="#fff"/><rect x="31" y="10" width="3" height="3" fill="#fff"/><rect x="22" y="14.0063" width="3" height="3" fill="#fff"/><rect x="26.5" y="14.0063" width="3" height="3" fill="#fff"/><rect x="31" y="13.9936" width="3" height="3" fill="#fff"/><rect x="22" y="18.0128" width="3" height="3" fill="#fff"/><rect x="26.5" y="18.0128" width="3" height="3" fill="#fff"/><rect x="31" y="18" width="3" height="3" fill="#fff"/><rect x="22" y="22.0063" width="3" height="3" fill="#fff"/><rect x="26.5" y="22.0063" width="3" height="3" fill="#fff"/><rect x="31" y="21.9936" width="3" height="3" fill="#fff"/><rect x="25" y="28" width="6" height="7" fill="#000d6e"/></g></svg>