<svg xmlns="http://www.w3.org/2000/svg" viewBox="0 0 40 40" focusable="false" aria-hidden="true"><defs><style>.cls-1{fill:none;}.cls-2{fill:#d9304c;}.cls-3{fill:#ffaca6;}.cls-4{fill:#000d6e;}</style></defs><g id="Solid"><rect class="cls-1" width="40" height="40"/></g><g id="Icon_Red" data-name="Icon Red"><path class="cls-2" d="M18.56,25.12,34,22.5737V14.9764h-.0392C33.5929,17.3681,28.5272,19.3079,22,19.6427V22a1,1,0,0,1-1,1H19a1,1,0,0,1-1-1V19.6427c-6.5272-.3348-11.5928-2.2746-11.9608-4.6663H6V30.1928a1.7193,1.7193,0,0,0,1.5705,1.8345H18.6853l-.95-5.7582A1,1,0,0,1,18.56,25.12Z"/><path class="cls-3" d="M18,19.6427V19a1,1,0,0,1,1-1h2a1,1,0,0,1,1,1v.6427c6.5272-.3348,11.5929-2.2746,11.9608-4.6663H34V13.0508a1,1,0,0,0-1-1H28.0264v-.0029h-2v.0029H13.9736v-.0029h-2v.0029H7a1,1,0,0,0-1,1v1.9256h.0392C6.4072,17.3681,11.4728,19.3079,18,19.6427Z"/><path class="cls-3" d="M35.4959,23.3405a1,1,0,0,0-1.1494-.824L34,22.5737,18.56,25.12a1,1,0,0,0-.824,1.1493l.95,5.7582L19.2,35.1492a1,1,0,0,0,1.1494.8239L36.1362,33.37a1,1,0,0,0,.824-1.1494Zm-.6618,2.1326-.4038.55-1.6385-1.147-.6809.9275.9426.66.4222-.5751.6959.4871-.8259,1.1252a.1724.1724,0,0,1-.2359.0389l-2.0605-1.4424a.1633.1633,0,0,1-.0381-.2307L32.5,23.8389a.1724.1724,0,0,1,.2359-.0389l2.06,1.4424A.1628.1628,0,0,1,34.8341,25.4731Z"/><path class="cls-4" d="M32.7355,23.8a.1724.1724,0,0,0-.2359.0389l-1.4884,2.0276a.1633.1633,0,0,0,.0381.2307L33.11,27.54a.1724.1724,0,0,0,.2359-.0389l.8259-1.1252-.6959-.4871-.4222.5751-.9426-.66.6809-.9275,1.6385,1.147.4038-.55a.1628.1628,0,0,0-.0381-.2307Z"/><path class="cls-4" d="M21,18H19a1,1,0,0,0-1,1v3a1,1,0,0,0,1,1h2a1,1,0,0,0,1-1V19A1,1,0,0,0,21,18Z"/><path class="cls-3" d="M16.0576,9.0254h7.8848A2.0826,2.0826,0,0,1,26.02,11.0479h2a4.085,4.085,0,0,0-4.0779-4.0225H16.0576A4.0848,4.0848,0,0,0,11.98,11.0479h2A2.0826,2.0826,0,0,1,16.0576,9.0254Z"/></g></svg>