<svg xmlns="http://www.w3.org/2000/svg" viewBox="0 0 40 40" focusable="false" aria-hidden="true"><g id="Solid"><rect width="40" height="40" fill="none"/></g><g id="Icon_Purple" data-name="Icon Purple"><path d="M5.88,22.84a.95.95,0,0,0-.94-.96A2.0783,2.0783,0,0,0,4,23.79h.94A.9475.9475,0,0,0,5.88,22.84Z" fill="#b8b2ff"/><path d="M10.977,23.9518a3,3,0,1,0,3,3A3,3,0,0,0,10.977,23.9518Zm0,4.5a1.5,1.5,0,1,1,1.5-1.5A1.5,1.5,0,0,1,10.977,28.4518Z" fill="#b8b2ff"/><circle cx="10.977" cy="26.9518" r="1.5" fill="#000d6e"/><path d="M30.9407,23.9518a3,3,0,1,0,3,3A3,3,0,0,0,30.9407,23.9518Zm0,4.5a1.5,1.5,0,1,1,1.5-1.5A1.5,1.5,0,0,1,30.9407,28.4518Z" fill="#b8b2ff"/><circle cx="30.9407" cy="26.9518" r="1.5" fill="#000d6e"/><path d="M32.96,20.53a.4951.4951,0,0,0,.5.5h2.71l-.17-1H33.46A.4951.4951,0,0,0,32.96,20.53Z" fill="#b8b2ff"/><path d="M19.5259,20.001h-2a.5.5,0,0,0,0,1h2a.5.5,0,0,0,0-1Z" fill="#b8b2ff"/><path d="M34.1172,17.0457H24.9808v.9534H35.0583A.9472.9472,0,0,0,34.1172,17.0457Z" fill="#b8b2ff"/><path d="M17.28,14.81a.4751.4751,0,0,0-.62-.72l-4.52,3.94h1.45Z" fill="#b8b2ff"/><path d="M36.17,21.03H33.46a.5.5,0,0,1,0-1H36v-.01a1.0029,1.0029,0,0,0-1-1H10.59L4.94,21.88a.9551.9551,0,0,1,0,1.91H4v2.16a1.0029,1.0029,0,0,0,1,1H6.9772a4,4,0,0,1,8,0H26.9409a4,4,0,0,1,8,0H36.11a.8963.8963,0,0,0,.9-.9Zm-16.6441-.029h-2a.5.5,0,0,1,0-1h2a.5.5,0,0,1,0,1Z" fill="#6c2273"/></g></svg>