<svg xmlns="http://www.w3.org/2000/svg" viewBox="0 0 40 40" focusable="false" aria-hidden="true"><g id="Solid"><rect width="40" height="40" fill="none"/></g><g id="Icon"><path d="M32,19.5V12a4,4,0,0,0-4-4H20.5V19.5Z" fill="#b8b2ff"/><path d="M20.5,32H28a4,4,0,0,0,4-4V20.5H20.5Z" fill="#b8b2ff"/><path d="M8,20.5V28a4,4,0,0,0,4,4h7.5V20.5Z" fill="#b8b2ff"/><path d="M19.5,8H12a4,4,0,0,0-4,4v7.5H19.5Z" fill="#b8b2ff"/><path d="M16,14.5H12a.5.5,0,0,1,0-1h4a.5.5,0,0,1,0,1Z" fill="#6c2273"/><path d="M28.35,15.3l-1.52-1.53,1.42-1.42a.5.5,0,0,0,0-.7.5.5,0,0,0-.71,0l-1.42,1.42L24.7,11.65a.49.49,0,0,0-.7.7l1.42,1.42L23.89,15.3a.5.5,0,0,0,0,.7.51.51,0,0,0,.36.15A.5.5,0,0,0,24.6,16l1.52-1.52L27.65,16a.48.48,0,0,0,.7,0A.48.48,0,0,0,28.35,15.3Z" fill="#6c2273"/><path d="M28,25.5H24a.5.5,0,0,1,0-1h4a.5.5,0,0,1,0,1Z" fill="#6c2273"/><path d="M28,28.5H24a.5.5,0,0,1,0-1h4a.5.5,0,0,1,0,1Z" fill="#6c2273"/><path d="M16,25.5H14.5V24a.5.5,0,0,0-1,0v1.5H12a.5.5,0,0,0,0,1h1.5V28a.5.5,0,0,0,1,0V26.5H16a.5.5,0,0,0,0-1Z" fill="#6c2273"/></g></svg>