<svg xmlns="http://www.w3.org/2000/svg" viewBox="0 0 40 40" focusable="false" aria-hidden="true"><defs><style>.cls-1{fill:none;}.cls-2{fill:#94e3d4;}.cls-3{fill:#fae052;}.cls-4{fill:#1b5951;}.cls-5{fill:#000d6e;}</style></defs><g id="Solid"><rect class="cls-1" width="40" height="40"/></g><g id="Icon_Green" data-name="Icon Green"><polygon class="cls-1" points="15.537 18 15.537 18 15.537 18 15.537 18"/><polygon class="cls-1" points="24.463 18 24.463 18 24.463 18 24.463 18"/><path class="cls-2" d="M32.0426,17H35V13.9942a2.0007,2.0007,0,0,0-2-2.0015H26a1,1,0,0,1-1-1.0007V9.8457A.8454.8454,0,0,0,24.1548,9h-8.31A.8454.8454,0,0,0,15,9.8457V10.992a1,1,0,0,1-1,1.0007H7a2.0007,2.0007,0,0,0-2,2.0015V17H15.1154c.0064-.0062.011-.0142.0174-.02a6.9732,6.9732,0,0,1,9.7344,0c.0064.0062.011.0142.0174.02h7.158ZM14,15a1,1,0,1,1,1-1A1,1,0,0,1,14,15Z"/><path class="cls-3" d="M20.8165,16.062c.0532.0072.106.0155.1588.0242C20.9225,16.0773,20.87,16.0694,20.8165,16.062Z"/><path class="cls-3" d="M19.0248,16.0862c.0527-.0087.1054-.017.1587-.0242C19.13,16.0694,19.0776,16.0773,19.0248,16.0862Z"/><path class="cls-2" d="M20,29a6.9893,6.9893,0,0,1-5.7347-11H5V30.0834A1.96,1.96,0,0,0,7,32H33a1.96,1.96,0,0,0,2-1.9166V18H25.7347A6.9893,6.9893,0,0,1,20,29Z"/><path class="cls-3" d="M25.8878,20.8545c.0044.0228.0065.0463.0106.0691C25.8942,20.9007,25.8923,20.8773,25.8878,20.8545Z"/><path class="cls-3" d="M25.0972,18.846l.0151.0248Z"/><path class="cls-3" d="M25.6,19.86c-.0078-.02-.0143-.0409-.0223-.0611C25.5857,19.8192,25.5923,19.84,25.6,19.86Z"/><path class="cls-3" d="M14.1016,20.9236c.0041-.0228.0062-.0463.0106-.069C14.1077,20.8773,14.1058,20.9007,14.1016,20.9236Z"/><path class="cls-3" d="M14.4,19.8594c.0076-.02.0142-.04.0219-.06C14.4142,19.8193,14.4078,19.84,14.4,19.8594Z"/><path class="cls-3" d="M14.8877,18.8708l.0151-.0248Z"/><polygon class="cls-3" points="15.537 18 15.537 18 15.537 18 15.537 18"/><polygon class="cls-3" points="24.463 18 24.463 18 24.463 18 24.463 18"/><path class="cls-4" d="M7.5,11h5a.5.5,0,0,0,0-1h-5a.5.5,0,0,0,0,1Z"/><circle class="cls-5" cx="14" cy="14" r="1"/><path class="cls-4" d="M25.1123,18.8708l-.0151-.0248A6.0152,6.0152,0,0,0,24.4633,18l0,0,0,0a5.98,5.98,0,0,0-3.4878-1.9137c-.0528-.0087-.1056-.017-.1588-.0242a5.4074,5.4074,0,0,0-1.633,0c-.0533.0072-.106.0155-.1587.0242A5.98,5.98,0,0,0,15.5369,18l0,0,0,0a6.0152,6.0152,0,0,0-.6339.8459l-.0151.0248a5.98,5.98,0,0,0-.4656.9288c-.0077.02-.0143.04-.0219.06a5.934,5.934,0,0,0-.288.9952c-.0044.0227-.0065.0462-.0106.069a6,6,0,1,0,11.7968,0c-.0041-.0228-.0062-.0463-.0106-.0691A5.938,5.938,0,0,0,25.6,19.86c-.0078-.02-.0144-.041-.0223-.0611A5.9782,5.9782,0,0,0,25.1123,18.8708Z"/></g></svg>