<?xml version="1.0" encoding="iso-8859-1"?><!--Generator: Adobe Illustrator 26.2.1, SVG Export Plug-In . SVG Version: 6.00 Build 0)--><svg version="1.1" xmlns="http://www.w3.org/2000/svg" xmlns:xlink="http://www.w3.org/1999/xlink" x="0px" y="0px" viewBox="0 0 40 40" style="enable-background:new 0 0 40 40" xml:space="preserve" focusable="false" aria-hidden="true"><g id="Solid"><rect style="fill:none" width="40" height="40"/></g><g id="Icon_Tangerine"><g><g><path style="fill:#FA9319" d="M36,21v-5v-1.742V14c0-1.105-0.912-2-2.016-2h-27c-1.105,0-2,0.895-2,2c0,1.105,0.895,2,2,2h0.518
				L5,21h0v4.992C5,27.101,5.895,28,7,28h0.551C7.527,27.835,7.5,27.671,7.5,27.5c0-1.93,1.57-3.5,3.5-3.5s3.5,1.57,3.5,3.5
				c0,0.171-0.027,0.335-0.051,0.5h11.101c-0.024-0.165-0.051-0.329-0.051-0.5c0-1.93,1.57-3.5,3.5-3.5s3.5,1.57,3.5,3.5
				c0,0.171-0.027,0.335-0.051,0.5H34c1.105,0,2-0.899,2-2.008V21L36,21z M10.498,21H5.974l2.506-5h2.017c0.552,0,1,0.448,1,1v3
				C11.498,20.552,11.05,21,10.498,21z M32,19c0,0.552-0.448,1-1,1h-4c-0.552,0-1-0.448-1-1v-2c0-0.552,0.448-1,1-1h4
				c0.552,0,1,0.448,1,1V19z"/></g></g><g><path style="fill:#FAE052" d="M23.483,28h-6V17c0-0.552,0.448-1,1-1h4c0.552,0,1,0.448,1,1V28z"/></g><path style="fill:#FAE052" d="M36,25h-1c-0.552,0-1-0.448-1-1v-1c0-0.552,0.448-1,1-1h1V25z"/><path style="fill:#FAE052" d="M5,22h1c0.552,0,1,0.448,1,1v1c0,0.552-0.448,1-1,1H5V22z"/><g><circle style="fill:#FAE052" cx="11" cy="27.5" r="2.5"/><circle style="fill:#000D6E" cx="11" cy="27.5" r="0.833"/></g><g><circle style="fill:#FAE052" cx="29" cy="27.5" r="2.5"/><circle style="fill:#000D6E" cx="29" cy="27.5" r="0.833"/></g></g><g id="Guides" style="display:none"/><g id="Grid" style="display:none"><g style="display:inline"><g/><g/><g/><g/><g/><g/><g/><g/><g/><g/><g/><g/><g/><g/><g/><g/><g/><g/><g/><g/><g/><g/><g/><g/><g/><g/><g/><g/><g/><g/><g/><g/><g/><g/><g/><g/><g/><g/><g/><g/></g></g></svg>