<?xml version="1.0" encoding="iso-8859-1"?><!--Generator: Adobe Illustrator 26.2.1, SVG Export Plug-In . SVG Version: 6.00 Build 0)--><svg version="1.1" xmlns="http://www.w3.org/2000/svg" xmlns:xlink="http://www.w3.org/1999/xlink" x="0px" y="0px" viewBox="0 0 40 40" style="enable-background:new 0 0 40 40" xml:space="preserve" focusable="false" aria-hidden="true"><g id="Solid"><rect style="fill:none" width="40" height="40"/></g><g id="Icon_Tangerine"><g><path style="fill:#FAE052" d="M33,10H10.955l3.898,4H36v-1C36,11.343,34.657,10,33,10z"/><path style="fill:#FAE052" d="M9.558,10H7c-1.657,0-3,1.343-3,3v1h9.455L9.558,10z"/><path style="fill:#FAE052" d="M30.442,30H33c1.657,0,3-1.343,3-3v-8H19.724L30.442,30z"/><path style="fill:#FAE052" d="M4,19v8c0,1.657,1.343,3,3,3h22.046L18.327,19H4z"/><polygon style="fill:#FA9319" points="13.455,14 4,14 4,19 18.327,19 		"/><polygon style="fill:#FA9319" points="19.724,19 36,19 36,14 14.852,14 		"/></g></g><g id="Guides" style="display:none"/><g id="Grid" style="display:none"><g style="display:inline"><g/><g/><g/><g/><g/><g/><g/><g/><g/><g/><g/><g/><g/><g/><g/><g/><g/><g/><g/><g/><g/><g/><g/><g/><g/><g/><g/><g/><g/><g/><g/><g/><g/><g/><g/><g/><g/><g/><g/><g/></g></g></svg>