<?xml version="1.0" encoding="UTF-8"?><svg xmlns="http://www.w3.org/2000/svg" viewBox="0 0 40 40" focusable="false" aria-hidden="true"><defs><style>.cls-1 {
        fill: none;
      }

      .cls-2 {
        fill: #000d6e;
      }

      .cls-3 {
        fill: #ffaca6;
      }

      .cls-4 {
        fill: #d9304c;
      }</style></defs><g id="Solid"><rect class="cls-1" width="40" height="40"/></g><g id="Icon_Red" data-name="Icon Red"><circle class="cls-3" cx="12.4383" cy="25.583899" r="3"/><g><path class="cls-3" d="m33.670395,12.520945c-.889404.03302-1.737305.318063-2.405334.923288l-3.440979,3.269958,1.518921-.056396,2.599854-2.47821c.48407-.438232,1.115051-.635202,1.764648-.659311l4.292496-.028288v-1.000732l-4.329605.029692Z"/><path class="cls-3" d="m35.793625,18.409259l-1.997986.074219c-.276123.010254-.49115.243958-.480835.522583.010376.278625.242126.495789.51825.485535l1.997986-.074219c.276062-.010254.49115-.243958.480774-.522583-.010315-.278625-.242126-.495728-.518188-.485535Z"/><path class="cls-4" d="m23.543136,20.790119l-.617188-.857849-1.633423.912354s-.921082.518738-.867554,1.960388l.080872,2.177551c.020569.554504.487.991455,1.036438.971069l1.978027-.073425.020935-.000793c-.011902-.320557.024536-.630005.085022-.93158l-1.891724-2.882324,1.808594-1.275391Z"/><path class="cls-4" d="m26.82988,17.751789l-3.025391,1.689819,1.140015,1.584839-1.842773,1.298828.958252,1.46051c.660095-1.175659,1.88678-1.998474,3.330078-2.052063,2.204102-.081848,4.063782,1.644714,4.14563,3.848816l6.46431-.258545v-8.005493l-11.17012.433289Zm9.00116,1.665588l-1.997986.074219c-.276123.010254-.507874-.206909-.51825-.485535-.010315-.278625.204712-.512329.480835-.522583l1.997986-.074219c.276062-.010193.507874.206909.518188.485535.010376.278625-.204712.512329-.480774.522583Z"/></g><path class="cls-2" d="m12.4383,24.083899c.82843,0,1.5.694736,1.5,1.551744,0,.857008-.67157,1.448256-1.5,1.448256s-1.5-.591249-1.5-1.448256c0-.857008.67157-1.551744,1.5-1.551744Z"/><circle class="cls-3" cx="27.5397" cy="25.583899" r="3"/><path class="cls-2" d="m27.5397,24.083899c.82843,0,1.5.694736,1.5,1.551744,0,.857008-.67157,1.448256-1.5,1.448256s-1.5-.591249-1.5-1.448256c0-.857008.67157-1.551744,1.5-1.551744Z"/><path class="cls-3" d="m6.301259,12.520945c.889404.03302,1.737305.318063,2.405334.923288l3.440979,3.269958-1.518921-.056396-2.599854-2.47821c-.48407-.438232-1.115051-.635202-1.764648-.659311l-4.264149-.028288v-1.000732l4.301259.029692Z"/><path class="cls-3" d="m4.178029,18.409259l1.997986.074219c.276123.010254.49115.243958.480835.522583-.010376.278625-.242126.495789-.51825.485535l-1.997986-.074219c-.276062-.010254-.49115-.243958-.480774-.522583.010315-.278625.242126-.495728.518188-.485535Z"/><path class="cls-4" d="m16.428517,20.790119l.617188-.857849,1.633423.912354s.921082.518738.867554,1.960388l-.080872,2.177551c-.020569.554504-.487.991455-1.036438.971069l-1.978027-.073425-.020935-.000793c.011902-.320557-.024536-.630005-.085022-.93158l1.891724-2.882324-1.808594-1.275391Z"/><path class="cls-4" d="m2,17.3185v8.005493l6.435963.258545c.081848-2.204102,1.941528-3.930664,4.14563-3.848816,1.443298.053589,2.669983.876404,3.330078,2.052063l.958252-1.46051-1.842773-1.298828,1.140015-1.584839-3.025391-1.689819-11.141774-.433289Zm1.65984,1.576294c.010315-.278625.242126-.495728.518188-.485535l1.997986.074219c.276123.010254.49115.243958.480835.522583-.010376.278625-.242126.495789-.51825.485535l-1.997986-.074219c-.276062-.010254-.49115-.243958-.480774-.522583Z"/></g></svg>