<?xml version="1.0" encoding="iso-8859-1"?><!--Generator: Adobe Illustrator 26.2.1, SVG Export Plug-In . SVG Version: 6.00 Build 0)--><svg version="1.1" xmlns="http://www.w3.org/2000/svg" xmlns:xlink="http://www.w3.org/1999/xlink" x="0px" y="0px" viewBox="0 0 40 40" xml:space="preserve" focusable="false" aria-hidden="true" enable-background="new 0 0 40 40"><g id="Solid"><rect width="40" height="40" fill="none"/></g><g id="Icon_Purple"><g><path d="M31,36h-3c-0.552,0-1-0.448-1-1v-3h5v3C32,35.552,31.552,36,31,36z" fill="#000D6E"/><path d="M12,36H9c-0.552,0-1-0.448-1-1v-3h5v3C13,35.552,12.552,36,12,36z" fill="#000D6E"/><path d="M33.5,20h-2c-0.276,0-0.5-0.224-0.5-0.5v-1c0-0.276,0.224-0.5,0.5-0.5h2c0.276,0,0.5,0.224,0.5,0.5
			v1C34,19.776,33.776,20,33.5,20z" fill="#6C2273"/><path d="M8.5,20h-2C6.224,20,6,19.776,6,19.5v-1C6,18.224,6.224,18,6.5,18h2C8.776,18,9,18.224,9,18.5v1
			C9,19.776,8.776,20,8.5,20z" fill="#6C2273"/><g><path d="M31.692,24l-1.019-3H9.327l-1.019,3C8.105,24.487,8,25.01,8,25.538V31h24v-5.462
				C32,25.01,31.895,24.487,31.692,24z M11.5,28c-0.828,0-1.5-0.672-1.5-1.5s0.672-1.5,1.5-1.5s1.5,0.672,1.5,1.5S12.328,28,11.5,28
				z M28.5,28c-0.828,0-1.5-0.672-1.5-1.5s0.672-1.5,1.5-1.5s1.5,0.672,1.5,1.5S29.328,28,28.5,28z" fill="#6C2273"/><path d="M27.769,13.846C27.303,12.728,26.211,12,25,12H15c-1.211,0-2.303,0.728-2.769,1.846L9.667,20
				h20.667L27.769,13.846z" fill="#B8B2FF"/></g></g><g><path d="M11.877,7.646v-0.86h2.044v0.86H11.877z" fill="#000D6E"/><path d="M16.825,8.099h0.595V8.98h-2.459V8.099h0.803V5.581h-0.789V4.706h0.789v-0.71h1.061V8.099z" fill="#000D6E"/><path d="M17.822,6.478c0-1.635,0.875-2.567,2.23-2.567c1.363,0,2.238,0.933,2.238,2.567
			c0,1.606-0.89,2.596-2.238,2.596C18.697,9.073,17.822,8.084,17.822,6.478z M21.208,6.492c0-1.019-0.466-1.571-1.155-1.571
			s-1.147,0.553-1.147,1.571s0.459,1.57,1.147,1.57S21.208,7.511,21.208,6.492z" fill="#000D6E"/><path d="M23.102,5.101c0-0.646,0.495-1.162,1.155-1.162c0.674,0,1.154,0.517,1.154,1.162
			s-0.48,1.162-1.154,1.162C23.596,6.263,23.102,5.746,23.102,5.101z M24.729,5.101c0-0.279-0.194-0.502-0.473-0.502
			c-0.273,0-0.474,0.223-0.474,0.502c0,0.287,0.201,0.502,0.474,0.502C24.536,5.603,24.729,5.388,24.729,5.101z M23.89,8.98
			l2.84-4.984l0.817-0.007l-2.847,4.984L23.89,8.98z M26.013,7.876c0-0.646,0.488-1.162,1.155-1.162
			c0.674,0,1.154,0.517,1.154,1.162s-0.48,1.162-1.154,1.162C26.501,9.038,26.013,8.521,26.013,7.876z M27.641,7.876
			c0-0.279-0.194-0.502-0.473-0.502c-0.28,0-0.474,0.223-0.474,0.502c0,0.287,0.201,0.502,0.474,0.502
			C27.44,8.378,27.641,8.163,27.641,7.876z" fill="#000D6E"/></g></g></svg>