<?xml version="1.0" encoding="UTF-8"?><svg id="Ebene_1" data-name="Ebene 1" xmlns="http://www.w3.org/2000/svg" viewBox="0 0 1080 1080" focusable="false" aria-hidden="true"><defs><style>.cls-1 {
        fill: #000d6e;
      }

      .cls-2 {
        fill: #1b5951;
      }

      .cls-3 {
        fill: #94e3d4;
      }</style></defs><path class="cls-1" d="m565.05,907.28c0,28.16-22.83,50.99-50.99,50.99h-97.88c-28.16,0-50.99-22.83-50.99-50.99v-91.77h199.86v91.77Z"/><rect class="cls-2" x="308.09" y="244.47" width="114.21" height="85.66" rx="28.55" ry="28.55"/><path class="cls-3" d="m536.5,130.27h235.41v228.41h-335.34l99.93-228.41Z"/><path class="cls-2" d="m378.27,511.66c-8.84,21.19-13.39,43.91-13.39,66.87l.31,208.43h406.72v-399.73h-349.62l-44.03,124.43Zm44.03,118.26c0-39.42,31.96-71.38,71.38-71.38,39.42,0,71.38,31.96,71.38,71.38,0,28.61-17.08,54.45-43.4,65.66h-.29c-8.55,3.75-17.79,5.69-27.12,5.71h-.57c-39.42,0-71.38-31.96-71.38-71.38Z"/><path class="cls-3" d="m422.29,629.92c0-39.42,31.96-71.38,71.38-71.38,39.42,0,71.38,31.96,71.38,71.38,0,28.61-17.08,54.45-43.4,65.66h-.29c-8.55,3.75-17.79,5.69-27.12,5.71h-.57c-39.42,0-71.38-31.96-71.38-71.38Z"/></svg>