<?xml version="1.0" encoding="UTF-8"?><svg xmlns="http://www.w3.org/2000/svg" viewBox="0 0 40 40" focusable="false" aria-hidden="true"><defs><style>.cls-1 {
        fill: none;
      }

      .cls-2 {
        fill: #000d6e;
      }

      .cls-3 {
        fill: #ffaca6;
      }

      .cls-4 {
        fill: #d9304c;
      }</style></defs><g id="Solid"><rect class="cls-1" width="40" height="40"/></g><g id="Icon_Red" data-name="Icon Red"><g><path class="cls-2" d="m10.014333,36.858714c0,.625113.489756,1.131946,1.114938,1.131946h3.730327c.625182,0,1.131946-.506833,1.131946-1.131946v-3.860721h-5.977212v3.860721Z"/><rect class="cls-4" x="14.422301" y="18.023815" width="3.004658" height="1.957751" rx=".565973" ry=".565973"/><path class="cls-3" d="m13.696824,19.992905l-2.902478-6.909157c-.527284-1.265425-1.763692-2.08972-3.134615-2.08972H2v8.998877h11.696824Z"/></g><g><path class="cls-4" d="m23.552543,6.507429l1.248324-.304423c4.048541-.80313,3.739114-3.732463,3.735209-3.762607-.034171-.273365-.282151-.478388-.55698-.434454-.274341.033194-.468625.283128-.434943.557468.002258.018855.175856,1.742516-2.289855,2.495489.287155-.516281.437505-1.162715.302104-1.96438-.046374-.272388-.302165-.460815-.576506-.410047-.2719.045886-.455445.30363-.409559.576018.250543,1.481782-.847125,2.09612-1.379881,2.306208l-.75401.183789c-.732532.12576-1.289939.070904-1.603881-.170304-.255303-.196237-.278734-.46472-.279222-.466672-.008787-.276293-.232848-.492056-.515976-.483269-.275805.009763-.492056.24017-.482781.516464.001953.072246.040517.722463.63899,1.202804.389544.312417.911378.468625,1.557202.468625.246455,0,.520491-.035757.802032-.081216v.87318c.355374-.130275.691039-.253289.999733-.366296v-.736376Z"/><path class="cls-3" d="m35.336873,24.349896c-1.203841-.639112-5.09172-6.033119-7.1663-7.811025-1.790416-1.534442-4.308664-7.46755-4.308664-7.46755,1.854241-.565157,1.770157-2.565599,1.770157-2.565599-.047839-.001831-.860061.291914-2.079523.738084-.308694.113007-.644359.236021-.999733.366296-1.415699.518965-3.15376,1.156125-4.855821,1.767717-1.163935.418162-.613667,1.589358-.181897,1.627678,1.668561.148093,2.556325.27367,3.364153.331699,0,0,.454408,2.157261,1.205062,5.422381l-2.934458-.923765c-.573638-.139123-1.110482.335543-1.042507.921934l1.358036,4.795717c.039784.24377.25036.4228.497365.4228h.906435l-1.192553-4.17363c-.050951-.190013.124295-.363184.313698-.310098l2.468884,1.695104c.909303,5.691291,5.443432,5.462531,7.021075,6.711771.911927.722097,1.012852,1.279749.882577,1.658493-.232116.67493-.271839,2.284058.003783,2.942391.45038,1.075641,1.248507,1.556347,2.775992,2.174285l1.005469,4.902622c.039784.24377.25036.4228.497365.4228h.906435l-.793306-6.006331c-.063216-.450807-1.452493-.737474-1.045924-1.325513,1.152768-1.667463,1.714203-4.199136,1.537187-4.961627,0,0,1.573982.705622,2.61472-1.227395,0,0-1.512658.409681-2.527707-.129238Z"/></g><path class="cls-4" d="m15.640625,24.407288l-1.562805-3.395813H2v10.990601h13.991516v-5.851624c0-.599915-.113159-1.188538-.350891-1.743164Zm-3.890625,4.592712c-.966492,0-1.75-.783508-1.75-1.75s.783508-1.75,1.75-1.75,1.75.783508,1.75,1.75-.783508,1.75-1.75,1.75Z"/></g></svg>