<?xml version="1.0" encoding="UTF-8"?><svg xmlns="http://www.w3.org/2000/svg" viewBox="0 0 40 40" focusable="false" aria-hidden="true"><defs><style>.uuid-8b679a67-93b7-49f3-8568-84744cc19bca{fill:none;}.uuid-c02c224b-0fba-43f5-9b6a-ab491289ad44{fill:#000d6e;}.uuid-47447f89-f6d9-4c28-94fe-e148ac5cfc40{fill:#ffaca6;}.uuid-d012f2d7-7835-4d6c-ab5d-6b952a0473be{fill:#d9304c;}</style></defs><g id="uuid-b6717d61-4ad4-4d70-b29a-f98eb080f8e1"><rect class="uuid-8b679a67-93b7-49f3-8568-84744cc19bca" width="40" height="40"/></g><g id="uuid-fcb3677d-1e8f-4eb6-9ff6-b7eaec5dfe0a"><g><path class="uuid-c02c224b-0fba-43f5-9b6a-ab491289ad44" d="M27,29h5v3c0,.55-.45,1-1,1h-3c-.55,0-1-.45-1-1v-3h0Z"/><path class="uuid-c02c224b-0fba-43f5-9b6a-ab491289ad44" d="M8,29h5v3c0,.55-.45,1-1,1h-3c-.55,0-1-.45-1-1v-3h0Z"/><rect class="uuid-d012f2d7-7835-4d6c-ab5d-6b952a0473be" x="31" y="15" width="3" height="2" rx=".5" ry=".5"/><rect class="uuid-d012f2d7-7835-4d6c-ab5d-6b952a0473be" x="6" y="15" width="3" height="2" rx=".5" ry=".5"/><g><path class="uuid-d012f2d7-7835-4d6c-ab5d-6b952a0473be" d="M31.69,21l-1.02-3H9.33l-1.02,3c-.2,.49-.31,1.01-.31,1.54v5.46h24v-5.46c0-.53-.1-1.05-.31-1.54Zm-20.19,4c-.83,0-1.5-.67-1.5-1.5s.67-1.5,1.5-1.5,1.5,.67,1.5,1.5-.67,1.5-1.5,1.5Zm17,0c-.83,0-1.5-.67-1.5-1.5s.67-1.5,1.5-1.5,1.5,.67,1.5,1.5-.67,1.5-1.5,1.5Z"/><path class="uuid-47447f89-f6d9-4c28-94fe-e148ac5cfc40" d="M27.77,10.85c-.47-1.12-1.56-1.85-2.77-1.85H15c-1.21,0-2.3,.73-2.77,1.85l-2.56,6.15H30.33l-2.56-6.15Z"/></g></g><g><path class="uuid-c02c224b-0fba-43f5-9b6a-ab491289ad44" d="M14.94,3.04l-1.06,1.72v1.18h-.62v-1.18l-1.06-1.72h.69l.68,1.19,.68-1.19h.69Z"/><path class="uuid-c02c224b-0fba-43f5-9b6a-ab491289ad44" d="M14.54,4.85c0-.66,.49-1.15,1.19-1.15s1.19,.49,1.19,1.15-.5,1.15-1.19,1.15-1.19-.5-1.19-1.15Zm1.76,0c0-.35-.23-.6-.57-.6s-.57,.25-.57,.6,.23,.6,.57,.6,.57-.25,.57-.61Z"/><path class="uuid-c02c224b-0fba-43f5-9b6a-ab491289ad44" d="M18.7,3.74h.62v2.2h-.58v-.21c-.15,.16-.38,.26-.64,.26-.56,0-.85-.38-.85-.89v-1.37h.62v1.29c0,.24,.16,.41,.42,.41s.42-.17,.42-.4v-1.3Z"/><path class="uuid-c02c224b-0fba-43f5-9b6a-ab491289ad44" d="M21.88,4.56v1.39h-.61v-1.27c0-.28-.18-.44-.43-.44s-.44,.18-.44,.4v1.3h-.62V3.74h.59v.21c.15-.16,.38-.26,.66-.26,.53,0,.86,.36,.86,.87Z"/><path class="uuid-c02c224b-0fba-43f5-9b6a-ab491289ad44" d="M25.19,4.39c0,1.03-.64,1.61-1.47,1.61s-1.51-.64-1.51-1.51,.64-1.51,1.51-1.51c.71,0,1.18,.42,1.35,.88l-.59,.25c-.11-.33-.38-.54-.77-.54-.52,0-.86,.38-.86,.93s.35,.93,.93,.93c.4,0,.69-.18,.81-.58h-.88v-.47h1.49Z"/><path class="uuid-c02c224b-0fba-43f5-9b6a-ab491289ad44" d="M25.42,4.85c0-.66,.49-1.15,1.19-1.15s1.19,.49,1.19,1.15-.5,1.15-1.19,1.15-1.19-.5-1.19-1.15Zm1.76,0c0-.35-.23-.6-.57-.6s-.57,.25-.57,.6,.23,.6,.57,.6,.57-.25,.57-.61Z"/></g></g></svg>