<?xml version="1.0" encoding="UTF-8"?><svg xmlns="http://www.w3.org/2000/svg" viewBox="0 0 40 40" focusable="false" aria-hidden="true"><defs><style>.cls-1 {
        fill: none;
      }

      .cls-2 {
        fill: #000d6e;
      }

      .cls-3 {
        fill: #6c2273;
      }

      .cls-4 {
        fill: #b8b2ff;
      }</style></defs><g id="Solid"><rect class="cls-1" width="40" height="40"/></g><g id="Icon_Purple" data-name="Icon Purple"><circle class="cls-4" cx="20.1468" cy="29.3752" r="5.500003"/><circle class="cls-2" cx="20.1468" cy="29.3752" r="2.749999"/><g><path class="cls-3" d="m30.35144,21.238342l-3.16217-1.705688-1.281433,1.983337,3.085388,2.17749-2.59906,3.917419c.151489.532837.243408,1.090271.251892,1.668701.002441.164368-.007019.326843-.016602.489197l.096191.002136,3.331848.074707c.339844.007568.658386-.089905.927673-.26062v-7.783325c-.332275-.38678-.633728-.563354-.633728-.563354Z"/><polygon class="cls-4" points="30.985168 1.999451 30.985168 21.801697 30.985168 29.585022 30.985168 37.995239 38.01416 37.995239 38.01416 1.999451 30.985168 1.999451"/></g><g><path class="cls-1" d="m21.172363,22.964722c-.071716-.011597-.1427-.023621-.21521-.032837.072266.009155.143616.021301.21521.032837Z"/><path class="cls-1" d="m18.746399,23.027161c-.004456.001038-.008667.002563-.013184.00354.004517-.000977.008728-.002563.013184-.00354Z"/><path class="cls-1" d="m19.393616,22.918884c-.034241.003967-.067078.011963-.101135.016479.033997-.004456.067017-.012573.101135-.016479Z"/><path class="cls-1" d="m22.893677,23.497864c-.052307-.02478-.103149-.051453-.156189-.074829.052979.023315.103943.050171.156189.074829Z"/><path class="cls-1" d="m23.628235,23.901611c-.046509-.029846-.094543-.056885-.141846-.085571.047241.028564.095398.055786.141846.085571Z"/><path class="cls-1" d="m24.321899,24.412048c-.010803-.009155-.02063-.019104-.031494-.028198.010864.009033.020691.019104.031494.028198Z"/><path class="cls-1" d="m21.986633,23.145996c-.051392-.015381-.104309-.026001-.156189-.0401.051819.014099.104858.024841.156189.0401Z"/><path class="cls-1" d="m24.894775,24.961853c.025757.02771.051758.055237.077026.083374-.025269-.028259-.05127-.055542-.077026-.083374Z"/><path class="cls-1" d="m13.764343,28.145081c-.000854.004333-.002136.008484-.002991.012817.000793-.004333.002197-.008423.002991-.012817Z"/><path class="cls-1" d="m13.682556,28.726074c-.002747.027344-.008423.053772-.010803.081177.00238-.027344.008118-.053894.010803-.081177Z"/><polygon class="cls-1" points="20.051086 22.875916 20.044983 22.876343 20.05127 22.875916 20.112671 22.875427 20.110413 22.875305 20.051086 22.875916"/><path class="cls-3" d="m13.682556,28.726074c.019104-.191528.043335-.381714.078796-.568176.000854-.004333.002136-.008484.002991-.012817.487427-2.53241,2.451477-4.554077,4.968872-5.11438.004517-.000977.008728-.002502.013184-.00354.178955-.039368.361938-.067505.546082-.091797.034058-.004517.066895-.012512.101135-.016479.21405-.02478.431396-.039124.651367-.042542.002075-.000061.004028-.000427.006104-.000427l.059326-.00061c.000732,0,.001526.000122.002258.000122.28656-.001587.567383.021484.844482.056458.07251.009216.143494.02124.21521.032837.223206.03595.442871.082764.658081.141174.05188.014099.104797.024719.156189.0401.257324.076782.50769.169983.750854.277039.05304.023376.103882.050049.156189.074829.20343.096191.401306.202087.592712.318176.047302.028687.095337.055725.141846.085571.230286.147888.452698.307312.66217.482239.010864.009094.020691.019043.031494.028198.202271.171082.392639.355652.572876.549805.025757.027832.051758.055115.077026.083374.379272.423035.705505.89447.965515,1.405518.003723.007324.008789.013794.012512.021118l1.672791-2.5224-3.075623-2.169739,1.759583-2.723206-5.353943-2.887878-18.952637-.439209v13.454224l11.647644.282532c-.000061-.004456.000549-.008667.000488-.013123-.002625-.217712.005127-.433228.023621-.645813.00238-.027405.008057-.053833.010803-.081177Z"/></g><path class="cls-4" d="m14.629517,10.320251c-1.96167-1.96582-4.650391-2.158997-4.781128-2.167297l-7.848389-.232544v1.000488l7.800415.23114c.024353.001648,2.433044.182617,4.121033,1.874634.903015.90448,2.67041,2.558899,4.242798,4.015198l1.51532.03949c-1.72644-1.592896-3.991577-3.7005-5.050049-4.761108Z"/></g></svg>