<svg xmlns="http://www.w3.org/2000/svg" viewBox="0 0 40 40" focusable="false" aria-hidden="true"><defs><style>.cls-1{fill:none;}.cls-2{fill:#94e3d4;}.cls-3{fill:#1b5951;}</style></defs><g id="Solid"><rect class="cls-1" width="40" height="40"/></g><g id="Icon_Green" data-name="Icon Green"><path class="cls-1" d="M11.9,30.3251a.9956.9956,0,1,0,1.4107-.0091A.9975.9975,0,0,0,11.9,30.3251Z"/><path class="cls-2" d="M32.35,5.9833l-1.4717.0852a1.1626,1.1626,0,0,0-.7508.3474L20.37,16.1727l2.8285,2.8284,1.4577-1.47,1.0948-1.8039,1.7946-1.11,1.0948-1.8039,1.7947-1.11L31.53,9.8982l1.3964-.7088a1.1617,1.1617,0,0,0,.3408-.7536l.072-1.4719A.9162.9162,0,0,0,32.35,5.9833Z"/><path class="cls-3" d="M18.9181,16.1728A2.9927,2.9927,0,0,0,14.686,16.2l-5.67,5.7211A6.9233,6.9233,0,0,0,9.04,31.7125l1.456,1.4431a2.9927,2.9927,0,0,0,4.2321-.0274L23.1714,24.61a2.9926,2.9926,0,0,0-.0106-4.2321Zm-5.604,15.5539a.9956.9956,0,1,1-.0036-1.4107A.9977.9977,0,0,1,13.3141,31.7267Zm8.459-8.6754L15.4512,29.43a.9993.9993,0,0,1-1.409.0063L9.8037,25.2355a.9991.9991,0,0,1-.0063-1.4089l6.3219-6.3787a.9993.9993,0,0,1,1.4089-.0062l4.2385,4.2006A.9993.9993,0,0,1,21.7731,23.0513Z"/><path class="cls-2" d="M11.2949,19.4589h8.9807a.9962.9962,0,0,1,.9962.9962v5.9676a.9963.9963,0,0,1-.9963.9963H11.2948a.9962.9962,0,0,1-.9962-.9962V20.4552a.9963.9963,0,0,1,.9963-.9963Z" transform="translate(-11.9744 18.1509) rotate(-45.2561)"/></g></svg>