<svg xmlns="http://www.w3.org/2000/svg" viewBox="0 0 40 40" focusable="false" aria-hidden="true"><defs><style>.cls-1{fill:none;}.cls-2{fill:#000d6e;}.cls-3{fill:#1b5951;}.cls-4{fill:#94e3d4;}</style></defs><g id="Solid"><rect class="cls-1" width="40" height="40"/></g><g id="Icon"><path class="cls-2" d="M27,28h5a0,0,0,0,1,0,0v3a1,1,0,0,1-1,1H28a1,1,0,0,1-1-1V28A0,0,0,0,1,27,28Z"/><path class="cls-2" d="M8,28h5a0,0,0,0,1,0,0v3a1,1,0,0,1-1,1H9a1,1,0,0,1-1-1V28A0,0,0,0,1,8,28Z"/><rect class="cls-3" x="31" y="14" width="3" height="2" rx="0.5"/><rect class="cls-3" x="6" y="14" width="3" height="2" rx="0.5"/><path class="cls-3" d="M31.69,20l-1-3H9.33l-1,3A3.89,3.89,0,0,0,8,21.54V27H32V21.54A3.89,3.89,0,0,0,31.69,20ZM11.5,24A1.5,1.5,0,1,1,13,22.5,1.5,1.5,0,0,1,11.5,24Zm17,0A1.5,1.5,0,1,1,30,22.5,1.5,1.5,0,0,1,28.5,24Z"/><path class="cls-4" d="M27.77,9.85A3,3,0,0,0,25,8H15a3,3,0,0,0-2.77,1.85L9.67,16H30.33Z"/></g></svg>