<svg xmlns="http://www.w3.org/2000/svg" viewBox="0 0 40 40" focusable="false" aria-hidden="true"><g id="Solid"><rect width="40" height="40" fill="none"/></g><g id="Icon"><path d="M27,28h5a0,0,0,0,1,0,0v3a1,1,0,0,1-1,1H28a1,1,0,0,1-1-1V28A0,0,0,0,1,27,28Z" fill="#000d6e"/><path d="M8,28h5a0,0,0,0,1,0,0v3a1,1,0,0,1-1,1H9a1,1,0,0,1-1-1V28A0,0,0,0,1,8,28Z" fill="#000d6e"/><rect x="31" y="14" width="3" height="2" rx="0.5" fill="#fa9319"/><rect x="6" y="14" width="3" height="2" rx="0.5" fill="#fa9319"/><path d="M31.69,20l-1-3H9.33l-1,3A3.89,3.89,0,0,0,8,21.54V27H32V21.54A3.89,3.89,0,0,0,31.69,20ZM11.5,24A1.5,1.5,0,1,1,13,22.5,1.5,1.5,0,0,1,11.5,24Zm17,0A1.5,1.5,0,1,1,30,22.5,1.5,1.5,0,0,1,28.5,24Z" fill="#fa9319"/><path d="M27.77,9.85A3,3,0,0,0,25,8H15a3,3,0,0,0-2.77,1.85L9.67,16H30.33Z" fill="#fae052"/></g></svg>