<?xml version="1.0" encoding="UTF-8"?><svg xmlns="http://www.w3.org/2000/svg" viewBox="0 0 40 40" focusable="false" aria-hidden="true"><defs><style>.cls-1 {
        fill: none;
      }

      .cls-2 {
        fill: #000d6e;
      }

      .cls-3 {
        fill: #1b5951;
      }

      .cls-4 {
        fill: #94e3d4;
      }</style></defs><g id="Solid"><rect class="cls-1" width="40" height="40"/></g><g id="Icon_Green" data-name="Icon Green"><rect class="cls-3" x="25" y="21" width="3" height="2" rx=".5" ry=".5"/><rect class="cls-3" x="2" y="21" width="3" height="2" rx=".5" ry=".5"/><polygon class="cls-4" points="31 38 31.182051 31.088335 32.069225 24.876907 34.196779 18.367946 33.470909 13.053667 35.285584 9.304835 31 2 38 2 38 37.980483 31 38"/><path class="cls-2" d="m22.583036,11.058393l-2.147424.775307c-.493327.43529-2.493254-.429635-2.928544-.922963l-.760776-1.441925c-.726739-.823634-.572636-1.751297-.170346-2.250446l.375076-.330952c.357215-.315189.753532-.557682,1.170856-.728611.965821-.395585,1.61547.363351,2.581948.72035.622262.229852,1.626839-.158434,2.096489.373836l.000005.000005c.900029,1.020032.802748,2.905369-.217284,3.805399Z"/><path class="cls-2" d="m27.294414,2.401965s1.168802.468888,1.411034.729466c.4366.469666.98039,1.913869.803222,2.381398l-.494568,1.294033c-.295791.780559-1.168345,1.173542-1.948905.877751l-.35546-.134701c-1.626434-.616333-2.445283-2.434454-1.828951-4.060889l.000002-.000005c.5215-1.97619,1.44694-1.453377,2.413626-1.087054Z"/><path class="cls-2" d="m30.768047,9.845305s.24683.799982.182804,1.010238c-.266873.876394,0,1.155491-1.548563,1.430513h-1.162179c-.583627-.049812-.956581-.352999-1.175678-1-.20501-.605399.222901-1.052626.388528-1.366921.464946-.882285.731927-1.292614,1.944264-1.189142l.38342.032725c.623144.053185,1.040588.459443.987403,1.082587Z"/><path class="cls-2" d="m4,34h5v3c0,.551915-.448085,1-1,1h-3c-.551915,0-1-.448085-1-1v-3h0Z"/><path class="cls-2" d="m21,34h5v3c0,.551915-.448085,1-1,1h-3c-.551915,0-1-.448085-1-1v-3h0Z"/><path class="cls-4" d="m24.333435,23l-2.211609-5.307739c-.427002-1.024719-1.428284-1.692261-2.538452-1.692261h-9.166687c-1.110168,0-2.11145.667542-2.538452,1.692261l-2.211609,5.307739h18.666809Z"/><path class="cls-3" d="m25.71582,27l-1.017456-3H5.301636l-1.017456,3c-.192505.449158-.28418.925842-.28418,1.411621v4.588379h22v-4.588379c0-.485779-.091675-.962463-.28418-1.411621Zm-18.21582,4c-.82843,0-1.5-.67157-1.5-1.5s.67157-1.5,1.5-1.5,1.5.67157,1.5,1.5-.67157,1.5-1.5,1.5Zm15,0c-.82843,0-1.5-.67157-1.5-1.5s.67157-1.5,1.5-1.5,1.5.67157,1.5,1.5-.67157,1.5-1.5,1.5Z"/></g></svg>