<?xml version="1.0" encoding="UTF-8"?><svg xmlns="http://www.w3.org/2000/svg" viewBox="0 0 40 40" focusable="false" aria-hidden="true"><defs><style>.cls-1 {
        fill: none;
      }

      .cls-2 {
        fill: #fa9319;
      }

      .cls-3 {
        fill: #000d6e;
      }

      .cls-4 {
        fill: #fae052;
      }</style></defs><g id="Solid"><rect class="cls-1" width="40" height="40"/></g><g id="Icon_Tangerine" data-name="Icon Tangerine"><rect class="cls-2" x="2" y="15.5" width="4" height="2.5" rx=".5" ry=".5"/><rect class="cls-2" x="34" y="15.5" width="4" height="2.5" rx=".5" ry=".5"/><path class="cls-3" d="m5,33h6v4c0,.551915-.448085,1-1,1h-4c-.551915,0-1-.448085-1-1v-4h0Z"/><path class="cls-3" d="m28.98707,33h6v4c0,.551915-.448085,1-1,1h-4c-.551915,0-1-.448085-1-1v-4h0Z"/><path class="cls-2" d="m34.615417,22.899963l-1.274048-3.899963H6.65863l-1.274048,3.899963c-.253906.633728-.384583,1.313416-.384583,2v7.100037h30v-7.100037c0-.686584-.130676-1.366272-.384583-2Zm-25.615417,5.100037c-1.104553,0-2-.895447-2-2,0-1.104614.895447-2,2-2s2,.895386,2,2c0,1.104553-.895447,2-2,2Zm22,0c-1.104553,0-2-.895447-2-2,0-1.104614.895447-2,2-2s2,.895386,2,2c0,1.104553-.895447,2-2,2Z"/><path class="cls-4" d="m15.964844,18c-1.724976-2.660903-1.11792-6.883779,1.611572-10h-3.895264c-1.50061,0-2.852356.923904-3.435242,2.34137l-3.123901,7.65863h8.842834Z"/><path class="cls-3" d="m19.269836,18c-.475037-.807251-.623901-1.89386-.477478-3.166809.327881-1.431335,1.031982-2.749084,2.039612-3.8172.059509-.054016.141418-.07605.220032-.059204.134705.02887.22052.161499.191589.296204-.611206,2.694519.424133,3.41803,1.047913,3.742371.057495.023987.116699.04364.177124.058716.668335.167419,1.345764-.238647,1.513123-.906982.023743-.048279.062744-.08728.111023-.111023.120544-.059265.266296-.009521.325562.111023.529541,1.131775.986267,2.616821.600342,3.852905h2.118591c.063904-.071655.126587-.142212.193848-.216614,2.912842-3.262085-2.332703-7.977417-1.191284-10.721802.020996-.079956-.026855-.161804-.106873-.182739-.032898-.008667-.067871-.005798-.098938.008118-2.363953,1.247437-1.634155,4.366028-2.8255,3.74231-1.428284-.723511,1.83374-5.270447-2.07074-8.59491-.060242-.051453-.150757-.044373-.202271.015869-.031494.036926-.042236.08728-.028503.13385.523926,1.83374-.586304,4.571899-2.451233,6.642639-2.67926,2.965942-3.117798,7.061707-1.141418,9.173279h2.055481Z"/><path class="cls-4" d="m28.418701,18h4.223328l-3.123901-7.65863c-.45874-1.115561-1.396362-1.917196-2.50531-2.211564.113953.766691.520447,1.728715.924866,2.67361.937622,2.190698,2.076477,4.881623.481018,7.196584Z"/></g></svg>