<svg xmlns="http://www.w3.org/2000/svg" viewBox="0 0 40 40" focusable="false" aria-hidden="true"><defs><style>.cls-1{fill:none;}.cls-2{fill:#b8b2ff;}.cls-3{fill:#000d6e;}</style></defs><g id="Solid"><rect class="cls-1" width="40" height="40"/></g><g id="Icon_Purple" data-name="Icon Purple"><path class="cls-2" d="M36.125,15H15.875A1.875,1.875,0,0,0,14,16.875v11.25A1.875,1.875,0,0,0,15.875,30h20.25A1.875,1.875,0,0,0,38,28.125V16.875A1.875,1.875,0,0,0,36.125,15Zm-.441,5.0524-.6505.6505-1.9067-1.9068L32.03,19.893l1.097,1.0969.68-.68.81.81L33.2861,22.45a.2255.2255,0,0,1-.3188,0L30.57,20.0524a.2253.2253,0,0,1,0-.3188l2.3978-2.3978a.2253.2253,0,0,1,.3188,0l2.3979,2.3978A.2255.2255,0,0,1,35.684,20.0524Z"/><path class="cls-2" d="M26,14V10.875A1.875,1.875,0,0,0,24.125,9H3.875A1.875,1.875,0,0,0,2,10.875v11.25A1.875,1.875,0,0,0,3.875,24h9.0116V16.875A2.8782,2.8782,0,0,1,15.7616,14Z"/><path class="cls-3" d="M33.2861,17.3358a.2253.2253,0,0,0-.3188,0L30.57,19.7336a.2253.2253,0,0,0,0,.3188L32.9673,22.45a.2255.2255,0,0,0,.3188,0L34.6168,21.12l-.81-.81-.68.68L32.03,19.893l1.097-1.0969,1.9067,1.9068.6505-.6505a.2255.2255,0,0,0,0-.3188Z"/></g></svg>