<?xml version="1.0" encoding="UTF-8"?><svg xmlns="http://www.w3.org/2000/svg" viewBox="0 0 40 40" focusable="false" aria-hidden="true"><defs><style>.cls-1{fill:none;}.cls-2{fill:#000d6e;}.cls-3{fill:#ffaca6;}.cls-4{fill:#d9304c;}</style></defs><g id="Solid"><rect class="cls-1" width="40" height="40"/></g><g id="Icon_Red"><path class="cls-2" d="M20,13.74164307c0-1.65685425,1.11928813-3,2.5-3s2.5,1.34314575,2.5,3"/><polygon class="cls-1" points="8.66450718 19.41922616 26.17354794 19.41922616 26.17354794 10.08697308 19.05709991 10.08697308 8.66450718 19.41922616"/><g><path class="cls-3" d="M14.99906913,26.25629662c-3.39656372,0-6.15,2.75343628-6.15,6.15s2.75343628,6.15,6.15,6.15,6.15-2.75343628,6.15-6.15-2.75343628-6.15-6.15-6.15Zm0,9.225c-1.69828186,0-3.075-1.37671814-3.075-3.075s1.37671814-3.075,3.075-3.075,3.075,1.37671814,3.075,3.075-1.37671814,3.075-3.075,3.075Z"/><circle class="cls-2" cx="14.99906913" cy="32.40892418" r="3.075"/></g><path class="cls-3" d="M5.50637872,23.09160071c0-.97721588-.78495586-1.76936329-1.75318936-1.76936329,0,0-1.75318936,.88468164-1.75318936,3.53861332h1.75318936c.9682335,0,1.75318936-.79214741,1.75318936-1.76925003Z"/><g><g><path class="cls-3" d="M22.49035645,17.23437501h1.00799561c.1817627,0,.34539795,.01776123,.49603271,.04827881v-1.14898682c.6071167-.54736328,1.00561523-1.4105835,1.00561523-2.39202881,0-1.65686035-1.1192627-3-2.5-3s-2.5,1.34313965-2.5,3c0,1.44897461,.8560791,2.65777588,1.99438477,2.93835449v.59558105c.16149902-.02648926,.32696533-.04119873,.49597168-.04119873Z"/><path class="cls-2" d="M22.49035645,17.23437501c-.16900635,0-.33447266,.01470947-.49597168,.04119873-1.16217041,.19061279-2.10449219,1.03820801-2.45214844,2.14361572h5.90045166c-.10327148-1.09375-.45092773-1.93426514-1.44830322-2.13653564-.15063477-.03051758-.31427002-.04827881-.49603271-.04827881h-1.00799561Z"/></g><path class="cls-1" d="M22.49035645,17.23437501h1.00799561c1.38531494,0,1.82543945,.92584229,1.94433594,2.18481445h.73083496V10.08697511h-7.11639404l-10.39263916,9.33221436h10.87774658c.39593506-1.25897217,1.56286621-2.18481445,2.94812012-2.18481445Z"/><path class="cls-4" d="M27.08581543,8.2675171h-8.37890625c-.22558594,0-.44293213,.08337402-.61120605,.23376465L5.71844482,19.61517335l-1.965271,1.70703125c.96826172,0,1.75323486,.79217529,1.75323486,1.76940918,0,.97705078-.78497314,1.76922607-1.75323486,1.76922607h-1.75317383v5.76983643c0,.98199463,.78485107,1.77801514,1.75305176,1.77801514h3.84124756c-.00012207-.01983643-.00592041-.03808594-.00592041-.05792236,0-4.09277344,3.3425293-7.42266846,7.45117188-7.42266846s7.45117188,3.32989502,7.45117188,7.42266846c0,.01800537-.00524902,.03466797-.00537109,.05267334h5.49456787v-12.25415039c.00323486-.03100586,.01818848-.05810547,.01818848-.08990479V9.17724611c0-.50195312-.40838623-.909729-.91229248-.909729ZM8.66448975,19.41918947l10.39263916-9.33221436h7.11639404v9.33221436H8.66448975Z"/></g><path class="cls-3" d="M31.05196898,10.00000001c-1.13332084,0-2.05196898,.89504753-2.05196898,1.99926377v8.00073623h9V10.00000001h-6.94803102Z"/><rect class="cls-4" x="29" y="21.0000008" width="9" height="11.40869062"/><path class="cls-2" d="M22.5,10.7416382c-1.51928711,0-2.18878174,.83746338-2.40789795,2h-1.67950439c-.27636719,0-.5,.22363281-.5,.5s.22363281,.5,.5,.5h6.58740234c0-1.65686035,0-3-2.5-3Z"/></g></svg>