<?xml version="1.0" encoding="UTF-8"?><svg xmlns="http://www.w3.org/2000/svg" viewBox="0 0 40 40" focusable="false" aria-hidden="true"><defs><style>.cls-1{fill:none;}.cls-2{fill:#000d6e;}.cls-3{fill:#6c2273;}.cls-4{fill:#b8b2ff;}</style></defs><g id="Solid"><rect class="cls-1" width="40" height="40"/></g><g id="Icon_Purple"><path class="cls-4" d="M11.95989526,10.00012207c-3.8659668,.02215576-6.98193359,3.17407227-6.95977783,7.04003906,.02215576,3.86590576,3.1741333,6.98187256,7.03997803,6.9597168,3.86590576-.02215576,6.98193359-3.17407227,6.95977783-7.03997803-.0222168-3.8659668-3.1741333-6.98193359-7.03997803-6.95977783Z"/><path class="cls-4" d="M28,4c-3.86602783,0-7,3.27435303-7,7.09039307,0,3.81610107,3.13397217,6.90960693,7,6.90960693,3.8659668,0,7-3.09350586,7-6.90960693,0-3.81604004-3.1340332-7.09039307-7-7.09039307Z"/><path class="cls-3" d="M22.98150635,22.00002486c-3.8659668,.01025391-6.99163818,3.15252686-6.98144531,7.01849365,.01025391,3.8659668,3.15252686,6.99169922,7.01849365,6.98144531,3.8659668-.01019287,6.99163818-3.15246582,6.98144531-7.01849365-.01025391-3.8659668-3.15246582-6.99163818-7.01849365-6.98144531Z"/><path class="cls-4" d="M23.5135498,26.69619185c.00750732-.00012207,.01202393-.00378418,.01965332-.00378418,.47540283,.00189209,.73651123,.23706055,.86968994,.56939697,.00238037,.00592041,.00640869,.01055908,.00872803,.01654053l1.44287109-.62304688c-.29443359-.82617188-1.10742188-1.3671875-2.35058594-1.37109375-.00952148,0-.0177002,.0022583-.02716064,.00231934-1.53509521,.00921631-2.52801514,1.07720947-2.53143311,2.41174316l-.00048828,.21972656-.04705811-.00012207-.74542236-.00183105v.00012207l-.00244141,1.02331543,.79199219,.00195312-.00146484,.51660156-.04705811-.00012207-.74542236-.00183105v.00012207l-.00244141,1.03405762,.79248047,.00195312-.00585938,2.21191406,4.63946533,.01159668,.04705811,.00012207,.00390625-1.41894531-3.05859375-.0078125,.00195312-.79187012v-.00012207l1.96612549,.00476074,.04705811,.00012207,.00244141-1.03417969-2.01269531-.00488281,.00097656-.51745605v-.00012207l1.96661377,.0057373,.04705811,.00012207,.00244141-1.0234375-2.01318359-.00488281,.00097656-.22070312c.00097656-.5213623,.28466797-.99713135,.93981934-1.00598145Z"/><g><path class="cls-2" d="M6.91137231,17.00244141c0-1.0703125,.79492188-1.83984375,1.84472656-1.83984375,.92773438,0,1.50341797,.58105469,1.67675781,1.16699219l-.81542969,.33154297c-.10693359-.41796875-.39257812-.69335938-.88183594-.69335938-.56542969,0-.95800781,.41308594-.95800781,1.03466797,0,.62207031,.39257812,1.02978516,.953125,1.02978516,.49414062,0,.77978516-.27539062,.88671875-.69335938l.81542969,.33154297c-.18359375,.60644531-.76464844,1.16699219-1.68701172,1.16699219-1.03955078,0-1.83447266-.76953125-1.83447266-1.83496094Z"/><path class="cls-2" d="M13.05248559,15.22900391h.85107422v3.54199219h-.85107422v-1.41699219h-1.22314453v1.41699219h-.85107422v-3.54199219h.85107422v1.36572266h1.22314453v-1.36572266Z"/><path class="cls-2" d="M17.0886184,15.96777344h-1.54931641v.67822266h1.35546875v.73876953h-1.35546875v1.38623047h-.85107422v-3.54199219h2.40039062v.73876953Z"/></g><path class="cls-3" d="M27.1003418,9.09326172c0-.00134277,.00061035-.0022583,.00061035-.00360107,.00170898-.48974609,.31262207-.78839111,.93493652-.78839111,.55175781,0,.97167969,.31152344,1.15136719,.97167969l1.61914062-.61132812c-.00061035-.0022583-.0020752-.00408936-.00268555-.00634766-.22998047-.87249756-.94720459-1.50592041-1.95239258-1.70947266v-1.11523438h-1.43945312v1.10351562c-1.30560303,.21557617-2.01263428,1.06549072-2.01434326,2.17883301,0,.00128174-.00030518,.00250244-.00030518,.00378418,0,2.82836914,3.78216553,2.16082764,3.78936768,3.76147461,0,.00152588,.00067139,.00262451,.00067139,.00415039,0,.4921875-.35986328,.8046875-1.01953125,.8046875-.74365234,0-1.28320312-.45605469-1.48730469-1.1640625l-1.60400391,.59851074-.00292969,.00109863c.32373047,1.08007812,1.18701172,1.78710938,2.33837891,1.95507812v1.09179688h1.42773438v-1.11523438c1.30664062-.26464844,2.08691406-1.12792969,2.08691406-2.29101562,0-.00134277-.00030518-.00238037-.00030518-.00372314-.00341797-2.95812988-3.8258667-2.18054199-3.8258667-3.66619873Z"/></g></svg>