<?xml version="1.0" encoding="UTF-8"?><svg xmlns="http://www.w3.org/2000/svg" viewBox="0 0 40 40" focusable="false" aria-hidden="true"><g id="Solid"><rect width="40" height="40" fill="none"/></g><g id="Icon_Purple"><circle cx="20" cy="20" r="15" fill="#b8b2ff"/><path d="M24.07440186,11.00000001h-.5c-1.10455322,0-2,.89538574-2,2v8c0,.93084717,.63885498,1.70623779,1.5,1.92926025v6.07073975h2V12.00000001c0-.55230713-.44769287-1-1-1Z" fill="#6c2273"/><path d="M25.07441793,36.43623694c0,.31006969-.34131576,.56376307-.75851111,.56376307h-.98295188c-.41719535,0-.758537-.25369338-.758537-.56376307v-11.87247385c0-.31006969,.34134165-.56376307,.758537-.56376307h1.741463v12.43623693Z" fill="#000d6e"/><g><path d="M19.42578125,11.84179689c-.27636719,0-.5,.22363281-.5,.5v4.53820801h-1v-4.53820801c0-.27636719-.22363281-.5-.5-.5s-.5,.22363281-.5,.5v4.53820801h-1v-4.53820801c0-.27636719-.22363281-.5-.5-.5s-.5,.22363281-.5,.5v4.53820801h-.00024414c0,.00097656,.00024414,.00195312,.00024414,.00292969v.11413574c0,.02874756,.01165771,.05358887,.01629639,.08099365,.07501221,1.37200928,.90136719,2.50311279,1.98345947,2.77453613v1.37945557c.0479126-.01141357,.09350586-.02941895,.14477539-.02941895h.71051025c.05126953,0,.09686279,.01794434,.14471436,.02935791v-1.3795166c1.08093262-.2711792,1.90661621-1.40020752,1.98309326-2.77026367,.00512695-.02874756,.01715088-.05493164,.01715088-.08514404v-4.65527344c0-.27636719-.22363281-.5-.5-.5Z" fill="#6c2273"/><path d="M17.0703125,21.20263673c-.05126953,0-.09686279,.01800537-.14477539,.02941895-.2833252,.06774902-.5,.31195068-.5,.61529541v14.50787354c0,.35461426,.29016113,.64477539,.64477539,.64477539h.71051025c.35461426,0,.64471436-.29016113,.64471436-.64477539v-14.50787354c0-.30334473-.21655273-.54760742-.5-.61535645-.04785156-.01141357-.09344482-.02935791-.14471436-.02935791h-.71051025Z" fill="#000d6e"/></g></g></svg>