<svg xmlns="http://www.w3.org/2000/svg" viewBox="0 0 40 40" focusable="false" aria-hidden="true"><defs><style>.cls-1{fill:none;}.cls-2{fill:#b8b2ff;}.cls-3{fill:#000d6e;}.cls-4{fill:#6c2273;}</style></defs><g id="Solid"><rect class="cls-1" width="40" height="40"/></g><g id="Icon_Purple" data-name="Icon Purple"><path class="cls-2" d="M13.6708,18.0279C15.3932,22.4163,19.7122,28.59,20,28.9992c.2879-.4094,4.6069-6.5829,6.3293-10.9713a7,7,0,1,0-12.6586,0ZM20,11.997a3,3,0,1,1-3,3A3,3,0,0,1,20,11.997Z"/><path class="cls-3" d="M20,17.9977a3,3,0,1,0-3-3A3,3,0,0,0,20,17.9977Z"/><path class="cls-4" d="M29.752,17.274A10.1374,10.1374,0,0,0,30,15.0423,9.9811,9.9811,0,0,0,14.2089,6.8557a.5.5,0,1,0,.582.8126,9.0255,9.0255,0,0,1,13.9855,9.385,9.1631,9.1631,0,0,1-.62,1.82l-.16.3921-.0493-.1518a.5.5,0,1,0-.9512.3086l.3994,1.2306a.5.5,0,0,0,.4756.3458.5061.5061,0,0,0,.1513-.0235l1.2413-.3946a.5.5,0,0,0-.3028-.9532l-.0362.0115.1505-.3719A10.08,10.08,0,0,0,29.752,17.274Z"/><path class="cls-4" d="M27.2336,22.0222a.5109.5109,0,0,0-.6783.2256c-.6729,1.2717-1.4873,2.68-2.4209,4.1871-1.1074,1.7873-3.2441,4.8844-4.1387,6.1726-.8946-1.2872-3.0318-4.3853-4.1392-6.1726a50.4779,50.4779,0,0,1-4.024-7.6055,9.0136,9.0136,0,0,1-.6089-1.7932,9.1338,9.1338,0,0,1,.4829-5.531,9.0274,9.0274,0,0,1,.9268-1.6378.4961.4961,0,0,0,.4868.4218c.0112,0,.023,0,.0342-.001a.5006.5006,0,0,0,.4654-.5333l-.0874-1.2892A.5021.5021,0,0,0,13,8.0008l-1.3013.087a.5.5,0,0,0-.4658.5323.4951.4951,0,0,0,.5322.4658l.1791-.0119A10.0208,10.0208,0,0,0,10,15.0251a10.1376,10.1376,0,0,0,.248,2.2318,9.9234,9.9234,0,0,0,.6656,1.9661,51.4114,51.4114,0,0,0,4.0933,7.7393C16.438,29.2722,19.7354,34,19.7354,34H13v1H27V34H20.256s3.2969-4.7278,4.728-7.0377q1.4194-2.29,2.4757-4.2867A.4858.4858,0,0,0,27.2336,22.0222Z"/></g></svg>