<?xml version="1.0" encoding="UTF-8"?><svg xmlns="http://www.w3.org/2000/svg" viewBox="0 0 40 40" focusable="false" aria-hidden="true"><defs><style>.cls-1{fill:none;}.cls-2{fill:#000d6e;}.cls-3{fill:#1b5951;}.cls-4{fill:#94e3d4;}</style></defs><g id="Solid"><rect class="cls-1" width="40" height="40"/></g><g id="Icon_Green"><path class="cls-3" d="M35.75,26.4190674V13.60156251c1.32781982-.6506958,2.25-2.00244141,2.25-3.58087158,0-1.48260498-.81585693-2.76202393-2.01428223-3.45288086l-.82208252,3.45288086h-2.32727051l-.82208252-3.45288086c-1.19836426,.69085693-2.01428223,1.97027588-2.01428223,3.45288086,0,1.57843018,.92218018,2.93017578,2.25,3.58087158v12.81750488c-1.32781982,.6506958-2.25,2.00250244-2.25,3.58093262,0,2.20910645,1.79083252,4,4,4s4-1.79089355,4-4c0-1.57843018-.92218018-2.93023682-2.25-3.58093262Zm-1.75,4.83093262c-.68945312,0-1.25-.56054688-1.25-1.25s.56054688-1.25,1.25-1.25,1.25,.56054688,1.25,1.25-.56054688,1.25-1.25,1.25Z"/><g><path class="cls-3" d="M25.72839355,17.00000001H5.27160645l-.97674561,3c-.19464111,.48748779-.29486084,1.01031494-.29486084,1.53845215v5.46154785H27v-5.46154785c0-.52813721-.10021973-1.05096436-.29486084-1.53845215l-.97674561-3ZM7.5,24.00000001c-.82843018,0-1.5-.67156982-1.5-1.5s.67156982-1.5,1.5-1.5,1.5,.67156982,1.5,1.5-.67156982,1.5-1.5,1.5Zm16,0c-.82843018,0-1.5-.67156982-1.5-1.5s.67156982-1.5,1.5-1.5,1.5,.67156982,1.5,1.5-.67156982,1.5-1.5,1.5Z"/><path class="cls-2" d="M22,31.00000001c0,.55224609,.44769287,1,1,1h3c.55230713,0,1-.44775391,1-1v-3h-5v3Z"/><path class="cls-2" d="M4,31.00000001c0,.55224609,.44769287,1,1,1h3c.55230713,0,1-.44775391,1-1v-3H4v3Z"/><rect class="cls-3" x="26" y="14.00000001" width="3" height="2" rx=".5" ry=".5"/><rect class="cls-3" x="2" y="14.00000001" width="3" height="2" rx=".5" ry=".5"/><path class="cls-4" d="M22.94549561,9.84613038c-.44641113-1.11791992-1.49316406-1.84613037-2.65380859-1.84613037H10.70831299c-1.16064453,0-2.20739746,.72821045-2.65380859,1.84613037l-2.45733643,6.15386963H25.40283203l-2.45733643-6.15386963Z"/></g><path class="cls-2" d="M34,24.13378906c-.27636719,0-.5-.22363281-.5-.5v-7.26757812c0-.27636719,.22363281-.5,.5-.5s.5,.22363281,.5,.5v7.26757812c0,.27636719-.22363281,.5-.5,.5Z"/><path class="cls-4" d="M34,27.75000001c-1.24072266,0-2.25,1.00976562-2.25,2.25s1.00927734,2.25,2.25,2.25,2.25-1.00976562,2.25-2.25-1.00927734-2.25-2.25-2.25Zm0,3.5c-.68945312,0-1.25-.56054688-1.25-1.25s.56054688-1.25,1.25-1.25,1.25,.56054688,1.25,1.25-.56054688,1.25-1.25,1.25Z"/></g></svg>