<svg xmlns="http://www.w3.org/2000/svg" viewBox="0 0 40 40" focusable="false" aria-hidden="true"><defs><style>.cls-1{fill:none;}.cls-2{fill:#000d6e;}.cls-3{fill:#fae052;}.cls-4{fill:#fa9319;}</style></defs><g id="Solid"><rect class="cls-1" width="40" height="40"/></g><g id="Icon"><rect class="cls-2" x="11" y="33" width="18" height="1"/><path class="cls-3" d="M14,19.51l4.91-1.86a.6.6,0,0,1,.72.31.59.59,0,0,1-.18.77C19.11,19,14,21.89,14,28H26a37.37,37.37,0,0,1,1.09-6.69c.68-2.94,2.13-5.13,1.88-8.37a6.94,6.94,0,0,0-2.48-5C24.13,6,20.32,5.94,18.81,6l.34.93a.62.62,0,0,1-.12.61L12,16.39a2,2,0,0,0,0,2.52A1.9,1.9,0,0,0,14,19.51Zm6-8.7a.88.88,0,1,1-.88.88A.88.88,0,0,1,20,10.81Z"/><rect class="cls-4" x="14" y="29" width="12" height="3"/></g></svg>