<svg xmlns="http://www.w3.org/2000/svg" viewBox="0 0 40 40" focusable="false" aria-hidden="true"><g id="Solid"><rect width="40" height="40" fill="none"/></g><g id="Icon"><rect x="11" y="33" width="18" height="1" fill="#000d6e"/><path d="M14,19.51l4.91-1.86a.6.6,0,0,1,.72.31.59.59,0,0,1-.18.77C19.11,19,14,21.89,14,28H26a37.37,37.37,0,0,1,1.09-6.69c.68-2.94,2.13-5.13,1.88-8.37a6.94,6.94,0,0,0-2.48-5C24.13,6,20.32,5.94,18.81,6l.34.93a.62.62,0,0,1-.12.61L12,16.39a2,2,0,0,0,0,2.52A1.9,1.9,0,0,0,14,19.51Zm6-8.7a.88.88,0,1,1-.88.88A.88.88,0,0,1,20,10.81Z" fill="#fae052"/><rect x="14" y="29" width="12" height="3" fill="#fa9319"/></g></svg>