<?xml version="1.0" encoding="UTF-8"?><svg id="Ebene_1" data-name="Ebene 1" xmlns="http://www.w3.org/2000/svg" viewBox="0 0 1080 1080" focusable="false" aria-hidden="true"><polygon points="311.08 725.66 954.46 723.06 953.96 597.49 310.56 597.99 311.08 725.66" fill="#94e3d4"/><rect x="135.85" y="640.48" width="127.65" height="43.06" transform="translate(-463.13 859.03) rotate(-89.77)" fill="#000d6e"/><polygon points="244.07 598.36 243.55 726.01 286.61 726.18 287.13 598.54 244.07 598.36" fill="#000d6e"/><path d="m178.07,575.5l-.18-40.29c-.18-42.08,17.08-81.72,48.6-111.6,29.32-27.8,67.72-44.06,108.97-46.32-7.84-14.38-12.03-30.41-12.11-47.03-.13-27.91,11.47-54.18,32.65-73.98,21.04-19.67,48.99-30.57,78.68-30.68l86.56-.33c29.6-.11,57.47,10.62,78.5,30.22,21,19.59,32.65,45.7,32.77,73.53.13,27.9-11.47,54.17-32.65,73.97-21.06,19.67-48.99,30.57-78.68,30.68l-28.57.11c-8.86,43.11-49.22,75.86-97.65,76.04l-65.24.24c-24.05.09-43.53,18.56-43.44,41.18l.1,23.85-108.32.41Z" fill="#94e3d4"/><polygon points="711.58 724.04 954.46 723.06 954.46 596.98 711.58 596.99 711.58 724.04" fill="#1b5951"/></svg>