<svg xmlns="http://www.w3.org/2000/svg" viewBox="0 0 40 40" focusable="false" aria-hidden="true"><g id="Solid"><rect width="40" height="40" fill="none"/></g><g id="Icon_Tangerine" data-name="Icon Tangerine"><path d="M29.9,10.1005a14,14,0,1,0,0,19.799A14,14,0,0,0,29.9,10.1005Zm-4.2561,3.0636L27.765,11.043a.5.5,0,0,1,.707.707l-2.1215,2.1211a.5.5,0,1,1-.7071-.707ZM19.5,8.5a.5.5,0,0,1,1,0v3a.5.5,0,0,1-1,0Zm.5,9.2558a1.73,1.73,0,0,1,.8325.22l3.0712-3.0712a.5.5,0,0,1,.707.707l-3.0739,3.0739a1.73,1.73,0,0,1,.2132.8206,1.75,1.75,0,1,1-1.75-1.75ZM11.5717,11.04a.5.5,0,0,1,.707,0L14.4,13.1611a.5.5,0,0,1-.7071.7071l-2.1215-2.1211A.5.5,0,0,1,11.5717,11.04ZM11.5,20.0059h-3a.5.5,0,0,1,0-1h3a.5.5,0,0,1,0,1Zm16.5,7.03A.9637.9637,0,0,1,27.0363,28H12.9637A.9637.9637,0,0,1,12,27.0363V24.9637A.9637.9637,0,0,1,12.9637,24H27.0363A.9637.9637,0,0,1,28,24.9637Zm3.5-7.03h-3a.5.5,0,0,1,0-1h3a.5.5,0,0,1,0,1Z" fill="#fae052"/><path d="M11.5,19.0059h-3a.5.5,0,0,0,0,1h3a.5.5,0,0,0,0-1Z" fill="#fa9319"/><path d="M31.5,19.0059h-3a.5.5,0,0,0,0,1h3a.5.5,0,0,0,0-1Z" fill="#fa9319"/><path d="M25.9969,14.0176a.4984.4984,0,0,0,.3536-.1465L28.472,11.75a.5.5,0,0,0-.707-.707l-2.1216,2.1211a.5.5,0,0,0,.3535.8535Z" fill="#fa9319"/><path d="M13.6932,13.8682a.5.5,0,0,0,.7071-.7071L12.2787,11.04a.5.5,0,0,0-.707.7071Z" fill="#fa9319"/><path d="M20,12a.5.5,0,0,0,.5-.5v-3a.5.5,0,0,0-1,0v3A.5.5,0,0,0,20,12Z" fill="#fa9319"/><path d="M20,21.2558a1.75,1.75,0,0,0,1.75-1.75,1.73,1.73,0,0,0-.2132-.8206l3.0739-3.0739a.5.5,0,0,0-.707-.707l-3.0712,3.0712a1.73,1.73,0,0,0-.8325-.22,1.75,1.75,0,0,0,0,3.5Z" fill="#000d6e"/><rect x="12.4999" y="24.5" width="15" height="3" rx="0.4639" fill="#000d6e"/><path d="M27,25v2H13V25H27m.0362-1H12.9637A.9638.9638,0,0,0,12,24.9638v2.0724A.9638.9638,0,0,0,12.9637,28H27.0362A.9638.9638,0,0,0,28,27.0362V24.9638A.9638.9638,0,0,0,27.0362,24Z" fill="#000d6e"/></g></svg>