<svg xmlns="http://www.w3.org/2000/svg" viewBox="0 0 40 40" focusable="false" aria-hidden="true"><defs><style>.cls-1{fill:none;}.cls-2{fill:#000d6e;}.cls-3{fill:#d9304c;}.cls-4{fill:#ffaca6;}</style></defs><g id="Solid"><rect class="cls-1" width="40" height="40"/></g><g id="Icon_Red" data-name="Icon Red"><path class="cls-2" d="M23,33.2143A1.7857,1.7857,0,0,0,24.7857,35h3.4286A1.7857,1.7857,0,0,0,30,33.2143V30H23Z"/><rect class="cls-3" x="28" y="10" width="4" height="3" rx="1"/><polygon class="cls-4" points="24 6 11 6 11 14 27.5 14 24 6"/><path class="cls-3" d="M28,15H11V29H30l.0107-7.3a6.0876,6.0876,0,0,0-.4683-2.3418ZM25.5,26h-.02a2.38,2.38,0,0,1-.95-.2h-.01A2.5,2.5,0,0,1,25.5,21,2.4873,2.4873,0,0,1,28,23.5,2.5009,2.5009,0,0,1,25.5,26Z"/><path class="cls-4" d="M26.49,21.2l-1.18,1.64,1.49,1.05L25.48,26h.02a2.5026,2.5026,0,0,0,.99-4.8Z"/><path class="cls-4" d="M24.02,23.05,25.5,21a2.5,2.5,0,0,0-.98,4.8h.01l1.03-1.66Z"/></g></svg>