<svg xmlns="http://www.w3.org/2000/svg" viewBox="0 0 40 40" focusable="false" aria-hidden="true"><g id="Solid"><rect width="40" height="40" fill="none"/></g><g id="Icon_Red" data-name="Icon Red"><path d="M25.5031,31.98a1.4979,1.4979,0,0,1,.22.02q.09-7.5.15-14.9l1.36.85a1.0028,1.0028,0,0,0-.32-1.38l-1.03-.64c.02-2.33.04-4.66.06-6.97a2.193,2.193,0,0,0-.89-1.6c-.03-.02-.07-.04-.1-.06a.9977.9977,0,0,1-1.95-.3,1.0127,1.0127,0,0,1,.19-.59,9.2114,9.2114,0,0,0-6.38,0,1.0027,1.0027,0,0,1-.81,1.59.9811.9811,0,0,1-.95-.7c-.03.02-.07.04-.1.06a2.1606,2.1606,0,0,0-.89,1.6c.02,2.31.04,4.64.06,6.97l-1.04.64a1,1,0,0,0-.31,1.38l1.36-.85q.06,7.41.15,14.9a1.4769,1.4769,0,0,1,1.72,1.48,1.2547,1.2547,0,0,1-.1.51,1.6646,1.6646,0,0,0,.39.04h7.42a1.6646,1.6646,0,0,0,.39-.04,1.2562,1.2562,0,0,1-.1-.51A1.4979,1.4979,0,0,1,25.5031,31.98Zm-.3787-16.3333Q24.5823,17.5583,24.04,19.47a13.74,13.74,0,0,0-8.08,0l-1.0844-3.8231A17.4263,17.4263,0,0,1,25.1244,15.6467ZM15.069,29.4136q.4855-1.4337.971-2.8674a13.4677,13.4677,0,0,0,7.92,0l.9709,2.8674A16.77,16.77,0,0,1,15.069,29.4136Z" fill="#d9304c"/><path d="M24.04,19.47q.5421-1.9116,1.0844-3.8231a17.4263,17.4263,0,0,0-10.2488,0L15.96,19.47A13.74,13.74,0,0,1,24.04,19.47Z" fill="#ffaca6"/><path d="M23.96,26.5462a13.4677,13.4677,0,0,1-7.92,0q-.4854,1.4337-.971,2.8674a16.77,16.77,0,0,0,9.8619,0Z" fill="#ffaca6"/><path d="M14.5031,31.98a1.4953,1.4953,0,0,0-.22.02v.18a.9635.9635,0,0,0,.04.29,1.8557,1.8557,0,0,0,1.38,1.46,1.1688,1.1688,0,0,0,.2.06,1.2547,1.2547,0,0,0,.1-.51A1.498,1.498,0,0,0,14.5031,31.98Z" fill="#ffaca6"/><path d="M25.6931,32.47a1.4279,1.4279,0,0,0,.03-.29V32a1.4769,1.4769,0,0,0-1.72,1.48,1.2562,1.2562,0,0,0,.1.51,1.17,1.17,0,0,0,.2-.06A1.9132,1.9132,0,0,0,25.6931,32.47Z" fill="#ffaca6"/><path d="M16.0031,8a1.0027,1.0027,0,0,0,.81-1.59,8.815,8.815,0,0,0-1.76.89A.9811.9811,0,0,0,16.0031,8Z" fill="#ffaca6"/><path d="M24.0031,8a.99.99,0,0,0,.95-.7,8.8176,8.8176,0,0,0-1.76-.89,1.0127,1.0127,0,0,0-.19.59A.9965.9965,0,0,0,24.0031,8Z" fill="#ffaca6"/><path d="M14.986,3.5181V5.5044a.5.5,0,0,1-1,0V3.5181a.5.5,0,0,1,1,0Z" fill="#000d6e"/><path d="M13.0085,7.4819a.5.5,0,0,1-.5.5H10.5221a.5.5,0,0,1,0-1h1.9864A.5.5,0,0,1,13.0085,7.4819Z" fill="#000d6e"/><path d="M13.6872,5.9761a.5.5,0,0,1-.7071.707l-1.65-1.65a.5.5,0,0,1,.7071-.707Z" fill="#000d6e"/></g></svg>