<svg xmlns="http://www.w3.org/2000/svg" viewBox="0 0 40 40" focusable="false" aria-hidden="true"><defs><style>.cls-1{fill:none;}.cls-2{fill:#1b5951;}.cls-3{fill:#94e3d4;}.cls-4{fill:#000d6e;}</style></defs><g id="Solid"><rect class="cls-1" x="-0.4572" y="-0.2494" width="40" height="40"/></g><g id="Icon_Green" data-name="Icon Green"><path class="cls-2" d="M18.9,12,8.04,18.06a2.0043,2.0043,0,0,1,.92,3.35A1.9614,1.9614,0,0,1,7.54,22H6v4.01A1.9973,1.9973,0,0,0,8,28h5.09a8.2577,8.2577,0,0,1-.07-1,8.0106,8.0106,0,0,1,7.99-8.01c.23,0,.45.01.67.03l.97-1.44-1.74-1.23,1.67-2.33h1.23l-1.5,2.1,1.72,1.21-1.25,1.86A8.0122,8.0122,0,0,1,29,27a8.2577,8.2577,0,0,1-.07,1H33V12Z"/><polygon class="cls-3" points="30.73 5 28.91 5 20 11 21.81 11 30.73 5"/><path class="cls-3" d="M21,20a7,7,0,1,0,7,7A7,7,0,0,0,21,20Zm0,11a4,4,0,1,1,4-4A4,4,0,0,1,21,31Z"/><circle class="cls-4" cx="21" cy="27" r="4"/><path class="cls-3" d="M8.96,21.41a2.0043,2.0043,0,0,0-.92-3.35L8,18.09a.031.031,0,0,0-.02.01,4.04,4.04,0,0,0-1.89,2.94A4.7469,4.7469,0,0,0,6,22H7.54A1.9614,1.9614,0,0,0,8.96,21.41Z"/></g></svg>