<svg xmlns="http://www.w3.org/2000/svg" viewBox="0 0 40 40" focusable="false" aria-hidden="true"><defs><style>.cls-1{fill:none;}.cls-2{fill:#ffaca6;}.cls-3{fill:#d9304c;}.cls-4{fill:#000d6e;}</style></defs><g id="Solid"><rect class="cls-1" width="40" height="40"/></g><g id="Icon_Red" data-name="Icon Red"><path class="cls-2" d="M30,4H10A1,1,0,0,0,9,5v8H31V5A1,1,0,0,0,30,4ZM15,8.941A2.4589,2.4589,0,0,1,13,11a2.4589,2.4589,0,0,1-2-2.059V6.7348L13,6l2,.7348Z"/><path class="cls-2" d="M9,35a1,1,0,0,0,1,1H30a1,1,0,0,0,1-1V27H9Z"/><path class="cls-2" d="M9,26H31V14H9Zm4.5-10h8a.5.5,0,0,1,0,1h-8a.5.5,0,0,1,0-1Zm0,2h8a.5.5,0,0,1,0,1h-8a.5.5,0,0,1,0-1Zm0,2h8a.5.5,0,0,1,0,1h-8a.5.5,0,0,1,0-1Z"/><rect class="cls-3" x="9" y="26" width="22" height="1"/><rect class="cls-3" x="9" y="13" width="22" height="1"/><path class="cls-3" d="M13.5,19h8a.5.5,0,0,0,0-1h-8a.5.5,0,0,0,0,1Z"/><path class="cls-3" d="M13.5,17h8a.5.5,0,0,0,0-1h-8a.5.5,0,0,0,0,1Z"/><path class="cls-3" d="M13.5,21h8a.5.5,0,0,0,0-1h-8a.5.5,0,0,0,0,1Z"/><path class="cls-4" d="M11,6.7348V8.941A2.4589,2.4589,0,0,0,13,11a2.4589,2.4589,0,0,0,2-2.059V6.7348L13,6Z"/></g></svg>