<svg xmlns="http://www.w3.org/2000/svg" viewBox="0 0 40 40" focusable="false" aria-hidden="true"><defs><style>.cls-1{fill:none;}.cls-2{fill:#94e3d4;}.cls-3{fill:#1b5951;}.cls-4{fill:#000d6e;}</style></defs><g id="Solid"><rect class="cls-1" width="40" height="40"/></g><g id="Icon_Green" data-name="Icon Green"><polygon class="cls-2" points="22.702 11 19.632 5 15.512 5 18.512 11 22.702 11"/><path class="cls-2" d="M28,15.98h3.88l.0017.01h0c-.03-.18-.05-.34-.08-.5-.11-.66-.2-1.19-.24-1.48h-3.56A.985.985,0,1,0,28,15.98Z"/><path class="cls-3" d="M33.5,25.71s-1.028-6.2579-1.6183-9.72l-.0017-.01H28a.9848.9848,0,0,1-.9882-.9807L27.01,14.99A.9859.9859,0,0,1,28,14h3.56a.44.44,0,0,1-.02-.1,3.8228,3.8228,0,0,0-.08-.39A1.7268,1.7268,0,0,0,29.58,12H6V28h5.07A8.2577,8.2577,0,0,1,11,27a8.0151,8.0151,0,0,1,10.04-7.74l1.4-2.05-1.75-1.24L22.11,14h1.23l-1.25,1.74,1.72,1.22L22.02,19.6A7.9984,7.9984,0,0,1,27,27a8.2577,8.2577,0,0,1-.07,1H31.2A2.124,2.124,0,0,0,33.5,25.71Z"/><path class="cls-2" d="M19,20a7,7,0,1,0,7,7A7,7,0,0,0,19,20Zm0,11a4,4,0,1,1,4-4A4,4,0,0,1,19,31Z"/><circle class="cls-4" cx="19" cy="27" r="4"/></g></svg>