<svg xmlns="http://www.w3.org/2000/svg" viewBox="0 0 40 40" focusable="false" aria-hidden="true"><g id="Solid"><rect width="40" height="40" fill="none"/></g><g id="Icon_Purple" data-name="Icon Purple"><circle cx="11.5" cy="22.5" r="1.5" fill="none"/><circle cx="28.5" cy="22.5" r="1.5" fill="none"/><path d="M27,31a1,1,0,0,0,1,1h3a1,1,0,0,0,1-1V28H27Z" fill="#000d6e"/><path d="M8,31a1,1,0,0,0,1,1h3a1,1,0,0,0,1-1V28H8Z" fill="#000d6e"/><rect x="31" y="14" width="3" height="2" rx="0.5" fill="#6c2273"/><rect x="6" y="14" width="3" height="2" rx="0.5" fill="#6c2273"/><path d="M30.67,17H23.08l-2.77,3.66,4.77,3.38L23.2,27H32V21.54A3.8881,3.8881,0,0,0,31.69,20ZM28.5,24A1.5,1.5,0,1,1,30,22.5,1.498,1.498,0,0,1,28.5,24Z" fill="#6c2273"/><path d="M18.88,20.88,21.82,17H9.33L8.31,20A3.8881,3.8881,0,0,0,8,21.54V27H22.02l1.71-2.69ZM11.5,24A1.5,1.5,0,1,1,13,22.5,1.498,1.498,0,0,1,11.5,24Z" fill="#6c2273"/><path d="M27.7692,9.8461A3,3,0,0,0,25,8H15a3,3,0,0,0-2.7692,1.8461L9.6666,16H30.3334Z" fill="#b8b2ff"/></g></svg>