<svg xmlns="http://www.w3.org/2000/svg" viewBox="0 0 40 40" focusable="false" aria-hidden="true"><g id="Solid"><rect width="40" height="40" fill="none"/></g><g id="Icon_Green" data-name="Icon Green"><circle cx="28.5" cy="22.5" r="1.5" fill="none"/><circle cx="11.5" cy="22.5" r="1.5" fill="none"/><path d="M27,31a1,1,0,0,0,1,1h3a1,1,0,0,0,1-1V28H27Z" fill="#000d6e"/><path d="M8,31a1,1,0,0,0,1,1h3a1,1,0,0,0,1-1V28H8Z" fill="#000d6e"/><rect x="31" y="14" width="3" height="2" rx="0.5" fill="#1b5951"/><rect x="6" y="14" width="3" height="2" rx="0.5" fill="#1b5951"/><path d="M20.89,14.51l-4.85-3.44L18.38,8H15a3.0069,3.0069,0,0,0-2.77,1.85L9.67,16H19.94Z" fill="#94e3d4"/><path d="M22.24,14.24,21.12,16h9.21L27.77,9.85A3.0069,3.0069,0,0,0,25,8H19.64l-2.17,2.86Z" fill="#94e3d4"/><path d="M30.6731,17H9.3269L8.3077,20A4,4,0,0,0,8,21.5385V27H32V21.5385A4,4,0,0,0,31.6923,20ZM11.5,24A1.5,1.5,0,1,1,13,22.5,1.5,1.5,0,0,1,11.5,24Zm17,0A1.5,1.5,0,1,1,30,22.5,1.5,1.5,0,0,1,28.5,24Z" fill="#1b5951"/></g></svg>