<svg xmlns="http://www.w3.org/2000/svg" viewBox="0 0 40 40" focusable="false" aria-hidden="true"><g id="Solid"><rect width="40" height="40" fill="none"/></g><g id="Icon_Tangerine" data-name="Icon Tangerine"><path d="M33.5,19.5h-3a.5.5,0,0,0,0,1h3a.5.5,0,0,0,0-1Z" fill="#000d6e"/><path d="M29.5332,22.8291a.5.5,0,0,0-.707.707l2.1211,2.1211a.5.5,0,0,0,.707-.707Z" fill="#000d6e"/><path d="M29.1821,17.3174a.498.498,0,0,0,.3535-.1465L31.6572,15.05a.5.5,0,0,0-.707-.707l-2.1216,2.1211a.5.5,0,0,0,.3535.8535Z" fill="#000d6e"/><path d="M6,18.0017v4.0056a1.001,1.001,0,0,0,1,1.0018h.99v5.0027a1.0022,1.0022,0,0,0,1.7077.6974l.9994-.9852a.9788.9788,0,0,0,.2929-.6972V23.0091H15V17H7A1.001,1.001,0,0,0,6,18.0017Z" fill="#fae052"/><path d="M26,17v6a3,3,0,0,0,0-6Z" fill="#fa9319"/><path d="M23.7985,11.0569l-.4519.2992c-1.81,2.4986-4.3912,4.9958-7.3466,5.6376v6.0125c2.9815.6475,5.5825,3.171,7.3944,5.7041l.4041.2328A.922.922,0,0,0,25,27.9985V12.0015A.922.922,0,0,0,23.7985,11.0569Z" fill="#fae052"/></g></svg>