<svg xmlns="http://www.w3.org/2000/svg" viewBox="0 0 40 40" focusable="false" aria-hidden="true"><defs><style>.cls-1{fill:none;}.cls-2{fill:#6c2273;}.cls-3{fill:#000d6e;}.cls-4{fill:#b8b2ff;}</style></defs><g id="Solid"><rect class="cls-1" width="40" height="40"/></g><g id="Icon_Purple" data-name="Icon Purple"><path class="cls-2" d="M26.35,22H24a1.0029,1.0029,0,0,1-1-1V19a1.0029,1.0029,0,0,1,1-1h5.06L28,15H11V29H30l.01-7H26.35Z"/><path class="cls-3" d="M23,33.2143A1.7857,1.7857,0,0,0,24.7857,35h3.4286A1.7857,1.7857,0,0,0,30,33.2143V30H23Z"/><rect class="cls-2" x="28" y="10" width="4" height="3" rx="1"/><polygon class="cls-4" points="24 6 11 6 11 14 27.5 14 24 6"/><path class="cls-4" d="M29.06,18H27.6l-1.24,1.78,1.81,1.29-.61.93h2.45v-.3a6.073,6.073,0,0,0-.47-2.34Z"/><path class="cls-4" d="M24.98,20.02,26.39,18H24a1.0029,1.0029,0,0,0-1,1v2a1.0029,1.0029,0,0,0,1,1h2.35l.45-.67Z"/></g></svg>