<svg xmlns="http://www.w3.org/2000/svg" viewBox="0 0 40 40" focusable="false" aria-hidden="true"><g id="Solid"><rect width="40" height="40" fill="none"/></g><g id="Icon_Tangerine" data-name="Icon Tangerine"><polygon points="17.298 11 20.368 5 24.488 5 21.488 11 17.298 11" fill="#fae052"/><path d="M12,15.98H8.12l-.0017.01h0c.03-.18.05-.34.08-.5.11-.66.2-1.19.24-1.48h3.56A.985.985,0,1,1,12,15.98Z" fill="#fae052"/><path d="M6.5,25.71s1.028-6.2579,1.6183-9.72l.0017-.01H12a.9848.9848,0,0,0,.9882-.9807L12.99,14.99A.9859.9859,0,0,0,12,14H8.44a.44.44,0,0,0,.02-.1,3.8228,3.8228,0,0,1,.08-.39A1.7268,1.7268,0,0,1,10.42,12H34V28H28.93A8.2577,8.2577,0,0,0,29,27a8.0151,8.0151,0,0,0-10.04-7.74l-1.4-2.05,1.75-1.24L17.89,14H16.66l1.25,1.74-1.72,1.22,1.79,2.64A7.9984,7.9984,0,0,0,13,27a8.2577,8.2577,0,0,0,.07,1H8.8A2.124,2.124,0,0,1,6.5,25.71Z" fill="#fa9319"/><path d="M14,27a7,7,0,1,0,7-7A7,7,0,0,0,14,27Zm3,0a4,4,0,1,1,4,4A4,4,0,0,1,17,27Z" fill="#fae052"/><circle cx="21" cy="27" r="4" fill="#000d6e"/></g></svg>