<svg xmlns="http://www.w3.org/2000/svg" viewBox="0 0 40 40" focusable="false" aria-hidden="true"><defs><style>.cls-1{fill:none;}.cls-2{fill:#000d6e;}.cls-3{fill:#1b5951;}.cls-4{fill:#94e3d4;}</style></defs><g id="Solid"><rect class="cls-1" width="40" height="40"/></g><g id="Icon_Green" data-name="Icon Green"><path class="cls-2" d="M27,31a1,1,0,0,0,1,1h3a1,1,0,0,0,1-1V28H27Z"/><path class="cls-2" d="M8,31a1,1,0,0,0,1,1h3a1,1,0,0,0,1-1V28H8Z"/><rect class="cls-3" x="31" y="14" width="3" height="2" rx="0.5"/><rect class="cls-3" x="6" y="14" width="3" height="2" rx="0.5"/><path class="cls-4" d="M20.8915,14.51l-4.85-3.44L18.3715,8h-3.37a3.0067,3.0067,0,0,0-2.77,1.85L9.6716,16h10.27Z"/><path class="cls-4" d="M22.2415,14.24,21.1215,16h9.21l-2.56-6.15A3.0069,3.0069,0,0,0,25.0015,8h-5.37l-2.17,2.86Z"/><path class="cls-3" d="M8.0658,20.8735c.0113-.0729.026-.1454.0419-.218C8.0912,20.728,8.0782,20.8,8.0658,20.8735Z"/><path class="cls-3" d="M27.6115,21a.5826.5826,0,0,1-.59-.58v-.84a.5826.5826,0,0,1,.59-.58h3.74l.34,1,.0089.0264c-.0035-.0085-.0045-.0179-.0081-.0264l-1.0192-3H9.3269L8.3077,20c-.0115.0275-.0152.0574-.026.0851.0114-.0279.0177-.0575.03-.0851l.34-1h3.75a.589.589,0,0,1,.59.58v.84a.589.589,0,0,1-.59.58H8.0533A4,4,0,0,0,8,21.5385V27H32V21.5385A3.9841,3.9841,0,0,0,31.9467,21ZM24,25.0616H16v-2h8Z"/><path class="cls-3" d="M31.886,20.6348q.0264.1136.0471.2277C31.92,20.7857,31.9036,20.7107,31.886,20.6348Z"/><rect class="cls-4" x="16" y="23.0616" width="8" height="2"/><path class="cls-4" d="M31.3516,19h-3.74a.5826.5826,0,0,0-.59.58v.84a.5826.5826,0,0,0,.59.58h4.35c-.0067-.0461-.02-.0915-.0284-.1375q-.0206-.1143-.0471-.2277a4.2593,4.2593,0,0,0-.1856-.6084L31.6915,20Z"/><path class="cls-4" d="M12.9915,20.42v-.84a.589.589,0,0,0-.59-.58h-3.75l-.34,1c-.0121.0276-.0184.0572-.03.0851a3.5072,3.5072,0,0,0-.174.57c-.0159.0726-.0306.1451-.0419.218-.0065.0424-.0192.0841-.0242.1265h4.36A.589.589,0,0,0,12.9915,20.42Z"/></g></svg>