<svg xmlns="http://www.w3.org/2000/svg" viewBox="0 0 40 40" focusable="false" aria-hidden="true"><defs><style>.cls-1{fill:none;}.cls-2{fill:#000d6e;}.cls-3{fill:#d9304c;}.cls-4{fill:#ffaca6;}</style></defs><g id="Solid"><rect class="cls-1" width="40" height="40"/></g><g id="Icon_Red" data-name="Icon Red"><circle class="cls-1" cx="28.5" cy="22.5" r="1.5"/><circle class="cls-1" cx="11.5" cy="22.5" r="1.5"/><path class="cls-2" d="M27,31a1,1,0,0,0,1,1h3a1,1,0,0,0,1-1V28H27Z"/><path class="cls-2" d="M8,31a1,1,0,0,0,1,1h3a1,1,0,0,0,1-1V28H8Z"/><rect class="cls-3" x="31" y="14" width="3" height="2" rx="0.5"/><rect class="cls-3" x="6" y="14" width="3" height="2" rx="0.5"/><path class="cls-4" d="M20.89,14.51l-4.85-3.44L18.38,8H15a3.0069,3.0069,0,0,0-2.77,1.85L9.67,16H19.94Z"/><path class="cls-4" d="M22.24,14.24,21.12,16h9.21L27.77,9.85A3.0069,3.0069,0,0,0,25,8H19.64l-2.17,2.86Z"/><path class="cls-3" d="M30.6731,17H9.3269L8.3077,20A4,4,0,0,0,8,21.5385V27H32V21.5385A4,4,0,0,0,31.6923,20ZM11.5,24A1.5,1.5,0,1,1,13,22.5,1.5,1.5,0,0,1,11.5,24Zm17,0A1.5,1.5,0,1,1,30,22.5,1.5,1.5,0,0,1,28.5,24Z"/></g></svg>