<svg xmlns="http://www.w3.org/2000/svg" viewBox="0 0 40 40" focusable="false" aria-hidden="true"><defs><style>.cls-1{fill:none;}.cls-2{fill:#b8b2ff;}.cls-3{fill:#6c2273;}.cls-4{fill:#000d6e;}</style></defs><g id="Solid"><rect class="cls-1" width="40" height="40"/></g><g id="Icon_Purple" data-name="Icon Purple"><path class="cls-2" d="M5.88,22.8537a.954.954,0,0,0-.94-.9684A2.0994,2.0994,0,0,0,4,23.8121h.94A.9517.9517,0,0,0,5.88,22.8537Z"/><path class="cls-2" d="M11,24a3,3,0,1,0,3,3A3,3,0,0,0,11,24Zm0,4.5A1.5,1.5,0,1,1,12.5,27,1.5,1.5,0,0,1,11,28.5Z"/><path class="cls-3" d="M20.9449,21.9458,23.1642,19H10.588L4.94,21.8853a.9637.9637,0,0,1,0,1.9268H4v2.179A1.0073,1.0073,0,0,0,5,27H7a4,4,0,0,1,8,0h7.8943l1.6695-2.7339Zm-1.4237-.9473H17.5218a.5044.5044,0,0,1,0-1.0088h1.9994a.5044.5044,0,0,1,0,1.0088Z"/><circle class="cls-4" cx="11" cy="27" r="1.5"/><path class="cls-2" d="M31,24a3,3,0,1,0,3,3A3,3,0,0,0,31,24Zm0,4.5A1.5,1.5,0,1,1,32.5,27,1.5,1.5,0,0,1,31,28.5Z"/><path class="cls-3" d="M36.16,21.0277H33.4511a.5044.5044,0,0,1,0-1.0088H35.99v-.01a1.0073,1.0073,0,0,0-1-1.0088H24.4238l-2.0194,2.6835,3.5289,2.26L24.0639,27H27a4,4,0,0,1,8,0h1.1a.9.9,0,0,0,.9-.908Zm-5.5872-.0292H28.5736a.5044.5044,0,0,1,0-1.0088H30.573a.5044.5044,0,0,1,0,1.0088Z"/><circle class="cls-4" cx="31" cy="27" r="1.5"/><path class="cls-2" d="M32.9512,20.5233a.4972.4972,0,0,0,.5.5044H36.16l-.17-1.0088H33.4511A.4973.4973,0,0,0,32.9512,20.5233Z"/><path class="cls-2" d="M15.83,15.62a2.7942,2.7942,0,0,1,1.79-.65H29.69L31.2,18h1.75l-1.78-3.49a.567.567,0,0,0-.08-.13.2186.2186,0,0,0-.03-.05.8075.8075,0,0,0-.5-.36,1.6979,1.6979,0,0,0-.23,0H17.62a3.7806,3.7806,0,0,0-2.44.89L11.62,18h1.52Z"/><path class="cls-2" d="M19.5212,19.99H17.5218a.5044.5044,0,0,0,0,1.0088h1.9994a.5044.5044,0,0,0,0-1.0088Z"/><path class="cls-2" d="M30.573,19.99H28.5736a.5044.5044,0,0,0,0,1.0088H30.573a.5044.5044,0,0,0,0-1.0088Z"/></g></svg>