<svg xmlns="http://www.w3.org/2000/svg" viewBox="0 0 40 40" focusable="false" aria-hidden="true"><defs><style>.cls-1{fill:none;}.cls-2{fill:#1b5951;}.cls-3{fill:#000d6e;}.cls-4{fill:#94e3d4;}</style></defs><g id="Solid"><rect class="cls-1" width="40" height="40"/></g><g id="Icon_Green" data-name="Icon Green"><path class="cls-2" d="M32.9969,7H17.9829a4.0093,4.0093,0,0,0-3.1687,1.5513L5.6282,20.3986A2.9932,2.9932,0,0,0,5,22.2331v9.7683A2.0008,2.0008,0,0,0,7.0031,34H32.9969A2.0008,2.0008,0,0,0,35,32.0014V8.9986A2.0008,2.0008,0,0,0,32.9969,7Zm-.062,18.0068H29.1458a.9993.9993,0,1,1,0-1.9986h3.7891Zm.1085-3.9963H10.0178a1,1,0,0,1-.7712-1.6389l7.6818-9.6334a1.9848,1.9848,0,0,1,1.5324-.7194H33.0434Z"/><path class="cls-3" d="M29.1458,23.0082a.9993.9993,0,1,0,0,1.9986h3.7891V23.0082H29.1458Z"/><polygon class="cls-4" points="22.577 13.436 27.365 16.823 24.7 21.011 33.043 21.011 33.043 9.019 25.952 9.019 22.577 13.436"/><path class="cls-4" d="M21.155,13.6556l3.5355-4.6368h-6.23a1.9848,1.9848,0,0,0-1.5324.7194L9.2466,19.3716a1,1,0,0,0,.7712,1.6389H23.5086l2.5039-3.9173Z"/></g></svg>