<svg xmlns="http://www.w3.org/2000/svg" viewBox="0 0 40 40" focusable="false" aria-hidden="true"><defs><style>.cls-1{fill:none;}.cls-2{fill:#000d6e;}.cls-3{fill:#fa9319;}.cls-4{fill:#fae052;}</style></defs><g id="Solid"><rect class="cls-1" width="40" height="40"/></g><g id="Icon_Tangerine" data-name="Icon Tangerine"><circle class="cls-1" cx="11.5" cy="22.5" r="1.5"/><circle class="cls-1" cx="28.5" cy="22.5" r="1.5"/><path class="cls-2" d="M27,31a1,1,0,0,0,1,1h3a1,1,0,0,0,1-1V28H27Z"/><path class="cls-2" d="M8,31a1,1,0,0,0,1,1h3a1,1,0,0,0,1-1V28H8Z"/><rect class="cls-3" x="31" y="14" width="3" height="2" rx="0.5"/><rect class="cls-3" x="6" y="14" width="3" height="2" rx="0.5"/><path class="cls-3" d="M30.67,17H23.08l-2.77,3.66,4.77,3.38L23.2,27H32V21.54A3.8881,3.8881,0,0,0,31.69,20ZM28.5,24A1.5,1.5,0,1,1,30,22.5,1.498,1.498,0,0,1,28.5,24Z"/><path class="cls-3" d="M18.88,20.88,21.82,17H9.33L8.31,20A3.8881,3.8881,0,0,0,8,21.54V27H22.02l1.71-2.69ZM11.5,24A1.5,1.5,0,1,1,13,22.5,1.498,1.498,0,0,1,11.5,24Z"/><path class="cls-4" d="M27.7692,9.8461A3,3,0,0,0,25,8H15a3,3,0,0,0-2.7692,1.8461L9.6666,16H30.3334Z"/></g></svg>