<?xml version="1.0" encoding="UTF-8"?><svg xmlns="http://www.w3.org/2000/svg" viewBox="0 0 40 40" focusable="false" aria-hidden="true"><g id="uuid-b6beac32-03d5-46ff-af4a-6d878132cb75"><rect width="40" height="40" fill="none"/></g><g id="uuid-086bb6f5-613b-4c5d-a42e-298bb28c2c01"><g><g><path d="M32.73,19.3h-1.24c-.17,0-.31,.14-.31,.31,0,0,0,0,0,0,0-.17,.14-.31,.31-.31h1.24c.17,0,.31,.14,.31,.31,0,0,0,0,0,0,0-.17-.14-.31-.31-.31Z" fill="none"/><path d="M32.73,19.92h-1.24c-.17,0-.31-.14-.31-.31,0,0,0,0,0,0,0,.17,.14,.31,.31,.31h1.24c.17,0,.31-.14,.31-.31,0,0,0,0,0,0,0,.17-.14,.31-.31,.31Z" fill="none"/><path d="M16.67,19.87h0s0,.06-.01,.17c0-.11,.02-.17,.02-.17Z" fill="none"/><path d="M16.66,22.51s0-.06,0-.09c-.03-.42-.03-.78-.04-1.11,0,.33,0,.69,.03,1.11,0,.03,0,.06,0,.1Z" fill="none"/><path d="M16.63,20.63s0-.04,0-.05c0-.11,0-.21,.01-.3,0,.09-.01,.19-.02,.3v.05Z" fill="none"/><path d="M10.81,19.07c0,.1,.01,.21,.02,.34,0,.07,0,.16,0,.25,0-.08,0-.17,0-.24,0-.14-.01-.25-.02-.34Z" fill="none"/><polygon points="19.36 19.87 19.36 19.87 19.94 20.16 20.64 20.51 20.64 20.51 19.94 20.16 19.36 19.87 19.36 19.87 19.36 19.87" fill="none"/><path d="M28.08,18.68v-3.72h-6.2v.3c0,.1,0,.19,0,.29,0,1.02,.06,1.97,0,2.79v.34h6.2Z" fill="none"/><path d="M21.88,14.96h6.2v3.72h-6.2v-.34c-.03,.34-.09,.67-.18,.96h6.69c.17,0,.31,.14,.31,.31s-.14,.31-.31,.31h-6.82c-.05,0-.09-.03-.14-.06-.17,.27-.38,.51-.69,.7l-.11-.05h0s.11,.05,.11,.05c.08,.04,.14,.07,.14,.08,.66,.31,1.94,.6,2.68,1.21,1.01-.57,2.18-.9,3.43-.9s2.51,.36,3.56,.98v-6.96h4.96v8.06h1.24V13.69c-.23-.05-.44-.14-.62-.28-.26,.2-.58,.31-.93,.31s-.67-.12-.93-.31c-.26,.2-.58,.31-.93,.31s-.67-.12-.93-.31c-.26,.2-.58,.31-.93,.31s-.67-.12-.93-.31c-.26,.2-.58,.31-.93,.31s-.67-.12-.93-.31c-.26,.2-.58,.31-.93,.31s-.67-.12-.93-.31c-.26,.2-.58,.31-.93,.31s-.67-.12-.93-.31c-.26,.2-.58,.31-.93,.31s-.67-.12-.93-.31c-.26,.2-.58,.31-.93,.31-.16,0-.3-.03-.45-.07,.08,.5,.13,1.05,.14,1.62v-.3Z" fill="#b8b2ff"/><path d="M30.56,14.96v6.96c.52,.31,.99,.67,1.41,1.1h3.55V14.96h-4.96Zm2.48,4.65c0,.17-.14,.31-.31,.31h-1.24c-.17,0-.31-.14-.31-.31,0,0,0,0,0,0,0,0,0,0,0,0,0-.17,.14-.31,.31-.31h1.24c.17,0,.31,.14,.31,.31,0,0,0,0,0,0,0,0,0,0,0,0Z" fill="#6c2273"/><path d="M28.39,19.92c.17,0,.31-.14,.31-.31s-.14-.31-.31-.31h-6.69c-.07,.2-.16,.39-.27,.57,.04,.02,.08,.06,.14,.06h6.82Z" fill="#6c2273"/><path d="M32.73,19.3h-1.24c-.17,0-.31,.14-.31,.31,0,.17,.14,.31,.31,.31h1.24c.17,0,.31-.14,.31-.31,0-.17-.14-.31-.31-.31Z" fill="#000d6e"/><path d="M19.4,6.9v3.48c1.16,.37,1.83,1.26,2.17,2.47,.16,.15,.38,.25,.62,.25,.51,0,.93-.42,.93-.93,0,.51,.42,.93,.93,.93s.93-.42,.93-.93c0,.51,.42,.93,.93,.93s.93-.42,.93-.93c0,.51,.42,.93,.93,.93s.93-.42,.93-.93c0,.51,.42,.93,.93,.93s.93-.42,.93-.93c0,.51,.42,.93,.93,.93s.93-.42,.93-.93c0,.51,.42,.93,.93,.93s.93-.42,.93-.93c0,.51,.42,.93,.93,.93s.93-.42,.93-.93c0,.51,.42,.93,.93,.93s.93-.41,.93-.93V6.9H19.4Z" fill="#6c2273"/><path d="M19.4,20.61l-.03-.56c0-.1,0-.17-.01-.18h0s0,0,0,0h0s-.05-.84-.05-.84c.66-.46,1.16-1.26,1.36-2.22,.03,0,.06,.01,.09,.01,.31,0,.57-.37,.57-.82s-.25-.81-.56-.82c0-.13,0-.26,0-.4,0,0,0,0,0,0,0-.15-.02-.36-.03-.6-.61,.34-1.7,.17-2.69-.5-.16-.11-.32-.23-.46-.35-.02,.02-.03,.04-.05,.05-.68,.68-1.59,.96-2.22,.88,0,.28,0,.6,0,.88,0,0,0,0,0,0-.32,0-.57,.37-.57,.82,0,.12,.02,.23,.05,.33,.08,.31,.29,.53,.53,.53,.04,0,.07,0,.1-.01,.2,.95,.67,1.74,1.32,2.2l-.06,.86s0,.06-.02,.17c0,.07-.01,.15-.02,.25,0,.09-.01,.19-.01,.3,0,.02,0,.03,0,.05v.02c0,.11,0,.23,0,.37,0,.09,0,.19,0,.28,0,.33,.01,.69,.04,1.11,0,.03,0,.06,0,.09,0,.04,0,.09,.01,.13h0c.31,.4,.8,.66,1.34,.66,.13,0,.27-.02,.39-.05,.1-.02,.19-.06,.28-.1,.02-.01,.05-.02,.08-.03,.22-.11,.42-.27,.58-.46h0c.04-.83,.07-1.56,.07-2.06Z" fill="#b8b2ff"/><path d="M19.4,10.38c-.42-.13-.89-.2-1.44-.18-2.6,.07-3.84,2.27-3.84,5.36,0,2.15,0,4.02,1.32,4.95l.19-.09,.35-.18,.71-.36s0,0,0,0h0s.06-.86,.06-.86c-.65-.46-1.13-1.25-1.32-2.2-.03,0-.07,.01-.1,.01-.24,0-.45-.22-.53-.53-.03-.1-.05-.21-.05-.33,0-.45,.26-.82,.57-.82,0,0,0,0,0,0,0-.28,0-.6,0-.88,.64,.09,1.55-.2,2.22-.88,.02-.02,.03-.04,.05-.05,.14,.12,.29,.24,.46,.35,.99,.67,2.08,.84,2.69,.5,.02,.24,.03,.45,.03,.6,0,0,0,0,0,0,0,.14,0,.27,0,.4,.31,0,.56,.37,.56,.82s-.26,.82-.57,.82c-.03,0-.06,0-.09-.01-.2,.96-.7,1.76-1.36,2.22l.05,.84,.58,.3,.69,.35,.11,.05c.31-.19,.52-.43,.69-.7,.11-.18,.2-.36,.27-.57,.09-.29,.15-.61,.18-.96,.07-.82,0-1.77,0-2.79,0-.1,0-.19,0-.29-.01-.57-.05-1.11-.14-1.62-.05-.28-.1-.54-.17-.79-.34-1.21-1.01-2.11-2.17-2.47Z" fill="#000d6e"/><path d="M8.03,21.68c.07,.08,.15,.14,.23,.2,.02,.01,.03,.03,.05,.05,.11,.08,.24,.13,.37,.19,.21-.71,.57-1.31,1.05-1.72,.29-.3,.67-.55,1.1-.72,0,0,0-.01,0-.01,0-.08,0-.17,0-.25,0-.14-.01-.25-.02-.34-.01-.2-.03-.31-.03-.31h0s0,0,0,0v-.86c.71-.47,1.25-1.29,1.46-2.28,.03,0,.05,.01,.08,.01,.34,0,.61-.38,.61-.84,0-.38-.19-.7-.44-.8h0c-.05,.09-.11,.19-.17,.28,0,0-.18-1.35-.26-1.41-.59-.42-1.17-1.11-1.44-1.73-.76,.84-1.77,1.58-3.14,1.58-.21,0-.39-.03-.55-.09l-.3,1.92c-.13-.18-.22-.37-.3-.57h0c-.25,.1-.44,.42-.44,.81,0,.46,.27,.84,.61,.84,.04,0,.08,0,.12-.02,.21,.98,.73,1.79,1.42,2.26v.88s0,0,0,0c0,0-.03,.23-.04,.65-.03,.5,0,1.56,.04,2.27Z" fill="#b8b2ff"/><path d="M6.92,12.62c.16,.05,.35,.09,.55,.09,1.37,0,2.39-.74,3.14-1.58,.27,.62,.85,1.31,1.44,1.73,.08,.06,.26,1.41,.26,1.41,.07-.09,.12-.18,.17-.28,.71-1.36-.02-3.58-1.24-3.44-.19-.24-.68-.65-1.32-.73-.34-.07-.76-.1-1.22-.02-.67,.11-1.24,.34-1.57,.61-.25-.06-.53-.19-.71-.46-.14,.42-.08,.83,.18,.99-.33,.23-.71,.06-.94-.13,0,0,.06,.7,.47,1.25-.07,.38-.12,1.19,.17,1.94,.08,.2,.17,.39,.3,.57l.3-1.92Z" fill="#000d6e"/><path d="M10.81,19.07c0,.1,.01,.21,.02,.34,0,.07,0,.16,0,.24,0,0,0,.01,0,.01,.35-.14,.73-.23,1.14-.23,.07,0,.13,0,.2,.01l-1.39-.7h0s.01,.11,.03,.31Z" fill="#6c2273"/><path d="M8.47,27.49s0,0,.01,0c0,0,0,0-.01,0v-4.08c0-.46,.09-.89,.21-1.29-.13-.05-.26-.11-.37-.19-.02-.01-.03-.03-.05-.05-.08-.06-.16-.13-.23-.2-.05-.71-.08-1.77-.04-2.27,.01-.42,.04-.65,.04-.65h0s-.06,.03-.06,.03l-4.34,2.19c-.53,.27-.88,.78-.95,1.36l-.68,8.41H7.57v-2.08c0-.61,.38-.95,.9-1.18Z" fill="#6c2273"/><path d="M16.66,22.51s0-.06,0-.1c-.03-.42-.03-.78-.03-1.11,0-.09,0-.2,0-.28,0-.14,0-.26,0-.37v-.08c0-.11,.01-.21,.02-.3,0-.1,.01-.18,.02-.25,0-.11,.01-.17,.01-.17,0,0,0,0,0,0l-.71,.36-.35,.18-.19,.1-.59,.3-.47-.24c.1,.12,.18,.24,.25,.37,.47,.65,.77,1.52,.77,2.48v4.07c-.05-.02-.12-.04-.17-.06,.06,.02,.12,.04,.18,.06,.53,.23,.92,.57,.92,1.19v2.08h.85s-.22-5.36-.43-7.44c-.02-.21-.04-.41-.05-.6v-.06h0s0-.09-.01-.13Z" fill="#6c2273"/><path d="M10.83,19.67c-.43,.17-.81,.42-1.1,.72-.48,.41-.84,1.02-1.05,1.72-.12,.4-.21,.83-.21,1.29v4.08s0,0,.01,0c.24-.11,.53-.2,.81-.28,.46-.12,1.02-.25,1.46-.34,0,0,0,0,0,0v-.13l.05-.76c-.47-.3-.85-.76-1.06-1.32-.06,.03-.12,.06-.19,.06-.28,0-.5-.32-.5-.72s.22-.72,.5-.72c0,0,0,0,0,0,0-.38,0-.97-.01-1.26,.4-.19,1.08-.59,2.01-.09,.96,.5,2.4,1.2,2.74,1.37,.02,0,.03-.01,.05-.01,.28,0,.5,.32,.5,.72s-.22,.72-.5,.72c-.06,0-.12-.02-.18-.05-.21,.58-.6,1.05-1.09,1.34l.05,.73v.13s0,0,0,0c.11,.02,.24,.05,.37,.08,.37,.08,.77,.17,1.11,.26,.02,.01,.05,.01,.07,.02,.19,.06,.37,.12,.54,.19,.06,.02,.12,.04,.17,.06v-4.07c0-.96-.3-1.83-.77-2.48-.07-.13-.15-.25-.25-.37-.47-.59-1.27-1.05-2.19-1.11-.07,0-.13-.01-.2-.01-.41,0-.79,.09-1.14,.23Z" fill="#000d6e"/><path d="M9.29,27.2c-.28,.08-.56,.17-.81,.28,0,0,0,0-.01,0-.52,.23-.9,.57-.9,1.18v2.08h1.72v-3.54Z" fill="#b8b2ff"/><path d="M15.38,27.48c-.06-.02-.12-.04-.18-.06-.18-.07-.35-.13-.54-.19v3.52h1.64v-2.08c0-.63-.39-.96-.92-1.19Z" fill="#b8b2ff"/><path d="M14.67,27.22s-.05,0-.07-.02c-.34-.09-.74-.18-1.11-.26-.12-.03-.25-.06-.37-.08-.29,.32-.71,.51-1.19,.51s-.89-.19-1.18-.51c0,0,0,0,0,0-.44,.09-1,.22-1.46,.34v3.54h5.37v-3.52Z" fill="#6c2273"/><path d="M13.13,26.73l-.05-.73c.49-.29,.88-.76,1.09-1.34,.06,.03,.11,.05,.18,.05,.28,0,.5-.32,.5-.72s-.22-.72-.5-.72c-.02,0-.03,.01-.05,.01-.34-.17-1.78-.86-2.74-1.37-.94-.49-1.61-.1-2.01,.09,0,.29,0,.88,.01,1.26,0,0,0,0,0,0-.28,0-.5,.32-.5,.72s.22,.72,.5,.72c.07,0,.13-.02,.19-.06,.21,.57,.59,1.03,1.06,1.32l-.05,.76v.13s0,0,0,0c0,0,0,0,0,0,.28,.32,.71,.51,1.18,.51s.89-.19,1.19-.51c0,0,0,0,0,0v-.13Z" fill="#b8b2ff"/><path d="M23.57,21.85c-.75-.61-2.03-.9-2.68-1.21,0,0-.06-.03-.14-.08l-.11-.05-.69-.35-.58-.29h0s0,.08,.01,.18l.03,.56c0,.5-.03,1.23-.07,2.06h0c-.01,.24-.03,.48-.04,.74-.09,1.65-.22,3.57-.31,5.08-.06,1.01-.11,1.84-.11,2.26h1.72c-.38-.86-.59-1.81-.59-2.8,0-2.61,1.44-4.89,3.57-6.1Z" fill="#6c2273"/></g><path d="M27.01,21.93c-3.31,0-6,2.69-6,6s2.69,6,6,6,6-2.69,6-6-2.69-6-6-6Zm2.5,6.5h-2v2c0,.28-.22,.5-.5,.5s-.5-.22-.5-.5v-2h-2c-.28,0-.5-.22-.5-.5s.22-.5,.5-.5h2v-2c0-.28,.22-.5,.5-.5s.5,.22,.5,.5v2h2c.28,0,.5,.22,.5,.5s-.22,.5-.5,.5Z" fill="#000d6e"/></g></g></svg>