<?xml version="1.0" encoding="iso-8859-1"?><!--Generator: Adobe Illustrator 26.2.1, SVG Export Plug-In . SVG Version: 6.00 Build 0)--><svg version="1.1" xmlns="http://www.w3.org/2000/svg" xmlns:xlink="http://www.w3.org/1999/xlink" x="0px" y="0px" viewBox="0 0 40 40" style="enable-background:new 0 0 40 40" xml:space="preserve" focusable="false" aria-hidden="true"><g id="Solid"><rect style="fill:none" width="40" height="40"/></g><g id="Icon_Green"><g><circle style="fill:none" cx="10.578" cy="15.533" r="0.5"/><circle style="fill:none" cx="12.578" cy="15.533" r="0.5"/><circle style="fill:none" cx="8.578" cy="15.533" r="0.5"/><path style="fill:#94E3D4" d="M24.48,7.015H4.5c-0.276,0-0.5,0.225-0.5,0.5v13.938c0,0.275,0.224,0.5,0.5,0.5h18.342
			c-0.233-0.401-0.436-0.828-0.585-1.287c-0.733-0.294-1.247-1.1-1.247-2.073c0-0.642,0.236-1.234,0.626-1.64v-2.119
			c0-1.768,1.285-3.628,3.343-4.394V7.515C24.98,7.239,24.756,7.015,24.48,7.015z M19.669,12.806c0,0.919-0.456,1.731-1.153,2.225
			l0.62,0.93c0.259,0.388-0.165,0.867-0.581,0.659l-2.172-1.086h-1.259v0.227c0,1.506-1.221,2.727-2.727,2.727H9.319l-2.172,1.086
			c-0.417,0.208-0.84-0.271-0.581-0.659l0.62-0.93c-0.697-0.494-1.153-1.305-1.153-2.225v-0.455c0-1.506,1.221-2.727,2.727-2.727
			h1.818v-0.227c0-1.506,1.221-2.727,2.727-2.727h3.636c1.506,0,2.727,1.221,2.727,2.727V12.806z"/><path style="fill:#1B5951" d="M4.5,21.953c-0.276,0-0.5-0.225-0.5-0.5V7.515c0-0.275,0.224-0.5,0.5-0.5h19.98
			c0.276,0,0.5,0.225,0.5,0.5v2.926c0.316-0.118,0.649-0.21,1-0.271V7.515c0-0.827-0.673-1.5-1.5-1.5H4.5
			c-0.827,0-1.5,0.673-1.5,1.5v13.938c0,0.827,0.673,1.5,1.5,1.5h19.055c-0.268-0.3-0.503-0.638-0.713-1H4.5z"/><path style="fill:#1B5951" d="M16.941,9.624h-3.636c-1.506,0-2.727,1.221-2.727,2.727v0.227h1.818
			c1.506,0,2.727,1.221,2.727,2.727v0.227h1.259l2.172,1.086c0.417,0.208,0.84-0.271,0.581-0.659l-0.62-0.93
			c0.697-0.494,1.153-1.305,1.153-2.225v-0.455C19.669,10.845,18.448,9.624,16.941,9.624z"/><path style="fill:#000D6E" d="M12.396,12.578h-1.818H8.759c-1.506,0-2.727,1.221-2.727,2.727v0.455
			c0,0.919,0.456,1.731,1.153,2.225l-0.62,0.93c-0.259,0.388,0.165,0.867,0.581,0.659l2.172-1.086h3.077
			c1.506,0,2.727-1.221,2.727-2.727v-0.227v-0.227C15.123,13.799,13.902,12.578,12.396,12.578z M8.578,16.033
			c-0.276,0-0.5-0.224-0.5-0.5c0-0.276,0.224-0.5,0.5-0.5s0.5,0.224,0.5,0.5C9.078,15.809,8.854,16.033,8.578,16.033z
			 M10.578,16.033c-0.276,0-0.5-0.224-0.5-0.5c0-0.276,0.224-0.5,0.5-0.5s0.5,0.224,0.5,0.5
			C11.078,15.809,10.854,16.033,10.578,16.033z M12.578,16.033c-0.276,0-0.5-0.224-0.5-0.5c0-0.276,0.224-0.5,0.5-0.5
			s0.5,0.224,0.5,0.5C13.078,15.809,12.854,16.033,12.578,16.033z"/></g><g><path style="fill:#000D6E" d="M28.968,28.511c0.003-0.041,0.006-0.082,0.009-0.123c-0.48,0.519-1.173,0.853-1.955,0.853
			s-1.475-0.334-1.955-0.853c0.003,0.033,0.005,0.066,0.008,0.1c0.019,0.245,0.041,0.495,0.068,0.757
			C25.456,32.277,25.769,33,25.769,33h2.506c0,0,0.313-0.723,0.626-3.755C28.927,28.992,28.949,28.749,28.968,28.511z"/><path style="fill:#94E3D4" d="M25.037,27.954c0.009,0.142,0.019,0.286,0.03,0.435c0.48,0.519,1.173,0.853,1.955,0.853
			s1.475-0.334,1.955-0.853c0.011-0.148,0.021-0.293,0.03-0.435c0.073-1.19,0.064-2.147,0.037-2.792
			c-0.025-0.596-0.064-0.931-0.064-0.931l0.008-1.227c1.005-0.665,1.763-1.831,2.066-3.233c0.037,0.007,0.073,0.015,0.112,0.015
			c0.479,0,0.868-0.534,0.868-1.193c0-0.543-0.265-0.996-0.626-1.14v0.202c0,0.071-0.028,0.132-0.067,0.185
			c-0.014,0.018-0.028,0.036-0.046,0.051c-0.028,0.024-0.06,0.043-0.096,0.056c-0.033,0.012-0.067,0.021-0.104,0.021
			c-0.173,0-0.313-0.14-0.313-0.313v-0.126v-0.896c0-0.045-0.004-0.084-0.005-0.128c-0.034-0.058-0.073-0.116-0.111-0.174
			c-0.212-0.328-0.494-0.653-0.863-0.94c-0.639,0.272-1.477,0.413-2.468,0.078c-0.404-0.136-0.729-0.285-0.997-0.436
			c-0.252-0.143-0.45-0.288-0.605-0.43c-0.598,0.1-1.093,0.262-1.493,0.43c-0.339,0.142-0.614,0.285-0.834,0.392
			c-0.053,0.207-0.101,0.462-0.126,0.774c-0.011,0.136-0.018,0.28-0.018,0.435v0.896v0.126c0,0.173-0.14,0.313-0.313,0.313
			c-0.018,0-0.034-0.007-0.051-0.01c-0.147-0.025-0.262-0.148-0.262-0.302v-0.201c-0.361,0.145-0.626,0.598-0.626,1.14
			c0,0.659,0.389,1.193,0.868,1.193c0.058,0,0.115-0.009,0.17-0.024c0.298,1.386,1.038,2.545,2.025,3.215h-0.016l0.007,1.253
			c0,0-0.039,0.334-0.064,0.931C24.974,25.807,24.964,26.763,25.037,27.954z"/><path style="fill:#1B5951" d="M25.075,28.488c-0.003-0.034-0.005-0.067-0.008-0.1c-0.011-0.148-0.021-0.293-0.03-0.435
			c-0.073-1.19-0.064-2.147-0.037-2.792c0.025-0.596,0.064-0.931,0.064-0.931l-0.091,0.046l-6.155,3.11
			c-0.745,0.376-1.254,1.099-1.358,1.927L17,33h7.733h1.036c0,0-0.313-0.723-0.626-3.755C25.116,28.984,25.094,28.733,25.075,28.488
			z"/><path style="fill:#1B5951" d="M36.584,29.314c-0.104-0.828-0.612-1.551-1.358-1.927l-6.246-3.156c0,0,0.039,0.334,0.064,0.931
			c0.027,0.646,0.037,1.602-0.037,2.792c-0.009,0.142-0.019,0.286-0.03,0.435c-0.003,0.041-0.006,0.081-0.009,0.123
			c-0.019,0.238-0.04,0.481-0.066,0.734C28.588,32.277,28.275,33,28.275,33h1.04h7.73L36.584,29.314z"/><path style="fill:#000D6E" d="M22.899,17.956c0.017,0.003,0.033,0.01,0.051,0.01c0.173,0,0.313-0.14,0.313-0.313v-0.126v-0.896
			c0-0.155,0.007-0.3,0.018-0.435c0.025-0.312,0.073-0.567,0.126-0.774c0.219-0.107,0.495-0.25,0.834-0.392
			c0.401-0.167,0.895-0.33,1.493-0.43c0.155,0.142,0.353,0.287,0.605,0.43c0.268,0.152,0.593,0.3,0.997,0.436
			c0.991,0.334,1.829,0.193,2.468-0.078c0.369,0.287,0.651,0.612,0.863,0.94c0.038,0.058,0.077,0.116,0.111,0.174
			c0.001,0.044,0.005,0.083,0.005,0.128v0.896v0.126c0,0.173,0.14,0.313,0.313,0.313c0.037,0,0.071-0.009,0.104-0.021
			c0.036-0.013,0.067-0.032,0.096-0.056c0.018-0.015,0.032-0.032,0.046-0.051c0.039-0.052,0.067-0.114,0.067-0.185v-0.202v-1.15
			c0.028-0.81,0.042-1.677,0-2.094c-0.091-0.9-1.776-3.132-4.385-3.132s-4.385,1.969-4.385,3.758v2.618v0.201
			C22.637,17.809,22.752,17.931,22.899,17.956z"/></g></g><g id="Guides" style="display:none"/><g id="Grid" style="display:none"><g style="display:inline"><g/><g/><g/><g/><g/><g/><g/><g/><g/><g/><g/><g/><g/><g/><g/><g/><g/><g/><g/><g/><g/><g/><g/><g/><g/><g/><g/><g/><g/><g/><g/><g/><g/><g/><g/><g/><g/><g/><g/><g/></g></g></svg>