<svg xmlns="http://www.w3.org/2000/svg" viewBox="0 0 40 40" focusable="false" aria-hidden="true"><defs><style>.cls-1{fill:none;}.cls-2{fill:#000d6e;}.cls-3{fill:#fa9319;}.cls-4{fill:#fae052;}</style></defs><g id="Solid"><rect class="cls-1" width="40" height="40"/></g><g id="Icon_Tangerine" data-name="Icon Tangerine"><path class="cls-2" d="M33.5,6.9893H6.5a.5.5,0,0,0,0,1h27a.5.5,0,0,0,0-1Z"/><path class="cls-3" d="M6,19.5244a4.5,4.5,0,0,0,9,0v-.5H6Z"/><path class="cls-3" d="M25.0381,19.0244v.5a4.5,4.5,0,0,0,9,0v-.5Z"/><rect class="cls-4" x="17.9598" y="8.9675" width="4" height="22"/><path class="cls-4" d="M29,31.9952H11a2,2,0,0,0-2,2v1.9569H31V33.9952A2,2,0,0,0,29,31.9952Z"/><polygon class="cls-4" points="13.288 17.988 14.376 17.988 10.503 8.937 6.62 17.988 7.708 17.988 10.502 11.477 13.288 17.988"/><polygon class="cls-4" points="29.541 8.937 25.658 17.988 26.746 17.988 29.54 11.477 32.326 17.988 33.414 17.988 29.541 8.937"/></g></svg>