<svg xmlns="http://www.w3.org/2000/svg" viewBox="0 0 40 40" focusable="false" aria-hidden="true"><g id="Solid"><rect width="40" height="40" fill="none"/></g><g id="Icon_Tangerine" data-name="Icon Tangerine"><rect x="23.0286" y="20.9929" width="10" height="2" rx="0.8771" fill="#000d6e"/><rect x="23.0286" y="18.0554" width="10" height="2" rx="0.8771" fill="#000d6e"/><path d="M23.9057,15.0071h8.2458a.8771.8771,0,0,1,.8771.8771V16.13a.877.877,0,0,1-.877.877H23.9057a.8771.8771,0,0,1-.8771-.8771v-.2458A.8771.8771,0,0,1,23.9057,15.0071Z" fill="#000d6e"/><path d="M6.9382,23.0077H5.0267v7.9857H6.9382A1.0831,1.0831,0,0,0,8.0213,29.91V24.0908A1.0831,1.0831,0,0,0,6.9382,23.0077Z" fill="#fae052"/><path d="M34.9473,26.2246a1.4972,1.4972,0,0,0-1.4715-1.22l-.2984.0317-7.1882,1.7249v.24a2.0567,2.0567,0,0,1-1.9965,1.9965H15.0089a.4991.4991,0,1,1,0-.9982h8.9838a1.0664,1.0664,0,0,0,.9983-.9983v0l-.0006,0,.0006-.0256v-.9728c0-.0219-.0007-.0433-.0021-.0644l-.001-.01a.95.95,0,0,0-.43-.7168l-.0081-.0053c-.0247-.0168-.05-.0327-.0746-.0473L24.46,25.15c-.0228-.0129-.0456-.0251-.0684-.0362l-.0064-.003-.0351-.0164-.0351-.0149-.006-.0025-.0266-.01-.0139-.0053-.0284-.01-.0113-.0039-.026-.0079-.0125-.0039-.0076-.0019c-.0226-.0063-.0446-.0117-.0656-.016l-.0038-.0006a.6305.6305,0,0,0-.1207-.0134H18.9775l-.0006-.0005a3.12,3.12,0,0,1-1.5656-.7244l-.0928-.0634-.0226-.0153-.083-.0564-.0189-.0128q-.1035-.07-.2115-.14l-.01-.0067c-.0346-.0225-.07-.0451-.105-.0675l-.0055-.0035q-.115-.0729-.2357-.1445l-.0005,0a5.6407,5.6407,0,0,0-1.2361-.5578A7.4117,7.4117,0,0,0,13.7,23.0077H10.0233A1.0038,1.0038,0,0,0,9.02,24.0115v3.9873h.0047c-.0027.0372-.0047.0746-.0047.1122v1.8842s-.0009.6418.9973.9982,6.4682,2.6119,6.6017,2.6663a4.49,4.49,0,0,0,3.2008.0727c.0145-.0052,14.2007-5.836,14.2007-5.836A1.4974,1.4974,0,0,0,34.9473,26.2246Z" fill="#fa9319"/></g></svg>