<svg xmlns="http://www.w3.org/2000/svg" viewBox="0 0 40 40" focusable="false" aria-hidden="true"><g id="Solid"><rect width="40" height="40" fill="none"/></g><g id="Icon_Red" data-name="Icon Red"><path d="M33.5,6.9893H6.5a.5.5,0,0,0,0,1h27a.5.5,0,0,0,0-1Z" fill="#000d6e"/><path d="M6,19.5244a4.5,4.5,0,0,0,9,0v-.5H6Z" fill="#d9304c"/><path d="M25.0381,19.0244v.5a4.5,4.5,0,0,0,9,0v-.5Z" fill="#d9304c"/><rect x="17.9598" y="8.9675" width="4" height="22" fill="#ffaca6"/><path d="M29,31.9952H11a2,2,0,0,0-2,2v1.9569H31V33.9952A2,2,0,0,0,29,31.9952Z" fill="#ffaca6"/><polygon points="13.288 17.988 14.376 17.988 10.503 8.937 6.62 17.988 7.708 17.988 10.502 11.477 13.288 17.988" fill="#ffaca6"/><polygon points="29.541 8.937 25.658 17.988 26.746 17.988 29.54 11.477 32.326 17.988 33.414 17.988 29.541 8.937" fill="#ffaca6"/></g></svg>