<svg xmlns="http://www.w3.org/2000/svg" viewBox="0 0 40 40" focusable="false" aria-hidden="true"><g id="Solid"><rect width="40" height="40" fill="none"/></g><g id="Icon_Tangerine" data-name="Icon Tangerine"><rect x="11.9609" y="24.0184" width="2" height="2" fill="none"/><rect x="17.9585" y="24.0184" width="2" height="2" fill="none"/><rect x="6" y="24.0184" width="2" height="2" fill="none"/><path d="M32.3558,20.814a7.02,7.02,0,0,0-4.7116,0L25,21.7579v5.2387c0,2.5258,3.1636,5,5.0007,5.0034C31.8367,31.9964,35,29.5224,35,26.9966V21.7579Zm.5688,5.3684-.7438.7437L30,24.7457,28.7459,26,30,27.2543l.7779-.7776.9261.9261-1.5216,1.5215,0,0a.2578.2578,0,0,1-.3645,0l-2.7419-2.7419,0,0a.2577.2577,0,0,1,0-.3644l2.7419-2.742,0,0a.2576.2576,0,0,1,.3644,0l2.742,2.742,0,0A.2577.2577,0,0,1,32.9246,26.1824Z" fill="#fae052"/><path d="M24,21.7579v-.7047l.6638-.237,2.1084-.7527L26.5,7h-4L22,19l-6-4v4l-6-4v4L4,15V31H25.9537A5.7778,5.7778,0,0,1,24,26.9966ZM8,26.0184H6v-2H8Zm5.9609,0h-2v-2h2Zm5.9976,0h-2v-2h2Z" fill="#fa9319"/><path d="M32.9246,25.8176l-2.742-2.742a.2576.2576,0,0,0-.3644,0l0,0-2.7419,2.742a.2577.2577,0,0,0,0,.3644l0,0,2.7419,2.7419a.2578.2578,0,0,0,.3645,0l0,0,1.5216-1.5215-.9261-.9261L30,27.2543,28.7459,26,30,24.7457l2.1806,2.18.7438-.7437a.2577.2577,0,0,0,0-.3645Z" fill="#000d6e"/></g></svg>