<svg xmlns="http://www.w3.org/2000/svg" viewBox="0 0 40 40" focusable="false" aria-hidden="true"><defs><style>.cls-1{fill:none;}.cls-2{fill:#000d6e;}.cls-3{fill:#d9304c;}.cls-4{fill:#ffaca6;}</style></defs><g id="Solid"><rect class="cls-1" width="40" height="40"/></g><g id="Icon_Red" data-name="Icon Red"><polygon class="cls-1" points="12.938 3.796 12.803 8.431 14.942 6.102 12.938 3.796"/><polygon class="cls-1" points="15.05 3.02 13.588 3.02 15.1 4.759 15.05 3.02"/><polygon class="cls-1" points="15.37 14.18 15.302 11.803 12.902 11.842 15.37 14.18"/><polygon class="cls-1" points="15.226 9.164 15.174 7.327 13.512 9.137 15.226 9.164"/><polygon class="cls-1" points="15.59 21.56 15.44 16.47 12.79 18.99 15.59 21.56"/><polygon class="cls-1" points="12.46 26.48 15.81 29.34 15.65 23.69 12.46 26.48"/><polygon class="cls-1" points="12.09 32.98 15.31 30.23 12.24 27.61 12.09 32.98"/><polygon class="cls-1" points="12.67 13 12.53 17.86 15.16 15.35 12.67 13"/><polygon class="cls-1" points="12.47 20.05 12.31 25.29 15.31 22.66 12.47 20.05"/><path class="cls-2" d="M30.9723,17.2962v-1.3h-1V17.95H29.98v.071a1,1,0,1,1-1,1h-1a2,2,0,1,0,2.9921-1.7248Z"/><path class="cls-3" d="M33.0082,9.4489,16.2258,9.18,16.02,2.02H11.99l-.206,7.0892L4.0129,8.9848c-.56-.009-1.021.3329-1.021.7579v1.4838c0,.425.4607.7669,1.0211.7579l7.6911-.1234L11.06,34.03H12.4l3.47-2.96.08,2.96h.99l-.6393-22.2428,13.6835-.22v3.41h1V11.5516l2.024-.0325a.8986.8986,0,0,0,.9789-.7579v-.5544A.8986.8986,0,0,0,33.0082,9.4489ZM15.59,21.56l-2.8-2.57,2.65-2.52Zm-.22-7.38-2.4681-2.3382,2.4-.0385Zm-.1438-5.0158-1.7144-.0274,1.6617-1.81ZM15.05,3.02l.05,1.7387L13.5881,3.02Zm-2.1124.7762,2.0043,2.3054L12.8035,8.4305ZM12.67,13l2.49,2.35-2.63,2.51Zm-.2,7.05,2.84,2.61-3,2.63Zm-.38,12.93.15-5.37,3.07,2.62Zm.37-6.5,3.19-2.79.16,5.65Z"/><path class="cls-4" d="M21.004,35.0328h-14a1,1,0,0,0-1,1v2h16v-2A1,1,0,0,0,21.004,35.0328Z"/></g></svg>