<?xml version="1.0" encoding="UTF-8"?><svg xmlns="http://www.w3.org/2000/svg" viewBox="0 0 40 40" focusable="false" aria-hidden="true"><defs><style>.uuid-d8c8c834-98c0-4e88-9634-21f03bfb81ad{fill:none;}.uuid-8b53aca6-eb0b-4f1c-8df6-1d6a4d0ae15a{fill:#000d6e;}.uuid-58bba323-1e19-45b9-bc5c-cb15eaedaece{fill:#ffaca6;}.uuid-bddef10c-6375-4ba8-9d02-3bb438442323{fill:#d9304c;fill-rule:evenodd;}</style></defs><g id="uuid-4d12cff2-0dde-4af1-9012-155685d59fbb"><rect class="uuid-d8c8c834-98c0-4e88-9634-21f03bfb81ad" width="40" height="40"/></g><g id="uuid-32e7337f-642c-4014-9336-ef1395bb5d03"><path class="uuid-bddef10c-6375-4ba8-9d02-3bb438442323" d="M6,16.44c0-.29,.13-.55,.36-.73L20,5.12l13.64,10.58c.23,.18,.36,.45,.36,.73v17.63c0,.52-.43,.93-.95,.93H6.95c-.53,0-.95-.42-.95-.93V16.44Z"/><path class="uuid-58bba323-1e19-45b9-bc5c-cb15eaedaece" d="M31.86,32.19l-7.87-7.22,6.02-4.65V8H10v12.16l6.2,4.63-8.06,7.39c-.2,.19-.22,.5-.03,.71,.1,.11,.23,.16,.37,.16,.12,0,.24-.04,.34-.13l8.2-7.52,3.26,2.43,2.91-2.25,8,7.33c.1,.09,.22,.13,.34,.13,.14,0,.27-.05,.37-.16,.19-.2,.17-.52-.03-.71Z"/><g><path class="uuid-8b53aca6-eb0b-4f1c-8df6-1d6a4d0ae15a" d="M13.85,12.99h12.3c.28,0,.5-.22,.5-.5s-.22-.5-.5-.5H13.85c-.28,0-.5,.22-.5,.5s.22,.5,.5,.5Z"/><path class="uuid-8b53aca6-eb0b-4f1c-8df6-1d6a4d0ae15a" d="M26.15,15.98H13.85c-.28,0-.5,.22-.5,.5s.22,.5,.5,.5h12.3c.28,0,.5-.22,.5-.5s-.22-.5-.5-.5Z"/><path class="uuid-8b53aca6-eb0b-4f1c-8df6-1d6a4d0ae15a" d="M26.15,19.97H13.85c-.28,0-.5,.22-.5,.5s.22,.5,.5,.5h12.3c.28,0,.5-.22,.5-.5s-.22-.5-.5-.5Z"/></g></g></svg>