<?xml version="1.0" encoding="UTF-8"?><svg xmlns="http://www.w3.org/2000/svg" viewBox="0 0 40 40" focusable="false" aria-hidden="true"><g id="Solid"><rect width="40" height="40" fill="none"/></g><g id="Icon_Green"><g><path d="M24,8.5c0-.27411,.22101-.49554,.4942-.49884l-.0058-.00116c-.27612,0-.5,.22382-.5,.5,0,.27612,.22388,.5,.5,.5l.0058-.00116c-.27319-.0033-.4942-.22479-.4942-.49884Z" fill="none"/><path d="M22.5,8h-5c-.27612,0-.5,.22382-.5,.5,0,.27612,.22388,.5,.5,.5h5c.27612,0,.5-.22388,.5-.5,0-.27618-.22388-.5-.5-.5Z" fill="none"/><path d="M13,31v1.97412c0,.56659,.45929,1.02588,1.02588,1.02588h11.94824c.56659,0,1.02588-.45929,1.02588-1.02588v-1.97412" fill="#1b5951"/><path d="M19.93994,17.81836c-.42969,0-.71973,.33008-.71973,.73926,0,.40039,.29004,.74023,.71973,.74023s.71973-.32031,.71973-.74023-.29004-.73926-.71973-.73926Z" fill="#94e3d4"/><path d="M27,31V10H13V31m7.02979-16c2.21875,0,3.64844,1.44922,3.64844,3.39844,0,1.0293-.7002,1.8584-1.55957,1.8584-.53906,0-.92969-.25-1.10938-.63965-.22949,.41016-.63965,.66992-1.25879,.66992-.92969,0-1.61914-.7793-1.61914-1.71875,0-.96973,.62891-1.73926,1.61914-1.73926,.50977,0,.88965,.20996,1.14941,.55957v-.41992h.84961v1.89941c0,.26953,.11914,.44922,.35938,.44922,.33984,0,.5498-.30957,.5498-.91895,0-1.39941-.93945-2.47949-2.62891-2.47949-1.66895,0-2.69824,1.20996-2.69824,2.60938,0,1.46875,.94922,2.52832,2.57812,2.52832,.63965,0,1.2002-.17969,1.46973-.5l.59961,.72949c-.43945,.41016-1.16992,.70996-2.06934,.70996-2.20801,0-3.58789-1.45898-3.58789-3.46777,0-1.94922,1.46973-3.52832,3.70801-3.52832Z" fill="#94e3d4"/><path d="M26.06427,7H13.93573c-.51678,0-.93573,.41895-.93573,.93573v2.06427h14v-2.06427c0-.51678-.41895-.93573-.93573-.93573Zm-3.56427,2h-5c-.27612,0-.5-.22388-.5-.5,0-.27618,.22388-.5,.5-.5h5c.27612,0,.5,.22382,.5,.5,0,.27612-.22388,.5-.5,.5Zm2,0l-.0058-.00116-.0058,.00116c-.27612,0-.5-.22388-.5-.5,0-.27618,.22388-.5,.5-.5l.0058,.00116,.0058-.00116c.27618,0,.5,.22382,.5,.5,0,.27612-.22382,.5-.5,.5Z" fill="#1b5951"/><path d="M24.5,8l-.0058,.00116c-.27319,.0033-.4942,.22473-.4942,.49884,0,.27405,.22101,.49554,.4942,.49884l.0058,.00116c.27618,0,.5-.22388,.5-.5,0-.27618-.22382-.5-.5-.5Z" fill="#94e3d4"/><path d="M19.90967,21.99609c.89941,0,1.62988-.2998,2.06934-.70996l-.59961-.72949c-.26953,.32031-.83008,.5-1.46973,.5-1.62891,0-2.57812-1.05957-2.57812-2.52832,0-1.39941,1.0293-2.60938,2.69824-2.60938,1.68945,0,2.62891,1.08008,2.62891,2.47949,0,.60938-.20996,.91895-.5498,.91895-.24023,0-.35938-.17969-.35938-.44922v-1.89941h-.84961v.41992c-.25977-.34961-.63965-.55957-1.14941-.55957-.99023,0-1.61914,.76953-1.61914,1.73926,0,.93945,.68945,1.71875,1.61914,1.71875,.61914,0,1.0293-.25977,1.25879-.66992,.17969,.38965,.57031,.63965,1.10938,.63965,.85938,0,1.55957-.8291,1.55957-1.8584,0-1.94922-1.42969-3.39844-3.64844-3.39844-2.23828,0-3.70801,1.5791-3.70801,3.52832,0,2.00879,1.37988,3.46777,3.58789,3.46777Zm.03027-2.69824c-.42969,0-.71973-.33984-.71973-.74023,0-.40918,.29004-.73926,.71973-.73926s.71973,.31934,.71973,.73926-.29004,.74023-.71973,.74023Z" fill="#000d6e"/></g><circle cx="20" cy="31" r="1" fill="#000d6e"/></g></svg>