<?xml version="1.0" encoding="UTF-8"?><svg xmlns="http://www.w3.org/2000/svg" viewBox="0 0 40 40" focusable="false" aria-hidden="true"><g id="Solid"><rect width="40" height="40" fill="none"/></g><g id="Icon_Red"><g><path d="M25.00972,9.9953c0,1.10352,.89417,1.99811,1.99719,1.99811h4.9931l-6.9903-6.99341v4.9953Z" fill="#d9304c"/><path d="M12.52278,11.00977h7c.27637,0,.5-.22363,.5-.5s-.22363-.5-.5-.5h-7c-.27637,0-.5,.22363-.5,.5s.22363,.5,.5,.5Z" fill="#000d6e"/><path d="M24.49446,15.02539H12.52278c-.27637,0-.5,.22363-.5,.5s.22363,.5,.5,.5h11.97168c.27637,0,.5-.22363,.5-.5s-.22363-.5-.5-.5Z" fill="#000d6e"/><path d="M24.49446,19.01563H12.52278c-.27637,0-.5,.22363-.5,.5s.22363,.5,.5,.5h11.97168c.27637,0,.5-.22363,.5-.5s-.22363-.5-.5-.5Z" fill="#000d6e"/><g><path d="M12.52278,11.00977h7c.27637,0,.5-.22363,.5-.5s-.22363-.5-.5-.5h-7c-.27637,0-.5,.22363-.5,.5s.22363,.5,.5,.5Z" fill="none"/><path d="M24.49446,19.01563H12.52278c-.27637,0-.5,.22363-.5,.5s.22363,.5,.5,.5h11.97168c.27637,0,.5-.22363,.5-.5s-.22363-.5-.5-.5Z" fill="none"/><path d="M24.49446,15.02539H12.52278c-.27637,0-.5,.22363-.5,.5s.22363,.5,.5,.5h11.97168c.27637,0,.5-.22363,.5-.5s-.22363-.5-.5-.5Z" fill="none"/><path d="M27.00691,11.99341c-1.10303,0-1.99719-.89459-1.99719-1.99811V5.0282H8.00002v29.9718H31.96669V11.99341h-4.95978Zm-14.48413-1.98364h7c.27637,0,.5,.22363,.5,.5s-.22363,.5-.5,.5h-7c-.27637,0-.5-.22363-.5-.5s.22363-.5,.5-.5Zm7.83923,19.99817h-2.05688c-.64697,0-.90741-.64984-1.07977-1.07983-.02899-.07257-.06635-.16571-.10156-.2428-.10706,.1131-.24426,.31305-.32825,.43555-.29736,.43353-.63428,.92474-1.18286,.85669-.6308-.07867-.81769-.79041-.99841-1.47876-.06598-.25116-.18347-.69861-.29028-.84845-.13196,.07349-.57617,.42865-1.44055,2.1059-.08246,.15991-.24493,.25183-.41333,.25183-.07166,0-.14435-.0166-.21246-.05176-.22809-.11749-.31769-.39764-.20013-.62573,1.04065-2.01941,1.75897-2.7746,2.48145-2.60571,.60736,.14191,.79376,.85156,.974,1.53796,.05682,.21637,.14398,.54834,.22687,.72302,.0918-.10236,.21014-.27484,.28955-.39056,.29456-.42957,.66095-.96356,1.24103-.9129,.47351,.04175,.66425,.51764,.81744,.90002,.05988,.14935,.16827,.41992,.2464,.4964h2.02777c.25659,0,.4646,.20795,.4646,.4646,0,.25659-.20801,.46454-.4646,.46454Zm4.13245-9.99231H12.52278c-.27637,0-.5-.22363-.5-.5s.22363-.5,.5-.5h11.97168c.27637,0,.5,.22363,.5,.5s-.22363,.5-.5,.5Zm0-3.99023H12.52278c-.27637,0-.5-.22363-.5-.5s.22363-.5,.5-.5h11.97168c.27637,0,.5,.22363,.5,.5s-.22363,.5-.5,.5Z" fill="#ffaca6"/><path d="M20.36202,29.0788h-2.02777c-.07812-.07648-.18652-.34705-.2464-.4964-.1532-.38239-.34393-.85828-.81744-.90002-.58008-.05066-.94647,.48334-1.24103,.9129-.07941,.11572-.19775,.28821-.28955,.39056-.08289-.17468-.17004-.50665-.22687-.72302-.18024-.6864-.36664-1.39606-.974-1.53796-.72247-.16888-1.4408,.5863-2.48145,2.60571-.11755,.22809-.02795,.50824,.20013,.62573,.06812,.03516,.14081,.05176,.21246,.05176,.1684,0,.33087-.09192,.41333-.25183,.86438-1.67725,1.30859-2.03241,1.44055-2.1059,.10681,.14984,.2243,.59729,.29028,.84845,.18073,.68835,.36761,1.40009,.99841,1.47876,.54858,.06805,.8855-.42316,1.18286-.85669,.08398-.1225,.22119-.32245,.32825-.43555,.03522,.07709,.07257,.17023,.10156,.2428,.17236,.42999,.4328,1.07983,1.07977,1.07983h2.05688c.25659,0,.4646-.20795,.4646-.46454,0-.25665-.20801-.4646-.4646-.4646Z" fill="#000d6e"/></g></g></g></svg>