<?xml version="1.0" encoding="UTF-8"?><svg xmlns="http://www.w3.org/2000/svg" viewBox="0 0 40 40" focusable="false" aria-hidden="true"><defs><style>.uuid-a09ad487-dec5-4962-a38b-1f7805a4c442{fill:none;}.uuid-ac5f1d48-c0bd-403e-bda6-3531c6be1d7e{fill:#000d6e;}.uuid-5b026591-f288-4938-a54e-4812b48b576e{fill:#b8b2ff;}.uuid-6d8679ba-d6fe-46d1-8ee7-928ccf49a5fc{fill:#6c2273;fill-rule:evenodd;}</style></defs><g id="uuid-f7f863e5-d005-4db9-b201-803abd7c5ebb"><rect class="uuid-a09ad487-dec5-4962-a38b-1f7805a4c442" width="40" height="40"/></g><g id="uuid-d6980e4c-67db-49aa-b86d-c61c32a418db"><path class="uuid-6d8679ba-d6fe-46d1-8ee7-928ccf49a5fc" d="M6,16.44c0-.29,.13-.55,.36-.73L20,5.12l13.64,10.58c.23,.18,.36,.45,.36,.73v17.63c0,.52-.43,.93-.95,.93H6.95c-.53,0-.95-.42-.95-.93V16.44Z"/><path class="uuid-5b026591-f288-4938-a54e-4812b48b576e" d="M31.86,32.19l-7.87-7.22,6.02-4.65V8H10v12.16l6.2,4.63-8.06,7.39c-.2,.19-.22,.5-.03,.71,.1,.11,.23,.16,.37,.16,.12,0,.24-.04,.34-.13l8.2-7.52,3.26,2.43,2.91-2.25,8,7.33c.1,.09,.22,.13,.34,.13,.14,0,.27-.05,.37-.16,.19-.2,.17-.52-.03-.71Z"/><g><path class="uuid-ac5f1d48-c0bd-403e-bda6-3531c6be1d7e" d="M13.85,12.99h12.3c.28,0,.5-.22,.5-.5s-.22-.5-.5-.5H13.85c-.28,0-.5,.22-.5,.5s.22,.5,.5,.5Z"/><path class="uuid-ac5f1d48-c0bd-403e-bda6-3531c6be1d7e" d="M26.15,15.98H13.85c-.28,0-.5,.22-.5,.5s.22,.5,.5,.5h12.3c.28,0,.5-.22,.5-.5s-.22-.5-.5-.5Z"/><path class="uuid-ac5f1d48-c0bd-403e-bda6-3531c6be1d7e" d="M26.15,19.97H13.85c-.28,0-.5,.22-.5,.5s.22,.5,.5,.5h12.3c.28,0,.5-.22,.5-.5s-.22-.5-.5-.5Z"/></g></g></svg>