<?xml version="1.0" encoding="UTF-8"?><svg xmlns="http://www.w3.org/2000/svg" viewBox="0 0 40 40" focusable="false" aria-hidden="true"><defs><style>.uuid-7457a653-4ec0-444f-983c-783bb6a925c9{fill:none;}.uuid-fbb94059-78e9-497f-8b05-22e7d99a89f4{fill:#000d6e;}.uuid-78e3a8a4-0c61-46b2-bb4f-2a4522a49c0b{fill:#fae052;}.uuid-be67442b-a4ee-43b8-836a-d2cdd403773a{fill:#fa9319;fill-rule:evenodd;}</style></defs><g id="uuid-3e33ca6b-d553-4df1-bede-b9855ae96646"><rect class="uuid-7457a653-4ec0-444f-983c-783bb6a925c9" width="40" height="40"/></g><g id="uuid-c0c61c24-7232-4f06-9830-bc25a7035ef0"><path class="uuid-be67442b-a4ee-43b8-836a-d2cdd403773a" d="M6,16.44c0-.29,.13-.55,.36-.73L20,5.12l13.64,10.58c.23,.18,.36,.45,.36,.73v17.63c0,.52-.43,.93-.95,.93H6.95c-.53,0-.95-.42-.95-.93V16.44Z"/><path class="uuid-78e3a8a4-0c61-46b2-bb4f-2a4522a49c0b" d="M31.86,32.19l-7.87-7.22,6.02-4.65V8H10v12.16l6.2,4.63-8.06,7.39c-.2,.19-.22,.5-.03,.71,.1,.11,.23,.16,.37,.16,.12,0,.24-.04,.34-.13l8.2-7.52,3.26,2.43,2.91-2.25,8,7.33c.1,.09,.22,.13,.34,.13,.14,0,.27-.05,.37-.16,.19-.2,.17-.52-.03-.71Z"/><g><path class="uuid-fbb94059-78e9-497f-8b05-22e7d99a89f4" d="M13.85,12.99h12.3c.28,0,.5-.22,.5-.5s-.22-.5-.5-.5H13.85c-.28,0-.5,.22-.5,.5s.22,.5,.5,.5Z"/><path class="uuid-fbb94059-78e9-497f-8b05-22e7d99a89f4" d="M26.15,15.98H13.85c-.28,0-.5,.22-.5,.5s.22,.5,.5,.5h12.3c.28,0,.5-.22,.5-.5s-.22-.5-.5-.5Z"/><path class="uuid-fbb94059-78e9-497f-8b05-22e7d99a89f4" d="M26.15,19.97H13.85c-.28,0-.5,.22-.5,.5s.22,.5,.5,.5h12.3c.28,0,.5-.22,.5-.5s-.22-.5-.5-.5Z"/></g></g></svg>