<?xml version="1.0" encoding="UTF-8"?><svg xmlns="http://www.w3.org/2000/svg" viewBox="0 0 40 40" focusable="false" aria-hidden="true"><g id="Solid"><rect width="40" height="40" fill="none"/></g><g id="Icon_Green"><g><path d="M31.29528809,20.06347656l-.27215576-13.06347656,.02142334,1.02905273h-4.06427002l.04284668-1.02905273-.5,12-6-4.00006104v4.00006104l-6-4v4l-6-4V31H31.47686768l-.18157959-10.93652344Zm-18.77215576,5.95495605h-2v-2h2v2Zm5.96087646,0h-2v-2h2v2Zm5.99761963,0h-2v-2h2v2Z" fill="#94e3d4"/><g><rect x="16.48403931" y="24.01843262" width="2" height="2" fill="none"/><rect x="22.48165894" y="24.01843262" width="2" height="2" fill="none"/><rect x="10.52316284" y="24.01843262" width="2" height="2" fill="none"/><g><rect x="10.52313232" y="24.01843262" width="2" height="2" fill="none"/><rect x="16.48400879" y="24.01843262" width="2" height="2" fill="none"/><rect x="22.48162842" y="24.01843262" width="2" height="2" fill="none"/></g></g><path d="M15.21977527,22.03489938c.00759906-.02899326-.00974571-.05864286-.03873596-.06624193-.01194053-.00313115-.02460363-.00209546-.03586975,.00293847-.85683069,.45215038-.59232362,1.5825203-1.0241185,1.35643909-.51771489-.26223999,.66465323-1.9103218-.75057625-3.11529142-.02182172-.01865444-.05464462-.0160893-.07330207,.00574446-.01143172,.01337363-.01532157,.03163668-.01033882,.04851479,.18989834,.66465323-.21251188,1.65712-.88847037,2.40768119-.98983239,1.09575865-1.13823092,2.6189075-.37355545,3.3702274h.72741476c-.00075268-.00115612-.00141504-.00239654-.0021617-.00355265-.1913194-.29584568-.24892056-.70747173-.19344497-1.18957278,.11883324-.51879574,.37405222-.9964349,.73926798-1.38358377,.0215628-.01958174,.05125455-.02756618,.07974803-.02146043,.04883393,.01046527,.07992566,.0585405,.06945437,.10737442-.22154706,.97664241,.15373354,1.2388824,.37981174,1.35645113,.02084324,.00869497,.04230066,.01581232,.06420969,.02129183,.24223675,.06066607,.48778228-.08651614,.54844534-.32875891,.00860164-.01748628,.02274902-.03163066,.0402353-.0402353,.04369462-.02147248,.09653582-.00345631,.11801733,.0402353,.19780149,.42281991,.37048452,.98245913,.2065657,1.4382585-.00042451,.0011802-.00077376,.00237847-.00120128,.00355265h.73959012c.03549642-.04005466,.07237477-.08127748,.11080966-.12379491,1.05577324-1.18237715-.84551639-2.89149234-.43179488-3.88621715Z" fill="#1b5951"/><path d="M25.27110119,16.04687543c.00759906-.02899326-.00974571-.05864286-.03873596-.06624193-.01194053-.00313115-.02460363-.00209546-.03586975,.00293847-.85683069,.45215038-.59232362,1.5825203-1.0241185,1.35643909-.51771489-.26223999,.66465323-1.9103218-.75057625-3.11529142-.02182172-.01865444-.05464462-.0160893-.07330207,.00574446-.01143172,.01337363-.01532157,.03163668-.01033882,.04851479,.18989834,.66465323-.21251188,1.65712-.88847037,2.40768119-.98983239,1.09575865-1.13823092,2.6189075-.37355545,3.3702274h.72741476c-.00075268-.00115612-.00141504-.00239654-.0021617-.00355265-.1913194-.29584568-.24892056-.70747173-.19344497-1.18957278,.11883324-.51879574,.37405222-.9964349,.73926798-1.38358377,.0215628-.01958174,.05125455-.02756618,.07974803-.02146043,.04883393,.01046527,.07992566,.0585405,.06945437,.10737442-.22154706,.97664241,.15373354,1.2388824,.37981174,1.35645113,.02084324,.00869497,.04230066,.01581232,.06420969,.02129183,.24223675,.06066607,.48778228-.08651614,.54844534-.32875891,.00860164-.01748628,.02274902-.03163066,.0402353-.0402353,.04369462-.02147248,.09653582-.00345631,.11801733,.0402353,.19780149,.42281991,.37048452,.98245913,.2065657,1.4382585-.00042451,.0011802-.00077376,.00237847-.00120128,.00355265h.73959012c.03549642-.04005466,.07237477-.08127748,.11080966-.12379491,1.05577324-1.18237715-.84551639-2.89149234-.43179488-3.88621715Z" fill="#1b5951"/><g><rect x="16.48400879" y="24.01843262" width="2" height="2" fill="none"/><rect x="10.52313232" y="24.01843262" width="2" height="2" fill="none"/><rect x="22.48162842" y="24.01843262" width="2" height="2" fill="none"/><polygon points="31.04455566 8.02905273 31.02313232 7 27.02313232 7 26.98028564 8.02905273 31.04455566 8.02905273" fill="#000d6e"/></g></g></g></svg>