<svg xmlns="http://www.w3.org/2000/svg" viewBox="0 0 40 40" focusable="false" aria-hidden="true"><defs><style>.cls-1{fill:none;}.cls-2{fill:#94e3d4;}.cls-3{fill:#1b5951;}.cls-4{fill:#000d6e;}</style></defs><g id="Solid"><rect class="cls-1" width="40" height="40"/></g><g id="Icon_Green" data-name="Icon Green"><polygon class="cls-1" points="12.938 3.796 12.803 8.431 14.942 6.102 12.938 3.796"/><polygon class="cls-1" points="15.37 14.18 15.302 11.803 12.902 11.842 15.37 14.18"/><polygon class="cls-1" points="15.05 3.02 13.588 3.02 15.1 4.759 15.05 3.02"/><polygon class="cls-1" points="15.226 9.164 15.174 7.327 13.512 9.137 15.226 9.164"/><polygon class="cls-1" points="15.59 21.56 15.44 16.47 12.79 18.99 15.59 21.56"/><polygon class="cls-1" points="15.81 29.34 15.65 23.69 12.46 26.48 15.81 29.34"/><polygon class="cls-1" points="12.67 13 12.53 17.86 15.16 15.35 12.67 13"/><polygon class="cls-1" points="12.47 20.05 12.31 25.29 15.31 22.66 12.47 20.05"/><polygon class="cls-1" points="12.09 32.98 15.31 30.23 12.24 27.61 12.09 32.98"/><path class="cls-2" d="M33.1168,15.4973a7.8726,7.8726,0,0,0-5.2834,0l-2.9652,1.0585V22.43c0,2.8324,3.5476,5.6067,5.6076,5.6107,2.0589-.004,5.606-2.7783,5.606-5.6107V16.5558Zm.4179,5.96-.778.778L30.475,19.9538l-1.3123,1.3123,1.3123,1.3123.8139-.8135.969.9689-1.592,1.592,0,0a.27.27,0,0,1-.3813,0L27.4154,21.457l0,0a.27.27,0,0,1,0-.3813l2.8688-2.8689,0,0a.27.27,0,0,1,.3813,0l2.8688,2.8689,0,0A.27.27,0,0,1,33.5347,21.457Z"/><path class="cls-3" d="M11.06,34.03H12.4l3.47-2.96.08,2.96h.99l-.6393-22.2428,13.6716-.2194v2.4945c.1672-.0094.3342-.0214.5026-.0214.1666,0,.3319.012.4974.0212v-2.51l2.0359-.0327a.8986.8986,0,0,0,.9789-.7579v-.5544a.8986.8986,0,0,0-.9789-.7579L16.2258,9.18,16.02,2.02H11.99l-.206,7.0892L4.0129,8.9848c-.56-.009-1.021.3329-1.021.7579v1.4838c0,.425.4607.7669,1.0211.7579l7.6911-.1234Zm1.03-1.05.15-5.37,3.07,2.62Zm3.72-3.64-3.35-2.86,3.19-2.79Zm-.22-7.78-2.8-2.57,2.65-2.52Zm-.22-7.38-2.4681-2.3382,2.4-.0385Zm-.1438-5.0158-1.7144-.0274,1.6617-1.81ZM15.05,3.02l.05,1.7387L13.5881,3.02Zm-2.1124.7762,2.0043,2.3054L12.8035,8.4305ZM12.67,13l2.49,2.35-2.63,2.51Zm-.2,7.05,2.84,2.61-3,2.63Z"/><path class="cls-4" d="M33.5347,21.0753l-2.8688-2.8689a.27.27,0,0,0-.3813,0l0,0-2.8688,2.8689a.27.27,0,0,0,0,.3813l0,0,2.8688,2.8688a.27.27,0,0,0,.3813,0l0,0,1.592-1.592-.969-.9689-.8139.8135-1.3123-1.3123,1.3123-1.3123,2.2817,2.2812.778-.778a.27.27,0,0,0,0-.3813Z"/><path class="cls-2" d="M21.004,35.0328h-14a1,1,0,0,0-1,1v2h16v-2A1,1,0,0,0,21.004,35.0328Z"/></g></svg>