<?xml version="1.0" encoding="UTF-8"?><svg xmlns="http://www.w3.org/2000/svg" viewBox="0 0 40 40" focusable="false" aria-hidden="true"><defs><style>.uuid-ac46afb0-bbaf-494c-ac35-fe3d05a88e86{fill:none;}.uuid-2863684f-410c-453e-9572-bed4e6df1147{fill:#000d6e;}.uuid-ea3234bc-5d17-4f76-86df-b4a7babbd54e{fill:#94e3d4;}.uuid-2677f297-1baf-418b-9b58-33c1acd80ba3{fill:#1b5951;fill-rule:evenodd;}</style></defs><g id="uuid-0c4887ab-7a63-4fd0-92a4-c23b3deeb2cf"><rect class="uuid-ac46afb0-bbaf-494c-ac35-fe3d05a88e86" width="40" height="40"/></g><g id="uuid-43ef3afb-49c9-4960-af01-4f7578c75e72"><path class="uuid-2677f297-1baf-418b-9b58-33c1acd80ba3" d="M6,16.44c0-.29,.13-.55,.36-.73L20,5.12l13.64,10.58c.23,.18,.36,.45,.36,.73v17.63c0,.52-.43,.93-.95,.93H6.95c-.53,0-.95-.42-.95-.93V16.44Z"/><path class="uuid-ea3234bc-5d17-4f76-86df-b4a7babbd54e" d="M31.86,32.19l-7.87-7.22,6.02-4.65V8H10v12.16l6.2,4.63-8.06,7.39c-.2,.19-.22,.5-.03,.71,.1,.11,.23,.16,.37,.16,.12,0,.24-.04,.34-.13l8.2-7.52,3.26,2.43,2.91-2.25,8,7.33c.1,.09,.22,.13,.34,.13,.14,0,.27-.05,.37-.16,.19-.2,.17-.52-.03-.71Z"/><g><path class="uuid-2863684f-410c-453e-9572-bed4e6df1147" d="M13.85,12.99h12.3c.28,0,.5-.22,.5-.5s-.22-.5-.5-.5H13.85c-.28,0-.5,.22-.5,.5s.22,.5,.5,.5Z"/><path class="uuid-2863684f-410c-453e-9572-bed4e6df1147" d="M26.15,15.98H13.85c-.28,0-.5,.22-.5,.5s.22,.5,.5,.5h12.3c.28,0,.5-.22,.5-.5s-.22-.5-.5-.5Z"/><path class="uuid-2863684f-410c-453e-9572-bed4e6df1147" d="M26.15,19.97H13.85c-.28,0-.5,.22-.5,.5s.22,.5,.5,.5h12.3c.28,0,.5-.22,.5-.5s-.22-.5-.5-.5Z"/></g></g></svg>