<?xml version="1.0" encoding="UTF-8"?><svg xmlns="http://www.w3.org/2000/svg" viewBox="0 0 40 40" focusable="false" aria-hidden="true"><g id="Solid"><rect width="40" height="40" fill="none"/></g><g id="Icon_Tangerine"><path d="M20.24755859,16.27441408l-2.69287109-.45019531-2.24414062-3.1875c-.28076172-.39941406-.73828125-.63671875-1.2265625-.63671875h-2.58398438c-.26269531,0-.52099609,.06933594-.74902344,.20019531l-2.95849609,1.70507812c-.24267578,.13964844-.44140625,.34472656-.57324219,.59179688l-2.10595703,3.93457031c-.39111328,.73046875-.11621094,1.63964844,.61425781,2.03027344,.22558594,.12109375,.46777344,.17773438,.70654297,.17773438,.53564453,0,1.05371094-.28710938,1.32373047-.79199219l1.90380859-3.55664062,.63061523-.36346436-1.08178711,4.04412842c-.10546875,.39550781-.04541016,.81640625,.16650391,1.16601562,.21240234,.34960938,.55761719,.59667969,.95703125,.68554688l.34197998,.07611084-1.86834717,7.22955322c-.20751953,.80175781,.27490234,1.62011719,1.07666016,1.82714844,.12597656,.03222656,.25244141,.04785156,.37646484,.04785156,.66748047,0,1.27636719-.44824219,1.45117188-1.125l1.89373779-7.32775879,.72686768,.16174316,.89501953,3.86035156c.16113281,.69335938,.77783203,1.16113281,1.45996094,1.16113281,.11230469,0,.2265625-.01269531,.34033203-.0390625,.80712891-.18652344,1.30957031-.99316406,1.12255859-1.79980469l-1.10888672-4.78027344c-.13085938-.5625-.57226562-1-1.13574219-1.125l-1.54925537-.34472656,.5960083-2.30627441,.5098877,.72424316c.23095703,.328125,.58349609,.54980469,.97900391,.61621094l3.31103516,.55371094c.81982422,.13476562,1.59082031-.41503906,1.72705078-1.23242188,.13671875-.81640625-.41503906-1.58984375-1.23193359-1.7265625Z" fill="#fa9319"/><circle cx="13.21769522" cy="8.50000001" r="2.5" fill="#fa9319"/><polygon points="30 22.00000001 30 25.00000001 22 25.00000001 22 28.00000001 14 28.00000001 14 31.00000001 6 31.00000001 6 34.00000001 38 34.00000001 38 31.00000001 38 28.00000001 38 25.00000001 38 22.00000001 30 22.00000001" fill="#fae052"/><path d="M26.17459996,11.31923051l-1.80457872-.86176629c-.2492512-.11902849-.54755776-.0135481-.66658625,.23570311s-.0135481,.54755776,.23570311,.66658625l.72532101,.34637291-4.52615749,1.60043713c-.26055789,.09213257-.39684551,.3775252-.30471294,.63808308s.3775252,.39684551,.63808308,.30471294l4.52615749-1.60043713-.34637291,.72532101c-.11902849,.2492512-.0135481,.54755776,.23570311,.66658625,.1246256,.05951425,.26151504,.06290127,.38212664,.02025333s.22494536-.13133084,.28445961-.25595644l.86176629-1.80457872c.06074173-.12719601,.06170999-.26653184,.01621029-.38898356-.04158673-.12383533-.1299263-.23159216-.2571223-.29233389Z" fill="#000d6e"/></g></svg>