<svg xmlns="http://www.w3.org/2000/svg" viewBox="0 0 40 40" focusable="false" aria-hidden="true"><g id="Solid"><rect width="40" height="40" fill="none"/></g><g id="Icon_Green" data-name="Icon Green"><path d="M26.5059,20.9482v-.5269a2.0039,2.0039,0,0,1-.96-.5733,7.4062,7.4062,0,0,1-2.0678,3.6h.5279A2.5026,2.5026,0,0,0,26.5059,20.9482Z" fill="none"/><path d="M20,7.375c3.6446,0,5.998,3.1183,6.125,4.375a23.555,23.555,0,0,1,.0161,2.399A1.9806,1.9806,0,0,1,27,13.9482h.495c0-.0225.005-.0444.005-.0669a7.5,7.5,0,0,0-15,0c0,.0226.0052.0444.0054.0669H13a1.98,1.98,0,0,1,.875.21V12.625C13.875,10.1254,16.3553,7.375,20,7.375Z" fill="none"/><path d="M22.7175,31.7292c.0045-.0576.0088-.1145.0132-.1714a3.7233,3.7233,0,0,1-5.4614,0l.0108.14c.027.3423.0572.6921.0949,1.0571A22.8681,22.8681,0,0,0,18.25,38h3.5a22.8681,22.8681,0,0,0,.875-5.2456C22.6615,32.4008,22.691,32.0616,22.7175,31.7292Z" fill="#000d6e"/><path d="M17.2274,30.9507q.0183.2968.0419.607a3.7233,3.7233,0,0,0,5.4614,0q.0234-.31.0419-.6071a38.1366,38.1366,0,0,0,.051-3.9007c-.035-.8329-.0892-1.3-.0892-1.3l.0087-1.3018h-.7814a1.4948,1.4948,0,1,1,.1246-1H23.478a7.4062,7.4062,0,0,0,2.0678-3.6A1.9705,1.9705,0,0,1,25,18.49v-2.542a1.9778,1.9778,0,0,1,.2469-.9438l-.0018-.0474c-.0468-.0808-.1019-.1622-.1546-.2436A5.3347,5.3347,0,0,0,23.8851,13.4a4.72,4.72,0,0,1-3.4476.11A8.03,8.03,0,0,1,19.0444,12.9a4.6065,4.6065,0,0,1-.8456-.6,9.3456,9.3456,0,0,0-2.0856.6c-.4735.1979-.8584.3977-1.1643.5468a6.3624,6.3624,0,0,0-.1761,1.0807c-.0118.149-.0161.3122-.0193.4774a1.9781,1.9781,0,0,1,.2465.943V18.49a1.9828,1.9828,0,0,1-.48,1.2867A7.1342,7.1342,0,0,0,17.2789,24h-.0224l.0091,1.75s-.0542.4671-.0891,1.3A38.1308,38.1308,0,0,0,17.2274,30.9507Z" fill="#94e3d4"/><path d="M17.28,31.6973l-.0108-.14q-.0234-.31-.0419-.607a38.1308,38.1308,0,0,1-.0509-3.9007c.0349-.8329.0891-1.3.0891-1.3l-.1275.0645L8.54,30.1587a3.5037,3.5037,0,0,0-1.8964,2.6924L6,38H18.25a22.8681,22.8681,0,0,1-.875-5.2456C17.3373,32.3894,17.3071,32.04,17.28,31.6973Z" fill="#1b5951"/><path d="M26.1411,14.149a23.555,23.555,0,0,0-.0161-2.399c-.127-1.2567-2.48-4.375-6.125-4.375s-6.125,2.75-6.125,5.25v1.5327a1.996,1.996,0,0,1,.8785.8475c.0032-.1652.0075-.3284.0193-.4774a6.3624,6.3624,0,0,1,.1761-1.0807c.3059-.1491.6908-.3489,1.1643-.5468a9.3456,9.3456,0,0,1,2.0856-.6,4.6065,4.6065,0,0,0,.8456.6,8.03,8.03,0,0,0,1.3931.6094,4.72,4.72,0,0,0,3.4476-.11,5.3347,5.3347,0,0,1,1.2054,1.3133c.0527.0814.1078.1628.1546.2436l.0018.0474A1.9961,1.9961,0,0,1,26.1411,14.149Z" fill="#1b5951"/><path d="M27,32.9814a5.9786,5.9786,0,0,1,1.7261-4.2041L22.7344,25.75s.0542.4671.0892,1.3a38.1366,38.1366,0,0,1-.051,3.9007q-.0183.2968-.0419.6071c-.0044.0569-.0087.1138-.0132.1714-.0265.3324-.056.6716-.0925,1.0252A22.8681,22.8681,0,0,1,21.75,38h7.9711A5.9966,5.9966,0,0,1,27,32.9814Z" fill="#1b5951"/><path d="M33,28a5,5,0,1,0,5,5A5,5,0,0,0,33,28Zm3,5.5883A.4128.4128,0,0,1,35.5884,34H34v1.5883A.4128.4128,0,0,1,33.5884,36H32.4116A.4128.4128,0,0,1,32,35.5883V34H30.4116A.4128.4128,0,0,1,30,33.5883V32.4116A.4128.4128,0,0,1,30.4116,32H32V30.4116A.4128.4128,0,0,1,32.4116,30h1.1768A.4128.4128,0,0,1,34,30.4116V32h1.5884A.4128.4128,0,0,1,36,32.4116Z" fill="#000d6e"/><path d="M15,15.9482a2.0215,2.0215,0,0,0-2-2h-.4946c0-.0225-.0054-.0443-.0054-.0669a7.5,7.5,0,0,1,15,0c0,.0225-.0048.0444-.005.0669H27a2.0259,2.0259,0,0,0-2,2V18.49a1.9705,1.9705,0,0,0,.5458,1.3578,2.0039,2.0039,0,0,0,.96.5733v.5269a2.5026,2.5026,0,0,1-2.5,2.5h-1.92a1.5068,1.5068,0,1,0-.1246,1h2.0442a3.5043,3.5043,0,0,0,3.5-3.5v-.4591A.9994.9994,0,0,0,28.5,19.49v-5.542h-.005c0-.0225.005-.0444.005-.0669a8.5,8.5,0,0,0-17,0c0,.0226.0052.0444.0054.0669H11.5V19.49a1,1,0,0,0,1,1H13a2.0222,2.0222,0,0,0,2-2Z" fill="#000d6e"/></g></svg>