<svg xmlns="http://www.w3.org/2000/svg" viewBox="0 0 40 40" focusable="false" aria-hidden="true"><g id="Solid"><rect width="40" height="40" fill="none"/></g><g id="Icon_Purple" data-name="Icon Purple"><circle cx="28" cy="28" r="1" fill="none"/><path d="M26.9828,30.81a3.4553,3.4553,0,0,1-.8368,2.2921A3.9843,3.9843,0,0,1,23.251,34h-1.53a3.983,3.983,0,0,1-2.8936-.8975,4.3735,4.3735,0,0,1-.854-3.1591V19.783a6.5956,6.5956,0,0,0,4.3013-1.9309A6.8307,6.8307,0,0,0,23.9976,13.21V4H21V6h.9976l.0009,7.2593A4.8649,4.8649,0,0,1,20.81,16.49a5.1313,5.1313,0,0,1-3.8287,1.3467A5.1313,5.1313,0,0,1,13.1528,16.49a4.8855,4.8855,0,0,1-1.188-3.2793V6H13V4H9.9648l.0015,9.1567a6.8539,6.8539,0,0,0,1.7217,4.6954,6.5916,6.5916,0,0,0,4.2851,1.9287V30.0361a6.0928,6.0928,0,0,0,1.44,4.48A5.8559,5.8559,0,0,0,21.72,36H23.252a5.858,5.858,0,0,0,4.3085-1.4834,5.4571,5.4571,0,0,0,1.4234-3.6959,2.8065,2.8065,0,0,1-2.0011-.01Z" fill="#6c2273"/><path d="M14,7a1,1,0,0,0,1-1V4a1,1,0,0,0-2,0V6A1,1,0,0,0,14,7Z" fill="#b8b2ff"/><path d="M20,3a1,1,0,0,0-1,1V6a1,1,0,0,0,2,0V4A1,1,0,0,0,20,3Z" fill="#b8b2ff"/><path d="M31,28a3,3,0,1,0-4.0172,2.81A3.0021,3.0021,0,0,0,31,28Zm-3,1a1,1,0,1,1,1-1A1,1,0,0,1,28,29Z" fill="#000d6e"/></g></svg>