<svg xmlns="http://www.w3.org/2000/svg" viewBox="0 0 40 40" focusable="false" aria-hidden="true"><defs><style>.cls-1{fill:none;}.cls-2{fill:#000d6e;}.cls-3{fill:#94e3d4;}.cls-4{fill:#1b5951;}</style></defs><g id="Solid"><rect class="cls-1" width="40" height="40"/></g><g id="Icon_Green" data-name="Icon Green"><path class="cls-2" d="M29.7148,13.1144a.3.3,0,0,0-.425,0l-3.1971,3.1971a.3.3,0,0,0,0,.4251l3.197,3.1971a.3006.3006,0,0,0,.4251,0L31.489,18.16l-1.08-1.08-.9069.9068L28.04,16.524l1.4626-1.4625,2.5424,2.5424.8673-.8673a.3006.3006,0,0,0,0-.4251Z"/><path class="cls-1" d="M29.7148,13.1144a.3.3,0,0,0-.425,0l-3.1971,3.1971a.3.3,0,0,0,0,.4251l3.197,3.1971a.3006.3006,0,0,0,.4251,0L31.489,18.16l-1.08-1.08-.9069.9068L28.04,16.524l1.4626-1.4625,2.5424,2.5424.8673-.8673a.3006.3006,0,0,0,0-.4251Z"/><path class="cls-3" d="M33.5,10H6.5A2.5,2.5,0,0,0,4,12.5v15A2.5,2.5,0,0,0,6.5,30h27A2.5,2.5,0,0,0,36,27.5v-15A2.5,2.5,0,0,0,33.5,10ZM7.99,24.42v2.0832a.5.5,0,0,1-1,0V24.42a1.4915,1.4915,0,0,1,0-2.8163v-7.1a.5.5,0,0,1,1,0v7.1a1.4914,1.4914,0,0,1,0,2.8164Zm4-4.9412v7.0244a.5.5,0,0,1-1,0V19.4788a1.4915,1.4915,0,0,1,0-2.8163V14.5032a.5.5,0,0,1,1,0v2.1592a1.4914,1.4914,0,0,1,0,2.8164Zm4,3.4412v3.5832a.5.5,0,0,1-1,0V22.92a1.4915,1.4915,0,0,1,0-2.8163v-5.6a.5.5,0,0,1,1,0v5.6a1.4914,1.4914,0,0,1,0,2.8164ZM32.912,16.7366l-.8673.8673-2.5424-2.5424L28.04,16.524l1.4626,1.4626.9069-.9068,1.08,1.08-1.7742,1.7742a.3006.3006,0,0,1-.4251,0l-3.197-3.1971a.3.3,0,0,1,0-.4251L29.29,13.1144a.3.3,0,0,1,.425,0l3.1972,3.1971A.3006.3006,0,0,1,32.912,16.7366Z"/><path class="cls-4" d="M7.99,21.6036v-7.1a.5.5,0,0,0-1,0v7.1a1.4915,1.4915,0,0,0,0,2.8163v2.0833a.5.5,0,0,0,1,0V24.42a1.4914,1.4914,0,0,0,0-2.8164Z"/><path class="cls-4" d="M15.99,20.1036v-5.6a.5.5,0,0,0-1,0v5.6a1.4915,1.4915,0,0,0,0,2.8163v3.5833a.5.5,0,0,0,1,0V22.92a1.4914,1.4914,0,0,0,0-2.8164Z"/><path class="cls-4" d="M11.99,16.6624V14.5032a.5.5,0,0,0-1,0v2.1593a1.4915,1.4915,0,0,0,0,2.8163v7.0244a.5.5,0,0,0,1,0V19.4788a1.4914,1.4914,0,0,0,0-2.8164Z"/></g></svg>