<svg xmlns="http://www.w3.org/2000/svg" viewBox="0 0 40 40" focusable="false" aria-hidden="true"><defs><style>.cls-1{fill:none;}.cls-2{fill:#1b5951;}.cls-3{fill:#000d6e;}.cls-4{fill:#94e3d4;}</style></defs><g id="Solid"><rect class="cls-1" width="40" height="40"/></g><g id="Icon"><path class="cls-2" d="M11,17v3H29V17a2,2,0,0,1,2-2h2V11a3,3,0,0,0-3-3H10a3,3,0,0,0-3,3v4H9A2,2,0,0,1,11,17Z"/><path class="cls-3" d="M8,30v2a1,1,0,0,0,2,0V30Z"/><path class="cls-3" d="M30,30v2a1,1,0,0,0,2,0V30Z"/><path class="cls-4" d="M36,30V17a1,1,0,0,0-1-1H31a1,1,0,0,0-1,1v4H10V17a1,1,0,0,0-1-1H5a1,1,0,0,0-1,1V30Z"/></g></svg>