<svg xmlns="http://www.w3.org/2000/svg" viewBox="0 0 40 40" focusable="false" aria-hidden="true"><defs><style>.cls-1{fill:none;}.cls-2{fill:#ffaca6;}.cls-3{fill:#d9304c;}.cls-4{fill:#000d6e;}</style></defs><g id="Solid"><rect class="cls-1" width="40" height="40"/></g><g id="Icon_Red" data-name="Icon Red"><path class="cls-2" d="M33.5,10H6.5A2.5,2.5,0,0,0,4,12.5v15A2.5,2.5,0,0,0,6.5,30h27A2.5,2.5,0,0,0,36,27.5v-15A2.5,2.5,0,0,0,33.5,10ZM8.0063,18.0155H7.0134a1,1,0,0,1-1-1v-.9927H8.0063Zm0-2.9927H6.0134v-.9952H8.0063Zm0-1.9952H6.0134v-.0121a1,1,0,0,1,1-1h.9929Zm4.0071,3.9879a1,1,0,0,1-1,1h-.0261V14.0276h1.0261Zm0-3.9879H10.4873a.5.5,0,0,0-.5.5v4.4879h-.981v-6h2.0071a1,1,0,0,1,1,1Zm20.8986,3.709-.8673.8673-2.5424-2.5424L28.04,16.524l1.4626,1.4626.9069-.9068,1.08,1.08-1.7742,1.7742a.3006.3006,0,0,1-.4251,0l-3.197-3.1971a.3.3,0,0,1,0-.4251L29.29,13.1144a.3.3,0,0,1,.425,0l3.1972,3.1971A.3006.3006,0,0,1,32.912,16.7366Z"/><path class="cls-3" d="M11.0134,12.0155H9.0063v6h.981V13.5276a.5.5,0,0,1,.5-.5h1.5261v-.0121A1,1,0,0,0,11.0134,12.0155Z"/><rect class="cls-3" x="6.0134" y="14.0276" width="1.993" height="0.9951"/><path class="cls-3" d="M6.0134,17.0155a1,1,0,0,0,1,1h.9929V16.0228H6.0134Z"/><path class="cls-3" d="M10.9873,18.0155h.0261a1,1,0,0,0,1-1V14.0276H10.9873Z"/><path class="cls-3" d="M6.0134,13.0155v.0121H8.0063V12.0155H7.0134A1,1,0,0,0,6.0134,13.0155Z"/><path class="cls-4" d="M29.7148,13.1144a.3.3,0,0,0-.425,0l-3.1971,3.1971a.3.3,0,0,0,0,.4251l3.197,3.1971a.3006.3006,0,0,0,.4251,0L31.489,18.16l-1.08-1.08-.9069.9068L28.04,16.524l1.4626-1.4625,2.5424,2.5424.8673-.8673a.3006.3006,0,0,0,0-.4251Z"/></g></svg>