<svg xmlns="http://www.w3.org/2000/svg" viewBox="0 0 40 40" focusable="false" aria-hidden="true"><defs><style>.cls-1{fill:none;}.cls-2{fill:#ffaca6;}.cls-3{fill:#000d6e;}</style></defs><g id="Solid"><rect class="cls-1" width="40" height="40"/></g><g id="Icon_Red" data-name="Icon Red"><path class="cls-2" d="M33.5,10H6.5A2.5,2.5,0,0,0,4,12.5v15A2.5,2.5,0,0,0,6.5,30h27A2.5,2.5,0,0,0,36,27.5v-15A2.5,2.5,0,0,0,33.5,10Zm-.588,6.7366-.8673.8673-2.5424-2.5424L28.04,16.524l1.4626,1.4626.9069-.9068,1.08,1.08-1.7742,1.7742a.3006.3006,0,0,1-.4251,0l-3.197-3.1971a.3.3,0,0,1,0-.4251L29.29,13.1144a.3.3,0,0,1,.425,0l3.1972,3.1971A.3006.3006,0,0,1,32.912,16.7366Z"/><path class="cls-3" d="M29.7148,13.1144a.3.3,0,0,0-.425,0l-3.1971,3.1971a.3.3,0,0,0,0,.4251l3.197,3.1971a.3006.3006,0,0,0,.4251,0L31.489,18.16l-1.08-1.08-.9069.9068L28.04,16.524l1.4626-1.4625,2.5424,2.5424.8673-.8673a.3006.3006,0,0,0,0-.4251Z"/></g></svg>