<?xml version="1.0" encoding="UTF-8"?><svg xmlns="http://www.w3.org/2000/svg" viewBox="0 0 40 40" focusable="false" aria-hidden="true"><defs><style>.cls-1{fill:none;}.cls-2{fill:#fa9319;}.cls-3{fill:#000d6e;}.cls-4{fill:#fae052;}</style></defs><g id="Solid"><rect class="cls-1" width="40" height="40"/></g><g id="Icon_Tangerine"><g><circle class="cls-4" cx="28" cy="20.00000001" r="3"/><path class="cls-3" d="M29.45833333,19.70833335h-1.16666667v-1.16666667c0-.16121419-.13045247-.29166667-.29166667-.29166667s-.29166667,.13045247-.29166667,.29166667v1.16666667h-1.16666667c-.16121419,0-.29166667,.13045247-.29166667,.29166667s.13045247,.29166667,.29166667,.29166667h1.16666667v1.16666667c0,.16121419,.13045247,.29166667,.29166667,.29166667s.29166667-.13045247,.29166667-.29166667v-1.16666667h1.16666667c.16121419,0,.29166667-.13045247,.29166667-.29166667s-.13045247-.29166667-.29166667-.29166667Z"/></g><g><path class="cls-4" d="M6.93825772,23.00772094h-1.91156006v7.98571777h1.91156006c.59814453,0,1.08306885-.48492432,1.08306885-1.08312988v-5.81951904c0-.59814453-.48492432-1.08306885-1.08306885-1.08306885Z"/><path class="cls-2" d="M34.94735195,26.22463989c-.13317871-.70776367-.75134277-1.22045898-1.47149658-1.22045898l-.29846191,.03173828-7.18817139,1.72491455v.23974609c0,1.28552246-1.18048096,1.99645996-1.99645996,1.99645996H15.00887539c-.2756958,0-.49914551-.22344971-.49914551-.49914551,0-.27563477,.22344971-.49908447,.49914551-.49908447h8.98388672c.28411865,0,.99822998-.29693604,.99822998-.99822998v-.00024414l-.00061035,.00018311c.00018311-.00854492,.00061035-.01702881,.00061035-.02563477v-.97277832c0-.02185059-.00067139-.04327393-.0020752-.06439209-.00018311-.00335693-.00067139-.0065918-.00097656-.01000977-.02490234-.33258057-.21429443-.56732178-.43005371-.71673584-.00268555-.00189209-.00537109-.00354004-.00805664-.00537109-.0246582-.01678467-.04956055-.03265381-.07458496-.04724121-.00500488-.00286865-.0100708-.0055542-.01507568-.00836182-.02282715-.01287842-.0456543-.02508545-.06848145-.03619385-.00213623-.00109863-.00421143-.00195312-.00634766-.00299072-.01177979-.00567627-.02349854-.01116943-.03515625-.01635742-.01177979-.00524902-.0234375-.01013184-.03509521-.01489258-.00201416-.00079346-.00402832-.00177002-.00598145-.00256348-.00897217-.00360107-.01776123-.00683594-.02655029-.01013184-.00463867-.00177002-.00933838-.00366211-.01391602-.00537109-.00958252-.003479-.01898193-.0065918-.02838135-.00970459-.00372314-.00128174-.00756836-.00268555-.0112915-.00390625-.00878906-.00280762-.01739502-.00531006-.02600098-.00787354-.00421143-.0012207-.00842285-.00268555-.01257324-.00384521-.00256348-.00073242-.00500488-.00128174-.00756836-.00195312-.02258301-.00628662-.04455566-.01165771-.06555176-.01593018-.00134277-.00024414-.00256348-.00042725-.00384521-.00067139-.04516602-.00897217-.08612061-.01342773-.1206665-.01342773h-5.01525879c-.00018311-.00018311-.00036621-.00036621-.00061035-.00048828-.52130127-.01025391-1.00592041-.3414917-1.56561279-.72436523-.03063965-.02093506-.06164551-.04211426-.09277344-.06341553-.00750732-.00506592-.01507568-.01019287-.02258301-.01531982-.02746582-.01873779-.05511475-.03753662-.08300781-.05639648-.00634766-.00427246-.01257324-.00848389-.0189209-.01275635-.06896973-.04656982-.1394043-.09350586-.21142578-.14050293-.00341797-.00219727-.00689697-.00445557-.01037598-.00671387-.03460693-.02252197-.06958008-.04504395-.10498047-.06750488l-.00549316-.003479c-.07666016-.04858398-.15515137-.09692383-.23565674-.14453125-.00018311-.00012207-.00036621-.00024414-.00054932-.00030518-.36535645-.21600342-.77197266-.41674805-1.23608398-.55773926-.56298828-.13220215-1.13171387-.20294189-1.68920898-.20294189h-3.67687988c-.55444336,0-1.00378418,.44946289-1.00378418,1.00384521v3.98724365h.00469971c-.00274658,.03723145-.00469971,.07458496-.00469971,.11224365v1.88415527s-.00097656,.64178467,.99725342,.99822998c.99822998,.35650635,6.46826172,2.61187744,6.60174561,2.6663208,.54107666,.22070312,1.11633301,.33251953,1.69458008,.33251953,.50683594,0,1.01605225-.08599854,1.50616455-.2598877,.01452637-.00512695,14.20068359-5.8359375,14.20068359-5.8359375,.67095947-.26177979,1.06048584-.96405029,.92736816-1.67181396Z"/></g><circle class="cls-4" cx="18" cy="16.00000001" r="4"/><path class="cls-3" d="M19.875,15.64107101h-1.5v-1.5c0-.20727539-.16772461-.375-.375-.375s-.375,.16772461-.375,.375v1.5h-1.5c-.20727539,0-.375,.16772461-.375,.375s.16772461,.375,.375,.375h1.5v1.5c0,.20727539,.16772461,.375,.375,.375s.375-.16772461,.375-.375v-1.5h1.5c.20727539,0,.375-.16772461,.375-.375s-.16772461-.375-.375-.375Z"/><g><circle class="cls-4" cx="24" cy="9.00000001" r="3"/><path class="cls-3" d="M25.45833333,8.70833335h-1.16666667v-1.16666667c0-.16121419-.13045247-.29166667-.29166667-.29166667s-.29166667,.13045247-.29166667,.29166667v1.16666667h-1.16666667c-.16121419,0-.29166667,.13045247-.29166667,.29166667s.13045247,.29166667,.29166667,.29166667h1.16666667v1.16666667c0,.16121419,.13045247,.29166667,.29166667,.29166667s.29166667-.13045247,.29166667-.29166667v-1.16666667h1.16666667c.16121419,0,.29166667-.13045247,.29166667-.29166667s-.13045247-.29166667-.29166667-.29166667Z"/></g></g></svg>