<svg xmlns="http://www.w3.org/2000/svg" viewBox="0 0 40 40" focusable="false" aria-hidden="true"><defs><style>.cls-1{fill:none;}.cls-2{fill:#6c2273;}.cls-3{fill:#b8b2ff;}.cls-4{fill:#000d6e;}</style></defs><g id="Solid"><rect class="cls-1" width="40" height="40"/></g><g id="Icon"><rect class="cls-2" x="6" y="9" width="28" height="19" rx="1"/><rect class="cls-3" x="7" y="10" width="26" height="17"/><path class="cls-2" d="M15,29H25a0,0,0,0,1,0,0v1a1,1,0,0,1-1,1H16a1,1,0,0,1-1-1V29A0,0,0,0,1,15,29Z" transform="translate(40 60) rotate(180)"/><path class="cls-4" d="M20,23.5h0a3,3,0,0,1-3-3v-3h6v3A3,3,0,0,1,20,23.5Zm2-8a2,2,0,0,0-4,0v1h1v-1a1,1,0,0,1,2,0v1h1Z"/></g></svg>