<?xml version="1.0" encoding="UTF-8"?><svg id="Calque_1" data-name="Calque 1" xmlns="http://www.w3.org/2000/svg" viewBox="0 0 40 40" focusable="false" aria-hidden="true"><defs><style>.cls-1 {
        fill: none;
      }

      .cls-2 {
        fill: #ffa39d;
      }

      .cls-3 {
        fill: #d0304c;
      }</style></defs><path class="cls-1" d="M0,0H40V40H0V0Z"/><g><path class="cls-3" d="M24.25,26.97H10c-.55,0-1-.45-1-1s.45-1,1-1H26.39c2.01-1.21,4.49-1.33,6.61-.31V14.96H7v14.19c0,1.02,.83,1.84,1.85,1.84,0,0,0,0,0,0h14.13v-.02c0-1.43,.44-2.83,1.26-4h0Zm-14.25-9.98H30c.55,0,1,.45,1,1s-.45,1-1,1H10c-.55,0-1-.45-1-1s.45-1,1-1Zm-1,4.97c0-.55,.45-1,1-1H30c.55,0,1,.45,1,1s-.45,1-1,1H10c-.55,0-1-.45-1-1Z"/><path class="cls-2" d="M9,25.97c0,.55,.45,1,1,1h14.24c.57-.81,1.3-1.49,2.15-2H10c-.55,0-1,.45-1,1Z"/><path class="cls-2" d="M10,20.96H30c.55,0,1,.45,1,1h0c0,.55-.45,1-1,1H10c-.55,0-1-.45-1-1h0c0-.55,.45-1,1-1Z"/><path class="cls-3" d="M33,10.82c0-1.02-.84-1.84-1.86-1.83h0s-3.14,0-3.14,0v2.05c0,.55-.45,1-1,1s-1-.45-1-1v-2.05H14v2.05c0,.55-.45,1-1,1s-1-.45-1-1v-2.05h-3.14c-1.02,0-1.85,.81-1.86,1.83,0,0,0,0,0,0v3.14h26v-3.14Z"/><path class="cls-2" d="M10,18.99H30c.55,0,1-.45,1-1s-.45-1-1-1H10c-.55,0-1,.45-1,1s.45,1,1,1Zm3-6.95c.55,0,1-.45,1-1V7.04c0-.55-.45-1-1-1s-1,.45-1,1v4c0,.55,.45,1,1,1Z"/><path class="cls-2" d="M27,12.04c.55,0,1-.45,1-1V7.04c0-.55-.45-1-1-1s-1,.45-1,1v4c0,.55,.45,1,1,1Z"/></g><path class="cls-2" d="M29.99,24.97c-3.31,0-6,2.69-6,6s2.69,6,6,6,6-2.69,6-6-2.69-6-6-6Zm.29,5.09l-.07,.73h-1.59c0,.06,0,.12,0,.18,0,.06,0,.12,0,.18h1.53l-.07,.72h-1.23c.28,.43,.77,.68,1.28,.66,.51,.04,1-.23,1.24-.69l.98,.66c-.49,.73-1.32,1.16-2.2,1.12-1.15,.04-2.18-.67-2.56-1.76h-.67l.07-.72h.46c0-.06,0-.12,0-.19,0-.06,0-.12,0-.18h-.41l.07-.73h.48c.38-1.08,1.42-1.8,2.57-1.76,.88-.03,1.71,.39,2.2,1.11l-.98,.66c-.24-.45-.73-.72-1.25-.68-.51-.02-1,.23-1.28,.67h1.42Z"/></svg>