<svg xmlns="http://www.w3.org/2000/svg" viewBox="0 0 40 40" focusable="false" aria-hidden="true"><g id="Solid"><rect width="40" height="40" fill="none"/></g><g id="Icon_Tangerine" data-name="Icon Tangerine"><path d="M24.2454,26.9692H10a1,1,0,0,1,0-2H26.3935A6.9431,6.9431,0,0,1,33,24.6592V14.96H7V29.15a1.8459,1.8459,0,0,0,1.86,1.84H22.9863l-.001-.0206A6.9622,6.9622,0,0,1,24.2454,26.9692ZM10,16.991H30a1,1,0,1,1,0,2H10a1,1,0,0,1,0-2ZM9,21.9615a1,1,0,0,1,1-1H30a1,1,0,0,1,1,1h0a1,1,0,0,1-1,1H10a1,1,0,0,1-1-1Z" fill="#fa9319"/><path d="M9,25.9692a1,1,0,0,0,1,1H24.2454a7.0285,7.0285,0,0,1,2.1481-2H10A1,1,0,0,0,9,25.9692Z" fill="#fae052"/><rect x="9.0001" y="20.9615" width="22" height="2.0001" rx="1" fill="#fae052"/><path d="M33,10.82a1.8439,1.8439,0,0,0-1.86-1.83H28v2.0517a1,1,0,0,1-2,0V8.99H14v2.0517a1,1,0,0,1-2,0V8.99H8.86A1.8439,1.8439,0,0,0,7,10.82v3.14H33Z" fill="#fa9319"/><path d="M10,18.991H30a1,1,0,1,0,0-2H10a1,1,0,0,0,0,2Z" fill="#fae052"/><path d="M13,12.0417a1,1,0,0,0,1-1v-4a1,1,0,1,0-2,0v4A1,1,0,0,0,13,12.0417Z" fill="#fae052"/><path d="M29.9853,24.9694a6,6,0,1,0,6,6A6,6,0,0,0,29.9853,24.9694Zm-3.0688,6.6849a.8064.8064,0,0,0,.8374-.6484l.6436.2617a1.47,1.47,0,0,1-1.4717,1.0215,1.6227,1.6227,0,0,1,.0044-3.2452,1.4768,1.4768,0,0,1,1.4673,1.0215l-.6436.2608a.8156.8156,0,0,0-.8418-.6485.9911.9911,0,0,0,.0044,1.9766Zm4.5493.5762h-.67V30.9336H29.6025v1.2969h-.6709V29.1016h.6709V30.335h1.1929V29.1016h.67Zm1.4253-2.5479v.6934h1.2422v.581H32.8911v1.2735H32.22V29.1016H34.3v.581Z" fill="#fae052"/><path d="M26.9121,29.6777a.8156.8156,0,0,1,.8418.6485l.6436-.2608A1.4768,1.4768,0,0,0,26.93,29.0439a1.6227,1.6227,0,0,0-.0044,3.2452,1.47,1.47,0,0,0,1.4717-1.0215l-.6436-.2617a.8064.8064,0,0,1-.8374.6484.9911.9911,0,0,1-.0044-1.9766Z" fill="#000d6e"/><polygon points="30.795 30.335 29.603 30.335 29.603 29.102 28.932 29.102 28.932 32.23 29.603 32.23 29.603 30.934 30.795 30.934 30.795 32.23 31.466 32.23 31.466 29.102 30.795 29.102 30.795 30.335" fill="#000d6e"/><polygon points="32.22 29.102 32.22 32.23 32.891 32.23 32.891 30.957 34.133 30.957 34.133 30.376 32.891 30.376 32.891 29.683 34.3 29.683 34.3 29.102 32.22 29.102" fill="#000d6e"/><path d="M27,12.0417a1,1,0,0,0,1-1v-4a1,1,0,1,0-2,0v4A1,1,0,0,0,27,12.0417Z" fill="#fae052"/></g></svg>