<svg xmlns="http://www.w3.org/2000/svg" viewBox="0 0 40 40" focusable="false" aria-hidden="true"><defs><style>.cls-1{fill:none;}.cls-2{fill:#d9304c;}.cls-3{fill:#ffaca6;}.cls-4{fill:#000d6e;}</style></defs><g id="Solid"><rect class="cls-1" width="40" height="40"/></g><g id="Icon_Red" data-name="Icon Red"><path class="cls-2" d="M8.86,30.49A1.3511,1.3511,0,0,1,7.5,29.15V15.46h25v8.4482a7.4,7.4,0,0,0-2.5146-.4385,7.4827,7.4827,0,0,0-3.7276.9991H10a1.5,1.5,0,0,0,0,3H23.3545a7.4349,7.4349,0,0,0-.854,3.0214ZM10,20.4619a1.5,1.5,0,0,0,0,3H30a1.5,1.5,0,0,0,0-3Zm0-3.9707a1.5,1.5,0,0,0,0,3H30a1.5,1.5,0,0,0,0-3Z"/><path class="cls-2" d="M32,15.96v2.0154a2.0022,2.0022,0,0,0-2-1.9844H10a2,2,0,0,0-.2435,3.9852A2,2,0,0,0,10,23.9615H26.14l-.0139.0077H10a2,2,0,0,0,0,4H22.57A7.9186,7.9186,0,0,0,22.045,29.99H8.86A.8511.8511,0,0,1,8,29.15V15.96H32m0,2.0465v3.9394a2.0031,2.0031,0,0,0-1.7565-1.97A2.0029,2.0029,0,0,0,32,18.0065m0,3.9706V23.23q-.191-.05-.3838-.091A1.989,1.989,0,0,0,32,21.9771M33,14.96H7V29.15a1.8459,1.8459,0,0,0,1.86,1.84H22.9863l-.001-.0206a6.9622,6.9622,0,0,1,1.26-4H10a1,1,0,0,1,0-2H26.3935A6.9431,6.9431,0,0,1,33,24.6592V14.96ZM10,18.991a1,1,0,0,1,0-2H30a1,1,0,1,1,0,2Zm0,3.9705a1,1,0,0,1-1-1H9a1,1,0,0,1,1-1H30a1,1,0,0,1,1,1h0a1,1,0,0,1-1,1Z"/><path class="cls-3" d="M9,25.9692a1,1,0,0,0,1,1H24.2454a7.0285,7.0285,0,0,1,2.1481-2H10A1,1,0,0,0,9,25.9692Z"/><rect class="cls-3" x="9.0001" y="20.9615" width="22" height="2.0001" rx="1"/><path class="cls-2" d="M7.5,13.46V10.82A1.3467,1.3467,0,0,1,8.86,9.49H11.5V11.042a1.5,1.5,0,1,0,3,0V9.49h11V11.042a1.5,1.5,0,1,0,3,0V9.49h2.64a1.3467,1.3467,0,0,1,1.36,1.33v2.64Z"/><path class="cls-2" d="M31.14,9.99a.8463.8463,0,0,1,.86.83v2.14H27.5668A2.0038,2.0038,0,0,0,29,11.0417V9.99h2.14M25,9.99v1.0517A2.0038,2.0038,0,0,0,26.4332,12.96H13.5668A2.0038,2.0038,0,0,0,15,11.0417V9.99H25m-14,0v1.0517A2.0038,2.0038,0,0,0,12.4332,12.96H8V10.82a.8463.8463,0,0,1,.86-.83H11m20.14-1H28v2.0517a1,1,0,0,1-2,0V8.99H14v2.0517a1,1,0,0,1-2,0V8.99H8.86A1.8439,1.8439,0,0,0,7,10.82v3.14H33V10.82a1.8439,1.8439,0,0,0-1.86-1.83Z"/><path class="cls-3" d="M10,18.991H30a1,1,0,1,0,0-2H10a1,1,0,0,0,0,2Z"/><path class="cls-3" d="M13,12.0417a1,1,0,0,0,1-1v-4a1,1,0,1,0-2,0v4A1,1,0,0,0,13,12.0417Z"/><path class="cls-3" d="M29.9853,24.9694a6,6,0,1,0,6,6A6,6,0,0,0,29.9853,24.9694Zm-3.0688,6.6849a.8064.8064,0,0,0,.8374-.6484l.6436.2617a1.47,1.47,0,0,1-1.4717,1.0215,1.6227,1.6227,0,0,1,.0044-3.2452,1.4768,1.4768,0,0,1,1.4673,1.0215l-.6436.2608a.8156.8156,0,0,0-.8418-.6485.9911.9911,0,0,0,.0044,1.9766Zm4.5493.5762h-.67V30.9336H29.6025v1.2969h-.6709V29.1016h.6709V30.335h1.1929V29.1016h.67Zm1.4253-2.5479v.6934h1.2422v.581H32.8911v1.2735H32.22V29.1016H34.3v.581Z"/><path class="cls-4" d="M26.9121,29.6777a.8156.8156,0,0,1,.8418.6485l.6436-.2608A1.4768,1.4768,0,0,0,26.93,29.0439a1.6227,1.6227,0,0,0-.0044,3.2452,1.47,1.47,0,0,0,1.4717-1.0215l-.6436-.2617a.8064.8064,0,0,1-.8374.6484.9911.9911,0,0,1-.0044-1.9766Z"/><polygon class="cls-4" points="30.795 30.335 29.603 30.335 29.603 29.102 28.932 29.102 28.932 32.23 29.603 32.23 29.603 30.934 30.795 30.934 30.795 32.23 31.466 32.23 31.466 29.102 30.795 29.102 30.795 30.335"/><polygon class="cls-4" points="32.22 29.102 32.22 32.23 32.891 32.23 32.891 30.957 34.133 30.957 34.133 30.376 32.891 30.376 32.891 29.683 34.3 29.683 34.3 29.102 32.22 29.102"/><path class="cls-3" d="M27,12.0417a1,1,0,0,0,1-1v-4a1,1,0,1,0-2,0v4A1,1,0,0,0,27,12.0417Z"/></g></svg>