<svg xmlns="http://www.w3.org/2000/svg" viewBox="0 0 40 40" focusable="false" aria-hidden="true"><defs><style>.cls-1{fill:none;}.cls-2{fill:#94e3d4;}.cls-3{fill:#1b5951;}.cls-4{fill:#000d6e;}</style></defs><g id="Solid"><rect class="cls-1" width="40" height="40"/></g><g id="Icon_Green" data-name="Icon Green"><path class="cls-1" d="M30.7115,25.1347a1.1758,1.1758,0,0,0,1.1773-.8174l-.5147-.209a.6448.6448,0,0,1-.67.5186.7928.7928,0,0,1-.0034-1.5811.652.652,0,0,1,.6733.5186l.5147-.209a1.1817,1.1817,0,0,0-1.1738-.8174,1.2984,1.2984,0,0,0-.0035,2.5967Z"/><rect class="cls-1" x="13.9556" y="9.9678" width="7.0034" height="2.0013"/><rect class="cls-1" x="11.9539" y="15.9691" width="11.0063" height="1.002"/><path class="cls-2" d="M28.008,31.0266a.9578.9578,0,0,1,.9091-1H28.99l-.0086-1.61a5.9793,5.9793,0,0,1-.0237-8.8558v-2.59H25.96V17.44a.5319.5319,0,0,1-.53.53H23.4906a.5321.5321,0,0,1-.53-.53V16.971H11.9539V17.44a.532.532,0,0,1-.53.53H9.4843a.532.532,0,0,1-.53-.53V16.971H5.9574v15H28.6666A.9763.9763,0,0,1,28.008,31.0266ZM17.4573,29.4844a5,5,0,1,1,5-5A5,5,0,0,1,17.4573,29.4844Z"/><path class="cls-2" d="M9.4843,13.9706h1.9392a.532.532,0,0,1,.53.53v1.4681H22.96V14.501a.5321.5321,0,0,1,.5305-.53H25.43a.532.532,0,0,1,.53.53v1.4681h2.9973v-3a1,1,0,0,0-1-1H22.959V9.1631a1.2063,1.2063,0,0,0-1.2143-1.1953H13.17a1.2063,1.2063,0,0,0-1.2144,1.1953v2.806H6.9574a1,1,0,0,0-1,1v3H8.9539V14.501A.532.532,0,0,1,9.4843,13.9706Zm4.4713-4.0028H20.959v2.0013H13.9556Z"/><path class="cls-3" d="M9.4843,17.9706h1.9392a.532.532,0,0,0,.53-.53V14.501a.532.532,0,0,0-.53-.53H9.4843a.532.532,0,0,0-.53.53V17.44A.532.532,0,0,0,9.4843,17.9706Z"/><path class="cls-3" d="M25.43,13.9706H23.4906a.5321.5321,0,0,0-.53.53V17.44a.5321.5321,0,0,0,.5305.53H25.43a.5319.5319,0,0,0,.53-.53V14.501A.532.532,0,0,0,25.43,13.9706Z"/><path class="cls-3" d="M17.4573,19.4844a5,5,0,1,0,5,5A5,5,0,0,0,17.4573,19.4844Zm3.0214,5.5749a.4128.4128,0,0,1-.4116.4117H18.4787v1.5883a.4128.4128,0,0,1-.4116.4117H16.89a.4128.4128,0,0,1-.4116-.4117V25.471H14.89a.4128.4128,0,0,1-.4116-.4117V23.8826a.4128.4128,0,0,1,.4116-.4116h1.5884V21.8826a.4128.4128,0,0,1,.4116-.4116h1.1768a.4128.4128,0,0,1,.4116.4116V23.471h1.5884a.4128.4128,0,0,1,.4116.4116Z"/><path class="cls-4" d="M37.0989,36.0289H28.9171a1.003,1.003,0,0,0-.0248,1.9945c.0088,0,.016.0055.0248.0055h8.1818a1.0045,1.0045,0,0,0,0-2Z"/><path class="cls-4" d="M37.0989,33.0278H28.9171a1.0045,1.0045,0,0,0,0,2h8.1818a1.0045,1.0045,0,0,0,0-2Z"/><path class="cls-4" d="M37.0989,30.0266H28.9171a.9578.9578,0,0,0-.9091,1,.9763.9763,0,0,0,.6586.9444.8135.8135,0,0,0,.2505.0556h8.1818a1.0045,1.0045,0,0,0,0-2Z"/><path class="cls-4" d="M33.0081,28.9782a5,5,0,1,0-5-5A5,5,0,0,0,33.0081,28.9782Zm1.94-6.3933h1.6635V23.05H35.485v.5547h.9936v.4639H35.485v1.02h-.5366Zm-2.6319,0h.5366v.9873h.9542v-.9873h.5366v2.5029h-.5366V24.0507h-.9542v1.0371h-.5366ZM30.715,22.538a1.1817,1.1817,0,0,1,1.1738.8174l-.5147.209a.652.652,0,0,0-.6733-.5186.7928.7928,0,0,0,.0034,1.5811.6448.6448,0,0,0,.67-.5186l.5147.209a1.1758,1.1758,0,0,1-1.1773.8174,1.2984,1.2984,0,0,1,.0035-2.5967Z"/></g></svg>