<?xml version="1.0" encoding="UTF-8"?><svg id="Calque_1" data-name="Calque 1" xmlns="http://www.w3.org/2000/svg" viewBox="0 0 40 40" focusable="false" aria-hidden="true"><path d="M0,0H40V40H0V0Z" fill="none"/><g><path d="M13.96,9.97h7v2h-7v-2Zm-2,6h11.01v1H11.95v-1Z" fill="none"/><path d="M28.01,31.03c-.02-.53,.38-.97,.91-1h.07v-1.61c-2.46-2.21-2.65-5.99-.44-8.45,.13-.14,.27-.28,.41-.41v-2.59h-3v.47c0,.29-.24,.53-.53,.53h-1.94c-.29,0-.53-.24-.53-.53v-.47H11.95v.47c0,.29-.24,.53-.53,.53h-1.94c-.29,0-.53-.24-.53-.53v-.47h-3v15H28.67c-.4-.14-.67-.52-.66-.94Zm-10.55-1.54c-2.76,0-5-2.24-5-5s2.24-5,5-5,5,2.24,5,5-2.24,5-5,5Zm-7.97-15.51h1.94c.29,0,.53,.24,.53,.53v1.47h11.01v-1.47c0-.29,.24-.53,.53-.53h1.94c.29,0,.53,.24,.53,.53v1.47h3v-3c0-.55-.45-1-1-1h-5v-2.81c0-.66-.55-1.2-1.21-1.2H13.17c-.66,0-1.21,.53-1.21,1.2v2.81H6.96c-.55,0-1,.45-1,1v3h3v-1.47c0-.29,.24-.53,.53-.53h0Zm4.47-4h7v2h-7v-2Z" fill="#aea8d0"/><path d="M9.48,17.97h1.94c.29,0,.53-.24,.53-.53v-2.94c0-.29-.24-.53-.53-.53h-1.94c-.29,0-.53,.24-.53,.53v2.94c0,.29,.24,.53,.53,.53Zm15.95-4h-1.94c-.29,0-.53,.24-.53,.53v2.94c0,.29,.24,.53,.53,.53h1.94c.29,0,.53-.24,.53-.53v-2.94c0-.29-.24-.53-.53-.53h0Zm-7.97,5.51c-2.76,0-5,2.24-5,5s2.24,5,5,5,5-2.24,5-5-2.24-5-5-5Zm3.02,5.57c0,.23-.18,.41-.41,.41h-1.59v1.59c0,.23-.18,.41-.41,.41h-1.18c-.23,0-.41-.18-.41-.41v-1.59h-1.59c-.23,0-.41-.18-.41-.41v-1.18c0-.23,.18-.41,.41-.41h1.59v-1.59c0-.23,.18-.41,.41-.41h1.18c.23,0,.41,.19,.41,.41v1.59h1.59c.23,0,.41,.19,.41,.41v1.18Z" fill="#6c2273"/><path d="M37.1,36.03h-8.18c-.55,.05-.96,.54-.9,1.09,.05,.47,.41,.84,.88,.9,.01,0,.02,0,.02,0h8.18c.55-.05,.96-.54,.91-1.09-.04-.48-.43-.87-.91-.91h0Zm0-3h-8.18c-.55,.05-.96,.54-.91,1.09,.04,.48,.43,.87,.91,.91h8.18c.55-.05,.96-.54,.91-1.09-.04-.48-.43-.87-.91-.91h0Zm0-3h-8.18c-.53,.03-.93,.47-.91,1,0,.42,.26,.81,.66,.94,.08,.03,.16,.05,.25,.06h8.18c.55-.05,.96-.54,.91-1.09-.04-.48-.43-.87-.91-.91h0Z" fill="#000d6e"/></g><path d="M33,19c-2.8,0-5,2.2-5,5s2.2,5,5,5,5-2.2,5-5-2.2-5-5-5Zm.2,4.2l-.1,.6h-1.3v.3h1.3l-.1,.6h-1c.2,.4,.6,.6,1.1,.6,.4,0,.8-.2,1-.6l.8,.5c-.4,.6-1.1,1-1.8,.9-1,0-1.8-.6-2.1-1.5h-.6l.1-.6h.4v-.3h-.3l.1-.6h.3c.3-.9,1.2-1.5,2.1-1.5,.7,0,1.4,.3,1.8,.9l-.8,.5c-.2-.4-.6-.6-1-.6s-.8,.2-1.1,.6h1.2v.2Z" fill="#000d6e"/></svg>