<?xml version="1.0" encoding="UTF-8"?><svg xmlns="http://www.w3.org/2000/svg" viewBox="0 0 40 40" focusable="false" aria-hidden="true"><defs><style>.cls-1 {
        fill: none;
      }

      .cls-2 {
        fill: #000d6e;
      }

      .cls-3 {
        fill: #6c2273;
      }

      .cls-4 {
        fill: #b8b2ff;
      }</style></defs><g id="Solid"><rect class="cls-1" width="40" height="40"/></g><g id="Icon_Purple" data-name="Icon Purple"><g><path class="cls-2" d="m6,2v12h7.952087c0-1.102844.897217-2,2-2h2c.016418,0,.031616.004456.047913.004822V2H6Zm6.239075,7.056091h-1.574707v2.997864h-1.738342V3.946045h3.313049c1.738342,0,2.8349,1.003052,2.8349,2.554443,0,1.539978-1.108582,2.555603-2.8349,2.555603Z"/><path class="cls-2" d="m12.14563,5.463196h-1.481262v2.075684h1.481262c.769958,0,1.166626-.430847,1.166626-1.038391,0-.606384-.396667-1.037292-1.166626-1.037292Z"/></g><path class="cls-2" d="m24,36.214294c0,.986206-.7995,1.785706-1.785706,1.785706h-3.428589c-.986206,0-1.785706-.7995-1.785706-1.785706v-3.214294h7v3.214294Z"/><path class="cls-3" d="m17.468323,22.358398c-.309143.742004-.468323,1.537842-.468323,2.341797l.010742,7.299805h16.989258s0-14,0-14h-14.989258s-1.542419,4.358398-1.542419,4.358398Zm1.542419,4.141602c0-1.030029.630005-1.920044,1.51001-2.299988.309998-.130005.640015-.200012.98999-.200012,1.380005,0,2.5,1.119995,2.5,2.5,0,1.039978-.630005,1.919983-1.52002,2.299988h-.01001c-.299988.130005-.619995.200012-.949951.200012h-.02002c-1.380005,0-2.5-1.119995-2.5-2.5Z"/><path class="cls-4" d="m20.520752,24.200012l1.179993,1.639954-1.48999,1.050049,1.320007,2.109985h-.02002c-1.380005,0-2.5-1.119995-2.5-2.5,0-1.030029.630005-1.920044,1.51001-2.299988Z"/><path class="cls-4" d="m22.990723,26.049988l-1.47998-2.049988c1.380005,0,2.5,1.119995,2.5,2.5,0,1.039978-.630005,1.919983-1.52002,2.299988h-.01001l-1.029968-1.659973,1.539978-1.090027Z"/><path class="cls-4" d="m34,7h-8.483582c-1.404663.002013-2.670898.84701-3.211243,2.143241l-.553101,1.457177-2.299988,6.399583h14.547913V7Z"/><rect class="cls-3" x="14.952079" y="13" width="4" height="3" rx="1" ry="1"/></g></svg>