<?xml version="1.0" encoding="iso-8859-1"?><!--Generator: Adobe Illustrator 26.2.1, SVG Export Plug-In . SVG Version: 6.00 Build 0)--><svg version="1.1" xmlns="http://www.w3.org/2000/svg" xmlns:xlink="http://www.w3.org/1999/xlink" x="0px" y="0px" viewBox="0 0 40 40" style="enable-background:new 0 0 40 40" xml:space="preserve" focusable="false" aria-hidden="true"><g id="Solid"><rect style="fill:none" width="40" height="40"/></g><g id="Icon_Red_00000082331485792395309820000012885786126829362321_"><g><path style="fill:none" d="M26.023,16.574c-0.002,0.008-0.004,0.016-0.005,0.024c-0.009,0.047-0.015,0.096-0.015,0.147
			c0-0.068,0.012-0.131,0.027-0.191C26.028,16.562,26.024,16.567,26.023,16.574z"/><path style="fill:none" d="M20.833,17.966L20.833,17.966c-0.101,0-0.191,0.058-0.257,0.152c-0.033,0.047-0.059,0.103-0.077,0.164
			c0.018-0.062,0.044-0.117,0.077-0.164C20.641,18.024,20.732,17.966,20.833,17.966z"/><path style="fill:none" d="M20.83,17.312c-0.001-0.084-0.001-0.162-0.002-0.222l0.008-0.008c0.285-0.136,0.766-0.417,1.433-0.067
			c0.569,0.299,1.53,0.587,1.994,0.721c0.001,0.083,0.002,0.164,0.003,0.234c0.091,0,0.173,0.054,0.236,0.135
			c-0.063-0.082-0.144-0.136-0.235-0.137c-0.001-0.069-0.001-0.149-0.002-0.232c0,0-0.001,0-0.001,0
			c-0.464-0.134-1.425-0.422-1.995-0.721c-0.666-0.35-1.148-0.069-1.433,0.067l-0.008,0.008l-0.002,0.002
			c0.001,0.059,0.001,0.137,0.002,0.22c0,0.002,0,0.003,0,0.005c0.001,0.153,0.003,0.329,0.004,0.489
			c-0.001-0.16-0.002-0.337-0.003-0.49C20.83,17.314,20.83,17.313,20.83,17.312z"/><path style="fill:none" d="M24.136,18.964c0.028,0.015,0.058,0.021,0.089,0.026C24.194,18.984,24.162,18.978,24.136,18.964
			C24.136,18.964,24.136,18.964,24.136,18.964z"/><polygon style="fill:none" points="21.097,19.24 21.101,19.249 21.107,19.259 21.101,19.25 		"/><path style="fill:none" d="M20.836,18.998c0.047-0.001,0.091-0.014,0.131-0.038c0.033,0.089,0.073,0.172,0.117,0.253
			c-0.044-0.081-0.084-0.165-0.117-0.255C20.927,18.983,20.882,18.998,20.836,18.998z"/><path style="fill:none" d="M25.127,24.389c0.111,0.077,0.21,0.164,0.301,0.255C25.338,24.552,25.238,24.466,25.127,24.389z"/><polygon style="fill:none" points="25.664,24.934 25.664,24.935 25.664,24.935 		"/><polygon style="fill:none" points="24.492,24.083 24.539,24.097 24.521,24.092 		"/><polygon style="fill:none" points="21.695,20.539 20.713,20.768 21.695,20.539 		"/><path style="fill:none" d="M24.262,19c0.067,0,0.124-0.037,0.177-0.083C24.386,18.963,24.328,19,24.261,19
			C24.261,19,24.261,19,24.262,19z"/><path style="fill:none" d="M20.831,19c0,0,0.001,0,0.001,0c-0.076,0-0.141-0.041-0.199-0.097C20.691,18.959,20.756,19,20.831,19z
			"/><polygon style="fill:none" points="23.392,20.447 23.392,20.447 23.382,20.292 23.356,19.925 23.382,20.292 		"/><path style="fill:none" d="M24.501,18.106c0.073,0.094,0.121,0.227,0.121,0.376C24.622,18.333,24.574,18.2,24.501,18.106z"/><polygon style="fill:none" points="21.696,20.525 21.696,20.525 21.722,19.91 		"/><polygon style="fill:none" points="23.392,20.54 23.393,20.539 23.392,20.53 23.392,20.53 		"/><path style="fill:none" d="M22.357,20.971c0.005,0.001,0.01,0.002,0.015,0.003c0.057,0.01,0.113,0.022,0.173,0.022
			c-0.06,0-0.116-0.012-0.173-0.022C22.367,20.972,22.362,20.971,22.357,20.971z"/><path style="fill:none" d="M27.684,14.633c-0.015-0.004-0.029-0.007-0.043-0.01C27.655,14.626,27.669,14.629,27.684,14.633
			C27.684,14.633,27.684,14.633,27.684,14.633z"/><path style="fill:none" d="M25.664,22.09L25.664,22.09c0-0.541-0.239-0.869-0.674-1.094
			C25.425,21.221,25.664,21.549,25.664,22.09z"/><path style="fill:none" d="M25.868,25.321c-0.001-0.004-0.004-0.007-0.005-0.011C25.864,25.314,25.867,25.318,25.868,25.321z"/><path style="fill:none" d="M30.114,15.811c-0.048-0.023-0.1-0.048-0.165-0.08c0.162,0.079,0.277,0.134,0.319,0.155
			C30.243,15.873,30.185,15.845,30.114,15.811z"/><path style="fill:none" d="M26.407,17.328c0.025,0,0.049-0.004,0.073-0.011v0C26.456,17.323,26.432,17.328,26.407,17.328z"/><path style="fill:none" d="M29.29,19.626c-0.001-0.02-0.003-0.04-0.004-0.059c0.002,0.023,0.003,0.044,0.005,0.066
			C29.29,19.631,29.29,19.629,29.29,19.626z"/><path style="fill:none" d="M29.962,18.032c0.107-0.217,0.19-0.457,0.243-0.713h0C30.152,17.575,30.069,17.815,29.962,18.032z"/><path style="fill:none" d="M27.373,19.503L27.373,19.503C27.373,19.503,27.373,19.503,27.373,19.503l0.001-0.005
			c0-0.002,0.002-0.01,0.002-0.01l-0.001,0.001l0,0c0,0.001,0,0.002,0,0.002c0,0.001-0.001,0.004-0.001,0.005v0
			c0,0.004-0.002,0.011-0.003,0.016h0.002C27.372,19.511,27.372,19.505,27.373,19.503z"/><path style="fill:none" d="M29.182,22.055c0-0.003-0.002-0.005-0.001-0.009c0.012-0.112,0.026-0.23,0.036-0.334
			c0.01-0.081,0.013-0.147,0.021-0.221c-0.223,0.255-0.545,0.42-0.91,0.42c-0.369,0-0.694-0.168-0.917-0.427v0.001v0.007
			c0,0.004,0.001,0.008,0.001,0.012c0,0-0.001,0-0.001-0.001c0.013,0.141,0.029,0.29,0.046,0.446c0,0.003,0,0.005,0.001,0.007
			c0.004,0.039,0.01,0.082,0.015,0.121c0.037,0.308,0.097,2.082,0.165,3.258l1.394-0.334c0.061-1.153,0.114-2.643,0.147-2.923
			C29.18,22.071,29.181,22.063,29.182,22.055z"/><path style="fill:none" d="M30.393,16.204c-0.014-0.007-0.026-0.019-0.04-0.023c-0.005-0.001-0.009,0.003-0.014,0.007
			c-0.023-0.006-0.045-0.021-0.07-0.021c0-0.025-0.001-0.086-0.001-0.145c0,0.059,0.001,0.12,0.001,0.145
			C30.314,16.167,30.354,16.185,30.393,16.204z"/><polygon style="fill:none" points="29.279,19.483 29.242,18.894 29.279,19.483 		"/><path style="fill:none" d="M30.617,16.475c-0.01-0.027-0.019-0.057-0.032-0.081c-0.004-0.008-0.009-0.015-0.013-0.023
			c-0.002-0.004-0.006-0.006-0.008-0.01c0,0,0,0,0,0C30.585,16.395,30.602,16.434,30.617,16.475
			C30.617,16.475,30.617,16.475,30.617,16.475z"/><path style="fill:none" d="M30.648,16.566c-0.002-0.008-0.003-0.017-0.005-0.025c-0.001-0.002-0.002-0.004-0.002-0.006
			c0,0,0,0,0,0c0.018,0.066,0.03,0.137,0.03,0.212C30.671,16.683,30.662,16.623,30.648,16.566z"/><path style="fill:none" d="M30.521,16.307c-0.013-0.016-0.024-0.035-0.038-0.048c-0.004-0.004-0.008-0.006-0.012-0.01
			c-0.007-0.006-0.015-0.007-0.021-0.012C30.475,16.256,30.499,16.28,30.521,16.307C30.521,16.307,30.521,16.307,30.521,16.307z"/><path style="fill:#000D6E" d="M15.618,22.237l0.031,0.007l0.031,0.009c0.482,0.147,0.958,0.36,1.455,0.654
			c0.09,0.053,0.177,0.107,0.268,0.164l0.126,0.081l0.244,0.162l0.11,0.075l0.093,0.063c0.392,0.268,0.798,0.546,1.026,0.55h0.423
			V22.09c0-0.53,0.23-0.855,0.649-1.08c0.139-0.075,0.315-0.131,0.494-0.187v-0.013c0.048-0.014,0.096-0.027,0.144-0.041
			c0,0,0,0,0.001,0l0.982-0.228l0.001-0.015v0l0.026-0.615c-0.242-0.153-0.448-0.369-0.601-0.631
			c-0.004-0.007-0.009-0.013-0.013-0.02c-0.002-0.003-0.005-0.006-0.007-0.01c-0.002-0.003-0.003-0.006-0.004-0.009
			c-0.001-0.003-0.002-0.005-0.004-0.008c-0.003-0.006-0.005-0.013-0.009-0.019c-0.044-0.081-0.084-0.164-0.117-0.253
			c-0.041,0.024-0.085,0.037-0.131,0.038c-0.001,0-0.003,0.001-0.004,0.001c0,0,0,0,0,0c0,0-0.001,0-0.001,0
			c-0.075,0-0.14-0.041-0.198-0.098c-0.002-0.001-0.003-0.002-0.005-0.004c-0.094-0.094-0.158-0.241-0.158-0.416v0
			c0-0.071,0.01-0.139,0.028-0.201s0.044-0.118,0.077-0.164c0.065-0.094,0.156-0.152,0.257-0.152c0-0.049,0-0.103,0-0.16
			c-0.001-0.16-0.003-0.336-0.004-0.489c0-0.002,0-0.003,0-0.005c-0.001-0.083-0.001-0.161-0.002-0.22l0.002-0.002l0.008-0.008
			c0.285-0.136,0.766-0.417,1.433-0.067c0.569,0.299,1.53,0.587,1.995,0.721c0,0,0.001,0,0.001,0
			c0.001,0.083,0.001,0.163,0.002,0.232c0.091,0.002,0.172,0.055,0.235,0.137c0.073,0.094,0.121,0.227,0.121,0.376v0
			c0,0.183-0.07,0.337-0.171,0.429c-0.003,0.003-0.008,0.002-0.012,0.005C24.386,18.963,24.328,19,24.262,19c0,0-0.001,0-0.001,0
			c0,0,0,0,0,0c0,0-0.001,0-0.001,0c-0.003,0-0.005-0.002-0.007-0.002c-0.009,0-0.018-0.006-0.027-0.008
			c-0.03-0.005-0.061-0.011-0.089-0.026c0,0,0,0,0,0c-0.029,0.077-0.066,0.149-0.104,0.22c-0.003,0.006-0.007,0.01-0.01,0.016
			c-0.109,0.207-0.25,0.389-0.417,0.536c-0.006,0.005-0.01,0.012-0.016,0.017c-0.074,0.063-0.151,0.122-0.233,0.172l0.026,0.367
			l0.01,0.155v0v0.059v0v0.024l0.001,0.009l0.984,0.228c0,0,0,0,0.001,0c0.048,0.014,0.096,0.027,0.144,0.041v0.012
			c0.169,0.053,0.336,0.106,0.469,0.174c0,0-0.001,0-0.001-0.001v-0.303l0.001-0.001v-2.608c0-0.076-0.012-0.148-0.017-0.222
			c0,0,0,0,0,0c-0.02-0.294-0.075-0.573-0.165-0.83c-0.009-0.027-0.022-0.052-0.032-0.079c-0.038-0.099-0.077-0.198-0.124-0.29
			c-0.062-0.122-0.132-0.237-0.21-0.343c-0.009-0.017-0.021-0.034-0.032-0.051c-0.013-0.019-0.024-0.038-0.037-0.057
			c-0.334-0.522-1.016-0.949-1.809-0.949c-0.009,0-0.017,0.001-0.026,0.003c-0.01,0.002-0.02,0.003-0.031,0.003
			c-0.234,0.006-0.452,0.056-0.658,0.128c-0.034,0.012-0.07,0.018-0.102,0.031c-0.303,0.122-0.571,0.298-0.775,0.511
			c-0.117,0.1-0.224,0.217-0.323,0.346c-0.007,0.01-0.016,0.018-0.023,0.028c-0.096,0.129-0.179,0.272-0.253,0.425
			c-0.005,0.01-0.01,0.02-0.015,0.03c-0.061,0.131-0.107,0.274-0.149,0.419c-0.008,0.029-0.022,0.055-0.03,0.085
			c-0.001,0.005-0.003,0.01-0.004,0.016c-0.023,0.092-0.03,0.191-0.045,0.287c-0.015,0.095-0.039,0.187-0.045,0.286c0,0,0,0,0,0
			c-0.005,0.074-0.011,0.147-0.011,0.222v0.812v2.1l-2.768-1.402l-0.048-0.021h-0.001l0.003-0.646h-0.008
			c0.509-0.346,0.89-0.943,1.044-1.657c0.028,0.008,0.058,0.012,0.088,0.012c0.247,0,0.447-0.275,0.447-0.615
			c0-0.28-0.137-0.513-0.323-0.588v-1.349c0-0.915-0.902-1.918-2.229-1.934c-1.327,0.016-2.229,1.019-2.229,1.934v1.349
			c-0.186,0.074-0.323,0.308-0.323,0.588c0,0.34,0.2,0.615,0.447,0.615c0.03,0,0.059-0.004,0.088-0.012
			c0.154,0.714,0.535,1.311,1.044,1.657h-0.008l0.003,0.646H15.3l-0.048,0.021l-3.168,1.605c-0.329,0.164-0.558,0.462-0.656,0.81
			H13.7C14.324,22.008,14.97,22.085,15.618,22.237z"/><path style="fill:#FFACA6" d="M20.074,21.01c-0.419,0.225-0.649,0.55-0.649,1.08v1.914h1.143v-3.182
			C20.389,20.879,20.213,20.935,20.074,21.01z"/><path style="fill:#FFACA6" d="M25.664,22.09c0-0.541-0.239-0.869-0.674-1.094c-0.133-0.069-0.3-0.122-0.469-0.174v3.27
			l0.018,0.006l0.015,0.005l0.083,0.03l0.042,0.016l0.014,0.006l0.064,0.027l0.057,0.026l0.015,0.008
			c0.041,0.02,0.081,0.041,0.149,0.08c0.045,0.026,0.09,0.055,0.148,0.094c0.111,0.077,0.211,0.163,0.301,0.255
			c0.09,0.09,0.167,0.188,0.236,0.29c0,0,0,0,0,0V22.09z"/><path style="fill:#FFACA6" d="M21.698,20.54c0.186,0.275,0.489,0.454,0.847,0.454c-0.06,0-0.116-0.012-0.173-0.022
			c-0.005-0.001-0.01-0.002-0.015-0.003c0.005,0.001,0.01,0.002,0.015,0.003c0.057,0.01,0.113,0.022,0.173,0.022
			c0.358,0,0.661-0.179,0.847-0.454l0.985,0.227c0,0,0,0,0.001,0c0,0,0,0-0.001,0l-0.984-0.228c0,0-0.001,0.001-0.001,0.001v-0.01v0
			v-0.024v0v-0.059l-0.01-0.155l-0.026-0.367c0.082-0.05,0.159-0.108,0.233-0.172c0.006-0.005,0.01-0.012,0.016-0.017
			c0.168-0.147,0.308-0.329,0.417-0.536c0.003-0.006,0.007-0.01,0.01-0.016c0.037-0.072,0.075-0.143,0.104-0.22c0,0,0,0,0,0
			c0,0,0,0,0,0c0.026,0.015,0.058,0.021,0.088,0.026c0.01,0.002,0.018,0.008,0.027,0.008c0.003,0,0.005,0.002,0.007,0.002
			c0,0,0.001,0,0.001,0c0,0,0,0,0,0c0.067,0,0.125-0.036,0.179-0.083c0.003-0.003,0.008-0.002,0.012-0.005
			c0.101-0.092,0.171-0.246,0.171-0.429v0c0-0.15-0.048-0.282-0.121-0.376c-0.063-0.082-0.145-0.135-0.236-0.135
			c-0.001-0.07-0.002-0.151-0.003-0.234c-0.464-0.134-1.425-0.422-1.994-0.721c-0.666-0.35-1.148-0.069-1.433,0.067l-0.008,0.008
			c0,0.059,0.001,0.138,0.002,0.222c0,0.001,0,0.002,0,0.003c0.001,0.153,0.002,0.33,0.003,0.49c0,0.056,0,0.111,0,0.16v0
			c-0.101,0-0.191,0.058-0.257,0.152c-0.033,0.047-0.059,0.103-0.077,0.164s-0.028,0.13-0.028,0.201v0
			c0,0.175,0.064,0.322,0.158,0.416c0.002,0.002,0.003,0.002,0.005,0.004C20.691,18.959,20.757,19,20.832,19c0,0,0,0,0,0
			c0.001,0,0.003-0.001,0.004-0.001c0.045-0.001,0.091-0.015,0.131-0.04c0.033,0.089,0.073,0.173,0.117,0.255
			c0.003,0.006,0.005,0.013,0.009,0.019c0.001,0.003,0.003,0.005,0.004,0.008c0.001,0.003,0.003,0.006,0.004,0.009
			c0.002,0.003,0.004,0.006,0.006,0.01c0.005,0.007,0.009,0.013,0.013,0.02c0.153,0.261,0.359,0.478,0.601,0.631l-0.026,0.615
			l-0.001,0.015v0l-0.982,0.228c0,0,0,0-0.001,0c0,0,0,0,0.001,0L21.698,20.54z"/><polygon style="fill:#FFACA6" points="27.41,21.493 27.41,21.497 27.41,21.499 27.41,21.505 27.411,21.505 		"/><path style="fill:#000D6E" d="M27.119,19.613l0.255-0.131l0,0l0.036-0.57l-0.001-0.041c-0.452-0.328-0.792-0.886-0.929-1.554
			c-0.024,0.006-0.048,0.011-0.073,0.011c-0.056,0-0.109-0.016-0.157-0.046c-0.145-0.088-0.247-0.295-0.247-0.535
			c0,0,0-0.001,0-0.001c0-0.051,0.006-0.1,0.015-0.147c0.002-0.008,0.003-0.016,0.005-0.024c0.002-0.007,0.005-0.013,0.007-0.019
			c0.056-0.225,0.201-0.389,0.377-0.389c0,0,0.001,0,0.001,0c-0.003-0.405-0.007-0.933-0.008-1.099c0-0.009,0.001-0.053,0.003-0.102
			c0.003-0.049,0.007-0.103,0.013-0.132c0.266-0.128,0.678-0.347,1.225-0.211c0.014,0.003,0.028,0.006,0.043,0.01c0,0,0,0,0,0
			c0.108,0.03,0.219,0.07,0.338,0.132c0.149,0.078,0.313,0.163,0.482,0.248c0.261,0.133,0.534,0.269,0.786,0.394
			c0.252,0.125,0.483,0.238,0.659,0.323c0.065,0.032,0.117,0.057,0.165,0.08c0.071,0.035,0.129,0.062,0.154,0.075
			c0,0.019,0,0.077,0.001,0.136c0,0.059,0.001,0.12,0.001,0.145c0.025,0,0.046,0.015,0.07,0.021
			c0.005-0.004,0.009-0.008,0.014-0.007c0.014,0.005,0.026,0.016,0.04,0.023c0.02,0.009,0.038,0.019,0.056,0.033c0,0,0,0,0,0
			c0.007,0.005,0.015,0.007,0.021,0.012c0.004,0.003,0.008,0.006,0.012,0.01c0.014,0.013,0.025,0.032,0.038,0.048c0,0,0,0,0,0
			c0.015,0.018,0.029,0.033,0.042,0.053c0,0,0,0,0,0c0.003,0.004,0.006,0.006,0.008,0.01c0.005,0.008,0.009,0.015,0.013,0.023
			c0.013,0.025,0.022,0.054,0.032,0.081c0,0,0,0,0,0c0.008,0.02,0.018,0.038,0.024,0.06c0,0,0,0,0,0
			c0.001,0.002,0.002,0.004,0.002,0.006c0.002,0.008,0.003,0.017,0.005,0.025c0.013,0.057,0.022,0.118,0.022,0.181
			c0,0.08-0.011,0.157-0.032,0.226c-0.061,0.208-0.205,0.355-0.372,0.355c-0.021,0-0.041-0.004-0.061-0.009
			c-0.053,0.256-0.136,0.496-0.243,0.713c-0.107,0.217-0.24,0.411-0.391,0.576c-0.101,0.109-0.211,0.206-0.328,0.287l0.037,0.589
			l0.252,0.13l0.199,0.102c0.015,0.008,0.031,0.015,0.046,0.023l0.252,0.129l0.388,0.197l1.184,0.597
			c0.401-0.271,0.593-0.584,0.421-0.866c-0.288-0.471-0.407-1.45-0.587-2.415c-0.15-1.173-0.529-2.247-0.672-2.787
			c-0.217-0.822-0.854-1.798-2.409-1.851c-1.149,0-2.101,0.778-2.293,1.573c-0.283,0.773-0.997,3.157,0.101,5.071
			c0.113,0.198,0.252,0.365,0.407,0.51l0.056-0.028L27.119,19.613z"/><polygon style="fill:#000D6E" points="27.374,19.487 27.374,19.489 27.374,19.489 		"/><path style="fill:#FFACA6" d="M29.237,21.491c0-0.004,0.001-0.008,0.001-0.012c0.005-0.052,0.01-0.103,0.014-0.153
			c0.003-0.035,0.006-0.069,0.01-0.104c0.005-0.061,0.009-0.12,0.013-0.178c0.001-0.015,0.002-0.029,0.003-0.044
			c0.003-0.063,0.006-0.125,0.009-0.188c0.002-0.026,0.003-0.053,0.004-0.079c0.009-0.15,0.009-0.302,0.014-0.452
			c0.004-0.126,0.003-0.253-0.002-0.379c-0.002-0.053-0.004-0.104-0.007-0.146c0-0.022-0.001-0.038-0.002-0.057
			c-0.001-0.03-0.003-0.044-0.005-0.067c-0.001-0.022-0.003-0.043-0.005-0.066c-0.001-0.016-0.002-0.031-0.003-0.048
			c0-0.002-0.001-0.005-0.001-0.007c-0.001-0.005-0.002-0.012-0.003-0.016v0c0-0.001-0.001-0.004-0.001-0.005c0,0,0-0.002,0-0.002
			c0-0.001,0-0.001,0-0.002c0-0.003-0.001-0.006-0.001-0.006l0.001,0l0,0l0.002,0.001l-0.037-0.589
			c0.117-0.081,0.227-0.177,0.328-0.287c0.152-0.164,0.284-0.358,0.391-0.576c0.107-0.217,0.19-0.457,0.243-0.713h0
			c0.02,0.004,0.04,0.009,0.061,0.009c0.167,0,0.311-0.146,0.372-0.355c0.02-0.069,0.032-0.146,0.032-0.226
			c0-0.075-0.012-0.146-0.03-0.212c-0.006-0.022-0.016-0.039-0.024-0.06c-0.016-0.041-0.032-0.081-0.054-0.115
			c-0.013-0.02-0.028-0.036-0.042-0.053c-0.022-0.027-0.046-0.051-0.072-0.07c0,0,0,0,0,0c-0.018-0.013-0.036-0.023-0.056-0.033
			c-0.039-0.019-0.08-0.037-0.123-0.037c0-0.025,0-0.086-0.001-0.145c-0.001-0.059-0.001-0.117-0.001-0.136
			c-0.042-0.021-0.158-0.076-0.319-0.155c-0.176-0.086-0.407-0.199-0.659-0.323c-0.252-0.125-0.525-0.261-0.786-0.394
			c-0.169-0.086-0.333-0.17-0.482-0.248c-0.119-0.062-0.23-0.102-0.338-0.132c-0.015-0.004-0.029-0.007-0.043-0.01
			c-0.547-0.136-0.959,0.083-1.225,0.211c-0.006,0.03-0.01,0.084-0.013,0.132c-0.003,0.049-0.004,0.093-0.003,0.102
			c0.001,0.165,0.005,0.694,0.008,1.099c-0.001,0-0.001,0-0.001,0c-0.176,0-0.322,0.163-0.377,0.389
			c-0.015,0.06-0.027,0.123-0.027,0.191c0,0,0,0.001,0,0.001c0,0.241,0.102,0.447,0.247,0.535c0.048,0.029,0.102,0.046,0.157,0.046
			c0.025,0,0.049-0.004,0.073-0.011v0c0.137,0.668,0.477,1.226,0.929,1.554l0.001,0.041l-0.036,0.57l0.001,0
			c0,0-0.001,0.003-0.001,0.006l0,0.002l0.001-0.001c0,0-0.002,0.008-0.002,0.01l0,0.004c0,0,0,0-0.001,0v0
			c0,0.001-0.001,0.007-0.001,0.009H27.37c-0.001,0.003,0,0.003-0.002,0.01c-0.005,0.033-0.01,0.098-0.012,0.177
			c0,0.02-0.002,0.035-0.002,0.057c-0.003,0.046-0.005,0.102-0.007,0.161c-0.001,0.016-0.001,0.032-0.002,0.049
			c-0.001,0.039-0.001,0.084-0.002,0.129c-0.001,0.08,0,0.169,0.001,0.266c0,0.026,0,0.049,0.001,0.077
			c0.003,0.101,0.007,0.21,0.013,0.327c0.001,0.016,0.001,0.029,0.002,0.045c0.003,0.074,0.008,0.154,0.014,0.234
			c0.004,0.064,0.009,0.131,0.015,0.199c0.006,0.076,0.013,0.151,0.019,0.234c0,0,0,0.001,0,0.001v0.006
			c0.223,0.259,0.549,0.427,0.917,0.427C28.692,21.911,29.014,21.746,29.237,21.491z"/><path style="fill:#D9304C" d="M24.988,20.995c0,0,0.001,0,0.001,0.001c0.435,0.225,0.674,0.553,0.674,1.094v0v2.845l0,0
			c0.081,0.119,0.148,0.244,0.199,0.376c0.002,0.004,0.004,0.007,0.005,0.011c0.051,0.134,0.088,0.272,0.106,0.415l1.664-0.399
			c-0.068-1.176-0.129-2.949-0.165-3.258c-0.005-0.04-0.01-0.083-0.015-0.121c0-0.003,0-0.005-0.001-0.007
			c-0.018-0.156-0.033-0.305-0.046-0.446c0-0.002,0-0.004-0.001-0.005v-0.002v-0.004v-0.007v-0.001v-0.006c0,0,0-0.001,0-0.001
			c-0.007-0.082-0.013-0.157-0.019-0.234c-0.006-0.068-0.01-0.135-0.015-0.199c-0.006-0.08-0.012-0.16-0.014-0.234
			c-0.001-0.016-0.001-0.029-0.002-0.045c-0.006-0.117-0.011-0.227-0.013-0.327c-0.001-0.027-0.001-0.051-0.001-0.077
			c-0.002-0.097-0.002-0.186-0.001-0.266c0-0.044,0.001-0.089,0.002-0.129c0-0.017,0.001-0.033,0.002-0.049
			c0.002-0.059,0.004-0.115,0.007-0.161c0-0.022,0.001-0.038,0.002-0.057c0.002-0.079,0.007-0.144,0.012-0.177
			c0.002-0.007,0.001-0.007,0.002-0.01c0.001-0.005,0.002-0.012,0.003-0.016v0c0-0.001,0.001-0.004,0.001-0.005c0,0,0-0.002,0-0.002
			c0-0.001,0-0.001,0-0.002c0-0.003,0.001-0.006,0.001-0.006l-0.001,0l0,0l-0.255,0.131l-0.495,0.254l-0.056,0.028l-1.578,0.796
			l-0.001,0.001V20.995z"/><path style="fill:#D9304C" d="M30.029,19.867l-0.252-0.129c-0.015-0.008-0.031-0.015-0.046-0.023l-0.199-0.102l-0.252-0.13h0
			l-0.002-0.001l0,0l-0.001,0c0,0,0.001,0.003,0.001,0.006c0,0.001,0,0.001,0,0.002c0,0.001,0,0.002,0,0.002
			c0,0.001,0.001,0.004,0.001,0.005v0c0,0.004,0.002,0.011,0.003,0.016c0,0.002,0.001,0.005,0.001,0.007
			c0.001,0.017,0.002,0.032,0.003,0.048c0.001,0.02,0.003,0.039,0.004,0.059c0,0.003,0,0.005,0,0.007
			c0.002,0.022,0.004,0.037,0.005,0.067c0,0.02,0.002,0.035,0.002,0.057c0.003,0.042,0.005,0.093,0.007,0.146
			c0.005,0.126,0.007,0.252,0.002,0.379c-0.005,0.15-0.005,0.302-0.014,0.452c-0.001,0.026-0.003,0.053-0.004,0.079
			c-0.003,0.063-0.006,0.125-0.009,0.188c-0.001,0.015-0.002,0.029-0.003,0.044c-0.004,0.057-0.008,0.117-0.013,0.178
			c-0.004,0.034-0.007,0.069-0.01,0.104c-0.004,0.049-0.009,0.101-0.014,0.153c0,0.004-0.001,0.008-0.001,0.012
			c-0.007,0.074-0.01,0.141-0.021,0.221c-0.009,0.104-0.024,0.222-0.036,0.334c0,0.003,0.002,0.005,0.001,0.009
			c-0.001,0.008-0.002,0.016-0.003,0.024c-0.034,0.281-0.087,1.77-0.147,2.923l3.913-0.939l0.063-0.015l0.064-0.007l0.003,0
			l-0.099-2.081c-0.048-0.406-0.296-0.758-0.661-0.937l-0.652-0.329v-0.003l-0.001-0.001L31.6,20.661l-1.184-0.597L30.029,19.867z"/><path style="fill:#D9304C" d="M24.521,20.821v-0.012c-0.048-0.014-0.096-0.027-0.144-0.041c0,0,0,0-0.001,0l-0.985-0.227
			c-0.186,0.275-0.489,0.454-0.847,0.454c-0.358,0-0.661-0.179-0.847-0.454l-0.985,0.227c0,0,0,0-0.001,0
			c-0.048,0.014-0.096,0.027-0.144,0.041v0.013v3.182h3.425c0.09,0,0.198,0.009,0.324,0.034c0.043,0.009,0.088,0.02,0.11,0.026
			l0.051,0.014l0.014,0.004l0.029,0.009V20.821z"/></g><g><path style="fill:#D9304C" d="M34.947,26.225c-0.133-0.708-0.751-1.22-1.471-1.22l-0.298,0.032l-7.188,1.725v0.24
			c0,1.286-1.18,1.996-1.996,1.996h-8.984c-0.276,0-0.499-0.223-0.499-0.499c0-0.276,0.223-0.499,0.499-0.499h8.984
			c0.284,0,0.998-0.297,0.998-0.998v0l-0.001,0c0-0.009,0.001-0.017,0.001-0.026v-0.973c0,0,0,0,0,0
			c0-0.022-0.001-0.043-0.002-0.064c0-0.003-0.001-0.007-0.001-0.01c-0.025-0.333-0.214-0.567-0.43-0.717
			c-0.003-0.002-0.005-0.004-0.008-0.005c-0.025-0.017-0.05-0.033-0.075-0.047c-0.005-0.003-0.01-0.006-0.015-0.008
			c-0.023-0.013-0.046-0.025-0.068-0.036c-0.002-0.001-0.004-0.002-0.006-0.003c-0.012-0.006-0.023-0.011-0.035-0.016
			c-0.012-0.005-0.023-0.01-0.035-0.015c-0.002-0.001-0.004-0.002-0.006-0.003c-0.009-0.004-0.018-0.007-0.027-0.01
			c-0.005-0.002-0.009-0.004-0.014-0.005c-0.01-0.003-0.019-0.007-0.028-0.01c-0.004-0.001-0.008-0.003-0.011-0.004
			c-0.009-0.003-0.017-0.005-0.026-0.008c-0.004-0.001-0.008-0.003-0.013-0.004c-0.003-0.001-0.005-0.001-0.008-0.002
			c-0.023-0.006-0.045-0.012-0.066-0.016c-0.001,0-0.003,0-0.004-0.001c-0.045-0.009-0.086-0.013-0.121-0.013h-4.991h-0.024
			c0,0,0,0-0.001,0c-0.521-0.01-1.006-0.341-1.566-0.724c-0.031-0.021-0.062-0.042-0.093-0.063c-0.008-0.005-0.015-0.01-0.023-0.015
			c-0.027-0.019-0.055-0.038-0.083-0.056c-0.006-0.004-0.013-0.008-0.019-0.013c-0.069-0.047-0.139-0.094-0.211-0.141
			c-0.003-0.002-0.007-0.004-0.01-0.007c-0.035-0.023-0.07-0.045-0.105-0.068c-0.002-0.001-0.004-0.002-0.005-0.003
			c-0.077-0.049-0.155-0.097-0.236-0.145c0,0,0,0-0.001,0c-0.365-0.216-0.772-0.417-1.236-0.558
			c-0.563-0.132-1.132-0.203-1.689-0.203c-1.58,0-2.676,0-3.408,0c-0.096,0-0.185,0-0.268,0c-0.554,0-1.004,0.449-1.004,1.004v0.993
			v2.995h0.005c-0.003,0.037-0.005,0.075-0.005,0.112c0,0,0,1.674,0,1.884c0,0-0.001,0.642,0.997,0.998
			c0.998,0.357,6.468,2.612,6.602,2.666c0.541,0.221,1.116,0.333,1.695,0.333c0.507,0,1.016-0.086,1.506-0.26
			c0.015-0.005,14.201-5.836,14.201-5.836C34.691,27.635,35.08,26.932,34.947,26.225z"/></g><path style="fill:#FFACA6" d="M6.938,23.008H5.027v7.986h1.912c0.598,0,1.083-0.485,1.083-1.083v-5.82
		C8.021,23.493,7.536,23.008,6.938,23.008z"/></g><g id="Guides" style="display:none"/><g id="Grid" style="display:none"><g style="display:inline"><g/><g/><g/><g/><g/><g/><g/><g/><g/><g/><g/><g/><g/><g/><g/><g/><g/><g/><g/><g/><g/><g/><g/><g/><g/><g/><g/><g/><g/><g/><g/><g/><g/><g/><g/><g/><g/><g/><g/><g/></g></g></svg>