<?xml version="1.0" encoding="iso-8859-1"?><!--Generator: Adobe Illustrator 26.2.1, SVG Export Plug-In . SVG Version: 6.00 Build 0)--><svg version="1.1" xmlns="http://www.w3.org/2000/svg" xmlns:xlink="http://www.w3.org/1999/xlink" x="0px" y="0px" viewBox="0 0 40 40" style="enable-background:new 0 0 40 40" xml:space="preserve" focusable="false" aria-hidden="true"><g id="Solid"><rect style="fill:none" width="40" height="40"/></g><g id="Icon_Green"><path style="fill:#000D6E" d="M18.523,32.722c-0.08-0.62-0.46-1.16-1.02-1.44l-4.6-2.33l-0.07-0.03h-0.001l0.005-0.938h-0.012
		c0.738-0.502,1.293-1.369,1.516-2.406c0.041,0.011,0.084,0.018,0.127,0.018c0.359,0,0.649-0.4,0.649-0.893
		c0-0.406-0.199-0.745-0.469-0.853v-1.959c0-1.328-1.31-2.785-3.237-2.808c-1.927,0.023-3.237,1.48-3.237,2.808v1.959
		c-0.27,0.108-0.469,0.447-0.469,0.853c0,0.493,0.291,0.893,0.649,0.893c0.044,0,0.086-0.006,0.127-0.018
		c0.223,1.037,0.777,1.904,1.516,2.406H9.986l0.005,0.938H9.99l-0.07,0.03l-4.6,2.33c-0.56,0.28-0.94,0.82-1.02,1.44L4.01,35h14.803
		L18.523,32.722z"/><path style="fill:#94E3D4" d="M25.04,35v-2.423c0-0.785-0.347-1.262-0.979-1.589c-0.253-0.131-0.548-0.24-0.891-0.331
		l-1.429-0.332c0,0-0.001,0.001-0.001,0.001c-0.27,0.399-0.711,0.66-1.23,0.66c-0.087,0-0.169-0.018-0.251-0.032
		c-0.049-0.008-0.099-0.012-0.146-0.025c-0.095-0.026-0.184-0.064-0.27-0.107c-0.024-0.012-0.047-0.023-0.07-0.037
		c-0.196-0.114-0.366-0.271-0.495-0.461l-0.002,0l-1.426,0.331c-0.36,0.096-0.667,0.212-0.927,0.352
		c-0.608,0.326-0.943,0.799-0.943,1.568V35H25.04z"/><polygon style="fill:none" points="27.522,28.814 27.521,28.822 27.522,28.821 	"/><path style="fill:none" d="M30.236,27.937l0.054,0.867l-0.001,0c0,0,0.001,0.006,0.001,0.008l0.001,0.009c0,0,0,0,0.001,0.001
		c0,0.003,0.001,0.004,0.001,0.009c0.004,0.035,0.015,0.155,0.028,0.348c0.017,0.31,0.024,0.83-0.012,1.556
		c0.04-0.72,0.033-1.24,0.016-1.554c0-0.09-0.01-0.17-0.02-0.23c0-0.05,0-0.09-0.01-0.12c0-0.016,0-0.021,0-0.024l-0.004-0.002
		L30.236,27.937z"/><path style="fill:none" d="M31.728,23.976c0.064,0.001,0.122,0.026,0.179,0.054c-0.02-0.01-0.037-0.027-0.058-0.034
		c-0.007-0.002-0.013,0.005-0.02,0.01C31.795,23.997,31.764,23.977,31.728,23.976c0-0.073-0.003-0.352-0.003-0.408
		c-0.037-0.018-0.12-0.058-0.224-0.109c-0.07-0.034-0.145-0.07-0.24-0.116c0.235,0.114,0.402,0.195,0.464,0.225
		C31.725,23.624,31.728,23.904,31.728,23.976z"/><path style="fill:none" d="M32.278,24.556c-0.003-0.012-0.005-0.024-0.008-0.036c-0.001-0.003-0.002-0.005-0.003-0.008
		c0,0,0,0,0,0c0.026,0.096,0.043,0.198,0.043,0.308C32.31,24.726,32.297,24.639,32.278,24.556z"/><path style="fill:none" d="M31.723,25.662c0.243,0,0.452-0.212,0.541-0.515C32.175,25.45,31.966,25.662,31.723,25.662z"/><path style="fill:none" d="M30.713,27.521c0.441-0.477,0.768-1.128,0.921-1.872h0C31.48,26.393,31.154,27.044,30.713,27.521z"/><path style="fill:none" d="M32.232,24.424c-0.015-0.04-0.027-0.082-0.047-0.118c-0.006-0.011-0.012-0.022-0.019-0.033
		c-0.003-0.006-0.008-0.009-0.012-0.015c0,0,0,0,0,0C32.186,24.307,32.21,24.365,32.232,24.424
		C32.233,24.424,32.232,24.424,32.232,24.424z"/><path style="fill:none" d="M30.305,22.873c0.366,0.181,0.701,0.345,0.957,0.47C31.006,23.218,30.671,23.054,30.305,22.873z"/><path style="fill:none" d="M27.575,31.73c0.019,0.206,0.042,0.426,0.068,0.655c-0.026-0.231-0.047-0.449-0.066-0.657
		c-0.001-0.001-0.001-0.001-0.002-0.002V31.73z"/><path style="fill:none" d="M27.644,32.396c0.006,0.056,0.015,0.118,0.022,0.176C27.659,32.515,27.65,32.451,27.644,32.396z"/><path style="fill:none" d="M27.546,31.359c-0.007-0.097-0.015-0.197-0.021-0.289C27.532,31.163,27.538,31.26,27.546,31.359z"/><path style="fill:none" d="M30.153,32.525c-0.043,0.375-0.098,0.784-0.163,1.22C30.061,33.303,30.113,32.901,30.153,32.525z"/><path style="fill:none" d="M27.502,30.664c-0.008-0.166-0.016-0.333-0.019-0.475C27.486,30.335,27.493,30.494,27.502,30.664z"/><path style="fill:none" d="M30.285,31.19c0.01-0.02,0.01-0.04,0-0.06c0.003-0.041,0.004-0.074,0.007-0.114
		c-0.009,0.145-0.021,0.302-0.034,0.462C30.265,31.385,30.281,31.278,30.285,31.19z"/><path style="fill:none" d="M25.561,24.568c-0.003,0.012-0.005,0.023-0.008,0.035c-0.013,0.069-0.021,0.14-0.022,0.214
		c0-0.098,0.017-0.19,0.039-0.278C25.568,24.55,25.563,24.558,25.561,24.568z"/><path style="fill:none" d="M27.481,30.078c-0.002-0.141-0.003-0.27-0.002-0.387C27.478,29.808,27.478,29.937,27.481,30.078z"/><path style="fill:none" d="M27.973,21.749c-0.021-0.006-0.042-0.01-0.062-0.015C27.931,21.739,27.952,21.743,27.973,21.749
		C27.973,21.749,27.973,21.749,27.973,21.749z"/><path style="fill:none" d="M29.163,22.301c0.379,0.193,0.776,0.391,1.142,0.572C29.939,22.692,29.542,22.494,29.163,22.301z"/><path style="fill:none" d="M32.093,24.18c-0.019-0.023-0.034-0.05-0.055-0.07c-0.006-0.005-0.012-0.009-0.018-0.014
		c-0.01-0.008-0.021-0.011-0.031-0.018c0,0,0,0,0,0C32.027,24.106,32.061,24.141,32.093,24.18
		C32.093,24.18,32.093,24.18,32.093,24.18z"/><path style="fill:none" d="M27.482,29.505c0.001-0.026,0.002-0.047,0.002-0.071C27.483,29.457,27.482,29.48,27.482,29.505z"/><path style="fill:none" d="M27.515,28.86c-0.008,0.048-0.015,0.142-0.018,0.257c0.011-0.159,0.021-0.27,0.024-0.295
		C27.52,28.831,27.521,28.834,27.515,28.86z"/><path style="fill:none" d="M26.118,25.662c0.036,0,0.072-0.006,0.106-0.015v0C26.19,25.656,26.155,25.662,26.118,25.662z"/><path style="fill:#FFACA6" d="M27.576,31.729c-0.001-0.006-0.001-0.012-0.002-0.018v0.016
		C27.575,31.728,27.576,31.728,27.576,31.729z"/><path style="fill:#94E3D4" d="M24.409,8.103c1.739,3.883,2.088,6.896,2.088,6.897h7.017c0-7.18-6.051-13-13.514-13
		C20.001,2.001,22.79,4.486,24.409,8.103z"/><path style="fill:#94E3D4" d="M15.591,8.103C17.21,4.486,19.998,2.002,20,2C12.536,2,6.486,7.82,6.486,15h7.017
		C13.502,14.999,13.852,11.985,15.591,8.103z"/><path style="fill:#1B5951" d="M15.591,8.103c-1.738,3.883-2.088,6.896-2.088,6.897v0H20h6.498v0c0-0.001-0.35-3.015-2.088-6.897
		C22.79,4.486,20.001,2.001,20,2l0,0l0,0C19.998,2.002,17.21,4.486,15.591,8.103z"/><path style="fill:none" d="M23.004,28.091c0.103,0,0.194-0.054,0.275-0.128c-0.081,0.074-0.172,0.128-0.277,0.128
		C23.002,28.09,23.003,28.091,23.004,28.091z"/><path style="fill:none" d="M22.671,28.358c-0.167,0.32-0.384,0.602-0.644,0.827C22.288,28.961,22.505,28.679,22.671,28.358z"/><path style="fill:none" d="M19.843,30.823c-0.024-0.012-0.047-0.024-0.07-0.037C19.796,30.8,19.819,30.811,19.843,30.823z"/><path style="fill:none" d="M23.352,26.792c-0.091-0.119-0.209-0.197-0.342-0.199c-0.001-0.1-0.002-0.216-0.003-0.337
		c-0.001,0-0.001,0-0.002-0.001c0.001,0.121,0.003,0.239,0.004,0.34C23.142,26.596,23.26,26.674,23.352,26.792z"/><path style="fill:none" d="M20.259,30.956c-0.049-0.008-0.099-0.012-0.146-0.025C20.16,30.944,20.21,30.947,20.259,30.956z"/><path style="fill:none" d="M22.821,28.038c0.053,0.029,0.109,0.046,0.168,0.049C22.933,28.084,22.871,28.066,22.821,28.038
		C22.821,28.038,22.821,28.038,22.821,28.038z"/><path style="fill:none" d="M18.024,28.09c-0.11,0-0.206-0.059-0.289-0.141c0.083,0.082,0.178,0.142,0.287,0.142
		c0.07,0,0.137-0.021,0.198-0.057c0.051,0.138,0.113,0.269,0.182,0.395c-0.069-0.126-0.132-0.258-0.183-0.398
		C18.159,28.067,18.091,28.09,18.024,28.09z"/><path style="fill:none" d="M18.02,25.639c-0.001-0.122-0.002-0.236-0.002-0.322l-0.003,0.003c0.001,0.086,0.002,0.199,0.003,0.319
		c0,0.002,0,0.005,0,0.007c0.002,0.222,0.004,0.478,0.006,0.71c-0.001-0.233-0.002-0.49-0.004-0.712
		C18.02,25.642,18.02,25.641,18.02,25.639z"/><path style="fill:#94E3D4" d="M21.74,30.278v-0.085l-0.015-0.225l-0.038-0.533c0.119-0.073,0.232-0.157,0.339-0.25
		c0.261-0.224,0.477-0.506,0.644-0.827c0.054-0.104,0.108-0.208,0.151-0.32c0,0,0,0,0,0c0.049,0.028,0.111,0.046,0.168,0.049
		c0.004,0,0.007,0.003,0.011,0.003c0,0,0.001,0,0.001,0c0.104,0,0.195-0.054,0.277-0.128c0.147-0.134,0.249-0.357,0.249-0.623
		c0-0.217-0.07-0.41-0.176-0.547c-0.092-0.118-0.21-0.197-0.342-0.197c-0.001-0.101-0.003-0.219-0.004-0.34
		c-0.674-0.195-2.07-0.613-2.896-1.048c-0.968-0.508-1.667-0.101-2.081,0.097l-0.011,0.011c0.001,0.086,0.001,0.2,0.002,0.322
		c0,0.002,0,0.003,0,0.005c0.001,0.222,0.003,0.479,0.004,0.712c0,0.082,0,0.161,0,0.232c-0.146,0-0.278,0.085-0.373,0.221
		c-0.095,0.136-0.153,0.324-0.153,0.53c0,0.254,0.094,0.468,0.229,0.604c0.002,0.002,0.005,0.003,0.007,0.006
		c0.083,0.082,0.179,0.141,0.289,0.141c0.068,0,0.135-0.023,0.195-0.06c0.051,0.14,0.114,0.272,0.183,0.398
		c0.004,0.008,0.007,0.017,0.012,0.025c0.009,0.015,0.02,0.028,0.029,0.043c0.222,0.379,0.521,0.694,0.873,0.916l-0.038,0.893
		l-0.001,0.021l0.002,0c0.129,0.19,0.298,0.347,0.495,0.461c0.023,0.013,0.046,0.025,0.07,0.037c0.086,0.044,0.175,0.081,0.27,0.107
		c0.047,0.013,0.097,0.017,0.146,0.025c0.082,0.014,0.164,0.032,0.251,0.032c0.519,0,0.96-0.261,1.23-0.66v-0.015V30.278z"/><g><path style="fill:#1B5951" d="M20.5,22.669V16h-1v6.859c0.299-0.104,0.616-0.177,0.955-0.186
			C20.47,22.673,20.485,22.671,20.5,22.669z"/><path style="fill:#000D6E" d="M24.036,26.437C24.036,26.437,24.036,26.437,24.036,26.437c-0.029-0.427-0.108-0.832-0.24-1.205
			c-0.014-0.04-0.032-0.075-0.047-0.114c-0.056-0.144-0.111-0.288-0.18-0.421c-0.091-0.177-0.192-0.344-0.304-0.498
			c-0.013-0.025-0.031-0.049-0.047-0.073c-0.018-0.028-0.035-0.056-0.053-0.083c-0.486-0.757-1.475-1.378-2.627-1.378
			c-0.013,0-0.025,0.002-0.038,0.004c-0.015,0.002-0.029,0.004-0.045,0.005c-0.339,0.009-0.656,0.081-0.955,0.186
			c-0.049,0.017-0.101,0.026-0.149,0.046c-0.441,0.177-0.829,0.433-1.125,0.743c-0.171,0.145-0.326,0.316-0.469,0.502
			c-0.011,0.014-0.023,0.027-0.033,0.041c-0.139,0.187-0.26,0.395-0.367,0.617c-0.007,0.015-0.015,0.029-0.022,0.044
			c-0.089,0.19-0.155,0.398-0.216,0.609c-0.012,0.043-0.032,0.08-0.044,0.123c-0.002,0.008-0.004,0.015-0.006,0.023
			c-0.034,0.133-0.044,0.278-0.066,0.417c-0.022,0.138-0.056,0.271-0.065,0.415c0,0,0,0,0,0c-0.007,0.107-0.016,0.213-0.016,0.322
			v1.179v3.071c0.261-0.14,0.567-0.256,0.927-0.352l1.426-0.331l0.001,0l0-0.021l0.038-0.893c-0.352-0.222-0.65-0.536-0.873-0.916
			c-0.009-0.015-0.02-0.028-0.029-0.043c-0.004-0.008-0.007-0.017-0.012-0.025c-0.069-0.125-0.131-0.256-0.182-0.395
			c-0.061,0.036-0.128,0.057-0.198,0.057c-0.109,0-0.204-0.059-0.287-0.142c-0.002-0.002-0.005-0.003-0.007-0.006
			c-0.136-0.136-0.229-0.35-0.229-0.604c0-0.206,0.058-0.394,0.153-0.53c0.095-0.136,0.226-0.221,0.373-0.221
			c0-0.071,0-0.15,0-0.232c-0.002-0.232-0.004-0.488-0.006-0.71c0-0.002,0-0.005,0-0.007c-0.001-0.12-0.002-0.233-0.003-0.319
			l0.003-0.003l0.011-0.011c0.414-0.198,1.113-0.605,2.081-0.097c0.826,0.434,2.222,0.853,2.896,1.048c0.001,0,0.001,0,0.002,0.001
			c0.001,0.12,0.002,0.237,0.003,0.337c0.133,0.002,0.25,0.081,0.342,0.199c0.106,0.137,0.176,0.329,0.176,0.547
			c0,0.266-0.102,0.49-0.249,0.623c-0.081,0.074-0.172,0.128-0.275,0.128c-0.001,0-0.001-0.001-0.002-0.001c0,0-0.001,0-0.001,0
			c-0.004,0-0.007-0.003-0.011-0.003c-0.059-0.003-0.115-0.02-0.168-0.049c-0.042,0.112-0.096,0.216-0.151,0.32
			c-0.166,0.321-0.383,0.603-0.644,0.827c-0.107,0.092-0.22,0.177-0.339,0.25l0.038,0.533l0.015,0.225v0.085v0.035l0.001,0.013
			l1.429,0.332c0.343,0.091,0.638,0.201,0.891,0.331V26.76C24.061,26.649,24.044,26.545,24.036,26.437z"/></g><g><path style="fill:none" d="M27.522,28.804c0,0.001-0.001,0.005-0.001,0.007v0c0,0.006-0.003,0.016-0.004,0.023h0.003
			c0-0.003,0.001-0.012,0.001-0.013v0c0,0,0,0,0.001-0.001l0-0.006c0-0.002,0.002-0.014,0.002-0.014l-0.002,0.001l0,0
			C27.522,28.802,27.522,28.804,27.522,28.804z"/><path style="fill:none" d="M25.553,24.603c-0.013,0.069-0.021,0.14-0.022,0.214c0-0.098,0.017-0.19,0.039-0.278
			c-0.002,0.01-0.008,0.018-0.01,0.028C25.558,24.58,25.555,24.591,25.553,24.603z"/><polygon style="fill:none" points="27.524,28.79 27.575,27.963 27.524,28.79 		"/><path style="fill:none" d="M27.91,21.734c0.021,0.005,0.041,0.009,0.063,0.015c0,0,0,0,0,0
			C27.952,21.743,27.931,21.739,27.91,21.734z"/><path style="fill:none" d="M31.829,24.007c-0.034-0.009-0.065-0.03-0.101-0.03c0-0.073-0.003-0.352-0.003-0.408
			c-0.037-0.018-0.12-0.058-0.224-0.109c-0.07-0.034-0.145-0.07-0.24-0.116c0.235,0.114,0.402,0.195,0.464,0.225
			c0,0.056,0.003,0.336,0.003,0.408c0.064,0.001,0.122,0.026,0.179,0.054c-0.02-0.01-0.037-0.027-0.058-0.034
			C31.843,23.994,31.836,24.001,31.829,24.007z"/><path style="fill:none" d="M26.225,25.647c-0.035,0.009-0.07,0.015-0.106,0.015C26.155,25.662,26.19,25.656,26.225,25.647
			L26.225,25.647z"/><polygon style="fill:none" points="33.488,30.42 33.547,30.45 33.316,30.333 		"/><path style="fill:none" d="M31.634,25.649c-0.077,0.372-0.197,0.721-0.353,1.036C31.437,26.37,31.557,26.021,31.634,25.649
			L31.634,25.649z"/><path style="fill:none" d="M32.186,24.306c-0.006-0.011-0.012-0.022-0.019-0.033c-0.003-0.006-0.008-0.009-0.012-0.015
			c0,0,0,0,0,0c0.031,0.05,0.055,0.108,0.078,0.167c0,0,0,0,0-0.001C32.217,24.384,32.205,24.342,32.186,24.306z"/><path style="fill:none" d="M32.27,24.52c-0.001-0.003-0.002-0.005-0.003-0.008c0,0,0,0,0,0c0.026,0.096,0.043,0.198,0.043,0.308
			c0-0.093-0.013-0.18-0.032-0.263C32.275,24.544,32.273,24.531,32.27,24.52z"/><polygon style="fill:none" points="30.236,27.937 30.29,28.804 30.29,28.804 30.29,28.81 30.29,28.804 		"/><path style="fill:none" d="M32.038,24.11c-0.006-0.005-0.012-0.009-0.018-0.014c-0.01-0.008-0.021-0.011-0.031-0.018c0,0,0,0,0,0
			c0.038,0.028,0.072,0.063,0.105,0.102c0,0,0,0,0,0C32.074,24.157,32.059,24.129,32.038,24.11z"/><path style="fill:#000D6E" d="M27.153,28.981l0.37-0.19l0.001,0l0.052-0.828l-0.001-0.059c-0.657-0.476-1.15-1.287-1.349-2.256
			c-0.035,0.009-0.07,0.015-0.106,0.015c-0.081,0-0.158-0.024-0.228-0.066c-0.211-0.128-0.359-0.428-0.359-0.777
			c0-0.001,0-0.001,0-0.002c0-0.074,0.009-0.145,0.022-0.214c0.002-0.012,0.005-0.023,0.008-0.035
			c0.002-0.01,0.007-0.018,0.01-0.028c0.081-0.327,0.292-0.564,0.548-0.564c0.001,0,0.001,0,0.002,0
			c-0.004-0.588-0.01-1.356-0.012-1.596c-0.001-0.013,0.001-0.077,0.005-0.148c0.004-0.071,0.01-0.149,0.018-0.192
			c0.386-0.186,0.984-0.505,1.779-0.306c0.021,0.005,0.041,0.009,0.062,0.015c0,0,0,0,0,0c0.157,0.044,0.319,0.102,0.491,0.192
			c0.216,0.114,0.455,0.236,0.7,0.361c0.379,0.193,0.776,0.391,1.142,0.572c0.366,0.181,0.701,0.345,0.957,0.47
			c0.095,0.046,0.169,0.082,0.24,0.116c0.104,0.05,0.187,0.091,0.224,0.109c0,0.056,0.003,0.336,0.003,0.408
			c0.036,0,0.067,0.021,0.101,0.03c0.007-0.005,0.013-0.012,0.02-0.01c0.021,0.007,0.038,0.024,0.058,0.034
			c0.028,0.014,0.055,0.028,0.081,0.047c0,0,0,0,0,0c0.01,0.007,0.021,0.01,0.031,0.018c0.006,0.005,0.012,0.009,0.018,0.014
			c0.021,0.019,0.036,0.047,0.055,0.07c0,0,0,0,0,0c0.021,0.025,0.043,0.048,0.061,0.077c0,0,0,0,0,0
			c0.004,0.006,0.009,0.009,0.012,0.015c0.007,0.011,0.013,0.022,0.019,0.033c0.019,0.036,0.031,0.078,0.047,0.118c0,0,0,0,0,0.001
			c0.011,0.03,0.026,0.055,0.034,0.087c0,0,0,0,0,0c0.001,0.003,0.002,0.005,0.003,0.008c0.003,0.012,0.005,0.024,0.008,0.036
			c0.019,0.083,0.032,0.171,0.032,0.263c0,0.116-0.016,0.227-0.046,0.328c-0.089,0.303-0.298,0.515-0.541,0.515
			c-0.031,0-0.06-0.006-0.089-0.013c-0.077,0.372-0.197,0.721-0.353,1.036c-0.156,0.315-0.348,0.597-0.568,0.836
			c-0.147,0.159-0.307,0.299-0.477,0.416l0.054,0.867l0,0.006c0,0.001,0,0.002,0,0.002l0,0.007h0.001c0,0,0-0.001,0-0.001
			c0.001,0,0.002,0.001,0.003,0.001l0.008,0l0.001,0.003c0.016,0.005,0.035,0.011,0.052,0.018c0.224,0.094,0.441,0.211,0.657,0.322
			l0.365,0.188l1.939,0.983l0.231,0.117l0.101,0.05l0.01,0.005c0.584-0.395,0.865-0.849,0.614-1.26
			c-0.418-0.684-0.591-2.105-0.852-3.507c-0.217-1.703-0.769-3.263-0.975-4.047c-0.314-1.193-1.24-2.612-3.498-2.687
			c-1.668,0-3.051,1.13-3.33,2.284c-0.41,1.123-1.448,4.585,0.146,7.364c0.165,0.287,0.366,0.53,0.591,0.74l0.082-0.041
			L27.153,28.981z"/><polygon style="fill:#000D6E" points="27.523,28.801 27.523,28.798 27.523,28.801 		"/><polygon style="fill:#94E3D4" points="30.295,28.82 30.303,28.822 30.302,28.819 		"/><path style="fill:#94E3D4" d="M30.251,31.469c0.008-0.092,0.019-0.182,0.026-0.274c0.001-0.014,0.002-0.028,0.003-0.043
			c0.008-0.143,0.013-0.285,0.021-0.428c0.002-0.038,0.004-0.077,0.006-0.115c0.014-0.217,0.013-0.438,0.021-0.656
			c0.007-0.213,0.007-0.426-0.004-0.638c-0.002-0.038-0.012-0.278-0.032-0.495h-0.001l0-0.007c0,0,0-0.001,0-0.002
			c0-0.003-0.001-0.006-0.001-0.006l0.001,0l-0.054-0.867c0.17-0.118,0.33-0.257,0.477-0.416c0.22-0.239,0.412-0.52,0.568-0.836
			c0.156-0.315,0.276-0.664,0.353-1.036h0c0.029,0.006,0.059,0.013,0.089,0.013c0.243,0,0.452-0.212,0.541-0.515
			c0.03-0.101,0.046-0.212,0.046-0.328c0-0.109-0.017-0.212-0.043-0.308c-0.009-0.032-0.023-0.057-0.034-0.087
			c-0.023-0.06-0.047-0.117-0.078-0.167c-0.019-0.029-0.04-0.052-0.061-0.077c-0.032-0.039-0.067-0.074-0.105-0.102
			c-0.026-0.02-0.053-0.034-0.081-0.047c-0.057-0.028-0.116-0.053-0.179-0.054c0-0.073-0.003-0.352-0.003-0.408
			c-0.062-0.03-0.229-0.111-0.464-0.225c-0.256-0.125-0.591-0.289-0.957-0.47c-0.366-0.181-0.763-0.379-1.142-0.572
			c-0.245-0.125-0.483-0.247-0.7-0.361c-0.172-0.09-0.334-0.148-0.491-0.192c-0.021-0.006-0.042-0.01-0.063-0.015
			c-0.795-0.198-1.393,0.12-1.779,0.306c-0.008,0.043-0.015,0.121-0.018,0.192c-0.004,0.071-0.005,0.135-0.005,0.148
			c0.002,0.24,0.008,1.007,0.012,1.596c-0.001,0-0.001,0-0.002,0c-0.255,0-0.467,0.237-0.548,0.564
			c-0.022,0.088-0.039,0.179-0.039,0.278c0,0.001,0,0.001,0,0.002c0,0.349,0.148,0.649,0.359,0.777
			c0.07,0.043,0.147,0.066,0.228,0.066c0.036,0,0.072-0.006,0.106-0.015v0c0.199,0.97,0.693,1.781,1.349,2.256l0.001,0.059
			l-0.052,0.828l0.001,0c0,0-0.001,0.005-0.001,0.009l0,0.002l0.002-0.001c0,0-0.002,0.012-0.002,0.014l0,0.006c0,0,0,0-0.001,0.001
			v0c0,0.002-0.001,0.011-0.001,0.013h-0.003c-0.001,0.005,0,0.005-0.003,0.015c-0.008,0.048-0.015,0.142-0.018,0.257
			c-0.001,0.029-0.003,0.051-0.003,0.083c-0.004,0.067-0.008,0.148-0.011,0.233c-0.001,0.023-0.002,0.047-0.002,0.071
			c-0.002,0.057-0.002,0.122-0.003,0.187c-0.001,0.117,0,0.246,0.002,0.387c0.001,0.038,0.001,0.072,0.002,0.111
			c0.004,0.146,0.01,0.305,0.019,0.475c0.001,0.023,0.001,0.042,0.003,0.066c0.004,0.108,0.012,0.224,0.02,0.341
			c0.007,0.093,0.013,0.19,0.021,0.289c0.009,0.111,0.018,0.22,0.028,0.339c0,0.001,0,0.001,0,0.002v0.009
			c0.324,0.376,0.797,0.619,1.332,0.619c0.53,0,0.998-0.24,1.322-0.61c0.001-0.006,0.001-0.012,0.002-0.018
			C30.238,31.615,30.245,31.54,30.251,31.469z"/><path style="fill:#1B5951" d="M30.146,32.515c-0.04,0.376-0.092,0.778-0.163,1.22c-0.01,0.061-0.015,0.113-0.026,0.175
			c-0.022,0.179-0.06,0.378-0.092,0.568c-0.013,0.078-0.052,0.298-0.093,0.522h6.183l-0.299-2.61c-0.07-0.59-0.43-1.1-0.96-1.36
			l-1.04-0.525l-0.01-0.005l-0.101-0.05l-0.059-0.03l-0.171-0.087l-1.939-0.983l-0.365-0.188c-0.216-0.111-0.433-0.228-0.657-0.322
			c-0.018-0.007-0.037-0.014-0.052-0.018c-0.002-0.001-0.006-0.002-0.008-0.003c-0.001,0-0.002-0.001-0.003-0.001
			c0,0,0,0.001,0,0.001c0.019,0.217,0.03,0.457,0.032,0.495c0.011,0.213,0.011,0.425,0.004,0.638
			c-0.007,0.218-0.007,0.439-0.021,0.656c-0.002,0.038-0.004,0.077-0.006,0.115c-0.008,0.143-0.013,0.286-0.021,0.428
			c-0.001,0.014-0.002,0.028-0.003,0.043c-0.007,0.092-0.019,0.183-0.026,0.274c-0.006,0.072-0.013,0.147-0.021,0.222
			c-0.001,0.006-0.001,0.012-0.002,0.018c-0.011,0.107-0.015,0.204-0.03,0.321C30.184,32.182,30.164,32.352,30.146,32.515z"/><path style="fill:#1B5951" d="M27.574,31.688c-0.01-0.12-0.019-0.228-0.028-0.339c-0.008-0.099-0.015-0.196-0.021-0.289
			c-0.008-0.116-0.017-0.233-0.02-0.341c-0.001-0.023-0.002-0.042-0.003-0.066c-0.009-0.17-0.015-0.329-0.019-0.475
			c-0.001-0.04-0.001-0.073-0.002-0.111c-0.003-0.141-0.003-0.27-0.002-0.387c0.001-0.064,0.001-0.13,0.003-0.187
			c0.001-0.025,0.001-0.048,0.002-0.071c0.003-0.086,0.006-0.166,0.011-0.233c0-0.032,0.002-0.055,0.003-0.083
			c0.003-0.115,0.01-0.209,0.018-0.257c0.003-0.01,0.002-0.01,0.003-0.015c0.001-0.008,0.003-0.018,0.004-0.023v0
			c0-0.002,0.001-0.006,0.001-0.007c0-0.001,0-0.002,0.001-0.003c0-0.001,0-0.001,0-0.002c0.001-0.004,0.001-0.009,0.001-0.009
			l-0.001,0l0,0l-0.001,0l-0.37,0.19l-0.719,0.369l-0.082,0.041l-2.294,1.157v0.44c0.001,0,0.001,0.001,0.002,0.001
			c0.632,0.327,0.979,0.803,0.979,1.589V35h2.981c-0.143-0.849-0.282-1.821-0.356-2.438c-0.007-0.058-0.015-0.12-0.022-0.176
			c0-0.004-0.001-0.007-0.001-0.01c-0.026-0.229-0.049-0.449-0.068-0.655v-0.003v-0.016v-0.002V31.69
			C27.574,31.689,27.574,31.689,27.574,31.688z"/></g><path style="fill:#1B5951" d="M23.38,35v-4.283c-0.07-0.02-0.14-0.04-0.21-0.06l-1.43-0.33c-0.27,0.4-0.71,0.66-1.23,0.66
		s-0.96-0.26-1.23-0.66l-1.43,0.33c-0.07,0.02-0.14,0.04-0.21,0.06V35H23.38z"/></g><g id="Guides" style="display:none"/><g id="Grid" style="display:none"><g style="display:inline"><g/><g/><g/><g/><g/><g/><g/><g/><g/><g/><g/><g/><g/><g/><g/><g/><g/><g/><g/><g/><g/><g/><g/><g/><g/><g/><g/><g/><g/><g/><g/><g/><g/><g/><g/><g/><g/><g/><g/><g/></g></g></svg>