<?xml version="1.0" encoding="iso-8859-1"?><!--Generator: Adobe Illustrator 26.2.1, SVG Export Plug-In . SVG Version: 6.00 Build 0)--><svg version="1.1" xmlns="http://www.w3.org/2000/svg" xmlns:xlink="http://www.w3.org/1999/xlink" x="0px" y="0px" viewBox="0 0 40 40" style="enable-background:new 0 0 40 40" xml:space="preserve" focusable="false" aria-hidden="true"><g id="Solid"><rect style="fill:none" width="40" height="40"/></g><g id="Icon_Green"><path style="fill:#000D6E" d="M32.401,14H23c-0.552,0-1-0.448-1-1V9c0-0.552,0.448-1,1-1h9.401c0.277,0,0.541,0.115,0.73,0.317
		l1.87,2c0.359,0.384,0.359,0.982,0,1.366l-1.87,2C32.942,13.885,32.678,14,32.401,14z"/><path style="fill:#1B5951" d="M7.599,18H17c0.552,0,1-0.448,1-1v-4c0-0.552-0.448-1-1-1H7.599c-0.277,0-0.541,0.115-0.73,0.317
		l-1.87,2c-0.359,0.384-0.359,0.982,0,1.366l1.87,2C7.058,17.885,7.322,18,7.599,18z"/><path style="fill:#94E3D4" d="M21,32V5c0-0.553-0.448-1-1-1s-1,0.447-1,1v27H21z"/><g><path style="fill:#94E3D4" d="M26,37H14v-2c0-1.105,0.895-2,2-2h8c1.105,0,2,0.895,2,2V37z"/></g></g><g id="Guides" style="display:none"/><g id="Grid" style="display:none"><g style="display:inline"><g/><g/><g/><g/><g/><g/><g/><g/><g/><g/><g/><g/><g/><g/><g/><g/><g/><g/><g/><g/><g/><g/><g/><g/><g/><g/><g/><g/><g/><g/><g/><g/><g/><g/><g/><g/><g/><g/><g/><g/></g></g></svg>