<svg xmlns="http://www.w3.org/2000/svg" viewBox="0 0 40 40" focusable="false" aria-hidden="true"><defs><style>.cls-1{fill:none;}.cls-2{fill:#fae052;}.cls-3{fill:#000d6e;}.cls-4{fill:#fa9319;}</style></defs><g id="Solid"><rect class="cls-1" width="40" height="40"/></g><g id="Icon"><circle class="cls-2" cx="11" cy="25.9987" r="3"/><circle class="cls-3" cx="11" cy="25.9987" r="1.5"/><circle class="cls-2" cx="31.0317" cy="25.9987" r="3"/><circle class="cls-3" cx="31.0317" cy="25.9987" r="1.5"/><polygon class="cls-1" points="7.578 19.03 16.977 19.03 16.977 14.001 13.157 14.001 7.578 19.03"/><path class="cls-2" d="M5.8823,21.009a.9474.9474,0,0,0-.9411-.9535A2.07,2.07,0,0,0,4,21.9625h.9412A.9474.9474,0,0,0,5.8823,21.009Z"/><path class="cls-4" d="M17.4668,13.0205h-4.498a.4913.4913,0,0,0-.3282.126L5.9962,19.1356l-1.055.92a.9536.9536,0,0,1,0,1.907H4v3.1093a.95.95,0,0,0,.9411.9581H7.0032c0-.0107-.0032-.0205-.0032-.0312a4,4,0,0,1,8,0c0,.01-.0028.0187-.0029.0284h2.95V19.4235a.4675.4675,0,0,0,.01-.0485V13.5107A.49.49,0,0,0,17.4668,13.0205Zm-.49,6.01H7.5777l5.579-5.029h3.82Z"/><path class="cls-4" d="M36.0842,8.9871H19.9791a.946.946,0,0,0-.9474.9445V25.9871h8.0011a3.9989,3.9989,0,0,1,7.9977,0h1.0943a.9071.9071,0,0,0,.9069-.9072V9.9316A.946.946,0,0,0,36.0842,8.9871Z"/></g></svg>