<?xml version="1.0" encoding="UTF-8"?><svg xmlns="http://www.w3.org/2000/svg" viewBox="0 0 40 40" focusable="false" aria-hidden="true"><defs><style>.cls-1 {
        fill: none;
      }

      .cls-2 {
        fill: #000d6e;
      }

      .cls-3 {
        fill: #ffaca6;
      }

      .cls-4 {
        fill: #fff;
      }

      .cls-5 {
        fill: #d9304c;
      }</style></defs><g id="Solid"><rect class="cls-1" width="40" height="40"/></g><g id="Icon_Red" data-name="Icon Red"><g><path class="cls-2" d="m29.39,12.41c0-7.26-2.09-10.43-9.64-10.31v5.84s.03.03.05.04c2.47,1.58,5.17,1.99,6.69,1.18.04.56.07,1.06.08,1.42,0,0,0,0,0,0,0,.32,0,.64,0,.94.78,0,1.41.87,1.41,1.94s-.64,1.94-1.42,1.94c-.07,0-.14-.01-.22-.03-.49,2.28-1.73,4.18-3.38,5.26l.03,2.05,1.56.65,1.99.96c3.66-2.15,2.84-6.66,2.84-11.89Z"/><g><path class="cls-1" d="m23.28,29.21s0,0,0,0c.02-.23.03-.46.05-.68,0-.13,0-.24.02-.37,0,.12,0,.23-.02.36-.01.22-.03.45-.05.69Z"/><path class="cls-1" d="m23.41,24.62c0-.19,0-.39-.01-.56-.02-.31-.03-.56-.05-.78.01.22.03.47.04.78,0,.17.01.37.02.56Z"/><path class="cls-1" d="m17.67,29.77s-.08-.07-.12-.11c.04.03.08.08.12.11Z"/><path class="cls-3" d="m17.03,29.21c.15.17.33.32.52.46.04.03.08.08.12.11.69.5,1.56.8,2.49.8,1.25,0,2.35-.53,3.13-1.36.02-.24.03-.47.05-.69,0-.13.01-.24.02-.36.07-1.43.08-2.63.06-3.54,0-.19,0-.39-.02-.56-.01-.31-.03-.56-.04-.78-.03-.45-.35-.79-.35-.79l-.02-1.84c1.61-1.06,3.14-2.97,3.63-5.21.06.01.12.02.18.02.77,0,1.39-.85,1.39-1.91,0-.87-.42-1.59-1-1.82h0c-.11.22-.24.43-.39.63,0,0-.4-3.06-.59-3.19-1.33-.95-2.66-2.51-3.27-3.92-1.72,1.9-4.03,3.59-7.14,3.59-.47,0-.89-.07-1.25-.19l-.69,4.37c-.3-.4-.51-.84-.68-1.28h0c-.58.24-1,.96-1,1.83,0,1.05.62,1.91,1.39,1.91.09,0,.18-.01.27-.04.48,2.21,1.65,4.07,3.22,5.14h0l-.06,2s0,.02,0,.02c0,0-.01.52-.04,1.48-.08,1.13-.02,3.53.1,5.15Z"/><path class="cls-2" d="m14.52,8.64c.37.12.78.19,1.25.19,3.11,0,5.42-1.68,7.14-3.59.61,1.41,1.94,2.97,3.27,3.92.19.13.59,3.19.59,3.19.15-.2.28-.41.39-.63,1.6-3.1-.05-8.14-2.81-7.81-.42-.54-1.55-1.46-3-1.66-.78-.16-1.73-.22-2.77-.05-1.53.24-2.82.77-3.56,1.38-.58-.14-1.21-.44-1.61-1.05-.32.95-.18,1.89.41,2.25-.76.53-1.62.14-2.12-.29,0,0,.14,1.58,1.07,2.84-.15.86-.28,2.7.38,4.39.17.44.39.88.68,1.28l.69-4.37Z"/><path class="cls-5" d="m35.01,29.99c-.36-2.27-2.67-2.76-4.61-3.83l-7.03-3.54-.02-.03s-.03.24,0,.69c.02.22.03.47.05.78,0,.16,0,.36.01.56.02.91.01,2.11-.06,3.54,0,.12,0,.24-.02.37-.02.22-.03.45-.05.68,0,0,0,0,0,0-.77.84-1.87,1.36-3.13,1.36-.93,0-1.79-.3-2.49-.8-.04-.03-.08-.07-.12-.11-.18-.14-.36-.29-.52-.46-.12-1.61-.18-4.01-.1-5.15.03-.96.09-1.48.09-1.49h0s-.14.06-.14.06l-9.84,4.97c-1.19.6-2,1.77-2.15,3.08l-.89,7.31h13s6.34,0,6.34,0h12.66l-.99-8.01Z"/></g></g><path class="cls-4" d="m16.98,28.36l.02,9.64h6v-9.55s-.72,1.56-2.97,1.56-3.05-1.65-3.05-1.65Z"/><polygon class="cls-2" points="20.78 33.62 19.99 31.5 19.2 33.62 17.35 33.62 18.78 34.76 18.02 36.81 20 35.74 21.97 36.81 21.22 34.78 22.65 33.62 20.78 33.62"/><path class="cls-3" d="m30,35.64s-1.92,1.57-2.56,1.57c-.61,0-2.43-1.57-2.43-1.57v-4.63h4.99v4.63Z"/><path class="cls-3" d="m15.01,35.64s-1.92,1.57-2.56,1.57c-.61,0-2.43-1.57-2.43-1.57v-4.63h4.99v4.63Z"/><polygon class="cls-2" points="13.15 15.06 12.13 17.54 14.24 17.54 13.15 15.06"/><polygon class="cls-2" points="17.03 20.57 16.98 29.61 13.32 27.17 17.03 20.57"/><polygon class="cls-2" points="22.98 20.65 22.99 29.59 26.69 27.4 22.98 20.65"/></g></svg>