<svg xmlns="http://www.w3.org/2000/svg" viewBox="0 0 40 40" focusable="false" aria-hidden="true"><g id="Solid"><rect width="40" height="40" fill="none"/></g><g id="Icon"><path d="M15,7a1,1,0,0,0-1-1H11a1,1,0,0,0-1,1V8h2V9h1V8h2Z" fill="#6c2273"/><path d="M8,29.5a4.5,4.5,0,0,0,9,0V17H8Z" fill="#6c2273"/><path d="M12.5,10A4.49,4.49,0,0,0,8,14.5V16h9V14.5A4.49,4.49,0,0,0,12.5,10Z" fill="#b8b2ff"/><path d="M26,7a1,1,0,0,0-1-1H22a1,1,0,0,0-1,1V8h2V9h1V8h2Z" fill="#6c2273"/><path d="M19,29.5a4.5,4.5,0,0,0,9,0V17H19Z" fill="#6c2273"/><path d="M23.5,10A4.49,4.49,0,0,0,19,14.5V16h9V14.5A4.49,4.49,0,0,0,23.5,10Z" fill="#b8b2ff"/><rect x="16" y="7" width="4" height="1" fill="#000d6e"/><path d="M31,13.09V9.5A2.5,2.5,0,0,0,28.5,7H27V8h1.5A1.5,1.5,0,0,1,30,9.5v3.59a1.5,1.5,0,1,0,1,0Z" fill="#000d6e"/></g></svg>