<svg xmlns="http://www.w3.org/2000/svg" viewBox="0 0 40 40" focusable="false" aria-hidden="true"><defs><style>.cls-1{fill:none;}.cls-2{fill:#fa9319;}.cls-3{fill:#fae052;}.cls-4{fill:#000d6e;}</style></defs><g id="Solid"><rect class="cls-1" width="40" height="40"/></g><g id="Icon"><path class="cls-2" d="M15,7a1,1,0,0,0-1-1H11a1,1,0,0,0-1,1V8h2V9h1V8h2Z"/><path class="cls-2" d="M8,29.5a4.5,4.5,0,0,0,9,0V17H8Z"/><path class="cls-3" d="M12.5,10A4.49,4.49,0,0,0,8,14.5V16h9V14.5A4.49,4.49,0,0,0,12.5,10Z"/><path class="cls-2" d="M26,7a1,1,0,0,0-1-1H22a1,1,0,0,0-1,1V8h2V9h1V8h2Z"/><path class="cls-2" d="M19,29.5a4.5,4.5,0,0,0,9,0V17H19Z"/><path class="cls-3" d="M23.5,10A4.49,4.49,0,0,0,19,14.5V16h9V14.5A4.49,4.49,0,0,0,23.5,10Z"/><rect class="cls-4" x="16" y="7" width="4" height="1"/><path class="cls-4" d="M31,13.09V9.5A2.5,2.5,0,0,0,28.5,7H27V8h1.5A1.5,1.5,0,0,1,30,9.5v3.59a1.5,1.5,0,1,0,1,0Z"/></g></svg>