<?xml version="1.0" encoding="UTF-8"?><svg xmlns="http://www.w3.org/2000/svg" viewBox="0 0 40 40" focusable="false" aria-hidden="true"><defs><style>.uuid-66939a45-51b1-4153-be60-4c61162d3631{fill:none;}.uuid-1c32c77d-2e29-4b3d-bcd5-2490e149579a{fill:#fa9319;}.uuid-97b8378d-05d3-4d41-a098-28b235ef0ab1{fill:#000d6e;}.uuid-4947b9b0-f733-47e1-820c-84ebf0cb689a{fill:#fae052;}</style></defs><g id="uuid-4f3e8e2e-0963-4b55-a32f-43c2a15d8bd6"><rect class="uuid-66939a45-51b1-4153-be60-4c61162d3631" width="40" height="40"/></g><g id="uuid-bb4bb2fd-7024-4208-adc8-c0ab54445030"><path class="uuid-4947b9b0-f733-47e1-820c-84ebf0cb689a" d="M27.99,12.99h-5.02c-1.1,0-1.97-.89-1.97-1.99h0V6H4v30H28V12.99h0Z"/><path class="uuid-1c32c77d-2e29-4b3d-bcd5-2490e149579a" d="M21,11c0,1.1,.87,1.99,1.97,1.99h5.02l-6.99-6.99v5h0Z"/><polyline class="uuid-97b8378d-05d3-4d41-a098-28b235ef0ab1" points="18.38 28.26 18.37 28.26 18.04 29.98 18.04 29.98 19.76 29.64"/><path class="uuid-97b8378d-05d3-4d41-a098-28b235ef0ab1" d="M8.5,12h7c.28,0,.5-.22,.5-.5s-.22-.5-.5-.5h-7c-.28,0-.5,.22-.5,.5s.22,.5,.5,.5Z"/><path class="uuid-97b8378d-05d3-4d41-a098-28b235ef0ab1" d="M20.49,16H8.51c-.28,0-.5,.22-.5,.5s.22,.5,.5,.5h11.97c.28,0,.5-.22,.5-.5s-.22-.5-.5-.5Z"/><path class="uuid-97b8378d-05d3-4d41-a098-28b235ef0ab1" d="M20.49,20H8.51c-.28,0-.5,.22-.5,.5s.22,.5,.5,.5h11.97c.28,0,.5-.22,.5-.5s-.22-.5-.5-.5Z"/><g><path class="uuid-66939a45-51b1-4153-be60-4c61162d3631" d="M20.49,20.01H8.52c-.28,0-.5,.22-.5,.5s.22,.5,.5,.5h11.97c.28,0,.5-.22,.5-.5s-.22-.5-.5-.5Z"/><path class="uuid-66939a45-51b1-4153-be60-4c61162d3631" d="M8.52,12h7c.28,0,.5-.22,.5-.5s-.22-.5-.5-.5h-7c-.28,0-.5,.22-.5,.5s.22,.5,.5,.5Z"/><path class="uuid-66939a45-51b1-4153-be60-4c61162d3631" d="M20.49,16.02H8.52c-.28,0-.5,.22-.5,.5s.22,.5,.5,.5h11.97c.28,0,.5-.22,.5-.5s-.22-.5-.5-.5Z"/><path class="uuid-97b8378d-05d3-4d41-a098-28b235ef0ab1" d="M16.36,30.07h-2.03c-.08-.08-.19-.35-.25-.5-.15-.38-.34-.86-.82-.9-.58-.05-.95,.48-1.24,.91-.08,.12-.2,.29-.29,.39-.08-.17-.17-.51-.23-.72-.18-.69-.37-1.4-.97-1.54-.72-.17-1.44,.59-2.48,2.61-.12,.23-.03,.51,.2,.63,.07,.04,.14,.05,.21,.05,.17,0,.33-.09,.41-.25,.86-1.68,1.31-2.03,1.44-2.11,.11,.15,.22,.6,.29,.85,.18,.69,.37,1.4,1,1.48,.55,.07,.89-.42,1.18-.86,.08-.12,.22-.32,.33-.44,.04,.08,.07,.17,.1,.24,.17,.43,.43,1.08,1.08,1.08h2.06c.26,0,.46-.21,.46-.46s-.21-.46-.46-.46Z"/></g><path class="uuid-1c32c77d-2e29-4b3d-bcd5-2490e149579a" d="M19.76,29.64l15.87-15.93c.38-.38,.38-1,0-1.38h0c-.38-.38-1-.38-1.38,0l-15.87,15.93,1.39,1.38Z"/></g></svg>