<?xml version="1.0" encoding="UTF-8"?><svg xmlns="http://www.w3.org/2000/svg" viewBox="0 0 40 40" focusable="false" aria-hidden="true"><defs><style>.uuid-39cb66c5-638a-447c-9116-86f4b227b83c{fill:none;}.uuid-94f3d1fb-a31b-4780-a881-92400139e0c8{fill:#000d6e;}.uuid-726d1bc1-fd37-4b99-9858-6157d72a2996{fill:#1b5951;}.uuid-7833e8a6-8a8b-4de4-a989-a565dbb229c2{fill:#94e3d4;}</style></defs><g id="uuid-08bf8d08-5d93-4644-81d2-b7998d3d39c3"><rect class="uuid-39cb66c5-638a-447c-9116-86f4b227b83c" width="40" height="40"/></g><g id="uuid-a0d47b5a-a90b-4f60-82df-801e76dade0f"><path class="uuid-7833e8a6-8a8b-4de4-a989-a565dbb229c2" d="M27.99,12.99h-5.02c-1.1,0-1.97-.89-1.97-1.99h0V6H4v30H28V12.99h0Z"/><path class="uuid-726d1bc1-fd37-4b99-9858-6157d72a2996" d="M21,11c0,1.1,.87,1.99,1.97,1.99h5.02l-6.99-6.99v5h0Z"/><polyline class="uuid-94f3d1fb-a31b-4780-a881-92400139e0c8" points="18.38 28.26 18.37 28.26 18.04 29.98 18.04 29.98 19.76 29.64"/><path class="uuid-94f3d1fb-a31b-4780-a881-92400139e0c8" d="M8.5,12h7c.28,0,.5-.22,.5-.5s-.22-.5-.5-.5h-7c-.28,0-.5,.22-.5,.5s.22,.5,.5,.5Z"/><path class="uuid-94f3d1fb-a31b-4780-a881-92400139e0c8" d="M20.49,16H8.51c-.28,0-.5,.22-.5,.5s.22,.5,.5,.5h11.97c.28,0,.5-.22,.5-.5s-.22-.5-.5-.5Z"/><path class="uuid-94f3d1fb-a31b-4780-a881-92400139e0c8" d="M20.49,20H8.51c-.28,0-.5,.22-.5,.5s.22,.5,.5,.5h11.97c.28,0,.5-.22,.5-.5s-.22-.5-.5-.5Z"/><g><path class="uuid-39cb66c5-638a-447c-9116-86f4b227b83c" d="M20.49,20.01H8.52c-.28,0-.5,.22-.5,.5s.22,.5,.5,.5h11.97c.28,0,.5-.22,.5-.5s-.22-.5-.5-.5Z"/><path class="uuid-39cb66c5-638a-447c-9116-86f4b227b83c" d="M8.52,12h7c.28,0,.5-.22,.5-.5s-.22-.5-.5-.5h-7c-.28,0-.5,.22-.5,.5s.22,.5,.5,.5Z"/><path class="uuid-39cb66c5-638a-447c-9116-86f4b227b83c" d="M20.49,16.02H8.52c-.28,0-.5,.22-.5,.5s.22,.5,.5,.5h11.97c.28,0,.5-.22,.5-.5s-.22-.5-.5-.5Z"/><path class="uuid-94f3d1fb-a31b-4780-a881-92400139e0c8" d="M16.36,30.07h-2.03c-.08-.08-.19-.35-.25-.5-.15-.38-.34-.86-.82-.9-.58-.05-.95,.48-1.24,.91-.08,.12-.2,.29-.29,.39-.08-.17-.17-.51-.23-.72-.18-.69-.37-1.4-.97-1.54-.72-.17-1.44,.59-2.48,2.61-.12,.23-.03,.51,.2,.63,.07,.04,.14,.05,.21,.05,.17,0,.33-.09,.41-.25,.86-1.68,1.31-2.03,1.44-2.11,.11,.15,.22,.6,.29,.85,.18,.69,.37,1.4,1,1.48,.55,.07,.89-.42,1.18-.86,.08-.12,.22-.32,.33-.44,.04,.08,.07,.17,.1,.24,.17,.43,.43,1.08,1.08,1.08h2.06c.26,0,.46-.21,.46-.46s-.21-.46-.46-.46Z"/></g><path class="uuid-726d1bc1-fd37-4b99-9858-6157d72a2996" d="M19.76,29.64l15.87-15.93c.38-.38,.38-1,0-1.38h0c-.38-.38-1-.38-1.38,0l-15.87,15.93,1.39,1.38Z"/></g></svg>