<?xml version="1.0" encoding="iso-8859-1"?><!--Generator: Adobe Illustrator 26.2.1, SVG Export Plug-In . SVG Version: 6.00 Build 0)--><svg version="1.1" xmlns="http://www.w3.org/2000/svg" xmlns:xlink="http://www.w3.org/1999/xlink" x="0px" y="0px" viewBox="0 0 40 40" style="enable-background:new 0 0 40 40" xml:space="preserve" focusable="false" aria-hidden="true"><g id="Solid"><rect style="fill:none" width="40" height="40"/></g><g id="Icon_Red"><g><rect x="21" y="23.998" style="fill:#D9304C" width="3" height="1"/><path style="fill:#D9304C" d="M27.339,7.52L23.114,8.39c-0.865,0.144-0.77,1.11,0,1.11h4.416c0.536,0,0.971-0.448,0.971-1
			C28.5,7.869,27.94,7.396,27.339,7.52z"/><path style="fill:#D9304C" d="M24.166,20h1.031c0.279-1.08,0.846-2.042,1.62-2.797l-0.506-0.885
			C25.251,17.278,24.483,18.554,24.166,20z"/><path style="fill:#D9304C" d="M33.719,15.02c-1.692-0.652-3.351-0.658-4.808-0.201l0.513,0.897
			c1.496-0.407,3.202-0.307,5.008,0.881c1.041,0.685,1.854,1.704,2.241,2.889C38.033,23.652,34.966,27.5,31,27.5
			c-2.795,0-5.136-1.914-5.803-4.5h-1.031c0.689,3.141,3.49,5.5,6.834,5.5c4.722,0,8.367-4.7,6.503-9.667
			C36.85,17.092,35.453,15.689,33.719,15.02z"/><path style="fill:#D9304C" d="M13.474,16.122L13,17.037c1.679,1.506,2.513,3.934,1.663,6.498
			c-0.551,1.663-1.859,3.012-3.512,3.591c-4.889,1.709-9.394-2.713-7.839-7.592c0.387-1.213,1.231-2.245,2.294-2.946
			c1.712-1.128,3.307-1.258,4.731-0.933l0.471-0.909c-1.758-0.471-3.758-0.346-5.887,1.109c-1.186,0.811-2.118,1.99-2.556,3.358
			c-1.818,5.675,3.455,10.85,9.143,8.848c1.869-0.658,3.374-2.153,4.041-4.018C16.668,20.907,15.603,17.897,13.474,16.122z"/><path style="fill:#000D6E" d="M20.457,19.568l-4.16-6.241c-0.595-0.893-1.807-1.125-2.69-0.515l4.959,7.438
			c-0.198,0.284-0.316,0.627-0.316,1c0,0.966,0.784,1.75,1.75,1.75s1.75-0.784,1.75-1.75C21.75,20.443,21.201,19.77,20.457,19.568z"/><path style="fill:#FFACA6" d="M31.435,21.252l-5.87-10.272L26.27,9.5h-1.107l-0.476,1H13.289L14.786,8h0.971H17
			c0.276,0,0.5-0.224,0.5-0.5C17.5,7.224,17.276,7,17,7h-2.473c-0.193,0-0.372,0.102-0.472,0.267l-2.325,3.887
			c-0.404,0.675-0.438,1.509-0.089,2.215l0.126,0.254c0.235,0.47,0.228,1.027-0.026,1.497l-3.185,6.15
			c-0.127,0.245-0.031,0.547,0.215,0.674C8.844,21.982,8.922,22,9,22c0.181,0,0.356-0.099,0.444-0.271l3.181-6.142
			c0.403-0.749,0.417-1.651,0.037-2.41l-0.048-0.097c-0.249-0.497-0.227-1.079,0.06-1.556l0.036-0.06l0.898,1.347
			c0.301-0.208,0.641-0.311,0.982-0.331L13.935,11.5H24.21l-3.805,7.989l0.053,0.079c0.028,0.008,0.05,0.026,0.078,0.035
			c0.14,0.046,0.273,0.102,0.395,0.18c0.046,0.029,0.085,0.066,0.128,0.099c0.065,0.05,0.138,0.091,0.195,0.15c0,0,0,0,0-0.001
			l3.788-7.952L30.139,21h-8.414c0.012,0.082,0.025,0.164,0.025,0.25c0,0.133-0.018,0.262-0.046,0.387
			c-0.002,0.007-0.004,0.013-0.006,0.02c-0.029,0.12-0.071,0.235-0.123,0.344l0,0H31c0.276,0,0.5-0.224,0.5-0.5
			C31.5,21.404,31.482,21.328,31.435,21.252z"/></g><g><path style="fill:#D9304C" d="M20.53,33.884l-3.226-5.609l-3.197-5.558C13.854,22.275,13.375,22,12.86,22
			c-0.516,0-0.994,0.275-1.249,0.717l-3.197,5.558l-3.226,5.609c-0.252,0.439-0.252,0.963,0.002,1.401
			C5.446,35.726,5.923,36,6.437,36h6.422h6.422c0.514,0,0.992-0.274,1.247-0.715C20.782,34.847,20.783,34.323,20.53,33.884z
			 M19.678,34.794c-0.081,0.14-0.229,0.224-0.397,0.224H12.86H6.437c-0.167,0-0.315-0.084-0.397-0.224
			c-0.036-0.063-0.109-0.23,0-0.419l3.226-5.609l3.197-5.558c0.081-0.141,0.229-0.225,0.397-0.225c0.168,0,0.316,0.084,0.397,0.225
			l3.197,5.558l3.226,5.609C19.788,34.564,19.715,34.731,19.678,34.794z"/><g><path style="fill:#FFACA6" d="M16.453,28.765l-3.197-5.558c-0.081-0.141-0.229-0.225-0.397-0.225
				c-0.168,0-0.316,0.084-0.397,0.225l-3.197,5.558l-3.226,5.609c-0.109,0.19-0.036,0.356,0,0.419
				c0.081,0.14,0.229,0.224,0.397,0.224h6.422h6.422c0.167,0,0.315-0.084,0.397-0.224c0.036-0.063,0.109-0.23,0-0.419L16.453,28.765
				z M12.854,34.171c-0.506,0-0.883-0.388-0.883-0.883c0-0.528,0.377-0.916,0.883-0.916c0.517,0,0.905,0.388,0.905,0.916
				C13.759,33.784,13.371,34.171,12.854,34.171z M13.479,31.456h-1.26l-0.269-5.268h1.821L13.479,31.456z"/></g><polygon style="fill:#000D6E" points="12.219,31.456 13.479,31.456 13.77,26.188 11.949,26.188 		"/><path style="fill:#000D6E" d="M12.854,32.372c-0.506,0-0.883,0.388-0.883,0.916c0,0.496,0.377,0.883,0.883,0.883
			c0.517,0,0.905-0.388,0.905-0.883C13.759,32.76,13.371,32.372,12.854,32.372z"/></g></g><g id="Guides" style="display:none"/><g id="Grid" style="display:none"><g style="display:inline"><g/><g/><g/><g/><g/><g/><g/><g/><g/><g/><g/><g/><g/><g/><g/><g/><g/><g/><g/><g/><g/><g/><g/><g/><g/><g/><g/><g/><g/><g/><g/><g/><g/><g/><g/><g/><g/><g/><g/><g/></g></g></svg>