<svg xmlns="http://www.w3.org/2000/svg" viewBox="0 0 40 40" focusable="false" aria-hidden="true"><defs><style>.cls-1{fill:none;}.cls-2{fill:#6c2273;}.cls-3{fill:#000d6e;}.cls-4{fill:#b8b2ff;}</style></defs><g id="Solid"><rect class="cls-1" width="40" height="40"/></g><g id="Icon_Purple" data-name="Icon Purple"><rect class="cls-2" x="21" y="25.998" width="3" height="1"/><path class="cls-2" d="M27.3391,9.52l-4.2254.8706c-.8654.1442-.77,1.11,0,1.11h4.4157a.9971.9971,0,1,0-.19-1.98Z"/><path class="cls-2" d="M24.1659,22h1.0308a5.9873,5.9873,0,0,1,1.62-2.797l-.5059-.8855A6.9941,6.9941,0,0,0,24.1659,22Z"/><path class="cls-2" d="M33.7186,17.02a7.2226,7.2226,0,0,0-4.8082-.201l.5128.8974a5.9279,5.9279,0,0,1,5.0083.8815,5.5673,5.5673,0,0,1,2.2407,2.8885A6.0064,6.0064,0,1,1,25.1967,25H24.1659A7.0121,7.0121,0,1,0,37.503,20.8328,6.6022,6.6022,0,0,0,33.7186,17.02Z"/><path class="cls-2" d="M13.4741,18.1223,13,19.0372a6.03,6.03,0,0,1,1.6633,6.4978,5.7263,5.7263,0,0,1-3.5122,3.59,6.0354,6.0354,0,0,1-7.839-7.5916,5.6354,5.6354,0,0,1,2.2937-2.9456,5.8766,5.8766,0,0,1,4.7312-.9335l.4709-.9094a6.8492,6.8492,0,0,0-5.887,1.1091,6.5389,6.5389,0,0,0-2.5564,3.3582,7.0391,7.0391,0,0,0,9.1427,8.8483,6.6717,6.6717,0,0,0,4.0407-4.0184A7.0489,7.0489,0,0,0,13.4741,18.1223Z"/><path class="cls-3" d="M20.4574,21.5681l-4.16-6.2406a1.92,1.92,0,0,0-2.69-.5147l4.9585,7.4377a1.7514,1.7514,0,1,0,1.8912-.6824Z"/><path class="cls-4" d="M31.4346,23.252,25.5647,12.98,26.27,11.5h-1.107l-.4763,1H13.2891L14.7863,10H17a.5.5,0,0,0,0-1H14.5273a.55.55,0,0,0-.4718.2675l-2.325,3.8868a2.3173,2.3173,0,0,0-.0894,2.2147l.1255.2545A1.6183,1.6183,0,0,1,11.74,17.12l-3.1845,6.15a.4994.4994,0,0,0,.2148.6738A.494.494,0,0,0,9,24a.5.5,0,0,0,.4443-.27l3.1807-6.1421a2.6186,2.6186,0,0,0,.0371-2.41l-.0478-.0966a1.6089,1.6089,0,0,1,.0595-1.5557l.0358-.06.8981,1.347a1.9015,1.9015,0,0,1,.9818-.33L13.9346,13.5H24.21l-3.8053,7.9888.0529.0793c.028.0076.05.0264.0776.0353a1.7258,1.7258,0,0,1,.3951.18c.0464.0293.0852.0657.1285.099a1.7326,1.7326,0,0,1,.1949.15l0-.0006,3.7879-7.9523L30.1387,23H21.7248a1.4658,1.4658,0,0,1-.0209.6368l-.0061.02A1.7347,1.7347,0,0,1,21.5751,24v0H31a.5.5,0,0,0,.5-.5A.4413.4413,0,0,0,31.4346,23.252Z"/></g></svg>