<?xml version="1.0" encoding="UTF-8"?><svg xmlns="http://www.w3.org/2000/svg" viewBox="0 0 40 40" focusable="false" aria-hidden="true"><defs><style>.uuid-216bc77f-001e-4917-a4d6-cf2a1ea17a8b{fill:none;}.uuid-4d2cfa2d-e468-42b0-a992-596acd3bf884{fill:#000d6e;}.uuid-62f6f577-5917-431d-aec9-eae10276c2be{fill:#6c2273;}.uuid-4e1635bb-ac62-4480-8e4a-2e303a318a34{fill:#b8b2ff;}</style></defs><g id="uuid-07e4d7cc-ba89-4ae9-ac08-0be92eda07b1"><rect class="uuid-216bc77f-001e-4917-a4d6-cf2a1ea17a8b" width="40" height="40"/></g><g id="uuid-851d65be-47fa-4a55-a032-f79cc89fb92d"><path class="uuid-4d2cfa2d-e468-42b0-a992-596acd3bf884" d="M24.91,31H15.09c-.6,0-1.09,.45-1.09,1s.47,.98,1.06,.99c.01,0,.02,0,.03,0h9.82c.6,0,1.09-.45,1.09-1s-.49-1-1.09-1Z"/><path class="uuid-4d2cfa2d-e468-42b0-a992-596acd3bf884" d="M24.91,28H15.09c-.6,0-1.09,.45-1.09,1s.49,1,1.09,1h9.82c.6,0,1.09-.45,1.09-1s-.49-1-1.09-1Z"/><path class="uuid-4d2cfa2d-e468-42b0-a992-596acd3bf884" d="M24.91,25H15.09c-.6,0-1.09,.45-1.09,1,0,.45,.34,.82,.79,.94,.1,.03,.19,.06,.3,.06h9.82c.6,0,1.09-.45,1.09-1s-.49-1-1.09-1Z"/><path class="uuid-62f6f577-5917-431d-aec9-eae10276c2be" d="M21.26,22.03c2.57,0,4.66-2.09,4.66-4.66-2.57,0-4.66,2.09-4.66,4.66Z"/><g><path class="uuid-4e1635bb-ac62-4480-8e4a-2e303a318a34" d="M11.76,13.57c0,3.94,3.19,7.13,7.13,7.13,0-3.94-3.19-7.13-7.13-7.13Z"/><path class="uuid-62f6f577-5917-431d-aec9-eae10276c2be" d="M19.59,13.99h0v10.03h1V13.94c3.46-.49,6.13-3.45,6.13-7.05-3.93,0-7.11,3.17-7.12,7.1Z"/></g></g></svg>