<?xml version="1.0" encoding="UTF-8"?><svg xmlns="http://www.w3.org/2000/svg" viewBox="0 0 40 40" focusable="false" aria-hidden="true"><defs><style>.uuid-4705f213-ce1a-4c65-9121-d3a48f526fac{fill:none;}.uuid-030e0c38-aa0c-4f6f-a300-cb1799654272{fill:#fa9319;}.uuid-38b6ce22-4a50-4272-8fd3-e52ab8094e65{fill:#000d6e;}.uuid-f7485e25-bf54-4cd9-9dde-70f6936e8ad0{fill:#fae052;}</style></defs><g id="uuid-407971c0-6856-4fc6-99d2-04f3fa2375ed"><rect class="uuid-4705f213-ce1a-4c65-9121-d3a48f526fac" width="40" height="40"/></g><g id="uuid-3c3fa733-3af2-4269-997c-6597ac1c7918"><path class="uuid-38b6ce22-4a50-4272-8fd3-e52ab8094e65" d="M24.91,31H15.09c-.6,0-1.09,.45-1.09,1s.47,.98,1.06,.99c.01,0,.02,0,.03,0h9.82c.6,0,1.09-.45,1.09-1s-.49-1-1.09-1Z"/><path class="uuid-38b6ce22-4a50-4272-8fd3-e52ab8094e65" d="M24.91,28H15.09c-.6,0-1.09,.45-1.09,1s.49,1,1.09,1h9.82c.6,0,1.09-.45,1.09-1s-.49-1-1.09-1Z"/><path class="uuid-38b6ce22-4a50-4272-8fd3-e52ab8094e65" d="M24.91,25H15.09c-.6,0-1.09,.45-1.09,1,0,.45,.34,.82,.79,.94,.1,.03,.19,.06,.3,.06h9.82c.6,0,1.09-.45,1.09-1s-.49-1-1.09-1Z"/><path class="uuid-030e0c38-aa0c-4f6f-a300-cb1799654272" d="M21.26,22.03c2.57,0,4.66-2.09,4.66-4.66-2.57,0-4.66,2.09-4.66,4.66Z"/><g><path class="uuid-f7485e25-bf54-4cd9-9dde-70f6936e8ad0" d="M11.76,13.57c0,3.94,3.19,7.13,7.13,7.13,0-3.94-3.19-7.13-7.13-7.13Z"/><path class="uuid-030e0c38-aa0c-4f6f-a300-cb1799654272" d="M19.59,13.99h0v10.03h1V13.94c3.46-.49,6.13-3.45,6.13-7.05-3.93,0-7.11,3.17-7.12,7.1Z"/></g></g></svg>