<?xml version="1.0" encoding="UTF-8"?><svg xmlns="http://www.w3.org/2000/svg" viewBox="0 0 40 40" focusable="false" aria-hidden="true"><defs><style>.uuid-373cf372-90ca-4264-a08f-7848e82f00f8{fill:none;}.uuid-d4072d85-0bfe-488b-980b-fa419764431c{fill:#000d6e;}.uuid-86b1f70f-1064-4d63-8a44-854d450859db{fill:#ffaca6;}.uuid-11138cd2-6020-4907-bfbe-31aad1d28d28{fill:#d9304c;}</style></defs><g id="uuid-33dd76ff-8ef7-465c-bfbe-3540aff49b55"><rect class="uuid-373cf372-90ca-4264-a08f-7848e82f00f8" width="40" height="40"/></g><g id="uuid-be357169-127e-4813-8559-9a7e19571519"><path class="uuid-d4072d85-0bfe-488b-980b-fa419764431c" d="M24.91,31H15.09c-.6,0-1.09,.45-1.09,1s.47,.98,1.06,.99c.01,0,.02,0,.03,0h9.82c.6,0,1.09-.45,1.09-1s-.49-1-1.09-1Z"/><path class="uuid-d4072d85-0bfe-488b-980b-fa419764431c" d="M24.91,28H15.09c-.6,0-1.09,.45-1.09,1s.49,1,1.09,1h9.82c.6,0,1.09-.45,1.09-1s-.49-1-1.09-1Z"/><path class="uuid-d4072d85-0bfe-488b-980b-fa419764431c" d="M24.91,25H15.09c-.6,0-1.09,.45-1.09,1,0,.45,.34,.82,.79,.94,.1,.03,.19,.06,.3,.06h9.82c.6,0,1.09-.45,1.09-1s-.49-1-1.09-1Z"/><path class="uuid-11138cd2-6020-4907-bfbe-31aad1d28d28" d="M21.26,22.03c2.57,0,4.66-2.09,4.66-4.66-2.57,0-4.66,2.09-4.66,4.66Z"/><g><path class="uuid-86b1f70f-1064-4d63-8a44-854d450859db" d="M11.76,13.57c0,3.94,3.19,7.13,7.13,7.13,0-3.94-3.19-7.13-7.13-7.13Z"/><path class="uuid-11138cd2-6020-4907-bfbe-31aad1d28d28" d="M19.59,13.99h0v10.03h1V13.94c3.46-.49,6.13-3.45,6.13-7.05-3.93,0-7.11,3.17-7.12,7.1Z"/></g></g></svg>