<?xml version="1.0" encoding="UTF-8"?><svg xmlns="http://www.w3.org/2000/svg" viewBox="0 0 40 40" focusable="false" aria-hidden="true"><g id="uuid-d23eaf04-1a0c-4d12-88df-fd8f49f30d56"><rect width="40" height="40" fill="none"/></g><g id="uuid-73cb5edb-6e7a-491d-a22e-8c30f7c42562"><g><path d="M7.67,29.33c0-3.12-2.53-5.65-5.65-5.65,0,3.12,2.53,5.65,5.65,5.65Z" fill="#fae052"/><path d="M10.61,30.39c2.04,0,3.69-1.65,3.69-3.69-2.04,0-3.69,1.65-3.69,3.69Z" fill="#fa9319"/><path d="M4,35.5c0-.28,.22-.5,.5-.5H13.5c.27,0,.5,.22,.5,.5s-.22,.5-.5,.5H4.5c-.27,0-.5-.22-.5-.5Z" fill="#000d6e"/><path d="M14.22,19.25c-3.12,0-5.61,2.46-5.61,5.58v9.16h1v-9.25c2.63-.46,4.61-2.71,4.61-5.49Z" fill="#fa9319"/><path d="M37.67,13.58l-2.21-2.74,.23-.16c1.8-1.21,2.28-3.66,1.06-5.46-.59-.87-1.48-1.46-2.51-1.66-1.03-.2-2.08,.01-2.95,.6l-.79,.53h0s-7.85,5.29-7.85,5.29c-.6,.4-.74,1.26-.33,1.93l1.46,2.64-6.64-1.5-.57,1.74,9.6,4.11,.98,1.78c.22,.37,.59,.63,1,.72,.1,.02,.21,.03,.31,.03,.27,0,.53-.08,.76-.23l8.16-5.5c.31-.21,.52-.54,.59-.92,.07-.41-.04-.85-.31-1.21Zm-5.81-8.59c.65-.44,1.43-.59,2.2-.44,.77,.15,1.44,.59,1.87,1.24,.9,1.34,.55,3.17-.79,4.07l-.3,.21-3.7-4.59,.72-.49Z" fill="#000d6e"/></g></g></svg>