<?xml version="1.0" encoding="iso-8859-1"?><!--Generator: Adobe Illustrator 26.2.1, SVG Export Plug-In . SVG Version: 6.00 Build 0)--><svg version="1.1" xmlns="http://www.w3.org/2000/svg" xmlns:xlink="http://www.w3.org/1999/xlink" x="0px" y="0px" viewBox="0 0 40 40" style="enable-background:new 0 0 40 40" xml:space="preserve" focusable="false" aria-hidden="true"><g id="Solid"><rect style="fill:none" width="40" height="40"/></g><g id="Icon_Red"><g><path style="fill:#D9304C" d="M36.028,9.553C36.028,9.247,35.843,9,35.614,9h-0.171c-0.229,0-0.414,0.247-0.414,0.553V11h1V9.553
			z"/><path style="fill:#D9304C" d="M34.028,9.553C34.028,9.247,33.842,9,33.613,9h-0.171c-0.229,0-0.414,0.247-0.414,0.553V11h1V9.553
			z"/></g><g><path style="fill:#000D6E" d="M28.058,35h-3c-0.552,0-1-0.448-1-1v-3h5v3C29.058,34.552,28.61,35,28.058,35z"/><path style="fill:#000D6E" d="M9.058,35h-3c-0.552,0-1-0.448-1-1v-3h5v3C10.058,34.552,9.61,35,9.058,35z"/><path style="fill:#D9304C" d="M30.558,19h-2c-0.276,0-0.5-0.224-0.5-0.5v-1c0-0.276,0.224-0.5,0.5-0.5h2
			c0.276,0,0.5,0.224,0.5,0.5v1C31.058,18.776,30.834,19,30.558,19z"/><path style="fill:#D9304C" d="M5.558,19h-2c-0.276,0-0.5-0.224-0.5-0.5v-1c0-0.276,0.224-0.5,0.5-0.5h2
			c0.276,0,0.5,0.224,0.5,0.5v1C6.058,18.776,5.834,19,5.558,19z"/><g><path style="fill:#D9304C" d="M28.75,23l-1.019-3H6.385l-1.019,3c-0.203,0.487-0.308,1.01-0.308,1.538V30h24v-5.462
				C29.058,24.01,28.953,23.487,28.75,23z M8.558,27c-0.828,0-1.5-0.672-1.5-1.5s0.672-1.5,1.5-1.5s1.5,0.672,1.5,1.5
				S9.386,27,8.558,27z M25.558,27c-0.828,0-1.5-0.672-1.5-1.5s0.672-1.5,1.5-1.5s1.5,0.672,1.5,1.5S26.386,27,25.558,27z"/><path style="fill:#FFACA6" d="M24.827,12.846C24.361,11.728,23.269,11,22.058,11h-10c-1.211,0-2.303,0.728-2.769,1.846L6.724,19
				h20.667L24.827,12.846z"/></g></g><path style="fill:#FFACA6" d="M32.028,11.003v2.784c0,1.15,0.879,2.084,2,2.194h0.002v6.026h-5.616L28.75,23
		c0.001,0.003,0.001,0.005,0.002,0.008h6.277v-7.026c1.12-0.11,1.998-1.044,1.998-2.194v-2.784H32.028z"/><circle style="fill:#000D6E" cx="34.5" cy="13.5" r="1"/></g><g id="Guides" style="display:none"/><g id="Grid" style="display:none"><g style="display:inline"><g/><g/><g/><g/><g/><g/><g/><g/><g/><g/><g/><g/><g/><g/><g/><g/><g/><g/><g/><g/><g/><g/><g/><g/><g/><g/><g/><g/><g/><g/><g/><g/><g/><g/><g/><g/><g/><g/><g/><g/></g></g></svg>