<?xml version="1.0" encoding="UTF-8"?><svg xmlns="http://www.w3.org/2000/svg" viewBox="0 0 40 40" focusable="false" aria-hidden="true"><g id="uuid-b05e11df-a464-4603-809f-49532f013ce8"><rect width="40" height="40" fill="none"/></g><g id="uuid-b18693c5-6c08-4675-97aa-f5f20713e87f"><g><g><path d="M31.37,21.43c0,.06-.02-.32-.05-.63l.05,.72s0-.05,0-.08Z" fill="none"/><path d="M31.37,21.51c.01,.35,.02,.73,.01,1.12,0-.36,0-.75-.01-1.12Z" fill="none"/><path d="M27.94,21.43s0,.03,0,.05l.03-.5c-.02,.25-.03,.47-.03,.44Z" fill="none"/><polygon points="23.45 13.93 23.45 13.93 23.45 13.93 23.45 13.93" fill="none"/><path d="M26.31,17.68c.22,1,.72,1.84,1.38,2.42-.66-.58-1.16-1.42-1.38-2.42,0,0,0,0,0,0Z" fill="none"/><path d="M32.02,19.73c.47-.55,.83-1.24,1-2.04,.01,0,.02,0,.03-.01,0,0-.02,0-.03,0-.17,.81-.53,1.51-1,2.06Z" fill="none"/><path d="M27.92,22.57c0-.38,0-.75,.02-1.09-.02,.36-.02,.73-.02,1.09Z" fill="none"/><path d="M31.28,24.92c.02-.26,.1-1.2,.11-2.29,0-.39,0-.77-.01-1.12l-.05-.72c-.02-.22-.03-.41-.03-.41,.26-.18,.5-.41,.72-.66,.47-.55,.83-1.25,1-2.06,0,0,.02,0,.03,0,.35-.05,.62-.46,.62-.97,0-.11-.02-.21-.04-.31,0-.02,0-.03,0-.05-.03-.09-.06-.18-.11-.27,0,0-.01-.02-.02-.02-.05-.08-.1-.15-.16-.2,0,0,0,0-.01-.01-.06-.05-.13-.09-.19-.11h0s-.09-.03-.15-.03v-.48c-.07-.03-.27-.13-.55-.26-.6-.3-1.58-.78-2.47-1.23-.29-.15-.57-.29-.82-.42-.19-.1-.36-.16-.53-.21-.06-.02-.11-.03-.16-.04-.08-.02-.16-.04-.23-.05-.12-.02-.24-.03-.35-.03,0,0-.01,0-.02,0-.11,0-.21,.01-.31,.03-.03,0-.06,.02-.1,.02-.07,.02-.14,.03-.21,.05-.03,0-.06,.02-.09,.02-.09,.03-.17,.06-.26,.09-.19,.08-.35,.16-.49,.22-.02,.1-.03,.37-.03,.4,0,.28,.01,1.19,.02,1.88h0c-.06,0-.12,.01-.18,.04,0,0-.02,0-.02,0-.01,0-.02,.01-.03,.02-.06,.03-.12,.08-.18,.14,0,0,0,.01-.01,.02-.11,.13-.2,.31-.24,.51h0c-.02,.09-.03,.18-.03,.27,0,.52,.28,.94,.63,.98,0,0,0,0,0,0,0,0,0,0,0,0,.21,1,.71,1.84,1.38,2.42,.11,.09,.21,.2,.32,.27,0,0-.02,.32-.04,.61l-.03,.5c-.01,.34-.02,.71-.02,1.09,0,.48,.02,.92,.04,1.31,.67,.39,1.23,.93,1.66,1.58,.52-.19,1.07-.33,1.65-.39,0-.02,0-.05,0-.07,0,0,0-.03,0-.07Z" fill="#94e3d4"/><path d="M27.96,23.88c-.02-.38-.04-.83-.04-1.31,0-.35,0-.72,.02-1.09,0-.02,0-.03,0-.05,0,0-.02,.02-.04,.03-.05,.03-.13,.07-.22,.11-.05,.02-.09,.05-.14,.07-.14,.07-.28,.14-.35,.17-.02,0-.03,.02-.03,.02l-2.17,1.1c.7,.16,1.34,.32,1.79,.44,.42,.12,.82,.29,1.18,.51Z" fill="#1b5951"/><path d="M31.51,21.51c-.07-.04-.13-.07-.14-.08,0,.03,0,.05,0,.08,.01,.38,.02,.76,.01,1.12-.01,1.09-.09,2.03-.11,2.29,0,.04,0,.07,0,.07,0,.02,0,.05,0,.07,.24-.03,.48-.04,.73-.04,2.49,0,4.68,1.32,5.92,3.29l-.31-2.69c-.09-.69-.51-1.29-1.13-1.6l-4.33-2.19s-.05-.02-.12-.06c-.04-.02-.08-.04-.12-.06-.13-.06-.29-.14-.41-.2Z" fill="#1b5951"/><path d="M27.54,21.65s.1-.05,.14-.07c.09-.05,.17-.09,.22-.11,.02-.01,.04-.02,.04-.03,0,.03,.01-.2,.03-.44,.02-.29,.04-.61,.04-.61-.11-.08-.22-.18-.32-.27-.66-.58-1.17-1.42-1.38-2.42,0,0,0,0,0,0-.35-.04-.63-.46-.63-.98,0-.09,.01-.17,.03-.26h0c.04-.21,.13-.4,.24-.52,0,0,.01-.01,.01-.02,.06-.06,.11-.1,.18-.14,.01,0,.02-.01,.03-.02,0,0,.02,0,.02,0,.06-.03,.12-.04,.18-.04h0c0-.69-.01-1.6-.02-1.88,0-.03,0-.3,.03-.4,.14-.06,.3-.15,.49-.22,.08-.03,.17-.06,.26-.09,.03,0,.06-.02,.09-.02,.07-.02,.14-.04,.21-.05,.04,0,.07-.02,.1-.02,.1-.02,.2-.03,.31-.03,0,0,.01,0,.02,0,.11,0,.23,.01,.35,.03,.08,.01,.16,.03,.23,.05,.05,.02,.1,.02,.16,.04,.17,.05,.34,.11,.53,.21,.26,.14,.54,.28,.82,.42,.89,.45,1.87,.93,2.47,1.23,.28,.13,.47,.23,.55,.26v.48c.05,0,.1,0,.15,.02h0c.07,.03,.13,.07,.19,.11,0,0,0,.01,.01,.01,.06,.06,.11,.13,.16,.2,0,0,.01,.02,.02,.02,.05,.08,.08,.17,.11,.27,0,.02,0,.03,0,.05,.03,.09,.04,.2,.04,.31,0,.51-.27,.92-.62,.97,0,0-.02,0-.03,.01-.17,.8-.53,1.5-1,2.04-.22,.25-.45,.48-.72,.66,0,0,.01,.19,.03,.41,.02,.32,.05,.69,.05,.63,0,.01,.06,.04,.14,.08,.11,.06,.27,.14,.41,.2,.04,.02,.09,.04,.12,.06,.07,.03,.12,.06,.12,.06l1.41,.71h0s1.3,.66,1.3,.66l.38,.19c.69-.46,1.02-1,.72-1.48-.5-.81-.7-2.48-1.01-4.13-.26-2-.91-3.84-1.15-4.76-.37-1.4-1.46-2.97-4.12-3.06-1.97,0-3.59,1.23-3.92,2.59-.48,1.32-1.7,5.4,.17,8.67,.19,.34,.43,.63,.7,.88l.51-.26s.01,0,.03-.02c.06-.03,.2-.1,.35-.17Z" fill="#000d6e"/><path d="M10.12,23.46l1.67-1.7s0,0,0,0l-.09-1.39c.82-.55,1.43-1.5,1.68-2.64,.04,.01,.09,.02,.14,.02,.39,0,.71-.44,.71-.98,0-.44-.22-.8-.51-.92v.15c0,.14-.11,.26-.26,.26s-.26-.11-.26-.26v-.84s0-.07,0-.11c-.01-.02-.02-.03-.03-.05-.39-.18-.99-.63-1.5-1.25-.48,.28-1.15,.51-1.92,.64-1.07,.18-2.03,.1-2.59-.16-.06,.24-.11,.54-.11,.93v.84c0,.14-.11,.26-.26,.26s-.26-.11-.26-.26v-.15c-.29,.12-.51,.47-.51,.92,0,.54,.32,.98,.71,.98,.03,0,.06,0,.09-.01,.24,1.13,.85,2.08,1.66,2.62l-.09,1.4s0,0,0,0l1.71,1.7Z" fill="#94e3d4"/><path d="M13.22,23.37c.58-.17,1.48-.38,2.44-.59-.22-.11-.44-.22-.68-.29-.32-.09-.82-.2-1.37-.32-.11-.03-.24-.06-.37-.09-.04-.01-.09-.02-.13-.03-.09-.02-.18-.04-.27-.06-.06-.01-.11-.03-.17-.04-.09-.02-.18-.04-.27-.06-.05-.01-.1-.02-.15-.03,0,0-.42-.09-.45-.09,0,0,0,0,0,0l-1.67,1.7-1.71-1.7s0,0,0,0c-.03,0-.42,.09-.42,.09-.08,.02-.15,.03-.23,.05-.07,.02-.14,.03-.21,.05-.07,.01-.13,.03-.19,.04-.09,.02-.17,.04-.25,.06-.05,.01-.1,.02-.15,.03-.13,.03-.25,.06-.37,.09-.55,.12-1.05,.23-1.37,.32-1.11,.31-2,1.15-2.37,2.24l-.85,4.26h7.19l.64-2.41c.54-1.56,1.81-2.77,3.4-3.22Z" fill="#1b5951"/><path d="M6.8,16.26c.14,0,.26-.11,.26-.26v-.84c0-.4,.05-.69,.11-.93,.56,.26,1.52,.34,2.59,.16,.76-.13,1.43-.36,1.92-.64,.51,.63,1.11,1.08,1.5,1.25,.01,.02,.02,.03,.03,.05,0,.04,0,.07,0,.11v.84c0,.14,.11,.26,.26,.26s.26-.11,.26-.26v-1.11c.02-.66,.03-1.37,0-1.71-.07-.74-1.45-2.56-3.59-2.56s-3.59,1.61-3.59,3.08v2.31c0,.14,.11,.26,.26,.26Z" fill="#000d6e"/><path d="M19.62,22.47l.35,1.8s.02,0,.03,0c.01,0,.02,0,.04,0l.35-1.8,1.96-1.21h0c-.1-.39-.16-.83-.2-1.23,.79-.68,1.39-1.72,1.64-2.96,.04,0,.08,.02,.12,.02,.45,0,.82-.53,.82-1.18,0-.54-.26-.99-.6-1.13,0-.02,0-.03,.01-.05-.04,.06-.08,.13-.12,.19,0,0-.25-1.86-.36-1.94-.81-.57-1.61-1.52-1.99-2.38-1.04,1.16-2.44,2.18-4.33,2.18-.29,0-.54-.04-.76-.12l-.42,2.65c-.13-.18-.24-.38-.33-.57,0,.01,0,.03,.01,.04-.34,.15-.59,.59-.59,1.12,0,.65,.37,1.18,.82,1.18,.05,0,.1,0,.15-.02,.25,1.22,.84,2.26,1.62,2.94-.04,.4-.1,.85-.2,1.26h0s1.96,1.21,1.96,1.21Zm3.83-8.54s0,0,0,0c0,0,0,0,0,0,0,0,0,0,0,0Z" fill="#94e3d4"/><path d="M22.56,9.79s-.01,0-.02-.01c0,0,0,0,.01,.01,0,0,0,0,0,0Z" fill="#94e3d4"/><path d="M29.62,25.45c-.42-.65-.99-1.18-1.66-1.58-.37-.22-.76-.39-1.18-.51-.45-.13-1.09-.28-1.79-.44-.42-.1-.85-.19-1.29-.29h0s-2.35,1.6-2.35,1.6l-.96-1.76-.35,1.8s-.02,0-.04,0c-.01,0-.02,0-.03,0l-.35-1.8-.96,1.76-2.35-1.6h0c-.22,.05-.43,.09-.64,.14-.95,.21-1.86,.43-2.44,.59-1.59,.45-2.86,1.65-3.4,3.22l-.64,2.41-.53,2H25.08c.38-2.57,2.16-4.68,4.54-5.55Z" fill="#000d6e"/><path d="M16.58,12.66c.22,.07,.48,.12,.76,.12,1.89,0,3.29-1.02,4.33-2.18,.37,.86,1.18,1.81,1.99,2.38,.11,.08,.36,1.94,.36,1.94,.05-.06,.08-.13,.12-.19,1.15-1.85,.15-5.13-1.59-4.93,0,0,0,0,0,0,0,0,0,0-.01-.01-.15-.19-.46-.41-.85-.61-.23-.16-.59-.28-1.03-.35-.17-.03-.34-.05-.51-.05,0,0,0,0-.01,0-.34-.01-.71,0-1.09,.06-.88,.14-1.62,.44-2.08,.78-.37-.08-.8-.26-1.06-.66-.19,.58-.11,1.14,.25,1.37-.46,.32-.98,.09-1.29-.18,0,0,.09,.96,.65,1.72-.1,.55-.18,1.79,.32,2.87,.09,.2,.2,.39,.33,.57l.42-2.65Z" fill="#000d6e"/><polygon points="20.39 22.47 21.35 24.23 23.7 22.63 22.35 21.26 22.35 21.26 20.39 22.47" fill="#1b5951"/><polygon points="18.65 24.23 19.62 22.47 17.66 21.26 17.65 21.26 16.3 22.63 16.3 22.63 18.65 24.23" fill="#1b5951"/></g><path d="M32,26.03c-3.31,0-6,2.69-6,6s2.69,6,6,6,6-2.69,6-6-2.69-6-6-6Zm2.37,8.41l-2.24-1.2-2.24,1.2,.86-2.32-1.62-1.28h2.09l.89-2.4,.9,2.4h2.12l-1.63,1.31,.86,2.29Z" fill="#000d6e"/></g></g></svg>