<svg xmlns="http://www.w3.org/2000/svg" viewBox="0 0 40 40" focusable="false" aria-hidden="true"><defs><style>.cls-1{fill:none;}.cls-2{fill:#6c2273;}.cls-3{fill:#b8b2ff;}.cls-4{fill:#000d6e;}</style></defs><g id="Solid"><rect class="cls-1" width="40" height="40"/></g><g id="Icon_Purple" data-name="Icon Purple"><path class="cls-2" d="M30.4571,26.0289h-22a3.5,3.5,0,0,0,0,7h22a3.5,3.5,0,0,0,0-7Z"/><path class="cls-3" d="M14.0447,19.987a3,3,0,1,0-3-3A3,3,0,0,0,14.0447,19.987Zm0-4.0048a1,1,0,1,1-1,1A1,1,0,0,1,14.0447,15.9822Z"/><path class="cls-3" d="M23.02,11.9823a3,3,0,1,0-3-3A3,3,0,0,0,23.02,11.9823ZM23.02,8a1,1,0,1,1-1,1A1,1,0,0,1,23.02,8Z"/><path class="cls-3" d="M18.0245,16.7872l4.45-3.86a3.9762,3.9762,0,0,1-3.4247-3.6483l-4.35,3.7738A3.9826,3.9826,0,0,1,18.0245,16.7872Z"/><circle class="cls-2" cx="14.0447" cy="16.9822" r="1"/><circle class="cls-2" cx="23.0195" cy="9" r="1"/><path class="cls-3" d="M17.97,19.9865H16.6658a3.9337,3.9337,0,0,1-5.2423,0H9.9993L7.9849,24.9838h12Z"/><path class="cls-4" d="M34.0972,14.371A4.491,4.491,0,0,0,30.11,13.13l-3.212-3.2119a3.9856,3.9856,0,0,1-2.7565,2.8847l2.7595,2.76a4.4811,4.4811,0,0,0,5.6426,6.18l-2.7143-3.868,1.4077-1.4077,3.868,2.7143A4.4962,4.4962,0,0,0,34.0972,14.371Z"/></g></svg>