<?xml version="1.0" encoding="iso-8859-1"?><!--Generator: Adobe Illustrator 26.2.1, SVG Export Plug-In . SVG Version: 6.00 Build 0)--><svg version="1.1" xmlns="http://www.w3.org/2000/svg" xmlns:xlink="http://www.w3.org/1999/xlink" x="0px" y="0px" viewBox="0 0 40 40" style="enable-background:new 0 0 40 40" xml:space="preserve" focusable="false" aria-hidden="true"><g id="Solid"><rect style="fill:none" width="40" height="40"/></g><g id="Icon_Green"><g><path style="fill:none" d="M25.259,20.744l0,0.004c0.023-0.01,0.049-0.008,0.071-0.021c0.074,0.201,0.164,0.391,0.264,0.573
			c-0.101-0.183-0.191-0.375-0.266-0.577C25.307,20.736,25.282,20.733,25.259,20.744z"/><polygon style="fill:none" points="32.517,24.536 32.516,24.536 32.517,24.536 		"/><path style="fill:none" d="M33.322,24.804c-0.156-0.062-0.327-0.118-0.501-0.172l0,0C32.995,24.686,33.163,24.743,33.322,24.804z
			"/><path style="fill:none" d="M27.189,24.431c0.015,0.014,0.034,0.023,0.049,0.036C27.223,24.453,27.204,24.444,27.189,24.431
			L27.189,24.431z"/><path style="fill:none" d="M25.612,21.336c0.012,0.022,0.029,0.04,0.042,0.062c0.04,0.069,0.097,0.122,0.141,0.187
			c-0.044-0.066-0.1-0.119-0.14-0.187C25.641,21.377,25.624,21.358,25.612,21.336z"/><path style="fill:none" d="M32.01,20.733c0.077,0.041,0.158,0.067,0.244,0.071C32.171,20.8,32.081,20.774,32.01,20.733
			C32.01,20.733,32.01,20.733,32.01,20.733z"/><polygon style="fill:none" points="30.419,23.534 30.364,22.76 30.364,22.76 		"/><path style="fill:none" d="M25.039,17.252c-0.001-0.177-0.002-0.342-0.003-0.468l-0.004,0.004
			c0.001,0.125,0.003,0.289,0.004,0.464c0,0.003,0,0.007,0,0.01c0.003,0.322,0.006,0.694,0.009,1.03
			c-0.001-0.338-0.003-0.711-0.006-1.034C25.039,17.257,25.039,17.254,25.039,17.252z"/><path style="fill:none" d="M32.779,18.926L32.779,18.926c-0.132-0.172-0.304-0.286-0.496-0.289
			c-0.001-0.145-0.003-0.314-0.004-0.489c-0.001,0-0.002-0.001-0.003-0.001c0.002,0.176,0.004,0.346,0.006,0.493
			C32.475,18.641,32.646,18.754,32.779,18.926z"/><path style="fill:none" d="M25.046,18.63c-0.171,0-0.32,0.095-0.447,0.229c0,0,0,0,0,0C24.725,18.725,24.874,18.63,25.046,18.63z
			"/><polygon style="fill:none" points="30.44,23.861 30.419,23.534 30.44,23.861 		"/><path style="fill:none" d="M31.791,21.198c-0.239,0.458-0.549,0.859-0.919,1.183C31.243,22.059,31.554,21.657,31.791,21.198z"/><path style="fill:none" d="M26.867,24.054c0.027,0.04,0.064,0.071,0.094,0.109c0.021,0.028,0.046,0.052,0.068,0.079
			C26.974,24.18,26.914,24.124,26.867,24.054L26.867,24.054z"/><path style="fill:none" d="M30.257,17.517c0.389,0.133,0.772,0.255,1.118,0.362C31.029,17.772,30.647,17.65,30.257,17.517z"/><path style="fill:none" d="M33.034,19.719c0-0.025-0.01-0.045-0.011-0.07C33.024,19.674,33.034,19.694,33.034,19.719
			L33.034,19.719z"/><path style="fill:none" d="M32.274,20.81c0.15,0,0.281-0.079,0.399-0.186c-0.118,0.107-0.25,0.186-0.401,0.186
			C32.272,20.809,32.273,20.81,32.274,20.81z"/><circle style="fill:#94E3D4" cx="17.357" cy="7.796" r="0.807"/><path style="fill:#94E3D4" d="M13.12,7.207c-0.445,0-0.807,0.362-0.807,0.807c0,0.445,0.362,0.808,0.807,0.808
			s0.807-0.362,0.807-0.808C13.927,7.569,13.565,7.207,13.12,7.207z"/><path style="fill:#000D6E" d="M11.002,7.713c0.033-0.292-0.089-0.775-0.044-1.318c0.069-0.833,0.498-1.499,0.064-1.617
			c-0.033-0.009-0.06-0.022-0.104-0.025c-0.62-0.033-1.182,0.667-1.256,1.564C9.599,7.079,9.91,7.732,10.384,7.934
			c0.147-0.147,0.316-0.253,0.508-0.253C10.931,7.681,10.964,7.706,11.002,7.713z"/><path style="fill:#000D6E" d="M15.211,10.359c-0.9-0.014-1.623,0.477-1.615,1.097c0.008,0.621,0.723,0.186,1.623,0.201
			c0.9,0.014,1.644,0.472,1.636-0.148C16.847,10.889,16.111,10.374,15.211,10.359z"/><path style="fill:#000D6E" d="M19.409,6.395c0.046,0.555-0.084,1.049-0.043,1.339c0.061-0.018,0.117-0.053,0.181-0.053
			c0.182,0,0.341,0.096,0.483,0.228c0.446-0.225,0.735-0.857,0.675-1.592c-0.074-0.897-0.636-1.597-1.256-1.564
			c-0.022,0.001-0.033,0.01-0.052,0.012C18.875,4.844,19.338,5.53,19.409,6.395z"/><path style="fill:#1B5951" d="M14.891,8.369h0.761c0.241,0.715,0.91,1.234,1.705,1.234c0.997,0,1.807-0.811,1.807-1.807
			S18.354,5.99,17.357,5.99c-0.848,0-1.557,0.59-1.75,1.379h-0.804c-0.261-0.678-0.914-1.162-1.682-1.162
			c-0.997,0-1.807,0.811-1.807,1.807c0,0.997,0.811,1.808,1.807,1.808C13.995,9.821,14.725,9.196,14.891,8.369z M17.357,6.99
			c0.445,0,0.807,0.362,0.807,0.807s-0.362,0.807-0.807,0.807S16.55,8.241,16.55,7.796S16.913,6.99,17.357,6.99z M13.12,8.821
			c-0.445,0-0.807-0.362-0.807-0.808c0-0.444,0.362-0.807,0.807-0.807s0.807,0.362,0.807,0.807
			C13.927,8.458,13.565,8.821,13.12,8.821z"/><path style="fill:#94E3D4" d="M13.104,17.483c0.479,0.607,1.212,1.003,2.044,1.003c0.922,0,1.729-0.48,2.194-1.201h0.009
			c0.001-0.07,0-0.127,0-0.195c0.003-0.465-0.003-0.88-0.017-1.203c-0.026-0.622-0.067-0.971-0.067-0.971l0.007-1.022
			c1.083-0.737,1.897-2.046,2.215-3.623c0.005,0.001,0.011,0.001,0.016,0.002c0.015,0.001,0.027,0.012,0.042,0.012
			c0.145,0,0.277-0.06,0.399-0.147c0.297-0.204,0.507-0.616,0.507-1.104c0-0.009-0.003-0.016-0.003-0.024
			c0-0.01,0.004-0.018,0.004-0.027c0-0.458-0.175-0.842-0.424-1.074c-0.142-0.132-0.301-0.228-0.483-0.228
			c-0.064,0-0.121,0.034-0.181,0.053c-0.041-0.29,0.089-0.784,0.043-1.339c-0.071-0.865-0.534-1.551-0.012-1.629
			c-0.478-1.397-2.144-2.692-4.176-2.7V2.065c-0.003,0-0.006,0-0.009,0c-0.003,0-0.006,0-0.009,0v0.001
			c-2.038,0.008-3.708,1.31-4.181,2.712c0.435,0.118,0.005,0.784-0.064,1.617c-0.045,0.543,0.077,1.026,0.044,1.318
			c-0.038-0.007-0.071-0.032-0.109-0.032c-0.193,0-0.361,0.106-0.508,0.253c-0.235,0.235-0.398,0.607-0.398,1.05
			c0,0.19,0.031,0.367,0.082,0.53c0.011,0.038,0.033,0.065,0.047,0.101c0.156,0.394,0.439,0.672,0.777,0.672
			c0.011,0,0.021-0.009,0.032-0.009c0.033-0.002,0.066-0.008,0.098-0.014c0.311,1.551,1.101,2.847,2.156,3.593l0.005,1.06
			c0,0-0.041,0.349-0.067,0.971C13.099,16.3,13.092,16.846,13.104,17.483z M15.219,11.657c-0.9-0.014-1.615,0.42-1.623-0.201
			c-0.008-0.62,0.715-1.112,1.615-1.097c0.9,0.014,1.636,0.529,1.644,1.15C16.863,12.13,16.119,11.672,15.219,11.657z M13.12,9.821
			c-0.997,0-1.807-0.811-1.807-1.808c0-0.996,0.811-1.807,1.807-1.807c0.768,0,1.422,0.484,1.682,1.162h0.804
			c0.193-0.789,0.902-1.379,1.75-1.379c0.997,0,1.807,0.811,1.807,1.807s-0.811,1.807-1.807,1.807c-0.795,0-1.465-0.52-1.705-1.234
			h-0.761C14.725,9.196,13.995,9.821,13.12,9.821z"/><path style="fill:#1B5951" d="M14.318,27.147c-0.42-2.399-0.784-4.568-0.88-5.407c-0.057-0.499-0.115-1.023-0.174-1.592
			c-0.028-0.273-0.051-0.534-0.071-0.789c-0.003-0.035-0.005-0.07-0.008-0.104c-0.012-0.155-0.022-0.306-0.031-0.453
			c-0.03-0.482-0.044-0.914-0.051-1.317c-0.012-0.637-0.004-1.184,0.013-1.596c0.026-0.622,0.067-0.971,0.067-0.971l-0.095,0.048
			l-6.421,3.244c-0.777,0.393-1.308,1.147-1.416,2.011L3.997,36h7.762c-0.167-0.607-0.241-1.282-0.184-2.022
			C11.77,31.432,13.302,28.596,14.318,27.147z"/><path style="fill:#FA9319" d="M25.046,20.809c-0.16,0-0.298-0.086-0.419-0.205c0.121,0.12,0.259,0.206,0.417,0.206
			c0.077,0,0.147-0.032,0.216-0.063l0-0.004C25.19,20.776,25.12,20.809,25.046,20.809z"/><path style="fill:#1B5951" d="M23.395,21.128c0.02,0.024,0.034,0.052,0.052,0.078v-0.616v-1.711c0-0.159,0.013-0.313,0.023-0.468
			c0,0,0,0,0,0c0.008-0.118,0.033-0.229,0.054-0.341l-6.144-3.104l-0.095-0.048c0,0,0.041,0.349,0.067,0.971
			c0.013,0.32,0.018,0.741,0.015,1.203c-0.001,0.132,0.001,0.251-0.002,0.393c-0.008,0.404-0.021,0.836-0.051,1.317
			c-0.009,0.148-0.02,0.299-0.031,0.453c-0.003,0.035-0.005,0.069-0.008,0.104c-0.02,0.256-0.043,0.517-0.071,0.789
			c-0.015,0.149-0.031,0.288-0.046,0.432h5.054C22.668,20.579,23.099,20.779,23.395,21.128z"/><path style="fill:#FA9319" d="M24.599,18.859C24.599,18.859,24.599,18.859,24.599,18.859c-0.03,0.032-0.067,0.052-0.094,0.091
			c-0.069,0.099-0.124,0.216-0.163,0.346c0.038-0.13,0.094-0.248,0.163-0.346C24.532,18.912,24.568,18.891,24.599,18.859z"/><path style="fill:#FA9319" d="M24.283,19.719L24.283,19.719c0-0.15,0.021-0.293,0.059-0.423
			C24.304,19.427,24.283,19.57,24.283,19.719z"/><path style="fill:#94E3D4" d="M26.867,24.054L26.867,24.054c0.047,0.069,0.107,0.125,0.161,0.188
			c0.052,0.065,0.102,0.132,0.161,0.188c0.015,0.014,0.034,0.023,0.049,0.036c0.108,0.095,0.222,0.184,0.347,0.257
			c0.033,0.019,0.067,0.036,0.101,0.053c0.124,0.064,0.254,0.118,0.392,0.156c0.068,0.019,0.141,0.024,0.212,0.036
			c0.12,0.021,0.238,0.046,0.364,0.046c0.754,0,1.394-0.379,1.786-0.959l0,0v-0.021v-0.051v-0.124l-0.022-0.327l-0.055-0.774l0,0v0
			c0.173-0.106,0.336-0.229,0.491-0.362c0.006-0.005,0.01-0.012,0.016-0.017c0.37-0.323,0.681-0.725,0.919-1.183
			c0.079-0.151,0.157-0.302,0.219-0.465c0,0,0,0,0,0c0.071,0.041,0.161,0.067,0.244,0.071c0.005,0,0.01,0.004,0.016,0.005
			c0.001,0,0.001,0,0.002,0c0,0,0,0,0,0c0.151,0,0.283-0.078,0.401-0.186c0.107-0.097,0.197-0.227,0.261-0.38
			c0.064-0.154,0.101-0.331,0.101-0.524c0-0.025-0.01-0.045-0.011-0.07c-0.015-0.285-0.102-0.541-0.244-0.724
			c-0.133-0.172-0.305-0.285-0.497-0.285c-0.002-0.147-0.004-0.317-0.006-0.493c-0.245-0.071-0.555-0.162-0.901-0.268
			c-0.346-0.107-0.729-0.229-1.118-0.362c-0.779-0.266-1.585-0.575-2.185-0.891c-1.405-0.738-2.419-0.146-3.02,0.141l-0.016,0.017
			c0.001,0.125,0.002,0.291,0.003,0.468c0,0.002,0,0.005,0,0.007c0.002,0.323,0.004,0.696,0.006,1.034
			c0,0.119,0.001,0.234,0.001,0.337c-0.171,0-0.32,0.095-0.447,0.23c-0.03,0.032-0.067,0.052-0.094,0.091
			c-0.069,0.099-0.124,0.216-0.163,0.346s-0.059,0.273-0.059,0.423c0,0.184,0.034,0.354,0.093,0.503s0.142,0.276,0.24,0.374
			c0.003,0.003,0.007,0.005,0.01,0.008c0.121,0.119,0.26,0.205,0.419,0.205c0.074,0,0.144-0.033,0.213-0.066
			c0.023-0.011,0.049-0.008,0.07-0.022c0.074,0.203,0.165,0.394,0.266,0.577c0.006,0.012,0.01,0.025,0.017,0.036
			c0.013,0.022,0.029,0.041,0.042,0.062c0.04,0.069,0.097,0.122,0.14,0.187c0.306,0.461,0.679,0.86,1.126,1.142l-0.055,1.297l0,0.03
			L26.867,24.054L26.867,24.054z"/><path style="fill:#000D6E" d="M23.47,18.41c-0.01,0.155-0.023,0.309-0.023,0.468v1.711v0.616
			c0.253,0.338,0.364,0.761,0.295,1.178l-0.295,1.796v0.867c0.155-0.083,0.326-0.159,0.508-0.229
			c0.165-0.067,0.347-0.127,0.533-0.185c0,0,0,0,0,0v-0.01c0.102-0.029,0.203-0.058,0.305-0.087l2.07-0.481l0.002,0l0-0.03
			l0.055-1.297c-0.447-0.282-0.82-0.681-1.126-1.142c-0.044-0.066-0.1-0.119-0.141-0.187c-0.013-0.022-0.029-0.04-0.042-0.062
			c-0.006-0.011-0.01-0.025-0.017-0.036c-0.1-0.182-0.191-0.372-0.264-0.573c-0.022,0.013-0.048,0.01-0.071,0.021
			c-0.07,0.031-0.139,0.063-0.216,0.063c-0.158,0-0.296-0.086-0.417-0.206c-0.003-0.003-0.007-0.005-0.01-0.008
			c-0.099-0.099-0.182-0.226-0.24-0.374s-0.093-0.318-0.093-0.503l0,0c0-0.15,0.021-0.293,0.059-0.423
			c0.038-0.13,0.094-0.248,0.163-0.346c0.027-0.038,0.063-0.058,0.094-0.091c0.127-0.134,0.276-0.229,0.447-0.229
			c0-0.103,0-0.218-0.001-0.337c-0.003-0.336-0.006-0.708-0.009-1.03c0-0.003,0-0.007,0-0.01c-0.001-0.175-0.003-0.339-0.004-0.464
			l0.004-0.004l0.016-0.017c0.601-0.287,1.615-0.879,3.02-0.141c0.6,0.315,1.406,0.625,2.185,0.891
			c0.389,0.133,0.772,0.255,1.118,0.362c0.346,0.107,0.656,0.198,0.901,0.268c0.001,0,0.002,0.001,0.003,0.001
			c0.002,0.175,0.003,0.344,0.004,0.489c0.192,0.004,0.363,0.117,0.496,0.289l0,0c0.142,0.183,0.229,0.439,0.244,0.724
			c0.001,0.024,0.011,0.045,0.011,0.07l0,0c0,0.193-0.037,0.371-0.101,0.524c-0.064,0.154-0.154,0.283-0.261,0.38
			c-0.118,0.108-0.249,0.186-0.399,0.186c-0.001,0-0.002-0.001-0.003-0.001c0,0,0,0,0,0c-0.001,0-0.001,0-0.002,0
			c-0.005,0-0.01-0.004-0.016-0.005c-0.086-0.004-0.168-0.029-0.244-0.071c-0.061,0.163-0.14,0.314-0.219,0.465
			c-0.237,0.459-0.548,0.861-0.919,1.183c-0.006,0.005-0.01,0.012-0.016,0.017c-0.155,0.134-0.319,0.256-0.491,0.362v0l0.055,0.774
			l0.022,0.327v0v0.124v0.051v0.021c0.001-0.001,0.001-0.001,0.002-0.002l2.074,0.482c0,0,0.001,0,0.001,0
			c0.101,0.029,0.202,0.058,0.304,0.087v0.009c0.175,0.054,0.345,0.11,0.501,0.172c0.173,0.066,0.337,0.136,0.487,0.213v-6.139
			c0-0.16-0.025-0.311-0.036-0.468c0,0,0,0,0,0c-0.042-0.62-0.157-1.208-0.348-1.749c-0.02-0.057-0.046-0.109-0.068-0.166
			c-0.081-0.209-0.161-0.418-0.262-0.611c-0.131-0.257-0.278-0.5-0.442-0.723c-0.019-0.036-0.045-0.071-0.068-0.107
			c-0.026-0.04-0.051-0.081-0.077-0.121c-0.705-1.099-2.141-2-3.814-2c-0.041,0-0.079,0.012-0.12,0.013
			c-0.572,0.015-1.11,0.138-1.602,0.336c-0.64,0.257-1.203,0.629-1.633,1.078c-0.248,0.21-0.473,0.458-0.68,0.729
			c-0.016,0.021-0.033,0.039-0.048,0.06c-0.202,0.272-0.378,0.573-0.532,0.895c-0.01,0.022-0.022,0.042-0.032,0.064
			c-0.129,0.277-0.225,0.577-0.314,0.883c-0.018,0.062-0.047,0.116-0.063,0.178c-0.003,0.011-0.006,0.022-0.008,0.033
			c-0.049,0.193-0.064,0.403-0.096,0.605c-0.014,0.087-0.025,0.175-0.041,0.261C23.503,18.181,23.478,18.292,23.47,18.41
			C23.47,18.41,23.47,18.41,23.47,18.41z"/><path style="fill:#1B5951" d="M32.82,24.632L32.82,24.632v-0.009c-0.101-0.029-0.202-0.058-0.304-0.087l0,0c0,0-0.001,0-0.001,0
			l-2.074-0.482c0,0.001-0.001,0.001-0.002,0.002l0,0c-0.392,0.579-1.032,0.959-1.786,0.959c-0.127,0-0.245-0.025-0.364-0.046
			c-0.071-0.012-0.144-0.017-0.212-0.036c-0.138-0.038-0.267-0.092-0.392-0.156c-0.034-0.018-0.068-0.034-0.101-0.053
			c-0.125-0.073-0.238-0.162-0.347-0.257c-0.015-0.013-0.034-0.022-0.049-0.036l0,0c-0.06-0.057-0.11-0.123-0.161-0.188
			c-0.022-0.027-0.046-0.051-0.068-0.079c-0.03-0.038-0.066-0.069-0.094-0.109l0,0l-0.001,0l-0.002,0l-2.07,0.481
			c-0.102,0.029-0.203,0.058-0.305,0.087v0.01c0,0,0,0,0,0c-0.187,0.058-0.368,0.118-0.533,0.185
			c-0.182,0.07-0.353,0.146-0.508,0.229v-0.867l-0.148,0.902V26v0.64c1.016,1.21,2.535,4.077,2.98,6.306
			c0.257,1.285,0.185,2.253-0.046,3.055h9.799l-0.801-8.576v-0.101c0-1.14-0.504-1.832-1.421-2.306
			c-0.15-0.077-0.313-0.147-0.487-0.213C33.163,24.743,32.995,24.686,32.82,24.632z"/></g><line style="fill:none" x1="19.115" y1="27.017" x2="19.112" y2="27.02"/><g><path style="fill:#94E3D4" d="M22.755,22.222c0.056-0.336-0.203-0.642-0.544-0.642h-6.422c-0.341,0-0.6,0.306-0.544,0.642
			L15.678,25h6.621L22.755,22.222z"/></g><g><path style="fill:#94E3D4" d="M22.284,27c-0.386,0-6.181,0-6.568,0c-0.246,0-5.265,7.168-2.136,10.232
			c0.488,0.478,1.137,0.8,1.869,0.8H19h3.552c0.732,0,1.381-0.322,1.869-0.8C27.549,34.168,22.531,27,22.284,27z"/></g><path style="fill:#000D6E" d="M15.878,28.913c0.216,0.215,0.567,0.215,0.783,0l2.357-2.348l2.357,2.348
		c0.107,0.107,0.248,0.16,0.389,0.161c0.143,0.001,0.286-0.053,0.394-0.161c0.216-0.215,0.216-0.565,0-0.78l-1.596-1.59L20.011,26
		h2.288l0-1h-6.621v1h2.348l-2.148,2.133C15.662,28.348,15.662,28.698,15.878,28.913z"/></g><g id="Guides" style="display:none"/><g id="Grid" style="display:none"><g style="display:inline"><g/><g/><g/><g/><g/><g/><g/><g/><g/><g/><g/><g/><g/><g/><g/><g/><g/><g/><g/><g/><g/><g/><g/><g/><g/><g/><g/><g/><g/><g/><g/><g/><g/><g/><g/><g/><g/><g/><g/><g/></g></g></svg>