<?xml version="1.0" encoding="UTF-8"?><svg xmlns="http://www.w3.org/2000/svg" viewBox="0 0 40 40" focusable="false" aria-hidden="true"><defs><style>.uuid-7d53e6d9-9443-4d92-ae1f-1994aa214e21{fill:none;}.uuid-dc06d412-9e31-4cea-a2ee-5c4d8d33ce90{fill:#000d6e;}.uuid-bccc43ba-190f-46c8-bc40-4651a64e5450{fill:#1b5951;}.uuid-f805a202-0bf6-40d4-8159-93bbc3479cde{fill:#94e3d4;}</style></defs><g id="uuid-c8bdefcc-3f0d-4636-9c7a-5aa879cf28f2"><rect class="uuid-7d53e6d9-9443-4d92-ae1f-1994aa214e21" width="40" height="40"/></g><g id="uuid-6a1cdf3c-dde5-4e25-899a-45377e98906a"><g><path class="uuid-bccc43ba-190f-46c8-bc40-4651a64e5450" d="M34.95,24.23c-.13-.71-.75-1.22-1.47-1.22l-.3,.03-7.19,1.72v.24c0,1.29-1.18,2-2,2H15.01c-.28,0-.5-.22-.5-.5s.22-.5,.5-.5h8.98c.28,0,1-.3,1-1h0s0,0,0,0c0,0,0-.02,0-.03v-.97h0s0-.04,0-.06c0,0,0,0,0-.01-.02-.33-.21-.57-.43-.72,0,0,0,0,0,0-.02-.02-.05-.03-.07-.05,0,0-.01,0-.02,0-.02-.01-.05-.03-.07-.04,0,0,0,0,0,0-.01,0-.02-.01-.04-.02-.01,0-.02-.01-.04-.01,0,0,0,0,0,0,0,0-.02,0-.03-.01,0,0,0,0-.01,0,0,0-.02,0-.03,0,0,0,0,0-.01,0,0,0-.02,0-.03,0,0,0,0,0-.01,0,0,0,0,0,0,0-.02,0-.04-.01-.07-.02,0,0,0,0,0,0-.05,0-.09-.01-.12-.01h-5.02s0,0,0,0c-.52-.01-1.01-.34-1.57-.72-.03-.02-.06-.04-.09-.06,0,0-.02-.01-.02-.02-.03-.02-.06-.04-.08-.06,0,0-.01,0-.02-.01-.07-.05-.14-.09-.21-.14,0,0,0,0-.01,0-.03-.02-.07-.05-.1-.07h0c-.08-.05-.16-.1-.24-.15,0,0,0,0,0,0-.37-.22-.77-.42-1.24-.56-.56-.13-1.13-.2-1.69-.2h-3.68c-.55,0-1,.45-1,1v3.99h0s0,.07,0,.11v1.88s0,.64,1,1c1,.36,6.47,2.61,6.6,2.67,.54,.22,1.12,.33,1.69,.33,.51,0,1.02-.09,1.51-.26,.01,0,14.2-5.84,14.2-5.84,.67-.26,1.06-.96,.93-1.67Z"/><path class="uuid-f805a202-0bf6-40d4-8159-93bbc3479cde" d="M20,12.52c-3.74,0-6.78-3.03-6.78-6.78,3.74,0,6.78,3.03,6.78,6.78Z"/><path class="uuid-dc06d412-9e31-4cea-a2ee-5c4d8d33ce90" d="M30.74,4.03c-5.38,0-9.74,4.36-9.74,9.74v8.25h1V13.73c4.98-.43,8.74-4.6,8.74-9.7Z"/><path class="uuid-f805a202-0bf6-40d4-8159-93bbc3479cde" d="M6.94,21.02h-1.91v7.99h1.91c.6,0,1.08-.48,1.08-1.08v-5.82c0-.6-.48-1.08-1.08-1.08Z"/></g></g></svg>