<?xml version="1.0" encoding="UTF-8"?><svg xmlns="http://www.w3.org/2000/svg" viewBox="0 0 40 40" focusable="false" aria-hidden="true"><defs><style>.cls-1{fill:none;}.cls-2{fill:#fa9319;}.cls-3{fill:#000d6e;}.cls-4{fill:#fae052;}</style></defs><g id="Solid"><rect class="cls-1" width="40" height="40"/></g><g id="Icon_Tangerine"><path class="cls-2" d="M12,25.50000001H6c-.82714844,0-1.5,.67285156-1.5,1.5v4c0,.82714844,.67285156,1.5,1.5,1.5h6c.82714844,0,1.5-.67285156,1.5-1.5v-4c0-.82714844-.67285156-1.5-1.5-1.5Z"/><path class="cls-4" d="M23.70880127,14.93511964c.71307373,0,1.29119873-.57806396,1.29119873-1.29119873v-5.4175415c0-.71313477-.578125-1.29125977-1.29119873-1.29125977h-7.41760254c-.71307373,0-1.29119873,.578125-1.29119873,1.29125977v5.4175415c0,.71313477,.578125,1.29119873,1.29119873,1.29119873h7.41760254Z"/><path class="cls-2" d="M34,25.50000001h-6c-.82714844,0-1.5,.67285156-1.5,1.5v4c0,.82714844,.67285156,1.5,1.5,1.5h6c.82714844,0,1.5-.67285156,1.5-1.5v-4c0-.82714844-.67285156-1.5-1.5-1.5Z"/><path class="cls-3" d="M19.40333661,9.92544444c0-.00068825,.00031284-.00115752,.00031284-.00184577,.00087595-.25102511,.16023609-.40409911,.47920664-.40409911,.28280637,0,.49803954,.15967499,.59013932,.49804582l.82989906-.3133434c-.00031284-.00115752-.00106365-.00209605-.00137649-.00325357-.1178777-.44720886-.4854947-.77187717-1.0007091-.87621027v-.57162646h-.73779928v.56561988c-.66919371,.1104961-1.0315863,.54612977-1.03246225,1.11678642,0,.00065697-.00015642,.00128266-.00015642,.00193963,0,1.44971379,1.93856887,1.10755756,1.94226037,1.92798794,0,.00078211,.00034412,.00134522,.00034412,.00212733,0,.25227648-.18444982,.41245202-.52256611,.41245202-.38116293,0-.65771252-.23375618-.76232585-.59665389l-.82214065,.3067737-.00150163,.00056312c.16592976,.55360671,.60840911,.91600388,1.19854843,1.00209823v.5596133h.73179278v-.57162646c.66972554-.13564866,1.0696588-.57813359,1.0696588-1.17428694,0-.00068825-.00015642-.00122009-.00015642-.00190834-.0017519-1.51622418-1.96096813-1.11766238-1.96096813-1.87915317Z"/><g><polygon class="cls-3" points="20.49371338 19.98437501 20.48138428 14.93511964 19.48138428 14.93511964 19.49371338 19.98437501 8.5 19.98437501 8.5 20.66308595 8.5 20.98437501 8.5 25.50000001 9.5 25.50000001 9.5 20.98437501 19.49615479 20.98437501 19.5 22.55175783 19.5 25.50000001 20.5 25.50000001 20.5 20.98437501 30.5 20.98437501 30.5 25.50000001 31.5 25.50000001 31.5 20.98437501 31.5 20.66308595 31.5 19.98437501 20.49371338 19.98437501"/><path class="cls-2" d="M17,25.50000001c-.82714844,0-1.5,.67285156-1.5,1.5v4c0,.82714844,.67285156,1.5,1.5,1.5h6c.82714844,0,1.5-.67285156,1.5-1.5v-4c0-.82714844-.67285156-1.5-1.5-1.5h-6Z"/></g></g></svg>