<svg xmlns="http://www.w3.org/2000/svg" viewBox="0 0 40 40" focusable="false" aria-hidden="true"><defs><style>.cls-1{fill:none;}.cls-2{fill:#1b5951;}.cls-3{fill:#94e3d4;}.cls-4{fill:#000d6e;}</style></defs><g id="Solid"><rect class="cls-1" width="40" height="40"/></g><g id="Icon_Green" data-name="Icon Green"><path class="cls-2" d="M35.6155,29.6931,29.049,18.2753,22.5416,6.96a2.942,2.942,0,0,0-5.0832,0L10.951,18.2753,4.3846,29.6929a2.8262,2.8262,0,0,0,.0032,2.8523A2.9363,2.9363,0,0,0,6.9263,34H33.0737a2.9363,2.9363,0,0,0,2.5383-1.4545A2.8262,2.8262,0,0,0,35.6155,29.6931ZM33.881,31.5439A.9188.9188,0,0,1,33.0737,32H6.9263a.9188.9188,0,0,1-.8073-.4562.84.84,0,0,1-.0008-.8539l6.5664-11.4176,6.5072-11.315a.9425.9425,0,0,1,1.6163,0l6.5073,11.315L33.8818,30.69A.84.84,0,0,1,33.881,31.5439Z"/><path class="cls-3" d="M27.3154,19.2724,20.8081,7.9574a.9425.9425,0,0,0-1.6163,0l-6.5072,11.315L6.1182,30.69a.84.84,0,0,0,.0008.8539A.9188.9188,0,0,0,6.9263,32H33.0737a.9188.9188,0,0,0,.8073-.4562.84.84,0,0,0,.0008-.8539ZM19.989,30.2776a1.8316,1.8316,0,0,1,0-3.6627,1.8314,1.8314,0,1,1,0,3.6627Zm1.272-5.527H18.6951l-.5483-10.725h3.7063Z"/><polygon class="cls-4" points="18.695 24.751 21.261 24.751 21.853 14.026 18.147 14.026 18.695 24.751"/><path class="cls-4" d="M19.989,26.6149a1.8314,1.8314,0,1,0,1.8422,1.8643A1.8042,1.8042,0,0,0,19.989,26.6149Z"/></g></svg>