<svg xmlns="http://www.w3.org/2000/svg" viewBox="0 0 40 40" focusable="false" aria-hidden="true"><g id="Solid"><rect width="40" height="40" fill="none"/></g><g id="Icon_Red" data-name="Icon Red"><polygon points="12.323 15.559 9.023 19.879 9.023 21.099 9.023 21.099 9.023 19.879 12.323 15.559" fill="none"/><path d="M18.603,19.0187c0,1.33.59,2.03,1.46,2.03s1.46-.7,1.46-2.03a3.3533,3.3533,0,0,0-.084-.756l-.5556.5557a.5.5,0,0,1-.707-.7071l.7735-.7736a1.2725,1.2725,0,0,0-.8869-.339C19.1929,16.9987,18.603,17.7087,18.603,19.0187Z" fill="#ffaca6"/><polygon points="12.323 19.799 12.323 17.689 10.723 19.799 12.323 19.799" fill="#ffaca6"/><polygon points="28.617 19.799 28.617 17.689 27.017 19.799 28.617 19.799" fill="#ffaca6"/><path d="M37,29V9H26.7305L24.207,11.5234h2.7637a.5.5,0,0,1,.3535.8536L22.7615,16.94a4.3556,4.3556,0,0,1,.4614,2.0688c0,2.24-1.26,3.62-3.16,3.62-1.92,0-3.16-1.38-3.16-3.62,0-2.29,1.24-3.59,3.16-3.59a3.04,3.04,0,0,1,2.0717.7341l3.6291-3.6294H23a.5.5,0,0,1-.3535-.8535L25.3164,9H3V29H9.3163l3.83-3.83a.5.5,0,1,1,.707.7071L10.73,29H37ZM14.6833,21.0986h-.72v1.4h-1.66v-1.4h-3.28v-1.22l3.3-4.32h1.64v4.24h.72Zm16.2933,0h-.72v1.4h-1.66v-1.4h-3.28v-1.22l3.3-4.32h1.64v4.24h.72ZM32.5,11a.5.5,0,1,1,.5-.5A.5.5,0,0,1,32.5,11Zm2,0a.5.5,0,1,1,.5-.5A.5.5,0,0,1,34.5,11Z" fill="#ffaca6"/><path d="M37,8H27.73l-.5.5-.5.5H37V29H10.73l-.5.5-.5.5H37a1,1,0,0,0,1-1V9A1,1,0,0,0,37,8Z" fill="#d9304c"/><path d="M3,29V9H25.3164l.5-.5.5-.5H3A1,1,0,0,0,2,9V29a1,1,0,0,0,1,1H8.3163l.5-.5.5-.5H3Z" fill="#d9304c"/><path d="M25.181,31H14.819a.819.819,0,0,0-.819.819V33H26V31.819A.819.819,0,0,0,25.181,31Z" fill="#d9304c"/><circle cx="32.5" cy="10.5" r="0.5" fill="#d9304c"/><circle cx="34.5" cy="10.5" r="0.5" fill="#d9304c"/><path d="M13.9633,15.5587h-1.64l-3.3,4.32v1.22h3.28v1.4h1.66v-1.4h.72v-1.3h-.72Zm-1.64,4.24h-1.6l1.6-2.11Z" fill="#000d6e"/><polygon points="10.723 19.799 12.323 17.689 10.723 19.799 10.723 19.799" fill="#ffaca6"/><path d="M16.903,19.0087c0,2.24,1.24,3.62,3.16,3.62,1.9,0,3.16-1.38,3.16-3.62a4.3556,4.3556,0,0,0-.4614-2.0688l-1.3226,1.3228a3.3533,3.3533,0,0,1,.084.756c0,1.33-.59,2.03-1.46,2.03s-1.46-.7-1.46-2.03c0-1.31.59-2.02,1.46-2.02a1.2725,1.2725,0,0,1,.8869.339l1.1848-1.1849a3.04,3.04,0,0,0-2.0717-.7341C18.1429,15.4187,16.903,16.7187,16.903,19.0087Z" fill="#000d6e"/><path d="M30.2567,15.5587h-1.64l-3.3,4.32v1.22h3.28v1.4h1.66v-1.4h.72v-1.3h-.72Zm-1.64,4.24h-1.6l1.6-2.11Z" fill="#000d6e"/></g></svg>