<?xml version="1.0" encoding="UTF-8"?><svg xmlns="http://www.w3.org/2000/svg" viewBox="0 0 40 40" focusable="false" aria-hidden="true"><g id="Solid"><rect width="40" height="40" fill="none"/></g><g id="Icon"><path d="m29.32,17.19l-11.1-10.23c-1.18-1.06-2.97-1.06-4.15,0L2.98,17.19l.36.39.36.39L14.79,7.75c.77-.69,1.94-.7,2.71,0l11.09,10.23.36-.39.36-.39h0Z" fill="#000d6e"/><path d="m15.51,8.55l-10.03,9.25h0v18.14h3.17s7.58,0,7.58,0l.76-1.51-2.03-3.01,2.55-.92-.02-3.51,2,1.48,3-1.5.51,3.03,1.03-.38.06-2.42-.73.35v-1.58s-.07-6.57-.07-6.57l-.02-2.12,1.65,1.34,1.89,1.54v-2.37l-10.04-9.26c-.37-.32-.91-.31-1.27.01Z" fill="#94e3d4"/><polygon points="31.59 32.82 30.25 33.47 30.25 33.48 30.25 33.49 32.42 38 34.09 38 31.59 32.82" fill="#94e3d4"/><polygon points="25.75 6.06 21.49 6.06 21.49 8.52 25.75 12.46 25.75 6.06" fill="#1b5951"/><rect x="20.5" y="31.42" width="3" height="2" fill="#1b5951"/><rect x="17" y="31.42" width="3" height="2" fill="#1b5951"/><rect x="19.5" y="28.92" width="3" height="2" fill="#1b5951"/><rect x="18.5" y="33.94" width="3" height="2" fill="#1b5951"/><polygon points="35.94 30.75 32.16 27.95 33.22 27.43 28.61 23.93 29.39 23.55 24.29 19.41 24.35 25.98 25.14 25.6 25 31.39 26.06 30.88 25.9 35.58 35.94 30.75" fill="#1b5951"/></g></svg>