<?xml version="1.0" encoding="UTF-8"?><svg id="Calque_1" data-name="Calque 1" xmlns="http://www.w3.org/2000/svg" viewBox="0 0 40 40" focusable="false" aria-hidden="true"><defs><style>.cls-1 {
        fill: none;
      }

      .cls-2 {
        fill: #000d6e;
      }

      .cls-3 {
        fill: #ffa39d;
      }

      .cls-4 {
        fill: #d0304c;
      }</style></defs><path class="cls-1" d="M0,0H40V40H0V0Z"/><g><circle class="cls-1" cx="13.12" cy="17.88" r="1.12"/><path class="cls-4" d="M28.46,27.89c-2.16-2.5-1.88-6.29,.62-8.45,.59-.51,1.27-.9,2.01-1.14-.06-.2-.13-.4-.2-.6h0l-.02-.04c-.12-.32-.26-.63-.41-.93-.12-.24-.25-.47-.39-.7-.01-.02-.03-.04-.04-.06-.44-.7-.98-1.33-1.6-1.88-.08-.07-.15-.14-.23-.2-.17-.14-.35-.28-.54-.41-.09-.06-.18-.12-.27-.18-.14-.09-.28-.2-.43-.28v.02c-.31-.18-.64-.33-.97-.47-.03-.01-.07-.02-.1-.03-.09,.48-.25,.95-.49,1.38h-8.32c-.38-.69-.59-1.46-.59-2.25,0-.02,0-.04,0-.07-.69-1.29-2.04-2.1-3.51-2.1v3.06c-.12,.05-.23,.11-.35,.16-.05,.02-.1,.03-.15,.06-.06,.03-.11,.06-.16,.09-.26,.13-.51,.28-.76,.44-.13,.08-.26,.17-.39,.26-.1,.07-.19,.15-.29,.23-.14,.11-.28,.23-.42,.35-.05,.05-.1,.1-.16,.15-1.07,1.02-1.87,2.29-2.34,3.7h-.74c-.69,0-1.25,.56-1.25,1.25v3.5c0,.69,.56,1.25,1.25,1.25h.74c.73,2.28,2.36,4.17,4.51,5.23,1.06,.51,2.22,.77,3.4,.77h7.2c.14,0,.27-.01,.4-.02,.86-.04,1.7-.22,2.5-.54,.91-.37,1.74-.89,2.46-1.55Zm-15.34-8.89c-.62,0-1.12-.5-1.12-1.12s.5-1.12,1.12-1.12,1.12,.5,1.12,1.12-.5,1.12-1.12,1.12Z"/><path class="cls-3" d="M12.5,32.75c0,.69,.56,1.25,1.25,1.25s1.25-.56,1.25-1.25v-2.8c-.87-.1-1.71-.34-2.5-.72v3.53Zm11-2.77v2.77c0,.69,.56,1.25,1.25,1.25s1.25-.56,1.25-1.25v-3.31c-.8,.32-1.64,.5-2.5,.54h0Zm-6.41-16.06h8.32c.33-.61,.52-1.29,.56-1.98,0-.09,.03-.18,.03-.27,0-2.62-2.11-4.75-4.73-4.75-2.34,0-4.33,1.69-4.69,4-.04,.23-.06,.46-.07,.69,0,.02,0,.04,0,.06,0,.79,.21,1.56,.59,2.25Z"/><path class="cls-2" d="M37.1,36.03h-8.18c-.55,.05-.96,.54-.9,1.09,.05,.47,.41,.84,.88,.9,0,0,.02,0,.02,0h8.18c.55-.05,.96-.54,.91-1.09-.04-.48-.43-.87-.91-.91h0Zm0-3h-8.18c-.55,.05-.96,.54-.91,1.09,.04,.48,.43,.87,.91,.91h8.18c.55-.05,.96-.54,.91-1.09-.04-.48-.43-.87-.91-.91h0Zm0-3h-8.18c-.55,.05-.96,.54-.91,1.09,.04,.48,.43,.87,.91,.91h8.18c.55-.05,.96-.54,.91-1.09-.04-.48-.43-.87-.91-.91h0Z"/></g><path class="cls-2" d="M33.04,18.98h0c-2.76-.02-5.01,2.21-5.03,4.97-.02,2.76,2.21,5.01,4.97,5.03,2.76,.02,5.01-2.21,5.03-4.97,.02-2.76-2.21-5.01-4.97-5.03Zm.44,4.08l-.08,.74h-1.61c0,.05-.01,.11,0,.17,0,.06,0,.13,0,.19h1.56s-.08,.74-.08,.74h-1.25c.29,.43,.78,.69,1.3,.68,.52,.04,1.02-.23,1.26-.69l.99,.67c-.5,.74-1.35,1.17-2.25,1.13-1.16,.03-2.21-.7-2.59-1.8h-.68s.07-.73,.07-.73h.47c0-.06,0-.12,0-.19,0-.06,0-.12,0-.18h-.42s.07-.74,.07-.74h.49c.39-1.1,1.45-1.81,2.62-1.77,.89-.03,1.73,.41,2.23,1.14l-1,.66c-.24-.46-.74-.74-1.26-.7-.52-.02-1.01,.23-1.3,.67h1.45Z"/></svg>