<svg xmlns="http://www.w3.org/2000/svg" viewBox="0 0 40 40" focusable="false" aria-hidden="true"><defs><style>.cls-1{fill:none;}.cls-2{fill:#fae052;}.cls-3{fill:#fa9319;}.cls-4{fill:#000d6e;}</style></defs><g id="Solid"><rect class="cls-1" width="40" height="40"/></g><g id="Icon_Tangerine" data-name="Icon Tangerine"><path class="cls-2" d="M31.9293,25.0254A6.9858,6.9858,0,0,1,33,25.1161V7.0092H7v27H17v-7h6v7h2.22a6.9891,6.9891,0,0,1,6.7093-8.9838ZM25,9h6v6H25Zm0,9.0092h6V24H25ZM15,24H9V18.0092h6Zm0-9H9V9h6Zm8,9H17V18.0092h6Zm0-9H17V9h6Z"/><rect class="cls-3" x="17" y="27.0092" width="6" height="7"/><path class="cls-2" d="M31.9293,26.0254a6,6,0,1,0,6,6A6,6,0,0,0,31.9293,26.0254ZM28.507,30.2476a1.4927,1.4927,0,1,1,1.497,1.497A1.4746,1.4746,0,0,1,28.507,30.2476Zm2.1679,4.9609-1.1577.0088,3.61-6.3838,1.1845-.01ZM33.798,35.3a1.4976,1.4976,0,1,1,1.4971-1.4981A1.4807,1.4807,0,0,1,33.798,35.3Z"/><path class="cls-2" d="M30.5187,30.2476a.52.52,0,1,0-.5147.5517A.5225.5225,0,0,0,30.5187,30.2476Z"/><path class="cls-2" d="M33.798,33.2515a.5175.5175,0,0,0-.5147.5507.5233.5233,0,0,0,.5147.5518.5174.5174,0,0,0,.5141-.5518A.5116.5116,0,0,0,33.798,33.2515Z"/><path class="cls-4" d="M31.4923,30.2476a1.4927,1.4927,0,1,0-1.4883,1.497A1.467,1.467,0,0,0,31.4923,30.2476Zm-2.0117,0a.52.52,0,1,1,1.0381,0,.5177.5177,0,0,1-.5147.5517A.5249.5249,0,0,1,29.4806,30.2476Z"/><polygon class="cls-4" points="33.128 28.833 29.517 35.217 30.675 35.208 34.312 28.824 33.128 28.833"/><path class="cls-4" d="M33.798,32.3052a1.4976,1.4976,0,1,0,1.4971,1.497A1.48,1.48,0,0,0,33.798,32.3052Zm0,2.0488a.5233.5233,0,0,1-.5147-.5518.5175.5175,0,0,1,.5147-.5507.5116.5116,0,0,1,.5141.5507A.5174.5174,0,0,1,33.798,34.354Z"/></g></svg>