<?xml version="1.0" encoding="UTF-8"?><svg id="Calque_1" data-name="Calque 1" xmlns="http://www.w3.org/2000/svg" viewBox="0 0 40 40" focusable="false" aria-hidden="true"><defs><style>.cls-1 {
        fill: none;
      }

      .cls-2 {
        fill: #000d6e;
      }

      .cls-3 {
        fill: #ffa6a0;
      }

      .cls-4 {
        fill: #d3304c;
      }</style></defs><path class="cls-1" d="M0,0H40V40H0V0Z"/><g><path class="cls-4" d="M13.98,13.48c0-2.87,2.87-5.48,6.02-5.49,2.7,.02,5.07,1.79,5.87,4.36,.55-.4,1.15-.72,1.78-.95-1.17-3.23-4.22-5.39-7.66-5.41-4.26,0-8,3.5-8,7.48v4.52h1.98v-4.52Z"/><path class="cls-3" d="M29.33,24.97c-.12-.01-.24-.03-.37-.05-.1-.02-.21-.03-.31-.05-.1-.02-.2-.05-.31-.07-.12-.03-.23-.06-.35-.09-.09-.03-.18-.06-.27-.09-.12-.04-.24-.08-.36-.13-.28-.11-.55-.25-.82-.4-.12-.07-.24-.14-.36-.22-.18-.12-.36-.25-.53-.38-.06-.05-.12-.09-.17-.14-.11-.09-.22-.19-.32-.29-.05-.05-.1-.1-.16-.15-.1-.11-.2-.22-.3-.33-.05-.05-.09-.1-.14-.15-.1-.12-.19-.25-.28-.38-.03-.05-.07-.1-.11-.15-.12-.17-.22-.35-.33-.53-.06-.11-.11-.23-.17-.34-.04-.08-.08-.15-.11-.23-.06-.13-.1-.26-.15-.39-.03-.07-.06-.14-.08-.22-.04-.13-.08-.27-.12-.41-.02-.07-.04-.15-.06-.22-.03-.14-.06-.28-.08-.42,0-.05-.02-.09-.03-.14H10v13.11c.05,.53,.52,.93,1.05,.89H28.95c.53,.04,1-.35,1.05-.89v-7.11c-.18,0-.36-.01-.53-.03-.04,0-.09,0-.13,0Zm-7.36,3.36c.07,.27-.08,.54-.35,.62-.05,.01-.11,.02-.16,.02h-2.93c-.28,.02-.51-.2-.53-.47,0-.05,0-.11,.02-.16l.85-2.69c-.91-.62-1.15-1.86-.53-2.78,.62-.91,1.86-1.15,2.78-.53s1.15,1.86,.53,2.78c-.14,.21-.33,.39-.54,.54l.86,2.68Z"/><path class="cls-2" d="M22,23.99c0-1.1-.89-2-2-2-1.1,0-2,.89-2,2,0,.66,.33,1.28,.88,1.66l-.85,2.69c-.07,.27,.09,.54,.35,.62,.05,.01,.1,.02,.16,.02h2.93c.28,.02,.51-.2,.53-.47,0-.05,0-.11-.02-.16l-.86-2.68c.55-.37,.89-.99,.89-1.66h0Z"/></g><path class="cls-4" d="M30,12c-3.31,0-6,2.69-6,6s2.69,6,6,6,6-2.69,6-6-2.69-6-6-6Zm.29,5.1l-.07,.73h-1.59c0,.06,0,.12,0,.18,0,.06,0,.12,0,.19h1.53l-.07,.72h-1.23c.28,.43,.77,.68,1.29,.67,.51,.04,1-.23,1.24-.69l.98,.66c-.49,.73-1.33,1.16-2.21,1.12-1.15,.04-2.19-.67-2.56-1.76h-.67l.07-.72h.47c0-.06,0-.12,0-.19,0-.06,0-.12,0-.18h-.41l.07-.73h.48c.38-1.09,1.42-1.8,2.57-1.76,.88-.03,1.71,.39,2.2,1.12l-.98,.66c-.24-.46-.73-.72-1.25-.68-.51-.02-1,.23-1.28,.67h1.42Z"/></svg>