<svg xmlns="http://www.w3.org/2000/svg" viewBox="0 0 40 40" focusable="false" aria-hidden="true"><g id="Solid"><rect width="40" height="40" fill="none"/></g><g id="Icon_Green" data-name="Icon Green"><path d="M30,12a6,6,0,1,0,6,6A6,6,0,0,0,30,12Zm-2.5879,6.8551a.721.721,0,0,0,.7486-.5795l.5756.2334a1.3143,1.3143,0,0,1-1.3161.9136,1.451,1.451,0,0,1,.004-2.9018,1.32,1.32,0,0,1,1.3121.9136l-.5756.2334a.7288.7288,0,0,0-.7526-.5795.8859.8859,0,0,0,.004,1.7668Zm4.069.5152h-.6V18.2111H29.8148V19.37h-.6V16.5731h.6v1.1027h1.0666V16.5731h.6Zm2.5355-2.278h-1.26v.62h1.1109v.5192H32.7568V19.37h-.6V16.5731h1.8594Z" fill="#1b5951"/><path d="M13.9783,13.4822c0-2.8689,2.8689-5.4806,6.0217-5.4859a6.2077,6.2077,0,0,1,5.8727,4.3626,6.9808,6.9808,0,0,1,1.783-.9464A8.2026,8.2026,0,0,0,20,6.0005c-4.2625.0052-8,3.499-8,7.4817V18h1.9783Z" fill="#1b5951"/><path d="M29.335,24.9663c-.1238-.0117-.2445-.0329-.3664-.051-.1031-.0152-.2069-.0275-.3084-.0472-.104-.02-.2054-.0472-.3077-.0721-.1163-.0281-.2326-.0555-.3465-.0893-.0913-.0272-.18-.0589-.27-.09-.1219-.0417-.2428-.0845-.3615-.1326-.0807-.0327-.16-.0683-.2388-.104-.1232-.0554-.2446-.1133-.3639-.1756-.0722-.0377-.1431-.0766-.2138-.1167q-.1827-.1037-.358-.2178c-.0641-.0416-.1279-.0834-.1905-.127-.1177-.0821-.2317-.1684-.344-.2574-.0579-.0458-.1162-.0907-.1726-.1382-.1113-.0941-.2178-.193-.323-.2937-.0517-.0495-.1048-.0972-.155-.1482-.1045-.1064-.2031-.2181-.3008-.3309-.0446-.0515-.0917-.1007-.1349-.1535-.0991-.1215-.1912-.2487-.2821-.3768-.0354-.05-.0743-.0968-.1084-.1476q-.1738-.259-.3248-.534c-.0614-.1117-.114-.2284-.1694-.3435-.0369-.0771-.0771-.1521-.1112-.2306-.055-.1258-.1015-.2556-.149-.3852-.0265-.0722-.0553-.1431-.0793-.2163-.0441-.1336-.0806-.27-.1168-.4072-.0193-.0735-.04-.1463-.0569-.2208-.0317-.1383-.0568-.2788-.08-.42-.0077-.0468-.02-.0921-.0266-.1393H10V32.111A.9813.9813,0,0,0,11.0527,33H28.9473A.9813.9813,0,0,0,30,32.111V25c-.18,0-.3569-.0136-.5336-.027C29.4229,24.97,29.3783,24.97,29.335,24.9663Zm-7.3576,3.3582a.5025.5025,0,0,1-.5121.635H18.5347a.5027.5027,0,0,1-.5127-.6333l.8545-2.6858a2,2,0,1,1,2.2375.0066Z" fill="#94e3d4"/><path d="M22,23.9863A2,2,0,1,0,18.8765,25.64l-.8545,2.6858a.5027.5027,0,0,0,.5127.6333h2.9306a.5025.5025,0,0,0,.5121-.635L21.114,25.647A1.9974,1.9974,0,0,0,22,23.9863Z" fill="#000d6e"/></g></svg>