<svg xmlns="http://www.w3.org/2000/svg" viewBox="0 0 40 40" focusable="false" aria-hidden="true"><defs><style>.cls-1{fill:none;}.cls-2{fill:#94e3d4;}.cls-3{fill:#1b5951;}.cls-4{fill:#000d6e;}</style></defs><g id="Solid"><rect class="cls-1" width="40" height="40"/></g><g id="Icon_Green" data-name="Icon Green"><path class="cls-2" d="M27.0673,3.2288a20.9378,20.9378,0,0,0-14.1346,0L5,6.0788V21.8944C5,29.52,14.4908,36.9892,20.002,37,25.51,36.9892,35,29.52,35,21.8944V6.0788ZM23,10h4V25.9941A1.0059,1.0059,0,0,1,26,27H23Zm-5,5.0354c.11-.08,1.9683,0,4,0V27H18ZM13,13h4V27H14a1.0048,1.0048,0,0,1-1-1.0037ZM28,29H12V28H28Z"/><path class="cls-3" d="M14,27h3V13H13V25.9963A1.0048,1.0048,0,0,0,14,27Z"/><path class="cls-3" d="M22,15.0354c-2.0317,0-3.89-.08-4,0V27h4Z"/><path class="cls-3" d="M27,25.9941V10H23V27h3A1.0059,1.0059,0,0,0,27,25.9941Z"/><rect class="cls-4" x="12" y="28" width="16" height="1"/></g></svg>