<?xml version="1.0" encoding="UTF-8"?><svg xmlns="http://www.w3.org/2000/svg" viewBox="0 0 40 40" focusable="false" aria-hidden="true"><defs><style>.cls-1{fill:none;}.cls-2{fill:#000d6e;}.cls-3{fill:#1b5951;}.cls-4{fill:#94e3d4;}</style></defs><g id="Solid"><rect class="cls-1" width="40" height="40"/></g><g id="Icon_Green"><g><circle class="cls-1" cx="12" cy="21.50000001" r="1.5"/><circle class="cls-1" cx="28" cy="21.50000001" r="1.5"/><path class="cls-3" d="M31.5,24.16589357v-3.62744141c0-.52813721-.10021973-1.05096436-.29486084-1.53845215l-.97674561-3H9.77160645l-.97674561,3c-.19464111,.48748779-.29486084,1.01031494-.29486084,1.53845215v5.46154785H25.11035156c1.26281738-1.23522949,2.98779297-2,4.88964844-2,.51519775,0,1.01617432,.05975342,1.5,.16589355Zm-19.5-1.16589355c-.82843018,0-1.5-.67156982-1.5-1.5s.67156982-1.5,1.5-1.5,1.5,.67156982,1.5,1.5-.67156982,1.5-1.5,1.5Zm16,0c-.82843018,0-1.5-.67156982-1.5-1.5s.67156982-1.5,1.5-1.5,1.5,.67156982,1.5,1.5-.67156982,1.5-1.5,1.5Z"/><path class="cls-3" d="M8.5,30.00000001c0,.55224609,.44769287,1,1,1h3c.55230713,0,1-.44775391,1-1v-3h-5v3Z"/><rect class="cls-3" x="30.5" y="13.00000001" width="3" height="2" rx=".5" ry=".5"/><rect class="cls-3" x="6.5" y="13.00000001" width="3" height="2" rx=".5" ry=".5"/><path class="cls-4" d="M27.44549561,8.84613038c-.44641113-1.11791992-1.49316406-1.84613037-2.65380859-1.84613037H15.20831299c-1.16064453,0-2.20739746,.72821045-2.65380859,1.84613037l-2.45733643,6.15386963H29.90283203l-2.45733643-6.15386963Z"/></g><path class="cls-2" d="M30,25c-3.31365967,0-6,2.68634033-6,6,0,3.3137207,2.68634033,6,6,6,3.3137207,0,6-2.6862793,6-6,0-3.31365967-2.6862793-6-6-6Zm.54345703,5.17871094l-.0546875,.61230469h-1.78808594c-.0078125,.078125-.0078125,.1640625-.0078125,.25097656,0,.0859375,0,.1640625,.0078125,.24316406h1.70947266l-.0625,.61132812h-1.52148438c.23486328,.65917969,.76074219,1.00390625,1.41162109,1.00390625,.80761719,0,1.22363281-.43164062,1.38818359-1.07421875l.85498047,.25878906c-.24316406,.90917969-.94140625,1.63867188-2.26660156,1.63867188-1.22363281,0-2.11767578-.65039062-2.40820312-1.82714844h-.68212891l.07080078-.61132812h.52539062c-.0078125-.07910156-.0078125-.15722656-.0078125-.24316406,0-.08691406,0-.17285156,.0078125-.25097656h-.45507812l.05517578-.61230469h.50195312c.31347656-1.13671875,1.25488281-1.83496094,2.40771484-1.83496094,1.30957031,0,2.0234375,.77636719,2.25097656,1.67871094l-.87060547,.22753906c-.17285156-.61230469-.59619141-1.08300781-1.36474609-1.08300781-.65869141,0-1.17675781,.36132812-1.41162109,1.01171875h1.70947266Z"/></g></svg>