<?xml version="1.0" encoding="iso-8859-1"?><!--Generator: Adobe Illustrator 26.2.1, SVG Export Plug-In . SVG Version: 6.00 Build 0)--><svg version="1.1" xmlns="http://www.w3.org/2000/svg" xmlns:xlink="http://www.w3.org/1999/xlink" x="0px" y="0px" viewBox="0 0 40 40" style="enable-background:new 0 0 40 40" xml:space="preserve" focusable="false" aria-hidden="true"><g id="Solid"><rect style="fill:none" width="40" height="40"/></g><g id="Icon_Tangerine"><g><rect x="19" y="25" style="fill:#FAE052" width="14" height="9"/></g><polygon style="fill:#FA9319" points="29,6 25,6 25,8.306 29,11.994 	"/><path style="fill:#000D6E" d="M32.339,16.433L21.94,6.844c-1.106-0.992-2.773-0.993-3.884,0.005L7.661,16.433l0,0L8,16.801
		l0.339,0.367l10.39-9.58c0.724-0.651,1.817-0.65,2.538-0.005l10.394,9.585L32,16.801L32.339,16.433L32.339,16.433z"/><path style="fill:#FAE052" d="M18,25v-1h1h11v-7.003l-9.412-8.679c-0.33-0.297-0.848-0.296-1.191,0.013L10,16.997V34h2.551H18V25z
		"/><rect x="21" y="26" style="fill:#000D6E" width="10" height="8"/></g><g id="Guides" style="display:none"/><g id="Grid" style="display:none"><g style="display:inline"><g/><g/><g/><g/><g/><g/><g/><g/><g/><g/><g/><g/><g/><g/><g/><g/><g/><g/><g/><g/><g/><g/><g/><g/><g/><g/><g/><g/><g/><g/><g/><g/><g/><g/><g/><g/><g/><g/><g/><g/></g></g></svg>