<?xml version="1.0" encoding="UTF-8"?><svg xmlns="http://www.w3.org/2000/svg" viewBox="0 0 40 40" focusable="false" aria-hidden="true"><defs><style>.uuid-b7d60fe4-f710-4ee2-a294-b8a1305f3631{fill:none;}.uuid-b3b4f5ab-b03f-4610-b895-43dee7d4a650{fill:#000d6e;}.uuid-3e623037-f9c6-4516-aa00-4dfd4c265d95{fill:#6c2273;}.uuid-f960dc34-dcaa-4496-8e6f-339affc21d45{fill:#b8b2ff;}</style></defs><g id="uuid-0d00d546-9629-4621-888d-5b4af7774bd8"><rect class="uuid-b7d60fe4-f710-4ee2-a294-b8a1305f3631" width="40" height="40"/></g><g id="uuid-66691c92-6cf8-4741-92a3-9e2e0b00443a"><g><path class="uuid-3e623037-f9c6-4516-aa00-4dfd4c265d95" d="M24.8,24.17c-.36-1.04-1.18-1.85-2.23-2.21-2.94-1.01-5.12-1.3-7.74-1.39,0,0,0,0,0,0,0,0,0,0,0,0-2.62,.09-4.8,.38-7.74,1.39-1.04,.36-1.87,1.16-2.23,2.21l-1.17,8.83H25.97l-1.17-8.83Z"/><path class="uuid-f960dc34-dcaa-4496-8e6f-339affc21d45" d="M19,13.06c.05-.18,.1-.36,.13-.54,.04-.11,.06-.27,.07-.45,.03-.41,.02-.94-.03-1.34-.02-.13-.04-.24-.05-.34-.21-.92-1.75-3.28-4.32-3.28s-4.27,2.02-4.3,3.88h0c-.06,.49-.07,1.3,.18,2.08-.35,.14-.6,.59-.6,1.14,0,.65,.37,1.19,.83,1.19,.05,0,.1-.01,.15-.03,.25,1.23,.84,2.28,1.63,2.96-.08,.87-.3,1.95-.67,2.32l-.19,.19,.97,.78,2.05,1.65,2-1.61,1.02-.82-.19-.18c-.37-.36-.58-1.43-.67-2.3,.81-.68,1.4-1.74,1.65-2.97,.04,0,.08,.02,.13,.02,.46,0,.83-.54,.83-1.19,0-.54-.25-.98-.59-1.13Z"/><path class="uuid-b3b4f5ab-b03f-4610-b895-43dee7d4a650" d="M19.17,10.72c-.02-.13-.04-.24-.05-.34-.21-.92-1.75-3.28-4.32-3.28s-4.27,2.02-4.3,3.88h0c-.07,.56-.09,1.51,.28,2.37,.08,.2,.19,.4,.32,.58l.34-2.25c.22,.08,.48,.14,.77,.14,1.47,0,2.62-.67,3.54-1.53,.33,.52,.92,1.03,1.69,1.39,.25,.12,.5,.2,.75,.27,.03,.02,.05,.05,.08,.06,.11,.08,.34,1.91,.34,1.91,.13-.18,.23-.38,.32-.58,.11-.26,.18-.54,.22-.83,.04-.11,.06-.27,.07-.45,.03-.41,.02-.94-.03-1.34Z"/></g><g><path class="uuid-3e623037-f9c6-4516-aa00-4dfd4c265d95" d="M35.68,25.04c-.36-1.04-1.18-1.85-2.23-2.21-2.94-1.01-5.12-1.3-7.74-1.39,0,0,0,0,0,0,0,0,0,0,0,0-2.62,.09-4.8,.38-7.74,1.39-1.04,.36-1.87,1.16-2.23,2.21l-1.17,7.96h22.27l-1.17-7.96Z"/><path class="uuid-f960dc34-dcaa-4496-8e6f-339affc21d45" d="M29.88,13.92c.05-.18,.1-.36,.13-.54,.04-.11,.06-.27,.07-.45,.03-.41,.02-.94-.03-1.34-.02-.13-.04-.24-.05-.34-.21-.92-1.75-3.28-4.32-3.28s-4.27,2.02-4.3,3.88h0c-.06,.49-.07,1.3,.18,2.08-.35,.14-.6,.59-.6,1.14,0,.65,.37,1.19,.83,1.19,.05,0,.1-.01,.15-.03,.25,1.23,.84,2.28,1.63,2.96-.08,.87-.3,1.95-.67,2.32l-.19,.19,.97,.78,2.05,1.65,2-1.61,1.02-.82-.19-.18c-.37-.36-.58-1.43-.67-2.3,.81-.68,1.4-1.74,1.65-2.97,.04,0,.08,.02,.13,.02,.46,0,.83-.54,.83-1.19,0-.54-.25-.98-.59-1.13Z"/><path class="uuid-b3b4f5ab-b03f-4610-b895-43dee7d4a650" d="M30.04,11.58c-.02-.13-.04-.24-.05-.34-.21-.92-1.75-3.28-4.32-3.28s-4.27,2.02-4.3,3.88h0c-.07,.56-.09,1.51,.28,2.37,.08,.2,.19,.4,.32,.58l.34-2.25c.22,.08,.48,.14,.77,.14,1.47,0,2.62-.67,3.54-1.53,.33,.52,.92,1.03,1.69,1.39,.25,.12,.5,.2,.75,.27,.03,.02,.05,.05,.08,.06,.11,.08,.34,1.91,.34,1.91,.13-.18,.23-.38,.32-.58,.11-.26,.18-.54,.22-.83,.04-.11,.06-.27,.07-.45,.03-.41,.02-.94-.03-1.34Z"/></g><path class="uuid-b3b4f5ab-b03f-4610-b895-43dee7d4a650" d="M16.89,21.78c.2,.07,.43,.12,.7,.12,.77,0,1.44-.2,2.04-.51,.67-.35,1.25-.85,1.73-1.38,.32,.74,1.02,1.57,1.73,2.07,.04,.03,.1,.3,.15,.61,.08,.48,.16,1.07,.16,1.07,.11-.14,.18-.3,.26-.46,0-.02,.02-.03,.03-.05,.7-1.64-.16-4.11-1.56-3.94-.27-.35-1.21-.89-2.08-.89s-1.85,.78-2.39,.78c-.35,0-.97-.12-1.3-.62-.17,.5-.1,1,.21,1.19-.4,.28-.85,.08-1.12-.15,0,0,.08,.88,.6,1.55-.06,.48-.08,1.33,.25,2.09,0,.01,.02,.02,.02,.04,.07,.16,.16,.33,.27,.48l.31-1.98Z"/><path class="uuid-f960dc34-dcaa-4496-8e6f-339affc21d45" d="M26.44,33v-1.63c0-.42-.14-.82-.42-1.14-.45-.5-1.14-.72-1.76-.93-.04-.01-.09-.02-.13-.04-.03,0-.06-.02-.09-.02l-.18-.05c-.17-.05-.34-.09-.53-.14-.04-.01-.08-.02-.13-.03-.03,0-.07-.02-.1-.03-.11-.02-.22-.05-.33-.08-.12-.03-.23-.05-.35-.08-.03,0-.06-.01-.09-.02-.04,0-.07-.02-.11-.03-.16-.04-.32-.07-.47-.1-.01,0-.03,0-.04,0,0,0,0,0,0,0,0,0,0,0,0,0,0,0,0,0,0,0,0-.13-.01-.36-.02-.45l-.03-.86c.17-.11,.33-.23,.49-.36,.38-.32,.69-.73,.93-1.19,.08-.15,.16-.3,.22-.46,0,0,0,0,0,0,.08,.04,.17,.07,.26,.08,0,0,0,0,0,0,.15,0,.28-.08,.4-.18,.21-.19,.36-.52,.36-.9,0-.31-.1-.59-.25-.79-.11-.15-.26-.23-.41-.26-.07,.16-.15,.32-.26,.46,0,0,0-.04,0-.07,0-.02,0-.04,0-.07,0-.03-.01-.08-.02-.12,0-.05-.01-.09-.02-.15-.03-.2-.07-.44-.11-.67-.05-.31-.11-.58-.15-.61-.7-.5-1.4-1.33-1.73-2.07-.48,.53-1.06,1.03-1.73,1.38-.28,.15-.58,.26-.89,.35h0c-.17,.05-.35,.09-.53,.11,0,0-.02,0-.03,0-.19,.03-.39,.04-.59,.04-.27,0-.49-.05-.7-.12l-.31,1.98c-.11-.15-.19-.31-.27-.48-.39,.05-.69,.5-.69,1.06,0,.37,.14,.67,.33,.87,.12,.12,.26,.21,.43,.21,.1,0,.19-.03,.28-.09,.07,.2,.16,.39,.26,.57,0,.01,.01,.02,.02,.04,.01,.02,.03,.04,.04,.06,.32,.55,.75,1,1.26,1.32l-.05,.8c-.01,.15-.04,.54-.05,.54-.01,0-.03,0-.04,0-.15,.03-.31,.06-.47,.1-.04,0-.07,.02-.11,.03-.03,0-.06,.01-.09,.02-.12,.03-.23,.05-.35,.08-.11,.03-.22,.06-.33,.08-.04,0-.07,.02-.1,.03-.04,.01-.08,.02-.13,.03-.18,.05-.36,.09-.53,.14l-.18,.05s-.06,.02-.09,.02c-.04,.01-.09,.02-.13,.04-.62,.21-1.31,.43-1.76,.93-.28,.31-.42,.72-.42,1.14v1.63h13.03Z"/><path class="uuid-3e623037-f9c6-4516-aa00-4dfd4c265d95" d="M24.04,33v-3.78l-.18-.05c-.17-.05-.34-.09-.53-.14-.04-.01-.08-.02-.13-.03-.03,0-.07-.02-.1-.03-.11-.02-.22-.05-.33-.08-.12-.03-.23-.05-.35-.08-.03,0-.06-.01-.09-.02-.04,0-.07-.02-.11-.03-.16-.04-.32-.07-.47-.1-.01,0-.03,0-.04,0,0,0,0,0,0,0,0,0,0,0,0,0-.14,.2-.32,.37-.52,.51-.36,.26-.79,.42-1.26,.42s-.91-.16-1.26-.42c-.2-.15-.38-.31-.52-.51,0,0,0,0,0,0,0,0,0,0,0,0-.01,0-.03,0-.04,0-.15,.03-.31,.06-.47,.1-.04,0-.07,.02-.11,.03-.03,0-.06,.01-.09,.02-.12,.03-.23,.05-.35,.08-.11,.03-.22,.06-.33,.08-.04,0-.07,.02-.1,.03-.04,.01-.08,.02-.13,.03-.18,.05-.36,.09-.53,.14l-.18,.05v3.78h8.23Z"/></g></svg>