<?xml version="1.0" encoding="iso-8859-1"?><!--Generator: Adobe Illustrator 26.2.1, SVG Export Plug-In . SVG Version: 6.00 Build 0)--><svg version="1.1" xmlns="http://www.w3.org/2000/svg" xmlns:xlink="http://www.w3.org/1999/xlink" x="0px" y="0px" viewBox="0 0 40 40" style="enable-background:new 0 0 40 40" xml:space="preserve" focusable="false" aria-hidden="true"><g id="Solid"><rect style="fill:none" width="40" height="40"/></g><g id="Icon_Green"><g><g><polygon style="fill:#94E3D4" points="27.935,12.838 30.167,12.838 30.167,15.648 31,16.585 31,6 28.757,6 29.76,11.038 			"/><rect x="9" y="21" style="fill:#1B5951" width="10" height="13"/><rect x="21" y="21" style="fill:#1B5951" width="10" height="13"/><rect x="9" y="6" style="fill:#1B5951" width="10" height="13"/><polygon style="fill:#94E3D4" points="29.167,16.028 29.167,13.838 26.436,13.838 25.276,11.44 23.008,12.65 21,11.647 21,19 
				31,19 31,18.091 			"/><polygon style="fill:#94E3D4" points="22.992,11.525 25.724,10.068 26.885,12.469 28.674,10.704 27.738,6 21,6 21,10.529 			"/></g></g></g><g id="Grid"/></svg>