<?xml version="1.0" encoding="UTF-8"?><svg xmlns="http://www.w3.org/2000/svg" viewBox="0 0 40 40" focusable="false" aria-hidden="true"><g id="Solid"><rect width="40" height="40" fill="none"/></g><g id="Icon_Tangerine" data-name="Icon Tangerine"><g><path d="m18.51,16.08c-3.74,0-6.78-3.03-6.78-6.78,3.74,0,6.78,3.03,6.78,6.78Z" fill="#fa9319"/><path d="m29.25,7.59c-5.38,0-9.74,4.36-9.74,9.74v8.25h1v-8.29c4.98-.43,8.74-4.6,8.74-9.7Z" fill="#000d6e"/></g><path d="m13,24l1.31,11.42c.13.91.9,1.59,1.8,1.59h7.77c.91,0,1.68-.68,1.8-1.59l1.31-11.42h-14Z" fill="#fae052"/><path d="m22.72,6.49l-3.21-3.4-3.1,3.38c-.13.14-.12.36.02.49l.1.09c.14.13.36.12.49-.02l1.98-2.09v5.53s0,0,0,0c0,0,0,0,0,.02,0,.28.22.5.5.5.26,0,.47-.2.49-.46,0,0,0,0,0,0v-5.6s2.11,2.11,2.11,2.11c.13.14.35.15.49.02l.1-.09c.14-.13.15-.35.02-.49Z" fill="#000d6e"/></g></svg>