<?xml version="1.0" encoding="iso-8859-1"?><!--Generator: Adobe Illustrator 26.2.1, SVG Export Plug-In . SVG Version: 6.00 Build 0)--><svg version="1.1" xmlns="http://www.w3.org/2000/svg" xmlns:xlink="http://www.w3.org/1999/xlink" x="0px" y="0px" viewBox="0 0 40 40" style="enable-background:new 0 0 40 40" xml:space="preserve" focusable="false" aria-hidden="true"><g id="Solid"><rect style="fill:none" width="40" height="40"/></g><g id="Icon_Green"><g><path style="fill:#94E3D4" d="M28.433,8.422c0.012-0.107,0.018-0.215,0.018-0.324c0-2.258-2.557-4.088-5.712-4.088
			c-1.448,0-2.77,0.386-3.777,1.022c-0.213-0.017-0.429-0.026-0.648-0.026c-2.767,0-5.074,1.408-5.599,3.277
			c-2.997,0.126-5.373,1.904-5.373,4.08c0,2.258,2.557,4.088,5.712,4.088c1.21,0,2.333-0.27,3.256-0.729
			c0.924,0.46,2.046,0.729,3.256,0.729c1.399,0,2.681-0.36,3.674-0.958c0.993,0.598,2.275,0.958,3.674,0.958
			c3.154,0,5.712-1.83,5.712-4.088C32.626,10.482,30.85,8.898,28.433,8.422z"/><path style="fill:#000D6E" d="M29.824,19.301c-0.091-0.186-0.28-0.303-0.487-0.303h-5.083l4.637-6.206
			c0.18-0.24,0.13-0.581-0.11-0.76c-0.24-0.18-0.581-0.13-0.76,0.11l-5.286,7.074c-0.123,0.165-0.143,0.385-0.051,0.568
			c0.092,0.184,0.28,0.3,0.486,0.3h5.063l-4.496,5.834l-0.319-3.45c-0.02-0.216-0.211-0.374-0.427-0.354l-0.147,0.014
			c-0.215,0.02-0.374,0.211-0.354,0.426l0.48,5.176l5.128-0.855c0.213-0.036,0.358-0.237,0.322-0.451l-0.024-0.146
			c-0.035-0.214-0.237-0.358-0.451-0.323l-3.291,0.549l5.113-6.634C29.893,19.709,29.915,19.487,29.824,19.301z"/><g><path style="fill:#1B5951" d="M9.712,20.099c0.157,0,0.311-0.073,0.409-0.211l1.516-2.14c0.159-0.226,0.106-0.537-0.119-0.697
				c-0.225-0.157-0.537-0.106-0.697,0.119l-1.516,2.14c-0.159,0.226-0.106,0.537,0.119,0.697
				C9.512,20.068,9.612,20.099,9.712,20.099z"/><path style="fill:#1B5951" d="M9.067,22.262c0.318-0.452,0.209-1.076-0.242-1.393c-0.452-0.318-1.076-0.209-1.393,0.242
				c-0.318,0.452-0.209,1.076,0.242,1.393S8.749,22.713,9.067,22.262z"/><path style="fill:#1B5951" d="M14.801,18.963c-0.226-0.158-0.538-0.106-0.697,0.119l-3.706,5.228
				c-0.16,0.226-0.107,0.537,0.119,0.697c0.088,0.062,0.188,0.092,0.289,0.092c0.157,0,0.311-0.073,0.408-0.211l3.706-5.228
				C15.079,19.435,15.026,19.123,14.801,18.963z"/><path style="fill:#1B5951" d="M8.365,25.94c-0.318,0.452-0.209,1.075,0.242,1.393c0.452,0.318,1.075,0.209,1.393-0.242
				s0.209-1.076-0.242-1.393S8.683,25.488,8.365,25.94z"/><path style="fill:#1B5951" d="M16.007,24.53c0.157,0,0.311-0.073,0.408-0.211l3.472-4.897c0.16-0.226,0.107-0.537-0.119-0.697
				c-0.226-0.157-0.538-0.106-0.697,0.119L15.6,23.741c-0.16,0.226-0.107,0.537,0.119,0.697C15.807,24.5,15.907,24.53,16.007,24.53z
				"/><path style="fill:#1B5951" d="M15.347,26.683c0.318-0.452,0.209-1.076-0.242-1.393s-1.076-0.209-1.393,0.242
				s-0.209,1.076,0.242,1.393C14.406,27.243,15.029,27.134,15.347,26.683z"/><path style="fill:#1B5951" d="M20.42,24.08c-0.226-0.158-0.538-0.106-0.697,0.119l-3.046,4.297
				c-0.16,0.226-0.107,0.537,0.119,0.697c0.088,0.062,0.188,0.092,0.289,0.092c0.157,0,0.311-0.073,0.408-0.211l3.046-4.297
				C20.699,24.552,20.646,24.24,20.42,24.08z"/><path style="fill:#1B5951" d="M14.644,30.126c-0.318,0.452-0.209,1.075,0.242,1.393c0.452,0.318,1.075,0.209,1.393-0.242
				c0.318-0.452,0.209-1.075-0.242-1.393S14.962,29.675,14.644,30.126z"/></g></g></g><g id="Guides" style="display:none"/><g id="Grid" style="display:none"><g style="display:inline"><g/><g/><g/><g/><g/><g/><g/><g/><g/><g/><g/><g/><g/><g/><g/><g/><g/><g/><g/><g/><g/><g/><g/><g/><g/><g/><g/><g/><g/><g/><g/><g/><g/><g/><g/><g/><g/><g/><g/><g/></g></g></svg>