<?xml version="1.0" encoding="UTF-8"?>
<svg id="Ebene_1" data-name="Ebene 1" xmlns="http://www.w3.org/2000/svg" viewBox="0 0 1080 1080">
  <defs>
    <style>
      .cls-1 {
        fill: #000d6e;
      }

      .cls-2 {
        fill: #1b5951;
      }

      .cls-3 {
        fill: #94e3d4;
      }
    </style>
  </defs>
  <path class="cls-3" d="m388.53,859h302.95c49.57-42.63,80.96-105.79,80.96-176.3,0-128.37-104.07-232.44-232.44-232.44s-232.44,104.07-232.44,232.44c0,70.5,31.4,133.67,80.96,176.3Z"/>
  <g>
    <path class="cls-2" d="m718.95,568.52h-354.79c-9.47,0-17.14-7.67-17.14-17.14s7.67-17.14,17.14-17.14h354.79c9.47,0,17.14,7.67,17.14,17.14s-7.67,17.14-17.14,17.14Z"/>
    <path class="cls-2" d="m769.65,713.76h-459.3c-9.47,0-17.14-7.67-17.14-17.14s7.67-17.14,17.14-17.14h459.3c9.47,0,17.14,7.67,17.14,17.14s-7.67,17.14-17.14,17.14Z"/>
    <path class="cls-2" d="m707.32,859h-331.53c-9.47,0-17.14-7.67-17.14-17.14s7.67-17.14,17.14-17.14h331.53c9.47,0,17.14,7.67,17.14,17.14s-7.67,17.14-17.14,17.14Z"/>
  </g>
  <g>
    <path class="cls-2" d="m664.89,844.47v-351.79c0-9.47,7.67-17.14,17.14-17.14s17.14,7.67,17.14,17.14v351.79"/>
    <path class="cls-2" d="m380.83,844.47v-351.79c0-9.47,7.67-17.14,17.14-17.14s17.14,7.67,17.14,17.14v351.79"/>
    <path class="cls-2" d="m522.86,843.22v-392.3c13.77-1.18,20.24-1.19,34.28,0v392.3"/>
  </g>
  <rect class="cls-1" x="523.14" y="415" width="33.72" height="35.92"/>
  <rect class="cls-2" x="481.68" y="221" width="116.64" height="194" rx="31.16" ry="31.16"/>
  <path class="cls-2" d="m415.35,456.53c-55.39,0-100.45-45.06-100.45-100.45s45.06-100.45,100.45-100.45,100.45,45.06,100.45,100.45-45.06,100.45-100.45,100.45Zm0-166.62c-36.49,0-66.17,29.68-66.17,66.17s29.68,66.17,66.17,66.17,66.17-29.68,66.17-66.17-29.68-66.17-66.17-66.17Z"/>
</svg>