<?xml version="1.0" encoding="UTF-8"?><svg xmlns="http://www.w3.org/2000/svg" viewBox="0 0 40 40" focusable="false" aria-hidden="true"><defs><style>.cls-1{fill:none;}.cls-2{fill:#000d6e;}.cls-3{fill:#6c2273;}.cls-4{fill:#b8b2ff;}</style></defs><g id="Solid"><rect class="cls-1" width="40" height="40"/></g><g id="Icon"><circle class="cls-2" cx="6.5" cy="11.5" r="1.5"/><path class="cls-4" d="m14.3,10c-.83,0-1.5.67-1.5,1.5v17c0,.83.67,1.5,1.5,1.5s1.5-.67,1.5-1.5V11.5c0-.83-.67-1.5-1.5-1.5Z"/><path class="cls-4" d="m19.1,10c-.83,0-1.5.67-1.5,1.5v17c0,.83.67,1.5,1.5,1.5s1.5-.67,1.5-1.5V11.5c0-.83-.67-1.5-1.5-1.5Z"/><path class="cls-4" d="m23.9,10c-.83,0-1.5.67-1.5,1.5v17c0,.83.67,1.5,1.5,1.5s1.5-.67,1.5-1.5V11.5c0-.83-.67-1.5-1.5-1.5Z"/><path class="cls-4" d="m34.99,12.73l-2.99,3.62v12.15c0,.83.67,1.5,1.5,1.5s1.5-.67,1.5-1.5v-15.77Z"/><path class="cls-4" d="m33.5,10c-.83,0-1.5.67-1.5,1.5v3.28l2.97-3.59c-.14-.68-.75-1.19-1.47-1.19Z"/><polygon class="cls-4" points="30.2 24.67 30.2 18.53 27.36 21.96 30.2 24.67"/><path class="cls-4" d="m28.7,10c-.83,0-1.5.67-1.5,1.5v9.09l3-3.63v-5.46c0-.83-.67-1.5-1.5-1.5Z"/><path class="cls-4" d="m27.2,23.19v5.31c0,.37.14.7.36.96l2.64-3.41-3-2.86Z"/><path class="cls-4" d="m28.7,30c.83,0,1.5-.67,1.5-1.5v-.82l-1.77,2.29c.09.02.18.03.27.03Z"/><path class="cls-4" d="m9.5,10c-.31,0-.6.1-.84.26.21.37.34.79.34,1.24,0,.81-.4,1.53-1,1.99v15.01c0,.83.67,1.5,1.5,1.5s1.5-.67,1.5-1.5V11.5c0-.83-.67-1.5-1.5-1.5Z"/><path class="cls-3" d="m32,16.35l-1.8,2.18v6.14l1.34,1.28-1.34,1.73v.82c0,.18-.04.34-.09.5h1.98c-.06-.16-.09-.32-.09-.5v-12.15Z"/><path class="cls-3" d="m17.69,11h-1.98c.06.16.09.32.09.5v17c0,.18-.04.34-.09.5h1.98c-.06-.16-.09-.32-.09-.5V11.5c0-.18.04-.34.09-.5Z"/><path class="cls-3" d="m12.89,11h-1.98c.06.16.09.32.09.5v17c0,.18-.04.34-.09.5h1.98c-.06-.16-.09-.32-.09-.5V11.5c0-.18.04-.34.09-.5Z"/><path class="cls-3" d="m22.49,11h-1.98c.06.16.09.32.09.5v17c0,.18-.04.34-.09.5h1.98c-.06-.16-.09-.32-.09-.5V11.5c0-.18.04-.34.09-.5Z"/><path class="cls-3" d="m27.2,23.19l-1.2-1.15,1.2-1.45v-9.09c0-.18.04-.34.09-.5h-1.98c.06.16.09.32.09.5v17c0,.18-.04.34-.09.5h1.98c-.06-.16-.09-.32-.09-.5v-5.31Z"/><path class="cls-3" d="m30.2,16.96l1.8-2.18v-3.28c0-.18.04-.34.09-.5h-1.98c.06.16.09.32.09.5v5.46Z"/></g></svg>