<?xml version="1.0" encoding="UTF-8"?><svg xmlns="http://www.w3.org/2000/svg" viewBox="0 0 40 40" focusable="false" aria-hidden="true"><defs><style>.uuid-9611fabd-b78e-4e74-99fa-ca7d0db60ad2{fill:none;}.uuid-1005bf32-9974-4f2c-a19a-32d4ebfce59a{fill:#fa9319;}.uuid-3f2c0395-5242-4385-88f8-aa7f7c65f7b4{fill:#000d6e;}.uuid-a3193207-b6dd-42d4-8878-4eed503d46a2{fill:#fae052;}.uuid-de2efa91-2ab1-4d75-8bf5-190bc0caf426{fill:#1b5951;}</style></defs><g id="uuid-e651ed62-8faf-4445-9415-6ba1c7e8b8f9"><rect class="uuid-9611fabd-b78e-4e74-99fa-ca7d0db60ad2" width="40" height="40"/></g><g id="uuid-5ecc0e29-4a54-4ce2-8a4a-082334a9ed63"><path class="uuid-de2efa91-2ab1-4d75-8bf5-190bc0caf426" d="M30.15,32.95h-2.03c-.08-.08-.19-.35-.25-.5-.15-.38-.34-.86-.82-.9-.58-.05-.95,.48-1.24,.91-.08,.12-.2,.29-.29,.39-.08-.17-.17-.51-.23-.72-.18-.69-.37-1.4-.97-1.54-.72-.17-1.44,.59-2.48,2.61-.12,.23-.03,.51,.2,.63,.07,.04,.14,.05,.21,.05,.17,0,.33-.09,.41-.25,.86-1.68,1.31-2.03,1.44-2.11,.11,.15,.22,.6,.29,.85,.18,.69,.37,1.4,1,1.48,.55,.07,.89-.42,1.18-.86,.08-.12,.22-.32,.33-.44,.04,.08,.07,.17,.1,.24,.17,.43,.43,1.08,1.08,1.08h2.06c.26,0,.46-.21,.46-.46s-.21-.46-.46-.46Z"/><circle class="uuid-9611fabd-b78e-4e74-99fa-ca7d0db60ad2" cx="25.98" cy="13.97" r="5"/><path class="uuid-9611fabd-b78e-4e74-99fa-ca7d0db60ad2" d="M29,14.54c0,.23-.19,.41-.41,.41h-1.59v1.59c0,.23-.19,.41-.41,.41h-1.18c-.23,0-.41-.19-.41-.41v-1.59h-1.59c-.23,0-.41-.19-.41-.41v-1.18c0-.23,.19-.41,.41-.41h1.59v-1.59c0-.23,.19-.41,.41-.41h1.18c.23,0,.41,.19,.41,.41v1.59h1.59c.23,0,.41,.19,.41,.41v1.18Z"/><g><path class="uuid-9611fabd-b78e-4e74-99fa-ca7d0db60ad2" d="M28.59,12.95h-1.59v-1.59c0-.23-.19-.41-.41-.41h-1.18c-.23,0-.41,.19-.41,.41v1.59h-1.59c-.23,0-.41,.19-.41,.41v1.18c0,.23,.19,.41,.41,.41h1.59v1.59c0,.23,.19,.41,.41,.41h1.18c.23,0,.41-.19,.41-.41v-1.59h1.59c.23,0,.41-.19,.41-.41v-1.18c0-.23-.19-.41-.41-.41Z"/><path class="uuid-1005bf32-9974-4f2c-a19a-32d4ebfce59a" d="M32,5H8c-.55,0-1,.45-1,1v30.04c0,.55,.45,1,1,1h24c.55,0,1-.45,1-1V6c0-.55-.45-1-1-1Zm-3,9.54c0,.23-.19,.41-.41,.41h-1.59v1.59c0,.23-.19,.41-.41,.41h-1.18c-.23,0-.41-.19-.41-.41v-1.59h-1.59c-.23,0-.41-.19-.41-.41v-1.18c0-.23,.19-.41,.41-.41h1.59v-1.59c0-.23,.19-.41,.41-.41h1.18c.23,0,.41,.19,.41,.41v1.59h1.59c.23,0,.41,.19,.41,.41v1.18Z"/></g><g><path class="uuid-9611fabd-b78e-4e74-99fa-ca7d0db60ad2" d="M28.59,12.95h-1.59v-1.59c0-.23-.19-.41-.41-.41h-1.18c-.23,0-.41,.19-.41,.41v1.59h-1.59c-.23,0-.41,.19-.41,.41v1.18c0,.23,.19,.41,.41,.41h1.59v1.59c0,.23,.19,.41,.41,.41h1.18c.23,0,.41-.19,.41-.41v-1.59h1.59c.23,0,.41-.19,.41-.41v-1.18c0-.23-.19-.41-.41-.41Z"/><path class="uuid-3f2c0395-5242-4385-88f8-aa7f7c65f7b4" d="M25.98,8.97c-2.76,0-5,2.24-5,5s2.24,5,5,5,5-2.24,5-5-2.24-5-5-5Zm3.02,5.57c0,.23-.18,.41-.41,.41h-1.59v1.59c0,.23-.18,.41-.41,.41h-1.17c-.23,0-.42-.18-.42-.41v-1.59h-1.58c-.23,0-.42-.18-.42-.41v-1.17c0-.23,.19-.42,.42-.42h1.58v-1.58c0-.23,.19-.42,.42-.42h1.17c.23,0,.41,.19,.41,.42v1.58h1.59c.23,0,.41,.19,.41,.42v1.17Z"/></g><path class="uuid-a3193207-b6dd-42d4-8878-4eed503d46a2" d="M8,6v30.04h24V6H8Zm17.98,12.97c-2.76,0-5-2.24-5-5s2.24-5,5-5,5,2.24,5,5-2.24,5-5,5Z"/><path class="uuid-1005bf32-9974-4f2c-a19a-32d4ebfce59a" d="M12.53,21h7c.28,0,.5-.22,.5-.5s-.22-.5-.5-.5h-7c-.28,0-.5,.22-.5,.5s.22,.5,.5,.5Z"/><path class="uuid-1005bf32-9974-4f2c-a19a-32d4ebfce59a" d="M24.5,23H12.53c-.28,0-.5,.22-.5,.5s.22,.5,.5,.5h11.97c.28,0,.5-.22,.5-.5s-.22-.5-.5-.5Z"/><path class="uuid-1005bf32-9974-4f2c-a19a-32d4ebfce59a" d="M24.5,26H12.53c-.28,0-.5,.22-.5,.5s.22,.5,.5,.5h11.97c.28,0,.5-.22,.5-.5s-.22-.5-.5-.5Z"/><path class="uuid-1005bf32-9974-4f2c-a19a-32d4ebfce59a" d="M30.56,33.07h-2.03c-.08-.08-.19-.35-.25-.5-.15-.38-.34-.86-.82-.9-.58-.05-.95,.48-1.24,.91-.08,.12-.2,.29-.29,.39-.08-.17-.17-.51-.23-.72-.18-.69-.37-1.4-.97-1.54-.72-.17-1.44,.59-2.48,2.61-.12,.23-.03,.51,.2,.63,.07,.04,.14,.05,.21,.05,.17,0,.33-.09,.41-.25,.86-1.68,1.31-2.03,1.44-2.11,.11,.15,.22,.6,.29,.85,.18,.69,.37,1.4,1,1.48,.55,.07,.89-.42,1.18-.86,.08-.12,.22-.32,.33-.44,.04,.08,.07,.17,.1,.24,.17,.43,.43,1.08,1.08,1.08h2.06c.26,0,.46-.21,.46-.46s-.21-.46-.46-.46Z"/><path class="uuid-1005bf32-9974-4f2c-a19a-32d4ebfce59a" d="M25,3H15c-.83,0-1.5,.67-1.5,1.49v2.02c0,.82,.67,1.49,1.5,1.49h10c.83,0,1.5-.67,1.5-1.49v-2.02c0-.82-.67-1.49-1.5-1.49Z"/></g></svg>