<svg xmlns="http://www.w3.org/2000/svg" viewBox="0 0 40 40" focusable="false" aria-hidden="true"><g id="Solid"><rect width="40" height="40" fill="none"/></g><g id="Icon_Red" data-name="Icon Red"><path d="M16.5646,14.2778l-.0177-.03-.1013-.0384c.033.0232.0657.0465.0984.07Z" fill="none"/><path d="M22.3155,29.8929a37.3979,37.3979,0,0,0-3.029-13.1661l-1.5057-1.0813L17.1376,16.67c.1567.5486.3235,1.18.4931,1.9188a77.68,77.68,0,0,1,1.2609,11.3189,13.452,13.452,0,0,1,3.4239-.015Z" fill="#d9304c"/><path d="M10.2034,13.268A6.8527,6.8527,0,0,0,6,19.1687l5.2888-2.0179c-.0642.096-.1387.1821-.198.2826a6.7807,6.7807,0,0,0,.21,6.913l6.2374-9.9353,9.4629,6.7954a6.8518,6.8518,0,0,0-2.5877-6.7633,6.22,6.22,0,0,0-3.3033-1.125l7.4267-2.7792a6.8523,6.8523,0,0,0-7.0553-1.6462,6.1332,6.1332,0,0,0-2.16,1.3976l2.8262-6.1819A6.8528,6.8528,0,0,0,15.99,7.9241a6.1146,6.1146,0,0,0-.5333,2.3153,6.1627,6.1627,0,0,0-2.3419-1.59,6.8527,6.8527,0,0,0-7.0635,1.611l6.9281,2.6321A6.1637,6.1637,0,0,0,10.2034,13.268Zm6.3435.98.0177.03-.0206.0023c-.0327-.0238-.0654-.0471-.0984-.07Z" fill="#ffaca6"/><path d="M22.3155,29.8929a13.452,13.452,0,0,0-3.4239.015,13.0842,13.0842,0,0,0-8.858,5.05H31.2587A13.0908,13.0908,0,0,0,22.3155,29.8929Z" fill="#000d6e"/></g></svg>