<?xml version="1.0" encoding="UTF-8"?><svg xmlns="http://www.w3.org/2000/svg" viewBox="0 0 40 40" focusable="false" aria-hidden="true"><defs><style>.c{fill:none;}.d{fill:#000d6e;}.e{fill:#ffaca6;}.f{fill:#d9304c;}</style></defs><g id="a"><rect class="c" width="40" height="40"/></g><g id="b"><g><path class="f" d="M29.37501,10.96594H10.62501c-3.10663,0-5.625,2.42682-5.625,5.42041v9.03406c0,1.99573,1.67896,3.61359,3.75,3.61359h1.875c1.88403,0,3.44348-1.33875,3.70978-3.08295l.40216-1.85162,.15448-.56396c-.1651,.04584-.336,.07812-.51642,.07812-1.03552,0-1.875-.8089-1.875-1.80682,0-.99786,.83948-1.80676,1.875-1.80676s1.875,.8089,1.875,1.80676c0,.06799-.01318,.13239-.02075,.19843h7.5415c-.00757-.06604-.02075-.13043-.02075-.19843,0-.99786,.83948-1.80676,1.875-1.80676s1.875,.8089,1.875,1.80676c0,.99792-.83948,1.80682-1.875,1.80682-.18079,0-.35211-.03247-.51758-.07849l.17285,.62976,.37531,1.71887c.23596,1.77692,1.81128,3.15027,3.71942,3.15027h1.875c2.07117,0,3.75-1.61786,3.75-3.61359v-9.03406c0-2.99359-2.51837-5.42041-5.625-5.42041Zm-15.89423,5.04089h-1.4751v1.49805c0,.27637-.22363,.5-.5,.5s-.5-.22363-.5-.5v-1.49805h-1.5249c-.27637,0-.5-.22363-.5-.5s.22363-.5,.5-.5h1.5249v-1.50195c0-.27637,.22363-.5,.5-.5s.5,.22363,.5,.5v1.50195h1.4751c.27637,0,.5,.22363,.5,.5s-.22363,.5-.5,.5Zm16.49921-2.97382c.55225,0,1,.44769,1,1,0,.55225-.44775,1-1,1-.55231,0-1-.44775-1-1,0-.55231,.44769-1,1-1Zm-1.94452,3.9765c-.55231,0-1-.44775-1-1,0-.55231,.44769-1,1-1s1,.44769,1,1c0,.55225-.44769,1-1,1Zm1.98608,1.95776c-.55231,0-1-.44769-1-1,0-.55225,.44769-1,1-1,.55225,0,1,.44775,1,1,0,.55231-.44775,1-1,1Zm1.97198-1.98553c-.55231,0-1-.44769-1-1,0-.55225,.44769-1,1-1,.55225,0,1,.44775,1,1,0,.55231-.44775,1-1,1Z"/><circle class="d" cx="29.97999" cy="14.03302" r="1"/><circle class="d" cx="28.03547" cy="16.00952" r="1"/><circle class="d" cx="31.99354" cy="15.98175" r="1"/><circle class="d" cx="30.02156" cy="17.96729" r="1"/><path class="d" d="M13.48079,15.00684h-1.4751v-1.50195c0-.27637-.22363-.5-.5-.5s-.5,.22363-.5,.5v1.50195h-1.5249c-.27637,0-.5,.22363-.5,.5s.22363,.5,.5,.5h1.5249v1.49805c0,.27637,.22363,.5,.5,.5s.5-.22363,.5-.5v-1.49805h1.4751c.27637,0,.5-.22363,.5-.5s-.22363-.5-.5-.5Z"/><path class="e" d="M14.37501,20c-1.03552,0-1.875,.8089-1.875,1.80676,0,.99792,.83948,1.80682,1.875,1.80682,.18042,0,.35132-.03229,.51642-.07812,.71802-.19928,1.25342-.7959,1.33783-1.53027,.00757-.06604,.02075-.13043,.02075-.19843,0-.99786-.83948-1.80676-1.875-1.80676Z"/><path class="e" d="M27.50001,21.80676c0-.99786-.83948-1.80676-1.875-1.80676s-1.875,.8089-1.875,1.80676c0,.06799,.01318,.13239,.02075,.19843,.08435,.73401,.6192,1.33026,1.33667,1.52991,.16547,.04602,.33679,.07849,.51758,.07849,1.03552,0,1.875-.8089,1.875-1.80682Z"/></g></g></svg>