<?xml version="1.0" encoding="UTF-8"?><svg xmlns="http://www.w3.org/2000/svg" viewBox="0 0 40 40" focusable="false" aria-hidden="true"><defs><style>.uuid-37908238-f3a0-4895-accf-873dca4a3ba1{fill:none;}.uuid-9dd84646-c0c0-4c98-b1f6-ea266df916b3{fill:#000d6e;}.uuid-1789da17-4ead-4625-9a81-65f239aa472d{fill:#ffaca6;}.uuid-e733cbdc-61fc-4aaa-a58d-da8808c33db3{fill:#d9304c;}</style></defs><g id="uuid-dfd82645-dacb-4c57-b886-b541f891488f"><rect class="uuid-37908238-f3a0-4895-accf-873dca4a3ba1" width="40" height="40"/></g><g id="uuid-235a6a39-0b38-4753-88e1-4f9f631eaf2a"><polygon class="uuid-e733cbdc-61fc-4aaa-a58d-da8808c33db3" points="29 6 25 6 25 8.31 29 11.99 29 6"/><path class="uuid-1789da17-4ead-4625-9a81-65f239aa472d" d="M19.4,8.33l-9.4,8.67v17H30V17l-9.41-8.68c-.33-.3-.85-.3-1.19,.01Z"/><path class="uuid-9dd84646-c0c0-4c98-b1f6-ea266df916b3" d="M32.34,16.43L21.94,6.84c-1.11-.99-2.77-.99-3.88,0L7.66,16.43h0s.34,.37,.34,.37l.34,.37L18.73,7.59c.72-.65,1.82-.65,2.54,0l10.39,9.58,.34-.37,.34-.37h0Z"/><g><path class="uuid-e733cbdc-61fc-4aaa-a58d-da8808c33db3" d="M20.52,32h4.55c1.34,0,2.43-1.09,2.43-2.43v-4.55h-6.98v6.97Z"/><g><path class="uuid-9dd84646-c0c0-4c98-b1f6-ea266df916b3" d="M22.44,27.99h3.12c.29,0,.52-.23,.52-.52s-.23-.52-.52-.52h-3.12c-.29,0-.52,.23-.52,.52s.23,.52,.52,.52Z"/><path class="uuid-9dd84646-c0c0-4c98-b1f6-ea266df916b3" d="M25.56,29.01h-3.12c-.29,0-.52,.23-.52,.52s.23,.52,.52,.52h3.12c.29,0,.52-.23,.52-.52s-.23-.52-.52-.52Z"/></g><path class="uuid-e733cbdc-61fc-4aaa-a58d-da8808c33db3" d="M14.93,17.03c-1.34,0-2.43,1.09-2.43,2.43v4.55h6.98v-6.97h-4.55Zm2.11,3.99h-2.08c-.29,0-.52-.23-.52-.52s.23-.52,.52-.52h2.08c.29,0,.52,.23,.52,.52s-.23,.52-.52,.52Z"/><path class="uuid-e733cbdc-61fc-4aaa-a58d-da8808c33db3" d="M12.5,25.04v4.55c0,1.34,1.09,2.43,2.43,2.43h4.55v-6.97h-6.98Zm5.06,3.98h-1.04v1.04c0,.29-.23,.52-.52,.52s-.52-.23-.52-.52v-1.04h-1.04c-.29,0-.52-.23-.52-.52s.23-.52,.52-.52h1.04v-1.04c0-.29,.23-.52,.52-.52s.52,.23,.52,.52v1.04h1.04c.29,0,.52,.23,.52,.52s-.23,.52-.52,.52Z"/><path class="uuid-e733cbdc-61fc-4aaa-a58d-da8808c33db3" d="M25.07,17.02h-4.55v6.97h6.98v-4.55c0-1.34-1.09-2.43-2.43-2.43Zm.4,4.22c.2,.2,.2,.53,0,.73-.1,.1-.23,.15-.37,.15s-.27-.05-.37-.15l-.74-.73-.74,.73c-.1,.1-.23,.15-.37,.15s-.27-.05-.37-.15c-.2-.2-.2-.53,0-.73l.74-.73-.74-.73c-.2-.2-.2-.53,0-.73,.2-.2,.53-.2,.74,0l.74,.74,.74-.74c.2-.2,.53-.2,.74,0,.2,.2,.2,.53,0,.73l-.74,.73,.74,.73Z"/></g></g></svg>