<svg xmlns="http://www.w3.org/2000/svg" viewBox="0 0 40 40" focusable="false" aria-hidden="true"><g id="Solid"><rect width="40" height="40" fill="none"/></g><g id="Icon_Green" data-name="Icon Green"><path d="M11,17v3H29V17a2.0023,2.0023,0,0,1,2-2h2V11a3,3,0,0,0-3-3H10a3,3,0,0,0-3,3v4H9A2.0023,2.0023,0,0,1,11,17Z" fill="#1b5951"/><path d="M8,32a1,1,0,0,0,2,0V30H8Z" fill="#000d6e"/><path d="M30,32a1,1,0,0,0,2,0V30H30Z" fill="#000d6e"/><path d="M35,16H31a1,1,0,0,0-1,1v4H10V17a1,1,0,0,0-1-1H5a1,1,0,0,0-1,1V30H36V17A1,1,0,0,0,35,16Z" fill="#94e3d4"/></g></svg>