<svg xmlns="http://www.w3.org/2000/svg" viewBox="0 0 40 40" focusable="false" aria-hidden="true"><g id="Solid"><rect width="40" height="40" fill="none"/></g><g id="Icon"><path d="M12,28a5,5,0,0,0,5,5h6a5,5,0,0,0,5-5V9H12Zm8-12a2.5,2.5,0,1,1-2.5,2.5A2.5,2.5,0,0,1,20,16Z" fill="#1b5951"/><circle cx="20" cy="18.5" r="1.5" fill="#1b5951"/><rect x="12" y="7" width="16" height="1" fill="#000d6e"/><path d="M6.13,14.35a.48.48,0,0,0,0-.7.5.5,0,0,0-.71,0,7.14,7.14,0,0,0,0,9.66.48.48,0,0,0,.39.19.51.51,0,0,0,.31-.11.5.5,0,0,0,.08-.7C2.51,18.11,6,14.5,6.13,14.35Z" fill="#94e3d4"/><path d="M8.37,15.7a.49.49,0,0,0,0-.7.48.48,0,0,0-.7,0,5.15,5.15,0,0,0,0,7,.48.48,0,0,0,.39.19A.51.51,0,0,0,8.32,22a.5.5,0,0,0,.08-.7A4.11,4.11,0,0,1,8.37,15.7Z" fill="#94e3d4"/><path d="M9.77,17.1a.51.51,0,0,0-.71,0,2,2,0,0,0,0,2.76.51.51,0,0,0,.39.18.55.55,0,0,0,.32-.1.51.51,0,0,0,.07-.71,1,1,0,0,1,0-1.42A.51.51,0,0,0,9.77,17.1Z" fill="#94e3d4"/><path d="M34.58,13.65a.5.5,0,0,0-.71,0,.48.48,0,0,0,0,.7c.15.15,3.64,3.74,0,8.34a.5.5,0,0,0,.08.7.51.51,0,0,0,.31.11.48.48,0,0,0,.39-.19A7.14,7.14,0,0,0,34.58,13.65Z" fill="#94e3d4"/><path d="M32.34,15a.48.48,0,0,0-.7,0,.49.49,0,0,0,0,.7,4.11,4.11,0,0,1,0,5.64.5.5,0,0,0,.08.7.51.51,0,0,0,.31.11.48.48,0,0,0,.39-.19A5.15,5.15,0,0,0,32.34,15Z" fill="#94e3d4"/><path d="M30.94,17.1a.5.5,0,0,0-.7,0,.49.49,0,0,0,0,.7,1,1,0,0,1,0,1.43.51.51,0,0,0,.07.71.55.55,0,0,0,.32.1.51.51,0,0,0,.39-.18A2,2,0,0,0,30.94,17.1Z" fill="#94e3d4"/></g></svg>