<?xml version="1.0" encoding="iso-8859-1"?><!--Generator: Adobe Illustrator 26.2.1, SVG Export Plug-In . SVG Version: 6.00 Build 0)--><svg version="1.1" xmlns="http://www.w3.org/2000/svg" xmlns:xlink="http://www.w3.org/1999/xlink" x="0px" y="0px" viewBox="0 0 40 40" xml:space="preserve" focusable="false" aria-hidden="true" enable-background="new 0 0 40 40"><g id="Solid"><rect width="40" height="40" fill="none"/></g><g id="Icon_Purple"><circle cx="20" cy="16.041" r="9" fill="#B8B2FF"/><line x1="13.012" y1="27.423" x2="13.012" y2="27.423" fill="none" stroke="#000D6E" stroke-width="0" stroke-linecap="round" stroke-linejoin="round"/><path d="M20.294,9.111c-0.165-0.149-0.424-0.149-0.595,0.006L15,13.466V22h4h2h4v-8.534L20.294,9.111z" fill="#000D6E"/><path d="M35.342,30.405
		c-0.063,0.103-0.123,0.203-0.176,0.289" fill="none" stroke="#1B5951" stroke-width="0" stroke-linecap="round" stroke-linejoin="round"/><path d="M35.166,30.694
		c-0.04,0.066-0.077,0.127-0.122,0.2" fill="none" stroke="#1B5951" stroke-width="0" stroke-linecap="round" stroke-linejoin="round"/><path d="M35.568,30.035
		c-0.061,0.1-0.135,0.221-0.225,0.37" fill="none" stroke="#1B5951" stroke-width="0" stroke-linecap="round" stroke-linejoin="round"/><path d="M35.044,30.894
		C35.019,30.936,35,30.967,35,30.967" fill="none" stroke="#1B5951" stroke-width="0" stroke-linecap="round" stroke-linejoin="round"/><path d="M35.769,29.705
		c-0.01,0.017-0.026,0.043-0.042,0.069" fill="none" stroke="#1B5951" stroke-width="0" stroke-linecap="round" stroke-linejoin="round"/><path d="M35.727,29.774
		c-0.042,0.069-0.096,0.158-0.159,0.262" fill="none" stroke="#1B5951" stroke-width="0" stroke-linecap="round" stroke-linejoin="round"/><path d="M37.926,23.975c-0.003-0.015-3.505-14.976-3.505-14.976c-0.152-0.705-0.784-1.203-1.505-1.184
		c-0.721,0.019-1.327,0.548-1.442,1.26l-0.016,0.3l0.558,7.384l0.237,0.038c1.271,0.205,1.786,1.486,1.656,2.293l-1.434,8.885
		c-0.044,0.273-0.301,0.458-0.573,0.414c-0.273-0.044-0.458-0.301-0.414-0.573l1.434-8.885c0.045-0.281-0.134-1.035-0.828-1.147h0
		l0,0.001c-0.008-0.002-0.017-0.003-0.025-0.005l-0.962-0.155c-0.693-0.112-1.101,0.547-1.146,0.828l-0.797,4.936l-0.004,0.024
		c0,0,0,0-0.001,0c-0.093,0.514-0.498,0.94-0.966,1.433c-0.462,0.487-1,1.053-1.38,1.829c-0.221,0.536-0.381,1.087-0.47,1.638
		C26.09,29.877,26,38,26,38h6.954c0,0,0.238-4.067,2.046-7.033c1.046-1.727,2.296-3.76,2.343-3.838
		c0.305-0.5,0.507-1.051,0.599-1.623C38.023,25.005,38.02,24.487,37.926,23.975z" fill="#6C2273"/><path d="M35.8,29.654
		c-0.001,0.001-0.012,0.02-0.031,0.05" fill="none" stroke="#1B5951" stroke-width="0" stroke-linecap="round" stroke-linejoin="round"/><path d="M4.361,29.918
		c-0.026-0.043-0.049-0.081-0.07-0.116" fill="none" stroke="#1B5951" stroke-width="0" stroke-linecap="round" stroke-linejoin="round"/><path d="M4.658,30.405c-0.129-0.211-0.226-0.371-0.297-0.487C4.447,30.06,4.554,30.235,4.658,30.405z" fill="#1B5951"/><path d="M5,30.967
		c-0.017-0.028-0.028-0.046-0.044-0.073" fill="none" stroke="#1B5951" stroke-width="0" stroke-linecap="round" stroke-linejoin="round"/><path d="M4.956,30.894c-0.114-0.188-0.213-0.349-0.298-0.489C4.783,30.61,4.896,30.797,4.956,30.894z" fill="#1B5951"/><path d="M4.291,29.803
		c-0.036-0.059-0.06-0.099-0.074-0.121" fill="none" stroke="#1B5951" stroke-width="0" stroke-linecap="round" stroke-linejoin="round"/><path d="M13.187,26.676c-0.38-0.776-0.917-1.342-1.38-1.829c-0.468-0.492-0.873-0.919-0.966-1.433
		c0,0,0,0-0.001,0l-0.004-0.024l-0.797-4.936c-0.045-0.281-0.453-0.94-1.146-0.828l-0.962,0.155
		c-0.008,0.001-0.017,0.003-0.025,0.005l0-0.001h0c-0.694,0.112-0.873,0.866-0.828,1.147l1.434,8.885
		c0.044,0.273-0.141,0.529-0.414,0.573c-0.273,0.044-0.529-0.141-0.573-0.414l-1.434-8.885c-0.13-0.807,0.384-2.088,1.656-2.293
		l0.237-0.038l0.558-7.384l-0.016-0.3c-0.115-0.712-0.721-1.242-1.442-1.26C6.363,7.796,5.731,8.294,5.579,8.999
		c0,0-3.502,14.961-3.505,14.976c-0.094,0.512-0.098,1.03-0.017,1.531c0.092,0.572,0.295,1.123,0.599,1.623
		C2.704,27.206,3.954,29.24,5,30.967C6.808,33.933,7.046,38,7.046,38H14c0,0-0.09-8.123-0.343-9.685
		C13.568,27.763,13.408,27.212,13.187,26.676z" fill="#6C2273"/></g></svg>