<?xml version="1.0" encoding="UTF-8"?><svg xmlns="http://www.w3.org/2000/svg" viewBox="0 0 40 40" focusable="false" aria-hidden="true"><defs><style>.uuid-9c6ea83a-e3a0-466b-9730-a025ef017ca3{fill:none;}.uuid-54217a71-fce1-498a-8828-4734a3fbf620{fill:#fa9319;}.uuid-7b931c48-b32c-4690-959c-4f7c552e812a{fill:#000d6e;}.uuid-f3a6d4d5-f2b0-46d2-a1fc-34517c251a41{fill:#fae052;}</style></defs><g id="uuid-b54ff80f-83f1-4d8a-90ce-ff802b24300e"><rect class="uuid-9c6ea83a-e3a0-466b-9730-a025ef017ca3" width="40" height="40"/></g><g id="uuid-f275d105-7a03-42e7-acb7-148fa93d622d"><g><g><polygon class="uuid-54217a71-fce1-498a-8828-4734a3fbf620" points="24 9 16 9 13 20 27 20 24 9"/><path class="uuid-f3a6d4d5-f2b0-46d2-a1fc-34517c251a41" d="M25,32.01h-4v-11.01h-2v11.01h-4c-.55,0-1,.45-1,1v1h12v-1c0-.55-.45-1-1-1Z"/><rect class="uuid-7b931c48-b32c-4690-959c-4f7c552e812a" x="22.5" y="21" width="1" height="5"/></g><g><path class="uuid-7b931c48-b32c-4690-959c-4f7c552e812a" d="M14.94,3.04l-1.06,1.72v1.18h-.62v-1.18l-1.06-1.72h.69l.68,1.19,.68-1.19h.69Z"/><path class="uuid-7b931c48-b32c-4690-959c-4f7c552e812a" d="M14.54,4.85c0-.66,.49-1.15,1.19-1.15s1.19,.49,1.19,1.15-.5,1.15-1.19,1.15-1.19-.5-1.19-1.15Zm1.76,0c0-.35-.23-.6-.57-.6s-.57,.25-.57,.6,.23,.6,.57,.6,.57-.25,.57-.61Z"/><path class="uuid-7b931c48-b32c-4690-959c-4f7c552e812a" d="M18.7,3.74h.62v2.2h-.58v-.21c-.15,.16-.38,.26-.64,.26-.56,0-.85-.38-.85-.89v-1.37h.62v1.29c0,.24,.16,.41,.42,.41s.42-.17,.42-.4v-1.3Z"/><path class="uuid-7b931c48-b32c-4690-959c-4f7c552e812a" d="M21.88,4.56v1.39h-.61v-1.27c0-.28-.18-.44-.43-.44s-.44,.18-.44,.4v1.3h-.62V3.74h.59v.21c.15-.16,.38-.26,.66-.26,.53,0,.86,.36,.86,.87Z"/><path class="uuid-7b931c48-b32c-4690-959c-4f7c552e812a" d="M25.19,4.39c0,1.03-.64,1.61-1.47,1.61s-1.51-.64-1.51-1.51,.64-1.51,1.51-1.51c.71,0,1.18,.42,1.35,.88l-.59,.25c-.11-.33-.38-.54-.77-.54-.52,0-.86,.38-.86,.93s.35,.93,.93,.93c.4,0,.69-.18,.81-.58h-.88v-.47h1.49Z"/><path class="uuid-7b931c48-b32c-4690-959c-4f7c552e812a" d="M25.42,4.85c0-.66,.49-1.15,1.19-1.15s1.19,.49,1.19,1.15-.5,1.15-1.19,1.15-1.19-.5-1.19-1.15Zm1.76,0c0-.35-.23-.6-.57-.6s-.57,.25-.57,.6,.23,.6,.57,.6,.57-.25,.57-.61Z"/></g></g></g></svg>