<?xml version="1.0" encoding="UTF-8"?><svg xmlns="http://www.w3.org/2000/svg" viewBox="0 0 40 40" focusable="false" aria-hidden="true"><defs><style>.uuid-52fab3b7-5bb2-4d61-ab98-559e43a5b979{fill:none;}.uuid-057e881e-802d-4f0f-925f-b540244c32a3{fill:#000d6e;}.uuid-cd17be7c-82d7-4c63-a78b-42cfb23487d3{fill:#6c2273;}.uuid-97d27226-db36-44e0-add6-1ea68d317a32{fill:#b8b2ff;}</style></defs><g id="uuid-f45bdf18-5fea-45cb-a703-6e9af15bce4b"><rect class="uuid-52fab3b7-5bb2-4d61-ab98-559e43a5b979" width="40" height="40"/></g><g id="uuid-b9250851-95c1-437d-9a89-a481d676a9d8"><g><g><polygon class="uuid-cd17be7c-82d7-4c63-a78b-42cfb23487d3" points="24 9 16 9 13 20 27 20 24 9"/><path class="uuid-97d27226-db36-44e0-add6-1ea68d317a32" d="M25,32.01h-4v-11.01h-2v11.01h-4c-.55,0-1,.45-1,1v1h12v-1c0-.55-.45-1-1-1Z"/><rect class="uuid-057e881e-802d-4f0f-925f-b540244c32a3" x="22.5" y="21" width="1" height="5"/></g><g><path class="uuid-057e881e-802d-4f0f-925f-b540244c32a3" d="M14.94,3.04l-1.06,1.72v1.18h-.62v-1.18l-1.06-1.72h.69l.68,1.19,.68-1.19h.69Z"/><path class="uuid-057e881e-802d-4f0f-925f-b540244c32a3" d="M14.54,4.85c0-.66,.49-1.15,1.19-1.15s1.19,.49,1.19,1.15-.5,1.15-1.19,1.15-1.19-.5-1.19-1.15Zm1.76,0c0-.35-.23-.6-.57-.6s-.57,.25-.57,.6,.23,.6,.57,.6,.57-.25,.57-.61Z"/><path class="uuid-057e881e-802d-4f0f-925f-b540244c32a3" d="M18.7,3.74h.62v2.2h-.58v-.21c-.15,.16-.38,.26-.64,.26-.56,0-.85-.38-.85-.89v-1.37h.62v1.29c0,.24,.16,.41,.42,.41s.42-.17,.42-.4v-1.3Z"/><path class="uuid-057e881e-802d-4f0f-925f-b540244c32a3" d="M21.88,4.56v1.39h-.61v-1.27c0-.28-.18-.44-.43-.44s-.44,.18-.44,.4v1.3h-.62V3.74h.59v.21c.15-.16,.38-.26,.66-.26,.53,0,.86,.36,.86,.87Z"/><path class="uuid-057e881e-802d-4f0f-925f-b540244c32a3" d="M25.19,4.39c0,1.03-.64,1.61-1.47,1.61s-1.51-.64-1.51-1.51,.64-1.51,1.51-1.51c.71,0,1.18,.42,1.35,.88l-.59,.25c-.11-.33-.38-.54-.77-.54-.52,0-.86,.38-.86,.93s.35,.93,.93,.93c.4,0,.69-.18,.81-.58h-.88v-.47h1.49Z"/><path class="uuid-057e881e-802d-4f0f-925f-b540244c32a3" d="M25.42,4.85c0-.66,.49-1.15,1.19-1.15s1.19,.49,1.19,1.15-.5,1.15-1.19,1.15-1.19-.5-1.19-1.15Zm1.76,0c0-.35-.23-.6-.57-.6s-.57,.25-.57,.6,.23,.6,.57,.6,.57-.25,.57-.61Z"/></g></g></g></svg>