<?xml version="1.0" encoding="UTF-8"?><svg xmlns="http://www.w3.org/2000/svg" viewBox="0 0 40 40" focusable="false" aria-hidden="true"><defs><style>.cls-1{fill:none;}.cls-2{fill:#000d6e;}.cls-3{fill:#ffaca6;}.cls-4{fill:#d9304c;}</style></defs><g id="Solid"><rect class="cls-1" width="40" height="40"/></g><g id="Icon_Red"><g><g><path class="cls-4" d="M11,17v3H29v-3c0-1.10284424,.8972168-2,2-2h2v-4c0-1.65692139-1.34307861-3-3-3H10c-1.65692139,0-3,1.34307861-3,3v4h2c1.1027832,0,2,.89715576,2,2Z"/><path class="cls-2" d="M8,32c0,.55218506,.44769287,1,1,1s1-.44781494,1-1v-2h-2v2Z"/></g><path class="cls-3" d="M32,25c1.48724365,0,2.8649292,.46972656,4,1.26367188v-9.26367188c0-.55230713-.44769287-1-1-1h-4c-.55230713,0-1,.44769287-1,1v4H10v-4c0-.55230713-.44769287-1-1-1H5c-.55230713,0-1,.44769287-1,1v13H25.2947998c.86303711-2.88769531,3.54058838-5,6.7052002-5Z"/><g><circle class="cls-3" cx="32" cy="32.00000001" r="6"/><path class="cls-2" d="M34.5,31.50000001h-2v-2c0-.27636719-.22363281-.5-.5-.5s-.5,.22363281-.5,.5v2h-2c-.27636719,0-.5,.22363281-.5,.5s.22363281,.5,.5,.5h2v2c0,.27636719,.22363281,.5,.5,.5s.5-.22363281,.5-.5v-2h2c.27636719,0,.5-.22363281,.5-.5s-.22363281-.5-.5-.5Z"/></g></g></g></svg>