<svg xmlns="http://www.w3.org/2000/svg" viewBox="0 0 40 40" focusable="false" aria-hidden="true"><g id="Solid"><rect width="40" height="40" fill="none"/></g><g id="Icon_Tangerine" data-name="Icon Tangerine"><polygon points="29 6 25 6 25 8.306 29 11.994 29 6" fill="#fa9319"/><path d="M19.3975,8.3311,10,16.9969V34h8V28h4v6h8V16.9969L20.5884,8.3184A.8945.8945,0,0,0,19.3975,8.3311ZM17.0163,22.9883h-3v-3h3ZM23,20.0116h3v3H23Zm-1.5,2.9767h-3v-3h3Z" fill="#fae052"/><path d="M32.3388,16.4335,21.94,6.8438a2.9,2.9,0,0,0-3.8842.0048L7.6612,16.4335l0,0L8,16.8008l.3389.3672,10.39-9.58a1.8983,1.8983,0,0,1,2.5376-.0049l10.3945,9.585L32,16.8008l.3389-.3672Z" fill="#000d6e"/><rect x="18" y="28" width="4" height="6" fill="#000d6e"/><path d="M5.4987,32.0219a3.4749,3.4749,0,0,1-.4977-.05v4.0371H6.0352v-4.041A3.4758,3.4758,0,0,1,5.4987,32.0219Z" fill="#fa9319"/><path d="M5.4985,31.5215a2.653,2.653,0,0,1-.3764-.0371,3,3,0,1,1,3.3828-2.9688,2.9832,2.9832,0,0,1-2.5464,2.958A2.9719,2.9719,0,0,1,5.4985,31.5215Z" fill="#fae052"/><path d="M5.4987,26.0092a2.4995,2.4995,0,0,1,.3837,4.97,2.7286,2.7286,0,0,1-.3837.0423,2.0855,2.0855,0,0,1-.3018-.0322l-.0539-.0078a2.4985,2.4985,0,0,1,.3557-4.9727m0-1a3.4985,3.4985,0,0,0-.4977,6.9625,3.4749,3.4749,0,0,0,.4977.05,3.4758,3.4758,0,0,0,.5365-.0541,3.4995,3.4995,0,0,0-.5365-6.9586Z" fill="#fae052"/></g></svg>