<svg xmlns="http://www.w3.org/2000/svg" viewBox="0 0 40 40" focusable="false" aria-hidden="true"><defs><style>.cls-1{fill:none;}.cls-2{fill:#d9304c;}.cls-3{fill:#ffaca6;}.cls-4{fill:#000d6e;}</style></defs><g id="Solid"><rect class="cls-1" width="40" height="40"/></g><g id="Icon_Red" data-name="Icon Red"><polygon class="cls-2" points="11 20.964 18 22 18 8 11 9.008 11 20.964"/><path class="cls-3" d="M9,8a.9776.9776,0,0,0-1,.954V29h2V8.954A.9776.9776,0,0,0,9,8Z"/><path class="cls-4" d="M8,33.05a1.0013,1.0013,0,0,0,2,0V29H8Z"/><rect class="cls-3" x="25" y="13" width="2" height="5"/><path class="cls-4" d="M27,9.0219a1,1,0,0,0-2,0V12.978h2Z"/><path class="cls-2" d="M33.9929,33.0174l-.7751-9.2253a3.0284,3.0284,0,0,0-2.9842-2.7744H26.9865V19H24.99v2.0177H21.8947a2.9987,2.9987,0,0,0-2.98,2.7323L18.01,32.9891a2.0323,2.0323,0,0,0,.5129,1.5582,1.9648,1.9648,0,0,0,.5523.4166L19.9079,24.31a2.2554,2.2554,0,0,1,1.9868-2.2913h8.3389a2.2647,2.2647,0,0,1,1.9894,2.3268l.7117,10.6124a1.9552,1.9552,0,0,0,.5337-.4A2.0335,2.0335,0,0,0,33.9929,33.0174Z"/><path class="cls-3" d="M30.2336,22.0187H21.8947A2.2554,2.2554,0,0,0,19.9079,24.31l-.8331,10.6539L19.072,35H32.9375l-.0028-.0421L32.223,24.3455A2.2647,2.2647,0,0,0,30.2336,22.0187Z"/></g></svg>