<?xml version="1.0" encoding="UTF-8"?><svg xmlns="http://www.w3.org/2000/svg" viewBox="0 0 40 40" focusable="false" aria-hidden="true"><defs><style>.uuid-95806c0c-3589-4b9f-9e5f-5f09d4e01d44{fill:none;}.uuid-57fdf5ab-d363-43e5-94d0-a9d1804cf485{fill:#000d6e;}.uuid-583fc6c2-0387-42ac-8e1f-53d931bc3483{fill:#6c2273;}.uuid-73e1c80a-98e6-4d91-a46e-0b31a4517fc2{fill:#b8b2ff;}</style></defs><g id="uuid-b946547f-b660-4d54-a0d3-a76dbbb54100"><rect class="uuid-95806c0c-3589-4b9f-9e5f-5f09d4e01d44" width="40" height="40"/></g><g id="uuid-b6fc5600-a985-4089-ba18-3561426da936"><g><path class="uuid-57fdf5ab-d363-43e5-94d0-a9d1804cf485" d="M22.04,25.3s0-.09,0-.13c-.5,.55-1.23,.9-2.05,.9s-1.55-.35-2.05-.9c0,.03,0,.07,0,.1,.02,.26,.04,.52,.07,.79,.33,3.18,.66,3.94,.66,3.94h2.63s.33-.76,.66-3.94c.03-.27,.05-.52,.07-.77Z"/><path class="uuid-73e1c80a-98e6-4d91-a46e-0b31a4517fc2" d="M17.92,24.72c0,.15,.02,.3,.03,.46,.5,.55,1.23,.9,2.05,.9s1.55-.35,2.05-.9c.01-.16,.02-.31,.03-.46,.08-1.25,.07-2.25,.04-2.93-.03-.63-.07-.98-.07-.98v-1.29c1.06-.7,1.86-1.92,2.18-3.39,.04,0,.08,.02,.12,.02,.5,0,.91-.56,.91-1.25,0-.57-.28-1.05-.66-1.2v.21c0,.07-.03,.14-.07,.19-.01,.02-.03,.04-.05,.05-.03,.03-.06,.05-.1,.06-.03,.01-.07,.02-.11,.02-.18,0-.33-.15-.33-.33v-1.07s0-.09,0-.13c-.04-.06-.08-.12-.12-.18-.22-.34-.52-.69-.91-.99-.67,.29-1.55,.43-2.59,.08-.42-.14-.77-.3-1.05-.46-.26-.15-.47-.3-.64-.45-.63,.1-1.15,.28-1.57,.45-.36,.15-.65,.3-.88,.41-.06,.22-.11,.48-.13,.81-.01,.14-.02,.29-.02,.46v1.07c0,.18-.15,.33-.33,.33-.02,0-.04,0-.05-.01-.15-.03-.27-.16-.27-.32v-.21c-.38,.15-.66,.63-.66,1.2,0,.69,.41,1.25,.91,1.25,.06,0,.12,0,.18-.02,.31,1.45,1.09,2.67,2.13,3.38h-.02v1.32s-.03,.35-.06,.98c-.03,.68-.04,1.68,.04,2.93Z"/><path class="uuid-583fc6c2-0387-42ac-8e1f-53d931bc3483" d="M17.96,25.28s0-.07,0-.1c-.01-.16-.02-.31-.03-.46-.08-1.25-.07-2.25-.04-2.93,.03-.63,.07-.98,.07-.98l-.1,.05-6.46,3.26c-.78,.4-1.32,1.15-1.43,2.02l-.48,3.87h9.21s-.33-.76-.66-3.94c-.03-.27-.05-.54-.07-.79Z"/><path class="uuid-57fdf5ab-d363-43e5-94d0-a9d1804cf485" d="M15.67,14.22s.03,.01,.05,.01c.18,0,.33-.15,.33-.33v-1.07c0-.16,0-.31,.02-.46,.03-.33,.08-.6,.13-.81,.23-.11,.52-.26,.88-.41,.42-.18,.94-.35,1.57-.45,.16,.15,.37,.3,.64,.45,.28,.16,.62,.31,1.05,.46,1.04,.35,1.92,.2,2.59-.08,.39,.3,.68,.64,.91,.99,.04,.06,.08,.12,.12,.18,0,.05,0,.09,0,.13v1.07c0,.18,.15,.33,.33,.33,.04,0,.07,0,.11-.02,.04-.01,.07-.03,.1-.06,.02-.02,.03-.03,.05-.05,.04-.05,.07-.12,.07-.19v-1.42c.03-.85,.04-1.76,0-2.2-.1-.94-1.86-3.29-4.6-3.29s-4.6,2.07-4.6,3.95v2.96c0,.16,.12,.29,.27,.32Z"/></g><circle class="uuid-73e1c80a-98e6-4d91-a46e-0b31a4517fc2" cx="32" cy="32" r="6"/><path class="uuid-583fc6c2-0387-42ac-8e1f-53d931bc3483" d="M29.79,25.36c-.25-.53-.65-.97-1.18-1.24l-6.56-3.31s.04,.35,.07,.98c.03,.68,.04,1.68-.04,2.93,0,.15-.02,.3-.03,.46,0,.04,0,.09,0,.13-.02,.25-.04,.5-.07,.77-.33,3.18-.66,3.94-.66,3.94h3.98c.65-2.19,2.34-3.94,4.5-4.65Z"/><path class="uuid-57fdf5ab-d363-43e5-94d0-a9d1804cf485" d="M31.15,34.76c-.17-.03-.27-.06-.36-.15l-2.12-2.2c-.19-.2-.19-.51,.01-.71,.2-.19,.52-.19,.71,.01l1.76,1.83,3.91-3.91c.2-.2,.51-.2,.71,0s.2,.51,0,.71l-4.27,4.27c-.09,.09-.22,.15-.35,.15Z"/></g></svg>