<?xml version="1.0" encoding="UTF-8"?><svg xmlns="http://www.w3.org/2000/svg" viewBox="0 0 40 40" focusable="false" aria-hidden="true"><g id="uuid-4e1e34d0-e461-4fb9-8d47-9040734944b0"><rect width="40" height="40" fill="none"/></g><g id="uuid-f31fa466-5e1d-4f86-88ef-e9105b8f1085"><g><path d="M11.12,24.36c-.02-.19-.03-.37-.04-.54,.01,.18,.03,.35,.04,.54Z" fill="none"/><path d="M11.37,26.58c.04,.26,.08,.54,.12,.82-.04-.28-.08-.56-.12-.82Z" fill="none"/><path d="M8.27,14.3h0s0,0,0-.01c0,0,0,0,0,.01Z" fill="none"/><path d="M14.63,26.58c-.04,.26-.08,.54-.12,.82,.04-.28,.08-.56,.12-.82Z" fill="none"/><path d="M11.23,25.48c.03,.25,.06,.51,.1,.79-.04-.27-.07-.54-.1-.79Z" fill="none"/><path d="M11.12,24.36c.03,.28,.06,.59,.09,.9-.03-.31-.07-.62-.09-.9Z" fill="none"/><path d="M9.43,16.55h0c-.02-.05-.04-.11-.06-.17,.02,.06,.04,.11,.06,.17Z" fill="none"/><path d="M11.03,23.08c0-.14-.01-.27-.02-.4,0,.13,.01,.26,.02,.4Z" fill="none"/><path d="M10.98,21.68c0-.36,0-.66,.02-.88-.01,.22-.02,.52-.02,.88Z" fill="none"/><path d="M11,22.54c0-.12,0-.24-.01-.36,0,.11,0,.23,.01,.36Z" fill="none"/><path d="M10.99,22.06c0-.11,0-.22,0-.32,0,.1,0,.21,0,.32Z" fill="none"/><path d="M11.06,23.69c-.01-.16-.02-.31-.03-.46,0,.15,.02,.3,.03,.46Z" fill="none"/><path d="M15,20.78c0,.13,.01,.28,.02,.45,0-.17,0-.32-.02-.45Z" fill="none"/><path d="M15.02,21.72c0,.1,0,.2,0,.31,0-.11,0-.21,0-.31Z" fill="none"/><path d="M14.96,20.27c0,.05,.02,.22,.04,.49-.01-.26-.03-.42-.04-.49Z" fill="none"/><path d="M15.01,22.16c0,.11,0,.23-.01,.36,0-.12,0-.24,.01-.36Z" fill="none"/><path d="M14.97,23.21c0,.15-.02,.31-.03,.48,.01-.17,.02-.32,.03-.48Z" fill="none"/><path d="M14.99,22.66c0,.13-.01,.27-.02,.41,0-.14,.01-.28,.02-.41Z" fill="none"/><path d="M14.88,24.36c-.03,.28-.06,.59-.09,.9,.03-.31,.07-.62,.09-.9Z" fill="none"/><path d="M14.93,23.8c-.01,.18-.03,.36-.05,.56,.02-.19,.03-.38,.05-.56Z" fill="none"/><path d="M14.77,25.48c-.03,.25-.06,.52-.1,.79,.04-.27,.07-.54,.1-.79Z" fill="none"/><path d="M15.02,21.34c0,.08,0,.17,0,.26,0-.09,0-.18,0-.26Z" fill="none"/><path d="M11.75,28.98c-.08-.43-.14-.84-.21-1.24,.06,.4,.13,.81,.21,1.24Z" fill="none"/><path d="M11.05,20.26v-.02s-.02,.19-.04,.56c.02-.31,.04-.5,.04-.54,0,0,0,0,0,0Z" fill="none"/><path d="M14.96,20.26s0,0,0,.01c0-.01,0-.02,0-.02h0s0,.01,0,.01Z" fill="none"/><path d="M17.76,14.24s0,0,0,0c0-.02,0-.03-.01-.05h0s0,.03,.01,.05c0,0,0,0,0,0Z" fill="none"/><path d="M14.25,28.98c.08-.43,.14-.84,.21-1.24-.06,.4-.13,.81-.21,1.24Z" fill="none"/><path d="M8.56,13.67s0-.01,.01-.02c0,0,0,.01-.01,.02Z" fill="none"/><path d="M17.62,13.87s-.01-.02-.02-.03c0,0,0,0,0,0s0,0,0,0c0,0,.01,.02,.02,.03h0Z" fill="none"/><path d="M9.93,17.63s0,0,0,0c.32,.54,.73,.99,1.19,1.33v.08s0-.08,0-.08c-.46-.34-.87-.79-1.19-1.33Z" fill="none"/><path d="M10.83,10.16c-.13,0-.26,.02-.38,.04h0c.12-.02,.25-.03,.38-.04,0,0,0,0,0,0Z" fill="none"/><path d="M11.26,10.18c-.14-.02-.29-.03-.42-.03h0c.13,0,.28,0,.42,.03h0Z" fill="none"/><path d="M10.33,10.21c-.09,.02-.17,.04-.26,.06h0c.08-.02,.17-.04,.26-.06,0,0,0,0,0,0Z" fill="none"/><path d="M17.39,13.59s0,0,.01,.01c0,0,0,0-.01-.01Z" fill="none"/><path d="M9.97,10.3c-.11,.03-.21,.07-.3,.11h0c.1-.04,.2-.08,.31-.11,0,0,0,0,0,0Z" fill="none"/><path d="M8.78,13.49s.03-.01,.04-.02c-.01,0-.03,.01-.04,.02Z" fill="none"/><path d="M11.73,10.29c-.07-.02-.13-.03-.19-.05,.06,.01,.13,.03,.19,.05,0,0,0,0,0,0Z" fill="none"/><polygon points="17.15 13.45 17.15 13.45 17.15 13.45 17.15 13.45 17.15 13.45" fill="none"/><path d="M14.51,27.4c.04-.28,.08-.56,.12-.82,.01-.11,.03-.21,.04-.32,.04-.27,.07-.54,.1-.79,0-.07,.02-.14,.02-.22,.03-.31,.07-.62,.09-.9,0,0,0,0,0,0-.46,.53-1.13,.88-1.88,.88s-1.42-.34-1.88-.88c0,0,0,0,0,0,.03,.28,.06,.59,.09,.9,0,.07,.02,.14,.02,.22,.03,.25,.06,.52,.1,.79,.01,.11,.03,.21,.04,.32,.04,.26,.08,.54,.12,.82,.02,.11,.03,.22,.05,.34,.06,.4,.13,.81,.21,1.24h2.5c.08-.43,.14-.84,.21-1.24,.02-.12,.03-.23,.05-.34Z" fill="#000d6e"/><path d="M11.49,27.4c-.04-.28-.08-.56-.12-.82-.01-.11-.03-.21-.04-.32-.04-.27-.07-.53-.1-.79,0-.07-.02-.15-.02-.22-.03-.32-.07-.62-.09-.9,0,0,0,0,0,0h0s0,0,0,0c-.02-.19-.03-.37-.04-.54,0-.04,0-.08,0-.13-.01-.16-.02-.31-.03-.46,0-.05,0-.1,0-.15,0-.14-.01-.27-.02-.4,0-.05,0-.09,0-.14,0-.12,0-.24-.01-.36,0-.04,0-.08,0-.12,0-.11,0-.22,0-.32,0-.02,0-.04,0-.06,0-.36,0-.66,.02-.88,0,0,0,0,0,0h0c.02-.38,.05-.56,.05-.56l-1.54,.78-4.69,2.37c-.74,.38-1.25,1.1-1.35,1.92l-.46,3.68H11.75c-.08-.43-.14-.84-.21-1.24-.02-.12-.03-.23-.05-.34Z" fill="#1b5951"/><path d="M11.12,19.05v-.08c-.47-.34-.87-.79-1.2-1.33,0,0,0,0,0,0-.2-.33-.36-.69-.49-1.07h0c-.02-.06-.04-.12-.06-.17-.06-.2-.12-.4-.16-.61-.05,.01-.1,.02-.15,.02-.46,0-.83-.53-.83-1.19,0-.11,.01-.21,.03-.3h0s0,0,0-.01c.05-.25,.15-.46,.29-.62,0,0,0-.01,.01-.02,.06-.07,.13-.12,.21-.16,.01,0,.03-.01,.04-.02,.08-.03,.16-.06,.25-.06,0,0,0,0,0,0,0-.83-.01-1.91-.02-2.25,0-.04,0-.36,.03-.48,.17-.08,.36-.18,.59-.27h0c.1-.04,.2-.08,.3-.11,0,0,0,0,0,0,.03-.01,.07-.02,.1-.03h0c.08-.02,.17-.04,.26-.06,0,0,0,0,0,0,.04,0,.08-.02,.12-.02h0c.12-.02,.25-.03,.38-.04,0,0,0,0,0,0,0,0,.01,0,.02,0h0c.13,0,.28,0,.42,.03h0c.09,.01,.19,.04,.28,.06,.06,.01,.13,.03,.19,.05,0,0,0,0,0,0,.21,.06,.42,.14,.64,.26,.31,.16,.64,.33,.99,.51,1.07,.54,2.24,1.12,2.96,1.47,.33,.16,.57,.28,.65,.32,0,.2,0,.39,0,.58,.06,0,.12,.01,.17,.03h0s0,0,0,0c.09,.03,.16,.08,.24,.14,0,0,0,0,.01,.01,.07,.07,.14,.15,.2,.24,0,0,0,0,0,0s0,0,0,0c0,0,.01,.02,.02,.03h0c.05,.1,.1,.2,.13,.32h0s0,.03,.01,.05c0,0,0,0,0,0,0,0,0,0,0,0,.03,.12,.05,.24,.05,.37,0,.66-.37,1.19-.83,1.19-.04,0-.08,0-.13-.02-.29,1.4-1.01,2.57-1.97,3.23l.08,1.22,2.74,1.38,2.01,1.02c.82-.56,1.22-1.2,.87-1.78-.59-.97-.83-2.97-1.2-4.95-.31-2.4-1.09-4.61-1.38-5.71-.44-1.68-1.75-3.56-4.94-3.67-2.35,0-4.31,1.47-4.7,3.1-.58,1.59-2.04,6.47,.21,10.39,.23,.41,.52,.75,.84,1.05l.11-.05,1.54-.78,.07-1.19Z" fill="#000d6e"/><path d="M16.85,15.78s.08,.02,.13,.02c.46,0,.83-.53,.83-1.19,0-.13-.02-.25-.05-.37,0-.02,0-.03-.01-.05-.03-.12-.08-.22-.13-.32,0,0-.01-.02-.02-.03-.06-.09-.12-.18-.2-.24,0,0,0,0-.01-.01-.07-.06-.15-.11-.24-.14,0,0,0,0,0,0-.06-.02-.11-.03-.17-.03,0-.18,0-.38,0-.58-.09-.04-.32-.16-.65-.32-.72-.35-1.89-.93-2.96-1.47-.35-.18-.68-.35-.99-.51-.22-.12-.44-.2-.64-.26-.07-.02-.13-.03-.19-.05-.09-.02-.19-.05-.28-.06-.14-.02-.29-.03-.42-.03,0,0-.01,0-.02,0-.13,0-.26,.02-.38,.04-.04,0-.08,.01-.12,.02-.09,.02-.17,.04-.26,.06-.03,0-.07,.02-.1,.03-.11,.03-.21,.07-.31,.11-.22,.09-.42,.19-.59,.27-.02,.12-.03,.44-.03,.48,0,.34,.01,1.42,.02,2.25,0,0,0,0,0,0-.09,0-.17,.02-.25,.06-.01,0-.03,.01-.04,.02-.08,.04-.15,.09-.21,.16,0,0,0,.01-.01,.02-.14,.15-.24,.37-.29,.62,0,0,0,0,0,.01-.02,.1-.03,.2-.03,.3,0,.66,.37,1.19,.83,1.19,.05,0,.1,0,.15-.02,.04,.21,.1,.41,.16,.61,.02,.06,.04,.12,.06,.17,.13,.38,.29,.74,.49,1.07,.33,.54,.73,.99,1.19,1.33v.08s-.07,1.19-.07,1.19v.02s0,0,0,0c0,.04-.02,.23-.04,.54h0s0,0,0,0c-.01,.22-.02,.52-.02,.88,0,.02,0,.04,0,.06,0,.1,0,.21,0,.32,0,.04,0,.08,0,.12,0,.11,0,.23,.01,.36,0,.05,0,.09,0,.14,0,.13,.01,.26,.02,.4,0,.05,0,.1,0,.15,0,.15,.02,.3,.03,.46,0,.04,0,.08,0,.13,.01,.18,.03,.35,.04,.54,0,0,0,0,0,0h0c.46,.53,1.13,.88,1.88,.88s1.42-.34,1.88-.88h0s0,0,0,0c.02-.19,.03-.38,.05-.56,0-.04,0-.08,0-.12,.01-.17,.02-.32,.03-.48,0-.05,0-.09,0-.14,0-.14,.01-.28,.02-.41,0-.05,0-.09,0-.14,0-.12,0-.24,.01-.36,0-.05,0-.09,0-.13,0-.11,0-.21,0-.31,0-.04,0-.08,0-.12,0-.09,0-.18,0-.26,0-.04,0-.07,0-.11,0-.17,0-.32-.02-.45,0,0,0-.01,0-.02,0,0,0,0,0,0-.02-.27-.03-.44-.04-.49,0,0,0,0,0,0,0,0,0,0,0,0,0,0,0,0,0-.01,0,0,0,0,0,0h0s0-.02,0-.02h0s-.08-1.22-.08-1.22c.96-.66,1.68-1.83,1.97-3.23Z" fill="#94e3d4"/></g><circle cx="32" cy="32" r="6" fill="#94e3d4"/><g><path d="M28.03,26.24c.04-.35,.09-.74,.14-1.18,.03-.27,.05-.52,.07-.77,0-.04,0-.09,0-.13-.5,.55-1.23,.9-2.05,.9s-1.55-.35-2.05-.9c0,.03,0,.07,0,.1,.02,.26,.04,.52,.07,.79,.33,3.18,.66,3.94,.66,3.94h.81c.53-1.11,1.34-2.06,2.35-2.76Z" fill="#000d6e"/><path d="M24.11,23.7c0,.15,.02,.3,.03,.46,.5,.55,1.23,.9,2.05,.9s1.55-.35,2.05-.9c.01-.16,.02-.31,.03-.46,.08-1.25,.07-2.25,.04-2.93-.03-.63-.07-.98-.07-.98v-1.29c1.06-.7,1.86-1.92,2.18-3.39,.04,0,.08,.02,.12,.02,.5,0,.91-.56,.91-1.25,0-.57-.28-1.05-.66-1.2v.21c0,.07-.03,.14-.07,.19-.01,.02-.03,.04-.05,.05-.03,.03-.06,.05-.1,.06-.03,.01-.07,.02-.11,.02-.18,0-.33-.15-.33-.33v-1.07s0-.09,0-.13c-.04-.06-.08-.12-.12-.18-.22-.34-.52-.69-.91-.99-.67,.29-1.55,.43-2.59,.08-.42-.14-.77-.3-1.05-.46-.26-.15-.47-.3-.64-.45-.63,.1-1.15,.28-1.57,.45-.36,.15-.65,.3-.88,.41-.06,.22-.11,.48-.13,.81-.01,.14-.02,.29-.02,.46v1.07c0,.18-.15,.33-.33,.33-.02,0-.04,0-.05-.01-.15-.03-.27-.16-.27-.32v-.21c-.38,.15-.66,.63-.66,1.2,0,.69,.41,1.25,.91,1.25,.06,0,.12,0,.18-.02,.31,1.45,1.09,2.67,2.13,3.38h-.02v1.32s-.03,.35-.06,.98c-.03,.68-.04,1.68,.04,2.93Z" fill="#94e3d4"/><path d="M24.22,25.06c-.03-.27-.05-.54-.07-.79,0-.04,0-.07,0-.1-.01-.16-.02-.31-.03-.46-.08-1.25-.07-2.25-.04-2.93,.03-.63,.07-.98,.07-.98l-.1,.05-4.93,2.49-2.62-1.32-1.54-.78s0,0,0,.01h0s0,0,0,.02c0,0,0,0,0,0,0,0,0,0,0,0,0,.07,.02,.23,.04,.49h0s0,.01,0,.02c0,.13,.01,.28,.02,.45,0,.04,0,.07,0,.11,0,.08,0,.17,0,.26,0,.04,0,.08,0,.12,0,.1,0,.2,0,.31,0,.04,0,.09,0,.13,0,.11,0,.23-.01,.36,0,.05,0,.09,0,.14,0,.13-.01,.27-.02,.41,0,.04,0,.09,0,.14,0,.15-.02,.31-.03,.48,0,.04,0,.08,0,.12-.01,.18-.03,.36-.05,.56,0,0,0,0,0,0h0s0,0,0,0c-.03,.28-.06,.58-.09,.9,0,.07-.02,.14-.02,.22-.03,.25-.06,.52-.1,.79-.01,.1-.03,.21-.04,.32-.04,.26-.08,.54-.12,.82-.02,.11-.03,.22-.05,.34-.06,.4-.13,.81-.21,1.24h1.42v.02s8.12,0,8.12,0h1.09s-.33-.76-.66-3.94Z" fill="#1b5951"/><path d="M28.28,23.7c0,.15-.02,.3-.03,.46,0,.04,0,.09,0,.13-.02,.25-.04,.5-.07,.77-.05,.44-.09,.83-.14,1.18,1.13-.78,2.5-1.24,3.97-1.24,1.67,0,3.21,.59,4.41,1.57l-.18-1.44c-.11-.87-.64-1.63-1.43-2.02l-6.56-3.31s.04,.35,.07,.98c.03,.68,.04,1.68-.04,2.93Z" fill="#1b5951"/><path d="M21.87,13.21s.03,.01,.05,.01c.18,0,.33-.15,.33-.33v-1.07c0-.16,0-.31,.02-.46,.03-.33,.08-.6,.13-.81,.23-.11,.52-.26,.88-.41,.42-.18,.94-.35,1.57-.45,.16,.15,.37,.3,.64,.45,.28,.16,.62,.31,1.05,.46,1.04,.35,1.92,.2,2.59-.08,.39,.3,.68,.64,.91,.99,.04,.06,.08,.12,.12,.18,0,.05,0,.09,0,.13v1.07c0,.18,.15,.33,.33,.33,.04,0,.07,0,.11-.02,.04-.01,.07-.03,.1-.06,.02-.02,.03-.03,.05-.05,.04-.05,.07-.12,.07-.19v-1.42c.03-.85,.04-1.76,0-2.2-.1-.94-1.86-3.29-4.6-3.29s-4.6,2.07-4.6,3.95v2.96c0,.16,.12,.29,.27,.32Z" fill="#000d6e"/></g><path d="M31.15,34.76c-.17-.03-.27-.06-.36-.15l-2.12-2.2c-.19-.2-.19-.51,.01-.71,.2-.19,.52-.19,.71,.01l1.76,1.83,3.91-3.91c.2-.2,.51-.2,.71,0s.2,.51,0,.71l-4.27,4.27c-.09,.09-.22,.15-.35,.15Z" fill="#000d6e"/></g></svg>