<?xml version="1.0" encoding="UTF-8"?><svg xmlns="http://www.w3.org/2000/svg" viewBox="0 0 40 40" focusable="false" aria-hidden="true"><defs><style>.uuid-b44f0142-efca-4fbd-9d90-f3f54dcf27ff{fill:none;}.uuid-313ea1fa-a215-43c2-a6e4-7a69117d4dd9{fill:#000d6e;}.uuid-7c62ab0e-fb51-46fc-ab87-f35aa337a5df{fill:#1b5951;}.uuid-4b1991e1-49a6-44d4-bd32-095cd9005083{fill:#94e3d4;}</style></defs><g id="uuid-5ceb465f-159e-4f80-a708-a754f41ba9ba"><rect class="uuid-b44f0142-efca-4fbd-9d90-f3f54dcf27ff" width="40" height="40"/></g><g id="uuid-61b4d7d8-fb40-460b-8da4-84c58d78f4d8"><path class="uuid-4b1991e1-49a6-44d4-bd32-095cd9005083" d="M12.88,12.18c-4.32,0-7.82,3.5-7.82,7.82s3.5,7.82,7.82,7.82,7.82-3.5,7.82-7.82-3.5-7.82-7.82-7.82Zm0,11.85c-2.23,0-4.03-1.81-4.03-4.03s1.81-4.03,4.03-4.03,4.03,1.81,4.03,4.03-1.81,4.03-4.03,4.03Z"/><path class="uuid-4b1991e1-49a6-44d4-bd32-095cd9005083" d="M32.79,18.35c-.09,.09-.22,.15-.35,.15h-5c-.2-.01-.38-.14-.46-.32-.08-.19-.03-.4,.11-.54l1.99-1.99c.09-.09,.22-.15,.35-.15h5.01c.2,0,.39,.12,.46,.31,.08,.19,.03,.4-.11,.54l-2,2Z"/><path class="uuid-7c62ab0e-fb51-46fc-ab87-f35aa337a5df" d="M27.44,21.5h5.01c.13,0,.26,.05,.35,.15l1.99,1.99c.14,.14,.19,.36,.11,.54-.08,.19-.26,.31-.46,.31h-4.99s0,.01,0,.01c-.13,0-.26-.05-.35-.15l-2-2c-.14-.14-.19-.36-.11-.54,.08-.19,.26-.31,.46-.31Z"/><path class="uuid-313ea1fa-a215-43c2-a6e4-7a69117d4dd9" d="M34.44,19.5H13.68l1.2-1.2c.2-.2,.2-.51,0-.71s-.51-.2-.71,0l-2.12,2.12c-.2,.2-.2,.51,0,.71l2.12,2.12c.1,.1,.23,.15,.35,.15s.26-.05,.35-.15c.2-.2,.2-.51,0-.71l-1.34-1.34h20.89c.28,0,.5-.22,.5-.5s-.22-.5-.5-.5Z"/></g></svg>