<?xml version="1.0" encoding="UTF-8"?><svg xmlns="http://www.w3.org/2000/svg" viewBox="0 0 40 40" focusable="false" aria-hidden="true"><defs><style>.uuid-ce94fc89-7611-4f8d-8c81-8e9e9a05ad91{fill:none;}.uuid-8fa0cbd3-8ad8-49e3-a87d-830c89fafb7e{fill:#fa9319;}.uuid-efb51524-c5cd-4115-a927-fe79f88bdef9{fill:#000d6e;}.uuid-9dbedda7-70df-41b4-8c4b-69bedcf03de8{fill:#fae052;}</style></defs><g id="uuid-6cd5f6b5-8c56-40e7-9a67-7db3c54b41d1"><rect class="uuid-ce94fc89-7611-4f8d-8c81-8e9e9a05ad91" width="40" height="40"/></g><g id="uuid-9e690197-3e47-49df-ab7e-b43530b3d55b"><path class="uuid-9dbedda7-70df-41b4-8c4b-69bedcf03de8" d="M12.88,12.18c-4.32,0-7.82,3.5-7.82,7.82s3.5,7.82,7.82,7.82,7.82-3.5,7.82-7.82-3.5-7.82-7.82-7.82Zm0,11.85c-2.23,0-4.03-1.81-4.03-4.03s1.81-4.03,4.03-4.03,4.03,1.81,4.03,4.03-1.81,4.03-4.03,4.03Z"/><path class="uuid-9dbedda7-70df-41b4-8c4b-69bedcf03de8" d="M32.79,18.35c-.09,.09-.22,.15-.35,.15h-5c-.2-.01-.38-.14-.46-.32-.08-.19-.03-.4,.11-.54l1.99-1.99c.09-.09,.22-.15,.35-.15h5.01c.2,0,.39,.12,.46,.31,.08,.19,.03,.4-.11,.54l-2,2Z"/><path class="uuid-8fa0cbd3-8ad8-49e3-a87d-830c89fafb7e" d="M27.44,21.5h5.01c.13,0,.26,.05,.35,.15l1.99,1.99c.14,.14,.19,.36,.11,.54-.08,.19-.26,.31-.46,.31h-4.99s0,.01,0,.01c-.13,0-.26-.05-.35-.15l-2-2c-.14-.14-.19-.36-.11-.54,.08-.19,.26-.31,.46-.31Z"/><path class="uuid-efb51524-c5cd-4115-a927-fe79f88bdef9" d="M34.44,19.5H13.68l1.2-1.2c.2-.2,.2-.51,0-.71s-.51-.2-.71,0l-2.12,2.12c-.2,.2-.2,.51,0,.71l2.12,2.12c.1,.1,.23,.15,.35,.15s.26-.05,.35-.15c.2-.2,.2-.51,0-.71l-1.34-1.34h20.89c.28,0,.5-.22,.5-.5s-.22-.5-.5-.5Z"/></g></svg>