<?xml version="1.0" encoding="UTF-8"?><svg xmlns="http://www.w3.org/2000/svg" viewBox="0 0 40 40" focusable="false" aria-hidden="true"><defs><style>.uuid-2042e831-ce7c-42bd-94c3-626c7e4f2831{fill:none;}.uuid-d296d183-9c13-4ecd-aa32-07b18a07c556{fill:#000d6e;}.uuid-6ab58091-4a9a-49bb-b1f7-5d7026535f98{fill:#ffaca6;}.uuid-57eea9f8-7050-47a1-bded-feef6223fb44{fill:#d9304c;}</style></defs><g id="uuid-65d478e6-ae9f-44f4-9119-7cb29e182b70"><rect class="uuid-2042e831-ce7c-42bd-94c3-626c7e4f2831" width="40" height="40"/></g><g id="uuid-80ed0e7a-66ff-4989-a6b4-21a888db2a19"><path class="uuid-6ab58091-4a9a-49bb-b1f7-5d7026535f98" d="M12.88,12.18c-4.32,0-7.82,3.5-7.82,7.82s3.5,7.82,7.82,7.82,7.82-3.5,7.82-7.82-3.5-7.82-7.82-7.82Zm0,11.85c-2.23,0-4.03-1.81-4.03-4.03s1.81-4.03,4.03-4.03,4.03,1.81,4.03,4.03-1.81,4.03-4.03,4.03Z"/><path class="uuid-6ab58091-4a9a-49bb-b1f7-5d7026535f98" d="M32.79,18.35c-.09,.09-.22,.15-.35,.15h-5c-.2-.01-.38-.14-.46-.32-.08-.19-.03-.4,.11-.54l1.99-1.99c.09-.09,.22-.15,.35-.15h5.01c.2,0,.39,.12,.46,.31,.08,.19,.03,.4-.11,.54l-2,2Z"/><path class="uuid-57eea9f8-7050-47a1-bded-feef6223fb44" d="M27.44,21.5h5.01c.13,0,.26,.05,.35,.15l1.99,1.99c.14,.14,.19,.36,.11,.54-.08,.19-.26,.31-.46,.31h-4.99s0,.01,0,.01c-.13,0-.26-.05-.35-.15l-2-2c-.14-.14-.19-.36-.11-.54,.08-.19,.26-.31,.46-.31Z"/><path class="uuid-d296d183-9c13-4ecd-aa32-07b18a07c556" d="M34.44,19.5H13.68l1.2-1.2c.2-.2,.2-.51,0-.71s-.51-.2-.71,0l-2.12,2.12c-.2,.2-.2,.51,0,.71l2.12,2.12c.1,.1,.23,.15,.35,.15s.26-.05,.35-.15c.2-.2,.2-.51,0-.71l-1.34-1.34h20.89c.28,0,.5-.22,.5-.5s-.22-.5-.5-.5Z"/></g></svg>