<?xml version="1.0" encoding="UTF-8"?><svg xmlns="http://www.w3.org/2000/svg" viewBox="0 0 40 40" focusable="false" aria-hidden="true"><defs><style>.uuid-36974536-bda7-407f-b23a-0335aa23261f{fill:none;}.uuid-d3203085-4af9-441e-9066-82d8e5f1e1cd{fill:#000d6e;}.uuid-d64c8fbd-b062-488f-bedf-7ddf3dea06be{fill:#6c2273;}.uuid-5cd90093-67d3-48dd-8ab5-2fc5e0217b7d{fill:#b8b2ff;}</style></defs><g id="uuid-4bf74199-f9ec-4415-bed3-ca2bcf45c0df"><rect class="uuid-36974536-bda7-407f-b23a-0335aa23261f" width="40" height="40"/></g><g id="uuid-1270e1b0-c489-44cf-b7b3-4fea951e592d"><path class="uuid-5cd90093-67d3-48dd-8ab5-2fc5e0217b7d" d="M12.88,12.18c-4.32,0-7.82,3.5-7.82,7.82s3.5,7.82,7.82,7.82,7.82-3.5,7.82-7.82-3.5-7.82-7.82-7.82Zm0,11.85c-2.23,0-4.03-1.81-4.03-4.03s1.81-4.03,4.03-4.03,4.03,1.81,4.03,4.03-1.81,4.03-4.03,4.03Z"/><path class="uuid-5cd90093-67d3-48dd-8ab5-2fc5e0217b7d" d="M32.79,18.35c-.09,.09-.22,.15-.35,.15h-5c-.2-.01-.38-.14-.46-.32-.08-.19-.03-.4,.11-.54l1.99-1.99c.09-.09,.22-.15,.35-.15h5.01c.2,0,.39,.12,.46,.31,.08,.19,.03,.4-.11,.54l-2,2Z"/><path class="uuid-d64c8fbd-b062-488f-bedf-7ddf3dea06be" d="M27.44,21.5h5.01c.13,0,.26,.05,.35,.15l1.99,1.99c.14,.14,.19,.36,.11,.54-.08,.19-.26,.31-.46,.31h-4.99s0,.01,0,.01c-.13,0-.26-.05-.35-.15l-2-2c-.14-.14-.19-.36-.11-.54,.08-.19,.26-.31,.46-.31Z"/><path class="uuid-d3203085-4af9-441e-9066-82d8e5f1e1cd" d="M34.44,19.5H13.68l1.2-1.2c.2-.2,.2-.51,0-.71s-.51-.2-.71,0l-2.12,2.12c-.2,.2-.2,.51,0,.71l2.12,2.12c.1,.1,.23,.15,.35,.15s.26-.05,.35-.15c.2-.2,.2-.51,0-.71l-1.34-1.34h20.89c.28,0,.5-.22,.5-.5s-.22-.5-.5-.5Z"/></g></svg>