<?xml version="1.0" encoding="iso-8859-1"?><!--Generator: Adobe Illustrator 26.2.1, SVG Export Plug-In . SVG Version: 6.00 Build 0)--><svg version="1.1" xmlns="http://www.w3.org/2000/svg" xmlns:xlink="http://www.w3.org/1999/xlink" x="0px" y="0px" viewBox="0 0 40 40" style="enable-background:new 0 0 40 40" xml:space="preserve" focusable="false" aria-hidden="true"><g id="Solid"><rect style="fill:none" width="40" height="40"/></g><g id="Icon_Tangerine"><path style="fill:#FA9319" d="M28.91,24.66c-0.02-1.88-0.68-2.48-1.93-3.13c-0.5-0.25-1.08-0.47-1.75-0.65l-2.82-0.65v0.01
		c-0.13,0.19-0.28,0.37-0.46,0.52c-0.34,0.32-0.76,0.55-1.23,0.68c-0.23,0.06-0.48,0.09-0.73,0.09c-0.17,0-0.33-0.03-0.5-0.06
		c-0.065-0.015-0.135-0.024-0.204-0.036c-0.12-0.03-0.241-0.058-0.356-0.104c-0.14-0.05-0.27-0.11-0.39-0.19
		c-0.1-0.06-0.19-0.12-0.28-0.19c-0.18-0.12-0.34-0.28-0.49-0.45c-0.08-0.09-0.15-0.18-0.21-0.27l-0.26,0.06l-2.55,0.59
		c-0.47,0.13-0.9,0.27-1.28,0.44c-0.19,0.07-0.38,0.16-0.55,0.25c-1.19,0.65-1.77,1.11-1.85,3.09v4.15l-1.04,3.25l-0.02,0.08
		c-0.09,0.32-0.13,0.65-0.11,0.96c0.07,1.42,1.228,2.764,2.61,2.9c0.301,0,0.856,0,1.56,0h10.078h5.912L28.91,24.66z"/><path style="fill:#000D6E" d="M15.616,11.022c0.29,0.104,0.613,0.172,0.99,0.172c2.334,0,4.064-1.263,5.354-2.691
		c0.459,1.058,1.455,2.231,2.453,2.941c0.142,0.101,0.445,2.392,0.445,2.392c0.167-0.224,0.297-0.473,0.407-0.732
		c0.992-2.333-0.224-5.835-2.222-5.6c-0.384-0.494-1.715-1.266-2.962-1.266c-1.247,0-2.622,1.112-3.396,1.112
		c-0.498,0-1.376-0.17-1.845-0.884c-0.239,0.713-0.135,1.414,0.305,1.69c-0.569,0.398-1.215,0.108-1.592-0.217
		c0,0,0.11,1.251,0.853,2.202c-0.088,0.689-0.113,1.885,0.356,2.965c0.11,0.253,0.241,0.5,0.41,0.73L15.616,11.022z"/><path style="fill:#FAE052" d="M15.173,15.891c0.137,0,0.266-0.041,0.385-0.112c0.421,1.147,1.183,2.076,2.132,2.675l-0.105,1.525
		l-0.026,0.252l0.007-0.002c0.532,0.788,1.398,1.3,2.422,1.3c1.022,0,1.886-0.51,2.418-1.295l0-0.02L22.298,18.5
		c0.981-0.595,1.771-1.54,2.203-2.713c0.112,0.061,0.23,0.104,0.357,0.104c0.56,0,1.014-0.652,1.014-1.457
		c0-0.596-0.25-1.105-0.607-1.33c-0.11,0.26-0.24,0.509-0.407,0.732c0,0-0.303-2.292-0.445-2.392
		c-0.998-0.71-1.994-1.884-2.453-2.941c-1.29,1.428-3.02,2.691-5.354,2.691c-0.377,0-0.7-0.068-0.99-0.172l-0.443,2.815
		c-0.17-0.231-0.301-0.477-0.41-0.73c-0.355,0.227-0.604,0.734-0.604,1.328C14.159,15.239,14.613,15.891,15.173,15.891z"/><path style="fill:#FAE052" d="M26.254,32.586h-2.065l0.38-0.135c0.223-0.079,0.338-0.323,0.259-0.545
		c-0.079-0.223-0.324-0.342-0.546-0.258l-1.578,0.562l-0.344,0.127L24.148,36h0.386h1.72c0.041,0,0.08-0.009,0.121-0.012
		c0.888-0.063,1.59-0.793,1.59-1.695C27.965,33.35,27.198,32.586,26.254,32.586z"/><g><path style="fill:#000D6E" d="M16.572,20.458L14.75,20.88c-0.47,0.13-0.9,0.27-1.28,0.44l-2.39,7.46l-0.01,0.03l-1.04,3.25
			l-0.02,0.08c-0.09,0.32-0.13,0.65-0.11,0.96c0.07,1.42,1.228,2.764,2.61,2.9c1.541,0,9.562,0,11.638,0l-7.563-15.491
			C16.577,20.493,16.578,20.475,16.572,20.458z"/></g></g><g id="Guides" style="display:none"/><g id="Grid" style="display:none"><g style="display:inline"><g/><g/><g/><g/><g/><g/><g/><g/><g/><g/><g/><g/><g/><g/><g/><g/><g/><g/><g/><g/><g/><g/><g/><g/><g/><g/><g/><g/><g/><g/><g/><g/><g/><g/><g/><g/><g/><g/><g/><g/></g></g></svg>