<?xml version="1.0" encoding="UTF-8"?><svg xmlns="http://www.w3.org/2000/svg" viewBox="0 0 40 40" focusable="false" aria-hidden="true"><g id="uuid-ede69504-fbe6-4f79-a49d-3550a03a46c1"><rect width="40" height="40" fill="none"/></g><g id="uuid-5d1d93e9-d7cb-485d-90df-2c3280704672"><g><path d="M12.44,32.26c.24-.1,.51-.2,.78-.28-.47-2.17-1.06-5.17-1.3-7.08v-.03c-.01-.1-.02-.2-.03-.3-.03-.27-.05-.53-.07-.78,0-.03,0-.07-.01-.1-.01-.15-.02-.3-.03-.45-.01-.24-.02-.47-.03-.69,0-.16-.01-.32-.01-.47-.02-.68,0-1.26,.01-1.69,0-.21,.02-.38,.03-.53,.01-.19,.02-.31,.03-.38,0-.01,0-.04,0-.04l-.09,.04-6.3,3.18c-.42,.22-.77,.54-1.01,.94,.9,3.96,3.28,7.44,6.76,9.72,.22-.49,.69-.82,1.27-1.06Z" fill="none"/><path d="M17.79,36.85l.28,.04h0c-.09-.02-.19-.03-.28-.04Z" fill="none"/><path d="M31.06,22.3l-2.41-1.22h-.02s0,0,0,0l-.34-.17h0s0,.16,.02,.3c.03,.68,.06,1.36,.06,2.04,0,.37-.02,.61-.04,1.05-.01,.14,0,.21-.02,.35,0,.08-.02,.22-.02,.33h0s0,0,0,0c-.01,.04-.01,.08-.01,.11-.02,.28-.05,.57-.08,.87-.18,1.81-1.25,5.44-2.09,8.09-.66-2.67-1.52-6.29-1.7-8.09-.03-.31-.06-.58-.08-.86,0,0,0-.02,0-.04,0-.03,0-.05,0-.08,0,0,0,0,0,0-.01-.31-.06-1.25-.07-1.58v-.8c0-.2,0-.37,0-.54l.06-.96v-.13s.01-.07,.01-.07l-.03,.02c-.07,.04-.26,.14-.26,.14,0,0,0,0,0,0-.06,.04-2.5,1.27-2.5,1.27l-5.71-2.88s.04,.35,.07,.95c.01,.29,.02,.66,.02,1.07,0,.02,0,.04,0,.06,.52-.24,1.13-.55,1.7-.55,.92,0,1.91,.57,2.19,.94,.51-.06,.95,.21,1.27,.65,.65,.85,.87,2.37,.39,3.51,.24,.16,.4,.48,.43,.87,0,.04,.01,.07,.01,.11,0,0,0,0,0,0,0,0,0,0,0,0,0,.09-.02,.17-.04,.26-.05,.25-.15,.46-.29,.61-.12,.12-.26,.21-.42,.21-.1,0-.18-.03-.26-.08,0,0,0,0,0,0-.32,.87-.91,1.57-1.63,2.01l.08,1.1v.19c-.44,.48-1.07,.78-1.79,.78s-1.35-.3-1.77-.77h0c-.17,.03-.37,.09-.52,.11-.23,.06-.47,.11-.71,.17-.03,0-.05,0-.07,.02-.28,.07-.55,.13-.81,.2-.01,0-.02,.01-.03,.01s-.03,0-.04,.01c-.12,.03-.24,.07-.35,.1v2.52c.24,.11,.48,.22,.72,.31l.04,.02s.04,.01,.05,.02c.94,.38,1.96,.68,3.03,.88,.37,.06,.75,.12,1.13,.17,.62,.07,1.22,.1,1.81,.1s1.17-.03,1.78-.1c.07,0,.14-.02,.21-.03v-3.85c.27,.09,.53,.18,.77,.29,.01,.01,.03,.01,.04,.02,.01,0,.02,.01,.02,.01,.11,.05,.21,.11,.31,.17,.01,0,.01,0,.02,0s0,.01,.02,.01c.04,.02,.07,.05,.1,.07,.06,.04,.11,.07,.15,.11,.01,.01,.03,.02,.04,.03,.02,.02,.03,.04,.05,.05,.06,.05,.12,.11,.16,.16,.05,.06,.09,.12,.14,.18,.02,.04,.05,.08,.07,.13,.05,.09,.09,.19,.12,.3,.01,.02,.02,.04,.02,.06,.04,.14,.06,.29,.06,.45v1.41c5.49-1.44,9.67-5.62,11.24-10.86-.21-.22-.45-.4-.73-.54l-3.53-1.78Zm-6.72-1.37v.16s0-.16,0-.16Z" fill="none"/><path d="M17.72,36.84c.12,.02,.23,.04,.35,.05l-.28-.04s-.04,0-.07,0Z" fill="#6c2273"/><line x1="24.34" y1="20.93" x2="24.33" y2="21.1" stroke="#000d6e" stroke-linecap="round" stroke-linejoin="round" stroke-width="0px" fill="none"/><path d="M28.3,24.98s0,0,0,0c-.01,.04,0,.08,0,.11,0-.03,0-.07,.01-.11Z" fill="#fa9319"/><path d="M24.33,24.98s0,.05,0,.08c0-.02,0-.04,0-.07,0,0,0,0,0,0Z" fill="#fa9319"/><path d="M4.77,27.56c.08,.17,.18,.34,.27,.51-.06-.1-.1-.21-.16-.32-.03-.07-.08-.13-.11-.19Z" fill="#fff"/><path d="M5.73,29.23s-.01-.02-.02-.03c-.2-.31-.4-.62-.58-.95,.19,.33,.38,.66,.59,.98Z" fill="#fff"/><path d="M15.24,36.32c.38,.12,.76,.21,1.15,.3-.34-.08-.68-.17-1.02-.27-.04-.01-.09-.02-.13-.03Z" fill="#fff"/><path d="M35.77,26.35c.06-.14,.12-.28,.17-.42-.02,.06-.06,.12-.08,.19-.03,.08-.06,.15-.09,.23Z" fill="#fff"/><path d="M21.99,36.89h0s-.07,0-.1,0h.1Z" fill="#fff"/><path d="M21.89,27.05s0,0,0,0c0,.09-.02,.17-.04,.26,.02-.08,.04-.17,.04-.26Z" fill="#fa9319"/><path d="M14.24,28.04c-.09,.05-.18,.08-.29,.08-.42,0-.75-.48-.75-1.08,0-.44,.18-.81,.44-.98-.23-.52-.3-1.08-.3-1.55,0,0,0,0,0,0-.61-.1-1.14-.4-1.54-.82-.01-.15-.02-.3-.03-.44-.01-.24-.02-.47-.03-.69,0,.22,.02,.44,.03,.69,0,.15,.02,.3,.03,.45,.01,.03,.01,.07,.01,.1,.02,.25,.04,.51,.07,.78,.01,.1,.02,.2,.03,.3v.03c.24,1.91,.83,4.91,1.3,7.08,.11-.03,.23-.07,.35-.1,.01-.01,.03-.01,.04-.01s.02-.01,.03-.01c.26-.07,.53-.13,.81-.2,.02-.01,.04-.01,.07-.02,.24-.06,.48-.11,.71-.17,.15-.02,.35-.08,.52-.12l.07-1.32c-.7-.44-1.27-1.13-1.58-1.98Z" fill="#6c2273"/><path d="M28.21,19.66c.23-.16,.44-.35,.64-.56,.16-.17,.3-.36,.43-.56,.03-.04,.07-.08,.1-.13,.61-.96,.81-1.99,.8-3.12,0-.09-.03-1.57-.09-1.57-3.71,.02-5.44-1.89-5.85-2.41-.25,1.32-1.78,2.41-1.78,2.41,0,.68,.03,1.34,.1,2,.11,1.02,.25,1.96,.84,2.83,.08,.12,.16,.23,.25,.34,.07,.08,.14,.16,.21,.24,.18,.19,.35,.36,.56,.51l-.09,1.26s-.02,0-.03,.02l.03-.02v.07s-.01,.13-.01,.13l-.06,.96c-.01,.17-.01,.34-.01,.54v.8c.01,.34,.06,1.27,.08,1.58,0,.03,0,.06,0,.07,0,.01,0,.03,0,.04,.02,.28,.05,.55,.08,.86,.18,1.8,1.04,5.42,1.7,8.09,.84-2.65,1.91-6.28,2.09-8.09,.03-.3,.06-.59,.08-.87,0-.03,0-.07,0-.11h0c0-.11,.01-.26,.02-.33,0-.14,0-.21,.02-.35,.02-.44,.04-.68,.04-1.05,0-.68-.02-1.36-.06-2.04-.01-.14-.02-.29-.02-.3h0s0,0,0,0l-.08-1.24Z" fill="#6c2273"/><path d="M20.88,28.05c.09,.05,.17,.08,.26,.08,.16,0,.3-.09,.42-.21-.12,.12-.26,.21-.42,.21-.09,0-.18-.03-.26-.08Z" fill="#fa9319"/><path d="M20,3C10.61,3,3,10.61,3,20c0,1.94,.32,3.8,.92,5.54,.26,.77,.59,1.5,.96,2.21,.05,.1,.1,.21,.16,.32,.03,.06,.06,.12,.1,.18,.18,.32,.38,.64,.58,.95,1.36,2.11,3.16,3.9,5.29,5.22,.1,.06,.2,.13,.31,.19h.01l.36,.21c.13,.08,.26,.15,.39,.22,.05,.02,.09,.05,.15,.08t.04,.01h0c.11,.07,.22,.12,.34,.17,.02,.01,.04,.02,.06,.03,.05,.03,.11,.05,.17,.08,.03,.02,.05,.03,.08,.04,.05,.02,.1,.04,.15,.06,.01,0,.02,0,.03,.02,.05,.02,.09,.04,.13,.06,.12,.05,.24,.1,.36,.15,.02,0,.04,.01,.06,.02h0c.56,.24,1.14,.43,1.73,.59,.34,.1,.67,.19,1.02,.27,.44,.1,.88,.17,1.33,.22,.02,0,.04,0,.07,0,.09,.01,.19,.03,.28,.03h0s.04,.01,.04,.01c.25,.03,.49,.06,.74,.07,.38,.03,.76,.04,1.15,.04,.64,0,1.27-.04,1.89-.11,.03,0,.07-.01,.1-.01,.34-.04,.68-.09,1.01-.15,.36-.06,.71-.13,1.06-.22h.02c.32-.08,.64-.17,.95-.26,.14-.05,.29-.1,.43-.15h0c.36-.12,.71-.25,1.07-.41,.38-.15,.75-.32,1.11-.51,3.75-1.89,6.69-5.12,8.21-9.06,.02-.06,.06-.12,.08-.19,.69-1.85,1.06-3.84,1.06-5.93,0-9.39-7.61-17-17-17Zm4.08,32.48c-.07,.02-.15,.04-.23,.06-.62,.14-1.25,.26-1.86,.33-.07,.01-.14,.02-.21,.03-.61,.07-1.21,.1-1.78,.1s-1.19-.03-1.81-.1c-.38-.05-.76-.11-1.13-.17-1.07-.2-2.09-.5-3.03-.88-.01-.01-.02-.01-.05-.02l-.04-.02c-.24-.09-.48-.2-.72-.31-.55-.26-1.11-.57-1.69-.93-.12-.08-.24-.15-.36-.25-3.48-2.28-5.86-5.76-6.76-9.72,.24-.4,.59-.72,1.01-.94l6.3-3.18,.09-.04s0,.03,0,.04c0-.03,0-.05,0-.05v-1.28c-1.01-.69-1.76-1.87-2.06-3.29-.06,.02-.11,.02-.17,.02-.49,0-.89-.55-.89-1.22,0-.54,.26-.99,.62-1.15v-.11c-.05-.36-.12-.74-.07-1.1,.07-.46,.07-.55,.09-1.01,.01-.5,.12-1.01,.38-1.47,.05-.08,.11-.16,.17-.24,.28-.38,.69-.41,.89-.84,.27-.58,.3-.97,.99-1.19,1.1-.35,1.54-.36,2.34-.13,.5,.15,.87,.4,1.39,.49,.52,.08,1.08,.04,1.54,.23,.94,.4,1.18,1.54,1.36,2.36,.14,.67,.07,1.41,0,2.13v.91c.32,.18,.56,.6,.56,1.11,0,.67-.4,1.22-.89,1.22-.04,0-.08,0-.11-.02-.31,1.43-1.08,2.63-2.11,3.31v1.26s0,0,0,0l5.71,2.88s2.44-1.23,2.5-1.27c-.35-.06-.7-.12-1.05-.21-.27-.07-.55-.11-.74-.34-.33-.4-.46-.94-.57-1.43-.37-1.57-.39-3.26-.32-4.86,.04-.94,.35-1.9,.74-2.75,.25-.55,.58-1.08,1.01-1.51,.24-.24,.53-.46,.85-.59,.07-.03,.31-.05,.35-.1,.31-.33,.76-.68,1.22-.77,.5-.1,1.01-.15,1.52-.13,1.2,.05,2.29,.59,3.03,1.55,.59,.78,.93,1.73,1.11,2.68,.09,.47,.14,.94,.15,1.41,.18,6.74-1.01,6.79-1.22,6.84-.21,.04-1.15,.19-1.49,.24h.02s2.41,1.23,2.41,1.23l3.53,1.78c.28,.14,.52,.32,.73,.54-1.57,5.24-5.75,9.42-11.24,10.86Z" fill="#6c2273"/><path d="M23.27,32.6c.05,.04,.1,.07,.15,.11-.05-.03-.1-.07-.15-.11Z" fill="#fa9319"/><path d="M15.9,21.52s0-.04,0-.06c0,.02,0,.04,0,.06,0,0,0,0,0,0Z" fill="#fa9319"/><path d="M21.88,26.94c-.03-.39-.19-.71-.43-.87,0,0,0,0,0,0,.24,.16,.4,.48,.43,.87Z" fill="#fa9319"/><path d="M11.75,20.39c-.02,.43-.03,1.01-.01,1.69,0,.15,0,.31,.01,.47,0,.22,.02,.45,.03,.69,0,.14,.02,.29,.03,.44,.39,.43,.93,.72,1.54,.82,0-.25,.02-.47,.04-.65-.55-.7-.63-1.63-.63-1.63,.28,.24,.75,.46,1.18,.16-.33-.2-.41-.72-.23-1.25,.35,.53,1,.65,1.37,.65,.22,0,.5-.12,.82-.27,0-.02,0-.04,0-.06,0-.41,0-.78-.02-1.07-.03-.6-.06-.94-.07-.95,0,0,0,0,0,0v-1.26c1.04-.68,1.81-1.87,2.12-3.31,.04,0,.08,.02,.11,.02,.49,0,.89-.55,.89-1.22,0-.51-.23-.93-.56-1.11v.09c0,.24-.19,.43-.43,.43h-.14c-.24,0-.43-.19-.43-.43v-1.14s0-.01,0-.02c-.04-.17-.09-.45-.14-.71,0,0,0,0,0,0-.05-.08-.12-.17-.21-.25,0,0-.01-.02-.02-.02-.09-.09-.21-.18-.35-.28-.42-.28-1.43,.03-2.51,.09-1.35,.07-2.01-.63-2.6-.37-.41,.18-.46,.27-.59,.6-.17,.38-.53,.67-.66,1.07h0v1.03c0,.24-.19,.43-.43,.43h-.14c-.24,0-.43-.19-.43-.43v-.13c-.36,.16-.62,.61-.62,1.15,0,.67,.4,1.22,.89,1.22,.06,0,.12,0,.17-.02,.3,1.42,1.05,2.6,2.06,3.29v1.28s0,.02,0,.05c0,.06-.02,.19-.03,.38-.01,.15-.02,.31-.03,.53Z" fill="#b8b2ff"/><path d="M9.74,13.08h.14c.24,0,.43-.19,.43-.43v-1.03h0c.13-.4,.49-.69,.66-1.08,.13-.33,.18-.42,.59-.6,.59-.25,1.25,.45,2.6,.37,1.08-.07,2.09-.37,2.51-.09,.14,.09,.26,.19,.35,.28,0,0,.01,.02,.02,.02,.08,.08,.15,.17,.21,.25,0,0,0,0,0,0,.06,.26,.1,.54,.14,.71,0,0,0,.01,0,.02v1.14c0,.24,.19,.43,.43,.43h.14c.24,0,.43-.19,.43-.43v-1c.07-.72,.15-1.46,0-2.13-.18-.82-.42-1.96-1.36-2.36-.46-.2-1.02-.15-1.54-.23-.52-.09-.89-.35-1.39-.49-.8-.23-1.24-.22-2.34,.13-.69,.22-.72,.62-.99,1.19-.2,.43-.61,.46-.89,.84-.06,.08-.12,.16-.17,.24-.26,.46-.37,.96-.38,1.47-.02,.46-.02,.55-.09,1.01-.05,.36,.02,.73,.07,1.1v.24c0,.24,.19,.43,.43,.43Z" fill="#000d6e"/><path d="M24.02,33.62s-.01-.04-.02-.06c-.03-.11-.07-.21-.12-.3-.02-.05-.05-.09-.07-.13-.05-.06-.09-.12-.14-.18-.04-.05-.1-.11-.16-.16-.02-.01-.03-.03-.05-.05-.01-.01-.03-.02-.04-.03-.05-.04-.1-.07-.15-.11-.03-.02-.06-.05-.1-.07-.01,0-.01-.01-.02-.01s-.01,0-.02,0c-.1-.06-.2-.12-.31-.17,0,0-.01-.01-.02-.01-.01,0-.03,0-.04-.02-.24-.11-.5-.2-.77-.29v3.85c.61-.07,1.24-.19,1.86-.33,.08-.02,.16-.04,.23-.06v-1.41c0-.16-.02-.31-.06-.45Z" fill="#b8b2ff"/><path d="M12.44,32.26c-.58,.24-1.05,.57-1.27,1.06,.12,.1,.24,.17,.36,.25,.58,.36,1.14,.67,1.69,.93v-2.52c-.27,.08-.54,.18-.78,.28Z" fill="#b8b2ff"/><path d="M15.08,21.79c-.37,0-1.02-.12-1.37-.65-.18,.53-.1,1.05,.23,1.25-.43,.3-.9,.08-1.18-.16,0,0,.08,.93,.63,1.63-.02,.18-.04,.41-.04,.65,0,0,0,0,0,0,0,.47,.07,1.03,.3,1.55,0,0,0,0,0,0,.08,.18,.18,.36,.31,.53l.33-2.08c.21,.07,.45,.12,.73,.12,.25,0,.49-.02,.72-.06,1.04-.16,1.89-.66,2.6-1.29-.01,.24-.06,.48-.13,.7h0c-.05,.19-.13,.35-.2,.49,.3-.19,.61-.45,.76-.77,.02-.04,.04-.07,.05-.11,.01,.02,.02,.05,.03,.07,.24,.56,.87,.91,1.43,1.1-.25-.3-.53-.71-.71-1.17,.36,.47,.79,.91,1.24,1.23,.1,.07,.33,1.77,.33,1.77,.12-.16,.23-.34,.31-.53,0,0,0,0,0,0,.48-1.14,.26-2.66-.39-3.51-.32-.44-.76-.71-1.27-.65-.28-.37-1.27-.94-2.19-.94-.57,0-1.18,.31-1.7,.55,0,0,0,0,0,0-.32,.15-.6,.27-.82,.27Z" fill="#000d6e"/><path d="M24.31,20.92s.03-.02,.03-.02l.09-1.26c-.2-.14-.38-.32-.56-.51-.07-.08-.14-.15-.21-.24-.09-.11-.17-.22-.25-.34-.59-.86-.73-1.81-.84-2.83-.07-.66-.11-1.32-.1-2,0,0,1.53-1.09,1.78-2.41,.41,.53,2.14,2.43,5.85,2.41,.06,0,.09,1.48,.09,1.57,0,1.13-.19,2.16-.8,3.12-.03,.05-.07,.08-.1,.13-.14,.2-.28,.39-.43,.56-.2,.21-.41,.4-.64,.56l.08,1.24h0s.34,.17,.34,.17c0,0,0,0,0,0,.34-.05,1.28-.19,1.49-.24,.21-.04,1.4-.1,1.22-6.84-.01-.47-.06-.95-.15-1.41-.18-.95-.52-1.9-1.11-2.68-.73-.96-1.83-1.49-3.03-1.55-.51-.02-1.02,.03-1.52,.13-.46,.09-.91,.44-1.22,.77-.04,.05-.29,.07-.35,.1-.32,.13-.6,.35-.85,.59-.43,.43-.75,.96-1.01,1.51-.39,.85-.7,1.81-.74,2.75-.07,1.6-.05,3.29,.32,4.86,.11,.49,.24,1.04,.57,1.43,.19,.23,.47,.27,.74,.34,.34,.09,.69,.15,1.05,.21,0,0,0,0,0,0,0,0,.19-.1,.26-.14Z" fill="#000d6e"/><path d="M21.45,26.07c-.08,.19-.19,.37-.31,.53,0,0-.23-1.7-.33-1.77-.45-.32-.88-.76-1.24-1.23,.18,.46,.46,.87,.71,1.17-.56-.19-1.19-.54-1.43-1.1,0-.02-.02-.05-.03-.07-.01,.04-.03,.07-.05,.11-.15,.32-.46,.58-.76,.77,.07-.14,.15-.3,.2-.48h0c.07-.23,.12-.47,.13-.71-.71,.63-1.56,1.13-2.6,1.29-.23,.04-.47,.06-.72,.06-.28,0-.52-.05-.73-.12l-.33,2.08c-.13-.17-.23-.35-.31-.53,0,0,0,0,0,0-.26,.17-.44,.54-.44,.98,0,.6,.34,1.08,.75,1.08,.1,0,.2-.03,.29-.08,.31,.85,.88,1.54,1.58,1.98l-.07,1.32h0c.43,.48,1.07,.78,1.77,.78s1.35-.29,1.79-.78v-.19l-.08-1.1c.73-.44,1.31-1.14,1.63-2.01,0,0,0,0,0,0,.08,.04,.17,.08,.26,.08,.16,0,.3-.09,.42-.21,.15-.15,.25-.36,.29-.61,.02-.09,.04-.17,.04-.26,0,0,0,0,0,0,0-.04,0-.07-.01-.11-.03-.39-.19-.71-.43-.87Z" fill="#b8b2ff"/></g><path d="M24.33,21.1l-.05,.65s-.01,.2-.01,.2c0,0,0,0,0,0,0,.21-.02,.41-.01,.64,0,.23,0,.5,0,.77,0,.39,.02,.81,.05,1.28,0,.11,.01,.21,.02,.32,.46,.59,1.17,.98,1.98,.98s1.52-.39,1.98-.98c0-.11,.01-.22,.02-.32,0-.14,.01-.27,.02-.4,.02-.44,.03-.86,.03-1.22,.01-.37,0-.69-.01-.97v-.09s0-.01,0-.02c0,0,0,0,0,0l-.05-.82h0v-.22s-.01,0-.01,0h0s-.08-1.24-.08-1.24c.23-.16,.44-.35,.64-.56,.16-.17,.3-.36,.43-.56,.03-.04,.07-.08,.1-.13,.32-.5,.57-1.08,.73-1.71,0,0,0,0,0,0,.17-1.51-.02-2.98-.02-2.98-3.71,.02-5.44-1.89-5.85-2.41h0c-.25,1.32-1.78,2.41-1.78,2.41,0,0-.04,2.03,.42,3.9,.14,.34,.32,.64,.52,.93,.08,.12,.16,.23,.25,.34,.07,.08,.14,.16,.21,.24,.18,.19,.36,.36,.56,.51h0l-.09,1.26h0s0,0,0,0c0,0,0,0,0,0v.03s-.01,.16-.01,.16Z" fill="#b8b2ff"/></g></svg>