<svg xmlns="http://www.w3.org/2000/svg" viewBox="0 0 40 40" focusable="false" aria-hidden="true"><g id="Solid"><rect width="40" height="40" fill="none"/></g><g id="Icon_Red" data-name="Icon Red"><rect x="11.9609" y="24.0184" width="2" height="2" fill="none"/><rect x="6" y="24.0184" width="2" height="2" fill="none"/><rect x="17.9585" y="24.0184" width="2" height="2" fill="none"/><path d="M26.7384,20.46,26.5,7h-4L22,19l-6-4v4l-6-4v4L4,15V31H26.1105A6.9759,6.9759,0,0,1,26.7384,20.46ZM8,26.0184H6v-2H8Zm5.9609,0h-2v-2h2Zm5.9976,0h-2v-2h2Z" fill="#d9304c"/><path d="M31,20a6,6,0,1,0,6,6A6,6,0,0,0,31,20Zm2.117,6.9005L31,28.5v0l0,0,0,0v0L28.883,26.9005a1.891,1.891,0,0,1-.001-3.206A1.75,1.75,0,0,1,31,24.2188a1.75,1.75,0,0,1,2.1181-.5243A1.891,1.891,0,0,1,33.117,26.9005Z" fill="#ffaca6"/><path d="M33.118,23.6945A1.75,1.75,0,0,0,31,24.2188a1.75,1.75,0,0,0-2.1179-.5243,1.891,1.891,0,0,0,.001,3.206L31,28.5v0l0,0,0,0v0l2.1168-1.5991A1.891,1.891,0,0,0,33.118,23.6945Z" fill="#000d6e"/></g></svg>