<?xml version="1.0" encoding="UTF-8"?><svg id="Calque_1" data-name="Calque 1" xmlns="http://www.w3.org/2000/svg" viewBox="0 0 40 40" focusable="false" aria-hidden="true"><defs><style>.cls-1 {
        fill: none;
      }

      .cls-2 {
        fill: #000d6e;
      }

      .cls-3 {
        fill: #1b5951;
      }

      .cls-4 {
        fill: #94e3d4;
      }</style></defs><path class="cls-1" d="M0,0H40V40H0V0Z"/><path class="cls-4" d="M6.94,23.01h-1.91v7.99h1.91c.6,0,1.08-.49,1.08-1.08v-5.82c0-.6-.49-1.08-1.08-1.08Z"/><path class="cls-3" d="M34.95,26.23c-.13-.71-.75-1.22-1.47-1.22l-.3,.03-7.19,1.73v.24c0,1.29-1.18,2-2,2H15.01c-.28,0-.5-.22-.5-.5s.22-.5,.5-.5h8.98c.28,0,1-.3,1-1h0v-.03s0-.97,0-.97v-.06s0-.01,0-.01c-.02-.29-.18-.56-.43-.72h0s-.05-.04-.08-.05h-.01s-.05-.03-.07-.04h0s-.02-.01-.03-.02h-.03s0-.02,0-.02c0,0-.02,0-.03-.01h-.01s-.03-.01-.03-.01h-.01s-.03-.01-.03-.01h-.01s0,0,0,0c-.02,0-.05-.01-.07-.02h0s-.08-.01-.12-.01h-5.02c-.52-.01-1.01-.34-1.57-.72l-.09-.06h-.02s-.05-.05-.08-.07h-.02c-.07-.06-.14-.11-.21-.15h-.01s-.1-.08-.1-.08h0c-.08-.05-.16-.1-.24-.15h0c-.39-.24-.8-.42-1.24-.56-.55-.13-1.12-.2-1.69-.2h-3.68c-.55,0-1,.45-1,1v3.99h0s0,.07,0,.11v1.88s0,.64,1,1c1,.36,6.47,2.61,6.6,2.67,1.02,.42,2.16,.44,3.2,.07,.01,0,14.2-5.84,14.2-5.84,.67-.26,1.06-.97,.93-1.67Z"/><g><path class="cls-2" d="M23,15c2.76,0,5-2.24,5-5,0-2.76-2.24-5-5-5-2.76,0-5,2.24-5,5,0,2.76,2.24,5,5,5Zm-2.49-4.85h.39c0-.05,0-.1,0-.15,0-.05,0-.1,0-.15h-.34l.06-.61h.4c.31-.9,1.18-1.5,2.14-1.46,.73-.03,1.42,.32,1.83,.93l-.82,.55c-.2-.38-.61-.6-1.04-.57-.43-.02-.83,.2-1.06,.55h1.19l-.06,.61h-1.32s0,.1,0,.15c0,.05,0,.1,0,.15h1.28l-.06,.6h-1.02c.24,.36,.64,.57,1.07,.55,.43,.03,.83-.19,1.03-.57l.82,.55c-.41,.61-1.1,.96-1.84,.93-.95,.03-1.82-.56-2.13-1.46h-.56l.06-.6Z"/><path class="cls-2" d="M27.09,22h-8.18c-.5,0-.91,.45-.91,1s.39,.98,.88,.99c0,0,.02,0,.03,0h8.18c.5,0,.91-.45,.91-1s-.41-1-.91-1Z"/><path class="cls-2" d="M27.09,19h-8.18c-.5,0-.91,.45-.91,1s.41,1,.91,1h8.18c.5,0,.91-.45,.91-1s-.41-1-.91-1Z"/><path class="cls-2" d="M27.09,16h-8.18c-.5,0-.91,.45-.91,1,0,.46,.28,.82,.66,.94,.08,.03,.16,.06,.25,.06h8.18c.5,0,.91-.45,.91-1s-.41-1-.91-1Z"/></g></svg>