<svg xmlns="http://www.w3.org/2000/svg" viewBox="0 0 40 40" focusable="false" aria-hidden="true"><g id="Solid"><rect width="40" height="40" fill="none"/></g><g id="Icon_Green" data-name="Icon Green"><path d="M34,11a1,1,0,0,0-1-1H7a1,1,0,0,0-1,1V28H34Z" fill="#1b5951"/><path d="M23,29v2H17V29H4v1a2,2,0,0,0,2,2H34a2,2,0,0,0,2-2V29Z" fill="#1b5951"/><rect x="7" y="10.9824" width="26" height="16" fill="#94e3d4"/><rect x="17" y="28.9824" width="6" height="2" fill="#94e3d4"/><path d="M9.5356,24.4258a.5.5,0,0,1-.37-.836l5.2588-5.7959L17.97,20.7725l5.002-5.375,2.9741,2.5078,2.9536-3.24a.5.5,0,0,1,.7393.6739L26.0366,19.29l-2.9819-2.5136-5,5.373-3.5366-2.9707-4.6124,5.083A.5.5,0,0,1,9.5356,24.4258Z" fill="#000d6e"/></g></svg>