<?xml version="1.0" encoding="UTF-8"?><svg xmlns="http://www.w3.org/2000/svg" viewBox="0 0 40 40" focusable="false" aria-hidden="true"><defs><style>.uuid-9b73a815-e566-4b71-bddc-cde1d99dab9a{fill:none;}.uuid-c6edbd62-6a3b-49ee-9258-92e4a88fd61b{fill:#fa9319;}.uuid-aca95c88-b651-47f2-ac06-b0ca6cb0ffba{fill:#000d6e;}.uuid-9aa9c4c7-5f39-4e87-b11a-8b13af685f3f{fill:#fae052;}</style></defs><g id="uuid-b5aad4d4-1881-49f4-b306-832aac96409d"><rect class="uuid-9b73a815-e566-4b71-bddc-cde1d99dab9a" width="40" height="40"/></g><g id="uuid-168bfadf-78a7-4b51-a79a-c58fa9c1c04f"><path class="uuid-aca95c88-b651-47f2-ac06-b0ca6cb0ffba" d="M29.47,25.03c-.2-.2-.51-.2-.71,0l-1.27,1.27v-6.29h-4.46l-3.04-3.04-3.04,3.04h-4.46v6.29l-1.27-1.27c-.2-.2-.51-.2-.71,0s-.2,.51,0,.71l2.12,2.12c.1,.1,.23,.15,.35,.15s.26-.05,.35-.15l2.12-2.12c.2-.2,.2-.51,0-.71s-.51-.2-.71,0l-1.27,1.27v-5.29h3.46l3.04,3.04,3.04-3.04h3.46v5.29l-1.27-1.27c-.2-.2-.51-.2-.71,0s-.2,.51,0,.71l2.12,2.12c.1,.1,.23,.15,.35,.15s.26-.05,.35-.15l2.12-2.12c.2-.2,.2-.51,0-.71Z"/><path class="uuid-c6edbd62-6a3b-49ee-9258-92e4a88fd61b" d="M17,29.03H8v6h10v-6h-1Zm0,5H9v-4h8v4Z"/><path class="uuid-c6edbd62-6a3b-49ee-9258-92e4a88fd61b" d="M31,29.03h-9v6h10v-6h-1Zm0,5h-8v-4h8v4Z"/><path class="uuid-aca95c88-b651-47f2-ac06-b0ca6cb0ffba" d="M32.76,24c-.17-.03-.27-.06-.36-.15l-2.12-2.2c-.19-.2-.19-.51,.01-.71,.2-.19,.52-.19,.71,.01l1.76,1.83,3.91-3.91c.2-.2,.51-.2,.71,0s.2,.51,0,.71l-4.27,4.27c-.09,.09-.22,.15-.35,.15Z"/><path class="uuid-aca95c88-b651-47f2-ac06-b0ca6cb0ffba" d="M8.41,23.14l-1.41-1.41,1.41-1.41c.2-.2,.2-.51,0-.71s-.51-.2-.71,0l-1.41,1.41-1.41-1.41c-.2-.2-.51-.2-.71,0s-.2,.51,0,.71l1.41,1.41-1.41,1.41c-.2,.2-.2,.51,0,.71s.51,.2,.71,0l1.41-1.41,1.41,1.41c.2,.2,.51,.2,.71,0s.2-.51,0-.71Z"/><path class="uuid-c6edbd62-6a3b-49ee-9258-92e4a88fd61b" d="M24,4H15v6h4.47v4.29l-1.27-1.27c-.2-.2-.51-.2-.71,0s-.2,.51,0,.71l2.12,2.12c.1,.1,.23,.15,.35,.15s.26-.05,.35-.15l2.12-2.12c.2-.2,.2-.51,0-.71s-.51-.2-.71,0l-1.27,1.27v-4.29h4.53V4h-1Zm0,5h-8V5h8v4Z"/><g><rect class="uuid-9b73a815-e566-4b71-bddc-cde1d99dab9a" x="18.5" y="19" width="3" height="3" transform="translate(-8.64 20.15) rotate(-45)"/><path class="uuid-aca95c88-b651-47f2-ac06-b0ca6cb0ffba" d="M20,16.96l-3.54,3.54,3.54,3.54,3.54-3.54-3.54-3.54Zm-2.12,3.54l2.12-2.12,2.12,2.12-2.12,2.12-2.12-2.12Z"/></g><rect class="uuid-9aa9c4c7-5f39-4e87-b11a-8b13af685f3f" x="18.5" y="19" width="3" height="3" transform="translate(-8.64 20.15) rotate(-45)"/><rect class="uuid-9aa9c4c7-5f39-4e87-b11a-8b13af685f3f" x="9" y="30.03" width="8" height="4"/><rect class="uuid-9aa9c4c7-5f39-4e87-b11a-8b13af685f3f" x="23" y="30.03" width="8" height="4"/><rect class="uuid-9aa9c4c7-5f39-4e87-b11a-8b13af685f3f" x="16" y="5" width="8" height="4"/></g></svg>