<?xml version="1.0" encoding="UTF-8"?><svg xmlns="http://www.w3.org/2000/svg" viewBox="0 0 40 40" focusable="false" aria-hidden="true"><defs><style>.uuid-ab72ecc3-1434-494b-8ca1-949ef8d546b2{fill:none;}.uuid-016a502d-aa9b-4183-bb03-f5f4a1d24e4e{fill:#fa9319;}.uuid-9a2c1ea5-8a8c-4cf4-8f2b-46c71f59b89d{fill:#000d6e;}.uuid-1e86696d-3e89-482a-abfc-8f5113e1e5e1{fill:#fae052;}</style></defs><g id="uuid-09b26e42-8c8d-4c8a-bc22-caa66b9be2e2"><rect class="uuid-ab72ecc3-1434-494b-8ca1-949ef8d546b2" width="40" height="40"/></g><g id="uuid-54df309c-22d2-4cd5-b594-88759946b274"><path class="uuid-1e86696d-3e89-482a-abfc-8f5113e1e5e1" d="M6.94,23.01h-1.91v7.99h1.91c.6,0,1.08-.48,1.08-1.08v-5.82c0-.6-.48-1.08-1.08-1.08Z"/><path class="uuid-016a502d-aa9b-4183-bb03-f5f4a1d24e4e" d="M34.95,26.22c-.13-.71-.75-1.22-1.47-1.22l-.3,.03-7.19,1.72v.24c0,1.29-1.18,2-2,2H15.01c-.28,0-.5-.22-.5-.5s.22-.5,.5-.5h8.98c.28,0,1-.3,1-1h0s0,0,0,0c0,0,0-.02,0-.03v-.97h0s0-.04,0-.06c0,0,0,0,0-.01-.02-.33-.21-.57-.43-.72,0,0,0,0,0,0-.02-.02-.05-.03-.07-.05,0,0-.01,0-.02,0-.02-.01-.05-.03-.07-.04,0,0,0,0,0,0-.01,0-.02-.01-.04-.02-.01,0-.02-.01-.04-.01,0,0,0,0,0,0,0,0-.02,0-.03-.01,0,0,0,0-.01,0,0,0-.02,0-.03,0,0,0,0,0-.01,0,0,0-.02,0-.03,0,0,0,0,0-.01,0,0,0,0,0,0,0-.02,0-.04-.01-.07-.02,0,0,0,0,0,0-.05,0-.09-.01-.12-.01h-5.02s0,0,0,0c-.52-.01-1.01-.34-1.57-.72-.03-.02-.06-.04-.09-.06,0,0-.02-.01-.02-.02-.03-.02-.06-.04-.08-.06,0,0-.01,0-.02-.01-.07-.05-.14-.09-.21-.14,0,0,0,0-.01,0-.03-.02-.07-.05-.1-.07h0c-.08-.05-.16-.1-.24-.15,0,0,0,0,0,0-.37-.22-.77-.42-1.24-.56-.56-.13-1.13-.2-1.69-.2h-3.68c-.55,0-1,.45-1,1v3.99h0s0,.07,0,.11v1.88s0,.64,1,1c1,.36,6.47,2.61,6.6,2.67,.54,.22,1.12,.33,1.69,.33,.51,0,1.02-.09,1.51-.26,.01,0,14.2-5.84,14.2-5.84,.67-.26,1.06-.96,.93-1.67Z"/><g><path class="uuid-ab72ecc3-1434-494b-8ca1-949ef8d546b2" d="M24.51,11.18l-2.74,2.73,2.73-2.72,2.73,2.72c.13,.13,.29,.19,.46,.19-.16,0-.33-.06-.45-.19l-2.74-2.73Z"/><path class="uuid-1e86696d-3e89-482a-abfc-8f5113e1e5e1" d="M28.32,11.16c-.45,0-1.17,0-2.02,0l1.85,1.85c.25,.25,.25,.66,0,.91-.13,.13-.29,.19-.46,.19-.17,0-.33-.06-.46-.19l-2.73-2.72-2.73,2.72c-.25,.25-.66,.25-.91,0-.25-.25-.25-.66,0-.91l1.85-1.85c-.85,0-1.57,0-2.02,0-.29,0-6.11,8.33-2.48,11.88,.57,.55,1.32,.93,2.17,.93h8.25c.85,0,1.6-.37,2.17-.93,3.63-3.56-2.19-11.88-2.48-11.88Zm-6.85,9.02c.48,0,.76-.26,.87-.67l.67,.27c-.18,.57-.7,1.06-1.53,1.06-.95,0-1.67-.71-1.67-1.69s.72-1.69,1.68-1.69c.84,0,1.35,.51,1.53,1.06l-.67,.27c-.11-.41-.4-.67-.88-.67-.56,0-.95,.41-.95,1.03s.39,1.03,.95,1.03Zm4.73,.6h-.7v-1.35h-1.24v1.35h-.7v-3.25h.7v1.28h1.24v-1.28h.7v3.25Zm2.95-2.65h-1.47v.72h1.29v.6h-1.29v1.32h-.7v-3.25h2.16v.6Z"/><path class="uuid-1e86696d-3e89-482a-abfc-8f5113e1e5e1" d="M28.83,6.14c.07-.39-.24-.75-.63-.75h-7.46c-.4,0-.7,.36-.63,.75l.52,3.1h7.69l.52-3.1Z"/><path class="uuid-016a502d-aa9b-4183-bb03-f5f4a1d24e4e" d="M20.86,13.91c.25,.25,.66,.25,.91,0l2.74-2.73,2.74,2.73c.12,.12,.29,.19,.45,.19,.17,0,.33-.06,.46-.19,.25-.25,.25-.66,0-.91l-1.85-1.85-.64-.64h2.66v-1.28h-7.69v1.28h2.73l-2.49,2.48c-.25,.25-.25,.66,0,.91Z"/><path class="uuid-9a2c1ea5-8a8c-4cf4-8f2b-46c71f59b89d" d="M21.46,18.13c.48,0,.76,.27,.88,.67l.67-.27c-.17-.55-.69-1.06-1.53-1.06-.95,0-1.68,.71-1.68,1.69s.72,1.69,1.67,1.69c.83,0,1.35-.5,1.53-1.06l-.67-.27c-.11,.41-.39,.67-.87,.67-.56,0-.95-.41-.95-1.03s.39-1.03,.95-1.03Z"/><polygon class="uuid-9a2c1ea5-8a8c-4cf4-8f2b-46c71f59b89d" points="25.5 18.81 24.26 18.81 24.26 17.53 23.56 17.53 23.56 20.78 24.26 20.78 24.26 19.43 25.5 19.43 25.5 20.78 26.2 20.78 26.2 17.53 25.5 17.53 25.5 18.81"/><polygon class="uuid-9a2c1ea5-8a8c-4cf4-8f2b-46c71f59b89d" points="26.98 20.78 27.68 20.78 27.68 19.46 28.97 19.46 28.97 18.85 27.68 18.85 27.68 18.13 29.15 18.13 29.15 17.53 26.98 17.53 26.98 20.78"/></g></g></svg>