<?xml version="1.0" encoding="UTF-8"?><svg xmlns="http://www.w3.org/2000/svg" viewBox="0 0 40 40" focusable="false" aria-hidden="true"><defs><style>.uuid-a6e5f0ec-917b-4465-8139-e068b36071fc{fill:none;}.uuid-24a9b069-21a5-4e99-a5e0-9691c4ebaa36{fill:#000d6e;}.uuid-fe7d38ca-24bf-4b8f-a83e-aa03adf51ee7{fill:#6c2273;}.uuid-0bdd5836-fa67-4e5c-b7d9-7d949988ff24{fill:#b8b2ff;}</style></defs><g id="uuid-c6bf81ce-ba76-4e1c-95c7-a910af57d6f3"><rect class="uuid-a6e5f0ec-917b-4465-8139-e068b36071fc" width="40" height="40"/></g><g id="uuid-e3f548c8-e99e-4243-9cd8-e6d332318aa1"><path class="uuid-0bdd5836-fa67-4e5c-b7d9-7d949988ff24" d="M25.63,9H14.43c-4.64,0-8.4,3.81-8.4,8.52v1.42c0,2.87,1.41,5.4,3.55,6.95l-1.91,2.9c-.8,1.21,.51,2.71,1.79,2.06l6.69-3.39h9.48c4.64,0,8.4-3.81,8.4-8.52v-1.42c0-4.7-3.76-8.52-8.4-8.52Z"/><g><rect class="uuid-fe7d38ca-24bf-4b8f-a83e-aa03adf51ee7" x="18.5" y="15" width="3" height="9"/><path class="uuid-24a9b069-21a5-4e99-a5e0-9691c4ebaa36" d="M15,17h2.5v7h-2.5c-.28,0-.5-.22-.5-.5v-6c0-.28,.22-.5,.5-.5Z"/><path class="uuid-fe7d38ca-24bf-4b8f-a83e-aa03adf51ee7" d="M22.5,12h2.5c.28,0,.5,.22,.5,.5v11c0,.28-.22,.5-.5,.5h-2.5V12h0Z"/></g></g></svg>