<?xml version="1.0" encoding="UTF-8"?><svg xmlns="http://www.w3.org/2000/svg" viewBox="0 0 40 40" focusable="false" aria-hidden="true"><defs><style>.uuid-89a11f34-4eff-4a23-807d-ef3c669a3341{fill:none;}.uuid-18a1234e-ee01-4071-9c69-7066392eaa17{fill:#000d6e;}.uuid-051a5292-1992-4926-b191-e4e4937cf9ce{fill:#1b5951;}.uuid-36005a18-6fc1-4340-b595-fa05dc5ed84d{fill:#94e3d4;}</style></defs><g id="uuid-c90f9901-d252-4ddd-bee5-dd58d2dd8d1c"><rect class="uuid-89a11f34-4eff-4a23-807d-ef3c669a3341" width="40" height="40"/></g><g id="uuid-5b5b7687-21b6-480a-9039-6cb0ec988c95"><path class="uuid-36005a18-6fc1-4340-b595-fa05dc5ed84d" d="M25.63,9H14.43c-4.64,0-8.4,3.81-8.4,8.52v1.42c0,2.87,1.41,5.4,3.55,6.95l-1.91,2.9c-.8,1.21,.51,2.71,1.79,2.06l6.69-3.39h9.48c4.64,0,8.4-3.81,8.4-8.52v-1.42c0-4.7-3.76-8.52-8.4-8.52Z"/><g><rect class="uuid-051a5292-1992-4926-b191-e4e4937cf9ce" x="18.5" y="15" width="3" height="9"/><path class="uuid-18a1234e-ee01-4071-9c69-7066392eaa17" d="M15,17h2.5v7h-2.5c-.28,0-.5-.22-.5-.5v-6c0-.28,.22-.5,.5-.5Z"/><path class="uuid-051a5292-1992-4926-b191-e4e4937cf9ce" d="M22.5,12h2.5c.28,0,.5,.22,.5,.5v11c0,.28-.22,.5-.5,.5h-2.5V12h0Z"/></g></g></svg>