<?xml version="1.0" encoding="UTF-8"?><svg xmlns="http://www.w3.org/2000/svg" viewBox="0 0 40 40" focusable="false" aria-hidden="true"><g id="Solid"><rect width="40" height="40" fill="none"/></g><g id="Icon_Purple"><g><g><path d="M20.00506592,15.0368042l-4.27258301,4.25610352,4.26751709-4.2510376,4.26751709,4.2510376c.19732666,.1965332,.45617676,.29321289,.71484375,.29187012-.25518799-.00128174-.5100708-.09790039-.70483398-.29187012l-4.27246094-4.25610352Z" fill="none"/><path d="M26.75598145,7.16436768c.1015625-.60949707-.36846924-1.16436768-.98638916-1.16436768H14.13049316c-.61791992,0-1.0880127,.55487061-.98638916,1.16436768l.8059082,4.83563232h12l.80596924-4.83563232Z" fill="#b8b2ff"/><path d="M14.31280518,19.29290771c.39202881,.39050293,1.02764893,.39050293,1.41967773,0l4.27258301-4.25610352,4.27246094,4.25610352c.19476318,.19396973,.449646,.29058838,.70483398,.29187012,.25866699,.00134277,.51757812-.09533691,.71490479-.29187012,.39202881-.39056396,.39202881-1.02374268,0-1.41424561l-2.89349365-2.88232422-1.00018311-.99633789h4.14642334v-2H13.95001221v2h4.25640869l-3.89361572,3.87866211c-.39202881,.39050293-.39202881,1.02368164,0,1.41424561Z" fill="#6c2273"/></g><path d="M23,31c0-3.85980225,3.14019775-7,7-7,.29321289,0,.5803833,.02392578,.86419678,.05908203-1.51831055-4.72961426-4.65393066-9.06054688-4.91168213-9.06085205-.69940186-.00079346-1.83135986-.00146484-3.14874268-.00189209l2.89349365,2.88232422c.39202881,.39050293,.39202881,1.02368164,0,1.41424561-.19732666,.1965332-.45623779,.29321289-.71490479,.29187012-.25866699,.00134277-.51751709-.09533691-.71484375-.29187012l-4.26751709-4.2510376-4.26751709,4.2510376c-.39202881,.39050293-1.02764893,.39050293-1.41967773,0-.39202881-.39056396-.39202881-1.02374268,0-1.41424561l2.89343262-2.88232422c-1.32183838,.00042725-2.45751953,.00109863-3.15875244,.00189209-.44659424,.00048828-9.54284668,12.99871826-3.87225342,18.55255127,.88415527,.86590576,2.06085205,1.44921875,3.38757324,1.44921875h10.7008667c-.79394531-1.1350708-1.26367188-2.51275635-1.26367188-4Z" fill="#b8b2ff"/><g><path d="M30,25c-3.3137207,0-6,2.6862793-6,6s2.6862793,6,6,6,6-2.6862793,6-6-2.6862793-6-6-6Zm2.11700439,6.90045166l-2.11676025,1.59918213v.00036621l-.00030518-.00012207-.00018311,.00012207v-.00036621l-2.11676025-1.59918213c-1.45263672-1.19671631-.86578369-2.72015381-.00097656-3.20599365,1.12036133-.6204834,2.04223633,.4342041,2.11791992,.52429199,.07580566-.09008789,.99768066-1.14477539,2.11804199-.52429199,.86480713,.48583984,1.45166016,2.00927734-.00097656,3.20599365Z" fill="#b8b2ff"/><path d="M32.11798096,28.69445801c-1.12036133-.6204834-2.04223633,.4342041-2.11804199,.52429199-.07568359-.09008789-.99755859-1.14477539-2.11791992-.52429199-.86480713,.48583984-1.45166016,2.00927734,.00097656,3.20599365l2.11676025,1.59918213v.00036621l.00018311-.00012207,.00030518,.00012207v-.00036621l2.11676025-1.59918213c1.45263672-1.19671631,.86578369-2.72015381,.00097656-3.20599365Z" fill="#000d6e"/></g></g></g></svg>