<?xml version="1.0" encoding="iso-8859-1"?><!--Generator: Adobe Illustrator 26.3.1, SVG Export Plug-In . SVG Version: 6.00 Build 0)--><svg version="1.1" xmlns="http://www.w3.org/2000/svg" xmlns:xlink="http://www.w3.org/1999/xlink" x="0px" y="0px" viewBox="0 0 40 40" xml:space="preserve" focusable="false" aria-hidden="true" enable-background="new 0 0 40 40"><g id="Solid"><rect width="40" height="40" fill="none"/></g><g id="Icon_Purple"><circle cx="13.125" cy="17.875" r="1.125" fill="none"/><path d="M23.5,32.75c0,0.69,0.56,1.25,1.25,1.25S26,33.44,26,32.75v-3.312
		c-0.785,0.31-1.624,0.496-2.5,0.541V32.75z" fill="#6C2273"/><path d="M12.5,32.75c0,0.69,0.56,1.25,1.25,1.25S15,33.44,15,32.75v-2.803
		c-0.882-0.101-1.721-0.351-2.5-0.721V32.75z" fill="#6C2273"/><path d="M33.5,18.5c-0.276,0-0.5,0.224-0.5,0.5v1.144C33,20.616,32.575,21,32.054,21H31.5
		c0-2.851-1.251-5.374-3.183-7.022c-0.055-0.048-0.109-0.097-0.166-0.144c-0.183-0.148-0.373-0.284-0.567-0.416
		c-0.121-0.083-0.242-0.164-0.367-0.24c-0.083-0.05-0.159-0.112-0.244-0.16c0,0.008-0.002,0.015-0.003,0.022
		c-0.159-0.09-0.313-0.188-0.478-0.266c-0.779-0.37-1.618-0.621-2.5-0.721C23.696,12.019,23.396,12,23.092,12h-5.516h-0.872
		C16.109,10.535,14.678,9.5,13,9.5v3.06c-0.003,0.001-0.005,0.001-0.008,0.002c-0.076,0.03-0.144,0.073-0.219,0.105
		c-0.24,0.104-0.478,0.214-0.707,0.34c-0.134,0.074-0.261,0.158-0.39,0.239c-0.17,0.107-0.338,0.216-0.5,0.335
		c-0.129,0.095-0.255,0.193-0.379,0.295c-0.152,0.125-0.298,0.257-0.442,0.393c-0.117,0.11-0.234,0.218-0.344,0.335
		c-0.141,0.149-0.272,0.309-0.403,0.469c-0.083,0.101-0.177,0.193-0.256,0.298h0.01C8.775,16.151,8.307,17.036,7.988,18H7.25
		C6.56,18,6,18.56,6,19.25v3.5C6,23.44,6.56,24,7.25,24h0.738c0.772,2.336,2.412,4.228,4.512,5.225
		c0.779,0.37,1.618,0.621,2.5,0.721C15.296,29.981,15.596,30,15.9,30h7.2c0.135,0,0.266-0.015,0.4-0.022
		c0.876-0.044,1.715-0.231,2.5-0.541c2.928-1.156,5.09-4.001,5.445-7.438h0.608C33.127,22,34,21.167,34,20.144V19
		C34,18.724,33.776,18.5,33.5,18.5z M13.125,19C12.504,19,12,18.496,12,17.875c0-0.621,0.504-1.125,1.125-1.125
		s1.125,0.504,1.125,1.125C14.25,18.496,13.746,19,13.125,19z" fill="#B8B2FF"/><path d="M23.532,14.024h-6c-0.276,0-0.5,0.224-0.5,0.5s0.224,0.5,0.5,0.5h6c0.276,0,0.5-0.224,0.5-0.5
		S23.809,14.024,23.532,14.024z" fill="#000D6E"/></g></svg>