<svg xmlns="http://www.w3.org/2000/svg" viewBox="0 0 40 40" focusable="false" aria-hidden="true"><defs><style>.cls-1{fill:none;}.cls-2{fill:#94e3d4;}.cls-3{fill:#000d6e;}</style></defs><g id="Solid"><rect class="cls-1" width="40" height="40"/></g><g id="Icon_Green" data-name="Icon Green"><path class="cls-2" d="M20,8A12,12,0,1,0,32,20,12.0137,12.0137,0,0,0,20,8Zm7.9712,10.5547a.5.5,0,0,1-1,0V16.7394l-5.5591,5.1288a.5.5,0,0,1-.689-.01L17.0405,18.251,11.875,22.8984a.5.5,0,0,1-.6689-.7441l5.5146-4.9609a.5032.5032,0,0,1,.6846.0146l3.6782,3.6035L26.24,16.0547H24.4712a.5.5,0,0,1,0-1h3a.5.5,0,0,1,.5.5Z"/><path class="cls-3" d="M27.4712,15.0547h-3a.5.5,0,0,0,0,1H26.24l-5.1561,4.7568L17.4053,17.208a.5032.5032,0,0,0-.6846-.0146l-5.5146,4.9609a.5.5,0,0,0,.6689.7441l5.1655-4.6474,3.6826,3.6074a.5.5,0,0,0,.689.01l5.5591-5.1288v1.8153a.5.5,0,0,0,1,0v-3A.5.5,0,0,0,27.4712,15.0547Z"/></g></svg>