<svg xmlns="http://www.w3.org/2000/svg" viewBox="0 0 40 40" focusable="false" aria-hidden="true"><defs><style>.cls-1{fill:none;}.cls-2{fill:#fa9319;}.cls-3{fill:#fae052;}.cls-4{fill:#000d6e;}</style></defs><g id="Solid"><rect class="cls-1" width="40" height="40"/></g><g id="Icon_Tangerine" data-name="Icon Tangerine"><path class="cls-2" d="M34,11a1,1,0,0,0-1-1H7a1,1,0,0,0-1,1V28H34Z"/><path class="cls-2" d="M23,29v2H17V29H4v1a2,2,0,0,0,2,2H34a2,2,0,0,0,2-2V29Z"/><rect class="cls-3" x="7" y="11" width="26" height="16"/><rect class="cls-3" x="17" y="29" width="6" height="2"/><path class="cls-4" d="M9.5356,24.4434a.5.5,0,0,1-.37-.836l5.2588-5.7959L17.97,20.79l5.002-5.375,2.9741,2.5079,2.9536-3.24a.5.5,0,0,1,.7393.6738l-3.6021,3.9512-2.9819-2.5137-5,5.3731-3.5366-2.9707-4.6124,5.083A.5.5,0,0,1,9.5356,24.4434Z"/></g></svg>