<?xml version="1.0" encoding="iso-8859-1"?><!--Generator: Adobe Illustrator 26.3.1, SVG Export Plug-In . SVG Version: 6.00 Build 0)--><svg version="1.1" xmlns="http://www.w3.org/2000/svg" xmlns:xlink="http://www.w3.org/1999/xlink" x="0px" y="0px" viewBox="0 0 40 40" style="enable-background:new 0 0 40 40" xml:space="preserve" focusable="false" aria-hidden="true"><g id="Solid"><rect style="fill:none" width="40" height="40"/></g><g id="Icon_Red"><path style="fill:#FFACA6" d="M30,24c0.331,0,0.654,0.031,0.974,0.076c0.226-0.661,0.397-1.351,0.472-2.076h0.608
		C33.127,22,34,21.167,34,20.144V19c0-0.276-0.224-0.5-0.5-0.5S33,18.724,33,19v1.144C33,20.616,32.575,21,32.054,21H31.5
		c0-2.851-1.251-5.374-3.183-7.022c-0.055-0.048-0.109-0.097-0.166-0.144c-0.183-0.148-0.373-0.284-0.567-0.416
		c-0.121-0.083-0.242-0.164-0.367-0.24c-0.083-0.05-0.159-0.112-0.244-0.16c0,0.008-0.002,0.015-0.003,0.022
		c-0.159-0.09-0.313-0.188-0.478-0.266c-0.779-0.37-1.618-0.621-2.5-0.721C23.696,12.019,23.396,12,23.092,12h-5.516h-0.872
		C16.109,10.535,14.678,9.5,13,9.5v3.06c-0.003,0.001-0.005,0.001-0.008,0.002c-0.076,0.03-0.144,0.073-0.219,0.105
		c-0.24,0.104-0.478,0.214-0.707,0.34c-0.134,0.074-0.261,0.158-0.39,0.239c-0.17,0.107-0.338,0.216-0.5,0.335
		c-0.129,0.095-0.255,0.193-0.379,0.295c-0.152,0.125-0.298,0.257-0.442,0.393c-0.117,0.11-0.234,0.218-0.344,0.335
		c-0.141,0.149-0.272,0.309-0.403,0.469c-0.083,0.101-0.177,0.193-0.256,0.298h0.01C8.775,16.151,8.307,17.036,7.988,18H7.25
		C6.56,18,6,18.56,6,19.25v3.5C6,23.44,6.56,24,7.25,24h0.738c0.772,2.336,2.412,4.228,4.512,5.225
		c0.779,0.37,1.618,0.621,2.5,0.721C15.296,29.981,15.596,30,15.9,30h7.18C23.568,26.613,26.481,24,30,24z M13.125,19
		C12.504,19,12,18.496,12,17.875c0-0.621,0.504-1.125,1.125-1.125s1.125,0.504,1.125,1.125C14.25,18.496,13.746,19,13.125,19z"/><circle style="fill:none" cx="13.125" cy="17.875" r="1.125"/><path style="fill:#D9304C" d="M12.5,32.75c0,0.69,0.56,1.25,1.25,1.25S15,33.44,15,32.75v-2.803
		c-0.882-0.101-1.721-0.351-2.5-0.721V32.75z"/><g><path style="fill:#000D6E" d="M23.532,15.024h-6c-0.276,0-0.5-0.224-0.5-0.5s0.224-0.5,0.5-0.5h6c0.276,0,0.5,0.224,0.5,0.5
			S23.809,15.024,23.532,15.024z"/></g><g><g><path style="fill:#000D6E" d="M30,25c-3.314,0-6,2.686-6,6c0,3.314,2.686,6,6,6c3.314,0,6-2.686,6-6C36,27.686,33.314,25,30,25z
				 M30.543,30.179l-0.055,0.612h-1.788c-0.008,0.078-0.008,0.164-0.008,0.251c0,0.086,0,0.164,0.008,0.243h1.709l-0.062,0.611
				h-1.521c0.235,0.659,0.761,1.004,1.412,1.004c0.808,0,1.224-0.432,1.388-1.074l0.855,0.259c-0.243,0.909-0.941,1.639-2.267,1.639
				c-1.224,0-2.118-0.65-2.408-1.827h-0.682l0.071-0.611h0.525c-0.008-0.079-0.008-0.157-0.008-0.243c0-0.087,0-0.173,0.008-0.251
				h-0.455l0.055-0.612h0.502c0.313-1.137,1.255-1.835,2.408-1.835c1.31,0,2.023,0.776,2.251,1.679L31.61,30.25
				c-0.173-0.612-0.596-1.083-1.365-1.083c-0.659,0-1.177,0.361-1.412,1.012H30.543z"/></g></g></g><g id="Guides" style="display:none"/><g id="Grid" style="display:none"><g style="display:inline"><g/><g/><g/><g/><g/><g/><g/><g/><g/><g/><g/><g/><g/><g/><g/><g/><g/><g/><g/><g/><g/><g/><g/><g/><g/><g/><g/><g/><g/><g/><g/><g/><g/><g/><g/><g/><g/><g/><g/><g/></g></g></svg>