<?xml version="1.0" encoding="UTF-8"?><svg xmlns="http://www.w3.org/2000/svg" viewBox="0 0 40 40" focusable="false" aria-hidden="true"><g id="uuid-24f0df32-c788-44f0-a64e-e2f51e6b555a"><rect width="40" height="40" fill="none"/></g><g id="uuid-0ea127a0-fdb3-431a-ac58-cb25211c5253"><path d="M29.47,25.03c-.2-.2-.51-.2-.71,0l-1.27,1.27v-6.29h-4.46l-3.04-3.04-3.04,3.04h-4.46v6.29l-1.27-1.27c-.2-.2-.51-.2-.71,0s-.2,.51,0,.71l2.12,2.12c.1,.1,.23,.15,.35,.15s.26-.05,.35-.15l2.12-2.12c.2-.2,.2-.51,0-.71s-.51-.2-.71,0l-1.27,1.27v-5.29h3.46l3.04,3.04,3.04-3.04h3.46v5.29l-1.27-1.27c-.2-.2-.51-.2-.71,0s-.2,.51,0,.71l2.12,2.12c.1,.1,.23,.15,.35,.15s.26-.05,.35-.15l2.12-2.12c.2-.2,.2-.51,0-.71Z" fill="#000d6e"/><path d="M17,29.03H8v6h10v-6h-1Zm0,5H9v-4h8v4Z" fill="#d9304c"/><path d="M31,29.03h-9v6h10v-6h-1Zm0,5h-8v-4h8v4Z" fill="#d9304c"/><path d="M32.76,24c-.17-.03-.27-.06-.36-.15l-2.12-2.2c-.19-.2-.19-.51,.01-.71,.2-.19,.52-.19,.71,.01l1.76,1.83,3.91-3.91c.2-.2,.51-.2,.71,0s.2,.51,0,.71l-4.27,4.27c-.09,.09-.22,.15-.35,.15Z" fill="#000d6e"/><path d="M8.41,23.14l-1.41-1.41,1.41-1.41c.2-.2,.2-.51,0-.71s-.51-.2-.71,0l-1.41,1.41-1.41-1.41c-.2-.2-.51-.2-.71,0s-.2,.51,0,.71l1.41,1.41-1.41,1.41c-.2,.2-.2,.51,0,.71s.51,.2,.71,0l1.41-1.41,1.41,1.41c.2,.2,.51,.2,.71,0s.2-.51,0-.71Z" fill="#000d6e"/><path d="M24,4H15v6h4.47v4.29l-1.27-1.27c-.2-.2-.51-.2-.71,0s-.2,.51,0,.71l2.12,2.12c.1,.1,.23,.15,.35,.15s.26-.05,.35-.15l2.12-2.12c.2-.2,.2-.51,0-.71s-.51-.2-.71,0l-1.27,1.27v-4.29h4.53V4h-1Zm0,5h-8V5h8v4Z" fill="#d9304c"/><g><rect x="18.5" y="19" width="3" height="3" transform="translate(-8.64 20.15) rotate(-45)" fill="none"/><path d="M20,16.96l-3.54,3.54,3.54,3.54,3.54-3.54-3.54-3.54Zm-2.12,3.54l2.12-2.12,2.12,2.12-2.12,2.12-2.12-2.12Z" fill="#000d6e"/></g><rect x="18.5" y="19" width="3" height="3" transform="translate(-8.64 20.15) rotate(-45)" fill="#ffaca6"/><rect x="9" y="30.03" width="8" height="4" fill="#ffaca6"/><rect x="23" y="30.03" width="8" height="4" fill="#ffaca6"/><rect x="16" y="5" width="8" height="4" fill="#ffaca6"/></g></svg>