<svg xmlns="http://www.w3.org/2000/svg" viewBox="0 0 40 40" focusable="false" aria-hidden="true"><defs><style>.cls-1{fill:none;}.cls-2{fill:#000d6e;}.cls-3{fill:#fa9319;}.cls-4{fill:#fae052;}</style></defs><g id="Solid"><rect class="cls-1" width="40" height="40"/></g><g id="Icon_Tangerine" data-name="Icon Tangerine"><path class="cls-2" d="M18.714,17.4986a8,8,0,0,0-8-8A8,8,0,0,0,18.714,17.4986Z"/><path class="cls-3" d="M21.3856,19a5.2288,5.2288,0,0,0,5.2288-5.2288A5.2288,5.2288,0,0,0,21.3856,19Z"/><path class="cls-3" d="M20.5,22V9.9309A7.9965,7.9965,0,0,0,27.5,2a7.9991,7.9991,0,0,0-7.9986,7.9719L19.5,9.9725v.0251L19.5,10h0V22h1Z"/><path class="cls-4" d="M20.5,22H12l1.7547,12.2828A2,2,0,0,0,15.7346,36h8.5309a2,2,0,0,0,1.98-1.7172L28,22Z"/></g></svg>