<svg xmlns="http://www.w3.org/2000/svg" viewBox="0 0 40 40" focusable="false" aria-hidden="true"><defs><style>.cls-1{fill:none;}.cls-2{fill:#ffaca6;}.cls-3{fill:#d9304c;}.cls-4{fill:#000d6e;}</style></defs><g id="Solid"><rect class="cls-1" width="40" height="40"/></g><g id="Icon_Red" data-name="Icon Red"><path class="cls-2" d="M17.9052,21.9937H21.009v-8H17.9052a.8963.8963,0,0,0-.8962.8963v6.2075A.8962.8962,0,0,0,17.9052,21.9937Z"/><rect class="cls-3" x="22.0001" y="10.9964" width="4" height="11"/><path class="cls-4" d="M30.9911,21.0373V7.9626A.9626.9626,0,0,0,30.0285,7H26.9911V22h3.0374A.9626.9626,0,0,0,30.9911,21.0373Z"/><path class="cls-2" d="M6.9383,23.0077H5.0267v7.9857H6.9383A1.0831,1.0831,0,0,0,8.0213,29.91V24.0908A1.0831,1.0831,0,0,0,6.9383,23.0077Z"/><path class="cls-3" d="M34.9474,26.2246a1.4974,1.4974,0,0,0-1.4715-1.22l-.2985.0317-7.1882,1.7249v.24a2.0566,2.0566,0,0,1-1.9964,1.9964H15.0089a.4991.4991,0,1,1,0-.9982h8.9839a1.0663,1.0663,0,0,0,.9982-.9982v0l-.0006,0,.0006-.0256v-.9728q0-.0327-.0021-.0644l-.001-.01a.9491.9491,0,0,0-.43-.7167l-.0081-.0054c-.0246-.0168-.05-.0327-.0746-.0472L24.46,25.15c-.0229-.0129-.0457-.0251-.0685-.0362l-.0064-.003-.0351-.0163-.0351-.0149-.006-.0026-.0265-.01-.014-.0054-.0283-.01-.0113-.0039-.026-.0079-.0126-.0038-.0076-.002c-.0226-.0063-.0445-.0116-.0655-.0159l-.0039-.0007a.63.63,0,0,0-.1206-.0134H18.9775l-.0006-.0005a3.12,3.12,0,0,1-1.5656-.7244l-.0928-.0634-.0226-.0153-.083-.0564-.0189-.0128q-.1035-.07-.2114-.14l-.01-.0067q-.0519-.0338-.105-.0675l-.0055-.0035c-.0766-.0485-.1551-.0969-.2356-.1445l-.0006,0a5.6384,5.6384,0,0,0-1.2361-.5577,7.4118,7.4118,0,0,0-1.6892-.203H10.0233A1.0038,1.0038,0,0,0,9.02,24.0116v3.9872h.0047c-.0028.0372-.0047.0746-.0047.1123v1.8841s-.001.6418.9972.9982,6.4683,2.6119,6.6018,2.6664a4.4889,4.4889,0,0,0,3.2007.0726c.0145-.0051,14.2007-5.8359,14.2007-5.8359A1.4976,1.4976,0,0,0,34.9474,26.2246Z"/></g></svg>