<?xml version="1.0" encoding="UTF-8"?><svg xmlns="http://www.w3.org/2000/svg" viewBox="0 0 40 40" focusable="false" aria-hidden="true"><defs><style>.uuid-2e8d78cf-29f9-4383-bf55-41538c4d1b0f{fill:none;}.uuid-97111a1f-e620-4f5b-ba13-7c1791f0bcc1{fill:#fa9319;}.uuid-2f98fff8-137a-40b5-b0f7-178e8f9ba08b{fill:#000d6e;}.uuid-9e3fb1a7-8530-49e7-a99a-8e3c5ecf0bf8{fill:#fae052;}</style></defs><g id="uuid-40cbbbce-4b7f-4dd7-bc15-00e71a325827"><rect class="uuid-2e8d78cf-29f9-4383-bf55-41538c4d1b0f" width="40" height="40"/></g><g id="uuid-a0d59e0e-738b-4feb-8b42-bc6f21cff3ee"><path class="uuid-9e3fb1a7-8530-49e7-a99a-8e3c5ecf0bf8" d="M25.63,9H14.43c-4.64,0-8.4,3.81-8.4,8.52v1.42c0,2.87,1.41,5.4,3.55,6.95l-1.91,2.9c-.8,1.21,.51,2.71,1.79,2.06l6.69-3.39h9.48c4.64,0,8.4-3.81,8.4-8.52v-1.42c0-4.7-3.76-8.52-8.4-8.52Z"/><g><rect class="uuid-97111a1f-e620-4f5b-ba13-7c1791f0bcc1" x="18.5" y="15" width="3" height="9"/><path class="uuid-2f98fff8-137a-40b5-b0f7-178e8f9ba08b" d="M15,17h2.5v7h-2.5c-.28,0-.5-.22-.5-.5v-6c0-.28,.22-.5,.5-.5Z"/><path class="uuid-97111a1f-e620-4f5b-ba13-7c1791f0bcc1" d="M22.5,12h2.5c.28,0,.5,.22,.5,.5v11c0,.28-.22,.5-.5,.5h-2.5V12h0Z"/></g></g></svg>