<svg xmlns="http://www.w3.org/2000/svg" viewBox="0 0 40 40" focusable="false" aria-hidden="true"><g id="Solid"><rect width="40" height="40" fill="none"/></g><g id="Icon_Red" data-name="Icon Red"><path d="M18.714,17.4986a8,8,0,0,0-8-8A8,8,0,0,0,18.714,17.4986Z" fill="#000d6e"/><path d="M21.3856,19a5.2288,5.2288,0,0,0,5.2288-5.2288A5.2288,5.2288,0,0,0,21.3856,19Z" fill="#d9304c"/><path d="M20.5,22V9.9309A7.9965,7.9965,0,0,0,27.5,2a7.9991,7.9991,0,0,0-7.9986,7.9719L19.5,9.9725v.0251L19.5,10h0V22h1Z" fill="#d9304c"/><path d="M20.5,22H12l1.7547,12.2828A2,2,0,0,0,15.7346,36h8.5309a2,2,0,0,0,1.98-1.7172L28,22Z" fill="#ffaca6"/></g></svg>