<?xml version="1.0" encoding="iso-8859-1"?><!--Generator: Adobe Illustrator 26.3.1, SVG Export Plug-In . SVG Version: 6.00 Build 0)--><svg version="1.1" xmlns="http://www.w3.org/2000/svg" xmlns:xlink="http://www.w3.org/1999/xlink" x="0px" y="0px" viewBox="0 0 40 40" style="enable-background:new 0 0 40 40" xml:space="preserve" focusable="false" aria-hidden="true"><g id="Solid"><rect style="fill:none" width="40" height="40"/></g><g id="Icon_Green"><path style="fill:#94E3D4" d="M30,24c0.331,0,0.654,0.031,0.974,0.076c0.226-0.661,0.397-1.351,0.472-2.076h0.608
		C33.127,22,34,21.167,34,20.144V19c0-0.276-0.224-0.5-0.5-0.5S33,18.724,33,19v1.144C33,20.616,32.575,21,32.054,21H31.5
		c0-2.851-1.251-5.374-3.183-7.022c-0.055-0.048-0.109-0.097-0.166-0.144c-0.183-0.148-0.373-0.284-0.567-0.416
		c-0.121-0.083-0.242-0.164-0.367-0.24c-0.083-0.05-0.159-0.112-0.244-0.16c0,0.008-0.002,0.015-0.003,0.022
		c-0.159-0.09-0.313-0.188-0.478-0.266c-0.779-0.37-1.618-0.621-2.5-0.721C23.696,12.019,23.396,12,23.092,12h-5.516h-0.872
		C16.109,10.535,14.678,9.5,13,9.5v3.06c-0.003,0.001-0.005,0.001-0.008,0.002c-0.076,0.03-0.144,0.073-0.219,0.105
		c-0.24,0.104-0.478,0.214-0.707,0.34c-0.134,0.074-0.261,0.158-0.39,0.239c-0.17,0.107-0.338,0.216-0.5,0.335
		c-0.129,0.095-0.255,0.193-0.379,0.295c-0.152,0.125-0.298,0.257-0.442,0.393c-0.117,0.11-0.234,0.218-0.344,0.335
		c-0.141,0.149-0.272,0.309-0.403,0.469c-0.083,0.101-0.177,0.193-0.256,0.298h0.01C8.775,16.151,8.307,17.036,7.988,18H7.25
		C6.56,18,6,18.56,6,19.25v3.5C6,23.44,6.56,24,7.25,24h0.738c0.772,2.336,2.412,4.228,4.512,5.225
		c0.779,0.37,1.618,0.621,2.5,0.721C15.296,29.981,15.596,30,15.9,30h7.18C23.568,26.613,26.481,24,30,24z M13.125,19
		C12.504,19,12,18.496,12,17.875c0-0.621,0.504-1.125,1.125-1.125s1.125,0.504,1.125,1.125C14.25,18.496,13.746,19,13.125,19z"/><circle style="fill:none" cx="13.125" cy="17.875" r="1.125"/><path style="fill:#1B5951" d="M12.5,32.75c0,0.69,0.56,1.25,1.25,1.25S15,33.44,15,32.75v-2.803
		c-0.882-0.101-1.721-0.351-2.5-0.721V32.75z"/><g><path style="fill:#000D6E" d="M23.532,15.024h-6c-0.276,0-0.5-0.224-0.5-0.5s0.224-0.5,0.5-0.5h6c0.276,0,0.5,0.224,0.5,0.5
			S23.809,15.024,23.532,15.024z"/></g><g><g><path style="fill:#000D6E" d="M29.985,24.969c-3.314,0-6,2.686-6,6c0,3.314,2.686,6,6,6c3.314,0,6-2.686,6-6
				C35.985,27.656,33.299,24.969,29.985,24.969z M27.107,31.988c0.459,0,0.729-0.252,0.837-0.648l0.644,0.262
				c-0.171,0.544-0.671,1.021-1.472,1.021c-0.914,0-1.607-0.68-1.607-1.62c0-0.945,0.693-1.625,1.612-1.625
				c0.806,0,1.301,0.495,1.467,1.021l-0.644,0.261c-0.108-0.392-0.383-0.648-0.842-0.648c-0.536,0-0.914,0.396-0.914,0.991
				C26.189,31.591,26.567,31.988,27.107,31.988z M31.657,32.564h-0.67v-1.297h-1.193v1.297h-0.671v-3.129h0.671v1.233h1.193v-1.233
				h0.67V32.564z M34.324,30.709v0.581h-1.242v1.273h-0.671v-3.129h2.08v0.581h-1.409v0.693H34.324z"/></g></g></g><g id="Guides" style="display:none"/><g id="Grid" style="display:none"><g style="display:inline"><g/><g/><g/><g/><g/><g/><g/><g/><g/><g/><g/><g/><g/><g/><g/><g/><g/><g/><g/><g/><g/><g/><g/><g/><g/><g/><g/><g/><g/><g/><g/><g/><g/><g/><g/><g/><g/><g/><g/><g/></g></g></svg>