<?xml version="1.0" encoding="iso-8859-1"?><!--Generator: Adobe Illustrator 26.2.1, SVG Export Plug-In . SVG Version: 6.00 Build 0)--><svg version="1.1" xmlns="http://www.w3.org/2000/svg" xmlns:xlink="http://www.w3.org/1999/xlink" x="0px" y="0px" viewBox="0 0 40 40" style="enable-background:new 0 0 40 40" xml:space="preserve" focusable="false" aria-hidden="true"><g id="Solid"><rect style="fill:none" width="40" height="40"/></g><g id="Icon_Tangerine"><path style="fill:#FA9319" d="M32.156,16.032H7.844c-1.04,0-1.886,0.86-1.886,1.917V35.05c0,1.057,0.846,1.917,1.886,1.917h24.313
		c1.04,0,1.886-0.86,1.886-1.917V17.95C34.042,16.892,33.196,16.032,32.156,16.032z"/><rect x="10" y="18" style="fill:#FAE052" width="22" height="17"/><circle style="fill:#000D6E" cx="8" cy="26.5" r="0.75"/><path style="fill:#FA9319" d="M29.283,1.983l-0.928,0.931c-1.058,1.061-1.064,2.771-0.014,3.824l4.742,4.754
		c1.054,1.057,2.773,1.05,3.835-0.016l0.917-0.92L29.283,1.983z"/><path style="fill:#000D6E" d="M33.042,13.449c0,0-6.28-6.28-7.071-7.071c-0.648-0.648-1.58,0.03-1.58,0.03l-2.441,1.376
		l-3.467,1.953L16.9,10.63c-0.647,0.365-0.877,1.185-0.512,1.833c0.365,0.647,1.186,0.877,1.833,0.512l3.579-1.584l-7.56,7.56
		c-0.526,0.526-0.526,1.378,0,1.903c0.506,0.506,1.308,0.512,1.837,0.044l-0.896,0.896c-0.526,0.526-0.526,1.378,0,1.903
		c0.526,0.526,1.378,0.526,1.903,0l1.427-1.427c-0.526,0.526-0.526,1.378,0,1.903c0.526,0.526,1.378,0.526,1.903,0l1.903-1.903
		c-0.526,0.526-0.526,1.378,0,1.903c0.526,0.526,1.378,0.526,1.903,0l1.733-1.733l1.473-1.473c0,0,0.506-0.506,1.218-1.218
		c0.486-0.486,1.064-1.064,1.656-1.656c1.006-1.006,2.034-2.034,2.637-2.637C34.05,14.345,33.042,13.449,33.042,13.449z"/></g><g id="Guides" style="display:none"/><g id="Grid" style="display:none"><g style="display:inline"><g/><g/><g/><g/><g/><g/><g/><g/><g/><g/><g/><g/><g/><g/><g/><g/><g/><g/><g/><g/><g/><g/><g/><g/><g/><g/><g/><g/><g/><g/><g/><g/><g/><g/><g/><g/><g/><g/><g/><g/></g></g></svg>