<svg xmlns="http://www.w3.org/2000/svg" viewBox="0 0 40 40" focusable="false" aria-hidden="true"><g id="Solid"><rect width="40" height="40" fill="none"/></g><g id="Icon"><rect x="9" y="11" width="8" height="10" fill="#fae052"/><path d="M10.5,25h5A1.5,1.5,0,0,0,17,23.5V22H9v1.5A1.5,1.5,0,0,0,10.5,25Z" fill="#fa9319"/><path d="M17,8.5A1.5,1.5,0,0,0,15.5,7h-5A1.5,1.5,0,0,0,9,8.5V10h8Z" fill="#fa9319"/><path d="M32,14H18v4H32a2,2,0,0,0,0-4Z" fill="#fae052"/><rect x="6" y="31" width="14" height="2" fill="#000d6e"/></g></svg>