<svg xmlns="http://www.w3.org/2000/svg" viewBox="0 0 40 40" focusable="false" aria-hidden="true"><defs><style>.cls-1{fill:none;}.cls-2{fill:#ffaca6;}.cls-3{fill:#d9304c;}.cls-4{fill:#000d6e;}</style></defs><g id="Solid"><rect class="cls-1" width="40" height="40"/></g><g id="Icon"><rect class="cls-2" x="9" y="11" width="8" height="10"/><path class="cls-3" d="M10.5,25h5A1.5,1.5,0,0,0,17,23.5V22H9v1.5A1.5,1.5,0,0,0,10.5,25Z"/><path class="cls-3" d="M17,8.5A1.5,1.5,0,0,0,15.5,7h-5A1.5,1.5,0,0,0,9,8.5V10h8Z"/><path class="cls-2" d="M32,14H18v4H32a2,2,0,0,0,0-4Z"/><rect class="cls-4" x="6" y="31" width="14" height="2"/></g></svg>