<?xml version="1.0" encoding="iso-8859-1"?><!--Generator: Adobe Illustrator 26.2.1, SVG Export Plug-In . SVG Version: 6.00 Build 0)--><svg version="1.1" xmlns="http://www.w3.org/2000/svg" xmlns:xlink="http://www.w3.org/1999/xlink" x="0px" y="0px" viewBox="0 0 40 40" style="enable-background:new 0 0 40 40" xml:space="preserve" focusable="false" aria-hidden="true"><g id="Solid"><rect style="fill:none" width="40" height="40"/></g><g id="Icon_Red"><g><path style="fill:#D9304C" d="M23,33.883v2h-6v-2H4v1c0,1.105,0.895,2,2,2h28c1.105,0,2-0.895,2-2v-1H23z"/><rect x="17" y="33.883" style="fill:#FFACA6" width="6" height="2"/><g><rect x="7" y="15.883" style="fill:#FFACA6" width="26" height="16"/><path style="fill:#D9304C" d="M33,14.883H7c-0.552,0-1,0.448-1,1v17h28v-17C34,15.33,33.552,14.883,33,14.883z M33,31.883H7v-16
				h26V31.883z"/></g></g><g><path style="fill:#D9304C" d="M29.283,1.983l-0.928,0.931c-1.058,1.061-1.064,2.771-0.014,3.824l4.742,4.754
			c1.054,1.057,2.773,1.05,3.835-0.016l0.917-0.92L29.283,1.983z"/><path style="fill:#000D6E" d="M33.042,13.449c0,0-6.28-6.28-7.071-7.071c-0.648-0.648-1.58,0.03-1.58,0.03l-2.441,1.376
			l-3.467,1.953L16.9,10.63c-0.647,0.365-0.877,1.185-0.512,1.833c0.365,0.647,1.186,0.877,1.833,0.512l3.579-1.584l-7.56,7.56
			c-0.526,0.526-0.526,1.378,0,1.903c0.506,0.506,1.308,0.512,1.837,0.044l-0.896,0.896c-0.526,0.526-0.526,1.378,0,1.903
			c0.526,0.526,1.378,0.526,1.903,0l1.427-1.427c-0.526,0.526-0.526,1.378,0,1.903c0.526,0.526,1.378,0.526,1.903,0l1.903-1.903
			c-0.526,0.526-0.526,1.378,0,1.903c0.526,0.526,1.378,0.526,1.903,0l1.733-1.733l1.473-1.473c0,0,0.506-0.506,1.218-1.218
			c0.486-0.486,1.064-1.064,1.656-1.656c1.006-1.006,2.034-2.034,2.637-2.637C34.05,14.345,33.042,13.449,33.042,13.449z"/></g></g><g id="Guides" style="display:none"/><g id="Grid" style="display:none"><g style="display:inline"><g/><g/><g/><g/><g/><g/><g/><g/><g/><g/><g/><g/><g/><g/><g/><g/><g/><g/><g/><g/><g/><g/><g/><g/><g/><g/><g/><g/><g/><g/><g/><g/><g/><g/><g/><g/><g/><g/><g/><g/></g></g></svg>