<svg xmlns="http://www.w3.org/2000/svg" viewBox="0 0 40 40" focusable="false" aria-hidden="true"><defs><style>.cls-1{fill:none;}.cls-2{fill:#6c2273;}.cls-3{fill:#b8b2ff;}.cls-4{fill:#000d6e;}</style></defs><g id="Solid"><rect class="cls-1" width="40" height="40"/></g><g id="Icon"><path class="cls-2" d="M7,9H33a1,1,0,0,1,1,1V27a0,0,0,0,1,0,0H6a0,0,0,0,1,0,0V10A1,1,0,0,1,7,9Z"/><rect class="cls-3" x="7" y="10" width="26" height="16"/><path class="cls-2" d="M4,28H36a0,0,0,0,1,0,0v1a2,2,0,0,1-2,2H6a2,2,0,0,1-2-2V28A0,0,0,0,1,4,28Z"/><rect class="cls-4" x="17" y="28" width="6" height="2"/></g></svg>