<?xml version="1.0" encoding="iso-8859-1"?><!--Generator: Adobe Illustrator 26.2.1, SVG Export Plug-In . SVG Version: 6.00 Build 0)--><svg version="1.1" xmlns="http://www.w3.org/2000/svg" xmlns:xlink="http://www.w3.org/1999/xlink" x="0px" y="0px" viewBox="0 0 40 40" style="enable-background:new 0 0 40 40" xml:space="preserve" focusable="false" aria-hidden="true"><g id="Solid"><rect style="fill:none" width="40" height="40"/></g><g id="Icon_Tangerine"><g><path style="fill:#FA9319" d="M33,9H7c-0.552,0-1,0.448-1,1v17h28V10C34,9.448,33.552,9,33,9z"/><rect x="7" y="10" style="fill:#FAE052" width="26" height="16"/><path style="fill:#FA9319" d="M36,28H4v1c0,1.105,0.895,2,2,2h28c1.105,0,2-0.895,2-2V28z"/><rect x="17" y="28" style="fill:#000D6E" width="6" height="2"/></g><g><path style="fill:#000D6E" d="M19.546,21.865c-0.866,0-1.512,0.664-1.512,1.567c0,0.848,0.645,1.512,1.512,1.512
			c0.885,0,1.548-0.664,1.548-1.549C21.094,22.528,20.449,21.865,19.546,21.865z"/><path style="fill:#000D6E" d="M20.154,11.099c-2.194,0-3.742,1.216-4.148,3.06l2.562,0.83c0.129-0.756,0.682-1.272,1.419-1.272
			c0.719,0,1.18,0.387,1.18,1.124c0,1.659-2.802,2.083-2.802,4.774v0.682h2.341V19.8c0-1.99,3.3-2.267,3.3-5.271
			C24.007,12.39,22.532,11.099,20.154,11.099z"/></g></g><g id="Guides" style="display:none"/><g id="Grid" style="display:none"><g style="display:inline"><g/><g/><g/><g/><g/><g/><g/><g/><g/><g/><g/><g/><g/><g/><g/><g/><g/><g/><g/><g/><g/><g/><g/><g/><g/><g/><g/><g/><g/><g/><g/><g/><g/><g/><g/><g/><g/><g/><g/><g/></g></g></svg>