<?xml version="1.0" encoding="iso-8859-1"?><!--Generator: Adobe Illustrator 26.2.1, SVG Export Plug-In . SVG Version: 6.00 Build 0)--><svg version="1.1" xmlns="http://www.w3.org/2000/svg" xmlns:xlink="http://www.w3.org/1999/xlink" x="0px" y="0px" viewBox="0 0 40 40" style="enable-background:new 0 0 40 40" xml:space="preserve" focusable="false" aria-hidden="true"><g id="Solid"><rect style="fill:none" width="40" height="40"/></g><g id="Icon_Red"><g><path style="fill:#FFACA6" d="M32,20l-3.49,8.56c-0.31,0.17-0.58,0.36-0.81,0.53c-0.55,0.41-1.07,0.8-2.02,0.88
			c-0.12,0.01-0.23,0.02-0.34,0.02c-0.12,0-0.23-0.01-0.33-0.02c-0.97-0.08-1.49-0.47-2.04-0.88c-0.59-0.45-1.27-0.96-2.44-1.08
			H20.5c-0.17-0.01-0.32-0.02-0.49-0.02c-0.18,0-0.34,0.01-0.51,0.02c-1.18,0.12-1.86,0.63-2.46,1.08c-0.55,0.41-1.07,0.8-2.02,0.88
			c-0.12,0.01-0.23,0.02-0.35,0.02c-0.11,0-0.22-0.01-0.32-0.02c-0.97-0.08-1.49-0.47-2.04-0.88c-0.22-0.17-0.46-0.33-0.72-0.49
			L8,20l12-2.71L32,20z"/></g><rect x="10.493" y="10" style="fill:#D9304C" width="3.969" height="3.912"/><rect x="15.561" y="10" style="fill:#D9304C" width="3.969" height="3.912"/><rect x="20.469" y="10" style="fill:#D9304C" width="3.969" height="3.912"/><rect x="25.538" y="10" style="fill:#D9304C" width="3.969" height="3.912"/><g><polygon style="fill:#D9304C" points="14.463,15 10.493,15 10.493,18.413 14.463,17.518 		"/><polygon style="fill:#D9304C" points="19.531,15 15.561,15 15.561,17.27 19.531,16.376 		"/><polygon style="fill:#D9304C" points="24.439,15 20.469,15 20.469,16.376 24.439,17.27 		"/><polygon style="fill:#D9304C" points="29.507,15 25.537,15 25.537,17.518 29.507,18.413 		"/></g><g><path style="fill:#D9304C" d="M20.5,19.48v8.53c-0.17-0.01-0.32-0.02-0.49-0.02c-0.18,0-0.34,0.01-0.51,0.02v-8.53
			c0-0.28,0.22-0.5,0.5-0.5S20.5,19.2,20.5,19.48z"/></g><g><path style="fill:#000D6E" d="M35.576,30.965c-1.226-0.099-1.923-0.615-2.542-1.08c-0.56-0.42-1.054-0.79-1.941-0.879
			c-0.136-0.011-0.274-0.021-0.423-0.021c-0.15,0-0.288,0.01-0.424,0.021c-0.342,0.034-0.624,0.112-0.876,0.217
			c-0.4,0.167-0.722,0.404-1.066,0.662c-0.618,0.464-1.316,0.979-2.542,1.079c-0.132,0.013-0.273,0.021-0.424,0.021
			c-0.151,0-0.291-0.008-0.423-0.021c-1.225-0.099-1.923-0.615-2.541-1.08c-0.56-0.42-1.054-0.79-1.941-0.879
			c-0.136-0.011-0.274-0.021-0.423-0.021c-0.15,0-0.288,0.01-0.424,0.021c-0.888,0.089-1.383,0.459-1.943,0.88
			c-0.619,0.464-1.316,0.98-2.542,1.079c-0.132,0.013-0.273,0.021-0.424,0.021c-0.152,0-0.292-0.008-0.424-0.021
			c-1.227-0.099-1.925-0.615-2.544-1.079c-0.561-0.421-1.056-0.79-1.944-0.879c-0.136-0.011-0.274-0.021-0.424-0.021
			c-0.15,0-0.288,0.01-0.424,0.021c-0.889,0.089-1.384,0.459-1.945,0.879c-0.619,0.464-1.318,0.979-2.544,1.079
			C4.292,30.978,4.152,30.986,4,30.986v1c0.15,0,0.288-0.01,0.424-0.021c1.226-0.099,1.925-0.615,2.544-1.079
			c0.561-0.421,1.056-0.79,1.945-0.879c0.111-0.011,0.231-0.016,0.354-0.018c0.024,0,0.045-0.003,0.07-0.003
			c0.151,0,0.292,0.008,0.424,0.021c0.888,0.089,1.383,0.459,1.944,0.879c0.619,0.464,1.318,0.979,2.544,1.079
			c0.136,0.011,0.274,0.021,0.424,0.021c0.15,0,0.288-0.01,0.424-0.021c1.226-0.099,1.924-0.615,2.542-1.079
			c0.56-0.421,1.055-0.79,1.943-0.88c0.132-0.013,0.273-0.021,0.424-0.021c0.151,0,0.291,0.008,0.423,0.021
			c0.887,0.089,1.381,0.459,1.941,0.879c0.618,0.465,1.316,0.981,2.541,1.08c0.136,0.011,0.274,0.021,0.423,0.021
			c0.15,0,0.288-0.01,0.424-0.021c1.226-0.099,1.924-0.615,2.542-1.079c0.324-0.243,0.626-0.469,0.994-0.634
			c0.269-0.12,0.574-0.208,0.948-0.245c0.132-0.013,0.273-0.021,0.424-0.021c0.151,0,0.291,0.008,0.423,0.021
			c0.887,0.089,1.382,0.459,1.941,0.879c0.619,0.465,1.317,0.981,2.542,1.08c0.136,0.011,0.274,0.021,0.424,0.021v-1
			C35.849,30.986,35.709,30.978,35.576,30.965z"/></g><g><path style="fill:#000D6E" d="M35.576,33.182c-1.226-0.099-1.923-0.615-2.542-1.08c-0.56-0.42-1.054-0.79-1.941-0.879
			c-0.136-0.011-0.274-0.021-0.423-0.021c-0.15,0-0.288,0.01-0.424,0.021c-0.342,0.034-0.624,0.112-0.876,0.217
			c-0.4,0.167-0.722,0.404-1.066,0.662c-0.618,0.464-1.316,0.979-2.542,1.079c-0.132,0.013-0.273,0.021-0.424,0.021
			c-0.151,0-0.291-0.008-0.423-0.021c-1.225-0.099-1.923-0.615-2.541-1.08c-0.56-0.42-1.054-0.79-1.941-0.879
			c-0.136-0.011-0.274-0.021-0.423-0.021c-0.15,0-0.288,0.01-0.424,0.021c-0.888,0.089-1.383,0.459-1.943,0.88
			c-0.619,0.464-1.316,0.98-2.542,1.079c-0.132,0.013-0.273,0.021-0.424,0.021c-0.152,0-0.292-0.008-0.424-0.021
			c-1.227-0.099-1.925-0.615-2.544-1.079c-0.561-0.421-1.056-0.79-1.944-0.879c-0.136-0.011-0.274-0.021-0.424-0.021
			c-0.15,0-0.288,0.01-0.424,0.021c-0.889,0.089-1.384,0.459-1.945,0.879c-0.619,0.464-1.318,0.979-2.544,1.079
			C4.292,33.195,4.152,33.203,4,33.203v1c0.15,0,0.288-0.01,0.424-0.021c1.226-0.099,1.925-0.615,2.544-1.079
			c0.561-0.421,1.056-0.79,1.945-0.879c0.111-0.011,0.231-0.016,0.354-0.018c0.024,0,0.045-0.003,0.07-0.003
			c0.151,0,0.292,0.008,0.424,0.021c0.888,0.089,1.383,0.459,1.944,0.879c0.619,0.464,1.318,0.979,2.544,1.079
			c0.136,0.011,0.274,0.021,0.424,0.021c0.15,0,0.288-0.01,0.424-0.021c1.226-0.099,1.924-0.615,2.542-1.079
			c0.56-0.421,1.055-0.79,1.943-0.88c0.132-0.013,0.273-0.021,0.424-0.021c0.151,0,0.291,0.008,0.423,0.021
			c0.887,0.089,1.381,0.459,1.941,0.879c0.618,0.465,1.316,0.981,2.541,1.08c0.136,0.011,0.274,0.021,0.423,0.021
			c0.15,0,0.288-0.01,0.424-0.021c1.226-0.099,1.924-0.615,2.542-1.079c0.324-0.243,0.626-0.469,0.994-0.634
			c0.269-0.12,0.574-0.208,0.948-0.245c0.132-0.013,0.273-0.021,0.424-0.021c0.151,0,0.291,0.008,0.423,0.021
			c0.887,0.089,1.382,0.459,1.941,0.879c0.619,0.465,1.317,0.981,2.542,1.08c0.136,0.011,0.274,0.021,0.424,0.021v-1
			C35.849,33.203,35.709,33.195,35.576,33.182z"/></g></g><g id="Guides" style="display:none"/><g id="Grid" style="display:none"><g style="display:inline"><g/><g/><g/><g/><g/><g/><g/><g/><g/><g/><g/><g/><g/><g/><g/><g/><g/><g/><g/><g/><g/><g/><g/><g/><g/><g/><g/><g/><g/><g/><g/><g/><g/><g/><g/><g/><g/><g/><g/><g/></g></g></svg>