<svg xmlns="http://www.w3.org/2000/svg" viewBox="0 0 40 40" focusable="false" aria-hidden="true"><defs><style>.cls-1{fill:none;}.cls-2{fill:#1b5951;}.cls-3{fill:#94e3d4;}.cls-4{fill:#000d6e;}</style></defs><g id="Solid"><rect class="cls-1" width="40" height="40"/></g><g id="Icon_Green" data-name="Icon Green"><rect class="cls-1" x="22" y="25" width="3" height="3"/><rect class="cls-1" x="22" y="29" width="3" height="3"/><rect class="cls-1" x="22" y="17" width="3" height="3"/><rect class="cls-1" x="22" y="21" width="3" height="3"/><rect class="cls-1" x="6" y="9" width="12" height="3"/><rect class="cls-1" x="22" y="13" width="3" height="3"/><rect class="cls-1" x="6" y="13" width="12" height="3"/><rect class="cls-1" x="6" y="29" width="12" height="3"/><rect class="cls-1" x="6" y="21" width="12" height="3"/><rect class="cls-1" x="6" y="25" width="12" height="3"/><rect class="cls-1" x="6" y="17" width="12" height="3"/><rect class="cls-1" x="31" y="17" width="3" height="3"/><rect class="cls-1" x="31" y="21" width="3" height="3"/><rect class="cls-1" x="26.5" y="29" width="3" height="3"/><rect class="cls-1" x="31" y="13" width="3" height="3"/><rect class="cls-1" x="31" y="25" width="3" height="3"/><rect class="cls-1" x="31" y="29" width="3" height="3"/><rect class="cls-1" x="26.5" y="25" width="3" height="3"/><rect class="cls-1" x="26.5" y="21" width="3" height="3"/><rect class="cls-1" x="26.5" y="13" width="3" height="3"/><rect class="cls-1" x="26.5" y="17" width="3" height="3"/><path class="cls-2" d="M18,2.5a.5.5,0,0,0-1,0V4h1Z"/><path class="cls-3" d="M34.8959,11H20V4H4.9866A1.0364,1.0364,0,0,0,4,5.08V36.9692L4,38H7V34H17v4h8V34h6v4h5V12.0433A1.0751,1.0751,0,0,0,34.8959,11ZM18,32H6V29H18Zm0-4H6V25H18Zm0-4H6V21H18Zm0-4H6V17H18Zm0-4H6V13H18Zm0-4H6V9H18Zm7,20H22V29h3Zm0-4H22V25h3Zm0-4H22V21h3Zm0-4H22V17h3Zm0-4H22V13h3Zm4.5,16h-3V29h3Zm0-4h-3V25h3Zm0-4h-3V21h3Zm0-4h-3V17h3Zm0-4h-3V13h3ZM34,32H31V29h3Zm0-4H31V25h3Zm0-4H31V21h3Zm0-4H31V17h3Zm0-4H31V13h3Z"/><rect class="cls-4" x="7" y="34" width="10" height="4"/><rect class="cls-4" x="25" y="34" width="6" height="4"/></g></svg>