<svg xmlns="http://www.w3.org/2000/svg" viewBox="0 0 40 40" focusable="false" aria-hidden="true"><g id="Solid"><rect width="40" height="40" fill="none"/></g><g id="Icon_Green" data-name="Icon Green"><path d="M20,5A13.2645,13.2645,0,0,0,6.4856,18h7.0167a26.0762,26.0762,0,0,1,2.0883-6.8972A20.155,20.155,0,0,1,20,5Z" fill="#94e3d4"/><path d="M24.4092,11.1027A26.0669,26.0669,0,0,1,26.4975,18h7.0169A13.2646,13.2646,0,0,0,20,5,20.15,20.15,0,0,1,24.4092,11.1027Z" fill="#94e3d4"/><path d="M24.4092,11.1027A20.15,20.15,0,0,0,20,5l0,0,0,0a20.155,20.155,0,0,0-4.4092,6.1026A26.0762,26.0762,0,0,0,13.5023,18v0H26.4975v0A26.0669,26.0669,0,0,0,24.4092,11.1027Z" fill="#1b5951"/><path d="M19.5,32.0039A1.9984,1.9984,0,0,1,17.5039,34h-.3154a1.9984,1.9984,0,0,1-1.9961-1.9961V30.5a.5.5,0,0,0-1,0v1.5039A2.9994,2.9994,0,0,0,17.1885,35h.3154A2.9994,2.9994,0,0,0,20.5,32.0039V30h-1Z" fill="#1b5951"/><polygon points="19.5 19 19.5 29.5 19.5 30 20.5 30 20.5 29.5 20.5 19 19.5 19" fill="#000d6e"/></g></svg>