<svg xmlns="http://www.w3.org/2000/svg" viewBox="0 0 40 40" focusable="false" aria-hidden="true"><g id="Solid"><rect width="40" height="40" fill="none"/></g><g id="Icon_Tangerine" data-name="Icon Tangerine"><rect x="16.4609" y="22.0184" width="2" height="2" fill="none"/><rect x="10.5" y="22.0184" width="2" height="2" fill="none"/><rect x="22.4585" y="22.0184" width="2" height="2" fill="none"/><path d="M9.3375,27c.1786,0,.3428.011.524.0259A4.5092,4.5092,0,0,1,12.3058,28.1a3.5573,3.5573,0,0,0,2.0445.8839c.1013.01.2087.0159.3246.0159a3.4088,3.4088,0,0,0,.3432-.0176,3.5365,3.5365,0,0,0,2.0228-.8818,4.5193,4.5193,0,0,1,2.4626-1.0765c.1622-.0131.3263-.0241.5049-.0241s.342.011.5233.0259A4.5051,4.5051,0,0,1,22.9736,28.1a3.5406,3.5406,0,0,0,2.04.8839A3.2412,3.2412,0,0,0,25.3375,29a3.4019,3.4019,0,0,0,.343-.0176,3.5326,3.5326,0,0,0,2.0225-.8818,5.89,5.89,0,0,1,1.2819-.7855,4.05,4.05,0,0,1,1.18-.291C30.327,27.011,30.491,27,30.67,27s.342.011.5233.0259c.0987.01.1752.0369.2672.0521L31,5H27l-.5,12-6-4v4l-6-4v4l-6-4V27.0885c.1125-.02.2092-.052.3322-.0643C8.9945,27.011,9.1587,27,9.3375,27Zm13.121-4.9816h2v2h-2Zm-5.9976,0h2v2h-2Zm-5.9609,0h2v2h-2Z" fill="#fa9319"/><path d="M35.5764,29.9791a4.4847,4.4847,0,0,1-2.5422-1.08,3.54,3.54,0,0,0-1.9412-.8785C30.9569,28.01,30.8193,28,30.67,28s-.2877.01-.4238.0209a3.0138,3.0138,0,0,0-.8761.2173,4.9186,4.9186,0,0,0-1.0663.6622,4.489,4.489,0,0,1-2.542,1.0787,4.3042,4.3042,0,0,1-.8473,0,4.482,4.482,0,0,1-2.5414-1.08,3.5382,3.5382,0,0,0-1.9408-.8785c-.136-.011-.2736-.0209-.4234-.0209s-.2879.01-.4241.0209a3.54,3.54,0,0,0-1.9431.88,4.4909,4.4909,0,0,1-2.5424,1.0787,4.3154,4.3154,0,0,1-.8484,0A4.4971,4.4971,0,0,1,11.7061,28.9a3.5446,3.5446,0,0,0-1.9444-.88C9.6254,28.01,9.4875,28,9.3375,28s-.2882.01-.4245.0209a3.5446,3.5446,0,0,0-1.9447.88,4.4967,4.4967,0,0,1-2.544,1.0787C4.2919,29.9923,4.1516,30,4,30v1c.15,0,.2879-.01.4242-.0209A4.4967,4.4967,0,0,0,6.9683,29.9a3.5446,3.5446,0,0,1,1.9447-.88c.1107-.0111.23-.0157.3543-.0177.0244,0,.0452-.0032.07-.0032.1515,0,.2918.0077.4242.0209a3.5446,3.5446,0,0,1,1.9444.88A4.4971,4.4971,0,0,0,14.25,30.9791c.1363.011.2743.0209.4245.0209s.2877-.01.4239-.0209A4.4909,4.4909,0,0,0,17.6412,29.9a3.54,3.54,0,0,1,1.9431-.88,4.3062,4.3062,0,0,1,.8475,0,3.5382,3.5382,0,0,1,1.9408.8785,4.482,4.482,0,0,0,2.5414,1.08c.136.011.2736.0209.4235.0209s.2876-.01.4238-.0209A4.489,4.489,0,0,0,28.3033,29.9a5.1786,5.1786,0,0,1,.9944-.6343,3.0092,3.0092,0,0,1,.948-.2452,4.3042,4.3042,0,0,1,.8473,0,3.54,3.54,0,0,1,1.9412.8785,4.4847,4.4847,0,0,0,2.5422,1.08C35.7125,30.99,35.85,31,36,31V30A4.2152,4.2152,0,0,1,35.5764,29.9791Z" fill="#fae052"/></g></svg>