<svg xmlns="http://www.w3.org/2000/svg" viewBox="0 0 40 40" focusable="false" aria-hidden="true"><g id="Solid"><rect width="40" height="40" fill="none"/></g><g id="Icon_Green" data-name="Icon Green"><path d="M27.0673,3.2288a20.9378,20.9378,0,0,0-14.1346,0L5,6.0788V21.8944C5,29.52,14.4909,36.9892,20.002,37,25.51,36.9892,35,29.52,35,21.8944V6.0788ZM24.943,21.6829,20.0005,25.548v.0009l0,0,0,0V25.548L15.057,21.6829c-3.3918-2.8923-2.0217-6.5744-.0024-7.7485,2.616-1.5,4.7685,1.0494,4.9454,1.2671.1769-.2177,2.3294-2.7667,4.9454-1.2671C26.9647,15.1085,28.3348,18.7906,24.943,21.6829Z" fill="#94e3d4"/><path d="M24.9454,13.9344c-2.616-1.5-4.7685,1.0494-4.9454,1.2671-.1769-.2177-2.3294-2.7667-4.9454-1.2671-2.0193,1.1741-3.3894,4.8562.0024,7.7485L20,25.548v.0009l0,0,0,0V25.548l4.9425-3.8651C28.3348,18.7906,26.9647,15.1085,24.9454,13.9344Z" fill="#000d6e"/></g></svg>