<svg xmlns="http://www.w3.org/2000/svg" viewBox="0 0 40 40" focusable="false" aria-hidden="true"><g id="Solid"><rect width="40" height="40" fill="none"/></g><g id="Icon_Green" data-name="Icon Green"><path d="M22.6072,24.53c.0068-.0868.0136-.1735.0228-.26.0331-.5.0549-.9569.0723-1.3931-.018.4363-.0407.8943-.0757,1.3969C22.6207,24.3574,22.6136,24.445,22.6072,24.53Z" fill="none"/><path d="M22.48,25.98c.03-.34.06-.66.09-.98,0-.0479.0088-.0966.01-.1534a3.5154,3.5154,0,0,1-5.1591,0,.6347.6347,0,0,0,.0095.1334c.02.32.05.65.09,1,.23,2.31.35,5.62.42,8v.0086L20,35.6894l2.06-1.7011V33.98C22.13,31.6,22.25,28.29,22.48,25.98Z" fill="none"/><polygon points="8.676 26.34 15.099 31.643 8.68 26.34 8.676 26.34" fill="none"/><path d="M17.2977,22.8762c.0174.4364.0392.8938.0723,1.3938.0091.086.0159.1721.0226.2582-.0063-.0846-.0134-.1715-.0192-.2544C17.3384,23.771,17.3157,23.3127,17.2977,22.8762Z" fill="none"/><path d="M9.17,23.53l8.13-4.17s-.0133.2265-.0252.6162c.0132-.3893.0285-.616.0285-.616l-.0034.0017.1081-1.6551h.0211a6.8123,6.8123,0,0,1-2.6728-4.2432.8506.8506,0,0,1-.2244.0311c-.6325,0-1.1453-.705-1.1453-1.5746a1.5787,1.5787,0,0,1,.8267-1.5051V7.3912L14.21,7.39a2.0944,2.0944,0,0,0-.23-.08,6.59,6.59,0,0,0-1.9-.29A6.8615,6.8615,0,0,0,8.52,8.08a10.4217,10.4217,0,0,0-4.45,7.51A11.0426,11.0426,0,0,0,4.4545,20h.0013c.0679.23.1469.4643.2333.7.0271.0735.0583.1479.0873.2218.06.1535.123.3077.1911.463.0506.1143.1046.2293.16.3445.0533.1117.11.224.1678.3365.0741.143.15.2861.2316.43.04.0712.0845.1429.1267.2143A14.5912,14.5912,0,0,0,7.59,25.26,3.2574,3.2574,0,0,1,9.17,23.53Z" fill="none"/><path d="M25.7868,10.415a1.5787,1.5787,0,0,1,.8267,1.5051c0,.87-.5128,1.5746-1.1454,1.5746a.8252.8252,0,0,1-.1474-.0205,6.7805,6.7805,0,0,1-2.7265,4.2663L22.7,19.3619l-.0033-.0017s.0151.2248.0282.61c-.0118-.3856-.025-.61-.025-.61l8.13,4.17a3.2574,3.2574,0,0,1,1.58,1.73,11.8379,11.8379,0,0,0,3.52-9.67,10.39,10.39,0,0,0-4.45-7.51,6.8684,6.8684,0,0,0-3.57-1.06,6.49,6.49,0,0,0-1.83.27c-.09.03-.17.05-.26.08l-.0013,0c-.0028.4794-.0141,1.0052-.0319,1.5267Z" fill="none"/><polygon points="23.78 32.568 31.358 26.31 31.359 26.31 31.35 26.31 23.78 32.568" fill="none"/><path d="M31.7133,25.9667q.2835-.27.5549-.5391l.003-.0033c-.1609.1642-.3239.3314-.5012.4857A.7393.7393,0,0,1,31.7133,25.9667Z" fill="none"/><path d="M13.3866,11.92c0,.87.5128,1.5746,1.1453,1.5746a.8506.8506,0,0,0,.2244-.0311,6.8123,6.8123,0,0,0,2.6728,4.2432H17.408L17.3,19.3619l.0034-.0017s-.0153.2267-.0285.616c-.0059.1936-.0115.415-.0148.6938-.0067.5685.0026,1.3246.0377,2.2062.018.4365.0407.8948.0757,1.3976.0058.0829.0129.17.0192.2544.0083.1039.0165.2078.0274.3118l0,.0066a3.5154,3.5154,0,0,0,5.1591,0l0-.0066c.0109-.1032.019-.2065.0272-.31.0064-.0853.0135-.1729.0194-.2565.035-.5026.0577-.9606.0757-1.3969.0351-.882.0444-1.6382.0377-2.2069-.0034-.2819-.009-.505-.015-.7-.0131-.3852-.0282-.61-.0282-.61l.0033.0017-.1059-1.6214a6.7805,6.7805,0,0,0,2.7265-4.2663.8252.8252,0,0,0,.1474.0205c.6326,0,1.1454-.705,1.1454-1.5746a1.5787,1.5787,0,0,0-.8267-1.5051v.2659a.4028.4028,0,0,1-.0886.2438.3942.3942,0,0,1-.06.0668.4346.4346,0,0,1-.2637.1019.4125.4125,0,0,1-.4126-.4125V9.3325c0-.06-.0049-.1114-.0062-.169-.0443-.0765-.0963-.1534-.1461-.23a5.0554,5.0554,0,0,0-.8818-1.0369c-.08-.0709-.17-.1363-.2569-.2039a4.4259,4.4259,0,0,1-1.76.3569,4.709,4.709,0,0,1-1.4973-.2534A7.5882,7.5882,0,0,1,19.0972,7.22a4.347,4.347,0,0,1-.799-.567,8.7263,8.7263,0,0,0-1.6767.4514c-.1007.0383-.2007.0767-.2938.1156-.3251.1359-.6044.2713-.844.39-.09.0447-.1769.088-.2559.1265a6.0112,6.0112,0,0,0-.1663,1.021c-.0142.18-.0232.37-.0232.5747v1.3484a.4125.4125,0,0,1-.4125.4125.3968.3968,0,0,1-.0671-.0135.4071.4071,0,0,1-.3454-.399V10.415A1.5787,1.5787,0,0,0,13.3866,11.92Z" fill="#94e3d4"/><path d="M14.2133,7.1253v3.5556a.4071.4071,0,0,0,.3454.399.3968.3968,0,0,0,.0671.0135.4125.4125,0,0,0,.4125-.4125V9.3325c0-.2049.009-.3952.0232-.5747a6.0112,6.0112,0,0,1,.1663-1.021c.079-.0385.1658-.0818.2559-.1265.24-.1189.5189-.2543.844-.39.0931-.0389.1931-.0773.2938-.1156a8.7263,8.7263,0,0,1,1.6767-.4514,4.347,4.347,0,0,0,.799.567,7.5882,7.5882,0,0,0,1.3161.5758,4.709,4.709,0,0,0,1.4973.2534,4.4259,4.4259,0,0,0,1.76-.3569c.0868.0676.1773.133.2569.2039a5.0554,5.0554,0,0,1,.8818,1.0369c.05.0769.1018.1538.1461.23.0013.0576.0062.1091.0062.169v1.3484a.4125.4125,0,0,0,.4126.4125.4346.4346,0,0,0,.2637-.1019.3942.3942,0,0,0,.06-.0668.4028.4028,0,0,0,.0886-.2438V8.8972c.0178-.5215.0291-1.0473.0319-1.5267,0-.085.0029-.18.0027-.2606-.0008-.3061-.0091-.5625-.0227-.7795-.004-.0651-.0064-.1429-.0119-.197l-.0043-.0226C25.6389,4.91,23.4233,2,20,2a5.6948,5.6948,0,0,0-5.6926,4.1425c-.0155.0709-.0125.1415-.0244.2124a3.69,3.69,0,0,0-.07.6052Z" fill="#1b5951"/><path d="M30.83,23.53,22.7,19.36s.0132.2246.025.61c.006.1948.0116.4179.015.7.0067.5687-.0026,1.3249-.0377,2.2069-.0174.4362-.0392.8934-.0723,1.3931-.0092.0868-.016.1735-.0228.26-.0082.1032-.0163.2065-.0272.31l0,.0066c-.0008.0568-.01.1055-.01.1534-.03.32-.06.64-.09.98-.23,2.31-.35,5.62-.42,8v.0083l1.72-1.42L31.35,26.31h.0086c.0378-.0339.0693-.0681.1065-.1021.0826-.08.1637-.1606.2482-.2412A.7393.7393,0,0,0,31.77,25.91c.1773-.1543.34-.3215.5012-.4857.05-.0521.0939-.1043.1428-.1564L32.41,25.26A3.2574,3.2574,0,0,0,30.83,23.53Z" fill="#1b5951"/><path d="M17.52,25.98c-.04-.35-.07-.68-.09-1a.6347.6347,0,0,1-.0095-.1334l0-.0066c-.0109-.104-.0191-.2079-.0274-.3118-.0067-.0861-.0135-.1722-.0226-.2582-.0331-.5-.0549-.9574-.0723-1.3938-.0351-.8816-.0444-1.6377-.0377-2.2062.0033-.2788.0089-.5.0148-.6938.0119-.39.0252-.6162.0252-.6162L9.17,23.53a3.2574,3.2574,0,0,0-1.58,1.73v.0068c.0215.0228.0412.0457.0628.0685.091.1.1888.1993.2865.2984.2337.2351.4745.47.7348.7046l.002.0017H8.68l6.4188,5.3028L17.94,33.9886V33.98C17.87,31.6,17.75,28.29,17.52,25.98Z" fill="#1b5951"/><path d="M35.6718,22.3428c.0466-.0936.0923-.1871.1364-.2808.0717-.1539.1417-.3074.2064-.4614.0627-.148.12-.2959.1759-.4438.0422-.1119.0877-.2236.1264-.3354q.1418-.4067.253-.812L36.5729,20h-.0006C38.0623,14.53,35.412,9.3231,32,7.23a7.7983,7.7983,0,0,0-4.09-1.21,7.63,7.63,0,0,0-2.11.31l-.0013,0c.0136.217.0219.4734.0227.7795,0,.081-.0022.1756-.0027.2606l.0013,0c.09-.03.17-.05.26-.08a6.49,6.49,0,0,1,1.83-.27,6.8684,6.8684,0,0,1,3.57,1.06,10.39,10.39,0,0,1,4.45,7.51,11.8379,11.8379,0,0,1-3.52,9.67l.004.0079c-.0489.0521-.0927.1043-.1428.1564l-.003.0033q-.2706.2685-.5549.5391c-.0845.0806-.1656.1609-.2482.2412-.0372.034-.0687.0682-.1065.1021l0,0L23.78,32.5684l-1.72,1.42L20,35.6894l-2.06-1.7008-2.8412-2.3458L8.6761,26.34l-.002-.0017c-.26-.2344-.5011-.4695-.7348-.7046-.0977-.0991-.1955-.1983-.2865-.2984-.0216-.0228-.0413-.0457-.0628-.0685V25.26a14.5912,14.5912,0,0,1-1.9365-2.55c-.0422-.0714-.0864-.1431-.1267-.2143-.0819-.144-.1575-.2871-.2316-.43-.058-.1125-.1145-.2248-.1678-.3365-.0553-.1152-.1093-.23-.16-.3445-.0681-.1553-.1314-.3095-.1911-.463-.029-.0739-.06-.1483-.0873-.2218-.0864-.2358-.1654-.47-.2333-.7H4.4545A11.0426,11.0426,0,0,1,4.07,15.59,10.4217,10.4217,0,0,1,8.52,8.08a6.8615,6.8615,0,0,1,3.56-1.06,6.59,6.59,0,0,1,1.9.29,2.0944,2.0944,0,0,1,.23.08l.0033.0012V6.96a3.69,3.69,0,0,1,.07-.6052L14.27,6.35a7.4854,7.4854,0,0,0-2.19-.33A7.7663,7.7663,0,0,0,8,7.23C4.4093,9.4327,1.6638,15.09,3.698,20.8694c.0145.0413.0317.0826.0467.1239q.1242.3417.2709.6836c.04.0939.0831.1877.1259.2815q.1185.2587.2511.5171c.06.1175.12.2348.1836.3522.0774.141.1617.2815.2453.4221a15.0285,15.0285,0,0,0,1.1794,1.7019c.0372.0465.0727.0931.1106.1394.17.2083.3489.4152.5345.6214l.0733.08c.396.4346.816.8658,1.2857,1.2887l9.956,8.221.009.0075L20,36.99l2.03-1.68.0968-.08,9.8682-8.1485c.1313-.1182.2476-.239.3731-.3582.05-.0486.1032-.0946.1519-.1433.0082-.0066.0149-.0171.023-.0246A15.9,15.9,0,0,0,35.36,22.9372l.0171-.0294C35.4816,22.72,35.5783,22.5314,35.6718,22.3428Z" fill="#000d6e"/></g></svg>