<svg xmlns="http://www.w3.org/2000/svg" viewBox="0 0 40 40" focusable="false" aria-hidden="true"><defs><style>.cls-1{fill:none;}.cls-2{fill:#fa9319;}.cls-3{fill:#000d6e;}.cls-4{fill:#fae052;}</style></defs><g id="Solid"><rect class="cls-1" width="40" height="40"/></g><g id="Icon"><path class="cls-2" d="M7.16,31.65a.49.49,0,0,1-.41-.22.5.5,0,0,1,.14-.7l3.33-2.21a.51.51,0,0,1,.7.15.5.5,0,0,1-.14.69L7.44,31.57A.54.54,0,0,1,7.16,31.65Z"/><path class="cls-2" d="M32.84,31.65a.54.54,0,0,1-.28-.08l-3.34-2.21a.5.5,0,0,1-.14-.69.51.51,0,0,1,.7-.15l3.33,2.21a.5.5,0,0,1,.14.7A.49.49,0,0,1,32.84,31.65Z"/><path class="cls-2" d="M9.5,22.5h-4a.5.5,0,0,1,0-1h4a.5.5,0,0,1,0,1Z"/><path class="cls-2" d="M10.5,14.5a.57.57,0,0,1-.28-.08L6.89,12.21a.5.5,0,0,1,.55-.83l3.34,2.2a.51.51,0,0,1,.14.7A.52.52,0,0,1,10.5,14.5Z"/><path class="cls-2" d="M29.5,14.5a.52.52,0,0,1-.42-.22.51.51,0,0,1,.14-.7l3.34-2.2a.5.5,0,1,1,.55.83l-3.33,2.21A.57.57,0,0,1,29.5,14.5Z"/><path class="cls-2" d="M34.5,22.5h-4a.5.5,0,0,1,0-1h4a.5.5,0,0,1,0,1Z"/><path class="cls-2" d="M20,11a.5.5,0,0,1-.5-.5v-4a.5.5,0,0,1,1,0v4A.5.5,0,0,1,20,11Z"/><path class="cls-3" d="M20,34h0c-2.21,0-4-1.34-4-3h8C24,32.66,22.21,34,20,34Z"/><path class="cls-4" d="M27,20a7,7,0,1,0-12.71,4h0A6.88,6.88,0,0,1,16,28.11V30h8V28.11a7,7,0,0,1,1.34-3.59A7,7,0,0,0,27,20Z"/></g></svg>