<svg xmlns="http://www.w3.org/2000/svg" viewBox="0 0 40 40" focusable="false" aria-hidden="true"><g id="Solid"><rect width="40" height="40" fill="none"/></g><g id="Icon_Red" data-name="Icon Red"><path d="M33,10H7a2,2,0,0,0-2,2v1H35V12A2,2,0,0,0,33,10Z" fill="#ffaca6"/><path d="M21.5,21.3007V24.5a1.5,1.5,0,0,1-3,0V21.3007A2.7441,2.7441,0,0,1,17.25,19H5v8a2,2,0,0,0,2,2H33a2,2,0,0,0,2-2V19H22.75A2.7441,2.7441,0,0,1,21.5,21.3007Z" fill="#ffaca6"/><path d="M5,19H17.25a2.75,2.75,0,0,1,5.5,0H35V14H5Z" fill="#d9304c"/><path d="M20,16.25a2.7473,2.7473,0,0,0-1.5,5.0507V24.5a1.5,1.5,0,0,0,3,0V21.3007A2.7473,2.7473,0,0,0,20,16.25Z" fill="#000d6e"/></g></svg>