<svg xmlns="http://www.w3.org/2000/svg" viewBox="0 0 40 40" focusable="false" aria-hidden="true"><defs><style>.cls-1{fill:none;}.cls-2{fill:#fa9319;}.cls-3{fill:#000d6e;}.cls-4{fill:#fae052;}</style></defs><g id="Solid"><rect class="cls-1" width="40" height="40"/></g><g id="Icon_Tangerine" data-name="Icon Tangerine"><path class="cls-2" d="M32.5,7.53v5.44h1V7.53a3.5,3.5,0,1,0-7,0,.5.5,0,0,0,1,0,2.5,2.5,0,1,1,5,0Z"/><path class="cls-2" d="M32.5,32.97v2.5a.5.5,0,0,0,1,0v-2.5Z"/><path class="cls-3" d="M19.0254,27.7021a2.8018,2.8018,0,1,0,2.8184,2.7842A2.7259,2.7259,0,0,0,19.0254,27.7021Z"/><path class="cls-3" d="M20.1328,8.1064c-3.9931,0-6.8115,2.2139-7.55,5.5694l4.6641,1.5107a2.6049,2.6049,0,0,1,2.5835-2.3154,1.9163,1.9163,0,0,1,2.1475,2.0469c0,3.02-5.1,3.791-5.1,8.69V24.85h4.2612v-.9062c0-3.6231,6.0063-4.127,6.0063-9.5957C27.1455,10.4551,24.4615,8.1064,20.1328,8.1064Z"/><path class="cls-4" d="M11.0528,22.189a3.5206,3.5206,0,1,0-2.3.7046l.215.6762.6511,1.0548.0781,1.2372.651,1.0549.078,1.2372.6511,1.0549-.0225.9213a.6657.6657,0,0,0,.3056.38l.7678.43a.5744.5744,0,0,0,.81-.2577l.3782-.7946a.6656.6656,0,0,0,.03-.4864ZM8.5186,18.04a.7048.7048,0,1,1,.4622-.8832A.7047.7047,0,0,1,8.5186,18.04Z"/><polygon class="cls-4" points="33 13.97 28.955 13.97 32.5 31.97 33 31.97 33.5 31.97 37.045 13.97 33 13.97"/></g></svg>