<svg xmlns="http://www.w3.org/2000/svg" viewBox="0 0 40 40" focusable="false" aria-hidden="true"><defs><style>.cls-1{fill:none;}.cls-2{fill:#b8b2ff;}.cls-3{fill:#6c2273;}.cls-4{fill:#000d6e;}</style></defs><g id="Solid"><rect class="cls-1" width="40" height="40"/></g><g id="Icon"><path class="cls-2" d="M9,32H31V12H9Z"/><path class="cls-3" d="M35.41,12H32V32h3.41A1.59,1.59,0,0,0,37,30.41V13.59A1.59,1.59,0,0,0,35.41,12Z"/><path class="cls-3" d="M3,13.59V30.41A1.59,1.59,0,0,0,4.59,32H8V12H4.59A1.59,1.59,0,0,0,3,13.59Z"/><path class="cls-2" d="M17,9.5a.5.5,0,0,1,.5-.5h5a.5.5,0,0,1,.5.5V11h1V9.5A1.5,1.5,0,0,0,22.5,8h-5A1.5,1.5,0,0,0,16,9.5V11h1Z"/><rect class="cls-4" x="19" y="14" width="2" height="2"/></g></svg>