<svg xmlns="http://www.w3.org/2000/svg" viewBox="0 0 40 40" focusable="false" aria-hidden="true"><g id="Solid"><rect width="40" height="40" fill="none"/></g><g id="Icon"><path d="M9,32H31V12H9Z" fill="#ffaca6"/><path d="M35.41,12H32V32h3.41A1.59,1.59,0,0,0,37,30.41V13.59A1.59,1.59,0,0,0,35.41,12Z" fill="#d9304c"/><path d="M3,13.59V30.41A1.59,1.59,0,0,0,4.59,32H8V12H4.59A1.59,1.59,0,0,0,3,13.59Z" fill="#d9304c"/><path d="M17,9.5a.5.5,0,0,1,.5-.5h5a.5.5,0,0,1,.5.5V11h1V9.5A1.5,1.5,0,0,0,22.5,8h-5A1.5,1.5,0,0,0,16,9.5V11h1Z" fill="#ffaca6"/><rect x="19" y="14" width="2" height="2" fill="#000d6e"/></g></svg>