<?xml version="1.0" encoding="UTF-8"?><svg xmlns="http://www.w3.org/2000/svg" viewBox="0 0 40 40" focusable="false" aria-hidden="true"><defs><style>.uuid-8c6e3fe9-8997-4314-91c2-6770668e9f66{fill:none;}.uuid-260f9c60-58b8-4652-9732-198dd243619d{fill:#000d6e;}.uuid-2e09ee77-e358-4586-acfc-3db73f83b417{fill:#1b5951;}.uuid-c5b25bd3-7433-49f6-bedd-5c4958f68f75{fill:#94e3d4;}</style></defs><g id="uuid-3fa73aec-41da-4472-81fc-8cd223ac3567"><rect class="uuid-8c6e3fe9-8997-4314-91c2-6770668e9f66" width="40" height="40"/></g><g id="uuid-15c58798-c3a6-43b0-bf8d-7af454507a59"><g><path class="uuid-260f9c60-58b8-4652-9732-198dd243619d" d="M8,22.5c0-1.34,.52-2.59,1.46-3.54,.2-.2,.2-.51,0-.71s-.51-.2-.71,0c-1.13,1.13-1.76,2.64-1.76,4.24s.62,3.11,1.76,4.24c.1,.1,.23,.15,.35,.15s.26-.05,.35-.15c.2-.2,.2-.51,0-.71-.94-.94-1.46-2.2-1.46-3.54Z"/><path class="uuid-260f9c60-58b8-4652-9732-198dd243619d" d="M10,22.5c0-.8,.31-1.56,.88-2.13,.2-.2,.2-.51,0-.71s-.51-.2-.71,0c-.76,.76-1.17,1.76-1.17,2.83s.42,2.08,1.17,2.83c.1,.1,.23,.15,.35,.15s.26-.05,.35-.15c.2-.2,.2-.51,0-.71-.57-.57-.88-1.32-.88-2.13Z"/><path class="uuid-260f9c60-58b8-4652-9732-198dd243619d" d="M12.3,21.08c-.2-.2-.51-.2-.71,0-.78,.78-.78,2.06,0,2.84,.1,.1,.23,.15,.35,.15s.26-.05,.35-.15c.2-.2,.2-.51,0-.71-.39-.39-.39-1.03,0-1.42,.2-.2,.2-.51,0-.71Z"/></g><path class="uuid-c5b25bd3-7433-49f6-bedd-5c4958f68f75" d="M33.36,10H6.64c-1.46,0-2.64,1.18-2.64,2.64v14.72c0,1.46,1.18,2.64,2.64,2.64h26.72c1.46,0,2.64-1.18,2.64-2.64V12.64c0-1.46-1.18-2.64-2.64-2.64ZM9.46,26.74c-.1,.1-.23,.15-.35,.15s-.26-.05-.35-.15c-1.13-1.13-1.76-2.64-1.76-4.24s.62-3.11,1.76-4.24c.2-.2,.51-.2,.71,0s.2,.51,0,.71c-.94,.94-1.46,2.2-1.46,3.54s.52,2.59,1.46,3.54c.2,.2,.2,.51,0,.71Zm1.42-1.41c-.1,.1-.23,.15-.35,.15s-.26-.05-.35-.15c-.76-.76-1.17-1.76-1.17-2.83s.42-2.08,1.17-2.83c.2-.2,.51-.2,.71,0s.2,.51,0,.71c-.57,.57-.88,1.32-.88,2.13s.31,1.56,.88,2.13c.2,.2,.2,.51,0,.71Zm1.41-2.12c.2,.2,.2,.51,0,.71-.1,.1-.23,.15-.35,.15s-.26-.05-.35-.15c-.78-.78-.78-2.06,0-2.84,.2-.2,.51-.2,.71,0s.2,.51,0,.71c-.39,.39-.39,1.03,0,1.42Zm14.73-5.21c-1.66,0-3-1.34-3-3s1.34-3,3-3,3,1.34,3,3-1.34,3-3,3Z"/><circle class="uuid-2e09ee77-e358-4586-acfc-3db73f83b417" cx="31" cy="15" r="3"/></g></svg>