<?xml version="1.0" encoding="UTF-8"?><svg xmlns="http://www.w3.org/2000/svg" viewBox="0 0 40 40" focusable="false" aria-hidden="true"><defs><style>.uuid-a8d5fb11-2ad7-42b7-bfc2-10d354a8cfce{fill:none;}.uuid-3924c166-ea9e-4c51-b539-f479000fd103{fill:#000d6e;}.uuid-2d167c72-2bdb-420e-b7e6-8b87a4a5f09f{fill:#6c2273;}.uuid-c12ca622-6fa0-4298-a81c-cba5f0f14528{fill:#b8b2ff;}</style></defs><g id="uuid-3bbed1cd-df71-44a2-9277-38d54429a22c"><rect class="uuid-a8d5fb11-2ad7-42b7-bfc2-10d354a8cfce" width="40" height="40"/></g><g id="uuid-9a9c2bf6-6ad7-4af1-964c-d0ef0a3c3ad3"><g><path class="uuid-3924c166-ea9e-4c51-b539-f479000fd103" d="M8,22.5c0-1.34,.52-2.59,1.46-3.54,.2-.2,.2-.51,0-.71s-.51-.2-.71,0c-1.13,1.13-1.76,2.64-1.76,4.24s.62,3.11,1.76,4.24c.1,.1,.23,.15,.35,.15s.26-.05,.35-.15c.2-.2,.2-.51,0-.71-.94-.94-1.46-2.2-1.46-3.54Z"/><path class="uuid-3924c166-ea9e-4c51-b539-f479000fd103" d="M10,22.5c0-.8,.31-1.56,.88-2.13,.2-.2,.2-.51,0-.71s-.51-.2-.71,0c-.76,.76-1.17,1.76-1.17,2.83s.42,2.08,1.17,2.83c.1,.1,.23,.15,.35,.15s.26-.05,.35-.15c.2-.2,.2-.51,0-.71-.57-.57-.88-1.32-.88-2.13Z"/><path class="uuid-3924c166-ea9e-4c51-b539-f479000fd103" d="M12.3,21.08c-.2-.2-.51-.2-.71,0-.78,.78-.78,2.06,0,2.84,.1,.1,.23,.15,.35,.15s.26-.05,.35-.15c.2-.2,.2-.51,0-.71-.39-.39-.39-1.03,0-1.42,.2-.2,.2-.51,0-.71Z"/></g><path class="uuid-c12ca622-6fa0-4298-a81c-cba5f0f14528" d="M33.36,10H6.64c-1.46,0-2.64,1.18-2.64,2.64v14.72c0,1.46,1.18,2.64,2.64,2.64h26.72c1.46,0,2.64-1.18,2.64-2.64V12.64c0-1.46-1.18-2.64-2.64-2.64ZM9.46,26.74c-.1,.1-.23,.15-.35,.15s-.26-.05-.35-.15c-1.13-1.13-1.76-2.64-1.76-4.24s.62-3.11,1.76-4.24c.2-.2,.51-.2,.71,0s.2,.51,0,.71c-.94,.94-1.46,2.2-1.46,3.54s.52,2.59,1.46,3.54c.2,.2,.2,.51,0,.71Zm1.42-1.41c-.1,.1-.23,.15-.35,.15s-.26-.05-.35-.15c-.76-.76-1.17-1.76-1.17-2.83s.42-2.08,1.17-2.83c.2-.2,.51-.2,.71,0s.2,.51,0,.71c-.57,.57-.88,1.32-.88,2.13s.31,1.56,.88,2.13c.2,.2,.2,.51,0,.71Zm1.41-2.12c.2,.2,.2,.51,0,.71-.1,.1-.23,.15-.35,.15s-.26-.05-.35-.15c-.78-.78-.78-2.06,0-2.84,.2-.2,.51-.2,.71,0s.2,.51,0,.71c-.39,.39-.39,1.03,0,1.42Zm14.73-5.21c-1.66,0-3-1.34-3-3s1.34-3,3-3,3,1.34,3,3-1.34,3-3,3Z"/><circle class="uuid-2d167c72-2bdb-420e-b7e6-8b87a4a5f09f" cx="31" cy="15" r="3"/></g></svg>