<?xml version="1.0" encoding="UTF-8"?><svg xmlns="http://www.w3.org/2000/svg" viewBox="0 0 40 40" focusable="false" aria-hidden="true"><defs><style>.uuid-b0d6c687-0faf-4a6e-95b3-8d1c0b8769f8{fill:none;}.uuid-581824d1-2130-45b6-b377-fdeca4a782e4{fill:#000d6e;}.uuid-3bad328a-e26d-4588-b045-923f8ca478ab{fill:#ffaca6;}.uuid-0add0947-94af-4512-8e3b-f2cd93d48553{fill:#d9304c;}</style></defs><g id="uuid-640b78e1-6515-461e-8679-d3f7c08a20fc"><rect class="uuid-b0d6c687-0faf-4a6e-95b3-8d1c0b8769f8" width="40" height="40"/></g><g id="uuid-f7f26407-8f98-4b37-9d94-432647b322b9"><g><path class="uuid-581824d1-2130-45b6-b377-fdeca4a782e4" d="M8,22.5c0-1.34,.52-2.59,1.46-3.54,.2-.2,.2-.51,0-.71s-.51-.2-.71,0c-1.13,1.13-1.76,2.64-1.76,4.24s.62,3.11,1.76,4.24c.1,.1,.23,.15,.35,.15s.26-.05,.35-.15c.2-.2,.2-.51,0-.71-.94-.94-1.46-2.2-1.46-3.54Z"/><path class="uuid-581824d1-2130-45b6-b377-fdeca4a782e4" d="M10,22.5c0-.8,.31-1.56,.88-2.13,.2-.2,.2-.51,0-.71s-.51-.2-.71,0c-.76,.76-1.17,1.76-1.17,2.83s.42,2.08,1.17,2.83c.1,.1,.23,.15,.35,.15s.26-.05,.35-.15c.2-.2,.2-.51,0-.71-.57-.57-.88-1.32-.88-2.13Z"/><path class="uuid-581824d1-2130-45b6-b377-fdeca4a782e4" d="M12.3,21.08c-.2-.2-.51-.2-.71,0-.78,.78-.78,2.06,0,2.84,.1,.1,.23,.15,.35,.15s.26-.05,.35-.15c.2-.2,.2-.51,0-.71-.39-.39-.39-1.03,0-1.42,.2-.2,.2-.51,0-.71Z"/></g><path class="uuid-3bad328a-e26d-4588-b045-923f8ca478ab" d="M33.36,10H6.64c-1.46,0-2.64,1.18-2.64,2.64v14.72c0,1.46,1.18,2.64,2.64,2.64h26.72c1.46,0,2.64-1.18,2.64-2.64V12.64c0-1.46-1.18-2.64-2.64-2.64ZM9.46,26.74c-.1,.1-.23,.15-.35,.15s-.26-.05-.35-.15c-1.13-1.13-1.76-2.64-1.76-4.24s.62-3.11,1.76-4.24c.2-.2,.51-.2,.71,0s.2,.51,0,.71c-.94,.94-1.46,2.2-1.46,3.54s.52,2.59,1.46,3.54c.2,.2,.2,.51,0,.71Zm1.42-1.41c-.1,.1-.23,.15-.35,.15s-.26-.05-.35-.15c-.76-.76-1.17-1.76-1.17-2.83s.42-2.08,1.17-2.83c.2-.2,.51-.2,.71,0s.2,.51,0,.71c-.57,.57-.88,1.32-.88,2.13s.31,1.56,.88,2.13c.2,.2,.2,.51,0,.71Zm1.41-2.12c.2,.2,.2,.51,0,.71-.1,.1-.23,.15-.35,.15s-.26-.05-.35-.15c-.78-.78-.78-2.06,0-2.84,.2-.2,.51-.2,.71,0s.2,.51,0,.71c-.39,.39-.39,1.03,0,1.42Zm14.73-5.21c-1.66,0-3-1.34-3-3s1.34-3,3-3,3,1.34,3,3-1.34,3-3,3Z"/><circle class="uuid-0add0947-94af-4512-8e3b-f2cd93d48553" cx="31" cy="15" r="3"/></g></svg>