<?xml version="1.0" encoding="UTF-8"?><svg id="Ebene_1" data-name="Ebene 1" xmlns="http://www.w3.org/2000/svg" viewBox="0 0 40 40" focusable="false" aria-hidden="true"><defs><style>.cls-1 {
        fill: #d9304c;
      }

      .cls-2 {
        fill: #000d6e;
      }

      .cls-3 {
        fill: none;
      }

      .cls-4 {
        fill: #ffaca6;
      }</style></defs><g id="Solid"><rect class="cls-3" width="40" height="40"/></g><path class="cls-1" d="m32.54,29.7l-7.35-7.35c-.49-.49-1.34-.49-1.83,0h0s-1.42-1.42-1.42-1.42l-.92-.92c-.13.17-.28.34-.44.49-.16.16-.31.3-.47.43l.92.92,1.41,1.41h0c-.5.5-.5,1.33,0,1.83l7.35,7.35c.24.24.57.38.91.38s.67-.13.91-.38l.91-.91c.24-.24.38-.57.38-.91s-.13-.67-.38-.91Z"/><path class="cls-2" d="m21.5,9.53c-3.28-3.27-8.61-3.27-11.89,0-1.58,1.59-2.46,3.7-2.46,5.94s.88,4.35,2.46,5.94c1.59,1.58,3.7,2.46,5.94,2.46,2.04,0,3.95-.72,5.48-2.03.17-.14.31-.28.47-.43.16-.16.31-.32.44-.49,1.31-1.51,2.02-3.42,2.02-5.45,0-2.25-.88-4.35-2.46-5.94Zm-.48,10.48c-.13.17-.28.34-.44.49-.16.16-.31.3-.47.43-1.28,1.07-2.87,1.65-4.56,1.65-1.9,0-3.68-.74-5.03-2.08-1.34-1.34-2.08-3.13-2.08-5.03s.74-3.68,2.08-5.03,3.2-2.08,5.03-2.08,3.64.7,5.03,2.08,2.08,3.13,2.08,5.03c0,1.68-.57,3.26-1.64,4.54Z"/><path class="cls-4" d="m19.66,11.37c-2.27-2.27-5.94-2.27-8.22,0-2.27,2.27-2.27,5.94,0,8.22,2.12,2.12,5.47,2.26,7.75.43.16-.14.31-.27.47-.43s.31-.32.44-.49c1.82-2.29,1.68-5.61-.44-7.73Zm-7.31,2.58c-.3.52-.37,1.13-.21,1.71.09.31-.09.63-.41.72-.05.02-.11.02-.16.02-.26,0-.49-.17-.56-.43-.25-.88-.14-1.8.31-2.6.16-.28.52-.38.8-.22.28.16.38.52.22.8Z"/></svg>