<?xml version="1.0" encoding="iso-8859-1"?><!--Generator: Adobe Illustrator 26.2.1, SVG Export Plug-In . SVG Version: 6.00 Build 0)--><svg version="1.1" xmlns="http://www.w3.org/2000/svg" xmlns:xlink="http://www.w3.org/1999/xlink" x="0px" y="0px" viewBox="0 0 40 40" style="enable-background:new 0 0 40 40" xml:space="preserve" focusable="false" aria-hidden="true"><g id="Solid"><rect style="fill:none" width="40" height="40"/></g><g id="Icon_Green"><path style="fill:#94E3D4" d="M20.486,20.013c-0.023-0.339-0.045-0.537-0.045-0.537l0.01-1.531
		c1.254-0.829,2.199-2.284,2.577-4.032c0.046,0.008,0.092,0.019,0.139,0.019c0.598,0,1.082-0.666,1.082-1.488
		c0-0.677-0.331-1.242-0.781-1.422v0.251c0,0.088-0.034,0.165-0.084,0.231c-0.017,0.023-0.035,0.044-0.057,0.063
		c-0.035,0.03-0.075,0.054-0.12,0.07c-0.041,0.015-0.084,0.026-0.13,0.026c-0.215,0-0.39-0.175-0.39-0.39v-0.157V10
		c0-0.057-0.005-0.105-0.006-0.16c-0.042-0.072-0.091-0.145-0.138-0.218c-0.265-0.409-0.617-0.815-1.076-1.173
		c-0.797,0.339-1.842,0.515-3.078,0.098c-0.504-0.17-0.91-0.355-1.244-0.544c-0.315-0.178-0.561-0.359-0.755-0.536
		c-0.746,0.124-1.363,0.327-1.862,0.536c-0.423,0.177-0.766,0.355-1.04,0.488c-0.066,0.258-0.126,0.576-0.157,0.965
		C13.32,9.626,13.311,9.806,13.311,10v1.117v0.157c0,0.215-0.174,0.39-0.39,0.39c-0.022,0-0.042-0.009-0.063-0.013
		c-0.184-0.031-0.327-0.184-0.327-0.377v-0.251c-0.45,0.18-0.781,0.745-0.781,1.422c0,0.822,0.485,1.488,1.082,1.488
		c0.073,0,0.143-0.011,0.212-0.029c0.371,1.728,1.275,3.206,2.506,4.042l0-0.032l0.008,1.562c0,0-0.022,0.204-0.046,0.556
		c0.666,0.742,1.364,1.197,2.467,1.197C19.108,21.23,19.788,20.771,20.486,20.013z"/><path style="fill:#000D6E" d="M12.858,11.651c0.021,0.004,0.041,0.013,0.063,0.013c0.215,0,0.39-0.175,0.39-0.39v-0.157V10
		c0-0.194,0.009-0.374,0.022-0.543c0.031-0.389,0.091-0.707,0.157-0.965c0.273-0.133,0.617-0.312,1.04-0.488
		c0.5-0.209,1.116-0.411,1.862-0.536c0.194,0.177,0.44,0.358,0.755,0.536c0.334,0.189,0.74,0.374,1.244,0.544
		c1.236,0.417,2.281,0.241,3.078-0.098c0.46,0.358,0.811,0.763,1.076,1.173c0.047,0.073,0.096,0.145,0.138,0.218
		c0.001,0.055,0.006,0.103,0.006,0.16v1.117v0.157c0,0.215,0.175,0.39,0.39,0.39c0.046,0,0.089-0.012,0.13-0.026
		c0.045-0.016,0.084-0.04,0.12-0.07c0.022-0.019,0.039-0.04,0.057-0.063c0.049-0.065,0.084-0.142,0.084-0.231v-0.251V9.588
		c0.034-1.01,0.053-2.091,0-2.612C23.355,5.854,21.254,3.07,18,3.07c-3.254,0-5.469,2.456-5.469,4.688v3.265v0.251
		C12.531,11.467,12.674,11.62,12.858,11.651z"/><path style="fill:#1B5951" d="M29.46,33.12l0-0.004L29.46,33.12l-0.043-0.35L28.37,24.3c0-0.417-0.091-0.769-0.226-1.088
		c0-0.001-0.001-0.003-0.001-0.004c-0.542-1.279-2.039-1.864-3.662-2.328c-0.05-0.03-0.12-0.03-0.16-0.05
		c-1.09-0.3-2.77-0.61-3.83-0.82c-0.7,0.76-1.38,1.22-2.51,1.22c-1.1,0-1.8-0.46-2.47-1.2l-0.01-0.01h-0.01
		c-0.48,0.09-1.33,0.28-2.12,0.45c-0.09,0.02-0.17,0.03-0.25,0.05c-0.86,0.19-1.6,0.36-1.62,0.37c-0.41,0.12-0.82,0.24-1.2,0.38
		c-1.5,0.56-2.69,1.37-2.69,3.04l-1.08,8.76L6.52,33.1l-0.06,0.53c-0.19,1.55,0.83,2.94,2.27,3.29c0.05,0.01,0.1,0.02,0.15,0.03
		c0.08,0.01,0.15,0.02,0.23,0.03C9.2,36.99,9.3,37,9.39,37h12.92v-0.01h7.63L29.46,33.12z"/><path style="fill:#94E3D4" d="M25.859,35c0-1.105-0.898-2-2.005-2h-2.42l0.445-0.158c0.261-0.093,0.396-0.379,0.303-0.639
		c-0.093-0.261-0.379-0.4-0.64-0.303l-1.972,0.702l-0.229,0.082l2.107,4.302L21.454,37h2.4c0.048,0,0.094-0.011,0.141-0.014
		C25.036,36.912,25.859,36.056,25.859,35z"/><path style="fill:#000D6E" d="M21.46,37H9.39c-0.09,0-0.19-0.01-0.28-0.02c-0.04,0-0.07,0-0.11-0.01s-0.08-0.01-0.12-0.02
		c-0.05-0.01-0.1-0.02-0.15-0.03c-1.32-0.28-2.27-1.45-2.34-2.78c-0.02-0.31,0.02-0.64,0.11-0.96l0.02-0.08l0.01-0.03l3.77-11.8
		c0.38-0.14,0.79-0.26,1.2-0.38c0.02-0.01,0.76-0.18,1.62-0.37c0.08-0.02,0.16-0.03,0.25-0.05l5.97,12.2l2.11,4.3v0.01L21.46,37z"/></g><g id="Guides" style="display:none"/><g id="Grid" style="display:none"><g style="display:inline"><g/><g/><g/><g/><g/><g/><g/><g/><g/><g/><g/><g/><g/><g/><g/><g/><g/><g/><g/><g/><g/><g/><g/><g/><g/><g/><g/><g/><g/><g/><g/><g/><g/><g/><g/><g/><g/><g/><g/><g/></g></g></svg>