<?xml version="1.0" encoding="UTF-8"?><svg xmlns="http://www.w3.org/2000/svg" viewBox="0 0 40 40" focusable="false" aria-hidden="true"><g id="Solid"><polyline points="0 0 40 0 40 40" fill="none"/></g><g id="Icon_Red" data-name="Icon Red"><path d="m34.506023,4.364279c-2.662415-1.300537-5.976318,1.188782-7.586853,2.64209-2.555298-.619995-5.221741-.674927-6.941223-.674927s-4.385925.054932-6.941223.674927c-1.610535-1.453308-4.924438-3.942627-7.586853-2.64209-2.750671,1.343628-.874023,7.458496.225586,10.408325-.233032,3.314697,1.233948,6.784302,3.197449,9.132141,2.341309,2.799622,7.653015,6,11.105042,6s8.763733-3.200378,11.105042-6c1.963501-2.347839,3.430481-5.817444,3.197449-9.132141,1.099609-2.949829,2.976257-9.064697.225586-10.408325Zm-14.510193,23.921875c-1.895081,0-3.44928-2.33905-3.44928-3.182312,0-.843201,1.536316-2.114014,3.431396-2.114014s3.431396,1.270813,3.431396,2.114014c0,.843262-1.518372,3.182312-3.413513,3.182312Z" fill="#d9304c"/><path d="m22.257977,23.634543c-.050049.240051-.460022,1.920044-.670044,1.920044-.269958,0-.440002-2.119995-.459961-2.400024-.360046-.099976-.75-.159973-1.150024-.159973-.390015,0-.77002.049988-1.119995.149963,0,0-.039978,2.540039-.330017,2.540039-.22998,0-.809998-2.059998-.809998-2.059998-.719971.440002-1.169983,1.019958-1.169983,1.47998,0,.839966,1.549988,3.179993,3.450012,3.179993,1.889954,0,3.409973-2.340027,3.409973-3.179993,0-.450012-.440002-1.030029-1.149963-1.470032Z" fill="#ffaca6"/><g><circle cx="12.727947" cy="16.267939" r="1.25" fill="#ffaca6"/><circle cx="27.227947" cy="16.267939" r="1.25" fill="#ffaca6"/></g><g><path d="m10.089813,36.227413l-.000002-1.991125c0-.277035-.224173-.501207-.501208-.501207s-.501207.224173-.501207.501208l.000002,1.991125c0,.277035.224173.501207.501208.501207s.501207-.224173.501207-.501208Z" fill="#000d6e"/><path d="m8.050665,32.253974c0-.277035-.224173-.501207-.501208-.501207l-1.991125.000002c-.277035,0-.501207.224173-.501207.501208,0,.277035.224173.501207.501208.501207l1.991125-.000002c.277035,0,.501207-.224173.501207-.501208Z" fill="#000d6e"/><path d="m8.731017,33.76347c.195784-.195784.195784-.512955,0-.708739s-.512955-.195784-.708739,0l-1.654375,1.654378c-.097892.097892-.146838.226131-.146838.354369,0,.128239.048946.256477.146838.354369.195784.195784.512955.195784.708739,0l1.654375-1.654378Z" fill="#000d6e"/></g><path d="m22.152624,19.466452c0,.602492-1.00128,1.909091-2.202321,1.909091s-2.147033-1.306598-2.147033-1.909091.973636-1.090909,2.174677-1.090909,2.174677.488417,2.174677,1.090909Z" fill="#ffaca6"/><path d="m35.977947,29.386801c-.999512.307678-5.644592,1.776917-8.573914-1.202881-1.907288-1.940125-3.138306-2.60022-5.09906-3.401184-.094055-.038452-.207825-.072144-.319702-.106201-.135559.453064-.291687.878052-.397339.878052-.130798,0-.237549-.499573-.315735-1.044617-.361511-.060669-.753357-.099121-1.145386-.102722-.455505-.004211-.899902.020569-1.33313.069946-.046936.613708-.127869,1.20752-.266785,1.20752-.116333,0-.326965-.544739-.504761-1.074402-5.998413,1.123352-9.631165,6.901001-9.631165,6.901001l1.749207-.323242-.387939.809875.490479.286255-.020264,1.085938c.863281-1.869629,3.124023-3.829834,3.154602-3.869629.616272-.802368,5.168274-3.634094,7.79126-2.560974,1.564514.639587,3.254883,1.683655,4.385071,2.976318,3.349121,3.830811,9.210632,2.418152,10.424561,1.9151v-2.444153Z" fill="#000d6e"/></g></svg>