<svg xmlns="http://www.w3.org/2000/svg" viewBox="0 0 40 40" focusable="false" aria-hidden="true"><defs><style>.cls-1{fill:none;}.cls-2{fill:#6c2273;}.cls-3{fill:#b8b2ff;}.cls-4{fill:#000d6e;}</style></defs><g id="Solid"><rect class="cls-1" width="40" height="40"/></g><g id="Icon_Purple" data-name="Icon Purple"><path class="cls-2" d="M19.483,13.9765l-.0487-.001a20.9418,20.9418,0,0,1-4.5912-.6231l-.0443-.0107-.0151.0428a19.86,19.86,0,0,0-1.1168,6.1472l-.0015.0506h4.3733a4.994,4.994,0,0,1,1.4443-3.133Z"/><path class="cls-2" d="M15.1185,12.4976l.0565.0136a20.0859,20.0859,0,0,0,4.2568.5667l.0512.001V6.0068h-.05a.1015.1015,0,0,0-.0234.0019l-.0151.003-.0107.0107A19.7833,19.7833,0,0,0,15.14,12.4441Z"/><path class="cls-2" d="M13.9392,26.8929l-.017-.05a20.7388,20.7388,0,0,1-1.1514-6.3147L12.77,20.48H6.0044l.0019.0516a13.8617,13.8617,0,0,0,3.202,8.3941l.0272.0321.0366-.0214A20.82,20.82,0,0,1,13.89,26.9075Z"/><path class="cls-2" d="M12.7683,19.5336a20.7557,20.7557,0,0,1,1.1456-6.3827l.0171-.05-.05-.0147a20.84,20.84,0,0,1-4.6247-2.0357L9.22,11.03l-.0273.0321A13.8517,13.8517,0,0,0,6.002,19.5307L6,19.5823h6.7673Z"/><path class="cls-2" d="M28,25a4.9813,4.9813,0,0,1,2.9092-4.52H27.954a4.97,4.97,0,0,1-1.1416,2.7184,20.6667,20.6667,0,0,1-.8988,3.6351l-.0171.05.05.0146a21.02,21.02,0,0,1,3.2215,1.2765c-.0581-.07-.12-.1369-.1748-.21A4.9572,4.9572,0,0,1,28,25Z"/><path class="cls-2" d="M25.735,15.8265a19.8354,19.8354,0,0,0-.6658-2.439l-.0151-.0429-.0444.0107a20.8763,20.8763,0,0,1-4.5795.62l-.0487.001v1.7784a4.9235,4.9235,0,0,1,5.3535.0716Z"/><path class="cls-2" d="M24.6793,12.5142l.0565-.0137-.0219-.0535a19.788,19.788,0,0,0-4.2378-6.4324L20.4522,6h-.0707v7.08l.0512-.0019A20.0525,20.0525,0,0,0,24.6793,12.5142Z"/><path class="cls-2" d="M27.9564,19.5823H34l-.002-.0516a13.85,13.85,0,0,0-3.2389-8.5226l-.0278-.0331-.0365.0223A20.74,20.74,0,0,1,25.9721,13.09l-.05.0147.0171.05a20.6352,20.6352,0,0,1,.89,3.6668,4.9444,4.9444,0,0,1,1.0863,2.2676A4.9266,4.9266,0,0,1,27.9564,19.5823Z"/><path class="cls-2" d="M14.2706,27.7769l-.0171-.0419-.0434.0127a19.8974,19.8974,0,0,0-4.3,1.86l-.0551.0321.0439.0448a14.0694,14.0694,0,0,0,8.0177,4.1368l.135.0194-.09-.1022A20.7207,20.7207,0,0,1,14.2706,27.7769Z"/><path class="cls-2" d="M14.2,12.2455l.0434.0126.017-.0419a20.7024,20.7024,0,0,1,3.7014-5.9845l.09-.1022-.135.0194a14.0581,14.0581,0,0,0-8.0338,4.1543l-.0438.0457.0545.0312A19.9353,19.9353,0,0,0,14.2,12.2455Z"/><path class="cls-2" d="M25.5934,12.22l.0171.0418.0434-.0127a19.95,19.95,0,0,0,4.406-1.92l.0545-.0321-.0438-.0458a14.0668,14.0668,0,0,0-8.1449-4.127l-.133-.0185.0887.1012A20.7036,20.7036,0,0,1,25.5934,12.22Z"/><path class="cls-2" d="M18.0847,20.9118c-.0269-.1452-.0219-.2875-.0359-.4318h-4.381l.0015.0506a19.8464,19.8464,0,0,0,1.1232,6.079l.0151.0428.0443-.0107a20.8973,20.8973,0,0,1,4.5824-.6211l.0487-.001V23.5453A4.9682,4.9682,0,0,1,18.0847,20.9118Z"/><path class="cls-2" d="M25.6246,27.738l-.0433-.0127-.0171.0419c-.0616.152-.1385.2963-.2035.4466a4.9722,4.9722,0,0,1,3.221,2.8217,13.8729,13.8729,0,0,0,1.4728-1.3l.0444-.0458-.0546-.0321A19.902,19.902,0,0,0,25.6246,27.738Z"/><path class="cls-2" d="M19.0569,32.252A4.9433,4.9433,0,0,1,19.483,30.91V26.9172l-.0512.001a20.0351,20.0351,0,0,0-4.2466.5646l-.0565.0137.0219.0535a19.7408,19.7408,0,0,0,3.9041,6.03A4.9485,4.9485,0,0,1,19.0569,32.252Z"/><path class="cls-2" d="M24.4493,28.0421c.0749-.1682.164-.3282.2344-.4989l.0219-.0545-.0565-.0136a20.0491,20.0491,0,0,0-4.2164-.5569l-.0512-.0019V29.56A4.9789,4.9789,0,0,1,24.4493,28.0421Z"/><path class="cls-2" d="M20.3815,24.2382V26.02l.0487.001a20.968,20.968,0,0,1,4.5532.6133l.0443.0108.0151-.0429a19.7568,19.7568,0,0,0,.67-2.4062,4.9415,4.9415,0,0,1-5.3309.0426Z"/><path class="cls-3" d="M33,20a4.9716,4.9716,0,0,0-1.8548.3646c-.0818.0327-.1564.0785-.236.1154a4.95,4.95,0,0,0-1.9162,7.4841c.0544.0733.1167.14.1748.21A4.99,4.99,0,1,0,33,20Zm.34,3.6484a.504.504,0,0,0-.5322.5528v.05H34.02v.7353H32.8076v.2451H34.02v.7354H32.8076v.3848h1.8916v1.0156h-3.06v-1.4h-.4912v-.7354h.4912v-.2451h-.4912V24.251h.4912v-.05a1.5638,1.5638,0,0,1,1.6738-1.5684,1.5046,1.5046,0,0,1,1.54.8545l-1.0361.4551A.4609.4609,0,0,0,33.34,23.6484Z"/><path class="cls-4" d="M33.8164,23.9424l1.0361-.4551a1.5046,1.5046,0,0,0-1.54-.8545,1.5638,1.5638,0,0,0-1.6738,1.5684v.05h-.4912v.7353h.4912v.2451h-.4912v.7354h.4912v1.4h3.06V26.3516H32.8076v-.3848H34.02v-.7354H32.8076v-.2451H34.02V24.251H32.8076v-.05a.504.504,0,0,1,.5322-.5528A.4609.4609,0,0,1,33.8164,23.9424Z"/><path class="cls-3" d="M25.3607,28.2138a4.9324,4.9324,0,0,0-.6128-.1569c-.1007-.0152-.1984-.0057-.2986-.0148a5.0194,5.0194,0,1,0,.9114.1717Zm-1.5378,6.2036a1.0811,1.0811,0,0,0,1.1435-.4433l.89.8144a2.3249,2.3249,0,0,1-2.1709.7266,2.4045,2.4045,0,0,1-2.0733-1.8858l-.59-.0888.18-.71.373.0566.0186-.124c.0068-.042.0117-.0761.0176-.1181l-.3379-.0518.1777-.7168.417.0635a2.4032,2.4032,0,0,1,2.5459-1.1944,2.3369,2.3369,0,0,1,1.8516,1.336l-1.09.5146a1.09,1.09,0,0,0-.9551-.7607,1.23,1.23,0,0,0-1.0517.3008l1.1006.167-.1719.7177-1.3008-.1963a.5994.5994,0,0,0-.0264.1163.6723.6723,0,0,0-.0107.1259l1.2676.1914-.1856.709-.9287-.1406A1.22,1.22,0,0,0,23.8229,34.4174Z"/><path class="cls-4" d="M24.027,33.2582l-1.2676-.1914a.6723.6723,0,0,1,.0107-.1259.5994.5994,0,0,1,.0264-.1163l1.3008.1963.1719-.7177-1.1006-.167a1.23,1.23,0,0,1,1.0517-.3008,1.09,1.09,0,0,1,.9551.7607l1.09-.5146a2.3369,2.3369,0,0,0-1.8516-1.336A2.4032,2.4032,0,0,0,21.8678,31.94l-.417-.0635-.1777.7168.3379.0518c-.0059.042-.0108.0761-.0176.1181l-.0186.124-.373-.0566-.18.71.59.0888a2.4045,2.4045,0,0,0,2.0733,1.8858,2.3249,2.3249,0,0,0,2.1709-.7266l-.89-.8144a1.0811,1.0811,0,0,1-1.1435.4433,1.22,1.22,0,0,1-.91-.5908l.9287.1406Z"/><path class="cls-3" d="M27.9564,19.5823a4.9266,4.9266,0,0,0-.0411-.4941A4.9858,4.9858,0,0,0,18.0488,20.48c.014.1443.009.2866.0359.4318a4.9858,4.9858,0,0,0,9.8717-1.3295ZM23.8,22.3759l.12.6474-.9228.1709-.1162-.626a1.6641,1.6641,0,0,1-1.5557-.9013l.9678-.5791a.8252.8252,0,0,0,.91.4931c.3379-.0625.4815-.2461.4366-.4941-.1553-.833-2.2471-.0527-2.5537-1.7051a1.3011,1.3011,0,0,1,.9277-1.4892l-.1182-.6338.9229-.1709.1191.64a1.4285,1.4285,0,0,1,1.31.7979l-.9668.5918a.62.62,0,0,0-.7041-.418c-.31.0576-.4268.2363-.3838.4629.1445.7793,2.2383-.0654,2.5566,1.6494A1.3955,1.3955,0,0,1,23.8,22.3759Z"/><path class="cls-4" d="M22.1922,19.162c-.043-.2266.0742-.4053.3838-.4629a.62.62,0,0,1,.7041.418l.9668-.5918a1.4285,1.4285,0,0,0-1.31-.7979l-.1191-.64-.9229.1709.1182.6338a1.3011,1.3011,0,0,0-.9277,1.4892c.3066,1.6524,2.3984.8721,2.5537,1.7051.0449.248-.0987.4316-.4366.4941a.8252.8252,0,0,1-.91-.4931l-.9678.5791a1.6641,1.6641,0,0,0,1.5557.9013l.1162.626.9228-.1709-.12-.6474a1.3955,1.3955,0,0,0,.9492-1.5645C24.4305,19.0966,22.3367,19.9413,22.1922,19.162Z"/></g></svg>