<?xml version="1.0" encoding="iso-8859-1"?><!--Generator: Adobe Illustrator 26.2.1, SVG Export Plug-In . SVG Version: 6.00 Build 0)--><svg version="1.1" xmlns="http://www.w3.org/2000/svg" xmlns:xlink="http://www.w3.org/1999/xlink" x="0px" y="0px" viewBox="0 0 40 40" xml:space="preserve" focusable="false" aria-hidden="true" enable-background="new 0 0 40 40"><g id="Solid"><rect width="40" height="40" fill="none"/></g><g id="Icon_Green"><g><path d="M16.667,21.981c-0.021-0.3-0.04-0.475-0.04-0.475l0.009-1.354c1.109-0.733,1.944-2.02,2.279-3.565
			c0.041,0.007,0.081,0.017,0.123,0.017c0.529,0,0.957-0.589,0.957-1.316c0-0.599-0.293-1.098-0.691-1.258v0.222
			c0,0.078-0.03,0.146-0.074,0.204c-0.015,0.02-0.031,0.039-0.05,0.056c-0.031,0.027-0.066,0.048-0.106,0.062
			c-0.036,0.013-0.074,0.023-0.115,0.023c-0.19,0-0.345-0.154-0.345-0.345v-0.139v-0.988c0-0.05-0.004-0.093-0.005-0.141
			c-0.037-0.064-0.08-0.128-0.122-0.192c-0.234-0.362-0.545-0.72-0.952-1.037c-0.705,0.3-1.629,0.455-2.722,0.087
			c-0.446-0.15-0.804-0.314-1.1-0.481c-0.278-0.157-0.496-0.317-0.668-0.474c-0.66,0.11-1.205,0.289-1.647,0.474
			c-0.374,0.156-0.678,0.314-0.919,0.432c-0.058,0.228-0.112,0.509-0.139,0.853c-0.012,0.15-0.019,0.309-0.019,0.48v0.988v0.139
			c0,0.19-0.154,0.345-0.345,0.345c-0.02,0-0.037-0.008-0.056-0.011c-0.163-0.028-0.289-0.163-0.289-0.333V14.03
			c-0.398,0.159-0.691,0.659-0.691,1.258c0,0.727,0.429,1.316,0.957,1.316c0.064,0,0.127-0.009,0.188-0.026
			c0.328,1.528,1.145,2.807,2.234,3.546h-0.018l0.007,1.382c0,0-0.02,0.181-0.041,0.492c0.589,0.656,1.206,1.059,2.182,1.059
			C15.448,23.057,16.049,22.651,16.667,21.981z" fill="#94E3D4"/><path d="M9.921,14.586c0.019,0.003,0.036,0.011,0.056,0.011c0.19,0,0.345-0.154,0.345-0.345v-0.139v-0.988
			c0-0.171,0.008-0.33,0.019-0.48c0.027-0.344,0.081-0.625,0.139-0.853c0.242-0.118,0.545-0.275,0.919-0.432
			c0.442-0.185,0.987-0.364,1.647-0.474c0.171,0.157,0.39,0.317,0.668,0.474c0.296,0.167,0.654,0.331,1.1,0.481
			c1.093,0.369,2.017,0.213,2.722-0.087c0.407,0.317,0.718,0.675,0.952,1.037c0.042,0.064,0.085,0.128,0.122,0.192
			c0.001,0.048,0.005,0.091,0.005,0.141v0.988v0.139c0,0.19,0.154,0.345,0.345,0.345c0.041,0,0.078-0.01,0.115-0.023
			c0.04-0.014,0.074-0.035,0.106-0.062c0.019-0.017,0.035-0.035,0.05-0.056c0.044-0.058,0.074-0.126,0.074-0.204V14.03v-1.268
			c0.03-0.893,0.047-1.849,0-2.31c-0.1-0.992-1.958-3.454-4.836-3.454c-2.878,0-4.836,2.172-4.836,4.145v2.887v0.222
			C9.632,14.423,9.758,14.558,9.921,14.586z" fill="#000D6E"/><path d="M23.638,25.772c-0.334-1.957-1.645-2.511-3.44-3.024c-0.044-0.027-0.106-0.027-0.141-0.044
			c-0.964-0.265-2.45-0.539-3.387-0.725c-0.001,0.001-0.002,0.002-0.003,0.003c-0.618,0.67-1.219,1.076-2.217,1.076
			c-0.975,0-1.593-0.403-2.182-1.059c-0.004-0.004-0.008-0.007-0.011-0.011c-0.531,0.106-1.22,0.239-1.901,0.38l5.3,10.822
			l0.203-0.072l1.743-0.62c0.231-0.086,0.484,0.037,0.566,0.268c0.082,0.23-0.038,0.483-0.268,0.565l-0.394,0.14h2.14
			c0.979,0,1.773,0.792,1.773,1.769c0,0.934-0.728,1.697-1.648,1.763h5.256L23.638,25.772z" fill="#1B5951"/><path d="M5.297,25.772l-0.982,7.8l3.352-10.479C6.341,23.587,5.534,24.022,5.297,25.772z" fill="#1B5951"/><path d="M21.418,35.237c0-0.977-0.794-1.769-1.773-1.769h-2.14l0.394-0.14
			c0.231-0.082,0.351-0.335,0.268-0.565c-0.082-0.231-0.335-0.354-0.566-0.268l-1.743,0.62l-0.203,0.072l1.863,3.805L17.523,37
			h2.123c0.043,0,0.083-0.004,0.125-0.007C20.69,36.928,21.418,36.171,21.418,35.237z" fill="#94E3D4"/><path d="M15.655,33.189l-5.3-10.822c-0.522,0.106-1.035,0.221-1.45,0.336
			c-0.424,0.115-0.849,0.239-1.238,0.389L4.316,33.571l-0.018,0.071c-0.08,0.283-0.115,0.575-0.097,0.849
			c0.062,1.256,1.017,2.343,2.308,2.503C6.624,37.011,6.739,37,6.854,37h10.674l-0.005,0.006l-0.004-0.013L15.655,33.189z" fill="#000D6E"/></g><path d="M35.804,37v-3.551c0-1.158-0.512-1.86-1.444-2.342c-0.373-0.193-0.807-0.354-1.313-0.489
		l-2.106-0.489c0,0.001-0.001,0.001-0.002,0.002c-0.398,0.588-1.048,0.974-1.814,0.974c-0.129,0-0.249-0.026-0.37-0.047
		c-0.072-0.012-0.146-0.017-0.216-0.037c-0.14-0.039-0.272-0.094-0.398-0.158c-0.035-0.018-0.069-0.035-0.103-0.054
		c-0.289-0.169-0.54-0.399-0.729-0.68l-0.003,0.001l-2.103,0.488c-0.531,0.142-0.983,0.312-1.367,0.519
		c-0.896,0.481-1.389,1.177-1.389,2.312V37H35.804z" fill="#94E3D4"/><path d="M32.802,26.834c0.152,0,0.286-0.08,0.405-0.189c-0.12,0.109-0.254,0.188-0.408,0.188
		C32.8,26.833,32.801,26.834,32.802,26.834z" fill="none"/><path d="M32.311,27.228c-0.246,0.472-0.566,0.888-0.95,1.219C31.746,28.117,32.066,27.702,32.311,27.228z" fill="none"/><path d="M28.142,30.863c-0.035-0.017-0.069-0.035-0.103-0.054C28.073,30.828,28.107,30.845,28.142,30.863z" fill="none"/><path d="M33.315,24.92c-0.135-0.175-0.308-0.29-0.504-0.294c-0.001-0.147-0.003-0.319-0.004-0.496
		c-0.001,0-0.002-0.001-0.003-0.001c0.002,0.179,0.004,0.352,0.006,0.501C33.005,24.63,33.179,24.746,33.315,24.92z" fill="none"/><path d="M28.755,31.058c-0.072-0.012-0.146-0.018-0.216-0.037C28.609,31.041,28.683,31.045,28.755,31.058z" fill="none"/><path d="M32.533,26.756c0.078,0.042,0.161,0.068,0.248,0.072C32.697,26.824,32.606,26.797,32.533,26.756
		C32.533,26.756,32.533,26.756,32.533,26.756z" fill="none"/><path d="M30.939,30.058v-0.126L30.917,29.6l-0.055-0.786c0.175-0.107,0.341-0.232,0.499-0.368
		c0.384-0.331,0.704-0.746,0.95-1.219c0.08-0.153,0.16-0.306,0.222-0.472c0,0,0,0,0,0c0.072,0.041,0.164,0.068,0.248,0.072
		c0.006,0,0.01,0.004,0.016,0.005c0.001,0,0.001,0.001,0.002,0.001c0.154,0,0.288-0.08,0.408-0.188
		c0.216-0.197,0.367-0.527,0.367-0.919c0-0.32-0.103-0.604-0.259-0.806c-0.135-0.175-0.31-0.29-0.505-0.29
		c-0.002-0.149-0.004-0.322-0.006-0.501c-0.993-0.287-3.051-0.904-4.27-1.544c-1.427-0.749-2.457-0.149-3.067,0.143l-0.016,0.017
		c0.001,0.127,0.002,0.295,0.003,0.475c0,0.002,0,0.005,0,0.007c0.002,0.328,0.004,0.707,0.006,1.05
		c0,0.121,0.001,0.237,0.001,0.342c-0.216,0-0.409,0.125-0.549,0.325c-0.14,0.201-0.225,0.477-0.225,0.782
		c0,0.374,0.138,0.69,0.338,0.891c0.003,0.003,0.007,0.005,0.011,0.008c0.123,0.121,0.264,0.208,0.426,0.208
		c0.1,0,0.199-0.033,0.288-0.089c0.075,0.206,0.168,0.4,0.27,0.586c0.006,0.012,0.011,0.025,0.017,0.037
		c0.013,0.022,0.03,0.041,0.043,0.063c0.328,0.559,0.768,1.023,1.287,1.35l-0.055,1.317l-0.002,0.031l0.003-0.001
		c0.19,0.281,0.44,0.511,0.729,0.68c0.034,0.019,0.068,0.037,0.103,0.054c0.126,0.065,0.258,0.12,0.398,0.158
		c0.069,0.019,0.144,0.025,0.216,0.037c0.121,0.021,0.241,0.047,0.37,0.047c0.766,0,1.416-0.385,1.814-0.974v-0.022V30.058z" fill="#94E3D4"/><path d="M25.204,30.618l2.103-0.488l0.002,0l0-0.031l0.055-1.317c-0.519-0.327-0.959-0.791-1.287-1.35
		c-0.013-0.022-0.03-0.041-0.043-0.063c-0.007-0.012-0.011-0.025-0.017-0.037c-0.102-0.185-0.194-0.378-0.268-0.582
		c-0.09,0.053-0.188,0.085-0.292,0.085c-0.16,0-0.301-0.088-0.423-0.209c-0.003-0.003-0.007-0.005-0.011-0.008
		c-0.2-0.201-0.338-0.516-0.338-0.891c0-0.304,0.086-0.581,0.226-0.782c0.14-0.201,0.333-0.325,0.549-0.325
		c0-0.105,0-0.221-0.001-0.342c-0.003-0.342-0.006-0.719-0.009-1.047c0-0.003,0-0.007,0-0.01c-0.002-0.178-0.003-0.344-0.004-0.471
		l0.004-0.004l0.016-0.017c0.61-0.292,1.641-0.892,3.067-0.143c1.218,0.64,3.276,1.257,4.27,1.544c0.001,0,0.002,0.001,0.003,0.001
		c0.002,0.177,0.003,0.349,0.004,0.496c0.195,0.004,0.369,0.119,0.504,0.294c0.156,0.202,0.259,0.486,0.259,0.806
		c0,0.392-0.151,0.722-0.367,0.919c-0.119,0.109-0.253,0.189-0.405,0.189c-0.001,0-0.002-0.001-0.003-0.001
		c-0.001,0-0.001-0.001-0.002-0.001c-0.006,0-0.01-0.004-0.016-0.005c-0.087-0.004-0.17-0.03-0.248-0.072
		c-0.062,0.166-0.142,0.319-0.222,0.472c-0.245,0.474-0.565,0.889-0.95,1.219c-0.158,0.136-0.324,0.26-0.499,0.368l0.055,0.786
		l0.022,0.332v0.126v0.051v0.021c0.001-0.001,0.001-0.001,0.002-0.002l2.106,0.489c0.506,0.135,0.94,0.296,1.313,0.489v-6.235
		c0-0.163-0.025-0.316-0.036-0.475c0,0,0,0,0,0c-0.043-0.629-0.16-1.227-0.354-1.776c-0.02-0.058-0.047-0.111-0.069-0.168
		c-0.082-0.212-0.164-0.425-0.266-0.621c-0.133-0.261-0.282-0.508-0.449-0.734c-0.02-0.037-0.045-0.072-0.069-0.108
		c-0.027-0.041-0.052-0.082-0.078-0.123c-0.716-1.117-2.174-2.031-3.873-2.031c-0.042,0-0.08,0.012-0.122,0.013
		c-0.581,0.016-1.127,0.14-1.627,0.341c-0.65,0.261-1.222,0.639-1.659,1.095c-0.251,0.213-0.48,0.465-0.691,0.74
		c-0.016,0.021-0.033,0.039-0.049,0.06c-0.205,0.276-0.384,0.582-0.541,0.909c-0.011,0.022-0.022,0.043-0.032,0.065
		c-0.131,0.281-0.229,0.586-0.319,0.897c-0.018,0.063-0.048,0.117-0.064,0.181c-0.003,0.011-0.006,0.022-0.009,0.034
		c-0.05,0.196-0.065,0.41-0.097,0.615c-0.032,0.204-0.082,0.399-0.097,0.611c0,0,0,0,0,0c-0.011,0.158-0.024,0.314-0.024,0.475
		v1.738v4.527C24.221,30.93,24.673,30.76,25.204,30.618z" fill="#000D6E"/><path d="M33.356,37v-6.294c-0.103-0.029-0.206-0.059-0.31-0.088l-2.108-0.486
		c-0.398,0.59-1.047,0.973-1.813,0.973c-0.767,0-1.415-0.383-1.813-0.973l-2.108,0.486c-0.103,0.03-0.206,0.059-0.31,0.088V37
		H33.356z" fill="#1B5951"/></g></svg>