<?xml version="1.0" encoding="UTF-8"?><svg xmlns="http://www.w3.org/2000/svg" viewBox="0 0 40 40" focusable="false" aria-hidden="true"><g id="Solid"><rect width="40" height="40" fill="none"/></g><g id="Icon_Red"><path d="M22.5,8h-5c-.27612,0-.5,.22382-.5,.5,0,.27612,.22388,.5,.5,.5h5c.27612,0,.5-.22388,.5-.5,0-.27618-.22388-.5-.5-.5Z" fill="none"/><path d="M13,31v1.97412c0,.56659,.45929,1.02588,1.02588,1.02588h11.94824c.56659,0,1.02588-.45929,1.02588-1.02588v-1.97412H13Z" fill="#d9304c"/><rect x="13" y="10" width="14" height="21" fill="#ffaca6"/><path d="M26.06427,7H13.93573c-.51678,0-.93573,.41895-.93573,.93573v2.06427h14v-2.06427c0-.51678-.41895-.93573-.93573-.93573Zm-3.56427,2h-5c-.27612,0-.5-.22388-.5-.5,0-.27618,.22388-.5,.5-.5h5c.27612,0,.5,.22382,.5,.5,0,.27612-.22388,.5-.5,.5Zm1.9884,0c-.27612,0-.5-.22388-.5-.5,0-.27618,.22388-.5,.5-.5,.27618,0,.5,.22382,.5,.5,0,.27612-.22382,.5-.5,.5Z" fill="#d9304c"/><circle cx="24.4884" cy="8.5" r=".5" fill="#ffaca6"/><circle cx="20" cy="31" r="1" fill="#000d6e"/></g></svg>