<svg xmlns="http://www.w3.org/2000/svg" viewBox="0 0 40 40" focusable="false" aria-hidden="true"><g id="Solid"><rect width="40" height="40" fill="none"/></g><g id="Icon_Purple" data-name="Icon Purple"><path d="M20.0051,15.0368l-4.2726,4.2561L20,15.0419l4.2675,4.251a1.0017,1.0017,0,0,0,.7149.2919,1.0021,1.0021,0,0,1-.7049-.2919Z" fill="none"/><path d="M25.9525,14.9982c-.6994-.0008-1.8313-.0014-3.1487-.0019l2.8935,2.8824a1.0056,1.0056,0,0,1-1.43,1.4142L20,15.0419l-4.2675,4.251a1.0019,1.0019,0,1,1-1.42-1.4142l2.8934-2.8824c-1.3218.0005-2.4575.0011-3.1587.0019-.4466,0-9.5429,12.9987-3.8723,18.5526A4.8457,4.8457,0,0,0,13.5628,35H26.4372a4.8457,4.8457,0,0,0,3.3876-1.4492C35.4954,27.9969,26.3991,14.9987,25.9525,14.9982ZM15.2516,29.0861a1.3089,1.3089,0,0,0,1.3592-1.0522l1.0449.4237a2.386,2.386,0,0,1-2.3894,1.6588,2.6343,2.6343,0,0,1,.0073-5.2684,2.3969,2.3969,0,0,1,2.3821,1.6587l-1.0449.4238a1.3234,1.3234,0,0,0-1.3664-1.0523,1.6086,1.6086,0,0,0,.0072,3.2079Zm7.3874.9353H21.55V27.9169H19.6138v2.1045H18.5251V24.9429h1.0887v2.0022H21.55V24.9429H22.639Zm4.6034-4.1358H24.9553v1.1253H26.972v.9426H24.9553v2.0679H23.8665V24.9429h3.3759Z" fill="#b8b2ff"/><path d="M26.756,7.1644A1,1,0,0,0,25.77,6H14.1305a1,1,0,0,0-.9864,1.1644L13.95,12h12Z" fill="#b8b2ff"/><path d="M14.3128,19.2929a1.0067,1.0067,0,0,0,1.42,0l4.2726-4.2561,4.2724,4.2561a1.002,1.002,0,1,0,1.42-1.4142l-2.8935-2.8824-1-.9963H25.95V12h-12v2h4.2564l-3.8936,3.8787A.9973.9973,0,0,0,14.3128,19.2929Z" fill="#6c2273"/><path d="M15.2444,25.8782a1.3234,1.3234,0,0,1,1.3664,1.0523l1.0449-.4238a2.3969,2.3969,0,0,0-2.3821-1.6587,2.6343,2.6343,0,0,0-.0073,5.2684,2.386,2.386,0,0,0,2.3894-1.6588l-1.0449-.4237a1.3089,1.3089,0,0,1-1.3592,1.0522,1.6086,1.6086,0,0,1-.0072-3.2079Z" fill="#000d6e"/><polygon points="21.55 26.945 19.614 26.945 19.614 24.943 18.525 24.943 18.525 30.021 19.614 30.021 19.614 27.917 21.55 27.917 21.55 30.021 22.639 30.021 22.639 24.943 21.55 24.943 21.55 26.945" fill="#000d6e"/><polygon points="23.867 30.021 24.955 30.021 24.955 27.953 26.972 27.953 26.972 27.011 24.955 27.011 24.955 25.886 27.242 25.886 27.242 24.943 23.867 24.943 23.867 30.021" fill="#000d6e"/></g></svg>