<?xml version="1.0" encoding="iso-8859-1"?><!--Generator: Adobe Illustrator 26.2.1, SVG Export Plug-In . SVG Version: 6.00 Build 0)--><svg version="1.1" xmlns="http://www.w3.org/2000/svg" xmlns:xlink="http://www.w3.org/1999/xlink" x="0px" y="0px" viewBox="0 0 40 40" xml:space="preserve" focusable="false" aria-hidden="true" enable-background="new 0 0 40 40"><g id="Solid"><rect width="40" height="40" fill="none"/></g><g id="Icon_Green"><g><path d="M11.005,25.076c-1.657,0-3,1.343-3,3s1.343,1.919,3,1.919s3-0.262,3-1.919
			S12.661,25.076,11.005,25.076z" fill="#94E3D4"/></g><g><path d="M11.005,26.576c-0.828,0-1.5,0.672-1.5,1.5s0.672,1.4,1.5,1.4s1.5-0.572,1.5-1.4
			S11.833,26.576,11.005,26.576z" fill="#000D6E"/></g><g><path d="M31.005,24c-1.657,0-3,1.343-3,3s1.343,3,3,3c1.657,0,3-1.343,3-3S32.661,24,31.005,24z
			 M31.005,28.5c-0.828,0-1.5-0.672-1.5-1.5s0.672-1.5,1.5-1.5s1.5,0.672,1.5,1.5S31.833,28.5,31.005,28.5z" fill="#94E3D4"/></g><g><path d="M31.005,25.5c-0.828,0-1.5,0.672-1.5,1.5s0.672,1.5,1.5,1.5s1.5-0.672,1.5-1.5
			S31.833,25.5,31.005,25.5z" fill="#000D6E"/></g><g><path d="M15.409,16.666c0.484-0.438,1.115-0.692,1.765-0.716l12.062-0.448l1.621,2.972l1.749-0.065
			l-1.908-3.422c-0.022-0.049-0.053-0.088-0.085-0.127c-0.011-0.02-0.021-0.039-0.032-0.049c-0.137-0.175-0.312-0.319-0.513-0.341
			c-0.06-0.008-0.23,0.009-0.23,0.009l-12.701,0.472c-0.889,0.033-1.737,0.375-2.405,0.98L11.29,19.2l1.519-0.056L15.409,16.666z" fill="#94E3D4"/><g><path d="M32.7,20.93c0.01,0.282,0.238,0.496,0.518,0.485l2.707-0.101l-0.207-1.002l-2.537,0.094
				C32.901,20.418,32.69,20.648,32.7,20.93z" fill="#94E3D4"/><path d="M19.26,20.896l-1.998,0.074c-0.276,0.01-0.491,0.244-0.481,0.523
				c0.01,0.279,0.242,0.496,0.518,0.485l1.998-0.074c0.276-0.01,0.491-0.244,0.481-0.523S19.536,20.885,19.26,20.896z" fill="#94E3D4"/><path d="M30.304,20.485l-1.998,0.074c-0.276,0.01-0.491,0.244-0.481,0.523
				c0.01,0.279,0.242,0.496,0.518,0.485l1.998-0.074c0.276-0.01,0.491-0.244,0.481-0.523S30.58,20.475,30.304,20.485z" fill="#94E3D4"/></g></g><g><path d="M5.201,24.552l1.809-1.275l-0.617-0.858l-1.633,0.912c0,0-0.921,0.519-0.868,1.96l0.081,2.178
			c0.021,0.555,0.487,0.991,1.036,0.971l1.978-0.073l0.021-0.001c-0.012-0.321,0.025-0.63,0.085-0.932L5.201,24.552z" fill="#1B5951"/><path d="M35.926,21.315l-2.707,0.101c-0.28,0.01-0.508-0.203-0.518-0.486
			c-0.01-0.282,0.201-0.512,0.481-0.523l2.537-0.094l0-0.01c-0.021-0.554-0.487-0.991-1.036-0.971l-11.189,0.415l-13.197,0.49
			l-3.025,1.69l1.14,1.585l-1.843,1.299l0.958,1.461c0.66-1.176,1.887-1.998,3.33-2.052c2.204-0.082,4.064,1.645,4.146,3.849
			l8.473-0.315l3.452-0.128l0.296-0.003c-0.248-2.388,0.997-4.259,3.56-4.417c2.69-0.166,4.18,1.821,3.932,4.12l1.373-0.041
			c0.5-0.019,0.884-0.437,0.865-0.941L35.926,21.315z M19.297,21.904l-1.998,0.074c-0.276,0.01-0.508-0.207-0.518-0.486
			c-0.01-0.279,0.205-0.512,0.481-0.523l1.998-0.074c0.276-0.01,0.508,0.207,0.518,0.486C19.788,21.66,19.573,21.893,19.297,21.904z
			 M30.341,21.494l-1.998,0.074c-0.276,0.01-0.508-0.207-0.518-0.485c-0.01-0.279,0.205-0.512,0.481-0.523l1.998-0.074
			c0.276-0.01,0.508,0.207,0.518,0.486C30.833,21.25,30.618,21.483,30.341,21.494z" fill="#1B5951"/></g></g></svg>