<svg xmlns="http://www.w3.org/2000/svg" viewBox="0 0 40 40" focusable="false" aria-hidden="true"><g id="Solid"><rect width="40" height="40" fill="none"/></g><g id="Icon_Purple" data-name="Icon Purple"><path d="M4,32c.1515,0,.2918-.0077.4243-.0209C4.288,31.99,4.15,32,4,32Z" fill="none"/><path d="M8.9129,31.0209c.1139-.0092.2309-.0158.3543-.0174v0C9.1435,31.0052,9.0236,31.01,8.9129,31.0209Z" fill="none"/><path d="M30.2456,30.0209C30.3818,30.01,30.52,30,30.67,30A4.2193,4.2193,0,0,0,30.2456,30.0209Z" fill="none"/><path d="M30.67,30c.15,0,.2874.01.4234.0209A4.2121,4.2121,0,0,0,30.67,30Z" fill="none"/><path d="M4,33c.1515,0,.2918-.0077.4243-.0209C4.288,32.99,4.15,33,4,33Z" fill="none"/><path d="M8.9129,30.0209C9.0493,30.01,9.1872,30,9.3374,30h0A4.2331,4.2331,0,0,0,8.9129,30.0209Z" fill="none"/><path d="M30.2456,31.0209C30.3818,31.01,30.52,31,30.67,31A4.2193,4.2193,0,0,0,30.2456,31.0209Z" fill="none"/><path d="M30.67,31c.15,0,.2874.01.4234.0209A4.2121,4.2121,0,0,0,30.67,31Z" fill="none"/><path d="M36,32c-.15,0-.2875-.01-.4236-.0209A4.2147,4.2147,0,0,0,36,32Z" fill="none"/><path d="M36,33c-.15,0-.2875-.01-.4236-.0209A4.2147,4.2147,0,0,0,36,33Z" fill="none"/><path d="M19.5842,31.0209c.1363-.0111.2741-.0209.4241-.0209A4.2249,4.2249,0,0,0,19.5842,31.0209Z" fill="#b8b2ff"/><path d="M20.0083,31c.15,0,.2874.01.4235.0209A4.2126,4.2126,0,0,0,20.0083,31Z" fill="#b8b2ff"/><path d="M24.914,32.9791A4.2106,4.2106,0,0,0,25.3374,33C25.1876,33,25.05,32.99,24.914,32.9791Z" fill="#b8b2ff"/><path d="M25.3374,33a4.2188,4.2188,0,0,0,.4238-.0209C25.6251,32.99,25.4874,33,25.3374,33Z" fill="#b8b2ff"/><path d="M14.25,32.9791A4.2331,4.2331,0,0,0,14.6748,33C14.5246,33,14.3867,32.99,14.25,32.9791Z" fill="#b8b2ff"/><path d="M14.25,31.9791A4.2331,4.2331,0,0,0,14.6748,32C14.5246,32,14.3867,31.99,14.25,31.9791Z" fill="#b8b2ff"/><path d="M19.5842,30.0209c.1363-.0111.2741-.0209.4241-.0209A4.2249,4.2249,0,0,0,19.5842,30.0209Z" fill="#b8b2ff"/><path d="M9.3374,30c.15,0,.288.01.4243.0209C9.6292,30.0077,9.4889,30,9.3374,30Z" fill="#b8b2ff"/><path d="M14.6748,32a4.2208,4.2208,0,0,0,.4239-.0209C14.9625,31.99,14.8248,32,14.6748,32Z" fill="#b8b2ff"/><path d="M14.6748,33a4.2208,4.2208,0,0,0,.4239-.0209C14.9625,32.99,14.8248,33,14.6748,33Z" fill="#b8b2ff"/><path d="M9.2672,31.0032v0c.0244,0,.0454-.0035.07-.0035C9.3125,31,9.2916,31.0029,9.2672,31.0032Z" fill="#b8b2ff"/><path d="M9.3374,31c.15,0,.288.01.4243.0209C9.6292,31.0077,9.4889,31,9.3374,31Z" fill="#b8b2ff"/><path d="M25.3374,32a4.2188,4.2188,0,0,0,.4238-.0209C25.6251,31.99,25.4874,32,25.3374,32Z" fill="#b8b2ff"/><path d="M20.0083,30c.15,0,.2874.01.4235.0209A4.2126,4.2126,0,0,0,20.0083,30Z" fill="#b8b2ff"/><path d="M24.914,31.9791A4.2106,4.2106,0,0,0,25.3374,32C25.1876,32,25.05,31.99,24.914,31.9791Z" fill="#b8b2ff"/><path d="M14.6748,31a3.4443,3.4443,0,0,0,2.3667-.9,4.548,4.548,0,0,1,5.9317.001,3.5582,3.5582,0,0,0,4.73-.001A5.0052,5.0052,0,0,1,29.445,29.16l.74-10.5852L21.4019,9.2611a.8945.8945,0,0,0-1.1889-.07L10.2338,17.18,9.4071,29.0034A4.4408,4.4408,0,0,1,12.3057,30.1,3.449,3.449,0,0,0,14.6748,31Z" fill="#b8b2ff"/><path d="M8.5649,17.2347l11.033-8.832a1.8983,1.8983,0,0,1,2.5318.1721L31.83,18.8616l.3636-.3427.3637-.3427,0,0L22.8529,7.8844a2.9,2.9,0,0,0-3.875-.2662L7.94,16.4547l0,0,.3124.39Z" fill="#000d6e"/><polygon points="29.955 7.535 25.964 7.256 25.804 9.556 29.537 13.515 29.955 7.535" fill="#6c2273"/><path d="M35.5764,31.9791a4.4841,4.4841,0,0,1-2.5422-1.08,3.54,3.54,0,0,0-1.9413-.8785C30.9569,30.01,30.8193,30,30.67,30s-.2877.01-.4239.0209a3.0155,3.0155,0,0,0-.8761.2173,4.9186,4.9186,0,0,0-1.0663.6622,4.4886,4.4886,0,0,1-2.542,1.0787,4.3032,4.3032,0,0,1-.8472,0,4.4807,4.4807,0,0,1-2.5414-1.08,3.5389,3.5389,0,0,0-1.9408-.8785C20.2957,30.01,20.1582,30,20.0083,30s-.2878.01-.4241.0209a3.54,3.54,0,0,0-1.9431.88,4.49,4.49,0,0,1-2.5424,1.0787,4.3154,4.3154,0,0,1-.8484,0A4.4967,4.4967,0,0,1,11.7061,30.9a3.5446,3.5446,0,0,0-1.9444-.88C9.6254,30.01,9.4875,30,9.3374,30s-.2881.01-.4245.0209a3.5443,3.5443,0,0,0-1.9446.88,4.497,4.497,0,0,1-2.544,1.0787C4.2918,31.9923,4.1515,32,4,32v1c.15,0,.288-.01.4243-.0209A4.497,4.497,0,0,0,6.9683,31.9a3.5443,3.5443,0,0,1,1.9446-.88c.1107-.0111.2306-.0157.3543-.0177.0244,0,.0453-.0032.07-.0032.1515,0,.2918.0077.4243.0209a3.5446,3.5446,0,0,1,1.9444.88A4.4967,4.4967,0,0,0,14.25,32.9791c.1364.011.2743.0209.4245.0209s.2877-.01.4239-.0209A4.49,4.49,0,0,0,17.6411,31.9a3.54,3.54,0,0,1,1.9431-.88,4.3073,4.3073,0,0,1,.8476,0,3.5389,3.5389,0,0,1,1.9408.8785,4.4807,4.4807,0,0,0,2.5414,1.08c.136.011.2736.0209.4234.0209s.2877-.01.4238-.0209A4.4886,4.4886,0,0,0,28.3032,31.9a5.1793,5.1793,0,0,1,.9945-.6343,3.0093,3.0093,0,0,1,.9479-.2452,4.3042,4.3042,0,0,1,.8473,0,3.54,3.54,0,0,1,1.9413.8785,4.4841,4.4841,0,0,0,2.5422,1.08C35.7125,32.99,35.85,33,36,33V32A4.2147,4.2147,0,0,1,35.5764,31.9791Z" fill="#6c2273"/></g></svg>