<?xml version="1.0" encoding="iso-8859-1"?><!--Generator: Adobe Illustrator 26.3.1, SVG Export Plug-In . SVG Version: 6.00 Build 0)--><svg version="1.1" xmlns="http://www.w3.org/2000/svg" xmlns:xlink="http://www.w3.org/1999/xlink" x="0px" y="0px" viewBox="0 0 40 40" xml:space="preserve" focusable="false" aria-hidden="true" enable-background="new 0 0 40 40"><g id="Solid"><rect width="40" height="40" fill="none"/></g><g id="Icon_Purple"><g><path d="M26.367,4.734c1.426,0,2.347,0.921,2.347,2.347c0,0.069,0.056,0.125,0.125,0.125
			s0.125-0.056,0.125-0.125c0-1.426,0.921-2.347,2.347-2.347c0.069,0,0.125-0.056,0.125-0.125s-0.056-0.125-0.125-0.125
			c-1.426,0-2.347-0.921-2.347-2.347c0-0.069-0.056-0.125-0.125-0.125s-0.125,0.056-0.125,0.125c0,1.426-0.921,2.347-2.347,2.347
			c-0.069,0-0.125,0.056-0.125,0.125S26.298,4.734,26.367,4.734z" fill="#000D6E"/><path d="M32.488,9.201c-1.081,0-1.78-0.698-1.78-1.779c0-0.069-0.056-0.125-0.125-0.125
			s-0.125,0.056-0.125,0.125c0,1.081-0.698,1.779-1.779,1.779c-0.069,0-0.125,0.056-0.125,0.125s0.056,0.125,0.125,0.125
			c1.081,0,1.779,0.698,1.779,1.779c0,0.069,0.056,0.125,0.125,0.125s0.125-0.056,0.125-0.125c0-1.081,0.699-1.779,1.78-1.779
			c0.069,0,0.125-0.056,0.125-0.125S32.557,9.201,32.488,9.201z" fill="#000D6E"/><path d="M28.09,8.058c-1.081,0-1.78-0.698-1.78-1.779c0-0.069-0.056-0.125-0.125-0.125
			s-0.125,0.056-0.125,0.125c0,1.081-0.698,1.779-1.779,1.779c-0.069,0-0.125,0.056-0.125,0.125s0.056,0.125,0.125,0.125
			c1.081,0,1.779,0.699,1.779,1.78c0,0.069,0.056,0.125,0.125,0.125s0.125-0.056,0.125-0.125c0-1.081,0.699-1.78,1.78-1.78
			c0.069,0,0.125-0.056,0.125-0.125S28.159,8.058,28.09,8.058z" fill="#000D6E"/></g><g><path d="M30.228,20.034H9.772l-0.977,3C8.6,23.522,8.5,24.045,8.5,24.573v5.462h23v-5.462
			c0-0.528-0.1-1.051-0.295-1.538L30.228,20.034z M12,27.034c-0.828,0-1.5-0.672-1.5-1.5s0.672-1.5,1.5-1.5s1.5,0.672,1.5,1.5
			S12.828,27.034,12,27.034z M28,27.034c-0.828,0-1.5-0.672-1.5-1.5s0.672-1.5,1.5-1.5s1.5,0.672,1.5,1.5S28.828,27.034,28,27.034z" fill="#6C2273"/><path d="M26.5,34.034c0,0.552,0.448,1,1,1h3c0.552,0,1-0.448,1-1v-3h-5V34.034z" fill="#6C2273"/><path d="M8.5,34.034c0,0.552,0.448,1,1,1h3c0.552,0,1-0.448,1-1v-3h-5V34.034z" fill="#6C2273"/><path d="M31,19.034h2c0.276,0,0.5-0.224,0.5-0.5v-1c0-0.276-0.224-0.5-0.5-0.5h-2
			c-0.276,0-0.5,0.224-0.5,0.5v1C30.5,18.81,30.724,19.034,31,19.034z" fill="#6C2273"/><path d="M9.5,18.534v-1c0-0.276-0.224-0.5-0.5-0.5H7c-0.276,0-0.5,0.224-0.5,0.5v1
			c0,0.276,0.224,0.5,0.5,0.5h2C9.276,19.034,9.5,18.81,9.5,18.534z" fill="#6C2273"/><path d="M27.445,12.88c-0.446-1.118-1.493-1.846-2.654-1.846h-9.583c-1.161,0-2.207,0.728-2.654,1.846
			l-2.457,6.154h19.806L27.445,12.88z" fill="#B8B2FF"/></g></g></svg>