<?xml version="1.0" encoding="iso-8859-1"?><!--Generator: Adobe Illustrator 26.2.1, SVG Export Plug-In . SVG Version: 6.00 Build 0)--><svg version="1.1" xmlns="http://www.w3.org/2000/svg" xmlns:xlink="http://www.w3.org/1999/xlink" x="0px" y="0px" viewBox="0 0 40 40" xml:space="preserve" focusable="false" aria-hidden="true" enable-background="new 0 0 40 40"><g id="Solid"><rect width="40" height="40" fill="none"/></g><g id="Icon_Tangerine"><g><path d="M15,7c0-0.552-0.448-1-1-1h-3c-0.552,0-1,0.448-1,1v1h2v1h1V8h2V7z" fill="#FA9319"/><path d="M8,29.5c0,2.485,2.015,4.5,4.5,4.5c2.485,0,4.5-2.015,4.5-4.5V17H8V29.5z" fill="#FA9319"/><path d="M12.5,10C10.015,10,8,12.015,8,14.5V16h9v-1.5C17,12.015,14.985,10,12.5,10z" fill="#FAE052"/><path d="M26,7c0-0.552-0.448-1-1-1h-3c-0.552,0-1,0.448-1,1v1h2v1h1V8h2V7z" fill="#FA9319"/><path d="M19,29.5c0,2.485,2.015,4.5,4.5,4.5c2.485,0,4.5-2.015,4.5-4.5V17h-9V29.5z" fill="#FA9319"/><path d="M23.5,10c-2.485,0-4.5,2.015-4.5,4.5V16h9v-1.5C28,12.015,25.985,10,23.5,10z" fill="#FAE052"/><rect x="16" y="7" width="4" height="1" fill="#000D6E"/><path d="M31,13.092V9.5C31,8.121,29.879,7,28.5,7H27v1h1.5C29.327,8,30,8.673,30,9.5v3.592
			c-0.581,0.207-1,0.756-1,1.408c0,0.828,0.672,1.5,1.5,1.5c0.828,0,1.5-0.672,1.5-1.5C32,13.848,31.581,13.298,31,13.092z" fill="#000D6E"/></g></g></svg>