<?xml version="1.0" encoding="iso-8859-1"?><!--Generator: Adobe Illustrator 26.2.1, SVG Export Plug-In . SVG Version: 6.00 Build 0)--><svg version="1.1" xmlns="http://www.w3.org/2000/svg" xmlns:xlink="http://www.w3.org/1999/xlink" x="0px" y="0px" viewBox="0 0 40 40" xml:space="preserve" focusable="false" aria-hidden="true" enable-background="new 0 0 40 40"><g id="Solid"><rect width="40" height="40" fill="none"/></g><g id="Icon_Purple"><path d="M21.952,4.028c-1.654,0-3,1.346-3,3v26c0,1.654,1.346,3,3,3s3-1.346,3-3v-26
		C24.952,5.373,23.606,4.028,21.952,4.028z" fill="#B8B2FF"/><path d="M28.993,4.028c-1.654,0-3,1.346-3,3v26c0,1.654,1.346,3,3,3s3-1.346,3-3v-26
		C31.993,5.373,30.647,4.028,28.993,4.028z" fill="#B8B2FF"/><g><path d="M20,16.982L20,16.982c0-0.275,0.225-0.5,0.5-0.5h3c0.275,0,0.5,0.225,0.5,0.5l0,0
			c0,0.275-0.225,0.5-0.5,0.5h-3C20.225,17.482,20,17.257,20,16.982z" fill="#6C2273"/></g><g><path d="M20,21.97L20,21.97c0-0.275,0.225-0.5,0.5-0.5h3c0.275,0,0.5,0.225,0.5,0.5l0,0
			c0,0.275-0.225,0.5-0.5,0.5h-3C20.225,22.47,20,22.245,20,21.97z" fill="#6C2273"/></g><g><path d="M27,16.982L27,16.982c0-0.275,0.225-0.5,0.5-0.5h3c0.275,0,0.5,0.225,0.5,0.5l0,0
			c0,0.275-0.225,0.5-0.5,0.5h-3C27.225,17.482,27,17.257,27,16.982z" fill="#6C2273"/></g><g><path d="M27,21.97L27,21.97c0-0.275,0.225-0.5,0.5-0.5h3c0.275,0,0.5,0.225,0.5,0.5l0,0
			c0,0.275-0.225,0.5-0.5,0.5h-3C27.225,22.47,27,22.245,27,21.97z" fill="#6C2273"/></g><path d="M16.948,33h-0.939V13h-1v20h-0.998c-0.276,0-0.5,0.224-0.5,0.5s0.224,0.5,0.5,0.5h0.998v1.496
		c0,0.275,0.225,0.5,0.5,0.5c0.275,0,0.5-0.225,0.5-0.5V34h0.939c0.276,0,0.5-0.224,0.5-0.5S17.225,33,16.948,33z" fill="#6C2273"/><path d="M15.492,7c-0.276,0-0.5,0.224-0.5,0.5v1.416v1.188v1.894h1v-1.894V8.916V7.5
		C15.992,7.224,15.768,7,15.492,7z" fill="#000D6E"/><path d="M11.989,33h-1.005V13h-1l0,20H9.052c-0.276,0-0.5,0.224-0.5,0.5s0.224,0.5,0.5,0.5h0.933v1.537
		c0,0.275,0.225,0.5,0.5,0.5s0.5-0.225,0.5-0.5V34h1.005c0.276,0,0.5-0.224,0.5-0.5S12.266,33,11.989,33z" fill="#6C2273"/><path d="M10.485,7c-0.276,0-0.5,0.224-0.5,0.5v1.416v1.188v1.894h1v-1.894V8.916V7.5
		C10.985,7.224,10.761,7,10.485,7z" fill="#000D6E"/></g></svg>