<?xml version="1.0" encoding="UTF-8"?><svg xmlns="http://www.w3.org/2000/svg" viewBox="0 0 40 40" focusable="false" aria-hidden="true"><defs><style>.cls-1{fill:none;}.cls-2{fill:#000d6e;}.cls-3{fill:#ffaca6;}.cls-4{fill:#d9304c;}</style></defs><g id="Solid"><rect class="cls-1" width="40" height="40"/></g><g id="Icon_Red"><g><g><rect class="cls-4" x="3.45559403" y="21.31109303" width="9" height="16" rx="1" ry="1" transform="translate(-6.05194921 2.36261657) rotate(-12.27961249)"/><rect class="cls-3" x="3.42239602" y="23.65857248" width="9" height="11" transform="translate(-6.02027026 2.35206646) rotate(-12.27961249)"/><path class="cls-2" d="M8.3984375,36.54980469c-.22998047,0-.43701172-.15917969-.48828125-.39355469-.05859375-.26953125,.11230469-.53613281,.38232422-.59472656l1.95410156-.42578125c.26855469-.05859375,.53564453,.11132812,.59521484,.38183594,.05859375,.26953125-.11230469,.53613281-.38232422,.59472656l-1.95410156,.42578125c-.03564453,.0078125-.07177734,.01171875-.10693359,.01171875Z"/></g><path class="cls-3" d="M28,4.02764894c-1.65423584,0-3,1.34576416-3,3v26c0,1.6541748,1.34576416,3,3,3s3-1.3458252,3-3V7.02764894c0-1.65423584-1.34576416-3-3-3Z"/><path class="cls-3" d="M35,4.02764894c-1.65423584,0-3,1.34576416-3,3v26c0,1.6541748,1.34576416,3,3,3s3-1.3458252,3-3V7.02764894c0-1.65423584-1.34576416-3-3-3Z"/><rect class="cls-4" x="26.04827881" y="16.48216739" width="4" height="1" rx=".5" ry=".5"/><rect class="cls-4" x="26.04827881" y="21.47028293" width="4" height="1" rx=".5" ry=".5"/><rect class="cls-4" x="33.00701904" y="16.48216739" width="4" height="1" rx=".5" ry=".5"/><rect class="cls-4" x="33.00701904" y="21.47028293" width="4" height="1" rx=".5" ry=".5"/><path class="cls-4" d="M23.5,33.00000001h-.93927002V13.00000001h-1v20h-.99822998c-.27636719,0-.5,.22363281-.5,.5s.22363281,.5,.5,.5h.99822998v1.49609375c0,.27496338,.22497559,.5,.5,.5,.27496338,0,.5-.22503662,.5-.5v-1.49609375h.93927002c.27636719,0,.5-.22363281,.5-.5s-.22363281-.5-.5-.5Z"/><path class="cls-2" d="M22,7.00000001c-.27636719,0-.5,.22363281-.5,.5v4.49804688h1V7.50000001c0-.27636719-.22363281-.5-.5-.5Z"/><g><path class="cls-4" d="M20.16270518,34.99524623h-1.00457764V14.99524623h-.99981689l-.00018311,20h-.93292236c-.27636719,0-.5,.22363281-.5,.5s.22363281,.5,.5,.5h.93292236v1.53723145c0,.27502441,.22497559,.5,.5,.5s.5-.22497559,.5-.5v-1.53723145h1.00457764c.27636719,0,.5-.22363281,.5-.5s-.22363281-.5-.5-.5Z"/><path class="cls-2" d="M18.65831065,8.99524623c-.27636719,0-.5,.22363281-.5,.5v4.49804688h1v-4.49804688c0-.27636719-.22363281-.5-.5-.5Z"/></g><path class="cls-3" d="M2.77299966,11.23166933l-.74804487,4.6508624c-.14746589,.71427848,.37731116,1.38777875,1.08131442,1.38777875H15.39468512c.70400326,0,1.22878032-.67350028,1.08131442-1.38777875l-.74804487-4.6508624"/><path class="cls-4" d="M4.77311672,7.2364399H13.72807173c1.10383005,0,2,.89616995,2,2v1.99522943H2.77311672v-1.99522943c0-1.10383005,.89616995-2,2-2Z"/><path class="cls-3" d="M12.5,9.40026857V5.12109376c0-1.72070312-1.45800781-3.12109375-3.25-3.12109375s-3.25,1.40039062-3.25,3.12109375v4.2791748c-.29302979,.17486572-.5,.48144531-.5,.84564209v1.84088135c0,.55004883,.45001221,1,1,1s1-.44995117,1-1v-1.84094238c0-.36419678-.20697021-.67071533-.5-.84558105V5.12109376c0-1.16992188,1.00927734-2.12109375,2.25-2.12109375s2.25,.95117188,2.25,2.12109375v4.2791748c-.29302979,.17486572-.5,.48138428-.5,.84558105v1.84094238c0,.55004883,.45001221,1,1,1s1-.44995117,1-1v-1.84088135c0-.36419678-.20697021-.67077637-.5-.84564209Z"/></g></g></svg>