<svg xmlns="http://www.w3.org/2000/svg" viewBox="0 0 40 40" focusable="false" aria-hidden="true"><defs><style>.cls-1{fill:none;}.cls-2{fill:#ffaca6;}.cls-3{fill:#d9304c;}.cls-4{fill:#000d6e;}</style></defs><g id="Solid"><rect class="cls-1" width="40" height="40"/></g><g id="Icon_Red" data-name="Icon Red"><path class="cls-2" d="M30.4413,33.0312c1.0954,0,2.2919-.8057,2.2919-1.8V30.2206a.9705.9705,0,0,0-.7351-.9415l-3.97-.9927L26.8513,32.992Z"/><path class="cls-3" d="M11.8909,32.9921h4.718v-.0005l8.2222,0a1.352,1.352,0,0,0,1.1611-1.1611l1.1917-4.7592a1.341,1.341,0,0,0-1.1312-1.3643l-8.1059-1.8928a1.33,1.33,0,0,1-1.0385-1.298V11.152c0-.6469-.8412-1.1763-1.4883-1.1763H7.16a1.163,1.163,0,0,0-1.163,1.163L6.009,27.11A6.1843,6.1843,0,0,0,11.8909,32.9921Z"/><rect class="cls-2" x="6.9932" y="7.0205" width="9" height="2"/><rect class="cls-4" x="4.999" y="33.9795" width="29.4092" height="1"/></g></svg>