<svg xmlns="http://www.w3.org/2000/svg" viewBox="0 0 40 40" focusable="false" aria-hidden="true"><g id="Solid"><rect width="40" height="40" fill="none"/></g><g id="Icon_Green" data-name="Icon Green"><path d="M28,6.2981A3.2979,3.2979,0,0,0,24.7036,3H15.2965A3.2979,3.2979,0,0,0,12,6.2981V21H28Z" fill="#94e3d4"/><circle cx="12" cy="37" r="1" fill="#000d6e"/><circle cx="28.0001" cy="37" r="1" fill="#000d6e"/><circle cx="20" cy="37" r="1" fill="#000d6e"/><path d="M13.4705,25H19.5v3.7463l-7.2958,5.35a.5.5,0,0,0,.5918.8066L19.5,29.987V34.5a.5.5,0,0,0,1,0V29.987l6.704,4.9163a.5.5,0,1,0,.5918-.8066L20.5,28.7463V25H26.53A1.47,1.47,0,0,0,28,23.53V23.47A1.47,1.47,0,0,0,26.53,22H13.4705A1.47,1.47,0,0,0,12,23.47V23.53A1.47,1.47,0,0,0,13.4705,25Z" fill="#1b5951"/></g></svg>