<svg xmlns="http://www.w3.org/2000/svg" viewBox="0 0 40 40" focusable="false" aria-hidden="true"><defs><style>.cls-1{fill:none;}.cls-2{fill:#fa9319;}.cls-3{fill:#fae052;}.cls-4{fill:#000d6e;}</style></defs><g id="Solid"><rect class="cls-1" width="40" height="40"/></g><g id="Icon"><path class="cls-2" d="M14.86,27H15V17H10.09a2,2,0,0,0-2,2.43l.66,5.3A4,4,0,0,1,11,24,4,4,0,0,1,14.86,27ZM12.5,19A1.5,1.5,0,1,1,11,20.5,1.5,1.5,0,0,1,12.5,19Z"/><path class="cls-2" d="M25.14,27A4,4,0,0,1,29,24a4,4,0,0,1,2.29.73l.66-5.3a2,2,0,0,0-2-2.43H25V27Zm2.36-8A1.5,1.5,0,1,1,26,20.5,1.5,1.5,0,0,1,27.5,19Z"/><path class="cls-3" d="M15,14.42l.53-.28a9.33,9.33,0,0,1,8.94,0l.53.28V16h5l-.51-6.24A3,3,0,0,0,26.5,7h-13a3,3,0,0,0-3,2.76L10,16h5V14.42Z"/><path class="cls-3" d="M32,29V28a3,3,0,0,0-6,0v1Z"/><path class="cls-2" d="M24,15a8.35,8.35,0,0,0-8,0V28h8Z"/><path class="cls-3" d="M14,29V28a3,3,0,0,0-6,0v1Z"/><path class="cls-4" d="M27,29v2a2,2,0,0,0,4,0V29Z"/><path class="cls-4" d="M9,29v2a2,2,0,0,0,4,0V29Z"/></g></svg>