<svg xmlns="http://www.w3.org/2000/svg" viewBox="0 0 40 40" focusable="false" aria-hidden="true"><defs><style>.cls-1{fill:none;}.cls-2{fill:#6c2273;}.cls-3{fill:#b8b2ff;}.cls-4{fill:#000d6e;}</style></defs><g id="Solid"><rect class="cls-1" width="40" height="40"/></g><g id="Icon_Purple" data-name="Icon Purple"><path class="cls-2" d="M7,26.9824v-16H33V22.7543l1-.1649V10.9824a1,1,0,0,0-1-1H7a1,1,0,0,0-1,1v17H18.05l-.1649-1Z"/><path class="cls-2" d="M17,30.9824v-2H4v1a2,2,0,0,0,2,2H18.7093l-.1649-1Z"/><path class="cls-3" d="M7,10.9824v16H17.8848l-.1159-.703a1,1,0,0,1,.824-1.1495L33,22.7543V10.9824Z"/><polygon class="cls-3" points="18.544 30.982 18.215 28.982 17 28.982 17 30.982 18.544 30.982"/><path class="cls-4" d="M35.5291,23.3508a1,1,0,0,0-1.1494-.824l-.38.0626-1,.1649L18.5929,25.13a1,1,0,0,0-.824,1.1495l.1159.703.1649,1,.1649,1,.33,2,.1649,1,.5239,3.177a1,1,0,0,0,1.1494.824L36.1694,33.38a1,1,0,0,0,.8239-1.1494Zm-4.4467,2.7566a.1631.1631,0,0,1-.038-.2306l1.4883-2.0276a.1723.1723,0,0,1,.2359-.039l2.0606,1.4425a.1627.1627,0,0,1,.038.2306l-.4038.55-1.6385-1.147-.6809.9275.9427.66.4222-.5752.6959.4871-.826,1.1252a.1723.1723,0,0,1-.2359.0389Zm-9.5338,8.5105a.2594.2594,0,0,1-.2173.1065.2635.2635,0,0,1-.1462-.0489,3.127,3.127,0,0,1-.6872-4.362.26.26,0,1,1,.4206.3064,2.6049,2.6049,0,0,0,.573,3.634A.261.261,0,0,1,21.5486,34.6179Zm.6166-.8392a.2594.2594,0,0,1-.2173.1066.2635.2635,0,0,1-.1457-.0489,2.0854,2.0854,0,0,1-.46-2.9129.26.26,0,0,1,.4206.3064,1.5634,1.5634,0,0,0,.3445,2.1848A.26.26,0,0,1,22.1652,33.7787Zm.6118-.8411a.2592.2592,0,0,1-.2172.1064.2648.2648,0,0,1-.1463-.0489,1.0468,1.0468,0,0,1-.23-1.46.26.26,0,1,1,.4206.3064.524.524,0,0,0,.1156.7318A.261.261,0,0,1,22.777,32.9376Z"/><path class="cls-3" d="M33.3788,27.5109l.826-1.1252-.6959-.4871-.4222.5752-.9427-.66.6809-.9275,1.6385,1.147.4038-.55a.1627.1627,0,0,0-.038-.2306L32.7686,23.81a.1723.1723,0,0,0-.2359.039l-1.4883,2.0276a.1631.1631,0,0,0,.038.2306l2.06,1.4424A.1723.1723,0,0,0,33.3788,27.5109Z"/><path class="cls-3" d="M20.9185,30.62a.26.26,0,1,0-.4206-.3064,3.127,3.127,0,0,0,.6872,4.362.2635.2635,0,0,0,.1462.0489.26.26,0,0,0,.16-.4705A2.6049,2.6049,0,0,1,20.9185,30.62Z"/><path class="cls-3" d="M21.4827,32.3936a1.5517,1.5517,0,0,1,.2805-1.1637.26.26,0,0,0-.4206-.3064,2.0854,2.0854,0,0,0,.46,2.9129.2635.2635,0,0,0,.1457.0489.26.26,0,0,0,.16-.4706A1.5528,1.5528,0,0,1,21.4827,32.3936Z"/><path class="cls-3" d="M22.6044,31.8417a.26.26,0,1,0-.4206-.3064,1.0468,1.0468,0,0,0,.23,1.46.2648.2648,0,0,0,.1463.0489.26.26,0,0,0,.16-.47A.524.524,0,0,1,22.6044,31.8417Z"/></g></svg>