<svg xmlns="http://www.w3.org/2000/svg" viewBox="0 0 40 40" focusable="false" aria-hidden="true"><defs><style>.cls-1{fill:none;}.cls-2{fill:#6c2273;}.cls-3{fill:#b8b2ff;}.cls-4{fill:#000d6e;}</style></defs><g id="Solid"><rect class="cls-1" width="40" height="40"/></g><g id="Icon_Purple" data-name="Icon Purple"><path class="cls-2" d="M36,8H4a2.0023,2.0023,0,0,0-2,2V28a2.0023,2.0023,0,0,0,2,2H36a2.0023,2.0023,0,0,0,2-2V10A2.0023,2.0023,0,0,0,36,8Zm1,20a1,1,0,0,1-1,1H4a1,1,0,0,1-1-1V10A1,1,0,0,1,4,9H36a1,1,0,0,1,1,1Z"/><path class="cls-2" d="M25.181,31H14.819a.819.819,0,0,0-.819.819V33H26V31.819A.819.819,0,0,0,25.181,31Z"/><circle class="cls-2" cx="34.5" cy="10.5" r="0.5"/><circle class="cls-2" cx="32.5" cy="10.5" r="0.5"/><polygon class="cls-3" points="13.449 16.006 13.412 16.006 14.855 20.335 24.32 20.335 25.402 16.006 25.374 16.006 13.449 16.006"/><path class="cls-3" d="M36,9H4a1,1,0,0,0-1,1V28a1,1,0,0,0,1,1H36a1,1,0,0,0,1-1V10A1,1,0,0,0,36,9ZM16,27a1,1,0,1,1,1-1A1,1,0,0,1,16,27Zm8,0a1,1,0,1,1,1-1A1,1,0,0,1,24,27Zm2.4849-11.4021L25.1523,20.927a.5.5,0,0,1-.4848.3789H15.1459l.5553,1.665h8.9663a.5.5,0,1,1,0,1H15.3408a.4994.4994,0,0,1-.4741-.3417L11.4263,13H10a.5.5,0,0,1,0-1h1.7866a.4993.4993,0,0,1,.4741.3418l.7765,2.64c.0088,0,.0163-.0051.0253-.0051H26a.5.5,0,0,1,.4849.6211ZM32.5,11a.5.5,0,1,1,.5-.5A.5.5,0,0,1,32.5,11Zm2,0a.5.5,0,1,1,.5-.5A.5.5,0,0,1,34.5,11Z"/><circle class="cls-4" cx="16" cy="26" r="1"/><circle class="cls-4" cx="24" cy="26" r="1"/><path class="cls-4" d="M26,14.9768H13.0625c-.009,0-.0165.0046-.0253.0051l-.7765-2.64A.4993.4993,0,0,0,11.7866,12H10a.5.5,0,0,0,0,1h1.4263l3.44,10.6292a.4994.4994,0,0,0,.4741.3417h9.3267a.5.5,0,1,0,0-1H15.7012l-.5553-1.665h9.5216a.5.5,0,0,0,.4848-.3789l1.3326-5.3291A.5.5,0,0,0,26,14.9768ZM24.32,20.335H14.8553l-1.4436-4.3291H25.4022Z"/></g></svg>