<svg xmlns="http://www.w3.org/2000/svg" viewBox="0 0 40 40" focusable="false" aria-hidden="true"><g id="Solid"><rect width="40" height="40" fill="none"/></g><g id="Icon_Purple" data-name="Icon Purple"><path d="M34,10a1,1,0,0,0-1-1H7a1,1,0,0,0-1,1V27H34ZM33,26H7V10H33Z" fill="#6c2273"/><path d="M7,26H33V10H7ZM18.53,15.0005h11a.5.5,0,1,1,0,1h-11a.5.5,0,0,1,0-1Zm0,6h11a.5.5,0,0,1,0,1h-11a.5.5,0,0,1,0-1Zm-8.2959-6.3417a.5.5,0,0,1,.707.0019l1.0332,1.0414,2.1348-2.41a.5.5,0,0,1,.748.6641l-2.4882,2.8086c-.004.0044-.01.0057-.0136.01l-.0084.0126a.4717.4717,0,0,1-.0972.0645.4065.4065,0,0,1-.49.0129.4752.4752,0,0,1-.096-.0579l-.009-.0119c-.0044-.004-.01-.0053-.0145-.01l-1.4086-1.42A.5.5,0,0,1,10.2339,14.6588Zm0,5.9716a.4981.4981,0,0,1,.707.002l1.0332,1.0414,2.1348-2.41a.5.5,0,0,1,.748.6641l-2.4882,2.8086c-.004.0044-.01.0057-.0136.01l-.0084.0125a.4762.4762,0,0,1-.0972.0646.515.515,0,0,1-.0607.04.4078.4078,0,0,1-.43-.0274.4752.4752,0,0,1-.096-.0579l-.009-.0119c-.0044-.0041-.01-.0053-.0145-.01l-1.4086-1.42A.5.5,0,0,1,10.2339,20.63Z" fill="#b8b2ff"/><path d="M23,28v2H17V28H4v1a2,2,0,0,0,2,2H34a2,2,0,0,0,2-2V28Z" fill="#6c2273"/><rect x="17" y="28" width="6" height="2" fill="#b8b2ff"/><path d="M18.53,16h11a.5.5,0,1,0,0-1h-11a.5.5,0,0,0,0,1Z" fill="#000d6e"/><path d="M18.53,22.0005h11a.5.5,0,0,0,0-1h-11a.5.5,0,0,0,0,1Z" fill="#000d6e"/><path d="M11.64,16.7857c.0043.0043.01.0056.0145.01l.009.0119a.4752.4752,0,0,0,.096.0579.4054.4054,0,0,0,.49-.0129.4717.4717,0,0,0,.0972-.0645l.0084-.0126c.004-.0042.01-.0055.0136-.01l2.4882-2.8086a.5.5,0,0,0-.748-.6641l-2.1348,2.41-1.0332-1.0414a.5.5,0,0,0-.71.7051Z" fill="#000d6e"/><path d="M11.64,22.7574c.0043.0043.01.0055.0145.01l.009.0119a.4752.4752,0,0,0,.096.0579.46.46,0,0,0,.43.0274.515.515,0,0,0,.0607-.04.4762.4762,0,0,0,.0972-.0646l.0084-.0125c.004-.0042.01-.0055.0136-.01l2.4882-2.8086a.5.5,0,0,0-.748-.6641l-2.1348,2.41-1.0332-1.0414a.5.5,0,0,0-.71.7051Z" fill="#000d6e"/></g></svg>