<?xml version="1.0" encoding="iso-8859-1"?><!--Generator: Adobe Illustrator 26.3.1, SVG Export Plug-In . SVG Version: 6.00 Build 0)--><svg version="1.1" xmlns="http://www.w3.org/2000/svg" xmlns:xlink="http://www.w3.org/1999/xlink" x="0px" y="0px" viewBox="0 0 40 40" style="enable-background:new 0 0 40 40" xml:space="preserve" focusable="false" aria-hidden="true"><g id="Solid"><rect style="fill:none" width="40" height="40"/></g><g id="Icon_Green"><polygon style="fill:#1B5951" points="28.195,6 24.195,6 24.195,8.306 28.195,11.994 	"/><path style="fill:#000D6E" d="M31.534,16.433l-10.399-9.59c-1.106-0.992-2.773-0.993-3.884,0.005L6.856,16.433l0,0l0.339,0.367
		l0.339,0.367l10.39-9.58c0.724-0.651,1.817-0.65,2.538-0.005l10.395,9.585l0.339-0.367L31.534,16.433L31.534,16.433z"/><path style="fill:#94E3D4" d="M18.866,24.873v-0.502l0.402-0.3l6.248-4.659c0.281-0.204,0.633-0.317,0.992-0.317
		c0.355,0,0.701,0.11,0.985,0.317l1.702,1.269v-3.684l-9.412-8.679c-0.33-0.297-0.848-0.296-1.191,0.013l-9.398,8.666V34h9.671
		V24.873z"/><g><path style="fill:#1B5951" d="M26.105,20.221l-6.239,4.652V34h13.278v-9.127l-6.248-4.659
			C26.677,20.054,26.332,20.055,26.105,20.221z"/></g></g><g id="Guides" style="display:none"/><g id="Grid" style="display:none"><g style="display:inline"><g/><g/><g/><g/><g/><g/><g/><g/><g/><g/><g/><g/><g/><g/><g/><g/><g/><g/><g/><g/><g/><g/><g/><g/><g/><g/><g/><g/><g/><g/><g/><g/><g/><g/><g/><g/><g/><g/><g/><g/></g></g></svg>