<?xml version="1.0" encoding="iso-8859-1"?><!--Generator: Adobe Illustrator 26.2.1, SVG Export Plug-In . SVG Version: 6.00 Build 0)--><svg version="1.1" xmlns="http://www.w3.org/2000/svg" xmlns:xlink="http://www.w3.org/1999/xlink" x="0px" y="0px" viewBox="0 0 40 40" xml:space="preserve" focusable="false" aria-hidden="true" enable-background="new 0 0 40 40"><g id="Solid"><rect width="40" height="40" fill="none"/></g><g id="Icon_Purple"><g><rect x="18.5" y="19.988" width="3" height="3" fill="none"/><rect x="14.016" y="19.988" width="3" height="3" fill="none"/><rect x="23" y="20.012" width="3" height="3" fill="none"/><polygon points="29,6 25,6 25,8.306 29,11.994 		" fill="#6C2273"/><path d="M30,25.295v-8.298l-9.412-8.679c-0.33-0.297-0.848-0.296-1.191,0.013L10,16.997V34h8v-6h4v6h3.295
			C25.105,33.366,25,32.695,25,32C25,28.835,27.112,26.158,30,25.295z M17.016,22.988h-3v-3h3V22.988z M21.5,22.988h-3v-3h3V22.988z
			 M23,20.012h3v3h-3V20.012z" fill="#B8B2FF"/><path d="M21.267,7.583l10.394,9.585L32,16.801l0.339-0.367l0,0L21.94,6.844
			c-1.106-0.992-2.773-0.993-3.884,0.005L7.661,16.433l0,0L8,16.801l0.339,0.367l10.39-9.58C19.453,6.936,20.546,6.938,21.267,7.583
			z" fill="#000D6E"/><rect x="18" y="28" width="4" height="6" fill="#000D6E"/></g><g><g><g><circle cx="32" cy="32" r="6" fill="#B8B2FF"/></g></g></g><path d="M32,38c1.747,0,3.314-0.751,4.411-1.942c0,0,0,0,0,0l-3.358-1.697l0.004-0.66
		c0.541-0.357,0.948-0.984,1.111-1.738c0.02,0.004,0.04,0.008,0.06,0.008c0.258,0,0.467-0.287,0.467-0.641
		c0-0.292-0.143-0.535-0.337-0.613v-0.618c0.015-0.435,0.023-0.901,0-1.126c-0.049-0.484-0.955-1.684-2.357-1.684
		s-2.357,1.059-2.357,2.021v1.407c-0.194,0.078-0.337,0.321-0.337,0.613c0,0.354,0.209,0.641,0.467,0.641
		c0.031,0,0.062-0.005,0.091-0.013c0.16,0.745,0.558,1.368,1.089,1.729h-0.009l0.003,0.674l-0.049,0.025l-3.309,1.672c0,0,0,0,0,0
		C28.686,37.249,30.253,38,32,38z" fill="#000D6E"/></g></svg>