<?xml version="1.0" encoding="UTF-8"?><svg xmlns="http://www.w3.org/2000/svg" viewBox="0 0 40 40" focusable="false" aria-hidden="true"><g id="Solid"><rect width="40" height="40" fill="none"/></g><g id="Icon_Red"><path d="M30.5,18.50000001h3c.27636719,0,.5,.22363281,.5,.5s-.22363281,.5-.5,.5h-3c-.27636719,0-.5-.22363281-.5-.5s.22363281-.5,.5-.5Z" fill="#000d6e"/><g><path d="M16,28.71428573h2.85714286v1.28571429c0,.55191502-.44808498,1-1,1h-.85714286c-.55191502,0-1-.44808498-1-1v-1.28571429h0Z" fill="#000d6e"/><path d="M5.14285714,28.71428573h2.85714286v1.28571429c0,.55191502-.44808498,1-1,1h-.85714286c-.55191502,0-1-.44808498-1-1v-1.28571429h0Z" fill="#000d6e"/><rect x="18.28571429" y="20.71428573" width="1.71428571" height="1.14285714" rx=".40343328" ry=".40343328" fill="#d9304c"/><rect x="4" y="20.71428573" width="1.71428571" height="1.14285714" rx=".40343328" ry=".40343328" fill="#d9304c"/><g><path d="M18.68131429,24.14285716l-.5824-1.71428571H5.90108571l-.5824,1.71428571c-.11605714,.27857143-.17582857,.57731429-.17582857,.87914286v3.12085714h13.71428571v-3.12085714c0-.30182857-.05977143-.60057143-.17582857-.87914286Zm-11.53845714,2.28571429c-.47337143,0-.85714286-.38377143-.85714286-.85714286s.38377143-.85714286,.85714286-.85714286,.85714286,.38377143,.85714286,.85714286-.38377143,.85714286-.85714286,.85714286Zm9.71428571,0c-.47337143,0-.85714286-.38377143-.85714286-.85714286s.38377143-.85714286,.85714286-.85714286,.85714286,.38377143,.85714286,.85714286-.38377143,.85714286-.85714286,.85714286Z" fill="#d9304c"/><path d="M16.43954286,18.34062858c-.26617143-.6388-.89034286-1.05491429-1.5824-1.05491429h-5.71428571c-.69205714,0-1.31622857,.41611429-1.5824,1.05491429l-1.46525714,3.51651429h11.8096l-1.46525714-3.51651429Z" fill="#ffaca6"/></g></g><rect x="2" y="34.00000001" width="36" height="3" fill="#d9304c"/><path d="M31.96830193,17.5h1.28779871c.55191502,0,1,.44808498,1,1v2.80122644h-3.28779871v-2.80122644c0-.55191502,.44808498-1,1-1Z" fill="#ffaca6"/><path d="M29.82440257,20.47927677h5.57559743c.27595751,0,.5,.22404249,.5,.5v11.00729549h-6.57559743v-11.00729549c0-.27595751,.22404249-.5,.5-.5Z" fill="#d9304c"/><path d="M22.83984375,18.50000001h3c.27636719,0,.5,.22363281,.5,.5s-.22363281,.5-.5,.5h-3c-.27636719,0-.5-.22363281-.5-.5s.22363281-.5,.5-.5Z" fill="#000d6e"/><path d="M26.80664062,21.86447897c.1953125-.1953125,.51171875-.1953125,.70703125,0s.1953125,.51171875,0,.70703125l-2.12109375,2.12109375c-.09765625,.09765625-.22558594,.14648437-.35351563,.14648437s-.25585937-.04882813-.35351562-.14648438c-.1953125-.1953125-.1953125-.51171875,0-.70703125l2.12109375-2.12109375Z" fill="#000d6e"/><path d="M27.15771484,16.35276022c-.12792969,0-.25585937-.04882813-.35351562-.14648438l-2.12158203-2.12109375c-.1953125-.1953125-.1953125-.51171875,0-.70703125s.51171875-.1953125,.70703125,0l2.12158203,2.12109375c.1953125,.1953125,.1953125,.51171875,0,.70703125-.09765625,.09765625-.22558594,.14648437-.35351563,.14648437Z" fill="#000d6e"/><path d="M2,10.0107422v23.98925781H38V10.0107422L20,2.00000001,2,10.0107422ZM37,31.00000001H3V12.00000001H37V31.00000001Z" fill="#ffaca6"/></g></svg>