<?xml version="1.0" encoding="UTF-8"?><svg xmlns="http://www.w3.org/2000/svg" viewBox="0 0 40 40" focusable="false" aria-hidden="true"><g id="uuid-994c2486-9f82-4440-bd48-e6a16827ef9e"><rect width="40" height="40" fill="none"/></g><g id="uuid-73c1d851-b16d-4bbd-8585-a3e4309d4236"><g><path d="M9.73,11.6l-3.68-.5c-.27-.04-.54,.04-.74,.22-.2,.18-.32,.43-.32,.7v9.14c0,.5,.41,.92,.92,.92l2.36,.02c.48,0,.86-.33,.93-.79l1.32-8.66c.04-.25-.02-.49-.17-.69s-.36-.33-.61-.36Z" fill="#1b5951"/><path d="M34.68,13.02c-.2-.18-.47-.26-.74-.22l-3.68,.5c-.25,.04-.46,.17-.61,.36s-.21,.44-.17,.69l1.32,8.66c.07,.45,.45,.79,.93,.79l2.36-.02c.5,0,.92-.42,.92-.92V13.72c0-.27-.12-.52-.32-.7Z" fill="#1b5951"/></g><g><path d="M21.4,17.19l-3.37,1.79c-.44,.23-1.04,.4-1.66,.4-.77,0-1.55-.25-2.08-.94-.44-.58-.64-1.29-.54-2.01s.46-1.37,1.04-1.81l1.28-.99-4.64-.19-1.08,7.08,8.59,8.09,.57,.57c.47,.47,1.23,.47,1.7,0l.07-.07c.41-.41,.44-1.04,.12-1.51l.05-.03,.5,.5c.47,.47,1.23,.47,1.7,0l.07-.07c.47-.47,.47-1.23,0-1.7l.77,.77c.47,.47,1.23,.47,1.7,0l.07-.07c.47-.47,.47-1.23,0-1.7l-.38-.38h0l.77,.77c.47,.47,1.23,.47,1.7,0l.07-.07c.44-.44,.45-1.12,.07-1.59l-7.07-6.85Z" fill="#94e3d4"/><path d="M15.08,17.83c.6,.77,1.84,.61,2.49,.27l4-2.12,.18,.17,3.35,3.22h0s3.64,3.53,3.64,3.53c.18,0,.83-.06,1-.09l-1.18-7.88c-2.04-.85-7.48-3.25-7.8-3.26s-.55,.08-1.23,.57l-4.12,3.18c-.75,.58-.89,1.67-.31,2.42Z" fill="#94e3d4"/></g></g></svg>