<?xml version="1.0" encoding="UTF-8"?><svg id="Calque_1" data-name="Calque 1" xmlns="http://www.w3.org/2000/svg" viewBox="0 0 40 40" focusable="false" aria-hidden="true"><defs><style>.cls-1 {
        fill: none;
      }

      .cls-2 {
        fill: #000d6e;
      }

      .cls-3 {
        fill: #1b5951;
      }

      .cls-4 {
        fill: #94e3d4;
      }</style></defs><path class="cls-4" d="M25,22H4c-.55,0-1,.45-1,1v10c0,.55,.45,1,1,1H25c.55,0,1-.45,1-1v-10c0-.55-.45-1-1-1Zm-2.43,8.6l-.05,.49h-1.07s0,.07,0,.11c0,.04,0,.08,0,.13h1.04s-.05,.49-.05,.49h-.83c.19,.29,.52,.46,.87,.45,.35,.03,.68-.15,.84-.46l.66,.45c-.33,.49-.9,.78-1.5,.75-.78,.02-1.48-.46-1.73-1.2h-.46s.05-.49,.05-.49h.31s0-.08,0-.12c0-.04,0-.08,0-.12h-.28s.05-.49,.05-.49h.33c.26-.73,.97-1.21,1.75-1.18,.59-.02,1.15,.27,1.48,.76l-.67,.44c-.16-.31-.49-.49-.84-.47-.35-.01-.68,.15-.87,.45h.96Z"/><path class="cls-2" d="M22.57,30.6l-.05,.49h-1.07s0,.07,0,.11c0,.04,0,.08,0,.13h1.04s-.05,.49-.05,.49h-.83c.19,.29,.52,.46,.87,.45,.35,.03,.68-.15,.84-.46l.66,.45c-.33,.49-.9,.78-1.5,.75-.78,.02-1.48-.46-1.73-1.2h-.46s.05-.49,.05-.49h.31s0-.08,0-.12c0-.04,0-.08,0-.12h-.28s.05-.49,.05-.49h.33c.26-.73,.97-1.21,1.75-1.18,.59-.02,1.15,.27,1.48,.76l-.67,.44c-.16-.31-.49-.49-.84-.47-.35-.01-.68,.15-.87,.45h.96Z"/><path class="cls-1" d="M0,0H40V40H0V0Z"/><path class="cls-3" d="M8,34H3.98c-.55,0-.98-.45-.98-1v-10c0-.55,.44-1,.98-1h4.02m8.52-14c-.28,0-.5-.22-.5-.5s.22-.5,.5-.5h18.25v-1c0-1.1-.9-2-2-2H16c-1.1,0-2,.9-2,2v15h11c1.1,0,2,.9,2,2v1h8.99v-4.6h-2.58c-1.9,0-3.44-1.54-3.44-3.44s1.54-3.44,3.44-3.44h2.58v-3.52c0-.55-.45-1-1-1H16.52Z"/><path class="cls-4" d="M30.97,15.96c0,1.35,1.09,2.44,2.44,2.44h3.6v-4.88h-3.6c-1.35,0-2.44,1.09-2.44,2.44Z"/><circle class="cls-2" cx="34" cy="16" r="1"/></svg>