<?xml version="1.0" encoding="iso-8859-1"?><!--Generator: Adobe Illustrator 26.3.1, SVG Export Plug-In . SVG Version: 6.00 Build 0)--><svg version="1.1" xmlns="http://www.w3.org/2000/svg" xmlns:xlink="http://www.w3.org/1999/xlink" x="0px" y="0px" viewBox="0 0 40 40" style="enable-background:new 0 0 40 40" xml:space="preserve" focusable="false" aria-hidden="true"><g id="Solid"><rect style="fill:none" width="40" height="40"/></g><g id="Icon_Purple"><g><path style="fill:none" d="M17.566,13.102l-0.005,0.005l3.826,3.811c0.175,0.174,0.404,0.259,0.633,0.26
			c-0.226-0.003-0.452-0.088-0.624-0.26L17.566,13.102z"/><path style="fill:#B8B2FF" d="M23.618,6.044C23.71,5.497,23.288,5,22.734,5H12.299c-0.554,0-0.975,0.497-0.884,1.044l0.723,4.335
			h10.759L23.618,6.044z"/><path style="fill:#6C2273" d="M13.735,16.918l3.826-3.811l0,0l0.005-0.005l3.83,3.816c0.173,0.172,0.398,0.257,0.624,0.26
			c0.003,0,0.005,0.001,0.008,0.001c0.232,0.001,0.464-0.085,0.641-0.262c0.352-0.35,0.352-0.918,0-1.268l-2.594-2.584l-0.897-0.893
			h3.718v-1.793H12.137v1.793h3.816l-3.491,3.477c-0.176,0.175-0.264,0.404-0.264,0.634s0.088,0.459,0.264,0.634
			C12.814,17.268,13.384,17.268,13.735,16.918z"/><path style="fill:#B8B2FF" d="M27.309,21.215c-1.358-4.25-4.18-8.147-4.411-8.148c-0.627-0.001-1.642-0.001-2.823-0.002
			l2.594,2.584l0,0c0.352,0.35,0.352,0.918,0,1.268c-0.177,0.176-0.409,0.263-0.641,0.262c-0.003,0-0.005-0.001-0.008-0.001
			c-0.229-0.001-0.458-0.086-0.633-0.26l-3.826-3.811l0,0l-3.826,3.811c-0.352,0.35-0.921,0.35-1.273,0
			c-0.176-0.175-0.264-0.405-0.264-0.634c0-0.229,0.088-0.459,0.264-0.634l2.594-2.584c-1.185,0-2.203,0.001-2.832,0.002
			c-0.4,0-8.556,11.654-3.472,16.633C9.546,30.477,10.601,31,11.79,31h5.771h5.124C22.251,30.089,22,29.075,22,28
			C22,24.724,24.265,21.974,27.309,21.215z"/></g><g><path style="fill:#000D6E" d="M23,28c0,3.314,2.686,6,6,6s6-2.686,6-6s-2.686-6-6-6S23,24.686,23,28z M31.328,26.328h1.996v0.558
			h-1.352v0.666h1.192v0.557h-1.192v1.223h-0.644V26.328z M28.17,26.328h0.644v1.185h1.145v-1.185h0.644v3.004h-0.644v-1.245h-1.145
			v1.245H28.17V26.328z M26.248,26.272c0.773,0,1.249,0.476,1.409,0.981l-0.618,0.251c-0.104-0.376-0.367-0.622-0.808-0.622
			c-0.514,0-0.878,0.381-0.878,0.95c0,0.567,0.363,0.947,0.882,0.947c0.441,0,0.7-0.241,0.804-0.622l0.618,0.251
			c-0.164,0.523-0.644,0.981-1.413,0.981c-0.878,0-1.543-0.653-1.543-1.556C24.701,26.925,25.366,26.272,26.248,26.272z"/></g><g><path style="fill:#000D6E" d="M17.162,26.332c-0.751,0-1.31,0.575-1.31,1.358c0,0.735,0.559,1.31,1.31,1.31
			c0.767,0,1.342-0.575,1.342-1.343C18.504,26.907,17.945,26.332,17.162,26.332z"/><path style="fill:#000D6E" d="M17.689,17c-1.902,0-3.244,1.054-3.595,2.652l2.221,0.719c0.112-0.655,0.591-1.103,1.23-1.103
			c0.623,0,1.023,0.335,1.023,0.975c0,1.438-2.429,1.805-2.429,4.138v0.591h2.029v-0.432c0-1.725,2.86-1.965,2.86-4.57
			C21.029,18.118,19.751,17,17.689,17z"/></g></g><g id="Guides" style="display:none"/><g id="Grid" style="display:none"><g style="display:inline"><g/><g/><g/><g/><g/><g/><g/><g/><g/><g/><g/><g/><g/><g/><g/><g/><g/><g/><g/><g/><g/><g/><g/><g/><g/><g/><g/><g/><g/><g/><g/><g/><g/><g/><g/><g/><g/><g/><g/><g/></g></g></svg>