<?xml version="1.0" encoding="iso-8859-1"?><!--Generator: Adobe Illustrator 26.2.1, SVG Export Plug-In . SVG Version: 6.00 Build 0)--><svg version="1.1" xmlns="http://www.w3.org/2000/svg" xmlns:xlink="http://www.w3.org/1999/xlink" x="0px" y="0px" viewBox="0 0 40 40" style="enable-background:new 0 0 40 40" xml:space="preserve" focusable="false" aria-hidden="true"><g id="Solid"><rect style="fill:none" width="40" height="40"/></g><g id="Icon_Purple"><g><g><path style="fill:#B8B2FF" d="M25,34L4,34c-0.552,0-1-0.448-1-1l0-10c0-0.552,0.448-1,1-1l21,0c0.552,0,1,0.448,1,1l0,10
				C26,33.552,25.552,34,25,34z"/></g><path style="fill:#6C2273" d="M8,34H3.979C3.438,34,3,33.552,3,33l0-10c0-0.552,0.438-1,0.979-1H8"/></g><g><path style="fill:#6C2273" d="M16.522,8c-0.276,0-0.5-0.224-0.5-0.5s0.224-0.5,0.5-0.5h18.251V6c0-1.105-0.895-2-2-2H16.001
			c-1.105,0-2,0.895-2,2v15H25c1.103,0,2,0.897,2,2v1h7.774h1.214v-4.602h-2.579c-1.896,0-3.438-1.542-3.438-3.438
			s1.542-3.438,3.438-3.438h2.579V9c0-0.552-0.448-1-1-1h-0.214H16.522z"/></g><g><path style="fill:#000D6E" d="M14.609,31.233c0-1.052,0.754-1.808,1.753-1.808c0.877,0,1.416,0.551,1.597,1.137l-0.7,0.29
			c-0.118-0.436-0.417-0.721-0.916-0.721c-0.583,0-0.994,0.44-0.994,1.102c0,0.655,0.411,1.096,0.999,1.096
			c0.5,0,0.793-0.28,0.911-0.721l0.7,0.29c-0.186,0.605-0.729,1.137-1.602,1.137C15.364,33.035,14.609,32.279,14.609,31.233z"/><path style="fill:#000D6E" d="M20.373,29.491h0.73v3.479h-0.73v-1.441h-1.298v1.441h-0.73v-3.479h0.73v1.371h1.298V29.491z"/><path style="fill:#000D6E" d="M23.991,30.137h-1.533v0.771h1.352v0.646h-1.352v1.416h-0.73v-3.479h2.263V30.137z"/></g><g><path style="fill:#B8B2FF" d="M30.971,15.961c0,1.344,1.093,2.438,2.438,2.438h3.603v-4.875h-3.603
			C32.064,13.523,30.971,14.617,30.971,15.961z"/></g><circle style="fill:#000D6E" cx="34" cy="16" r="1"/></g><g id="Guides" style="display:none"/><g id="Grid" style="display:none"><g style="display:inline"><g/><g/><g/><g/><g/><g/><g/><g/><g/><g/><g/><g/><g/><g/><g/><g/><g/><g/><g/><g/><g/><g/><g/><g/><g/><g/><g/><g/><g/><g/><g/><g/><g/><g/><g/><g/><g/><g/><g/><g/></g></g></svg>