<?xml version="1.0" encoding="UTF-8"?><svg xmlns="http://www.w3.org/2000/svg" viewBox="0 0 40 40" focusable="false" aria-hidden="true"><defs><style>.cls-1 {
        fill: none;
      }

      .cls-2 {
        fill: #6c2273;
      }

      .cls-3 {
        fill: #b8b2ff;
      }</style></defs><g id="Solid"><rect class="cls-1" width="40" height="40"/></g><g id="Icon_Purple" data-name="Icon Purple"><g><path class="cls-3" d="m10.307983,27.021484c-2.769287,2.666687-5.538635,5.333313-8.307983,8h7.11145c1.675232-2.666687,3.350525-5.333374,5.025757-8h-3.829224Z"/><path class="cls-3" d="m11.704529,35.021484h7.026184c.198792-2.664734.395935-5.329529.591492-7.994263-1.263672-.001892-2.52655-.003845-3.788696-.005737-1.276306,2.666687-2.552612,5.333313-3.828979,8Z"/><path class="cls-3" d="m20.759033,27.021484c.216736,2.666687.433411,5.333313.650085,8h6.940857c-1.275513-2.662842-2.554382-5.325684-3.836487-7.988525-1.252991-.003845-2.504456-.00769-3.754456-.011475Z"/><path class="cls-3" d="m29.741943,27.038635c-1.244507-.005737-2.486694-.011414-3.726624-.017151,1.709717,2.666687,3.419373,5.333313,5.129089,8h6.855591c-2.747742-2.66095-5.500427-5.321899-8.258057-7.982849Z"/></g><g><path class="cls-2" d="m15.682114,14.567091c-.277675.145448-.517627.273251-.759696.396911-.099019.050584-.106691.149606-.133262.235834-.392813,1.274755-.785295,2.549621-1.173442,3.825803-.229163.753459-.923163,1.160662-1.628041.947299-.661363-.200189-1.065665-.885691-.86906-1.549677.43408-1.466008.881501-2.92832,1.346535-4.384779.174585-.546788.547192-.964326,1.05557-1.236458,1.107388-.592779,2.218421-1.178958,3.334277-1.755622.520214-.268838,1.066255-.443254,1.667581-.319487,1.022314.210416,1.76789,1.246823,1.624609,2.279245-.297128,2.140963-.596464,4.281633-.902786,6.421295-.066872.467104.061616.838084.424449,1.144785.649849.549319,1.28464,1.116442,1.933474,1.666988.533739.452886.839266,1.019103.892054,1.716555.145523,1.92263.293757,3.845094.428029,5.768521.061067.874724-.59452,1.601137-1.462869,1.656564-.830924.053039-1.552218-.58403-1.620437-1.449611-.138611-1.758765-.269924-3.518113-.397742-5.277695-.010584-.145697-.061195-.241864-.170563-.335062-.980496-.835563-1.93402-1.704547-2.939998-2.507955-1.083062-.864966-1.420158-1.949145-1.199548-3.282683.20753-1.254462.362542-2.517613.539987-3.777036.006419-.045568.005699-.092143.010878-.183733Z"/><path class="cls-2" d="m19.186567,5.006444c1.367832-.003154,2.477316,1.097656,2.481895,2.462491.004618,1.377244-1.101569,2.492175-2.47691,2.496487-1.360459.004268-2.476202-1.105393-2.481564-2.468038-.005429-1.380181,1.095759-2.487756,2.47658-2.490941Z"/><path class="cls-2" d="m24.600569,17.269172c-1.012207-.782593-2.029907-1.557983-3.045471-2.336182-.193176-.148071-.400269-.306396-.605347-.463257l-.406494,2.928284c.834167.637207,1.667419,1.275635,2.500977,1.913696.224121.17157.47876.260132.759766.266174.548218.011841,1.047424-.331177,1.231628-.841431.191772-.531128.02771-1.109558-.435059-1.467285Z"/><path class="cls-2" d="m14.970442,21.970711c-.162354.504883-.323303,1.005493-.482056,1.498657-.625854,1.944702-1.25116,3.889587-1.878357,5.833862-.127441.395203-.122803.783691.046936,1.164368.255737.573669.842712.939331,1.458923.914429.65332-.026367,1.214172-.438599,1.419922-1.073059.666931-2.056458,1.323792-4.116089,1.993164-6.171936l-2.558533-2.166321Z"/></g></g></svg>