<?xml version="1.0" encoding="UTF-8"?><svg xmlns="http://www.w3.org/2000/svg" viewBox="0 0 40 40" focusable="false" aria-hidden="true"><g id="Solid"><rect width="40" height="40" fill="none"/></g><g id="Icon_Purple"><g><path d="M35.34228516,30.40509033c-.06286621,.10314941-.12347412,.20251465-.17596436,.28863525" stroke="#1b5951" stroke-linecap="round" stroke-linejoin="round" stroke-width="0px" fill="none"/><path d="M35.1663208,30.69372559c-.03997803,.06555176-.07739258,.12695312-.12194824,.20007324" stroke="#1b5951" stroke-linecap="round" stroke-linejoin="round" stroke-width="0px" fill="none"/><path d="M35.56756592,30.03546143c-.06103516,.10015869-.13476562,.22106934-.22528076,.36962891" stroke="#1b5951" stroke-linecap="round" stroke-linejoin="round" stroke-width="0px" fill="none"/><path d="M35.04437256,30.89379883c-.0256958,.04217529-.04437256,.07275391-.04437256,.07275391" stroke="#1b5951" stroke-linecap="round" stroke-linejoin="round" stroke-width="0px" fill="none"/><path d="M35.76928711,29.70465088c-.01019287,.01672363-.02642822,.04327393-.04223633,.06915283" stroke="#1b5951" stroke-linecap="round" stroke-linejoin="round" stroke-width="0px" fill="none"/><path d="M35.72705078,29.77380371c-.04187012,.06866455-.09625244,.15789795-.15948486,.26165771" stroke="#1b5951" stroke-linecap="round" stroke-linejoin="round" stroke-width="0px" fill="none"/><path d="M35.80004883,29.65423584c-.00085449,.00134277-.01190186,.01953125-.03076172,.05041504" stroke="#1b5951" stroke-linecap="round" stroke-linejoin="round" stroke-width="0px" fill="none"/><path d="M4.36102295,29.91833496c-.02618408-.04296875-.04931641-.08093262-.07043457-.11560059" stroke="#1b5951" stroke-linecap="round" stroke-linejoin="round" stroke-width="0px" fill="none"/><path d="M4.65771484,30.40509033c-.12854004-.21087646-.22595215-.37078857-.29669189-.48675537,.08624268,.14141846,.19287109,.31646729,.29669189,.48675537Z" fill="#1b5951"/><path d="M5,30.96655273c-.0168457-.02758789-.02819824-.04620361-.04437256-.07275391" stroke="#1b5951" stroke-linecap="round" stroke-linejoin="round" stroke-width="0px" fill="none"/><path d="M4.95562744,30.89379883c-.11444092-.18774414-.21276855-.34899902-.2979126-.4887085,.12487793,.20489502,.23858643,.39141846,.2979126,.4887085Z" fill="#1b5951"/><path d="M4.29058838,29.80273438c-.03570557-.05859375-.06030273-.09881592-.07391357-.12115479" stroke="#1b5951" stroke-linecap="round" stroke-linejoin="round" stroke-width="0px" fill="none"/><path d="M35.34228516,30.40509033c-.06286621,.10314941-.12347412,.20251465-.17596436,.28863525" stroke="#1b5951" stroke-linecap="round" stroke-linejoin="round" stroke-width="0px" fill="none"/><path d="M35.1663208,30.69372559c-.03997803,.06555176-.07739258,.12695312-.12194824,.20007324" stroke="#1b5951" stroke-linecap="round" stroke-linejoin="round" stroke-width="0px" fill="none"/><path d="M35.56756592,30.03546143c-.06103516,.10015869-.13476562,.22106934-.22528076,.36962891" stroke="#1b5951" stroke-linecap="round" stroke-linejoin="round" stroke-width="0px" fill="none"/><path d="M35.04437256,30.89379883c-.0256958,.04217529-.04437256,.07275391-.04437256,.07275391" stroke="#1b5951" stroke-linecap="round" stroke-linejoin="round" stroke-width="0px" fill="none"/><path d="M35.76928711,29.70465088c-.01019287,.01672363-.02642822,.04327393-.04223633,.06915283" stroke="#1b5951" stroke-linecap="round" stroke-linejoin="round" stroke-width="0px" fill="none"/><path d="M35.72705078,29.77380371c-.04187012,.06866455-.09625244,.15789795-.15948486,.26165771" stroke="#1b5951" stroke-linecap="round" stroke-linejoin="round" stroke-width="0px" fill="none"/><path d="M37.92596436,23.97485352c-.00274658-.01519775-3.50476074-14.97595215-3.50476074-14.97595215-.15179443-.70532227-.78417969-1.20269775-1.50537109-1.18395996-.72125244,.01867676-1.32696533,.54821777-1.44195557,1.26043701l-.01623535,.30023193,.55847168,7.38439941,.23712158,.03826904c1.27130127,.2052002,1.78601074,1.48614502,1.65576172,2.29309082l-1.43414307,8.88500977c-.04400635,.27264404-.30065918,.45794678-.57330322,.41394043-.27258301-.04400635-.45794678-.30065918-.41394043-.57324219l1.43414307-8.88500977c.04534912-.28100586-.13433838-1.03466797-.82788086-1.14660645h-.00024414l.00006104,.00067139c-.00842285-.00158691-.01672363-.00335693-.02520752-.00476074l-.96191406-.15527344c-.69348145-.11187744-1.10113525,.54693604-1.14648438,.82788086l-.79675293,4.93615723-.00384521,.02392578c-.00018311,.00018311-.00036621,.00030518-.00061035,.00048828-.09332275,.51397705-.49829102,.94036865-.96624756,1.43280029-.46240234,.48651123-1,1.05273438-1.37963867,1.82897949-.22064209,.53570557-.38140869,1.08685303-.47039795,1.63818359-.25213623,1.56231689-.34259033,9.68548584-.34259033,9.68548584h6.95361328s.23803711-4.06689453,2.04638672-7.03344727c1.04626465-1.72674561,2.2958374-3.7600708,2.34320068-3.83776855,.30462646-.49993896,.50708008-1.05102539,.59936523-1.62286377,.08093262-.50128174,.07714844-1.01861572-.01660156-1.53106689Z" fill="#6c2273"/><path d="M35.80004883,29.65423584c-.00085449,.00134277-.01190186,.01953125-.03076172,.05041504" stroke="#1b5951" stroke-linecap="round" stroke-linejoin="round" stroke-width="0px" fill="none"/><path d="M4.36102295,29.91833496c-.02618408-.04296875-.04931641-.08093262-.07043457-.11560059" stroke="#1b5951" stroke-linecap="round" stroke-linejoin="round" stroke-width="0px" fill="none"/><path d="M4.65771484,30.40509033c-.12854004-.21087646-.22595215-.37078857-.29669189-.48675537,.08624268,.14141846,.19287109,.31646729,.29669189,.48675537Z" fill="#1b5951"/><path d="M5,30.96655273c-.0168457-.02758789-.02819824-.04620361-.04437256-.07275391" stroke="#1b5951" stroke-linecap="round" stroke-linejoin="round" stroke-width="0px" fill="none"/><path d="M4.95562744,30.89379883c-.11444092-.18774414-.21276855-.34899902-.2979126-.4887085,.12487793,.20489502,.23858643,.39141846,.2979126,.4887085Z" fill="#1b5951"/><path d="M4.29058838,29.80273438c-.03570557-.05859375-.06030273-.09881592-.07391357-.12115479" stroke="#1b5951" stroke-linecap="round" stroke-linejoin="round" stroke-width="0px" fill="none"/><path d="M13.18701172,26.67633057c-.37963867-.77624512-.91723633-1.34246826-1.37963867-1.82897949-.46795654-.49243164-.8729248-.91882324-.96624756-1.43280029-.00024414-.00018311-.00042725-.00030518-.00061035-.00048828l-.00384521-.02392578-.79675293-4.93615723c-.04534912-.28094482-.45300293-.9397583-1.14648438-.82788086l-.96191406,.15527344c-.00848389,.00140381-.01678467,.00317383-.02520752,.00476074l.00006104-.00067139h-.00024414c-.69354248,.11193848-.87322998,.86560059-.82788086,1.14660645l1.43414307,8.88500977c.04400635,.27258301-.14135742,.52923584-.41394043,.57324219-.27264404,.04400635-.52929688-.14129639-.57330322-.41394043l-1.43414307-8.88500977c-.13024902-.8069458,.38446045-2.08789062,1.65576172-2.29309082l.23712158-.03826904,.55847168-7.38439941-.01623535-.30023193c-.11499023-.71221924-.72070312-1.24176025-1.44195557-1.26043701-.72119141-.01873779-1.35357666,.4786377-1.50537109,1.18395996,0,0-3.50201416,14.96075439-3.50476074,14.97595215-.09375,.51245117-.09753418,1.02978516-.01660156,1.53106689,.09228516,.57183838,.29473877,1.1229248,.59936523,1.62286377,.04736328,.07769775,1.29693604,2.11102295,2.34320068,3.83776855,1.80841064,2.96655273,2.04638672,7.03344727,2.04638672,7.03344727h6.95361328s-.0904541-8.12316895-.34259033-9.68548584c-.08898926-.55133057-.24975586-1.10247803-.47039795-1.63818359Z" fill="#6c2273"/><g><path d="M23.17822266,14.29589844v-.01251221h-6.38446045v.0355835c-.40582275,.26190186-5.0032959,6.96966553-2.03643799,9.87542725,.47174072,.46209717,1.09967041,.77331543,1.80761719,.77331543h6.87005615c.70800781,0,1.33587646-.31121826,1.80767822-.77331543,3.0223999-2.96008301-1.81549072-9.88165283-2.06445312-9.89849854Zm0,1.98162842v-.13745117c.00610352,.04638672,.00610352,.09106445,0,.13745117Z" fill="#b8b2ff"/><path d="M16.39489137,9.61495061c-.05420708-.32528353,.19658278-.62136915,.5263425-.62136915h6.21085792c.32971865,0,.58054958,.29608562,.5263425,.62136915l-.43004281,2.58033897h-6.40345731s-.43004281-2.58033897-.43004281-2.58033897Z" fill="#b8b2ff"/><path d="M23.03476545,16.08694702c-.20919004,.20836872-.54835386,.20836872-.75754389,0l-2.27994142-2.27115331-2.27985929,2.27115331c-.10393796,.10348624-.23998951,.15502403-.37616426,.15572215-.13802272,.00069812-.27616863-.05083967-.38146177-.15572215-.20919004-.20840978-.20919004-.54630056,0-.75466928l1.54408036-1.53808473,.53369331-.53164001h-2.2126343v-1.06726342h6.40345731v1.06726342h-2.27131757s2.07769154,2.06972474,2.07769154,2.06972474c.20919004,.20836872,.20919004,.54625949,0,.75466928Z" fill="#000d6e"/></g></g></g></svg>