<svg xmlns="http://www.w3.org/2000/svg" viewBox="0 0 40 40" focusable="false" aria-hidden="true"><defs><style>.cls-1,.cls-2{fill:none;}.cls-2{stroke:#1b5951;stroke-linecap:round;stroke-linejoin:round;stroke-width:0;}.cls-3{fill:#d9304c;}.cls-4{fill:#1b5951;}.cls-5{fill:#ffaca6;}.cls-6{fill:#000d6e;}</style></defs><g id="Solid"><rect class="cls-1" width="40" height="40"/></g><g id="Icon_Red" data-name="Icon Red"><path class="cls-2" d="M35.3423,30.4051l-.176.2886"/><path class="cls-2" d="M35.1663,30.6937l-.1219.2"/><path class="cls-2" d="M35.5676,30.0355l-.2253.37"/><path class="cls-2" d="M35.0444,30.8938,35,30.9666"/><path class="cls-2" d="M35.7693,29.7047l-.0422.0691"/><path class="cls-2" d="M35.7271,29.7738l-.16.2617"/><path class="cls-3" d="M37.926,23.9749c-.0028-.0152-3.5048-14.976-3.5048-14.976a1.5,1.5,0,0,0-2.9473.0765l-.0163.3.5585,7.3844.2371.0383a2.06,2.06,0,0,1,1.6558,2.2931l-1.4341,8.885a.5.5,0,0,1-.9873-.1593l1.4342-8.885a1.0684,1.0684,0,0,0-.8279-1.1466h0l0,.0006-.0252-.0047-.9619-.1553a1.0682,1.0682,0,0,0-1.1465.8279L29.1633,23.39l-.0038.024-.0006,0a3.1258,3.1258,0,0,1-.9663,1.4328,7.2918,7.2918,0,0,0-1.38,1.8289,7.4219,7.4219,0,0,0-.47,1.6382C26.0905,29.8768,26,38,26,38h6.9536A17.5991,17.5991,0,0,1,35,30.9666c1.0463-1.7268,2.2958-3.76,2.3432-3.8378a4.4969,4.4969,0,0,0,.5828-3.1539Z"/><path class="cls-2" d="M35.8,29.6542l-.0307.05"/><path class="cls-2" d="M4.361,29.9183l-.07-.1156"/><path class="cls-4" d="M4.6577,30.4051c-.1285-.2109-.2259-.3708-.2967-.4868Z"/><path class="cls-2" d="M5,30.9666l-.0444-.0728"/><path class="cls-4" d="M4.9556,30.8938l-.2979-.4887Z"/><path class="cls-2" d="M4.2906,29.8027l-.0739-.1211"/><path class="cls-3" d="M13.187,26.6763a7.2918,7.2918,0,0,0-1.38-1.8289,3.1258,3.1258,0,0,1-.9663-1.4328l-.0006,0-.0038-.024L10.04,18.454a1.0682,1.0682,0,0,0-1.1465-.8279l-.9619.1553-.0252.0047,0-.0006h0a1.0684,1.0684,0,0,0-.8279,1.1466l1.4342,8.885a.5.5,0,0,1-.9873.1593L6.091,19.0914a2.06,2.06,0,0,1,1.6558-2.2931l.2371-.0383.5585-7.3844-.0163-.3a1.5,1.5,0,0,0-2.9473-.0765S2.0768,23.96,2.074,23.9749a4.4969,4.4969,0,0,0,.5828,3.1539C2.7042,27.2065,3.9537,29.24,5,30.9666A17.5972,17.5972,0,0,1,7.0464,38H14s-.0905-8.1232-.3426-9.6855A7.4219,7.4219,0,0,0,13.187,26.6763Z"/><path class="cls-5" d="M20,8a7.5,7.5,0,1,0,7.5,7.5A7.5,7.5,0,0,0,20,8Zm.5,7.707-3.6445,3.6446a.5.5,0,0,1-.7071-.7071L19.5,15.293V10.999a.5.5,0,0,1,1,0Z"/><path class="cls-6" d="M20,10.499a.5.5,0,0,0-.5.5v4.294l-3.3516,3.3515a.5.5,0,0,0,.7071.7071L20.5,15.707V10.999A.5.5,0,0,0,20,10.499Z"/></g></svg>