<svg xmlns="http://www.w3.org/2000/svg" viewBox="0 0 40 40" focusable="false" aria-hidden="true"><defs><style>.cls-1{fill:none;}.cls-2{fill:#6c2273;}.cls-3{fill:#b8b2ff;}.cls-4{fill:#000d6e;}</style></defs><g id="Solid"><rect class="cls-1" width="40" height="40"/></g><g id="Icon_Purple" data-name="Icon Purple"><path class="cls-2" d="M19.5,32.5068a.5.5,0,0,0,1,0V27h-1Z"/><path class="cls-2" d="M12.2876,32.19a.5.5,0,0,0,.707.7071L18.8921,27H17.478Z"/><path class="cls-2" d="M27.0151,32.8975a.5.5,0,0,0,.7071-.7071L22.5317,27h-1.414Z"/><path class="cls-3" d="M32.9865,9h-26V27h26ZM14.5942,12.015a4.0117,4.0117,0,0,1,3.47,3.47h-3.47Zm-.5,7.97a4.0007,4.0007,0,0,1-.5-7.97v4.47h4.47A4.0072,4.0072,0,0,1,14.0942,19.985ZM29.5,18.999h-7a.5.5,0,0,1,0-1h7a.5.5,0,0,1,0,1Zm0-3h-7a.5.5,0,0,1,0-1h7a.5.5,0,0,1,0,1Zm0-3h-7a.5.5,0,0,1,0-1h7a.5.5,0,0,1,0,1Z"/><path class="cls-4" d="M29.5,11.999h-7a.5.5,0,0,0,0,1h7a.5.5,0,0,0,0-1Z"/><path class="cls-4" d="M29.5,14.999h-7a.5.5,0,0,0,0,1h7a.5.5,0,0,0,0-1Z"/><path class="cls-4" d="M29.5,17.999h-7a.5.5,0,0,0,0,1h7a.5.5,0,0,0,0-1Z"/><path class="cls-2" d="M13.5942,16.485v-4.47a4.0007,4.0007,0,1,0,4.47,4.47Z"/><path class="cls-2" d="M14.5942,12.015v3.47h3.47A4.0117,4.0117,0,0,0,14.5942,12.015Z"/></g></svg>