<svg id="Calque_1" data-name="Calque 1" xmlns="http://www.w3.org/2000/svg" viewBox="0 0 40 40" focusable="false" aria-hidden="true"><defs><style>.cls-1{fill:none;}.cls-2{fill:#000d6e;}.cls-3{fill:#f4da52;}.cls-4{fill:#f48d19;}</style></defs><path class="cls-1" d="M0,0H40V40H0Z"/><path class="cls-2" d="M37.1,36.09H28.92a1,1,0,0,0,0,2H37.1a1,1,0,0,0,0-2Zm0-3H28.92a1,1,0,0,0,0,2H37.1a1,1,0,0,0,0-2Zm0-3H28.92a1,1,0,0,0,0,2H37.1a1,1,0,0,0,0-2Z"/><circle class="cls-3" cx="14.59" cy="11.73" r="0.81"/><path class="cls-3" d="M10.35,11.14a.81.81,0,0,0-.77.85.77.77,0,1,0,.77-.85Z"/><path class="cls-2" d="M8.23,11.65c0-.29-.09-.78,0-1.32.07-.83.5-1.5.06-1.62l-.1,0c-.62,0-1.18.67-1.26,1.56a1.59,1.59,0,0,0,.72,1.62.73.73,0,0,1,.51-.25A.45.45,0,0,1,8.23,11.65Zm4.21,2.64c-.9,0-1.62.48-1.61,1.1s.72.19,1.62.2,1.64.48,1.63-.15-.74-1.13-1.64-1.15Zm4.2-4c0,.56-.08,1.05,0,1.34a.53.53,0,0,1,.18-.05.71.71,0,0,1,.48.22,1.57,1.57,0,0,0,.67-1.59c-.07-.89-.63-1.59-1.25-1.56h-.05c-.53.08-.06.76,0,1.63Z"/><path class="cls-3" d="M10.33,21.42a2.6,2.6,0,0,0,4.24-.2h0c0-.47,0-.93,0-1.4,0-.62-.06-1-.06-1v-1a5.7,5.7,0,0,0,2.22-3.62h.06a.68.68,0,0,0,.4-.15,1.33,1.33,0,0,0,.5-1.1v-.05a1.48,1.48,0,0,0-.42-1.08.71.71,0,0,0-.48-.22.53.53,0,0,0-.18.05c0-.29.09-.79,0-1.34-.07-.87-.54-1.55,0-1.63A4.46,4.46,0,0,0,12.45,6h0A4.45,4.45,0,0,0,8.25,8.71c.44.12,0,.79-.06,1.62,0,.54.07,1,0,1.32a.45.45,0,0,0-.11,0,.73.73,0,0,0-.51.25,1.49,1.49,0,0,0-.39,1.05,1.78,1.78,0,0,0,.08.53s0,.06,0,.1a.93.93,0,0,0,.78.67h.13a5.7,5.7,0,0,0,2.16,3.59v1.06s0,.35-.06,1C10.33,20.24,10.32,20.78,10.33,21.42Zm2.12-5.83c-.9,0-1.62.42-1.62-.2s.71-1.11,1.61-1.1,1.64.53,1.64,1.15S13.35,15.61,12.45,15.59Zm-2.1-1.83A1.81,1.81,0,1,1,12,11.3h.81a1.81,1.81,0,1,1,0,1h-.76a1.82,1.82,0,0,1-1.77,1.46Z"/><path class="cls-4" d="M12.12,12.3h.76a1.8,1.8,0,1,0,0-1H12a1.8,1.8,0,1,0,.09,1Zm2.47-1.38a.81.81,0,1,1-.81.81.81.81,0,0,1,.81-.81Zm-4.24,1.84a.81.81,0,0,1,0-1.62.81.81,0,0,1,.77.85A.82.82,0,0,1,10.35,12.76Zm.07,10.53v-.1q-.08-.89-.09-1.77c0-.53,0-1.07,0-1.6s.06-1,.06-1l-.09,0L3.9,22.14a2.64,2.64,0,0,0-1.42,2L2,29.42h9.15s-.22-1.48-.48-3.74c-.06-.5-.12-1-.18-1.6,0-.27-.05-.53-.06-.79Z"/><path class="cls-2" d="M20.08,15.39l0-1.66,8,.06,0,1.62a1,1,0,0,1,.63.79,5.19,5.19,0,0,0-1.6-6.72c0-.07,0-.13,0-.2a3,3,0,1,0-6,0,1.8,1.8,0,0,0,0,.22,5.22,5.22,0,0,0-2.26,4.26,5.11,5.11,0,0,0,.57,2.36A.88.88,0,0,1,20.08,15.39Z"/><path class="cls-3" d="M22.07,23.36A3.52,3.52,0,0,0,24,24a3.58,3.58,0,0,0,1.89-.56,15.05,15.05,0,0,0,0-2.56h0a4.84,4.84,0,0,0,.63-.57h0a5.55,5.55,0,0,0,1.34-2.58h.05c.45,0,.81-.52.81-1.16a1.27,1.27,0,0,0-.05-.34,1,1,0,0,0-.62-.79l0-1.62-7.95-.06,0,1.66a.9.9,0,0,0-.68.69,1.76,1.76,0,0,0-.06.46c0,.64.36,1.16.81,1.16h.05a5,5,0,0,0,1.9,3.16l0,0h0A15.31,15.31,0,0,0,22.07,23.36Z"/><path class="cls-4" d="M22.1,20.86h0l-1.49.75-.3.16L14.5,18.85s0,.35.06,1a29.16,29.16,0,0,1-.07,3.37v.13l-.06.76q-.28,2.67-.66,5.34h9a47.87,47.87,0,0,1-.73-6.06,15.81,15.81,0,0,1,0-2.5ZM27,24a5.8,5.8,0,0,1,.49-2.36l-.14-.07-1.5-.76h0a14.88,14.88,0,0,1,0,2.55,50.4,50.4,0,0,1-.72,6h5.16A6,6,0,0,1,27,24Z"/><path class="cls-2" d="M33,19a5,5,0,1,0,5,5A5,5,0,0,0,33,19Zm.2,4.2-.1.6H31.8v.3h1.3l-.1.6H32a1.15,1.15,0,0,0,1.1.6,1.1,1.1,0,0,0,1-.6l.8.5a1.92,1.92,0,0,1-1.8.9A2.16,2.16,0,0,1,31,24.6h-.6l.1-.6h.4v-.3h-.3l.1-.6H31a2.26,2.26,0,0,1,2.1-1.5,2.14,2.14,0,0,1,1.8.9l-.8.5a1.1,1.1,0,0,0-1-.6A1.38,1.38,0,0,0,32,23h1.2Z"/></svg>