<?xml version="1.0" encoding="UTF-8"?><svg xmlns="http://www.w3.org/2000/svg" viewBox="0 0 40 40" focusable="false" aria-hidden="true"><defs><style>.cls-1{fill:none;}.cls-2{fill:#000d6e;}.cls-3{fill:#6c2273;}.cls-4{fill:#b8b2ff;}</style></defs><g id="Solid"><rect class="cls-1" width="40" height="40"/></g><g id="Icon_Purple"><path class="cls-2" d="M37.09884,36.08566h-8.18182c-.5021,0-.90909,.44775-.90909,1,0,.54266,.3944,.97919,.88434,.99451,.00871,.00024,.01598,.00549,.02475,.00549h8.18182c.5021,0,.90909-.44769,.90909-1,0-.55225-.40699-1-.90909-1Z"/><path class="cls-2" d="M37.09884,33.0845h-8.18182c-.5021,0-.90909,.44775-.90909,1,0,.55231,.40699,1,.90909,1h8.18182c.5021,0,.90909-.44769,.90909-1,0-.55225-.40699-1-.90909-1Z"/><path class="cls-2" d="M37.09884,30.08334h-8.18182c-.5021,0-.90909,.44769-.90909,1s.40699,1,.90909,1h8.18182c.5021,0,.90909-.44769,.90909-1s-.40699-1-.90909-1Z"/><g><circle class="cls-4" cx="14.58745" cy="11.73145" r=".80688"/><path class="cls-4" d="M10.35015,11.1416c-.44482,0-.80713,.3623-.80713,.80664,0,.44531,.3623,.80762,.80713,.80762s.80664-.3623,.80664-.80762c0-.44434-.36182-.80664-.80664-.80664Z"/><path class="cls-2" d="M8.23192,11.64813c.03271-.29199-.08868-.77502-.04401-1.31793,.0686-.83331,.49829-1.49945,.06378-1.61731-.0332-.00903-.05975-.02222-.10376-.02454-.61969-.03302-1.18195,.66742-1.2558,1.56439-.06268,.76123,.24835,1.41449,.72217,1.61646,.14685-.14722,.31555-.25281,.50818-.25281,.03882,0,.0719,.02496,.10944,.03174Z"/><path class="cls-2" d="M12.44091,14.29443c-.8999-.0144-1.62286,.47693-1.61487,1.09741,.008,.62054,.72327,.18622,1.62317,.20062,.8999,.01447,1.64368,.47217,1.63562-.14832-.008-.62054-.74402-1.13525-1.64392-1.14972Z"/><path class="cls-2" d="M16.63921,10.3302c.04565,.55475-.08362,1.04926-.04309,1.33887,.06055-.01831,.11707-.05267,.18146-.05267,.18152,0,.34082,.09607,.4826,.22809,.44629-.22491,.73535-.85675,.6748-1.59174-.07385-.89697-.63611-1.59741-1.2558-1.56439-.02222,.00116-.03296,.00952-.05231,.01239-.52167,.07806-.0589,.76459,.01233,1.62946Z"/><path class="cls-4" d="M10.33373,21.41827c.47864,.60663,1.21179,1.0033,2.04443,1.0033,.92212,0,1.72876-.4801,2.19403-1.20135h.00897c.00677-.55212-.00153-1.02802-.01703-1.39789-.02612-.62195-.06659-.97083-.06659-.97083l.00684-1.02203c1.08264-.73669,1.89728-2.04633,2.21515-3.62256l.01642,.00226c.01459,.00098,.02686,.01208,.04163,.01208,.1452,0,.27728-.05988,.39899-.14709,.2973-.2041,.50659-.61597,.50659-1.10382,0-.00854-.00287-.01587-.00299-.02435,.00012-.00958,.00385-.01752,.00385-.02716,0-.45844-.17462-.84222-.42383-1.07434-.14178-.13202-.30109-.22809-.4826-.22809-.06439,0-.12091,.03436-.18146,.05267-.04053-.28961,.08875-.78412,.04309-1.33887-.07123-.86487-.534-1.55139-.01233-1.62946-.47833-1.39734-2.1441-2.69214-4.17609-2.69995v-.00079l-.00909,.00043-.00916-.00043v.00079c-2.03778,.00787-3.70764,1.31018-4.18085,2.7121,.43451,.11786,.00482,.784-.06378,1.61731-.04468,.54291,.07672,1.02594,.04401,1.31793-.03754-.00677-.07062-.03174-.10944-.03174-.19263,0-.36133,.10559-.50818,.25281-.23474,.23541-.39825,.60712-.39825,1.04962,0,.1897,.03113,.36713,.08191,.52972,.01147,.03766,.03345,.06531,.04742,.10107,.15582,.39417,.43909,.67163,.7771,.67163,.01129,0,.02063-.00861,.0318-.00922,.03302-.00238,.06555-.00751,.09778-.01355,.31085,1.5509,1.10089,2.84747,2.15582,3.59259l.00549,1.06042s-.04053,.34888-.06665,.97083c-.01727,.41229-.02502,.95892-.013,1.59595Zm2.11548-5.82581c-.8999-.0144-1.61517,.41992-1.62317-.20062-.008-.62048,.71497-1.11182,1.61487-1.09741,.8999,.01447,1.63593,.52917,1.64392,1.14972,.00806,.62048-.73572,.16278-1.63562,.14832Zm-2.09906-1.83661c-.99658,0-1.80713-.81055-1.80713-1.80762,0-.99609,.81055-1.80664,1.80713-1.80664,.76837,0,1.42181,.48438,1.6825,1.16211h.80444c.19342-.78931,.90192-1.37891,1.75037-1.37891,.99658,0,1.80713,.81055,1.80713,1.80664s-.81055,1.80664-1.80713,1.80664c-.79529,0-1.46454-.51965-1.70544-1.23438h-.76111c-.16559,.82715-.89624,1.45215-1.77075,1.45215Z"/><path class="cls-3" d="M12.1209,12.30371h.76111c.24091,.71472,.91016,1.23438,1.70544,1.23438,.99658,0,1.80713-.81055,1.80713-1.80664s-.81055-1.80664-1.80713-1.80664c-.84845,0-1.55695,.5896-1.75037,1.37891h-.80444c-.26068-.67773-.91412-1.16211-1.6825-1.16211-.99658,0-1.80713,.81055-1.80713,1.80664,0,.99707,.81055,1.80762,1.80713,1.80762,.87451,0,1.60516-.625,1.77075-1.45215Zm2.46655-1.37891c.44482,0,.80713,.3623,.80713,.80664s-.3623,.80664-.80713,.80664-.80713-.3623-.80713-.80664,.3623-.80664,.80713-.80664Zm-4.2373,1.83105c-.44482,0-.80713-.3623-.80713-.80762,0-.44434,.3623-.80664,.80713-.80664s.80664,.3623,.80664,.80664c0,.44531-.36182,.80762-.80664,.80762Z"/><path class="cls-3" d="M10.42418,23.29303l-.00806-.10419c-.01166-.15454-.02222-.30554-.03131-.45337-.02966-.48151-.04352-.9137-.05109-1.3172-.01202-.63702-.00427-1.18365,.013-1.59595,.02612-.62195,.06665-.97083,.06665-.97083l-.09528,.04816-6.42114,3.24432c-.77734,.39276-1.30823,1.14655-1.41626,2.01074l-.48071,5.26337H11.14849s-.22021-1.474-.47943-3.74316c-.05695-.49872-.11517-1.02252-.17401-1.59247-.02814-.27258-.05072-.53375-.07086-.78943Z"/><path class="cls-2" d="M20.08263,15.39038c.00531-.51849,.01178-1.15985,.01685-1.66144l7.94604,.05682c-.005,.50018-.01123,1.12384-.0163,1.62598,.30096,.07727,.53827,.37775,.62598,.79095,.38397-.72229,.62439-1.53296,.63055-2.40808,.01257-1.78613-.87219-3.36578-2.22815-4.32007,.00464-.0647,.0202-.12604,.02069-.19183,.01172-1.65686-1.3219-3.00952-2.9787-3.02136-1.6568-.01178-3.0094,1.32172-3.02112,2.97852-.00055,.07434,.0155,.14417,.02032,.21716-1.35101,.93738-2.24585,2.49091-2.25836,4.26288-.00598,.85059,.21002,1.64362,.56421,2.3562,.1156-.38513,.37427-.64862,.67798-.68573Z"/><path class="cls-4" d="M22.06499,23.35852c.56067,.36481,1.21521,.59515,1.93561,.59515,.69977,0,1.33649-.21906,1.8869-.56506,.08215-1.75134-.03375-2.55341-.03375-2.55341l.01001,.00507-.00726-.00433c.22931-.16125,.43787-.35583,.63605-.56433l.00543-.00586c.63818-.67389,1.11005-1.56677,1.34674-2.57117,.01544,.00201,.0304,.00671,.04626,.00671,.44781,0,.81085-.52161,.81085-1.16504,0-.11829-.0238-.22601-.04663-.33356-.08771-.41321-.32501-.71368-.62598-.79095,.00507-.50214,.01129-1.12579,.0163-1.62598l-7.94604-.05682c-.00507,.50159-.01154,1.14294-.01685,1.66144-.30371,.03711-.56238,.3006-.67798,.68573-.04248,.14136-.06683,.29639-.06683,.46014,0,.64343,.36304,1.16504,.81085,1.16504,.01715,0,.03333-.00543,.05017-.00726,.26678,1.3324,.94373,2.47998,1.9057,3.16046-.00977,.00519-.01807,.01172-.02777,.01697l.02405-.01215s-.11279,.78741-.03583,2.49921Z"/><path class="cls-3" d="M22.10082,20.85931l-.02405,.01215-1.48444,.75-.30627,.15479-5.78851-2.92474s.04047,.34888,.06659,.97083c.0155,.36987,.0238,.84576,.01703,1.39789-.00555,.45337-.02069,.95544-.05511,1.51526-.00909,.14783-.01965,.29889-.03131,.45337l-.00989,.12805c-.01978,.24817-.04175,.50153-.06903,.76556-.05884,.56995-.11707,1.09375-.17401,1.59247-.25922,2.26917-.47943,3.74316-.47943,3.74316h.46375l-.00055,.00458h8.56335l-.00079-.00458c-.47418-2.68256-.66083-4.67334-.72314-6.05957-.07697-1.71179,.03583-2.49921,.03583-2.49921Z"/><path class="cls-3" d="M27.00792,24.03491c0-.84125,.1756-1.64178,.48956-2.3692l-.13531-.06836-1.49841-.75708-.01001-.00507s.11591,.80206,.03375,2.55341c-.06494,1.38452-.25348,3.36145-.72192,6.00989h5.16882c-1.96857-.98541-3.32648-3.01648-3.32648-5.36359Z"/></g><path class="cls-2" d="M33.00792,19.03491c-2.76141,0-5,2.23859-5,5s2.23859,5,5,5,5-2.23859,5-5-2.23853-5-5-5Zm-2.33209,5.64868c.36719,0,.5835-.20117,.66992-.51855l.51465,.20898c-.13672,.43555-.53662,.81738-1.17725,.81738-.73145,0-1.28564-.54395-1.28564-1.29688,0-.75586,.5542-1.2998,1.28906-1.2998,.64453,0,1.04053,.39648,1.17383,.81738l-.51465,.20898c-.08643-.31348-.30615-.51855-.67334-.51855-.42871,0-.73145,.31738-.73145,.79199,0,.47266,.30273,.78906,.73486,.78906Zm3.63965,.46094h-.53662v-1.03711h-.9541v1.03711h-.53662v-2.50293h.53662v.9873h.9541v-.9873h.53662v2.50293Zm1.14111-2.03809v.55469h.99365v.46387h-.99365v1.01953h-.53662v-2.50293h1.66357v.46484h-1.12695Z"/></g></svg>