<svg xmlns="http://www.w3.org/2000/svg" viewBox="0 0 40 40" focusable="false" aria-hidden="true"><defs><style>.cls-1{fill:none;}.cls-2{fill:#ffaca6;}.cls-3{fill:#000d6e;}.cls-4{fill:#d9304c;}</style></defs><g id="Solid"><rect class="cls-1" width="40" height="40"/></g><g id="Icon_Red" data-name="Icon Red"><path class="cls-2" d="M24.06,23a5.5,5.5,0,1,0-5.5-5.5A5.5,5.5,0,0,0,24.06,23Zm2.0786-6.9824h1.8471v.5156H26.7344v.6152h1.1035v.5157H26.7344v1.1318h-.5957Zm-2.9239,0h.5957v1.0957h1.06V16.0176h.5957v2.7783H24.87V17.6445h-1.06v1.1514h-.5957Zm-1.7807-.0518a1.3115,1.3115,0,0,1,1.3032.9072l-.5718.2315a.7239.7239,0,0,0-.7475-.5752.88.88,0,0,0,.0039,1.7549.7161.7161,0,0,0,.7436-.5762l.5718.2324a1.3058,1.3058,0,0,1-1.3076.9073,1.441,1.441,0,0,1,.0044-2.8819Z"/><path class="cls-3" d="M21.43,18.8477a1.3058,1.3058,0,0,0,1.3076-.9073l-.5718-.2324a.7161.7161,0,0,1-.7436.5762.88.88,0,0,1-.0039-1.7549.7239.7239,0,0,1,.7475.5752l.5718-.2315a1.3115,1.3115,0,0,0-1.3032-.9072,1.441,1.441,0,0,0-.0044,2.8819Z"/><polygon class="cls-3" points="23.811 17.645 24.87 17.645 24.87 18.796 25.466 18.796 25.466 16.018 24.87 16.018 24.87 17.113 23.811 17.113 23.811 16.018 23.215 16.018 23.215 18.796 23.811 18.796 23.811 17.645"/><polygon class="cls-3" points="26.734 17.664 27.838 17.664 27.838 17.148 26.734 17.148 26.734 16.533 27.986 16.533 27.986 16.018 26.139 16.018 26.139 18.796 26.734 18.796 26.734 17.664"/><path class="cls-2" d="M6.9382,23.0077H5.0267v7.9857H6.9382A1.0831,1.0831,0,0,0,8.0213,29.91V24.0908A1.0831,1.0831,0,0,0,6.9382,23.0077Z"/><path class="cls-4" d="M34.9473,26.2246a1.4972,1.4972,0,0,0-1.4715-1.22l-.2984.0317-7.1882,1.7249v.24a2.0567,2.0567,0,0,1-1.9965,1.9965H15.0089a.4991.4991,0,1,1,0-.9982h8.9838a1.0664,1.0664,0,0,0,.9983-.9983v0l-.0006,0,.0006-.0256v-.9728c0-.0219-.0007-.0433-.0021-.0644l-.001-.01a.95.95,0,0,0-.43-.7168l-.0081-.0053c-.0247-.0168-.05-.0327-.0746-.0473L24.46,25.15c-.0228-.0129-.0456-.0251-.0684-.0362l-.0064-.003-.0351-.0164-.0351-.0149-.006-.0025-.0266-.01-.0139-.0053-.0284-.01-.0113-.0039-.026-.0079-.0125-.0039-.0076-.0019c-.0226-.0063-.0446-.0117-.0656-.016l-.0038-.0006a.6305.6305,0,0,0-.1207-.0134H18.9775l-.0006-.0005a3.12,3.12,0,0,1-1.5656-.7244l-.0928-.0634-.0226-.0153-.083-.0564-.0189-.0128q-.1035-.07-.2115-.14l-.01-.0067c-.0346-.0225-.07-.0451-.105-.0675l-.0055-.0035q-.115-.0729-.2357-.1445l-.0005,0a5.6407,5.6407,0,0,0-1.2361-.5578A7.4117,7.4117,0,0,0,13.7,23.0077H10.0233A1.0038,1.0038,0,0,0,9.02,24.0115v3.9873h.0047c-.0027.0372-.0047.0746-.0047.1122v1.8842s-.0009.6418.9973.9982,6.4682,2.6119,6.6017,2.6663a4.49,4.49,0,0,0,3.2008.0727c.0145-.0052,14.2007-5.836,14.2007-5.836A1.4974,1.4974,0,0,0,34.9473,26.2246Z"/></g></svg>