<?xml version="1.0" encoding="UTF-8"?><svg xmlns="http://www.w3.org/2000/svg" viewBox="0 0 40 40" focusable="false" aria-hidden="true"><defs><style>.cls-1{fill:none;}.cls-2{fill:#fa9319;}.cls-3{fill:#000d6e;}.cls-4{fill:#fff;}.cls-5{fill:#fae052;}.cls-6{fill:#d9304c;}</style></defs><g id="Solid"><rect class="cls-1" width="40" height="40"/></g><g id="Icon_Tangerine"><path class="cls-2" d="M28,9.84107434c0-1.01611239-.82995605-1.84107432-1.85998535-1.84107432H3.85998535c-1.02996826,0-1.85998535,.82496193-1.85998535,1.84107432v3.15892568H28v-3.15892568Z"/><path class="cls-3" d="M8,11.00000001c.55230713,0,1-.44769287,1-1V6.00000001c0-.55224609-.44769287-1-1-1-.55224609,0-1,.44775391-1,1v4c0,.55230713,.44775391,1,1,1Z"/><path class="cls-3" d="M22,11.00000001c.55230713,0,1-.44769287,1-1V6.00000001c0-.55224609-.44769287-1-1-1-.55224609,0-1,.44775391-1,1v4c0,.55230713,.44775391,1,1,1Z"/><path class="cls-5" d="M18.09448242,29.88537599c-.03173828-.21142578-.05230713-.41741943-.06066895-.59869385-.02276611-.2612915-.03381348-.51861572-.03381348-.78668213,0-.35656738,.01861572-.70880127,.05352783-1.05621338,.01281738-.12744141,.03869629-.25061035,.05603027-.37664795,.02984619-.21697998,.05609131-.43511963,.09906006-.64764404,.03186035-.15759277,.07757568-.30981445,.11639404-.46484375,.04382324-.17474365,.08221436-.3515625,.13470459-.52276611,.05352783-.17474365,.1206665-.34313965,.18292236-.51391602,.05249023-.14367676,.0993042-.28973389,.15783691-.43041992,.07775879-.18719482,.168396-.36706543,.25653076-.54864502,.05651855-.11627197,.10778809-.23529053,.16845703-.34912109,.10449219-.19665527,.22125244-.38513184,.33770752-.57409668,.05554199-.08990479,.10656738-.18267822,.16467285-.27075195,.1340332-.20361328,.27954102-.39819336,.42706299-.59161377,.04986572-.06530762,.09625244-.13317871,.14764404-.19726562,.1651001-.20635986,.34094238-.40289307,.52081299-.59613037,.04083252-.04370117,.07897949-.08959961,.12054443-.13262939,.1965332-.20410156,.40319824-.39746094,.61553955-.58526611,.02984619-.02630615,.05810547-.05426025,.08825684-.08026123,.22729492-.19647217,.46398926-.38134766,.7076416-.55804443,.01824951-.01318359,.03564453-.02728271,.05395508-.04034424,.25640869-.18353271,.52154541-.35418701,.79437256-.51446533,.00720215-.00427246,.01416016-.0088501,.0213623-.01306152,1.41607666-.82739258,3.03979492-1.32824707,4.77484131-1.41052246h.00012207v-4.02532959H2v14c0,1.10455322,.89544678,2,2,2h14.10900879c-.00494385-.03845215-.01171875-.07830811-.01452637-.11462402Z"/><g><path class="cls-1" d="M23.79614258,31.03009035c.01672363-.39691162,.0425415-.61956787,.0425415-.61956787l-.06079102,.03070068-3.02886963,1.53039551c.00842285,.0178833,.0168457,.04406738,.02545166,.0612793,.09991455,.21990967,.1852417,.38800049,.27099609,.53613281,.10662842,.19335938,.20202637,.359375,.30664062,.51635742,.17175293,.26257324,.31573486,.47198486,.47613525,.66448975,.22320557,.29241943,.45770264,.54345703,.68206787,.77642822,.14825439,.14794922,.32788086,.3092041,.50738525,.46179199l.03100586,.02636719,.00561523,.00561523c.20611572,.17004395,.42285156,.33398438,.64489746,.4876709,.10668945,.07391357,.21228027,.14849854,.32672119,.21380615,.03540039,.02166748,.0637207,.03692627,.097229,.05688477-.03747559-.29931641-.07843018-.63818359-.12127686-1.01300049-.03637695-.31829834-.07348633-.65258789-.11108398-1.01635742-.01794434-.1739502-.03234863-.34063721-.04522705-.50384521-.00170898-.02233887-.00341797-.04437256-.00512695-.06646729-.00744629-.09863281-.01416016-.19500732-.0199585-.28936768-.0189209-.30731201-.027771-.58319092-.03265381-.84069824-.00762939-.40655518-.00268555-.75543213,.00830078-1.01861572Z"/><path class="cls-1" d="M33.69970703,31.67980958l-.00634766-.00323486s.07397461,.51190186,.02154541,1.62969971c-.00543213,.00341797-.01202393,.00476074-.01745605,.00811768-.00445557,.17480469-.00805664,.34643555-.019104,.54602051-.00341797,.06182861-.00762939,.12579346-.01177979,.18963623-.03039551,.37390137-.07946777,.81231689-.13903809,1.28234863,.3782959-.27819824,.73419189-.58660889,1.06445312-.92028809,.00915527-.00939941,.01983643-.01696777,.02893066-.02636719,.33514404-.34173584,.64202881-.71142578,.91253662-1.10864258,.10284424-.15026855,.17938232-.31384277,.27172852-.46960449l-1.06402588-.59686279c.00054932-.00128174,.00073242-.00274658,.00128174-.00402832l-.08410645-.04241943-.92651367-.51971436c-.01306152,.00964355-.02349854,.02325439-.03674316,.03259277,.00164795,.00085449,.00305176,.00189209,.00463867,.00274658Z"/><path class="cls-1" d="M31.27520752,33.28704835c-.0491333-1.0925293,.02288818-1.59509277,.02288818-1.59509277l-.01538086,.00775146-.9473877,.47869873-.19549561,.09875488-3.69445801-1.86663818s.02581787,.22265625,.04248047,.61956787c.00994873,.23608398,.01519775,.53979492,.01092529,.89221191-.00360107,.28936768-.01324463,.60980225-.03521729,.96710205-.00579834,.09436035-.01251221,.19073486-.0199585,.28936768-.0020752,.02716064-.00415039,.05426025-.00634766,.08172607-.01257324,.15838623-.02661133,.32006836-.04400635,.48858643-.03759766,.36376953-.07476807,.69805908-.11108398,1.01635742-.09197998,.80517578-.17523193,1.44476318-.23193359,1.86175537,.26239014,.07922363,.52532959,.15808105,.79595947,.21221924,.0802002,.01708984,.15008545,.02825928,.22271729,.0402832l.21514893,.03735352c.23571777,.03271484,.47583008,.05584717,.69165039,.0635376,.2064209,.01074219,.36126709,.01940918,.52429199,.01940918,1.01049805,0,1.98986816-.17401123,2.91088867-.51708984,.06982422-.02526855,.13342285-.06500244,.20251465-.09216309-.20770264-1.32336426-.30474854-2.35943604-.3381958-3.10369873Z"/><circle class="cls-5" cx="26.50274658" cy="25.86621095" r=".51498413"/><path class="cls-5" d="M23.79833984,25.48974611c-.28387451,0-.51513672,.23120117-.51513672,.51483154,0,.28417969,.23126221,.51544189,.51513672,.51544189,.28393555,0,.51483154-.23126221,.51483154-.51544189,0-.28363037-.230896-.51483154-.51483154-.51483154Z"/><path class="cls-3" d="M22.44641113,25.81304933c.02087402-.18640137-.05657959-.49468994-.02807617-.84118652,.04376221-.53186035,.3180542-.95697021,.04071045-1.03222656-.0211792-.0057373-.03814697-.01416016-.06622314-.015625-.39550781-.02111816-.75439453,.42596436-.80151367,.99841309-.03997803,.48583984,.1585083,.902771,.4609375,1.03167725,.09368896-.09393311,.20135498-.16131592,.32434082-.16131592,.02478027,0,.04589844,.01593018,.06982422,.02026367Z"/><path class="cls-3" d="M25.13275146,27.50201417c-.57434082-.00921631-1.0357666,.30438232-1.03063965,.70037842,.00506592,.39605713,.46160889,.11889648,1.03594971,.12805176,.57434082,.00921631,1.04907227,.3013916,1.04388428-.09466553-.00506592-.39605713-.47485352-.72454834-1.04919434-.73376465Z"/><path class="cls-3" d="M27.81225586,24.97186281c.0291748,.35406494-.05334473,.66967773-.02746582,.85455322,.03863525-.01171875,.07470703-.03363037,.11578369-.03363037,.11584473,0,.2175293,.0612793,.30804443,.14556885,.28485107-.14355469,.46929932-.54681396,.43066406-1.01593018-.04711914-.57244873-.40600586-1.01953125-.80151367-.99841309-.01416016,.00073242-.02099609,.00604248-.03338623,.00787354-.33294678,.04980469-.03759766,.48797607,.00787354,1.03997803Z"/><path class="cls-5" d="M26.44537354,30.41052247l.00439453-.65234375c.690979-.47015381,1.21087646-1.30603027,1.41375732-2.31201172,.003479,.00054932,.00701904,.00073242,.01049805,.00140381,.00927734,.00061035,.01715088,.00775146,.02655029,.00775146,.0927124,0,.17700195-.03826904,.25463867-.09393311,.1897583-.13024902,.32336426-.39312744,.32336426-.70446777,0-.00549316-.00183105-.01013184-.00195312-.01556396,.00012207-.00610352,.00250244-.01116943,.00250244-.01733398,0-.29260254-.1114502-.53753662-.27050781-.68566895-.09051514-.08428955-.19219971-.14556885-.30804443-.14556885-.04107666,0-.07714844,.02191162-.11578369,.03363037-.02587891-.18487549,.05664062-.50048828,.02746582-.85455322-.04547119-.55200195-.34082031-.99017334-.00787354-1.03997803-.30529785-.8918457-1.3684082-1.71820068-2.66534424-1.72320557v-.00048828c-.00189209,0-.00384521,.00024414-.00579834,.00024414s-.00384521-.00024414-.00579834-.00024414v.00048828c-1.30059814,.00500488-2.36639404,.83618164-2.668396,1.73095703,.27734375,.07525635,.00305176,.50036621-.04071045,1.03222656-.02850342,.34649658,.0489502,.65478516,.02807617,.84118652-.02392578-.0043335-.04504395-.02026367-.06982422-.02026367-.12298584,0-.23065186,.06738281-.32434082,.16131592-.14984131,.15026855-.25421143,.38751221-.25421143,.66992188,0,.12109375,.01989746,.23431396,.05230713,.33807373,.00732422,.02404785,.0213623,.04168701,.03027344,.06451416,.09942627,.25158691,.2802124,.42871094,.49597168,.42871094,.00720215,0,.01312256-.00549316,.02026367-.00592041,.02111816-.00152588,.04187012-.00476074,.06243896-.00866699,.19836426,.98986816,.70263672,1.81738281,1.37591553,2.29296875l.003479,.67681885s-.02581787,.22265625-.0425415,.61956787c-.01098633,.26318359-.01593018,.61206055-.00830078,1.01861572,.30554199,.387146,.7734375,.64031982,1.30487061,.64031982,.58850098,0,1.10333252-.30639648,1.40032959-.76672363h.0057373c.00427246-.35241699-.00097656-.65612793-.01092529-.89221191-.0166626-.39691162-.04248047-.61956787-.04248047-.61956787Zm-1.30731201-2.08007812c-.57434082-.00915527-1.03088379,.26800537-1.03594971-.12805176-.00512695-.39599609,.45629883-.70959473,1.03063965-.70037842s1.04412842,.33770752,1.04919434,.73376465c.00518799,.39605713-.46954346,.10388184-1.04388428,.09466553Zm.27624512-2.09899902h-.48577881c-.10571289,.52789307-.57202148,.92681885-1.13018799,.92681885-.63604736,0-1.15338135-.51733398-1.15338135-1.15368652,0-.63574219,.51733398-1.15307617,1.15338135-1.15307617,.49041748,0,.9074707,.30914307,1.07385254,.74169922h.51342773c.12341309-.50378418,.57562256-.88006592,1.11712646-.88006592,.63604736,0,1.15338135,.51733398,1.15338135,1.15307617s-.51733398,1.15307617-1.15338135,1.15307617c-.50756836,0-.93469238-.33166504-1.08843994-.7878418Z"/><path class="cls-2" d="M27.65612793,25.86621095c0-.63574219-.51733398-1.15307617-1.15338135-1.15307617-.54150391,0-.99371338,.37628174-1.11712646,.88006592h-.51342773c-.16638184-.43255615-.58343506-.74169922-1.07385254-.74169922-.63604736,0-1.15338135,.51733398-1.15338135,1.15307617,0,.63635254,.51733398,1.15368652,1.15338135,1.15368652,.5581665,0,1.0244751-.39892578,1.13018799-.92681885h.48577881c.15374756,.45617676,.58087158,.7878418,1.08843994,.7878418,.63604736,0,1.15338135-.51733398,1.15338135-1.15307617Zm-3.85778809,.65380859c-.28387451,0-.51513672-.23126221-.51513672-.51544189,0-.28363037,.23126221-.51483154,.51513672-.51483154,.28393555,0,.51483154,.23120117,.51483154,.51483154,0,.28417969-.230896,.51544189-.51483154,.51544189Zm2.18927002-.65380859c0-.28363037,.23126221-.51483154,.51513672-.51483154,.28393555,0,.51513672,.23120117,.51513672,.51483154,0,.28356934-.23120117,.51483154-.51513672,.51483154-.28387451,0-.51513672-.23126221-.51513672-.51483154Z"/><path class="cls-4" d="M23.95251465,36.83654786c.00567627,.00311279,.01092529,.00695801,.01660156,.0100708,.01678467,.00909424,.0345459,.01647949,.0513916,.0255127-.00775146-.00427246-.01544189-.0078125-.02319336-.012146-.01495361-.00756836-.02984619-.01495361-.0447998-.0234375Z"/><path class="cls-4" d="M20.71228027,33.90710451c-.05419922-.07855225-.11499023-.15264893-.16784668-.2331543,.00036621,.00054932,.00061035,.00109863,.00097656,.00164795,.12701416,.19476318,.26416016,.3815918,.40472412,.56616211,.02819824,.03692627,.05474854,.07507324,.08343506,.11157227-.11730957-.14343262-.21789551-.29577637-.32128906-.44622803Z"/><path class="cls-4" d="M22.42010498,35.79071046c.13366699,.1116333,.27563477,.21295166,.41540527,.31719971,.04693604,.03503418,.09423828,.06945801,.140625,.10516357-.19030762-.13684082-.37835693-.27581787-.55755615-.42370605,.00048828,.00042725,.00097656,.00091553,.00152588,.00134277Z"/><path class="cls-4" d="M21.10540771,34.44940187c.13000488,.16131592,.26922607,.31402588,.40930176,.46643066,.07275391,.0791626,.14160156,.16204834,.21697998,.2387085,.00811768,.00830078,.01519775,.01751709,.02337646,.02575684-.24420166-.25457764-.48022461-.50952148-.68829346-.78253174,.01293945,.01715088,.02514648,.03485107,.03863525,.05163574Z"/><path class="cls-4" d="M23.16705322,36.35577394c.04071045,.02770996,.08349609,.05224609,.12469482,.07928467-.046875-.03149414-.09625244-.06054688-.14251709-.09259033,.00610352,.00421143,.01165771,.00915527,.01782227,.01330566Z"/><path class="cls-3" d="M30.01000977,28.20147706c.00335693-.33093262,.00750732-.74023438,.01074219-1.0604248l5.07147217,.03631592c-.00317383,.31921387-.00720215,.71728516-.01043701,1.03771973,.19213867,.04931641,.34356689,.24108887,.39953613,.50482178,.24505615-.46099854,.39849854-.97839355,.40246582-1.53692627,.00799561-1.13995361-.55670166-2.14813232-1.42211914-2.75720215,.00299072-.0413208,.01293945-.08044434,.01324463-.12243652,.00744629-1.05749512-.84368896-1.9208374-1.90112305-1.92834473-1.05743408-.00756836-1.92071533,.84356689-1.92822266,1.90100098-.00030518,.04742432,.0098877,.09197998,.01300049,.13861084-.86230469,.5982666-1.43341064,1.58978271-1.44140625,2.72070312-.00378418,.54290771,.13409424,1.04901123,.36010742,1.50384521,.0737915-.24584961,.2388916-.41400146,.43273926-.43768311Z"/><path class="cls-5" d="M31.27520752,33.28704835c.35784912,.23284912,.77557373,.37982178,1.2354126,.37982178,.43969727,0,.8392334-.13751221,1.18682861-.35247803,.00543213-.00335693,.01202393-.00469971,.01745605-.00811768,.0524292-1.11779785-.02154541-1.62969971-.02154541-1.62969971l.00634766,.00323486c-.00158691-.00085449-.00299072-.00189209-.00463867-.00274658,.01324463-.00933838,.02368164-.02294922,.03674316-.03259277,.13098145-.09698486,.25421143-.20654297,.3692627-.32763672,.00115967-.0012207,.0022583-.00244141,.00341797-.00372314,.40734863-.43011475,.70849609-.99993896,.85955811-1.64099121,.0098877,.00128174,.01940918,.00427246,.02954102,.00427246,.28582764,0,.51751709-.33288574,.51751709-.74359131,0-.07550049-.01519775-.14422607-.02978516-.21289062-.05596924-.26373291-.20739746-.45550537-.39953613-.50482178,.00323486-.32043457,.00726318-.71850586,.01043701-1.03771973l-5.07147217-.03631592c-.00323486,.32019043-.00738525,.72949219-.01074219,1.0604248-.19384766,.02368164-.35894775,.1918335-.43273926,.43768311-.02709961,.09020996-.04266357,.18914795-.04266357,.29364014,0,.41070557,.23175049,.74359131,.51751709,.74359131,.01098633,0,.02130127-.003479,.03204346-.00463867,.17028809,.85040283,.60229492,1.58282471,1.21630859,2.01715088-.00622559,.0032959-.01153564,.00744629-.01776123,.01080322l.01538086-.00775146s-.07202148,.50256348-.02288818,1.59509277Z"/><path class="cls-4" d="M33.33062744,36.66912843c.31109619-.1842041,.60992432-.38525391,.89691162-.6026001-.28521729,.21588135-.58648682,.41027832-.89532471,.59307861-.00054932,.00323486-.0010376,.00628662-.00158691,.00952148Z"/><path class="cls-6" d="M22.9777832,36.21429445c-.00054932-.00042725-.00109863-.00079346-.00164795-.0012207-.04638672-.03570557-.09368896-.07012939-.140625-.10516357,.04748535,.03546143,.09411621,.07183838,.14227295,.10638428Z"/><path class="cls-6" d="M21.06652832,34.39746095c.01348877,.01690674,.02532959,.03509521,.03887939,.05194092-.01348877-.01678467-.0256958-.03448486-.03863525-.05163574-.00006104-.00012207-.00018311-.00018311-.00024414-.00030518Z"/><path class="cls-2" d="M37.22167969,32.22198488c.01245117-.02880859,.02252197-.05865479,.034729-.08764648,.14208984-.34228516,.27160645-.68939209,.37329102-1.05059814,.03814697-.13183594,.06066895-.26953125,.09320068-.40368652,.06463623-.27545166,.13519287-.54803467,.17529297-.83227539,.0645752-.44006348,.10180664-.88903809,.10180664-1.34777832,0-5.25-4.25-9.5-9.5-9.5-5.23999023,0-9.5,4.25-9.5,9.5,0,.23999023,.01000977,.4699707,.0300293,.70001221,.00994873,.19995117,.02996826,.38995361,.05999756,.57995605,0,.04998779,.01000977,.11004639,.0199585,.17004395,.0300293,.20996094,.07000732,.40997314,.11999512,.61999512,.04003906,.20996094,.10003662,.40997314,.16003418,.60998535,.01000977,.04998779,.02001953,.09997559,.03997803,.14001465,.05999756,.19000244,.11999512,.36999512,.19000244,.53997803,.08001709,.21002197,.16003418,.41998291,.26000977,.61999512,.09002686,.20001221,.19000244,.40002441,.29998779,.59002686,.10998535,.19995117,.22003174,.38995361,.34002686,.57000732,.00787354,.01226807,.01745605,.02331543,.02539062,.0355835-.00036621-.00054932-.00061035-.00109863-.00097656-.00164795,.05285645,.08050537,.11364746,.15460205,.16784668,.2331543,.10339355,.15045166,.20397949,.30279541,.32128906,.44622803-.02868652-.03649902-.05523682-.074646-.08343506-.11157227,.02825928,.03729248,.05633545,.074646,.08398438,.11230469,.00946045,.01153564,.01629639,.02441406,.02587891,.03594971,.00201416,.00262451,.00463867,.00494385,.00665283,.00756836,.00006104,.00006104,.00006104,.00012207,.00012207,.00018311,.20806885,.27301025,.4440918,.5279541,.68829346,.78253174,.01239014,.01287842,.02246094,.02679443,.03491211,.03967285,.16760254,.1675415,.35375977,.3338623,.53991699,.4934082,.00012207,.00012207,.00030518,.00024414,.00042725,.00036621,.01367188,.01171875,.02600098,.02459717,.03967285,.03625488l.01000977,.01000977c.01208496,.0100708,.02563477,.01867676,.03778076,.02868652,.00079346,.00067139,.00152588,.00134277,.00231934,.00201416-.00054932-.00042725-.0010376-.00091553-.00152588-.00134277,.17919922,.14788818,.36724854,.28686523,.55755615,.42370605,.00042725,.00030518,.00091553,.00061035,.00134277,.00097656,.05206299,.03741455,.09960938,.07928467,.15252686,.11590576,.00622559,.00427246,.01287842,.00811768,.019104,.01239014,.00598145,.00421143,.01177979,.00921631,.01794434,.01342773-.00616455-.00415039-.01171875-.00909424-.01782227-.01330566,.04626465,.03204346,.09564209,.06109619,.14251709,.09259033,.07843018,.05267334,.15484619,.1072998,.23828125,.15490723,.13000488,.08001709,.2699585,.16003418,.40997314,.23999023,.00164795,.00091553,.0032959,.00164795,.00494385,.00256348,.00805664,.00469971,.01593018,.00964355,.02416992,.01409912-.00567627-.00311279-.01092529-.00695801-.01660156-.0100708,.01495361,.00848389,.02984619,.01586914,.0447998,.0234375,.00775146,.0043335,.01544189,.00787354,.02319336,.012146,.11315918,.06188965,.22637939,.12127686,.33947754,.17785645,.72003174,.34997559,1.49005127,.60998535,2.29003906,.77001953,.13995361,.02996826,.28997803,.04998779,.45001221,.07995605,.2699585,.04003906,.55999756,.07000732,.83996582,.08001709,.19000244,.01000977,.36999512,.02001953,.55999756,.02001953,1.15002441,0,2.23999023-.20001221,3.26000977-.58001709,.36859131-.13330078,.71862793-.30224609,1.06195068-.48327637,.1730957-.08843994,.34338379-.17834473,.51025391-.27709961h0c.30883789-.18280029,.61010742-.37719727,.89532471-.59307861,.00012207-.00006104,.00018311-.00012207,.00030518-.00018311,.27996826-.21191406,.53540039-.45050049,.78997803-.69158936,.11224365-.10656738,.23547363-.20123291,.34265137-.31311035,.00006104-.00006104,.00006104-.00012207,.00012207-.00018311,.0947876-.09893799,.17828369-.20666504,.26873779-.30963135,.24768066-.27990723,.48858643-.56622314,.70092773-.87475586l.00006104-.00006104c.00897217-.01306152,.02075195-.02392578,.02966309-.03704834,.34417725-.50299072,.61968994-1.05145264,.86169434-1.61798096Zm-8.72167969,4.77801514c-.1630249,0-.31787109-.00866699-.52429199-.01940918-.21582031-.00769043-.45593262-.03082275-.69165039-.0635376l-.21514893-.03735352c-.07263184-.01202393-.14251709-.02319336-.22271729-.0402832-.27062988-.05413818-.53356934-.13299561-.79595947-.21221924,.05670166-.41699219,.13995361-1.05657959,.23193359-1.86175537,.03631592-.31829834,.07348633-.65258789,.11108398-1.01635742,.01739502-.16851807,.03143311-.3302002,.04400635-.48858643,.00219727-.02746582,.00427246-.05456543,.00634766-.08172607,.00744629-.09863281,.01416016-.19500732,.0199585-.28936768,.02197266-.3572998,.03161621-.67773438,.03521729-.96710205h-.0057373c-.29699707,.46032715-.81182861,.76672363-1.40032959,.76672363-.53143311,0-.99932861-.25317383-1.30487061-.64031982,.00488281,.25750732,.01373291,.53338623,.03265381,.84069824,.00579834,.09436035,.01251221,.19073486,.0199585,.28936768,.00170898,.02209473,.00341797,.04412842,.00512695,.06646729,.01287842,.16320801,.02728271,.32989502,.04522705,.50384521,.03759766,.36376953,.07470703,.69805908,.11108398,1.01635742,.04284668,.37481689,.08380127,.71368408,.12127686,1.01300049-.0335083-.0199585-.06182861-.03521729-.097229-.05688477-.11444092-.06530762-.22003174-.13989258-.32672119-.21380615-.2220459-.15368652-.43878174-.31762695-.64489746-.4876709l-.00561523-.00561523-.03100586-.02636719c-.17950439-.15258789-.35913086-.31384277-.50738525-.46179199-.22436523-.23297119-.4588623-.48400879-.68206787-.77642822-.16040039-.19250488-.30438232-.4019165-.47613525-.66448975-.10461426-.15698242-.20001221-.32299805-.30664062-.51635742-.08575439-.14813232-.17108154-.31622314-.27099609-.53613281-.00860596-.01721191-.01702881-.043396-.02545166-.0612793l3.02886963-1.53039551,.06079102-.03070068-.003479-.67681885c-.67327881-.47558594-1.17755127-1.30310059-1.37591553-2.29296875-.02056885,.00390625-.0413208,.00714111-.06243896,.00866699-.00714111,.00042725-.01306152,.00592041-.02026367,.00592041-.21575928,0-.39654541-.17712402-.49597168-.42871094-.00891113-.02282715-.02294922-.04046631-.03027344-.06451416-.03240967-.10375977-.05230713-.21697998-.05230713-.33807373,0-.28240967,.10437012-.51965332,.25421143-.66992188-.3024292-.12890625-.50091553-.5458374-.4609375-1.03167725,.04711914-.57244873,.40600586-1.01953125,.80151367-.99841309,.02807617,.00146484,.04504395,.0098877,.06622314,.015625,.30200195-.89477539,1.36779785-1.72595215,2.668396-1.73095703v-.00048828c.00195312,0,.00384521,.00024414,.00579834,.00024414s.00390625-.00024414,.00579834-.00024414v.00048828c1.29693604,.00500488,2.36004639,.83135986,2.66534424,1.72320557,.01239014-.00183105,.01922607-.00714111,.03338623-.00787354,.39550781-.02111816,.75439453,.42596436,.80151367,.99841309,.03863525,.46911621-.14581299,.87237549-.43066406,1.01593018,.15905762,.14813232,.27050781,.39306641,.27050781,.68566895,0,.00616455-.00238037,.01123047-.00250244,.01733398,.00012207,.00543213,.00195312,.0100708,.00195312,.01556396,0,.31134033-.13360596,.57421875-.32336426,.70446777-.07763672,.05566406-.16192627,.09393311-.25463867,.09393311-.00939941,0-.01727295-.00714111-.02655029-.00775146-.003479-.00067139-.00701904-.00085449-.01049805-.00140381-.20288086,1.00598145-.72277832,1.84185791-1.41375732,2.31201172l-.00439453,.65234375,3.69445801,1.86663818,.19549561-.09875488,.9473877-.47869873c.00622559-.00335693,.01153564-.00750732,.01776123-.01080322-.61401367-.43432617-1.04602051-1.16674805-1.21630859-2.01715088-.01074219,.00115967-.02105713,.00463867-.03204346,.00463867-.2857666,0-.51751709-.33288574-.51751709-.74359131,0-.10449219,.01556396-.20343018,.04266357-.29364014-.22601318-.45483398-.3638916-.9609375-.36010742-1.50384521,.00799561-1.13092041,.57910156-2.12243652,1.44140625-2.72070312-.00311279-.04663086-.01330566-.09118652-.01300049-.13861084,.00750732-1.05743408,.87078857-1.90856934,1.92822266-1.90100098,1.05743408,.00750732,1.90856934,.87084961,1.90112305,1.92834473-.00030518,.04199219-.01025391,.08111572-.01324463,.12243652,.86541748,.60906982,1.43011475,1.61724854,1.42211914,2.75720215-.00396729,.55853271-.15740967,1.07592773-.40246582,1.53692627,.0145874,.06866455,.02978516,.13739014,.02978516,.21289062,0,.41070557-.23168945,.74359131-.51751709,.74359131-.01013184,0-.01965332-.00299072-.02954102-.00427246-.15106201,.64105225-.45220947,1.21087646-.85955811,1.64099121-.00115967,.00128174-.0022583,.00250244-.00341797,.00372314-.11505127,.12109375-.23828125,.23065186-.3692627,.32763672l.92651367,.51971436,.08410645,.04241943c-.00054932,.00128174-.00073242,.00274658-.00128174,.00402832l1.06402588,.59686279c-.09234619,.15576172-.16888428,.31933594-.27172852,.46960449-.27050781,.3972168-.57739258,.76690674-.91253662,1.10864258-.00909424,.00939941-.01977539,.01696777-.02893066,.02636719-.33026123,.3336792-.68615723,.64208984-1.06445312,.92028809,.05957031-.47003174,.10864258-.90844727,.13903809-1.28234863,.00415039-.06384277,.00836182-.12780762,.01177979-.18963623,.01104736-.19958496,.01464844-.37121582,.019104-.54602051-.34759521,.21496582-.74713135,.35247803-1.18682861,.35247803-.45983887,0-.87756348-.14697266-1.2354126-.37982178,.03344727,.7442627,.13049316,1.78033447,.3381958,3.10369873-.0690918,.02716064-.13269043,.06689453-.20251465,.09216309-.92102051,.34307861-1.90039062,.51708984-2.91088867,.51708984Z"/></g></g></svg>