<?xml version="1.0" encoding="UTF-8"?><svg id="Calque_1" data-name="Calque 1" xmlns="http://www.w3.org/2000/svg" viewBox="0 0 40 40" focusable="false" aria-hidden="true"><defs><style>.cls-1 {
        fill: none;
      }

      .cls-2 {
        fill: #000d6e;
      }

      .cls-3 {
        fill: #ffa39d;
      }

      .cls-4 {
        fill: #d0304c;
      }</style></defs><path class="cls-1" d="M0,0H40V40H0V0Z"/><g><path class="cls-3" d="M6.94,23.01h-1.91v7.99h1.91c.6,0,1.08-.48,1.08-1.08h0v-5.82c0-.6-.49-1.08-1.08-1.08Z"/><path class="cls-4" d="M34.95,26.23c-.13-.71-.75-1.22-1.47-1.22l-.3,.03-7.19,1.73v.24c-.03,1.09-.91,1.97-2,2H15.01c-.28,.02-.51-.19-.53-.47s.19-.51,.47-.53c.02,0,.04,0,.06,0h8.98c.54-.03,.96-.46,1-1v-1s0-.04,0-.07h0c-.03-.3-.18-.57-.43-.73h0s-.05-.04-.08-.05h-.01s-.04-.03-.07-.05h0s-.03-.02-.03-.02h-.03s0-.02,0-.02h-.03s-.01-.01-.01-.01h-.03s-.01-.01-.01-.01h-.03s-.01-.01-.01-.01h0s-.04-.01-.07-.02h0s-.08-.01-.12-.01h-5.02c-.58-.09-1.12-.34-1.57-.73l-.09-.06-.02-.02-.08-.06h-.02c-.07-.06-.14-.11-.21-.15h-.01s-.1-.07-.1-.07h0c-.08-.05-.16-.1-.24-.15-.39-.24-.8-.42-1.24-.56-.55-.13-1.12-.2-1.69-.2h-3.68c-.55,0-1,.45-1,1v3.99h0s0,.07,0,.11v1.88s0,.64,1,1,6.47,2.61,6.6,2.67c1.02,.42,2.16,.44,3.2,.07,.01,0,14.2-5.84,14.2-5.84,.67-.26,1.06-.96,.93-1.67h0Z"/></g><path class="cls-3" d="M24.09,12h0c-3.04-.02-5.52,2.43-5.54,5.47-.02,3.04,2.43,5.52,5.47,5.54,3.04,.02,5.52-2.43,5.54-5.47,.02-3.04-2.43-5.52-5.47-5.54Zm.48,4.49l-.08,.81h-1.77c0,.06-.01,.12-.01,.19,0,.07,0,.14,0,.21h1.71s-.08,.81-.08,.81h-1.38c.31,.48,.86,.76,1.43,.74,.57,.05,1.12-.25,1.39-.76l1.09,.74c-.55,.82-1.49,1.29-2.47,1.24-1.28,.04-2.44-.77-2.85-1.98h-.75s.08-.81,.08-.81h.52c0-.07,0-.14,0-.2,0-.07,0-.13,.01-.2h-.46s.08-.82,.08-.82h.54c.43-1.21,1.6-2,2.88-1.94,.98-.03,1.9,.45,2.45,1.26l-1.1,.73c-.27-.51-.81-.81-1.39-.77-.57-.02-1.12,.26-1.43,.74h1.59Z"/><path class="cls-2" d="M24.58,16.49l-.08,.81h-1.77c0,.06-.01,.12-.01,.19,0,.07,0,.14,0,.21h1.71s-.08,.81-.08,.81h-1.38c.31,.48,.86,.76,1.43,.74,.57,.05,1.12-.25,1.39-.76l1.09,.74c-.55,.82-1.49,1.29-2.47,1.24-1.28,.04-2.44-.77-2.85-1.98h-.75s.08-.81,.08-.81h.52c0-.07,0-.14,0-.2,0-.07,0-.13,.01-.2h-.46s.08-.82,.08-.82h.54c.43-1.21,1.6-2,2.88-1.94,.98-.03,1.9,.45,2.45,1.26l-1.1,.73c-.27-.51-.81-.81-1.39-.77-.57-.02-1.12,.26-1.43,.74h1.59Z"/></svg>