<?xml version="1.0" encoding="UTF-8"?><svg id="Calque_1" data-name="Calque 1" xmlns="http://www.w3.org/2000/svg" viewBox="0 0 40 40" focusable="false" aria-hidden="true"><path d="M0,0H40V40H0V0Z" fill="none"/><path d="M37.1,36.09h-8.18c-.5,0-.91,.45-.91,1s.4,.98,.89,.99c0,0,.02,0,.02,0h8.18c.5,0,.91-.45,.91-1s-.41-1-.91-1h0Zm0-3h-8.18c-.5,0-.91,.45-.91,1s.41,1,.91,1h8.18c.5,0,.91-.45,.91-1s-.41-1-.91-1h0Zm0-3h-8.18c-.5,0-.91,.45-.91,1s.41,1,.91,1h8.18c.5,0,.91-.45,.91-1s-.41-1-.91-1h0Z" fill="#000d6e"/><circle cx="14.59" cy="11.73" r=".81" fill="#ffa6a0"/><path d="M10.35,11.14c-.45,.02-.79,.4-.77,.85,.02,.41,.35,.75,.77,.77,.45-.02,.79-.4,.77-.85-.02-.41-.35-.75-.77-.77Z" fill="#ffa6a0"/><path d="M8.23,11.65c.03-.29-.09-.77-.04-1.32,.07-.83,.5-1.5,.06-1.62-.03-.01-.06-.02-.1-.02-.62-.03-1.18,.67-1.26,1.56-.06,.76,.25,1.41,.72,1.62,.15-.15,.32-.25,.51-.25,.04,0,.07,.02,.11,.03Zm4.21,2.65c-.9-.01-1.62,.48-1.61,1.1,0,.62,.72,.19,1.62,.2,.9,.02,1.64,.47,1.64-.15,0-.62-.74-1.14-1.64-1.15h0Zm4.2-3.96c.05,.56-.08,1.05-.04,1.34,.06-.02,.12-.05,.18-.05,.18,0,.34,.1,.48,.23,.45-.22,.74-.86,.67-1.59-.07-.9-.64-1.6-1.26-1.57-.02,0-.03,.01-.05,.01-.52,.08-.06,.76,.01,1.63h0Z" fill="#000d6e"/><path d="M10.33,21.42c.49,.63,1.24,1,2.04,1,.92,0,1.73-.48,2.19-1.2h.01c0-.47,0-.93-.02-1.4-.03-.62-.07-.97-.07-.97v-1.02c1.09-.74,1.9-2.05,2.22-3.62h.02s.03,.01,.04,.01c.15,0,.28-.06,.4-.15,.3-.2,.51-.62,.51-1.1v-.02s0-.02,0-.03c0-.46-.17-.84-.42-1.07-.14-.13-.3-.23-.48-.23-.07,0-.12,.03-.18,.05-.04-.29,.09-.78,.04-1.34-.07-.86-.53-1.55-.01-1.63-.48-1.4-2.14-2.69-4.18-2.7h-.02c-2.04,0-3.71,1.31-4.18,2.71,.43,.12,0,.78-.06,1.62-.05,.54,.08,1.03,.04,1.32-.04,0-.07-.03-.11-.03-.19,0-.36,.11-.51,.25-.23,.24-.4,.61-.4,1.05,0,.19,.03,.37,.08,.53,.01,.04,.03,.06,.05,.1,.16,.4,.44,.67,.78,.67,.01,0,.02,0,.03,0,.03,0,.07,0,.1-.01,.31,1.55,1.1,2.85,2.16,3.59v1.06s-.03,.35-.06,.97c-.02,.41-.02,.96-.01,1.6Zm2.11-5.83c-.9-.01-1.61,.42-1.62-.2s.72-1.11,1.61-1.1c.9,.02,1.64,.53,1.64,1.15,0,.62-.74,.16-1.64,.15Zm-2.1-1.84c-1,0-1.81-.81-1.81-1.81,0-1,.81-1.81,1.81-1.81,.77,0,1.42,.48,1.68,1.16h.8c.2-.81,.92-1.38,1.75-1.38,1,0,1.81,.81,1.81,1.81s-.81,1.81-1.81,1.81c-.8,0-1.46-.52-1.7-1.23h-.76c-.17,.84-.91,1.45-1.77,1.45h0Z" fill="#ffa6a0"/><path d="M12.12,12.3h.76c.24,.71,.91,1.23,1.7,1.23,1,0,1.81-.81,1.81-1.81s-.81-1.81-1.81-1.81c-.85,0-1.56,.59-1.75,1.38h-.8c-.27-.7-.94-1.16-1.68-1.16-1,0-1.81,.81-1.81,1.81s.81,1.81,1.81,1.81c.86,0,1.6-.61,1.77-1.45Zm2.47-1.38c.44,0,.81,.36,.81,.81s-.36,.81-.81,.81-.81-.36-.81-.81,.36-.81,.81-.81h0Zm-4.24,1.83c-.45-.02-.79-.4-.77-.85,.02-.41,.35-.75,.77-.77,.45,.02,.79,.4,.77,.85-.02,.41-.35,.75-.77,.77Zm.07,10.54v-.1c-.05-.59-.08-1.18-.09-1.77-.01-.53,0-1.06,.01-1.6,.03-.62,.07-.97,.07-.97l-.1,.05-6.42,3.24c-.78,.39-1.31,1.15-1.42,2.01l-.48,5.27H11.15s-.22-1.47-.48-3.74c-.06-.5-.11-1.02-.17-1.59-.03-.27-.05-.53-.07-.79h0Z" fill="#d3304c"/><path d="M20.08,15.39l.02-1.66,7.95,.06-.02,1.63c.3,.08,.54,.38,.63,.79,.4-.74,.62-1.57,.63-2.41,.01-1.72-.82-3.33-2.23-4.32,0-.06,.02-.13,.02-.19,.01-1.66-1.32-3.01-2.98-3.02s-3.01,1.32-3.02,2.98c0,.07,.02,.14,.02,.22-1.4,.97-2.25,2.56-2.26,4.26,0,.85,.21,1.64,.57,2.36,.11-.39,.37-.65,.68-.69Z" fill="#000d6e"/><path d="M22.07,23.36c.56,.36,1.22,.59,1.94,.59s1.34-.22,1.89-.57c.08-1.75-.03-2.55-.03-2.55h.01s0,0,0,0c.23-.16,.44-.36,.64-.56h0c.64-.68,1.11-1.57,1.35-2.58,.01,0,.03,0,.05,0,.45,0,.81-.52,.81-1.17,0-.12-.02-.23-.05-.33-.09-.41-.33-.71-.63-.79l.02-1.63-7.95-.06-.02,1.66c-.3,.04-.56,.3-.68,.69-.04,.15-.07,.3-.07,.46,0,.64,.36,1.16,.81,1.16,.02,0,.03,0,.05,0,.27,1.33,.94,2.48,1.91,3.16l-.03,.02h.02s-.11,.78-.04,2.49Z" fill="#ffa6a0"/><path d="M22.1,20.86h-.02s-1.49,.76-1.49,.76l-.31,.16-5.79-2.92s.04,.35,.07,.97c.04,1.12,.02,2.25-.07,3.37v.13c-.03,.25-.05,.5-.08,.76-.19,1.78-.4,3.56-.65,5.34h.46s8.56,0,8.56,0h0c-.48-2.69-.66-4.68-.72-6.06-.08-1.71,.04-2.5,.04-2.5h0Zm4.91,3.18c0-.84,.18-1.64,.49-2.37l-.14-.07-1.5-.76h-.01s.12,.8,.03,2.55c-.06,1.38-.25,3.36-.72,6.01h5.17c-2.04-1.01-3.32-3.09-3.33-5.36Z" fill="#d3304c"/><path d="M33,19c-2.8,0-5,2.2-5,5s2.2,5,5,5,5-2.2,5-5-2.2-5-5-5Zm.2,4.2l-.1,.6h-1.3v.3h1.3l-.1,.6h-1c.2,.4,.6,.6,1.1,.6,.4,0,.8-.2,1-.6l.8,.5c-.4,.6-1.1,1-1.8,.9-1,0-1.8-.6-2.1-1.5h-.6l.1-.6h.4v-.3h-.3l.1-.6h.3c.3-.9,1.2-1.5,2.1-1.5,.7,0,1.4,.3,1.8,.9l-.8,.5c-.2-.4-.6-.6-1-.6s-.8,.2-1.1,.6h1.2v.2Z" fill="#000d6e"/></svg>