<?xml version="1.0" encoding="UTF-8"?><svg id="Calque_1" data-name="Calque 1" xmlns="http://www.w3.org/2000/svg" viewBox="0 0 40 40" focusable="false" aria-hidden="true"><defs><style>.cls-1 {
        fill: none;
      }

      .cls-2 {
        fill: #000d6e;
      }

      .cls-3 {
        fill: #fae052;
      }

      .cls-4 {
        fill: #1b5951;
      }

      .cls-5 {
        fill: #94e3d4;
      }</style></defs><path class="cls-1" d="M0,0H40V40H0V0Z"/><g><path class="cls-1" d="M20,20.12l-3.39,3.38,3.39-3.37,3.39,3.37c.15,.15,.35,.23,.57,.23-.21,0-.41-.08-.56-.23l-3.39-3.38Z"/><path class="cls-5" d="M24.72,20.08h-2.5s2.3,2.28,2.3,2.28c.31,.31,.31,.82,0,1.13s-.82,.31-1.13,0l-3.38-3.37-3.39,3.37c-.32,.3-.82,.28-1.12-.04-.28-.3-.28-.78,0-1.08l2.3-2.29c-1.05,0-1.95,0-2.51,0-.35,0-7.57,10.31-3.07,14.71,.71,.72,1.67,1.13,2.69,1.15h10.21c1.01-.01,1.98-.43,2.69-1.15,4.5-4.41-2.72-14.71-3.07-14.71h0Zm.64-6.21c.07-.43-.22-.84-.65-.91-.04,0-.09-.01-.13-.01H15.34c-.44,0-.79,.36-.79,.79,0,.04,0,.09,.01,.13l.64,3.84h9.52l.64-3.84Z"/><path class="cls-4" d="M15.49,23.49c.31,.31,.81,.31,1.13,0l3.39-3.38,3.39,3.38c.32,.3,.82,.28,1.12-.04,.28-.3,.28-.78,0-1.08l-2.3-2.29-.79-.79h3.29v-1.59H15.2v1.59h3.38l-3.09,3.08c-.31,.31-.31,.81,0,1.12,0,0,0,0,0,0Z"/><path class="cls-2" d="M12.03,11.94c.12,0,.24-.05,.33-.13l5.17-4.65,3.68,3.61c.19,.19,.49,.19,.69,.01l5.56-5.13v1.82c0,.28,.22,.5,.5,.5s.5-.22,.5-.5v-3c0-.28-.22-.5-.5-.5h-3c-.28,0-.5,.22-.5,.5s.22,.5,.5,.5h1.77l-5.16,4.76-3.68-3.6c-.19-.18-.49-.19-.68-.01l-5.52,4.96c-.21,.18-.22,.5-.04,.71,.1,.11,.23,.17,.37,.17Z"/></g><g><path class="cls-3" d="M20.51,29.25l-.06,.59h-1.28s0,.1,0,.14c0,.05,0,.1,0,.15h1.24l-.06,.58h-.99c.23,.35,.62,.55,1.04,.54,.41,.03,.81-.19,1-.56l.79,.53c-.39,.59-1.07,.93-1.78,.9-.92,.03-1.76-.54-2.07-1.42h-.54l.06-.58h.37s0-.1,0-.15c0-.05,0-.1,0-.14h-.33l.06-.59h.39c.31-.88,1.15-1.45,2.07-1.42,.71-.03,1.38,.31,1.77,.9l-.79,.53c-.2-.37-.59-.58-1-.55-.41-.01-.8,.19-1.03,.54h1.15Z"/><path class="cls-2" d="M20.4,28.71c.41-.03,.81,.18,1,.55l.79-.53c-.4-.59-1.07-.92-1.77-.9-.93-.03-1.77,.54-2.07,1.42h-.39l-.06,.59h.33s0,.1,0,.14c0,.05,0,.1,0,.15h-.37l-.06,.58h.54c.3,.87,1.14,1.45,2.07,1.42,.71,.03,1.38-.31,1.78-.9l-.79-.53c-.19,.37-.58,.59-1,.56-.42,.01-.81-.19-1.04-.54h.99l.06-.58h-1.24s0-.1,0-.15c0-.05,0-.1,0-.14h1.28l.06-.59h-1.15c.22-.35,.62-.55,1.03-.54Z"/></g></svg>