<svg xmlns="http://www.w3.org/2000/svg" viewBox="0 0 40 40" focusable="false" aria-hidden="true"><defs><style>.cls-1{fill:none;}.cls-2{fill:#000d6e;}.cls-3{fill:#ffaca6;}.cls-4{fill:#d9304c;}</style></defs><g id="Solid"><rect class="cls-1" width="40" height="40"/></g><g id="Icon_Red" data-name="Icon Red"><rect class="cls-1" x="11.9609" y="24.0184" width="2" height="2"/><rect class="cls-1" x="17.9585" y="24.0184" width="2" height="2"/><rect class="cls-1" x="6" y="24.0184" width="2" height="2"/><path class="cls-2" d="M34.6055,23.702h-1.479a.5.5,0,0,0,0,1h.2353l-1.8574,1.7422-1.689-1.6124a.4672.4672,0,0,0-.3574-.1386.502.502,0,0,0-.3506.1552l-2.3686,2.4952a.5.5,0,0,0,.7256.6894l2.0234-2.1318,1.6684,1.5928a.4981.4981,0,0,0,.6876.0029l2.2617-2.1218v.3054a.5.5,0,1,0,1,0V24.202A.5.5,0,0,0,34.6055,23.702Z"/><path class="cls-3" d="M31,20a6,6,0,1,0,6,6A6,6,0,0,0,31,20Zm4.1055,5.68a.5.5,0,1,1-1,0v-.3054l-2.2617,2.1218a.4981.4981,0,0,1-.6876-.0029l-1.6684-1.5928L27.4644,28.033a.5.5,0,0,1-.7256-.6894l2.3686-2.4952a.502.502,0,0,1,.3506-.1552.4672.4672,0,0,1,.3574.1386l1.689,1.6124,1.8574-1.7422h-.2353a.5.5,0,0,1,0-1h1.479a.5.5,0,0,1,.5.5Z"/><path class="cls-4" d="M26.7384,20.46,26.5,7h-4L22,19l-6-4v4l-6-4v4L4,15V31H26.1105A6.9759,6.9759,0,0,1,26.7384,20.46ZM8,26.0184H6v-2H8Zm5.9609,0h-2v-2h2Zm5.9976,0h-2v-2h2Z"/></g></svg>