<svg xmlns="http://www.w3.org/2000/svg" viewBox="0 0 40 40" focusable="false" aria-hidden="true"><defs><style>.cls-1{fill:none;}.cls-2{fill:#000d6e;}.cls-3{fill:#1b5951;}.cls-4{fill:#94e3d4;}</style></defs><g id="Solid"><rect class="cls-1" width="40" height="40"/></g><g id="Icon_Green" data-name="Icon Green"><rect class="cls-1" x="32.3085" y="25.0878" width="0.5366" height="0.0218"/><rect class="cls-1" x="32.8452" y="24.0507" width="0.9541" height="0.0218"/><path class="cls-1" d="M30.7042,24.6836a.6448.6448,0,0,0,.67-.5186l.4938.2006c.0031-.0092.01-.0172.0129-.0265l-.5147-.209a.6448.6448,0,0,1-.67.5186.695.695,0,0,1-.6779-.4616A.6938.6938,0,0,0,30.7042,24.6836Z"/><rect class="cls-1" x="35.4849" y="23.0497" width="1.119" height="0.0218"/><rect class="cls-1" x="33.7993" y="25.0878" width="0.5366" height="0.0218"/><path class="cls-1" d="M29.5178,24.3828a1.3775,1.3775,0,0,1-.092-.4883,1.2574,1.2574,0,0,1,1.2891-1.3,1.1774,1.1774,0,0,1,1.1583.7856l.0076-.0031A1.1817,1.1817,0,0,0,30.707,22.56a1.2574,1.2574,0,0,0-1.2891,1.3A1.3821,1.3821,0,0,0,29.5178,24.3828Z"/><rect class="cls-1" x="35.4849" y="24.0683" width="0.9857" height="0.0218"/><polygon class="cls-1" points="35.477 25.088 34.948 25.088 34.948 22.607 34.94 22.607 34.94 25.11 35.477 25.11 35.477 25.088"/><path class="cls-2" d="M37.0909,36H28.9091a1.003,1.003,0,0,0-.0248,1.9945c.0088,0,.016.0055.0248.0055h8.1818a1.0045,1.0045,0,0,0,0-2Z"/><path class="cls-2" d="M37.0909,33H28.9091a1.0045,1.0045,0,0,0,0,2h8.1818a1.0045,1.0045,0,0,0,0-2Z"/><path class="cls-2" d="M37.0909,30H28.9091a1.0045,1.0045,0,0,0,0,2h8.1818a1.0045,1.0045,0,0,0,0-2Z"/><path class="cls-2" d="M33,29a5,5,0,1,0-5-5A5,5,0,0,0,33,29Zm1.94-6.3933h.0079v-.0218h1.6636V23.05h-.008v.0218h-1.119v.5329h.9937v.4639h-.008V24.09h-.9857v.9977H35.477V25.11H34.94Zm-2.6319,2.4811V22.5849h.5367v.9873h.9541v-.9873h.5366V25.11h-.5366V24.0725h-.9541V25.11h-.5367ZM30.707,22.56a1.1817,1.1817,0,0,1,1.1738.8174l-.0076.0031-.5071.2059a.652.652,0,0,0-.6733-.5186.727.727,0,0,0-.7314.792.932.932,0,0,0,.0569.3275.695.695,0,0,0,.6779.4616.6448.6448,0,0,0,.67-.5186l.5147.209c-.0029.0093-.01.0173-.0129.0265a1.1726,1.1726,0,0,1-1.1643.7909,1.2474,1.2474,0,0,1-1.1858-.7737,1.3821,1.3821,0,0,1-.1-.5232A1.2574,1.2574,0,0,1,30.707,22.56Z"/><path class="cls-3" d="M25.7284,16H5.2716l-.9767,3A4.15,4.15,0,0,0,4,20.5385V26H27V20.5385A4.15,4.15,0,0,0,26.7051,19ZM7.5,23A1.5,1.5,0,1,1,9,21.5,1.5,1.5,0,0,1,7.5,23Zm16,0A1.5,1.5,0,1,1,25,21.5,1.5,1.5,0,0,1,23.5,23Z"/><path class="cls-2" d="M22,30a1,1,0,0,0,1,1h3a1,1,0,0,0,1-1V27H22Z"/><path class="cls-2" d="M4,30a1,1,0,0,0,1,1H8a1,1,0,0,0,1-1V27H4Z"/><rect class="cls-3" x="26" y="13" width="3" height="2" rx="0.5"/><rect class="cls-3" x="2" y="13" width="3" height="2" rx="0.5"/><path class="cls-4" d="M22.9455,8.8461A2.8763,2.8763,0,0,0,20.2917,7H10.7083A2.8763,2.8763,0,0,0,8.0545,8.8461L5.5972,15H25.4028Z"/></g></svg>