<?xml version="1.0" encoding="UTF-8"?><svg xmlns="http://www.w3.org/2000/svg" viewBox="0 0 40 40" focusable="false" aria-hidden="true"><defs><style>.cls-1 {
        fill: none;
      }

      .cls-2 {
        fill: #fa9319;
      }

      .cls-3 {
        fill: #000d6e;
      }

      .cls-4 {
        fill: #fff;
      }

      .cls-5 {
        fill: #fae052;
      }</style></defs><g id="Solid"><rect class="cls-1" width="40" height="40"/></g><g id="Icon_Tangerine" data-name="Icon Tangerine"><g><path class="cls-5" d="m31.96728516,6.98132326c-.43157959-2.75128174-2.84326172-4.69927979-5.74371338-4.93444824-4.10131836-.33251953-7.42675781,3.27001953-7.6484375,5.70861816,0,0-1.44622803,1.37213135-2.4052124,3.05975342l2.38067627,3.7489624c.33862305.13751221.67077637.30566406.99963379.48718262.05084229.02832031.10162354.05584717.15222168.08514404,3.29931641,1.8949585,6.059021,5.88189697,7.57189941,9.87927246.02081299-.12255859.02905273-.25939941.04766846-.38439941.01721191-.18151855.03552246-.36218262.04785156-.54748535.0067749-.00445557.01477051-.00646973.02148438-.01116943.05853271-.48602295.10095215-.99029541.13000488-1.50946045.00274658-.05224609.0045166-.10565186.00695801-.15820312.02355957-.47375488.03485107-.96112061.03338623-1.46258545-.00128174-.19476318-.00970459-.3973999-.01483154-.59631348-.00866699-.38983154-.01721191-.77954102-.04095459-1.18579102-.03924561-.64416504-.0914917-1.30249023-.16772461-1.98614502-.07397461-.66363525.11480713-1.31634521.53167725-1.8380127.07922363-.09912109.6987915-.73907471.8371582-1.00518799l5.05413818.13067627s2.71575928.38800049,3.10369873-5.59777832c-2.13031006-.79364014-4.07049561-1.55529785-4.89758301-1.88262939Z"/><path class="cls-2" d="m22.2630122,8.25712607c-.11209516-2.70032955-.21966185-4.52810571,2.48276076-5.00086813,3.56241347-.62320941,3.33406102,2.14382071,3.22413606,4.84089427-.11011502,2.70173668-1.22410691,4.2049736-2.70739297,4.26654725s-2.88740869-1.40624385-2.99950385-4.1065734Z"/><path class="cls-2" d="m27,33.00000001c0-2.54925537,1.5925293-4.72161865,3.83477783-5.59082031.76873779-2.97320557.94042969-6.53692627.47869873-10.67773438-.09228516-.82421875-.84179688-1.41210938-1.65673828-1.32519531-.82373047.09179688-1.41650391.83398438-1.32470703,1.65722656.53601074,4.80822754.1776123,8.68841553-1.05407715,11.57196045-1.05377197-5.51403809-5.07061768-11.70501709-9.39416504-13.25579834-1.89593506-2.9854126-3.05267334-4.80725098-3.05267334-4.80725098.37127686-4.82568359-3.14807129-6.93951416-3.14807129-6.93951416-1.56646729-1.18060303-3.42108154-1.65246582-3.42108154-1.65246582v1.96887207c-3.16210938-.019104-2.19104004,2.0489502-3.85797119,3.05096436-.27728271.03747559-.61309814.14154053-1.02709961.35766602-.64709473.33789062.61743164,3.5413208,1.32305908,3.75994873.70556641.21856689,1.80810547.30603027,1.80810547.30603027l.82012939,1.13830566c-.28979492,1.20324707-.78363037,2.42480469-1.17095947,3.28344727-.58758545,1.30267334-.80224609,2.75006104-.55725098,4.15795898.55212402,3.17242432,2.93041992,4.12774658,2.93041992,4.12774658l-1.53710938,10.79644775c-2.99328613.07220459-1.99328613,3.07220459-1.99328613,3.07220459h4l2.22387695-6.67169189c.05438232,1.5614624.6852417,2.90777588,1.61700439,3.66992188h-.32739258c-.82385254,0-1.4979248.67407227-1.4979248,1.4979248s.67407227,1.50384521,1.4979248,1.50384521h8.48651123c3.43188477,0,5.32824707-1.56005859,6.11126709-3.8604126-.07104492-.3692627-.11126709-.74957275-.11126709-1.1395874Z"/><circle class="cls-3" cx="33" cy="33" r="5"/><path class="cls-4" d="m36,33.58831787c0,.22644043-.1852417.41168213-.41162109.41168213h-1.58837891v1.58831787c0,.22644043-.1852417.41168213-.41162109.41168213h-1.17675781c-.22637939,0-.41162109-.1852417-.41162109-.41168213v-1.58831787h-1.58837891c-.22637939,0-.41162109-.1852417-.41162109-.41168213v-1.17669678c0-.22637939.1852417-.41162109.41162109-.41162109h1.58837891v-1.58837891c0-.22637939.1852417-.41162109.41162109-.41162109h1.17675781c.22637939,0,.41162109.1852417.41162109.41162109v1.58837891h1.58837891c.22637939,0,.41162109.1852417.41162109.41162109v1.17669678Z"/></g></g></svg>