<svg viewBox="0 0 40 40" fill="none" xmlns="http://www.w3.org/2000/svg" focusable="false" aria-hidden="true"><g clip-path="url(#clip0_7_1798)"><rect width="40" height="40"/><path d="M26.5 32H6.5C5.95 32 5.5 32.45 5.5 33V35C5.5 35.55 5.95 36 6.5 36H26.5C27.05 36 27.5 35.55 27.5 35V33C27.5 32.45 27.05 32 26.5 32Z" fill="#D9304C"/><rect x="10.5" y="7" width="12" height="10" fill="#000D6E"/><path d="M36.325 10.7063L31.2625 5.64375C30.875 5.25625 30.2375 5.25625 29.85 5.64375L29.1437 6.35C28.7562 6.7375 28.7562 7.375 29.1437 7.7625L31.5 10.1188V14C31.5 15.7563 32.8062 17.2062 34.5 17.45V27.5C34.5 28.325 33.825 29 33 29C32.175 29 31.5 28.325 31.5 27.5V25.5C31.5 22.4625 29.0375 20 26 20H25.5V8C25.5 5.79375 23.7062 4 21.5 4H11.5C9.29375 4 7.5 5.79375 7.5 8V30H25.5V23H26C27.3813 23 28.5 24.1187 28.5 25.5V27.2375C28.5 29.5937 30.1875 31.7375 32.5312 31.9813C35.2188 32.25 37.5 30.1375 37.5 27.5V13.5375C37.5 12.475 37.075 11.4563 36.325 10.7063ZM21.5 16H11.5V8H21.5V16Z" fill="#FFACA6"/></g><defs><clipPath id="clip0_7_1798"><rect width="40" height="40" fill="white"/></clipPath></defs></svg>