<?xml version="1.0" encoding="UTF-8"?><svg xmlns="http://www.w3.org/2000/svg" viewBox="0 0 40 40" focusable="false" aria-hidden="true"><defs><style>.cls-1{fill:none;}.cls-2{fill:#1b5951;}.cls-3{fill:#94e3d4;}</style></defs><g id="Solid"><rect class="cls-1" width="40" height="40"/></g><g id="Icon_Green"><path class="cls-3" d="M31.68205838,26.2402801V9.44174572l-8.75417498-5.44174572-10.3511786,4.67284941v8.99069332h-3.60815861v7.80777592h3.72645035v2.07023572l-1.83365224-1.0646908-6.38814477,5.14601637,9.40477955,4.37712006,6.38814477-4.43626593v-5.91367504h3.90388796v5.55879982l6.74308513,4.6136384,4.61370354-7.09796035-3.84474209-2.48425681Zm-7.33460896-8.69502911s-4.34748199-.14792981-4.19961731,0v-6.74301999l4.19961731,2.48425681v4.25876318Z"/><polygon class="cls-2" points="13.1463623 30.05694581 12.1463623 30.05694581 12.1463623 29.05694581 10.1463623 29.05694581 10.1463623 30.05694581 9.1463623 30.05694581 9.1463623 32.05694581 10.1463623 32.05694581 10.1463623 33.05694581 12.1463623 33.05694581 12.1463623 32.05694581 13.1463623 32.05694581 13.1463623 30.05694581"/></g></svg>