<?xml version="1.0" encoding="iso-8859-1"?><!--Generator: Adobe Illustrator 26.2.1, SVG Export Plug-In . SVG Version: 6.00 Build 0)--><svg version="1.1" xmlns="http://www.w3.org/2000/svg" xmlns:xlink="http://www.w3.org/1999/xlink" x="0px" y="0px" viewBox="0 0 40 40" style="enable-background:new 0 0 40 40" xml:space="preserve" focusable="false" aria-hidden="true"><g id="Solid"><rect style="fill:none" width="40" height="40"/></g><g id="Icon_Red"><g><path style="fill:#FFACA6" d="M10.39,13.847l-3.236,3.236c-0.179,0.179-0.179,0.468,0,0.647c0.179,0.179,0.468,0.179,0.647,0
			l3.236-3.236c0.179-0.179,0.179-0.468,0-0.647C10.858,13.669,10.568,13.669,10.39,13.847z"/></g><path style="fill:#D9304C" d="M29.463,27.097l-1.277-1.277l-9.06,9.06l1.278,1.277c0.367,0.367,0.961,0.367,1.328,0l7.732-7.732
		C29.83,28.058,29.83,27.464,29.463,27.097z"/><polygon style="fill:#FFACA6" points="24.303,29.702 28.186,25.819 14.596,12.23 5.536,21.29 19.126,34.879 	"/><path style="fill:#D9304C" d="M13.26,10.894c-0.334-0.334-0.877-0.334-1.211,0L4.2,18.743c-0.334,0.334-0.334,0.877,0,1.211
		l1.336,1.336l9.06-9.06L13.26,10.894z M10.39,13.847c0.179-0.179,0.468-0.179,0.647,0c0.179,0.179,0.179,0.468,0,0.647L7.801,17.73
		c-0.179,0.179-0.468,0.179-0.647,0c-0.179-0.179-0.179-0.468,0-0.647 M12.324,13.208c-0.179,0.179-0.468,0.179-0.647,0
		c-0.179-0.179-0.179-0.468,0-0.647c0.179-0.179,0.468-0.179,0.647,0S12.502,13.029,12.324,13.208z"/><path style="fill:#FFACA6" d="M11.676,12.561c-0.179,0.179-0.179,0.468,0,0.647c0.179,0.179,0.468,0.179,0.647,0
		c0.179-0.179,0.179-0.468,0-0.647S11.855,12.382,11.676,12.561z"/><circle style="fill:#000D6E" cx="23.542" cy="30.236" r="1"/><g><path style="fill:#D9304C" d="M29.283,1.983l-0.928,0.931c-1.058,1.061-1.064,2.771-0.014,3.824l4.742,4.754
			c1.054,1.057,2.773,1.05,3.835-0.016l0.917-0.92L29.283,1.983z"/><path style="fill:#000D6E" d="M33.042,13.449c0,0-6.28-6.28-7.071-7.071c-0.648-0.648-1.58,0.03-1.58,0.03l-2.441,1.376
			l-3.467,1.953L16.9,10.63c-0.647,0.365-0.877,1.185-0.512,1.833c0.365,0.647,1.186,0.877,1.833,0.512l3.579-1.584l-7.56,7.56
			c-0.526,0.526-0.526,1.378,0,1.903c0.506,0.506,1.308,0.512,1.837,0.044l-0.896,0.896c-0.526,0.526-0.526,1.378,0,1.903
			c0.526,0.526,1.378,0.526,1.903,0l1.427-1.427c-0.526,0.526-0.526,1.378,0,1.903c0.526,0.526,1.378,0.526,1.903,0l1.903-1.903
			c-0.526,0.526-0.526,1.378,0,1.903c0.526,0.526,1.378,0.526,1.903,0l1.733-1.733l1.473-1.473c0,0,0.506-0.506,1.218-1.218
			c0.486-0.486,1.064-1.064,1.656-1.656c1.006-1.006,2.034-2.034,2.637-2.637C34.05,14.345,33.042,13.449,33.042,13.449z"/></g></g><g id="Guides" style="display:none"/><g id="Grid" style="display:none"><g style="display:inline"><g/><g/><g/><g/><g/><g/><g/><g/><g/><g/><g/><g/><g/><g/><g/><g/><g/><g/><g/><g/><g/><g/><g/><g/><g/><g/><g/><g/><g/><g/><g/><g/><g/><g/><g/><g/><g/><g/><g/><g/></g></g></svg>