<?xml version="1.0" encoding="iso-8859-1"?><!--Generator: Adobe Illustrator 26.2.1, SVG Export Plug-In . SVG Version: 6.00 Build 0)--><svg version="1.1" xmlns="http://www.w3.org/2000/svg" xmlns:xlink="http://www.w3.org/1999/xlink" x="0px" y="0px" viewBox="0 0 40 40" style="enable-background:new 0 0 40 40" xml:space="preserve" focusable="false" aria-hidden="true"><g id="Solid"><rect style="fill:none" width="40" height="40"/></g><g id="Icon_Green"><g><polygon style="fill:#94E3D4" points="23.935,16.838 26.167,16.838 26.167,19.648 27,20.585 27,10 24.757,10 25.76,15.038 		"/><polygon style="fill:#94E3D4" points="25.167,19.987 25.167,17.796 22.436,17.796 21.276,15.398 19.008,16.609 13,13.874 13,31 
			17,31 27,31 27,22.049 		"/><polygon style="fill:#94E3D4" points="18.992,15.525 21.723,14.068 22.885,16.469 24.674,14.704 23.738,10 17,10 13,10 13,12.96 
					"/></g><path style="fill:#1B5951" d="M13,31v1.974C13,33.541,13.459,34,14.026,34h11.948C26.541,34,27,33.541,27,32.974V31H13z"/><g><circle style="fill:none" cx="24.488" cy="8.5" r="0.5"/><path style="fill:#94E3D4" d="M22.5,8h-5C17.224,8,17,8.224,17,8.5C17,8.776,17.224,9,17.5,9h5C22.776,9,23,8.776,23,8.5
			C23,8.224,22.776,8,22.5,8z"/><path style="fill:#1B5951" d="M26.064,7H13.936C13.419,7,13,7.419,13,7.936V10h14V7.936C27,7.419,26.581,7,26.064,7z M22.5,9h-5
			C17.224,9,17,8.776,17,8.5C17,8.224,17.224,8,17.5,8h5C22.776,8,23,8.224,23,8.5C23,8.776,22.776,9,22.5,9z M24.488,9
			c-0.276,0-0.5-0.224-0.5-0.5c0-0.276,0.224-0.5,0.5-0.5c0.276,0,0.5,0.224,0.5,0.5C24.988,8.776,24.765,9,24.488,9z"/></g><circle style="fill:#94E3D4" cx="24.488" cy="8.5" r="0.5"/><circle style="fill:#000D6E" cx="20" cy="31.006" r="1"/></g><g id="Guides" style="display:none"/><g id="Grid" style="display:none"><g style="display:inline"><g/><g/><g/><g/><g/><g/><g/><g/><g/><g/><g/><g/><g/><g/><g/><g/><g/><g/><g/><g/><g/><g/><g/><g/><g/><g/><g/><g/><g/><g/><g/><g/><g/><g/><g/><g/><g/><g/><g/><g/></g></g></svg>