<?xml version="1.0" encoding="UTF-8"?>
<svg id="Ebene_1" data-name="Ebene 1" xmlns="http://www.w3.org/2000/svg" viewBox="0 0 1080 1080">
  <defs>
    <style>
      .cls-1 {
        fill: #000d6e;
      }

      .cls-2 {
        fill: #1b5951;
      }

      .cls-3 {
        fill: #94e3d4;
      }
    </style>
  </defs>
  <g>
    <circle class="cls-3" cx="680.46" cy="226.23" r="69.81"/>
    <path class="cls-3" d="m589.96,226.23c0-6.43-5.21-11.64-11.64-11.64h-61.9c-6.43,0-11.64,5.21-11.64,11.64s5.21,11.64,11.64,11.64h61.9c6.43,0,11.64-5.21,11.64-11.64Zm257.49-11.64h-61.9c-6.43,0-11.64,5.21-11.64,11.64s5.21,11.64,11.64,11.64h61.9c6.43,0,11.64-5.21,11.64-11.64s-5.21-11.64-11.64-11.64Zm-247,76.68l-43.77,43.75c-4.55,4.54-4.55,11.91-.01,16.46,4.54,4.55,11.91,4.55,16.46.01h0l43.75-43.77c4.73-4.35,5.04-11.71.69-16.44-4.35-4.73-11.71-5.04-16.44-.69-.24.22-.46.44-.68.68Zm154.75-126.66c3.08,0,6.04-1.23,8.21-3.42l43.77-43.75c4.55-4.54,4.55-11.91.01-16.46-4.54-4.55-11.91-4.55-16.46-.01l-43.75,43.77c-4.55,4.54-4.56,11.91-.02,16.46,2.18,2.19,5.15,3.42,8.24,3.42Zm-73.28,153.59c-6.43,0-11.64,5.21-11.64,11.64v61.9c0,6.43,5.21,11.64,11.64,11.64s11.64-5.21,11.64-11.64v-61.9c0-6.43-5.21-11.64-11.64-11.64Zm0-183.93c6.43,0,11.64-5.21,11.64-11.64v-61.9c0-6.43-5.21-11.64-11.64-11.64s-11.64,5.21-11.64,11.64v61.9c0,6.43,5.21,11.64,11.64,11.64Zm81.52,157.01c-4.54-4.55-11.91-4.55-16.46-.01-4.55,4.54-4.55,11.91-.01,16.46h0l43.77,43.75c4.51,4.54,11.85,4.57,16.39.06.02-.02.04-.04.06-.06,4.53-4.54,4.53-11.89,0-16.43l-43.75-43.77Zm-162.99-130.09c4.51,4.54,11.85,4.57,16.39.06.02-.02.04-.04.06-.06,4.54-4.54,4.54-11.91,0-16.45l-43.77-43.75c-4.35-4.73-11.71-5.04-16.44-.69-4.73,4.35-5.04,11.71-.69,16.44.22.24.44.46.68.68l43.75,43.77h.02Z"/>
  </g>
  <path class="cls-3" d="m475.32,346.25h-198.83c-36.52,0-60.97,29.69-54.54,66.28l76.61,434.64c6.46,36.55,41.42,66.28,77.97,66.28h198.83c36.55,0,61.04-29.72,54.58-66.28l-76.61-434.64c-6.46-36.55-41.42-66.28-77.97-66.28h-.03Z"/>
  <path class="cls-2" d="m629.94,847.16l-76.61-434.64c-6.46-36.55-41.42-66.28-77.97-66.28h-198.83c-36.55,0-61.04,29.72-54.58,66.28l76.61,434.67c6.46,36.55,41.42,66.28,77.97,66.28h75.92l-.89,84.34h43.14l.89-84.34h79.8c36.52,0,60.97-29.72,54.54-66.28v-.03Zm-51.36-103.29h-115.98l-17.5-99.41h115.98l17.53,99.41h-.03Zm-40.86-231.96l17.53,99.41h-115.98l-17.56-99.41h116.02Zm-56.53-132.55c18.33,0,35.79,14.85,39,33.14l11.66,66.28h-115.98l-17.53-99.41h82.84Zm-226.1,33.14c-3.25-18.29,8.95-33.14,27.27-33.14h82.84l17.56,99.41h-115.98s-11.7-66.28-11.7-66.28Zm17.53,99.41h115.98l17.53,99.41h-115.98l-17.56-99.41h.03Zm40.89,231.96l-17.56-99.41h115.98l17.56,99.41h-115.98Zm57.2,136.43c-18.33,0-35.79-14.85-39-33.14l-12.36-70.15h115.98l18.23,103.29h-82.84Zm198.83,0h-82.84l-18.23-103.29h115.98l12.36,70.15c3.25,18.29-8.95,33.14-27.27,33.14Z"/>
  <path class="cls-1" d="m827.45,1030.91H252.56c-17.48,0-31.64-14.17-31.64-31.64h0c0-17.48,14.17-31.64,31.64-31.64h574.88c17.48,0,31.64,14.17,31.64,31.64h0c0,17.48-14.17,31.64-31.64,31.64Z"/>
</svg>