<?xml version="1.0" encoding="UTF-8"?><svg xmlns="http://www.w3.org/2000/svg" viewBox="0 0 40 40" focusable="false" aria-hidden="true"><defs><style>.cls-1{fill:none;}.cls-2{fill:#000d6e;}.cls-3{fill:#1b5951;}.cls-4{fill:#94e3d4;}</style></defs><g id="Solid"><rect class="cls-1" width="40" height="40"/></g><g id="Icon_Green"><g><circle class="cls-4" cx="27.35449219" cy="9.50000001" r="3"/><path class="cls-4" d="M23.46533203,9.50000001c0-.27636719-.22363281-.5-.5-.5h-2.66064453c-.27636719,0-.5,.22363281-.5,.5s.22363281,.5,.5,.5h2.66064453c.27636719,0,.5-.22363281,.5-.5Z"/><path class="cls-4" d="M34.53027344,9.00000001h-2.66064453c-.27636719,0-.5,.22363281-.5,.5s.22363281,.5,.5,.5h2.66064453c.27636719,0,.5-.22363281,.5-.5s-.22363281-.5-.5-.5Z"/><path class="cls-4" d="M23.91552734,12.29492189l-1.88085938,1.88085938c-.1953125,.1953125-.1953125,.51171875,0,.70703125,.09765625,.09765625,.22558594,.14648438,.35351562,.14648438s.25585938-.04882812,.35351562-.14648438l1.88085938-1.88085938c.1953125-.1953125,.1953125-.51171875,0-.70703125s-.51171875-.1953125-.70703125,0Z"/><path class="cls-4" d="M30.56591797,6.85156251c.12792969,0,.25585938-.04882812,.35351562-.14648438l1.88085938-1.88085938c.1953125-.1953125,.1953125-.51171875,0-.70703125s-.51171875-.1953125-.70703125,0l-1.88085938,1.88085938c-.1953125,.1953125-.1953125,.51171875,0,.70703125,.09765625,.09765625,.22558594,.14648438,.35351562,.14648438Z"/><path class="cls-4" d="M27.41748047,13.45214845c-.27636719,0-.5,.22363281-.5,.5v2.66015625c0,.27636719,.22363281,.5,.5,.5s.5-.22363281,.5-.5v-2.66015625c0-.27636719-.22363281-.5-.5-.5Z"/><path class="cls-4" d="M27.41748047,5.54785158c.27636719,0,.5-.22363281,.5-.5V2.38769533c0-.27636719-.22363281-.5-.5-.5s-.5,.22363281-.5,.5v2.66015625c0,.27636719,.22363281,.5,.5,.5Z"/><path class="cls-4" d="M30.91943359,12.29492189c-.1953125-.1953125-.51171875-.1953125-.70703125,0s-.1953125,.51171875,0,.70703125l1.88085938,1.88085938c.09765625,.09765625,.22558594,.14648438,.35351562,.14648438s.25585938-.04882812,.35351562-.14648438c.1953125-.1953125,.1953125-.51171875,0-.70703125l-1.88085938-1.88085938Z"/><path class="cls-4" d="M23.91552734,6.70507814c.09765625,.09765625,.22558594,.14648438,.35351562,.14648438s.25585938-.04882812,.35351562-.14648438c.1953125-.1953125,.1953125-.51171875,0-.70703125l-1.88085938-1.88085938c-.1953125-.1953125-.51171875-.1953125-.70703125,0s-.1953125,.51171875,0,.70703125l1.88085938,1.88085938Z"/></g><path class="cls-4" d="M21.09089838,17.36905935h-6c-1.1027832,0-1.84179647,.8972168-1.64734604,2l2.31289254,13.11706543c.19446119,1.10284424,1.24987076,2,2.35265396,2h6c1.1027832,0,1.84180723-.89715576,1.64734604-2l-2.31289254-13.11706543c-.19445043-1.1027832-1.24987076-2-2.35265396-2Z"/><path class="cls-4" d="M14.47402344,32.48610455l-2.31292725-13.11706543c-.19445801-1.1027832-1.24987793-2-2.35266113-2H3.80843506c-1.1027832,0-1.84179688,.8972168-1.64733887,2l2.31292725,13.11706543c.19445801,1.10284424,1.24987793,2,2.35266113,2h6c1.1027832,0,1.84179688-.89715576,1.64733887-2Zm-6.04956055-3.11706543-4.02905273-3"/><path class="cls-2" d="M25.5,37.03125001H4.5c-.27636719,0-.5,.22363281-.5,.5s.22363281,.5,.5,.5H25.5c.27636719,0,.5-.22363281,.5-.5s-.22363281-.5-.5-.5Z"/><path class="cls-3" d="M14.47399902,32.486084l-2.31286621-13.11706543c-.19445801-1.1027832-1.24987793-2-2.35266113-2H3.80847168c-1.1027832,0-1.84179688,.8972168-1.64733887,2l2.31286621,13.11706543c.19445801,1.10284424,1.24987793,2,2.35266113,2h2.2911377l-.02783203,2.54516602h1.00012207l.02783203-2.54516602h2.70874023c1.1027832,0,1.84179688-.89715576,1.64733887-2Zm-1.54962158-3.11706543h-3.49993896l-.5289917-3h3.49993896l.5289917,3Zm-1.23425293-7l.52893066,3h-3.49993896l-.52893066-3h3.49993896Zm-1.70532227-4c.55230713,0,1.07891846,.44769287,1.17633057,1l.35266113,2h-3.49993896l-.5289917-3h2.49993896Zm-6.82366943,1c-.09741211-.55230713,.2713623-1,.82366943-1h2.50006104l.5289917,3H3.51379395l-.35266113-2Zm.5289917,3h3.50006104l.52893066,3h-3.50006104l-.52893066-3Zm1.23425293,7l-.5289917-3h3.50006104l.5289917,3h-3.50006104Zm1.72595215,4.11706543c-.55230713,0-1.07891846-.44769287-1.17633057-1l-.37329102-2.11706543h3.50006104l.54962158,3.11706543h-2.50006104Zm6,0h-2.49993896l-.54962158-3.11706543h3.49993896l.37329102,2.11706543c.09741211,.55230713-.2713623,1-.82366943,1Z"/><path class="cls-3" d="M25.75646973,32.486084l-2.31292725-13.11706543c-.19445801-1.1027832-1.24987793-2-2.35266113-2h-6c-1.1027832,0-1.84179688,.8972168-1.64733887,2l2.31292725,13.11706543c.19445801,1.10284424,1.24981689,2,2.3526001,2h2.29095459l-.02740479,2.54516602h1.00012207l.02740479-2.54516602h2.70892334c1.1027832,0,1.84185791-.89715576,1.6473999-2Zm-1.54962158-3.11706543h-3.49993896l-.5289917-3h3.49993896l.5289917,3Zm-1.23431396-7l.5289917,3h-3.49993896l-.5289917-3h3.49993896Zm-1.70532227-4c.55230713,0,1.07897949,.44769287,1.17633057,1l.35266113,2h-3.49993896l-.5289917-3h2.49993896Zm-6.82366943,1c-.09735107-.55230713,.2713623-1,.82366943-1h2.50006104l.5289917,3h-3.50006104l-.35266113-2Zm.5289917,3h3.50006104l.5289917,3h-3.50006104l-.5289917-3Zm1.23431396,7l-.5289917-3h3.50006104l.5289917,3h-3.50006104Zm1.72595215,4.11706543c-.55230713,0-1.07897949-.44769287-1.17633057-1l-.37329102-2.11706543h3.50006104l.54962158,3.11706543h-2.50006104Zm6,0h-2.49993896l-.54962158-3.11706543h3.49993896l.37329102,2.11706543c.09735107,.55230713-.2713623,1-.82366943,1Z"/></g></svg>