<svg xmlns="http://www.w3.org/2000/svg" viewBox="0 0 40 40" focusable="false" aria-hidden="true"><defs><style>.cls-1{fill:none;}.cls-2{fill:#000d6e;}.cls-3{fill:#d9304c;}.cls-4{fill:#ffaca6;}</style></defs><g id="Solid"><rect class="cls-1" width="40" height="40"/></g><g id="Icon"><path class="cls-2" d="M23.5,31.75a1.25,1.25,0,0,0,2.5,0V28.44a8,8,0,0,1-2.5.54Z"/><path class="cls-2" d="M12.5,31.75a1.25,1.25,0,0,0,2.5,0V29a7.91,7.91,0,0,1-2.5-.72Z"/><path class="cls-3" d="M33.5,17.5a.5.5,0,0,0-.5.5v1.14a.9.9,0,0,1-1,.86H31.5A9.09,9.09,0,0,0,27,12a4.73,4.73,0,0,1-.56,2H18.09a4.74,4.74,0,0,1-.59-2.25,4.65,4.65,0,0,1,.08-.75H16.7A4,4,0,0,0,13,8.5v3.06A8.72,8.72,0,0,0,8,17H7.25A1.25,1.25,0,0,0,6,18.25v3.5A1.25,1.25,0,0,0,7.25,23H8a8.8,8.8,0,0,0,4.51,5.23A7.91,7.91,0,0,0,15,29c.3,0,.6.05.9.05h7.2l.4,0a8,8,0,0,0,2.5-.54A8.93,8.93,0,0,0,31.45,21h.6a1.9,1.9,0,0,0,2-1.86V18A.5.5,0,0,0,33.5,17.5ZM12,16.88A1.13,1.13,0,1,1,13.12,18,1.12,1.12,0,0,1,12,16.88Z"/><path class="cls-4" d="M18.09,14h8.32A4.73,4.73,0,0,0,27,12a2.48,2.48,0,0,0,0-.27A4.74,4.74,0,0,0,17.58,11a4.65,4.65,0,0,0-.08.75A4.74,4.74,0,0,0,18.09,14Z"/></g></svg>