<?xml version="1.0" encoding="UTF-8"?><svg id="Ebene_1" data-name="Ebene 1" xmlns="http://www.w3.org/2000/svg" viewBox="0 0 1080 1080" focusable="false" aria-hidden="true"><defs><style>.cls-1 {
        fill: #fae052;
      }

      .cls-2 {
        fill: #000d6e;
      }

      .cls-3 {
        fill: #fa9319;
      }</style></defs><path class="cls-2" d="m813.39,258.29h112.33c8.17,0,14.8,6.63,14.8,14.8v65.4c0,8.17-6.63,14.8-14.8,14.8h-112.33v-95h0Z"/><path class="cls-2" d="m538.33,428.17v44.5c0,36.98,30.04,66.94,66.99,66.94,4.48,0,8.04,3.61,8.04,8.05s-3.57,8.06-8.04,8.06h-9.61c-51.43,0-93.19-41.74-93.19-93.2v-34.36h35.82Z"/><path class="cls-3" d="m139.47,384.03h752.42c0,13.88-11.27,25.15-25.15,25.15H164.62c-13.88,0-25.15-11.27-25.15-25.15h0Z"/><path class="cls-3" d="m860.72,353.29H170.84c-17.22,0-31.17,13.96-31.17,31.17v14.45c0,17.22,13.96,31.17,31.17,31.17h45.84c19.59,0,34.32,17.85,30.61,37.09l-78.97,333.1c-6.38,31.27,5.92,58.72,41.07,58.72h204.1c17.22,0,31.17-13.96,31.17-31.17l15.59-366.56c0-17.22,13.96-31.17,31.17-31.17h369.3c17.22,0,31.17-13.96,31.17-31.17v-14.45c0-17.22-13.96-31.17-31.17-31.17Z"/><path class="cls-1" d="m216.5,221h644.22c17.22,0,31.17,13.96,31.17,31.17v131.91H139.9l-.22-86.06c-.11-42.5,34.32-77.02,76.82-77.02Z"/><polygon class="cls-3" points="226.34 358.31 193.56 348.27 232.53 221 268.29 221.34 226.34 358.31"/><polygon class="cls-3" points="297.34 358.31 264.55 348.27 303.52 221 339.28 221.34 297.34 358.31"/><polygon class="cls-3" points="368.33 358.31 335.54 348.27 374.52 221 410.27 221.34 368.33 358.31"/></svg>