<svg xmlns="http://www.w3.org/2000/svg" viewBox="0 0 40 40" focusable="false" aria-hidden="true"><defs><style>.cls-1{fill:none;}.cls-2{fill:#d9304c;}.cls-3{fill:#ffaca6;}.cls-4{fill:#000d6e;}</style></defs><g id="Solid"><rect class="cls-1" width="40" height="40"/></g><g id="Icon"><path class="cls-2" d="M25,33.44a2,2,0,0,0,2.83,0l5.66-5.66a2,2,0,0,0,0-2.83l-4.25-4.24-8.48,8.48Z"/><path class="cls-2" d="M15.05,6.56a2,2,0,0,0-2.83,0L6.56,12.22a2,2,0,0,0,0,2.83l4.25,4.24,8.48-8.48Z"/><path class="cls-3" d="M20,11.51,28.49,20l4.95-4.95a2,2,0,0,0,0-2.83L27.78,6.56a2,2,0,0,0-2.83,0Z"/><path class="cls-3" d="M6.56,25a2,2,0,0,0,0,2.83l5.66,5.66a2,2,0,0,0,2.83,0L20,28.49,11.51,20Z"/><path class="cls-4" d="M11.51,20,20,28.49h0L28.49,20h0L20,11.51Zm4.78-.53a.75.75,0,1,1,0,1.06A.74.74,0,0,1,16.29,19.47Zm3.18,3.18a.75.75,0,0,1,1.06,1.06.74.74,0,0,1-1.06,0A.75.75,0,0,1,19.47,22.65Zm3.18-3.18a.75.75,0,0,1,1.06,0,.74.74,0,0,1,0,1.06.75.75,0,0,1-1.06-1.06Zm-2.12-2.12a.75.75,0,0,1-1.06-1.06.74.74,0,0,1,1.06,0A.75.75,0,0,1,20.53,17.35Z"/></g></svg>