<?xml version="1.0" encoding="UTF-8"?><svg xmlns="http://www.w3.org/2000/svg" viewBox="0 0 40 40" focusable="false" aria-hidden="true"><defs><style>.uuid-3c5d3ef7-be99-4ff0-9f6b-3134f8bb864e{fill:none;}.uuid-9a268e6b-9f6e-4a70-85dc-7284812f9d18{fill:#000d6e;}.uuid-4b6094f3-77ed-4001-ad46-b418cf4ebaee{fill:#6c2273;}.uuid-4ec41c70-bda6-471e-b47e-7b977413a633{fill:#b8b2ff;}</style></defs><g id="uuid-d946ee1e-7b61-4fce-a3b5-a527be1705cb"><rect class="uuid-3c5d3ef7-be99-4ff0-9f6b-3134f8bb864e" width="40" height="40"/></g><g id="uuid-048d66af-1b93-41c4-a092-71e84bc6b2b4"><path class="uuid-4b6094f3-77ed-4001-ad46-b418cf4ebaee" d="M30.81,24.13c-1.25-1.25-3.04-1.59-4.6-1.07l-9.14-9.14c.52-1.57,.18-3.36-1.07-4.6-1.17-1.17-2.83-1.54-4.33-1.15l2.14,3.48-1.85,1.85-3.48-2.14c-.39,1.5-.02,3.15,1.15,4.32,1.25,1.25,3.04,1.59,4.6,1.07l9.14,9.14c-.52,1.57-.18,3.36,1.07,4.6,1.76,1.76,4.61,1.76,6.36,0,1.76-1.76,1.76-4.61,0-6.36Zm-1.38,4.99c-.47,.47-1.1,.73-1.77,.73s-1.3-.26-1.77-.73c-.97-.97-.97-2.56,0-3.54,.94-.95,2.59-.95,3.54,0,.97,.97,.97,2.56,0,3.54Z"/><path class="uuid-4ec41c70-bda6-471e-b47e-7b977413a633" d="M27.67,29.85c-.67,0-1.3-.26-1.77-.73-.97-.97-.97-2.56,0-3.54,.94-.95,2.59-.95,3.54,0h0c.97,.97,.97,2.56,0,3.54-.47,.47-1.1,.73-1.77,.73Zm0-4c-.4,0-.78,.16-1.06,.44-.58,.58-.58,1.54,0,2.12s1.55,.57,2.12,0,.58-1.54,0-2.12h0c-.28-.28-.66-.44-1.06-.44Z"/><path class="uuid-9a268e6b-9f6e-4a70-85dc-7284812f9d18" d="M23.06,23.23c-.13,0-.26-.05-.35-.15l-5.66-5.66c-.2-.2-.2-.51,0-.71s.51-.2,.71,0l5.66,5.66c.2,.2,.2,.51,0,.71-.1,.1-.23,.15-.35,.15Z"/></g></svg>