<?xml version="1.0" encoding="UTF-8"?><svg xmlns="http://www.w3.org/2000/svg" viewBox="0 0 40 40" focusable="false" aria-hidden="true"><defs><style>.cls-1{fill:none;}.cls-2{fill:#000d6e;}.cls-3{fill:#6c2273;}.cls-4{fill:#b8b2ff;}</style></defs><g id="Solid"><rect class="cls-1" width="40" height="40"/></g><g id="Icon_Purple"><g><rect class="cls-4" x="9" y="5.00000001" width="24" height="30" rx="2" ry="2"/><path class="cls-3" d="M31,35.5H11c-1.37841797,0-2.5-1.12109375-2.5-2.5V7c0-1.37890625,1.12158203-2.5,2.5-2.5H31c1.37841797,0,2.5,1.12109375,2.5,2.5v26c0,1.37890625-1.12158203,2.5-2.5,2.5ZM11,5.5c-.82714844,0-1.5,.67285156-1.5,1.5v26c0,.82714844,.67285156,1.5,1.5,1.5H31c.82714844,0,1.5-.67285156,1.5-1.5V7c0-.82714844-.67285156-1.5-1.5-1.5H11Z"/><rect class="cls-3" x="7" y="10.33178607" width="5" height="2" rx=".999998" ry=".999998"/><rect class="cls-3" x="7" y="16.33599921" width="5" height="2" rx=".999998" ry=".999998"/><rect class="cls-3" x="7" y="22.34021236" width="5" height="2" rx=".999998" ry=".999998"/><rect class="cls-3" x="7" y="28.34442551" width="5" height="2" rx=".999998" ry=".999998"/><rect class="cls-3" x="13" y="5.06347656" width="1" height="29.92871094"/><g><path class="cls-3" d="M16.63537598,24.43188478c0,.29412842,.28112793,.53265381,.62786865,.53265381h3.12097168v-8.01385498l-3.74884033,3.0982666v4.38293457Z"/><path class="cls-3" d="M25.38262939,24.96441652h3.12097168c.34680176,0,.62786865-.23852539,.62786865-.53265381V13.49853517l-.00012207,.00012207-3.74871826,2.91687012v8.54888916Z"/><path class="cls-3" d="M23.34692383,17.27276613l-1.81463623-1.03668213c-.09637451-.04852295-.23034668-.03656006-.32763672,.03656006l-.19567871,.16174316v8.53015137h3.74884033v-8.06286621l-.36535645,.28430176c-.30236816,.22674561-.71148682,.2598877-1.04553223,.08679199Z"/><path class="cls-2" d="M30.38513184,12.2652588c0-.16162109-.13970947-.29241943-.31207275-.29241943l-.94122314-.00054932h-.00030518c-.17236328,0-.31237793,.13079834-.31237793,.29241943,0,.16107178,.13970947,.29241943,.31207275,.29241943l.23175049,.00024414-5.36560059,4.17510986c-.10040283,.07537842-.23675537,.08624268-.33654785,.03479004l-1.81677246-1.03778076c-.33221436-.16796875-.73583984-.13366699-1.04180908,.09594727l-5.31085205,4.3883667c-.12939453,.10681152-.14160156,.29187012-.02746582,.41296387,.06195068,.06506348,.14794922,.09881592,.23431396,.09881592,.07348633,0,.14733887-.02404785,.20684814-.07312012l.73028564-.60351562,3.74884033-3.0982666,.62475586-.51629639,.19567871-.16174316c.09729004-.07312012,.23126221-.08508301,.32763672-.03656006l1.81463623,1.03668213c.33404541,.1730957,.74316406,.13995361,1.04553223-.08679199l.36535645-.28430176,.62481689-.48614502,3.74871826-2.91687012,.6295166-.48986816,.00006104,.12982178c0,.16162109,.14007568,.29241943,.31243896,.29241943h.00030518c.17236328,0,.31207275-.13134766,.31207275-.29241943l-.00061035-.87335205Z"/></g><g><path class="cls-2" d="M37.75823019,36.00529817l-4.70220083-4.70220083c-.31159648-.31159648-.85729395-.31159648-1.16889044,0l-.00151358,.00151358-.90779721-.90784766-.58691741-.58686695c-.08264168,.10746446-.18183189,.21487847-.28102209,.31411912-.0991902,.0991902-.1983804,.19010615-.29757061,.27274783l.58686695,.58691741,.90371053,.90366008-.00020181,.00020181c-.32249429,.32209067-.32249429,.84760702,0,1.16969768l4.70179721,4.70139359c.15579824,.15579824,.36326015,.24136619,.58444522,.24136619s.42864698-.08556795,.58444522-.24136619l.58484884-.58444522c.15579824-.15579824,.24176981-.36326015,.24176981-.58444522s-.08597157-.42864698-.24176981-.58444522Z"/><path class="cls-2" d="M30.69675558,23.10598068c-2.09959322-2.09131896-5.50525803-2.09131896-7.60485125,0-1.00850099,1.01677525-1.57059562,2.36416769-1.57059562,3.80247608s.56209463,2.78570082,1.57059562,3.80242562c1.0167248,1.00850099,2.36411724,1.57059562,3.80242562,1.57059562,1.3060716,0,2.52945106-.46290443,3.50485502-1.29779734,.10746446-.09091594,.1983804-.18188234,.29757061-.27279828,.0991902-.0991902,.19843086-.20665466,.28107254-.31411912,.83489291-.9671297,1.28952308-2.19050916,1.28952308-3.4883065,0-1.43830838-.56209463-2.78570082-1.57059562-3.80247608Zm-.30584487,6.70391562c-.08264168,.10746446-.18183189,.21487847-.28102209,.31411912-.0991902,.0991902-.1983804,.19010615-.29757061,.27274783-.81839485,.68610761-1.83511965,1.05809609-2.91798806,1.05809609-1.2151052,0-2.35584298-.47117869-3.21555867-1.33084392-.85966524-.85971569-1.33084392-2.00045347-1.33084392-3.21555867,0-1.21515566,.47117869-2.35589343,1.33084392-3.21555867,.88448801-.88448801,2.05004857-1.33084392,3.21555867-1.33084392s2.33107066,.44635591,3.21555867,1.33084392c.85966524,.85966524,1.33084392,2.00040301,1.33084392,3.21555867,0,1.07459416-.36371423,2.0830447-1.04982183,2.90143955Z"/></g></g></g></svg>