<?xml version="1.0" encoding="UTF-8"?><svg xmlns="http://www.w3.org/2000/svg" viewBox="0 0 40 40" focusable="false" aria-hidden="true"><defs><style>.uuid-85d0048d-5a11-4de4-a5fd-6413aad6d50f{fill:none;}.uuid-ece7dbef-f4df-40a7-a215-e9dd5d65d414{fill:#000d6e;}.uuid-38839f5b-5d83-4d0e-97b5-4d5fb61d098a{fill:#1b5951;}.uuid-2c2e1823-ea40-44a0-b87c-7b50c8847d09{fill:#94e3d4;}</style></defs><g id="uuid-74f63657-bee7-40ec-aed1-59887dfb7083"><rect class="uuid-85d0048d-5a11-4de4-a5fd-6413aad6d50f" width="40" height="40"/></g><g id="uuid-b0950370-2adf-4ad6-bc5d-e2e9f36dbf1d"><path class="uuid-38839f5b-5d83-4d0e-97b5-4d5fb61d098a" d="M30.81,24.13c-1.25-1.25-3.04-1.59-4.6-1.07l-9.14-9.14c.52-1.57,.18-3.36-1.07-4.6-1.17-1.17-2.83-1.54-4.33-1.15l2.14,3.48-1.85,1.85-3.48-2.14c-.39,1.5-.02,3.15,1.15,4.32,1.25,1.25,3.04,1.59,4.6,1.07l9.14,9.14c-.52,1.57-.18,3.36,1.07,4.6,1.76,1.76,4.61,1.76,6.36,0,1.76-1.76,1.76-4.61,0-6.36Zm-1.38,4.99c-.47,.47-1.1,.73-1.77,.73s-1.3-.26-1.77-.73c-.97-.97-.97-2.56,0-3.54,.94-.95,2.59-.95,3.54,0,.97,.97,.97,2.56,0,3.54Z"/><path class="uuid-2c2e1823-ea40-44a0-b87c-7b50c8847d09" d="M27.67,29.85c-.67,0-1.3-.26-1.77-.73-.97-.97-.97-2.56,0-3.54,.94-.95,2.59-.95,3.54,0h0c.97,.97,.97,2.56,0,3.54-.47,.47-1.1,.73-1.77,.73Zm0-4c-.4,0-.78,.16-1.06,.44-.58,.58-.58,1.54,0,2.12s1.55,.57,2.12,0,.58-1.54,0-2.12h0c-.28-.28-.66-.44-1.06-.44Z"/><path class="uuid-ece7dbef-f4df-40a7-a215-e9dd5d65d414" d="M23.06,23.23c-.13,0-.26-.05-.35-.15l-5.66-5.66c-.2-.2-.2-.51,0-.71s.51-.2,.71,0l5.66,5.66c.2,.2,.2,.51,0,.71-.1,.1-.23,.15-.35,.15Z"/></g></svg>