<svg xmlns="http://www.w3.org/2000/svg" viewBox="0 0 40 40" focusable="false" aria-hidden="true"><defs><style>.cls-1{fill:none;}.cls-2{fill:#fa9319;}.cls-3{fill:#000d6e;}.cls-4{fill:#fae052;}</style></defs><g id="Solid"><rect class="cls-1" width="40" height="40"/></g><g id="Icon_Tangerine" data-name="Icon Tangerine"><polygon class="cls-2" points="29 6 25 6 25 8.306 29 11.994 29 6"/><path class="cls-3" d="M21.2666,7.583l10.3945,9.585L32,16.8008l.3389-.3672,0,0L21.94,6.8438a2.9,2.9,0,0,0-3.8842.0048L7.6612,16.4335l0,0L8,16.8008l.3389.3672,10.39-9.58A1.8983,1.8983,0,0,1,21.2666,7.583Z"/><path class="cls-4" d="M28.9171,29.0266h.8611A5.9855,5.9855,0,0,1,30,18.7949v-1.798L20.6025,8.3311l-.0008,0-.0133-.0122a.86.86,0,0,0-.54-.212c-.0164-.001-.0321-.0083-.0485-.0084s-.0321.0074-.0485.0084a.86.86,0,0,0-.54.212l-.0133.0122-.0008,0L10,16.9969V34H27.0109a2.0272,2.0272,0,0,1,.6575-1.4728,2.0278,2.0278,0,0,1-.66-1.5006A1.9584,1.9584,0,0,1,28.9171,29.0266Z"/><path class="cls-3" d="M37.0989,36.0289H28.9171a1.003,1.003,0,0,0-.0248,1.9945c.0087,0,.016.0055.0248.0055h8.1818a1.0046,1.0046,0,0,0,0-2Z"/><path class="cls-3" d="M37.0989,33.0278H28.9171a1.0045,1.0045,0,0,0,0,2h8.1818a1.0046,1.0046,0,0,0,0-2Z"/><path class="cls-3" d="M37.0989,30.0266H28.9171a1.0045,1.0045,0,0,0,0,2h8.1818a1.0046,1.0046,0,0,0,0-2Z"/><path class="cls-3" d="M28.008,23.9782a5,5,0,1,0,5-5A5,5,0,0,0,28.008,23.9782Zm6.94-1.3933h1.6636V23.05h-1.127v.5547h.9937v.4639h-.9937v1.02h-.5366Zm-2.6318,0h.5366v.9873h.9541v-.9873h.5366v2.5029h-.5366V24.0507h-.9541v1.0371h-.5366Zm-1.6016-.0469a1.1817,1.1817,0,0,1,1.1738.8174l-.5146.209a.6521.6521,0,0,0-.6734-.5186.7928.7928,0,0,0,.0035,1.5811.6448.6448,0,0,0,.67-.5186l.5146.209a1.1758,1.1758,0,0,1-1.1772.8174,1.2984,1.2984,0,0,1,.0034-2.5967Z"/></g></svg>