<?xml version="1.0" encoding="UTF-8"?><svg id="Calque_1" data-name="Calque 1" xmlns="http://www.w3.org/2000/svg" viewBox="0 0 40 40" focusable="false" aria-hidden="true"><path d="M0,0H40V40H0V0Z" fill="none"/><g><path d="M29,6h-4v2.31l4,3.69V6Z" fill="#6c2273"/><path d="M21.27,7.58l10.39,9.58,.34-.37,.34-.37L21.94,6.84c-1.1-.99-2.78-.99-3.88,0L7.66,16.43l.34,.37,.34,.37L18.73,7.59c.72-.65,1.82-.65,2.54,0h0Z" fill="#000d6e"/><path d="M28.92,29.03h.86c-2.79-1.78-3.61-5.48-1.83-8.26,.52-.81,1.22-1.49,2.05-1.97v-1.8l-9.4-8.67h-.01c-.15-.14-.34-.22-.54-.22-.02,0-.03,0-.05,0s-.03,0-.05,0c-.2,0-.39,.08-.54,.21h-.01s-9.4,8.68-9.4,8.68v17H27.01c0-.56,.24-1.09,.66-1.47-.42-.38-.66-.93-.66-1.5-.02-1.08,.83-1.97,1.91-2h0Z" fill="#aea8d0"/><path d="M37.1,36.03h-8.18c-.55,.05-.96,.54-.9,1.09,.05,.47,.41,.84,.88,.9,0,0,.02,0,.02,0h8.18c.55-.06,.96-.55,.9-1.1-.05-.48-.42-.85-.9-.9h0Zm0-3h-8.18c-.55,.05-.96,.54-.91,1.09,.04,.48,.43,.87,.91,.91h8.18c.55-.06,.96-.55,.9-1.1-.05-.48-.42-.85-.9-.9h0Zm0-3h-8.18c-.55,.05-.96,.54-.91,1.09,.04,.48,.43,.87,.91,.91h8.18c.55-.06,.96-.55,.9-1.1-.05-.48-.42-.85-.9-.9h0Z" fill="#000d6e"/></g><path d="M33,19c-2.8,0-5,2.2-5,5s2.2,5,5,5,5-2.2,5-5-2.2-5-5-5Zm.2,4.2l-.1,.6h-1.3v.3h1.3l-.1,.6h-1c.2,.4,.6,.6,1.1,.6,.4,0,.8-.2,1-.6l.8,.5c-.4,.6-1.1,1-1.8,.9-1,0-1.8-.6-2.1-1.5h-.6l.1-.6h.4v-.3h-.3l.1-.6h.3c.3-.9,1.2-1.5,2.1-1.5,.7,0,1.4,.3,1.8,.9l-.8,.5c-.2-.4-.6-.6-1-.6s-.8,.2-1.1,.6h1.2v.2Z" fill="#000d6e"/></svg>