<?xml version="1.0" encoding="UTF-8"?><svg xmlns="http://www.w3.org/2000/svg" viewBox="0 0 40 40" focusable="false" aria-hidden="true"><defs><style>.cls-1{fill:none;}.cls-2{fill:#000d6e;}.cls-3{fill:#ffaca6;}.cls-4{fill:#d9304c;}</style></defs><g id="Solid"><rect class="cls-1" width="40" height="40"/></g><g id="Icon_Red"><g><rect class="cls-3" x="13" y="19.91925049" width="4" height="4"/><rect class="cls-3" x="13" y="24.91925049" width="4" height="4"/><rect class="cls-3" x="18" y="14.91925049" width="4" height="4"/><rect class="cls-3" x="13" y="14.91925049" width="4" height="4"/><rect class="cls-3" x="18" y="9.91925049" width="4" height="4"/><rect class="cls-3" x="13" y="9.91925049" width="4" height="4"/><rect class="cls-3" x="18" y="19.91925049" width="4" height="4"/><rect class="cls-3" x="23" y="24.91925049" width="4" height="4"/><rect class="cls-3" x="23" y="9.91925049" width="4" height="4"/><rect class="cls-3" x="23" y="14.91925049" width="4" height="4"/><rect class="cls-3" x="18" y="24.91925049" width="4" height="4"/><rect class="cls-3" x="23" y="19.91925049" width="4" height="4"/><path class="cls-4" d="M11,6.9208374v29.99841309h5v-5h8v5h5V6.9208374H11Zm6,7.99841309v4h-4v-4h4Zm-4-1v-4h4v4h-4Zm4,6v4h-4v-4h4Zm0,5v4h-4v-4h4Zm5-10v4h-4v-4h4Zm-4-1v-4h4v4h-4Zm4,6v4h-4v-4h4Zm0,5v4h-4v-4h4Zm5-5v4h-4v-4h4Zm-4-1v-4h4v4h-4Zm4,6v4h-4v-4h4Zm0-11h-4v-4h4v4Z"/><rect class="cls-2" x="16" y="31.91925049" width="8" height="5"/></g></g></svg>