<svg xmlns="http://www.w3.org/2000/svg" viewBox="0 0 40 40" focusable="false" aria-hidden="true"><defs><style>.cls-1{fill:none;}.cls-2{fill:#000d6e;}.cls-3{fill:#94e3d4;}.cls-4{fill:#1b5951;}</style></defs><g id="Solid"><rect class="cls-1" width="40" height="40"/></g><g id="Icon_Green" data-name="Icon Green"><circle class="cls-2" cx="20" cy="23.0004" r="2"/><path class="cls-3" d="M20,15a7.9935,7.9935,0,0,0-7.413,11H27.413A7.9935,7.9935,0,0,0,20,15Zm0,10a2,2,0,1,1,2-2A2,2,0,0,1,20,25Z"/><path class="cls-3" d="M30.6777,23l1.6612-1.5332a.5.5,0,0,0-.13-.8213l-2.0537-.9443,1.1059-1.9727a.5007.5007,0,0,0-.3774-.7412l-2.2456-.2637.4429-2.2168a.5.5,0,0,0-.5884-.5879l-2.2168.4424-.2637-2.2451a.5.5,0,0,0-.27-.3867.5067.5067,0,0,0-.4717.0088L23.3,12.8447l-.9453-2.0537a.5.5,0,0,0-.8218-.13L20,12.3223l-1.5327-1.6612a.5.5,0,0,0-.8218.13L16.7,12.8447,14.729,11.7383a.5068.5068,0,0,0-.4717-.0088.5.5,0,0,0-.27.3867l-.2637,2.2451-2.2168-.4424a.5.5,0,0,0-.5884.5879l.4429,2.2168-2.2456.2637a.5007.5007,0,0,0-.3774.7412l1.1059,1.9727-2.0537.9443a.5.5,0,0,0-.13.8213L9.3223,23,7.6606,24.5342a.5.5,0,0,0,.13.8213l1.4029.645h2.3292a9,9,0,1,1,16.9538,0h2.3292l1.4029-.645a.5.5,0,0,0,.13-.8213Z"/><rect class="cls-4" x="4" y="26.9711" width="32" height="2"/></g></svg>