<?xml version="1.0" encoding="UTF-8"?><svg xmlns="http://www.w3.org/2000/svg" viewBox="0 0 40 40" focusable="false" aria-hidden="true"><defs><style>.uuid-4a361452-6e32-4efb-84de-221bd1050692{fill:none;}.uuid-efbf97cd-e457-4bc9-81dd-8bfbc6522922{fill:#000d6e;}.uuid-bf062731-398f-4eeb-9c4c-bfc541901287{fill:#1b5951;}.uuid-0e747599-0dc1-45ff-bf11-73c08d1f20b6{fill:#94e3d4;}</style></defs><g id="uuid-499fa63f-9724-4c95-bfb6-fc18cf8c4997"><rect class="uuid-4a361452-6e32-4efb-84de-221bd1050692" width="40" height="40"/></g><g id="uuid-972340d2-9c40-4011-afad-84176aec953e"><g><path class="uuid-efbf97cd-e457-4bc9-81dd-8bfbc6522922" d="M35.28,10.23c-.39-.39-1.02-.39-1.41,0l-6.85,6.85h2.83l5.44-5.44c.39-.39,.39-1.02,0-1.41Z"/><path class="uuid-efbf97cd-e457-4bc9-81dd-8bfbc6522922" d="M5.96,10.23c-.39-.39-1.02-.39-1.41,0s-.39,1.02,0,1.41l5.44,5.44h2.83l-6.85-6.85Z"/><path class="uuid-bf062731-398f-4eeb-9c4c-bfc541901287" d="M12.82,17.09h-4.82c-1.1,0-2,.9-2,2s.9,2,2,2h24c1.1,0,2-.9,2-2s-.9-2-2-2H12.82Z"/></g><path class="uuid-bf062731-398f-4eeb-9c4c-bfc541901287" d="M7,22.08h26v12.1c0,2.15-1.75,3.9-3.9,3.9H10.9c-2.15,0-3.9-1.75-3.9-3.9v-12.1h0Z"/><path class="uuid-0e747599-0dc1-45ff-bf11-73c08d1f20b6" d="M12,25h2v11h-2c-1.1,0-2-.9-2-2v-7c0-1.1,.9-2,2-2Z"/><path class="uuid-0e747599-0dc1-45ff-bf11-73c08d1f20b6" d="M28,25h2v11h-2c-1.1,0-2-.9-2-2v-7c0-1.1,.9-2,2-2Z" transform="translate(56 61) rotate(-180)"/><rect class="uuid-0e747599-0dc1-45ff-bf11-73c08d1f20b6" x="18" y="25" width="4" height="11"/><path class="uuid-efbf97cd-e457-4bc9-81dd-8bfbc6522922" d="M14,9c0,3.31,2.69,6,6,6s6-2.69,6-6-2.69-6-6-6-6,2.69-6,6Zm8.33-1.67h2v.56h-1.35v.67h1.19v.56h-1.19v1.22h-.64v-3Zm-3.16,0h.64v1.18h1.14v-1.18h.64v3h-.64v-1.24h-1.14v1.24h-.64v-3Zm-1.92-.06c.77,0,1.25,.48,1.41,.98l-.62,.25c-.1-.38-.37-.62-.81-.62-.51,0-.88,.38-.88,.95s.36,.95,.88,.95c.44,0,.7-.24,.8-.62l.62,.25c-.16,.52-.64,.98-1.41,.98-.88,0-1.54-.65-1.54-1.56s.67-1.56,1.55-1.56Z"/></g></svg>