<?xml version="1.0" encoding="UTF-8"?><svg xmlns="http://www.w3.org/2000/svg" viewBox="0 0 40 40" focusable="false" aria-hidden="true"><defs><style>.uuid-60dc97ce-882a-4d8a-8bec-dee90d8bd72a{fill:none;}.uuid-925f285b-88ce-49a9-8038-36f6560c5caf{fill:#fa9319;}.uuid-0ba3cb7d-d6b9-4a07-8152-8f53043a0ed7{fill:#000d6e;}.uuid-8d48d888-ac6e-48ef-b725-6ca1ea324863{fill:#fae052;}</style></defs><g id="uuid-4f168644-b016-4bde-9004-59bb258e5541"><rect class="uuid-60dc97ce-882a-4d8a-8bec-dee90d8bd72a" width="40" height="40"/></g><g id="uuid-c99e159f-e43c-407e-85e3-de956d59a0d9"><g><path class="uuid-0ba3cb7d-d6b9-4a07-8152-8f53043a0ed7" d="M35.28,10.23c-.39-.39-1.02-.39-1.41,0l-6.85,6.85h2.83l5.44-5.44c.39-.39,.39-1.02,0-1.41Z"/><path class="uuid-0ba3cb7d-d6b9-4a07-8152-8f53043a0ed7" d="M5.96,10.23c-.39-.39-1.02-.39-1.41,0s-.39,1.02,0,1.41l5.44,5.44h2.83l-6.85-6.85Z"/><path class="uuid-925f285b-88ce-49a9-8038-36f6560c5caf" d="M12.82,17.09h-4.82c-1.1,0-2,.9-2,2s.9,2,2,2h24c1.1,0,2-.9,2-2s-.9-2-2-2H12.82Z"/></g><path class="uuid-925f285b-88ce-49a9-8038-36f6560c5caf" d="M7,22.08h26v12.1c0,2.15-1.75,3.9-3.9,3.9H10.9c-2.15,0-3.9-1.75-3.9-3.9v-12.1h0Z"/><path class="uuid-8d48d888-ac6e-48ef-b725-6ca1ea324863" d="M12,25h2v11h-2c-1.1,0-2-.9-2-2v-7c0-1.1,.9-2,2-2Z"/><path class="uuid-8d48d888-ac6e-48ef-b725-6ca1ea324863" d="M28,25h2v11h-2c-1.1,0-2-.9-2-2v-7c0-1.1,.9-2,2-2Z" transform="translate(56 61) rotate(-180)"/><rect class="uuid-8d48d888-ac6e-48ef-b725-6ca1ea324863" x="18" y="25" width="4" height="11"/><path class="uuid-0ba3cb7d-d6b9-4a07-8152-8f53043a0ed7" d="M14,9c0,3.31,2.69,6,6,6s6-2.69,6-6-2.69-6-6-6-6,2.69-6,6Zm8.33-1.67h2v.56h-1.35v.67h1.19v.56h-1.19v1.22h-.64v-3Zm-3.16,0h.64v1.18h1.14v-1.18h.64v3h-.64v-1.24h-1.14v1.24h-.64v-3Zm-1.92-.06c.77,0,1.25,.48,1.41,.98l-.62,.25c-.1-.38-.37-.62-.81-.62-.51,0-.88,.38-.88,.95s.36,.95,.88,.95c.44,0,.7-.24,.8-.62l.62,.25c-.16,.52-.64,.98-1.41,.98-.88,0-1.54-.65-1.54-1.56s.67-1.56,1.55-1.56Z"/></g></svg>