<svg xmlns="http://www.w3.org/2000/svg" viewBox="0 0 40 40" focusable="false" aria-hidden="true"><defs><style>.cls-1{fill:none;}.cls-2{fill:#ffaca6;}.cls-3{fill:#d9304c;}.cls-4{fill:#000d6e;}</style></defs><g id="Solid"><rect class="cls-1" width="40" height="40"/></g><g id="Icon_Red" data-name="Icon Red"><path class="cls-2" d="M27.0005,16.1982,21,21.735V38H36V23.5585l-7.9886-7.3711A.7592.7592,0,0,0,27.0005,16.1982Z"/><polygon class="cls-3" points="35 14 32 14 32 16.132 35 18.898 35 14"/><path class="cls-3" d="M2,38H7V33h8v5h5V3H2ZM14,6h4v4H14Zm0,5h4v4H14Zm0,5h4v4H14Zm0,5h4v4H14Zm0,5h4v4H14ZM9,6h4v4H9Zm0,5h4v4H9Zm0,5h4v4H9Zm0,5h4v4H9Zm0,5h4v4H9ZM4,6H8v4H4Zm0,5H8v4H4Zm0,5H8v4H4Zm0,5H8v4H4Zm0,5H8v4H4Z"/><path class="cls-4" d="M38.0284,23.0515l-8.8492-8.1606a2.4679,2.4679,0,0,0-3.3053.0041L21,19.3893v1.1571l5.4468-5.0222a1.6154,1.6154,0,0,1,2.16-.0042l8.8454,8.1565.2884-.3125.2883-.3124Z"/><rect class="cls-4" x="7" y="33" width="8" height="5"/></g></svg>