<svg xmlns="http://www.w3.org/2000/svg" viewBox="0 0 40 40" focusable="false" aria-hidden="true"><defs><style>.cls-1{fill:none;}.cls-2{fill:#b8b2ff;}.cls-3{fill:#6c2273;}</style></defs><g id="Solid"><rect class="cls-1" width="40" height="40"/></g><g id="Icon"><path class="cls-2" d="M15.81,14.7a11.3,11.3,0,0,0,3.69.77v-5A11.52,11.52,0,0,0,15.81,14.7Z"/><path class="cls-2" d="M19.5,19.5v-3a12,12,0,0,1-4.12-.87,11.3,11.3,0,0,0-.85,3.9Z"/><path class="cls-2" d="M30,19.5a9.86,9.86,0,0,0-2.17-5.75,12.72,12.72,0,0,1-2.26,1.44,12.63,12.63,0,0,1,.93,4.31Z"/><path class="cls-2" d="M25.47,19.5a11.3,11.3,0,0,0-.85-3.9,12,12,0,0,1-4.12.87v3Z"/><path class="cls-2" d="M20.5,10.52v5a11.3,11.3,0,0,0,3.69-.77A11.52,11.52,0,0,0,20.5,10.52Z"/><path class="cls-2" d="M18.33,10.15A10,10,0,0,0,12.86,13a11.62,11.62,0,0,0,2,1.29A12.65,12.65,0,0,1,18.33,10.15Z"/><path class="cls-2" d="M21.67,10.15a12.65,12.65,0,0,1,3.44,4.14,11.62,11.62,0,0,0,2-1.29A10,10,0,0,0,21.67,10.15Z"/><path class="cls-2" d="M14.53,20.5a11.13,11.13,0,0,0,.84,3.88,12.63,12.63,0,0,1,4.13-.87v-3Z"/><path class="cls-2" d="M24.2,25.29a11.36,11.36,0,0,0-3.7-.78v5A11.57,11.57,0,0,0,24.2,25.29Z"/><path class="cls-2" d="M21.67,29.85A10,10,0,0,0,27.15,27a11.34,11.34,0,0,0-2-1.29A12.45,12.45,0,0,1,21.67,29.85Z"/><path class="cls-2" d="M13.53,19.5a12.63,12.63,0,0,1,.93-4.31,12.72,12.72,0,0,1-2.26-1.44A9.86,9.86,0,0,0,10,19.5Z"/><path class="cls-2" d="M18.33,29.85a12.45,12.45,0,0,1-3.44-4.15,11.34,11.34,0,0,0-2,1.29A10,10,0,0,0,18.33,29.85Z"/><path class="cls-2" d="M26.47,20.5a12.35,12.35,0,0,1-.93,4.3,12.45,12.45,0,0,1,2.27,1.44A9.89,9.89,0,0,0,30,20.5Z"/><path class="cls-2" d="M20.5,20.5v3a12.63,12.63,0,0,1,4.13.87,11.13,11.13,0,0,0,.84-3.88Z"/><path class="cls-2" d="M10,20.5a9.89,9.89,0,0,0,2.16,5.74,12.45,12.45,0,0,1,2.27-1.44,12.35,12.35,0,0,1-.93-4.3Z"/><path class="cls-2" d="M19.5,29.48v-5a11.36,11.36,0,0,0-3.7.78A11.57,11.57,0,0,0,19.5,29.48Z"/><path class="cls-3" d="M34.45,25.78l-1-2v0l-.07-.08-.06-.07-.07,0-.1-.05h-.08a.48.48,0,0,0-.12,0l-.09,0-.07,0-2,1a.5.5,0,0,0,.22.95.54.54,0,0,0,.22-.05l1-.49A12.81,12.81,0,0,1,20,33.5,12.75,12.75,0,0,1,7.49,23.88a.5.5,0,0,0-1,.24A13.77,13.77,0,0,0,20,34.5a13.79,13.79,0,0,0,13.12-9.15l.43.87a.5.5,0,0,0,.45.28.54.54,0,0,0,.22-.05A.51.51,0,0,0,34.45,25.78Z"/><path class="cls-3" d="M33.49,15.88A13.77,13.77,0,0,0,20,5.5,13.79,13.79,0,0,0,6.88,14.65l-.43-.87a.5.5,0,0,0-.9.44l1,2h0a.42.42,0,0,0,.17.18l0,0a.31.31,0,0,0,.1,0H7a.41.41,0,0,0,.16,0h0l2-1a.5.5,0,0,0-.44-.9L7.8,15A12.81,12.81,0,0,1,20,6.5a12.75,12.75,0,0,1,12.51,9.62.5.5,0,0,0,.49.38h.12A.51.51,0,0,0,33.49,15.88Z"/></g></svg>