<?xml version="1.0" encoding="iso-8859-1"?><!--Generator: Adobe Illustrator 26.2.1, SVG Export Plug-In . SVG Version: 6.00 Build 0)--><svg version="1.1" xmlns="http://www.w3.org/2000/svg" xmlns:xlink="http://www.w3.org/1999/xlink" x="0px" y="0px" viewBox="0 0 40 40" xml:space="preserve" focusable="false" aria-hidden="true" enable-background="new 0 0 40 40"><g id="Solid"><rect width="40" height="40" fill="none"/></g><g id="Icon_Tangerine"><circle cx="20" cy="20" r="17" fill="#FA9319"/><g><path d="M8.513,19.553h-2c-0.276,0-0.5,0.224-0.5,0.5s0.224,0.5,0.5,0.5h2c0.276,0,0.5-0.224,0.5-0.5
			S8.789,19.553,8.513,19.553z" fill="none"/><path d="M20,30.998c-0.276,0-0.5,0.224-0.5,0.5v2c0,0.276,0.224,0.5,0.5,0.5s0.5-0.224,0.5-0.5v-2
			C20.5,31.222,20.276,30.998,20,30.998z" fill="none"/><path d="M11.509,12.277c0.098,0.098,0.226,0.146,0.354,0.146s0.256-0.049,0.354-0.146
			c0.195-0.195,0.195-0.512,0-0.707l-1.414-1.415c-0.195-0.195-0.512-0.195-0.707,0s-0.195,0.512,0,0.707L11.509,12.277z" fill="none"/><path d="M11.539,27.786L10.124,29.2c-0.195,0.195-0.195,0.512,0,0.707c0.098,0.098,0.226,0.146,0.354,0.146
			s0.256-0.049,0.354-0.146l1.415-1.414c0.195-0.195,0.195-0.512,0-0.707S11.734,27.591,11.539,27.786z" fill="none"/><path d="M33.487,19.553h-2c-0.276,0-0.5,0.224-0.5,0.5s0.224,0.5,0.5,0.5h2c0.276,0,0.5-0.224,0.5-0.5
			S33.764,19.553,33.487,19.553z" fill="none"/><path d="M29.169,10.155l-1.415,1.415c-0.195,0.195-0.195,0.512,0,0.707c0.098,0.098,0.226,0.146,0.354,0.146
			s0.256-0.049,0.354-0.146l1.415-1.415c0.195-0.195,0.195-0.512,0-0.707S29.364,9.96,29.169,10.155z" fill="none"/><path d="M28.461,27.815c-0.195-0.195-0.512-0.195-0.707,0s-0.195,0.512,0,0.707l1.415,1.414
			c0.098,0.098,0.226,0.146,0.354,0.146s0.256-0.049,0.354-0.146c0.195-0.195,0.195-0.512,0-0.707L28.461,27.815z" fill="none"/><g><path d="M11.539,27.786L10.124,29.2c-0.195,0.195-0.195,0.512,0,0.707c0.098,0.098,0.226,0.146,0.354,0.146
				s0.256-0.049,0.354-0.146l1.415-1.414c0.195-0.195,0.195-0.512,0-0.707S11.734,27.591,11.539,27.786z" fill="none"/><path d="M11.509,12.277c0.098,0.098,0.226,0.146,0.354,0.146s0.256-0.049,0.354-0.146
				c0.195-0.195,0.195-0.512,0-0.707l-1.414-1.415c-0.195-0.195-0.512-0.195-0.707,0s-0.195,0.512,0,0.707L11.509,12.277z" fill="none"/><path d="M20,30.998c-0.276,0-0.5,0.224-0.5,0.5v2c0,0.276,0.224,0.5,0.5,0.5s0.5-0.224,0.5-0.5v-2
				C20.5,31.222,20.276,30.998,20,30.998z" fill="none"/><path d="M20,6.064c-0.276,0-0.5,0.224-0.5,0.5v2c0,0.276,0.224,0.5,0.5,0.5s0.5-0.224,0.5-0.5v-2
				C20.5,6.288,20.276,6.064,20,6.064z" fill="none"/><path d="M29.169,10.155l-1.415,1.415c-0.195,0.195-0.195,0.512,0,0.707c0.098,0.098,0.226,0.146,0.354,0.146
				s0.256-0.049,0.354-0.146l1.415-1.415c0.195-0.195,0.195-0.512,0-0.707S29.364,9.96,29.169,10.155z" fill="none"/><path d="M33.487,19.553h-2c-0.276,0-0.5,0.224-0.5,0.5s0.224,0.5,0.5,0.5h2c0.276,0,0.5-0.224,0.5-0.5
				S33.764,19.553,33.487,19.553z" fill="none"/><path d="M28.461,27.815c-0.195-0.195-0.512-0.195-0.707,0s-0.195,0.512,0,0.707l1.415,1.414
				c0.098,0.098,0.226,0.146,0.354,0.146s0.256-0.049,0.354-0.146c0.195-0.195,0.195-0.512,0-0.707L28.461,27.815z" fill="none"/><g><path d="M20,5C11.716,5,5,11.716,5,20c0,8.284,6.716,15,15,15s15-6.716,15-15C35,11.716,28.284,5,20,5z
					 M8.513,20.553h-2c-0.276,0-0.5-0.224-0.5-0.5s0.224-0.5,0.5-0.5h2c0.276,0,0.5,0.224,0.5,0.5S8.789,20.553,8.513,20.553z
					 M10.095,10.155c0.195-0.195,0.512-0.195,0.707,0l1.414,1.415c0.195,0.195,0.195,0.512,0,0.707
					c-0.098,0.098-0.226,0.146-0.354,0.146s-0.256-0.049-0.354-0.146l-1.414-1.415C9.899,10.667,9.899,10.351,10.095,10.155z
					 M12.246,28.493l-1.415,1.414c-0.098,0.098-0.226,0.146-0.354,0.146s-0.256-0.049-0.354-0.146c-0.195-0.195-0.195-0.512,0-0.707
					l1.415-1.414c0.195-0.195,0.512-0.195,0.707,0S12.441,28.298,12.246,28.493z M20.5,33.498c0,0.276-0.224,0.5-0.5,0.5
					s-0.5-0.224-0.5-0.5v-2c0-0.276,0.224-0.5,0.5-0.5s0.5,0.224,0.5,0.5V33.498z M20.5,8.564c0,0.276-0.224,0.5-0.5,0.5
					s-0.5-0.224-0.5-0.5v-2c0-0.276,0.224-0.5,0.5-0.5s0.5,0.224,0.5,0.5V8.564z M29.876,29.937
					c-0.098,0.098-0.226,0.146-0.354,0.146s-0.256-0.049-0.354-0.146l-1.415-1.414c-0.195-0.195-0.195-0.512,0-0.707
					s0.512-0.195,0.707,0l1.415,1.414C30.071,29.425,30.071,29.741,29.876,29.937z M29.876,10.862l-1.415,1.415
					c-0.098,0.098-0.226,0.146-0.354,0.146s-0.256-0.049-0.354-0.146c-0.195-0.195-0.195-0.512,0-0.707l1.415-1.415
					c0.195-0.195,0.512-0.195,0.707,0S30.071,10.667,29.876,10.862z M33.487,20.553h-2c-0.276,0-0.5-0.224-0.5-0.5
					s0.224-0.5,0.5-0.5h2c0.276,0,0.5,0.224,0.5,0.5S33.764,20.553,33.487,20.553z" fill="#FAE052"/></g></g></g><path d="M25.704,13.356c-0.096,0.006-0.195,0.024-0.294,0.066l-8.187,3.368
		c-0.104,0.043-0.197,0.111-0.277,0.191l0.018,0.018c-0.072,0.077-0.134,0.164-0.175,0.263l-3.37,8.185
		c-0.294,0.714,0.42,1.429,1.135,1.135l8.185-3.37c0.214-0.088,0.385-0.258,0.473-0.473l3.37-8.185
		C26.84,13.925,26.319,13.298,25.704,13.356z M20,21.5c-0.828,0-1.5-0.672-1.5-1.5s0.672-1.5,1.5-1.5s1.5,0.672,1.5,1.5
		S20.828,21.5,20,21.5z" fill="#000D6E"/></g></svg>