<?xml version="1.0" encoding="UTF-8"?><svg xmlns="http://www.w3.org/2000/svg" viewBox="0 0 40 40" focusable="false" aria-hidden="true"><defs><style>.uuid-4f079233-fb03-448c-856d-0ca6dcd0770a{fill:none;}.uuid-2021cbf8-c034-4141-a987-e3fab0aeca9d{fill:#000d6e;}.uuid-6dcf7523-0c74-4e9c-a81c-91a3622b939f{fill:#1b5951;}.uuid-cdd7f24a-3148-40ef-883c-bff207159a85{fill:#94e3d4;}</style></defs><g id="uuid-97fb6efe-1db5-4c00-b504-36d61b0a6e83"><rect class="uuid-4f079233-fb03-448c-856d-0ca6dcd0770a" width="40" height="40"/></g><g id="uuid-4866a3ad-3bf9-49d3-bda4-eb4d0a510561"><g><g><rect class="uuid-cdd7f24a-3148-40ef-883c-bff207159a85" x="9" y="11" width="8" height="10"/><path class="uuid-6dcf7523-0c74-4e9c-a81c-91a3622b939f" d="M10.5,25h5c.82839605,0,1.5-.6716,1.5-1.5v-1.5H9v1.5c0,.8284,.67159622,1.5,1.5,1.5Z"/><path class="uuid-6dcf7523-0c74-4e9c-a81c-91a3622b939f" d="M17,8.5c0-.8284-.67160395-1.5-1.5-1.5h-5c-.82840378,0-1.5,.6716-1.5,1.5v1.5h8v-1.5Z"/><path class="uuid-cdd7f24a-3148-40ef-883c-bff207159a85" d="M32,14h-14v4h14c1.10459563,0,2-.8954,2-2s-.89540437-2-2-2Z"/></g><rect class="uuid-2021cbf8-c034-4141-a987-e3fab0aeca9d" x="6" y="31" width="14" height="2"/></g></g></svg>