<?xml version="1.0" encoding="UTF-8"?><svg xmlns="http://www.w3.org/2000/svg" viewBox="0 0 40 40" focusable="false" aria-hidden="true"><defs><style>.uuid-c207e665-9b1c-43ac-9fd4-ed636f1a0cc9{fill:none;}.uuid-6fb37c94-92ed-45eb-b4ce-1bccf5f6d0ec{fill:#000d6e;}.uuid-ac0c0ee9-a5b0-4b55-9682-74ca8cf94f2d{fill:#ffaca6;}.uuid-949f048b-ee06-4b83-873c-c60cc71144e4{fill:#d9304c;}</style></defs><g id="uuid-ff0db8b2-09c6-440e-9ae0-47433bde582e"><rect class="uuid-c207e665-9b1c-43ac-9fd4-ed636f1a0cc9" width="40" height="40"/></g><g id="uuid-cb34cbb8-4ad9-46c3-8e32-886a2bb20ee7"><g><g><rect class="uuid-ac0c0ee9-a5b0-4b55-9682-74ca8cf94f2d" x="9" y="11" width="8" height="10"/><path class="uuid-949f048b-ee06-4b83-873c-c60cc71144e4" d="M10.5,25h5c.82839605,0,1.5-.6716,1.5-1.5v-1.5H9v1.5c0,.8284,.67159622,1.5,1.5,1.5Z"/><path class="uuid-949f048b-ee06-4b83-873c-c60cc71144e4" d="M17,8.5c0-.8284-.67160395-1.5-1.5-1.5h-5c-.82840378,0-1.5,.6716-1.5,1.5v1.5h8v-1.5Z"/><path class="uuid-ac0c0ee9-a5b0-4b55-9682-74ca8cf94f2d" d="M32,14h-14v4h14c1.10459563,0,2-.8954,2-2s-.89540437-2-2-2Z"/></g><rect class="uuid-6fb37c94-92ed-45eb-b4ce-1bccf5f6d0ec" x="6" y="31" width="14" height="2"/></g></g></svg>