<?xml version="1.0" encoding="UTF-8"?><svg xmlns="http://www.w3.org/2000/svg" viewBox="0 0 40 40" focusable="false" aria-hidden="true"><g id="uuid-97fb6efe-1db5-4c00-b504-36d61b0a6e83"><rect width="40" height="40" fill="none"/></g><g id="uuid-4866a3ad-3bf9-49d3-bda4-eb4d0a510561"><g><g><rect x="9" y="11" width="8" height="10" fill="#94e3d4"/><path d="M10.5,25h5c.82839605,0,1.5-.6716,1.5-1.5v-1.5H9v1.5c0,.8284,.67159622,1.5,1.5,1.5Z" fill="#1b5951"/><path d="M17,8.5c0-.8284-.67160395-1.5-1.5-1.5h-5c-.82840378,0-1.5,.6716-1.5,1.5v1.5h8v-1.5Z" fill="#1b5951"/><path d="M32,14h-14v4h14c1.10459563,0,2-.8954,2-2s-.89540437-2-2-2Z" fill="#94e3d4"/></g><rect x="6" y="31" width="14" height="2" fill="#000d6e"/></g></g></svg>