<?xml version="1.0" encoding="UTF-8"?><svg xmlns="http://www.w3.org/2000/svg" viewBox="0 0 40 40" focusable="false" aria-hidden="true"><g id="uuid-8bb40b4c-ca04-4f18-8f3f-2e86e0ae50c8"><rect width="40" height="40" fill="none"/></g><g id="uuid-7b6fb529-eb08-40fe-98ba-2a157c498d02"><g><g><rect x="9" y="11" width="8" height="10" fill="#fae052"/><path d="M10.5,25h5c.82839605,0,1.5-.6716,1.5-1.5v-1.5H9v1.5c0,.8284,.67159622,1.5,1.5,1.5Z" fill="#fa9319"/><path d="M17,8.5c0-.8284-.67160395-1.5-1.5-1.5h-5c-.82840378,0-1.5,.6716-1.5,1.5v1.5h8v-1.5Z" fill="#fa9319"/><path d="M32,14h-14v4h14c1.10459563,0,2-.8954,2-2s-.89540437-2-2-2Z" fill="#fae052"/></g><rect x="6" y="31" width="14" height="2" fill="#000d6e"/></g></g></svg>