<?xml version="1.0" encoding="iso-8859-1"?><!--Generator: Adobe Illustrator 26.2.1, SVG Export Plug-In . SVG Version: 6.00 Build 0)--><svg version="1.1" xmlns="http://www.w3.org/2000/svg" xmlns:xlink="http://www.w3.org/1999/xlink" x="0px" y="0px" viewBox="0 0 40 40" style="enable-background:new 0 0 40 40" xml:space="preserve" focusable="false" aria-hidden="true"><g id="Solid"><rect style="fill:none" width="40" height="40"/></g><g id="Icon_Purple"><path style="fill:#6C2273" d="M31,31H9c-1.105,0-2-0.895-2-2V15h26v14C33,30.105,32.105,31,31,31z"/><g><path style="fill:#6C2273" d="M33,10.841C33,9.825,32.17,9,31.14,9H28v2.064c0,0.556-0.448,1.006-1,1.006
			c-0.552,0-1-0.45-1-1.006V9H14v2.064c0,0.556-0.448,1.006-1,1.006c-0.552,0-1-0.45-1-1.006V9H8.86C7.83,9,7,9.825,7,10.841V14h26
			V10.841z"/></g><path style="fill:#B8B2FF" d="M13,12.042c0.552,0,1-0.448,1-1V8.99V7.042c0-0.552-0.448-1-1-1c-0.552,0-1,0.448-1,1V8.99v2.052
		C12,11.594,12.448,12.042,13,12.042z"/><path style="fill:#B8B2FF" d="M27,12.042c0.552,0,1-0.448,1-1V8.99V7.042c0-0.552-0.448-1-1-1c-0.552,0-1,0.448-1,1V8.99v2.052
		C26,11.594,26.448,12.042,27,12.042z"/><path style="fill:#B8B2FF" d="M12,21h-2c-0.552,0-1-0.448-1-1v-2c0-0.552,0.448-1,1-1h2c0.552,0,1,0.448,1,1v2
		C13,20.552,12.552,21,12,21z"/><path style="fill:#B8B2FF" d="M18,21h-2c-0.552,0-1-0.448-1-1v-2c0-0.552,0.448-1,1-1h2c0.552,0,1,0.448,1,1v2
		C19,20.552,18.552,21,18,21z"/><path style="fill:#B8B2FF" d="M24,21h-2c-0.552,0-1-0.448-1-1v-2c0-0.552,0.448-1,1-1h2c0.552,0,1,0.448,1,1v2
		C25,20.552,24.552,21,24,21z"/><path style="fill:#B8B2FF" d="M30,21h-2c-0.552,0-1-0.448-1-1v-2c0-0.552,0.448-1,1-1h2c0.552,0,1,0.448,1,1v2
		C31,20.552,30.552,21,30,21z"/><path style="fill:#B8B2FF" d="M12,27h-2c-0.552,0-1-0.448-1-1v-2c0-0.552,0.448-1,1-1h2c0.552,0,1,0.448,1,1v2
		C13,26.552,12.552,27,12,27z"/><path style="fill:#B8B2FF" d="M18,27h-2c-0.552,0-1-0.448-1-1v-2c0-0.552,0.448-1,1-1h2c0.552,0,1,0.448,1,1v2
		C19,26.552,18.552,27,18,27z"/><path style="fill:#B8B2FF" d="M24,27h-2c-0.552,0-1-0.448-1-1v-2c0-0.552,0.448-1,1-1h2c0.552,0,1,0.448,1,1v2
		C25,26.552,24.552,27,24,27z"/><g><path style="fill:#000D6E" d="M24.122,18.352l-0.623,0.623l0.623,0.623l-0.462,0.457l-0.623-0.623l-0.627,0.623l-0.462-0.457
			l0.623-0.628l-0.623-0.622l0.462-0.462l0.623,0.623l0.623-0.623L24.122,18.352z"/></g></g><g id="Guides" style="display:none"/><g id="Grid" style="display:none"><g style="display:inline"><g/><g/><g/><g/><g/><g/><g/><g/><g/><g/><g/><g/><g/><g/><g/><g/><g/><g/><g/><g/><g/><g/><g/><g/><g/><g/><g/><g/><g/><g/><g/><g/><g/><g/><g/><g/><g/><g/><g/><g/></g></g></svg>