<?xml version="1.0" encoding="iso-8859-1"?><!--Generator: Adobe Illustrator 26.2.1, SVG Export Plug-In . SVG Version: 6.00 Build 0)--><svg version="1.1" xmlns="http://www.w3.org/2000/svg" xmlns:xlink="http://www.w3.org/1999/xlink" x="0px" y="0px" viewBox="0 0 40 40" style="enable-background:new 0 0 40 40" xml:space="preserve" focusable="false" aria-hidden="true"><g id="Solid"><rect style="fill:none" width="40" height="40"/></g><g id="Icon_Purple"><g><path style="fill:#B8B2FF" d="M5.012,21.566v9.43C5.012,31.55,5.462,32,6.017,32h4.995V16.269L5.012,21.566z"/><path style="fill:#6C2273" d="M17.427,16.671c-0.484,0.388-1.139,0.444-1.673,0.148l-2.904-1.772
			c-0.154-0.083-0.369-0.062-0.524,0.062l-0.313,0.276V32h6V16.185L17.427,16.671z"/><path style="fill:#000D6E" d="M27.018,8.258c0-0.276-0.224-0.5-0.5-0.5l-1.506-0.001c0,0,0,0,0,0c-0.276,0-0.5,0.224-0.5,0.5
			c0,0.275,0.224,0.5,0.5,0.5l0.371,0l-8.588,7.138c-0.161,0.129-0.379,0.147-0.539,0.06l-2.908-1.774
			c-0.532-0.287-1.178-0.229-1.667,0.164l-8.5,7.503c-0.207,0.183-0.227,0.499-0.044,0.706c0.099,0.111,0.237,0.169,0.375,0.169
			c0.118,0,0.236-0.041,0.331-0.125l8.482-7.488c0.156-0.125,0.37-0.146,0.524-0.062l2.904,1.772
			c0.535,0.296,1.189,0.239,1.673-0.148l8.592-7.142l0,0.222c0,0.276,0.224,0.5,0.5,0.5c0,0,0,0,0,0c0.276,0,0.5-0.225,0.5-0.5
			L27.018,8.258z"/></g><path style="fill:none" d="M29.096,21.732l-2.21,2.201l2.207-2.199l2.207,2.199c0.102,0.102,0.236,0.152,0.37,0.151
		c-0.132-0.001-0.264-0.051-0.365-0.151L29.096,21.732z"/><path style="fill:#6C2273" d="M32.587,17.66c0.053-0.315-0.191-0.602-0.51-0.602h-6.02c-0.32,0-0.563,0.287-0.51,0.602
		l0.417,2.501h6.207L32.587,17.66z"/><g><path style="fill:#6C2273" d="M32.172,21.712c-0.362,0-0.947-0.001-1.629-0.001l1.497,1.491c0.203,0.202,0.203,0.529,0,0.732
			c-0.102,0.102-0.236,0.152-0.37,0.151c-0.134,0.001-0.268-0.049-0.37-0.151l-2.207-2.199l-2.207,2.199
			c-0.203,0.202-0.531,0.202-0.734,0c-0.203-0.202-0.203-0.53,0-0.732l1.497-1.491c-0.684,0-1.271,0.001-1.634,0.001
			c-0.231,0-4.936,6.723-2.003,9.596c0.457,0.448,1.066,0.75,1.752,0.75h3.33h3.33c0.686,0,1.295-0.302,1.752-0.75
			C37.108,28.436,32.403,21.713,32.172,21.712z"/></g><path style="fill:#B8B2FF" d="M26.151,23.934c0.203,0.202,0.532,0.202,0.734,0l2.21-2.201l2.21,2.201
		c0.101,0.1,0.233,0.15,0.365,0.151c0.134,0.001,0.268-0.049,0.37-0.151c0.203-0.202,0.203-0.53,0-0.731l-1.497-1.491l-0.517-0.515
		h2.145v-1.034h-6.207v1.034h2.202l-2.014,2.006C25.949,23.404,25.949,23.732,26.151,23.934z"/><path style="fill:#B8B2FF" d="M22.884,25.096c0.013-0.033,1.025-2.464,2.08-3.691v-0.209v-0.952l-0.403-2.419
		c-0.073-0.441,0.05-0.889,0.339-1.23c0.034-0.04,0.075-0.071,0.113-0.107v-6.121l-6,4.987V32h4.278
		C22.239,30.955,21.328,28.914,22.884,25.096z"/></g><g id="Guides" style="display:none"/><g id="Grid" style="display:none"><g style="display:inline"><g/><g/><g/><g/><g/><g/><g/><g/><g/><g/><g/><g/><g/><g/><g/><g/><g/><g/><g/><g/><g/><g/><g/><g/><g/><g/><g/><g/><g/><g/><g/><g/><g/><g/><g/><g/><g/><g/><g/><g/></g></g></svg>