<?xml version="1.0" encoding="UTF-8"?><svg xmlns="http://www.w3.org/2000/svg" viewBox="0 0 40 40" focusable="false" aria-hidden="true"><defs><style>.cls-1{fill:none;}.cls-2{fill:#000d6e;}.cls-3{fill:#ffaca6;}.cls-4{fill:#6c2273;}.cls-5{fill:#b8b2ff;}</style></defs><g id="Solid"><rect class="cls-1" width="40" height="40"/></g><g id="Icon_Purple"><path class="cls-2" d="M27.57539,27.94252l-.00146-.0592c-.65686-.47583-1.14996-1.28687-1.34937-2.25641-.03461,.00909-.06989,.01538-.10632,.01538-.08099,0-.15826-.02362-.22845-.06628-.21063-.12805-.35852-.4278-.35852-.7771l.00024-.00153c.00012-.07434,.00885-.14532,.02155-.21405l.00769-.03528c.0022-.01025,.00732-.01825,.00977-.02832,.08081-.32697,.29248-.56421,.54773-.56421l.00201,.00024c-.00433-.58807-.01007-1.35553-.0119-1.59552-.00073-.01318,.00073-.07678,.00458-.14783,.00385-.07098,.01001-.14948,.01849-.19232,.38568-.18622,.98425-.50464,1.77893-.3064,.02069,.00494,.0412,.00909,.06244,.01508l.00012,.00006c.15698,.04413,.31879,.1015,.49084,.19189,.21649,.11371,.45453,.23615,.69952,.36072,.37903,.19263,.77582,.39075,1.14178,.57178,.36591,.18109,.70105,.34509,.9566,.4696,.09485,.0462,.16943,.0824,.23969,.11646,.1037,.05035,.18713,.09076,.22394,.10852,0,.05597,.00299,.33569,.00299,.40845,.03583,.00049,.06696,.02112,.10095,.0304,.00671-.00543,.01343-.01239,.02008-.01031,.02094,.00659,.03821,.0238,.05804,.03394,.02838,.01367,.05499,.02783,.0813,.04736l.00018,.00012c.00983,.00745,.02148,.01001,.03107,.01813l.01788,.01416c.02087,.0191,.03644,.04681,.05518,.06958l.00031,.00037c.02136,.02545,.04272,.04797,.06134,.07745l.00018,.00018,.01202,.0152,.01892,.0332c.01929,.03583,.03149,.07837,.04669,.11804l.00018,.00055c.01117,.0296,.02557,.05499,.0343,.08667l.00006,.00012,.00317,.00812c.00317,.0119,.005,.02411,.00781,.03619,.01917,.08325,.03198,.17065,.03198,.26318,0,.11646-.01648,.22736-.04614,.32825-.08911,.30273-.29767,.51514-.54083,.51514-.03058,0-.05988-.00647-.08917-.01294-.1535,.74414-.48022,1.39465-.92102,1.8717-.14697,.159-.30652,.29871-.47668,.41626l.0542,.8667,.00427,.16151v.03651l.72461,.17026,1.21149,.61206,1.42633,.7207c.58447-.3949,.86523-.84937,.61401-1.26025-.4184-.6842-.59058-2.10486-.85242-3.50726-.21722-1.70325-.76862-3.26257-.97534-4.0473-.31445-1.19336-1.2395-2.61163-3.49786-2.68719-1.66809,0-3.05103,1.12976-3.32983,2.28387-.41046,1.12329-1.4483,4.58508,.14594,7.36395,.16522,.28802,.36774,.53168,.59381,.74304l.07556-.03821,.72223-.36487,.36987-.19006,.05243-.83826Z"/><polygon class="cls-3" points="30.91239 31.50915 27.14013 31.50915 27.47511 28.81512 30.30237 28.79947 30.91239 31.50915"/><polygon class="cls-1" points="27.52211 28.79445 27.52095 28.80153 27.52174 28.80086 27.52211 28.79445"/><path class="cls-1" d="M30.2361,27.91732l.05414,.86694-.00055-.00024,.00104,.00806,.00055,.00879,.00067,.00055,.00104,.00867c.00385,.03497,.01544,.15521,.02759,.34778,.01654,.30963,.02417,.82953-.01245,1.55591,.03998-.71954,.03339-1.24023,.01642-1.55377,0-.08997-.01001-.16998-.02002-.22998,0-.04999,0-.09003-.00995-.12v-.02386l-.00427-.00214-.0542-.8667Z"/><path class="cls-1" d="M31.72823,23.95626c.0636,.00085,.12189,.02637,.17914,.05402-.01984-.01013-.03711-.02734-.05804-.03394-.00665-.00208-.01337,.00488-.02008,.01031-.034-.00928-.06512-.02991-.10095-.0304,0-.07275-.00299-.35248-.00299-.40845-.0368-.01776-.12024-.05817-.22394-.10852-.07025-.03406-.14484-.07025-.23969-.11646,.2348,.11438,.40186,.19519,.46356,.22498,0,.05597,.00299,.33569,.00299,.40845Z"/><path class="cls-1" d="M32.27797,24.53573c-.00281-.01208-.00464-.02429-.00781-.03619l-.00317-.00812-.00006-.00012c.02625,.09564,.04303,.19849,.04303,.30762,0-.09253-.01282-.17993-.03198-.26318Z"/><path class="cls-1" d="M31.72298,25.64229c.24316,0,.45172-.2124,.54083-.51514-.08911,.30273-.29773,.51514-.54083,.51514Z"/><path class="cls-1" d="M30.71278,27.50106c.4408-.47705,.76752-1.12756,.92102-1.8717h-.00006c-.1535,.74414-.48016,1.39465-.92096,1.8717Z"/><path class="cls-1" d="M32.23244,24.40407c-.0152-.03967-.0274-.08221-.04669-.11804l-.01892-.0332-.01202-.0152-.00018-.00018c.03137,.0498,.05548,.1076,.078,.16718l-.00018-.00055Z"/><path class="cls-1" d="M30.30507,22.85323c.36597,.18109,.70105,.34509,.9566,.4696-.25555-.12451-.5907-.28851-.9566-.4696Z"/><path class="cls-1" d="M27.57454,31.70998c.01898,.20642,.04193,.4259,.06805,.65521-.02582-.23096-.04749-.44891-.06622-.65656l-.00183-.00171v.00305Z"/><path class="cls-1" d="M27.64369,32.37569c.00647,.05646,.01483,.11847,.02173,.17633-.00671-.05713-.0155-.12061-.02173-.17633Z"/><path class="cls-1" d="M27.54622,31.33901c-.00732-.09747-.01532-.19702-.02124-.28851,.00653,.09271,.01306,.1897,.02124,.28851Z"/><path class="cls-1" d="M30.15285,32.50515c-.04333,.37482-.0979,.78351-.16272,1.21991,.07098-.44226,.12244-.84406,.16272-1.21991Z"/><path class="cls-1" d="M27.50172,30.64443c-.00781-.16602-.01569-.33276-.0191-.47534,.00378,.1463,.01013,.30518,.0191,.47534Z"/><path class="cls-1" d="M30.28456,31.17c.01001-.02002,.01001-.03998,0-.06,.00305-.04108,.00403-.07361,.00677-.11359-.00903,.14508-.02106,.30188-.03394,.46222,.00763-.09326,.02374-.20032,.02716-.28864Z"/><path class="cls-1" d="M25.56074,24.54805l-.00769,.03528c-.0127,.06873-.02142,.13971-.02155,.21405,.00012-.09839,.01733-.18988,.039-.27765-.00244,.01007-.00757,.01807-.00977,.02832Z"/><path class="cls-1" d="M27.48097,30.05764c-.00244-.14124-.00305-.2699-.00214-.38654-.00122,.1167-.00043,.24567,.00214,.38654Z"/><path class="cls-1" d="M27.97279,21.72878c-.02124-.00598-.04175-.01013-.06244-.01508,.02087,.00525,.04132,.00916,.06256,.01514l-.00012-.00006Z"/><path class="cls-1" d="M29.16328,22.28145c.37903,.19263,.77582,.39075,1.14178,.57178-.36597-.18103-.76276-.37915-1.14178-.57178Z"/><path class="cls-1" d="M32.09297,24.15963c-.01874-.02277-.0343-.05048-.05518-.06958l-.01788-.01416c-.00958-.00812-.02124-.01068-.03107-.01813l-.00018-.00012c.0379,.02814,.07214,.06348,.10461,.10236l-.00031-.00037Z"/><path class="cls-1" d="M27.48158,29.48452l.0022-.07129-.0022,.07129Z"/><path class="cls-1" d="M27.51454,28.83999c-.008,.04797-.01465,.14233-.01752,.25684,.01086-.15851,.02112-.27032,.02393-.29523-.00079,.00922,0,.01282-.00641,.03839Z"/><path class="cls-1" d="M26.11824,25.64229c.03644,0,.07172-.00629,.10632-.01538v-.00006c-.03461,.00916-.06989,.01544-.10632,.01544Z"/><path class="cls-1" d="M11.43452,32.57998c.25916,0,.50311-.0564,.72937-.14636-.2262,.08972-.47064,.14594-.73126,.14618l.00189,.00018Z"/><path class="cls-1" d="M9.94545,31.61611c-.00873-.14154-.01343-.27069-.01923-.40314,.00555,.13373,.01031,.26428,.01831,.40704,.01001,.09998,.01001,.20996,.02002,.32001,.2323,.25159,.53589,.43536,.8772,.54089-.33942-.10547-.64221-.28888-.87384-.53961-.00842-.11084-.01593-.21918-.02246-.3252Z"/><path class="cls-1" d="M12.89455,31.94002c.00427-.04694,.00635-.09033,.00854-.13641-.00323,.04596-.00592,.09045-.00946,.13727l.00092-.00085Z"/><path class="cls-1" d="M12.93098,31.30251c.03796-.74048,.03107-1.35254,.01355-1.77252-.00671-.15112-.01434-.27051-.02179-.37463,.00708,.10339,.01434,.22174,.02063,.37103,.01776,.42346,.02289,1.03418-.01239,1.77612Z"/><path class="cls-5" d="M30.32057,29.15786c-.01215-.19257-.02374-.31281-.02759-.34778l-.00104-.00867-.00067-.00055-.00055-.00879-.00104-.00806,.00055,.00024-.05414-.86694c.17017-.11755,.32971-.25726,.47668-.41626,.4408-.47705,.76746-1.12756,.92096-1.8717h.00006c.0293,.00647,.05859,.01294,.08917,.01294,.2431,0,.45172-.2124,.54083-.51514,.02966-.10089,.04614-.21179,.04614-.32825,0-.10913-.01678-.21198-.04303-.30762-.00873-.03168-.02313-.05707-.0343-.08667-.02252-.05957-.04663-.11737-.078-.16718-.01862-.02948-.03998-.052-.06134-.07745-.03247-.03888-.06671-.07422-.10461-.10236-.02631-.01953-.05292-.03369-.0813-.04736-.05725-.02765-.11554-.05316-.17914-.05402,0-.07275-.00299-.35248-.00299-.40845-.06171-.02979-.22876-.1106-.46356-.22498-.25555-.12451-.59064-.28851-.9566-.4696-.36597-.18103-.76276-.37915-1.14178-.57178-.245-.12457-.48303-.24701-.69952-.36072-.17206-.09039-.33386-.14777-.49084-.19189-.02124-.00598-.04169-.00989-.06256-.01514-.79468-.19824-1.39325,.12018-1.77893,.3064-.00848,.04285-.01465,.12134-.01849,.19232-.00385,.07104-.00531,.13464-.00458,.14783,.00183,.23999,.00757,1.00745,.0119,1.59552l-.00201-.00024c-.25525,0-.46692,.23724-.54773,.56421-.02167,.08777-.03888,.17926-.039,.27765l-.00024,.00153c0,.3493,.14789,.64905,.35852,.7771,.07019,.04266,.14746,.06628,.22845,.06628,.03644,0,.07172-.00629,.10632-.01544v.00006c.1994,.96954,.6925,1.78058,1.34937,2.25641l.00146,.0592-.05243,.83826,.00159-.00079-.00244,.01447-.00037,.00641-.00079,.00067v.00006c-.00281,.0249-.01306,.13672-.02393,.29523-.00073,.02869-.0025,.05115-.0025,.08319-.00433,.06696-.00775,.14764-.01074,.23322l-.0022,.07129c-.00159,.05682-.00208,.1225-.00275,.18658-.00092,.11664-.00031,.2453,.00214,.38654,.00067,.03802,.00067,.07172,.00165,.11145,.00342,.14258,.01129,.30933,.0191,.47534,.00122,.02307,.00146,.04205,.00281,.06555,.00372,.1076,.01227,.22412,.02045,.34052,.00592,.09149,.01392,.19104,.02124,.28851l.0282,.33948c.32422,.37579,.79681,.61951,1.33209,.61951,.53424,0,1.00574-.24298,1.32996-.61743,.00793-.07507,.01508-.15015,.02094-.22192,.01288-.16034,.0249-.31714,.03394-.46222,.0069-.09949,.01166-.19019,.01678-.28265,.03662-.72638,.02899-1.24628,.01245-1.55591Z"/><path class="cls-3" d="M27.57637,31.70864l-.00183-.01801v.0163l.00183,.00171Z"/><path class="cls-5" d="M24.40919,8.10268c1.73865,3.88269,2.0882,6.89587,2.08832,6.89722h7.01685c0-7.17957-6.0506-12.99976-13.51434-12.99976,.00146,.00134,2.78998,2.48608,4.40918,6.10254Z"/><path class="cls-5" d="M15.59059,8.10268c1.61945-3.61639,4.40759-6.10107,4.40918-6.10254-7.46375,.00012-13.51416,5.82025-13.51416,12.99976h7.0166c.00012-.00134,.35004-3.01453,2.08838-6.89722Z"/><path class="cls-4" d="M15.59059,8.10268c-1.73834,3.88269-2.08826,6.89587-2.08838,6.89722v.00012h12.9953v-.00012c-.00012-.00134-.34967-3.01453-2.08832-6.89722-1.6192-3.61646-4.40771-6.1012-4.40918-6.10254l-.00012-.00012-.00012,.00012c-.00159,.00146-2.78973,2.48615-4.40918,6.10254Z"/><path class="cls-4" d="M20.49989,16.00002h-1v7.17047c.31268-.10889,.64459-.18323,1-.18793v-6.98254Z"/><path class="cls-5" d="M9.94545,31.61611c.00653,.10602,.01404,.21436,.02246,.3252,.23163,.25073,.53442,.43414,.87384,.53961,.18677,.05798,.38141,.09906,.58899,.09906l.00189-.00018c.26062-.00024,.50507-.05646,.73126-.14618,.2804-.11127,.53113-.2774,.72968-.49231l.00006-.00043c.00354-.04681,.00623-.09131,.00946-.13727,.00293-.06207,.00574-.12622,.01147-.18359,.00751-.11133,.01099-.21161,.01642-.3175,.03528-.74194,.03015-1.35266,.01239-1.77612-.00629-.14929-.01355-.26764-.02063-.37103-.01471-.20587-.0282-.32538-.0282-.32538l.0011,.00055-.00006-.00055,.00616-.9184c.75244-.4975,1.31909-1.37036,1.54596-2.41907,.02765,.00494,.05499,.01154,.08362,.01154,.3587,0,.64941-.39972,.64941-.89282,0-.40631-.19861-.7453-.46875-.85345v.15082c0,.0528-.02069,.09912-.05023,.13831-.01044,.01379-.02094,.02655-.03418,.03778-.02124,.01807-.04486,.03253-.07172,.04205-.02454,.00879-.05017,.01575-.07782,.01575-.12915,0-.23389-.10474-.23389-.23389v-.76459c0-.034-.00275-.06323-.00354-.09595-.02509-.04333-.05463-.08691-.08282-.13049-.15887-.24548-.36987-.48883-.64569-.70355-.47815,.20325-1.10535,.30896-1.84698,.05865-.30261-.10211-.54572-.21307-.74628-.32648-.18872-.10669-.33679-.21521-.45306-.32147-.44769,.07458-.81757,.19617-1.11725,.32147-.25366,.10608-.45984,.21307-.62378,.29297-.03949,.15472-.07581,.34564-.09424,.57892-.00812,.10175-.01318,.20972-.01318,.32593v.76459c0,.12915-.10474,.23389-.23395,.23389-.01343,0-.02515-.00549-.03796-.00769-.11035-.0188-.19592-.11053-.19592-.2262v-.15082c-.27014,.10815-.46875,.44714-.46875,.85345,0,.4931,.29077,.89282,.64941,.89282,.04364,0,.08612-.00635,.12732-.01764,.22284,1.03705,.77704,1.9043,1.5155,2.40607h-.01196l.00488,.9375s-.02905,.25024-.04779,.69641c-.01184,.28296-.01746,.65411-.01056,1.08502,.00342,.18811,.00977,.38867,.01868,.60156,.0058,.13245,.0105,.2616,.01923,.40314Z"/><path class="cls-4" d="M9.97456,32.01998c0-.02997,0-.04999-.01001-.07996-.01001-.11005-.01001-.22003-.02002-.32001-.008-.14276-.01276-.27332-.01831-.40704-.00891-.21289-.01526-.41345-.01868-.60156-.00793-.4303-.0047-.80096,.00702-1.08142,.01996-.45001,.04999-.70001,.04999-.70001l-.07001,.03003-4.59998,2.33002c-.56006,.27997-.94,.82001-1.02002,1.44l-.29004,2.34998h6.39001c-.08997-.39001-.21997-1.12-.34998-2.40002-.02002-.18994-.04004-.37994-.04999-.56Z"/><path class="cls-4" d="M16.96474,31.26503c-.01074,.00476-.02301,.0083-.03369,.01312v-.40991l-4.0354-2.03772-.0011-.00055s.01349,.11951,.0282,.32538c.00745,.10413,.01508,.22351,.02179,.37463,.01752,.41998,.02441,1.03204-.01355,1.77252-.00543,.1059-.00891,.20618-.01642,.3175-.00574,.05737-.00854,.12152-.01147,.18359-.0022,.04608-.00427,.08948-.00854,.13641,0,.02997-.01001,.06-.01001,.08997-.01001,.17999-.02997,.36005-.04999,.54999-.13,1.28003-.26001,2.01001-.35004,2.40002h3.7468v-2.46997c0-.64001,.15322-.99005,.70321-1.23004"/><path class="cls-2" d="M8.34541,24.13479c.01282,.0022,.02454,.00769,.03796,.00769,.12921,0,.23395-.10474,.23395-.23389v-.76459c0-.11621,.00507-.22418,.01318-.32593,.01843-.23328,.05475-.42419,.09424-.57892,.16394-.0799,.37012-.18689,.62378-.29297,.29968-.12531,.66956-.24689,1.11725-.32147,.11627,.10626,.26434,.21478,.45306,.32147,.20056,.1134,.44366,.22437,.74628,.32648,.74164,.25031,1.36884,.14459,1.84698-.05865,.27582,.21472,.48682,.45807,.64569,.70355,.0282,.04358,.05774,.08716,.08282,.13049,.00079,.03271,.00354,.06195,.00354,.09595v.76459c0,.12915,.10474,.23389,.23389,.23389,.02765,0,.05328-.00696,.07782-.01575,.02686-.00952,.05048-.02399,.07172-.04205,.01324-.01123,.02374-.02399,.03418-.03778,.02954-.03918,.05023-.08551,.05023-.13831v-1.01135c.02063-.6059,.03162-1.25464,0-1.56726-.06805-.67322-1.3288-2.34375-3.28125-2.34375s-3.28125,1.47345-3.28125,2.8125v2.10986c0,.11566,.08557,.2074,.19592,.2262Z"/><path class="cls-4" d="M24.97455,32.5v2.47998h3.04681c-.14307-.8493-.28217-1.82068-.35596-2.43799-.0069-.05786-.01526-.11987-.02173-.17633l-.0011-.0105c-.02612-.22931-.04907-.44879-.06805-.65521v-.02997l-.00012-.00153-.0282-.33948c-.00818-.09882-.01471-.1958-.02124-.28851-.00818-.11639-.01672-.23291-.02045-.34052-.00134-.0235-.00159-.04248-.00281-.06555-.00897-.17017-.01532-.32904-.0191-.47534-.00098-.03973-.00098-.07343-.00165-.11145-.00256-.14087-.00336-.26984-.00214-.38654,.00067-.06409,.00116-.12976,.00275-.18658l.0022-.07129c.00299-.08557,.00641-.16626,.01074-.23322,0-.03204,.00177-.0545,.0025-.08319,.00287-.1145,.00952-.20886,.01752-.25684,.00641-.02557,.00562-.02917,.00641-.03839v-.00006l.00116-.00708,.00244-.01447-.00159,.00079-.36987,.19006-.71857,.36914-2.37585,1.19794v.72443c.53754,.23999,.91589,.59949,.91589,1.24768Z"/><path class="cls-4" d="M35.96338,34.97998l-.29883-2.60999c-.07001-.59003-.43005-1.10004-.96002-1.36005l-1.04999-.52997-.16003-.08002-2.10999-1.07001-.36536-.18768c-.21627-.11112-.43281-.22761-.65718-.32161-.0213-.00892-.04351-.0201-.06663-.02219,.00406,.00037,.03315,.45837,.03518,.49596,.01147,.21259,.01145,.42539,.00415,.63812-.00747,.21801-.0069,.43856-.0205,.65608-.00193,.03838-.00385,.07676-.00609,.11512-.00793,.14276-.013,.28558-.02112,.42816l-.00317,.0426c-.00745,.09161-.01892,.18256-.02643,.27411-.00586,.07178-.013,.14685-.02094,.22192-.01215,.11487-.01593,.21564-.03192,.33942-.01379,.15161-.03424,.32245-.0517,.48517-.04028,.37585-.09174,.77765-.16272,1.21991-.00977,.06073-.01508,.11279-.02557,.17493-.02167,.17853-.06018,.37775-.09192,.56793-.013,.07806-.05225,.29791-.09265,.52209h6.18341Z"/><path class="cls-1" d="M23.00362,28.0706c.10315,0,.19373-.05408,.27472-.12836-.08124,.07385-.1723,.12781-.27661,.12781l.00189,.00055Z"/><path class="cls-1" d="M22.67086,28.33787c-.16699,.3205-.38385,.60217-.64447,.8266,.26141-.22363,.47839-.50519,.64447-.8266Z"/><path class="cls-1" d="M19.84292,30.80345c-.02362-.01184-.04694-.0238-.06989-.03674,.02283,.01331,.04626,.02466,.06989,.03674Z"/><path class="cls-1" d="M23.35164,26.77244c-.09125-.11877-.20917-.19684-.34167-.19928l-.00287-.33655-.00195-.00055c.00134,.12115,.00269,.23871,.00409,.33984,.13245,0,.25061,.07806,.34241,.19653Z"/><path class="cls-1" d="M20.25905,30.93577c-.04889-.00818-.09918-.0119-.1463-.02484,.047,.01306,.09735,.01642,.1463,.02484Z"/><path class="cls-1" d="M22.82143,28.01774c.0528,.02856,.10913,.0459,.16827,.04883-.05688-.00275-.11908-.02106-.16815-.04907l-.00012,.00024Z"/><path class="cls-1" d="M18.02382,28.07005c-.10992,0-.20551-.05927-.289-.14124,.08331,.08234,.17841,.14178,.28717,.14178,.07025,0,.13684-.0213,.198-.05743,.05078,.13837,.11292,.26929,.18207,.39459-.06934-.12628-.13177-.2583-.18298-.39783-.06006,.03754-.12762,.06012-.19525,.06012Z"/><path class="cls-1" d="M18.01955,25.61906l-.0022-.32214-.00281,.00293,.00275,.31946v.00708c.00189,.22186,.00415,.47815,.0061,.7099-.00079-.23267-.00238-.48999-.00385-.71216v-.00507Z"/><path class="cls-5" d="M21.74037,30.25755v-.08527l-.01501-.22522-.03754-.53308c.11902-.07288,.23157-.15747,.33856-.24951,.26062-.22443,.47748-.5061,.64447-.8266,.0542-.10394,.10846-.20782,.15057-.32013l.00012-.00024c.04907,.02802,.11127,.04633,.16815,.04907l.01074,.00311,.00128,.00037c.10431,0,.19537-.05396,.27661-.12781,.14685-.13354,.24896-.35724,.24896-.62305,0-.21729-.0697-.40991-.17566-.54675-.0918-.11847-.20996-.19653-.34241-.19653-.0014-.10114-.00275-.21869-.00409-.33984-.67383-.19501-2.06976-.61328-2.89624-1.04761-.96771-.50836-1.66663-.10089-2.08057,.09698l-.01099,.01147,.0022,.32214v.00507c.00146,.22217,.00305,.47949,.00385,.71216,.00024,.08197,.00043,.16101,.00043,.23212-.14636,0-.27777,.08453-.37256,.22058-.09479,.13611-.15295,.32373-.15295,.53021,0,.25372,.09363,.46796,.22937,.60406l.00714,.00555c.0835,.08197,.17908,.14124,.289,.14124,.06763,0,.13519-.02258,.19525-.06012,.05121,.13953,.11365,.27155,.18298,.39783,.00439,.008,.00714,.01727,.0116,.02515,.00861,.0152,.02008,.02789,.02887,.04291,.22235,.37915,.52075,.6936,.87274,.91565l-.0376,.89343-.0014,.02124,.0022-.00049c.1286,.19049,.29828,.34662,.49457,.46106,.02295,.01294,.04626,.0249,.06989,.03674,.08563,.04382,.17511,.08112,.26984,.10748,.04712,.01294,.09741,.01666,.1463,.02484,.0824,.01416,.1637,.03168,.25098,.03168,.51935,0,.96027-.26135,1.23035-.66046v-.04944Z"/><path class="cls-2" d="M19.27626,30.61215l.0014-.32726,.0376-.89343c-.35199-.22205-.65039-.5365-.87274-.91565-.00879-.01501-.02026-.02771-.02887-.04291-.00446-.00787-.0072-.01715-.0116-.02515-.06915-.12531-.13129-.25623-.18207-.39459-.06116,.03613-.12775,.05743-.198,.05743-.10876,0-.20386-.05945-.28717-.14178l-.00714-.00555c-.13574-.13611-.22937-.35034-.22937-.60406,0-.20648,.05817-.3941,.15295-.53021,.09479-.13605,.2262-.22058,.37256-.22058,0-.07111-.00018-.15015-.00043-.23212-.00195-.23175-.00421-.48804-.0061-.7099v-.00708l-.00275-.31946,.00281-.00293,.01099-.01147c.41394-.19788,1.11285-.60535,2.08057-.09698,.82648,.43433,2.22241,.8526,2.89624,1.04761l.00195,.00055,.00287,.33655c.13251,.00244,.25043,.08051,.34167,.19928,.10596,.13684,.17566,.32947,.17566,.54675,0,.26581-.10211,.4895-.24896,.62305-.08099,.07428-.17157,.12836-.27472,.12836l-.00189-.00055-.00128-.00037-.01074-.00311c-.05914-.00293-.11548-.02026-.16827-.04883-.04211,.1123-.09637,.21619-.15057,.32013-.16608,.32141-.38306,.60297-.64447,.8266-.10699,.09204-.21954,.17664-.33856,.24951l.03754,.53308,.01501,.22522v.57604l.00116-.44268,1.42853,.77312c.3432,.09149,.63751,.20068,.89075,.33148v-4.67052c0-.11041-.01721-.21448-.0246-.32239v-.00012c-.02917-.42694-.10828-.83221-.24005-1.20471-.01355-.03961-.03186-.07532-.04651-.11414-.05573-.1441-.11108-.28815-.18024-.42096-.09052-.177-.19153-.34436-.30444-.49805-.01337-.02509-.03076-.04907-.04681-.07349-.01825-.02765-.03534-.0556-.05316-.08337-.48572-.75739-1.47504-1.37769-2.62744-1.37769-.0285,0-.05426,.00824-.08252,.00897-.39429,.01062-.76477,.09521-1.10388,.2312-.44067,.17676-.82892,.43323-1.12506,.74261-.17053,.14453-.32568,.31555-.46857,.50214-.0108,.01422-.02271,.02661-.03333,.04102-.13892,.18732-.26025,.39502-.36676,.61652-.00714,.01508-.01483,.02917-.02179,.04431-.08868,.19049-.15515,.39777-.21631,.60852-.01233,.04254-.03241,.07959-.04364,.1228l-.0058,.02277c-.03375,.13312-.04382,.27783-.06592,.41687-.02191,.13831-.05585,.27087-.06549,.41461v.00018c-.00714,.10687-.01599,.21313-.01599,.32239v4.24957c.26099-.13995,.56714,.05028,.92749-.04585l1.42627-.3313Z"/><path class="cls-5" d="M25.04004,34.97998v-2.42255c0-.78546-.34705-1.26202-.97925-1.58856-.25323-.1308-.54755-.23999-.89075-.33148l-1.42853-.33179-.00116,.00134c-.27008,.39911-.711,.66046-1.23035,.66046-.08728,0-.16858-.01752-.25098-.03168-.04895-.00842-.0993-.01178-.1463-.02484-.09473-.02637-.1842-.06366-.26984-.10748-.02362-.01208-.04706-.02344-.06989-.03674-.19629-.11444-.36597-.27057-.49457-.46106l-.0022,.00049-1.42627,.3313c-.36035,.09613-.6665,.21191-.92749,.35187-.60803,.32605-.9425,.79852-.9425,1.56818v2.42255h9.06006Z"/><path class="cls-4" d="M23.38,34.98v-4.28259l-.21002-.06-1.42999-.32996c-.27002,.39996-.71002,.65997-1.22998,.65997s-.96002-.26001-1.23004-.65997l-1.42999,.32996-.21002,.06v4.28259h5.74005Z"/></g></svg>