<svg xmlns="http://www.w3.org/2000/svg" xmlns:xlink="http://www.w3.org/1999/xlink" viewBox="0 0 40 40" focusable="false" aria-hidden="true"><defs><style>.cls-1{fill:none;}.cls-2{fill:#fa9319;}.cls-3{fill:#fae052;}.cls-4{clip-path:url(#clip-path);}.cls-5{fill:#000d6e;}</style><clipPath id="clip-path"><circle class="cls-1" cx="31" cy="26" r="6"/></clipPath></defs><g id="Solid"><rect class="cls-1" width="40" height="40"/></g><g id="Icon_Tangerine" data-name="Icon Tangerine"><path class="cls-2" d="M26.7384,20.46,26.5,7h-4L22,19l-6-4v4l-6-4v4L4,15V31H26.1105A6.9759,6.9759,0,0,1,26.7384,20.46ZM8,26.0184H6v-2H8Zm5.9609,0h-2v-2h2Zm5.9976,0h-2v-2h2Z"/><circle class="cls-3" cx="31" cy="26" r="6"/><g class="cls-4"><path class="cls-5" d="M30.2627,29.8666a.7856.7856,0,0,0-.425-.6034l-1.9513-.9859-.0147-.2241a1.6054,1.6054,0,0,0,.6335-1.0028.1992.1992,0,0,0,.0377.0105c.15,0,.2716-.1673.2716-.3736a.3692.3692,0,0,0-.1961-.3525v-.3691a6.3579,6.3579,0,0,0,0-.6511,1.4575,1.4575,0,0,0-1.3727-.98,1.3088,1.3088,0,0,0-1.3727,1.1766v.8241a.3693.3693,0,0,0-.196.3525c0,.2063.1216.3736.2716.3736a.1989.1989,0,0,0,.0553-.0154,1.6148,1.6148,0,0,0,.6167.9955l-.0155.2363-1.9512.9859a.7855.7855,0,0,0-.4251.6034l-.1442,1.368h6.3223Z"/><path class="cls-5" d="M37.7712,29.8666a.7855.7855,0,0,0-.4251-.6034l-1.9512-.9859-.0147-.2241a1.6054,1.6054,0,0,0,.6335-1.0028.1992.1992,0,0,0,.0377.0105c.15,0,.2716-.1673.2716-.3736a.3692.3692,0,0,0-.1961-.3525v-.3691a6.3579,6.3579,0,0,0,0-.6511,1.4575,1.4575,0,0,0-1.3727-.98,1.3088,1.3088,0,0,0-1.3727,1.1766v.8241a.3693.3693,0,0,0-.196.3525c0,.2063.1216.3736.2716.3736a.2.2,0,0,0,.0553-.0154,1.6148,1.6148,0,0,0,.6167.9955l-.0155.2363-1.9513.9859a.7856.7856,0,0,0-.425.6034l-.1442,1.368h6.3223Z"/><path class="cls-5" d="M34.0169,30.5426a.7851.7851,0,0,0-.425-.6034l-1.9513-.9859-.0146-.2241a1.6057,1.6057,0,0,0,.6334-1.0028.2013.2013,0,0,0,.0377.01c.15,0,.2717-.1673.2717-.3736a.3692.3692,0,0,0-.1961-.3525v-.3691a6.3874,6.3874,0,0,0,0-.6511A1.4577,1.4577,0,0,0,31,25.01a1.3088,1.3088,0,0,0-1.3727,1.1766v.8241a.3692.3692,0,0,0-.1961.3525c0,.2063.1216.3736.2717.3736a.2.2,0,0,0,.0553-.0154,1.6147,1.6147,0,0,0,.6166.9955l-.0154.2363-1.9513.9859a.7851.7851,0,0,0-.425.6034l-.1443,1.6511,6.3224,0Z"/></g></g></svg>