<?xml version="1.0" encoding="UTF-8"?><svg xmlns="http://www.w3.org/2000/svg" viewBox="0 0 40 40" focusable="false" aria-hidden="true"><defs><style>.uuid-5f39d8c2-e4b1-4503-944e-73c1e03dbab3{fill:none;}.uuid-05eb0056-f774-4a19-bf26-8076178e1aac{fill:#000d6e;}.uuid-73ef5bac-5e0a-4445-b1dc-e98e109a758e{fill:#1b5951;}.uuid-5f6790a7-006c-4b88-9396-e4a6473a9b67{fill:#94e3d4;}</style></defs><g id="uuid-03964de4-475c-4319-a132-24b6deb2df91"><rect class="uuid-5f39d8c2-e4b1-4503-944e-73c1e03dbab3" width="40" height="40"/></g><g id="uuid-a0f55250-0d5a-4011-9f9f-f360b9e51175"><g><g><path class="uuid-5f6790a7-006c-4b88-9396-e4a6473a9b67" d="M20,5c-7.46,0-13.51,5.82-13.51,13h7.02s.35-3.01,2.09-6.9c1.62-3.62,4.41-6.1,4.41-6.1Z"/><path class="uuid-5f6790a7-006c-4b88-9396-e4a6473a9b67" d="M24.41,11.1c1.74,3.88,2.09,6.9,2.09,6.9h7.02c0-7.18-6.05-13-13.51-13,0,0,2.79,2.49,4.41,6.1Z"/><path class="uuid-73ef5bac-5e0a-4445-b1dc-e98e109a758e" d="M24.41,11.1c-1.62-3.62-4.41-6.1-4.41-6.1h0s0,0,0,0c0,0-2.79,2.49-4.41,6.1-1.74,3.88-2.09,6.9-2.09,6.9h0s6.5,0,6.5,0h6.5s-.35-3.01-2.09-6.9Z"/></g><g><path class="uuid-73ef5bac-5e0a-4445-b1dc-e98e109a758e" d="M19.5,32c0,1.1-.9,2-2,2h-.32c-1.1,0-2-.9-2-2v-1.5c0-.28-.22-.5-.5-.5s-.5,.22-.5,.5v1.5c0,1.65,1.34,3,3,3h.32c1.65,0,3-1.34,3-3v-2h-1v2Z"/><polygon class="uuid-05eb0056-f774-4a19-bf26-8076178e1aac" points="19.5 19 19.5 29.5 19.5 30 20.5 30 20.5 29.5 20.5 19 19.5 19"/></g></g><circle class="uuid-5f6790a7-006c-4b88-9396-e4a6473a9b67" cx="29.99" cy="30.97" r="6"/><polygon class="uuid-05eb0056-f774-4a19-bf26-8076178e1aac" points="29.33 32.51 30.62 32.51 30.91 27.14 29.06 27.14 29.33 32.51"/><path class="uuid-05eb0056-f774-4a19-bf26-8076178e1aac" d="M29.98,33.44c-.52,0-.9,.39-.9,.93,0,.5,.38,.9,.9,.9s.92-.39,.92-.9c0-.54-.39-.93-.92-.93Z"/></g></svg>