<?xml version="1.0" encoding="UTF-8"?><svg xmlns="http://www.w3.org/2000/svg" viewBox="0 0 40 40" focusable="false" aria-hidden="true"><defs><style>.uuid-9effb2f2-e106-4fa4-95a5-3ab6066d3e94{fill:none;}.uuid-436f1907-f8ba-4754-b0d6-cb834340e08a{fill:#000d6e;}.uuid-e649c214-7e54-4ff6-a6ab-d5f5972004e0{fill:#6c2273;}.uuid-6e917036-e603-4e21-99c6-df7c4ba5766c{fill:#b8b2ff;}</style></defs><g id="uuid-1e22764d-bb65-474b-a902-e954116e6c28"><rect class="uuid-9effb2f2-e106-4fa4-95a5-3ab6066d3e94" width="40" height="40"/></g><g id="uuid-82ef2755-7a0e-4447-b6ac-60b53ed6bfc5"><g><g><path class="uuid-6e917036-e603-4e21-99c6-df7c4ba5766c" d="M20,5c-7.46,0-13.51,5.82-13.51,13h7.02s.35-3.01,2.09-6.9c1.62-3.62,4.41-6.1,4.41-6.1Z"/><path class="uuid-6e917036-e603-4e21-99c6-df7c4ba5766c" d="M24.41,11.1c1.74,3.88,2.09,6.9,2.09,6.9h7.02c0-7.18-6.05-13-13.51-13,0,0,2.79,2.49,4.41,6.1Z"/><path class="uuid-e649c214-7e54-4ff6-a6ab-d5f5972004e0" d="M24.41,11.1c-1.62-3.62-4.41-6.1-4.41-6.1h0s0,0,0,0c0,0-2.79,2.49-4.41,6.1-1.74,3.88-2.09,6.9-2.09,6.9h0s6.5,0,6.5,0h6.5s-.35-3.01-2.09-6.9Z"/></g><g><path class="uuid-e649c214-7e54-4ff6-a6ab-d5f5972004e0" d="M19.5,32c0,1.1-.9,2-2,2h-.32c-1.1,0-2-.9-2-2v-1.5c0-.28-.22-.5-.5-.5s-.5,.22-.5,.5v1.5c0,1.65,1.34,3,3,3h.32c1.65,0,3-1.34,3-3v-2h-1v2Z"/><polygon class="uuid-436f1907-f8ba-4754-b0d6-cb834340e08a" points="19.5 19 19.5 29.5 19.5 30 20.5 30 20.5 29.5 20.5 19 19.5 19"/></g></g><circle class="uuid-6e917036-e603-4e21-99c6-df7c4ba5766c" cx="29.99" cy="30.97" r="6"/><polygon class="uuid-436f1907-f8ba-4754-b0d6-cb834340e08a" points="29.33 32.51 30.62 32.51 30.91 27.14 29.06 27.14 29.33 32.51"/><path class="uuid-436f1907-f8ba-4754-b0d6-cb834340e08a" d="M29.98,33.44c-.52,0-.9,.39-.9,.93,0,.5,.38,.9,.9,.9s.92-.39,.92-.9c0-.54-.39-.93-.92-.93Z"/></g></svg>