<?xml version="1.0" encoding="UTF-8"?><svg xmlns="http://www.w3.org/2000/svg" viewBox="0 0 40 40" focusable="false" aria-hidden="true"><defs><style>.uuid-250d36d5-70f4-41b0-b925-1f04b7ba0bec{fill:none;}.uuid-ddf240dd-d02b-4a83-aaab-8d9c6f74bb04{fill:#fa9319;}.uuid-e24c080f-f6eb-4b17-b3bb-3c1cab60fbd7{fill:#000d6e;}.uuid-593d4986-f459-47f1-9d5c-ef8001d45455{fill:#fae052;}</style></defs><g id="uuid-3046e878-4efd-4bee-8576-ac76889d62ba"><rect class="uuid-250d36d5-70f4-41b0-b925-1f04b7ba0bec" width="40" height="40"/></g><g id="uuid-df2983a3-761f-4f5d-8f66-09f8bb37123e"><g><g><path class="uuid-593d4986-f459-47f1-9d5c-ef8001d45455" d="M20,5c-7.46,0-13.51,5.82-13.51,13h7.02s.35-3.01,2.09-6.9c1.62-3.62,4.41-6.1,4.41-6.1Z"/><path class="uuid-593d4986-f459-47f1-9d5c-ef8001d45455" d="M24.41,11.1c1.74,3.88,2.09,6.9,2.09,6.9h7.02c0-7.18-6.05-13-13.51-13,0,0,2.79,2.49,4.41,6.1Z"/><path class="uuid-ddf240dd-d02b-4a83-aaab-8d9c6f74bb04" d="M24.41,11.1c-1.62-3.62-4.41-6.1-4.41-6.1h0s0,0,0,0c0,0-2.79,2.49-4.41,6.1-1.74,3.88-2.09,6.9-2.09,6.9h0s6.5,0,6.5,0h6.5s-.35-3.01-2.09-6.9Z"/></g><g><path class="uuid-ddf240dd-d02b-4a83-aaab-8d9c6f74bb04" d="M19.5,32c0,1.1-.9,2-2,2h-.32c-1.1,0-2-.9-2-2v-1.5c0-.28-.22-.5-.5-.5s-.5,.22-.5,.5v1.5c0,1.65,1.34,3,3,3h.32c1.65,0,3-1.34,3-3v-2h-1v2Z"/><polygon class="uuid-e24c080f-f6eb-4b17-b3bb-3c1cab60fbd7" points="19.5 19 19.5 29.5 19.5 30 20.5 30 20.5 29.5 20.5 19 19.5 19"/></g></g><circle class="uuid-593d4986-f459-47f1-9d5c-ef8001d45455" cx="29.99" cy="30.97" r="6"/><polygon class="uuid-e24c080f-f6eb-4b17-b3bb-3c1cab60fbd7" points="29.33 32.51 30.62 32.51 30.91 27.14 29.06 27.14 29.33 32.51"/><path class="uuid-e24c080f-f6eb-4b17-b3bb-3c1cab60fbd7" d="M29.98,33.44c-.52,0-.9,.39-.9,.93,0,.5,.38,.9,.9,.9s.92-.39,.92-.9c0-.54-.39-.93-.92-.93Z"/></g></svg>