<?xml version="1.0" encoding="UTF-8"?><svg xmlns="http://www.w3.org/2000/svg" viewBox="0 0 40 40" focusable="false" aria-hidden="true"><g id="uuid-94314155-15ae-43cf-9634-88615667c507"><rect width="40" height="40" fill="none"/></g><g id="uuid-e8e3d4a6-a6e9-404b-9aef-2d507b6f11eb"><path d="M31.81,19.67c-.26,.44-.75,.72-1.27,.72h-9.55c-.01-.34-.04-.67-.1-1h9.65c.17,0,.32-.08,.4-.23,.04-.06,.11-.23,0-.42l-3.28-5.71-3.26-5.66c-.08-.14-.23-.23-.4-.23s-.32,.09-.4,.23l-3.26,5.66-1.53,2.67c-.26-.23-.52-.44-.8-.62l1.47-2.55,3.25-5.66c.26-.45,.75-.73,1.27-.73s1.01,.28,1.27,.73l3.25,5.66,3.29,5.71c.25,.45,.25,.98,0,1.43Z" fill="#fa9319"/><path d="M20.89,19.39h9.64c.17,0,.32-.09,.4-.23,.04-.06,.11-.23,0-.43l-3.28-5.71-3.25-5.66c-.08-.14-.23-.23-.4-.23s-.32,.09-.4,.23l-3.25,5.66-1.53,2.67c.1,.09,.2,.17,.29,.26,.95,.95,1.56,2.14,1.8,3.43Zm3.1-.86c-.52,0-.9-.39-.9-.9,0-.54,.38-.93,.9-.93s.92,.39,.92,.93c0,.5-.39,.9-.92,.9Zm.93-8.13l-.3,5.36h-1.28l-.27-5.36h1.85Z" fill="#fae052"/><polygon points="24.63 15.77 24.93 10.41 23.07 10.41 23.35 15.77 24.63 15.77" fill="#000d6e"/><path d="M23.99,16.7c-.52,0-.9,.39-.9,.93,0,.5,.38,.9,.9,.9s.92-.39,.92-.9c0-.54-.39-.93-.92-.93Z" fill="#000d6e"/><path d="M18.73,25.49l1.18,1.18s0,0,0,0l.71-.71-1.18-1.18c-.11,.13-.22,.25-.34,.37s-.24,.23-.37,.34Z" fill="#fae052"/><path d="M19.9,26.66c-.39,.39-.39,1.02,0,1.41l5.69,5.69c.19,.19,.44,.29,.71,.29s.52-.1,.71-.29l.71-.71c.19-.19,.29-.44,.29-.71s-.1-.52-.29-.71l-5.69-5.69c-.38-.38-1.04-.38-1.41,0h0s-.71,.71-.71,.71c0,0,0,0,0,0Z" fill="#fa9319"/><path d="M14.07,16.97c1.59,0,3.01,.94,3.63,2.41,.09,.21,.3,.34,.52,.34,.07,0,.15-.01,.22-.04,.29-.12,.42-.45,.3-.74-.79-1.88-2.63-3.09-4.66-3.09-.31,0-.56,.25-.56,.56s.25,.56,.56,.56Z" fill="#000d6e"/><g><path d="M17.53,15.96c-.91-.6-1.97-.91-3.03-.91s-2.11,.3-3.03,.91c.91-.6,1.97-.9,3.03-.9s2.11,.3,3.03,.9Z" fill="none"/><path d="M18.97,17.37c-.18-.24-.36-.48-.58-.7-.26-.26-.54-.49-.84-.69,.3,.2,.58,.43,.84,.69,.22,.21,.4,.45,.58,.7Z" fill="none"/><path d="M9,20.55s0,0,0,0c0-1.14,.35-2.22,1-3.14-.64,.91-1,2-1,3.14Z" fill="none"/><path d="M17.53,15.96s.01,.01,.02,.02c0,0-.01-.01-.02-.02Z" fill="none"/><path d="M11.45,15.98s.01-.01,.02-.02c0,0-.01,.01-.02,.02Z" fill="none"/><path d="M11.45,15.98c-.3,.2-.58,.43-.84,.69-.23,.23-.43,.49-.62,.75,.18-.26,.38-.51,.61-.74,.26-.26,.55-.49,.84-.69Z" fill="none"/><path d="M18.97,17.37c.66,.93,1.03,2.02,1.03,3.19,0,0,0,0,0,0,0-1.16-.37-2.26-1.03-3.18Z" fill="none"/><path d="M14.5,26.05c-1.47,0-2.85-.57-3.89-1.61-1.04-1.04-1.61-2.42-1.61-3.89,0,0,0,0,0,0,0,1.47,.57,2.85,1.61,3.89s2.42,1.61,3.89,1.61,2.85-.57,3.89-1.61,1.61-2.42,1.61-3.89c0,0,0,0,0,0,0,1.47-.57,2.85-1.61,3.89-1.04,1.04-2.42,1.61-3.89,1.61Z" fill="none"/><path d="M20.99,20.39c-.01-.34-.04-.67-.1-1-.23-1.29-.84-2.48-1.79-3.43-.1-.09-.2-.18-.29-.26-.26-.23-.52-.44-.8-.62-2.52-1.61-5.91-1.32-8.11,.88-1.22,1.23-1.9,2.86-1.9,4.59s.68,3.37,1.9,4.6c1.23,1.23,2.86,1.9,4.6,1.9,1.57,0,3.05-.55,4.23-1.56,.12-.11,.25-.22,.37-.34,.11-.12,.22-.24,.33-.37,1.01-1.18,1.57-2.66,1.57-4.23,0-.05-.01-.1-.01-.16Zm-.99,.16c0,1.47-.57,2.85-1.61,3.89s-2.42,1.61-3.89,1.61-2.85-.57-3.89-1.61-1.61-2.42-1.61-3.89c0,0,0,0,0,0s0,0,0,0c0-1.14,.35-2.22,1-3.14,.18-.26,.38-.52,.62-.75,.26-.26,.54-.49,.84-.69,0,0,.01-.01,.02-.02,.91-.6,1.97-.91,3.03-.91s2.11,.3,3.03,.91c0,0,.01,.01,.02,.02,.3,.2,.58,.43,.84,.69,.22,.22,.4,.46,.58,.7,.66,.92,1.03,2.03,1.03,3.18,0,0,0,0,0,0s0,0,0,0Z" fill="#000d6e"/><path d="M18.73,18.93c-.79-1.88-2.63-3.09-4.66-3.09-.32,0-.57,.25-.57,.56s.25,.57,.57,.57c1.58,0,3.01,.94,3.62,2.4,.09,.22,.3,.34,.52,.34,.08,0,.15,0,.22-.04,.29-.12,.42-.45,.3-.74Z" fill="#000d6e"/></g></g></svg>