<svg viewBox="0 0 40 40" fill="none" xmlns="http://www.w3.org/2000/svg" focusable="false" aria-hidden="true"><g clip-path="url(#clip0_4_1588)"><rect width="40" height="40"/><path d="M12.5808 5.27684C12.8287 4.45963 13.5894 3.89999 14.4523 3.89999H25.5477C26.4105 3.89999 27.1712 4.45963 27.4192 5.27684L36.0163 33.6128C36.3924 34.8524 35.4537 36.1 34.1448 36.1H5.85517C4.54633 36.1 3.60759 34.8524 3.98368 33.6128L12.5808 5.27684Z" fill="#94E3D4"/><path d="M18.4914 21.4187L18.722 13.8184H21.2777L21.5083 21.4187H18.4914Z" fill="#000D6E"/><path d="M18.046 36.1H21.9537L21.6847 27.233H18.315L18.046 36.1Z" fill="#000D6E"/><path d="M20.9768 3.89999H19.0229L18.8788 8.65019H21.1209L20.9768 3.89999Z" fill="#000D6E"/></g><defs><clipPath id="clip0_4_1588"><rect width="40" height="40" fill="white"/></clipPath></defs></svg>