<svg xmlns="http://www.w3.org/2000/svg" viewBox="0 0 40 40" focusable="false" aria-hidden="true"><defs><style>.cls-1{fill:none;}.cls-2{fill:#94e3d4;}.cls-3{fill:#1b5951;}.cls-4{fill:#000d6e;}</style></defs><g id="Solid"><rect class="cls-1" width="40" height="40"/></g><g id="Icon"><rect class="cls-2" x="13" y="35" width="14" height="1"/><path class="cls-3" d="M7,24.25V33a1,1,0,0,0,1,1h4V21L7.49,23.39A1,1,0,0,0,7,24.25Z"/><path class="cls-3" d="M32.51,23.39,28,21V34h4a1,1,0,0,0,1-1V24.25A1,1,0,0,0,32.51,23.39Z"/><path class="cls-2" d="M20.67,4.24a1,1,0,0,0-1.32,0C17.61,5.87,13,10.83,13,15V34H27V15C27,10.44,22.43,5.75,20.67,4.24Z"/><circle class="cls-4" cx="20" cy="16" r="4"/></g></svg>