<?xml version="1.0" encoding="iso-8859-1"?><!--Generator: Adobe Illustrator 26.2.1, SVG Export Plug-In . SVG Version: 6.00 Build 0)--><svg version="1.1" xmlns="http://www.w3.org/2000/svg" xmlns:xlink="http://www.w3.org/1999/xlink" x="0px" y="0px" viewBox="0 0 40 40" xml:space="preserve" focusable="false" aria-hidden="true" enable-background="new 0 0 40 40"><g id="Solid"><rect width="40" height="40" fill="none"/></g><g id="Icon_Purple"><g><path d="M27.902,12.666c-0.247-0.223-0.636-0.223-0.893,0.01l-7.029,6.506l-7.039-6.516
			c-0.247-0.223-0.636-0.223-0.893,0.01L5,19.2V32h29.961V19.2L27.902,12.666z M10,24H7v-3h3V24z M14,24h-3v-3h3V24z M18,24h-3v-3h3
			V24z M25,24h-3v-3h3V24z M29,24h-3v-3h3V24z M33,24h-3v-3h3V24z" fill="#B8B2FF"/></g><rect x="11" y="27" width="3" height="5" fill="#000D6E"/><rect x="26" y="27" width="3" height="5" fill="#000D6E"/><polygon points="19.31,10.94 16.301,10.94 16.301,12.674 19.31,15.449 	" fill="#6C2273"/><g><rect x="11.371" y="21.464" width="2.257" height="2.257" fill="none"/><rect x="7.998" y="21.464" width="2.257" height="2.257" fill="none"/><rect x="14.757" y="21.482" width="2.257" height="2.257" fill="none"/></g><g><polygon points="34.233,10.94 31.223,10.94 31.223,12.674 34.233,15.449 		" fill="#6C2273"/><path d="M28.92,11.577c-0.83-0.75-2.09-0.75-2.92,0l-6,5.53l-6-5.53c-0.83-0.75-2.09-0.75-2.92,0
			l-7.82,7.21l0.25,0.28l0.26,0.28l7.81-7.21c0.55-0.49,1.37-0.49,1.91-0.01l5.95,5.5l0.56,0.51l0.56-0.51l5.94-5.49
			c0.55-0.49,1.37-0.49,1.91-0.01l7.82,7.22l0.26-0.28l0.25-0.28L28.92,11.577z" fill="#000D6E"/></g><line x1="5.518" y1="36.616" x2="5.518" y2="36.616" fill="none" stroke="#000D6E" stroke-width="0" stroke-linecap="round" stroke-linejoin="round"/></g></svg>