<?xml version="1.0" encoding="UTF-8"?><svg xmlns="http://www.w3.org/2000/svg" viewBox="0 0 40 40" focusable="false" aria-hidden="true"><g id="Solid"><rect width="40" height="40" fill="none"/></g><g id="Green_2"><circle cx="20" cy="20" r="17" fill="#1b5951"/><path d="M16.59061,18.18554c.14973,0,.2812-.0785,.39877-.18632-.11792,.1072-.25011,.18552-.40152,.18552l.00275,.0008Z" fill="none"/><path d="M16.10759,18.5735c-.2424,.46522-.55718,.87409-.93548,1.19985,.37946-.32462,.69441-.73331,.93548-1.19985Z" fill="none"/><path d="M12.00268,22.15242c-.03429-.01719-.06813-.03455-.10144-.05333,.03313,.01931,.06716,.03579,.10144,.05333Z" fill="none"/><path d="M17.09579,16.30119c-.13245-.17241-.30362-.28572-.49596-.28927l-.00416-.48852-.00284-.0008c.00195,.17586,.0039,.3465,.00594,.4933,.19225,0,.36377,.11331,.49702,.28528Z" fill="none"/><path d="M12.60672,22.34449c-.07097-.01187-.14397-.01728-.21236-.03606,.06822,.01896,.14131,.02383,.21236,.03606Z" fill="none"/><path d="M16.32616,18.10881c.07664,.04146,.15841,.06662,.24426,.07088-.08257-.00399-.17285-.03057-.24408-.07123l-.00018,.00035Z" fill="none"/><path d="M9.36216,18.18474c-.15956,0-.2983-.08603-.4195-.20501,.12093,.11952,.25897,.20581,.41684,.20581,.10197,0,.19863-.03092,.28741-.08337,.07371,.20085,.1639,.39089,.26428,.57277-.10064-.1833-.19128-.37494-.26561-.57747-.08718,.05449-.18525,.08727-.28342,.08727Z" fill="none"/><path d="M9.35596,14.62699c-.00115-.17693-.0023-.34242-.00319-.46761l-.00408,.00425,.00399,.46371v.01028c.00275,.32205,.00602,.69406,.00886,1.03046-.00115-.33773-.00346-.71125-.00558-1.03374v-.00735Z" fill="none"/><path d="M14.75694,21.36001v-.12377l-.02179-.32692-.05449-.7738c.17276-.10578,.33613-.22858,.49144-.36218,.3783-.32577,.69309-.73464,.93548-1.19985,.07867-.15088,.15743-.30167,.21857-.46469l.00018-.00035c.07123,.04067,.16151,.06724,.24408,.07123,.00549,.00027,.0101,.00443,.01559,.00452l.00186,.00053c.15141,0,.2836-.07832,.40152-.18552,.21316-.19385,.36138-.51855,.36138-.90439,0-.3154-.10118-.59501-.25498-.79364-.13325-.17196-.30477-.28528-.49702-.28528-.00204-.1468-.00399-.31744-.00594-.4933-.9781-.28306-3.00438-.89021-4.20405-1.52066-1.40469-.73792-2.4192-.14645-3.02006,.14078l-.01595,.01666c.00089,.12519,.00204,.29068,.00319,.46761v.00735c.00213,.32249,.00443,.69601,.00558,1.03374,.00035,.11898,.00062,.23372,.00062,.33693-.21245,0-.4032,.12271-.54079,.32019-.13759,.19757-.22202,.46991-.22202,.76963,0,.36829,.13591,.67926,.33294,.87683l.01037,.00806c.1212,.11898,.25994,.20501,.4195,.20501,.09816,0,.19624-.03278,.28342-.08727,.07433,.20253,.16497,.39416,.26561,.57747,.00638,.01161,.01037,.02507,.01683,.0365,.01249,.02206,.02915,.04049,.04191,.06228,.32275,.55036,.7559,1.0068,1.26683,1.32912l-.05458,1.29687-.00204,.03083,.00319-.00071c.18667,.27651,.43297,.50314,.71789,.66925,.03331,.01878,.06716,.03615,.10144,.05333,.1243,.06361,.25418,.11774,.39168,.15602,.0684,.01878,.1414,.02419,.21236,.03606,.1196,.02055,.23761,.04598,.36431,.04598,.75386,0,1.39388-.37937,1.78592-.9587v-.07176Z" fill="#94e3d4"/><path d="M23.74902,14.6441c.21393,.07654,.45184,.12671,.72955,.12671,1.72028,0,2.99536-.93103,3.94659-1.98346,.33832,.7796,1.07214,1.64471,1.80786,2.16803,.10437,.07422,.32794,1.76343,.32794,1.76343,.12317-.16492,.21899-.34857,.30029-.53986,.7309-1.71948-.16479-4.30121-1.63782-4.12811-.28333-.36426-1.26379-.93317-2.18304-.93317s-1.93292,.81964-2.5033,.81964c-.36713,0-1.01453-.12567-1.35974-.65143-.17627,.52588-.09985,1.04254,.22498,1.24579-.41956,.29321-.89551,.07996-1.17358-.16003,0,0,.08118,.92236,.62903,1.62335-.06476,.50757-.08307,1.38959,.26215,2.18555,.08081,.18634,.17731,.36835,.30243,.53827l.32666-2.07471Z" fill="#000d6e"/><path d="M9.1098,21.91138l2.07031-.4809,.00195-.00043,.00012-.03033,.05457-1.29688c-.51093-.32233-.94409-.77881-1.26685-1.32916-.01276-.02179-.02942-.04022-.04187-.06226-.00647-.01141-.0105-.0249-.01685-.0365-.1004-.18188-.19055-.37195-.26428-.57275-.08875,.05243-.18542,.08337-.28741,.08337-.1579,0-.2959-.0863-.41681-.20581l-.01038-.00806c-.19708-.19757-.33295-.50854-.33295-.87689,0-.29968,.08441-.57202,.22198-.76959,.13763-.19751,.32837-.32019,.54083-.32019,0-.10321-.00031-.21796-.00061-.33691-.00287-.33643-.00616-.70844-.00891-1.03046v-.01031l-.00397-.46368,.00409-.00427,.01593-.01666c.60089-.28723,1.61536-.87866,3.02008-.14075,1.19965,.63043,3.22595,1.23755,4.20404,1.52063l.00281,.00079,.00421,.48853c.19232,.00354,.36346,.11688,.49591,.28925,.15381,.19867,.255,.47827,.255,.79364,0,.38586-.14819,.71057-.36139,.90442-.11755,.10779-.24902,.18634-.39874,.18634l-.00275-.00085-.00189-.00049c-.00549-.00012-.01007-.00427-.01556-.00452-.08588-.00427-.16766-.02942-.24426-.07086-.06116,.16296-.13989,.31378-.21857,.46466-.24109,.46655-.55603,.87524-.93549,1.19983-.15533,.13361-.31866,.25641-.49146,.36218l.0545,.7738,.02179,.3269v.19543l.00165-.00189,2.07361,.48163c.49817,.13281,.92535,.29126,1.29297,.48114v-6.13885c0-.16022-.02496-.31128-.03571-.46796v-.00018c-.04236-.61969-.15717-1.20801-.34845-1.74866-.01965-.0575-.04626-.10938-.0675-.16571-.08087-.20917-.16125-.41827-.2616-.61102-.13141-.25696-.27802-.49988-.44196-.72296-.01941-.03638-.04462-.07123-.06793-.10669-.02649-.0401-.05133-.08069-.07715-.12097-.70508-1.09943-2.14111-1.99982-3.8139-1.99982-.04138,0-.07874,.01196-.11981,.013-.57233,.01544-1.11005,.13824-1.60229,.33563-.63971,.25659-1.20325,.62885-1.63312,1.07794-.24756,.20978-.47272,.45807-.68011,.72888-.01569,.02063-.03296,.03864-.0484,.05951-.20166,.27191-.37775,.57343-.53235,.89496-.01038,.02185-.02155,.0423-.03168,.06427-.12872,.27655-.22516,.57739-.31396,.8833-.01788,.06177-.04706,.11554-.06335,.17828l-.00842,.03302c-.04895,.19324-.0636,.40332-.09564,.60516-.0318,.20074-.08112,.39319-.09509,.60181v.00024c-.01038,.15515-.02319,.30939-.02319,.46796v6.16846c.37885-.20312,.82318-.37122,1.34625-.51074Z" fill="#000d6e"/><path d="M19.54657,27.0152v-2.31677c0-1.14014-.50372-1.83191-1.42139-2.30591-.36761-.18988-.7948-.34833-1.29297-.48114l-2.07361-.48163-.00171,.00195c-.39203,.57935-1.03204,.95868-1.78589,.95868-.12671,0-.24469-.02539-.36432-.04596-.07104-.01221-.14417-.01709-.21234-.03607-.13751-.03827-.2674-.09241-.39172-.15601-.03424-.01752-.0683-.034-.10144-.05334-.28491-.16608-.53119-.39276-.7179-.66925l-.00317,.00073-2.07031,.4809c-.52307,.13953-.96747,.30762-1.34631,.51074-.88257,.47327-1.3681,1.15912-1.3681,2.27631v2.31677h13.15118Z" fill="#94e3d4"/><path d="M17.13696,27.0152v-5.01672l-.30487-.0871-2.07568-.47894c-.39197,.58057-1.03064,.95801-1.7854,.95801s-1.39355-.37744-1.78546-.95801l-2.07574,.47894-.30487,.0871v5.01672h8.33203Z" fill="#fff"/><path d="M33.5473,27.0152v-2.31677c-.01617-1.38849-.50378-1.83191-1.42145-2.30591-.36755-.18988-.7948-.34833-1.29297-.48114l-2.07361-.48163-.00165,.00195c-.39203,.57935-1.03204,.95868-1.78595,.95868-.12665,0-.24469-.02539-.36426-.04596-.07111-.01221-.14417-.01709-.2124-.03607-.13751-.03827-.2674-.09241-.39166-.15601-.0343-.01752-.0683-.034-.10144-.05334-.28491-.16608-.53125-.39276-.7179-.66925l-.00317,.00073-2.07031,.4809c-.52307,.13953-.96747,.30762-1.34631,.51074-.88263,.47327-1.30609,.81506-1.3681,2.27631v2.31677h13.15118Z" fill="#94e3d4"/><path d="M23.42242,18.23346c.10071,0,.19623-.03046,.28381-.08234,.31018,.84515,.87213,1.53046,1.57135,1.97211l-.07758,1.12439-.01923,.1861,.00549-.00128c.39197,.58057,1.0307,.95801,1.78546,.95801,.75311,0,1.39026-.37622,1.78247-.95459l-.00018-.01453-.07983-1.26471c.72314-.43829,1.3053-1.13519,1.62384-1.99945,.0824,.04486,.16968,.07629,.263,.07629,.4129,0,.74756-.48096,.74756-1.07416,0-.43933-.1842-.81458-.44727-.98035-.0813,.19128-.17712,.37494-.30029,.53986,0,0-.22357-1.68921-.32794-1.76343-.73572-.52332-1.46954-1.38843-1.80786-2.16803-.95123,1.05243-2.22632,1.98346-3.94659,1.98346-.27771,0-.51562-.05017-.72955-.12671l-.32666,2.07471c-.12512-.16992-.22162-.35193-.30243-.53827-.26147,.1673-.44513,.54089-.44513,.97876,0,.5932,.33466,1.07416,.74756,1.07416Z" fill="#94e3d4"/><path d="M31.1377,27.0152v-5.01672l-.30487-.0871-2.07568-.47894c-.39197,.58057-1.03064,.95801-1.7854,.95801s-1.39349-.37744-1.78546-.95801l-2.07574,.47894-.30481,.0871v5.01672h8.33197Z" fill="#fff"/></g></svg>