<svg xmlns="http://www.w3.org/2000/svg" viewBox="0 0 40 40" focusable="false" aria-hidden="true"><defs><style>.cls-1{fill:none;}.cls-2{fill:#ffaca6;}.cls-3{fill:#d9304c;}.cls-4{fill:#000d6e;}</style></defs><g id="Solid"><rect class="cls-1" width="40" height="40"/></g><g id="Icon_Red" data-name="Icon Red"><path class="cls-2" d="M27.0673,3.2288a20.9378,20.9378,0,0,0-14.1346,0L5,6.0788V21.8944C5,29.52,14.4908,36.9892,20.002,37,25.51,36.9892,35,29.52,35,21.8944V6.0788Zm3.4248,7.693h-.0005a.5021.5021,0,0,1-.5-.5036l-.0006-.96a.4852.4852,0,0,1-.0668.0837L27,11.9877V27.9349A1.0371,1.0371,0,0,1,26,29H23V15.3338l-.7343.6143A1.3652,1.3652,0,0,1,22,16.1049V29H18V14.6239c-.0052.0038-.012.0031-.017.0073L17,15.5046V29H14a1.0262,1.0262,0,0,1-1-1.0448V19.0586l-2.1307,1.8932a.4989.4989,0,0,1-.7066-.0443.5062.5062,0,0,1,.044-.711L17.339,13.86a1.3355,1.3355,0,0,1,1.49-.15l2.445,1.5017a.3279.3279,0,0,0,.3591-.0443l7.4822-6.2591-.6249,0a.5036.5036,0,0,1,0-1.0071l2,.001a.5015.5015,0,0,1,.5.5035l.0015,2.0131A.5022.5022,0,0,1,30.4921,10.9218Z"/><path class="cls-3" d="M13,27.9552A1.0262,1.0262,0,0,0,14,29h3V15.5046l-4,3.554Z"/><path class="cls-3" d="M20.7706,16.0818l-2.44-1.4987A.3216.3216,0,0,0,18,14.6239V29h4V16.1049A1.3164,1.3164,0,0,1,20.7706,16.0818Z"/><path class="cls-3" d="M23,29h3a1.0371,1.0371,0,0,0,1-1.0651V11.9877l-4,3.3461Z"/><path class="cls-4" d="M30.4905,7.9016l-2-.001a.5036.5036,0,0,0,0,1.0071l.6249,0-7.4822,6.2591a.3279.3279,0,0,1-.3591.0443L18.8288,13.71a1.3355,1.3355,0,0,0-1.49.15l-7.1323,6.3363a.5062.5062,0,0,0-.044.711.4989.4989,0,0,0,.7066.0443L13,19.0586l4-3.554.983-.8734c.005-.0042.0118-.0035.017-.0073a.3216.3216,0,0,1,.3309-.0408l2.44,1.4987A1.3164,1.3164,0,0,0,22,16.1049a1.3652,1.3652,0,0,0,.2657-.1568L23,15.3338l4-3.3461L29.9238,9.542a.4852.4852,0,0,0,.0668-.0837l.0006.96a.5021.5021,0,0,0,.5.5036h.0005a.5022.5022,0,0,0,.5-.5036L30.99,8.4051A.5015.5015,0,0,0,30.4905,7.9016Z"/></g></svg>