<?xml version="1.0" encoding="iso-8859-1"?><!--Generator: Adobe Illustrator 26.3.1, SVG Export Plug-In . SVG Version: 6.00 Build 0)--><svg version="1.1" xmlns="http://www.w3.org/2000/svg" xmlns:xlink="http://www.w3.org/1999/xlink" x="0px" y="0px" viewBox="0 0 40 40" xml:space="preserve" focusable="false" aria-hidden="true" enable-background="new 0 0 40 40"><g id="Solid"><rect width="40" height="40" fill="none"/></g><g id="Icon_Tangerine"><g><path d="M30,25c-3.31,0-6,2.69-6,6c0,1.79,0.79,3.4,2.04,4.5c0.42,0.38,0.91,0.7,1.43,0.94
			C28.24,36.8,29.09,37,30,37s1.76-0.2,2.53-0.56c0.52-0.24,1.01-0.56,1.43-0.94C35.21,34.4,36,32.79,36,31C36,27.69,33.31,25,30,25
			z" fill="#FA9319"/></g><path d="M33.5,18.5c-0.276,0-0.5,0.224-0.5,0.5v1.144C33,20.616,32.575,21,32.054,21H31.5
		c0-2.851-1.251-5.374-3.183-7.022c-0.055-0.048-0.109-0.097-0.166-0.144c-0.183-0.148-0.373-0.284-0.567-0.416
		c-0.121-0.083-0.242-0.164-0.367-0.24c-0.083-0.05-0.159-0.112-0.244-0.16c0,0.008-0.002,0.015-0.003,0.022
		c-0.159-0.09-0.313-0.188-0.478-0.266c-0.779-0.37-1.618-0.621-2.5-0.721C23.696,12.019,23.396,12,23.092,12h-5.516h-0.872
		C16.109,10.535,14.678,9.5,13,9.5v3.06c-0.003,0.001-0.005,0.001-0.008,0.002c-0.076,0.03-0.144,0.073-0.219,0.105
		c-0.24,0.104-0.478,0.214-0.707,0.34c-0.134,0.074-0.261,0.158-0.39,0.239c-0.17,0.107-0.338,0.216-0.5,0.335
		c-0.129,0.095-0.255,0.193-0.379,0.295c-0.152,0.125-0.298,0.257-0.442,0.393c-0.117,0.11-0.234,0.218-0.344,0.335
		c-0.141,0.149-0.272,0.309-0.403,0.469c-0.083,0.101-0.177,0.193-0.256,0.298h0.01C8.775,16.151,8.307,17.036,7.988,18H7.25
		C6.56,18,6,18.56,6,19.25v3.5C6,23.44,6.56,24,7.25,24h0.738c0.772,2.336,2.412,4.228,4.512,5.225
		c0.779,0.37,1.618,0.621,2.5,0.721C15.296,29.981,15.596,30,15.9,30h7.175c0.475-3.401,3.395-6.031,6.925-6.031
		c0.334,0,0.661,0.032,0.983,0.077c0.22-0.653,0.389-1.333,0.463-2.047h0.608C33.127,22,34,21.167,34,20.144V19
		C34,18.724,33.776,18.5,33.5,18.5z M13.125,19C12.504,19,12,18.496,12,17.875c0-0.621,0.504-1.125,1.125-1.125
		s1.125,0.504,1.125,1.125C14.25,18.496,13.746,19,13.125,19z" fill="#FAE052"/><circle cx="13.125" cy="17.875" r="1.125" fill="none"/><path d="M12.5,32.75c0,0.69,0.56,1.25,1.25,1.25S15,33.44,15,32.75v-2.803
		c-0.882-0.101-1.721-0.351-2.5-0.721V32.75z" fill="#FA9319"/><path d="M23.5,14h-6c-0.276,0-0.5,0.224-0.5,0.5s0.224,0.5,0.5,0.5h6c0.276,0,0.5-0.224,0.5-0.5
		S23.776,14,23.5,14z" fill="#000D6E"/><path d="M32.202,31.929c0.091,0,0.171-0.048,0.243-0.113c-0.072,0.065-0.152,0.113-0.244,0.113
		C32.201,31.928,32.201,31.929,32.202,31.929z" fill="none"/><path d="M31.908,32.165c-0.147,0.283-0.339,0.532-0.569,0.73C31.57,32.697,31.761,32.449,31.908,32.165z" fill="none"/><path d="M32.509,30.783c-0.081-0.105-0.185-0.174-0.302-0.176c-0.001-0.088-0.002-0.191-0.003-0.297
		c-0.001,0-0.001,0-0.002,0c0.001,0.107,0.002,0.211,0.004,0.3C32.324,30.609,32.428,30.678,32.509,30.783z" fill="none"/><path d="M32.041,31.882c0.047,0.025,0.096,0.041,0.149,0.043C32.139,31.923,32.084,31.907,32.041,31.882
		C32.041,31.882,32.041,31.882,32.041,31.882z" fill="none"/><path d="M27.805,31.928c-0.097,0-0.181-0.052-0.255-0.125c0.074,0.073,0.158,0.125,0.254,0.125
		c0.062,0,0.121-0.019,0.175-0.051c0.045,0.122,0.1,0.238,0.161,0.348c-0.061-0.112-0.116-0.228-0.162-0.351
		C27.924,31.908,27.864,31.928,27.805,31.928z" fill="none"/><path d="M27.801,29.764c-0.001-0.108-0.001-0.208-0.002-0.284l-0.002,0.003
		c0.001,0.076,0.002,0.176,0.002,0.282c0,0.002,0,0.004,0,0.006c0.002,0.196,0.004,0.422,0.005,0.627
		c-0.001-0.205-0.002-0.433-0.003-0.629C27.801,29.767,27.801,29.766,27.801,29.764z" fill="none"/><path d="M27.801,29.764c-0.001-0.108-0.001-0.208-0.002-0.284l-0.003,0.003
		c0.001,0.076,0.002,0.176,0.002,0.282c0,0.002,0,0.004,0,0.006c0.002,0.196,0.004,0.422,0.005,0.627
		c-0.001-0.205-0.002-0.433-0.003-0.629C27.801,29.767,27.801,29.766,27.801,29.764z" fill="none"/><path d="M32.509,30.783c-0.081-0.105-0.185-0.174-0.302-0.176c-0.001-0.088-0.002-0.191-0.003-0.297
		c0,0-0.001,0-0.002,0c0.001,0.107,0.002,0.211,0.004,0.3C32.324,30.609,32.428,30.678,32.509,30.783z" fill="none"/><path d="M27.805,31.928c-0.097,0-0.181-0.052-0.255-0.125c0.074,0.073,0.158,0.125,0.254,0.125
		c0.062,0,0.121-0.019,0.175-0.051c0.045,0.122,0.1,0.238,0.161,0.348c-0.061-0.112-0.116-0.228-0.162-0.351
		C27.924,31.908,27.864,31.928,27.805,31.928z" fill="none"/><polygon points="31.086,33.785 31.073,33.586 31.04,33.115 31.073,33.586 	" fill="none"/><path d="M31.908,32.165c-0.147,0.283-0.339,0.532-0.569,0.73C31.57,32.697,31.761,32.449,31.908,32.165z" fill="none"/><polygon points="28.912,33.902 28.916,33.907 28.913,33.902 	" fill="none"/><path d="M32.202,31.929c0.091,0,0.171-0.048,0.243-0.113c-0.072,0.065-0.152,0.113-0.244,0.113
		C32.201,31.928,32.201,31.929,32.202,31.929z" fill="none"/><path d="M32.041,31.882c0.047,0.025,0.096,0.041,0.149,0.043C32.139,31.923,32.084,31.907,32.041,31.882
		C32.041,31.882,32.041,31.882,32.041,31.882z" fill="none"/><rect x="31.086" y="33.903" width="0" height="0.001" fill="none"/><polygon points="31.085,33.906 31.086,33.904 31.086,33.904 	" fill="none"/><line x1="31.086" y1="33.904" x2="31.086" y2="33.904" fill="none" stroke="#000D6E" stroke-width="0" stroke-linecap="round" stroke-linejoin="round"/><path d="M27.47,34.25c0.06-0.02,0.12-0.04,0.18-0.05l1.26-0.3c0,0,0,0.001,0.001,0.001l0.001-0.017
		l0.033-0.789c-0.311-0.196-0.574-0.474-0.771-0.808c-0.008-0.013-0.018-0.024-0.026-0.038c-0.004-0.007-0.006-0.015-0.01-0.022
		c-0.061-0.111-0.116-0.226-0.161-0.348c-0.054,0.032-0.113,0.051-0.175,0.051c-0.096,0-0.18-0.052-0.254-0.125
		c-0.002-0.002-0.004-0.003-0.006-0.005c-0.12-0.12-0.203-0.309-0.203-0.533c0-0.182,0.051-0.348,0.135-0.468
		c0.084-0.12,0.2-0.195,0.329-0.195c0-0.063,0-0.133,0-0.205c-0.002-0.205-0.004-0.431-0.005-0.627c0-0.002,0-0.004,0-0.006
		c-0.001-0.106-0.002-0.206-0.002-0.282l0.003-0.003l0.01-0.01c0.365-0.175,0.983-0.535,1.837-0.086
		c0.73,0.384,1.962,0.753,2.557,0.925c0.001,0,0.001,0,0.002,0c0.001,0.106,0.002,0.209,0.003,0.297
		c0.117,0.002,0.221,0.071,0.302,0.176c0.094,0.121,0.155,0.291,0.155,0.483c0,0.235-0.09,0.432-0.22,0.55
		c-0.071,0.066-0.151,0.113-0.243,0.113c-0.001,0-0.001,0-0.002,0c0,0-0.001,0-0.001,0c-0.003,0-0.006-0.003-0.009-0.003
		c-0.052-0.003-0.102-0.018-0.149-0.043c-0.037,0.099-0.085,0.191-0.133,0.283c-0.147,0.284-0.338,0.532-0.569,0.73
		c-0.094,0.081-0.194,0.156-0.299,0.22l0.033,0.471l0.013,0.199v0.075v0.031v0.013v0.001c0.001-0.001,0.003-0.003,0.004-0.004
		l1.26,0.3c0.06,0.01,0.12,0.03,0.18,0.05v0c0.18,0.055,0.329,0.121,0.476,0.187c0.04,0.018,0.091,0.031,0.129,0.05v-3.734
		c0-0.098-0.015-0.189-0.022-0.285c0,0,0,0,0,0c-0.026-0.377-0.096-0.735-0.212-1.064c-0.012-0.035-0.028-0.066-0.041-0.101
		c-0.049-0.127-0.098-0.254-0.159-0.372c-0.08-0.156-0.169-0.304-0.269-0.44c-0.012-0.022-0.027-0.043-0.041-0.065
		c-0.016-0.024-0.031-0.049-0.047-0.074c-0.429-0.669-1.302-1.216-2.32-1.216c-0.025,0-0.048,0.007-0.073,0.008
		c-0.348,0.009-0.675,0.084-0.975,0.204c-0.389,0.156-0.732,0.383-0.993,0.656c-0.151,0.128-0.288,0.279-0.414,0.443
		c-0.01,0.013-0.02,0.023-0.029,0.036c-0.123,0.165-0.23,0.349-0.324,0.544c-0.006,0.013-0.013,0.026-0.019,0.039
		c-0.078,0.168-0.137,0.351-0.191,0.537c-0.011,0.038-0.029,0.07-0.039,0.108c-0.002,0.007-0.003,0.013-0.005,0.02
		c-0.03,0.118-0.039,0.245-0.058,0.368c-0.019,0.122-0.049,0.239-0.058,0.366c0,0,0,0,0,0c-0.006,0.094-0.014,0.188-0.014,0.285
		v1.041v2.712c0.004-0.002,0.01-0.001,0.014-0.003C27.024,34.406,27.237,34.328,27.47,34.25L27.47,34.25z" fill="#000D6E"/><path d="M33.96,35.5c-0.1-0.47-0.38-0.78-0.82-1.01c-0.039-0.02-0.092-0.034-0.134-0.053
		c-0.148-0.067-0.297-0.133-0.476-0.187v2.19v0C33.05,36.2,33.54,35.88,33.96,35.5z" fill="#FAE052"/><path d="M27.47,34.25c-0.233,0.078-0.446,0.156-0.623,0.252c-0.005,0.003-0.012,0.005-0.017,0.008
		c-0.42,0.22-0.7,0.53-0.79,0.99c0.42,0.38,0.91,0.7,1.43,0.94v0V34.25z" fill="#FAE052"/><path d="M31.086,33.903v-0.013V33.86v-0.075l-0.013-0.199l-0.033-0.471c0.105-0.064,0.205-0.139,0.299-0.22
		c0.23-0.198,0.422-0.447,0.569-0.73c0.048-0.092,0.096-0.184,0.133-0.283c0,0,0,0,0,0c0.043,0.025,0.098,0.041,0.148,0.043
		c0.003,0,0.006,0.003,0.009,0.003c0,0,0.001,0,0.001,0c0.092,0,0.172-0.048,0.244-0.113c0.13-0.118,0.22-0.315,0.22-0.55
		c0-0.192-0.062-0.362-0.155-0.483c-0.081-0.105-0.185-0.174-0.302-0.174c-0.001-0.089-0.002-0.193-0.004-0.3
		c-0.595-0.172-1.828-0.542-2.557-0.925c-0.854-0.449-1.472-0.089-1.837,0.086l-0.01,0.01c0,0.076,0.001,0.177,0.002,0.284
		c0,0.001,0,0.003,0,0.004c0.001,0.196,0.003,0.423,0.003,0.629c0,0.072,0,0.142,0,0.205c-0.129,0-0.245,0.075-0.329,0.195
		c-0.084,0.12-0.135,0.286-0.135,0.468c0,0.224,0.083,0.413,0.203,0.533c0.002,0.002,0.004,0.003,0.006,0.005
		c0.074,0.072,0.158,0.125,0.255,0.125c0.06,0,0.119-0.02,0.172-0.053c0.045,0.123,0.1,0.24,0.162,0.351
		c0.004,0.007,0.006,0.015,0.01,0.022c0.008,0.013,0.018,0.025,0.026,0.038c0.196,0.335,0.46,0.612,0.771,0.808l-0.033,0.789
		l-0.001,0.017c0,0.001,0.001,0.001,0.001,0.002l0,0c0.001,0.001,0.002,0.003,0.003,0.004c0.24,0.356,0.628,0.583,1.084,0.583
		c0.457,0,0.844-0.228,1.085-0.584C31.085,33.905,31.086,33.904,31.086,33.903L31.086,33.903z" fill="#FAE052"/><path d="M32.53,34.25L32.53,34.25c-0.06-0.02-0.12-0.04-0.18-0.05l-1.26-0.3
		c-0.001,0.002-0.002,0.003-0.004,0.004v0c-0.001,0.001-0.001,0.001-0.002,0.002c-0.24,0.356-0.628,0.584-1.085,0.584
		c-0.457,0-0.844-0.228-1.084-0.583c-0.001-0.002-0.003-0.003-0.004-0.004c0-0.001-0.001-0.001-0.001-0.002c0,0,0-0.001-0.001-0.001
		l-1.26,0.3c-0.06,0.01-0.12,0.03-0.18,0.05v0v2.19C28.24,36.8,29.09,37,30,37s1.76-0.2,2.53-0.56V34.25z" fill="#FA9319"/></g></svg>