<?xml version="1.0" encoding="iso-8859-1"?><!--Generator: Adobe Illustrator 26.2.1, SVG Export Plug-In . SVG Version: 6.00 Build 0)--><svg version="1.1" xmlns="http://www.w3.org/2000/svg" xmlns:xlink="http://www.w3.org/1999/xlink" x="0px" y="0px" viewBox="0 0 40 40" xml:space="preserve" focusable="false" aria-hidden="true" enable-background="new 0 0 40 40"><g id="Solid"><rect width="40" height="40" fill="none"/></g><g id="Icon_Tangerine"><path d="M33.5,18.5c-0.276,0-0.5,0.224-0.5,0.5v1.144C33,20.616,32.575,21,32.054,21H31.5
		c0-2.851-1.251-5.374-3.183-7.022c-0.055-0.048-0.109-0.097-0.166-0.144c-0.183-0.148-0.373-0.284-0.567-0.416
		c-0.121-0.083-0.242-0.164-0.367-0.24c-0.083-0.05-0.159-0.112-0.244-0.16c0,0.008-0.002,0.015-0.003,0.022
		c-0.159-0.09-0.313-0.188-0.478-0.266c-0.779-0.37-1.618-0.621-2.5-0.721C23.696,12.019,23.396,12,23.092,12h-5.516h-0.872
		C16.109,10.535,14.678,9.5,13,9.5v3.06c-0.003,0.001-0.005,0.001-0.008,0.002c-0.076,0.03-0.144,0.073-0.219,0.105
		c-0.24,0.104-0.478,0.214-0.707,0.34c-0.134,0.074-0.261,0.158-0.39,0.239c-0.17,0.107-0.338,0.216-0.5,0.335
		c-0.129,0.095-0.255,0.193-0.379,0.295c-0.152,0.125-0.298,0.257-0.442,0.393c-0.117,0.11-0.234,0.218-0.344,0.335
		c-0.141,0.149-0.272,0.309-0.403,0.469c-0.083,0.101-0.177,0.193-0.256,0.298h0.01C8.775,16.151,8.307,17.036,7.988,18H7.25
		C6.56,18,6,18.56,6,19.25v3.5C6,23.44,6.56,24,7.25,24h0.738c0.772,2.336,2.412,4.228,4.512,5.225
		c0.779,0.37,1.618,0.621,2.5,0.721C15.296,29.981,15.596,30,15.9,30h7.175c0.475-3.401,3.395-6.031,6.925-6.031
		c0.334,0,0.661,0.032,0.983,0.077c0.22-0.653,0.389-1.333,0.463-2.047h0.608C33.127,22,34,21.167,34,20.144V19
		C34,18.724,33.776,18.5,33.5,18.5z M13.125,19C12.504,19,12,18.496,12,17.875c0-0.621,0.504-1.125,1.125-1.125
		s1.125,0.504,1.125,1.125C14.25,18.496,13.746,19,13.125,19z" fill="#FAE052"/><circle cx="13.125" cy="17.875" r="1.125" fill="none"/><path d="M12.5,32.75c0,0.69,0.56,1.25,1.25,1.25S15,33.44,15,32.75v-2.803
		c-0.882-0.101-1.721-0.351-2.5-0.721V32.75z" fill="#FA9319"/><path d="M23.5,14h-6c-0.276,0-0.5,0.224-0.5,0.5s0.224,0.5,0.5,0.5h6c0.276,0,0.5-0.224,0.5-0.5
		S23.776,14,23.5,14z" fill="#000D6E"/><polygon points="28.912,33.902 28.916,33.907 28.913,33.902 	" fill="none"/><rect x="31.086" y="33.903" width="0" height="0.001" fill="none"/><polygon points="31.085,33.906 31.086,33.904 31.086,33.904 	" fill="none"/><line x1="31.086" y1="33.904" x2="31.086" y2="33.904" fill="none" stroke="#000D6E" stroke-width="0" stroke-linecap="round" stroke-linejoin="round"/><g><path d="M30,25c-3.31,0-6,2.69-6,6c0,0.22,0.01,0.44,0.04,0.66c0.02,0.21,0.05,0.41,0.1,0.61
			c0,0.04,0.01,0.09,0.03,0.13c0.04,0.18,0.09,0.35,0.15,0.52c0.06,0.19,0.14,0.38,0.22,0.57c0.01,0.02,0.02,0.03,0.02,0.05
			c0.09,0.18,0.18,0.36,0.29,0.52c-0.01,0.01,0,0.02,0.02,0.03c-0.01,0.01,0,0.01,0,0.01c0.09,0.15,0.19,0.3,0.3,0.45
			c0.01,0.02,0.02,0.04,0.04,0.06c0.11,0.15,0.23,0.29,0.36,0.42c0.01,0.02,0.03,0.04,0.05,0.06c0.06,0.06,0.11,0.12,0.17,0.17
			c0.08,0.08,0.16,0.16,0.25,0.24c0.1,0.1,0.21,0.19,0.33,0.27c0.35,0.27,0.72,0.5,1.12,0.68c0.15,0.07,0.3,0.13,0.46,0.19
			c0.15,0.06,0.31,0.1,0.46,0.14c0.11,0.04,0.23,0.07,0.35,0.09c0.06,0.01,0.12,0.03,0.18,0.03c0.12,0.03,0.25,0.05,0.39,0.06
			c0.17,0.02,0.34,0.03,0.52,0.03C29.9,37,29.95,37,30,37c0.06,0,0.12,0,0.18-0.01c0.17,0,0.33-0.01,0.49-0.03
			c0.15-0.01,0.29-0.03,0.42-0.06c0.05-0.01,0.1-0.02,0.15-0.03c0.12-0.02,0.24-0.05,0.35-0.09c0.15-0.04,0.31-0.08,0.46-0.14
			c0.16-0.06,0.31-0.12,0.46-0.19c0.4-0.18,0.77-0.41,1.12-0.68c0.12-0.08,0.23-0.17,0.33-0.27c0.1-0.09,0.2-0.18,0.29-0.28
			c0.07-0.06,0.13-0.12,0.19-0.19c0.12-0.13,0.24-0.27,0.35-0.42c0.02-0.02,0.03-0.04,0.04-0.06c0.12-0.16,0.22-0.32,0.32-0.49
			c0,0,0.02,0,0.01-0.01v-0.01c0.11-0.16,0.19-0.33,0.28-0.5c0-0.02,0.01-0.03,0.02-0.05c0.08-0.19,0.16-0.38,0.22-0.57
			c0.06-0.17,0.11-0.34,0.15-0.52c0.02-0.04,0.03-0.09,0.04-0.13c0.04-0.2,0.07-0.4,0.09-0.61C35.99,31.44,36,31.22,36,31
			C36,27.69,33.31,25,30,25z" fill="#FA9319"/></g><path d="M28.735,31.226c0.057,0,0.107-0.03,0.151-0.071c-0.045,0.041-0.095,0.07-0.152,0.07
		C28.734,31.225,28.734,31.226,28.735,31.226z" fill="none"/><path d="M28.552,31.373c-0.092,0.176-0.211,0.331-0.354,0.455C28.341,31.704,28.46,31.549,28.552,31.373z" fill="none"/><path d="M26.997,32.728c-0.013-0.007-0.026-0.013-0.038-0.02C26.971,32.716,26.984,32.722,26.997,32.728z" fill="none"/><path d="M28.926,30.512c-0.05-0.065-0.115-0.108-0.188-0.11c0-0.055-0.001-0.119-0.002-0.185
		c0,0-0.001,0-0.001,0c0.001,0.067,0.001,0.131,0.002,0.187C28.811,30.404,28.876,30.447,28.926,30.512z" fill="none"/><path d="M27.225,32.801c-0.027-0.004-0.055-0.007-0.08-0.014C27.171,32.795,27.199,32.797,27.225,32.801z" fill="none"/><path d="M28.634,31.197c0.029,0.016,0.06,0.025,0.093,0.027C28.696,31.222,28.662,31.212,28.634,31.197
		C28.635,31.197,28.635,31.197,28.634,31.197z" fill="none"/><path d="M25.996,31.225c-0.06,0-0.113-0.033-0.159-0.078c0.046,0.045,0.098,0.078,0.158,0.078
		c0.039,0,0.075-0.012,0.109-0.032c0.028,0.076,0.062,0.148,0.1,0.217c-0.038-0.069-0.072-0.142-0.101-0.219
		C26.071,31.213,26.034,31.225,25.996,31.225z" fill="none"/><path d="M25.994,29.878c0-0.067-0.001-0.13-0.001-0.177l-0.002,0.002c0,0.047,0.001,0.109,0.002,0.176
		c0,0.001,0,0.003,0,0.004c0.001,0.122,0.002,0.263,0.003,0.39c0-0.128-0.001-0.269-0.002-0.392
		C25.994,29.88,25.994,29.879,25.994,29.878z" fill="none"/><path d="M28.04,32.428v-0.047l-0.008-0.124l-0.021-0.293c0.065-0.04,0.127-0.087,0.186-0.137
		c0.143-0.123,0.263-0.278,0.354-0.455c0.03-0.057,0.06-0.114,0.083-0.176c0,0,0,0,0,0c0.027,0.015,0.061,0.025,0.092,0.027
		c0.002,0,0.004,0.002,0.006,0.002c0,0,0,0,0.001,0c0.057,0,0.107-0.03,0.152-0.07c0.081-0.073,0.137-0.196,0.137-0.343
		c0-0.119-0.038-0.225-0.097-0.301c-0.05-0.065-0.115-0.108-0.188-0.108c-0.001-0.056-0.002-0.12-0.002-0.187
		c-0.371-0.107-1.138-0.337-1.593-0.576c-0.532-0.28-0.916-0.055-1.144,0.053l-0.006,0.006c0,0.047,0.001,0.11,0.001,0.177
		c0,0.001,0,0.002,0,0.003c0.001,0.122,0.002,0.264,0.002,0.392c0,0.045,0,0.089,0,0.128c-0.08,0-0.153,0.046-0.205,0.121
		c-0.052,0.075-0.084,0.178-0.084,0.292c0,0.14,0.051,0.257,0.126,0.332c0.001,0.001,0.003,0.002,0.004,0.003
		c0.046,0.045,0.098,0.078,0.159,0.078c0.037,0,0.074-0.012,0.107-0.033c0.028,0.077,0.062,0.149,0.101,0.219
		c0.002,0.004,0.004,0.009,0.006,0.014c0.005,0.008,0.011,0.015,0.016,0.024c0.122,0.208,0.286,0.381,0.48,0.503l-0.021,0.491
		l-0.001,0.012l0.001,0c0.071,0.105,0.164,0.191,0.272,0.254c0.013,0.007,0.025,0.014,0.038,0.02
		c0.047,0.024,0.096,0.045,0.148,0.059c0.026,0.007,0.054,0.009,0.08,0.014c0.045,0.008,0.09,0.017,0.138,0.017
		c0.286,0,0.528-0.144,0.677-0.363v-0.008V32.428z" fill="#FAE052"/><path d="M31.446,29.884c0.081,0.029,0.171,0.048,0.276,0.048c0.652,0,1.135-0.353,1.495-0.751
		c0.128,0.295,0.406,0.623,0.685,0.821c0.04,0.028,0.124,0.668,0.124,0.668c0.047-0.062,0.083-0.132,0.114-0.205
		c0.277-0.651-0.062-1.629-0.62-1.564c-0.107-0.138-0.479-0.354-0.827-0.354c-0.348,0-0.732,0.31-0.948,0.31
		c-0.139,0-0.384-0.048-0.515-0.247c-0.067,0.199-0.038,0.395,0.085,0.472c-0.159,0.111-0.339,0.03-0.445-0.061
		c0,0,0.031,0.349,0.238,0.615c-0.025,0.192-0.031,0.526,0.099,0.828c0.031,0.071,0.067,0.14,0.115,0.204L31.446,29.884z" fill="#000D6E"/><path d="M25.901,32.637l0.784-0.182l0.001,0l0-0.011l0.021-0.491c-0.194-0.122-0.358-0.295-0.48-0.504
		c-0.005-0.008-0.011-0.015-0.016-0.024c-0.002-0.004-0.004-0.009-0.006-0.014c-0.038-0.069-0.072-0.141-0.1-0.217
		c-0.034,0.02-0.07,0.032-0.109,0.032c-0.06,0-0.112-0.033-0.158-0.078c-0.001-0.001-0.003-0.002-0.004-0.003
		c-0.075-0.075-0.126-0.193-0.126-0.332c0-0.114,0.032-0.217,0.084-0.292c0.052-0.075,0.124-0.121,0.205-0.121
		c0-0.039,0-0.083,0-0.128c-0.001-0.127-0.002-0.268-0.003-0.39c0-0.001,0-0.003,0-0.004c-0.001-0.066-0.001-0.128-0.002-0.176
		l0.002-0.002l0.006-0.006c0.228-0.109,0.612-0.333,1.144-0.053c0.454,0.239,1.222,0.469,1.593,0.576c0,0,0.001,0,0.001,0
		c0.001,0.066,0.001,0.13,0.002,0.185c0.073,0.001,0.138,0.044,0.188,0.11c0.058,0.075,0.097,0.181,0.097,0.301
		c0,0.146-0.056,0.269-0.137,0.343c-0.045,0.041-0.094,0.071-0.151,0.071c0,0-0.001,0-0.001,0c0,0-0.001,0-0.001,0
		c-0.002,0-0.004-0.002-0.006-0.002c-0.033-0.002-0.064-0.011-0.093-0.027c-0.023,0.062-0.053,0.119-0.083,0.176
		c-0.091,0.177-0.211,0.332-0.354,0.455c-0.059,0.051-0.121,0.097-0.186,0.137l0.021,0.293l0.008,0.124v0.047v0.019v0.008
		c0,0,0,0,0.001-0.001l0.786,0.182c0.189,0.05,0.351,0.11,0.49,0.182v-2.326c0-0.061-0.009-0.118-0.014-0.177c0,0,0,0,0,0
		c-0.016-0.235-0.06-0.458-0.132-0.662c-0.007-0.022-0.018-0.041-0.026-0.063c-0.031-0.079-0.061-0.158-0.099-0.231
		c-0.05-0.097-0.105-0.189-0.167-0.274c-0.007-0.014-0.017-0.027-0.026-0.04c-0.01-0.015-0.019-0.031-0.029-0.046
		c-0.267-0.416-0.811-0.758-1.445-0.758c-0.016,0-0.03,0.005-0.045,0.005c-0.217,0.006-0.421,0.052-0.607,0.127
		c-0.242,0.097-0.456,0.238-0.619,0.408c-0.094,0.079-0.179,0.174-0.258,0.276c-0.006,0.008-0.012,0.015-0.018,0.023
		c-0.076,0.103-0.143,0.217-0.202,0.339c-0.004,0.008-0.008,0.016-0.012,0.024c-0.049,0.105-0.085,0.219-0.119,0.335
		c-0.007,0.023-0.018,0.044-0.024,0.068c-0.001,0.004-0.002,0.008-0.003,0.013c-0.019,0.073-0.024,0.153-0.036,0.229
		c-0.012,0.076-0.031,0.149-0.036,0.228c0,0,0,0,0,0c-0.004,0.059-0.009,0.117-0.009,0.177v0.648v1.689
		C25.534,32.754,25.703,32.69,25.901,32.637z" fill="#000D6E"/><g><path d="M25.39,32.83c0.11-0.06,0.25-0.1,0.4-0.15v2.58c-0.06-0.05-0.11-0.11-0.17-0.17
			c-0.02-0.02-0.04-0.04-0.05-0.06c-0.13-0.13-0.25-0.27-0.36-0.42c-0.02-0.02-0.03-0.04-0.04-0.06c-0.11-0.15-0.21-0.3-0.3-0.45
			c0,0-0.01,0,0-0.01v-0.4C24.87,33.27,25.06,33.01,25.39,32.83z" fill="#FAE052"/><path d="M29.85,33.69v3.3c-0.18,0-0.35-0.01-0.52-0.03c-0.14-0.01-0.27-0.03-0.39-0.06v-4.22
			c0.14,0.04,0.27,0.08,0.38,0.14C29.66,33,29.85,33.26,29.85,33.69z" fill="#FAE052"/><path d="M26.966,32.712c0.007,0.004,0.013,0.007,0.02,0.011C26.979,32.719,26.972,32.716,26.966,32.712z" fill="#94E3D4"/></g><path d="M31.323,31.244c0.038,0,0.074-0.012,0.108-0.031c0.118,0.32,0.33,0.58,0.595,0.747l-0.029,0.426
		l-0.007,0.07l0.002,0c0.148,0.22,0.39,0.363,0.676,0.363c0.285,0,0.527-0.143,0.675-0.362l0-0.006l-0.03-0.479
		c0.274-0.166,0.494-0.43,0.615-0.757c0.031,0.017,0.064,0.029,0.1,0.029c0.156,0,0.283-0.182,0.283-0.407
		c0-0.166-0.07-0.309-0.169-0.371c-0.031,0.072-0.067,0.142-0.114,0.205c0,0-0.085-0.64-0.124-0.668
		c-0.279-0.198-0.557-0.526-0.685-0.821c-0.36,0.399-0.843,0.751-1.495,0.751c-0.105,0-0.195-0.019-0.276-0.048l-0.124,0.786
		c-0.047-0.064-0.084-0.133-0.115-0.204c-0.099,0.063-0.169,0.205-0.169,0.371C31.04,31.062,31.166,31.244,31.323,31.244z" fill="#FAE052"/><g><path d="M32.269,32.712c0.007,0.004,0.013,0.007,0.02,0.011C32.283,32.719,32.276,32.716,32.269,32.712z" fill="#94E3D4"/><path d="M30.69,32.83c0.12-0.06,0.26-0.1,0.4-0.15v4.22c-0.13,0.03-0.27,0.05-0.42,0.06
			c-0.16,0.02-0.32,0.03-0.49,0.03v-3.3C30.2,33.14,30.36,33.01,30.69,32.83z" fill="#FAE052"/><path d="M35.16,33.69v0.36c0.01,0.01-0.01,0.01-0.01,0.01c-0.1,0.17-0.2,0.33-0.32,0.49
			c-0.01,0.02-0.02,0.04-0.04,0.06c-0.11,0.15-0.23,0.29-0.35,0.42c-0.06,0.07-0.12,0.13-0.19,0.19v-2.54
			c0.13,0.04,0.26,0.08,0.37,0.14C34.97,33,35.15,33.17,35.16,33.69z" fill="#FAE052"/></g><path d="M36,31c0,0.22-0.01,0.44-0.04,0.66c-0.02,0.21-0.05,0.41-0.09,0.61c-0.01,0.04-0.02,0.09-0.04,0.13
		c-0.04,0.18-0.09,0.35-0.15,0.52c-0.06,0.19-0.14,0.38-0.22,0.57c-0.01,0.02-0.02,0.03-0.02,0.05c-0.08,0.18-0.17,0.35-0.28,0.51
		c0.01,0.01-0.01,0.01-0.01,0.01c-0.1,0.17-0.2,0.33-0.32,0.49c-0.01,0.02-0.02,0.04-0.04,0.06c-0.11,0.15-0.23,0.29-0.35,0.42
		c-0.06,0.07-0.12,0.13-0.19,0.19v0.01c-0.09,0.1-0.19,0.19-0.29,0.27c-0.1,0.1-0.21,0.19-0.33,0.27c-0.35,0.27-0.72,0.5-1.12,0.68
		c-0.15,0.07-0.3,0.13-0.46,0.19c-0.15,0.06-0.31,0.1-0.46,0.14c-0.11,0.04-0.23,0.07-0.35,0.09c-0.05,0.01-0.1,0.02-0.15,0.03
		c-0.13,0.03-0.27,0.05-0.42,0.06c-0.16,0.02-0.32,0.03-0.49,0.03C30.12,37,30.06,37,30,37c-0.05,0-0.1,0-0.15-0.01
		c-0.18,0-0.35-0.01-0.52-0.03c-0.14-0.01-0.27-0.03-0.39-0.06c-0.06,0-0.12-0.02-0.18-0.03c-0.12-0.02-0.24-0.05-0.35-0.09
		c-0.15-0.04-0.31-0.08-0.46-0.14c-0.16-0.06-0.31-0.12-0.46-0.19c-0.4-0.18-0.77-0.41-1.12-0.68c-0.12-0.08-0.23-0.17-0.33-0.27
		c-0.09-0.07-0.17-0.15-0.25-0.23v-0.01c-0.06-0.05-0.11-0.11-0.17-0.17c-0.02-0.02-0.04-0.04-0.05-0.06
		c-0.13-0.13-0.25-0.27-0.36-0.42c-0.02-0.02-0.03-0.04-0.04-0.06c-0.11-0.15-0.21-0.3-0.3-0.45c0,0-0.01,0,0-0.01
		c-0.02-0.01-0.03-0.02-0.02-0.03c-0.11-0.16-0.2-0.34-0.29-0.52c0-0.02-0.01-0.03-0.02-0.05c-0.08-0.19-0.16-0.38-0.22-0.57
		c-0.06-0.17-0.11-0.34-0.15-0.52c-0.02-0.04-0.03-0.09-0.03-0.13c-0.05-0.2-0.08-0.4-0.1-0.61C24.01,31.44,24,31.22,24,31
		c0-3.31,2.69-6,6-6S36,27.69,36,31z" fill="none"/></g></svg>