<svg xmlns="http://www.w3.org/2000/svg" viewBox="0 0 40 40" focusable="false" aria-hidden="true"><g id="Solid"><rect width="40" height="40" fill="none"/></g><g id="Icon_Green" data-name="Icon Green"><circle cx="13.125" cy="17.875" r="1.125" fill="none"/><path d="M23.5,32.75a1.25,1.25,0,0,0,2.5,0V29.4377a7.8725,7.8725,0,0,1-2.5.5407Z" fill="#94e3d4"/><path d="M12.5,32.75a1.25,1.25,0,0,0,2.5,0V29.9468a7.9052,7.9052,0,0,1-2.5-.7213Z" fill="#94e3d4"/><path d="M33.5,18.5a.5.5,0,0,0-.5.5v1.144a.9056.9056,0,0,1-.9463.856H31.5a9.0891,9.0891,0,0,0-4.5271-7.9814A4.6952,4.6952,0,0,1,26.409,15H18.091a4.6975,4.6975,0,0,1-.591-2.25,4.7288,4.7288,0,0,1,.0756-.75h-.8722A3.9964,3.9964,0,0,0,13,9.5v3.0623A8.7425,8.7425,0,0,0,7.9882,18H7.25A1.25,1.25,0,0,0,6,19.25v3.5A1.25,1.25,0,0,0,7.25,24h.7382A8.805,8.805,0,0,0,12.5,29.2255,7.924,7.924,0,0,0,15.9,30h7.2c.135,0,.2665-.0148.4-.0216a7.8725,7.8725,0,0,0,2.5-.5407A8.9107,8.9107,0,0,0,31.4453,22h.6084A1.9048,1.9048,0,0,0,34,20.144V19A.5.5,0,0,0,33.5,18.5ZM13.125,19a1.125,1.125,0,1,1,1.125-1.125A1.125,1.125,0,0,1,13.125,19Z" fill="#1b5951"/><path d="M18.091,15h8.318a4.6952,4.6952,0,0,0,.5639-1.9814c.0052-.0907.0271-.1766.0271-.2686a4.7511,4.7511,0,0,0-9.5,0A4.6975,4.6975,0,0,0,18.091,15Zm1.7215-2.8359a.4989.4989,0,0,1,.6934-.1387l1.1753.7832,2.2368-2.2363a.5.5,0,1,1,.707.707l-2.5269,2.5264a.5.5,0,0,1-.6308.0625l-1.5161-1.0108A.5.5,0,0,1,19.8125,12.1641Z" fill="#94e3d4"/><path d="M21.4673,13.8682a.5.5,0,0,0,.6308-.0625l2.5269-2.5264a.5.5,0,1,0-.707-.707l-2.2368,2.2363-1.1753-.7832a.5.5,0,1,0-.5547.832Z" fill="#000d6e"/></g></svg>