<svg xmlns="http://www.w3.org/2000/svg" viewBox="0 0 40 40" focusable="false" aria-hidden="true"><defs><style>.cls-1{fill:none;}.cls-2{fill:#b8b2ff;}.cls-3{fill:#6c2273;}.cls-4{fill:#000d6e;}</style></defs><g id="Solid"><rect class="cls-1" width="40" height="40"/></g><g id="Icon"><circle class="cls-2" cx="20" cy="7" r="5"/><path class="cls-3" d="M14.2,5.5H12v1H9.5a.5.5,0,0,0,0,1H12v1h2.2a5.73,5.73,0,0,1,0-3Z"/><path class="cls-3" d="M30.5,6.5H28v-1H25.8a5.73,5.73,0,0,1,0,3H28v-1h2.5a.5.5,0,0,0,0-1Z"/><circle class="cls-4" cx="20" cy="7" r="1.75"/><path class="cls-2" d="M16,30a4,4,0,0,1,3.5-3.95V13a5.93,5.93,0,0,1-3.95-2H14.17A4.3,4.3,0,0,0,10,15.8L11.49,32a2.13,2.13,0,0,0,2.07,2H16V30Z"/><path class="cls-3" d="M25.83,11H24.45a5.93,5.93,0,0,1-3.95,2V26.05A4,4,0,0,1,24,30v4h2.44a2.13,2.13,0,0,0,2.07-2L30,15.8A4.3,4.3,0,0,0,25.83,11Z"/><path class="cls-2" d="M20,27a3,3,0,0,0-3,3v3h6V30A3,3,0,0,0,20,27Z"/><path class="cls-4" d="M20,33H18v3a2,2,0,0,0,4,0V33Z"/></g></svg>