<?xml version="1.0" encoding="iso-8859-1"?><!--Generator: Adobe Illustrator 26.3.1, SVG Export Plug-In . SVG Version: 6.00 Build 0)--><svg version="1.1" xmlns="http://www.w3.org/2000/svg" xmlns:xlink="http://www.w3.org/1999/xlink" x="0px" y="0px" viewBox="0 0 40 40" style="enable-background:new 0 0 40 40" xml:space="preserve" focusable="false" aria-hidden="true"><g id="Solid"><rect style="fill:none" width="40" height="40"/></g><g id="Icon_Red"><g><path style="fill:#D9304C" d="M30.228,20.034H9.772l-0.977,3C8.6,23.522,8.5,24.045,8.5,24.573v5.462h23v-5.462
			c0-0.528-0.1-1.051-0.295-1.538L30.228,20.034z M12,27.034c-0.828,0-1.5-0.672-1.5-1.5s0.672-1.5,1.5-1.5s1.5,0.672,1.5,1.5
			S12.828,27.034,12,27.034z M28,27.034c-0.828,0-1.5-0.672-1.5-1.5s0.672-1.5,1.5-1.5s1.5,0.672,1.5,1.5S28.828,27.034,28,27.034z"/><path style="fill:#D9304C" d="M26.5,34.034c0,0.552,0.448,1,1,1h3c0.552,0,1-0.448,1-1v-3h-5V34.034z"/><path style="fill:#D9304C" d="M8.5,34.034c0,0.552,0.448,1,1,1h3c0.552,0,1-0.448,1-1v-3h-5V34.034z"/><path style="fill:#D9304C" d="M31,19.034h2c0.276,0,0.5-0.224,0.5-0.5v-1c0-0.276-0.224-0.5-0.5-0.5h-2
			c-0.276,0-0.5,0.224-0.5,0.5v1C30.5,18.81,30.724,19.034,31,19.034z"/><path style="fill:#D9304C" d="M9.5,18.534v-1c0-0.276-0.224-0.5-0.5-0.5H7c-0.276,0-0.5,0.224-0.5,0.5v1
			c0,0.276,0.224,0.5,0.5,0.5h2C9.276,19.034,9.5,18.81,9.5,18.534z"/><path style="fill:#FFACA6" d="M27.445,12.88c-0.446-1.118-1.493-1.846-2.654-1.846h-9.583c-1.161,0-2.207,0.728-2.654,1.846
			l-2.457,6.154h19.806L27.445,12.88z"/></g><g><path style="fill:#000D6E" d="M23.354,4.139l-1.414-1.414c-0.195-0.195-0.512-0.195-0.707,0s-0.195,0.512,0,0.707L21.801,4H17
			c-0.276,0-0.5,0.224-0.5,0.5S16.724,5,17,5h4.801l-0.568,0.568c-0.195,0.195-0.195,0.512,0,0.707
			c0.098,0.098,0.226,0.146,0.354,0.146s0.256-0.049,0.354-0.146l1.414-1.414c0.1-0.1,0.147-0.231,0.145-0.361
			C23.501,4.369,23.453,4.238,23.354,4.139z"/><path style="fill:#000D6E" d="M23,7.5h-4.801l0.568-0.568c0.195-0.195,0.195-0.512,0-0.707s-0.512-0.195-0.707,0l-1.414,1.414
			c-0.1,0.1-0.147,0.231-0.145,0.361c-0.002,0.131,0.045,0.262,0.145,0.361l1.414,1.414c0.098,0.098,0.226,0.146,0.354,0.146
			s0.256-0.049,0.354-0.146c0.195-0.195,0.195-0.512,0-0.707L18.199,8.5H23c0.276,0,0.5-0.224,0.5-0.5S23.276,7.5,23,7.5z"/></g></g><g id="Guides" style="display:none"/><g id="Grid" style="display:none"><g style="display:inline"><g/><g/><g/><g/><g/><g/><g/><g/><g/><g/><g/><g/><g/><g/><g/><g/><g/><g/><g/><g/><g/><g/><g/><g/><g/><g/><g/><g/><g/><g/><g/><g/><g/><g/><g/><g/><g/><g/><g/><g/></g></g></svg>