<svg xmlns="http://www.w3.org/2000/svg" viewBox="0 0 40 40" focusable="false" aria-hidden="true"><defs><style>.cls-1{fill:none;}.cls-2{fill:#94e3d4;}.cls-3{fill:#1b5951;}.cls-4{fill:#000d6e;}.cls-5{fill:#b8b2ff;}.cls-6{fill:#6c2273;}</style></defs><g id="Solid"><rect class="cls-1" width="40" height="40"/></g><g id="Icon_Purple" data-name="Icon Purple"><path class="cls-2" d="M28.997,19.4731V22.02h2V17.4731l-.9052.9052Z"/><path class="cls-2" d="M23.127,8.02h-6.25a7.9035,7.9035,0,0,0-7.88,7.87v6.13h2v-6.13a5.8859,5.8859,0,0,1,5.88-5.8727h6.25c.1077,0,.2128.01.3191.0162L26.022,8.5825A7.783,7.783,0,0,0,23.127,8.02Z"/><path class="cls-3" d="M31.47,4.2718l-.69.6919a2.0124,2.0124,0,0,0-.01,2.8415l3.5235,3.5327a2.0122,2.0122,0,0,0,2.85-.0116l.6811-.6834Z"/><path class="cls-4" d="M34.2639,12.792,29.01,7.5378c-.4815-.4815-1.1737.0225-1.1737.0225L26.022,8.5825l-2.5759,1.4516-1.1772.6633a1,1,0,1,0,.9819,1.7424l2.66-1.1772L20.2929,16.88a.9949.9949,0,0,0,1.3649,1.447l-.6661.6661a1,1,0,0,0,1.4143,1.4141l1.0606-1.0606a1,1,0,0,0,1.4142,1.4142l1.4142-1.4142a1,1,0,0,0,1.4143,1.4142l1.2877-1.2878,1.0948-1.0948.9052-.9052c.3609-.3609.791-.7909,1.2307-1.2307.7478-.7478,1.5118-1.5117,1.9595-1.96A.9726.9726,0,0,0,34.2639,12.792Z"/><path class="cls-3" d="M11.2,37.44a1.75,1.75,0,0,1-1.7-1.791V24.3506a14.8728,14.8728,0,0,0,10.5,4.11,14.8723,14.8723,0,0,0,10.5-4.11V35.6494a1.7494,1.7494,0,0,1-1.7,1.791Z"/><path class="cls-3" d="M30,25.4852v10.164a1.25,1.25,0,0,1-1.2,1.2916H11.2A1.25,1.25,0,0,1,10,35.6492V25.4852A15.6248,15.6248,0,0,0,20,28.961a15.6251,15.6251,0,0,0,10-3.4758m1-2.4413A14.0565,14.0565,0,0,1,20,27.961,14.0565,14.0565,0,0,1,9,23.0439V35.6492a2.2472,2.2472,0,0,0,2.2,2.2916H28.8A2.2472,2.2472,0,0,0,31,35.6492V23.0439Z"/><path class="cls-2" d="M9,23.0439A14.0565,14.0565,0,0,0,20,27.961a14.0565,14.0565,0,0,0,11-4.9171V23H9Z"/><path class="cls-2" d="M28.997,19.4731V22.02h2V17.4731l-.9052.9052Z"/><path class="cls-2" d="M23.127,8.02h-6.25a7.9035,7.9035,0,0,0-7.88,7.87v6.13h2v-6.13a5.8859,5.8859,0,0,1,5.88-5.8727h6.25c.1077,0,.2128.01.3191.0162L26.022,8.5825A7.783,7.783,0,0,0,23.127,8.02Z"/><path class="cls-3" d="M31.47,4.2718l-.69.6919a2.0124,2.0124,0,0,0-.01,2.8415l3.5235,3.5327a2.0122,2.0122,0,0,0,2.85-.0116l.6811-.6834Z"/><path class="cls-4" d="M34.2639,12.792,29.01,7.5378c-.4815-.4815-1.1737.0225-1.1737.0225L26.022,8.5825l-2.5759,1.4516-1.1772.6633a1,1,0,1,0,.9819,1.7424l2.66-1.1772L20.2929,16.88a.9949.9949,0,0,0,1.3649,1.447l-.6661.6661a1,1,0,0,0,1.4143,1.4141l1.0606-1.0606a1,1,0,0,0,1.4142,1.4142l1.4142-1.4142a1,1,0,0,0,1.4143,1.4142l1.2877-1.2878,1.0948-1.0948.9052-.9052c.3609-.3609.791-.7909,1.2307-1.2307.7478-.7478,1.5118-1.5117,1.9595-1.96A.9726.9726,0,0,0,34.2639,12.792Z"/><path class="cls-3" d="M11.2,37.44a1.75,1.75,0,0,1-1.7-1.791V24.3506a14.8728,14.8728,0,0,0,10.5,4.11,14.8723,14.8723,0,0,0,10.5-4.11V35.6494a1.7494,1.7494,0,0,1-1.7,1.791Z"/><path class="cls-3" d="M30,25.4852v10.164a1.25,1.25,0,0,1-1.2,1.2916H11.2A1.25,1.25,0,0,1,10,35.6492V25.4852A15.6248,15.6248,0,0,0,20,28.961a15.6251,15.6251,0,0,0,10-3.4758m1-2.4413A14.0565,14.0565,0,0,1,20,27.961,14.0565,14.0565,0,0,1,9,23.0439V35.6492a2.2472,2.2472,0,0,0,2.2,2.2916H28.8A2.2472,2.2472,0,0,0,31,35.6492V23.0439Z"/><path class="cls-2" d="M9,23.0439A14.0565,14.0565,0,0,0,20,27.961a14.0565,14.0565,0,0,0,11-4.9171V23H9Z"/><path class="cls-2" d="M28.997,19.4731V22.02h2V17.4731l-.9052.9052Z"/><path class="cls-2" d="M23.127,8.02h-6.25a7.9035,7.9035,0,0,0-7.88,7.87v6.13h2v-6.13a5.8859,5.8859,0,0,1,5.88-5.8727h6.25c.1077,0,.2128.01.3191.0162L26.022,8.5825A7.783,7.783,0,0,0,23.127,8.02Z"/><path class="cls-3" d="M31.47,4.2718l-.69.6919a2.0124,2.0124,0,0,0-.01,2.8415l3.5235,3.5327a2.0122,2.0122,0,0,0,2.85-.0116l.6811-.6834Z"/><path class="cls-4" d="M34.2639,12.792,29.01,7.5378c-.4815-.4815-1.1737.0225-1.1737.0225L26.022,8.5825l-2.5759,1.4516-1.1772.6633a1,1,0,1,0,.9819,1.7424l2.66-1.1772L20.2929,16.88a.9949.9949,0,0,0,1.3649,1.447l-.6661.6661a1,1,0,0,0,1.4143,1.4141l1.0606-1.0606a1,1,0,0,0,1.4142,1.4142l1.4142-1.4142a1,1,0,0,0,1.4143,1.4142l1.2877-1.2878,1.0948-1.0948.9052-.9052c.3609-.3609.791-.7909,1.2307-1.2307.7478-.7478,1.5118-1.5117,1.9595-1.96A.9726.9726,0,0,0,34.2639,12.792Z"/><path class="cls-3" d="M11.2,37.44a1.75,1.75,0,0,1-1.7-1.791V24.3506a14.8728,14.8728,0,0,0,10.5,4.11,14.8723,14.8723,0,0,0,10.5-4.11V35.6494a1.7494,1.7494,0,0,1-1.7,1.791Z"/><path class="cls-3" d="M30,25.4852v10.164a1.25,1.25,0,0,1-1.2,1.2916H11.2A1.25,1.25,0,0,1,10,35.6492V25.4852A15.6248,15.6248,0,0,0,20,28.961a15.6251,15.6251,0,0,0,10-3.4758m1-2.4413A14.0565,14.0565,0,0,1,20,27.961,14.0565,14.0565,0,0,1,9,23.0439V35.6492a2.2472,2.2472,0,0,0,2.2,2.2916H28.8A2.2472,2.2472,0,0,0,31,35.6492V23.0439Z"/><path class="cls-2" d="M9,23.0439A14.0565,14.0565,0,0,0,20,27.961a14.0565,14.0565,0,0,0,11-4.9171V23H9Z"/><path class="cls-5" d="M28.997,19.4731V22.02h2V17.4731l-.9052.9052Z"/><path class="cls-5" d="M23.127,8.02h-6.25a7.9035,7.9035,0,0,0-7.88,7.87v6.13h2v-6.13a5.8859,5.8859,0,0,1,5.88-5.8727h6.25c.1077,0,.2128.01.3191.0162L26.022,8.5825A7.783,7.783,0,0,0,23.127,8.02Z"/><path class="cls-6" d="M31.47,4.2718l-.69.6919a2.0124,2.0124,0,0,0-.01,2.8415l3.5235,3.5327a2.0122,2.0122,0,0,0,2.85-.0116l.6811-.6834Z"/><path class="cls-4" d="M34.2639,12.792,29.01,7.5378c-.4815-.4815-1.1737.0225-1.1737.0225L26.022,8.5825l-2.5759,1.4516-1.1772.6633a1,1,0,1,0,.9819,1.7424l2.66-1.1772L20.2929,16.88a.9949.9949,0,0,0,1.3649,1.447l-.6661.6661a1,1,0,0,0,1.4143,1.4141l1.0606-1.0606a1,1,0,0,0,1.4142,1.4142l1.4142-1.4142a1,1,0,0,0,1.4143,1.4142l1.2877-1.2878,1.0948-1.0948.9052-.9052c.3609-.3609.791-.7909,1.2307-1.2307.7478-.7478,1.5118-1.5117,1.9595-1.96A.9726.9726,0,0,0,34.2639,12.792Z"/><path class="cls-6" d="M20,27.961A14.0565,14.0565,0,0,1,9,23.0439V35.6492a2.2472,2.2472,0,0,0,2.2,2.2916H28.8A2.2472,2.2472,0,0,0,31,35.6492V23.0439A14.0565,14.0565,0,0,1,20,27.961Z"/><path class="cls-5" d="M9,23.0439A14.0565,14.0565,0,0,0,20,27.961a14.0565,14.0565,0,0,0,11-4.9171V23H9Z"/></g></svg>