<svg xmlns="http://www.w3.org/2000/svg" viewBox="0 0 40 40" focusable="false" aria-hidden="true"><g id="Solid"><rect width="40" height="40" fill="none"/></g><g id="Icon_Red" data-name="Icon Red"><path d="M8.05,11.5H4.5a.5.5,0,0,0,0,1H8.05a2.5054,2.5054,0,0,1,0-1Z" fill="#000d6e"/><path d="M15,9v6a1,1,0,0,0,1,1h2V8H16A1,1,0,0,0,15,9Z" fill="#d9304c"/><path d="M35.9766,11.5088A5.1453,5.1453,0,0,0,30.7852,7H19V17h6v1h.0024v4.9575H25V30h6V17A5.0011,5.0011,0,0,0,35.9766,11.5088Z" fill="#d9304c"/><path d="M25.0024,18h-1a1,1,0,0,0-1,1v2.9575a1,1,0,0,0,1,1h1Z" fill="#ffaca6"/><path d="M8.05,11.5A3,3,0,0,0,11,15h3V9H11A2.9943,2.9943,0,0,0,8.05,11.5Z" fill="#ffaca6"/><path d="M31.0157,30.9834h-11a1,1,0,0,0-1,1v4.0519h13V31.9834A1,1,0,0,0,31.0157,30.9834Z" fill="#ffaca6"/></g></svg>