<?xml version="1.0" encoding="iso-8859-1"?><!--Generator: Adobe Illustrator 26.2.1, SVG Export Plug-In . SVG Version: 6.00 Build 0)--><svg version="1.1" xmlns="http://www.w3.org/2000/svg" xmlns:xlink="http://www.w3.org/1999/xlink" x="0px" y="0px" viewBox="0 0 40 40" style="enable-background:new 0 0 40 40" xml:space="preserve" focusable="false" aria-hidden="true"><g id="Solid"><rect style="fill:none" width="40" height="40"/></g><g id="Icon_Purple"><polygon style="fill:#6C2273" points="29,6 25,6 25,8.306 29,11.994 	"/><path style="fill:#B8B2FF" d="M19.398,8.234L10,16.933V34h8v-6.023h4V34h8V16.933l-9.412-8.711
		C20.259,7.924,19.74,7.925,19.398,8.234z M17.016,22.947h-3v-3.011h3V22.947z M23,19.959h3v3.011h-3V19.959z M21.5,22.947h-3
		v-3.011h3V22.947z"/><path style="fill:#000D6E" d="M32.339,16.433L21.94,6.844c-1.106-0.992-2.773-0.993-3.884,0.005L7.661,16.433l0,0L8,16.801
		l0.339,0.367l10.39-9.58c0.724-0.651,1.817-0.65,2.538-0.005l10.394,9.585L32,16.801L32.339,16.433L32.339,16.433z"/><rect x="18" y="28" style="fill:#000D6E" width="4" height="6"/><line style="fill:none;stroke:#000D6E;stroke-width:0;stroke-linecap:round;stroke-linejoin:round" x1="5.518" y1="36.009" x2="5.518" y2="36.009"/></g><g id="Guides" style="display:none"/><g id="Grid" style="display:none"><g style="display:inline"><g/><g/><g/><g/><g/><g/><g/><g/><g/><g/><g/><g/><g/><g/><g/><g/><g/><g/><g/><g/><g/><g/><g/><g/><g/><g/><g/><g/><g/><g/><g/><g/><g/><g/><g/><g/><g/><g/><g/><g/></g></g></svg>