<svg xmlns="http://www.w3.org/2000/svg" viewBox="0 0 40 40" focusable="false" aria-hidden="true"><defs><style>.cls-1{fill:none;}.cls-2{fill:#b8b2ff;}.cls-3{fill:#6c2273;}.cls-4{fill:#000d6e;}</style></defs><g id="Solid"><rect class="cls-1" width="40" height="40"/></g><g id="Icon_Purple" data-name="Icon Purple"><rect class="cls-1" x="9" y="20" width="10" height="6"/><path class="cls-2" d="M30.5,17.9935a2.4874,2.4874,0,0,1-1.5-.5011,2.4956,2.4956,0,0,1-3,0,2.4956,2.4956,0,0,1-3,0,2.4956,2.4956,0,0,1-3,0,2.4956,2.4956,0,0,1-3,0,2.4956,2.4956,0,0,1-3,0,2.4956,2.4956,0,0,1-3,0,2.4956,2.4956,0,0,1-3,0,2.4915,2.4915,0,0,1-1,.4507V33H23V20h8V33h2V17.9431a2.4915,2.4915,0,0,1-1-.4507A2.4874,2.4874,0,0,1,30.5,17.9935ZM9,20H19v6H9Zm10.5,8.0039H8.5a.5039.5039,0,1,1,0-1.0078h11a.5039.5039,0,0,1,0,1.0078Z"/><path class="cls-3" d="M23,20V33h8V20Zm4,7.5a.5.5,0,0,1-.5.5h-2a.5.5,0,0,1-.5-.5l0-.0011-.0011-.0054a.5.5,0,0,1,.5-.5H26.5a.5.5,0,0,1,.5.5l-.0007.0033Z"/><path class="cls-3" d="M19.5,26.9961H8.5a.5039.5039,0,1,0,0,1.0078h11a.5039.5039,0,0,0,0-1.0078Z"/><path class="cls-4" d="M26.5,27h-2a.4968.4968,0,1,0-.0008.9935H26.5A.4968.4968,0,1,0,26.5,27Z"/><path class="cls-4" d="M26.5,27.9935H24.4991A.4994.4994,0,0,1,24,27.4989L24,27.5a.5.5,0,0,0,.5.5h2a.5.5,0,0,0,.5-.5l-.0007-.0032A.5.5,0,0,1,26.5,27.9935Z"/><path class="cls-4" d="M26.5,26.9935H24.4991a.5.5,0,0,0-.5.5L24,27.4989A.5.5,0,0,1,24.5,27h2a.5.5,0,0,1,.4992.4968L27,27.4935A.5.5,0,0,0,26.5,26.9935Z"/><path class="cls-3" d="M5,7v8.5a1.5,1.5,0,0,0,3-.0065,1.5,1.5,0,0,0,3,0,1.5,1.5,0,0,0,3,0,1.5,1.5,0,0,0,3,0,1.5,1.5,0,0,0,3,0,1.5,1.5,0,0,0,3,0,1.5,1.5,0,0,0,3,0,1.5,1.5,0,0,0,3,0,1.5,1.5,0,0,0,3,0A1.5,1.5,0,0,0,35,15.5V7Z"/></g></svg>