<?xml version="1.0" encoding="iso-8859-1"?><!--Generator: Adobe Illustrator 26.2.1, SVG Export Plug-In . SVG Version: 6.00 Build 0)--><svg version="1.1" xmlns="http://www.w3.org/2000/svg" xmlns:xlink="http://www.w3.org/1999/xlink" x="0px" y="0px" viewBox="0 0 40 40" style="enable-background:new 0 0 40 40" xml:space="preserve" focusable="false" aria-hidden="true"><g id="Solid"><rect style="fill:none" width="40" height="40"/></g><g id="Icon_Red"><g><path style="fill:#FFACA6" d="M32.236,17.125L11.83,22.087L8.523,8.483l20.405-4.962c0.537-0.13,1.077,0.199,1.208,0.735
			l2.835,11.66C33.102,16.454,32.772,16.995,32.236,17.125z"/><g><path style="fill:#D9304C" d="M13.476,38c-0.45,0-0.859-0.307-0.971-0.764L5.583,8.835C5.453,8.299,5.782,7.758,6.318,7.627
				c0.536-0.132,1.078,0.198,1.208,0.735l6.922,28.401c0.131,0.536-0.198,1.077-0.735,1.208C13.634,37.991,13.555,38,13.476,38z"/></g><g><path style="fill:#000D6E" d="M21.431,14.885l-1.652,1.45c-0.126,0.11-0.324,0.029-0.335-0.139l-0.146-2.193l-1.89-1.123
				c-0.144-0.086-0.127-0.299,0.028-0.361l2.041-0.816l0.485-2.144c0.037-0.163,0.245-0.214,0.352-0.085l1.407,1.689l2.179-0.201
				c0.171-0.016,0.286,0.171,0.194,0.316l-1.166,1.852l0.868,2.02c0.066,0.154-0.073,0.317-0.235,0.276L21.431,14.885z"/></g></g></g><g id="Guides" style="display:none"/><g id="Grid" style="display:none"><g style="display:inline"><g/><g/><g/><g/><g/><g/><g/><g/><g/><g/><g/><g/><g/><g/><g/><g/><g/><g/><g/><g/><g/><g/><g/><g/><g/><g/><g/><g/><g/><g/><g/><g/><g/><g/><g/><g/><g/><g/><g/><g/></g></g></svg>