<?xml version="1.0" encoding="iso-8859-1"?><!--Generator: Adobe Illustrator 26.2.1, SVG Export Plug-In . SVG Version: 6.00 Build 0)--><svg version="1.1" xmlns="http://www.w3.org/2000/svg" xmlns:xlink="http://www.w3.org/1999/xlink" x="0px" y="0px" viewBox="0 0 40 40" style="enable-background:new 0 0 40 40" xml:space="preserve" focusable="false" aria-hidden="true"><g id="Solid"><rect style="fill:none" width="40" height="40"/></g><g id="Icon_Purple"><path style="fill:none" d="M32.278,17.556c-0.003-0.012-0.005-0.024-0.008-0.036c-0.001-0.003-0.002-0.005-0.003-0.008
		c0,0,0,0,0,0c0.026,0.096,0.043,0.198,0.043,0.308C32.31,17.726,32.297,17.639,32.278,17.556z"/><path style="fill:none" d="M32.232,17.424c-0.015-0.04-0.027-0.082-0.047-0.118c-0.006-0.011-0.012-0.022-0.019-0.033
		c-0.003-0.006-0.008-0.009-0.012-0.015c0,0,0,0,0,0C32.186,17.307,32.21,17.365,32.232,17.424
		C32.233,17.424,32.232,17.424,32.232,17.424z"/><path style="fill:none" d="M25.561,17.568c-0.003,0.012-0.005,0.023-0.008,0.035c-0.013,0.069-0.021,0.14-0.022,0.214
		c0-0.098,0.017-0.19,0.039-0.278C25.568,17.55,25.563,17.558,25.561,17.568z"/><path style="fill:none" d="M32.093,17.18c-0.019-0.023-0.034-0.05-0.055-0.07c-0.006-0.005-0.012-0.009-0.018-0.014
		c-0.01-0.008-0.021-0.011-0.031-0.018c0,0,0,0,0,0C32.027,17.106,32.061,17.141,32.093,17.18
		C32.093,17.18,32.093,17.18,32.093,17.18z"/><path style="fill:none" d="M26.118,18.662c0.036,0,0.072-0.006,0.106-0.015v0C26.19,18.656,26.155,18.662,26.118,18.662z"/><path style="fill:none" d="M11.435,25.598c0.259,0,0.503-0.056,0.729-0.146c-0.226,0.09-0.471,0.146-0.731,0.146
		C11.433,25.598,11.434,25.598,11.435,25.598z"/><path style="fill:none" d="M12.895,24.958c0.004-0.047,0.006-0.09,0.009-0.136C12.9,24.868,12.897,24.913,12.895,24.958
		C12.894,24.959,12.894,24.959,12.895,24.958z"/><path style="fill:none" d="M12.931,24.321c0.038-0.74,0.031-1.353,0.014-1.773c-0.007-0.151-0.014-0.271-0.022-0.375
		c0.007,0.103,0.014,0.222,0.021,0.371C12.961,22.968,12.966,23.579,12.931,24.321z"/><path style="fill:#B8B2FF" d="M9.945,24.635c0.007,0.106,0.014,0.214,0.022,0.325c0.232,0.251,0.534,0.434,0.874,0.54
		c0.187,0.058,0.381,0.099,0.589,0.099c0.001,0,0.001,0,0.002,0c0.261,0,0.505-0.056,0.731-0.146c0.28-0.111,0.531-0.277,0.73-0.492
		c0,0,0,0,0,0c0.004-0.047,0.006-0.091,0.009-0.137c0.003-0.062,0.006-0.126,0.011-0.184c0.008-0.111,0.011-0.212,0.016-0.318
		c0.035-0.742,0.03-1.353,0.012-1.776c-0.006-0.149-0.014-0.268-0.021-0.371c-0.015-0.206-0.028-0.325-0.028-0.325l0.001,0.001
		l0-0.001l0.006-0.918c0.752-0.497,1.319-1.37,1.546-2.419c0.028,0.005,0.055,0.012,0.084,0.012c0.359,0,0.649-0.4,0.649-0.893
		c0-0.406-0.199-0.745-0.469-0.853v0.151c0,0.053-0.021,0.099-0.05,0.138c-0.01,0.014-0.021,0.027-0.034,0.038
		c-0.021,0.018-0.045,0.033-0.072,0.042c-0.025,0.009-0.05,0.016-0.078,0.016c-0.129,0-0.234-0.105-0.234-0.234v-0.094v-0.67
		c0-0.034-0.003-0.063-0.004-0.096c-0.025-0.043-0.055-0.087-0.083-0.13c-0.159-0.245-0.37-0.489-0.646-0.704
		c-0.478,0.203-1.105,0.309-1.847,0.059c-0.303-0.102-0.546-0.213-0.746-0.326c-0.189-0.107-0.337-0.215-0.453-0.321
		c-0.448,0.075-0.818,0.196-1.117,0.321c-0.254,0.106-0.46,0.213-0.624,0.293c-0.039,0.155-0.076,0.346-0.094,0.579
		c-0.008,0.102-0.013,0.21-0.013,0.326v0.67v0.094c0,0.129-0.105,0.234-0.234,0.234c-0.013,0-0.025-0.005-0.038-0.008
		c-0.11-0.019-0.196-0.111-0.196-0.226v-0.151c-0.27,0.108-0.469,0.447-0.469,0.853c0,0.493,0.291,0.893,0.649,0.893
		c0.044,0,0.086-0.006,0.127-0.018c0.223,1.037,0.777,1.904,1.516,2.406H9.961l0.005,0.938c0,0-0.029,0.25-0.048,0.696
		c-0.012,0.283-0.017,0.654-0.011,1.085c0.003,0.188,0.01,0.389,0.019,0.602C9.932,24.364,9.937,24.493,9.945,24.635z"/><path style="fill:#6C2273" d="M9.945,24.64c-0.008-0.143-0.013-0.273-0.018-0.407c-0.009-0.213-0.015-0.413-0.019-0.602
		C9.9,23.201,9.903,22.83,9.915,22.55c0.02-0.45,0.05-0.7,0.05-0.7l-0.07,0.03l-4.6,2.45c-0.56,0.28-0.94,0.82-1.02,1.44L3.985,28
		h6.39c-0.09-0.39-0.22-1.12-0.35-2.4c-0.02-0.19-0.04-0.38-0.05-0.56L9.945,24.64z"/><path style="fill:#000D6E" d="M8.345,17.153c0.013,0.002,0.025,0.008,0.038,0.008c0.129,0,0.234-0.105,0.234-0.234v-0.094v-0.67
		c0-0.116,0.005-0.224,0.013-0.326c0.018-0.233,0.055-0.424,0.094-0.579c0.164-0.08,0.37-0.187,0.624-0.293
		c0.3-0.125,0.67-0.247,1.117-0.321c0.116,0.106,0.264,0.215,0.453,0.321c0.201,0.113,0.444,0.224,0.746,0.326
		c0.742,0.25,1.369,0.145,1.847-0.059c0.276,0.215,0.487,0.458,0.646,0.704c0.028,0.044,0.058,0.087,0.083,0.13
		c0.001,0.033,0.004,0.062,0.004,0.096v0.67v0.094c0,0.129,0.105,0.234,0.234,0.234c0.028,0,0.053-0.007,0.078-0.016
		c0.027-0.01,0.05-0.024,0.072-0.042c0.013-0.011,0.024-0.024,0.034-0.038c0.03-0.039,0.05-0.086,0.05-0.138v-0.151v-0.861
		c0.021-0.606,0.032-1.255,0-1.567c-0.068-0.673-1.329-2.344-3.281-2.344s-3.281,1.473-3.281,2.812v1.959v0.151
		C8.149,17.043,8.235,17.134,8.345,17.153z"/><path style="fill:none" d="M18.024,21.09c-0.11,0-0.206-0.059-0.289-0.141c0.083,0.082,0.178,0.142,0.287,0.142
		c0.07,0,0.137-0.021,0.198-0.057c0.051,0.138,0.113,0.269,0.182,0.395c-0.069-0.126-0.132-0.258-0.183-0.398
		C18.159,21.067,18.091,21.09,18.024,21.09z"/><path style="fill:none" d="M18.02,18.639c-0.001-0.122-0.002-0.236-0.002-0.322l-0.003,0.003c0.001,0.086,0.002,0.199,0.003,0.319
		c0,0.002,0,0.005,0,0.007c0.002,0.222,0.004,0.478,0.006,0.71c-0.001-0.233-0.002-0.49-0.004-0.712
		C18.02,18.642,18.02,18.641,18.02,18.639z"/><g><path style="fill:none" d="M25.553,17.603c-0.013,0.069-0.021,0.14-0.022,0.214c0-0.098,0.017-0.19,0.039-0.278
			c-0.002,0.01-0.008,0.018-0.01,0.028C25.558,17.58,25.555,17.591,25.553,17.603z"/><path style="fill:none" d="M32.186,17.306c-0.006-0.011-0.012-0.022-0.019-0.033c-0.003-0.006-0.008-0.009-0.012-0.015
			c0,0,0,0,0,0c0.031,0.05,0.055,0.108,0.078,0.167c0,0,0,0,0-0.001C32.217,17.384,32.205,17.342,32.186,17.306z"/><path style="fill:none" d="M31.829,17.007c-0.034-0.009-0.065-0.03-0.101-0.03c0-0.073-0.003-0.352-0.003-0.408
			c-0.037-0.018-0.12-0.058-0.224-0.109c-0.07-0.034-0.145-0.07-0.24-0.116c0.235,0.114,0.402,0.195,0.464,0.225
			c0,0.056,0.003,0.336,0.003,0.408c0.064,0.001,0.122,0.026,0.179,0.054c-0.02-0.01-0.037-0.027-0.058-0.034
			C31.843,16.994,31.836,17.001,31.829,17.007z"/><path style="fill:none" d="M32.038,17.11c-0.006-0.005-0.012-0.009-0.018-0.014c-0.01-0.008-0.021-0.011-0.031-0.018c0,0,0,0,0,0
			c0.038,0.028,0.072,0.063,0.105,0.102c0,0,0,0,0,0C32.074,17.157,32.059,17.129,32.038,17.11z"/><polygon style="fill:none" points="30.236,20.937 30.29,21.804 30.29,21.804 30.29,21.81 30.29,21.804 		"/><path style="fill:none" d="M32.27,17.52c-0.001-0.003-0.002-0.005-0.003-0.008c0,0,0,0,0,0c0.026,0.096,0.043,0.198,0.043,0.308
			c0-0.093-0.013-0.18-0.032-0.263C32.275,17.544,32.273,17.531,32.27,17.52z"/><path style="fill:none" d="M31.634,18.649c-0.077,0.372-0.197,0.721-0.353,1.036C31.437,19.37,31.557,19.021,31.634,18.649
			L31.634,18.649z"/><path style="fill:none" d="M22.026,22.184c0.261-0.224,0.478-0.505,0.644-0.827C22.504,21.678,22.287,21.96,22.026,22.184z"/><polygon style="fill:none" points="27.524,21.79 27.575,20.963 27.524,21.79 		"/><path style="fill:none" d="M27.522,21.804c0,0.001-0.001,0.005-0.001,0.007v0c0,0.006-0.003,0.016-0.004,0.023h0.003
			c0-0.003,0.001-0.012,0.001-0.013v0c0,0,0,0,0.001-0.001l0-0.006c0-0.002,0.002-0.014,0.002-0.014l-0.002,0.001l0,0
			C27.522,21.802,27.522,21.804,27.522,21.804z"/><path style="fill:none" d="M26.225,18.647c-0.035,0.009-0.07,0.015-0.106,0.015C26.155,18.662,26.19,18.656,26.225,18.647
			L26.225,18.647z"/><path style="fill:none" d="M27.91,14.734c0.021,0.005,0.041,0.009,0.063,0.015c0,0,0,0,0,0
			C27.952,14.743,27.931,14.739,27.91,14.734z"/><path style="fill:none" d="M23.007,19.257c-0.001,0-0.001,0-0.002-0.001c0.001,0.121,0.003,0.239,0.004,0.34
			c0.132,0,0.251,0.078,0.342,0.197c-0.091-0.119-0.209-0.197-0.342-0.199C23.009,19.493,23.008,19.377,23.007,19.257z"/><path style="fill:none" d="M18.017,18.639c0,0.002,0,0.005,0,0.007c0.002,0.222,0.004,0.478,0.006,0.71
			c-0.001-0.233-0.002-0.49-0.004-0.712c0-0.002,0-0.003,0-0.005c-0.001-0.122-0.002-0.236-0.002-0.322l-0.003,0.003
			C18.015,18.406,18.016,18.519,18.017,18.639z"/><path style="fill:none" d="M23.278,20.962c-0.081,0.074-0.172,0.128-0.277,0.128c0.001,0,0.001,0.001,0.002,0.001
			C23.107,21.091,23.197,21.036,23.278,20.962z"/><path style="fill:none" d="M18.22,21.033c0.051,0.138,0.113,0.269,0.182,0.395c-0.069-0.126-0.132-0.258-0.183-0.398
			c-0.06,0.038-0.128,0.06-0.195,0.06c-0.11,0-0.206-0.059-0.289-0.141c0.083,0.082,0.178,0.142,0.287,0.142
			C18.092,21.091,18.159,21.069,18.22,21.033z"/><path style="fill:none" d="M22.822,21.037C22.821,21.038,22.821,21.038,22.822,21.037c0.053,0.029,0.109,0.046,0.168,0.049
			C22.933,21.084,22.871,21.065,22.822,21.037z"/><path style="fill:#000D6E" d="M27.153,21.981l0.37-0.19l0.001,0l0.052-0.828l-0.001-0.059c-0.657-0.476-1.15-1.287-1.349-2.256
			c-0.035,0.009-0.07,0.015-0.106,0.015c-0.081,0-0.158-0.024-0.228-0.066c-0.211-0.128-0.359-0.428-0.359-0.777
			c0-0.001,0-0.001,0-0.002c0-0.074,0.009-0.145,0.022-0.214c0.002-0.012,0.005-0.023,0.008-0.035
			c0.002-0.01,0.007-0.018,0.01-0.028c0.081-0.327,0.292-0.564,0.548-0.564c0.001,0,0.001,0,0.002,0
			c-0.004-0.588-0.01-1.356-0.012-1.596c-0.001-0.013,0.001-0.077,0.005-0.148c0.004-0.071,0.01-0.149,0.018-0.192
			c0.386-0.186,0.984-0.505,1.779-0.306c0.021,0.005,0.041,0.009,0.062,0.015c0,0,0,0,0,0c0.157,0.044,0.319,0.102,0.491,0.192
			c0.216,0.114,0.455,0.236,0.7,0.361c0.379,0.193,0.776,0.391,1.142,0.572c0.366,0.181,0.701,0.345,0.957,0.47
			c0.095,0.046,0.169,0.082,0.24,0.116c0.104,0.05,0.187,0.091,0.224,0.109c0,0.056,0.003,0.336,0.003,0.408
			c0.036,0,0.067,0.021,0.101,0.03c0.007-0.005,0.013-0.012,0.02-0.01c0.021,0.007,0.038,0.024,0.058,0.034
			c0.028,0.014,0.055,0.028,0.081,0.047c0,0,0,0,0,0c0.01,0.007,0.021,0.01,0.031,0.018c0.006,0.005,0.012,0.009,0.018,0.014
			c0.021,0.019,0.036,0.047,0.055,0.07c0,0,0,0,0,0c0.021,0.025,0.043,0.048,0.061,0.077c0,0,0,0,0,0
			c0.004,0.006,0.009,0.009,0.012,0.015c0.007,0.011,0.013,0.022,0.019,0.033c0.019,0.036,0.031,0.078,0.047,0.118c0,0,0,0,0,0.001
			c0.011,0.03,0.026,0.055,0.034,0.087c0,0,0,0,0,0c0.001,0.003,0.002,0.005,0.003,0.008c0.003,0.012,0.005,0.024,0.008,0.036
			c0.019,0.083,0.032,0.171,0.032,0.263c0,0.116-0.016,0.227-0.046,0.328c-0.089,0.303-0.298,0.515-0.541,0.515
			c-0.031,0-0.06-0.006-0.089-0.013c-0.077,0.372-0.197,0.721-0.353,1.036c-0.156,0.315-0.348,0.597-0.568,0.836
			c-0.147,0.159-0.307,0.299-0.477,0.416l0.054,0.867l0,0.006c0,0.001,0,0.002,0,0.002l0,0.007h0.004l0-0.001
			c0.001,0,0.002,0.001,0.003,0.001h0.004l0,0.001c0.02,0.003,0.04,0.012,0.059,0.02c0.224,0.094,0.441,0.211,0.657,0.322
			l0.365,0.188l2.11,1.07l0.16,0.08l0.005,0.003c0.582-0.394,0.862-0.848,0.611-1.258c-0.418-0.684-0.591-2.105-0.852-3.507
			c-0.217-1.703-0.769-3.263-0.975-4.047c-0.314-1.193-1.24-2.612-3.498-2.687c-1.668,0-3.051,1.13-3.33,2.284
			c-0.41,1.123-1.448,4.585,0.146,7.364c0.165,0.287,0.366,0.53,0.591,0.74l0.082-0.041L27.153,21.981z"/><polygon style="fill:#000D6E" points="27.523,21.801 27.523,21.798 27.523,21.801 		"/><path style="fill:#FFACA6" d="M27.575,24.72c0,0.002,0.001,0.005,0.001,0.008c0,0,0.001,0.001,0.001,0.001
			c-0.001-0.006-0.001-0.012-0.002-0.018v0.006V24.72z"/><polygon style="fill:#94E3D4" points="30.298,21.819 30.303,21.821 30.302,21.819 		"/><path style="fill:#B8B2FF" d="M30.257,24.469c0.008-0.092,0.019-0.182,0.026-0.274c0.001-0.014,0.002-0.028,0.003-0.043
			c0.008-0.143,0.013-0.285,0.021-0.428c0.002-0.038,0.004-0.077,0.006-0.115c0.014-0.217,0.013-0.438,0.021-0.656
			c0.007-0.213,0.007-0.426-0.004-0.638c-0.002-0.037-0.031-0.491-0.035-0.495h-0.004l0-0.007c0,0,0-0.001,0-0.002
			c0-0.003-0.001-0.006-0.001-0.006l0.001,0l-0.054-0.867c0.17-0.118,0.33-0.257,0.477-0.416c0.22-0.239,0.412-0.52,0.568-0.836
			c0.156-0.315,0.276-0.664,0.353-1.036h0c0.029,0.006,0.059,0.013,0.089,0.013c0.243,0,0.452-0.212,0.541-0.515
			c0.03-0.101,0.046-0.212,0.046-0.328c0-0.109-0.017-0.212-0.043-0.308c-0.009-0.032-0.023-0.057-0.034-0.087
			c-0.023-0.06-0.047-0.117-0.078-0.167c-0.019-0.029-0.04-0.052-0.061-0.077c-0.032-0.039-0.067-0.074-0.105-0.102
			c-0.026-0.02-0.053-0.034-0.081-0.047c-0.057-0.028-0.116-0.053-0.179-0.054c0-0.073-0.003-0.352-0.003-0.408
			c-0.062-0.03-0.229-0.111-0.464-0.225c-0.256-0.125-0.591-0.289-0.957-0.47c-0.366-0.181-0.763-0.379-1.142-0.572
			c-0.245-0.125-0.483-0.247-0.7-0.361c-0.172-0.09-0.334-0.148-0.491-0.192c-0.021-0.006-0.042-0.01-0.063-0.015
			c-0.795-0.198-1.393,0.12-1.779,0.306c-0.008,0.043-0.015,0.121-0.018,0.192c-0.004,0.071-0.005,0.135-0.005,0.148
			c0.002,0.24,0.008,1.007,0.012,1.596c-0.001,0-0.001,0-0.002,0c-0.255,0-0.467,0.237-0.548,0.564
			c-0.022,0.088-0.039,0.179-0.039,0.278c0,0.001,0,0.001,0,0.002c0,0.349,0.148,0.649,0.359,0.777
			c0.07,0.043,0.147,0.066,0.228,0.066c0.036,0,0.072-0.006,0.106-0.015v0c0.199,0.97,0.693,1.781,1.349,2.256l0.001,0.059
			l-0.052,0.828l0.001,0c0,0-0.001,0.005-0.001,0.009l0,0.002l0.002-0.001c0,0-0.002,0.012-0.002,0.014l0,0.006c0,0,0,0-0.001,0.001
			v0c0,0.002-0.001,0.011-0.001,0.013h-0.003c-0.001,0.005,0,0.005-0.003,0.015c-0.008,0.048-0.015,0.142-0.018,0.257
			c-0.001,0.029-0.003,0.051-0.003,0.083c-0.004,0.067-0.008,0.148-0.011,0.233c-0.001,0.023-0.002,0.047-0.002,0.071
			c-0.002,0.057-0.002,0.122-0.003,0.187c-0.001,0.117,0,0.246,0.002,0.387c0.001,0.038,0.001,0.072,0.002,0.111
			c0.004,0.146,0.01,0.305,0.019,0.475c0.001,0.023,0.001,0.042,0.003,0.066c0.004,0.108,0.012,0.224,0.02,0.341
			c0.007,0.093,0.013,0.19,0.021,0.289c0.009,0.111,0.018,0.22,0.028,0.339c0,0.001,0,0.001,0,0.002v0.009
			c0.324,0.376,0.797,0.619,1.332,0.619c0.534,0,1.005-0.243,1.329-0.616c0-0.004,0.001-0.007,0.001-0.011
			C30.244,24.615,30.252,24.54,30.257,24.469z"/><path style="fill:#6C2273" d="M15.98,25.577c0-0.77,0.334-1.242,0.943-1.568v-0.006l-4.027-2.153l-0.001-0.001
			c0,0,0.013,0.12,0.028,0.325c0.007,0.104,0.015,0.224,0.022,0.375c0.018,0.42,0.024,1.032-0.014,1.773
			c-0.005,0.106-0.009,0.206-0.016,0.318c-0.006,0.057-0.009,0.122-0.011,0.184c-0.002,0.046-0.004,0.089-0.009,0.136
			c0,0.03-0.01,0.06-0.01,0.09c-0.01,0.18-0.03,0.36-0.05,0.55c-0.13,1.28-0.26,2.01-0.35,2.4h3.747v0H15.98V25.577z"/><path style="fill:#6C2273" d="M27.574,24.688c-0.01-0.12-0.019-0.228-0.028-0.339c-0.008-0.099-0.015-0.196-0.021-0.289
			c-0.008-0.116-0.017-0.233-0.02-0.341c-0.001-0.023-0.002-0.042-0.003-0.066c-0.009-0.17-0.015-0.329-0.019-0.475
			c-0.001-0.04-0.001-0.073-0.002-0.111c-0.003-0.141-0.003-0.27-0.002-0.387c0.001-0.064,0.001-0.13,0.003-0.187
			c0.001-0.025,0.001-0.048,0.002-0.071c0.003-0.086,0.006-0.166,0.011-0.233c0-0.032,0.002-0.055,0.003-0.083
			c0.003-0.115,0.01-0.209,0.018-0.257c0.003-0.01,0.002-0.01,0.003-0.015c0.001-0.008,0.003-0.018,0.004-0.023v0
			c0-0.002,0.001-0.006,0.001-0.007c0-0.001,0-0.002,0.001-0.003c0-0.001,0-0.001,0-0.002c0.001-0.004,0.001-0.009,0.001-0.009
			l-0.001,0l0,0l-0.001,0l-0.37,0.19l-0.719,0.369l-0.082,0.041l-2.292,1.156v0.442c0.632,0.327,0.979,0.803,0.979,1.589V28h2.981
			c-0.143-0.849-0.282-1.821-0.356-2.438c-0.007-0.058-0.015-0.12-0.022-0.176c0-0.004-0.001-0.007-0.001-0.01
			c-0.026-0.227-0.049-0.443-0.067-0.647c0-0.002-0.001-0.005-0.001-0.008v-0.003v-0.006v-0.01v-0.002V24.69
			C27.574,24.689,27.574,24.689,27.574,24.688z"/><path style="fill:#000D6E" d="M17.85,23.657l1.426-0.331l0.001,0l0-0.021l0.038-0.893c-0.352-0.222-0.65-0.536-0.873-0.916
			c-0.009-0.015-0.02-0.028-0.029-0.043c-0.004-0.008-0.007-0.017-0.012-0.025c-0.069-0.125-0.131-0.256-0.182-0.395
			c-0.061,0.036-0.128,0.057-0.198,0.057c-0.109,0-0.204-0.059-0.287-0.142c-0.002-0.002-0.005-0.003-0.007-0.006
			c-0.136-0.136-0.229-0.35-0.229-0.604c0-0.206,0.058-0.394,0.153-0.53c0.095-0.136,0.226-0.221,0.373-0.221
			c0-0.071,0-0.15,0-0.232c-0.002-0.232-0.004-0.488-0.006-0.71c0-0.002,0-0.005,0-0.007c-0.001-0.12-0.002-0.233-0.003-0.319
			l0.003-0.003l0.011-0.011c0.414-0.198,1.113-0.605,2.081-0.097c0.826,0.434,2.222,0.853,2.896,1.048c0.001,0,0.001,0,0.002,0.001
			c0.001,0.12,0.002,0.237,0.003,0.337c0.133,0.002,0.25,0.081,0.342,0.199c0.106,0.137,0.176,0.329,0.176,0.547
			c0,0.266-0.102,0.49-0.249,0.623c-0.081,0.074-0.172,0.128-0.275,0.128c-0.001,0-0.001-0.001-0.002-0.001c0,0-0.001,0-0.001,0
			c-0.004,0-0.007-0.003-0.011-0.003c-0.059-0.003-0.115-0.02-0.168-0.049c-0.042,0.112-0.096,0.216-0.151,0.32
			c-0.166,0.321-0.383,0.603-0.644,0.827c-0.107,0.092-0.22,0.177-0.339,0.25l0.038,0.533l0.015,0.225v0.085v0.035v0.015
			c0,0,0.001-0.001,0.001-0.001l1.429,0.332c0.343,0.091,0.638,0.201,0.891,0.331v-0.442V19.76c0-0.11-0.017-0.214-0.025-0.322
			c0,0,0,0,0,0c-0.029-0.427-0.108-0.832-0.24-1.205c-0.014-0.04-0.032-0.075-0.047-0.114c-0.056-0.144-0.111-0.288-0.18-0.421
			c-0.091-0.177-0.192-0.344-0.304-0.498c-0.013-0.025-0.031-0.049-0.047-0.073c-0.018-0.028-0.035-0.056-0.053-0.083
			c-0.486-0.757-1.475-1.378-2.627-1.378c-0.029,0-0.054,0.008-0.083,0.009c-0.394,0.011-0.765,0.095-1.104,0.231
			c-0.441,0.177-0.829,0.433-1.125,0.743c-0.171,0.145-0.326,0.316-0.469,0.502c-0.011,0.014-0.023,0.027-0.033,0.041
			c-0.139,0.187-0.26,0.395-0.367,0.617c-0.007,0.015-0.015,0.029-0.022,0.044c-0.089,0.19-0.155,0.398-0.216,0.609
			c-0.012,0.043-0.032,0.08-0.044,0.123c-0.002,0.008-0.004,0.015-0.006,0.023c-0.034,0.133-0.044,0.278-0.066,0.417
			c-0.022,0.138-0.056,0.271-0.065,0.415c0,0,0,0,0,0c-0.007,0.107-0.016,0.213-0.016,0.322v1.179v3.065v0.006
			C17.183,23.869,17.49,23.753,17.85,23.657z"/><path style="fill:#B8B2FF" d="M24.061,23.989c-0.253-0.131-0.548-0.24-0.891-0.331l-1.429-0.332c0,0-0.001,0.001-0.001,0.001
			v-0.015v-0.035v-0.085l-0.015-0.225l-0.038-0.533c0.119-0.073,0.232-0.157,0.339-0.25c0.261-0.224,0.477-0.506,0.644-0.827
			c0.054-0.104,0.108-0.208,0.151-0.32c0,0,0,0,0,0c0.049,0.028,0.111,0.046,0.168,0.049c0.004,0,0.007,0.003,0.011,0.003
			c0,0,0.001,0,0.001,0c0.104,0,0.195-0.054,0.277-0.128c0.147-0.134,0.249-0.357,0.249-0.623c0-0.217-0.07-0.41-0.176-0.547
			c-0.092-0.118-0.21-0.197-0.342-0.197c-0.001-0.101-0.003-0.219-0.004-0.34c-0.674-0.195-2.07-0.613-2.896-1.048
			c-0.968-0.508-1.667-0.101-2.081,0.097l-0.011,0.011c0.001,0.086,0.001,0.2,0.002,0.322c0,0.002,0,0.003,0,0.005
			c0.001,0.222,0.003,0.479,0.004,0.712c0,0.082,0,0.161,0,0.232c-0.146,0-0.278,0.085-0.373,0.221
			c-0.095,0.136-0.153,0.324-0.153,0.53c0,0.254,0.094,0.468,0.229,0.604c0.002,0.002,0.005,0.003,0.007,0.006
			c0.083,0.082,0.179,0.141,0.289,0.141c0.068,0,0.135-0.023,0.195-0.06c0.051,0.14,0.114,0.272,0.183,0.398
			c0.004,0.008,0.007,0.017,0.012,0.025c0.009,0.015,0.02,0.028,0.029,0.043c0.222,0.379,0.521,0.694,0.873,0.916l-0.038,0.893
			l0,0.021l-0.001,0l-1.426,0.331c-0.36,0.096-0.667,0.212-0.927,0.352c-0.608,0.326-0.943,0.799-0.943,1.568V28h0.251h8.743h0.065
			v-2.423C25.04,24.792,24.693,24.315,24.061,23.989z"/><path style="fill:#6C2273" d="M30.153,25.515c-0.04,0.376-0.092,0.778-0.163,1.22c-0.01,0.061-0.015,0.113-0.026,0.175
			c-0.022,0.179-0.06,0.378-0.092,0.568C29.86,27.556,29.82,27.776,29.78,28h6.183l-0.299-2.61c-0.07-0.59-0.43-1.1-0.96-1.36
			l-1.045-0.527L33.655,23.5l-0.16-0.08l-2.11-1.07l-0.365-0.188c-0.216-0.111-0.433-0.228-0.657-0.322
			c-0.019-0.008-0.039-0.016-0.059-0.02c-0.001,0-0.003-0.001-0.004-0.001c-0.001,0-0.002-0.001-0.003-0.001l0,0.001
			c0.004,0.004,0.033,0.457,0.035,0.495c0.011,0.213,0.011,0.425,0.004,0.638c-0.008,0.218-0.007,0.439-0.021,0.656
			c-0.002,0.038-0.004,0.077-0.006,0.115c-0.008,0.143-0.013,0.286-0.021,0.428c-0.001,0.014-0.002,0.028-0.003,0.043
			c-0.007,0.092-0.019,0.183-0.026,0.274c-0.006,0.072-0.013,0.147-0.021,0.222c0,0.004-0.001,0.007-0.001,0.011
			c-0.011,0.11-0.015,0.209-0.031,0.328C30.191,25.182,30.17,25.352,30.153,25.515z"/></g><path style="fill:#6C2273" d="M23.38,28v-4.283c-0.07-0.02-0.14-0.04-0.21-0.06l-1.43-0.33c-0.27,0.4-0.71,0.66-1.23,0.66
		s-0.96-0.26-1.23-0.66l-1.43,0.33c-0.07,0.02-0.14,0.04-0.21,0.06V28H23.38z"/></g><g id="Guides" style="display:none"/><g id="Grid" style="display:none"><g style="display:inline"><g/><g/><g/><g/><g/><g/><g/><g/><g/><g/><g/><g/><g/><g/><g/><g/><g/><g/><g/><g/><g/><g/><g/><g/><g/><g/><g/><g/><g/><g/><g/><g/><g/><g/><g/><g/><g/><g/><g/><g/></g></g></svg>