<?xml version="1.0" encoding="iso-8859-1"?><!--Generator: Adobe Illustrator 26.3.1, SVG Export Plug-In . SVG Version: 6.00 Build 0)--><svg version="1.1" xmlns="http://www.w3.org/2000/svg" xmlns:xlink="http://www.w3.org/1999/xlink" x="0px" y="0px" viewBox="0 0 40 40" xml:space="preserve" focusable="false" aria-hidden="true" enable-background="new 0 0 40 40"><g id="Solid"><rect width="40" height="40" fill="none"/></g><g id="Icon_Green"><g><path d="M9.734,9.971L6.058,9.472C5.792,9.43,5.522,9.512,5.32,9.687C5.117,9.863,5,10.118,5,10.387v9.138
			c0,0.504,0.411,0.919,0.915,0.925l2.358,0.024c0.479,0.005,0.856-0.333,0.925-0.786l1.316-8.663
			c0.037-0.245-0.023-0.49-0.171-0.689S9.979,10.006,9.734,9.971z" fill="#1B5951"/><path d="M34.68,11.394c-0.203-0.176-0.472-0.258-0.738-0.216l-3.676,0.499
			c-0.246,0.035-0.462,0.165-0.61,0.364s-0.208,0.444-0.171,0.689l1.316,8.663c0.069,0.453,0.446,0.791,0.925,0.786l2.358-0.024
			C34.589,22.15,35,21.735,35,21.231v-9.138C35,11.825,34.883,11.57,34.68,11.394z" fill="#1B5951"/></g><path d="M28.49,12.881" fill="#6C2273" stroke="#000000" stroke-miterlimit="10"/><g><path d="M21.404,15.561l-3.372,1.792c-0.437,0.234-1.042,0.4-1.663,0.4c-0.765,0-1.555-0.252-2.084-0.938
			c-0.444-0.575-0.638-1.29-0.545-2.013s0.461-1.365,1.036-1.809l1.276-0.985l-4.639-0.193l-1.076,7.08l8.592,8.087l0.575,0.575
			c0.467,0.467,1.23,0.467,1.697,0l0.071-0.071c0.412-0.412,0.439-1.044,0.124-1.51l0.047-0.028l0.5,0.5
			c0.467,0.467,1.23,0.467,1.697,0l0.071-0.071c0.467-0.467,0.467-1.23,0-1.697l0.771,0.771c0.467,0.467,1.23,0.467,1.697,0
			l0.071-0.071c0.467-0.467,0.467-1.23,0-1.697l-0.38-0.38h0l0.773,0.773c0.467,0.467,1.23,0.467,1.697,0l0.071-0.071
			c0.436-0.436,0.448-1.123,0.069-1.593L21.404,15.561z" fill="#94E3D4"/><path d="M15.077,16.205c0.596,0.771,1.836,0.614,2.486,0.266l3.996-2.124l0.178,0.171l3.346,3.217l0-0.001
			l3.642,3.529c0.178,0.003,0.827-0.064,1.001-0.092l-1.185-7.877c-2.041-0.849-7.475-3.25-7.801-3.262s-0.554,0.082-1.228,0.569
			l-4.125,3.185C14.635,14.367,14.496,15.453,15.077,16.205z" fill="#94E3D4"/></g><g><circle cx="32" cy="32" r="6" fill="#94E3D4"/></g><g><path d="M32.003,34.282l-2.096,1.102c-0.16,0.084-0.346-0.052-0.316-0.23l0.4-2.334l-1.696-1.653
			c-0.129-0.126-0.058-0.345,0.121-0.371l2.344-0.341l1.048-2.124c0.08-0.162,0.311-0.162,0.391,0l1.048,2.124l2.333,0.339
			c0.183,0.027,0.256,0.251,0.124,0.38l-1.688,1.646l0.4,2.334c0.031,0.178-0.156,0.314-0.316,0.23L32.003,34.282z" fill="#000D6E"/></g></g></svg>