<?xml version="1.0" encoding="iso-8859-1"?><!--Generator: Adobe Illustrator 26.2.1, SVG Export Plug-In . SVG Version: 6.00 Build 0)--><svg version="1.1" xmlns="http://www.w3.org/2000/svg" xmlns:xlink="http://www.w3.org/1999/xlink" x="0px" y="0px" viewBox="0 0 40 40" style="enable-background:new 0 0 40 40" xml:space="preserve" focusable="false" aria-hidden="true"><g id="Solid"><rect style="fill:none" width="40" height="40"/></g><g id="Icon_Red"><g><path style="fill:#FFACA6" d="M5.921,22.854c0-0.535-0.42-0.968-0.94-0.968c0,0-0.94,0.484-0.94,1.927c0,0,0.42,0,0.94,0
			C5.501,23.812,5.921,23.378,5.921,22.854z"/><g><path style="fill:#FFACA6" d="M11.041,24c-1.657,0-3,1.343-3,3s1.343,3,3,3s3-1.343,3-3S12.698,24,11.041,24z M11.041,28.5
				c-0.828,0-1.5-0.672-1.5-1.5s0.672-1.5,1.5-1.5s1.5,0.672,1.5,1.5S11.87,28.5,11.041,28.5z"/></g><g><path style="fill:#000D6E" d="M11.041,25.5c-0.828,0-1.5,0.672-1.5,1.5s0.672,1.5,1.5,1.5s1.5-0.672,1.5-1.5
				S11.87,25.5,11.041,25.5z"/></g><g><path style="fill:#FFACA6" d="M31.041,24c-1.657,0-3,1.343-3,3s1.343,3,3,3c1.657,0,3-1.343,3-3S32.698,24,31.041,24z
				 M31.041,28.5c-0.828,0-1.5-0.672-1.5-1.5s0.672-1.5,1.5-1.5s1.5,0.672,1.5,1.5S31.87,28.5,31.041,28.5z"/></g><path style="fill:#D9304C" d="M36.202,21.028h-2.709c-0.28,0-0.5-0.222-0.5-0.504c0-0.282,0.22-0.504,0.5-0.504h2.539v-0.01
			c0-0.555-0.45-1.009-1-1.009H23.835H10.629l-5.648,2.885c0.52,0,0.94,0.434,0.94,0.968c0,0.525-0.42,0.958-0.94,0.958
			c-0.52,0-0.94,0-0.94,0v2.179c0,0.555,0.45,1.009,1,1.009H7.02h0.021c0-2.206,1.794-4,4-4s4,1.794,4,4h8.479h3.454h0.067
			c0-2.206,1.794-4,4-4s4,1.794,4,4h1.1c0.5,0,0.9-0.404,0.9-0.908L36.202,21.028z M19.563,20.998h-1.999
			c-0.276,0-0.5-0.226-0.5-0.504s0.224-0.504,0.5-0.504h1.999c0.276,0,0.5,0.226,0.5,0.504S19.839,20.998,19.563,20.998z
			 M30.614,20.998h-1.999c-0.276,0-0.5-0.226-0.5-0.504s0.224-0.504,0.5-0.504h1.999c0.276,0,0.5,0.226,0.5,0.504
			S30.891,20.998,30.614,20.998z"/><g><path style="fill:#000D6E" d="M31.041,25.5c-0.828,0-1.5,0.672-1.5,1.5s0.672,1.5,1.5,1.5s1.5-0.672,1.5-1.5
				S31.87,25.5,31.041,25.5z"/></g><path style="fill:#FFACA6" d="M32.993,20.523c0,0.282,0.22,0.504,0.5,0.504h2.709l-0.17-1.009h-2.539
			C33.213,20.019,32.993,20.241,32.993,20.523z"/><path style="fill:#FFACA6" d="M15.871,15.62c0.5-0.42,1.14-0.65,1.79-0.65h12.07l1.51,3.03h1.75l-1.78-3.49
			c-0.02-0.05-0.05-0.09-0.08-0.13c-0.01-0.02-0.02-0.04-0.03-0.05c-0.13-0.18-0.3-0.33-0.5-0.36c-0.06-0.01-0.23,0-0.23,0h-12.71
			c-0.89,0-1.75,0.31-2.44,0.89L11.661,18h1.52L15.871,15.62z"/><path style="fill:#FFACA6" d="M19.563,19.99h-1.999c-0.276,0-0.5,0.226-0.5,0.504s0.224,0.504,0.5,0.504h1.999
			c0.276,0,0.5-0.226,0.5-0.504S19.839,19.99,19.563,19.99z"/><path style="fill:#FFACA6" d="M30.614,19.99h-1.999c-0.276,0-0.5,0.226-0.5,0.504s0.224,0.504,0.5,0.504h1.999
			c0.276,0,0.5-0.226,0.5-0.504S30.891,19.99,30.614,19.99z"/></g></g><g id="Guides" style="display:none"/><g id="Grid" style="display:none"><g style="display:inline"><g/><g/><g/><g/><g/><g/><g/><g/><g/><g/><g/><g/><g/><g/><g/><g/><g/><g/><g/><g/><g/><g/><g/><g/><g/><g/><g/><g/><g/><g/><g/><g/><g/><g/><g/><g/><g/><g/><g/><g/></g></g></svg>