<?xml version="1.0" encoding="iso-8859-1"?><!--Generator: Adobe Illustrator 26.2.1, SVG Export Plug-In . SVG Version: 6.00 Build 0)--><svg version="1.1" xmlns="http://www.w3.org/2000/svg" xmlns:xlink="http://www.w3.org/1999/xlink" x="0px" y="0px" viewBox="0 0 40 40" style="enable-background:new 0 0 40 40" xml:space="preserve" focusable="false" aria-hidden="true"><g id="Solid"><rect style="fill:none" width="40" height="40"/></g><g id="Icon_Tangerine"><g><path style="fill:#FAE052" d="M27.067,3.229c-4.558-1.638-9.578-1.638-14.135,0L5,6.079v15.816C5,29.52,14.491,36.989,20.002,37
			C25.51,36.989,35,29.52,35,21.894V6.079L27.067,3.229z"/></g><g><path style="fill:#000D6E" d="M20.002,23.915l-4.447,2.338c-0.339,0.178-0.735-0.11-0.67-0.487l0.849-4.952l-3.598-3.507
			c-0.274-0.267-0.123-0.733,0.256-0.788l4.972-0.723l2.224-4.506c0.169-0.343,0.659-0.343,0.828,0l2.224,4.506l4.95,0.719
			c0.388,0.056,0.543,0.533,0.262,0.807l-3.582,3.491l0.849,4.952c0.065,0.377-0.331,0.665-0.67,0.487L20.002,23.915z"/></g></g><g id="Guides" style="display:none"/><g id="Grid" style="display:none"><g style="display:inline"><g/><g/><g/><g/><g/><g/><g/><g/><g/><g/><g/><g/><g/><g/><g/><g/><g/><g/><g/><g/><g/><g/><g/><g/><g/><g/><g/><g/><g/><g/><g/><g/><g/><g/><g/><g/><g/><g/><g/><g/></g></g></svg>