<?xml version="1.0" encoding="iso-8859-1"?><!--Generator: Adobe Illustrator 26.2.1, SVG Export Plug-In . SVG Version: 6.00 Build 0)--><svg version="1.1" xmlns="http://www.w3.org/2000/svg" xmlns:xlink="http://www.w3.org/1999/xlink" x="0px" y="0px" viewBox="0 0 40 40" style="enable-background:new 0 0 40 40" xml:space="preserve" focusable="false" aria-hidden="true"><g id="Solid"><rect style="fill:none" width="40" height="40"/></g><g id="Icon_Purple"><path style="fill:none" d="M20.005,15.037l-4.273,4.256L20,15.042l4.268,4.251c0.197,0.197,0.456,0.293,0.715,0.292
		c-0.255-0.001-0.51-0.098-0.705-0.292L20.005,15.037z"/><path style="fill:#B8B2FF" d="M26.756,7.164C26.858,6.555,26.388,6,25.77,6H14.13c-0.618,0-1.088,0.555-0.986,1.164L13.95,12h12
		L26.756,7.164z"/><path style="fill:#6C2273" d="M14.313,19.293c0.392,0.391,1.028,0.391,1.42,0l4.273-4.256l4.272,4.256
		c0.195,0.194,0.45,0.291,0.705,0.292c0.259,0.001,0.518-0.095,0.715-0.292c0.392-0.391,0.392-1.024,0-1.414l-2.893-2.882l-1-0.996
		h4.146v-2h-12v2h4.256l-3.894,3.879C13.921,18.269,13.921,18.902,14.313,19.293z"/><path style="fill:#B8B2FF" d="M25.953,14.998c-0.699-0.001-1.831-0.001-3.149-0.002l2.893,2.882c0.392,0.391,0.392,1.024,0,1.414
		c-0.197,0.197-0.456,0.293-0.715,0.292c-0.259,0.001-0.518-0.095-0.715-0.292L20,15.042l-4.268,4.251
		c-0.392,0.391-1.028,0.391-1.42,0c-0.392-0.391-0.392-1.024,0-1.414l2.893-2.882c-1.322,0-2.458,0.001-3.159,0.002
		c-0.447,0-9.543,12.999-3.872,18.553C11.059,34.417,12.236,35,13.563,35H20h6.437c1.327,0,2.503-0.583,3.388-1.449
		C35.495,27.997,26.399,14.999,25.953,14.998z"/><g><path style="fill:#000D6E" d="M20.004,30.558l-2.621,1.378c-0.2,0.105-0.433-0.065-0.395-0.287l0.5-2.918l-2.12-2.067
			c-0.162-0.157-0.072-0.432,0.151-0.464l2.93-0.426l1.31-2.655c0.1-0.202,0.388-0.202,0.488,0l1.31,2.655l2.917,0.424
			c0.229,0.033,0.32,0.314,0.155,0.476l-2.11,2.057l0.5,2.918c0.038,0.222-0.195,0.392-0.395,0.287L20.004,30.558z"/></g></g><g id="Guides" style="display:none"/><g id="Grid" style="display:none"><g style="display:inline"><g/><g/><g/><g/><g/><g/><g/><g/><g/><g/><g/><g/><g/><g/><g/><g/><g/><g/><g/><g/><g/><g/><g/><g/><g/><g/><g/><g/><g/><g/><g/><g/><g/><g/><g/><g/><g/><g/><g/><g/></g></g></svg>