<?xml version="1.0" encoding="UTF-8"?><svg xmlns="http://www.w3.org/2000/svg" viewBox="0 0 40 40" focusable="false" aria-hidden="true"><g id="uuid-281d1f1b-814f-4a69-a9ce-b4fdf95c6815"><rect width="40" height="40" fill="none"/></g><g id="uuid-8f611f92-0a4d-4480-b590-d84b17a11357"><g><g><path d="M20.03,33.49c-3.09,0-6.16-1.05-8.63-3.09-.21-.18-.24-.49-.07-.7,.18-.21,.49-.25,.7-.07,3.78,3.12,9.05,3.75,13.44,1.61,.88-.43,1.7-.95,2.44-1.56,.21-.18,.53-.14,.7,.07,.17,.21,.14,.53-.07,.7-.8,.66-1.69,1.23-2.64,1.69-1.87,.91-3.89,1.36-5.89,1.36Z" fill="#000d6e"/><path d="M7,20.81c-.27,0-.49-.22-.5-.49-.13-5.07,2.55-9.73,6.99-12.16,.24-.13,.55-.04,.68,.2,.13,.24,.04,.55-.2,.68-4.11,2.25-6.59,6.56-6.47,11.26,0,.28-.21,.51-.49,.51h-.01Z" fill="#000d6e"/><path d="M32.96,20.81h-.01c-.28,0-.49-.24-.49-.51,.12-4.7-2.36-9.01-6.47-11.26-.24-.13-.33-.44-.2-.68,.13-.24,.44-.33,.68-.2,4.44,2.43,7.12,7.09,6.99,12.16,0,.27-.23,.49-.5,.49Z" fill="#000d6e"/><path d="M6.5,22c-2.48,0-4.5,2.01-4.5,4.5,0,1.2,.47,2.28,1.24,3.09,.07-.21,.23-.39,.43-.49l2.09-1.09h.03v-.45c-.34-.23-.6-.64-.7-1.13-.02,0-.04,.01-.06,.01-.17,0-.3-.19-.3-.42,0-.19,.09-.35,.22-.4v-.92c0-.63,.62-1.31,1.53-1.31s1.5,.78,1.53,1.09c.01,.15,0,.45,0,.74v.4c.12,.05,.22,.21,.22,.4,0,.23-.14,.42-.3,.42-.01,0-.03,0-.04,0-.1,.49-.37,.89-.72,1.13v.43l2.18,1.1c.2,.1,.35,.28,.43,.48,.76-.8,1.23-1.89,1.23-3.08,0-2.49-2.02-4.5-4.5-4.5Z" fill="#1b5951"/><path d="M20,3c-2.48,0-4.5,2.01-4.5,4.5,0,1.2,.47,2.28,1.24,3.09,.07-.21,.23-.39,.43-.49l2.09-1.09h.03v-.45c-.34-.23-.6-.64-.7-1.13-.02,0-.04,.01-.06,.01-.17,0-.3-.19-.3-.42,0-.19,.09-.35,.22-.4v-.92c0-.63,.62-1.31,1.53-1.31s1.5,.78,1.53,1.09c.01,.15,0,.45,0,.74v.4c.12,.05,.22,.21,.22,.4,0,.23-.14,.42-.3,.42-.01,0-.03,0-.04,0-.1,.49-.37,.89-.72,1.13v.43l2.18,1.1c.2,.1,.35,.28,.43,.48,.76-.8,1.23-1.89,1.23-3.08,0-2.49-2.02-4.5-4.5-4.5Z" fill="#1b5951"/><path d="M33.5,22c-2.48,0-4.5,2.01-4.5,4.5,0,1.2,.47,2.28,1.24,3.09,.07-.21,.23-.39,.43-.49l2.09-1.09h.03v-.45c-.34-.23-.6-.64-.7-1.13-.02,0-.04,.01-.06,.01-.17,0-.3-.19-.3-.42,0-.19,.09-.35,.22-.4v-.92c0-.63,.62-1.31,1.53-1.31s1.5,.78,1.53,1.09c.01,.15,0,.45,0,.74v.4c.12,.05,.22,.21,.22,.4,0,.23-.14,.42-.3,.42-.01,0-.03,0-.04,0-.1,.49-.37,.89-.72,1.13v.43l2.18,1.1c.2,.1,.35,.28,.43,.48,.76-.8,1.23-1.89,1.23-3.08,0-2.49-2.02-4.5-4.5-4.5Z" fill="#1b5951"/></g><path d="M9.77,29.58c-.82,.87-1.98,1.42-3.27,1.42s-2.45-.54-3.26-1.41c.07-.21,.23-.39,.43-.49l2.09-1.09h.03v-.45c-.34-.23-.6-.64-.7-1.13-.02,0-.04,.01-.06,.01-.17,0-.3-.19-.3-.42,0-.19,.09-.35,.22-.4v-.92c0-.63,.62-1.31,1.53-1.31s1.5,.78,1.53,1.09c.01,.15,0,.45,0,.74v.4c.12,.05,.22,.21,.22,.4,0,.23-.14,.42-.3,.42-.01,0-.03,0-.04,0-.1,.49-.37,.89-.72,1.13v.43l2.18,1.1c.2,.1,.35,.28,.43,.48Z" fill="#94e3d4"/><path d="M36.77,29.58c-.82,.87-1.98,1.42-3.27,1.42s-2.45-.54-3.26-1.41c.07-.21,.23-.39,.43-.49l2.09-1.09h.03v-.45c-.34-.23-.6-.64-.7-1.13-.02,0-.04,.01-.06,.01-.17,0-.3-.19-.3-.42,0-.19,.09-.35,.22-.4v-.92c0-.63,.62-1.31,1.53-1.31s1.5,.78,1.53,1.09c.01,.15,0,.45,0,.74v.4c.12,.05,.22,.21,.22,.4,0,.23-.14,.42-.3,.42-.01,0-.03,0-.04,0-.1,.49-.37,.89-.72,1.13v.43l2.18,1.1c.2,.1,.35,.28,.43,.48Z" fill="#94e3d4"/><path d="M23.27,10.58c-.82,.87-1.98,1.42-3.27,1.42s-2.45-.54-3.26-1.41c.07-.21,.23-.39,.43-.49l2.09-1.09h.03v-.45c-.34-.23-.6-.64-.7-1.13-.02,0-.04,.01-.06,.01-.17,0-.3-.19-.3-.42,0-.19,.09-.35,.22-.4v-.92c0-.63,.62-1.31,1.53-1.31s1.5,.78,1.53,1.09c.01,.15,0,.45,0,.74v.4c.12,.05,.22,.21,.22,.4,0,.23-.14,.42-.3,.42-.01,0-.03,0-.04,0-.1,.49-.37,.89-.72,1.13v.43l2.18,1.1c.2,.1,.35,.28,.43,.48Z" fill="#94e3d4"/><g><circle cx="20" cy="20.61" r="6" fill="#000d6e"/><path d="M19.15,23.37c-.17-.03-.27-.06-.36-.15l-2.12-2.2c-.19-.2-.19-.51,.01-.71,.2-.19,.52-.19,.71,.01l1.76,1.83,3.91-3.91c.2-.2,.51-.2,.71,0s.2,.51,0,.71l-4.27,4.27c-.09,.09-.22,.15-.35,.15Z" fill="#fff"/></g></g></g></svg>