<?xml version="1.0" encoding="UTF-8"?><svg xmlns="http://www.w3.org/2000/svg" viewBox="0 0 40 40" focusable="false" aria-hidden="true"><defs><style>.uuid-f6f9f95c-1741-4262-9368-0714819dba9e{fill:none;}.uuid-ab7218ae-549b-4c97-be07-c7da8faeba35{fill:#000d6e;}.uuid-148520a3-2949-4ac6-b5e3-c35b30cc443b{fill:#ffaca6;}.uuid-419969bd-268f-41f7-a7f0-0ea77ce633ac{fill:#d9304c;}</style></defs><g id="uuid-8508a4d7-212e-4209-b2fd-5ec5e73643f6"><rect class="uuid-f6f9f95c-1741-4262-9368-0714819dba9e" width="40" height="40"/></g><g id="uuid-1f77ffd6-027c-4966-af0f-f54e4330de5f"><g><path class="uuid-ab7218ae-549b-4c97-be07-c7da8faeba35" d="M20.03,33.49c-3.09,0-6.16-1.05-8.63-3.09-.21-.18-.24-.49-.07-.7,.18-.21,.49-.25,.7-.07,3.78,3.12,9.05,3.75,13.44,1.61,.88-.43,1.7-.95,2.44-1.56,.21-.18,.53-.14,.7,.07,.17,.21,.14,.53-.07,.7-.8,.66-1.69,1.23-2.64,1.69-1.87,.91-3.89,1.36-5.89,1.36Z"/><path class="uuid-ab7218ae-549b-4c97-be07-c7da8faeba35" d="M7,20.81c-.27,0-.49-.22-.5-.49-.13-5.07,2.55-9.73,6.99-12.16,.24-.13,.55-.04,.68,.2,.13,.24,.04,.55-.2,.68-4.11,2.25-6.59,6.56-6.47,11.26,0,.28-.21,.51-.49,.51h-.01Z"/><path class="uuid-ab7218ae-549b-4c97-be07-c7da8faeba35" d="M32.96,20.81h-.01c-.28,0-.49-.24-.49-.51,.12-4.7-2.36-9.01-6.47-11.26-.24-.13-.33-.44-.2-.68,.13-.24,.44-.33,.68-.2,4.44,2.43,7.12,7.09,6.99,12.16,0,.27-.23,.49-.5,.49Z"/><g><path class="uuid-419969bd-268f-41f7-a7f0-0ea77ce633ac" d="M11,26.5c0,1.2-.47,2.28-1.23,3.08-.82,.87-1.98,1.42-3.27,1.42s-2.45-.54-3.26-1.41c-.77-.81-1.24-1.89-1.24-3.09,0-2.49,2.02-4.5,4.5-4.5s4.5,2.01,4.5,4.5Z"/><path class="uuid-148520a3-2949-4ac6-b5e3-c35b30cc443b" d="M9.77,29.58c-.82,.87-1.98,1.42-3.27,1.42s-2.45-.54-3.26-1.41c.07-.21,.23-.39,.43-.49l2.09-1.09h.03v-.45c-.34-.23-.6-.64-.7-1.13-.02,0-.04,.01-.06,.01-.17,0-.3-.19-.3-.42,0-.19,.09-.35,.22-.4v-.92c0-.63,.62-1.31,1.53-1.31s1.5,.78,1.53,1.09c.01,.15,0,.45,0,.74v.4c.12,.05,.22,.21,.22,.4,0,.23-.14,.42-.3,.42-.01,0-.03,0-.04,0-.1,.49-.37,.89-.72,1.13v.43l2.18,1.1c.2,.1,.35,.28,.43,.48Z"/></g><g><path class="uuid-419969bd-268f-41f7-a7f0-0ea77ce633ac" d="M24.5,7.5c0,1.2-.47,2.28-1.23,3.08-.82,.87-1.98,1.42-3.27,1.42s-2.45-.54-3.26-1.41c-.77-.81-1.24-1.89-1.24-3.09,0-2.49,2.02-4.5,4.5-4.5s4.5,2.01,4.5,4.5Z"/><path class="uuid-148520a3-2949-4ac6-b5e3-c35b30cc443b" d="M23.27,10.58c-.82,.87-1.98,1.42-3.27,1.42s-2.45-.54-3.26-1.41c.07-.21,.23-.39,.43-.49l2.09-1.09h.03v-.45c-.34-.23-.6-.64-.7-1.13-.02,0-.04,.01-.06,.01-.17,0-.3-.19-.3-.42,0-.19,.09-.35,.22-.4v-.92c0-.63,.62-1.31,1.53-1.31s1.5,.78,1.53,1.09c.01,.15,0,.45,0,.74v.4c.12,.05,.22,.21,.22,.4,0,.23-.14,.42-.3,.42-.01,0-.03,0-.04,0-.1,.49-.37,.89-.72,1.13v.43l2.18,1.1c.2,.1,.35,.28,.43,.48Z"/></g><g><path class="uuid-419969bd-268f-41f7-a7f0-0ea77ce633ac" d="M38,26.5c0,1.2-.47,2.28-1.23,3.08-.82,.87-1.98,1.42-3.27,1.42s-2.45-.54-3.26-1.41c-.77-.81-1.24-1.89-1.24-3.09,0-2.49,2.02-4.5,4.5-4.5s4.5,2.01,4.5,4.5Z"/><path class="uuid-148520a3-2949-4ac6-b5e3-c35b30cc443b" d="M36.77,29.58c-.82,.87-1.98,1.42-3.27,1.42s-2.45-.54-3.26-1.41c.07-.21,.23-.39,.43-.49l2.09-1.09h.03v-.45c-.34-.23-.6-.64-.7-1.13-.02,0-.04,.01-.06,.01-.17,0-.3-.19-.3-.42,0-.19,.09-.35,.22-.4v-.92c0-.63,.62-1.31,1.53-1.31s1.5,.78,1.53,1.09c.01,.15,0,.45,0,.74v.4c.12,.05,.22,.21,.22,.4,0,.23-.14,.42-.3,.42-.01,0-.03,0-.04,0-.1,.49-.37,.89-.72,1.13v.43l2.18,1.1c.2,.1,.35,.28,.43,.48Z"/></g></g></g></svg>