<?xml version="1.0" encoding="iso-8859-1"?><!--Generator: Adobe Illustrator 26.2.1, SVG Export Plug-In . SVG Version: 6.00 Build 0)--><svg version="1.1" xmlns="http://www.w3.org/2000/svg" xmlns:xlink="http://www.w3.org/1999/xlink" x="0px" y="0px" viewBox="0 0 40 40" xml:space="preserve" focusable="false" aria-hidden="true" enable-background="new 0 0 40 40"><g id="Solid"><rect width="40" height="40" fill="none"/></g><g id="Icon_Red"><path d="M37.041,10h-34c-0.552,0-1,0.448-1,1v20c0,0.552,0.448,1,1,1h34c0.552,0,1-0.448,1-1V11
		C38.041,10.448,37.593,10,37.041,10z" fill="#D9304C"/><circle cx="32.5" cy="12.44" r="0.5" fill="none"/><circle cx="34.5" cy="12.44" r="0.5" fill="none"/><path d="M25.181,33H14.819C14.367,33,14,33.367,14,33.819V35h12v-1.181C26,33.367,25.633,33,25.181,33z" fill="#D9304C"/><g><path d="M3.041,11v20h34V11H3.041z M32.5,12.94c-0.276,0-0.5-0.224-0.5-0.5c0-0.276,0.224-0.5,0.5-0.5
			s0.5,0.224,0.5,0.5C33,12.716,32.776,12.94,32.5,12.94z M34.5,12.94c-0.276,0-0.5-0.224-0.5-0.5c0-0.276,0.224-0.5,0.5-0.5
			s0.5,0.224,0.5,0.5C35,12.716,34.776,12.94,34.5,12.94z" fill="#FFACA6"/></g><g><path d="M16.637,16.738c0.925,0.364,1.921,0.579,2.962,0.624V13.39
			C18.358,14.245,17.338,15.395,16.637,16.738z" fill="#000D6E"/><path d="M19.599,20.59v-2.426c-1.164-0.046-2.277-0.287-3.306-0.699c-0.403,0.969-0.636,2.023-0.683,3.125
			H19.599z" fill="#000D6E"/><path d="M28,20.59c-0.086-1.741-0.721-3.335-1.744-4.61c-0.559,0.448-1.169,0.833-1.817,1.154
			c0.448,1.07,0.705,2.237,0.754,3.456H28z" fill="#000D6E"/><path d="M24.391,20.59c-0.048-1.102-0.281-2.156-0.683-3.125c-1.03,0.412-2.143,0.652-3.306,0.699v2.426
			H24.391z" fill="#000D6E"/><path d="M20.401,13.39v3.972c1.041-0.045,2.038-0.26,2.962-0.624C22.662,15.395,21.642,14.245,20.401,13.39
			z" fill="#000D6E"/><path d="M18.661,13.092c-1.704,0.287-3.226,1.105-4.385,2.286c0.503,0.399,1.049,0.744,1.629,1.033
			C16.575,15.113,17.519,13.983,18.661,13.092z" fill="#000D6E"/><path d="M21.339,13.092c1.142,0.892,2.086,2.022,2.756,3.319c0.58-0.289,1.126-0.634,1.629-1.033
			C24.565,14.197,23.043,13.379,21.339,13.092z" fill="#000D6E"/><path d="M15.609,21.392c0.048,1.098,0.279,2.148,0.679,3.114c1.031-0.413,2.145-0.654,3.31-0.7v-2.414
			H15.609z" fill="#000D6E"/><path d="M23.369,25.234c-0.926-0.365-1.924-0.581-2.968-0.626v3.984
			C21.646,27.736,22.667,26.582,23.369,25.234z" fill="#000D6E"/><path d="M21.339,28.891c1.708-0.288,3.232-1.108,4.392-2.294c-0.503-0.401-1.05-0.746-1.63-1.036
			C23.43,26.864,22.484,27.997,21.339,28.891z" fill="#000D6E"/><path d="M14.807,20.59c0.049-1.219,0.306-2.386,0.754-3.456c-0.648-0.322-1.258-0.706-1.817-1.154
			c-1.023,1.275-1.657,2.87-1.744,4.61H14.807z" fill="#000D6E"/><path d="M18.661,28.891c-1.146-0.894-2.091-2.028-2.761-3.329c-0.58,0.29-1.127,0.635-1.63,1.036
			C15.429,27.783,16.954,28.604,18.661,28.891z" fill="#000D6E"/><path d="M25.193,21.392c-0.048,1.215-0.304,2.378-0.75,3.445c0.649,0.322,1.259,0.708,1.819,1.157
			c1.019-1.274,1.652-2.865,1.738-4.603H25.193z" fill="#000D6E"/><path d="M20.401,21.392v2.414c1.165,0.046,2.28,0.287,3.31,0.7c0.4-0.966,0.632-2.016,0.679-3.114H20.401z" fill="#000D6E"/><path d="M12,21.392c0.086,1.737,0.718,3.328,1.738,4.603c0.56-0.449,1.171-0.835,1.819-1.157
			c-0.445-1.068-0.701-2.23-0.75-3.445H12z" fill="#000D6E"/><path d="M19.599,28.592v-3.984c-1.043,0.045-2.041,0.261-2.968,0.626
			C17.333,26.582,18.354,27.736,19.599,28.592z" fill="#000D6E"/></g></g></svg>