<?xml version="1.0" encoding="iso-8859-1"?><!--Generator: Adobe Illustrator 26.2.1, SVG Export Plug-In . SVG Version: 6.00 Build 0)--><svg version="1.1" xmlns="http://www.w3.org/2000/svg" xmlns:xlink="http://www.w3.org/1999/xlink" x="0px" y="0px" viewBox="0 0 40 40" style="enable-background:new 0 0 40 40" xml:space="preserve" focusable="false" aria-hidden="true"><g id="Solid"><rect style="fill:none" width="40" height="40"/></g><g id="Icon_Red"><rect x="3.041" y="11" style="fill:#FAE052" width="34" height="20"/><g><path style="fill:#FFACA6" d="M3.041,31.5c-0.276,0-0.5-0.224-0.5-0.5V11c0-0.276,0.224-0.5,0.5-0.5h34
			c0.276,0,0.5,0.224,0.5,0.5v20c0,0.276-0.224,0.5-0.5,0.5H3.041z"/><path style="fill:#D9304C" d="M37.041,11v20h-34V11H37.041 M37.041,10h-34c-0.552,0-1,0.448-1,1v20c0,0.552,0.448,1,1,1h34
			c0.552,0,1-0.448,1-1V11C38.041,10.448,37.593,10,37.041,10L37.041,10z"/></g><path style="fill:#D9304C" d="M25.181,33H14.819C14.367,33,14,33.367,14,33.819V35h12v-1.181C26,33.367,25.633,33,25.181,33z"/><path style="fill:#D9304C" d="M27.208,20.694V16.32c0-1.289-1.045-2.333-2.333-2.333H20.5v6.708H27.208z"/><path style="fill:#D9304C" d="M20.5,28.403h4.375c1.289,0,2.333-1.045,2.333-2.333v-4.375H20.5V28.403z"/><path style="fill:#D9304C" d="M12.792,21.708v4.375c0,1.289,1.045,2.333,2.333,2.333H19.5v-6.708H12.792z"/><path style="fill:#D9304C" d="M19.5,14h-4.375c-1.289,0-2.333,1.045-2.333,2.333v4.375H19.5V14z"/><g><path style="fill:#000D6E" d="M22.495,24.562h3c0.276,0,0.5-0.224,0.5-0.5s-0.224-0.5-0.5-0.5h-3c-0.276,0-0.5,0.224-0.5,0.5
			S22.219,24.562,22.495,24.562z"/><path style="fill:#000D6E" d="M25.495,25.536h-3c-0.276,0-0.5,0.224-0.5,0.5s0.224,0.5,0.5,0.5h3c0.276,0,0.5-0.224,0.5-0.5
			S25.771,25.536,25.495,25.536z"/></g><g><path style="fill:#FFACA6" d="M15.501,17.854h2c0.276,0,0.5-0.224,0.5-0.5s-0.224-0.5-0.5-0.5h-2c-0.276,0-0.5,0.224-0.5,0.5
			S15.225,17.854,15.501,17.854z"/><path style="fill:#FFACA6" d="M18.001,24.562h-1v-1c0-0.276-0.224-0.5-0.5-0.5s-0.5,0.224-0.5,0.5v1h-1
			c-0.276,0-0.5,0.224-0.5,0.5s0.224,0.5,0.5,0.5h1v1c0,0.276,0.224,0.5,0.5,0.5s0.5-0.224,0.5-0.5v-1h1c0.276,0,0.5-0.224,0.5-0.5
			S18.277,24.562,18.001,24.562z"/><path style="fill:#FFACA6" d="M24.36,17.354l0.707-0.707c0.195-0.195,0.195-0.512,0-0.707s-0.512-0.195-0.707,0l-0.707,0.707
			l-0.707-0.707c-0.195-0.195-0.512-0.195-0.707,0s-0.195,0.512,0,0.707l0.707,0.707l-0.707,0.707c-0.195,0.195-0.195,0.512,0,0.707
			c0.098,0.098,0.226,0.146,0.354,0.146s0.256-0.049,0.354-0.146l0.707-0.707l0.707,0.707c0.098,0.098,0.226,0.146,0.354,0.146
			s0.256-0.049,0.354-0.146c0.195-0.195,0.195-0.512,0-0.707L24.36,17.354z"/></g><circle style="fill:#D9304C" cx="32.5" cy="12.5" r="0.5"/><circle style="fill:#D9304C" cx="34.5" cy="12.5" r="0.5"/></g><g id="Guides" style="display:none"/><g id="Grid" style="display:none"><g style="display:inline"><g/><g/><g/><g/><g/><g/><g/><g/><g/><g/><g/><g/><g/><g/><g/><g/><g/><g/><g/><g/><g/><g/><g/><g/><g/><g/><g/><g/><g/><g/><g/><g/><g/><g/><g/><g/><g/><g/><g/><g/></g></g></svg>