<svg xmlns="http://www.w3.org/2000/svg" viewBox="0 0 40 40" focusable="false" aria-hidden="true"><defs><style>.cls-1{fill:none;}.cls-2{fill:#d9304c;}.cls-3{fill:#ffaca6;}.cls-4{fill:#000d6e;}</style></defs><g id="Solid"><rect class="cls-1" width="40" height="40"/></g><g id="Icon"><path class="cls-2" d="M35,16V15a6,6,0,0,0-6-6H21a6,6,0,0,0-6,6v1a6,6,0,0,0,6,6h6.77l4.78,2.39a1,1,0,0,0,1.28-1.45l-1.37-2.05A6,6,0,0,0,35,16Z"/><path class="cls-3" d="M19,15.5H11a6,6,0,0,0-6,6v1a6,6,0,0,0,2.54,4.89L6.17,29.44a1,1,0,0,0,1.28,1.45l4.78-2.39H19a6,6,0,0,0,6-6v-1A6,6,0,0,0,19,15.5Z"/><circle class="cls-4" cx="11" cy="22" r="1"/><circle class="cls-4" cx="15" cy="22" r="1"/><circle class="cls-4" cx="19" cy="22" r="1"/></g></svg>