<svg xmlns="http://www.w3.org/2000/svg" viewBox="0 0 40 40" focusable="false" aria-hidden="true"><defs><style>.cls-1{fill:none;}.cls-2{fill:#b8b2ff;}.cls-3{fill:#6c2273;}.cls-4{fill:#000d6e;}</style></defs><g id="Solid"><rect class="cls-1" width="40" height="40"/></g><g id="Icon_Purple" data-name="Icon Purple"><rect class="cls-2" x="13" y="35" width="14" height="1"/><path class="cls-3" d="M7,24.2523V33a1,1,0,0,0,1,1h4V21L7.4855,23.3948A1,1,0,0,0,7,24.2523Z"/><path class="cls-3" d="M32.5145,23.3948,28,21V34h4a1,1,0,0,0,1-1V24.2523A1,1,0,0,0,32.5145,23.3948Z"/><path class="cls-2" d="M20.6747,4.2427a.9924.9924,0,0,0-1.3267.0235C17.61,5.8688,13,10.8278,13,15V34H27V15C27,10.4427,22.4294,5.7543,20.6747,4.2427Z"/><circle class="cls-4" cx="20" cy="16" r="4"/></g></svg>