<?xml version="1.0" encoding="UTF-8"?><svg id="Calque_1" data-name="Calque 1" xmlns="http://www.w3.org/2000/svg" viewBox="0 0 40 40" focusable="false" aria-hidden="true"><defs><style>.cls-1 {
        fill: none;
      }

      .cls-2 {
        fill: #000d6e;
      }

      .cls-3 {
        fill: #1b5951;
      }

      .cls-4 {
        fill: #94e3d4;
      }</style></defs><path class="cls-1" d="M0,0H40V40H0V0Z"/><g><path class="cls-3" d="M17,8h6v24h-6V8Zm-7,11v12c0,.55,.45,1,1,1h5v-14h-5c-.55,0-1,.45-1,1Z"/><path class="cls-4" d="M30,23.97V14c0-.55-.45-1-1-1h-5v14.4c1.26-2.12,3.53-3.43,6-3.43Z"/></g><path class="cls-4" d="M29.94,24.97c-3.31,0-6,2.69-6,6s2.69,6,6,6,6-2.69,6-6-2.69-6-6-6Zm.29,5.09l-.07,.73h-1.59c0,.06,0,.12,0,.18,0,.06,0,.12,0,.18h1.53l-.07,.72h-1.23c.28,.43,.77,.68,1.28,.66,.51,.04,1-.23,1.24-.69l.98,.66c-.49,.73-1.32,1.16-2.2,1.12-1.15,.04-2.18-.67-2.56-1.76h-.67l.07-.72h.46c0-.06,0-.12,0-.19,0-.06,0-.12,0-.18h-.41l.07-.73h.48c.38-1.08,1.42-1.8,2.57-1.76,.88-.03,1.71,.39,2.2,1.11l-.98,.66c-.24-.45-.73-.72-1.25-.68-.51-.02-1,.23-1.28,.67h1.42Z"/><path class="cls-2" d="M30.24,30.06l-.07,.73h-1.59c0,.06,0,.12,0,.18,0,.06,0,.12,0,.18h1.53l-.07,.72h-1.23c.28,.43,.77,.68,1.28,.66,.51,.04,1-.23,1.24-.69l.98,.66c-.49,.73-1.32,1.16-2.2,1.12-1.15,.04-2.18-.67-2.56-1.76h-.67l.07-.72h.46c0-.06,0-.12,0-.19,0-.06,0-.12,0-.18h-.41l.07-.73h.48c.38-1.08,1.42-1.8,2.57-1.76,.88-.03,1.71,.39,2.2,1.11l-.98,.66c-.24-.45-.73-.72-1.25-.68-.51-.02-1,.23-1.28,.67h1.42Z"/></svg>