<svg xmlns="http://www.w3.org/2000/svg" viewBox="0 0 40 40" focusable="false" aria-hidden="true"><g id="Solid"><rect width="40" height="40" fill="none"/></g><g id="Icon_Red" data-name="Icon Red"><path d="M33.6841,22.1329l-1.999-.001a.5.5,0,0,0,0,1l.6245,0-7.4771,6.2154a.3294.3294,0,0,1-.3589.044L22.03,27.9005a1.3413,1.3413,0,0,0-1.4888.1494l-7.1274,6.292a.5.5,0,0,0,.6621.75l7.1089-6.2764a.3262.3262,0,0,1,.3476-.0479l2.438,1.4883a1.3366,1.3366,0,0,0,1.4941-.1328l7.6529-6.3613a.4765.4765,0,0,0,.0667-.0832l.0007.9533a.5.5,0,0,0,.5.5h0a.5.5,0,0,0,.5-.5l-.0015-1.999A.5.5,0,0,0,33.6841,22.1329Z" fill="#000d6e"/><path d="M31.9954,12.7a.8541.8541,0,1,1,.3512-1.6681l.9242.273a.9975.9975,0,0,0-.2067-.4045L30.2457,7.5839a4,4,0,0,0-1.853-1.227L20.88,4.1754a3,3,0,0,0-2.9859.7105L7.3,15.0008a1.9986,1.9986,0,0,0-.3629.4778L5.4264,18.25a8.2911,8.2911,0,0,0-1.5573,5.2371.5.5,0,1,0,1,0,8.4408,8.4408,0,0,1,.8087-3.7984l.439,1.22-.2521,5.6953.0046.0016,1.6478,5.3918h3.4671l-.6409-1.4131a1,1,0,0,0-.9107-.5869H9.1078l-.063-2.5965,4.8984-7.3145-.0088-.0018,6.4074-3.2066,3.2774,2.3844-.6527,1.2539L22.07,19.62l-.65.68-1.24,1.32-.32.34,1.45.55h.01l.91.71a1.0047,1.0047,0,0,0,1.36-.12l.9247-1.0394,1.9139-1.9716a.8709.8709,0,0,0,.0767-.1291l.2521-.2608a1,1,0,0,0,.1009-1.2677L24.3666,14.864l1.9981-1-.151,1.816a1,1,0,0,0,.6222,1.01l1.3084.5283a1,1,0,0,0,1.1866-.3439l.7-.9738,2.2175-1.2377a1,1,0,0,0,.4846-.6383l.2884-1.1934-.6649-.0854Z" fill="#ffaca6"/><polygon points="24.68 25.122 24.715 25.149 24.762 25.067 24.68 25.122" fill="#b8b2ff"/><path d="M36.595,12.2864l-3.3242-.9818-.9242-.273A.8541.8541,0,1,0,31.9954,12.7l.3606.0463.6649.0854,3.3552.4308A.5019.5019,0,0,0,36.595,12.2864Z" fill="#d9304c"/></g></svg>