<svg xmlns="http://www.w3.org/2000/svg" viewBox="0 0 40 40" focusable="false" aria-hidden="true"><defs><style>.cls-1{fill:none;}.cls-2{fill:#fa9319;}.cls-3{fill:#fae052;}.cls-4{fill:#000d6e;}</style></defs><g id="Solid"><rect class="cls-1" width="40" height="40"/></g><g id="Icon_Tangerine" data-name="Icon Tangerine"><rect class="cls-2" x="17" y="8" width="6" height="24"/><path class="cls-2" d="M10,19V31a1,1,0,0,0,1,1h5V18H11A1,1,0,0,0,10,19Z"/><path class="cls-3" d="M30,23.97V14a1,1,0,0,0-1-1H24V27.4048A6.9966,6.9966,0,0,1,30,23.97Z"/><path class="cls-3" d="M29.9853,24.97a6,6,0,1,0,6,6A6,6,0,0,0,29.9853,24.97Zm-3.16,7.1019a.8343.8343,0,0,0,.8706-.6807l.8008.3252a1.6561,1.6561,0,0,1-1.6563,1.1465,1.8042,1.8042,0,1,1,.01-3.6084,1.6521,1.6521,0,0,1,1.6465,1.1465l-.8008.3242a.8319.8319,0,0,0-.8658-.68,1.0162,1.0162,0,0,0-.0048,2.0264Zm5.0971.7256h-.8359V31.4066H29.8857v1.3906H29.05V29.3187h.8354v1.3418h1.2012V29.3187h.8359ZM34.8789,30.71v.7256H33.5473v1.3613h-.8359V29.3187h2.3574v.7265H33.5473V30.71Z"/><path class="cls-4" d="M26.8305,30.0452a.8319.8319,0,0,1,.8658.68l.8008-.3242a1.6521,1.6521,0,0,0-1.6465-1.1465,1.8042,1.8042,0,1,0-.01,3.6084,1.6561,1.6561,0,0,0,1.6563-1.1465l-.8008-.3252a.8343.8343,0,0,1-.8706.6807,1.0162,1.0162,0,0,1,.0048-2.0264Z"/><polygon class="cls-4" points="35.069 30.045 35.069 29.319 32.711 29.319 32.711 32.797 33.547 32.797 33.547 31.436 34.879 31.436 34.879 30.71 33.547 30.71 33.547 30.045 35.069 30.045"/><polygon class="cls-4" points="31.087 30.66 29.886 30.66 29.886 29.319 29.05 29.319 29.05 32.797 29.886 32.797 29.886 31.407 31.087 31.407 31.087 32.797 31.923 32.797 31.923 29.319 31.087 29.319 31.087 30.66"/></g></svg>