<?xml version="1.0" encoding="UTF-8"?><svg xmlns="http://www.w3.org/2000/svg" viewBox="0 0 40 40" focusable="false" aria-hidden="true"><g id="Solid"><rect width="40" height="40" fill="none"/></g><g id="Icon_Red"><path d="M17.80255127,9.78320314l1.49035645-1.49035645c.19525146-.19525146,.45117188-.29284668,.70709229-.29284668s.51184082,.09759521,.70709229,.29284668l1.49035645,1.49035645,.85070801-.425354c-.00073242-1.51147461-1.10437012-2.7565918-2.54815674-2.99627686v-.21704102c0-.27636719-.22363281-.5-.5-.5s-.5,.22363281-.5,.5v.21704102c-1.44378662,.23968506-2.54742432,1.48480225-2.54815674,2.99627686l.85070801,.425354Z" fill="#d9304c"/><path d="M23,18.00195312h-6c-.55224609,0-1-.44726562-1-1s.44775391-1,1-1h6c.55224609,0,1,.44726562,1,1s-.44775391,1-1,1Z" fill="#d9304c"/><path d="M24,32.00000001h-8c-.55224609,0-1-.44726562-1-1s.44775391-1,1-1h8c.55224609,0,1,.44726562,1,1s-.44775391,1-1,1Z" fill="#d9304c"/><polygon points="23.98663192 28.99124741 16.01336808 28.99124741 18.25 18.99124741 21.75 18.99124741 23.98663192 28.99124741" fill="#ffaca6"/><path d="M16,32.00000001h8c1.10383005,0,2,.89616995,2,2v1H14v-1c0-1.10383005,.89616995-2,2-2Z" fill="#000d6e"/><path d="M22,11.00000001l-2-2-2,2-2-1,1.11474609,5c-.16625977,0,2.88525391,0,2.88525391,0,0,0,3.05151367,0,2.88525391,0l1.11474609-5-2,1Z" fill="#ffaca6"/></g></svg>