<svg xmlns="http://www.w3.org/2000/svg" viewBox="0 0 40 40" focusable="false" aria-hidden="true"><defs><style>.cls-1{fill:none;}.cls-2{fill:#fa9319;}.cls-3{fill:#fae052;}.cls-4{fill:#000d6e;}</style></defs><g id="Solid"><rect class="cls-1" width="40" height="40"/></g><g id="Icon_Tangerine" data-name="Icon Tangerine"><path class="cls-2" d="M27.6594,6.882a1.995,1.995,0,0,0-.7761-.6683l-.8848,1.7525H26l-5.47,12.2194,1.0432,2.5828,6.2758-14.02A1.9725,1.9725,0,0,0,27.6594,6.882Z"/><path class="cls-2" d="M20.5388,23.53c.0942.01.1814.04.274.0556l-.8989-2.2422L13.9286,7.9915,24.873,7.9686,25.8669,6H13.9286a1.99,1.99,0,0,0-1.6757.9044c-.3687.5669-.4212,1.2709.441,3.34l6,13.4349A4.9854,4.9854,0,0,1,20,23.5,5.0463,5.0463,0,0,1,20.5388,23.53Z"/><path class="cls-3" d="M20.8128,23.5856c-.0926-.0152-.18-.0454-.274-.0556A5.0463,5.0463,0,0,0,20,23.5a4.9854,4.9854,0,0,0-1.3066.179l-.0107.0022a5.032,5.032,0,1,0,2.13-.0956ZM21.86,31l-1.8645-1L18.131,31l.716-1.9293L17.5,28h1.7444l.7423-2,.7494,2H22.5l-1.3551,1.0912Z"/><polygon class="cls-4" points="20.736 28 19.987 26 19.244 28 17.5 28 18.847 29.071 18.131 31 19.996 30 21.86 31 21.145 29.091 22.5 28 20.736 28"/></g></svg>