<?xml version="1.0" encoding="UTF-8"?><svg xmlns="http://www.w3.org/2000/svg" viewBox="0 0 40 40" focusable="false" aria-hidden="true"><g id="uuid-04df3f92-7fb1-457b-9178-fc2292751a1d"><rect width="40" height="40" fill="none"/></g><g id="uuid-1243473f-066d-4b31-abfa-7b9a3c0d3ddf"><g><path d="M32.14111328,11.32617189c-.25927734-.09863281-.54736328,.03027344-.64599609,.28808594l-.64300537,1.68292236c-2.22454834-3.88500977-6.37597656-6.29718018-10.85211182-6.29718018-5.19580078,0-9.90478516,3.27050781-11.71777344,8.13769531-.09619141,.25878906,.03564453,.546875,.29443359,.64355469,.05712891,.02148438,.11621094,.03125,.17431641,.03125,.20263672,0,.39355469-.12402344,.46875-.32519531,1.66748047-4.47851562,6-7.48730469,10.78027344-7.48730469,4.07373047,0,7.8480835,2.17816162,9.9107666,5.68499756l-1.64367676-.62738037c-.25537109-.09667969-.54638672,.03027344-.64550781,.28808594-.09814453,.25878906,.03076172,.546875,.2890625,.64550781l2.80273438,1.0703125c.05859375,.02246094,.11865234,.03320312,.17822266,.03320312,.20117188,0,.39111328-.12207031,.46728516-.32128906l1.07080078-2.80175781c.09814453-.2578125-.03076172-.546875-.28857422-.64550781Z" fill="#000d6e"/><path d="M22.97851395,31.10800999c.08506099-.57993201,.12869823-1.17036224,.13097495-1.7712907,.00215024-.56987648-.03712327-1.14000593-.11801026-1.68939191-.0004427-.00467993-.00151782-.00923338-.00196051-.01391331l.01397656-.01391331,6.1133238-6.06158597c.20724525-.20718182,.20724525-.52838952,.01037175-.73563458-.20724525-.20724506-.52845325-.20724506-.73563526,0l-3.35722127,3.33641146c0-.70458261,.0207435-1.65783399,.05185874-2.54891818,.01037175-.29015573-.217617-.52845277-.50770976-.53882451-.27978425,0-.5180815,.2176168-.52845325,.49733755-.08291075,2.25882569-.06216725,3.1810251-.0207435,3.58514348l-1.24340826,1.23303538-.01182632,.01169983c-.35061571-1.44837545-.95116526-2.80650412-1.75832764-4.01051128-.01606356-.02396884-.02928122-.05002467-.04553451-.07386702-2.22581525-3.28259225-5.978997-5.44155834-10.24798354-5.45755864-.83928951-.00309887-1.64784322,.07671293-2.43584316,.22919014-.1583589,.7869241-.24430528,1.59478141-.2474674,2.43407014-.0219451,5.85427767,4.00071239,10.77041887,9.43557204,12.11710068,.4037393,.10510872,.80754184,.17916547,1.23215112,.23254198,.55918905,.08499767,1.13931132,.12863486,1.71956007,.1307851,.63204426,.00240321,1.24359799-.04711552,1.84490645-.12774947,.19693674-.03035631,.39393673-.06064938,.59099996-.10144067,.00126485-.00379454,.00031621-.00664044,.00126485-.01011877,.00708315-.02529693,.00923339-.04540798,.00935987-.07272866,.04218266-.19674684,.07393033-.38312193,.10580449-.57986877Z" fill="#94e3d4"/><path d="M31.82118876,18.55308278c-.71495501-.13470613-1.44021852-.20724506-2.19666052-.20724506-3.46074903,0-6.5485578,1.56461482-8.60014032,4.03068558-.00303563,.00360481-.00562857,.00752584-.0086642,.01113065,.80716238,1.20400715,1.40771194,2.56213583,1.75832764,4.01051128l.01182632-.01169983,1.24340826-1.23303538c-.04142375-.40411838-.06216725-1.32631779,.0207435-3.58514348,.01037175-.27972075,.248669-.49733755,.52845325-.49733755,.29009276,.01037174,.5180815,.24866877,.50770976,.53882451-.03111525,.89108419-.05185874,1.84433557-.05185874,2.54891818l3.35722127-3.33641146c.20718201-.20724506,.52839001-.20724506,.73563526,0,.1968735,.20724506,.1968735,.52845277-.01037175,.73563458l-6.1133238,6.06158597-.01397656,.01391331c.0004427,.00467993,.00151782,.00923338,.00196051,.01391331,.08088699,.54938597,.12016051,1.11951542,.11801026,1.68939191-.00221348,.58473843-.04515505,1.15910511-.12578908,1.72392221l-3.78296891-3.7519767c.01037175-.0518587,.03111525-.10365415,.0207435-.15544961l-.04142375-1.6475255v-.23829704l-.072539-2.88049763c0-.29015573-.217617-.53882451-.52845325-.50777253-.290156,0-.50770976,.23836028-.50770976,.52845277l.09321925,3.88560771-3.22245178-3.21207708c.03111525-.39374664,.0517955-1.31594605-.0207435-3.57477174-.01030851-.29009249-.26934926-.49733755-.53876176-.49733755-.290156,.01037174-.50770976,.24866877-.49740125,.52845277,.03111525,.89108419,.041487,1.85470731,.05185874,2.54891818l-3.36752978-3.33641146c-.1968735-.19687332-.52845325-.19687332-.72532675,.01037174-.20724525,.19687332-.20724525,.52838952,0,.72526285l8.61051207,8.54833696,.06216725,.06216719,3.70948128,3.67842589,.07247576,.07253893s.01037175,0,.01037175,.0103085c.217617-.03105198,.4455425-.06216719,.65278775-.11396265,.1658215-.03105198,.3419515-.06216719,.50770976-.11396265,.0207435,0,.03111525-.01037174,.05185874-.01037174,4.89065904-1.20192016,8.51722957-5.60560889,8.51722957-10.86932985,0-.75637806-.08291075-1.48170415-.217617-2.1966585Z" fill="#1b5951"/></g></g></svg>