<?xml version="1.0" encoding="UTF-8"?><svg xmlns="http://www.w3.org/2000/svg" viewBox="0 0 40 40" focusable="false" aria-hidden="true"><defs><style>.cls-1{fill:none;}.cls-2{fill:#000d6e;}.cls-3{fill:#6c2273;}.cls-4{fill:#b8b2ff;}</style></defs><g id="Solid"><rect class="cls-1" width="40" height="40"/></g><g id="Icon_Purple"><rect class="cls-3" x="6" y="9" width="28" height="19" rx="1" ry="1"/><rect class="cls-4" x="7" y="10" width="26" height="17"/><path class="cls-3" d="M15,29h10v1c0,.55191502-.44808498,1-1,1h-8c-.55191502,0-1-.44808498-1-1v-1h0Z" transform="translate(40 60) rotate(180)"/><g><path class="cls-3" d="M13.53963713,14.03846155h12.92072574c.29827599,0,.53963713-.24083534,.53963713-.53846154s-.24136114-.53846154-.53963713-.53846154H13.53963713c-.29827599,0-.53963713,.24083534-.53963713,.53846154s.24136114,.53846154,.53963713,.53846154Z"/><g><circle class="cls-4" cx="16.5" cy="13.50000001" r=".5"/><path class="cls-2" d="M16.5,12.00000001c-.82714844,0-1.5,.67285156-1.5,1.5s.67285156,1.5,1.5,1.5,1.5-.67285156,1.5-1.5-.67285156-1.5-1.5-1.5Zm0,2c-.27587891,0-.5-.22460938-.5-.5s.22412109-.5,.5-.5,.5,.22460938,.5,.5-.22412109,.5-.5,.5Z"/></g></g><g><path class="cls-3" d="M13.53963713,24.03846155h12.92072574c.29827599,0,.53963713-.24083534,.53963713-.53846154s-.24136114-.53846154-.53963713-.53846154H13.53963713c-.29827599,0-.53963713,.24083534-.53963713,.53846154s.24136114,.53846154,.53963713,.53846154Z"/><g><circle class="cls-4" cx="16.5" cy="23.50000001" r=".5"/><path class="cls-2" d="M16.5,22.00000001c-.82714844,0-1.5,.67285156-1.5,1.5s.67285156,1.5,1.5,1.5,1.5-.67285156,1.5-1.5-.67285156-1.5-1.5-1.5Zm0,2c-.27587891,0-.5-.22460938-.5-.5s.22412109-.5,.5-.5,.5,.22460938,.5,.5-.22412109,.5-.5,.5Z"/></g></g><g><path class="cls-3" d="M26.46036287,17.50627054H13.53963713c-.29827599,0-.53963713,.24083534-.53963713,.53846154s.24136114,.53846154,.53963713,.53846154h12.92072574c.29827599,0,.53963713-.24083534,.53963713-.53846154s-.24136114-.53846154-.53963713-.53846154Z"/><g><circle class="cls-4" cx="23.5" cy="18.04492189" r=".5"/><path class="cls-2" d="M23.5,16.54492189c-.82714844,0-1.5,.67285156-1.5,1.5s.67285156,1.5,1.5,1.5,1.5-.67285156,1.5-1.5-.67285156-1.5-1.5-1.5Zm0,2c-.27587891,0-.5-.22460938-.5-.5s.22412109-.5,.5-.5,.5,.22460938,.5,.5-.22412109,.5-.5,.5Z"/></g></g></g></svg>