<svg xmlns="http://www.w3.org/2000/svg" viewBox="0 0 40 40" focusable="false" aria-hidden="true"><g id="Solid"><rect width="40" height="40" fill="none"/></g><g id="Icon_Green" data-name="Icon Green"><path d="M26,10a9.9917,9.9917,0,0,0-9.9747,9.5h3a7,7,0,1,1,0,1h-3A9.9938,9.9938,0,1,0,26,10Z" fill="#1b5951"/><path d="M26,17a3,3,0,1,1-2.95,3.5H19.0253a7,7,0,1,0,0-1H23.05A2.9943,2.9943,0,0,1,26,17Z" fill="#94e3d4"/><path d="M23.05,20.5H25.5a.5.5,0,0,0,0-1H4.5a.5.5,0,0,0,0,1H23.05Z" fill="#000d6e"/><path d="M6.15,18.3535a.5011.5011,0,0,0,.3541.1464H6.506l4.9945-.0141a.5.5,0,0,0,.3527-.8535L9.8639,15.6464A.5012.5012,0,0,0,9.51,15.5H4.501a.5.5,0,0,0-.3541.8536Z" fill="#94e3d4"/><path d="M11.499,21.5H6.49a.5012.5012,0,0,0-.3541.1465L4.1468,23.6323a.5.5,0,0,0,.3527.8535L9.494,24.5h.0015a.5011.5011,0,0,0,.3541-.1464l2.0035-2A.5.5,0,0,0,11.499,21.5Z" fill="#1b5951"/></g></svg>