<?xml version="1.0" encoding="UTF-8"?><svg id="Calque_1" data-name="Calque 1" xmlns="http://www.w3.org/2000/svg" viewBox="0 0 40 40" focusable="false" aria-hidden="true"><defs><style>.cls-1 {
        fill: none;
      }

      .cls-2 {
        fill: #000d6e;
      }

      .cls-3 {
        fill: #f1d752;
      }

      .cls-4 {
        fill: #ffaca6;
      }

      .cls-5 {
        fill: #f18a19;
      }

      .cls-6 {
        fill: #b8b2ff;
      }</style></defs><path class="cls-1" d="M0,0H40V40H0V0Z"/><path class="cls-1" d="M24.92,19.82h0s0,0,0,0h0Z"/><path class="cls-5" d="M21.06,20.36l-.08,.04h0s-2.03,1.03-2.03,1.03l-.16,.08h0s-1.05,.53-1.05,.53c-.53,.26-.89,.77-.96,1.36l-.3,2.61h6.18l-.09-.52c-.03-.19-.07-.39-.09-.57l-.03-.17c-.06-.41-.12-.81-.16-1.22-.02-.16-.04-.33-.05-.49-.01-.12-.02-.22-.03-.33h0c0-.08-.01-.16-.02-.23,0-.09-.02-.18-.03-.27v-.04s-.02-.43-.02-.43v-.11c-.02-.22-.02-.44-.03-.66,0-.21,0-.43,0-.64,0-.04,.03-.49,.03-.5h0s0,0,0,0h0s-.04,.01-.06,.02c-.08,.03-.15,.07-.22,.11l-.08,.04s-.72,.36-.72,.36Zm6.64,.85l-1.69-.85-.36-.19c-.22-.11-.43-.23-.66-.32-.02,0-.04-.02-.06-.02h0s0,0,0,0h0s.03,.46,.03,.5c.01,.21,.01,.42,0,.64,0,.22,0,.44-.02,.66v.11c-.01,.14-.02,.29-.03,.43v.04c-.01,.09-.02,.18-.03,.27,0,.07-.01,.15-.02,.22h0c-.01,.12-.01,.22-.03,.34-.01,.15-.03,.32-.05,.49-.04,.38-.09,.78-.16,1.22-.01,.06-.01,.11-.03,.17-.02,.18-.06,.38-.09,.57-.01,.08-.05,.3-.09,.52h2.95c-.57-1.58-.44-3.32,.34-4.79Z"/><path class="cls-2" d="M24.92,19.82h0s.04,.01,.06,.02c.22,.09,.44,.21,.66,.32l.36,.19,1.69,.85c.27-.51,.61-.98,1.01-1.39-.29-.76-.45-1.92-.66-3.08-.22-1.7-.77-3.26-.98-4.05-.31-1.19-1.24-2.61-3.5-2.69-1.67,0-3.05,1.13-3.33,2.28-.41,1.12-1.45,4.58,.15,7.36,.16,.29,.37,.53,.59,.74h0s.08-.03,.08-.03l.72-.36,.08-.04,.29-.15,.05-.84v-.06c-.66-.48-1.15-1.29-1.35-2.26-.03,0-.07,.01-.11,.01-.08,0-.16-.02-.23-.07-.21-.13-.36-.43-.36-.78h0c0-.08,0-.15,.02-.22v-.03s.01-.02,.02-.03c.08-.33,.29-.56,.55-.56h0v-1.6s-.01-.1,0-.15c0-.06,0-.13,.02-.19,.39-.19,.98-.51,1.78-.31l.06,.02c.16,.04,.32,.1,.49,.19,.61,.32,1.23,.63,1.84,.93,.37,.18,.7,.35,.96,.47l.24,.12,.22,.11v.41s.07,.02,.1,.03c0,0,.01-.01,.02-.01,.02,0,.04,.02,.06,.03,.03,.01,.06,.03,.08,.05,.01,0,.02,.01,.03,.02h.02s.04,.06,.06,.08c.02,.02,.04,.05,.06,.08,0,0,0,0,.01,.02,0,.01,.01,.02,.02,.03,.02,.04,.03,.08,.05,.12h0s.03,.06,.03,.09h0s0,.04,0,.04c.05,.19,.04,.4-.01,.59-.09,.3-.3,.51-.54,.51-.03,0-.06,0-.09-.01-.07,.36-.19,.71-.35,1.04-.15,.3-.34,.59-.57,.84-.14,.16-.3,.3-.48,.42l.05,.87v.02h0s0,0,0,0Z"/><path class="cls-1" d="M9.45,22.6h0Zm-1.49-.96c0-.14-.01-.27-.02-.4,0,.13,.01,.26,.02,.41,.01,.1,.01,.21,.02,.32,0,0,0,0,0,0,0-.11-.02-.22-.02-.32Zm2.95,.32v-.14s0,.14,0,.14c0,0,0,0,0,0Zm.04-.64c.04-.74,.03-1.35,.01-1.77,0,0,0,0,0,0,.02,.42,.02,1.03-.01,1.78Z"/><path class="cls-3" d="M7.96,21.64l.02,.33c.23,.25,.53,.43,.87,.54,.19,.06,.38,.1,.59,.1h0c.26,0,.51-.06,.73-.15,.28-.11,.53-.28,.73-.49v-.14c.01-.06,.01-.13,.02-.18,0-.11,.01-.21,.02-.32,.03-.74,.03-1.35,.01-1.78,0-.12-.01-.25-.02-.37-.02-.21-.03-.33-.03-.33h0s0,0,0,0v-.92c.76-.5,1.32-1.37,1.55-2.42,.03,0,.06,.01,.08,.01,.36,0,.65-.4,.65-.89,0-.41-.2-.74-.47-.85v.15c0,.05-.02,.1-.05,.14-.03,.04-.06,.07-.11,.08-.02,0-.05,.02-.08,.02-.13,0-.23-.1-.23-.23h0v-.76s0-.06,0-.1c-.02-.04-.06-.09-.08-.13-.17-.27-.39-.51-.65-.7-.59,.25-1.25,.27-1.85,.06-.26-.08-.51-.19-.75-.33-.16-.09-.31-.2-.45-.32-.38,.06-.76,.17-1.12,.32-.25,.11-.46,.21-.62,.29-.05,.19-.08,.38-.09,.58,0,.1-.01,.21-.01,.33v.76c0,.13-.1,.23-.23,.23h0s-.03,0-.04,0c-.11-.02-.19-.11-.2-.23v-.15c-.27,.11-.47,.45-.47,.85,0,.49,.29,.89,.65,.89,.04,0,.09,0,.13-.02,.22,1.04,.78,1.9,1.52,2.41h0v.94s-.02,.25-.04,.7c-.02,.56-.02,1.13,0,1.69,0,.13,.01,.26,.02,.4Z"/><path class="cls-5" d="M7.99,22.04s0-.05-.01-.08c-.01-.11-.01-.22-.02-.32-.02-.34-.03-.67-.04-1.01,0-.43,0-.8,0-1.08,.02-.45,.05-.7,.05-.7l-.07,.03-4.6,2.33c-.56,.28-.94,.82-1.02,1.44l-.29,2.35h6.39c-.09-.39-.22-1.12-.35-2.4-.02-.19-.04-.38-.05-.56Zm8.61,.61c-.08-.62-.46-1.16-1.02-1.44l-4.6-2.33-.07-.03s.03,.25,.05,.7c.02,.56,.01,1.12-.01,1.68,0,.13-.01,.26-.02,.41-.01,.1-.01,.21-.02,.32-.01,.03-.01,.05-.01,.08-.01,.18-.03,.37-.05,.56-.13,1.28-.26,2.01-.35,2.4h6.39s-.29-2.35-.29-2.35Z"/><path class="cls-2" d="M6.36,14.15s.03,0,.04,0c.13,0,.23-.1,.23-.23h0v-.76c0-.12,0-.22,.01-.33,.02-.23,.05-.42,.09-.58,.16-.08,.37-.19,.62-.29,.3-.12,.67-.25,1.12-.32,.12,.11,.26,.22,.45,.32,.2,.11,.44,.22,.75,.33,.74,.25,1.37,.15,1.85-.06,.28,.22,.49,.46,.65,.7,.03,.04,.06,.09,.08,.13,0,.03,0,.06,0,.1v.76c0,.13,.1,.23,.23,.23,.06,0,.11-.02,.15-.06,.01-.01,.02-.02,.03-.04,.03-.04,.05-.09,.05-.14v-1.01c.02-.61,.03-1.26,0-1.57-.07-.67-1.33-2.34-3.28-2.34s-3.28,1.47-3.28,2.81v2.11c0,.11,.08,.21,.19,.23Z"/><path class="cls-1" d="M22.15,19.81h0s0,0,0,0h0Zm.05,2.91h0s0,0,0,0h0Zm.07,.67l.02,.18-.02-.18Zm-.1-1.04l-.02-.29,.02,.29Zm2.61,1.17c-.04,.38-.1,.78-.16,1.22,.07-.44,.12-.84,.16-1.22Zm.13-1.33s.01-.04,0-.06v-.11c0,.15-.01,.3-.03,.46,0-.09,.02-.2,.03-.29Zm-2.31-9.44l-.06-.02,.06,.02Zm-.49,7.76v-.07s0,.05,0,.07Zm.03-.64c-.01,.09-.02,.17-.02,.26,0-.1,.01-.2,.02-.3,0,0,0,.01,0,.04Z"/><path class="cls-4" d="M22.2,22.73v-.02s0,.02,0,.02c0,0,0,0,0,0Z"/><path class="cls-1" d="M22.15,19.81s0,.02,0,.02h0s0-.01,0-.01h0s0-.02,0-.02h0s0,0,0,0h0Zm4.31-5.01s-.07-.03-.1-.03v-.41s-.23-.11-.23-.11l-.24-.12,.46,.23v.41c.07,0,.13,.02,.18,.05-.02-.01-.04-.03-.06-.03,0,0-.01,0-.02,.01Zm.21,.1h-.02s-.02-.02-.03-.03c.04,.03,.07,.06,.1,.1-.02-.02-.03-.05-.06-.07Zm-4.13-2.16l.06,.02-.06-.02Zm-2.36,2.65s.01-.04,.02-.06c0,.01,0,.02-.01,.03v.04Zm6.63-.3l-.02-.03s0,0-.01-.02c.03,.05,.06,.11,.08,.17h0s-.03-.08-.05-.12Z"/><path class="cls-1" d="M22.15,19.79l.05-.83-.05,.84h0s0-.01,0-.01Zm4.75-4.49h0s0,.02,.01,.04v-.04Zm-2.04,3.64l.05,.87h0s0,0,0,0l-.05-.87Z"/><path class="cls-3" d="M24.92,19.82h0s0,0,0,0h0Z"/><path class="cls-3" d="M24.88,22.47c0-.09,.02-.18,.03-.27v-.04s.02-.43,.02-.43v-.11c.02-.22,.02-.44,.03-.66,0-.21,0-.43,0-.64,0-.17-.02-.33-.03-.5h0s0-.02,0-.02h0l-.05-.87c.17-.12,.33-.26,.48-.42,.22-.24,.41-.52,.57-.84,.16-.32,.28-.66,.35-1.04,.03,0,.06,.01,.09,.01,.24,0,.45-.21,.54-.51,.06-.21,.06-.43,0-.64,0-.03-.02-.06-.03-.09-.02-.06-.05-.11-.08-.17-.02-.03-.04-.05-.06-.08-.03-.04-.07-.07-.1-.1-.03-.02-.05-.03-.08-.05-.05-.03-.12-.05-.18-.05v-.41s-.47-.23-.47-.23c-.26-.12-.59-.29-.96-.47-.62-.31-1.23-.62-1.84-.93-.16-.08-.32-.15-.49-.19l-.06-.02c-.8-.2-1.39,.12-1.78,.31-.01,.11-.02,.23-.02,.34v1.6s0,0,0,0c-.25,0-.47,.24-.55,.56-.02,.09-.04,.18-.04,.28h0c0,.35,.15,.65,.36,.78,.1,.06,.22,.08,.33,.05,.2,.97,.69,1.78,1.35,2.26v.06s-.05,.83-.05,.83h0s0,.01,0,.01h0v.02h0s0,.01,0,.01h0c-.01,.1-.02,.19-.02,.27,0,.03,0,.05,0,.08,0,.1-.01,.2-.01,.3,0,.06,0,.12,0,.19,0,.12,0,.25,0,.39v.11c0,.15,.01,.31,.02,.48v.07c0,.11,.01,.22,.02,.34l.02,.29,.03,.34h0c.32,.39,.8,.63,1.33,.63s1-.24,1.33-.62h0c0-.09,.02-.16,.02-.23Z"/><path class="cls-1" d="M18.24,21.09c.1,0,.19-.05,.27-.13-.08,.07-.17,.13-.28,.13h0Zm.35-1.3c-.09-.12-.21-.2-.34-.2v-.34s0,0,0,0v.34c.14,0,.25,.08,.35,.2Z"/><path class="cls-1" d="M18.58,19.79c-.09-.12-.21-.2-.34-.2v-.34s0,0,0,0v.34c.14,0,.25,.08,.35,.2Zm-1.61,3.53h0s0,0,0,0Zm-3.72-2.24c-.11,0-.21-.06-.29-.14,.08,.08,.18,.14,.29,.14,.07,0,.14-.02,.2-.06,0,0,0,0,0,0-.06,.04-.13,.06-.19,.06Zm0-2.45v-.32s0,0,0,0v.32s0,0,0,0v.71s0-.71,0-.71h0Zm4.98,2.45c.1,0,.19-.05,.27-.13-.08,.07-.17,.13-.28,.13h0Z"/><path class="cls-2" d="M12.87,23.72l.21-.06h0s.01,0,.01,0l1.41-.33h0s0,0,0,0v-.02l.04-.89c-.36-.23-.66-.55-.87-.92l-.03-.04s0-.02-.01-.02c-.07-.13-.13-.26-.18-.4-.06,.04-.13,.06-.2,.06-.11,0-.2-.06-.29-.14h0c-.15-.17-.24-.39-.23-.61,0-.21,.06-.39,.15-.53s.23-.22,.37-.22v-.94s0,0,0,0v-.32s0,0,0,0h.01c.41-.21,1.11-.62,2.08-.11,.83,.43,2.22,.85,2.9,1.05h0s0,.34,0,.34c.13,0,.25,.08,.34,.2,.12,.16,.18,.35,.18,.55,0,.27-.1,.49-.25,.62-.08,.07-.17,.13-.27,.13h0s0,0,0,0c0,0,0,0-.01,0-.06,0-.12-.02-.17-.05-.04,.11-.09,.22-.15,.32-.22,.44-.56,.81-.98,1.08l.04,.53v.23s.01,.14,.01,.14l1.43,.33h0s.21,.06,.21,.06h0c.25,.08,.48,.17,.68,.27v-4.23c0-.11-.02-.21-.02-.32-.02-.41-.11-.82-.24-1.2-.01-.04-.03-.08-.05-.11-.06-.14-.11-.29-.18-.42-.09-.17-.19-.34-.3-.5-.01-.02-.03-.05-.05-.07l-.05-.08c-.49-.76-1.48-1.38-2.63-1.38-.03,0-.05,0-.08,0-.38,.01-.75,.09-1.1,.23-.42,.17-.81,.42-1.12,.74-.17,.15-.33,.32-.47,.5l-.03,.04c-.14,.19-.26,.4-.37,.62l-.02,.04c-.09,.19-.15,.4-.22,.61-.01,.04-.03,.08-.04,.12v.02c-.04,.13-.05,.28-.07,.42-.02,.14-.06,.27-.06,.42,0,.11-.02,.21-.02,.32v4.25c.21-.11,.45-.2,.72-.28h0s0,0,0,0Z"/><path class="cls-3" d="M20.27,25.58c0-.78-.35-1.26-.98-1.59-.22-.11-.45-.2-.68-.26v4.28h1.66v-2.42Zm-8.12-1.57c-.61,.33-.94,.8-.94,1.57v2.42h1.66v-4.28c-.25,.07-.49,.17-.72,.28Zm4.82-.7v-.35s-.05-.53-.05-.53c.12-.07,.23-.16,.34-.25,.26-.22,.48-.51,.64-.83,.05-.1,.11-.21,.15-.32,.05,.03,.11,.05,.17,.05,0,0,0,0,.01,0h0c.1,0,.19-.05,.28-.13,.17-.16,.26-.39,.25-.62,0-.22-.07-.41-.18-.55-.09-.12-.21-.2-.34-.2v-.34c-.68-.19-2.07-.61-2.9-1.05-.97-.51-1.67-.1-2.08,.1h-.01s0,.33,0,.33h0s0,.72,0,.72v.23c-.15,0-.28,.08-.37,.22-.1,.16-.16,.34-.15,.53,0,.25,.09,.47,.23,.6h0c.08,.09,.18,.15,.29,.15,.07,0,.14-.02,.19-.06,.05,.14,.11,.27,.18,.4,0,0,0,.02,.01,.02l.03,.04c.22,.38,.52,.69,.87,.92l-.04,.89v.02h0s0,0,0,0h0c.27,.4,.71,.66,1.23,.66s.96-.26,1.23-.66h0s0-.01,0-.01Z"/><path class="cls-6" d="M13.08,23.66h.01s-.01,0-.01,0h0Zm5.32,0h0s0,0,0,0h0s0,0,0,0Z"/><path class="cls-5" d="M18.61,23.72l-.21-.06h0s0,0,0,0l-1.43-.33c-.27,.4-.71,.66-1.23,.66s-.96-.26-1.23-.66h0s0,0,0,0l-1.41,.33h-.01s0,0,0,0l-.21,.06v4.28h5.74v-4.28h0Z"/><path class="cls-2" d="M37.1,36.03h-8.18c-.5,0-.91,.45-.91,1s.39,.98,.88,.99c0,0,.02,0,.02,0h8.18c.5,0,.91-.45,.91-1s-.41-1-.91-1Zm0-3h-8.18c-.5,0-.91,.45-.91,1s.41,1,.91,1h8.18c.5,0,.91-.45,.91-1s-.41-1-.91-1Zm0-3h-8.18c-.5,0-.91,.45-.91,1s.41,1,.91,1h8.18c.5,0,.91-.45,.91-1s-.41-1-.91-1Z"/><path class="cls-1" d="M24.92,19.82h0s0,0,0,0h0Z"/><path class="cls-2" d="M33,19c-2.76,0-5,2.24-5,5s2.24,5,5,5,5-2.24,5-5-2.24-5-5-5Zm.24,4.24l-.06,.61h-1.32s0,.1,0,.15c0,.05,0,.1,0,.15h1.28l-.06,.6h-1.02c.24,.36,.64,.57,1.07,.55,.43,.03,.83-.19,1.03-.57l.82,.55c-.41,.61-1.1,.96-1.84,.93-.95,.03-1.82-.56-2.13-1.46h-.56l.06-.6h.39c0-.05,0-.1,0-.15,0-.05,0-.1,0-.15h-.34l.06-.61h.4c.31-.9,1.18-1.5,2.14-1.46,.73-.03,1.42,.32,1.83,.93l-.82,.55c-.2-.38-.61-.6-1.04-.57-.43-.02-.83,.2-1.06,.55h1.19Z"/></svg>