<?xml version="1.0" encoding="iso-8859-1"?><!--Generator: Adobe Illustrator 26.2.1, SVG Export Plug-In . SVG Version: 6.00 Build 0)--><svg version="1.1" xmlns="http://www.w3.org/2000/svg" xmlns:xlink="http://www.w3.org/1999/xlink" x="0px" y="0px" viewBox="0 0 40 40" xml:space="preserve" focusable="false" aria-hidden="true" enable-background="new 0 0 40 40"><g id="Solid"><rect width="40" height="40" fill="none"/></g><g id="Icon_Purple"><g><polygon points="24.922,19.82 24.927,19.821 24.926,19.82 		" fill="none"/><path d="M21.055,20.356l-0.076,0.038c-0.001-0.001-0.002-0.002-0.003-0.003l-2.029,1.029l-0.16,0.08
			l-0.005,0.003l-1.045,0.527c-0.53,0.26-0.89,0.77-0.96,1.36L16.478,26h6.183c-0.04-0.224-0.08-0.444-0.093-0.522
			c-0.032-0.19-0.07-0.389-0.092-0.568c-0.01-0.062-0.016-0.114-0.026-0.175c-0.071-0.442-0.122-0.844-0.163-1.22
			c-0.017-0.163-0.038-0.334-0.052-0.485c-0.015-0.12-0.02-0.218-0.031-0.328c0-0.004-0.001-0.007-0.001-0.011
			c-0.008-0.075-0.015-0.15-0.021-0.222c-0.008-0.092-0.019-0.182-0.026-0.274c-0.001-0.014-0.002-0.028-0.003-0.043
			c-0.008-0.143-0.013-0.285-0.021-0.428c-0.002-0.038-0.004-0.077-0.006-0.115c-0.014-0.218-0.013-0.438-0.021-0.656
			c-0.007-0.213-0.007-0.426,0.004-0.638c0.002-0.037,0.031-0.491,0.035-0.495l0-0.001c-0.001,0-0.002,0.001-0.003,0.001
			c-0.001,0-0.003,0.001-0.004,0.001c-0.02,0.003-0.04,0.012-0.059,0.02c-0.075,0.031-0.146,0.072-0.22,0.108l-0.083,0.043
			L21.055,20.356z" fill="#6C2273"/><path d="M27.695,21.205l-1.686-0.855l-0.365-0.188c-0.216-0.111-0.433-0.228-0.657-0.322
			c-0.019-0.008-0.039-0.016-0.059-0.02c-0.001,0-0.003-0.001-0.004-0.001c-0.001,0-0.002-0.001-0.003-0.001l0,0.001
			c0.004,0.004,0.033,0.457,0.035,0.495c0.011,0.213,0.011,0.425,0.004,0.638c-0.008,0.218-0.007,0.439-0.021,0.656
			c-0.002,0.038-0.004,0.077-0.006,0.115c-0.008,0.143-0.013,0.286-0.021,0.428c-0.001,0.014-0.002,0.028-0.003,0.043
			c-0.007,0.092-0.019,0.183-0.026,0.274c-0.006,0.072-0.013,0.147-0.021,0.222c0,0.004-0.001,0.007-0.001,0.011
			c-0.011,0.11-0.015,0.209-0.031,0.328c-0.014,0.152-0.034,0.322-0.052,0.485c-0.04,0.376-0.092,0.778-0.163,1.22
			c-0.01,0.061-0.015,0.113-0.026,0.175c-0.022,0.179-0.06,0.378-0.092,0.568c-0.013,0.078-0.052,0.298-0.093,0.522h2.946
			C27.127,25.373,27,24.702,27,24C27,22.991,27.253,22.041,27.695,21.205z" fill="#6C2273"/><path d="M24.922,19.82h0.004l0,0.001c0.02,0.003,0.04,0.012,0.059,0.02c0.224,0.094,0.441,0.21,0.657,0.322
			l0.365,0.188l1.686,0.855c0.27-0.511,0.612-0.977,1.012-1.388c-0.286-0.757-0.447-1.916-0.664-3.08
			c-0.217-1.703-0.769-3.263-0.975-4.047c-0.314-1.193-1.24-2.612-3.498-2.687c-1.668,0-3.051,1.13-3.33,2.284
			c-0.41,1.123-1.448,4.585,0.146,7.364c0.164,0.287,0.366,0.529,0.591,0.74c0.001,0.001,0.002,0.002,0.003,0.003l0.076-0.038
			l0.722-0.365l0.083-0.043l0.287-0.148l0.052-0.838l-0.001-0.059c-0.657-0.476-1.15-1.287-1.349-2.256
			c-0.035,0.009-0.07,0.015-0.106,0.015c-0.081,0-0.158-0.024-0.228-0.066c-0.211-0.128-0.359-0.428-0.359-0.777
			c0-0.001,0-0.001,0-0.002c0-0.074,0.009-0.145,0.022-0.214c0.002-0.012,0.005-0.023,0.008-0.035
			c0.002-0.01,0.007-0.018,0.01-0.028c0.081-0.327,0.292-0.564,0.548-0.564c0.001,0,0.001,0,0.002,0
			c-0.004-0.588-0.01-1.356-0.012-1.596c-0.001-0.013,0.001-0.077,0.005-0.148c0.004-0.071,0.01-0.149,0.018-0.192
			c0.386-0.186,0.984-0.505,1.779-0.306c0.021,0.005,0.041,0.009,0.062,0.015c0,0,0,0,0,0c0.157,0.044,0.319,0.102,0.491,0.192
			c0.216,0.114,0.455,0.236,0.7,0.361c0.379,0.193,0.776,0.391,1.142,0.572c0.366,0.181,0.701,0.345,0.957,0.47
			c0.095,0.046,0.169,0.082,0.24,0.116c0.104,0.05,0.187,0.091,0.224,0.109c0,0.056,0.003,0.336,0.003,0.408
			c0.036,0,0.067,0.021,0.101,0.03c0.007-0.005,0.013-0.012,0.02-0.01c0.021,0.007,0.038,0.024,0.058,0.034
			c0.028,0.014,0.055,0.028,0.081,0.047c0,0,0,0,0,0c0.01,0.007,0.021,0.01,0.031,0.018c0.006,0.005,0.012,0.009,0.018,0.014
			c0.021,0.019,0.036,0.047,0.055,0.07c0,0,0,0,0,0c0.021,0.025,0.043,0.048,0.061,0.077c0,0,0,0,0,0
			c0.004,0.006,0.009,0.009,0.012,0.015c0.007,0.011,0.013,0.022,0.019,0.033c0.019,0.036,0.031,0.078,0.047,0.118c0,0,0,0,0,0.001
			c0.011,0.03,0.026,0.055,0.034,0.087c0,0,0,0,0,0c0.001,0.003,0.002,0.005,0.003,0.008c0.003,0.012,0.005,0.024,0.008,0.036
			c0.019,0.083,0.032,0.171,0.032,0.263c0,0.116-0.016,0.227-0.046,0.328c-0.089,0.303-0.298,0.515-0.541,0.515
			c-0.031,0-0.06-0.006-0.089-0.013c-0.077,0.372-0.197,0.721-0.353,1.036c-0.156,0.315-0.348,0.597-0.568,0.836
			c-0.147,0.159-0.307,0.299-0.477,0.416l0.054,0.867l0,0.006c0,0.001,0,0.002,0,0.002l0,0.008h0.004l0-0.001
			C24.92,19.819,24.921,19.819,24.922,19.82z" fill="#000D6E"/></g><path d="M9.45,22.6c0.259,0,0.503-0.056,0.729-0.146C9.953,22.543,9.709,22.6,9.448,22.6
		C9.449,22.6,9.449,22.6,9.45,22.6z" fill="none"/><path d="M7.961,21.636c-0.009-0.142-0.013-0.271-0.019-0.403c0.006,0.134,0.01,0.264,0.018,0.407
		c0.01,0.1,0.01,0.21,0.02,0.32c0.232,0.252,0.536,0.435,0.877,0.541c-0.339-0.105-0.642-0.289-0.874-0.54
		C7.975,21.851,7.967,21.742,7.961,21.636z" fill="none"/><path d="M10.91,21.96c0.004-0.047,0.006-0.09,0.009-0.136C10.915,21.87,10.913,21.914,10.91,21.96
		C10.909,21.961,10.91,21.96,10.91,21.96z" fill="none"/><path d="M10.946,21.323c0.038-0.74,0.031-1.353,0.014-1.773c-0.007-0.151-0.014-0.271-0.022-0.375
		c0.007,0.103,0.014,0.222,0.021,0.371C10.977,19.97,10.982,20.581,10.946,21.323z" fill="none"/><path d="M7.961,21.636c0.007,0.106,0.014,0.214,0.022,0.325c0.232,0.251,0.534,0.434,0.874,0.54
		C9.044,22.559,9.239,22.6,9.446,22.6c0.001,0,0.001,0,0.002,0c0.261,0,0.505-0.056,0.731-0.146c0.28-0.111,0.531-0.277,0.73-0.492
		c0,0,0,0,0,0c0.004-0.047,0.006-0.091,0.009-0.137c0.003-0.062,0.006-0.126,0.011-0.184c0.008-0.111,0.011-0.212,0.016-0.318
		c0.035-0.742,0.03-1.353,0.012-1.776c-0.006-0.149-0.014-0.268-0.021-0.371c-0.015-0.206-0.028-0.325-0.028-0.325l0.001,0.001
		l0-0.001l0.006-0.918c0.752-0.497,1.319-1.37,1.546-2.419c0.028,0.005,0.055,0.012,0.084,0.012c0.359,0,0.649-0.4,0.649-0.893
		c0-0.406-0.199-0.745-0.469-0.853v0.151c0,0.053-0.021,0.099-0.05,0.138c-0.01,0.014-0.021,0.027-0.034,0.038
		c-0.021,0.018-0.045,0.033-0.072,0.042c-0.025,0.009-0.05,0.016-0.078,0.016c-0.129,0-0.234-0.105-0.234-0.234v-0.094v-0.67
		c0-0.034-0.003-0.063-0.004-0.096c-0.025-0.043-0.055-0.087-0.083-0.13c-0.159-0.245-0.37-0.489-0.646-0.704
		c-0.478,0.203-1.105,0.309-1.847,0.059c-0.303-0.102-0.546-0.213-0.746-0.326c-0.189-0.107-0.337-0.215-0.453-0.321
		c-0.448,0.075-0.818,0.196-1.117,0.321c-0.254,0.106-0.46,0.213-0.624,0.293c-0.039,0.155-0.076,0.346-0.094,0.579
		c-0.008,0.102-0.013,0.21-0.013,0.326v0.67v0.094c0,0.129-0.105,0.234-0.234,0.234c-0.013,0-0.025-0.005-0.038-0.008
		c-0.11-0.019-0.196-0.111-0.196-0.226v-0.151c-0.27,0.108-0.469,0.447-0.469,0.853c0,0.493,0.291,0.893,0.649,0.893
		c0.044,0,0.086-0.006,0.127-0.018c0.223,1.037,0.777,1.904,1.516,2.406H7.977l0.005,0.938c0,0-0.029,0.25-0.048,0.696
		c-0.012,0.283-0.017,0.654-0.011,1.085c0.003,0.188,0.01,0.389,0.019,0.602C7.948,21.365,7.952,21.495,7.961,21.636z" fill="#B8B2FF"/><g><path d="M7.99,22.04c0-0.03,0-0.05-0.01-0.08c-0.01-0.11-0.01-0.22-0.02-0.32
			c-0.008-0.143-0.013-0.273-0.018-0.407c-0.009-0.213-0.015-0.413-0.019-0.602c-0.008-0.43-0.005-0.801,0.007-1.081
			c0.02-0.45,0.05-0.7,0.05-0.7l-0.07,0.03l-4.6,2.33c-0.56,0.28-0.94,0.82-1.02,1.44L2,25h6.39c-0.09-0.39-0.22-1.12-0.35-2.4
			C8.02,22.41,8,22.22,7.99,22.04z" fill="#6C2273"/><path d="M16.599,22.65c-0.08-0.62-0.46-1.16-1.02-1.44l-4.6-2.33l-0.07-0.03c0,0,0.03,0.25,0.05,0.7
			c0.012,0.28,0.015,0.651,0.007,1.081c-0.003,0.188-0.01,0.389-0.019,0.602c-0.006,0.134-0.01,0.264-0.018,0.407
			c-0.01,0.1-0.01,0.21-0.02,0.32c-0.01,0.03-0.01,0.05-0.01,0.08c-0.01,0.18-0.03,0.37-0.05,0.56c-0.13,1.28-0.26,2.01-0.35,2.4
			h6.39L16.599,22.65z" fill="#6C2273"/></g><path d="M6.361,14.155c0.013,0.002,0.025,0.008,0.038,0.008c0.129,0,0.234-0.105,0.234-0.234v-0.094v-0.67
		c0-0.116,0.005-0.224,0.013-0.326c0.018-0.233,0.055-0.424,0.094-0.579c0.164-0.08,0.37-0.187,0.624-0.293
		c0.3-0.125,0.67-0.247,1.117-0.321c0.116,0.106,0.264,0.215,0.453,0.321c0.201,0.113,0.444,0.224,0.746,0.326
		c0.742,0.25,1.369,0.145,1.847-0.059c0.276,0.215,0.487,0.458,0.646,0.704c0.028,0.044,0.058,0.087,0.083,0.13
		c0.001,0.033,0.004,0.062,0.004,0.096v0.67v0.094c0,0.129,0.105,0.234,0.234,0.234c0.028,0,0.053-0.007,0.078-0.016
		c0.027-0.01,0.05-0.024,0.072-0.042c0.013-0.011,0.024-0.024,0.034-0.038c0.03-0.039,0.05-0.086,0.05-0.138v-0.151v-0.861
		c0.021-0.606,0.032-1.255,0-1.567c-0.068-0.673-1.329-2.344-3.281-2.344s-3.281,1.473-3.281,2.812v1.959v0.151
		C6.165,14.044,6.251,14.136,6.361,14.155z" fill="#000D6E"/><polygon points="22.146,19.814 22.145,19.822 22.146,19.821 	" fill="none"/><path d="M22.198,22.73c0.019,0.206,0.042,0.426,0.068,0.655c-0.026-0.231-0.047-0.449-0.066-0.657
		c-0.001-0.001-0.001-0.001-0.002-0.002V22.73z" fill="none"/><path d="M22.268,23.396c0.006,0.056,0.015,0.118,0.022,0.176C22.283,23.515,22.274,23.451,22.268,23.396z" fill="none"/><path d="M22.17,22.359c-0.007-0.097-0.015-0.197-0.021-0.289C22.155,22.163,22.162,22.26,22.17,22.359z" fill="none"/><path d="M24.777,23.525c-0.043,0.375-0.098,0.784-0.163,1.22C24.685,24.303,24.736,23.901,24.777,23.525z" fill="none"/><path d="M22.126,21.664c-0.008-0.166-0.016-0.333-0.019-0.475C22.11,21.335,22.117,21.494,22.126,21.664z" fill="none"/><path d="M24.908,22.19c0.01-0.02,0.01-0.04,0-0.06c0.003-0.041,0.004-0.074,0.007-0.114
		c-0.009,0.145-0.021,0.302-0.034,0.462C24.889,22.385,24.905,22.278,24.908,22.19z" fill="none"/><path d="M22.105,21.078c-0.002-0.141-0.003-0.27-0.002-0.387C22.102,20.808,22.102,20.937,22.105,21.078z" fill="none"/><path d="M22.597,12.749c-0.021-0.006-0.042-0.01-0.062-0.015C22.555,12.739,22.576,12.743,22.597,12.749
		C22.597,12.749,22.597,12.749,22.597,12.749z" fill="none"/><path d="M23.787,13.301c0.379,0.193,0.776,0.391,1.142,0.572C24.563,13.692,24.166,13.494,23.787,13.301z" fill="none"/><path d="M22.106,20.505c0.001-0.026,0.002-0.047,0.002-0.071C22.107,20.457,22.106,20.48,22.106,20.505z" fill="none"/><path d="M22.138,19.86c-0.008,0.048-0.015,0.142-0.018,0.257c0.011-0.159,0.021-0.27,0.024-0.295
		C22.144,19.831,22.145,19.834,22.138,19.86z" fill="none"/><path d="M22.2,22.729c-0.001-0.006-0.001-0.012-0.002-0.018v0.016C22.199,22.728,22.2,22.728,22.2,22.729z" fill="#FFACA6"/><path d="M22.145,19.812L22.145,19.812c0,0.006-0.003,0.016-0.004,0.023h0.003c0-0.003,0.001-0.012,0.001-0.013
		v0c0,0,0,0,0.001-0.001l0-0.006c0-0.002,0.002-0.014,0.002-0.014l-0.002,0.001l0-0.003c0,0.003-0.001,0.005-0.001,0.006
		C22.146,19.806,22.145,19.81,22.145,19.812z" fill="none"/><path d="M26.453,14.788c-0.034-0.009-0.065-0.03-0.101-0.03c0-0.073-0.003-0.352-0.003-0.408
		c-0.037-0.018-0.12-0.058-0.224-0.109c-0.07-0.034-0.145-0.07-0.24-0.116c0.235,0.114,0.402,0.195,0.464,0.225
		c0,0.056,0.003,0.336,0.003,0.408c0.064,0.001,0.122,0.026,0.179,0.054c-0.02-0.01-0.037-0.027-0.058-0.034
		C26.467,14.776,26.46,14.783,26.453,14.788z" fill="none"/><path d="M26.662,14.892c-0.006-0.005-0.012-0.009-0.018-0.014c-0.01-0.008-0.021-0.011-0.031-0.018c0,0,0,0,0,0
		c0.038,0.028,0.072,0.063,0.105,0.102c0,0,0,0,0,0C26.698,14.938,26.683,14.911,26.662,14.892z" fill="none"/><path d="M22.534,12.734c0.021,0.005,0.041,0.009,0.063,0.015c0,0,0,0,0,0
		C22.576,12.743,22.555,12.739,22.534,12.734z" fill="none"/><path d="M20.177,15.385c-0.013,0.069-0.021,0.14-0.022,0.214c0-0.098,0.017-0.19,0.039-0.278
		c-0.002,0.01-0.008,0.018-0.01,0.028C20.182,15.361,20.179,15.373,20.177,15.385z" fill="none"/><path d="M26.81,15.088c-0.006-0.011-0.012-0.022-0.019-0.033c-0.003-0.006-0.008-0.009-0.012-0.015c0,0,0,0,0,0
		c0.031,0.05,0.055,0.108,0.078,0.167c0,0,0,0,0-0.001C26.841,15.166,26.829,15.123,26.81,15.088z" fill="none"/><path d="M20.849,16.428c-0.035,0.009-0.07,0.015-0.106,0.015C20.779,16.444,20.814,16.438,20.849,16.428
		L20.849,16.428z" fill="none"/><path d="M26.258,16.431c-0.077,0.372-0.197,0.721-0.353,1.036C26.061,17.152,26.181,16.803,26.258,16.431
		L26.258,16.431z" fill="none"/><polygon points="22.148,19.79 22.148,19.79 22.199,18.963 22.147,19.801 22.147,19.798 	" fill="none"/><path d="M26.894,15.301c-0.001-0.003-0.002-0.005-0.003-0.008c0,0,0,0,0,0c0.026,0.096,0.043,0.198,0.043,0.308
		c0-0.093-0.013-0.18-0.032-0.263C26.899,15.325,26.897,15.313,26.894,15.301z" fill="none"/><polygon points="24.86,18.937 24.914,19.804 24.914,19.804 24.914,19.81 24.914,19.804 	" fill="none"/><polygon points="24.922,19.82 24.927,19.821 24.926,19.82 	" fill="#94E3D4"/><path d="M24.881,22.469c0.008-0.092,0.019-0.182,0.026-0.274c0.001-0.014,0.002-0.028,0.003-0.043
		c0.008-0.143,0.013-0.285,0.021-0.428c0.002-0.038,0.004-0.077,0.006-0.115c0.014-0.218,0.013-0.438,0.021-0.656
		c0.007-0.213,0.007-0.426-0.004-0.638c-0.002-0.037-0.031-0.491-0.035-0.495h-0.004l0-0.008c0,0,0-0.001,0-0.002
		c0-0.003-0.001-0.006-0.001-0.006l0.001,0l-0.054-0.867c0.17-0.118,0.33-0.257,0.477-0.416c0.22-0.239,0.412-0.52,0.568-0.836
		c0.156-0.315,0.276-0.664,0.353-1.036h0c0.029,0.006,0.059,0.013,0.089,0.013c0.243,0,0.452-0.212,0.541-0.515
		c0.03-0.101,0.046-0.212,0.046-0.328c0-0.109-0.017-0.212-0.043-0.308c-0.009-0.032-0.023-0.057-0.034-0.087
		c-0.023-0.06-0.047-0.117-0.078-0.167c-0.019-0.029-0.04-0.052-0.061-0.077c-0.032-0.039-0.067-0.074-0.105-0.102
		c-0.026-0.02-0.053-0.034-0.081-0.047c-0.057-0.028-0.116-0.053-0.179-0.054c0-0.073-0.003-0.352-0.003-0.408
		c-0.062-0.03-0.229-0.111-0.464-0.225c-0.256-0.125-0.591-0.289-0.957-0.47c-0.366-0.181-0.763-0.379-1.142-0.572
		c-0.245-0.125-0.483-0.247-0.7-0.361c-0.172-0.09-0.334-0.148-0.491-0.192c-0.021-0.006-0.042-0.01-0.063-0.015
		c-0.795-0.198-1.393,0.12-1.779,0.306c-0.008,0.043-0.015,0.121-0.018,0.192c-0.004,0.071-0.005,0.135-0.005,0.148
		c0.002,0.24,0.008,1.007,0.012,1.596c-0.001,0-0.001,0-0.002,0c-0.255,0-0.467,0.237-0.548,0.564
		c-0.022,0.088-0.039,0.179-0.039,0.278c0,0.001,0,0.001,0,0.002c0,0.349,0.148,0.649,0.359,0.777
		c0.07,0.043,0.147,0.066,0.228,0.066c0.036,0,0.072-0.006,0.106-0.015v0c0.199,0.97,0.693,1.781,1.349,2.256l0.001,0.059
		l-0.052,0.828l0.001,0c0,0-0.001,0.004-0.001,0.008l0,0.003l0.002-0.001c0,0-0.002,0.012-0.002,0.014l0,0.006c0,0,0,0-0.001,0.001
		v0c0,0.002-0.001,0.011-0.001,0.013h-0.003c-0.001,0.005,0,0.005-0.003,0.015c-0.008,0.048-0.015,0.142-0.018,0.257
		c-0.001,0.029-0.003,0.051-0.003,0.083c-0.004,0.067-0.008,0.148-0.011,0.233c-0.001,0.023-0.002,0.047-0.002,0.071
		c-0.002,0.057-0.002,0.122-0.003,0.187c-0.001,0.117,0,0.246,0.002,0.387c0.001,0.038,0.001,0.072,0.002,0.111
		c0.004,0.146,0.01,0.305,0.019,0.475c0.001,0.023,0.001,0.042,0.003,0.066c0.004,0.108,0.012,0.224,0.02,0.341
		c0.007,0.093,0.013,0.19,0.021,0.289c0.009,0.111,0.018,0.22,0.028,0.339c0,0.001,0,0.001,0,0.002v0.009
		c0.324,0.376,0.797,0.619,1.332,0.619c0.534,0,1.005-0.243,1.329-0.616c0-0.004,0.001-0.007,0.001-0.011
		C24.868,22.615,24.875,22.54,24.881,22.469z" fill="#B8B2FF"/><path d="M18.237,21.089c0.103,0,0.194-0.054,0.275-0.128c-0.081,0.074-0.172,0.128-0.277,0.128
		C18.236,21.089,18.237,21.089,18.237,21.089z" fill="none"/><path d="M17.904,21.356c-0.167,0.32-0.384,0.602-0.644,0.827C17.521,21.959,17.738,21.678,17.904,21.356z" fill="none"/><path d="M18.585,19.791c-0.091-0.119-0.209-0.197-0.342-0.199c-0.001-0.1-0.002-0.216-0.003-0.337
		c-0.001,0-0.001,0-0.002-0.001c0.001,0.121,0.003,0.239,0.004,0.34C18.375,19.594,18.493,19.672,18.585,19.791z" fill="none"/><path d="M18.055,21.036c0.053,0.029,0.109,0.046,0.168,0.049C18.166,21.082,18.104,21.064,18.055,21.036
		C18.055,21.036,18.055,21.036,18.055,21.036z" fill="none"/><g><path d="M18.585,19.791c-0.091-0.119-0.209-0.197-0.342-0.199c-0.001-0.1-0.002-0.216-0.003-0.337
			c-0.001,0-0.001,0-0.002-0.001c0.001,0.121,0.003,0.239,0.004,0.34C18.375,19.594,18.493,19.672,18.585,19.791z" fill="none"/><polygon points="16.974,23.326 16.974,23.326 16.974,23.325 		" fill="none"/><path d="M13.257,21.089c-0.11,0-0.206-0.059-0.289-0.141c0.083,0.082,0.178,0.142,0.287,0.142
			c0.07,0,0.137-0.021,0.198-0.057c0.051,0.138,0.113,0.269,0.182,0.395c-0.069-0.126-0.132-0.258-0.183-0.398
			C13.393,21.066,13.325,21.089,13.257,21.089z" fill="none"/><path d="M13.253,18.638c-0.001-0.122-0.002-0.236-0.002-0.322l-0.003,0.003
			c0.001,0.086,0.002,0.199,0.003,0.319c0,0.002,0,0.005,0,0.007c0.002,0.222,0.004,0.478,0.006,0.71
			c-0.001-0.233-0.002-0.49-0.004-0.712C13.253,18.641,13.253,18.639,13.253,18.638z" fill="none"/><path d="M18.055,21.036c0.053,0.029,0.109,0.046,0.168,0.049C18.166,21.082,18.104,21.064,18.055,21.036
			C18.055,21.036,18.055,21.036,18.055,21.036z" fill="none"/><path d="M18.237,21.089c0.103,0,0.194-0.054,0.275-0.128c-0.081,0.074-0.172,0.128-0.277,0.128
			C18.236,21.089,18.237,21.089,18.237,21.089z" fill="none"/><path d="M17.904,21.356c-0.167,0.32-0.384,0.602-0.644,0.827C17.521,21.959,17.738,21.678,17.904,21.356z" fill="none"/><path d="M12.874,23.716c0.069-0.02,0.139-0.04,0.208-0.059c0.001,0,0.001,0,0.002-0.001l0.011-0.003
			l1.415-0.327v-0.002l0.001,0l0-0.021l0.038-0.893c-0.352-0.222-0.65-0.536-0.873-0.916c-0.009-0.015-0.02-0.028-0.029-0.043
			c-0.004-0.008-0.007-0.017-0.012-0.025c-0.069-0.125-0.131-0.256-0.182-0.395c-0.061,0.036-0.128,0.057-0.198,0.057
			c-0.109,0-0.204-0.059-0.287-0.142c-0.002-0.002-0.005-0.003-0.007-0.006c-0.136-0.136-0.229-0.35-0.229-0.604
			c0-0.206,0.058-0.394,0.153-0.53c0.095-0.136,0.226-0.221,0.373-0.221c0-0.071,0-0.15,0-0.232
			c-0.002-0.232-0.004-0.488-0.006-0.71c0-0.002,0-0.005,0-0.007c-0.001-0.12-0.002-0.233-0.003-0.319l0.003-0.003l0.011-0.011
			c0.414-0.198,1.113-0.605,2.081-0.097c0.826,0.434,2.222,0.853,2.896,1.048c0.001,0,0.001,0,0.002,0.001
			c0.001,0.12,0.002,0.237,0.003,0.337c0.133,0.002,0.25,0.081,0.342,0.199c0.106,0.137,0.176,0.329,0.176,0.547
			c0,0.266-0.102,0.49-0.249,0.623c-0.081,0.074-0.172,0.128-0.275,0.128c-0.001,0-0.001-0.001-0.002-0.001c0,0-0.001,0-0.001,0
			c-0.004,0-0.007-0.003-0.011-0.003c-0.059-0.003-0.115-0.02-0.168-0.049c-0.042,0.112-0.096,0.216-0.151,0.32
			c-0.166,0.321-0.383,0.603-0.644,0.827c-0.107,0.092-0.22,0.177-0.339,0.25l0.038,0.533l0.015,0.225v0.085v0.035v0.015v0.001
			l1.428,0.329l0.002,0c0.001,0,0.002,0.001,0.003,0.001c0.069,0.02,0.138,0.039,0.207,0.059v0.006
			c0.252,0.078,0.483,0.163,0.681,0.265v-4.229c0-0.11-0.017-0.214-0.025-0.322c0,0,0,0,0,0c-0.029-0.427-0.108-0.832-0.24-1.205
			c-0.014-0.04-0.032-0.075-0.047-0.114c-0.056-0.144-0.111-0.288-0.18-0.421c-0.091-0.177-0.192-0.344-0.304-0.498
			c-0.013-0.025-0.031-0.049-0.047-0.073c-0.018-0.028-0.035-0.056-0.053-0.083c-0.486-0.757-1.475-1.378-2.627-1.378
			c-0.029,0-0.054,0.008-0.083,0.009c-0.394,0.011-0.765,0.095-1.104,0.231c-0.441,0.177-0.829,0.433-1.125,0.743
			c-0.171,0.145-0.326,0.316-0.469,0.502c-0.011,0.014-0.023,0.027-0.033,0.041c-0.139,0.187-0.26,0.395-0.367,0.617
			c-0.007,0.015-0.015,0.029-0.022,0.044c-0.089,0.19-0.155,0.398-0.216,0.609c-0.012,0.043-0.032,0.08-0.044,0.123
			c-0.002,0.008-0.004,0.015-0.006,0.023c-0.034,0.133-0.044,0.278-0.066,0.417c-0.022,0.138-0.056,0.271-0.065,0.415c0,0,0,0,0,0
			c-0.007,0.107-0.016,0.213-0.016,0.322v1.179v3.071c0.206-0.111,0.45-0.202,0.717-0.285V23.716z" fill="#000D6E"/><path d="M20.274,25.576c0-0.785-0.347-1.262-0.979-1.589c-0.198-0.102-0.429-0.188-0.681-0.265v4.276h1.66
			V25.576z" fill="#B8B2FF"/><path d="M12.156,24.008c-0.608,0.326-0.943,0.799-0.943,1.568v2.423h1.66v-4.276
			C12.606,23.805,12.362,23.897,12.156,24.008z" fill="#B8B2FF"/><path d="M16.974,23.311v-0.035v-0.085l-0.015-0.225l-0.038-0.533c0.119-0.073,0.232-0.157,0.339-0.25
			c0.261-0.224,0.477-0.506,0.644-0.827c0.054-0.104,0.108-0.208,0.151-0.32c0,0,0,0,0,0c0.049,0.028,0.111,0.046,0.168,0.049
			c0.004,0,0.007,0.003,0.011,0.003c0,0,0.001,0,0.001,0c0.104,0,0.195-0.054,0.277-0.128c0.147-0.134,0.249-0.357,0.249-0.623
			c0-0.217-0.07-0.41-0.176-0.547c-0.092-0.118-0.21-0.197-0.342-0.197c-0.001-0.101-0.003-0.219-0.004-0.34
			c-0.674-0.195-2.07-0.613-2.896-1.048c-0.968-0.508-1.667-0.101-2.081,0.097l-0.011,0.011c0.001,0.086,0.001,0.2,0.002,0.322
			c0,0.002,0,0.003,0,0.005c0.001,0.222,0.003,0.479,0.004,0.712c0,0.082,0,0.161,0,0.232c-0.146,0-0.278,0.085-0.373,0.221
			c-0.095,0.136-0.153,0.324-0.153,0.53c0,0.254,0.094,0.468,0.229,0.604c0.002,0.002,0.005,0.003,0.007,0.006
			c0.083,0.082,0.179,0.141,0.289,0.141c0.068,0,0.135-0.023,0.195-0.06c0.051,0.14,0.114,0.272,0.183,0.398
			c0.004,0.008,0.007,0.017,0.012,0.025c0.009,0.015,0.02,0.028,0.029,0.043c0.222,0.379,0.521,0.694,0.873,0.916l-0.038,0.893
			l0,0.021l-0.001,0v0.002l0.001,0l0.002-0.001c0.27,0.4,0.71,0.66,1.23,0.66s0.96-0.26,1.23-0.66l0,0v-0.001V23.311z" fill="#B8B2FF"/><polygon points="13.082,23.656 13.084,23.656 13.095,23.653 13.084,23.656 		" fill="#B8B2FF"/><polygon points="18.402,23.655 18.404,23.656 18.406,23.657 18.404,23.656 		" fill="#B8B2FF"/><path d="M18.614,23.716c-0.069-0.02-0.138-0.039-0.207-0.059c-0.001,0-0.002-0.001-0.003-0.001l-0.002,0
			l-1.428-0.329l0,0l0,0c-0.27,0.4-0.71,0.66-1.23,0.66s-0.96-0.26-1.23-0.66l-0.002,0.001l-0.001,0l-1.415,0.327l-0.011,0.003
			c-0.001,0-0.001,0-0.002,0.001c-0.069,0.02-0.139,0.04-0.208,0.059v0.007v4.276v0h5.74v0v-4.276V23.716z" fill="#6C2273"/></g><path d="M37.099,36.029H31.64h-2.723c-0.502,0-0.909,0.448-0.909,1c0,0.543,0.394,0.979,0.884,0.995
		c0.009,0,0.016,0.005,0.025,0.005h8.182c0.502,0,0.909-0.448,0.909-1C38.008,36.477,37.601,36.029,37.099,36.029z" fill="#000D6E"/><path d="M37.099,33.028H31.64h-2.723c-0.502,0-0.909,0.448-0.909,1c0,0.552,0.407,1,0.909,1h2.723h5.459
		c0.502,0,0.909-0.448,0.909-1C38.008,33.476,37.601,33.028,37.099,33.028z" fill="#000D6E"/><path d="M37.099,30.027H31.64h-2.723c-0.502,0-0.909,0.448-0.909,1s0.407,1,0.909,1h2.723h5.459
		c0.502,0,0.909-0.448,0.909-1S37.601,30.027,37.099,30.027z" fill="#000D6E"/><polygon points="24.922,19.82 24.927,19.821 24.926,19.82 	" fill="none"/><g><path d="M28,24c0,2.761,2.239,5,5,5s5-2.239,5-5s-2.239-5-5-5S28,21.239,28,24z M34.94,22.607h1.664v0.465
			h-1.127v0.555h0.994v0.464h-0.994v1.02H34.94V22.607z M32.308,22.607h0.537v0.987h0.954v-0.987h0.537v2.503h-0.537v-1.037h-0.954
			v1.037h-0.537V22.607z M30.707,22.56c0.645,0,1.041,0.396,1.174,0.817l-0.515,0.209c-0.086-0.313-0.306-0.519-0.673-0.519
			c-0.429,0-0.731,0.317-0.731,0.792c0,0.473,0.303,0.789,0.735,0.789c0.367,0,0.583-0.201,0.67-0.519l0.515,0.209
			c-0.137,0.436-0.537,0.817-1.177,0.817c-0.731,0-1.286-0.544-1.286-1.297C29.418,23.104,29.972,22.56,30.707,22.56z" fill="#000D6E"/></g></g></svg>