<?xml version="1.0" encoding="UTF-8"?><svg xmlns="http://www.w3.org/2000/svg" viewBox="0 0 40 40" focusable="false" aria-hidden="true"><defs><style>.cls-1{fill:none;}.cls-2{fill:#000d6e;}.cls-3{fill:#ffaca6;}.cls-4{fill:#d9304c;}</style></defs><g id="Solid"><rect class="cls-1" width="40" height="40"/></g><g id="Icon_Red"><polygon class="cls-4" points="29 6 25 6 25 8.31 29 11.99 29 6"/><path class="cls-3" d="M19.4,8.33l-9.4,8.67v17H30V17l-9.41-8.68c-.33-.3-.85-.3-1.19,.01Z"/><path class="cls-2" d="M32.34,16.43L21.94,6.84c-1.11-.99-2.77-.99-3.88,0L7.66,16.43h0s.34,.37,.34,.37l.34,.37L18.73,7.59c.72-.65,1.82-.65,2.54,0l10.39,9.58,.34-.37,.34-.37h0Z"/><path class="cls-2" d="M26.06,22.05l-1.85-1.85,.3-.3c.2-.2,.2-.51,0-.71s-.51-.2-.71,0l-5.38,5.38c-.6-.39-1.31-.6-2.04-.57-.93,.04-1.8,.44-2.43,1.12s-.96,1.58-.92,2.51c.04,.93,.44,1.8,1.12,2.43,.65,.6,1.49,.93,2.37,.93,.05,0,.1,0,.15,0,.93-.04,1.8-.44,2.43-1.12,.63-.69,.96-1.58,.92-2.51-.03-.79-.34-1.53-.85-2.12l2.53-2.53,1.38,1.38c.1,.1,.23,.15,.35,.15s.26-.05,.35-.15c.2-.2,.2-.51,0-.71l-1.38-1.38,1.1-1.1,1.85,1.85c.1,.1,.23,.15,.35,.15s.26-.05,.35-.15c.2-.2,.2-.51,0-.71Zm-7.7,7.15c-.45,.49-1.07,.78-1.74,.8h0c-.66,.04-1.3-.21-1.8-.66-.49-.45-.78-1.07-.8-1.74-.03-.67,.21-1.3,.66-1.79,.45-.49,1.07-.78,1.74-.8,.03,0,.07,0,.1,0,.63,0,1.23,.23,1.69,.66,.49,.45,.78,1.07,.8,1.74,.03,.67-.21,1.3-.66,1.8Z"/></g></svg>