<?xml version="1.0" encoding="iso-8859-1"?><!--Generator: Adobe Illustrator 26.2.1, SVG Export Plug-In . SVG Version: 6.00 Build 0)--><svg version="1.1" xmlns="http://www.w3.org/2000/svg" xmlns:xlink="http://www.w3.org/1999/xlink" x="0px" y="0px" viewBox="0 0 40 40" style="enable-background:new 0 0 40 40" xml:space="preserve" focusable="false" aria-hidden="true"><g id="Solid"><rect style="fill:none" width="40" height="40"/></g><g id="Icon_Tangerine"><polygon style="fill:#FA9319" points="29,6 25,6 25,8.306 29,11.994 	"/><path style="fill:#FAE052" d="M19.398,8.331L10,16.997V34h20V16.997l-9.412-8.679C20.259,8.021,19.74,8.022,19.398,8.331z"/><path style="fill:#000D6E" d="M32.339,16.433L21.94,6.844c-1.106-0.992-2.773-0.993-3.884,0.005L7.661,16.433l0,0L8,16.801
		l0.339,0.367l10.39-9.58c0.724-0.651,1.817-0.65,2.538-0.005l10.395,9.585L32,16.801L32.339,16.433L32.339,16.433z"/><path style="fill:#000D6E" d="M26.057,22.048l-1.848-1.848l0.304-0.304c0.195-0.195,0.195-0.512,0-0.707s-0.512-0.195-0.707,0
		l-5.382,5.383c-0.603-0.394-1.306-0.599-2.043-0.568c-0.934,0.038-1.798,0.437-2.432,1.124s-0.962,1.58-0.924,2.515
		c0.038,0.934,0.437,1.797,1.124,2.431C14.799,30.674,15.636,31,16.517,31c0.048,0,0.097-0.001,0.146-0.003
		c0.934-0.038,1.797-0.438,2.431-1.124c0.634-0.688,0.962-1.58,0.924-2.515c-0.032-0.793-0.338-1.527-0.847-2.121l2.526-2.526
		l1.38,1.381c0.098,0.098,0.226,0.146,0.354,0.146s0.256-0.049,0.354-0.146c0.195-0.195,0.195-0.512,0-0.707l-1.38-1.381
		l1.098-1.098l1.848,1.848c0.098,0.098,0.226,0.146,0.354,0.146s0.256-0.049,0.354-0.146C26.252,22.56,26.252,22.243,26.057,22.048z
		 M18.358,29.195c-0.453,0.49-1.069,0.775-1.736,0.802h0c-0.659,0.041-1.305-0.207-1.795-0.659
		c-0.491-0.453-0.776-1.069-0.803-1.737c-0.027-0.667,0.208-1.305,0.66-1.795c0.453-0.491,1.07-0.776,1.737-0.803
		C16.455,25.001,16.49,25,16.524,25c0.629,0,1.226,0.233,1.691,0.662c0.491,0.453,0.776,1.069,0.803,1.737
		C19.045,28.066,18.811,28.704,18.358,29.195z"/></g><g id="Guides" style="display:none"/><g id="Grid" style="display:none"><g style="display:inline"><g/><g/><g/><g/><g/><g/><g/><g/><g/><g/><g/><g/><g/><g/><g/><g/><g/><g/><g/><g/><g/><g/><g/><g/><g/><g/><g/><g/><g/><g/><g/><g/><g/><g/><g/><g/><g/><g/><g/><g/></g></g></svg>