<?xml version="1.0" encoding="UTF-8"?><svg xmlns="http://www.w3.org/2000/svg" viewBox="0 0 40 40" focusable="false" aria-hidden="true"><defs><style>.cls-1 {
        fill: none;
      }

      .cls-2 {
        fill: #000d6e;
      }

      .cls-3 {
        fill: #ffaca6;
      }

      .cls-4 {
        fill: #d9304c;
      }</style></defs><g id="Solid"><rect class="cls-1" width="40" height="40"/></g><g id="Icon_Red" data-name="Icon Red"><path class="cls-3" d="m23.512054,20.930996c1.008924-.780055,2.023324-1.552931,3.035594-2.328605.19255-.147591.39897-.305403.603383-.461754l.405176,2.918787c-.831462.635141-1.662012,1.271498-2.492866,1.90749-.223394.171013-.477207.259288-.757302.265311-.54644.011802-1.044027-.330103-1.227634-.838702-.191151-.529405-.02762-1.10596.433648-1.462527Z"/><g><path class="cls-2" d="m27.806086,24.759338l-6.487183-9.749573-.294434-.207031c-.522949-.132812-1.344238-.503906-1.446289-.879883-.062988-.229492-.055664-.387695.021973-.469727.447266-.481445,2.576172-.041016,3.378418.125.248047.050781.45752.09375.608398.118164l.15625-.988281c-.139648-.021484-.333496-.0625-.5625-.109375-1.758789-.363281-3.540527-.649414-4.30957.169922-.228027.242188-.45752.685547-.257812,1.417969.249512.914062,1.477539,1.378906,1.975098,1.53125l6.454651,9.699402c.157593-.135681.315552-.270874.472473-.407349.096497-.083923.19397-.166687.290527-.250488Z"/><path class="cls-3" d="m36.950312,22.081299c-.432678-1.461243-.878662-2.918823-1.342224-4.370544-.174011-.544983-.54541-.961182-1.052124-1.232422-1.10376-.590881-2.211243-1.175171-3.323425-1.749939-.518555-.267944-1.062805-.441833-1.662231-.318481-1.018982.209778-1.762146,1.242798-1.619324,2.271912.296204,2.133972.594543,4.2677.899841,6.400452.066711.465576-.061401.835327-.423035,1.141052-.208984.176636-.415039.356628-.621704.536011-.096558.083801-.194031.166565-.290527.250488-.156921.136475-.31488.271667-.472473.407349-.121765.104858-.243042.210327-.365112.314758-.059326.050781-.117859.102417-.177368.152954-.532043.451477-.836548,1.015808-.88916,1.710999-.145081,1.916443-.292847,3.832642-.426697,5.749817-.060852.871887.59259,1.595947,1.45813,1.651184.828247.052917,1.54718-.582092,1.615234-1.444885.138123-1.753052.269043-3.506714.396423-5.260559.010559-.145264.060974-.241089.169983-.333984.977356-.832886,1.927795-1.699036,2.930481-2.499817,1.079529-.862183,1.415588-1.942871,1.195679-3.272034-.206848-1.250427-.361389-2.50946-.538269-3.764832-.006348-.04541-.005676-.091797-.010803-.183105.276733.144958.51593.272339.757202.39563.098694.050415.106384.149109.132812.235046.391541,1.27063.782776,2.541382,1.169678,3.813416.228394.750977.920166,1.15686,1.622742.944214.659241-.199524,1.062195-.882812.866272-1.544678Z"/></g><path class="cls-3" d="m28.908498,8.708037c-1.363396-.003144-2.469282,1.094096-2.473846,2.454505-.004603,1.372777,1.097996,2.484092,2.468877,2.488391,1.356047.004254,2.468172-1.101809,2.473516-2.460034.005412-1.375705-1.092205-2.479688-2.468548-2.482862Z"/><path class="cls-3" d="m33.11095,25.617287c.161827.503245.322255,1.002232.480492,1.493797.623825,1.938395,1.247102,3.876973,1.872265,5.814943.127028.393921.122404.78115-.046784,1.160592-.254908.571809-.839979.936285-1.454192.911463-.651202-.026282-1.210235-.437176-1.415317-1.069579-.664768-2.049788-1.319498-4.10274-1.9867-6.15192l2.550235-2.159295Z"/><circle class="cls-1" cx="12.621544" cy="24.244826" r="1.697919"/><path class="cls-2" d="m11,33.866391c0,.626031.491624,1.133609,1.119189,1.133609h3.744549c.627566,0,1.136262-.507578,1.136262-1.133609v-3.866391h-6v3.866391Z"/><path class="cls-4" d="m17.934904,15h-1.869808c-.312072,0-.565096.258815-.565096.578187v.843626c0,.319302.253024.578187.565096.578187h1.869808c.312072,0,.565096-.258886.565096-.578187v-.843626c0-.319372-.253024-.578187-.565096-.578187Z"/><path class="cls-4" d="m15.077848,18.019122H3v10.990644h13.991545v-5.851633c0-.599896-.113167-1.18853-.350901-1.743172l-1.562796-3.395839Zm-2.456304,7.923624c-.939535,0-1.697919-.758454-1.697919-1.697919,0-.939535.758385-1.697919,1.697919-1.697919s1.697919.758385,1.697919,1.697919c0,.939466-.758385,1.697919-1.697919,1.697919Z"/><path class="cls-3" d="m14.696824,17l-2.902478-6.910019c-.527284-1.265583-1.763692-2.089981-3.134615-2.089981H3v9h11.696824Z"/></g></svg>