<svg xmlns="http://www.w3.org/2000/svg" viewBox="0 0 40 40" focusable="false" aria-hidden="true"><defs><style>.cls-1{fill:none;}.cls-2{fill:#6c2273;}.cls-3{fill:#000d6e;}.cls-4{fill:#b8b2ff;}</style></defs><g id="Solid"><rect class="cls-1" width="40" height="40"/></g><g id="Icon_Purple" data-name="Icon Purple"><path class="cls-2" d="M30.1175,20.3957c-1.026,1.6293-2.5182,4.1992-2.5182,5.3749a3.24,3.24,0,0,0,6.4809,0c0-1.1963-1.3452-3.8371-2.2388-5.4605Z"/><path class="cls-3" d="M29.5411,33H10.4589a.4051.4051,0,1,1,0-.81H29.5411a.4051.4051,0,1,1,0,.81Z"/><path class="cls-4" d="M31.8774,16.2536l-4.6893.2326-1.9676-3.053a2.9873,2.9873,0,0,0,.473.0477,3.2957,3.2957,0,1,0-3.0607-2.22L18.2251,9.3028a1.62,1.62,0,0,0-1.7528.2872l-4.1506,3.8061a1.62,1.62,0,1,0,2.19,2.3876L17.88,12.6951l1.2815.5693-2.4026,3.4961c-.03.0442-.0488.0925-.0765.1376l-3.5987,5.12L8.8691,20.437a1.6205,1.6205,0,0,0-1.1376,3.0348l5.3879,2.02a1.6218,1.6218,0,0,0,1.8944-.5855l2.563-3.6462,2.745,4.1328L18.6282,29.909a1.7052,1.7052,0,0,0,.9438,2.1942,1.6176,1.6176,0,0,0,2.0539-.96l2.0206-5.3876a1.62,1.62,0,0,0-.1674-1.465l-1.8555-2.7939a.81.81,0,0,1,.0071-.907l.9339-1.3588-.0076-.0052,1.3117-1.9087,1.1026,1.711a1.62,1.62,0,0,0,1.3616.7429q.04,0,.0807-.0024l5.6244-.2792a1.62,1.62,0,1,0-.1606-3.2357Z"/></g></svg>