<?xml version="1.0" encoding="UTF-8"?><svg xmlns="http://www.w3.org/2000/svg" viewBox="0 0 40 40" focusable="false" aria-hidden="true"><g id="Solid"><rect width="40" height="40" fill="none"/></g><g id="Icon_Tangerine"><g><path d="M6.93825772,23.00772094h-1.91156006v7.98571777h1.91156006c.59814453,0,1.08306885-.48492432,1.08306885-1.08312988v-5.81951904c0-.59814453-.48492432-1.08306885-1.08306885-1.08306885Z" fill="#fae052"/><path d="M34.94735195,26.22463989c-.13317871-.70776367-.75134277-1.22045898-1.47149658-1.22045898l-.29846191,.03173828-7.18817139,1.72491455v.23974609c0,1.28552246-1.18048096,1.99645996-1.99645996,1.99645996H15.00887539c-.2756958,0-.49914551-.22344971-.49914551-.49914551,0-.27563477,.22344971-.49908447,.49914551-.49908447h8.98388672c.28411865,0,.99822998-.29693604,.99822998-.99822998v-.00024414l-.00061035,.00018311c.00018311-.00854492,.00061035-.01702881,.00061035-.02563477v-.97277832c0-.02185059-.00067139-.04327393-.0020752-.06439209-.00018311-.00335693-.00067139-.0065918-.00097656-.01000977-.02490234-.33258057-.21429443-.56732178-.43005371-.71673584-.00268555-.00189209-.00537109-.00354004-.00805664-.00537109-.0246582-.01678467-.04956055-.03265381-.07458496-.04724121-.00500488-.00286865-.0100708-.0055542-.01507568-.00836182-.02282715-.01287842-.0456543-.02508545-.06848145-.03619385-.00213623-.00109863-.00421143-.00195312-.00634766-.00299072-.01177979-.00567627-.02349854-.01116943-.03515625-.01635742-.01177979-.00524902-.0234375-.01013184-.03509521-.01489258-.00201416-.00079346-.00402832-.00177002-.00598145-.00256348-.00897217-.00360107-.01776123-.00683594-.02655029-.01013184-.00463867-.00177002-.00933838-.00366211-.01391602-.00537109-.00958252-.003479-.01898193-.0065918-.02838135-.00970459-.00372314-.00128174-.00756836-.00268555-.0112915-.00390625-.00878906-.00280762-.01739502-.00531006-.02600098-.00787354-.00421143-.0012207-.00842285-.00268555-.01257324-.00384521-.00256348-.00073242-.00500488-.00128174-.00756836-.00195312-.02258301-.00628662-.04455566-.01165771-.06555176-.01593018-.00134277-.00024414-.00256348-.00042725-.00384521-.00067139-.04516602-.00897217-.08612061-.01342773-.1206665-.01342773h-5.01525879c-.00018311-.00018311-.00036621-.00036621-.00061035-.00048828-.52130127-.01025391-1.00592041-.3414917-1.56561279-.72436523-.03063965-.02093506-.06164551-.04211426-.09277344-.06341553-.00750732-.00506592-.01507568-.01019287-.02258301-.01531982-.02746582-.01873779-.05511475-.03753662-.08300781-.05639648-.00634766-.00427246-.01257324-.00848389-.0189209-.01275635-.06896973-.04656982-.1394043-.09350586-.21142578-.14050293-.00341797-.00219727-.00689697-.00445557-.01037598-.00671387-.03460693-.02252197-.06958008-.04504395-.10498047-.06750488l-.00549316-.003479c-.07666016-.04858398-.15515137-.09692383-.23565674-.14453125-.00018311-.00012207-.00036621-.00024414-.00054932-.00030518-.36535645-.21600342-.77197266-.41674805-1.23608398-.55773926-.56298828-.13220215-1.13171387-.20294189-1.68920898-.20294189h-3.67687988c-.55444336,0-1.00378418,.44946289-1.00378418,1.00384521v3.98724365h.00469971c-.00274658,.03723145-.00469971,.07458496-.00469971,.11224365v1.88415527s-.00097656,.64178467,.99725342,.99822998c.99822998,.35650635,6.46826172,2.61187744,6.60174561,2.6663208,.54107666,.22070312,1.11633301,.33251953,1.69458008,.33251953,.50683594,0,1.01605225-.08599854,1.50616455-.2598877,.01452637-.00512695,14.20068359-5.8359375,14.20068359-5.8359375,.67095947-.26177979,1.06048584-.96405029,.92736816-1.67181396Z" fill="#fa9319"/><path d="M14.25192079,18.66813357c-.32199661,.00146019-.58188488,.26260724-.58042469,.58334507,.00143501,.32071265,.26363944,.57954354,.58563605,.57813371,.32199661-.00146019,.5818597-.26263242,.58042469-.58334507s-.26363944-.57954354-.58563605-.57813371Z" fill="none"/><path d="M33.14409946,17.06273249l-.64220575-.57191532c-.12044033-.10724828-.28337716-.16711599-.45298553-.16638589h-8.04890818v2.33332992l1.20770127-.00516101,1.19564214-.29249074,1.19831076,.28221908,1.19564214-.29249074,1.19833593,.2821939,1.19564214-.29249074,.86833346,.28360374c.16960838-.00073009,.33199134-.06195728,.45142464-.17026294l.63684333-.57742879c.24871028-.22549833,.24702351-.58936205-.00377635-.81272045Z" fill="#fa9319"/><path d="M22.98431396,15.72546388c-.0043335-.9621582-.79095459-1.73864746-1.75689697-1.734375l-4.69873047,.02099609c-2.23492432,.00994873-4.03863525,1.82263184-4.02862549,4.04876709l.00537109,1.19580078c.0043335,.9621582,.79089355,1.7387085,1.75695801,1.734375l6.99633789-.03118896c.96594238-.0043335,1.74560547-.78778076,1.74127197-1.74993896l-.01568604-3.48443604Zm-8.48431396,4.27453613c-.27612305,0-.5-.22387695-.5-.5,0-.27618408,.22387695-.5,.5-.5s.5,.22381592,.5,.5c0,.27612305-.22387695,.5-.5,.5Z" fill="#000d6e"/><path d="M21.98539881,15.61988632c-.00134184-.3424298-.2469696-.62139073-.5458473-.61988021l-4.89857169,.02508544c-.29887771,.00151052-.54231614,.28297999-.5409743,.62546374l.01459548,3.72958515c.00134184,.3424298,.2469696,.62139073,.54587084,.61985323l4.89854815-.02505847c.29890125-.00153749,.54233968-.28300697,.5409743-.62546374l-.01459548-3.72958515Z" fill="#fae052"/></g></g></svg>