<?xml version="1.0" encoding="UTF-8"?><svg xmlns="http://www.w3.org/2000/svg" viewBox="0 0 40 40" focusable="false" aria-hidden="true"><defs><style>.cls-1 {
        fill: none;
      }

      .cls-2 {
        fill: #fa9319;
      }

      .cls-3 {
        fill: #000d6e;
      }

      .cls-4 {
        fill: #fae052;
      }

      .cls-5 {
        fill: #6c2273;
      }

      .cls-6 {
        fill: #b8b2ff;
      }</style></defs><g id="Solid"><rect class="cls-1" width="40" height="40"/></g><g id="Icon_Purple" data-name="Icon Purple"><g><path class="cls-5" d="m17.36,14.15l-3.06-.46c-.43-.06-.81-.26-1.09-.55-.08-.08-.15-.17-.22-.26-.21-.3-.34-.67-.35-1.07l-3.24,3.24-1.45.48c-.44.15-.84.4-1.17.72l-3.03,3.03c-.39.39-.39,1.02,0,1.41.39.39,1.02.39,1.41,0l-.35.36c-.39.39-.39,1.02,0,1.41.39.39,1.02.39,1.41,0l-.35.37c-.39.39-.39,1.02,0,1.41s1.02.39,1.41,0l-.36.35h0c-.39.39-.39,1.03,0,1.42s1.02.39,1.41,0l1.06-1.06,1.42-1.42v1.87c0,.53.43.95.96.95.47,0,.86-.35.93-.81l.76-5.02.04-.24c.1-.64.39-1.24.85-1.7l4.25-4.25-1.23-.18Z"/><path class="cls-3" d="m24.94,9.4l-.48-1.45c-.15-.44-.4-.84-.72-1.17l-3.03-3.03c-.39-.39-1.02-.39-1.41,0s-.39,1.02,0,1.41l-.36-.35c-.39-.39-1.02-.39-1.41,0s-.39,1.02,0,1.41l-.37-.35c-.39-.39-1.02-.39-1.41,0-.39.39-.39,1.02,0,1.41l-.35-.36h0c-.39-.38-1.02-.38-1.41,0-.39.39-.39,1.02,0,1.41l.36.36.71.71.71.71.71.71h-1.41s-.46,0-.46,0c-.53,0-.95.43-.95.96,0,.13.04.25.09.37.13.29.39.51.72.56l3.8.57,1.17.18.3.04c.25.04.48.11.71.21.37.15.71.36.99.64l4.26,4.26.65-4.3c.06-.43.26-.81.55-1.09.34-.34.81-.55,1.33-.56l-3.25-3.25Z"/><polygon class="cls-2" points="32.37 14.69 32.06 15 32.38 14.69 32.37 14.69"/><path class="cls-5" d="m36.26,19.3c-.39-.39-1.02-.39-1.41,0l.35-.36c.39-.39.39-1.02,0-1.41s-1.02-.39-1.41,0l.35-.37c.39-.39.39-1.02,0-1.41s-1.02-.39-1.41,0l.36-.35h0c.39-.39.39-1.03,0-1.42s-1.02-.39-1.41,0l-.36.36-.71.71-1.41,1.41v-1.87c0-.53-.43-.95-.96-.95-.47,0-.86.35-.93.81l-.75,4.97-.04.3c-.04.25-.11.48-.21.71-.15.37-.36.71-.64.99l-4.26,4.26,1.23.18,3.07.46c.43.06.81.26,1.09.55.08.08.15.17.22.26.21.3.34.67.35,1.07l3.25-3.25,1.45-.48c.44-.15.84-.4,1.17-.72l3.03-3.03c.39-.39.39-1.02,0-1.41Z"/><polygon class="cls-4" points="12.93 28.49 12.93 28.49 12.93 28.49 12.93 28.49"/><path class="cls-6" d="m25.66,31.31l-.71-.71-1.41-1.41h1.41s.47,0,.47,0c.53,0,.95-.43.95-.96,0-.13-.04-.26-.09-.37-.13-.29-.39-.51-.72-.56l-3.8-.57-1.17-.18-.3-.04c-.25-.04-.48-.11-.71-.21-.37-.15-.71-.36-.99-.64l-1.42-1.42h0s-.67-.67-.67-.67h0s-2.17-2.17-2.17-2.17l-.65,4.29c-.06.43-.26.81-.55,1.09-.34.34-.82.56-1.34.57l.46.46h0s.67.67.67.67h0s0,0,0,0l2.12,2.12.48,1.45c.15.44.4.84.72,1.17l3.03,3.03c.39.39,1.02.39,1.41,0s.39-1.02,0-1.41l.36.35c.39.39,1.02.39,1.41,0s.39-1.02,0-1.41l.37.35c.39.39,1.02.39,1.41,0,.39-.39.39-1.02,0-1.41l.35.36h0c.39.38,1.02.38,1.41,0s.39-1.02,0-1.41l-.36-.36Z"/></g></g></svg>