<?xml version="1.0" encoding="UTF-8"?><svg xmlns="http://www.w3.org/2000/svg" viewBox="0 0 40 40" focusable="false" aria-hidden="true"><g id="Solid"><rect width="40" height="40" fill="none"/></g><g id="Icon_Red" data-name="Icon Red"><path d="m20.42,13.18c-.23-.23-.62-.23-.85,0l-6.39,6.39c-.23.23-.23.62,0,.85l6.39,6.39c.23.23.62.23.85,0l3.55-3.55-2.16-2.16-1.81,1.81-2.92-2.92,2.92-2.92,5.08,5.08,1.73-1.73c.23-.23.23-.62,0-.85l-6.39-6.39Z" fill="#000d6e"/><path d="m31.76,12.3c-.26-.1-.55.03-.65.29l-.64,1.68c-2.22-3.89-6.38-6.3-10.85-6.3-5.2,0-9.9,3.27-11.72,8.14-.1.26.04.55.29.64.06.02.12.03.17.03.2,0,.39-.12.47-.33,1.67-4.48,6-7.49,10.78-7.49,4.07,0,7.85,2.18,9.91,5.68l-1.64-.63c-.26-.1-.55.03-.65.29-.1.26.03.55.29.65l2.8,1.07c.06.02.12.03.18.03.2,0,.39-.12.47-.32l1.07-2.8c.1-.26-.03-.55-.29-.65Z" fill="#ffaca6"/><path d="m8.2,27.64c.26.1.55-.03.65-.29l.64-1.68c2.22,3.89,6.38,6.3,10.85,6.3,5.2,0,9.9-3.27,11.72-8.14.1-.26-.04-.55-.29-.64-.06-.02-.12-.03-.17-.03-.2,0-.39.12-.47.33-1.67,4.48-6,7.49-10.78,7.49-4.07,0-7.85-2.18-9.91-5.68l1.64.63c.26.1.55-.03.65-.29.1-.26-.03-.55-.29-.65l-2.8-1.07c-.06-.02-.12-.03-.18-.03-.2,0-.39.12-.47.32l-1.07,2.8c-.1.26.03.55.29.65Z" fill="#d9304c"/></g></svg>