<svg xmlns="http://www.w3.org/2000/svg" viewBox="0 0 40 40" focusable="false" aria-hidden="true"><g id="Solid"><rect width="40" height="40" fill="none"/></g><g id="Icon_Tangerine" data-name="Icon Tangerine"><path d="M14.7988,13.3417l-.0151.0428a19.86,19.86,0,0,0-1.1168,6.1472l-.0015.0506H19.483V13.9765l-.0487-.001a20.9418,20.9418,0,0,1-4.5912-.6231Z" fill="#fa9319"/><path d="M15.1185,12.4976l.0565.0136a20.0859,20.0859,0,0,0,4.2568.5667l.0512.001V6.0068h-.05a.1015.1015,0,0,0-.0234.0019l-.0151.003-.0107.0107A19.7833,19.7833,0,0,0,15.14,12.4441Z" fill="#fa9319"/><path d="M13.9392,26.8929l-.017-.05a20.7388,20.7388,0,0,1-1.1514-6.3147L12.77,20.48H6.0044l.0019.0516a13.8617,13.8617,0,0,0,3.202,8.3941l.0272.0321.0366-.0214A20.82,20.82,0,0,1,13.89,26.9075Z" fill="#fa9319"/><path d="M12.7683,19.5336a20.7557,20.7557,0,0,1,1.1456-6.3827l.0171-.05-.05-.0147a20.84,20.84,0,0,1-4.6247-2.0357L9.22,11.03l-.0273.0321A13.8517,13.8517,0,0,0,6.002,19.5307L6,19.5823h6.7673Z" fill="#fa9319"/><path d="M33.75,22.6337a14.3006,14.3006,0,0,0,.2441-2.1021l.0019-.0516H27.0714l-.001.0486a20.8979,20.8979,0,0,1-.3482,3.2639l.0213-.0036Z" fill="#fa9319"/><path d="M26.1758,19.5317a19.878,19.878,0,0,0-1.1066-6.1442l-.0151-.0429-.0444.0107a20.8763,20.8763,0,0,1-4.5795.62l-.0487.001v5.6058h5.7957Z" fill="#fa9319"/><path d="M24.6793,12.5142l.0565-.0137-.0219-.0535a19.788,19.788,0,0,0-4.2378-6.4324L20.4522,6h-.0707v7.08l.0512-.0019A20.0525,20.0525,0,0,0,24.6793,12.5142Z" fill="#fa9319"/><path d="M25.9224,13.1042l.0171.05a20.77,20.77,0,0,1,1.1353,6.38l.0009.0487H34l-.002-.0516a13.85,13.85,0,0,0-3.2389-8.5226l-.0278-.0331-.0365.0223A20.74,20.74,0,0,1,25.9721,13.09Z" fill="#fa9319"/><path d="M14.2706,27.7769l-.0171-.0419-.0434.0127a19.8974,19.8974,0,0,0-4.3,1.86l-.0551.0321.0439.0448a14.0694,14.0694,0,0,0,8.0177,4.1368l.135.0194-.09-.1022A20.7207,20.7207,0,0,1,14.2706,27.7769Z" fill="#fa9319"/><path d="M14.2,12.2455l.0434.0126.017-.0419a20.7024,20.7024,0,0,1,3.7014-5.9845l.09-.1022-.135.0194a14.0581,14.0581,0,0,0-8.0338,4.1543l-.0438.0457.0545.0312A19.9353,19.9353,0,0,0,14.2,12.2455Z" fill="#fa9319"/><path d="M25.5934,12.22l.0171.0418.0434-.0127a19.95,19.95,0,0,0,4.406-1.92l.0545-.0321-.0438-.0458a14.0668,14.0668,0,0,0-8.1449-4.127l-.133-.0185.0887.1012A20.7036,20.7036,0,0,1,25.5934,12.22Z" fill="#fa9319"/><path d="M18.6731,25.12l.8088-.1334.0011,0V20.48H13.6678l.0015.0506a19.8464,19.8464,0,0,0,1.1232,6.079l.0151.0428.0443-.0107a20.8536,20.8536,0,0,1,3.0056-.5163A.9849.9849,0,0,1,18.6731,25.12Z" fill="#fa9319"/><path d="M17.9721,27.0149a19.987,19.987,0,0,0-2.7869.4679l-.0565.0137.0219.0535a19.74,19.74,0,0,0,3.904,6.03l-1.0761-6.5256Z" fill="#fa9319"/><path d="M25.7681,23.95a19.9285,19.9285,0,0,0,.4038-3.4192l.0014-.0506H20.3815v4.358l.0008,0Z" fill="#fa9319"/><path d="M35.6093,23.3405a1,1,0,0,0-1.1494-.824l-.6768.1116-.0335.0056-7.0061,1.1552-.0213.0036-.9345.1541-.02.0032-5.3858.8881-.0008,0-.8985.1482-.0011,0-.8088.1334a.9849.9849,0,0,0-.8156,1.0056c0,.0129-.0053.0245-.0046.0374a.9408.9408,0,0,0-.0038.1063l.123.7458.0064.039L19.0546,33.58l.0126.0766.2462,1.4931a1,1,0,0,0,1.1494.8239L36.25,33.37a1,1,0,0,0,.824-1.1494ZM22.3252,26.8866,23,26.7753l.3241,1.9654a.6667.6667,0,0,1-.5493.7663l-.0171.0028ZM22.1241,25.56a.6667.6667,0,0,1,.7662.5494l.0014.008-1.0039.1655a.3331.3331,0,0,0-.2746.3831l.4868,2.952-.6453.1064-.6508-3.9467Zm-2.6311.4339.6531-.1077.11.6658-1.311.2161-.0012-.008A.6664.6664,0,0,1,19.493,25.9941Zm.8714,1.2159.1079.6545-1.3109.2162-.108-.6546Zm-.9869,2.1815-.1077-.653,1.3109-.2162.2162,1.3108-.6532.1077A.6666.6666,0,0,1,19.3775,29.3915Zm15.57-3.9184-.4037.55-1.6385-1.147-.6809.9275.9426.66.4222-.5751.6959.4871-.8259,1.1252a.1725.1725,0,0,1-.236.0389l-2.06-1.4424a.1632.1632,0,0,1-.0381-.2307l1.4884-2.0276a.1724.1724,0,0,1,.2359-.0389l2.06,1.4424A.1627.1627,0,0,1,34.9474,25.4731Z" fill="#fae052"/><path d="M32.8489,23.8a.1724.1724,0,0,0-.2359.0389l-1.4884,2.0276a.1632.1632,0,0,0,.0381.2307l2.06,1.4424a.1725.1725,0,0,0,.236-.0389l.8259-1.1252-.6959-.4871-.4222.5751-.9426-.66.6809-.9275,1.6385,1.147.4037-.55a.1627.1627,0,0,0-.038-.2307Z" fill="#000d6e"/><path d="M21.4547,29.7246l.6453-.1064-.4868-2.952a.3331.3331,0,0,1,.2746-.3831l1.0039-.1655L22.89,26.11a.6667.6667,0,0,0-.7662-.5494l-1.32.2177Z" fill="#000d6e"/><rect x="19.0985" y="27.3136" width="1.3286" height="0.6634" transform="translate(-4.2338 3.583) rotate(-9.3618)" fill="#000d6e"/><path d="M20.7969,29.8331l-.2162-1.3108-1.3109.2162.1077.653a.6666.6666,0,0,0,.7662.5493Z" fill="#000d6e"/><path d="M22.7749,29.507a.6667.6667,0,0,0,.5493-.7663L23,26.7753l-.6749.1113.4326,2.6232Z" fill="#000d6e"/><path d="M18.9437,26.76l.0012.008,1.311-.2161-.11-.6658-.6531.1077A.6664.6664,0,0,0,18.9437,26.76Z" fill="#000d6e"/></g></svg>