<svg xmlns="http://www.w3.org/2000/svg" viewBox="0 0 40 40" focusable="false" aria-hidden="true"><g id="Solid"><rect width="40" height="40" fill="none"/></g><g id="Icon_Red" data-name="Icon Red"><polygon points="9.826 8.961 6.997 11.789 16.563 17.78 23.049 11.295 9.826 8.961" fill="#d9304c"/><path d="M13.3405,21.0027l-5.99-.3743L5.5831,22.3961l4.9051,2.346a3.7708,3.7708,0,0,1,1.0237-1.9109Z" fill="#000d6e"/><polygon points="28.211 33.003 31.039 30.174 28.705 16.951 22.22 23.437 28.211 33.003" fill="#d9304c"/><path d="M15.26,29.5156l2.3441,4.9013,1.7677-1.7677-.3743-5.99-1.8285,1.8286A3.78,3.78,0,0,1,15.26,29.5156Z" fill="#000d6e"/><path d="M12.3006,27.6994h0a2.9439,2.9439,0,0,1-.0816-4.161L29.3527,6.4046a2.9441,2.9441,0,0,1,4.1611.0816h0a2.9441,2.9441,0,0,1,.0816,4.1611L16.4616,27.781A2.9439,2.9439,0,0,1,12.3006,27.6994Z" fill="#ffaca6"/></g></svg>