<svg xmlns="http://www.w3.org/2000/svg" viewBox="0 0 40 40" focusable="false" aria-hidden="true"><g id="Solid"><rect width="40" height="40" fill="none"/></g><g id="Icon_Tangerine" data-name="Icon Tangerine"><path d="M27.0723,33.5586H25.9238l-.3012-.9385H23.8994l-.3008.9385H22.4429L22.7917,32.5h-.7735c-.1548.69-.8305,1.1494-1.87,1.1494-.0526,0-.0965-.0161-.1478-.019V35H35.625l-.3127-2.5H26.725Z" fill="#fae052"/><path d="M20,18.5h5.8566a9.2922,9.2922,0,0,0,.5018-1.5347A.98.98,0,0,0,26.6144,17a1.3923,1.3923,0,0,0,1.1935-1H20Z" fill="#fae052"/><path d="M20.7374,32.5H20v.1036a1.0778,1.0778,0,0,0,.26.037A.7116.7116,0,0,0,20.7374,32.5Z" fill="#fae052"/><path d="M20,24h3.5016l0,0-.0039-2.3564c.0582-.0446.1122-.0967.1692-.1435H20Z" fill="#fae052"/><path d="M20,28.6146c.0722-.0054.1408-.015.2177-.015a1.7288,1.7288,0,0,1,1.6442.9H23.78l.2667-.81h1.4287l.2655.81h8.06a3.9946,3.9946,0,0,0-.7037-.4615L29.215,27H20Z" fill="#fae052"/><rect x="20.0001" y="10.5" width="7" height="2.5" fill="#fae052"/><polygon points="24 2 24 2 24 2 24 2" fill="none"/><path d="M20,7.5h6.9774A9.5624,9.5624,0,0,0,26.4868,5H20Z" fill="#fae052"/><path d="M20,35V33.63a1.8108,1.8108,0,0,1-1.7638-1.2632l1.1065-.4268A.8713.8713,0,0,0,20,32.6036V31.58c-.6952-.217-1.5538-.4668-1.5538-1.51A1.4658,1.4658,0,0,1,20,28.6146V4.226A11.3808,11.3808,0,0,0,15.5,5,4.1455,4.1455,0,0,0,13,9V13.079A2.036,2.036,0,0,0,12,15c0,1.1045.62,2,1.3853,2a.9946.9946,0,0,0,.4-.0849A8.273,8.273,0,0,0,16.5016,21.52v2.4814L6.903,29.0385a4.0045,4.0045,0,0,0-2.1675,3.0772L4,38H20V35Zm-6.5519-3.3535V28.69H14.625V31.64a.8328.8328,0,1,0,1.66,0V28.69h1.1694v2.9561a1.8707,1.8707,0,0,1-1.9961,2.0029A1.8781,1.8781,0,0,1,13.4482,31.6465Z" fill="#000d6e"/><path d="M19.6157,29.98c0,.2112.1541.3388.3844.4408v-.807C19.7488,29.6565,19.6157,29.7938,19.6157,29.98Z" fill="#000d6e"/><polygon points="35.813 36.5 35.625 35 20 35 20 36.5 20 38 36 38 35.813 36.5" fill="#fa9319"/><path d="M22.0527,32.1855a1.4265,1.4265,0,0,1-.0345.3145h.7735l.4942-1.5.4943-1.5H21.862a1.3532,1.3532,0,0,1,.1141.2412l-1.1.4268a.6955.6955,0,0,0-.7144-.5742.8808.8808,0,0,0-.162.0195v.807a8.1176,8.1176,0,0,1,1.4484.58A1.3223,1.3223,0,0,1,22.0527,32.1855Z" fill="#fa9319"/><polygon points="24.416 31 24.201 31.667 25.314 31.667 25.102 31 24.761 29.931 24.416 31" fill="#fa9319"/><path d="M20.8691,32.2139c0-.3542-.3972-.4864-.869-.6336v.92h.7373A.3642.3642,0,0,0,20.8691,32.2139Z" fill="#fa9319"/><path d="M26.2331,31l.4919,1.5h8.5873l-.048-.3843A4.0624,4.0624,0,0,0,33.801,29.5h-8.06Z" fill="#fa9319"/><polygon points="26.358 25.5 23.502 24 20 24 20 25.5 20 27 29.215 27 26.358 25.5" fill="#fa9319"/><path d="M25.0336,20a8.4709,8.4709,0,0,0,.8231-1.5H20v3h3.6668A7.285,7.285,0,0,0,25.0336,20Z" fill="#fa9319"/><path d="M28,15a2.7618,2.7618,0,0,0-.0577-.5A1.8384,1.8384,0,0,0,27,13.079V13H20v3h7.8078A2.6753,2.6753,0,0,0,28,15Z" fill="#fa9319"/><path d="M27,9V8s0-.038-.0019-.1079l-.0005-.0132c-.0024-.0845-.01-.2217-.02-.3788H20v3h7Z" fill="#fa9319"/><path d="M26,4c-.1209-.1814-.2418-.3468-.361-.5A5.5117,5.5117,0,0,0,24,2h0c0,.0005.0806.8376-1.1158,1.5a7.11,7.11,0,0,1-2.789.7245c-.0337,0-.062.0015-.0952.0015V5h6.4867A4.6789,4.6789,0,0,0,26,4Z" fill="#fa9319"/></g></svg>