<?xml version="1.0" encoding="UTF-8"?><svg xmlns="http://www.w3.org/2000/svg" viewBox="0 0 40 40" focusable="false" aria-hidden="true"><g id="Solid"><rect width="40" height="40" fill="none"/></g><g id="Icon_Purple" data-name="Icon Purple"><path d="m10,35.857153c0,1.183447.913714,2.142847,2.040806,2.142847h3.918387c1.127093,0,2.040806-.959399,2.040806-2.142847v-3.857153h-8v3.857153Z" fill="#000d6e"/><rect x="16.387106" y="7.736286" width="4.380084" height="5.840112" rx="1.460028" ry="1.460028" transform="translate(-.73023 19.9242) rotate(-55.481488)" fill="#6c2273"/><polygon points="10.634685 2 2 2 2.005701 12 15 12 10.634685 2" fill="#b8b2ff"/><g><path d="m21.064189,6.234601v2.006108c0,.279119.22586.504979.504979.504979s.504979-.22586.504979-.504979v-2.006108c0-.279119-.22586-.504979-.504979-.504979s-.504979.22586-.504979.504979Z" fill="#000d6e"/><path d="m23.118677,10.237939c0,.279119.22586.504979.504979.504979h2.006108c.279119,0,.504979-.22586.504979-.504979s-.22586-.504979-.504979-.504979h-2.006108c-.279119,0-.504979.22586-.504979.504979Z" fill="#000d6e"/><path d="m22.433208,8.717085c-.197257.197257-.197257.516814,0,.714072s.516814.197257.714072,0l1.666825-1.666825c.098629-.098629.147943-.227832.147943-.357036s-.049314-.258407-.147943-.357036c-.197257-.197257-.516814-.197257-.714072,0l-1.666825,1.666825Z" fill="#000d6e"/></g><g><path d="m25.237793,16.926758l-.166382.697449-.716797,3.004395-.076355.319885c5.728271,2.476013,7.769836,3.378235,12.285278,4.455566l1.436462-6.02063c-6.02063-1.436462-5.493103-.874451-12.762207-2.456665Z" fill="#6c2273"/><g><path d="m25.071411,17.624207l-.900269-.236389.000183.008545c-.351624.394958-.621704.893433-.75824,1.46582-.124878.523193-.116699,1.039856-.012207,1.515442l.953735.250977.716797-3.004395Z" fill="#b8b2ff"/><path d="m23.413086,18.862183c.136536-.572388.406616-1.070862.75824-1.46582l-.000183-.008545-.108826-4.41272c-.016052-.650513-.40564-1.185059-.959839-1.317261l-.616882-.147217-2.020142,8.46521,2.495789.595459c.161011.038452.325012-.019836.445923-.139587-.004089-.017334-.002441-.036621-.006287-.054077-.104492-.475586-.112671-.992249.012207-1.515442Z" fill="#000d6e"/></g></g><path d="m17.4198,18.417297l-1.910767-5.417297H2v18h15.986694l.013306-9.671997c0-.999268-.197205-1.988464-.5802-2.910706Zm-4.9198,8.082703c-1.65686,0-3-1.34314-3-3s1.34314-3,3-3,3,1.34314,3,3-1.34314,3-3,3Z" fill="#6c2273"/></g></svg>