<svg xmlns="http://www.w3.org/2000/svg" viewBox="0 0 40 40" focusable="false" aria-hidden="true"><defs><style>.cls-1{fill:none;}.cls-2{fill:#1b5951;}.cls-3{fill:#000d6e;}.cls-4{fill:#94e3d4;}</style></defs><g id="Solid"><rect class="cls-1" width="40" height="40"/></g><g id="Icon_Green" data-name="Icon Green"><path class="cls-2" d="M36.17,21.03H33.46a.5.5,0,0,1,0-1H36v-.01a1.0029,1.0029,0,0,0-1-1H10.59L4.94,21.88a.9551.9551,0,0,1,0,1.91H4v2.16a1.0029,1.0029,0,0,0,1,1H6.9772a4,4,0,0,1,8,0H26.9409a4,4,0,0,1,8,0H36.11a.8963.8963,0,0,0,.9-.9Zm-16.6441-.029h-2a.5.5,0,0,1,0-1h2a.5.5,0,0,1,0,1Zm11.0552,0h-2a.5.5,0,0,1,0-1h2a.5.5,0,0,1,0,1Z"/><path class="cls-3" d="M29.9216,11.0013a1,1,0,0,0-1-1H20.8931c-1.6352,0-3.9352,1.3255-3.9352,2.9607H29.9216Z"/><path class="cls-4" d="M5.88,22.84a.95.95,0,0,0-.94-.96A2.0783,2.0783,0,0,0,4,23.79h.94A.9475.9475,0,0,0,5.88,22.84Z"/><path class="cls-4" d="M10.977,23.9518a3,3,0,1,0,3,3A3,3,0,0,0,10.977,23.9518Zm0,4.5a1.5,1.5,0,1,1,1.5-1.5A1.5,1.5,0,0,1,10.977,28.4518Z"/><circle class="cls-3" cx="10.977" cy="26.9518" r="1.5"/><path class="cls-4" d="M30.9407,23.9518a3,3,0,1,0,3,3A3,3,0,0,0,30.9407,23.9518Zm0,4.5a1.5,1.5,0,1,1,1.5-1.5A1.5,1.5,0,0,1,30.9407,28.4518Z"/><circle class="cls-3" cx="30.9407" cy="26.9518" r="1.5"/><path class="cls-4" d="M32.96,20.53a.4951.4951,0,0,0,.5.5h2.71l-.17-1H33.46A.4951.4951,0,0,0,32.96,20.53Z"/><path class="cls-4" d="M19.5259,20.001h-2a.5.5,0,0,0,0,1h2a.5.5,0,0,0,0-1Z"/><path class="cls-4" d="M30.5811,20.001h-2a.5.5,0,0,0,0,1h2a.5.5,0,0,0,0-1Z"/><path class="cls-4" d="M15.83,15.62a2.7942,2.7942,0,0,1,1.79-.65H29.69L31.2,18h1.75l-1.78-3.49a.567.567,0,0,0-.08-.13.2186.2186,0,0,0-.03-.05.8075.8075,0,0,0-.5-.36,1.6979,1.6979,0,0,0-.23,0H17.62a3.7806,3.7806,0,0,0-2.44.89L11.62,18h1.52Z"/></g></svg>