<svg xmlns="http://www.w3.org/2000/svg" viewBox="0 0 40 40" focusable="false" aria-hidden="true"><defs><style>.cls-1{fill:none;}.cls-2{fill:#b8b2ff;}.cls-3{fill:#000d6e;}.cls-4{fill:#6c2273;}</style></defs><g id="Solid"><rect class="cls-1" width="40" height="40"/></g><g id="Icon_Purple" data-name="Icon Purple"><rect class="cls-1" x="19.5" y="10" width="1" height="2"/><path class="cls-2" d="M29.6709,35.0252l-.353-2.1179a2.042,2.042,0,0,0-2.24-1.6938l-3.8916.6111a28.8575,28.8575,0,0,1-6.3731,0l-3.8917-.6111a2.042,2.042,0,0,0-2.24,1.6938l-.3529,2.1179A1.6959,1.6959,0,0,0,12.002,37H27.998A1.696,1.696,0,0,0,29.6709,35.0252Z"/><rect class="cls-3" x="18.5" y="10" width="1" height="2"/><rect class="cls-3" x="20.5" y="10" width="1" height="2"/><path class="cls-2" d="M20.5,10h1.1391a2,2,0,0,0,1.9728-2.3288l-.4726-2.8356A1,1,0,0,0,22.1529,4H17.8472a1,1,0,0,0-.9865.8356l-.4726,2.8356A2,2,0,0,0,18.361,10H20.5Z"/><path class="cls-4" d="M14.6868,30.49l2.1267.334A28.867,28.867,0,0,0,19.989,31h.0221a28.867,28.867,0,0,0,3.1755-.1761l2.1266-.334A1.9965,1.9965,0,0,0,27,28.5175l-.8862-14.6387A2,2,0,0,0,24.1177,12H15.8823a2,2,0,0,0-1.996,1.8788L13,28.5175A1.9965,1.9965,0,0,0,14.6868,30.49ZM16.5,16h7a.5.5,0,0,1,0,1h-7a.5.5,0,0,1,0-1Zm0,4h7a.5.5,0,0,1,0,1h-7a.5.5,0,0,1,0-1Zm0,4h7a.5.5,0,0,1,0,1h-7a.5.5,0,0,1,0-1Z"/><path class="cls-3" d="M16.5,17h7a.5.5,0,0,0,0-1h-7a.5.5,0,0,0,0,1Z"/><path class="cls-3" d="M16.5,21h7a.5.5,0,0,0,0-1h-7a.5.5,0,0,0,0,1Z"/><path class="cls-3" d="M16.5,25h7a.5.5,0,0,0,0-1h-7a.5.5,0,0,0,0,1Z"/></g></svg>