<svg xmlns="http://www.w3.org/2000/svg" viewBox="0 0 40 40" focusable="false" aria-hidden="true"><defs><style>.cls-1{fill:none;}.cls-2{fill:#ffaca6;}.cls-3{fill:#d9304c;}.cls-4{fill:#000d6e;}</style></defs><g id="Solid"><rect class="cls-1" width="40" height="40"/></g><g id="Icon_Red" data-name="Icon Red"><path class="cls-2" d="M33.36,10H6.64A2.64,2.64,0,0,0,4,12.64V27.36A2.64,2.64,0,0,0,6.64,30H33.36A2.64,2.64,0,0,0,36,27.36V12.64A2.64,2.64,0,0,0,33.36,10ZM9.4644,26.7412a.5.5,0,0,1-.7071,0,6,6,0,0,1,0-8.4853.5.5,0,0,1,.7071.707,5,5,0,0,0,0,7.0713A.5.5,0,0,1,9.4644,26.7412Zm1.4209-1.4072a.5.5,0,0,1-.7071,0,4.0069,4.0069,0,0,1,0-5.667.5.5,0,1,1,.7071.707,3.0071,3.0071,0,0,0,0,4.253A.5.5,0,0,1,10.8853,25.334Zm1.414-2.1211a.5.5,0,1,1-.707.707,2.01,2.01,0,0,1,0-2.8388.5.5,0,0,1,.707.707A1.009,1.009,0,0,0,12.2993,23.2129ZM32.912,16.7148l-.8673.8673L29.5023,15.04,28.04,16.5023l1.4626,1.4625.9069-.9068,1.08,1.08-1.7742,1.7741a.3.3,0,0,1-.4251,0l-3.197-3.1971a.3.3,0,0,1,0-.4251L29.29,13.0926a.3.3,0,0,1,.425,0L32.912,16.29A.3006.3006,0,0,1,32.912,16.7148Z"/><path class="cls-3" d="M8,22.499a4.9677,4.9677,0,0,1,1.4644-3.5361.5.5,0,0,0-.7071-.707,6,6,0,0,0,0,8.4853.5.5,0,0,0,.7071-.707A4.9673,4.9673,0,0,1,8,22.499Z"/><path class="cls-3" d="M10.0044,22.5a2.987,2.987,0,0,1,.8809-2.126.5.5,0,1,0-.7071-.707,4.0069,4.0069,0,0,0,0,5.667.5.5,0,0,0,.7071-.707A2.9893,2.9893,0,0,1,10.0044,22.5Z"/><path class="cls-3" d="M12.2993,21.0811a.5.5,0,0,0-.707,0,2.01,2.01,0,0,0,0,2.8388.5.5,0,1,0,.707-.707,1.009,1.009,0,0,1,0-1.4248A.5.5,0,0,0,12.2993,21.0811Z"/><path class="cls-4" d="M29.7148,13.0926a.3.3,0,0,0-.425,0L26.0927,16.29a.3.3,0,0,0,0,.4251l3.197,3.1971a.3.3,0,0,0,.4251,0l1.7742-1.7741-1.08-1.08-.9069.9068L28.04,16.5023,29.5023,15.04l2.5424,2.5424.8673-.8673a.3006.3006,0,0,0,0-.4251Z"/></g></svg>