<?xml version="1.0" encoding="iso-8859-1"?><!--Generator: Adobe Illustrator 26.3.1, SVG Export Plug-In . SVG Version: 6.00 Build 0)--><svg version="1.1" xmlns="http://www.w3.org/2000/svg" xmlns:xlink="http://www.w3.org/1999/xlink" x="0px" y="0px" viewBox="0 0 40 40" xml:space="preserve" focusable="false" aria-hidden="true" enable-background="new 0 0 40 40"><g id="Solid"><rect width="40" height="40" fill="none"/></g><g id="Icon_Purple"><g><path d="M22,30.5c0-4.687,3.813-8.5,8.5-8.5c1.611,0,3.113,0.459,4.398,1.24
			C34.961,22.793,35,22.344,35,21.894V6.079l-7.933-2.85c-4.558-1.638-9.578-1.638-14.135,0L5,6.079v15.816
			C5,29.52,14.491,36.989,20.002,37c1.198-0.002,2.587-0.375,4.023-1.007C22.765,34.51,22,32.594,22,30.5z" fill="#B8B2FF"/></g><path d="M18.653,24.585c0.013,0.013,0.03,0.016,0.042,0.028c0.011,0.01,0.015,0.025,0.026,0.035
		c0.085,0.076,0.185,0.117,0.281,0.17c0.054,0.029,0.1,0.073,0.157,0.095c0.172,0.067,0.352,0.105,0.533,0.105
		c0.194,0,0.387-0.042,0.569-0.119c0.065-0.028,0.117-0.081,0.178-0.118c0.097-0.059,0.201-0.105,0.285-0.189
		c0.011-0.011,0.014-0.026,0.025-0.037c0.012-0.012,0.028-0.016,0.04-0.029l7.29-8.229c0.536-0.607,0.481-1.534-0.124-2.069
		c-0.604-0.541-1.531-0.478-2.067,0.123l-6.254,7.06l-3.027-3.051c-0.572-0.569-1.502-0.581-2.071-0.006
		c-0.575,0.569-0.578,1.496-0.009,2.071L18.653,24.585z" fill="#000D6E"/><g><path d="M30.5,23c-4.142,0-7.5,3.358-7.5,7.5s3.358,7.5,7.5,7.5s7.5-3.358,7.5-7.5S34.642,23,30.5,23z
			 M31,30.707l-3.645,3.645c-0.098,0.098-0.226,0.146-0.354,0.146s-0.256-0.049-0.354-0.146c-0.195-0.195-0.195-0.512,0-0.707
			L30,30.293v-4.294c0-0.276,0.224-0.5,0.5-0.5s0.5,0.224,0.5,0.5V30.707z" fill="#6C2273"/></g></g></svg>