<svg xmlns="http://www.w3.org/2000/svg" viewBox="0 0 40 40" focusable="false" aria-hidden="true"><defs><style>.cls-1{fill:none;}.cls-2{fill:#6c2273;}.cls-3{fill:#b8b2ff;}.cls-4{fill:#000d6e;}</style></defs><g id="Solid"><rect class="cls-1" width="40" height="40"/></g><g id="Icon"><path class="cls-2" d="M30.5,18H29.31a10.62,10.62,0,0,1,0,4H30.5a1,1,0,0,0,1-1V19A1,1,0,0,0,30.5,18Z"/><path class="cls-2" d="M23.5,10.21V2h-10v8.21a10.94,10.94,0,0,1,10,0Z"/><path class="cls-2" d="M13.5,29.79V38h10V29.79a10.94,10.94,0,0,1-10,0Z"/><circle class="cls-3" cx="18.5" cy="20" r="10"/><path class="cls-4" d="M24,20.5H18v-8a.5.5,0,0,1,1,0v7h5a.5.5,0,0,1,0,1Z"/></g></svg>