<svg xmlns="http://www.w3.org/2000/svg" viewBox="0 0 40 40" focusable="false" aria-hidden="true"><g id="Solid"><rect width="40" height="40" fill="none"/></g><g id="Icon"><path d="M30.5,18H29.31a10.62,10.62,0,0,1,0,4H30.5a1,1,0,0,0,1-1V19A1,1,0,0,0,30.5,18Z" fill="#6c2273"/><path d="M23.5,10.21V2h-10v8.21a10.94,10.94,0,0,1,10,0Z" fill="#6c2273"/><path d="M13.5,29.79V38h10V29.79a10.94,10.94,0,0,1-10,0Z" fill="#6c2273"/><circle cx="18.5" cy="20" r="10" fill="#b8b2ff"/><path d="M24,20.5H18v-8a.5.5,0,0,1,1,0v7h5a.5.5,0,0,1,0,1Z" fill="#000d6e"/></g></svg>