<svg xmlns="http://www.w3.org/2000/svg" viewBox="0 0 40 40" focusable="false" aria-hidden="true"><defs><style>.cls-1{fill:none;}.cls-2{fill:#d9304c;}.cls-3{fill:#000d6e;}</style></defs><g id="Solid"><rect class="cls-1" width="40" height="40"/></g><g id="Icon"><path class="cls-2" d="M18.5,16V36.75a1.5,1.5,0,0,0,3,0V16a2.46,2.46,0,0,1-3,0Z"/><path class="cls-2" d="M21,11.71V3.25a1,1,0,0,0-2,0v8.46a2.49,2.49,0,0,1,2,0Z"/><path class="cls-2" d="M17.63,13.25,9.61,17A1,1,0,0,0,10,18.9a.9.9,0,0,0,.42-.1l7.44-3.46A2.56,2.56,0,0,1,17.5,14,2.36,2.36,0,0,1,17.63,13.25Z"/><path class="cls-2" d="M30.39,17l-8-3.74a2.36,2.36,0,0,1,.13.75,2.56,2.56,0,0,1-.39,1.34l7.44,3.46a.9.9,0,0,0,.42.1A1,1,0,0,0,30.39,17Z"/><circle class="cls-3" cx="20" cy="14" r="1.5"/></g></svg>