<?xml version="1.0" encoding="UTF-8"?><svg xmlns="http://www.w3.org/2000/svg" viewBox="0 0 40 40" focusable="false" aria-hidden="true"><defs><style>.c{fill:none;}.d{fill:#000d6e;}.e{fill:#6c2273;}.f{fill:#b8b2ff;}</style></defs><g id="a"><rect class="c" width="40" height="40"/></g><g id="b"><path class="f" d="M10.22522,17.4541c0-.60852-.42426-1.10638-1.03253-1.10638-.62708,0-1.05103,.49786-1.05103,1.10638,0,.62683,.4425,1.10614,1.05103,1.10614,.60828,0,1.03253-.47931,1.03253-1.10614Z"/><path class="f" d="M16.80731,23.48303c-.60852,0-1.03247,.47931-1.03247,1.10638,0,.62683,.4425,1.10614,1.03247,1.10614,.60828,0,1.03253-.47931,1.03253-1.10614,0-.62708-.4057-1.10638-1.03253-1.10638Z"/><path class="e" d="M16.80731,21.58411c-1.71466,0-3.00531,1.34601-3.00531,3.00531s1.29065,3.00537,3.00531,3.00537c1.73291,0,3.00537-1.34607,3.00537-3.00537s-1.27246-3.00531-3.00537-3.00531Zm0,4.11145c-.58997,0-1.03247-.47931-1.03247-1.10614,0-.62708,.42395-1.10638,1.03247-1.10638,.62683,0,1.03253,.47931,1.03253,1.10638,0,.62683-.42426,1.10614-1.03253,1.10614Z"/><polygon class="e" points="15.4613 14.61481 8.21527 27.42871 10.53845 27.41022 17.83984 14.59625 15.4613 14.61481"/><path class="e" d="M12.1795,17.4541c0-1.6593-1.25391-3.00531-2.98682-3.00531-1.73315,0-3.00531,1.34601-3.00531,3.00531,0,1.67786,1.27216,3.00537,3.00531,3.00537,1.73291,0,2.98682-1.32751,2.98682-3.00537Zm-4.03784,0c0-.60852,.42395-1.10638,1.05103-1.10638,.60828,0,1.03253,.49786,1.03253,1.10638,0,.62683-.42426,1.10614-1.03253,1.10614-.60852,0-1.05103-.47931-1.05103-1.10614Z"/><g><path class="c" d="M12.1795,17.4541c0-1.6593-1.25391-3.00531-2.98682-3.00531-1.73315,0-3.00531,1.34601-3.00531,3.00531,0,1.67786,1.27216,3.00537,3.00531,3.00537,1.73291,0,2.98682-1.32751,2.98682-3.00537Z"/><polygon class="c" points="15.4613 14.61481 8.21527 27.42871 10.53845 27.41022 17.83984 14.59625 15.4613 14.61481"/><path class="c" d="M16.80731,21.58411c-1.71466,0-3.00531,1.34601-3.00531,3.00531s1.29065,3.00537,3.00531,3.00537c1.73291,0,3.00537-1.34607,3.00537-3.00537s-1.27246-3.00531-3.00537-3.00531Z"/><path class="f" d="M33.5,10H6.5c-1.38068,0-2.5,1.11932-2.5,2.5v15c0,1.38074,1.11932,2.5,2.5,2.5h27c1.38074,0,2.5-1.11926,2.5-2.5V12.5c0-1.38068-1.11926-2.5-2.5-2.5ZM6.18738,17.4541c0-1.6593,1.27216-3.00531,3.00531-3.00531,1.73291,0,2.98682,1.34601,2.98682,3.00531,0,1.67786-1.25391,3.00537-2.98682,3.00537-1.73315,0-3.00531-1.32751-3.00531-3.00537Zm2.02789,9.97461l7.24603-12.8139,2.37854-.01855-7.30139,12.81396-2.32318,.01849Zm8.59204,.16608c-1.71466,0-3.00531-1.34607-3.00531-3.00537s1.29065-3.00531,3.00531-3.00531c1.73291,0,3.00537,1.34601,3.00537,3.00531s-1.27246,3.00537-3.00537,3.00537Zm16.10468-10.85822l-.86731,.86731-2.54236-2.54236-1.46259,1.46252,1.46259,1.46259,.90686-.90686,1.07983,1.07977-1.77417,1.77417c-.11737,.11743-.30768,.11743-.42511,0l-3.19708-3.19714c-.11743-.11737-.11743-.30768,0-.42505l3.19714-3.19714c.11737-.11737,.30768-.11737,.42505,0l3.19714,3.19714c.11737,.11737,.11737,.30768,0,.42505Z"/><path class="d" d="M29.71484,13.11438c-.11737-.11737-.30768-.11737-.42505,0l-3.19714,3.19714c-.11743,.11737-.11743,.30768,0,.42505l3.19708,3.19714c.11743,.11743,.30774,.11743,.42511,0l1.77417-1.77417-1.07983-1.07977-.90686,.90686-1.46259-1.46259,1.46259-1.46252,2.54236,2.54236,.86731-.86731c.11737-.11737,.11737-.30768,0-.42505l-3.19714-3.19714Z"/></g></g></svg>