<svg xmlns="http://www.w3.org/2000/svg" viewBox="0 0 40 40" focusable="false" aria-hidden="true"><path fill="none" d="M0 0h40v40H0z"/><g data-name="Icon Tangerine"><path d="M30.298 10.41a1 1 0 0 0 0-1.415l-1.414-1.414a1 1 0 0 0-1.415 0l-.729.685 2.873 2.873ZM8.475 25.424l3.979 3.98 11.679-12.432-3.226-3.226z" fill="#fae052"/><path d="M4.135 29.501a1 1 0 0 0 0 1.414l2.828 2.829a1 1 0 0 0 1.415 0l3.424-3.646-4.021-4.022Z" fill="#000d6e"/><path d="m33.126 16.066-9.59-9.59a1 1 0 0 0-.802-.29l-5.166.488a1.001 1.001 0 0 0-.614 1.705l11.93 11.93a1 1 0 0 0 1.415 0l2.827-2.827a1 1 0 0 0 0-1.416" fill="#fa9319"/></g></svg>