<svg xmlns="http://www.w3.org/2000/svg" viewBox="0 0 40 40" focusable="false" aria-hidden="true"><path fill="none" d="M0 0h40v40H0z"/><g data-name="Icon Red"><path d="M22.486 20.013c-.023-.339-.045-.537-.045-.537l.01-1.53a6.4 6.4 0 0 0 2.577-4.032 1 1 0 0 0 .14.019c.597 0 1.082-.666 1.082-1.488a1.49 1.49 0 0 0-.781-1.422v.25a.38.38 0 0 1-.084.231.4.4 0 0 1-.057.063.4.4 0 0 1-.25.097.39.39 0 0 1-.39-.39V10c0-.057-.004-.105-.005-.16-.042-.072-.091-.145-.138-.218a4.8 4.8 0 0 0-1.076-1.172 4.21 4.21 0 0 1-3.078.098 7 7 0 0 1-1.244-.544 4 4 0 0 1-.755-.536 8.4 8.4 0 0 0-1.862.536c-.423.176-.767.355-1.04.488a5.7 5.7 0 0 0-.157.965q-.021.254-.022.543v1.274a.39.39 0 0 1-.39.39.4.4 0 0 1-.064-.012.385.385 0 0 1-.326-.378v-.25a1.49 1.49 0 0 0-.781 1.422c0 .821.484 1.488 1.082 1.488a.8.8 0 0 0 .212-.03 6.44 6.44 0 0 0 2.526 4.01h-.02l.008 1.563s-.022.204-.046.556a3.08 3.08 0 0 0 2.468 1.197 3.14 3.14 0 0 0 2.506-1.217" fill="#ffaca6"/><path d="M14.858 11.65a.4.4 0 0 0 .063.014.39.39 0 0 0 .39-.39V10q.001-.29.022-.543a5.7 5.7 0 0 1 .157-.965c.273-.133.617-.312 1.04-.488a8.4 8.4 0 0 1 1.862-.536 4 4 0 0 0 .755.536 7 7 0 0 0 1.244.544 4.21 4.21 0 0 0 3.078-.098 4.8 4.8 0 0 1 1.076 1.173c.047.072.096.145.138.217.001.055.006.103.006.16v1.274a.39.39 0 0 0 .39.39.4.4 0 0 0 .25-.096.4.4 0 0 0 .056-.063.38.38 0 0 0 .084-.23V9.588a26 26 0 0 0 0-2.612C25.355 5.854 23.254 3.07 20 3.07s-5.469 2.456-5.469 4.688v3.516a.385.385 0 0 0 .327.377" fill="#000d6e"/><path d="M30.37 24.3c0-2.09-1.86-2.84-3.89-3.42a1.4 1.4 0 0 0-.16-.05c-1.09-.3-2.77-.61-3.83-.82l-.003.003a3.14 3.14 0 0 1-2.507 1.217 3.08 3.08 0 0 1-2.467-1.197l-.013-.013c-.6.12-1.38.27-2.15.43l5.993 12.238.23-.082 1.97-.702a.5.5 0 1 1 .338.942l-.446.158h2.42a1.995 1.995 0 0 1 .141 3.986h5.944ZM9.63 24.3l-1.11 8.82 3.79-11.85c-1.5.56-2.68 1.38-2.68 3.03" fill="#d9304c"/><path d="M27.86 35.004a2 2 0 0 0-2.005-2h-2.42l.445-.158a.5.5 0 1 0-.337-.942l-1.972.702-.229.082 2.108 4.302.005.014h2.4c.048 0 .093-.01.141-.014a1.996 1.996 0 0 0 1.863-1.986" fill="#ffaca6"/><path d="M21.343 32.688 15.35 20.45c-.59.12-1.17.25-1.64.38a14 14 0 0 0-1.4.44L8.52 33.12l-.02.08a2.9 2.9 0 0 0-.11.96A3 3 0 0 0 11 36.99a2.6 2.6 0 0 0 .39.03h12.07l-.005-.016-.005-.014Z" fill="#000d6e"/></g></svg>