<svg version="1.1" xmlns="http://www.w3.org/2000/svg" x="0px" y="0px" viewBox="0 0 40 40" xml:space="preserve" focusable="false" aria-hidden="true" enable-background="new 0 0 40 40"><path fill="none" d="M0 0h40v40H0z"/><g><circle cx="13.125" cy="17.875" r="1.125" fill="none"/><path d="M23.5 32.75a1.25 1.25 0 0 0 2.5 0v-3.312a7.9 7.9 0 0 1-2.5.541zM12.5 32.75a1.25 1.25 0 0 0 2.5 0v-2.803a7.9 7.9 0 0 1-2.5-.721z" fill="#B8B2FF"/><path d="M33.5 18.5a.5.5 0 0 0-.5.5v1.144c0 .472-.425.856-.946.856H31.5c0-3.473-1.839-6.481-4.527-7.981A4.7 4.7 0 0 1 26.409 15h-8.318a4.7 4.7 0 0 1-.591-2.25c0-.257.036-.504.076-.75h-.872A4 4 0 0 0 13 9.5v3.062c-2.336.922-4.18 2.92-5.012 5.438H7.25C6.56 18 6 18.56 6 19.25v3.5c0 .69.56 1.25 1.25 1.25h.738c.772 2.336 2.412 4.228 4.512 5.225a7.9 7.9 0 0 0 3.4.775h7.2c.135 0 .266-.015.4-.022a7.9 7.9 0 0 0 2.5-.541c2.928-1.156 5.09-4.001 5.445-7.438h.608C33.127 22 34 21.167 34 20.144V19a.5.5 0 0 0-.5-.5m-20.375.5a1.125 1.125 0 1 1 0-2.25 1.125 1.125 0 0 1 0 2.25" fill="#6C2273"/><path d="M18.091 15h8.318a4.7 4.7 0 0 0 .564-1.981c.005-.091.027-.177.027-.269A4.75 4.75 0 0 0 22.25 8c-2.366 0-4.313 1.735-4.674 4a5 5 0 0 0-.076.75c0 .819.226 1.578.591 2.25m1.721-2.836a.5.5 0 0 1 .693-.139l1.175.783 2.237-2.236a.5.5 0 0 1 .707.707l-2.527 2.526a.5.5 0 0 1-.631.062l-1.516-1.011a.5.5 0 0 1-.138-.692" fill="#B8B2FF"/><path d="M21.467 13.868a.503.503 0 0 0 .631-.062l2.527-2.526a.5.5 0 0 0-.707-.707l-2.237 2.236-1.175-.783a.5.5 0 1 0-.554.832z" fill="#000D6E"/></g></svg>