<svg xmlns="http://www.w3.org/2000/svg" viewBox="0 0 40 40" focusable="false" aria-hidden="true"><path fill="none" d="M0 0h40v40H0z"/><g data-name="Icon Tangerine"><path d="M8.937 20.5h4.088c-.013-.166-.025-.331-.025-.5s.012-.335.025-.5H8.937a3 3 0 1 0 0 1M14.683 24.54l-2.85 2.85a3 3 0 1 0 .707.707l2.846-2.846a7 7 0 0 1-.703-.711M20.5 31.086v-4.11c-.165.012-.331.024-.5.024s-.334-.012-.5-.025v4.111a3 3 0 1 0 1 0M25.25 15.386l2.936-2.935a3 3 0 1 0-.707-.707l-2.939 2.939a7 7 0 0 1 .71.703M34.013 17a2.994 2.994 0 0 0-2.95 2.5h-4.088c.013.165.025.331.025.5s-.012.335-.025.5h4.088a2.996 2.996 0 1 0 2.95-3.5ZM28.227 27.464l-2.917-2.916a7 7 0 0 1-.704.71l2.914 2.913a3 3 0 1 0 .707-.707ZM20 3.01a2.995 2.995 0 0 0-.5 5.95v4.065c.166-.013.331-.025.5-.025s.335.012.5.025V8.96a2.995 2.995 0 0 0-.5-5.95M12.263 7.965a3 3 0 1 0-.39 4.56l2.87 2.87a7 7 0 0 1 .71-.705L12.58 11.82a2.994 2.994 0 0 0-.318-3.854" fill="#fa9319"/><path d="M25.975 20.5c.014-.166.025-.331.025-.5s-.01-.334-.025-.5a5.95 5.95 0 0 0-1.429-3.41 6 6 0 0 0-.71-.703 5.96 5.96 0 0 0-3.336-1.363c-.166-.013-.331-.024-.5-.024s-.334.01-.5.025a5.96 5.96 0 0 0-3.344 1.37 6 6 0 0 0-.71.703 5.95 5.95 0 0 0-1.421 3.403c-.014.165-.025.33-.025.499s.01.334.025.5a5.96 5.96 0 0 0 1.362 3.336 6 6 0 0 0 .703.71 5.95 5.95 0 0 0 3.41 1.43c.166.013.331.024.5.024s.334-.011.5-.025a5.95 5.95 0 0 0 3.402-1.422 6 6 0 0 0 .703-.71 5.96 5.96 0 0 0 1.37-3.344m-5.26 3.14v1.015h-1.297v-.992a2.5 2.5 0 0 1-2.128-1.778l1.462-.546a1.37 1.37 0 0 0 1.354 1.059c.6 0 .926-.285.926-.732 0-1.462-3.447-.85-3.447-3.426a1.967 1.967 0 0 1 1.833-1.985V15.25h1.309v1.015a2.18 2.18 0 0 1 1.778 1.56l-1.473.556a1.05 1.05 0 0 0-1.047-.884c-.567 0-.851.273-.851.72 0 1.353 3.48.644 3.48 3.339a2.116 2.116 0 0 1-1.898 2.084Z" fill="#fae052"/><path d="M19.134 18.219c0-.447.284-.721.851-.721a1.05 1.05 0 0 1 1.047.884l1.473-.556a2.18 2.18 0 0 0-1.778-1.56V15.25h-1.309v1.004a1.967 1.967 0 0 0-1.833 1.985c0 2.575 3.447 1.964 3.447 3.426 0 .447-.327.731-.927.731a1.37 1.37 0 0 1-1.353-1.058l-1.462.546a2.5 2.5 0 0 0 2.128 1.778v.992h1.298v-1.014a2.116 2.116 0 0 0 1.898-2.084c0-2.695-3.48-1.986-3.48-3.338" fill="#000d6e"/></g></svg>