<svg xmlns="http://www.w3.org/2000/svg" viewBox="0 0 40 40" focusable="false" aria-hidden="true"><path fill="none" d="M0 0h40v40H0z"/><g data-name="Icon Purple"><path d="M13.025 19.5H8.937a3 3 0 1 0 0 1h4.088c-.013-.166-.025-.331-.025-.5s.012-.335.025-.5M11.833 27.39a3 3 0 1 0 .707.707l2.846-2.846a7 7 0 0 1-.703-.71ZM19.5 26.975v4.111a3 3 0 1 0 1 0v-4.11c-.165.012-.331.024-.5.024s-.334-.012-.5-.025M28.186 12.45a3 3 0 1 0-.707-.706l-2.939 2.939a7 7 0 0 1 .71.703ZM34.013 17a2.994 2.994 0 0 0-2.95 2.5h-4.088c.013.165.025.331.025.5s-.012.335-.025.5h4.088a2.996 2.996 0 1 0 2.95-3.5ZM27.52 28.171a3 3 0 1 0 .707-.707l-2.917-2.916a7 7 0 0 1-.704.71ZM20.5 13.025V8.96a3 3 0 1 0-1 0v4.065c.166-.013.331-.025.5-.025s.334.012.5.025M12.58 11.819a3 3 0 1 0-.706.707l2.868 2.868a7 7 0 0 1 .71-.704Z" fill="#6c2273"/><path d="M24.546 16.09a6 6 0 0 0-.71-.703 5.96 5.96 0 0 0-3.336-1.363c-.166-.013-.331-.024-.5-.024s-.334.01-.5.025a5.96 5.96 0 0 0-3.344 1.37 6 6 0 0 0-.71.703 5.95 5.95 0 0 0-1.421 3.403c-.014.165-.025.33-.025.499s.01.334.025.5a5.96 5.96 0 0 0 1.362 3.336 6 6 0 0 0 .703.71 5.95 5.95 0 0 0 3.41 1.43c.166.013.331.024.5.024s.334-.011.5-.025a5.95 5.95 0 0 0 3.402-1.422 6 6 0 0 0 .703-.71 5.96 5.96 0 0 0 1.37-3.344q.023-.246.025-.499c.002-.253-.01-.334-.025-.5a5.95 5.95 0 0 0-1.429-3.41m-3.83 7.55v1.015h-1.298v-.992a2.5 2.5 0 0 1-2.128-1.778l1.462-.546a1.37 1.37 0 0 0 1.354 1.058c.6 0 .926-.284.926-.731 0-1.462-3.447-.85-3.447-3.426a1.967 1.967 0 0 1 1.833-1.985V15.25h1.309v1.015a2.18 2.18 0 0 1 1.778 1.56l-1.473.556a1.05 1.05 0 0 0-1.047-.884c-.567 0-.851.273-.851.72 0 1.353 3.48.644 3.48 3.339a2.116 2.116 0 0 1-1.898 2.084Z" fill="#b8b2ff"/><path d="M19.134 18.219c0-.447.284-.721.851-.721a1.05 1.05 0 0 1 1.047.884l1.473-.556a2.18 2.18 0 0 0-1.778-1.56V15.25h-1.309v1.004a1.967 1.967 0 0 0-1.833 1.985c0 2.575 3.447 1.964 3.447 3.426 0 .447-.327.731-.927.731a1.37 1.37 0 0 1-1.353-1.058l-1.462.546a2.5 2.5 0 0 0 2.128 1.778v.992h1.298v-1.014a2.116 2.116 0 0 0 1.898-2.084c0-2.695-3.48-1.986-3.48-3.338" fill="#000d6e"/></g></svg>