<svg data-name="Calque 1" xmlns="http://www.w3.org/2000/svg" viewBox="0 0 40 40" focusable="false" aria-hidden="true"><path d="M0 0h40v40H0z" fill="none"/><path d="m24.58 25.28 3.61 4.81c2.9-2.36 4.65-5.85 4.78-9.59h-6a6.96 6.96 0 0 1-2.39 4.78" fill="#ffa39d"/><path d="M20 27c-3.86 0-7-3.12-7.01-6.98 0-3.68 2.84-6.74 6.51-6.99V7.02c-7.17.27-12.76 6.31-12.49 13.48s6.31 12.76 13.48 12.49c2.47-.09 4.87-.89 6.9-2.3l-3.61-4.81A6.96 6.96 0 0 1 20 27" fill="#d0304c"/><path d="M26.98 19.5h6c-.26-6.78-5.7-12.22-12.47-12.47v6a7.01 7.01 0 0 1 6.48 6.48Z" fill="#ffa39d"/><path d="M20.03 14A5.99 5.99 0 0 0 14 19.97 5.99 5.99 0 0 0 19.97 26c3.31.02 6.02-2.65 6.03-5.97A5.99 5.99 0 0 0 20.03 14m.53 4.9-.09.89h-1.93c0 .06-.01.13-.01.21v.23h1.87l-.09.89h-1.5c.34.52.93.83 1.56.81.63.05 1.22-.27 1.51-.83l1.19.81c-.6.89-1.62 1.4-2.69 1.35-1.4.04-2.66-.84-3.11-2.16h-.82l.09-.88h.57c0-.07-.01-.15 0-.22 0-.07 0-.14.01-.22h-.5l.09-.89h.59a3.19 3.19 0 0 1 3.14-2.12 3.11 3.11 0 0 1 2.67 1.37l-1.2.79c-.29-.55-.89-.88-1.51-.84-.62-.03-1.22.28-1.56.8h1.73Z" fill="#000d6e"/></svg>