<svg xmlns="http://www.w3.org/2000/svg" viewBox="0 0 40 40" focusable="false" aria-hidden="true"><path fill="none" d="M0 0h40v40H0z"/><g data-name="Icon Purple"><path d="m12.427 14.513.005-.02ZM17.175 32.387q.07.606.155 1.26a83 83 0 0 1-.155-1.26M14.291 18.113l.004.012q-.049-.137-.094-.279zM16.841 28.552q-.018-.334-.03-.643.012.309.03.643M16.78 26.924l-.007-.517c0 .161.004.338.007.517M22.825 32.388q-.07.607-.155 1.26.085-.654.155-1.26M23.224 25.767c.002.128.002.272.002.415 0-.143 0-.287-.002-.415M16.873 24.038l.003-.038s-.042.298-.073.901c.03-.493.06-.794.068-.861ZM23.13 24.04l.002.018-.005-.04.001.02ZM27.615 14.406c-.007-.027-.01-.055-.018-.082q.009.04.018.083ZM12.89 13.507l.024-.029ZM27.39 13.812l-.026-.045zM15.08 19.837a7.2 7.2 0 0 0 1.91 2.129l.004.134-.003-.134a7.2 7.2 0 0 1-1.91-2.129M16.522 7.876a5 5 0 0 0-.602.057 5 5 0 0 1 .603-.057ZM17.22 7.918a4.6 4.6 0 0 0-.672-.044 4.6 4.6 0 0 1 .673.044ZM15.734 7.968q-.21.041-.408.098.197-.056.409-.098ZM27.028 13.364l.023.018ZM15.16 8.114q-.256.081-.488.176a7 7 0 0 1 .489-.176ZM13.249 13.218q.031-.015.062-.028zM17.975 8.086c-.105-.031-.205-.05-.307-.074.102.024.203.043.308.075ZM26.647 13.142" fill="none"/><path d="M22.412 35.47a94 94 0 0 0 .258-1.821q.086-.654.155-1.261l.04-.344c.055-.502.105-.986.145-1.438V30.6a3.935 3.935 0 0 1-6.021-.002v.002c.04.453.09.938.146 1.442q.018.171.04.345a82 82 0 0 0 .412 3.082c.028.183.053.36.083.547.1.636.208 1.293.33 1.984h3.999c.122-.69.23-1.347.33-1.982.03-.188.055-.365.083-.548" fill="#000d6e"/><path d="M17.588 35.468a90 90 0 0 1-.258-1.821q-.085-.654-.155-1.26l-.04-.345a71 71 0 0 1-.145-1.443c-.028-.304-.05-.589-.071-.87l-.016-.2q-.027-.383-.048-.737l-.014-.24-.03-.642-.01-.226-.017-.572-.004-.188-.007-.517v-.096q.002-.871.03-1.406v-.003c.03-.603.073-.901.073-.901l-2.466 1.245-7.506 3.793a4 4 0 0 0-2.167 3.076L4 38h14c-.123-.691-.23-1.348-.33-1.984-.03-.188-.055-.365-.083-.548M35.264 32.115a4 4 0 0 0-2.167-3.077l-7.506-3.792L23.124 24l.003.018.005.04v.002c.013.107.04.365.062.784l.001.033c.01.201.019.445.025.719l.004.17c.002.128.002.272.002.415v.197q0 .234-.006.492l-.004.21a41 41 0 0 1-.026.796q-.012.317-.031.66l-.013.22c-.014.245-.03.495-.049.76l-.015.193c-.021.287-.044.579-.072.889v.007a74 74 0 0 1-.186 1.782q-.07.607-.155 1.261a88 88 0 0 1-.258 1.821c-.028.184-.053.36-.083.548-.1.636-.207 1.292-.33 1.983h14Z" fill="#6c2273"/><path d="m16.994 22.1-.003-.134a7.2 7.2 0 0 1-1.91-2.129 9 9 0 0 1-.785-1.711l-.004-.013-.09-.266a10 10 0 0 1-.258-.977 1 1 0 0 1-.24.035c-.732 0-1.326-.853-1.326-1.905a2.7 2.7 0 0 1 .05-.486l.004-.021a2.1 2.1 0 0 1 .458-.986l.024-.028a1.3 1.3 0 0 1 .335-.261q.032-.015.063-.028a1 1 0 0 1 .392-.094h.005l-.027-3.603a6 6 0 0 1 .052-.768c.268-.13.581-.289.938-.435q.231-.094.488-.175.082-.026.165-.048.198-.056.41-.098.091-.019.185-.035a5 5 0 0 1 .601-.058h.001l.025-.002a4.6 4.6 0 0 1 .673.045c.144.019.297.06.447.094.102.024.202.043.308.074A5.7 5.7 0 0 1 19 8.5c.488.257 1.026.534 1.58.815a328 328 0 0 0 5.786 2.86l.006.923a1 1 0 0 1 .274.045 1.1 1.1 0 0 1 .381.222l.023.017a1.6 1.6 0 0 1 .312.385l.026.046a2.2 2.2 0 0 1 .208.511q.01.041.017.082a2.6 2.6 0 0 1 .074.594c0 1.052-.594 1.905-1.326 1.905a1 1 0 0 1-.201-.03 8.24 8.24 0 0 1-3.157 5.168L23.126 24l4.382 2.214 3.221 1.628c1.32-.892 1.954-1.918 1.387-2.846-.945-1.546-1.334-4.754-1.925-7.921a62 62 0 0 0-2.203-9.14c-.71-2.695-2.8-5.7-7.9-5.87-3.767 0-6.89 2.353-7.52 4.96-.927 2.536-3.27 10.355.33 16.63a7.2 7.2 0 0 0 1.341 1.679l.17-.087L16.877 24Z" fill="#000d6e"/><path d="M26.16 16.876a1 1 0 0 0 .201.029c.732 0 1.326-.853 1.326-1.905a2.6 2.6 0 0 0-.072-.594q-.008-.041-.018-.082a2.2 2.2 0 0 0-.207-.512l-.026-.046a1.6 1.6 0 0 0-.313-.384l-.023-.018a1.1 1.1 0 0 0-.381-.222 1 1 0 0 0-.273-.045l-.007-.922-1.047-.508a331 331 0 0 1-4.74-2.352A137 137 0 0 1 19 8.5a5.7 5.7 0 0 0-1.024-.413c-.105-.032-.206-.051-.308-.075-.15-.034-.303-.075-.447-.094a4.6 4.6 0 0 0-.673-.044l-.025.002a5 5 0 0 0-.602.058q-.095.015-.186.035-.212.041-.41.098-.083.023-.165.047a7 7 0 0 0-.489.176c-.356.146-.67.305-.938.435a6 6 0 0 0-.052.768l.027 3.603h-.004a1 1 0 0 0-.392.094q-.031.013-.063.028a1.3 1.3 0 0 0-.335.26l-.024.029a2.1 2.1 0 0 0-.458.985l-.005.021a2.7 2.7 0 0 0-.05.487c0 1.052.594 1.905 1.326 1.905a1 1 0 0 0 .24-.035 10 10 0 0 0 .258.976q.045.142.094.28a9 9 0 0 0 .785 1.711 7.2 7.2 0 0 0 1.91 2.129l.004.134-.118 1.9-.003.038-.002.002c-.007.067-.038.368-.068.861v.003a27 27 0 0 0-.03 1.406v.096c.001.162.004.338.007.517l.004.188q.006.273.018.572l.008.226q.013.308.031.643a51 51 0 0 0 .062.976l.016.2c.021.28.043.567.07.87a3.935 3.935 0 0 0 6.021.002v-.002c.028-.31.05-.602.072-.889l.015-.192q.029-.396.05-.76l.012-.22a50 50 0 0 0 .057-1.456l.004-.21c.003-.17.006-.338.006-.492v-.197c0-.144 0-.287-.002-.415l-.004-.17a24 24 0 0 0-.025-.72l-.001-.032a20 20 0 0 0-.062-.784v-.003l-.002-.018-.002-.002-.001-.02-.003-.018h.002l-.123-1.957a8.24 8.24 0 0 0 3.157-5.167" fill="#b8b2ff"/></g></svg>