<svg xmlns="http://www.w3.org/2000/svg" viewBox="0 0 40 40" focusable="false" aria-hidden="true"><g id="Solid"><rect width="40" height="40" fill="none"/></g><g id="Icon_Purple" data-name="Icon Purple"><path d="M34,33H6.0006A1.0005,1.0005,0,0,0,5,34.0005V36H35V34A1,1,0,0,0,34,33Z" fill="#b8b2ff"/><rect x="6.9955" y="16" width="3" height="16" fill="#6c2273"/><rect x="13" y="16" width="3" height="16" fill="#6c2273"/><rect x="23.9977" y="16" width="3" height="16" fill="#6c2273"/><rect x="30.0023" y="16" width="3" height="16" fill="#6c2273"/><path d="M36.2837,10.4414,20.3906,4.0879a.963.963,0,0,0-.7812,0L3.7163,10.4414a.5.5,0,1,0,.3711.9277L19.6487,5.1635a1,1,0,0,1,.7416,0l15.5223,6.2053a.5.5,0,1,0,.3711-.9277Z" fill="#000d6e"/><path d="M34.6545,12.0011,20.3768,6.1552a1,1,0,0,0-.758,0L5.3456,12.0011A.5136.5136,0,0,0,5,12.5V15H35V12.5A.5137.5137,0,0,0,34.6545,12.0011Z" fill="#b8b2ff"/></g></svg>