<?xml version="1.0" encoding="iso-8859-1"?><!--Generator: Adobe Illustrator 26.2.1, SVG Export Plug-In . SVG Version: 6.00 Build 0)--><svg version="1.1" xmlns="http://www.w3.org/2000/svg" xmlns:xlink="http://www.w3.org/1999/xlink" x="0px" y="0px" viewBox="0 0 40 40" xml:space="preserve" focusable="false" aria-hidden="true" enable-background="new 0 0 40 40"><g id="Solid"><rect width="40" height="40" fill="none"/></g><g id="Icon_Red"><path d="M12.5,27.416v-8.832c0-1.425,1.152-2.584,2.567-2.584H15.5v-0.416c0-1.425,1.152-2.584,2.567-2.584
		H18.5v-2h-14v21h14v-2h-3.433C13.652,30,12.5,28.841,12.5,27.416z" fill="#FFACA6"/><path d="M33.933,14H18.067c-0.866,0-1.567,0.709-1.567,1.584v8.832c0,0.875,0.702,1.584,1.567,1.584h15.865
		c0.866,0,1.567-0.709,1.567-1.584v-8.832C35.5,14.709,34.798,14,33.933,14z" fill="#FFACA6"/><path d="M18.067,27c-1.416,0-2.567-1.159-2.567-2.584V17h-0.433c-0.866,0-1.567,0.709-1.567,1.584v8.832
		c0,0.875,0.702,1.584,1.567,1.584h15.865c0.866,0,1.567-0.709,1.567-1.584V27H18.067z" fill="#FFACA6"/><path d="M18.875,21.421c0-0.793,0.309-1.539,0.869-2.1c0.116-0.116,0.116-0.304,0-0.42s-0.304-0.116-0.42,0
		c-0.673,0.673-1.043,1.568-1.043,2.519s0.371,1.846,1.043,2.519c0.058,0.058,0.134,0.087,0.21,0.087s0.152-0.029,0.21-0.087
		c0.116-0.116,0.116-0.304,0-0.42C19.184,22.96,18.875,22.214,18.875,21.421z" fill="#D9304C"/><path d="M20.065,21.422c0-0.477,0.186-0.925,0.523-1.262c0.116-0.116,0.116-0.304,0-0.42
		s-0.304-0.116-0.42,0c-0.449,0.449-0.697,1.047-0.697,1.682s0.248,1.233,0.697,1.683c0.058,0.058,0.134,0.087,0.21,0.087
		s0.152-0.029,0.21-0.087c0.116-0.116,0.116-0.304,0-0.42C20.251,22.347,20.065,21.899,20.065,21.422z" fill="#D9304C"/><path d="M21.428,20.579c-0.116-0.116-0.304-0.116-0.42,0c-0.464,0.465-0.464,1.221,0,1.686
		c0.058,0.058,0.134,0.087,0.21,0.087s0.152-0.029,0.21-0.087c0.116-0.116,0.116-0.304,0-0.42c-0.233-0.233-0.233-0.613,0-0.846
		C21.544,20.883,21.544,20.695,21.428,20.579z" fill="#D9304C"/><path d="M31.768,15.836c-0.07-0.07-0.183-0.07-0.252,0l-1.898,1.898c-0.07,0.07-0.07,0.183,0,0.252
		l1.898,1.898c0.07,0.07,0.183,0.07,0.252,0l1.053-1.053l-0.641-0.641l-0.538,0.538l-0.868-0.868l0.868-0.868l1.51,1.51l0.515-0.515
		c0.07-0.07,0.07-0.183,0-0.252L31.768,15.836z" fill="#000D6E"/><path d="M4.5,32v1.974C4.5,34.541,4.959,35,5.526,35h11.948c0.567,0,1.026-0.459,1.026-1.026V32" fill="#D9304C"/><circle cx="11.5" cy="32" r="1" fill="#000D6E"/><path d="M18.5,32h-14C4.5,32,18.459,32,18.5,32z" fill="#1B5951"/><g><circle cx="15.988" cy="9.5" r="0.5" fill="none"/><path d="M14,9H9C8.724,9,8.5,9.224,8.5,9.5C8.5,9.776,8.724,10,9,10h5c0.276,0,0.5-0.224,0.5-0.5
			C14.5,9.224,14.276,9,14,9z" fill="#FFACA6"/><path d="M17.564,8H5.436C4.919,8,4.5,8.419,4.5,8.936V11h14V8.936C18.5,8.419,18.081,8,17.564,8z M14,10H9
			c-0.276,0-0.5-0.224-0.5-0.5C8.5,9.224,8.724,9,9,9h5c0.276,0,0.5,0.224,0.5,0.5C14.5,9.776,14.276,10,14,10z M15.988,10
			c-0.276,0-0.5-0.224-0.5-0.5c0-0.276,0.224-0.5,0.5-0.5c0.276,0,0.5,0.224,0.5,0.5C16.488,9.776,16.265,10,15.988,10z" fill="#D9304C"/></g><circle cx="15.988" cy="9.5" r="0.5" fill="#FFACA6"/></g></svg>