<?xml version="1.0" encoding="iso-8859-1"?><!--Generator: Adobe Illustrator 26.2.1, SVG Export Plug-In . SVG Version: 6.00 Build 0)--><svg version="1.1" xmlns="http://www.w3.org/2000/svg" xmlns:xlink="http://www.w3.org/1999/xlink" x="0px" y="0px" viewBox="0 0 40 40" xml:space="preserve" focusable="false" aria-hidden="true" enable-background="new 0 0 40 40"><g id="Solid"><rect width="40" height="40" fill="none"/></g><g id="Icon_Red"><g><path d="M33.999,33H6.001C5.448,33,5,33.448,5,34.001V36h30c0-0.776,0-1.473,0-2
			C35,33.448,34.552,33,33.999,33z" fill="#FFACA6"/><path d="M36.284,10.441L20.391,4.088c-0.281-0.112-0.572-0.107-0.781,0L3.716,10.441
			c-0.256,0.103-0.381,0.393-0.279,0.649c0.103,0.256,0.395,0.38,0.65,0.278l15.561-6.206c0.238-0.095,0.504-0.095,0.742,0
			l15.522,6.205c0.061,0.024,0.124,0.036,0.186,0.036c0.198,0,0.386-0.119,0.464-0.314C36.665,10.834,36.54,10.544,36.284,10.441z" fill="#000D6E"/><path d="M34.654,12.001L20.377,6.155c-0.243-0.099-0.515-0.099-0.758,0L5.346,12.001
			C5.126,12.089,5,12.265,5,12.5V15h30v-2.5C35,12.265,34.874,12.089,34.654,12.001z" fill="#FFACA6"/><path d="M6.997,16v16h26.007V16H6.997z M20.001,30c-3.314,0-6-2.686-6-6s2.686-6,6-6s6,2.686,6,6
			S23.315,30,20.001,30z" fill="#D9304C"/><g><path d="M20.001,18c-3.314,0-6,2.686-6,6s2.686,6,6,6s6-2.686,6-6S23.315,18,20.001,18z M17.028,24.88
				c0.448,0,0.712-0.246,0.817-0.633l0.628,0.255c-0.167,0.532-0.655,0.997-1.437,0.997c-0.892,0-1.569-0.663-1.569-1.582
				c0-0.922,0.677-1.586,1.573-1.586c0.787,0,1.27,0.483,1.433,0.998l-0.628,0.254c-0.105-0.382-0.374-0.633-0.822-0.633
				c-0.523,0-0.892,0.387-0.892,0.967C16.131,24.493,16.501,24.88,17.028,24.88z M21.475,25.442H20.82v-1.266h-1.165v1.266h-0.655
				v-3.055h0.655v1.205h1.165v-1.205h0.655V25.442z M24.248,22.955h-1.375v0.677h1.213v0.566h-1.213v1.244h-0.655v-3.055h2.03
				V22.955z" fill="#FFACA6"/></g><path d="M17.024,22.95c0.448,0,0.716,0.251,0.822,0.633l0.628-0.254c-0.163-0.515-0.646-0.998-1.433-0.998
			c-0.896,0-1.573,0.664-1.573,1.586c0,0.919,0.677,1.582,1.569,1.582c0.782,0,1.27-0.465,1.437-0.997l-0.628-0.255
			c-0.105,0.387-0.369,0.633-0.817,0.633c-0.527,0-0.896-0.387-0.896-0.963C16.131,23.337,16.501,22.95,17.024,22.95z" fill="#000D6E"/><polygon points="20.82,23.593 19.655,23.593 19.655,22.388 19.001,22.388 19.001,25.442 19.655,25.442 
			19.655,24.177 20.82,24.177 20.82,25.442 21.475,25.442 21.475,22.388 20.82,22.388 		" fill="#000D6E"/><polygon points="22.217,25.442 22.872,25.442 22.872,24.198 24.085,24.198 24.085,23.632 22.872,23.632 
			22.872,22.955 24.248,22.955 24.248,22.388 22.217,22.388 		" fill="#000D6E"/></g></g></svg>