<svg xmlns="http://www.w3.org/2000/svg" viewBox="0 0 40 40" focusable="false" aria-hidden="true"><path fill="none" d="M0 0h40v40H0z"/><g data-name="Icon Purple"><path d="M35.902 20H35v8h1v-1.981a1.09 1.09 0 0 0 1-1.085v-3.829A1.1 1.1 0 0 0 35.902 20" fill="#000d6e"/><path d="M34 20H3a15 15 0 0 0 1.129 2H34Z" fill="#b8b2ff"/><path d="M13.153 28H34v-5H5c1.864 2.467 4.748 5 8.153 5M12.765 15.967c1.508-1.723 2.042-1.968 3.22-1.968h.037V19H17v-6h-1.016c-1.555 0-2.33.453-3.96 2.315L9 19h1.276Z" fill="#6c2273"/></g></svg>