<svg viewBox="0 0 40 40" fill="none" xmlns="http://www.w3.org/2000/svg" focusable="false" aria-hidden="true"><rect width="40" height="40"/><path d="M28.7713 4H24.503V6.46067L28.7713 10.396V4Z" fill="#6C2273"/><path fill-rule="evenodd" clip-rule="evenodd" d="M8.49695 15.7346L18.5253 6.48734C18.6984 6.32957 18.9234 6.24097 19.1576 6.23841C19.3917 6.23586 19.6187 6.31952 19.7951 6.47347L29.8384 15.7346V22.8707H19.4345C18.8429 22.8707 18.2755 23.1058 17.8572 23.5241C17.4388 23.9424 17.2038 24.5098 17.2038 25.1014V27.3422V27.3525H16.6334C16.3389 27.3525 16.0566 27.4694 15.8483 27.6776C15.6401 27.8858 15.5232 28.1682 15.5232 28.4627V33.878H8.49695V15.7346ZM29.8384 33.878H16.0732V33.3281V28.4627C16.0732 28.3141 16.1322 28.1716 16.2373 28.0665C16.3423 27.9615 16.4848 27.9025 16.6334 27.9025H18.8742C19.0228 27.9025 19.1653 27.9615 19.2704 28.0665C19.3754 28.1716 19.4345 28.3141 19.4345 28.4627V30.1535V30.7035H19.9845H29.2884H29.8384V31.2535V33.3281V33.878ZM29.8384 23.4207V30.1433H29.5285H20.5447H19.9947V29.5933V28.4627C19.9947 28.1655 19.8766 27.8805 19.6665 27.6704C19.4564 27.4603 19.1714 27.3422 18.8742 27.3422H18.3038H17.7538V26.7922V25.1014C17.7538 24.6557 17.9309 24.2282 18.2461 23.913C18.5612 23.5978 18.9887 23.4207 19.4345 23.4207H29.8384Z" fill="#B8B2FF"/><path d="M32.3343 15.1328L21.2378 4.89952C20.6685 4.3878 19.9298 4.10524 19.1643 4.10642C18.3989 4.1076 17.661 4.39245 17.0933 4.90592L6 15.1328L6.36174 15.5254L6.72348 15.9171L17.8104 5.69449C18.1815 5.35947 18.6635 5.17357 19.1635 5.17258C19.6635 5.1716 20.1461 5.3556 20.5186 5.68916L31.6098 15.9171L31.9715 15.5254L32.3332 15.1338L32.3343 15.1328Z" fill="#000D6E"/><path d="M19.9947 28.4627V30.1433H30.0785V28.4627C30.0785 28.1655 30.1965 27.8805 30.4067 27.6704C30.6168 27.4603 30.9018 27.3422 31.1989 27.3422H32.3194V25.1014C32.3194 24.6557 32.1423 24.2282 31.8271 23.913C31.5119 23.5978 31.0845 23.4207 30.6387 23.4207H19.4345C18.9887 23.4207 18.5612 23.5978 18.2461 23.913C17.9309 24.2282 17.7538 24.6557 17.7538 25.1014V27.3422H18.8742C19.1714 27.3422 19.4564 27.4603 19.6665 27.6704C19.8766 27.8805 19.9947 28.1655 19.9947 28.4627Z" fill="#6C2273"/><path d="M34 35.7454V28.4626C34 28.3141 33.941 28.1716 33.8359 28.0665C33.7309 27.9615 33.5884 27.9024 33.4398 27.9024H31.1989C31.0504 27.9024 30.9079 27.9615 30.8028 28.0665C30.6977 28.1716 30.6387 28.3141 30.6387 28.4626V30.7035H19.4345V28.4626C19.4345 28.3141 19.3754 28.1716 19.2704 28.0665C19.1653 27.9615 19.0228 27.9024 18.8742 27.9024H16.6334C16.4848 27.9024 16.3423 27.9615 16.2373 28.0665C16.1322 28.1716 16.0732 28.3141 16.0732 28.4626V35.7454H34Z" fill="#B8B2FF"/><path d="M18.314 35.7454V36.8658C18.314 37.0144 18.373 37.1569 18.4781 37.262C18.5832 37.367 18.7257 37.4261 18.8742 37.4261C19.0228 37.4261 19.1653 37.367 19.2704 37.262C19.3754 37.1569 19.4344 37.0144 19.4344 36.8658V35.7454H18.314ZM30.6387 35.7454V36.8658C30.6387 37.0144 30.6977 37.1569 30.8028 37.262C30.9079 37.367 31.0503 37.4261 31.1989 37.4261C31.3475 37.4261 31.49 37.367 31.5951 37.262C31.7001 37.1569 31.7591 37.0144 31.7591 36.8658V35.7454H30.6387Z" fill="#000D6E"/></svg>