<svg xmlns="http://www.w3.org/2000/svg" viewBox="0 0 40 40" focusable="false" aria-hidden="true"><path fill="none" d="M0 0h40v40H0z"/><g data-name="Icon Green"><path d="M7.479 31.013a3.5 3.5 0 0 1-.498-.05V35h1.035v-4.041a3.5 3.5 0 0 1-.537.054" fill="#1b5951"/><path d="M7.479 24a3.506 3.506 0 1 0 3.506 3.506A3.506 3.506 0 0 0 7.48 24M14 18.013h6v3h-6zM14 21.994h6v3h-6z" fill="#94e3d4"/><path fill="none" d="M14 21.994h6v3h-6zM14 18.013h6v3h-6z"/><path d="M34.996 8H20v8h-7a1 1 0 0 0-1 1v18h13v-7h6v7h5V9.004A1.004 1.004 0 0 0 34.996 8M20 24.994h-6v-3h6Zm0-3.981h-6v-3h6Zm5 3.993h-3v-3h3Zm0-3.993h-3v-3h3Zm0-4.007h-3v-3h3Zm0-3.993h-3v-3h3Zm4.5 11.993h-3v-3h3Zm0-3.993h-3v-3h3Zm0-4.007h-3v-3h3Zm0-3.993h-3v-3h3Zm4.5 11.98h-3v-3h3ZM34 21h-3v-3h3Zm0-4.006h-3v-3h3ZM34 13h-3v-3h3Z" fill="#1b5951"/><path fill="#fff" d="M22 10.013h3v3h-3zM26.5 10.013h3v3h-3zM31 10h3v3h-3zM22 14.006h3v3h-3zM26.5 14.006h3v3h-3zM31 13.994h3v3h-3zM22 18.013h3v3h-3zM26.5 18.013h3v3h-3zM31 18h3v3h-3zM22 22.006h3v3h-3zM26.5 22.006h3v3h-3zM31 21.994h3v3h-3z"/><path fill="#000d6e" d="M25 28h6v7h-6z"/></g></svg>