<?xml version="1.0" encoding="iso-8859-1"?><!--Generator: Adobe Illustrator 26.2.1, SVG Export Plug-In . SVG Version: 6.00 Build 0)--><svg version="1.1" xmlns="http://www.w3.org/2000/svg" xmlns:xlink="http://www.w3.org/1999/xlink" x="0px" y="0px" viewBox="0 0 40 40" xml:space="preserve" focusable="false" aria-hidden="true" enable-background="new 0 0 40 40"><g id="Solid"><rect width="40" height="40" fill="none"/></g><g id="Icon_Green"><g><path d="M33,10H10.955l3.897,4H36v-1C36,11.343,34.657,10,33,10z" fill="#94E3D4"/><path d="M9.558,10H7c-1.657,0-3,1.343-3,3v1h9.455L9.558,10z" fill="#94E3D4"/><path d="M30.442,30H33c1.657,0,3-1.343,3-3v-8H19.724L30.442,30z" fill="#94E3D4"/><path d="M4,19v8c0,1.657,1.343,3,3,3h22.046L18.327,19H4z" fill="#94E3D4"/><polygon points="13.455,14 4,14 4,19 18.327,19 		" fill="#1B5951"/><polygon points="19.724,19 36,19 36,14 14.852,14 		" fill="#1B5951"/></g></g></svg>