<svg xmlns="http://www.w3.org/2000/svg" viewBox="0 0 40 40" focusable="false" aria-hidden="true"><path fill="none" d="M0 0h40v40H0z"/><g data-name="Icon Red"><path d="M10.014 36.859c0 .625.49 1.132 1.115 1.132h3.73c.626 0 1.133-.507 1.133-1.132v-3.861h-5.978z" fill="#000d6e"/><rect x="14.422301" y="18.023815" width="3.004658" height="1.957751" rx=".565973" ry=".565973" fill="#d9304c"/><path d="m13.697 19.993-2.903-6.91a3.4 3.4 0 0 0-3.134-2.089H2v8.999z" fill="#ffaca6"/><path d="m23.553 6.507 1.248-.304c4.048-.803 3.739-3.732 3.735-3.763a.49.49 0 0 0-.557-.434.5.5 0 0 0-.435.557c.002.02.176 1.743-2.29 2.496.287-.516.438-1.163.302-1.964a.5.5 0 1 0-.986.166c.25 1.481-.847 2.096-1.38 2.306l-.754.183c-.732.126-1.29.071-1.603-.17-.256-.196-.28-.465-.28-.466a.5.5 0 1 0-.999.033c.003.072.041.722.64 1.203q.587.468 1.557.468c.246 0 .52-.036.802-.081v.873l1-.366z" fill="#d9304c"/><path d="M35.337 24.35c-1.204-.64-5.092-6.033-7.166-7.811-1.79-1.535-4.31-7.468-4.31-7.468 1.855-.565 1.771-2.565 1.771-2.565-.048-.002-.86.292-2.08.738l-1 .366c-1.415.52-3.153 1.156-4.855 1.768-1.164.418-.614 1.59-.182 1.627 1.669.149 2.556.274 3.364.332 0 0 .455 2.157 1.205 5.423l-2.934-.924a.848.848 0 0 0-1.043.922l1.358 4.795c.04.244.25.423.498.423h.906l-1.192-4.173a.254.254 0 0 1 .313-.31l2.47 1.695c.909 5.69 5.443 5.462 7.02 6.711.912.723 1.013 1.28.883 1.659-.232.675-.272 2.284.004 2.942.45 1.076 1.248 1.557 2.776 2.175l1.005 4.902c.04.244.25.423.497.423h.907l-.793-6.006c-.064-.451-1.453-.738-1.046-1.326 1.152-1.667 1.714-4.199 1.537-4.961 0 0 1.574.705 2.615-1.228 0 0-1.513.41-2.528-.13" fill="#ffaca6"/><path d="m15.64 24.407-1.562-3.396H2v10.991h13.992V26.15a4.4 4.4 0 0 0-.351-1.743M11.75 29a1.75 1.75 0 1 1 0-3.5 1.75 1.75 0 0 1 0 3.5" fill="#d9304c"/></g></svg>