<svg xmlns="http://www.w3.org/2000/svg" viewBox="0 0 40 40" focusable="false" aria-hidden="true"><path fill="none" d="M0 0h40v40H0z"/><g data-name="Icon Tangerine"><circle cx="12.4383" cy="25.583899" r="3" fill="#fae052"/><path d="M33.67 12.52c-.889.034-1.737.319-2.405.924l-3.44 3.27 1.518-.056 2.6-2.478c.484-.439 1.115-.636 1.765-.66L38 13.492v-1zM35.794 18.41l-1.998.073a.5.5 0 0 0-.481.523c.01.279.242.496.518.486l1.998-.075a.5.5 0 0 0 .48-.522.5.5 0 0 0-.517-.486" fill="#fae052"/><path d="m23.543 20.79-.617-.858-1.633.913s-.922.518-.868 1.96l.08 2.178c.021.554.488.991 1.037.97l1.978-.073h.021c-.012-.321.025-.63.085-.932l-1.891-2.882z" fill="#fa9319"/><path d="m26.83 17.752-3.026 1.69 1.14 1.584-1.842 1.3.958 1.46a3.99 3.99 0 0 1 3.33-2.052 4.004 4.004 0 0 1 4.146 3.849L38 25.324v-8.006zm9.001 1.665-1.998.075a.5.5 0 0 1-.518-.486.5.5 0 0 1 .48-.523l1.999-.074a.5.5 0 0 1 .518.486.5.5 0 0 1-.481.522" fill="#fa9319"/><path d="M12.438 24.084c.829 0 1.5.695 1.5 1.552s-.671 1.448-1.5 1.448-1.5-.591-1.5-1.448.672-1.552 1.5-1.552" fill="#000d6e"/><circle cx="27.5397" cy="25.583899" r="3" fill="#fae052"/><path d="M27.54 24.084c.828 0 1.5.695 1.5 1.552s-.672 1.448-1.5 1.448-1.5-.591-1.5-1.448.671-1.552 1.5-1.552" fill="#000d6e"/><path d="M6.301 12.52c.89.034 1.738.319 2.406.924l3.44 3.27-1.518-.056-2.6-2.478c-.484-.439-1.115-.636-1.765-.66L2 13.492v-1zM4.178 18.41l1.998.073c.276.01.491.244.48.523a.5.5 0 0 1-.517.486l-1.998-.075a.5.5 0 0 1-.481-.522.5.5 0 0 1 .518-.486" fill="#fae052"/><path d="m16.429 20.79.617-.858 1.633.913s.921.518.868 1.96l-.081 2.178c-.02.554-.487.991-1.037.97l-1.978-.073h-.02c.011-.321-.025-.63-.086-.932l1.892-2.882z" fill="#fa9319"/><path d="M2 17.319v8.005l6.436.259a4.004 4.004 0 0 1 4.146-3.85 3.99 3.99 0 0 1 3.33 2.053l.958-1.46-1.843-1.3 1.14-1.584-3.025-1.69zm1.66 1.576a.5.5 0 0 1 .518-.486l1.998.074c.276.01.491.244.48.523a.5.5 0 0 1-.517.486l-1.998-.075a.5.5 0 0 1-.481-.522" fill="#fa9319"/></g></svg>