<?xml version="1.0" encoding="UTF-8"?><svg xmlns="http://www.w3.org/2000/svg" viewBox="0 0 40 40" focusable="false" aria-hidden="true"><g id="a"><rect width="40" height="40" fill="none" stroke-width="0px"/></g><g id="b"><path d="M23.76,29.91c-.72,0-1.31.59-1.31,1.31s.59,1.31,1.31,1.31,1.31-.59,1.31-1.31-.59-1.31-1.31-1.31Z" stroke-width="0px" fill="#000d6e"/><polygon points="28.88 12.1 28.45 13.25 29.45 13.45 29.94 12.12 28.88 12.1" stroke-width="0px" fill="#000d6e"/><path d="M24.75,23.79l3.96,4.07-.86,4.28c-.11.55-.7.65-1.14.23-.05-.05-.34-.29-.72-.61.04-.18.07-.36.07-.55,0-1.28-1.04-2.31-2.31-2.31-.33,0-.65.07-.93.2-.36-.3-1.13-.98-1.17-1.48-.11-1.34.15-3.02.35-4,.41-2.02,1.55-4.62,2.54-6.65l2.69,3.26-2.49,3.56ZM30.33,13.62l-.88-.18-1-.2-1.07-.21c-.53-.03-.97.27-1.13.72,0,0-.52.91-1.2,2.23l3.46,4.2-2.45,3.51,2.9,2.98,2.35-11.71c.06-.24.18-1.03-.98-1.34Z" stroke-width="0px" fill="#6c2273"/><path d="M29.94,12.12l1.17.02c.44,0,.81-.39.82-.88,0,0-.11-1.55-.2-2.62-.09-1.07-.09-2.75-.09-2.75,0-.49-.34-.88-.78-.89l-3.14.09c-.4,0-.74.31-.81.75,0,0-.12.97-.22,2.63-.1,1.66.14,3.01.24,3.18.14.24.38.41.66.42l1.29.03" stroke-width="0px" fill="#b8b2ff"/><path d="M26.75,33.11c-.27-.24-.6-.51-.97-.79-.39.72-1.15,1.22-2.03,1.22-1.28,0-2.31-1.04-2.31-2.31,0-.59.23-1.12.59-1.53-.47-.2-1.27-.4-1.85-.53-1.38-.21-3.18-.46-4.96-.6-2.02-.16-3.6-.13-4.61-.07-.38.02-1.43.33-1.95,1.06-.55.77-.55,1.98,0,2.79l1.62,2.21c.2.27.52.44.86.44h15.08c.52,0,1.23-1.25.52-1.88Z" stroke-width="0px" fill="#b8b2ff"/></g></svg>