<svg xmlns="http://www.w3.org/2000/svg" viewBox="0 0 40 40" focusable="false" aria-hidden="true"><path fill="none" d="M0 0h40v40H0z"/><g data-name="Icon Green"><circle cx="20.1468" cy="29.3752" r="5.500003" fill="#94e3d4"/><circle cx="20.1468" cy="29.3752" r="2.749999" fill="#000d6e"/><path d="m30.351 21.238-3.162-1.705-1.281 1.983 3.085 2.177-2.599 3.918c.152.533.244 1.09.252 1.669a7 7 0 0 1-.017.489l.097.002 3.331.075c.34.007.659-.09.928-.261v-7.783c-.332-.387-.634-.564-.634-.564" fill="#1b5951"/><path fill="#94e3d4" d="M30.985 2v35.995h7.03V2z"/><path d="M21.172 22.965q-.106-.019-.215-.033.108.014.215.033M18.746 23.027l-.013.004zM19.394 22.919c-.035.004-.067.012-.102.016q.05-.008.102-.016M22.894 23.498q-.078-.039-.157-.075.079.036.157.075M23.628 23.902q-.07-.044-.142-.086.072.042.142.086M24.322 24.412q-.015-.016-.032-.028zM21.987 23.146q-.078-.02-.157-.04.079.02.157.04M24.895 24.962l.077.083zM13.764 28.145l-.003.013zM13.683 28.726q-.006.04-.011.081c.002-.027.008-.054.01-.08M20.051 22.876h-.006zh.062-.062" fill="none"/><path d="M13.683 28.726q.027-.288.078-.568l.003-.013a6.52 6.52 0 0 1 4.97-5.114l.012-.004c.18-.04.362-.067.546-.092q.051-.008.102-.016.321-.038.651-.043h.068c.286-.002.567.02.844.056q.109.015.215.033.336.054.658.14.079.02.157.041.386.116.75.277.08.036.157.075.305.144.592.318.072.042.142.086.347.22.662.482l.032.028q.303.258.573.55l.077.083c.38.423.705.895.965 1.406l.013.02 1.673-2.522-3.076-2.17 1.76-2.722-5.354-2.888L2 15.729v13.455l11.648.282v-.013a7 7 0 0 1 .024-.646q.005-.04.01-.08" fill="#1b5951"/><path d="M14.63 10.32c-1.962-1.966-4.65-2.159-4.782-2.167L2 7.92v1l7.8.232c.025.002 2.433.183 4.121 1.875.903.904 2.67 2.559 4.243 4.015l1.516.04c-1.727-1.594-3.992-3.701-5.05-4.762" fill="#94e3d4"/></g></svg>