<svg xmlns="http://www.w3.org/2000/svg" viewBox="0 0 40 40" focusable="false" aria-hidden="true"><path fill="none" d="M0 0h40v40H0z"/><g data-name="Icon Purple"><rect x="25" y="21" width="3" height="2" rx=".5" ry=".5" fill="#6c2273"/><rect x="2" y="21" width="3" height="2" rx=".5" ry=".5" fill="#6c2273"/><path fill="#b8b2ff" d="m31 38 .182-6.912.887-6.211 2.128-6.51-.726-5.313 1.815-3.75L31 2h7v35.98z"/><path d="m22.583 11.058-2.147.776c-.494.435-2.494-.43-2.929-.923l-.76-1.442c-.727-.824-.573-1.751-.171-2.25l.375-.332a4.1 4.1 0 0 1 1.17-.728c.967-.396 1.616.363 2.583.72.622.23 1.627-.158 2.096.374.9 1.02.803 2.905-.217 3.805M27.294 2.402s1.17.469 1.411.73c.437.47.98 1.913.804 2.38l-.495 1.295a1.51 1.51 0 0 1-1.949.878l-.355-.135a3.15 3.15 0 0 1-1.83-4.061c.522-1.976 1.448-1.453 2.414-1.087M30.768 9.845s.247.8.183 1.01c-.267.877 0 1.156-1.549 1.431H28.24c-.584-.05-.956-.353-1.176-1-.205-.605.223-1.053.389-1.367.465-.882.732-1.292 1.944-1.189l.384.033c.623.053 1.04.46.987 1.082M4 34h5v3a1 1 0 0 1-1 1H5a1 1 0 0 1-1-1zM21 34h5v3a1 1 0 0 1-1 1h-3a1 1 0 0 1-1-1z" fill="#000d6e"/><path d="m24.333 23-2.211-5.308A2.75 2.75 0 0 0 19.583 16h-9.166a2.75 2.75 0 0 0-2.539 1.692L5.667 23z" fill="#b8b2ff"/><path d="m25.716 27-1.018-3H5.302l-1.018 3c-.192.45-.284.926-.284 1.412V33h22v-4.588c0-.486-.092-.963-.284-1.412M7.5 31a1.5 1.5 0 1 1 0-3 1.5 1.5 0 0 1 0 3m15 0a1.5 1.5 0 1 1 0-3 1.5 1.5 0 0 1 0 3" fill="#6c2273"/></g></svg>