<?xml version="1.0" encoding="UTF-8"?><svg xmlns="http://www.w3.org/2000/svg" viewBox="0 0 40 40" focusable="false" aria-hidden="true"><g id="Solid"><rect width="40" height="40" fill="none"/></g><g id="Icon_Purple"><g><path d="M12.47210744,29.38626526h2.01716844v.61373475c0,.55191502-.44808498,1-1,1h-.01716844c-.55191502,0-1-.44808498-1-1v-.61373475h0Z" fill="#000d6e"/><path d="M4.80686738,29.38626526h2.01716844v.61373475c0,.55191502-.44808498,1-1,1h-.01716844c-.55191502,0-1-.44808498-1-1v-.61373475h0Z" fill="#000d6e"/><rect x="14.08584219" y="23.73819364" width="1.21030106" height=".80686737" rx=".40343328" ry=".40343328" fill="#6c2273"/><rect x="4" y="23.73819364" width="1.21030106" height=".80686737" rx=".40343328" ry=".40343328" fill="#6c2273"/><g><path d="M14.36513933,26.15879576l-.41117961-1.21030106H5.34218354l-.41117961,1.21030106c-.08193738,.19667392-.12413655,.40758905-.12413655,.62068273v2.20335308H14.48927588v-2.20335308c0-.21309367-.04219916-.42400881-.12413655-.62068273Zm-8.14625405,1.61373475c-.33420447,0-.60515053-.27094606-.60515053-.60515053s.27094606-.60515053,.60515053-.60515053,.60515053,.27094606,.60515053,.60515053-.27094606,.60515053-.60515053,.60515053Zm6.85837269,0c-.33420447,0-.60515053-.27094606-.60515053-.60515053s.27094606-.60515053,.60515053-.60515053,.60515053,.27094606,.60515053,.60515053-.27094606,.60515053-.60515053,.60515053Z" fill="#6c2273"/><path d="M12.78242863,22.06237044c-.18791941-.45099852-.62859003-.74477893-1.11718857-.74477893H7.63090319c-.48859854,0-.92926916,.29378041-1.11718857,.74477893l-1.03448466,2.48269057H13.81691329l-1.03448466-2.48269057Z" fill="#b8b2ff"/></g></g><g><path d="M22.82403581,29.38626526h2.01716844v.61373475c0,.55191502-.44808498,1-1,1h-.01716844c-.55191502,0-1-.44808498-1-1v-.61373475h0Z" fill="#000d6e"/><path d="M15.15879575,29.38626526h2.01716844v.61373475c0,.55191502-.44808498,1-1,1h-.01716844c-.55191502,0-1-.44808498-1-1v-.61373475h0Z" fill="#000d6e"/><rect x="24.43777056" y="23.73819364" width="1.21030106" height=".80686737" rx=".40343328" ry=".40343328" fill="#6c2273"/><rect x="14.35192837" y="23.73819364" width="1.21030106" height=".80686737" rx=".40343328" ry=".40343328" fill="#6c2273"/><g><path d="M24.7170677,26.15879576l-.41117961-1.21030106H15.69411191l-.41117961,1.21030106c-.08193738,.19667392-.12413655,.40758905-.12413655,.62068273v2.20335308h9.6824085v-2.20335308c0-.21309367-.04219916-.42400881-.12413655-.62068273Zm-8.14625405,1.61373475c-.33420447,0-.60515053-.27094606-.60515053-.60515053s.27094606-.60515053,.60515053-.60515053,.60515053,.27094606,.60515053,.60515053-.27094606,.60515053-.60515053,.60515053Zm6.85837269,0c-.33420447,0-.60515053-.27094606-.60515053-.60515053s.27094606-.60515053,.60515053-.60515053,.60515053,.27094606,.60515053,.60515053-.27094606,.60515053-.60515053,.60515053Z" fill="#6c2273"/><path d="M23.13435701,22.06237044c-.18791941-.45099852-.62859003-.74477893-1.11718857-.74477893h-4.03433688c-.48859854,0-.92926916,.29378041-1.11718857,.74477893l-1.03448466,2.48269057h8.33768333l-1.03448466-2.48269057Z" fill="#b8b2ff"/></g></g><g><path d="M33.17596419,29.38626526h2.01716844v.61373475c0,.55191502-.44808498,1-1,1h-.01716844c-.55191502,0-1-.44808498-1-1v-.61373475h0Z" fill="#000d6e"/><path d="M25.51072412,29.38626526h2.01716844v.61373475c0,.55191502-.44808498,1-1,1h-.01716844c-.55191502,0-1-.44808498-1-1v-.61373475h0Z" fill="#000d6e"/><rect x="34.78969894" y="23.73819364" width="1.21030106" height=".80686737" rx=".40343328" ry=".40343328" fill="#6c2273"/><rect x="24.70385675" y="23.73819364" width="1.21030106" height=".80686737" rx=".40343328" ry=".40343328" fill="#6c2273"/><g><path d="M35.06899608,26.15879576l-.41117961-1.21030106h-8.61177618l-.41117961,1.21030106c-.08193738,.19667392-.12413655,.40758905-.12413655,.62068273v2.20335308h9.6824085v-2.20335308c0-.21309367-.04219916-.42400881-.12413655-.62068273Zm-8.14625405,1.61373475c-.33420447,0-.60515053-.27094606-.60515053-.60515053s.27094606-.60515053,.60515053-.60515053,.60515053,.27094606,.60515053,.60515053-.27094606,.60515053-.60515053,.60515053Zm6.85837269,0c-.33420447,0-.60515053-.27094606-.60515053-.60515053s.27094606-.60515053,.60515053-.60515053,.60515053,.27094606,.60515053,.60515053-.27094606,.60515053-.60515053,.60515053Z" fill="#6c2273"/><path d="M33.48628538,22.06237044c-.18791941-.45099852-.62859003-.74477893-1.11718857-.74477893h-4.03433688c-.48859854,0-.92926916,.29378041-1.11718857,.74477893l-1.03448466,2.48269057h8.33768333l-1.03448466-2.48269057Z" fill="#b8b2ff"/></g></g><rect x="2" y="34.00000001" width="36" height="3" fill="#6c2273"/><path d="M2,10.0107422v23.98925781H38V10.0107422L20,2.00000001,2,10.0107422ZM37,31.00000001H3V12.00000001H37V31.00000001Z" fill="#b8b2ff"/></g></svg>