<?xml version="1.0" encoding="UTF-8"?><svg xmlns="http://www.w3.org/2000/svg" viewBox="0 0 40 40" focusable="false" aria-hidden="true"><g id="Solid"><rect width="40" height="40" fill="none"/></g><g id="Icon_Green" data-name="Icon Green"><g><circle cx="16" cy="30" r="8.5" fill="#94e3d4"/><path d="m16,22c4.418249,0,8,3.581751,8,8,0,4.41832-3.581751,8-8,8-4.41832,0-8-3.58168-8-8,0-4.418249,3.58168-8,8-8m0-1c-4.96262,0-9,4.03738-9,9s4.03738,9,9,9,9-4.03738,9-9-4.03738-9-9-9h0Z" fill="#fff"/></g><polygon points="3.041892 4.013289 6.240461 4.013289 16.62683 10.972404 13.439758 10.972404 3.041892 4.013289" fill="#94e3d4"/><path d="m31.576355,24.187988c-.643188,0-1.217468-.252686-1.630981-.677612-.413452-.413452-.666077-.987732-.666077-1.619385,0-1.068115.734985-1.975525,1.722778-2.228149l-12.455872-6.662842H2v18l5.009583-.017273h.046753c-.035278-.32312-.056335-.650391-.056335-.982727,0-4.962646,4.037354-9,9-9s9,4.037354,9,9c0,.336182-.021973.667053-.058044.993835l.260071.000183h5.845947c1.263367,0,1.945557-.730713,1.945557-1.994019v-4.812012h-1.417175Z" fill="#1b5951"/><path d="m29.945399,23.510362c-.413448-.413448-.666088-.987705-.666088-1.619374,0-1.06811.734996-1.97548,1.722771-2.22812l.045915.034419s.011496,0,.022993.011496c.21822.114893,1.428686,1.033691,1.819142,3.376634.068908.333044.103397.700577.103397,1.102599h-1.41719c-.643165,0-1.217422-.25271-1.63094-.677654Z" fill="#94e3d4"/><g><path d="m25.966979,5.451235c.172337,0,.341989-.080531.449364-.23193l1.666994-2.352582c.175021-.248036.116502-.590561-.130997-.766656-.247499-.172873-.590561-.117039-.766656.130997l-1.666994,2.352582c-.175021.248036-.116502.590561.130997.766656.096637.067646.207233.100932.317293.100932Z" fill="#000d6e"/><path d="m25.257433,7.82952c.349438-.496676.230118-1.182532-.266491-1.53197-.496676-.349438-1.182532-.230118-1.53197.266491-.349438.496676-.230118,1.182532.266491,1.53197s1.182532.230118,1.53197-.266491Z" fill="#000d6e"/><path d="m31.561743,4.202466c-.248036-.173947-.591098-.117039-.766119.130997l-4.074337,5.747773c-.175558.248036-.117575.590561.13046.766656.096637.067646.207233.100932.317293.100932.172337,0,.341989-.080531.448827-.23193l4.074337-5.747773c.175558-.248036.117575-.590561-.13046-.766656Z" fill="#000d6e"/><path d="m24.485341,11.873859c-.349438.496608-.230118,1.182465.266558,1.531903.496608.349438,1.182465.230118,1.531903-.266491s.230118-1.182532-.266491-1.53197-1.182465-.230118-1.53197.266558Z" fill="#000d6e"/><path d="m32.888358,10.323904c.172337,0,.341989-.080531.448827-.23193l3.817174-5.384846c.175558-.248036.117575-.590561-.13046-.766656-.248036-.172873-.591098-.117039-.766119.130997l-3.817174,5.384846c-.175558.248036-.117575.590561.13046.766656.096637.067646.207233.100932.317293.100932Z" fill="#000d6e"/><path d="m32.162572,12.690377c.349438-.496676.230118-1.182532-.266491-1.53197s-1.182532-.230118-1.53197.266491-.230118,1.182532.266558,1.53197c.496608.349438,1.182465.230118,1.531903-.266491Z" fill="#000d6e"/><path d="m37.740625,9.828906c-.248573-.173947-.591098-.117039-.766119.130997l-3.34902,4.724491c-.175558.248036-.117575.590561.13046.766656.096637.067646.207233.100932.317293.100932.172337,0,.341989-.080531.448827-.23193l3.34902-4.724491c.175558-.248036.117575-.590561-.13046-.766656Z" fill="#000d6e"/><path d="m31.389272,16.477016c-.349438.496608-.230118,1.182465.266558,1.531903.496608.349505,1.182465.230185,1.531903-.266491.349438-.496608.230118-1.182465-.266491-1.531903s-1.182465-.230118-1.53197.266491Z" fill="#000d6e"/></g><circle cx="16" cy="30" r="4.5" fill="#000d6e"/></g></svg>