<svg xmlns="http://www.w3.org/2000/svg" viewBox="0 0 40 40" focusable="false" aria-hidden="true"><path fill="none" d="M0 0h40v40H0z"/><g data-name="Icon Tangerine"><path d="M13.67 18.028c1.723 4.388 6.042 10.562 6.33 10.971.288-.41 4.607-6.583 6.33-10.971a7 7 0 1 0-12.66 0M20 11.997a3 3 0 1 1-3 3 3 3 0 0 1 3-3" fill="#fae052"/><path d="M20 17.998a3 3 0 1 0-3-3 3 3 0 0 0 3 3" fill="#000d6e"/><path d="M29.752 17.274A10 10 0 0 0 30 15.042a9.981 9.981 0 0 0-15.791-8.186.5.5 0 1 0 .582.812 9.026 9.026 0 0 1 13.985 9.385 9 9 0 0 1-.62 1.82l-.16.392-.049-.151a.5.5 0 1 0-.951.308l.4 1.23a.5.5 0 0 0 .475.347.5.5 0 0 0 .151-.024l1.242-.395a.5.5 0 0 0-.303-.953l-.036.012.15-.372a10 10 0 0 0 .677-1.993M27.234 22.022a.51.51 0 0 0-.679.226 72 72 0 0 1-2.42 4.187c-1.108 1.787-3.245 4.884-4.14 6.173-.894-1.288-3.031-4.386-4.139-6.173a50.5 50.5 0 0 1-4.023-7.606 9 9 0 0 1-.61-1.793 9.13 9.13 0 0 1 .483-5.53 9 9 0 0 1 .927-1.639.496.496 0 0 0 .487.422h.034a.5.5 0 0 0 .466-.534l-.088-1.29A.5.5 0 0 0 13 8.002l-1.301.087a.5.5 0 0 0-.466.532.495.495 0 0 0 .532.466l.18-.012A10.02 10.02 0 0 0 10 15.025a10 10 0 0 0 .248 2.232 10 10 0 0 0 .666 1.966 51.4 51.4 0 0 0 4.093 7.74C16.438 29.272 19.735 34 19.735 34H13v1h14v-1h-6.744s3.297-4.728 4.728-7.038q1.42-2.29 2.476-4.286a.486.486 0 0 0-.226-.654" fill="#fa9319"/></g></svg>