<svg xmlns="http://www.w3.org/2000/svg" viewBox="0 0 40 40" focusable="false" aria-hidden="true"><g id="Solid"><rect width="40" height="40" fill="none"/></g><g id="Icon_Tangerine" data-name="Icon Tangerine"><path d="M26.35,22H24a1.0029,1.0029,0,0,1-1-1V19a1.0029,1.0029,0,0,1,1-1h5.06L28,15H11V29H30l.01-7H26.35Z" fill="#fa9319"/><path d="M23,33.2143A1.7857,1.7857,0,0,0,24.7857,35h3.4286A1.7857,1.7857,0,0,0,30,33.2143V30H23Z" fill="#000d6e"/><rect x="28" y="10" width="4" height="3" rx="1" fill="#fa9319"/><polygon points="24 6 11 6 11 14 27.5 14 24 6" fill="#fae052"/><path d="M29.06,18H27.6l-1.24,1.78,1.81,1.29-.61.93h2.45v-.3a6.073,6.073,0,0,0-.47-2.34Z" fill="#fae052"/><path d="M24.98,20.02,26.39,18H24a1.0029,1.0029,0,0,0-1,1v2a1.0029,1.0029,0,0,0,1,1h2.35l.45-.67Z" fill="#fae052"/></g></svg>