<svg xmlns="http://www.w3.org/2000/svg" viewBox="0 0 40 40" focusable="false" aria-hidden="true"><g id="Solid"><rect width="40" height="40" fill="none"/></g><g id="Icon_Tangerine" data-name="Icon Tangerine"><path d="M13.65,22H16a1.0029,1.0029,0,0,0,1-1V19a1.0029,1.0029,0,0,0-1-1H10.94L12,15H29V29H10l-.01-7h3.66Z" fill="#fa9319"/><path d="M17,33.2143A1.7857,1.7857,0,0,1,15.2143,35H11.7857A1.7857,1.7857,0,0,1,10,33.2143V30h7Z" fill="#000d6e"/><rect x="8" y="10" width="4" height="3" rx="1" fill="#fa9319"/><polygon points="16 6 29 6 29 14 12.5 14 16 6" fill="#fae052"/><path d="M10.94,18H12.4l1.24,1.78-1.81,1.29.61.93H9.99v-.3a6.073,6.073,0,0,1,.47-2.34Z" fill="#fae052"/><path d="M15.02,20.02,13.61,18H16a1.0029,1.0029,0,0,1,1,1v2a1.0029,1.0029,0,0,1-1,1H13.65l-.45-.67Z" fill="#fae052"/></g></svg>