<svg xmlns="http://www.w3.org/2000/svg" viewBox="0 0 40 40" focusable="false" aria-hidden="true"><g id="Solid"><rect width="40" height="40" fill="none"/></g><g id="Icon_Purple" data-name="Icon Purple"><path d="M27,31a1,1,0,0,0,1,1h3a1,1,0,0,0,1-1V28H27Z" fill="#000d6e"/><path d="M8,31a1,1,0,0,0,1,1h3a1,1,0,0,0,1-1V28H8Z" fill="#000d6e"/><rect x="31" y="14" width="3" height="2" rx="0.5" fill="#6c2273"/><rect x="6" y="14" width="3" height="2" rx="0.5" fill="#6c2273"/><path d="M8.0668,20.8688c.0107-.0688.0246-.1372.0395-.2057C8.0909,20.7314,8.0784,20.8,8.0668,20.8688Z" fill="#1b5951"/><path d="M23.3915,25.06h-7.39v-2h6.27l1.65,1.17-4.85-3.44,2.88-3.79H9.3315l-1.02,3,.34-1h3.75a.589.589,0,0,1,.59.58v.84a.589.589,0,0,1-.59.58H8.054a4.0429,4.0429,0,0,0-.0525.54V27h14.16l1.76-2.77Z" fill="#6c2273"/><path d="M27.6115,21a.5826.5826,0,0,1-.59-.58v-.84a.5826.5826,0,0,1,.59-.58h3.74l-.68-2h-7.46l-2.72,3.57,4.78,3.39L23.3415,27h8.66V21.54a3.8721,3.8721,0,0,0-.055-.54Z" fill="#6c2273"/><path d="M31.8884,20.6462c.0161.07.0307.14.0434.21C31.9192,20.7856,31.9047,20.7161,31.8884,20.6462Z" fill="#1b5951"/><polygon points="16.002 23.06 16.002 25.06 23.392 25.06 23.922 24.23 22.272 23.06 16.002 23.06" fill="#b8b2ff"/><path d="M27.7692,9.8461A3,3,0,0,0,25,8H15a3,3,0,0,0-2.7692,1.8461L9.6666,16H30.3334Z" fill="#b8b2ff"/><path d="M27.0215,19.58v.84a.5826.5826,0,0,0,.59.58h4.35c-.007-.0481-.021-.0956-.03-.1436-.0127-.07-.0273-.14-.0434-.21A4.2581,4.2581,0,0,0,31.6915,20l-.34-1h-3.74A.5826.5826,0,0,0,27.0215,19.58Z" fill="#b8b2ff"/><path d="M12.9915,20.42v-.84a.589.589,0,0,0-.59-.58h-3.75l-.34,1a3.4906,3.4906,0,0,0-.2052.6631c-.0149.0685-.0288.1369-.0395.2057-.0069.0439-.02.0873-.0252.1312h4.36A.589.589,0,0,0,12.9915,20.42Z" fill="#b8b2ff"/></g></svg>