<svg xmlns="http://www.w3.org/2000/svg" viewBox="0 0 40 40" focusable="false" aria-hidden="true"><g id="Solid"><rect width="40" height="40" fill="none"/></g><g id="Icon_Green" data-name="Icon Green"><path d="M5,8.9987V32.0014A2.0008,2.0008,0,0,0,7.0031,34H32.9969A2.0008,2.0008,0,0,0,35,32.0014V22.2331a2.9929,2.9929,0,0,0-.6282-1.8344L25.1858,8.5513A4.01,4.01,0,0,0,22.0171,7H7.0031A2.0009,2.0009,0,0,0,5,8.9987Zm2.0651,14.01h3.7891a.9993.9993,0,1,1,0,1.9986H7.0651ZM6.9566,9.0188H21.5392a1.9846,1.9846,0,0,1,1.5324.72l7.6818,9.6333a1,1,0,0,1-.7712,1.6389H6.9566Z" fill="#1b5951"/><path d="M10.8542,23.0082a.9993.9993,0,1,1,0,1.9986H7.0651V23.0082h3.7891Z" fill="#000d6e"/><polygon points="17.423 13.436 12.635 16.823 15.3 21.011 6.957 21.011 6.957 9.019 14.048 9.019 17.423 13.436" fill="#94e3d4"/><path d="M18.845,13.6556,15.31,9.0188h6.23a1.9846,1.9846,0,0,1,1.5324.72l7.6818,9.6333a1,1,0,0,1-.7712,1.6389H16.4914l-2.5039-3.9173Z" fill="#94e3d4"/></g></svg>