<svg xmlns="http://www.w3.org/2000/svg" viewBox="0 0 40 40" focusable="false" aria-hidden="true"><path fill="none" d="M0 0h40v40H0z"/><g data-name="Icon Green"><path d="M13.65 22H16a1.003 1.003 0 0 0 1-1v-2a1.003 1.003 0 0 0-1-1h-5.06L12 15h17v14H10l-.01-7z" fill="#1b5951"/><path d="M17 33.214A1.786 1.786 0 0 1 15.214 35h-3.428A1.786 1.786 0 0 1 10 33.214V30h7Z" fill="#000d6e"/><rect x="8" y="10" width="4" height="3" rx="1" fill="#1b5951"/><path fill="#94e3d4" d="M16 6h13v8H12.5zM10.94 18h1.46l1.24 1.78-1.81 1.29.61.93H9.99v-.3a6.1 6.1 0 0 1 .47-2.34Z"/><path d="M15.02 20.02 13.61 18H16a1.003 1.003 0 0 1 1 1v2a1.003 1.003 0 0 1-1 1h-2.35l-.45-.67Z" fill="#94e3d4"/></g></svg>