<svg xmlns="http://www.w3.org/2000/svg" viewBox="0 0 40 40" focusable="false" aria-hidden="true"><path fill="none" d="M0 0h40v40H0z"/><g data-name="Icon Purple"><path d="M27 31a1 1 0 0 0 1 1h3a1 1 0 0 0 1-1v-3h-5ZM8 31a1 1 0 0 0 1 1h3a1 1 0 0 0 1-1v-3H8Z" fill="#000d6e"/><rect x="31" y="14" width="3" height="2" rx="0.5" fill="#6c2273"/><rect x="6" y="14" width="3" height="2" rx="0.5" fill="#6c2273"/><path d="M8.067 20.869" fill="#1b5951"/><path d="M23.392 25.06h-7.39v-2h6.27l1.65 1.17-4.85-3.44 2.88-3.79H9.332l-1.02 3 .34-1h3.75a.59.59 0 0 1 .59.58v.84a.59.59 0 0 1-.59.58H8.054a4 4 0 0 0-.052.54V27h14.16l1.76-2.77Z" fill="#6c2273"/><path d="M27.612 21a.583.583 0 0 1-.59-.58v-.84a.583.583 0 0 1 .59-.58h3.74l-.68-2h-7.46l-2.72 3.57 4.78 3.39-1.93 3.04h8.66v-5.46a4 4 0 0 0-.056-.54Z" fill="#6c2273"/><path d="M31.888 20.646" fill="#1b5951"/><path fill="#b8b2ff" d="M16.002 23.06v2h7.39l.53-.83-1.65-1.17zM27.77 9.846A3 3 0 0 0 25 8H15a3 3 0 0 0-2.77 1.846L9.668 16h20.666ZM27.022 19.58v.84a.583.583 0 0 0 .59.58h4.35c-.007-.048-.021-.096-.03-.144a5 5 0 0 0-.044-.21 4 4 0 0 0-.197-.646l-.34-1h-3.74a.583.583 0 0 0-.59.58M12.992 20.42v-.84a.59.59 0 0 0-.59-.58h-3.75l-.34 1a3.5 3.5 0 0 0-.206.663 4 4 0 0 0-.04.206c-.006.044-.02.087-.024.131h4.36a.59.59 0 0 0 .59-.58"/></g></svg>