<svg xmlns="http://www.w3.org/2000/svg" viewBox="0 0 40 40" focusable="false" aria-hidden="true"><path fill="none" d="M0 0h40v40H0z"/><g data-name="Icon Tangerine"><path fill="#fae052" d="m17.298 11 3.07-6h4.12l-3 6zM12 15.98H8.12l-.002.01c.03-.18.05-.34.08-.5.11-.66.2-1.19.24-1.48h3.56A.985.985 0 1 1 12 15.98"/><path d="M6.5 25.71s1.028-6.258 1.618-9.72l.002-.01H12a.985.985 0 0 0 .988-.98l.002-.01A.986.986 0 0 0 12 14H8.44a.4.4 0 0 0 .02-.1 4 4 0 0 1 .08-.39A1.727 1.727 0 0 1 10.42 12H34v16h-5.07a8 8 0 0 0 .07-1 8.015 8.015 0 0 0-10.04-7.74l-1.4-2.05 1.75-1.24L17.89 14h-1.23l1.25 1.74-1.72 1.22 1.79 2.64A8 8 0 0 0 13 27a8 8 0 0 0 .07 1H8.8a2.124 2.124 0 0 1-2.3-2.29" fill="#fa9319"/><path d="M14 27a7 7 0 1 0 7-7 7 7 0 0 0-7 7m3 0a4 4 0 1 1 4 4 4 4 0 0 1-4-4" fill="#fae052"/><circle cx="21" cy="27" r="4" fill="#000d6e"/></g></svg>