<svg xmlns="http://www.w3.org/2000/svg" viewBox="0 0 40 40" focusable="false" aria-hidden="true"><g id="Solid"><rect width="40" height="40" fill="none"/></g><g id="Icon_Red" data-name="Icon Red"><path d="M34.1205,22.8537a.954.954,0,0,1,.94-.9684A2.0994,2.0994,0,0,1,36,23.8121h-.94A.9517.9517,0,0,1,34.1205,22.8537Z" fill="#ffaca6"/><path d="M26,27a3,3,0,1,0,3-3A3,3,0,0,0,26,27Zm1.5,0A1.5,1.5,0,1,1,29,28.5,1.5,1.5,0,0,1,27.5,27Z" fill="#ffaca6"/><path d="M15.4362,24.2661,17.1057,27H25a4,4,0,0,1,8,0h2a1.0073,1.0073,0,0,0,1-1.0089v-2.179h-.94a.9637.9637,0,0,1,0-1.9268L29.412,19H16.8358l2.2193,2.9458Zm4.5428-3.772a.5019.5019,0,0,1,.5-.5044h1.9994a.5044.5044,0,0,1,0,1.0088H20.4788A.5019.5019,0,0,1,19.979,20.4941Z" fill="#d9304c"/><circle cx="29" cy="27" r="1.5" fill="#000d6e"/><path d="M6,27a3,3,0,1,0,3-3A3,3,0,0,0,6,27Zm1.5,0A1.5,1.5,0,1,1,9,28.5,1.5,1.5,0,0,1,7.5,27Z" fill="#ffaca6"/><path d="M3,26.092A.9.9,0,0,0,3.9,27H5a4,4,0,0,1,8,0h2.9361l-1.8694-3.0568,3.5289-2.26L15.5762,19H5.0094a1.0073,1.0073,0,0,0-1,1.0088v.01H6.5489a.5044.5044,0,0,1,0,1.0088H3.84Zm5.9272-5.5979a.5018.5018,0,0,1,.5-.5044h1.9994a.5044.5044,0,0,1,0,1.0088H9.427A.5018.5018,0,0,1,8.9272,20.4941Z" fill="#d9304c"/><circle cx="9" cy="27" r="1.5" fill="#000d6e"/><path d="M7.0488,20.5233a.4972.4972,0,0,1-.5.5044H3.84l.17-1.0088H6.5489A.4973.4973,0,0,1,7.0488,20.5233Z" fill="#ffaca6"/><path d="M24.17,15.62a2.7942,2.7942,0,0,0-1.79-.65H10.31L8.8,18H7.05l1.78-3.49a.567.567,0,0,1,.08-.13.2186.2186,0,0,1,.03-.05.8075.8075,0,0,1,.5-.36,1.6979,1.6979,0,0,1,.23,0H22.38a3.7806,3.7806,0,0,1,2.44.89L28.38,18H26.86Z" fill="#ffaca6"/><path d="M20.4788,19.99h1.9994a.5044.5044,0,0,1,0,1.0088H20.4788a.5044.5044,0,0,1,0-1.0088Z" fill="#ffaca6"/><path d="M9.427,19.99h1.9994a.5044.5044,0,0,1,0,1.0088H9.427a.5044.5044,0,0,1,0-1.0088Z" fill="#ffaca6"/></g></svg>