<svg xmlns="http://www.w3.org/2000/svg" viewBox="0 0 40 40" focusable="false" aria-hidden="true"><path fill="none" d="M0 0h40v40H0z"/><g data-name="Icon Purple"><path d="M27 31a1 1 0 0 0 1 1h3a1 1 0 0 0 1-1v-3h-5ZM8 31a1 1 0 0 0 1 1h3a1 1 0 0 0 1-1v-3H8Z" fill="#000d6e"/><rect x="31" y="14" width="3" height="2" rx="0.5" fill="#6c2273"/><rect x="6" y="14" width="3" height="2" rx="0.5" fill="#6c2273"/><path d="m20.892 14.51-4.85-3.44L18.371 8h-3.37a3.01 3.01 0 0 0-2.77 1.85L9.672 16h10.27Z" fill="#b8b2ff"/><path d="M22.242 14.24 21.121 16h9.21l-2.56-6.15A3.01 3.01 0 0 0 25.002 8h-5.37l-2.17 2.86Z" fill="#b8b2ff"/><path d="M8.066 20.874" fill="#1b5951"/><path d="M27.612 21a.583.583 0 0 1-.59-.58v-.84a.583.583 0 0 1 .59-.58h3.74l.34 1 .008.026q-.003-.012-.008-.026l-1.019-3H9.327l-1.02 3c-.01.028-.014.057-.025.085.011-.028.017-.057.03-.085l.34-1h3.75a.59.59 0 0 1 .59.58v.84a.59.59 0 0 1-.59.58H8.053a4 4 0 0 0-.053.538V27h24v-5.462a4 4 0 0 0-.053-.538ZM24 25.062h-8v-2h8Z" fill="#6c2273"/><path d="M31.886 20.635q.026.113.047.227a4 4 0 0 0-.047-.227" fill="#1b5951"/><path fill="#b8b2ff" d="M16 23.062h8v2h-8zM31.352 19h-3.74a.583.583 0 0 0-.59.58v.84a.583.583 0 0 0 .59.58h4.35c-.007-.046-.02-.092-.029-.138q-.02-.114-.047-.227a4 4 0 0 0-.185-.609L31.69 20ZM12.992 20.42v-.84a.59.59 0 0 0-.59-.58h-3.75l-.34 1c-.013.028-.019.057-.03.085a3.5 3.5 0 0 0-.174.57q-.025.109-.042.218c-.007.043-.02.084-.025.127h4.36a.59.59 0 0 0 .59-.58"/></g></svg>