<svg xmlns="http://www.w3.org/2000/svg" viewBox="0 0 40 40" focusable="false" aria-hidden="true"><g id="Solid"><rect x="-0.4572" y="-0.2494" width="40" height="40" fill="none"/></g><g id="Icon_Purple" data-name="Icon Purple"><path d="M21.1,12l10.86,6.06a2.0043,2.0043,0,0,0-.92,3.35,1.9614,1.9614,0,0,0,1.42.59H34v4.01A1.9973,1.9973,0,0,1,32,28H26.91a8.2577,8.2577,0,0,0,.07-1,8.0106,8.0106,0,0,0-7.99-8.01c-.23,0-.45.01-.67.03l-.97-1.44,1.74-1.23-1.67-2.33H16.19l1.5,2.1-1.72,1.21,1.25,1.86A8.0122,8.0122,0,0,0,11,27a8.2577,8.2577,0,0,0,.07,1H7V12Z" fill="#6c2273"/><polygon points="9.27 5 11.09 5 20 11 18.19 11 9.27 5" fill="#b8b2ff"/><path d="M12,27a7,7,0,1,0,7-7A7,7,0,0,0,12,27Zm3,0a4,4,0,1,1,4,4A4,4,0,0,1,15,27Z" fill="#b8b2ff"/><circle cx="19" cy="27" r="4" fill="#000d6e"/><path d="M31.04,21.41a2.0043,2.0043,0,0,1,.92-3.35l.04.03a.031.031,0,0,1,.02.01,4.04,4.04,0,0,1,1.89,2.94A4.7469,4.7469,0,0,1,34,22H32.46A1.9614,1.9614,0,0,1,31.04,21.41Z" fill="#b8b2ff"/></g></svg>