<svg xmlns="http://www.w3.org/2000/svg" viewBox="0 0 40 40" focusable="false" aria-hidden="true"><path fill="none" d="M0 0h40v40H0z"/><g data-name="Icon Purple"><path d="M5.88 22.854a.954.954 0 0 0-.94-.969A2.1 2.1 0 0 0 4 23.812h.94a.95.95 0 0 0 .94-.958M11 24a3 3 0 1 0 3 3 3 3 0 0 0-3-3m0 4.5a1.5 1.5 0 1 1 1.5-1.5 1.5 1.5 0 0 1-1.5 1.5" fill="#b8b2ff"/><path d="M20.945 21.946 23.165 19H10.587L4.94 21.885a.964.964 0 0 1 0 1.927H4v2.18A1.007 1.007 0 0 0 5 27h2a4 4 0 0 1 8 0h7.894l1.67-2.734Zm-1.424-.948h-2a.504.504 0 0 1 0-1.008h2a.504.504 0 0 1 0 1.009" fill="#6c2273"/><circle cx="11" cy="27" r="1.5" fill="#000d6e"/><path d="M31 24a3 3 0 1 0 3 3 3 3 0 0 0-3-3m0 4.5a1.5 1.5 0 1 1 1.5-1.5 1.5 1.5 0 0 1-1.5 1.5" fill="#b8b2ff"/><path d="M36.16 21.028h-2.709a.504.504 0 0 1 0-1.01h2.539v-.01a1.007 1.007 0 0 0-1-1.008H24.424l-2.02 2.684 3.53 2.26L24.063 27H27a4 4 0 0 1 8 0h1.1a.9.9 0 0 0 .9-.908Zm-5.587-.03h-2a.504.504 0 0 1 0-1.008h2a.504.504 0 0 1 0 1.009Z" fill="#6c2273"/><circle cx="31" cy="27" r="1.5" fill="#000d6e"/><path d="M32.951 20.523a.497.497 0 0 0 .5.505h2.709l-.17-1.01h-2.539a.497.497 0 0 0-.5.505M15.83 15.62a2.8 2.8 0 0 1 1.79-.65h12.07L31.2 18h1.75l-1.78-3.49a.6.6 0 0 0-.08-.13.2.2 0 0 0-.03-.05.8.8 0 0 0-.5-.36 2 2 0 0 0-.23 0H17.62a3.78 3.78 0 0 0-2.44.89L11.62 18h1.52ZM19.521 19.99h-2a.504.504 0 0 0 0 1.009h2a.504.504 0 0 0 0-1.009M30.573 19.99h-2a.504.504 0 0 0 0 1.009h2a.504.504 0 0 0 0-1.009" fill="#b8b2ff"/></g></svg>