<svg xmlns="http://www.w3.org/2000/svg" viewBox="0 0 40 40" focusable="false" aria-hidden="true"><g id="Solid"><rect width="40" height="40" fill="none"/></g><g id="Icon_Red" data-name="Icon Red"><path d="M17,33.2143A1.7857,1.7857,0,0,1,15.2143,35H11.7857A1.7857,1.7857,0,0,1,10,33.2143V30h7Z" fill="#000d6e"/><rect x="8" y="10" width="4" height="3" rx="1" fill="#d9304c"/><polygon points="16 6 29 6 29 14 12.5 14 16 6" fill="#ffaca6"/><path d="M10.4576,19.3584A6.0876,6.0876,0,0,0,9.9893,21.7L10,29H29V15H12ZM12,23.5a2.5,2.5,0,1,1,3.48,2.3h-.01a2.38,2.38,0,0,1-.95.2H14.5A2.5009,2.5009,0,0,1,12,23.5Z" fill="#d9304c"/><path d="M13.51,21.2l1.18,1.64L13.2,23.89,14.52,26H14.5a2.5026,2.5026,0,0,1-.99-4.8Z" fill="#ffaca6"/><path d="M15.98,23.05,14.5,21a2.5,2.5,0,0,1,.98,4.8h-.01l-1.03-1.66Z" fill="#ffaca6"/></g></svg>