<svg xmlns="http://www.w3.org/2000/svg" viewBox="0 0 40 40" focusable="false" aria-hidden="true"><path fill="none" d="M0 0h40v40H0z"/><g data-name="Icon Purple"><path d="M25.503 31.98a1.5 1.5 0 0 1 .22.02q.09-7.5.15-14.9l1.36.85a1.003 1.003 0 0 0-.32-1.38l-1.03-.64.06-6.97a2.2 2.2 0 0 0-.89-1.6c-.03-.02-.07-.04-.1-.06a.998.998 0 0 1-1.95-.3 1 1 0 0 1 .19-.59 9.2 9.2 0 0 0-6.38 0 1.003 1.003 0 0 1-.81 1.59.98.98 0 0 1-.95-.7c-.03.02-.07.04-.1.06a2.16 2.16 0 0 0-.89 1.6l.06 6.97-1.04.64a1 1 0 0 0-.31 1.38l1.36-.85q.06 7.41.15 14.9a1.477 1.477 0 0 1 1.72 1.48 1.3 1.3 0 0 1-.1.51 1.7 1.7 0 0 0 .39.04h7.42a1.7 1.7 0 0 0 .39-.04 1.3 1.3 0 0 1-.1-.51 1.5 1.5 0 0 1 1.5-1.5m-.379-16.333L24.04 19.47a13.74 13.74 0 0 0-8.08 0l-1.084-3.823a17.43 17.43 0 0 1 10.248 0M15.07 29.414l.971-2.868a13.47 13.47 0 0 0 7.92 0l.97 2.868a16.77 16.77 0 0 1-9.861 0" fill="#6c2273"/><path d="m24.04 19.47 1.084-3.823a17.43 17.43 0 0 0-10.248 0l1.084 3.823a13.74 13.74 0 0 1 8.08 0M23.96 26.546a13.47 13.47 0 0 1-7.92 0l-.971 2.868a16.77 16.77 0 0 0 9.862 0ZM14.503 31.98a1.5 1.5 0 0 0-.22.02v.18a1 1 0 0 0 .04.29 1.86 1.86 0 0 0 1.38 1.46 1 1 0 0 0 .2.06 1.3 1.3 0 0 0 .1-.51 1.5 1.5 0 0 0-1.5-1.5M25.693 32.47a1.4 1.4 0 0 0 .03-.29V32a1.477 1.477 0 0 0-1.72 1.48 1.3 1.3 0 0 0 .1.51 1 1 0 0 0 .2-.06 1.91 1.91 0 0 0 1.39-1.46M16.003 8a1.003 1.003 0 0 0 .81-1.59 8.8 8.8 0 0 0-1.76.89.98.98 0 0 0 .95.7M24.003 8a.99.99 0 0 0 .95-.7 8.8 8.8 0 0 0-1.76-.89 1 1 0 0 0-.19.59.997.997 0 0 0 1 1" fill="#b8b2ff"/><path d="M14.986 3.518v1.986a.5.5 0 0 1-1 0V3.518a.5.5 0 0 1 1 0M13.009 7.482a.5.5 0 0 1-.5.5h-1.987a.5.5 0 0 1 0-1h1.986a.5.5 0 0 1 .5.5M13.687 5.976a.5.5 0 0 1-.707.707l-1.65-1.65a.5.5 0 0 1 .707-.707Z" fill="#000d6e"/></g></svg>