<svg xmlns="http://www.w3.org/2000/svg" viewBox="0 0 40 40" focusable="false" aria-hidden="true"><g id="Solid"><rect width="40" height="40" fill="none"/></g><g id="Icon_Green" data-name="Icon Green"><polygon points="14.04 17.29 17.3 13 16.04 13 12.61 17.51 19.16 22.15 16.08 27 17.27 27 20.52 21.89 14.04 17.29" fill="none"/><path d="M29,16.5H26.9953c.0009.0278.0047.0518.0047.08v6.85c0,.0236-.0032.0464-.0035.07H29v-7Z" fill="#000d6e"/><path d="M29,11V29a5,5,0,0,0,5,5V6A5,5,0,0,0,29,11Z" fill="#1b5951"/><path d="M27,16.58c0-.0282-.0038-.0522-.0047-.08-.0047-.149-.0169-.2951-.0253-.43A5.5706,5.5706,0,0,0,21.45,11H12.4a5.5935,5.5935,0,0,0-4.45,2.24l-.05.07-.05.08c-1.23,2.01-4.1,6.93-4.1,9.26A6.34,6.34,0,0,0,10.07,29H21.45a5.5653,5.5653,0,0,0,5.5465-5.5c0-.0236.0035-.0464.0035-.07Zm-2,6.85A3.5615,3.5615,0,0,1,21.45,27H10.07a4.334,4.334,0,0,1-4.32-4.35c0-1.01.95-3.06,1.9-4.86.96-1.8,1.91-3.35,1.91-3.35A3.52,3.52,0,0,1,12.4,13h9.05A3.5637,3.5637,0,0,1,25,16.58Z" fill="#1b5951"/><path d="M12.61,17.51,16.04,13H12.4a3.52,3.52,0,0,0-2.84,1.44s-.95,1.55-1.91,3.35c-.95,1.8-1.9,3.85-1.9,4.86A4.334,4.334,0,0,0,10.07,27h6.01l3.08-4.85Z" fill="#94e3d4"/><path d="M21.45,13H17.3l-3.26,4.29,6.48,4.6L17.27,27h4.18A3.5615,3.5615,0,0,0,25,23.43V16.58A3.5637,3.5637,0,0,0,21.45,13Z" fill="#94e3d4"/></g></svg>