<svg xmlns="http://www.w3.org/2000/svg" viewBox="0 0 40 40" focusable="false" aria-hidden="true"><g id="Solid"><rect width="40" height="40" fill="none"/></g><g id="Icon_Red" data-name="Icon Red"><polygon points="25.96 17.29 22.7 13 23.96 13 27.39 17.51 20.84 22.15 23.92 27 22.73 27 19.48 21.89 25.96 17.29" fill="none"/><path d="M11,16.5h2.0047c-.0009.0278-.0047.0518-.0047.08v6.85c0,.0236.0032.0464.0035.07H11v-7Z" fill="#000d6e"/><path d="M11,11V29a5,5,0,0,1-5,5V6A5,5,0,0,1,11,11Z" fill="#d9304c"/><path d="M13,23.43c0,.0236.0032.0464.0035.07A5.5653,5.5653,0,0,0,18.55,29H29.93a6.34,6.34,0,0,0,6.32-6.35c0-2.33-2.87-7.25-4.1-9.26l-.05-.08-.05-.07A5.5935,5.5935,0,0,0,27.6,11H18.55a5.5706,5.5706,0,0,0-5.52,5.07c-.0084.1349-.0206.281-.0253.43-.0009.0278-.0047.0518-.0047.08Zm2-6.85A3.5637,3.5637,0,0,1,18.55,13H27.6a3.52,3.52,0,0,1,2.84,1.44s.95,1.55,1.91,3.35c.95,1.8,1.9,3.85,1.9,4.86A4.334,4.334,0,0,1,29.93,27H18.55A3.5615,3.5615,0,0,1,15,23.43Z" fill="#d9304c"/><path d="M27.39,17.51,23.96,13H27.6a3.52,3.52,0,0,1,2.84,1.44s.95,1.55,1.91,3.35c.95,1.8,1.9,3.85,1.9,4.86A4.334,4.334,0,0,1,29.93,27H23.92l-3.08-4.85Z" fill="#ffaca6"/><path d="M18.55,13H22.7l3.26,4.29-6.48,4.6L22.73,27H18.55A3.5615,3.5615,0,0,1,15,23.43V16.58A3.5637,3.5637,0,0,1,18.55,13Z" fill="#ffaca6"/></g></svg>