<svg xmlns="http://www.w3.org/2000/svg" viewBox="0 0 40 40" focusable="false" aria-hidden="true"><g id="Solid"><rect width="40" height="40" fill="none"/></g><g id="Icon_Tangerine" data-name="Icon Tangerine"><path d="M14.858,27H15V17H10.0864a2.0231,2.0231,0,0,0-2.0359,2.4338l.6641,5.292A3.975,3.975,0,0,1,14.858,27ZM12.5,19A1.5,1.5,0,1,1,11,20.5,1.5,1.5,0,0,1,12.5,19Z" fill="#fa9319"/><path d="M25.142,27a3.975,3.975,0,0,1,6.1434-2.2742l.6641-5.292A2.0231,2.0231,0,0,0,29.9136,17H25V27ZM27.5,19A1.5,1.5,0,1,1,26,20.5,1.5,1.5,0,0,1,27.5,19Z" fill="#fa9319"/><path d="M15,14.42l.5259-.2832a9.3756,9.3756,0,0,1,8.9482,0L25,14.42V16h5l-.5059-6.2424A3,3,0,0,0,26.5039,7H13.4961a3,3,0,0,0-2.99,2.7576L10,16h5V14.42Z" fill="#fae052"/><path d="M32,29V28a3,3,0,0,0-6,0v1Z" fill="#fae052"/><path d="M24,15.0168a8.3762,8.3762,0,0,0-8,0V28h8Z" fill="#fa9319"/><path d="M14,29V28a3,3,0,0,0-6,0v1Z" fill="#fae052"/><path d="M27,29v2a2,2,0,0,0,4,0V29Z" fill="#000d6e"/><path d="M9,29v2a2,2,0,0,0,4,0V29Z" fill="#000d6e"/></g></svg>