<?xml version="1.0" encoding="UTF-8"?><svg xmlns="http://www.w3.org/2000/svg" viewBox="0 0 40 40" focusable="false" aria-hidden="true"><g id="uuid-3355be73-eaa3-42bc-9321-15a9b31ef407"><rect width="40" height="40" fill="none"/></g><g id="uuid-0c7bec49-e9c8-41b9-80a7-632bbd93e501"><g><g><path d="M27.62,25.84s-.07,.03-.11,.04c.04-.02,.08-.02,.11-.04Z" fill="none"/><path d="M27.1,26.03c-.18,.04-.37,.07-.57,.07,.2,0,.39-.02,.57-.07Z" fill="none"/><path d="M30.4,16.58s.08,.02,.13,.02c.46,0,.83-.54,.83-1.2s-.37-1.19-.83-1.2c0-.18,0-.38,0-.58,0,0,0,0,0,0-.01-.22-.03-.53-.05-.88-.89,.5-2.48,.25-3.93-.73-.24-.16-.46-.34-.67-.52-.02,.03-.04,.05-.07,.08-.99,.99-2.32,1.41-3.26,1.28,0,.41,0,.88,0,1.29,0,0,0,0-.01,0-.46,0-.84,.54-.84,1.21,0,.17,.03,.34,.07,.49,.12,.45,.42,.77,.77,.77,.05,0,.1,0,.15-.02,.29,1.39,.99,2.56,1.93,3.23l-.09,1.26s-.04,.38-.07,1.05c0,.03,0,.07,0,.11,0,.16,0,.34-.01,.54,0,.56,0,1.26,.06,2.05,0,.11,.01,.21,.02,.32,.46,.59,1.17,.97,1.97,.97,.2,0,.39-.02,.57-.07,.14-.03,.28-.09,.41-.15,.04-.02,.08-.02,.11-.04,.33-.16,.61-.39,.84-.67,.06-1.22,.1-2.29,.1-3.02l-.05-.82h0c0-.15-.02-.25-.02-.26h0s-.08-1.23-.08-1.23c.97-.67,1.7-1.84,1.99-3.25Z" fill="#ffaca6"/><path d="M24.56,21.06l.09-1.26c-.95-.67-1.65-1.84-1.93-3.23-.05,.01-.1,.02-.15,.02-.35,0-.65-.32-.77-.77-.05-.15-.07-.31-.07-.49,0-.67,.38-1.21,.84-1.21,0,0,0,0,.01,0,0-.42,0-.88,0-1.29,.93,.13,2.27-.29,3.26-1.28,.02-.02,.04-.05,.07-.08,.21,.18,.43,.36,.67,.52,1.45,.98,3.04,1.23,3.93,.73,.02,.35,.04,.66,.05,.88,0,0,0,0,0,0,0,.2,0,.4,0,.58,.46,0,.83,.54,.83,1.2s-.37,1.2-.83,1.2c-.04,0-.09,0-.13-.02-.29,1.41-1.02,2.58-1.99,3.25l.08,1.23,.86,.43,1.17,.59c2.15-1.33,1.67-4.12,1.67-7.35,0-4.51-1.24-7.97-5.75-7.84-3.81,.1-5.63,3.33-5.63,7.84,0,3.15-.01,5.88,1.93,7.24l.28-.14,1.55-.78Z" fill="#000d6e"/></g><path d="M28.4,26.25c-.17,1.73-.34,4.92-.46,7.44,.14-2.21,.33-5.03,.46-7.44Z" fill="none"/><path d="M35.51,25.51c0-2.07-3.38-2.65-4.78-3.31-.01-.01-.09-.05-.21-.11l-1.17-.59-.85-.43h-.01s.01,.11,.02,.26l.05,.82c0,.73-.04,1.8-.1,3.02-.02,.35-.04,.71-.06,1.08-.13,2.41-.32,5.23-.46,7.44-.09,1.48-.16,2.7-.16,3.31h8.65l-.92-11.49Z" fill="#d9304c"/><g><path d="M15.93,23.72s0,0,0,0c.01-.15,.02-.3,.03-.44,0-.08,0-.16,.01-.24,0,.08,0,.15-.01,.23,0,.15-.02,.29-.03,.45Z" fill="none"/><path d="M16.01,20.76c0-.12,0-.25,0-.36,0-.2-.02-.36-.03-.51,0,.14,.02,.3,.03,.5,0,.11,0,.24,.01,.36Z" fill="none"/><path d="M12.31,24.09s-.05-.05-.08-.07c.03,.02,.05,.05,.08,.07Z" fill="none"/><path d="M11.9,23.72c.1,.11,.22,.21,.33,.3,.03,.02,.05,.05,.08,.07,.45,.32,1,.51,1.6,.51,.81,0,1.52-.34,2.02-.88,.01-.15,.02-.3,.03-.45,0-.08,0-.15,.01-.23,.05-.92,.05-1.7,.04-2.29,0-.12,0-.25-.01-.36,0-.2-.02-.36-.03-.5-.02-.29-.04-.45-.04-.45h0s0,0,0,0v-1.27c1.05-.69,1.83-1.89,2.14-3.33,.04,0,.08,.02,.12,.02,.49,0,.89-.55,.89-1.23,0-.56-.27-1.03-.65-1.18h0c-.07,.14-.16,.28-.25,.4,0,0-.26-1.97-.38-2.06-.86-.61-1.71-1.62-2.11-2.53-1.11,1.23-2.6,2.31-4.61,2.31-.3,0-.57-.05-.81-.13l-.44,2.82c-.19-.26-.33-.54-.44-.83h0c-.37,.15-.65,.62-.65,1.18,0,.68,.4,1.23,.89,1.23,.06,0,.12,0,.18-.02,.31,1.43,1.06,2.62,2.08,3.32h0v1.29s0,0,0,0c0,0-.04,.34-.06,.96-.05,.73-.01,2.28,.07,3.32Z" fill="#ffaca6"/><path d="M10.28,10.45c.24,.08,.51,.13,.81,.13,2.01,0,3.5-1.09,4.61-2.31,.39,.91,1.25,1.92,2.11,2.53,.12,.09,.38,2.06,.38,2.06,.1-.13,.18-.26,.25-.41,1.03-2-.03-5.25-1.81-5.04-.27-.35-1-.94-1.93-1.07-.5-.11-1.11-.14-1.78-.03-.99,.16-1.82,.5-2.3,.89-.37-.09-.78-.28-1.04-.68-.21,.61-.12,1.22,.26,1.45-.49,.34-1.04,.09-1.37-.19,0,0,.09,1.02,.69,1.83-.1,.55-.18,1.74,.24,2.84,.11,.29,.25,.57,.44,.83l.44-2.82Z" fill="#000d6e"/><path d="M24.64,26.1c-.03-.31-.06-.6-.08-.88v-.09c-.01-.11-.02-.22-.03-.33-.05-.79-.06-1.48-.05-2.04,0-.2,0-.38,.01-.54v-.11c.03-.67,.07-1.05,.07-1.05l-1.55,.79-.28,.14-.87,.44-5.93-2.99h0s.02,.16,.04,.45c.01,.14,.02,.3,.03,.51,0,.11,0,.23,0,.36,.01,.59,0,1.36-.04,2.29,0,.08,0,.15-.01,.24-.01,.14-.02,.29-.03,.44,0,0,0,0,0,0-.5,.54-1.21,.88-2.02,.88-.6,0-1.16-.19-1.6-.51-.03-.02-.05-.05-.08-.07-.12-.09-.23-.19-.33-.3-.08-1.04-.12-2.59-.07-3.32,.02-.62,.06-.96,.06-.96h0s-.09,.04-.09,.04l-6.35,3.21c-.77,.39-1.29,1.14-1.39,1.99l-.99,12.32H25.27s-.32-7.85-.63-10.9Z" fill="#d9304c"/></g><g><path d="M15.89,31.31s-.01,0-.02-.01v-.19l.08-1.11c-.69-.43-1.24-1.11-1.55-1.94-.09,.05-.18,.08-.28,.08-.41,0-.74-.47-.74-1.06s.33-1.06,.74-1.06c0,0,0,0,0,0,0-.55-.01-1.42-.02-1.84,.59-.28,1.58-.86,2.95-.14,1.4,.74,3.51,1.76,4.01,2,.03,0,.05-.02,.07-.02,.41,0,.74,.47,.74,1.06s-.33,1.06-.74,1.06c-.09,0-.18-.03-.26-.08-.31,.85-.89,1.54-1.6,1.97l.07,1.07v.19s0,0-.01,.01c.65,.13,1.5,.32,2.17,.51,.03,.01,.07,.01,.1,.03,.37,.11,.72,.22,1.05,.36v-5.96c0-1.41-.43-2.68-1.13-3.63-.63-1.17-2.12-2.18-3.87-2.18-1.34,0-2.51,.59-3.28,1.39-1.11,.94-1.85,2.56-1.85,4.41v5.98c.37-.17,.78-.3,1.2-.42,.67-.18,1.49-.37,2.14-.5Z" fill="#000d6e"/><path d="M13.75,31.81v5.19h-2.52v-3.04c0-.89,.56-1.39,1.32-1.73,.36-.17,.78-.3,1.2-.42Z" fill="#ffaca6"/><path d="M24.02,33.96v3.04h-2.4v-5.16c.37,.11,.72,.23,1.05,.37,.78,.34,1.35,.83,1.35,1.75Z" fill="#ffaca6"/><path d="M21.62,31.84v5.16h-7.87v-5.19c.67-.18,1.49-.37,2.14-.5,.42,.47,1.04,.75,1.72,.75s1.31-.28,1.74-.75c.66,.13,1.5,.32,2.17,.5,.03,.02,.07,.02,.1,.03Z" fill="#d9304c"/><path d="M19.37,31.11l-.07-1.07c.71-.43,1.28-1.12,1.6-1.97,.08,.04,.17,.08,.26,.08,.41,0,.74-.47,.74-1.06s-.33-1.06-.74-1.06c-.03,0-.05,.02-.07,.02-.5-.24-2.61-1.26-4.01-2-1.37-.72-2.36-.14-2.95,.14,0,.43,.01,1.29,.02,1.84,0,0,0,0,0,0-.41,0-.74,.47-.74,1.06s.33,1.06,.74,1.06c.1,0,.19-.03,.28-.08,.31,.83,.86,1.51,1.55,1.94l-.08,1.11v.19s.01,0,.02,.01c.42,.46,1.04,.75,1.72,.75s1.31-.28,1.74-.75c0,0,0,0,.01-.01v-.19Z" fill="#ffaca6"/></g></g></g></svg>