<svg version="1.1" xmlns="http://www.w3.org/2000/svg" x="0px" y="0px" viewBox="0 0 40 40" xml:space="preserve" focusable="false" aria-hidden="true" enable-background="new 0 0 40 40"><path fill="none" d="M0 0h40v40H0z"/><g><circle cx="10.578" cy="15.533" r="0.5" fill="none"/><circle cx="12.578" cy="15.533" r="0.5" fill="none"/><circle cx="8.578" cy="15.533" r="0.5" fill="none"/><path d="M24.48 7.015H4.5a.5.5 0 0 0-.5.5v13.938a.5.5 0 0 0 .5.5h18.342a6.7 6.7 0 0 1-.585-1.287c-.733-.294-1.247-1.1-1.247-2.073 0-.642.236-1.234.626-1.64v-2.119c0-1.768 1.285-3.628 3.343-4.394V7.515a.5.5 0 0 0-.499-.5m-4.811 5.791c0 .919-.456 1.731-1.153 2.225l.62.93c.259.388-.165.867-.581.659l-2.172-1.086h-1.259v.227a2.727 2.727 0 0 1-2.727 2.727H9.319l-2.172 1.086c-.417.208-.84-.271-.581-.659l.62-.93a2.72 2.72 0 0 1-1.153-2.225v-.455a2.727 2.727 0 0 1 2.727-2.727h1.818v-.227a2.727 2.727 0 0 1 2.727-2.727h3.636a2.727 2.727 0 0 1 2.727 2.727z" fill="#FFACA6"/><path d="M4.5 21.953a.5.5 0 0 1-.5-.5V7.515a.5.5 0 0 1 .5-.5h19.98a.5.5 0 0 1 .5.5v2.926q.474-.178 1-.271V7.515c0-.827-.673-1.5-1.5-1.5H4.5c-.827 0-1.5.673-1.5 1.5v13.938c0 .827.673 1.5 1.5 1.5h19.055a6 6 0 0 1-.713-1z" fill="#D9304C"/><path d="M16.941 9.624h-3.636a2.727 2.727 0 0 0-2.727 2.727v.227h1.818a2.727 2.727 0 0 1 2.727 2.727v.227h1.259l2.172 1.086c.417.208.84-.271.581-.659l-.62-.93a2.72 2.72 0 0 0 1.153-2.225v-.455a2.725 2.725 0 0 0-2.727-2.725" fill="#D9304C"/><path d="M12.396 12.578H8.759a2.727 2.727 0 0 0-2.727 2.727v.455c0 .919.456 1.731 1.153 2.225l-.62.93c-.259.388.165.867.581.659l2.172-1.086h3.077a2.727 2.727 0 0 0 2.727-2.727v-.454a2.726 2.726 0 0 0-2.726-2.729m-3.818 3.455a.5.5 0 1 1 0-1 .5.5 0 0 1 0 1m2 0a.5.5 0 1 1 0-1 .5.5 0 0 1 0 1m2 0a.5.5 0 1 1 0-1 .5.5 0 0 1 0 1M28.968 28.511l.009-.123c-.48.519-1.173.853-1.955.853s-1.475-.334-1.955-.853l.008.1q.028.366.068.757c.313 3.032.626 3.755.626 3.755h2.506s.313-.723.626-3.755q.039-.378.067-.734" fill="#000D6E"/><path d="m25.037 27.954.03.435c.48.519 1.173.853 1.955.853s1.475-.334 1.955-.853l.03-.435a27 27 0 0 0 .037-2.792 14 14 0 0 0-.064-.931l.008-1.227c1.005-.665 1.763-1.831 2.066-3.233.037.007.073.015.112.015.479 0 .868-.534.868-1.193 0-.543-.265-.996-.626-1.14v.202a.3.3 0 0 1-.067.185q-.02.028-.046.051a.3.3 0 0 1-.096.056.3.3 0 0 1-.104.021.313.313 0 0 1-.313-.313v-1.022c0-.045-.004-.084-.005-.128q-.053-.087-.111-.174a3.8 3.8 0 0 0-.863-.94c-.639.272-1.477.413-2.468.078a5.8 5.8 0 0 1-.997-.436 3.3 3.3 0 0 1-.605-.43c-.598.1-1.093.262-1.493.43-.339.142-.614.285-.834.392a4.6 4.6 0 0 0-.126.774q-.017.203-.018.435v1.022c0 .173-.14.313-.313.313-.018 0-.034-.007-.051-.01a.31.31 0 0 1-.262-.302v-.201c-.361.145-.626.598-.626 1.14 0 .659.389 1.193.868 1.193a.7.7 0 0 0 .17-.024c.298 1.386 1.038 2.545 2.025 3.215h-.016l.007 1.253s-.039.334-.064.931c-.026.643-.036 1.599.037 2.79" fill="#FFACA6"/><path d="m25.075 28.488-.008-.1-.03-.435A27 27 0 0 1 25 25.161c.025-.596.064-.931.064-.931l-.091.046-6.155 3.11a2.51 2.51 0 0 0-1.358 1.927L17 33h8.769s-.313-.723-.626-3.755a30 30 0 0 1-.068-.757M36.584 29.314a2.5 2.5 0 0 0-1.358-1.927l-6.246-3.156s.039.334.064.931a27 27 0 0 1-.067 3.227l-.009.123q-.028.356-.066.734c-.314 3.031-.627 3.754-.627 3.754h8.77z" fill="#D9304C"/><path d="M22.899 17.956c.017.003.033.01.051.01.173 0 .313-.14.313-.313v-1.022q0-.233.018-.435c.025-.312.073-.567.126-.774.219-.107.495-.25.834-.392.401-.167.895-.33 1.493-.43.155.142.353.287.605.43.268.152.593.3.997.436.991.334 1.829.193 2.468-.078.369.287.651.612.863.94q.058.087.111.174c.001.044.005.083.005.128v1.022c0 .173.14.313.313.313a.318.318 0 0 0 .2-.077.3.3 0 0 0 .046-.051.3.3 0 0 0 .067-.185V16.3c.028-.81.042-1.677 0-2.094-.091-.9-1.776-3.132-4.385-3.132s-4.385 1.969-4.385 3.758v2.819a.306.306 0 0 0 .26.305" fill="#000D6E"/></g></svg>