<svg xmlns="http://www.w3.org/2000/svg" viewBox="0 0 40 40" focusable="false" aria-hidden="true"><g id="Solid"><rect width="40" height="40" fill="none"/></g><g id="Icon_Red" data-name="Icon Red"><path d="M19.3278,20.0061a.9945.9945,0,0,1-.6584-.2519v3.6091a1.25,1.25,0,0,0,2.5,0V19.7541a.9941.9941,0,0,1-.6584.252C20.1361,20.0065,19.7026,20.0065,19.3278,20.0061Z" fill="#d9304c"/><path d="M18.6694,19.7542a.9945.9945,0,0,0,.6584.2519c.3748,0,.8083,0,1.1832,0a1.0082,1.0082,0,0,0,.9945-.9053L22.92,4.2512c0-1.2376-1.35-2.25-3-2.25s-3.0006,1.0126-3.0006,2.25l1.4145,14.85A.994.994,0,0,0,18.6694,19.7542Z" fill="#ffaca6"/><path d="M37.0989,36.0289H28.9171a1.003,1.003,0,0,0-.0248,1.9945c.0087,0,.016.0055.0248.0055h8.1818a1.0046,1.0046,0,0,0,0-2Z" fill="#000d6e"/><path d="M37.0989,33.0278H28.9171a1.0045,1.0045,0,0,0,0,2h8.1818a1.0046,1.0046,0,0,0,0-2Z" fill="#000d6e"/><path d="M37.0989,30.0266H28.9171a1.0045,1.0045,0,0,0,0,2h8.1818a1.0046,1.0046,0,0,0,0-2Z" fill="#000d6e"/><path d="M28.008,23.9782a5,5,0,1,0,5-5A5,5,0,0,0,28.008,23.9782Zm6.94-1.3933h1.6636V23.05h-1.127v.5547h.9937v.4639h-.9937v1.02h-.5366Zm-2.6318,0h.5366v.9873h.9541v-.9873h.5366v2.5029h-.5366V24.0507h-.9541v1.0371h-.5366Zm-1.6016-.0469a1.1817,1.1817,0,0,1,1.1738.8174l-.5146.209a.6521.6521,0,0,0-.6734-.5186.7928.7928,0,0,0,.0035,1.5811.6448.6448,0,0,0,.67-.5186l.5146.209a1.1758,1.1758,0,0,1-1.1772.8174,1.2984,1.2984,0,0,1,.0034-2.5967Z" fill="#000d6e"/><path d="M30.01,18.7864l.2622-.572a1,1,0,0,0-.9092-1.417H22.73l-.2284,2.3982a1.9917,1.9917,0,0,1-.3315.9271v3.2409a2.25,2.25,0,1,1-4.5007,0V20.1227a1.9931,1.9931,0,0,1-.3314-.9271l-.2285-2.3982h-6.633a1,1,0,0,0-.9093,1.417L14.4184,28.8l2.0441,4.46h0l1.6385,3.5748a2,2,0,0,0,3.6368,0l1.6385-3.5748h0L25.42,28.8l1.6961-3.7005A5.9705,5.9705,0,0,1,30.01,18.7864Z" fill="#ffaca6"/></g></svg>