<?xml version="1.0" encoding="iso-8859-1"?><!--Generator: Adobe Illustrator 26.2.1, SVG Export Plug-In . SVG Version: 6.00 Build 0)--><svg version="1.1" xmlns="http://www.w3.org/2000/svg" xmlns:xlink="http://www.w3.org/1999/xlink" x="0px" y="0px" viewBox="0 0 40 40" xml:space="preserve" focusable="false" aria-hidden="true" enable-background="new 0 0 40 40"><g id="Solid"><rect width="40" height="40" fill="none"/></g><g id="Icon_Purple"><g><path d="M35,16v-1c0-3.314-2.686-6-6-6h-8c-3.314,0-6,2.686-6,6v1c0,3.314,2.686,6,6,6h6.769l4.778,2.389
			c0.917,0.458,1.848-0.596,1.279-1.449l-1.363-2.045C33.996,19.808,35,18.023,35,16z" fill="#6C2273"/><g><path d="M19,15.5h-8c-3.314,0-6,2.686-6,6v1c0,2.023,1.004,3.808,2.537,4.895L6.174,29.44
				c-0.569,0.853,0.362,1.908,1.279,1.449l4.778-2.389H19c3.314,0,6-2.686,6-6v-1C25,18.186,22.314,15.5,19,15.5z" fill="#B8B2FF"/><g><circle cx="11" cy="22" r="1" fill="#000D6E"/><circle cx="15" cy="22" r="1" fill="#000D6E"/><circle cx="19" cy="22" r="1" fill="#000D6E"/></g></g></g></g></svg>