<svg viewBox="0 0 40 40" xmlns="http://www.w3.org/2000/svg" focusable="false" aria-hidden="true"><g fill="none"><path d="M0 0h40v40H0z"/><path d="M24 8.5a.5.5 0 0 1 .494-.499L24.488 8a.5.5 0 1 0 0 1l.006-.001A.5.5 0 0 1 24 8.5M22.5 8h-5a.5.5 0 1 0 0 1h5a.5.5 0 0 0 0-1"/></g><path d="M13 31v1.974c0 .567.46 1.026 1.026 1.026h11.948c.567 0 1.026-.46 1.026-1.026V31" fill="#fa9319"/><path d="M19.94 17.818c-.43 0-.72.33-.72.74 0 .4.29.74.72.74s.72-.32.72-.74-.29-.74-.72-.74" fill="#fae052"/><path d="M27 31V10H13v21m7.03-16c2.219 0 3.648 1.45 3.648 3.398 0 1.03-.7 1.859-1.56 1.859-.538 0-.929-.25-1.109-.64-.23.41-.64.67-1.259.67-.93 0-1.619-.78-1.619-1.719 0-.97.63-1.739 1.62-1.739.51 0 .89.21 1.149.56v-.42h.85v1.9c0 .269.119.448.359.448.34 0 .55-.31.55-.919 0-1.399-.94-2.48-2.63-2.48-1.668 0-2.697 1.21-2.697 2.61 0 1.47.949 2.529 2.578 2.529.64 0 1.2-.18 1.47-.5l.599.73c-.44.41-1.17.71-2.07.71-2.207 0-3.587-1.46-3.587-3.469 0-1.949 1.47-3.528 3.708-3.528" fill="#fae052"/><path d="M26.064 7H13.936a.936.936 0 0 0-.936.936V10h14V7.936A.936.936 0 0 0 26.064 7M22.5 9h-5a.5.5 0 0 1 0-1h5a.5.5 0 1 1 0 1m2 0-.006-.001-.006.001a.5.5 0 0 1 0-1l.006.001L24.5 8a.5.5 0 1 1 0 1" fill="#fa9319"/><path d="m24.5 8-.006.001a.5.5 0 0 0 0 .998L24.5 9a.5.5 0 1 0 0-1" fill="#fae052"/><path d="M19.91 21.996c.9 0 1.63-.3 2.069-.71l-.6-.73c-.27.321-.83.5-1.47.5-1.628 0-2.577-1.059-2.577-2.528 0-1.4 1.029-2.61 2.698-2.61 1.69 0 2.629 1.081 2.629 2.48 0 .61-.21.92-.55.92-.24 0-.36-.18-.36-.45v-1.9h-.85v.42c-.259-.349-.639-.559-1.149-.559-.99 0-1.619.77-1.619 1.74 0 .939.69 1.718 1.62 1.718.619 0 1.029-.26 1.258-.67.18.39.57.64 1.11.64.86 0 1.56-.83 1.56-1.859 0-1.949-1.43-3.398-3.65-3.398-2.237 0-3.707 1.58-3.707 3.528 0 2.01 1.38 3.468 3.588 3.468m.03-2.698c-.43 0-.72-.34-.72-.74 0-.41.29-.74.72-.74s.72.32.72.74-.29.74-.72.74" fill="#000d6e"/><circle cx="20" cy="31" fill="#000d6e" r="1"/></svg>