<svg xmlns="http://www.w3.org/2000/svg" viewBox="0 0 40 40" focusable="false" aria-hidden="true"><path fill="none" d="M0 0h40v40H0z"/><g><path d="M6 16.44c0-.29.13-.55.36-.73L20 5.12 33.64 15.7c.23.18.36.45.36.73v17.63c0 .52-.43.93-.95.93H6.95a.94.94 0 0 1-.95-.93z" fill="#fa9319" fill-rule="evenodd"/><path d="m31.86 32.19-7.87-7.22 6.02-4.65V8H10v12.16l6.2 4.63-8.06 7.39c-.2.19-.22.5-.03.71.1.11.23.16.37.16.12 0 .24-.04.34-.13l8.2-7.52 3.26 2.43 2.91-2.25 8 7.33c.1.09.22.13.34.13.14 0 .27-.05.37-.16.19-.2.17-.52-.03-.71Z" fill="#fae052"/><path d="M13.85 12.99h12.3c.28 0 .5-.22.5-.5s-.22-.5-.5-.5h-12.3c-.28 0-.5.22-.5.5s.22.5.5.5M26.15 15.98h-12.3c-.28 0-.5.22-.5.5s.22.5.5.5h12.3c.28 0 .5-.22.5-.5s-.22-.5-.5-.5M26.15 19.97h-12.3c-.28 0-.5.22-.5.5s.22.5.5.5h12.3c.28 0 .5-.22.5-.5s-.22-.5-.5-.5" fill="#000d6e"/></g></svg>