<svg xmlns="http://www.w3.org/2000/svg" viewBox="0 0 40 40" focusable="false" aria-hidden="true"><path fill="none" d="M0 0h40v40H0z"/><g data-name="Icon Purple"><path fill="none" d="m12.938 3.796-.135 4.635 2.139-2.329zM15.37 14.18l-.068-2.377-2.4.039zM15.05 3.02h-1.462L15.1 4.759zM15.226 9.164l-.052-1.837-1.662 1.81zM15.59 21.56l-.15-5.09-2.65 2.52zM15.81 29.34l-.16-5.65-3.19 2.79zM12.67 13l-.14 4.86 2.63-2.51zM12.47 20.05l-.16 5.24 3-2.63zM12.09 32.98l3.22-2.75-3.07-2.62z"/><path d="M33.117 15.497a7.87 7.87 0 0 0-5.284 0l-2.965 1.059v5.874c0 2.832 3.548 5.607 5.608 5.61 2.059-.003 5.606-2.778 5.606-5.61v-5.874Zm.418 5.96-.778.778-2.282-2.281-1.312 1.312 1.312 1.312.814-.813.969.969-1.592 1.592a.27.27 0 0 1-.381 0l-2.87-2.869a.27.27 0 0 1 0-.381l2.87-2.87a.27.27 0 0 1 .38 0l2.87 2.87a.27.27 0 0 1 0 .381Z" fill="#b8b2ff"/><path d="M11.06 34.03h1.34l3.47-2.96.08 2.96h.99l-.64-22.243 13.672-.22v2.495c.168-.01.335-.021.503-.021s.332.012.497.021v-2.51l2.036-.033a.9.9 0 0 0 .98-.757v-.555a.9.9 0 0 0-.98-.758L16.226 9.18l-.206-7.16h-4.03l-.206 7.09-7.771-.125c-.56-.01-1.021.333-1.021.758v1.483c0 .425.46.767 1.021.758l7.691-.123Zm1.03-1.05.15-5.37 3.07 2.62Zm3.72-3.64-3.35-2.86 3.19-2.79Zm-.22-7.78-2.8-2.57 2.65-2.52Zm-.22-7.38-2.468-2.338 2.4-.039Zm-.144-5.016-1.714-.027 1.661-1.81ZM15.05 3.02l.05 1.739-1.512-1.739Zm-2.112.776 2.004 2.306-2.139 2.329ZM12.67 13l2.49 2.35-2.63 2.51Zm-.2 7.05 2.84 2.61-3 2.63Z" fill="#6c2273"/><path d="m33.535 21.075-2.87-2.869a.27.27 0 0 0-.38 0l-2.87 2.87a.27.27 0 0 0 0 .38l2.87 2.87a.27.27 0 0 0 .38 0l1.593-1.593-.97-.969-.813.814-1.312-1.312 1.312-1.313 2.282 2.282.778-.778a.27.27 0 0 0 0-.382" fill="#000d6e"/><path d="M21.004 35.033h-14a1 1 0 0 0-1 1v2h16v-2a1 1 0 0 0-1-1" fill="#b8b2ff"/></g></svg>