<svg xmlns="http://www.w3.org/2000/svg" viewBox="0 0 40 40" focusable="false" aria-hidden="true"><path fill="none" d="M0 0h40v40H0z"/><g data-name="Icon Purple"><circle cx="28" cy="28" r="1" fill="none"/><path d="M26.983 30.81a3.46 3.46 0 0 1-.837 2.292 3.98 3.98 0 0 1-2.895.898h-1.53a3.98 3.98 0 0 1-2.894-.897 4.37 4.37 0 0 1-.854-3.16v-10.16a6.6 6.6 0 0 0 4.302-1.93 6.83 6.83 0 0 0 1.723-4.643V4H21v2h.998v7.26a4.87 4.87 0 0 1-1.188 3.23 5.13 5.13 0 0 1-3.829 1.347 5.13 5.13 0 0 1-3.828-1.347 4.9 4.9 0 0 1-1.188-3.28V6H13V4H9.965l.001 9.157a6.85 6.85 0 0 0 1.722 4.695 6.6 6.6 0 0 0 4.285 1.929v10.255a6.1 6.1 0 0 0 1.44 4.48A5.86 5.86 0 0 0 21.72 36h1.532a5.86 5.86 0 0 0 4.309-1.483 5.46 5.46 0 0 0 1.423-3.696 2.8 2.8 0 0 1-2.001-.01Z" fill="#6c2273"/><path d="M14 7a1 1 0 0 0 1-1V4a1 1 0 0 0-2 0v2a1 1 0 0 0 1 1M20 3a1 1 0 0 0-1 1v2a1 1 0 0 0 2 0V4a1 1 0 0 0-1-1" fill="#b8b2ff"/><path d="M31 28a3 3 0 1 0-4.017 2.81A3.002 3.002 0 0 0 31 28m-3 1a1 1 0 1 1 1-1 1 1 0 0 1-1 1" fill="#000d6e"/></g></svg>