<svg xmlns="http://www.w3.org/2000/svg" viewBox="0 0 40 40" focusable="false" aria-hidden="true"><path fill="none" d="M0 0h40v40H0z"/><g data-name="Icon Purple"><path d="M26.506 20.948v-.527a2 2 0 0 1-.96-.573 7.4 7.4 0 0 1-2.068 3.6h.528a2.503 2.503 0 0 0 2.5-2.5M20 7.375c3.645 0 5.998 3.118 6.125 4.375a24 24 0 0 1 .016 2.399 2 2 0 0 1 .859-.2h.495c0-.023.005-.045.005-.068a7.5 7.5 0 0 0-15 0c0 .023.005.045.005.067H13a2 2 0 0 1 .875.21v-1.533c0-2.5 2.48-5.25 6.125-5.25" fill="none"/><path d="m22.718 31.73.013-.172a3.723 3.723 0 0 1-5.462 0l.011.14q.04.511.095 1.057A23 23 0 0 0 18.25 38h3.5a23 23 0 0 0 .875-5.246c.037-.353.066-.692.093-1.025" fill="#000d6e"/><path d="M17.227 30.95q.019.298.042.608a3.723 3.723 0 0 0 5.462 0q.023-.31.042-.607a38 38 0 0 0 .05-3.901c-.034-.833-.089-1.3-.089-1.3l.01-1.302h-.782a1.495 1.495 0 1 1 .124-1h1.392a7.4 7.4 0 0 0 2.068-3.6A1.97 1.97 0 0 1 25 18.49v-2.542a2 2 0 0 1 .247-.944l-.002-.047c-.047-.081-.102-.162-.155-.244a5.3 5.3 0 0 0-1.205-1.313 4.72 4.72 0 0 1-3.448.11 8 8 0 0 1-1.393-.61 4.6 4.6 0 0 1-.845-.6 9.4 9.4 0 0 0-2.086.6c-.473.198-.858.398-1.164.547a6.4 6.4 0 0 0-.176 1.08 8 8 0 0 0-.02.478 2 2 0 0 1 .247.943v2.542a1.98 1.98 0 0 1-.48 1.287A7.13 7.13 0 0 0 17.279 24h-.022l.009 1.75s-.055.467-.09 1.3a38 38 0 0 0 .051 3.9" fill="#b8b2ff"/><path d="m17.28 31.697-.01-.14q-.024-.31-.043-.607a38 38 0 0 1-.05-3.9c.034-.833.089-1.3.089-1.3l-.128.064L8.54 30.16a3.5 3.5 0 0 0-1.896 2.692L6 38h12.25a23 23 0 0 1-.875-5.246 44 44 0 0 1-.095-1.057M26.141 14.149a24 24 0 0 0-.016-2.399c-.127-1.257-2.48-4.375-6.125-4.375s-6.125 2.75-6.125 5.25v1.533a2 2 0 0 1 .879.847c.003-.165.007-.328.019-.477a6.4 6.4 0 0 1 .176-1.08c.306-.15.69-.35 1.164-.548a9.4 9.4 0 0 1 2.086-.6 4.6 4.6 0 0 0 .845.6 8 8 0 0 0 1.393.61 4.72 4.72 0 0 0 3.448-.11 5.3 5.3 0 0 1 1.205 1.313c.053.081.108.163.155.244l.002.047a2 2 0 0 1 .894-.855M27 32.981a5.98 5.98 0 0 1 1.726-4.204l-5.992-3.027s.055.467.09 1.3a38 38 0 0 1-.051 3.9q-.019.298-.042.608l-.013.171c-.027.333-.056.672-.093 1.025A23 23 0 0 1 21.75 38h7.971A6 6 0 0 1 27 32.981" fill="#6c2273"/><path d="M33 28a5 5 0 1 0 5 5 5 5 0 0 0-5-5m3 5.588a.413.413 0 0 1-.412.412H34v1.588a.413.413 0 0 1-.412.412h-1.176a.413.413 0 0 1-.412-.412V34h-1.588a.413.413 0 0 1-.412-.412v-1.176a.413.413 0 0 1 .412-.412H32v-1.588a.413.413 0 0 1 .412-.412h1.176a.413.413 0 0 1 .412.412V32h1.588a.413.413 0 0 1 .412.412ZM15 15.948a2.02 2.02 0 0 0-2-2h-.495c0-.022-.005-.044-.005-.067a7.5 7.5 0 0 1 15 0c0 .023-.005.045-.005.067H27a2.026 2.026 0 0 0-2 2v2.542a1.97 1.97 0 0 0 .546 1.358 2 2 0 0 0 .96.573v.527a2.503 2.503 0 0 1-2.5 2.5h-1.92a1.507 1.507 0 1 0-.125 1h2.044a3.504 3.504 0 0 0 3.5-3.5v-.46a1 1 0 0 0 .995-.998v-5.542h-.005c0-.023.005-.044.005-.067a8.5 8.5 0 0 0-17 0c0 .023.005.044.005.067H11.5v5.542a1 1 0 0 0 1 1h.5a2.02 2.02 0 0 0 2-2Z" fill="#000d6e"/></g></svg>