<svg xmlns="http://www.w3.org/2000/svg" viewBox="0 0 40 40" focusable="false" aria-hidden="true"><path fill="none" d="M0 0h40v40H0z"/><g data-name="Icon Green"><path d="M29.715 13.114a.3.3 0 0 0-.425 0l-3.197 3.197a.3.3 0 0 0 0 .426l3.197 3.197a.3.3 0 0 0 .425 0l1.774-1.774-1.08-1.08-.907.907-1.462-1.463 1.463-1.462 2.542 2.542.867-.867a.3.3 0 0 0 0-.425Z" fill="#000d6e"/><path d="M29.715 13.114a.3.3 0 0 0-.425 0l-3.197 3.197a.3.3 0 0 0 0 .426l3.197 3.197a.3.3 0 0 0 .425 0l1.774-1.774-1.08-1.08-.907.907-1.462-1.463 1.463-1.462 2.542 2.542.867-.867a.3.3 0 0 0 0-.425Z" fill="none"/><path d="M33.5 10h-27A2.5 2.5 0 0 0 4 12.5v15A2.5 2.5 0 0 0 6.5 30h27a2.5 2.5 0 0 0 2.5-2.5v-15a2.5 2.5 0 0 0-2.5-2.5M7.99 24.42v2.083a.5.5 0 0 1-1 0V24.42a1.492 1.492 0 0 1 0-2.816v-7.1a.5.5 0 0 1 1 0v7.1a1.491 1.491 0 0 1 0 2.816Zm4-4.941v7.024a.5.5 0 0 1-1 0V19.48a1.492 1.492 0 0 1 0-2.816v-2.16a.5.5 0 0 1 1 0v2.16a1.491 1.491 0 0 1 0 2.816m4 3.441v3.583a.5.5 0 0 1-1 0V22.92a1.492 1.492 0 0 1 0-2.816v-5.6a.5.5 0 0 1 1 0v5.6a1.491 1.491 0 0 1 0 2.816Zm16.922-6.183-.867.867-2.543-2.542-1.462 1.462 1.463 1.463.906-.907 1.08 1.08-1.774 1.774a.3.3 0 0 1-.425 0l-3.197-3.197a.3.3 0 0 1 0-.425l3.197-3.198a.3.3 0 0 1 .425 0l3.197 3.197a.3.3 0 0 1 0 .426" fill="#94e3d4"/><path d="M7.99 21.604v-7.1a.5.5 0 0 0-1 0v7.1a1.492 1.492 0 0 0 0 2.816v2.083a.5.5 0 0 0 1 0V24.42a1.491 1.491 0 0 0 0-2.816M15.99 20.104v-5.6a.5.5 0 0 0-1 0v5.6a1.492 1.492 0 0 0 0 2.816v3.583a.5.5 0 0 0 1 0V22.92a1.491 1.491 0 0 0 0-2.816M11.99 16.662v-2.159a.5.5 0 0 0-1 0v2.16a1.492 1.492 0 0 0 0 2.816v7.024a.5.5 0 0 0 1 0V19.48a1.491 1.491 0 0 0 0-2.817" fill="#1b5951"/></g></svg>