<svg xmlns="http://www.w3.org/2000/svg" viewBox="0 0 40 40" focusable="false" aria-hidden="true"><g id="Solid"><rect width="40" height="40" fill="none"/></g><g id="Icon"><path d="M11,17v3H29V17a2,2,0,0,1,2-2h2V11a3,3,0,0,0-3-3H10a3,3,0,0,0-3,3v4H9A2,2,0,0,1,11,17Z" fill="#6c2273"/><path d="M8,30v2a1,1,0,0,0,2,0V30Z" fill="#000d6e"/><path d="M30,30v2a1,1,0,0,0,2,0V30Z" fill="#000d6e"/><path d="M36,30V17a1,1,0,0,0-1-1H31a1,1,0,0,0-1,1v4H10V17a1,1,0,0,0-1-1H5a1,1,0,0,0-1,1V30Z" fill="#b8b2ff"/></g></svg>