<?xml version="1.0" encoding="UTF-8"?><svg xmlns="http://www.w3.org/2000/svg" viewBox="0 0 40 40" focusable="false" aria-hidden="true"><g id="a"><rect width="40" height="40" fill="none"/></g><g id="b"><g><path d="M31.02151,26.02747h-8.99994c-.55231,0-1,.44775-1,1,0,.55231,.44769,1,1,1h8.99994c.55231,0,1-.44769,1-1,0-.55225-.44769-1-1-1Z" fill="#fa9319"/><path d="M31.02151,23.01947h-8.99994c-.55231,0-1,.44775-1,1v.00006c0,.55225,.44769,.99994,1,.99994h8.99994c.55231,0,1-.44769,1-1,0-.55225-.44769-1-1-1Z" fill="#fa9319"/><path d="M31.02151,20.01147h-8.99994c-.55231,0-1,.44775-1,1,0,.55231,.44769,1,1,1h8.99994c.55231,0,1-.44769,1-1,0-.55225-.44769-1-1-1Z" fill="#fa9319"/><path d="M22.02157,19.0318h8.99994c.55231,0,1-.44769,1-1,0-.55225-.44769-1-1-1h-8.99994c-.55231,0-1,.44775-1,1,0,.55231,.44769,1,1,1Z" fill="#fa9319"/><path d="M18.00954,23.01947H9.00954c-.55231,0-1,.44769-1,1s.44769,1,1,1h9c.55225,0,1-.44769,1-1s-.44775-1-1-1Z" fill="#fa9319"/><path d="M18.00954,20.01147H9.00954c-.55231,0-1,.44769-1,1s.44769,1,1,1h9c.55225,0,1-.44769,1-1s-.44775-1-1-1Z" fill="#fa9319"/><path d="M18.00954,17.00348H9.00954c-.55231,0-1,.44769-1,1s.44769,1,1,1h9c.55225,0,1-.44769,1-1s-.44775-1-1-1Z" fill="#fa9319"/><path d="M18.00954,14.0238H9.00954c-.55231,0-1,.44769-1,1s.44769,1,1,1h9c.55225,0,1-.44769,1-1s-.44775-1-1-1Z" fill="#fa9319"/><path d="M25.15408,11.60352l.86768-.86737v3.76581c0,.27637,.22363,.5,.5,.5s.5-.22363,.5-.5v-3.74219l.86719,.86719c.09766,.09766,.22559,.14648,.35352,.14648s.25586-.04883,.35352-.14648c.19531-.19531,.19531-.51172,0-.70703l-1.73242-1.73242c-.19531-.19531-.51172-.19531-.70703,0l-1.70947,1.70898c-.19531,.19531-.19531,.51172,0,.70703s.51172,.19531,.70703,0Z" fill="#000d6e"/><path d="M14.87673,30.4541l-.86719,.86719v-3.76562c0-.27637-.22363-.5-.5-.5s-.5,.22363-.5,.5v3.74219l-.86719-.86719c-.19531-.19531-.51172-.19531-.70703,0s-.19531,.51172,0,.70703l1.73242,1.73242c.09766,.09766,.22559,.14648,.35352,.14648s.25586-.04883,.35352-.14648l1.70898-1.70898c.19531-.19531,.19531-.51172,0-.70703s-.51172-.19531-.70703,0Z" fill="#000d6e"/></g></g></svg>