<svg xmlns="http://www.w3.org/2000/svg" viewBox="0 0 40 40" focusable="false" aria-hidden="true"><path fill="none" d="M0 0h40v40H0z"/><g><path d="M31.022 26.027h-9a1 1 0 0 0 0 2h9a1 1 0 1 0 0-2M31.022 23.02h-9a1 1 0 1 0 0 2h9a1 1 0 1 0 0-2M31.022 20.011h-9a1 1 0 0 0 0 2h9a1 1 0 1 0 0-2M22.022 19.032h9a1 1 0 1 0 0-2h-9a1 1 0 0 0 0 2M18.01 23.02h-9a1 1 0 1 0 0 2h9a1 1 0 0 0 0-2M18.01 20.011h-9a1 1 0 1 0 0 2h9a1 1 0 0 0 0-2M18.01 17.003h-9a1 1 0 1 0 0 2h9a1 1 0 0 0 0-2M18.01 14.024h-9a1 1 0 1 0 0 2h9a1 1 0 0 0 0-2" fill="#d9304c"/><path d="m25.154 11.604.868-.868v3.766a.5.5 0 1 0 1 0V10.76l.867.867a.5.5 0 0 0 .707 0 .5.5 0 0 0 0-.707l-1.732-1.732a.5.5 0 0 0-.707 0l-1.71 1.708a.5.5 0 1 0 .707.708M14.877 30.454l-.867.867v-3.765a.5.5 0 1 0-1 0v3.742l-.868-.867a.5.5 0 1 0-.707.707l1.733 1.732a.5.5 0 0 0 .707 0l1.709-1.709a.5.5 0 1 0-.707-.707" fill="#000d6e"/></g></svg>