<svg xmlns="http://www.w3.org/2000/svg" viewBox="0 0 40 40" focusable="false" aria-hidden="true"><path fill="none" d="M0 0h40v40H0z"/><g><path d="M6.938 23.008H5.027v7.985h1.911c.598 0 1.083-.484 1.083-1.083v-5.82c0-.597-.485-1.082-1.083-1.082" fill="#b8b2ff"/><path d="M34.947 26.225a1.5 1.5 0 0 0-1.471-1.22l-.299.03-7.188 1.726V27c0 1.285-1.18 1.996-1.996 1.996h-8.984a.5.5 0 1 1 0-.998h8.984c.284 0 .998-.297.998-.998v-.999l-.002-.064-.001-.01a.95.95 0 0 0-.43-.717l-.008-.005-.075-.048-.015-.008-.068-.036-.007-.003-.07-.031-.006-.003-.026-.01-.014-.006-.029-.01-.011-.003-.026-.008-.013-.004-.007-.002-.066-.016h-.004a.6.6 0 0 0-.12-.014h-5.016c-.521-.01-1.006-.342-1.566-.725l-.092-.063-.106-.072-.019-.013-.211-.14-.01-.007-.106-.067-.005-.004a9 9 0 0 0-.236-.144 5.6 5.6 0 0 0-1.237-.558 7.4 7.4 0 0 0-1.689-.203h-3.677c-.554 0-1.003.45-1.003 1.004v3.987h.004a2 2 0 0 0-.004.112v1.884s-.001.642.997.998c.998.357 6.468 2.612 6.602 2.667a4.49 4.49 0 0 0 3.2.072c.015-.005 14.201-5.836 14.201-5.836a1.5 1.5 0 0 0 .927-1.671" fill="#6c2273"/><circle cx="28" cy="20.00000001" r="3" fill="#b8b2ff"/><path d="M29.458 19.708h-1.166v-1.166a.291.291 0 1 0-.584 0v1.166h-1.166a.291.291 0 1 0 0 .584h1.166v1.166a.291.291 0 1 0 .584 0v-1.166h1.166a.291.291 0 1 0 0-.584" fill="#000d6e"/><circle cx="18" cy="16.00000001" r="4" fill="#b8b2ff"/><path d="M19.875 15.641h-1.5v-1.5a.375.375 0 1 0-.75 0v1.5h-1.5a.375.375 0 1 0 0 .75h1.5v1.5a.375.375 0 1 0 .75 0v-1.5h1.5a.375.375 0 1 0 0-.75" fill="#000d6e"/><circle cx="24" cy="9.00000001" r="3" fill="#b8b2ff"/><path d="M25.458 8.708h-1.166V7.542a.291.291 0 1 0-.584 0v1.166h-1.166a.291.291 0 1 0 0 .584h1.166v1.166a.291.291 0 1 0 .584 0V9.292h1.166a.291.291 0 1 0 0-.584" fill="#000d6e"/></g></svg>