<?xml version="1.0" encoding="UTF-8"?><svg id="Ebene_1" data-name="Ebene 1" xmlns="http://www.w3.org/2000/svg" viewBox="0 0 40 40" focusable="false" aria-hidden="true"><g id="Solid"><rect width="40" height="40" fill="none" stroke-width="0px"/></g><g id="Icon_Red" data-name="Icon Red"><g><path d="m6,2v12h7.9520874c0-1.10284424.8972168-2,2-2h2c.01641846,0,.03161621.00445557.0479126.00482178V2H6Zm6.23907471,7.05609131h-1.57470703v2.99786377h-1.73834229V3.94604492h3.31304932c1.73834229,0,2.8348999,1.00305176,2.8348999,2.55444288,0,1.5399785-1.10858154,2.5556035-2.8348999,2.5556035Z" stroke-width="0px" fill="#000d6e"/><path d="m12.14562988,5.4631958h-1.48126221v2.07568407h1.48126221c.7699585,0,1.16662598-.43084717,1.16662598-1.03839111,0-.6063838-.39666748-1.037292-1.16662598-1.03729296Z" stroke-width="0px" fill="#000d6e"/></g><path d="m24,36.21429443c0,.98620605-.79949951,1.78570557-1.78570557,1.78570557h-3.42858887c-.98620605,0-1.78570557-.79949951-1.78570557-1.78570557v-3.21429443h7v3.21429443Z" stroke-width="0px" fill="#000d6e"/><path d="m34,7h-8.48358154c-1.40466309.00201321-2.67089844.84701014-3.21124268,2.14324093l-.55310059,1.45717716-2.29998779,6.39958191h14.5479126V7Z" stroke-width="0px" fill="#b8b2ff"/><rect x="14.95207882" y="13" width="4.00000095" height="3" rx="1" ry="1" stroke-width="0px" fill="#6c2273"/></g><g><polygon points="29.61035156 18 26.09893799 22.93682861 32.1217041 27.22015381 29.08190918 32 34 32 34 18 29.61035156 18" stroke-width="0px" fill="#6c2273"/><path d="m30.74450684,27.49298096l-6.1005249-4.28643799,3.71618652-5.20654297h-9.34942627l-1.54241943,4.35839844c-.30914307.74200439-.46832275,1.5378418-.46832275,2.34179688l.01074219,7.29980469h10.86126709l2.87249756-4.50701904Zm-8.25378418,1.30700684h-.01000977c-.29998779.13000488-.61999512.20001221-.94995117.20001221h-.02001953c-1.38000488,0-2.5-1.11999512-2.5-2.5,0-1.0300293.63000488-1.92004395,1.51000977-2.29998779.30999756-.13000488.64001465-.20001221.98999023-.20001221,1.38000488,0,2.5,1.11999512,2.5,2.5,0,1.03997803-.63000488,1.91998291-1.52001953,2.29998779Z" stroke-width="0px" fill="#6c2273"/></g></svg>