<svg xmlns="http://www.w3.org/2000/svg" viewBox="0 0 40 40" focusable="false" aria-hidden="true"><path fill="none" d="M0 0h40v40H0z"/><g data-name="Icon Purple"><path d="m26.118 17.652.002.326zM25.56 18.57l-.007.035a1 1 0 0 0-.022.216 1.2 1.2 0 0 1 .04-.28q-.006.014-.01.029M26.116 17.426l-.003-.463zM26.73 20.965c.024.04.053.07.079.107-.025-.038-.055-.068-.079-.107M27.117 21.491a2 2 0 0 0 .251.228 3 3 0 0 1-.25-.228M26.428 20.346a2 2 0 0 0 .122.25c-.04-.084-.087-.161-.122-.25M26.974 15.718l.017-.004ZM32.232 18.426a1 1 0 0 0-.046-.118l-.02-.033-.011-.015a1 1 0 0 1 .078.166ZM31.85 17.998c-.007-.002-.014.005-.02.01a.4.4 0 0 0-.102-.03.4.4 0 0 1 .18.054.4.4 0 0 0-.059-.034M32.093 18.182a1 1 0 0 0-.055-.07l-.018-.014c-.01-.008-.021-.01-.031-.018a.6.6 0 0 1 .104.102ZM27.973 15.75l-.023-.005zM31.501 17.461l-.24-.116.464.225zM30.33 24.158q-.006.3-.026.674.02-.373.027-.674M32.278 18.558l-.008-.036-.003-.009a1.2 1.2 0 0 1 .043.308 1.2 1.2 0 0 0-.032-.263M30.156 26.527q-.03.264-.067.55.037-.286.067-.55M27.656 26.525q.03.266.068.551a35 35 0 0 1-.068-.55M27.509 24.844a21 21 0 0 1-.027-.67q.007.3.027.67M21.403 25.016a1.6 1.6 0 0 0 .34-.336l-.004-.012a1.5 1.5 0 0 1-.336.348M19.263 24.542l.004-.063-.004.065v.06-.062M18.026 22.443a.43.43 0 0 1-.296-.147.42.42 0 0 0 .294.147.4.4 0 0 0 .198-.057 3 3 0 0 0 .173.374 3 3 0 0 1-.174-.377.4.4 0 0 1-.195.06M27.522 22.823v-.017s-.018.132-.031.399c.013-.218.027-.352.03-.381ZM22.817 22.39a.4.4 0 0 0 .182.053.41.41 0 0 0 .274-.128.42.42 0 0 1-.276.127.4.4 0 0 1-.18-.052M21.684 23.785a2.6 2.6 0 0 0 .338-.25 2.7 2.7 0 0 0 .644-.825 2.8 2.8 0 0 1-.644.826 2.6 2.6 0 0 1-.338.249M23.346 21.147a.45.45 0 0 0-.341-.199l-.003-.336H23l.004.339a.44.44 0 0 1 .342.196M18.084 24.958v.001l.039-.009q.045-.01.09-.024l-.092.023ZM21.739 24.667v-.002l-.002-.038v.035zM30.291 22.823zl.001.009c.004.035.015.154.028.346-.014-.25-.031-.373-.031-.373v.009ZM18.834 24.78l.049-.01c.058-.014.105-.023.158-.034l-.154.032ZM18.017 19.677l.009 1.035-.006-1.038Z" fill="none"/><path d="m23.325 25.057.008.003q.017.003.033.01l-.032-.01Z" fill="#d9304c"/><path d="M27.839 27.888a51 51 0 0 1-.115-.812q-.038-.286-.068-.55l-.019-.162q-.037-.332-.063-.632v-.005a26 26 0 0 1-.062-.837l-.003-.046q-.02-.37-.027-.67v-.035c-.009-.406-.002-.716.01-.933v-.001a5 5 0 0 1 .031-.4l-1.092.553-.075.038-2.302 1.163v.752l-.012-.005h-.005c-.11-.048-.234-.086-.354-.127.12.042.244.081.35.131h.01a1.31 1.31 0 0 1 .93 1.25v2.445h3.048a46 46 0 0 1-.146-.879zM35.665 26.4a1.77 1.77 0 0 0-.96-1.362l-3.324-1.68-1.091-.552s.017.122.03.373v.004q.009.159.014.388v.016q.003.226-.002.523l-.001.048q-.007.301-.027.674l-.003.045q-.02.386-.062.85v.008q-.027.298-.064.628l-.019.164q-.03.264-.067.55l-.03.226q-.039.28-.084.58l-.037.245q-.066.418-.146.877h6.199Z" fill="#6c2273"/><path d="M16.923 25.33c.03-.01.07-.03.1-.04a1 1 0 0 1 .19-.07c.01-.01.02-.01.04-.02.07-.02.15-.05.23-.07.05-.02.1-.03.15-.05.04-.01.08-.03.12-.04q.16-.04.332-.08l-.001-.002.037-.01.092-.022q.03-.01.06-.016c.08-.02.16-.04.23-.06a2 2 0 0 0 .24-.05l.09-.02.054-.012.154-.032.172-.037a.04.04 0 0 0 .03-.01l.003.004.01-.002v-.03l.006-.058v-.06l.005-.065.01-.161.038-.555a2.7 2.7 0 0 1-.871-.914l-.03-.043-.01-.025-.01-.02a3 3 0 0 1-.173-.375.4.4 0 0 1-.197.058.42.42 0 0 1-.294-.147.85.85 0 0 1-.23-.603 1 1 0 0 1 .09-.419.51.51 0 0 1 .436-.331v-.232l-.01-1.035.004-.003.01-.011a2.6 2.6 0 0 1 1.105-.342 1.95 1.95 0 0 1 .973.245 13 13 0 0 0 1.899.744 31 31 0 0 0 .993.302h.002l.003.337a.45.45 0 0 1 .341.199.9.9 0 0 1 .176.546.9.9 0 0 1-.07.36.7.7 0 0 1-.179.261.41.41 0 0 1-.274.128.4.4 0 0 1-.182-.053 3 3 0 0 1-.15.32 2.7 2.7 0 0 1-.644.826 2.6 2.6 0 0 1-.338.249l.038.532.015.225v.085l.002.038v.003l.004.012c.12.03.24.06.37.08q.18.045.39.09c.26.06.53.13.76.19a.06.06 0 0 0 .04.01l.021.007.01.002.031.01.108.031c.075.023.138.054.21.079.12.04.244.079.353.127h.006l.012.004v-4.194c0-.11-.018-.215-.025-.322a4.5 4.5 0 0 0-.24-1.203c-.014-.04-.032-.075-.046-.114a4 4 0 0 0-.18-.42 3.6 3.6 0 0 0-.304-.498 3.14 3.14 0 0 0-2.724-1.532 3.23 3.23 0 0 0-2.308.981 3.2 3.2 0 0 0-.468.502q-.016.02-.033.04a4 4 0 0 0-.366.616l-.022.045a4.3 4.3 0 0 0-.26.73l-.006.022a4.6 4.6 0 0 0-.13.83c-.008.107-.017.213-.017.322v3.214l-3.807-1.923-.035-.54a3.86 3.86 0 0 0 1.524-2.412.5.5 0 0 0 .09.025c.362 0 .654-.402.654-.898a.89.89 0 0 0-.471-.848v-.888a15 15 0 0 0 0-1.567 3.51 3.51 0 0 0-3.303-2.359 3.15 3.15 0 0 0-3.302 2.831v1.983a.89.89 0 0 0-.472.848c0 .496.292.898.653.898a.5.5 0 0 0 .133-.037 3.88 3.88 0 0 0 1.484 2.395l-.037.569-4.695 2.372A1.89 1.89 0 0 0 4.32 26.23l-.347 2.776h12V26.56a1.31 1.31 0 0 1 .95-1.23M26.43 23.358l1.093-.552.052-.841-.001-.06c-.074-.053-.137-.125-.206-.186a2 2 0 0 1-.25-.228 3.5 3.5 0 0 1-.31-.419c-.025-.036-.055-.068-.078-.107a4 4 0 0 1-.18-.369 2 2 0 0 1-.122-.25 4.4 4.4 0 0 1-.203-.697.4.4 0 0 1-.107.016c-.324 0-.587-.378-.587-.844a1 1 0 0 1 .022-.215l.008-.036q.004-.014.01-.028c.08-.327.292-.564.547-.564h.002l-.002-.326-.002-.226-.003-.463-.005-.58a3 3 0 0 1 .023-.34c.138-.067.305-.15.495-.221a2.5 2.5 0 0 1 .348-.104l.016-.004a2 2 0 0 1 .96.032l.023.005a2.5 2.5 0 0 1 .49.192c.217.114.455.236.7.36a147 147 0 0 0 2.339 1.159l.224.108.003.409a.4.4 0 0 1 .1.03c.007-.006.014-.013.02-.01a.4.4 0 0 1 .059.034.5.5 0 0 1 .081.047c.01.008.022.01.031.018l.018.014a1 1 0 0 1 .055.07 1 1 0 0 1 .062.078l.012.015.019.033a1 1 0 0 1 .047.118 1 1 0 0 1 .034.087l.003.008.008.036a1.2 1.2 0 0 1 .032.264c0 .465-.263.843-.587.843a.4.4 0 0 1-.09-.013 3.65 3.65 0 0 1-1.397 2.288l.054.867 1.94.98 1.427.72c.584-.394.865-.849.614-1.26a13.3 13.3 0 0 1-.853-3.507 27.5 27.5 0 0 0-.975-4.047 3.47 3.47 0 0 0-3.498-2.687 3.43 3.43 0 0 0-3.33 2.284c-.41 1.123-1.448 4.585.146 7.364a3.2 3.2 0 0 0 .594.743Z" fill="#000d6e"/><path d="M31.634 19.651a.4.4 0 0 0 .089.013c.324 0 .587-.377.587-.843a1.2 1.2 0 0 0-.043-.308 2 2 0 0 0-.112-.253 1 1 0 0 0-.062-.078.6.6 0 0 0-.104-.102.5.5 0 0 0-.082-.048.4.4 0 0 0-.179-.054l-.003-.408-.463-.225c-.511-.25-1.34-.656-2.099-1.041a63 63 0 0 1-.7-.361 2.5 2.5 0 0 0-.49-.192l-.023-.006a2 2 0 0 0-.96-.031l-.017.004a2.5 2.5 0 0 0-.348.103c-.19.072-.357.155-.494.221a3 3 0 0 0-.023.34l.004.581.004.462.001.226.003.327h-.002c-.255 0-.467.237-.548.563a1.2 1.2 0 0 0-.04.28c0 .466.264.844.588.844a.4.4 0 0 0 .106-.015 4.4 4.4 0 0 0 .204.697c.034.088.082.165.121.25a4 4 0 0 0 .18.368c.024.04.054.07.079.107a3.5 3.5 0 0 0 .309.42 3 3 0 0 0 .25.227c.07.061.133.133.207.187l.001.059-.053.841v.017h-.001c-.004.03-.017.164-.03.382v.002a13 13 0 0 0-.01.932v.036q.007.3.028.67l.002.046q.022.38.062.836v.001a1.743 1.743 0 0 0 2.666.001v-.001q.041-.464.062-.85l.003-.046q.02-.372.026-.674l.001-.048q.006-.295.002-.523v-.015a11 11 0 0 0-.012-.389v-.004a8 8 0 0 0-.028-.346l-.001-.009v-.009l-.002-.009-.054-.867a3.65 3.65 0 0 0 1.398-2.288M21.739 24.668v-.001l-.002-.005v-.12l-.015-.225-.037-.532a2.6 2.6 0 0 0 .338-.25 2.8 2.8 0 0 0 .643-.825 3 3 0 0 0 .15-.32.4.4 0 0 0 .18.053.42.42 0 0 0 .277-.128.7.7 0 0 0 .179-.262.9.9 0 0 0 .07-.36.9.9 0 0 0-.176-.546.44.44 0 0 0-.342-.196l-.004-.34q-.127-.035-.284-.082a33 33 0 0 1-.71-.22 13 13 0 0 1-1.899-.743 1.95 1.95 0 0 0-.973-.245 2.6 2.6 0 0 0-1.104.342l-.011.011c.002.244.005.676.006 1.038v.232a.51.51 0 0 0-.436.331 1 1 0 0 0-.089.418.85.85 0 0 0 .23.604.43.43 0 0 0 .295.146.4.4 0 0 0 .195-.06 3 3 0 0 0 .174.378l.009.02.011.025q.014.022.03.043a2.7 2.7 0 0 0 .87.914l-.037.555-.01.161-.005.064v.062l-.007.058v.03l-.01.001a1.53 1.53 0 0 0 2.493-.025ZM24.043 25.31h-.01c-.106-.05-.23-.09-.35-.131-.072-.026-.135-.057-.21-.079l-.107-.03q-.017-.006-.033-.01l-.008-.003a.1.1 0 0 0-.022-.007v3.96h1.67v-2.45a1.31 1.31 0 0 0-.93-1.25M17.633 25.08c-.05.02-.1.03-.15.05-.08.02-.16.05-.23.07-.02.01-.03.01-.04.02a1 1 0 0 0-.19.07c-.03.01-.07.03-.1.04a1.31 1.31 0 0 0-.95 1.23v2.45h1.66Z" fill="#b8b2ff"/><path d="M23.303 25.05a.06.06 0 0 1-.04-.01c-.23-.06-.5-.13-.76-.19q-.21-.045-.39-.09c-.13-.02-.25-.05-.37-.08a1.6 1.6 0 0 1-.34.336 1.49 1.49 0 0 1-2.157-.322l-.003-.004a.04.04 0 0 1-.03.01l-.172.036c-.053.011-.1.02-.158.034-.014.004-.034.007-.05.01q-.044.01-.09.02a2 2 0 0 1-.24.05 8 8 0 0 1-.29.077q-.045.013-.09.024l-.038.009-.332.08c-.04.01-.08.03-.12.04v3.93h5.67Z" fill="#6c2273"/></g></svg>