<svg xmlns="http://www.w3.org/2000/svg" viewBox="0 0 40 40" focusable="false" aria-hidden="true"><g id="Solid"><rect width="40" height="40" fill="none"/></g><g id="Icon_Tangerine" data-name="Icon Tangerine"><path d="M26.1178,17.6516l.0025.3262-.0024-.3262Z" fill="none"/><path d="M25.5607,18.57l-.0077.0352a1.1873,1.1873,0,0,0-.0217.2156,1.1546,1.1546,0,0,1,.0392-.28C25.568,18.5515,25.563,18.56,25.5607,18.57Z" fill="none"/><polygon points="26.626 15.821 26.626 15.821 26.626 15.821 26.626 15.821" fill="none"/><path d="M26.1162,17.4256l-.0035-.4623C26.1138,17.1085,26.1149,17.2646,26.1162,17.4256Z" fill="none"/><path d="M26.73,20.9651c.0235.0391.053.0707.0786.107-.0247-.0377-.0551-.0681-.0786-.107Z" fill="none"/><path d="M27.1171,21.4911a2.2788,2.2788,0,0,0,.2509.2275,2.9284,2.9284,0,0,1-.2509-.2276Z" fill="none"/><path d="M26.4284,20.3461a2.42,2.42,0,0,0,.1215.25c-.04-.0845-.0873-.1614-.1216-.25Z" fill="none"/><path d="M26.974,15.7178l0,0,.0166-.004Z" fill="none"/><path d="M32.2324,18.4261a1.0327,1.0327,0,0,0-.0467-.1181l-.0189-.0332-.012-.0152h0a.9268.9268,0,0,1,.0778.1668Z" fill="none"/><path d="M31.8493,17.9984c-.0067-.0021-.0134.0048-.02.01a.4155.4155,0,0,0-.1009-.03.4291.4291,0,0,1,.179.0539A.4051.4051,0,0,0,31.8493,17.9984Z" fill="none"/><path d="M32.0929,18.1816a.676.676,0,0,0-.0551-.0695l-.0179-.0142c-.01-.0081-.0213-.0107-.0311-.0181h0a.6266.6266,0,0,1,.1043.102Z" fill="none"/><path d="M27.9728,15.7508l-.0226-.0054.0226.0054Z" fill="none"/><path d="M31.5013,17.4613c-.07-.0341-.1448-.07-.24-.1165.2349.1144.402.1952.4637.225C31.6885,17.5521,31.605,17.5117,31.5013,17.4613Z" fill="none"/><path d="M27.7538,27.3022c.0258.1883.0545.3845.085.5858C27.8084,27.6871,27.78,27.49,27.7538,27.3022Z" fill="none"/><path d="M30.3309,24.1578c-.0045.2009-.0129.4253-.0265.6738Q30.3248,24.4589,30.3309,24.1578Z" fill="none"/><path d="M30.3017,24.8766c-.0147.2583-.0346.54-.0623.8505C30.2672,25.4164,30.2871,25.1351,30.3017,24.8766Z" fill="none"/><path d="M30.2386,25.735c-.0178.1979-.0393.4091-.0634.6283C30.1994,26.1436,30.2208,25.9332,30.2386,25.735Z" fill="none"/><path d="M30.3338,23.5867c.0023.15.0018.3266-.002.523C30.3355,23.9134,30.3362,23.7371,30.3338,23.5867Z" fill="none"/><path d="M30.3207,23.1827c.0056.1056.01.2358.0128.3882C30.3309,23.4188,30.3263,23.2883,30.3207,23.1827Z" fill="none"/><path d="M27.5737,25.7323c.0178.199.0394.41.0637.6312C27.6131,26.1432,27.5915,25.931,27.5737,25.7323Z" fill="none"/><path d="M32.2779,18.5577c-.0028-.012-.0046-.0243-.0078-.0362l-.0031-.0081,0,0a1.1606,1.1606,0,0,1,.043.3076A1.1651,1.1651,0,0,0,32.2779,18.5577Z" fill="none"/><path d="M30.1564,26.5266c-.02.1763-.0429.36-.0677.55Q30.1259,26.7913,30.1564,26.5266Z" fill="none"/><path d="M27.6559,26.5253q.0306.2652.0679.5508C27.699,26.886,27.6761,26.7018,27.6559,26.5253Z" fill="none"/><path d="M27.5732,25.7267c-.0273-.3048-.047-.582-.0616-.8365C27.5262,25.145,27.5458,25.4215,27.5732,25.7267Z" fill="none"/><path d="M27.5089,24.8441c-.0137-.2464-.0223-.47-.0269-.67Q27.4888,24.4739,27.5089,24.8441Z" fill="none"/><path d="M30.0586,27.3026c-.0253.1864-.054.3815-.0841.58C30.0046,27.6837,30.0331,27.4893,30.0586,27.3026Z" fill="none"/><path d="M21.4032,25.0161a1.6065,1.6065,0,0,0,.34-.3361h0l-.0041-.0119A1.5127,1.5127,0,0,1,21.4032,25.0161Z" fill="none"/><polygon points="19.263 24.542 19.267 24.479 19.263 24.544 19.263 24.604 19.263 24.602 19.263 24.542" fill="none"/><path d="M18.0259,22.4429a.4255.4255,0,0,1-.2957-.1466.4224.4224,0,0,0,.2939.1471.3857.3857,0,0,0,.1977-.0574,2.8035,2.8035,0,0,0,.1727.3744,2.8674,2.8674,0,0,1-.1736-.3775A.3726.3726,0,0,1,18.0259,22.4429Z" fill="none"/><path d="M27.5218,22.8229l.001-.0169s-.0184.1316-.0319.3985c.0132-.2179.0267-.3513.03-.381Z" fill="none"/><path d="M22.8165,22.39l0,0a.3825.3825,0,0,0,.182.0528.4131.4131,0,0,0,.2743-.1282.4169.4169,0,0,1-.2762.1277A.3855.3855,0,0,1,22.8165,22.39Z" fill="none"/><path d="M21.6844,23.7848a2.609,2.609,0,0,0,.3381-.2492,2.7245,2.7245,0,0,0,.6435-.8253,2.7729,2.7729,0,0,1-.6436.8253A2.6012,2.6012,0,0,1,21.6844,23.7848Z" fill="none"/><path d="M28.021,29.0051c-.0542-.3066-.1021-.5978-.1464-.8794C27.9189,28.4077,27.9668,28.6985,28.021,29.0051Z" fill="none"/><path d="M29.7916,29.0051c.054-.3056.1017-.5958.1459-.877C29.8934,28.4091,29.8456,28.6994,29.7916,29.0051Z" fill="none"/><path d="M23.3458,21.1472a.4515.4515,0,0,0-.3412-.199l-.0029-.336L23,20.6116c.0014.1209.0027.2384.0042.3394A.4442.4442,0,0,1,23.3458,21.1472Z" fill="none"/><path d="M18.0835,24.9583l.0014.0009.038-.0092c.03-.006.06-.0151.09-.0239-.0308.0074-.0618.0148-.0919.0224Z" fill="none"/><path d="M27.4908,23.2064c-.011.2168-.0178.5271-.0095.9326C27.4728,23.7337,27.48,23.4231,27.4908,23.2064Z" fill="none"/><polygon points="21.739 24.667 21.739 24.665 21.737 24.627 21.737 24.662 21.739 24.667" fill="none"/><path d="M30.2913,22.8229l.0007,0,.001.0087c.0039.0349.0154.1548.0275.3467-.0134-.2509-.0308-.3728-.0308-.3728l.0011.0081Z" fill="none"/><path d="M18.8337,24.7805c.0161-.0035.0352-.007.0492-.0105.0576-.0144.1055-.0227.1585-.0336-.0515.0107-.1008.02-.1543.032Z" fill="none"/><path d="M18.0167,19.6768c.0021.2456.0057.6749.0088,1.0349-.0012-.3619-.0044-.794-.006-1.0378Z" fill="none"/><path d="M23.3247,25.0573l.0082.0027c.0116.0023.0211.0061.0326.0093l-.0318-.01Z" fill="#d9304c"/><path d="M27.8388,27.888c-.03-.2013-.0592-.3975-.085-.5858-.01-.0767-.02-.1515-.03-.2261q-.0374-.2858-.0679-.5508c-.0061-.054-.0127-.109-.0185-.1618-.0243-.2208-.0459-.4322-.0637-.6312l0-.0046h0v-.001c-.0274-.3052-.047-.5817-.0616-.8365l-.0027-.0461q-.02-.37-.0269-.67l-.0007-.0353c-.0083-.4055-.0015-.7158.0095-.9326v-.0013l0-.0006c.0135-.2669.0319-.3985.0319-.3985l-1.092.5517-.0755.0382h0l-2.3014,1.1629v.7519l-.0118-.0041-.0056,0c-.1094-.0483-.2335-.0865-.3537-.1274.1195.0422.2439.0812.35.1313h.01a1.3113,1.3113,0,0,1,.93,1.25v2.4451H28.021c-.0542-.3066-.1021-.5974-.1464-.8794C27.8618,28.0442,27.8509,27.9675,27.8388,27.888Z" fill="#fa9319"/><path d="M35.6649,26.4a1.7728,1.7728,0,0,0-.96-1.3625l-3.3235-1.6793L30.29,22.806s.0174.1219.0308.3728l0,.0011,0,.0028c.0056.1056.01.2361.0128.3882l0,.0158c.0024.15.0017.3267-.002.523l-.0009.0481q-.0066.3012-.0265.6738l-.0027.045c-.0146.2585-.0345.54-.0623.8505l0,.0013v0l-.0006.0065c-.0178.1982-.0392.4086-.0634.6283-.0059.0533-.0125.1088-.0188.1633q-.03.2649-.0677.55c-.01.0746-.02.1493-.03.226-.0255.1867-.054.3811-.0841.58-.0125.0819-.0238.161-.037.245-.0442.2812-.0919.5714-.1459.877h6.199Z" fill="#fa9319"/><path d="M16.923,25.33c.03-.01.07-.03.1-.04a1.0662,1.0662,0,0,1,.19-.07c.01-.01.02-.01.04-.02.07-.02.15-.05.23-.07.05-.02.1-.03.15-.05.04-.01.08-.03.12-.04.1077-.0269.2171-.0539.332-.0808l-.0014-.0009.0371-.01c.03-.0076.0611-.015.0919-.0224.02-.006.04-.0121.06-.0161.08-.02.16-.04.23-.06a2.0439,2.0439,0,0,0,.24-.05c.0325-.0065.0611-.013.0908-.02l.0534-.0121c.0535-.0116.1028-.0213.1543-.032.0574-.0118.12-.026.1715-.0364a.0366.0366,0,0,0,.03-.01l.0034.0038.0091-.0019v-.03l.0073-.0578v-.06l.0044-.0651.0108-.1615.0375-.5548a2.6709,2.6709,0,0,1-.8714-.9143c-.0088-.015-.02-.0276-.0289-.0428-.0044-.0079-.0072-.0172-.0115-.0251l-.0091-.02a2.8035,2.8035,0,0,1-.1727-.3744.3857.3857,0,0,1-.1977.0574.4224.4224,0,0,1-.2939-.1471.8517.8517,0,0,1-.2291-.6031.99.99,0,0,1,.089-.4184.5078.5078,0,0,1,.4358-.3313c0-.0711,0-.15,0-.2318-.0031-.36-.0067-.7893-.0088-1.0349l.0028-.0029.0109-.0115a2.6143,2.6143,0,0,1,1.1045-.3414,1.9529,1.9529,0,0,1,.973.2446,13.1029,13.1029,0,0,0,1.8988.7438c.258.0832.5012.1573.71.2192.1041.0308.1994.0587.2835.083l.002.0006.0029.336a.4515.4515,0,0,1,.3412.199.8964.8964,0,0,1,.1754.546.9411.9411,0,0,1-.0693.36.7293.7293,0,0,1-.1793.2615.4131.4131,0,0,1-.2743.1282.3825.3825,0,0,1-.182-.0528,2.8752,2.8752,0,0,1-.15.32,2.7245,2.7245,0,0,1-.6435.8253,2.609,2.609,0,0,1-.3381.2492l.0375.5323.015.2249v.0851l.0022.0376-.0006.002,0,.0014.0041.0119c.12.03.24.06.37.08q.18.045.39.09c.26.06.53.13.76.19a.06.06,0,0,0,.04.01.0624.0624,0,0,1,.0218.0073l.009.002.0318.01c.0379.01.0767.023.1074.0307.075.0224.1383.0534.21.0787.12.0409.2443.0791.3537.1274l.0056,0,.0118.0041V21.1146c0-.11-.0172-.2142-.0246-.322v0a4.5344,4.5344,0,0,0-.24-1.2029c-.0136-.04-.0318-.0752-.0464-.114a4.159,4.159,0,0,0-.18-.42,3.6374,3.6374,0,0,0-.304-.4973,3.1362,3.1362,0,0,0-2.7233-1.5322,3.2245,3.2245,0,0,0-2.308.9813,3.2146,3.2146,0,0,0-.4679.5014c-.0108.0141-.0226.0265-.0333.0409a3.7845,3.7845,0,0,0-.3661.6156c-.0072.0151-.0148.0292-.0218.0442a4.2753,4.2753,0,0,0-.26.73l-.0058.0227a4.6373,4.6373,0,0,0-.1312.83v0c-.0071.1068-.0159.2128-.0159.322v3.2142l-3.807-1.9235-.0353-.5393a3.8629,3.8629,0,0,0,1.524-2.4126.4684.4684,0,0,0,.0907.0252c.3609,0,.6536-.4023.6536-.8986a.8885.8885,0,0,0-.4718-.8481v-.888a15.3677,15.3677,0,0,0,0-1.5664,3.5068,3.5068,0,0,0-3.3025-2.3589,3.1487,3.1487,0,0,0-3.3025,2.8307v1.9826a.8883.8883,0,0,0-.4717.8481c0,.4963.2926.8986.6536.8986a.4765.4765,0,0,0,.133-.0369,3.884,3.884,0,0,0,1.4836,2.3949l-.0372.5687L5.3423,24.7772A1.8891,1.8891,0,0,0,4.32,26.2289l-.347,2.7762h12V26.56A1.3117,1.3117,0,0,1,16.923,25.33Z" fill="#000d6e"/><path d="M26.4308,23.3577l1.092-.5517.0526-.8414-.0014-.0593c-.0736-.0532-.1368-.1253-.206-.1867a2.2788,2.2788,0,0,1-.2509-.2275v0a3.4446,3.4446,0,0,1-.3087-.4189c-.0256-.0363-.0551-.0679-.0786-.107h0a4.001,4.001,0,0,1-.18-.3689,2.42,2.42,0,0,1-.1215-.25l0,0a4.4033,4.4033,0,0,1-.2037-.6971.417.417,0,0,1-.1064.0154c-.3241,0-.5869-.3776-.5869-.8434a1.1873,1.1873,0,0,1,.0217-.2156l.0077-.0352c.0023-.01.0073-.0186.01-.0287.0809-.3267.2926-.5639.5477-.5639l.0021,0-.0025-.3262h0l-.0017-.226c-.0013-.161-.0024-.3171-.0035-.4623l-.0044-.581a2.6369,2.6369,0,0,1,.0231-.34c.1373-.0663.3044-.1488.4944-.2208v0h0a2.51,2.51,0,0,1,.3479-.1033l0,0,.0163-.0038a2.0172,2.0172,0,0,1,.96.0314l.0226.0054h0a2.4673,2.4673,0,0,1,.4909.1919c.2165.1138.4546.2362.7.3608.758.3853,1.5872.7923,2.0983,1.0413.0949.0463.1695.0824.24.1165.1037.05.1872.0908.224.1085,0,.056.003.3357.003.4085a.4155.4155,0,0,1,.1009.03c.0067-.0055.0134-.0124.02-.01a.4051.4051,0,0,1,.058.0338.4865.4865,0,0,1,.0815.0476h0c.01.0074.0215.01.0311.0181l.0179.0142a.676.676,0,0,1,.0551.0695l0,0a.6956.6956,0,0,1,.0616.0778h0l.012.0152.0189.0332a1.0327,1.0327,0,0,1,.0467.1181l0,0a.9238.9238,0,0,1,.0344.0869l0,0,.0031.0081c.0032.0119.005.0242.0078.0362a1.1651,1.1651,0,0,1,.032.2632c0,.4658-.2627.8434-.587.8434a.4165.4165,0,0,1-.0891-.0129,3.65,3.65,0,0,1-1.3977,2.2879l.0542.8667,1.94.98,1.4264.7207c.5844-.3949.8652-.8494.614-1.26a13.3027,13.3027,0,0,1-.8524-3.5072,27.4875,27.4875,0,0,0-.9754-4.0473,3.4681,3.4681,0,0,0-3.4978-2.6872,3.4323,3.4323,0,0,0-3.33,2.2838c-.41,1.1233-1.4483,4.5851.146,7.364a3.1759,3.1759,0,0,0,.5938.743h0Z" fill="#000d6e"/><path d="M31.6338,19.6514a.4165.4165,0,0,0,.0891.0129c.3243,0,.587-.3776.587-.8434a1.1606,1.1606,0,0,0-.043-.3076,2.3325,2.3325,0,0,0-.1122-.2537.6956.6956,0,0,0-.0616-.0778.6266.6266,0,0,0-.1043-.102.4865.4865,0,0,0-.0815-.0476.4291.4291,0,0,0-.179-.0539c0-.0728-.003-.3525-.003-.4085-.0617-.03-.2288-.1106-.4637-.225-.5111-.249-1.34-.656-2.0983-1.0413-.245-.1246-.4831-.247-.7-.3608a2.4673,2.4673,0,0,0-.4909-.1919l-.0226-.0054a2.0172,2.0172,0,0,0-.96-.0314l-.0166.004a2.51,2.51,0,0,0-.3479.1033v0c-.19.072-.3571.1545-.4944.2208a2.6369,2.6369,0,0,0-.0231.34l.0044.581.0035.4623.0017.226.0024.3262-.0021,0c-.2551,0-.4668.2372-.5477.5639a1.1546,1.1546,0,0,0-.0392.28c0,.4658.2628.8434.5869.8434a.417.417,0,0,0,.1064-.0154,4.4033,4.4033,0,0,0,.2037.6971c.0343.0888.0821.1657.1216.25a4.001,4.001,0,0,0,.18.3689c.0235.0389.0539.0693.0786.107a3.4446,3.4446,0,0,0,.3087.4189,2.9284,2.9284,0,0,0,.2509.2276c.0692.0614.1324.1335.206.1867l.0014.0593-.0526.8414-.001.0169-.0009.0006c-.0033.03-.0168.1631-.03.381l0,.0006v.0013c-.011.2167-.018.5273-.0095.9326l.0007.0353c.0046.2.0132.4234.0269.67l.0027.0461c.0146.2545.0343.5317.0616.8365v.001h0a1.7426,1.7426,0,0,0,2.666.0008v0l0-.0013c.0277-.31.0476-.5922.0623-.8505l.0027-.045c.0136-.2485.022-.4729.0265-.6738l.0009-.0481c.0038-.1964.0043-.3726.002-.523l0-.0158c-.0025-.1524-.0072-.2826-.0128-.3882l0-.0028,0-.0011c-.0121-.1919-.0236-.3118-.0275-.3467l-.001-.0087-.0007,0,0-.0088L30.29,22.806l.0006,0-.0542-.867A3.65,3.65,0,0,0,31.6338,19.6514Z" fill="#fae052"/><path d="M21.7389,24.6681l0-.0014-.0016-.0048v-.12l-.015-.2249-.0375-.5323a2.6012,2.6012,0,0,0,.338-.2492,2.7729,2.7729,0,0,0,.6436-.8253,2.8752,2.8752,0,0,0,.15-.32l0,0a.3855.3855,0,0,0,.18.0525.4169.4169,0,0,0,.2762-.1277.7293.7293,0,0,0,.1793-.2615.9411.9411,0,0,0,.0693-.36.8964.8964,0,0,0-.1754-.546.4442.4442,0,0,0-.3419-.1962c-.0015-.101-.0028-.2185-.0042-.3394-.0841-.0243-.1794-.0522-.2835-.083-.2083-.0619-.4515-.136-.71-.2192a13.1029,13.1029,0,0,1-1.8988-.7438,1.9529,1.9529,0,0,0-.973-.2446,2.6143,2.6143,0,0,0-1.1045.3414l-.0109.0115c.0016.2438.0048.6759.006,1.0378,0,.0819,0,.1607,0,.2318a.5078.5078,0,0,0-.4358.3313.99.99,0,0,0-.089.4184.8517.8517,0,0,0,.2291.6031.4255.4255,0,0,0,.2957.1466.3726.3726,0,0,0,.195-.06,2.8674,2.8674,0,0,0,.1736.3775l.0091.02c.0043.0079.0071.0172.0115.0251.0086.0152.02.0278.0289.0428a2.6709,2.6709,0,0,0,.8714.9143l-.0375.5548-.0108.1615-.0042.0634v.06l0,.0022-.0073.0578v.03l-.0091.0019a1.53,1.53,0,0,0,2.4926-.0257Z" fill="#fae052"/><path d="M24.043,25.31h-.01c-.1062-.05-.2306-.0891-.35-.1313-.0716-.0253-.1349-.0563-.21-.0787-.0307-.0077-.0695-.02-.1074-.0307-.0115-.0032-.021-.007-.0326-.0093l-.0082-.0027a.0624.0624,0,0,0-.0218-.0073v3.96h1.67V26.56A1.3113,1.3113,0,0,0,24.043,25.31Z" fill="#fae052"/><path d="M17.6329,25.08c-.05.02-.1.03-.15.05-.08.02-.16.05-.23.07-.02.01-.03.01-.04.02a1.0662,1.0662,0,0,0-.19.07c-.03.01-.07.03-.1.04a1.3117,1.3117,0,0,0-.95,1.23v2.45h1.66Z" fill="#fae052"/><path d="M23.3029,25.05a.06.06,0,0,1-.04-.01c-.23-.06-.5-.13-.76-.19q-.21-.045-.39-.09c-.13-.02-.25-.05-.37-.08h0a1.6065,1.6065,0,0,1-.34.3361,1.4915,1.4915,0,0,1-2.1569-.3223l-.0034-.0038a.0366.0366,0,0,1-.03.01c-.0519.01-.1141.0246-.1715.0364-.053.0109-.1009.0192-.1585.0336-.014.0035-.0331.007-.0492.0105-.03.0065-.0583.013-.0908.02a2.0439,2.0439,0,0,1-.24.05c-.07.02-.15.04-.23.06-.02.004-.04.01-.06.0161-.03.0088-.06.0179-.09.0239l-.038.0092c-.1149.0269-.2243.0539-.332.0808-.04.01-.08.03-.12.04v3.93h5.67Z" fill="#fa9319"/></g></svg>