<svg xmlns="http://www.w3.org/2000/svg" viewBox="0 0 40 40" focusable="false" aria-hidden="true"><g id="Solid"><rect width="40" height="40" fill="none"/></g><g id="Icon_Tangerine" data-name="Icon Tangerine"><path d="M14.7988,13.3417l-.0151.0428a19.86,19.86,0,0,0-1.1168,6.1472l-.0015.0506H19.483V13.9765l-.0487-.001a20.9418,20.9418,0,0,1-4.5912-.6231Z" fill="#fa9319"/><path d="M15.1185,12.4976l.0565.0136a20.0859,20.0859,0,0,0,4.2568.5667l.0512.001V6.0068h-.05a.1015.1015,0,0,0-.0234.0019l-.0151.003-.0107.0107A19.7833,19.7833,0,0,0,15.14,12.4441Z" fill="#fa9319"/><path d="M13.9392,26.8929l-.017-.05a20.7388,20.7388,0,0,1-1.1514-6.3147L12.77,20.48H6.0044l.0019.0516a13.8617,13.8617,0,0,0,3.202,8.3941l.0272.0321.0366-.0214A20.82,20.82,0,0,1,13.89,26.9075Z" fill="#fa9319"/><path d="M12.7683,19.5336a20.7557,20.7557,0,0,1,1.1456-6.3827l.0171-.05-.05-.0147a20.84,20.84,0,0,1-4.6247-2.0357L9.22,11.03l-.0273.0321A13.8517,13.8517,0,0,0,6.002,19.5307L6,19.5823h6.7673Z" fill="#fa9319"/><path d="M33.7484,22.6415a14.3089,14.3089,0,0,0,.2453-2.11l.0019-.0516H27.0714l-.001.0486A20.9024,20.9024,0,0,1,26.72,23.8l.0532-.0088Z" fill="#fa9319"/><path d="M26.1758,19.5317a19.878,19.878,0,0,0-1.1066-6.1442l-.0151-.0429-.0444.0107a20.8763,20.8763,0,0,1-4.5795.62l-.0487.001v5.6058h5.7957Z" fill="#fa9319"/><path d="M24.6793,12.5142l.0565-.0137-.0219-.0535a19.788,19.788,0,0,0-4.2378-6.4324L20.4522,6h-.0707v7.08l.0512-.0019A20.0525,20.0525,0,0,0,24.6793,12.5142Z" fill="#fa9319"/><path d="M25.9224,13.1042l.0171.05a20.77,20.77,0,0,1,1.1353,6.38l.0009.0487H34l-.002-.0516a13.85,13.85,0,0,0-3.2389-8.5226l-.0278-.0331-.0365.0223A20.74,20.74,0,0,1,25.9721,13.09Z" fill="#fa9319"/><path d="M14.2706,27.7769l-.0171-.0419-.0434.0127a19.8974,19.8974,0,0,0-4.3,1.86l-.0551.0321.0439.0448a14.0694,14.0694,0,0,0,8.0177,4.1368l.135.0194-.09-.1022A20.7207,20.7207,0,0,1,14.2706,27.7769Z" fill="#fa9319"/><path d="M14.2,12.2455l.0434.0126.017-.0419a20.7024,20.7024,0,0,1,3.7014-5.9845l.09-.1022-.135.0194a14.0581,14.0581,0,0,0-8.0338,4.1543l-.0438.0457.0545.0312A19.9353,19.9353,0,0,0,14.2,12.2455Z" fill="#fa9319"/><path d="M25.5934,12.22l.0171.0418.0434-.0127a19.95,19.95,0,0,0,4.406-1.92l.0545-.0321-.0438-.0458a14.0668,14.0668,0,0,0-8.1449-4.127l-.133-.0185.0887.1012A20.7036,20.7036,0,0,1,25.5934,12.22Z" fill="#fa9319"/><path d="M18.59,25.1411l.8933-.1474V20.48H13.6678l.0015.0506a19.8464,19.8464,0,0,0,1.1232,6.079l.0151.0428.0443-.0107a20.851,20.851,0,0,1,2.9243-.5075A.9829.9829,0,0,1,18.59,25.1411Z" fill="#fa9319"/><path d="M17.8867,27.0239a19.97,19.97,0,0,0-2.7015.4589l-.0565.0137.0219.0535a19.7359,19.7359,0,0,0,3.7975,5.9107L17.8975,27.09Z" fill="#fa9319"/><path d="M25.7664,23.9576a19.9372,19.9372,0,0,0,.4055-3.427l.0014-.0506H20.3815v4.3656l.026-.0043Z" fill="#fa9319"/><path d="M35.5259,23.3619a1,1,0,0,0-1.1494-.824l-.5647.0931-.0634.0105-6.9748,1.15L26.72,23.8l-.9026.1488-.0514.0084-5.3589.8837-.026.0043-.8744.1441-.0241.004-.8933.1474a.9829.9829,0,0,0-.8135.9931c0,.0222-.0087.0424-.0072.0648.0022.0311-.0084.06-.0033.0914l.121.7335.0108.0657,1.0506,6.3711.0119.0717.27,1.6381a1,1,0,0,0,1.1494.8239l15.7868-2.6031a1,1,0,0,0,.824-1.1494ZM22.41,33.0062a1.0469,1.0469,0,0,1-.23-1.46.26.26,0,1,1,.4206.3064.5244.5244,0,0,0,.1155.732.26.26,0,0,1-.16.47A.2653.2653,0,0,1,22.41,33.0062Zm-.8649,1.6228a.26.26,0,0,1-.2174.1064.263.263,0,0,1-.1462-.0489,3.1268,3.1268,0,0,1-.6871-4.3619.26.26,0,1,1,.42.3064,2.605,2.605,0,0,0,.573,3.634A.261.261,0,0,1,21.5455,34.629Zm.2536-.7816a2.0852,2.0852,0,0,1-.46-2.9129.26.26,0,0,1,.4206.3064,1.5633,1.5633,0,0,0,.3444,2.1849.26.26,0,0,1-.3054.4216Zm13.0649-8.353-.4037.55-1.6385-1.147-.6809.9276.9426.66.4222-.5751.6959.4872-.8259,1.1251a.1724.1724,0,0,1-.2359.0389l-2.0605-1.4424a.1632.1632,0,0,1-.0381-.2307L32.53,23.86a.1723.1723,0,0,1,.2359-.0388l2.0606,1.4423A.1628.1628,0,0,1,34.864,25.4944Z" fill="#fae052"/><path d="M32.7654,23.8214a.1723.1723,0,0,0-.2359.0388l-1.4883,2.0276a.1632.1632,0,0,0,.0381.2307L33.14,27.5609a.1724.1724,0,0,0,.2359-.0389l.8259-1.1251-.6959-.4872-.4222.5751-.9426-.66.6809-.9276,1.6385,1.147.4037-.55a.1628.1628,0,0,0-.038-.2307Z" fill="#000d6e"/><path d="M20.9153,30.631a.26.26,0,1,0-.42-.3064,3.1268,3.1268,0,0,0,.6871,4.3619.263.263,0,0,0,.1462.0489.26.26,0,0,0,.16-.47A2.605,2.605,0,0,1,20.9153,30.631Z" fill="#000d6e"/><path d="M22.1621,33.79a.2605.2605,0,0,0-.0576-.364,1.5633,1.5633,0,0,1-.3444-2.1849.26.26,0,0,0-.4206-.3064,2.0852,2.0852,0,0,0,.46,2.9129.2622.2622,0,0,0,.1457.0489A.2593.2593,0,0,0,22.1621,33.79Z" fill="#000d6e"/><path d="M22.7739,32.9486a.2609.2609,0,0,0-.0571-.3639.5244.5244,0,0,1-.1155-.732.26.26,0,1,0-.4206-.3064,1.0469,1.0469,0,0,0,.23,1.46.2653.2653,0,0,0,.1462.0489A.26.26,0,0,0,22.7739,32.9486Z" fill="#000d6e"/></g></svg>