<svg xmlns="http://www.w3.org/2000/svg" viewBox="0 0 40 40" focusable="false" aria-hidden="true"><g id="Solid"><rect width="40" height="40" fill="none"/></g><g id="Icon"><polygon points="25.58 20.47 24.63 15 15.35 15 14.4 20.47 25.58 20.47" fill="#b8b2ff"/><polygon points="14.3 15 10.81 15 5 20.47 13.35 20.47 14.3 15" fill="#b8b2ff"/><polygon points="5.02 21.47 19.06 35 13.44 21.47 5.02 21.47" fill="#b8b2ff"/><polygon points="25.43 21.47 14.55 21.47 19.99 34.55 25.43 21.47" fill="#b8b2ff"/><polygon points="35 20.47 29.41 15 25.68 15 26.63 20.47 35 20.47" fill="#b8b2ff"/><polygon points="20.92 35 34.96 21.47 26.54 21.47 20.92 35" fill="#b8b2ff"/><path d="M20,10a.5.5,0,0,1-.5-.5v-4a.5.5,0,0,1,1,0v4A.5.5,0,0,1,20,10Z" fill="#000d6e"/><path d="M27,12a.47.47,0,0,1-.35-.15.48.48,0,0,1,0-.7l2.82-2.83a.5.5,0,0,1,.71.71l-2.83,2.82A.47.47,0,0,1,27,12Z" fill="#000d6e"/><path d="M13,12a.47.47,0,0,1-.35-.15L9.82,9a.5.5,0,0,1,.71-.71l2.82,2.83a.48.48,0,0,1,0,.7A.47.47,0,0,1,13,12Z" fill="#000d6e"/></g></svg>