<svg version="1.1" xmlns="http://www.w3.org/2000/svg" x="0px" y="0px" viewBox="0 0 40 40" xml:space="preserve" focusable="false" aria-hidden="true" enable-background="new 0 0 40 40"><path fill="none" d="M0 0h40v40H0z"/><g><path fill="#D9304C" d="M21 23.998h3v1h-3zM27.339 7.52l-4.225.87c-.865.144-.77 1.11 0 1.11h4.416c.536 0 .971-.448.971-1-.001-.631-.561-1.104-1.162-.98M24.166 20h1.031a6 6 0 0 1 1.62-2.797l-.506-.885A7 7 0 0 0 24.166 20M33.719 15.02c-1.692-.652-3.351-.658-4.808-.201l.513.897c1.496-.407 3.202-.307 5.008.881 1.041.685 1.854 1.704 2.241 2.889C38.033 23.652 34.966 27.5 31 27.5a6 6 0 0 1-5.803-4.5h-1.031c.689 3.141 3.49 5.5 6.834 5.5 4.722 0 8.367-4.7 6.503-9.667a6.6 6.6 0 0 0-3.784-3.813M13.474 16.122l-.474.915c1.679 1.506 2.513 3.934 1.663 6.498a5.73 5.73 0 0 1-3.512 3.591c-4.889 1.709-9.394-2.713-7.839-7.592.387-1.213 1.231-2.245 2.294-2.946 1.712-1.128 3.307-1.258 4.731-.933l.471-.909c-1.758-.471-3.758-.346-5.887 1.109-1.186.811-2.118 1.99-2.556 3.358-1.818 5.675 3.455 10.85 9.143 8.848a6.67 6.67 0 0 0 4.041-4.018c1.119-3.136.054-6.146-2.075-7.921"/><path d="m20.457 19.568-4.16-6.241a1.92 1.92 0 0 0-2.69-.515l4.959 7.438a1.75 1.75 0 1 0 3.184 1c0-.807-.549-1.48-1.293-1.682" fill="#000D6E"/><path d="m31.435 21.252-5.87-10.272.705-1.48h-1.107l-.476 1H13.289L14.786 8H17a.5.5 0 0 0 0-1h-2.473a.55.55 0 0 0-.472.267l-2.325 3.887a2.32 2.32 0 0 0-.089 2.215l.126.254a1.62 1.62 0 0 1-.026 1.497l-3.185 6.15a.5.5 0 1 0 .888.459l3.181-6.142a2.62 2.62 0 0 0 .037-2.41l-.048-.097a1.61 1.61 0 0 1 .06-1.556l.036-.06.898 1.347a1.9 1.9 0 0 1 .982-.331l-.655-.98H24.21l-3.805 7.989.053.079c.028.008.05.026.078.035.14.046.273.102.395.18.046.029.085.066.128.099.065.05.138.091.195.15v-.001l3.788-7.952L30.139 21h-8.414c.012.082.025.164.025.25 0 .133-.018.262-.046.387l-.006.02q-.044.18-.123.344H31a.5.5 0 0 0 .5-.5.44.44 0 0 0-.065-.249" fill="#FFACA6"/><path d="m20.53 33.884-3.226-5.609-3.197-5.558a1.443 1.443 0 0 0-2.496 0l-3.197 5.558-3.226 5.609c-.252.439-.252.963.002 1.401.256.441.733.715 1.247.715h12.844c.514 0 .992-.274 1.247-.715.254-.438.255-.962.002-1.401m-.852.91a.45.45 0 0 1-.397.224H6.437a.45.45 0 0 1-.397-.224.41.41 0 0 1 0-.419l3.226-5.609 3.197-5.558a.45.45 0 0 1 .397-.225.45.45 0 0 1 .397.225l3.197 5.558 3.226 5.609a.41.41 0 0 1-.002.419" fill="#D9304C"/><path d="m16.453 28.765-3.197-5.558a.45.45 0 0 0-.397-.225.45.45 0 0 0-.397.225l-3.197 5.558-3.226 5.609a.41.41 0 0 0 0 .419c.081.14.229.224.397.224H19.28a.45.45 0 0 0 .397-.224.41.41 0 0 0 0-.419zm-3.599 5.406a.867.867 0 0 1-.883-.883c0-.528.377-.916.883-.916.517 0 .905.388.905.916 0 .496-.388.883-.905.883m.625-2.715h-1.26l-.269-5.268h1.821z" fill="#FFACA6"/><path fill="#000D6E" d="M12.219 31.456h1.26l.291-5.268h-1.821zM12.854 32.372c-.506 0-.883.388-.883.916 0 .496.377.883.883.883.517 0 .905-.388.905-.883 0-.528-.388-.916-.905-.916"/></g></svg>