<svg xmlns="http://www.w3.org/2000/svg" viewBox="0 0 40 40" focusable="false" aria-hidden="true"><path fill="none" d="M0 0h40v40H0z"/><g data-name="Icon Green"><path fill="#1b5951" d="M21 25.998h3v1h-3zM27.34 9.52l-4.226.87c-.866.145-.77 1.11 0 1.11h4.415a.997.997 0 1 0-.19-1.98ZM24.166 22h1.03a6 6 0 0 1 1.62-2.797l-.505-.885A7 7 0 0 0 24.166 22M33.719 17.02a7.22 7.22 0 0 0-4.809-.201l.513.897a5.93 5.93 0 0 1 5.009.882 5.57 5.57 0 0 1 2.24 2.888A6.006 6.006 0 1 1 25.197 25h-1.031a7.012 7.012 0 1 0 13.337-4.167 6.6 6.6 0 0 0-3.784-3.813M13.474 18.122l-.474.915a6.03 6.03 0 0 1 1.663 6.498 5.73 5.73 0 0 1-3.512 3.59 6.035 6.035 0 0 1-7.839-7.592 5.64 5.64 0 0 1 2.294-2.945 5.88 5.88 0 0 1 4.731-.934l.47-.91a6.85 6.85 0 0 0-5.886 1.11 6.54 6.54 0 0 0-2.556 3.358 7.04 7.04 0 0 0 9.142 8.849 6.67 6.67 0 0 0 4.04-4.019 7.05 7.05 0 0 0-2.073-7.92"/><path d="m20.457 21.568-4.16-6.24a1.92 1.92 0 0 0-2.69-.515l4.959 7.438a1.751 1.751 0 1 0 1.891-.683Z" fill="#000d6e"/><path d="m31.435 23.252-5.87-10.272.705-1.48h-1.107l-.476 1H13.289l1.497-2.5H17a.5.5 0 0 0 0-1h-2.473a.55.55 0 0 0-.471.268l-2.325 3.886a2.32 2.32 0 0 0-.09 2.215l.126.255a1.62 1.62 0 0 1-.027 1.496l-3.184 6.15a.5.5 0 0 0 .214.674A.5.5 0 0 0 9 24a.5.5 0 0 0 .444-.27l3.181-6.142a2.62 2.62 0 0 0 .037-2.41l-.048-.097a1.61 1.61 0 0 1 .06-1.555l.036-.06.898 1.347a1.9 1.9 0 0 1 .981-.33l-.654-.983H24.21l-3.805 7.989.053.08c.028.007.05.026.077.034a1.7 1.7 0 0 1 .395.18c.047.03.086.066.129.1a2 2 0 0 1 .195.15v-.001l3.788-7.952L30.139 23h-8.414a1.5 1.5 0 0 1-.021.637l-.006.02a1.7 1.7 0 0 1-.123.343H31a.5.5 0 0 0 .5-.5.44.44 0 0 0-.065-.248" fill="#94e3d4"/></g></svg>