<?xml version="1.0" encoding="iso-8859-1"?><!--Generator: Adobe Illustrator 26.2.1, SVG Export Plug-In . SVG Version: 6.00 Build 0)--><svg version="1.1" xmlns="http://www.w3.org/2000/svg" xmlns:xlink="http://www.w3.org/1999/xlink" x="0px" y="0px" viewBox="0 0 40 40" xml:space="preserve" enable-background="new 0 0 40 40" focusable="false" aria-hidden="true"><g id="Solid"><rect width="40" height="40" fill="none"/></g><g id="Icon_Green"><path d="M33.83,14.09c-0.75-1.78-1.82-3.37-3.19-4.73c-1.36-1.37-2.95-2.44-4.73-3.19
		C24.08,5.39,22.13,5,20.12,5h-0.24c-2.01,0-3.96,0.39-5.79,1.17c-1.78,0.75-3.37,1.82-4.73,3.19c-1.37,1.36-2.44,2.95-3.19,4.73
		C5.39,15.92,5,17.87,5,19.88v0.24c0,2.01,0.39,3.96,1.17,5.79c0.75,1.78,1.82,3.37,3.19,4.73c1.36,1.37,2.95,2.44,4.73,3.19
		c1.83,0.78,3.78,1.17,5.79,1.17h0.24c2.01,0,3.96-0.39,5.79-1.17c1.78-0.75,3.37-1.82,4.73-3.19c1.37-1.36,2.44-2.95,3.19-4.73
		c0.78-1.83,1.17-3.78,1.17-5.79v-0.24C35,17.87,34.61,15.92,33.83,14.09z M9.03,16.55c0.05-0.18,0.11-0.34,0.17-0.51
		s0.13-0.35,0.2-0.52c0-0.02,0.01-0.04,0.02-0.06c0.58-1.35,1.39-2.56,2.44-3.6c1.04-1.05,2.25-1.86,3.6-2.44
		c0.02-0.01,0.04-0.02,0.06-0.02c0.35-0.15,0.7-0.28,1.06-0.38c0.16-0.05,0.33-0.1,0.49-0.14c0.18-0.05,0.36-0.09,0.55-0.13
		c0.74-0.15,1.49-0.22,2.26-0.22h0.24c0.77,0,1.52,0.07,2.26,0.22c0.19,0.04,0.37,0.08,0.55,0.13c0.16,0.04,0.33,0.09,0.49,0.14
		c0.36,0.1,0.71,0.23,1.06,0.38c0.02,0,0.04,0.01,0.06,0.02c1.35,0.58,2.56,1.39,3.6,2.44c1.05,1.04,1.86,2.25,2.44,3.6
		c0.01,0.02,0.02,0.04,0.02,0.06c0.07,0.17,0.14,0.35,0.2,0.52c0.07,0.18,0.13,0.36,0.18,0.54c0.02,0.06,0.04,0.12,0.06,0.18h-0.01
		c-0.53-0.15-1.15-0.32-1.84-0.49c-2.43-0.6-5.75-1.21-9.19-1.21s-6.76,0.61-9.19,1.21c-0.7,0.17-1.32,0.34-1.85,0.5
		C8.98,16.7,9,16.62,9.03,16.55z M16.87,20.44c0-1.73,1.4-3.13,3.13-3.13s3.13,1.4,3.13,3.13c0,1.73-1.4,3.13-3.13,3.13
		S16.87,22.17,16.87,20.44z M17.86,31.29c-0.2-0.03-0.39-0.07-0.58-0.12c-0.19-0.04-0.38-0.09-0.57-0.15
		c-0.4-0.12-0.8-0.26-1.19-0.42c-0.52-0.22-1.01-0.47-1.49-0.76c-0.79-0.47-1.51-1.04-2.17-1.7c-0.66-0.66-1.23-1.38-1.7-2.17
		C9.87,25.49,9.62,25,9.4,24.48l-0.21-0.54c-0.06-0.17-0.12-0.34-0.17-0.51v-0.01C8.95,23.21,8.89,23,8.85,22.78
		c-0.06-0.22-0.1-0.43-0.14-0.65c-0.08-0.43-0.13-0.87-0.16-1.32c0.24-0.02,0.48-0.03,0.72-0.03c0.28,0,0.56,0.01,0.84,0.04
		c4.32,0.42,7.69,4.02,7.75,8.44V31.29z M31.29,22.13c-0.04,0.22-0.08,0.43-0.14,0.65c-0.04,0.22-0.1,0.43-0.17,0.64v0.01
		c-0.05,0.17-0.11,0.34-0.17,0.51l-0.21,0.54c-0.22,0.52-0.47,1.01-0.76,1.49c-0.47,0.79-1.04,1.51-1.7,2.17
		c-0.66,0.66-1.38,1.23-2.17,1.7c-0.48,0.29-0.97,0.54-1.49,0.76c-0.39,0.16-0.79,0.3-1.19,0.42c-0.19,0.06-0.38,0.11-0.57,0.15
		c-0.19,0.05-0.38,0.09-0.58,0.12v-1.93c0-4.46,3.4-8.12,7.75-8.54c0.27-0.03,0.55-0.04,0.83-0.04c0.25,0,0.49,0.01,0.73,0.03
		C31.42,21.26,31.37,21.7,31.29,22.13z" fill="#94E3D4"/><g><path d="M17.86,29.69v1.6c0.69,0.14,1.41,0.21,2.14,0.21s1.45-0.07,2.14-0.21v-1.6
			c-0.69,0.15-1.41,0.23-2.14,0.23S18.55,29.84,17.86,29.69z" fill="#1B5951"/><path d="M8.96,16.77C8.66,17.79,8.5,18.88,8.5,20l0.05,0.81c0.24-0.02,0.48-0.03,0.72-0.03
			c0.28,0,0.56,0.01,0.84,0.04c-0.02-0.27-0.03-0.54-0.03-0.82c0-1.32,0.26-2.58,0.73-3.73C10.11,16.44,9.49,16.61,8.96,16.77z" fill="#1B5951"/><path d="M31.03,16.76c-0.53-0.15-1.15-0.32-1.84-0.49c0.47,1.15,0.73,2.41,0.73,3.73
			c0,0.28-0.01,0.55-0.03,0.82c0.27-0.03,0.55-0.04,0.83-0.04c0.25,0,0.49,0.01,0.73,0.03L31.5,20
			C31.5,18.87,31.34,17.79,31.03,16.76z" fill="#1B5951"/></g><circle cx="20" cy="20.44" r="3.13" fill="#000D6E"/></g></svg>