<svg version="1.1" xmlns="http://www.w3.org/2000/svg" x="0px" y="0px" viewBox="0 0 40 40" xml:space="preserve" enable-background="new 0 0 40 40" focusable="false" aria-hidden="true"><path fill="none" d="M0 0h40v40H0z"/><g><path d="M33.83 14.09c-.75-1.78-1.82-3.37-3.19-4.73a14.6 14.6 0 0 0-4.73-3.19C24.08 5.39 22.13 5 20.12 5h-.24c-2.01 0-3.96.39-5.79 1.17-1.78.75-3.37 1.82-4.73 3.19a14.6 14.6 0 0 0-3.19 4.73C5.39 15.92 5 17.87 5 19.88v.24c0 2.01.39 3.96 1.17 5.79.75 1.78 1.82 3.37 3.19 4.73 1.36 1.37 2.95 2.44 4.73 3.19 1.83.78 3.78 1.17 5.79 1.17h.24c2.01 0 3.96-.39 5.79-1.17 1.78-.75 3.37-1.82 4.73-3.19 1.37-1.36 2.44-2.95 3.19-4.73.78-1.83 1.17-3.78 1.17-5.79v-.24c0-2.01-.39-3.96-1.17-5.79m-24.8 2.46c.05-.18.11-.34.17-.51s.13-.35.2-.52c0-.02.01-.04.02-.06.58-1.35 1.39-2.56 2.44-3.6 1.04-1.05 2.25-1.86 3.6-2.44.02-.01.04-.02.06-.02.35-.15.7-.28 1.06-.38.16-.05.33-.1.49-.14.18-.05.36-.09.55-.13.74-.15 1.49-.22 2.26-.22h.24c.77 0 1.52.07 2.26.22.19.04.37.08.55.13.16.04.33.09.49.14.36.1.71.23 1.06.38.02 0 .04.01.06.02 1.35.58 2.56 1.39 3.6 2.44 1.05 1.04 1.86 2.25 2.44 3.6.01.02.02.04.02.06.07.17.14.35.2.52q.105.27.18.54l.06.18h-.01c-.53-.15-1.15-.32-1.84-.49-2.43-.6-5.75-1.21-9.19-1.21s-6.76.61-9.19 1.21c-.7.17-1.32.34-1.85.5.02-.07.04-.15.07-.22m7.84 3.89c0-1.73 1.4-3.13 3.13-3.13s3.13 1.4 3.13 3.13-1.4 3.13-3.13 3.13-3.13-1.4-3.13-3.13m.99 10.85c-.2-.03-.39-.07-.58-.12a6 6 0 0 1-.57-.15c-.4-.12-.8-.26-1.19-.42-.52-.22-1.01-.47-1.49-.76-.79-.47-1.51-1.04-2.17-1.7s-1.23-1.38-1.7-2.17c-.29-.48-.54-.97-.76-1.49l-.21-.54c-.06-.17-.12-.34-.17-.51v-.01c-.07-.21-.13-.42-.17-.64a11.333 11.333 0 0 1-.3-1.97 8.7 8.7 0 0 1 1.56.01c4.32.42 7.69 4.02 7.75 8.44zm13.43-9.16c-.04.22-.08.43-.14.65-.04.22-.1.43-.17.64v.01c-.05.17-.11.34-.17.51l-.21.54c-.22.52-.47 1.01-.76 1.49-.47.79-1.04 1.51-1.7 2.17s-1.38 1.23-2.17 1.7c-.48.29-.97.54-1.49.76-.39.16-.79.3-1.19.42q-.285.09-.57.15c-.19.05-.38.09-.58.12v-1.93c0-4.46 3.4-8.12 7.75-8.54a8.728 8.728 0 0 1 1.56-.01c-.03.45-.08.89-.16 1.32" fill="#FAE052"/><path d="M17.86 29.69v1.6c.69.14 1.41.21 2.14.21s1.45-.07 2.14-.21v-1.6a10.1 10.1 0 0 1-4.28 0M8.96 16.77c-.3 1.02-.46 2.11-.46 3.23l.05.81a8.7 8.7 0 0 1 1.56.01c-.02-.27-.03-.54-.03-.82 0-1.32.26-2.58.73-3.73-.7.17-1.32.34-1.85.5M31.03 16.76c-.53-.15-1.15-.32-1.84-.49.47 1.15.73 2.41.73 3.73 0 .28-.01.55-.03.82a8.728 8.728 0 0 1 1.56-.01l.05-.81c0-1.13-.16-2.21-.47-3.24" fill="#FA9319"/><circle cx="20" cy="20.44" r="3.13" fill="#000D6E"/></g></svg>