<?xml version="1.0" encoding="UTF-8"?><svg xmlns="http://www.w3.org/2000/svg" viewBox="0 0 40 40" focusable="false" aria-hidden="true"><g id="uuid-d0d5de80-ebcc-4443-90ca-2d5d2263718f"><rect width="40" height="40" fill="none"/></g><g id="uuid-3b96fb3a-9fdf-4398-9e57-d06bb21bd689"><path d="M24.91,31H15.09c-.6,0-1.09,.45-1.09,1s.47,.98,1.06,.99c.01,0,.02,0,.03,0h9.82c.6,0,1.09-.45,1.09-1s-.49-1-1.09-1Z" fill="#000d6e"/><path d="M24.91,28H15.09c-.6,0-1.09,.45-1.09,1s.49,1,1.09,1h9.82c.6,0,1.09-.45,1.09-1s-.49-1-1.09-1Z" fill="#000d6e"/><path d="M24.91,25H15.09c-.6,0-1.09,.45-1.09,1,0,.45,.34,.82,.79,.94,.1,.03,.19,.06,.3,.06h9.82c.6,0,1.09-.45,1.09-1s-.49-1-1.09-1Z" fill="#000d6e"/><path d="M21.26,22.03c2.57,0,4.66-2.09,4.66-4.66-2.57,0-4.66,2.09-4.66,4.66Z" fill="#1b5951"/><g><path d="M11.76,13.57c0,3.94,3.19,7.13,7.13,7.13,0-3.94-3.19-7.13-7.13-7.13Z" fill="#94e3d4"/><path d="M19.59,13.99h0v10.03h1V13.94c3.46-.49,6.13-3.45,6.13-7.05-3.93,0-7.11,3.17-7.12,7.1Z" fill="#1b5951"/></g></g></svg>