<svg version="1.1" xmlns="http://www.w3.org/2000/svg" x="0px" y="0px" viewBox="0 0 40 40" xml:space="preserve" focusable="false" aria-hidden="true" enable-background="new 0 0 40 40"><path fill="none" d="M0 0h40v40H0z"/><g><path d="M36.028 9.553c0-.306-.185-.553-.414-.553h-.171c-.229 0-.414.247-.414.553V11h1zM34.028 9.553c0-.306-.186-.553-.415-.553h-.171c-.229 0-.414.247-.414.553V11h1z" fill="#D9304C"/><path d="M28.058 35h-3a1 1 0 0 1-1-1v-3h5v3a1 1 0 0 1-1 1M9.058 35h-3a1 1 0 0 1-1-1v-3h5v3a1 1 0 0 1-1 1" fill="#000D6E"/><path d="M30.558 19h-2a.5.5 0 0 1-.5-.5v-1a.5.5 0 0 1 .5-.5h2a.5.5 0 0 1 .5.5v1a.5.5 0 0 1-.5.5M5.558 19h-2a.5.5 0 0 1-.5-.5v-1a.5.5 0 0 1 .5-.5h2a.5.5 0 0 1 .5.5v1a.5.5 0 0 1-.5.5M28.75 23l-1.019-3H6.385l-1.019 3a4 4 0 0 0-.308 1.538V30h24v-5.462c0-.528-.105-1.051-.308-1.538M8.558 27a1.5 1.5 0 1 1 .001-3.001A1.5 1.5 0 0 1 8.558 27m17 0a1.5 1.5 0 1 1 .001-3.001A1.5 1.5 0 0 1 25.558 27" fill="#D9304C"/><path d="M24.827 12.846A3 3 0 0 0 22.058 11h-10a3 3 0 0 0-2.769 1.846L6.724 19h20.667zM32.028 11.003v2.784c0 1.15.879 2.084 2 2.194h.002v6.026h-5.616l.336.993.002.008h6.277v-7.026a2.207 2.207 0 0 0 1.998-2.194v-2.784h-4.999z" fill="#FFACA6"/><circle cx="34.5" cy="13.5" r="1" fill="#000D6E"/></g></svg>