<?xml version="1.0" encoding="UTF-8"?><svg xmlns="http://www.w3.org/2000/svg" viewBox="0 0 40 40" focusable="false" aria-hidden="true"><g id="uuid-c2c97dc1-fbe0-46f7-a8a5-f29edcf54302"><rect width="40" height="40" fill="none"/></g><g id="uuid-d78507e1-e73a-4dfa-8a9d-2caf0f89437a"><g><g><polygon points="25.71 16.44 25.71 16.44 25.71 16.43 25.71 16.44" fill="none"/><path d="M33.63,16.39s0,0,0,0c0-.01,0-.03,0-.04h0s0,.03,0,.04c0,0,0,0,0,0Z" fill="none"/><path d="M25.95,15.92s0-.01,.01-.01c0,0,0,0-.01,.01Z" fill="none"/><path d="M33.51,16.08s0-.02-.01-.02c0,0,0,0,0,0s0,0,0,0c0,0,0,.02,.01,.02h0Z" fill="none"/><path d="M27.84,12.98c-.11,0-.21,.01-.31,.03h0c.1-.02,.2-.03,.31-.03,0,0,0,0,0,0Z" fill="none"/><path d="M28.21,13.01c-.12-.02-.24-.03-.35-.02h0c.11,0,.23,0,.35,.02h0Z" fill="none"/><path d="M27.43,13.03c-.07,.01-.14,.03-.21,.05h0c.07-.02,.14-.04,.21-.05,0,0,0,0,0,0Z" fill="none"/><path d="M33.32,15.85s0,0,.01,0c0,0,0,0-.01,0Z" fill="none"/><path d="M27.13,13.11c-.09,.03-.17,.06-.25,.09h0c.08-.03,.17-.06,.25-.09,0,0,0,0,0,0Z" fill="none"/><path d="M26.14,15.77s.02,0,.03-.01c-.01,0-.02,0-.03,.01Z" fill="none"/><path d="M28.6,13.09c-.05-.02-.11-.03-.16-.04,.05,.01,.11,.02,.16,.04,0,0,0,0,0,0Z" fill="none"/><polygon points="33.12 15.73 33.12 15.73 33.12 15.73 33.12 15.73 33.12 15.73" fill="none"/></g><g><path d="M27.94,21.43s0,.03,0,.05l.03-.5c-.02,.25-.03,.47-.03,.44Z" fill="none"/><path d="M27.54,21.65c-.14,.07-.28,.14-.35,.17,.06-.03,.2-.1,.35-.17Z" fill="none"/><path d="M26.32,17.68s0,0,0,0c.22,1,.72,1.84,1.38,2.42-.66-.58-1.16-1.42-1.38-2.42Z" fill="none"/><path d="M32.02,19.73c.47-.55,.83-1.24,1-2.04,.01,0,.02,0,.03-.01,0,0-.02,0-.03,0-.17,.81-.53,1.51-1,2.06Z" fill="none"/><path d="M31.91,21.71c-.13-.06-.29-.14-.41-.2,.11,.06,.27,.14,.41,.2Z" fill="none"/><path d="M27.9,21.46s-.13,.07-.22,.11c.09-.05,.17-.09,.22-.11Z" fill="none"/><path d="M31.37,21.51s0-.05,0-.08c0,.06-.02-.32-.05-.63l.05,.72Z" fill="none"/><path d="M31.3,20.38c.26-.18,.5-.41,.72-.66,.47-.55,.83-1.25,1-2.06,0,0,.02,0,.03,0,.35-.05,.62-.46,.62-.97,0-.11-.02-.21-.04-.31,0-.02,0-.03,0-.05-.03-.09-.06-.18-.11-.27,0,0-.01-.02-.02-.02-.05-.08-.1-.15-.16-.2,0,0,0,0-.01-.01-.06-.05-.13-.09-.19-.11h0s-.09-.03-.15-.03v-.48c-.07-.03-.27-.13-.55-.26-.6-.3-1.58-.78-2.47-1.23-.29-.15-.57-.29-.82-.42-.19-.1-.36-.16-.53-.21-.06-.02-.11-.03-.16-.04-.08-.02-.16-.04-.23-.05-.12-.02-.24-.03-.35-.03,0,0-.01,0-.02,0-.11,0-.21,.01-.31,.03-.03,0-.06,.02-.1,.02-.07,.02-.14,.03-.21,.05-.03,0-.06,.02-.09,.02-.09,.03-.17,.06-.26,.09-.19,.08-.35,.16-.49,.22-.02,.1-.03,.37-.03,.4,0,.28,.01,1.19,.02,1.88h0c-.06,0-.12,.01-.18,.04,0,0-.02,0-.02,0-.01,0-.02,.01-.03,.02-.06,.03-.12,.08-.18,.14,0,0,0,.01-.01,.02-.11,.13-.2,.31-.24,.51h0c-.02,.09-.03,.18-.03,.27,0,.52,.28,.94,.63,.98,0,0,0,0,0,0,0,0,0,0,0,0,.21,1,.71,1.84,1.38,2.42,.11,.09,.21,.2,.32,.27,0,0-.02,.32-.04,.61l-.03,.5c-.06,1.44,.05,2.94,.09,3.38,.4,.46,.99,.75,1.66,.75,.64,0,1.19-.27,1.59-.69,.03-.34,.15-1.91,.09-3.41l-.05-.72c-.02-.22-.03-.41-.03-.41Z" fill="#b8b2ff"/><path d="M31.22,25.56c.02-.19,.04-.38,.05-.56,0,0,0-.03,0-.07-.4,.41-.96,.69-1.59,.69-.67,0-1.26-.3-1.66-.75,0,.08,.01,.14,.01,.14,.01,.18,.03,.37,.05,.56,.26,2.52,.52,3.13,.52,3.13h2.04c.14-.44,.39-1.4,.57-3.13Z" fill="#000d6e"/><path d="M28.04,25s0-.06-.01-.14c-.04-.44-.15-1.94-.09-3.38,0-.02,0-.03,0-.05,0,0-.02,.02-.04,.03-.05,.03-.13,.07-.22,.11-.05,.02-.09,.05-.14,.07-.14,.07-.28,.14-.35,.17-.02,0-.03,.02-.03,.02l-4.33,2.19c-.62,.31-1.04,.91-1.13,1.6l-.38,3.07h7.3s-.26-.6-.52-3.13c-.02-.19-.04-.38-.05-.56Z" fill="#6c2273"/><path d="M38,29l-.38-3.38c-.09-.69-.51-1.29-1.13-1.6l-4.33-2.19s-.05-.02-.12-.06c-.04-.02-.08-.04-.12-.06-.13-.06-.29-.14-.41-.2-.07-.04-.13-.07-.14-.08,0,.03,0,.05,0,.08,.06,1.5-.06,3.07-.09,3.41,0,.04,0,.07,0,.07-.01,.18-.03,.37-.05,.56-.18,1.73-.43,2.68-.57,3.13-.07,.2-.11,.31-.11,.31h7.46Z" fill="#6c2273"/><path d="M27.54,21.65s.1-.05,.14-.07c.09-.05,.17-.09,.22-.11,.02-.01,.04-.02,.04-.03,0,.03,.01-.2,.03-.44,.02-.29,.04-.61,.04-.61-.11-.08-.22-.18-.32-.27-.66-.58-1.17-1.42-1.38-2.42,0,0,0,0,0,0-.35-.04-.63-.46-.63-.98,0-.09,.01-.17,.03-.26h0c.04-.21,.13-.4,.24-.52,0,0,.01-.01,.01-.02,.06-.06,.11-.1,.18-.14,.01,0,.02-.01,.03-.02,0,0,.02,0,.02,0,.06-.03,.12-.04,.18-.04h0c0-.69-.01-1.6-.02-1.88,0-.03,0-.3,.03-.4,.14-.06,.3-.15,.49-.22,.08-.03,.17-.06,.26-.09,.03,0,.06-.02,.09-.02,.07-.02,.14-.04,.21-.05,.04,0,.07-.02,.1-.02,.1-.02,.2-.03,.31-.03,0,0,.01,0,.02,0,.11,0,.23,.01,.35,.03,.08,.01,.16,.03,.23,.05,.05,.02,.1,.02,.16,.04,.17,.05,.34,.11,.53,.21,.26,.14,.54,.28,.82,.42,.89,.45,1.87,.93,2.47,1.23,.28,.13,.47,.23,.55,.26v.48c.05,0,.1,0,.15,.02h0c.07,.03,.13,.07,.19,.11,0,0,0,.01,.01,.01,.06,.06,.11,.13,.16,.2,0,0,.01,.02,.02,.02,.05,.08,.08,.17,.11,.27,0,.02,0,.03,0,.05,.03,.09,.04,.2,.04,.31,0,.51-.27,.92-.62,.97,0,0-.02,0-.03,.01-.17,.8-.53,1.5-1,2.04-.22,.25-.45,.48-.72,.66,0,0,.01,.19,.03,.41,.02,.32,.05,.69,.05,.63,0,.01,.06,.04,.14,.08,.11,.06,.27,.14,.41,.2,.04,.02,.09,.04,.12,.06,.07,.03,.12,.06,.12,.06l1.41,.71h0s1.3,.66,1.3,.66l.38,.19c.69-.46,1.02-1,.72-1.48-.5-.81-.7-2.48-1.01-4.13-.26-2-.91-3.84-1.15-4.76-.37-1.4-1.46-2.97-4.12-3.06-1.97,0-3.59,1.23-3.92,2.59-.48,1.32-1.7,5.4,.17,8.67,.19,.34,.43,.63,.7,.88l.51-.26s.01,0,.03-.02c.06-.03,.2-.1,.35-.17Z" fill="#000d6e"/></g><path d="M13.52,15.8s-.01,0-.02,0c0-.32,0-.64,0-.95,0-.67,.05-1.33-.3-1.93-.02-.03-.04-.06-.05-.09-.02-.03-.04-.06-.06-.08-.56-.86-1.67-1.55-2.99-1.56-.89,0-1.78,.34-2.45,.93-.34,.3-.62,.68-.78,1.11-.15,.39-.15,.77-.15,1.18,0,.47,0,.93,0,1.4-.38,.02-.68,.45-.68,.97s.32,.98,.71,.98c.03,0,.06,0,.09-.01,.24,1.13,.85,2.08,1.66,2.62l-.27,4.03s.68,.7,1.87,.7,1.91-.7,1.87-.7l-.27-4.01c.82-.55,1.43-1.5,1.68-2.64,.04,.01,.09,.02,.14,.02,.39,0,.71-.44,.71-.98s-.32-.98-.71-.98Z" fill="#b8b2ff"/><path d="M17.35,24.73c-.37-1.09-1.26-1.93-2.37-2.24-.32-.09-.82-.2-1.37-.32-.11-.03-.24-.06-.37-.09-.04-.01-.09-.02-.13-.03-.09-.02-.18-.04-.27-.06-.06-.01-.11-.03-.17-.04-.09-.02-.18-.04-.27-.06-.05-.01-.1-.02-.15-.03,0,0-.46-.1-.46-.1l-1.67,1.7-1.71-1.7s-.43,.09-.43,.1c-.08,.02-.15,.03-.23,.05-.07,.02-.14,.03-.21,.05-.07,.01-.13,.03-.19,.04-.09,.02-.17,.04-.25,.06-.05,.01-.1,.02-.15,.03-.13,.03-.25,.06-.37,.09-.55,.12-1.05,.23-1.37,.32-1.11,.31-2,1.15-2.37,2.24l-.85,4.26H18.21l-.87-4.26Z" fill="#6c2273"/><path d="M13.72,13.18c-.07-.74-1.45-2.56-3.59-2.56s-3.59,1.61-3.59,3.08v2.31c0,.14,.11,.26,.26,.26s.26-.11,.26-.26v-.84c0-.4,.05-.69,.11-.93,.56,.26,1.52,.34,2.59,.16,.76-.13,1.43-.36,1.92-.64,.51,.63,1.11,1.08,1.5,1.25,.01,.02,.02,.03,.03,.05,0,.04,0,.07,0,.11v.84c0,.14,.11,.26,.26,.26s.26-.11,.26-.26v-1.11c.02-.66,.03-1.37,0-1.71Z" fill="#000d6e"/><path d="M22.99,22.5h.01s-.19-.19-.19-.19c-.37-.36-.58-1.42-.66-2.29,.79-.68,1.39-1.72,1.64-2.96,.04,0,.08,.02,.12,.02,.45,0,.82-.53,.82-1.18,0-.54-.26-.99-.6-1.13,.05-.17,.1-.35,.12-.53,.04-.11,.06-.26,.07-.45,.03-.41,.02-.94-.03-1.33-.02-.13-.04-.24-.05-.34-.21-.92-1.74-3.27-4.3-3.27s-4.25,2.01-4.28,3.86h0c-.06,.49-.07,1.3,.19,2.08-.34,.15-.59,.59-.59,1.12,0,.65,.37,1.18,.82,1.18,.05,0,.1,0,.15-.02,.25,1.22,.84,2.26,1.62,2.94-.08,.87-.29,1.94-.67,2.31l-.19,.19h0c-1.21,.56-2,1.44-2,2.44,0,1.68,2.24,3.05,5,3.05s5-1.37,5-3.05c0-1-.79-1.88-2.01-2.44Zm.45-8.57s0,0,0,0c0,0,0,0,0,0,0,0,0,0,0,0Z" fill="#b8b2ff"/><path d="M30.18,26.58c-.54-1.56-1.81-2.77-3.4-3.22-.71-.2-1.9-.47-3.08-.73h0s-1.35-1.38-1.35-1.38l-1.96,1.21-.35,1.8s-.02,0-.04,0c-.01,0-.02,0-.03,0l-.35-1.8-1.96-1.21-1.35,1.38c-1.18,.26-2.37,.53-3.08,.73-1.59,.45-2.86,1.65-3.4,3.22l-1.17,4.42H31.34l-1.17-4.42Z" fill="#000d6e"/><path d="M22.56,9.79c-.15-.19-.46-.42-.86-.62-.23-.16-.59-.28-1.03-.35-.17-.03-.34-.05-.51-.05,0,0,0,0-.01,0-.34-.01-.71,0-1.09,.06-.88,.14-1.62,.44-2.08,.78-.37-.08-.8-.26-1.06-.66-.19,.58-.11,1.14,.25,1.37-.46,.32-.98,.09-1.29-.18,0,0,.09,.96,.65,1.72-.11,.66-.22,2.27,.64,3.45l.42-2.65c.22,.07,.48,.12,.76,.12,1.89,0,3.29-1.02,4.33-2.18,.37,.86,1.18,1.81,1.99,2.38,.11,.08,.36,1.94,.36,1.94,1.35-1.81,.33-5.34-1.47-5.13Z" fill="#000d6e"/><polygon points="20.39 22.47 21.35 24.23 23.7 22.63 22.35 21.26 20.39 22.47" fill="#6c2273"/><polygon points="19.62 22.47 18.65 24.23 16.3 22.63 17.66 21.26 19.62 22.47" fill="#6c2273"/></g></g></svg>