<svg xmlns="http://www.w3.org/2000/svg" viewBox="0 0 40 40" focusable="false" aria-hidden="true"><path fill="none" d="M0 0h40v40H0z"/><g data-name="Icon Green"><path d="M30.457 26.029h-22a3.5 3.5 0 0 0 0 7h22a3.5 3.5 0 0 0 0-7" fill="#1b5951"/><path d="M14.045 19.987a3 3 0 1 0-3-3 3 3 0 0 0 3 3m0-4.005a1 1 0 1 1-1 1 1 1 0 0 1 1-1M23.02 11.982a3 3 0 1 0-3-3 3 3 0 0 0 3 3m0-3.982a1 1 0 1 1-1 1 1 1 0 0 1 1-1" fill="#94e3d4"/><path d="m18.025 16.787 4.45-3.86A3.976 3.976 0 0 1 19.05 9.28l-4.35 3.774a3.98 3.98 0 0 1 3.325 3.734" fill="#94e3d4"/><circle cx="14.0447" cy="16.9822" r="1" fill="#1b5951"/><circle cx="23.0195" cy="9" r="1" fill="#1b5951"/><path d="M17.97 19.987h-1.304a3.934 3.934 0 0 1-5.242 0H9.999l-2.014 4.997h12Z" fill="#94e3d4"/><path d="M34.097 14.371a4.49 4.49 0 0 0-3.987-1.241l-3.212-3.212a3.99 3.99 0 0 1-2.756 2.885l2.759 2.76a4.481 4.481 0 0 0 5.643 6.18l-2.715-3.868 1.408-1.408 3.868 2.714a4.5 4.5 0 0 0-1.008-4.81" fill="#000d6e"/></g></svg>