<svg xmlns="http://www.w3.org/2000/svg" viewBox="0 0 40 40" focusable="false" aria-hidden="true"><path fill="none" d="M0 0h40v40H0z"/><g><path d="M20 12.52a6.78 6.78 0 0 1-6.78-6.78A6.78 6.78 0 0 1 20 12.52" fill="#94e3d4"/><path d="M30.74 4.03c-5.38 0-9.74 4.36-9.74 9.74v8.25h1v-8.29c4.98-.43 8.74-4.6 8.74-9.7" fill="#000d6e"/><path d="M6.94 21.02H5.03v7.99h1.91c.6 0 1.08-.48 1.08-1.08v-5.82c0-.6-.48-1.08-1.08-1.08Z" fill="#94e3d4"/><path d="M32 25.03c.9 0 1.76.18 2.56.49.32-.34.48-.81.39-1.29a1.49 1.49 0 0 0-1.47-1.22l-.3.03-7.19 1.72V25c0 1.29-1.18 2-2 2h-8.98c-.28 0-.5-.22-.5-.5s.22-.5.5-.5h8.98c.28 0 1-.3 1-1v-1.07a.94.94 0 0 0-.43-.72c-.02-.02-.05-.03-.07-.05h-.02c-.02-.01-.05-.03-.07-.04-.01 0-.02-.01-.04-.02-.01 0-.02-.01-.04-.01 0 0-.02 0-.03-.01h-.09c-.02 0-.04-.01-.07-.02-.05 0-.09-.01-.12-.01h-5.02c-.52-.01-1.01-.34-1.57-.72l-.09-.06s-.02-.01-.02-.02a.6.6 0 0 1-.08-.06s-.01 0-.02-.01c-.07-.05-.14-.09-.21-.14h-.01l-.1-.07-.24-.15c-.37-.22-.77-.42-1.24-.56-.56-.13-1.13-.2-1.69-.2h-3.68c-.55 0-1 .45-1 1v5.98s0 .64 1 1 6.47 2.61 6.6 2.67a4.5 4.5 0 0 0 3.2.07l5.7-2.34a7 7 0 0 1 6.48-4.37Z" fill="#1b5951"/><path d="M32 26c-3.31 0-6 2.69-6 6s2.69 6 6 6 6-2.69 6-6-2.69-6-6-6m2.12 6.9L32 34.5l-2.12-1.6c-1.45-1.2-.87-2.72 0-3.21 1.12-.62 2.04.43 2.12.52.08-.09 1-1.14 2.12-.52.86.49 1.45 2.01 0 3.21" fill="#000d6e"/></g></svg>