<?xml version="1.0" encoding="UTF-8"?><svg xmlns="http://www.w3.org/2000/svg" viewBox="0 0 40 40" focusable="false" aria-hidden="true"><g id="uuid-d8a7f1a7-7250-4591-9218-dbe750fe6166"><rect width="40" height="40" fill="none"/></g><g id="uuid-185c3628-d72a-4bec-ab36-a7514e398b85"><path d="M20,12.52c-3.74,0-6.78-3.03-6.78-6.78,3.74,0,6.78,3.03,6.78,6.78Z" fill="#fae052"/><path d="M30.74,4.03c-5.38,0-9.74,4.36-9.74,9.74v8.25h1V13.73c4.98-.43,8.74-4.6,8.74-9.7Z" fill="#000d6e"/><path d="M6.94,21.02h-1.91v7.99h1.91c.6,0,1.08-.48,1.08-1.08v-5.82c0-.6-.48-1.08-1.08-1.08Z" fill="#fae052"/><path d="M32,25.03c.9,0,1.76,.18,2.56,.49,.32-.34,.48-.81,.39-1.29-.13-.71-.75-1.22-1.47-1.22l-.3,.03-7.19,1.72v.24c0,1.29-1.18,2-2,2H15.01c-.28,0-.5-.22-.5-.5s.22-.5,.5-.5h8.98c.28,0,1-.3,1-1h0s0,0,0,0c0,0,0-.02,0-.03v-.97h0s0-.04,0-.06c0,0,0,0,0-.01-.02-.33-.21-.57-.43-.72,0,0,0,0,0,0-.02-.02-.05-.03-.07-.05,0,0-.01,0-.02,0-.02-.01-.05-.03-.07-.04,0,0,0,0,0,0-.01,0-.02-.01-.04-.02-.01,0-.02-.01-.04-.01,0,0,0,0,0,0,0,0-.02,0-.03-.01,0,0,0,0-.01,0,0,0-.02,0-.03,0,0,0,0,0-.01,0,0,0-.02,0-.03,0,0,0,0,0-.01,0,0,0,0,0,0,0-.02,0-.04-.01-.07-.02,0,0,0,0,0,0-.05,0-.09-.01-.12-.01h-5.02s0,0,0,0c-.52-.01-1.01-.34-1.57-.72-.03-.02-.06-.04-.09-.06,0,0-.02-.01-.02-.02-.03-.02-.06-.04-.08-.06,0,0-.01,0-.02-.01-.07-.05-.14-.09-.21-.14,0,0,0,0-.01,0-.03-.02-.07-.05-.1-.07h0c-.08-.05-.16-.1-.24-.15,0,0,0,0,0,0-.37-.22-.77-.42-1.24-.56-.56-.13-1.13-.2-1.69-.2h-3.68c-.55,0-1,.45-1,1v3.99h0s0,.07,0,.11v1.88s0,.64,1,1c1,.36,6.47,2.61,6.6,2.67,.54,.22,1.12,.33,1.69,.33,.51,0,1.02-.09,1.51-.26,0,0,2.68-1.1,5.7-2.34,1.04-2.56,3.55-4.37,6.48-4.37Z" fill="#fa9319"/><path d="M32,26c-3.31,0-6,2.69-6,6s2.69,6,6,6,6-2.69,6-6-2.69-6-6-6Zm2.12,6.9l-2.12,1.6h0s0,0,0,0h0s0,0,0,0l-2.12-1.6c-1.45-1.2-.87-2.72,0-3.21,1.12-.62,2.04,.43,2.12,.52,.08-.09,1-1.14,2.12-.52,.86,.49,1.45,2.01,0,3.21Z" fill="#000d6e"/></g></svg>