<svg xmlns="http://www.w3.org/2000/svg" viewBox="0 0 40 40" focusable="false" aria-hidden="true"><path fill="none" d="M0 0h40v40H0z"/><g><path d="M12 25.5H6c-.827 0-1.5.673-1.5 1.5v4c0 .827.673 1.5 1.5 1.5h6c.827 0 1.5-.673 1.5-1.5v-4c0-.827-.673-1.5-1.5-1.5" fill="#fa9319"/><path d="M23.709 14.935c.713 0 1.291-.578 1.291-1.291V8.226c0-.713-.578-1.29-1.291-1.29H16.29c-.713 0-1.291.577-1.291 1.29v5.418c0 .713.578 1.291 1.291 1.291z" fill="#fae052"/><path d="M34 25.5h-6c-.827 0-1.5.673-1.5 1.5v4c0 .827.673 1.5 1.5 1.5h6c.827 0 1.5-.673 1.5-1.5v-4c0-.827-.673-1.5-1.5-1.5" fill="#fa9319"/><path d="M19.403 9.925v-.001c.002-.251.16-.405.48-.405.283 0 .498.16.59.499l.83-.314-.001-.003c-.118-.447-.486-.772-1.001-.876v-.572h-.738v.566c-.67.11-1.032.546-1.032 1.117v.001c0 1.45 1.938 1.108 1.942 1.928v.003c0 .252-.184.412-.523.412-.38 0-.657-.234-.762-.597l-.822.307h-.002c.166.554.609.917 1.199 1.003v.56h.732v-.572c.67-.136 1.07-.578 1.07-1.174v-.002c-.002-1.517-1.962-1.118-1.962-1.88M20.494 19.984l-.013-5.049h-1l.013 5.05H8.5V25.5h1v-4.516h9.996l.004 1.568V25.5h1v-4.516h10V25.5h1v-5.516z" fill="#000d6e"/><path d="M17 25.5c-.827 0-1.5.673-1.5 1.5v4c0 .827.673 1.5 1.5 1.5h6c.827 0 1.5-.673 1.5-1.5v-4c0-.827-.673-1.5-1.5-1.5z" fill="#fa9319"/></g></svg>