<svg xmlns="http://www.w3.org/2000/svg" viewBox="0 0 40 40" focusable="false" aria-hidden="true"><path fill="none" d="M0 0h40v40H0z"/><g data-name="Icon Tangerine"><path d="m35.616 29.693-6.567-11.418L22.542 6.96a2.942 2.942 0 0 0-5.084 0l-6.507 11.315-6.566 11.418a2.83 2.83 0 0 0 .003 2.852A2.94 2.94 0 0 0 6.926 34h26.148a2.94 2.94 0 0 0 2.538-1.454 2.83 2.83 0 0 0 .003-2.853m-1.735 1.85a.92.92 0 0 1-.807.457H6.926a.92.92 0 0 1-.807-.456.84.84 0 0 1 0-.854l6.566-11.418 6.507-11.315a.943.943 0 0 1 1.616 0l6.507 11.315 6.567 11.418a.84.84 0 0 1-.001.854" fill="#fa9319"/><path d="M27.315 19.272 20.808 7.957a.943.943 0 0 0-1.616 0l-6.507 11.315L6.118 30.69a.84.84 0 0 0 .001.854.92.92 0 0 0 .807.456h26.148a.92.92 0 0 0 .807-.456.84.84 0 0 0 0-.854ZM19.99 30.278a1.832 1.832 0 0 1 0-3.663 1.831 1.831 0 1 1 0 3.663m1.272-5.527h-2.566l-.548-10.725h3.706Z" fill="#fae052"/><path fill="#000d6e" d="M18.695 24.751h2.566l.592-10.725h-3.706zM19.989 26.615a1.831 1.831 0 1 0 1.842 1.864 1.804 1.804 0 0 0-1.842-1.864"/></g></svg>