<svg xmlns="http://www.w3.org/2000/svg" viewBox="0 0 40 40" focusable="false" aria-hidden="true"><g id="Solid"><rect width="40" height="40" fill="none"/></g><g id="Icon_Red" data-name="Icon Red"><path d="M20,8A12,12,0,1,0,32,20,12,12,0,0,0,20,8Zm.5786,10.1953-.14,1.4561H17.2642a2.5918,2.5918,0,0,0-.0157.3564,2.9418,2.9418,0,0,0,.0157.3711h3.0664l-.1392,1.44H17.729A2.964,2.964,0,0,0,20.3,23.1514a2.5663,2.5663,0,0,0,2.478-1.378L24.7446,23.09a5.0492,5.0492,0,0,1-4.414,2.2452,5.2388,5.2388,0,0,1-5.126-3.5157H13.8569l.1392-1.44h.93a2.96,2.96,0,0,1-.0156-.3711,2.7248,2.7248,0,0,1,.0156-.3564h-.8213l.14-1.4561h.96A5.2447,5.2447,0,0,1,20.3462,14.68a5.0842,5.0842,0,0,1,4.3984,2.23l-1.9668,1.3164a2.5939,2.5939,0,0,0-2.4936-1.3633,2.9187,2.9187,0,0,0-2.5552,1.332Z" fill="#ffaca6"/><path d="M20.2842,16.8633a2.5939,2.5939,0,0,1,2.4936,1.3633L24.7446,16.91a5.0842,5.0842,0,0,0-4.3984-2.23,5.2447,5.2447,0,0,0-5.1416,3.5156h-.96l-.14,1.4561h.8213a2.7248,2.7248,0,0,0-.0156.3564,2.96,2.96,0,0,0,.0156.3711h-.93l-.1392,1.44h1.3477a5.2388,5.2388,0,0,0,5.126,3.5157,5.0492,5.0492,0,0,0,4.414-2.2452l-1.9668-1.3164a2.5663,2.5663,0,0,1-2.478,1.378,2.964,2.964,0,0,1-2.5708-1.3321h2.4624l.1392-1.44H17.2642a2.9418,2.9418,0,0,1-.0157-.3711,2.5918,2.5918,0,0,1,.0157-.3564H20.439l.14-1.4561h-2.85A2.9187,2.9187,0,0,1,20.2842,16.8633Z" fill="#000d6e"/></g></svg>