<svg xmlns="http://www.w3.org/2000/svg" viewBox="0 0 40 40" focusable="false" aria-hidden="true"><path fill="none" d="M0 0h40v40H0z"/><g data-name="Icon Green"><circle cx="13.125" cy="17.8745" r="1.125" fill="none"/><path d="M30.712 25.135a1.176 1.176 0 0 0 1.177-.818l-.515-.209a.645.645 0 0 1-.67.519.793.793 0 0 1-.003-1.581.65.65 0 0 1 .673.518l.515-.209a1.18 1.18 0 0 0-1.174-.817 1.298 1.298 0 0 0-.004 2.597" fill="none"/><path d="M28.463 27.888a5.99 5.99 0 0 1 2.629-9.592 10 10 0 0 0-.197-.604h.004l-.017-.038a9 9 0 0 0-.411-.928 9 9 0 0 0-.387-.697q-.022-.032-.043-.064a8.8 8.8 0 0 0-1.604-1.883q-.113-.102-.23-.2a8 8 0 0 0-.536-.408q-.133-.09-.268-.175c-.144-.093-.28-.198-.43-.281l-.002.02a8 8 0 0 0-.971-.469c-.033-.013-.07-.019-.104-.032a4.7 4.7 0 0 1-.487 1.38h-8.318a4.7 4.7 0 0 1-.591-2.25c0-.023.006-.044.007-.066A3.99 3.99 0 0 0 13 9.5v3.062c-.12.047-.231.11-.348.162-.05.022-.103.034-.152.058-.056.027-.109.06-.165.089a8 8 0 0 0-.755.435 8 8 0 0 0-.39.264q-.147.11-.29.226a9 9 0 0 0-.416.348q-.08.077-.159.155A9.04 9.04 0 0 0 7.988 18H7.25A1.25 1.25 0 0 0 6 19.25v3.5A1.25 1.25 0 0 0 7.25 24h.738a8.8 8.8 0 0 0 4.512 5.225 7.9 7.9 0 0 0 3.4.775h7.2c.135 0 .266-.015.4-.022a7.9 7.9 0 0 0 2.5-.54 8.3 8.3 0 0 0 2.463-1.55M13.125 19a1.125 1.125 0 1 1 1.125-1.125A1.125 1.125 0 0 1 13.125 19" fill="#1b5951"/><path d="M12.5 32.75a1.25 1.25 0 0 0 2.5 0v-2.804a7.9 7.9 0 0 1-2.5-.721ZM23.5 29.978v2.771a1.25 1.25 0 0 0 2.5 0v-3.312a7.9 7.9 0 0 1-2.5.54M17.091 13.916h8.318a4.9 4.9 0 0 0 .564-1.98c.005-.092.027-.178.027-.27a4.741 4.741 0 0 0-9.424-.75 5 5 0 0 0-.07.685c0 .022-.006.043-.006.065a4.7 4.7 0 0 0 .591 2.25" fill="#94e3d4"/><path d="M37.099 36.029h-8.182a1.003 1.003 0 0 0-.025 1.994c.009 0 .016.006.025.006H37.1a1.005 1.005 0 0 0 0-2M37.099 33.028h-8.182a1.005 1.005 0 0 0 0 2H37.1a1.005 1.005 0 0 0 0-2M37.099 30.027h-8.182a1.005 1.005 0 0 0 0 2H37.1a1.005 1.005 0 0 0 0-2M28.008 23.978a5 5 0 1 0 5-5 5 5 0 0 0-5 5m6.94-1.393h1.664v.465h-1.127v.555h.994v.464h-.994v1.02h-.537Zm-2.632 0h.537v.987h.954v-.987h.536v2.503h-.536V24.05h-.954v1.037h-.537Zm-1.601-.047a1.18 1.18 0 0 1 1.174.817l-.515.21a.65.65 0 0 0-.673-.52.793.793 0 0 0 .003 1.582.645.645 0 0 0 .67-.519l.515.21a1.176 1.176 0 0 1-1.178.817 1.298 1.298 0 0 1 .004-2.597" fill="#000d6e"/></g></svg>