<svg data-name="Calque 1" xmlns="http://www.w3.org/2000/svg" viewBox="0 0 40 40" focusable="false" aria-hidden="true"><path d="M0 0h40v40H0z" fill="none"/><circle cx="13.12" cy="17.88" r="1.12" fill="none"/><path d="M28.46 27.89c-2.16-2.5-1.88-6.29.62-8.45.59-.51 1.27-.9 2.01-1.14-.06-.2-.13-.4-.2-.6l-.02-.04a9.7 9.7 0 0 0-.8-1.63c-.01-.02-.03-.04-.04-.06-.44-.7-.98-1.33-1.6-1.88-.08-.07-.15-.14-.23-.2-.17-.14-.35-.28-.54-.41l-.27-.18c-.14-.09-.28-.2-.43-.28v.02c-.31-.18-.64-.33-.97-.47l-.1-.03c-.09.48-.25.95-.49 1.38h-8.32c-.38-.69-.59-1.46-.59-2.25v-.07a3.98 3.98 0 0 0-3.51-2.1v3.06c-.12.05-.23.11-.35.16-.05.02-.1.03-.15.06-.06.03-.11.06-.16.09-.26.13-.51.28-.76.44-.13.08-.26.17-.39.26-.1.07-.19.15-.29.23-.14.11-.28.23-.42.35-.05.05-.1.1-.16.15A9.06 9.06 0 0 0 7.96 18h-.74c-.69 0-1.25.56-1.25 1.25v3.5c0 .69.56 1.25 1.25 1.25h.74a8.84 8.84 0 0 0 4.51 5.23c1.06.51 2.22.77 3.4.77h7.2c.14 0 .27-.01.4-.02.86-.04 1.7-.22 2.5-.54.91-.37 1.74-.89 2.46-1.55ZM13.12 19c-.62 0-1.12-.5-1.12-1.12s.5-1.12 1.12-1.12 1.12.5 1.12 1.12-.5 1.12-1.12 1.12" fill="#f18a19"/><path d="M12.5 32.75a1.25 1.25 0 0 0 2.5 0v-2.8c-.87-.1-1.71-.34-2.5-.72v3.53Zm11-2.77v2.77a1.25 1.25 0 0 0 2.5 0v-3.31c-.8.32-1.64.5-2.5.54m-6.41-16.06h8.32c.33-.61.52-1.29.56-1.98 0-.09.03-.18.03-.27 0-2.62-2.11-4.75-4.73-4.75-2.34 0-4.33 1.69-4.69 4-.04.23-.06.46-.07.69v.06c0 .79.21 1.56.59 2.25Z" fill="#f1d752"/><path d="M37.1 36.03h-8.18c-.55.05-.96.54-.9 1.09.05.47.41.84.88.9h8.2a1.004 1.004 0 0 0 0-2Zm0-3h-8.18a1.004 1.004 0 0 0 0 2h8.18a1.004 1.004 0 0 0 0-2m0-3h-8.18a1.004 1.004 0 0 0 0 2h8.18a1.004 1.004 0 0 0 0-2M33.04 18.98c-2.76-.02-5.01 2.21-5.03 4.97s2.21 5.01 4.97 5.03 5.01-2.21 5.03-4.97-2.21-5.01-4.97-5.03m.44 4.08-.08.74h-1.61c0 .05-.01.11 0 .17v.19h1.56l-.08.74h-1.25c.29.43.78.69 1.3.68.52.04 1.02-.23 1.26-.69l.99.67c-.5.74-1.35 1.17-2.25 1.13-1.16.03-2.21-.7-2.59-1.8h-.68l.07-.73h.47v-.37h-.42l.07-.74h.49c.39-1.1 1.45-1.81 2.62-1.77.89-.03 1.73.41 2.23 1.14l-1 .66c-.24-.46-.74-.74-1.26-.7-.52-.02-1.01.23-1.3.67h1.45Z" fill="#000d6e"/></svg>