<svg xmlns="http://www.w3.org/2000/svg" viewBox="0 0 40 40" focusable="false" aria-hidden="true"><g id="Solid"><rect width="40" height="40" fill="none"/></g><g id="Icon_Purple" data-name="Icon Purple"><circle cx="13.125" cy="17.8745" r="1.125" fill="none"/><path d="M30.7115,25.1347a1.1759,1.1759,0,0,0,1.1773-.8174l-.5147-.209a.6448.6448,0,0,1-.67.5186.7928.7928,0,0,1-.0034-1.5811.652.652,0,0,1,.6733.5186l.5147-.209a1.1818,1.1818,0,0,0-1.1739-.8174,1.2984,1.2984,0,0,0-.0034,2.5967Z" fill="none"/><path d="M28.463,27.8881a5.99,5.99,0,0,1,2.6288-9.5918c-.0612-.2036-.1232-.407-.1964-.6044h.0033c-.0048-.0129-.0113-.0247-.0162-.0375-.0941-.25-.2-.4922-.314-.7308-.0318-.0665-.0646-.1322-.0979-.1978-.1209-.2384-.2468-.4716-.3867-.6964-.0136-.022-.0292-.0423-.043-.0641a8.8334,8.8334,0,0,0-1.6036-1.883c-.076-.0675-.1514-.1351-.23-.2-.1741-.1435-.352-.28-.5365-.4083-.0876-.0612-.178-.1173-.2679-.175-.1441-.0928-.2806-.1977-.43-.2812l-.0023.02A8.0479,8.0479,0,0,0,26,12.569c-.0335-.0133-.07-.0188-.1039-.0316a4.7033,4.7033,0,0,1-.4871,1.379H17.091a4.6969,4.6969,0,0,1-.591-2.25c0-.0224.006-.043.0066-.0653A3.9847,3.9847,0,0,0,13,9.5v3.0623c-.1192.0471-.2312.1088-.3478.1614-.0494.0223-.1033.0347-.1522.058-.0565.0268-.109.061-.1649.0891-.1307.0659-.2587.1355-.3856.2083s-.2487.1478-.37.2266c-.1319.0852-.262.1719-.389.2644-.0991.0726-.1946.1495-.2906.2264-.1413.1128-.2816.2259-.4159.3478-.0545.05-.1055.1033-.1588.1545A9.04,9.04,0,0,0,7.9883,18H7.25A1.25,1.25,0,0,0,6,19.25v3.5A1.25,1.25,0,0,0,7.25,24h.7383A8.8049,8.8049,0,0,0,12.5,29.225,7.9188,7.9188,0,0,0,15.9,30h7.2c.135,0,.2664-.0148.4-.0216v0a7.8671,7.8671,0,0,0,2.5-.5407v0h0A8.2829,8.2829,0,0,0,28.463,27.8881ZM13.125,19a1.125,1.125,0,1,1,1.125-1.125A1.125,1.125,0,0,1,13.125,19Z" fill="#6c2273"/><path d="M12.5,32.7495a1.25,1.25,0,0,0,2.5,0V29.9464a7.9054,7.9054,0,0,1-2.5-.7214Z" fill="#b8b2ff"/><path d="M23.5,29.9778v2.7717a1.25,1.25,0,0,0,2.5,0V29.4371A7.8671,7.8671,0,0,1,23.5,29.9778Z" fill="#b8b2ff"/><path d="M17.091,13.9164h8.318a4.8787,4.8787,0,0,0,.5639-1.9813c.0052-.0907.0271-.1766.0271-.2687a4.7414,4.7414,0,0,0-9.4244-.75,5.0963,5.0963,0,0,0-.069.6847c-.0006.0223-.0066.0429-.0066.0653A4.6969,4.6969,0,0,0,17.091,13.9164Z" fill="#b8b2ff"/><path d="M37.0989,36.0289H28.9171a1.003,1.003,0,0,0-.0248,1.9945c.0087,0,.016.0055.0248.0055h8.1818a1.0045,1.0045,0,0,0,0-2Z" fill="#000d6e"/><path d="M37.0989,33.0278H28.9171a1.0045,1.0045,0,0,0,0,2h8.1818a1.0045,1.0045,0,0,0,0-2Z" fill="#000d6e"/><path d="M37.0989,30.0266H28.9171a1.0045,1.0045,0,0,0,0,2h8.1818a1.0045,1.0045,0,0,0,0-2Z" fill="#000d6e"/><path d="M28.008,23.9782a5,5,0,1,0,5-5A5,5,0,0,0,28.008,23.9782Zm6.94-1.3933h1.6636V23.05H35.485v.5547h.9936v.4639H35.485v1.02h-.5367Zm-2.6318,0h.5366v.9873h.9541v-.9873h.5366v2.5029h-.5366V24.0507h-.9541v1.0371h-.5366Zm-1.6016-.0469a1.1818,1.1818,0,0,1,1.1739.8174l-.5147.209a.652.652,0,0,0-.6733-.5186.7928.7928,0,0,0,.0034,1.5811.6448.6448,0,0,0,.67-.5186l.5147.209a1.1759,1.1759,0,0,1-1.1773.8174,1.2984,1.2984,0,0,1,.0034-2.5967Z" fill="#000d6e"/></g></svg>