<svg xmlns="http://www.w3.org/2000/svg" viewBox="0 0 40 40" focusable="false" aria-hidden="true"><path fill="none" d="M0 0h40v40H0z"/><g data-name="Icon Purple"><path d="M10 21.566v9.43A1.005 1.005 0 0 0 11.005 32H16V16.269ZM24 15.354V32h4.995A1.005 1.005 0 0 0 30 30.995V10.366Z" fill="#b8b2ff"/><path d="M22.415 16.67a1.5 1.5 0 0 1-1.673.15l-2.905-1.773a.49.49 0 0 0-.524.062l-.313.277V32h6V16.185Z" fill="#6c2273"/><path d="M32.007 8.258a.5.5 0 0 0-.5-.5L30 7.757a.5.5 0 0 0 0 1h.371l-8.588 7.138a.49.49 0 0 1-.538.06l-2.908-1.774a1.5 1.5 0 0 0-1.667.164l-8.5 7.503a.5.5 0 0 0 .662.75l8.482-7.489a.49.49 0 0 1 .524-.062l2.904 1.772a1.5 1.5 0 0 0 1.674-.148l8.592-7.142v.222a.5.5 0 0 0 .5.5.5.5 0 0 0 .5-.5Z" fill="#000d6e"/></g></svg>