<svg xmlns="http://www.w3.org/2000/svg" viewBox="0 0 40 40" focusable="false" aria-hidden="true"><g id="Solid"><rect width="40" height="40" fill="none"/></g><g id="Icon_Purple" data-name="Icon Purple"><path d="M10,21.5657v9.43A1.005,1.005,0,0,0,11.0049,32H16V16.2687Z" fill="#b8b2ff"/><path d="M24,15.3536V32h4.9951A1.005,1.005,0,0,0,30,30.9951V10.3663Z" fill="#b8b2ff"/><path d="M22.4152,16.6709a1.501,1.501,0,0,1-1.6734.1484l-2.9043-1.7724a.4887.4887,0,0,0-.5244.0625L17,15.3858V32h6V16.1848Z" fill="#6c2273"/><path d="M32.0065,8.2578a.5.5,0,0,0-.5-.5l-1.5064-.001h0a.5.5,0,0,0,0,1l.3709,0-8.5877,7.1383a.4942.4942,0,0,1-.5385.06l-2.9078-1.7744a1.5024,1.5024,0,0,0-1.6674.164l-8.5,7.503a.5.5,0,0,0,.6621.75l8.4819-7.4883a.4887.4887,0,0,1,.5244-.0625l2.9043,1.7724a1.501,1.501,0,0,0,1.6734-.1484l8.5921-7.1418,0,.2219a.5.5,0,0,0,.5.5h0a.5.5,0,0,0,.4995-.5Z" fill="#000d6e"/></g></svg>