<?xml version="1.0" encoding="iso-8859-1"?><!--Generator: Adobe Illustrator 26.2.1, SVG Export Plug-In . SVG Version: 6.00 Build 0)--><svg version="1.1" xmlns="http://www.w3.org/2000/svg" xmlns:xlink="http://www.w3.org/1999/xlink" x="0px" y="0px" viewBox="0 0 40 40" xml:space="preserve" focusable="false" aria-hidden="true" enable-background="new 0 0 40 40"><g id="Solid"><rect width="40" height="40" fill="none"/></g><g id="Icon_Red"><g><rect x="21" y="3" width="1" height="9" fill="#D9304C"/></g><path d="M31.754,8H23V3h8.739c0.213,0,0.325,0.24,0.182,0.39l-1.815,1.905
		c-0.083,0.088-0.085,0.22-0.003,0.31l1.836,2.009C32.077,7.765,31.965,8,31.754,8z" fill="#FFACA6"/><g><path d="M34.935,35.976l-0.006-0.012c-0.004,0.004-0.009,0.008-0.013,0.012H34.935z" fill="#6C2273"/><path d="M23,31c0-2.971,1.864-5.509,4.481-6.524l-1.47-2.223l-0.831-5.421L22.013,13h-1.02l-3.351,2.505
			l-0.499,2.489l-2.549,1.272l-3.436,6.583l-1.607,0.332l-1.829,4.702l0.055,2.379L5.043,36l20.05-0.016
			C23.803,34.714,23,32.949,23,31z" fill="#D9304C"/></g><g><g><path d="M30,25c-3.314,0-6,2.686-6,6c0,3.314,2.686,6,6,6c3.314,0,6-2.686,6-6C36,27.686,33.314,25,30,25z
				 M26.917,31.654c0.459,0,0.729-0.252,0.837-0.648l0.644,0.262c-0.171,0.544-0.671,1.021-1.472,1.021
				c-0.914,0-1.607-0.68-1.607-1.62c0-0.945,0.693-1.625,1.612-1.625c0.806,0,1.301,0.495,1.467,1.021l-0.644,0.261
				c-0.108-0.392-0.383-0.648-0.842-0.648c-0.536,0-0.914,0.396-0.914,0.991C25.998,31.258,26.376,31.654,26.917,31.654z
				 M31.466,32.23h-0.67v-1.297h-1.193v1.297h-0.671v-3.129h0.671v1.233h1.193v-1.233h0.67V32.23z M32.891,29.683v0.693h1.242v0.581
				h-1.242v1.273H32.22v-3.129h2.08v0.581H32.891z" fill="#000D6E"/></g></g></g></svg>