<svg xmlns="http://www.w3.org/2000/svg" viewBox="0 0 40 40" focusable="false" aria-hidden="true"><g id="Solid"><rect width="40" height="40" fill="none"/></g><g id="Icon_Red" data-name="Icon Red"><path d="M10.1125,12.6035c.66,0,1.02-.3125,1.02-.8047l-.0007-.0041c-.0017.49-.3608.8014-1.0189.8014a1.5027,1.5027,0,0,1-1.4873-1.164l-1.6069.6.0029.0063,1.604-.5985A1.5027,1.5027,0,0,0,10.1125,12.6035Z" fill="none"/><path d="M9.3567,5.8506V5.8432A2.1626,2.1626,0,0,0,7.342,8.0258l0,.0036A2.1626,2.1626,0,0,1,9.3567,5.8506Z" fill="none"/><path d="M12.7485,7.5718l.0027-.0011a2.4006,2.4006,0,0,0-1.9551-1.7158v.0074A2.4007,2.4007,0,0,1,12.7485,7.5718Z" fill="none"/><path d="M9.0458,8.0062,9.0452,8.01c0,1.4856,3.8224.708,3.8258,3.6662l0-.0037C12.8713,8.7122,9.0529,9.4868,9.0458,8.0062Z" fill="none"/><rect x="9.3567" y="4.7397" width="1.4395" height="0.0074" fill="none"/><path d="M17,10.09A7.11,7.11,0,0,0,10,3a7.11,7.11,0,0,0-7,7.09,7.0006,7.0006,0,0,0,14,0ZM12.8713,11.68a2.3281,2.3281,0,0,1-2.0869,2.291v1.1152H9.3567V13.9941a2.7467,2.7467,0,0,1-2.3384-1.955l.0029-.0011-.0029-.0063,1.6069-.6a1.5027,1.5027,0,0,0,1.4873,1.164c.6581,0,1.0172-.3112,1.0189-.8014-.0072-1.6007-3.7894-.9331-3.7894-3.7615l0-.0038,0-.0036A2.1626,2.1626,0,0,1,9.3567,5.8432V4.74h1.4394V5.8549a2.4006,2.4006,0,0,1,1.9551,1.7158l-.0027.0011.0027.0063L11.1321,8.19a1.1521,1.1521,0,0,0-1.1514-.9717c-.6223,0-.9332.2986-.9349.7884.0071,1.4806,3.8255.706,3.8255,3.6661l0,.0037Z" fill="#ffaca6"/><path d="M9.0452,8.01l.0006-.0036c.0017-.49.3126-.7884.9349-.7884a1.1521,1.1521,0,0,1,1.1514.9717l1.6191-.6114-.0027-.0063a2.4007,2.4007,0,0,0-1.9524-1.7095V4.7471H9.3567V5.8506A2.1626,2.1626,0,0,0,7.3423,8.0294l0,.0038c0,2.8284,3.7822,2.1608,3.7894,3.7615l.0007.0041c0,.4922-.36.8047-1.02.8047A1.5027,1.5027,0,0,1,8.6252,11.44l-1.604.5985-.0029.0011a2.7467,2.7467,0,0,0,2.3384,1.955v1.0918h1.4277V13.9707a2.3281,2.3281,0,0,0,2.0869-2.291l0-.0037C12.8676,8.7178,9.0452,9.4954,9.0452,8.01Z" fill="#d9304c"/><path d="M30.04,10A7,7,0,1,0,37,17.04,7,7,0,0,0,30.04,10Zm.6174,5.7133-.1055,1.0342-2.2549-.0127a1.8951,1.8951,0,0,0-.0127.2529,2.0576,2.0576,0,0,0,.01.2637l2.1782.0127-.105,1.0224-1.749-.01a2.1017,2.1017,0,0,0,1.8208.956,1.822,1.822,0,0,0,1.7661-.9687l1.3916.9433a3.5864,3.5864,0,0,1-3.1445,1.5772,3.7225,3.7225,0,0,1-3.6274-2.5186l-.9571-.0049.105-1.0224.66.0039a2.08,2.08,0,0,1-.01-.2647,2.002,2.002,0,0,1,.0127-.2529l-.583-.0039.1045-1.0332.6826.0039a3.7265,3.7265,0,0,1,3.6665-2.4766,3.6131,3.6131,0,0,1,3.1152,1.6026l-1.4023.9267a1.8461,1.8461,0,0,0-1.7661-.9785,2.0725,2.0725,0,0,0-1.82.9365Z" fill="#ffaca6"/><path d="M30.4534,14.7661a1.8461,1.8461,0,0,1,1.7661.9785l1.4023-.9267a3.6131,3.6131,0,0,0-3.1152-1.6026A3.7265,3.7265,0,0,0,26.84,15.6919l-.6826-.0039-.1045,1.0332.583.0039a2.002,2.002,0,0,0-.0127.2529,2.08,2.08,0,0,0,.01.2647l-.66-.0039-.105,1.0224.9571.0049a3.7225,3.7225,0,0,0,3.6274,2.5186,3.5864,3.5864,0,0,0,3.1445-1.5772l-1.3916-.9433a1.822,1.822,0,0,1-1.7661.9687,2.1017,2.1017,0,0,1-1.8208-.956l1.749.01.105-1.0224-2.1782-.0127a2.0576,2.0576,0,0,1-.01-.2637,1.8951,1.8951,0,0,1,.0127-.2529l2.2549.0127.1055-1.0342-2.0244-.0108A2.0725,2.0725,0,0,1,30.4534,14.7661Z" fill="#000d6e"/><path d="M18.0185,23A7,7,0,1,0,25,30.0185,7,7,0,0,0,18.0185,23Zm1.5674,5.9277-.0024,1.0235-.0471,0L17.57,29.9453v0l-.001.5175,2.0127.0049-.0024,1.0342-.0471,0-1.9661-.0047v0l-.0019.7919,3.0586.0078-.0039,1.4189-.0471,0-4.6395-.0116.0059-2.2119-.7925-.002.0024-1.034v0l.7455.0018.047,0,.0015-.5166L15.15,29.94l.0024-1.0234v0l.7455.0018.047,0,0-.22a2.3968,2.3968,0,0,1,2.5314-2.4117c.0095,0,.0177-.0023.0272-.0023a2.2792,2.2792,0,0,1,2.3506,1.3711l-1.4429.623-.0087-.0165a.86.86,0,0,0-.87-.5694c-.0076,0-.0121.0036-.02.0038a.9175.9175,0,0,0-.94,1.0059l-.0009.2208Z" fill="#d9304c"/><path d="M18.5135,27.6962c.0076,0,.0121-.0038.02-.0038a.86.86,0,0,1,.87.5694l.0087.0165,1.4429-.623a2.2792,2.2792,0,0,0-2.3506-1.3711c-.01,0-.0177.0022-.0272.0023a2.3968,2.3968,0,0,0-2.5314,2.4117l0,.22-.047,0-.7455-.0018v0L15.15,29.94l.792.0019-.0015.5166-.047,0-.7455-.0018v0l-.0024,1.034.7925.002-.0059,2.2119,4.64.0116.0471,0,.0039-1.4189-3.0586-.0078.0019-.7919v0l1.9661.0047.0471,0,.0024-1.0342-2.0127-.0049.001-.5175v0l1.9666.0057.0471,0,.0024-1.0235-2.0131-.0048.0009-.2208A.9175.9175,0,0,1,18.5135,27.6962Z" fill="#ffaca6"/></g></svg>