<svg xmlns="http://www.w3.org/2000/svg" viewBox="0 0 40 40" focusable="false" aria-hidden="true"><path fill="none" d="M0 0h40v40H0z"/><g data-name="Icon Purple"><path d="M27.067 3.229a20.94 20.94 0 0 0-14.134 0L5 6.079v15.815C5 29.52 14.49 36.99 20.002 37 25.51 36.99 35 29.52 35 21.894V6.08ZM23 10h4v15.994A1.006 1.006 0 0 1 26 27h-3Zm-5 5.035c.11-.08 1.968 0 4 0V27h-4ZM13 13h4v14h-3a1.005 1.005 0 0 1-1-1.004Zm15 16H12v-1h16Z" fill="#b8b2ff"/><path d="M14 27h3V13h-4v12.996A1.005 1.005 0 0 0 14 27M22 15.035c-2.032 0-3.89-.08-4 0V27h4ZM27 25.994V10h-4v17h3a1.006 1.006 0 0 0 1-1.006" fill="#6c2273"/><path fill="#000d6e" d="M12 28h16v1H12z"/></g></svg>