<?xml version="1.0" encoding="iso-8859-1"?><!--Generator: Adobe Illustrator 26.2.1, SVG Export Plug-In . SVG Version: 6.00 Build 0)--><svg version="1.1" xmlns="http://www.w3.org/2000/svg" xmlns:xlink="http://www.w3.org/1999/xlink" x="0px" y="0px" viewBox="0 0 40 40" xml:space="preserve" focusable="false" aria-hidden="true" enable-background="new 0 0 40 40"><g id="Solid"><rect width="40" height="40" fill="none"/></g><g id="Icon_Purple"><path d="M28.5,18c1.04,0,2.043,0.157,2.992,0.44C31.819,17.349,32,16.196,32,15c0-6.617-5.383-12-12-12
		S8,8.383,8,15c0,5.984,4.408,10.945,10.144,11.841C18.943,21.839,23.276,18,28.5,18z" fill="#B8B2FF"/><g><path d="M27.471,10.055h-3c-0.276,0-0.5,0.224-0.5,0.5s0.224,0.5,0.5,0.5h1.768l-5.156,4.757l-3.678-3.604
			c-0.188-0.184-0.489-0.189-0.685-0.015l-5.515,4.961c-0.205,0.185-0.222,0.501-0.037,0.706c0.099,0.11,0.235,0.166,0.372,0.166
			c0.119,0,0.239-0.042,0.334-0.128l5.166-4.647l3.683,3.607c0.19,0.186,0.494,0.191,0.689,0.01l5.559-5.129v1.815
			c0,0.276,0.224,0.5,0.5,0.5s0.5-0.224,0.5-0.5v-3C27.971,10.278,27.748,10.055,27.471,10.055z" fill="#000D6E"/></g><g><g><path d="M38,28.5c0,1.77-0.49,3.44-1.33,4.86c-0.41,0.68-0.89,1.3-1.45,1.86c-1.33,1.33-3.07,2.27-5,2.62
				c-0.47,0.09-0.95,0.14-1.44,0.15C28.69,38,28.59,38,28.5,38h-0.23c-0.49-0.01-0.98-0.06-1.45-0.15
				c-1.93-0.34-3.65-1.26-4.99-2.58c-0.55-0.55-1.04-1.16-1.45-1.82C19.51,32.01,19,30.31,19,28.5c0-5.25,4.25-9.5,9.5-9.5
				S38,23.25,38,28.5z" fill="#6C2273"/></g><g><path d="M26.497,28.857c0.09,0,0.169-0.047,0.239-0.112c-0.071,0.064-0.15,0.111-0.241,0.111
				C26.496,28.857,26.496,28.857,26.497,28.857z" fill="none"/><path d="M26.207,29.09c-0.145,0.279-0.334,0.524-0.561,0.72C25.873,29.615,26.062,29.37,26.207,29.09z" fill="none"/><path d="M23.745,31.237c-0.021-0.01-0.041-0.021-0.061-0.032C23.704,31.216,23.724,31.226,23.745,31.237z" fill="none"/><path d="M26.8,27.727c-0.079-0.103-0.182-0.171-0.297-0.174c-0.001-0.087-0.002-0.188-0.002-0.293
				c-0.001,0-0.001,0-0.002,0c0.001,0.105,0.002,0.208,0.004,0.296C26.617,27.556,26.72,27.624,26.8,27.727z" fill="none"/><path d="M24.107,31.352c-0.043-0.007-0.086-0.01-0.127-0.022C24.021,31.342,24.064,31.345,24.107,31.352z" fill="none"/><path d="M26.338,28.811c0.046,0.025,0.095,0.04,0.147,0.043C26.435,28.852,26.381,28.836,26.338,28.811
				C26.338,28.811,26.338,28.811,26.338,28.811z" fill="none"/><path d="M22.161,28.857c-0.096,0-0.179-0.052-0.252-0.123c0.073,0.072,0.155,0.123,0.25,0.123
				c0.061,0,0.119-0.019,0.172-0.05c0.044,0.12,0.098,0.234,0.159,0.344c-0.06-0.11-0.115-0.225-0.159-0.346
				C22.279,28.837,22.22,28.857,22.161,28.857z" fill="none"/><path d="M22.157,26.723c-0.001-0.106-0.001-0.205-0.002-0.28l-0.002,0.003
				c0.001,0.075,0.001,0.173,0.002,0.278c0,0.002,0,0.004,0,0.006c0.002,0.193,0.004,0.416,0.005,0.618
				c-0.001-0.203-0.002-0.427-0.003-0.62C22.157,26.726,22.157,26.724,22.157,26.723z" fill="none"/><path d="M25.397,30.761v-0.074l-0.013-0.196l-0.033-0.464c0.104-0.063,0.202-0.137,0.295-0.217
				c0.227-0.195,0.416-0.441,0.561-0.72c0.047-0.09,0.094-0.181,0.131-0.279c0,0,0,0,0,0c0.043,0.024,0.097,0.04,0.146,0.043
				c0.003,0,0.006,0.003,0.009,0.003c0,0,0.001,0,0.001,0c0.091,0,0.17-0.047,0.241-0.111c0.128-0.116,0.217-0.311,0.217-0.542
				c0-0.189-0.061-0.357-0.153-0.476c-0.08-0.103-0.183-0.171-0.298-0.171c-0.001-0.088-0.002-0.19-0.004-0.296
				c-0.587-0.17-1.802-0.534-2.522-0.912c-0.843-0.443-1.451-0.088-1.811,0.084l-0.01,0.01c0.001,0.075,0.001,0.174,0.002,0.28
				c0,0.001,0,0.003,0,0.004c0.001,0.193,0.003,0.417,0.003,0.62c0,0.071,0,0.14,0,0.202c-0.127,0-0.242,0.074-0.324,0.192
				c-0.083,0.119-0.133,0.282-0.133,0.462c0,0.221,0.082,0.407,0.2,0.526c0.002,0.002,0.004,0.003,0.006,0.005
				c0.073,0.071,0.156,0.123,0.252,0.123c0.059,0,0.118-0.02,0.17-0.052c0.045,0.121,0.099,0.236,0.159,0.346
				c0.004,0.007,0.006,0.015,0.01,0.022c0.007,0.013,0.017,0.024,0.025,0.037c0.194,0.33,0.453,0.604,0.76,0.797l-0.033,0.778
				l-0.001,0.018l0.002,0c0.112,0.166,0.26,0.302,0.431,0.401c0.02,0.011,0.04,0.022,0.061,0.032
				c0.075,0.038,0.152,0.071,0.235,0.094c0.041,0.011,0.085,0.015,0.127,0.022c0.072,0.012,0.143,0.028,0.219,0.028
				c0.452,0,0.836-0.228,1.071-0.575v-0.013V30.761z" fill="#B8B2FF"/><path d="M30.79,26.733c0.128,0.046,0.271,0.076,0.438,0.076c1.032,0,1.797-0.558,2.367-1.19
				c0.203,0.468,0.643,0.986,1.084,1.3c0.063,0.045,0.197,1.058,0.197,1.058c0.074-0.099,0.131-0.209,0.18-0.324
				c0.438-1.031-0.099-2.58-0.982-2.476c-0.17-0.218-0.758-0.56-1.309-0.56c-0.551,0-1.159,0.492-1.501,0.492
				c-0.22,0-0.609-0.075-0.816-0.391c-0.106,0.315-0.06,0.625,0.135,0.747c-0.252,0.176-0.537,0.048-0.704-0.096
				c0,0,0.049,0.553,0.377,0.974c-0.039,0.304-0.05,0.833,0.157,1.311c0.048,0.112,0.106,0.221,0.181,0.323L30.79,26.733z" fill="#000D6E"/><path d="M22.01,31.092l1.242-0.288l0.001,0l0-0.018l0.033-0.778c-0.306-0.193-0.566-0.467-0.76-0.797
				c-0.008-0.013-0.018-0.024-0.025-0.037c-0.004-0.007-0.006-0.015-0.01-0.022c-0.06-0.109-0.114-0.223-0.159-0.344
				c-0.053,0.031-0.111,0.05-0.172,0.05c-0.095,0-0.177-0.052-0.25-0.123c-0.002-0.002-0.004-0.003-0.006-0.005
				c-0.118-0.119-0.2-0.305-0.2-0.526c0-0.18,0.051-0.343,0.133-0.462c0.083-0.118,0.197-0.192,0.324-0.192c0-0.062,0-0.131,0-0.202
				c-0.002-0.202-0.004-0.425-0.005-0.618c0-0.002,0-0.004,0-0.006c-0.001-0.105-0.002-0.203-0.002-0.278l0.002-0.003l0.01-0.01
				c0.36-0.172,0.969-0.527,1.811-0.084c0.72,0.378,1.935,0.742,2.522,0.912c0.001,0,0.001,0,0.002,0
				c0.001,0.105,0.002,0.206,0.003,0.293c0.115,0.002,0.218,0.07,0.297,0.173c0.092,0.119,0.153,0.287,0.153,0.476
				c0,0.231-0.089,0.426-0.217,0.542c-0.071,0.065-0.149,0.112-0.239,0.112c-0.001,0-0.001-0.001-0.002-0.001c0,0-0.001,0-0.001,0
				c-0.003,0-0.006-0.003-0.009-0.003c-0.052-0.003-0.101-0.018-0.147-0.043c-0.037,0.098-0.084,0.188-0.131,0.279
				c-0.145,0.28-0.334,0.525-0.561,0.72c-0.093,0.08-0.191,0.154-0.295,0.217l0.033,0.464l0.013,0.196v0.074v0.03v0.013
				c0,0,0.001-0.001,0.001-0.001l1.244,0.289c0.299,0.08,0.555,0.175,0.776,0.289v-3.682c0-0.096-0.015-0.187-0.021-0.281
				c0,0,0,0,0,0c-0.025-0.372-0.094-0.725-0.209-1.049c-0.012-0.034-0.028-0.066-0.04-0.099c-0.049-0.125-0.097-0.251-0.157-0.366
				c-0.079-0.154-0.167-0.3-0.265-0.434c-0.012-0.022-0.027-0.043-0.041-0.064c-0.016-0.024-0.031-0.048-0.046-0.073
				c-0.423-0.659-1.284-1.199-2.288-1.199c-0.025,0-0.047,0.007-0.072,0.008c-0.343,0.009-0.666,0.083-0.961,0.201
				c-0.384,0.154-0.722,0.377-0.98,0.647c-0.148,0.126-0.284,0.275-0.408,0.437c-0.009,0.012-0.02,0.023-0.029,0.036
				c-0.121,0.163-0.227,0.344-0.319,0.537c-0.006,0.013-0.013,0.025-0.019,0.039c-0.077,0.166-0.135,0.346-0.188,0.53
				c-0.011,0.037-0.028,0.069-0.038,0.107c-0.002,0.007-0.003,0.013-0.005,0.02c-0.029,0.116-0.038,0.242-0.057,0.363
				c-0.019,0.12-0.049,0.236-0.057,0.361c0,0,0,0,0,0c-0.006,0.093-0.014,0.186-0.014,0.281v1.026v2.674
				C21.429,31.277,21.696,31.176,22.01,31.092z" fill="#000D6E"/><path d="M28.27,32.76V38c-0.49-0.01-0.98-0.06-1.45-0.15c-1.93-0.34-3.65-1.26-4.99-2.58
				c-0.55-0.55-1.04-1.16-1.45-1.82v-0.69c0-0.67,0.29-1.08,0.82-1.36c0.18-0.1,0.39-0.18,0.63-0.25c0.06-0.02,0.12-0.04,0.18-0.06
				l1.24-0.29c0.06,0.08,0.13,0.16,0.2,0.23c0,0.01,0,0.01,0.01,0.01c0.06,0.06,0.14,0.12,0.22,0.16c0.09,0.06,0.19,0.1,0.3,0.13
				c0.04,0.01,0.08,0.01,0.13,0.02c0.03,0.01,0.07,0.01,0.11,0.02c0.04,0.01,0.07,0.01,0.11,0.01c0.45,0,0.83-0.23,1.07-0.58
				l1.24,0.29c0.06,0.02,0.12,0.04,0.18,0.05v0.01c0.23,0.06,0.43,0.14,0.6,0.23C27.97,31.67,28.27,32.08,28.27,32.76z" fill="#B8B2FF"/><path d="M26.82,31.14v6.71c-1.93-0.34-3.65-1.26-4.99-2.58v-4.13c0.06-0.01,0.12-0.03,0.18-0.05l1.24-0.29
				c0.06,0.09,0.13,0.16,0.2,0.23c0,0.01,0,0.01,0.01,0.01c0.06,0.06,0.14,0.12,0.22,0.16c0.09,0.06,0.19,0.1,0.3,0.13
				c0.08,0.02,0.16,0.04,0.24,0.04c0.04,0.01,0.07,0.01,0.11,0.01c0.45,0,0.83-0.23,1.07-0.58l1.24,0.29
				C26.7,31.11,26.76,31.13,26.82,31.14z" fill="#6C2273"/><path d="M30.594,28.886c0.06,0,0.118-0.018,0.17-0.049c0.186,0.507,0.523,0.918,0.942,1.183l-0.047,0.674
				l-0.012,0.112l0.003-0.001c0.235,0.348,0.618,0.575,1.071,0.575c0.452,0,0.834-0.226,1.069-0.573l0-0.009l-0.048-0.759
				c0.434-0.263,0.783-0.681,0.974-1.199c0.049,0.027,0.102,0.046,0.158,0.046c0.248,0,0.448-0.288,0.448-0.644
				c0-0.264-0.11-0.489-0.268-0.588c-0.049,0.115-0.106,0.225-0.18,0.324c0,0-0.134-1.013-0.197-1.058
				c-0.441-0.314-0.881-0.833-1.084-1.3c-0.571,0.631-1.335,1.19-2.367,1.19c-0.167,0-0.309-0.03-0.438-0.076l-0.196,1.244
				c-0.075-0.102-0.133-0.211-0.181-0.323c-0.157,0.1-0.267,0.324-0.267,0.587C30.146,28.598,30.347,28.886,30.594,28.886z" fill="#B8B2FF"/><g><path d="M29.6,31.4c0.18-0.1,0.39-0.18,0.62-0.25v6.69c-0.47,0.09-0.95,0.14-1.44,0.15v-5.23
					C28.82,31.89,29.07,31.68,29.6,31.4z" fill="#B8B2FF"/><path d="M36.67,32.76v0.6c-0.41,0.68-0.89,1.3-1.45,1.86v-4.07c0.22,0.07,0.42,0.14,0.59,0.23
					C36.37,31.67,36.66,31.93,36.67,32.76z" fill="#B8B2FF"/></g></g><path d="M38,28.5c0,1.77-0.49,3.44-1.33,4.86c-0.41,0.68-0.89,1.3-1.45,1.86c-1.33,1.33-3.07,2.27-5,2.62
			c-0.47,0.09-0.95,0.14-1.44,0.15C28.69,38,28.59,38,28.5,38h-0.23c-0.49-0.01-0.98-0.06-1.45-0.15c-1.93-0.34-3.65-1.26-4.99-2.58
			c-0.55-0.55-1.04-1.16-1.45-1.82C19.51,32.01,19,30.31,19,28.5c0-5.25,4.25-9.5,9.5-9.5S38,23.25,38,28.5z" fill="none"/></g><path d="M35.22,31.14v4.08c-1.33,1.33-3.07,2.27-5,2.62v-6.7c0.07-0.01,0.13-0.03,0.19-0.05l1.24-0.29
		c0.24,0.35,0.62,0.58,1.07,0.58c0.46,0,0.84-0.23,1.07-0.58l1.25,0.29C35.1,31.11,35.16,31.13,35.22,31.14z" fill="#6C2273"/></g></svg>