<?xml version="1.0" encoding="UTF-8"?><svg xmlns="http://www.w3.org/2000/svg" viewBox="0 0 40 40" focusable="false" aria-hidden="true"><g id="Solid"><rect width="40" height="40" fill="none"/></g><g id="Icon_Purple"><g><g><path d="M33.31796654,35.35020105h3.34430961v1.67544769c0,.55191502-.44808498,1-1,1h-1.34430961c-.55191502,0-1-.44808498-1-1v-1.67544769h0Z" fill="#000d6e"/><path d="M20.60959002,35.35020105h3.34430961v1.67544769c0,.55191502-.44808498,1-1,1h-1.34430961c-.55191502,0-1-.44808498-1-1v-1.67544769h0Z" fill="#000d6e"/><rect x="35.99341423" y="25.98613414" width="2.00658577" height="1.33772384" rx=".5" ry=".5" fill="#6c2273"/><rect x="19.27186617" y="25.98613414" width="2.00658577" height="1.33772384" rx=".5" ry=".5" fill="#6c2273"/><g><path d="M36.45646734,29.99930567l-.68170407-2.00658577h-14.27766037l-.68170407,2.00658577c-.13584586,.32607019-.20580881,.6757512-.20580881,1.02904407v3.65298939h16.05268614v-3.65298939c0-.35329287-.06996296-.70297388-.20580881-1.02904407Zm-13.5058606,2.67544769c-.55408522,0-1.00329288-.44920767-1.00329288-1.00329288s.44920767-1.00329288,1.00329288-1.00329288,1.00329288,.44920767,1.00329288,1.00329288-.44920767,1.00329288-1.00329288,1.00329288Zm11.37065268,0c-.55408522,0-1.00329288-.44920767-1.00329288-1.00329288s.44920767-1.00329288,1.00329288-1.00329288,1.00329288,.44920767,1.00329288,1.00329288-.44920767,1.00329288-1.00329288,1.00329288Z" fill="#6c2273"/><path d="M33.83245513,23.2077486c-.31155588-.74772074-1.04215376-1.23478599-1.85221244-1.23478599h-6.68861922c-.81005867,0-1.54065655,.48706525-1.85221244,1.23478599l-1.71509574,4.11610938h13.82323558l-1.71509574-4.11610938Z" fill="#b8b2ff"/></g></g><polygon points="14.05810547 3.0199585 12.59625244 3.0199585 14.10797119 4.75866699 14.05810547 3.0199585" fill="none"/><polygon points="11.46813965 26.47998047 14.81811523 29.33996582 14.65814209 23.69000244 11.46813965 26.47998047" fill="none"/><polygon points="11.09814453 32.97998047 14.31811523 30.22998047 11.24810791 27.60998535 11.09814453 32.97998047" fill="none"/><polygon points="11.47814941 20.04998779 11.31811523 25.28997803 14.31811523 22.65997314 11.47814941 20.04998779" fill="none"/><path d="M18.918396,35.03283691H7.105896c-.46595764,0-.84375,.44769287-.84375,1v2h13.5v-2c0-.55230713-.37774086-1-.84375-1Z" fill="#b8b2ff"/><g><g><path d="M11.88659668,5.83795166c.36346436-.05822754,.73352051-.09680176,1.11340332-.09680176,.22479248,0,.4465332,.01293945,.66589355,.03363037l-1.72021484-1.97857666-.05908203,2.04174805Z" fill="none"/><polygon points="14.05810547 3.0199585 12.59625244 3.0199585 14.10797119 4.75866699 14.05810547 3.0199585" fill="none"/><polygon points="11.09814453 32.97998047 14.31811523 30.22998047 11.24810791 27.60998535 11.09814453 32.97998047" fill="none"/><path d="M14.53936768,19.56585693c-.49591064,.1114502-1.00982666,.17529297-1.53936768,.17529297-.13702393,0-.27069092-.01275635-.40576172-.02050781l2.00390625,1.83935547-.05877686-1.99414062Z" fill="none"/><polygon points="11.47814941 20.04998779 11.31811523 25.28997803 14.31811523 22.65997314 11.47814941 20.04998779" fill="none"/><polygon points="14.81811523 29.33996582 14.65814209 23.69000244 11.46813965 26.47998047 14.81811523 29.33996582" fill="none"/><path d="M14.59814453,21.55999756l-2.00390625-1.83935547c-.7355957-.04229736-1.43988037-.19628906-2.09735107-.44848633l-.42877197,14.7578125h1.34002686l3.4699707-2.95996094,.08001709,2.95996094h.98999023l-.42437744-14.76538086c-.31793213,.12310791-.64587402,.22521973-.984375,.30126953l.05877686,1.99414062Zm-3.11999512-1.51000977l2.83996582,2.60998535-3,2.63000488,.16003418-5.23999023Zm-.38000488,12.92999268l.14996338-5.36999512,3.07000732,2.61999512-3.2199707,2.75Zm3.7199707-3.64001465l-3.34997559-2.85998535,3.19000244-2.78997803,.15997314,5.64996338Z" fill="#6c2273"/><path d="M11.94567871,3.79620361l1.72021484,1.97857666c.51116943,.04827881,1.0057373,.15197754,1.47894287,.30419922l-.11669922-4.059021h-4.0300293l-.11767578,4.04980469c.32507324-.10321045,.66241455-.17669678,1.00616455-.23181152l.05908203-2.04174805Zm2.11242676-.77624512l.04986572,1.7387085-1.51171875-1.7387085h1.46185303Z" fill="#6c2273"/><path d="M3.02105713,8.98480225c-.5604248-.00897217-1.02105713,.33294678-1.02105713,.75793457v1.48376465c0,.42498779,.46069336,.76690674,1.02111816,.75793457l3.02868652-.04858398c.1206665-1.05169678,.47692871-2.02941895,1.01074219-2.88641357l-4.03948975-.06463623Z" fill="#6c2273"/></g><path d="M13,6.74117496c-3.31365967,0-6,2.68634033-6,6,0,3.3137207,2.68634033,6,6,6,3.3137207,0,6-2.6862793,6-6,0-3.31365967-2.6862793-6-6-6Zm.54345703,5.17871094l-.0546875,.61230469h-1.78808594c-.0078125,.078125-.0078125,.1640625-.0078125,.25097656,0,.0859375,0,.1640625,.0078125,.24316406h1.70947266l-.0625,.61132812h-1.52148438c.23486328,.65917969,.76074219,1.00390625,1.41162109,1.00390625,.80761719,0,1.22363281-.43164062,1.38818359-1.07421875l.85498047,.25878906c-.24316406,.90917969-.94140625,1.63867188-2.26660156,1.63867188-1.22363281,0-2.11767578-.65039062-2.40820312-1.82714844h-.68212891l.07080078-.61132812h.52539062c-.0078125-.07910156-.0078125-.15722656-.0078125-.24316406,0-.08691406,0-.17285156,.0078125-.25097656h-.45507812l.05517578-.61230469h.50195312c.31347656-1.13671875,1.25488281-1.83496094,2.40771484-1.83496094,1.30957031,0,2.0234375,.77636719,2.25097656,1.67871094l-.87060547,.22753906c-.17285156-.61230469-.59619141-1.08300781-1.36474609-1.08300781-.65869141,0-1.17675781,.36132812-1.41162109,1.01171875h1.70947266Z" fill="#000d6e"/></g><g><path d="M32.01629639,9.44885254l-12.96026611-.2074585c.4331665,.7477417,.7288208,1.58215332,.86016846,2.47192383l9.07611084-.14569092v1.83087158h1v-1.84692383l2.02404785-.0324707c.54394531-.00872803,.9788208-.34545898,.9788208-.75793457v-.55438232c0-.41247559-.43493652-.74920654-.97888184-.75793457Z" fill="#6c2273"/><path d="M28.99230957,14.97753906v.37506104h-.00042725v.07098389c.54998779,0,1,.45001221,1,1s-.45001221,1-1,1-1-.45001221-1-1h-1c0,1.09997559,.90002441,2,2,2,1.10003662,0,2-.90002441,2-2,0-.73773193-.40112305-1.37811279-.99957275-1.72479248v-1.30029297h-1v1.57904053Z" fill="#000d6e"/></g></g></g></svg>