<svg xmlns="http://www.w3.org/2000/svg" viewBox="0 0 40 40" focusable="false" aria-hidden="true"><path fill="none" d="M0 0h40v40H0z"/><g><path d="M33.318 35.35h3.344v1.676a1 1 0 0 1-1 1h-1.344a1 1 0 0 1-1-1zM20.61 35.35h3.344v1.676a1 1 0 0 1-1 1H21.61a1 1 0 0 1-1-1z" fill="#000d6e"/><rect x="35.99341423" y="25.98613414" width="2.00658577" height="1.33772384" rx=".5" ry=".5" fill="#6c2273"/><rect x="19.27186617" y="25.98613414" width="2.00658577" height="1.33772384" rx=".5" ry=".5" fill="#6c2273"/><path d="m36.456 30-.681-2.007H21.497l-.682 2.006a2.7 2.7 0 0 0-.205 1.03v3.652h16.052v-3.653c0-.353-.07-.703-.206-1.029m-13.505 2.675a1.003 1.003 0 1 1 0-2.007 1.003 1.003 0 0 1 0 2.007m11.37 0a1.003 1.003 0 1 1 0-2.007 1.003 1.003 0 0 1 0 2.007" fill="#6c2273"/><path d="M33.832 23.208a2.01 2.01 0 0 0-1.852-1.235h-6.688c-.81 0-1.541.487-1.853 1.235l-1.715 4.116h13.824z" fill="#b8b2ff"/><path fill="none" d="M14.058 3.02h-1.462l1.512 1.739zM11.468 26.48l3.35 2.86-.16-5.65zM11.098 32.98l3.22-2.75-3.07-2.62zM11.478 20.05l-.16 5.24 3-2.63z"/><path d="M18.918 35.033H7.106c-.466 0-.844.448-.844 1v2h13.5v-2c0-.552-.378-1-.844-1" fill="#b8b2ff"/><path d="M11.887 5.838A7 7 0 0 1 13 5.741q.337.001.666.034l-1.72-1.979zM14.058 3.02h-1.462l1.512 1.739zM11.098 32.98l3.22-2.75-3.07-2.62zM14.54 19.566a7 7 0 0 1-1.54.175c-.137 0-.27-.013-.406-.02l2.004 1.839zM11.478 20.05l-.16 5.24 3-2.63zM14.818 29.34l-.16-5.65-3.19 2.79z" fill="none"/><path d="m14.598 21.56-2.004-1.84a7 7 0 0 1-2.097-.448l-.429 14.758h1.34l3.47-2.96.08 2.96h.99l-.424-14.765a7 7 0 0 1-.985.3zm-3.12-1.51 2.84 2.61-3 2.63zm-.38 12.93.15-5.37 3.07 2.62zm3.72-3.64-3.35-2.86 3.19-2.79zM11.946 3.796l1.72 1.979a7 7 0 0 1 1.479.304l-.117-4.059h-4.03l-.118 4.05a7 7 0 0 1 1.007-.232zm2.112-.776.05 1.739-1.512-1.739zM3.021 8.985C2.461 8.975 2 9.318 2 9.743v1.484c0 .424.46.766 1.021.757l3.029-.048a6.95 6.95 0 0 1 1.01-2.887z" fill="#6c2273"/><path d="M13 6.741a6 6 0 1 0 0 12 6 6 0 0 0 0-12m.543 5.179-.054.612H11.7q-.01.119-.008.251c0 .086 0 .164.008.243h1.71l-.063.612h-1.522c.235.659.76 1.004 1.412 1.004.807 0 1.223-.432 1.388-1.075l.855.26c-.243.908-.941 1.638-2.267 1.638-1.223 0-2.117-.65-2.408-1.827h-.682l.07-.612h.526c-.008-.079-.008-.157-.008-.243 0-.087 0-.173.008-.25h-.455l.055-.613h.502c.314-1.137 1.255-1.835 2.408-1.835 1.31 0 2.023.776 2.251 1.679l-.87.227c-.174-.612-.597-1.083-1.365-1.083-.66 0-1.177.361-1.412 1.012z" fill="#000d6e"/><path d="m32.016 9.449-12.96-.208c.433.748.729 1.583.86 2.472l9.076-.145v1.83h1v-1.846l2.024-.033c.544-.009.98-.345.98-.758v-.554c0-.413-.436-.75-.98-.758" fill="#6c2273"/><path d="M28.992 14.978v.445c.55 0 1 .45 1 1s-.45 1-1 1-1-.45-1-1h-1c0 1.1.9 2 2 2s2-.9 2-2a1.99 1.99 0 0 0-1-1.724v-1.3h-1z" fill="#000d6e"/></g></svg>