<?xml version="1.0" encoding="UTF-8"?><svg xmlns="http://www.w3.org/2000/svg" viewBox="0 0 40 40" focusable="false" aria-hidden="true"><g id="uuid-b377ce60-46b2-4031-9259-f4a1e848f991"><rect width="40" height="40" fill="none"/></g><g id="uuid-6bef6214-901a-4955-9275-9d18c8d3aefe"><path d="M34.12,29.88c-.51-1.48-1.68-2.61-3.15-3.12-4.16-1.44-7.24-1.85-10.96-1.97,0,0,0,0,0,0,0,0,0,0,0,0-3.71,.13-6.79,.54-10.96,1.97-1.48,.51-2.65,1.65-3.15,3.12l-2.78,8.11H36.9l-2.78-8.11Z" fill="#6c2273"/><path d="M25.9,14.14c.08-.25,.14-.5,.18-.77,.05-.16,.09-.38,.1-.64,.04-.58,.03-1.33-.04-1.9-.03-.18-.05-.34-.08-.48-.3-1.31-2.48-4.65-6.11-4.65s-6.04,2.86-6.09,5.49h0c-.09,.7-.09,1.84,.26,2.94-.49,.2-.85,.84-.85,1.61,0,.92,.52,1.68,1.17,1.68,.07,0,.14-.02,.21-.04,.36,1.74,1.19,3.23,2.31,4.19-.11,1.23-.42,2.76-.95,3.28l-.27,.27,1.37,1.1,2.9,2.33,2.83-2.28,1.44-1.16-.27-.26c-.52-.51-.82-2.03-.95-3.25,1.14-.96,1.98-2.46,2.34-4.21,.06,0,.12,.03,.18,.03,.65,0,1.17-.76,1.17-1.68,0-.76-.35-1.39-.84-1.6Z" fill="#b8b2ff"/><path d="M26.14,10.83c-.03-.18-.05-.34-.08-.48-.3-1.31-2.48-4.65-6.11-4.65s-6.04,2.86-6.09,5.49h0c-.1,.79-.12,2.14,.39,3.36,.12,.29,.26,.56,.45,.83l.49-3.18c.32,.12,.67,.19,1.09,.19,2.08,0,3.71-.94,5.02-2.16,.46,.74,1.3,1.46,2.39,1.97,.36,.17,.71,.29,1.06,.38,.04,.03,.07,.06,.11,.09,.16,.11,.49,2.7,.49,2.7,.18-.25,.33-.53,.45-.83,.15-.37,.25-.77,.31-1.17,.05-.16,.09-.38,.1-.64,.04-.58,.03-1.33-.04-1.9Z" fill="#000d6e"/></g></svg>