<?xml version="1.0" encoding="iso-8859-1"?><!--Generator: Adobe Illustrator 26.2.1, SVG Export Plug-In . SVG Version: 6.00 Build 0)--><svg version="1.1" xmlns="http://www.w3.org/2000/svg" xmlns:xlink="http://www.w3.org/1999/xlink" x="0px" y="0px" viewBox="0 0 40 40" xml:space="preserve" focusable="false" aria-hidden="true" enable-background="new 0 0 40 40"><g id="Solid"><rect width="40" height="40" fill="none"/></g><g id="Icon_Purple"><g><g><polygon points="27.935,12.838 30.167,12.838 30.167,15.648 31,16.585 31,6 28.757,6 29.76,11.038 			" fill="#B8B2FF"/><rect x="9" y="21" width="10" height="13" fill="#6C2273"/><rect x="21" y="21" width="10" height="13" fill="#6C2273"/><rect x="9" y="6" width="10" height="13" fill="#6C2273"/><polygon points="29.167,16.028 29.167,13.838 26.436,13.838 25.276,11.44 23.008,12.65 21,11.647 21,19 
				31,19 31,18.091 			" fill="#B8B2FF"/><polygon points="22.992,11.525 25.724,10.068 26.885,12.469 28.674,10.704 27.738,6 21,6 21,10.529 			" fill="#B8B2FF"/></g></g></g></svg>