<svg xmlns="http://www.w3.org/2000/svg" viewBox="0 0 40 40" focusable="false" aria-hidden="true"><path fill="none" d="M0 0h40v40H0z"/><g><circle cx="6.5" cy="11.5" r="1.5" fill="#000d6e"/><path d="M14.3 10c-.83 0-1.5.67-1.5 1.5v17c0 .83.67 1.5 1.5 1.5s1.5-.67 1.5-1.5v-17c0-.83-.67-1.5-1.5-1.5M19.1 10c-.83 0-1.5.67-1.5 1.5v17c0 .83.67 1.5 1.5 1.5s1.5-.67 1.5-1.5v-17c0-.83-.67-1.5-1.5-1.5M23.9 10c-.83 0-1.5.67-1.5 1.5v17c0 .83.67 1.5 1.5 1.5s1.5-.67 1.5-1.5v-17c0-.83-.67-1.5-1.5-1.5M34.99 12.73 32 16.35V28.5c0 .83.67 1.5 1.5 1.5s1.5-.67 1.5-1.5V12.73ZM33.5 10c-.83 0-1.5.67-1.5 1.5v3.28l2.97-3.59c-.14-.68-.75-1.19-1.47-1.19M30.2 24.67v-6.14l-2.84 3.43zM28.7 10c-.83 0-1.5.67-1.5 1.5v9.09l3-3.63V11.5c0-.83-.67-1.5-1.5-1.5M27.2 23.19v5.31c0 .37.14.7.36.96l2.64-3.41zM28.7 30c.83 0 1.5-.67 1.5-1.5v-.82l-1.77 2.29q.135.03.27.03M9.5 10c-.31 0-.6.1-.84.26.21.37.34.79.34 1.24 0 .81-.4 1.53-1 1.99V28.5c0 .83.67 1.5 1.5 1.5s1.5-.67 1.5-1.5v-17c0-.83-.67-1.5-1.5-1.5" fill="#b8b2ff"/><path d="m32 16.35-1.8 2.18v6.14l1.34 1.28-1.34 1.73v.82c0 .18-.04.34-.09.5h1.98c-.06-.16-.09-.32-.09-.5zM17.69 11h-1.98c.06.16.09.32.09.5v17c0 .18-.04.34-.09.5h1.98c-.06-.16-.09-.32-.09-.5v-17c0-.18.04-.34.09-.5M12.89 11h-1.98c.06.16.09.32.09.5v17c0 .18-.04.34-.09.5h1.98c-.06-.16-.09-.32-.09-.5v-17c0-.18.04-.34.09-.5M22.49 11h-1.98c.06.16.09.32.09.5v17c0 .18-.04.34-.09.5h1.98c-.06-.16-.09-.32-.09-.5v-17c0-.18.04-.34.09-.5M27.2 23.19 26 22.04l1.2-1.45V11.5c0-.18.04-.34.09-.5h-1.98c.06.16.09.32.09.5v17c0 .18-.04.34-.09.5h1.98c-.06-.16-.09-.32-.09-.5zM30.2 16.96l1.8-2.18V11.5c0-.18.04-.34.09-.5h-1.98c.06.16.09.32.09.5z" fill="#6c2273"/></g></svg>