<svg xmlns="http://www.w3.org/2000/svg" viewBox="0 0 40 40" focusable="false" aria-hidden="true"><path fill="none" d="M0 0h40v40H0z"/><g><path d="M29.375 10.966h-18.75C7.518 10.966 5 13.393 5 16.386v9.034c0 1.996 1.679 3.614 3.75 3.614h1.875c1.884 0 3.443-1.339 3.71-3.083l.402-1.852.154-.564a2 2 0 0 1-.516.079c-1.036 0-1.875-.81-1.875-1.807 0-.998.84-1.807 1.875-1.807s1.875.809 1.875 1.807c0 .068-.013.132-.02.198h7.54c-.007-.066-.02-.13-.02-.198 0-.998.84-1.807 1.875-1.807s1.875.809 1.875 1.807-.84 1.807-1.875 1.807a2 2 0 0 1-.518-.079l.173.63.376 1.719c.236 1.777 1.81 3.15 3.719 3.15h1.875c2.071 0 3.75-1.618 3.75-3.614v-9.034c0-2.993-2.518-5.42-5.625-5.42m-15.894 5.04h-1.475v1.499a.5.5 0 1 1-1 0v-1.498H9.48a.5.5 0 1 1 0-1h1.525v-1.502a.5.5 0 1 1 1 0v1.502h1.475a.5.5 0 1 1 0 1m16.499-2.973a1 1 0 1 1 0 2 1 1 0 0 1 0-2m-1.945 3.977a1 1 0 1 1 0-2 1 1 0 0 1 0 2m1.987 1.957a1 1 0 1 1 0-2 1 1 0 0 1 0 2m1.972-1.985a1 1 0 1 1 0-2 1 1 0 0 1 0 2" fill="#fa9319"/><circle cx="29.97999" cy="14.03302" r="1" fill="#000d6e"/><circle cx="28.03547" cy="16.00952" r="1" fill="#000d6e"/><circle cx="31.99354" cy="15.98175" r="1" fill="#000d6e"/><circle cx="30.02156" cy="17.96729" r="1" fill="#000d6e"/><path d="M13.48 15.007h-1.474v-1.502a.5.5 0 1 0-1 0v1.502H9.48a.5.5 0 1 0 0 1h1.525v1.498a.5.5 0 1 0 1 0v-1.498h1.475a.5.5 0 1 0 0-1" fill="#000d6e"/><path d="M14.375 20c-1.036 0-1.875.809-1.875 1.807s.84 1.807 1.875 1.807c.18 0 .351-.033.516-.079.718-.199 1.254-.795 1.338-1.53.008-.066.021-.13.021-.198 0-.998-.84-1.807-1.875-1.807M27.5 21.807c0-.998-.84-1.807-1.875-1.807s-1.875.809-1.875 1.807c0 .068.013.132.02.198.085.734.62 1.33 1.337 1.53.166.046.337.079.518.079 1.036 0 1.875-.81 1.875-1.807" fill="#fae052"/></g></svg>