<svg xmlns="http://www.w3.org/2000/svg" viewBox="0 0 40 40" focusable="false" aria-hidden="true"><path fill="none" d="M0 0h40v40H0z"/><g><path fill="#1b5951" d="M29 6h-4v2.31l4 3.68z"/><path d="M19.4 8.33 10 17v17h20V17l-9.41-8.68c-.33-.3-.85-.3-1.19.01" fill="#94e3d4"/><path d="m32.34 16.43-10.4-9.59a2.906 2.906 0 0 0-3.88 0l-10.4 9.59.34.37.34.37 10.39-9.58c.72-.65 1.82-.65 2.54 0l10.39 9.58.34-.37z" fill="#000d6e"/><path d="M20.52 32h4.55c1.34 0 2.43-1.09 2.43-2.43v-4.55h-6.98v6.97Z" fill="#1b5951"/><path d="M22.44 27.99h3.12c.29 0 .52-.23.52-.52s-.23-.52-.52-.52h-3.12c-.29 0-.52.23-.52.52s.23.52.52.52M25.56 29.01h-3.12c-.29 0-.52.23-.52.52s.23.52.52.52h3.12c.29 0 .52-.23.52-.52s-.23-.52-.52-.52" fill="#000d6e"/><path d="M14.93 17.03c-1.34 0-2.43 1.09-2.43 2.43v4.55h6.98v-6.97h-4.55Zm2.11 3.99h-2.08c-.29 0-.52-.23-.52-.52s.23-.52.52-.52h2.08c.29 0 .52.23.52.52s-.23.52-.52.52M12.5 25.04v4.55c0 1.34 1.09 2.43 2.43 2.43h4.55v-6.97H12.5Zm5.06 3.98h-1.04v1.04c0 .29-.23.52-.52.52s-.52-.23-.52-.52v-1.04h-1.04c-.29 0-.52-.23-.52-.52s.23-.52.52-.52h1.04v-1.04c0-.29.23-.52.52-.52s.52.23.52.52v1.04h1.04c.29 0 .52.23.52.52s-.23.52-.52.52M25.07 17.02h-4.55v6.97h6.98v-4.55c0-1.34-1.09-2.43-2.43-2.43Zm.4 4.22a.514.514 0 0 1-.37.88c-.14 0-.27-.05-.37-.15l-.74-.73-.74.73c-.1.1-.23.15-.37.15a.514.514 0 0 1-.37-.88l.74-.73-.74-.73a.52.52 0 0 1 0-.73c.2-.2.53-.2.74 0l.74.74.74-.74c.2-.2.53-.2.74 0 .2.2.2.53 0 .73l-.74.73z" fill="#1b5951"/></g></svg>