<svg version="1.1" xmlns="http://www.w3.org/2000/svg" x="0px" y="0px" viewBox="0 0 40 40" xml:space="preserve" focusable="false" aria-hidden="true" enable-background="new 0 0 40 40"><path fill="none" d="M0 0h40v40H0z"/><g><path fill="#1B5951" d="M29 6h-4v2.306l4 3.688z"/><path d="M32.339 16.433 21.94 6.844a2.9 2.9 0 0 0-3.884.005L7.661 16.433l.339.368.339.367 10.39-9.58a1.9 1.9 0 0 1 2.538-.005l10.394 9.585.339-.367zM18 28h4v6h-4z" fill="#000D6E"/><path fill="none" stroke="#000D6E" stroke-width="0" stroke-linecap="round" stroke-linejoin="round" d="M5.518 36.009"/><path d="M5.499 32.022c-.17 0-.334-.027-.498-.05v4.037h1.034v-4.041a3.5 3.5 0 0 1-.536.054" fill="#1B5951"/><path d="M5.499 25.009a3.506 3.506 0 0 0-3.506 3.506 3.496 3.496 0 0 0 3.009 3.456c.164.023.327.05.498.05.184 0 .36-.027.536-.054 1.68-.26 2.97-1.7 2.97-3.452a3.51 3.51 0 0 0-3.507-3.506M25.067 34c.09-.75.299-1.598.7-2.577.014-.034 1.113-2.571 2.231-3.787v-1.5470000000000002l-.477-2.323A1.517 1.517 0 0 1 29.013 22H30v-5.003l-9.412-8.679a.894.894 0 0 0-1.191.013L10 16.997V34h8v-6h4v6zm-8.051-11.012h-3v-3h3zm4.484 0h-3v-3h3zm1.5-2.976h3v3h-3z" fill="#94E3D4"/><path d="M35.493 23.602a.516.516 0 0 0-.506-.602h-5.973a.516.516 0 0 0-.506.602L29 26h6zM35 28c-.359 0-3 .023-3 .023S29.36 28 29 28c-.229 0-4.96 6.383-2.047 9.252.454.447 1.059.748 1.74.748h6.614c.682 0 1.286-.301 1.74-.748C39.96 34.383 35.229 28 35 28" fill="#1B5951"/><path d="M29.076 29.765a.514.514 0 0 0 .729 0L32 27.563l2.195 2.201a.516.516 0 1 0 .729-.732l-1.486-1.491-.514-.541h2.074v-1h-6v1h2.079l-2 2.033a.52.52 0 0 0-.001.732" fill="#000D6E"/></g></svg>