<svg version="1.1" xmlns="http://www.w3.org/2000/svg" x="0px" y="0px" viewBox="0 0 40 40" xml:space="preserve" focusable="false" aria-hidden="true" enable-background="new 0 0 40 40"><path fill="none" d="M0 0h40v40H0z"/><g><circle cx="20" cy="16.041" r="9" fill="#94E3D4"/><path fill="none" stroke="#000D6E" stroke-width="0" stroke-linecap="round" stroke-linejoin="round" d="M13.012 27.423"/><path d="M20.294 9.111a.445.445 0 0 0-.595.006L15 13.466V22h10v-8.534z" fill="#000D6E"/><path d="m35.342 30.405-.176.289M35.166 30.694l-.122.2M35.568 30.035l-.225.37M35.044 30.894l-.044.073M35.769 29.705l-.042.069M35.727 29.774l-.159.262" fill="#1B5951" stroke="#1B5951" stroke-width="0" stroke-linecap="round" stroke-linejoin="round"/><path d="M37.926 23.975 34.421 8.999a1.5 1.5 0 0 0-2.947.076l-.016.3.558 7.384.237.038c1.271.205 1.786 1.486 1.656 2.293l-1.434 8.885a.5.5 0 1 1-.987-.159l1.434-8.885c.045-.281-.134-1.035-.828-1.147v.001l-.025-.005-.962-.155c-.693-.112-1.101.547-1.146.828l-.797 4.936-.004.024h-.001c-.093.514-.498.94-.966 1.433-.462.487-1 1.053-1.38 1.829a7.4 7.4 0 0 0-.47 1.638C26.09 29.877 26 38 26 38h6.954s.238-4.067 2.046-7.033c1.046-1.727 2.296-3.76 2.343-3.838a4.501 4.501 0 0 0 .583-3.154" fill="#1B5951"/><path d="m35.8 29.654-.031.05M4.361 29.918l-.07-.116" fill="#1B5951" stroke="#1B5951" stroke-width="0" stroke-linecap="round" stroke-linejoin="round"/><path d="m4.658 30.405-.297-.487z" fill="#1B5951"/><path d="m5 30.967-.044-.073" fill="#1B5951" stroke="#1B5951" stroke-width="0" stroke-linecap="round" stroke-linejoin="round"/><path d="m4.956 30.894-.298-.489z" fill="#1B5951"/><path d="m4.291 29.803-.074-.121" fill="#1B5951" stroke="#1B5951" stroke-width="0" stroke-linecap="round" stroke-linejoin="round"/><path d="M13.187 26.676c-.38-.776-.917-1.342-1.38-1.829-.468-.492-.873-.919-.966-1.433h-.001l-.004-.024-.797-4.936c-.045-.281-.453-.94-1.146-.828l-.962.155-.025.005v-.001c-.694.112-.873.866-.828 1.147l1.434 8.885a.5.5 0 1 1-.987.159l-1.434-8.885c-.13-.807.384-2.088 1.656-2.293l.237-.038.558-7.384-.016-.3a1.5 1.5 0 0 0-2.947-.077L2.074 23.975a4.5 4.5 0 0 0 .582 3.154A729 729 0 0 1 5 30.967C6.808 33.933 7.046 38 7.046 38H14s-.09-8.123-.343-9.685a7.4 7.4 0 0 0-.47-1.639" fill="#1B5951"/></g></svg>