<?xml version="1.0" encoding="iso-8859-1"?><!--Generator: Adobe Illustrator 26.2.1, SVG Export Plug-In . SVG Version: 6.00 Build 0)--><svg version="1.1" xmlns="http://www.w3.org/2000/svg" xmlns:xlink="http://www.w3.org/1999/xlink" x="0px" y="0px" viewBox="0 0 40 40" xml:space="preserve" focusable="false" aria-hidden="true" enable-background="new 0 0 40 40"><g id="Solid"><rect width="40" height="40" fill="none"/></g><g id="Icon_Red"><g><polygon points="29,6 25,6 25,8.306 29,11.994 		" fill="#D9304C"/><path d="M32.339,16.433L21.94,6.844c-1.106-0.992-2.773-0.993-3.884,0.005L7.661,16.433l0,0L8,16.801
			l0.339,0.367l10.39-9.58c0.724-0.651,1.817-0.65,2.538-0.005l10.394,9.585L32,16.801L32.339,16.433L32.339,16.433z" fill="#000D6E"/><rect x="18" y="28" width="4" height="6" fill="#000D6E"/><line x1="5.518" y1="36.009" x2="5.518" y2="36.009" fill="none" stroke="#000D6E" stroke-width="0" stroke-linecap="round" stroke-linejoin="round"/><path d="M5.499,32.022c-0.17,0-0.334-0.027-0.498-0.05v4.037h0.517h0.517v-4.041
			C5.859,31.995,5.682,32.022,5.499,32.022z" fill="#D9304C"/><g><path d="M5.499,25.009c-1.937,0-3.506,1.57-3.506,3.506c0,1.766,1.31,3.213,3.009,3.456
				c0.164,0.023,0.327,0.05,0.498,0.05c0.184,0,0.36-0.027,0.536-0.054c1.68-0.26,2.97-1.7,2.97-3.452
				C9.005,26.579,7.435,25.009,5.499,25.009z" fill="#FFACA6"/></g></g><path d="M32,28.563" fill="#000D6E"/><path d="M25.067,34c0.09-0.75,0.299-1.598,0.7-2.577c0.014-0.034,1.113-2.571,2.231-3.787V27v-0.911
		l-0.477-2.323c-0.073-0.442,0.051-0.89,0.34-1.231C28.149,22.195,28.569,22,29.013,22H30v-5.003l-9.412-8.679
		c-0.33-0.297-0.848-0.296-1.191,0.013L10,16.997V34h8v-6h4v6H25.067z M17.016,22.988h-3v-3h3V22.988z M21.5,22.988h-3v-3h3V22.988z
		 M23,20.012h3v3h-3V20.012z" fill="#FFACA6"/><g><g><path d="M35.493,23.602C35.545,23.287,35.304,23,34.987,23h-5.973c-0.317,0-0.558,0.287-0.506,0.602L29,26
				h6L35.493,23.602z" fill="#D9304C"/></g><path d="M34.557,30.916" fill="#000D6E"/><g><path d="M35,28c-0.359,0-3,0.023-3,0.023S29.36,28,29,28c-0.229,0-4.96,6.383-2.047,9.252
				C27.407,37.699,28.012,38,28.693,38H32h3.307c0.682,0,1.286-0.301,1.74-0.748C39.96,34.383,35.229,28,35,28z" fill="#D9304C"/></g><path d="M29.076,29.765c0.201,0.202,0.528,0.202,0.729,0L32,27.563l2.195,2.201
			c0.1,0.1,0.231,0.15,0.362,0.151c0.133,0.001,0.266-0.049,0.367-0.151c0.201-0.202,0.201-0.53,0-0.732l-1.486-1.491L32.924,27
			h2.074v-1h-6v1h2.079l-2,2.033C28.875,29.235,28.875,29.563,29.076,29.765z" fill="#000D6E"/></g></g></svg>