<?xml version="1.0" encoding="UTF-8"?><svg xmlns="http://www.w3.org/2000/svg" viewBox="0 0 40 40" focusable="false" aria-hidden="true"><g id="uuid-f604d4f9-373c-4dbf-b713-da81b953e4f4"><rect width="40" height="40" fill="none"/></g><g id="uuid-28153f69-dab0-40c2-b820-6e1240295b03"><polygon points="29 6 25 6 25 8.31 29 11.99 29 6" fill="#1b5951"/><path d="M19.4,8.33l-9.4,8.67v17H30V17l-9.41-8.68c-.33-.3-.85-.3-1.19,.01Z" fill="#94e3d4"/><path d="M32.34,16.43L21.94,6.84c-1.11-.99-2.77-.99-3.88,0L7.66,16.43h0s.34,.37,.34,.37l.34,.37L18.73,7.59c.72-.65,1.82-.65,2.54,0l10.39,9.58,.34-.37,.34-.37h0Z" fill="#000d6e"/><g><path d="M20.52,32h4.55c1.34,0,2.43-1.09,2.43-2.43v-4.55h-6.98v6.97Z" fill="#1b5951"/><g><path d="M22.44,27.99h3.12c.29,0,.52-.23,.52-.52s-.23-.52-.52-.52h-3.12c-.29,0-.52,.23-.52,.52s.23,.52,.52,.52Z" fill="#000d6e"/><path d="M25.56,29.01h-3.12c-.29,0-.52,.23-.52,.52s.23,.52,.52,.52h3.12c.29,0,.52-.23,.52-.52s-.23-.52-.52-.52Z" fill="#000d6e"/></g><path d="M14.93,17.03c-1.34,0-2.43,1.09-2.43,2.43v4.55h6.98v-6.97h-4.55Zm2.11,3.99h-2.08c-.29,0-.52-.23-.52-.52s.23-.52,.52-.52h2.08c.29,0,.52,.23,.52,.52s-.23,.52-.52,.52Z" fill="#1b5951"/><path d="M12.5,25.04v4.55c0,1.34,1.09,2.43,2.43,2.43h4.55v-6.97h-6.98Zm5.06,3.98h-1.04v1.04c0,.29-.23,.52-.52,.52s-.52-.23-.52-.52v-1.04h-1.04c-.29,0-.52-.23-.52-.52s.23-.52,.52-.52h1.04v-1.04c0-.29,.23-.52,.52-.52s.52,.23,.52,.52v1.04h1.04c.29,0,.52,.23,.52,.52s-.23,.52-.52,.52Z" fill="#1b5951"/><path d="M25.07,17.02h-4.55v6.97h6.98v-4.55c0-1.34-1.09-2.43-2.43-2.43Zm.4,4.22c.2,.2,.2,.53,0,.73-.1,.1-.23,.15-.37,.15s-.27-.05-.37-.15l-.74-.73-.74,.73c-.1,.1-.23,.15-.37,.15s-.27-.05-.37-.15c-.2-.2-.2-.53,0-.73l.74-.73-.74-.73c-.2-.2-.2-.53,0-.73,.2-.2,.53-.2,.74,0l.74,.74,.74-.74c.2-.2,.53-.2,.74,0,.2,.2,.2,.53,0,.73l-.74,.73,.74,.73Z" fill="#1b5951"/></g></g></svg>