<svg xmlns="http://www.w3.org/2000/svg" viewBox="0 0 40 40" focusable="false" aria-hidden="true"><path fill="none" d="M0 0h40v40H0z"/><g data-name="Icon Green"><path fill="#1b5951" d="M11 20.964 18 22V8l-7 1.008z"/><path d="M9 8a.98.98 0 0 0-1 .954V29h2V8.954A.98.98 0 0 0 9 8" fill="#94e3d4"/><path d="M8 33.05a1.001 1.001 0 0 0 2 0V29H8Z" fill="#000d6e"/><path fill="#94e3d4" d="M25 13h2v5h-2z"/><path d="M27 9.022a1 1 0 0 0-2 0v3.956h2Z" fill="#000d6e"/><path d="m33.993 33.017-.775-9.225a3.03 3.03 0 0 0-2.984-2.774h-3.248V19H24.99v2.018h-3.095a3 3 0 0 0-2.98 2.732l-.905 9.24a2.03 2.03 0 0 0 .513 1.557 2 2 0 0 0 .552.417l.833-10.654a2.255 2.255 0 0 1 1.987-2.291h8.339a2.265 2.265 0 0 1 1.989 2.327l.712 10.612a2 2 0 0 0 .533-.4 2.03 2.03 0 0 0 .525-1.54" fill="#1b5951"/><path d="M30.234 22.019h-8.34a2.255 2.255 0 0 0-1.986 2.291l-.833 10.654-.003.036h13.866l-.003-.042-.712-10.612a2.265 2.265 0 0 0-1.99-2.327" fill="#94e3d4"/></g></svg>