<svg xmlns="http://www.w3.org/2000/svg" viewBox="0 0 40 40" focusable="false" aria-hidden="true"><path fill="none" d="M0 0h40v40H0z"/><g data-name="Icon Red"><path fill="#d9304c" d="M29 6h-4v2.306l4 3.688z"/><path d="M19.398 8.331 10 16.997V34h8v-6h4v6h8V16.997l-9.412-8.679a.895.895 0 0 0-1.19.013m-2.382 14.657h-3v-3h3ZM23 20.012h3v3h-3Zm-1.5 2.976h-3v-3h3Z" fill="#ffaca6"/><path d="M32.339 16.434 21.94 6.843a2.9 2.9 0 0 0-3.884.005L7.66 16.433l.339.368.339.367 10.39-9.58a1.9 1.9 0 0 1 2.538-.005l10.394 9.585.339-.367zM18 28h4v6h-4z" fill="#000d6e"/><path d="M5.499 32.022a3.5 3.5 0 0 1-.498-.05v4.037h1.034v-4.041a3.5 3.5 0 0 1-.536.054" fill="#d9304c"/><path d="M5.499 25.01A3.499 3.499 0 0 0 5 31.971a3.5 3.5 0 0 0 .498.05 3.5 3.5 0 0 0 .536-.054 3.5 3.5 0 0 0-.536-6.959Z" fill="#ffaca6"/></g></svg>