<svg xmlns="http://www.w3.org/2000/svg" viewBox="0 0 40 40" focusable="false" aria-hidden="true"><path fill="none" d="M0 0h40v40H0z"/><g><path d="M11.12 24.37c-.02-.19-.03-.37-.04-.54.01.18.03.35.04.54M8.27 14.32v-.01zM11.23 25.49c.03.25.06.51.1.79-.04-.27-.07-.54-.1-.79M11.12 24.37c.03.28.06.59.09.9-.03-.31-.07-.62-.09-.9M9.43 16.57a3 3 0 0 1-.06-.17c.02.06.04.11.06.17M11.03 23.09c0-.14-.01-.27-.02-.4 0 .13.01.26.02.4M10.98 21.69c0-.36 0-.66.02-.88-.01.22-.02.52-.02.88M11 22.55c0-.12 0-.24-.01-.36 0 .11 0 .23.01.36M10.99 22.08v-.32zM11.06 23.71l-.03-.46c0 .15.02.3.03.46M15 20.8c0 .13.01.28.02.45 0-.17 0-.32-.02-.45M15.02 21.74v.31zM14.96 20.29c0 .05.02.22.04.49a5 5 0 0 0-.04-.49M15.01 22.18c0 .11 0 .23-.01.36 0-.12 0-.24.01-.36M14.97 23.22c0 .15-.02.31-.03.48zM14.99 22.67c0 .13-.01.27-.02.41 0-.14.01-.28.02-.41M14.88 24.38c-.03.28-.06.59-.09.9.03-.31.07-.62.09-.9M14.93 23.82c-.01.18-.03.36-.05.56.02-.19.03-.38.05-.56M14.77 25.49c-.03.25-.06.52-.1.79.04-.27.07-.54.1-.79M15.02 21.35v.26zM11.75 29c-.08-.43-.14-.84-.21-1.24.06.4.13.81.21 1.24M11.05 20.27v-.02s-.02.19-.04.56c.02-.31.04-.5.04-.54M14.96 20.27v.01-.02zM17.76 14.25c0-.02 0-.03-.01-.05s0 .03.01.05M14.25 29c.08-.43.14-.84.21-1.24-.06.4-.13.81-.21 1.24M8.56 13.69s0-.01.01-.02c0 0 0 .01-.01.02M17.62 13.88s-.01-.02-.02-.03c0 0 .01.02.02.03M9.93 17.65c.32.54.73.99 1.19 1.33v.08-.08c-.46-.34-.87-.79-1.19-1.33M10.83 10.17c-.13 0-.26.02-.38.04.12-.02.25-.03.38-.04M11.26 10.2c-.14-.02-.29-.03-.42-.03.13 0 .28 0 .42.03M10.33 10.23l-.26.06c.08-.02.17-.04.26-.06M17.39 13.6l.01.01zM9.97 10.32c-.11.03-.21.07-.3.11.1-.04.2-.08.31-.11ZM8.78 13.51s.03-.01.04-.02c-.01 0-.03.01-.04.02M11.73 10.3c-.07-.02-.13-.03-.19-.05.06.01.13.03.19.05M17.15 13.46" fill="none"/><path d="M14.51 27.42c.04-.28.08-.56.12-.82.01-.11.03-.21.04-.32.04-.27.07-.54.1-.79 0-.07.02-.14.02-.22.03-.31.07-.62.09-.9-.46.53-1.13.88-1.88.88s-1.42-.34-1.88-.88c.03.28.06.59.09.9 0 .07.02.14.02.22.03.25.06.52.1.79.01.11.03.21.04.32.04.26.08.54.12.82.02.11.03.22.05.34.06.4.13.81.21 1.24h2.5c.08-.43.14-.84.21-1.24.02-.12.03-.23.05-.34" fill="#000d6e"/><path d="M11.49 27.42c-.04-.28-.08-.56-.12-.82-.01-.11-.03-.21-.04-.32-.04-.27-.07-.53-.1-.79 0-.07-.02-.15-.02-.22-.03-.32-.07-.62-.09-.9-.02-.19-.03-.37-.04-.54v-.13l-.03-.46v-.15c0-.14-.01-.27-.02-.4v-.14c0-.12 0-.24-.01-.36v-.5c0-.36 0-.66.02-.88.02-.38.05-.56.05-.56l-1.54.78-4.69 2.37a2.51 2.51 0 0 0-1.35 1.92L3.05 29h8.7c-.08-.43-.14-.84-.21-1.24-.02-.12-.03-.23-.05-.34" fill="#6c2273"/><path d="M11.12 19.06v-.08c-.47-.34-.87-.79-1.2-1.33-.2-.33-.36-.69-.49-1.07a3 3 0 0 0-.06-.17c-.06-.2-.12-.4-.16-.61-.05.01-.1.02-.15.02-.46 0-.83-.53-.83-1.19q0-.165.03-.3s0 0 0-.01c.05-.25.15-.46.29-.62 0 0 0-.01.01-.02.06-.07.13-.12.21-.16.01 0 .03-.01.04-.02.08-.03.16-.06.25-.06 0-.83-.01-1.91-.02-2.25 0-.04 0-.36.03-.48.17-.08.36-.18.59-.27.1-.04.2-.08.3-.11l.1-.03c.08-.02.17-.04.26-.06.04 0 .08-.02.12-.02.12-.02.25-.03.38-.04h.02c.13 0 .28 0 .42.03.09.01.19.04.28.06.06.01.13.03.19.05.21.06.42.14.64.26l.99.51c1.07.54 2.24 1.12 2.96 1.47.33.16.57.28.65.32v.58c.06 0 .12.01.17.03.09.03.16.08.24.14l.01.01c.07.07.14.15.2.24 0 0 .01.02.02.03.05.1.1.2.13.32s0 .03.01.05c.03.12.05.24.05.37 0 .66-.37 1.19-.83 1.19-.04 0-.08 0-.13-.02-.29 1.4-1.01 2.57-1.97 3.23l.08 1.22 2.74 1.38 2.01 1.02c.82-.56 1.22-1.2.87-1.78-.59-.97-.83-2.97-1.2-4.95-.31-2.4-1.09-4.61-1.38-5.71-.44-1.68-1.75-3.56-4.94-3.67-2.35 0-4.31 1.47-4.7 3.1-.58 1.59-2.04 6.47.21 10.39.23.41.52.75.84 1.05l.11-.05 1.54-.78.07-1.19Z" fill="#000d6e"/><path d="M16.85 15.8s.08.02.13.02c.46 0 .83-.53.83-1.19 0-.13-.02-.25-.05-.37 0-.02 0-.03-.01-.05a1.5 1.5 0 0 0-.13-.32s-.01-.02-.02-.03c-.06-.09-.12-.18-.2-.24l-.01-.01a.7.7 0 0 0-.24-.14.5.5 0 0 0-.17-.03v-.58c-.09-.04-.32-.16-.65-.32-.72-.35-1.89-.93-2.96-1.47l-.99-.51c-.22-.12-.44-.2-.64-.26-.07-.02-.13-.03-.19-.05-.09-.02-.19-.05-.28-.06-.14-.02-.29-.03-.42-.03h-.02c-.13 0-.26.02-.38.04-.04 0-.08.01-.12.02l-.26.06c-.03 0-.07.02-.1.03-.11.03-.21.07-.31.11-.22.09-.42.19-.59.27-.02.12-.03.44-.03.48 0 .34.01 1.42.02 2.25-.09 0-.17.02-.25.06-.01 0-.03.01-.04.02-.08.04-.15.09-.21.16 0 0 0 .01-.01.02-.14.15-.24.37-.29.62v.01q-.03.15-.03.3c0 .66.37 1.19.83 1.19.05 0 .1 0 .15-.02.04.21.1.41.16.61.02.06.04.12.06.17.13.38.29.74.49 1.07.33.54.73.99 1.19 1.33v.08l-.07 1.19v.02c0 .04-.02.23-.04.54-.01.22-.02.52-.02.88v.5c0 .11 0 .23.01.36v.14c0 .13.01.26.02.4v.15c0 .15.02.3.03.46v.13c.01.18.03.35.04.54.46.53 1.13.88 1.88.88s1.42-.34 1.88-.88c.02-.19.03-.38.05-.56v-.12l.03-.48v-.14c0-.14.01-.28.02-.41v-.14c0-.12 0-.24.01-.36v-.93c0-.17 0-.32-.02-.45v-.02c-.02-.27-.03-.44-.04-.49v-.03L14.81 19c.96-.66 1.68-1.83 1.97-3.23Z" fill="#b8b2ff"/><path d="M25.12 24.37c-.02-.19-.03-.37-.04-.54.01.18.03.35.04.54M22.27 14.32v-.01zM25.23 25.49c.03.25.06.51.1.79-.04-.27-.07-.54-.1-.79M25.12 24.37c.03.28.06.59.09.9-.03-.31-.07-.62-.09-.9M23.43 16.57a3 3 0 0 1-.06-.17c.02.06.04.11.06.17M25.03 23.09c0-.14-.01-.27-.02-.4 0 .13.01.26.02.4M24.98 21.69c0-.36 0-.66.02-.88-.01.22-.02.52-.02.88M25 22.55c0-.12 0-.24-.01-.36 0 .11 0 .23.01.36M24.99 22.08v-.32zM25.06 23.71l-.03-.46c0 .15.02.3.03.46M29 20.8c0 .13.01.28.02.45 0-.17 0-.32-.02-.45M29.02 21.74v.31zM28.96 20.29c0 .05.02.22.04.49a5 5 0 0 0-.04-.49M29.01 22.18c0 .11 0 .23-.01.36 0-.12 0-.24.01-.36M28.97 23.22c0 .15-.02.31-.03.48zM28.99 22.67c0 .13-.01.27-.02.41 0-.14.01-.28.02-.41M28.88 24.38c-.03.28-.06.59-.09.9.03-.31.07-.62.09-.9M28.93 23.82c-.01.18-.03.36-.05.56.02-.19.03-.38.05-.56M29.02 21.35v.26zM25.75 29c-.08-.43-.14-.84-.21-1.24.06.4.13.81.21 1.24M25.05 20.27v-.02s-.02.19-.04.56c.02-.31.04-.5.04-.54M28.96 20.27v.01-.02zM31.76 14.25c0-.02 0-.03-.01-.05s0 .03.01.05M22.56 13.69s0-.01.01-.02c0 0 0 .01-.01.02M31.62 13.88s-.01-.02-.02-.03c0 0 .01.02.02.03M23.93 17.65c.32.54.73.99 1.19 1.33v.08-.08c-.46-.34-.87-.79-1.19-1.33M24.83 10.17c-.13 0-.26.02-.38.04.12-.02.25-.03.38-.04M25.26 10.2c-.14-.02-.29-.03-.42-.03.13 0 .28 0 .42.03M24.33 10.23l-.26.06c.08-.02.17-.04.26-.06M31.39 13.6l.01.01zM23.97 10.32c-.11.03-.21.07-.3.11.1-.04.2-.08.31-.11ZM22.78 13.51s.03-.01.04-.02c-.01 0-.03.01-.04.02M25.73 10.3c-.07-.02-.13-.03-.19-.05.06.01.13.03.19.05M31.15 13.46" fill="none"/><path d="M25.12 19.06v-.08c-.47-.34-.87-.79-1.2-1.33-.2-.33-.36-.69-.49-1.07a3 3 0 0 0-.06-.17c-.06-.2-.12-.4-.16-.61-.05.01-.1.02-.15.02-.46 0-.83-.53-.83-1.19q0-.165.03-.3s0 0 0-.01c.05-.25.15-.46.29-.62 0 0 0-.01.01-.02.06-.07.13-.12.21-.16.01 0 .03-.01.04-.02.08-.03.16-.06.25-.06 0-.83-.01-1.91-.02-2.25 0-.04 0-.36.03-.48.17-.08.36-.18.59-.27.1-.04.2-.08.3-.11l.1-.03c.08-.02.17-.04.26-.06.04 0 .08-.02.12-.02.12-.02.25-.03.38-.04h.02c.13 0 .28 0 .42.03.09.01.19.04.28.06.06.01.13.03.19.05.21.06.42.14.64.26l.99.51c1.07.54 2.24 1.12 2.96 1.47.33.16.57.28.65.32v.58c.06 0 .12.01.17.03.09.03.16.08.24.14l.01.01c.07.07.14.15.2.24 0 0 .01.02.02.03.05.1.1.2.13.32s0 .03.01.05c.03.12.05.24.05.37 0 .66-.37 1.19-.83 1.19-.04 0-.08 0-.13-.02-.29 1.4-1.01 2.57-1.97 3.23l.08 1.22 2.74 1.38 2.01 1.02c.82-.56 1.22-1.2.87-1.78-.59-.97-.83-2.97-1.2-4.95-.31-2.4-1.09-4.61-1.38-5.71-.44-1.68-1.75-3.56-4.94-3.67-2.35 0-4.31 1.47-4.7 3.1-.58 1.59-2.04 6.47.21 10.39.23.41.52.75.84 1.05l.11-.05 1.54-.78.07-1.19Z" fill="#000d6e"/><path d="M30.85 15.8s.08.02.13.02c.46 0 .83-.53.83-1.19 0-.13-.02-.25-.05-.37 0-.02 0-.03-.01-.05a1.5 1.5 0 0 0-.13-.32s-.01-.02-.02-.03c-.06-.09-.12-.18-.2-.24l-.01-.01a.7.7 0 0 0-.24-.14.5.5 0 0 0-.17-.03v-.58c-.09-.04-.32-.16-.65-.32-.72-.35-1.89-.93-2.96-1.47l-.99-.51c-.22-.12-.44-.2-.64-.26-.07-.02-.13-.03-.19-.05-.09-.02-.19-.05-.28-.06-.14-.02-.29-.03-.42-.03h-.02c-.13 0-.26.02-.38.04-.04 0-.08.01-.12.02l-.26.06c-.03 0-.07.02-.1.03-.11.03-.21.07-.31.11-.22.09-.42.19-.59.27-.02.12-.03.44-.03.48 0 .34.01 1.42.02 2.25-.09 0-.17.02-.25.06-.01 0-.03.01-.04.02-.08.04-.15.09-.21.16 0 0 0 .01-.01.02-.14.15-.24.37-.29.62v.01q-.03.15-.03.3c0 .66.37 1.19.83 1.19.05 0 .1 0 .15-.02.04.21.1.41.16.61.02.06.04.12.06.17.13.38.29.74.49 1.07.33.54.73.99 1.19 1.33v.08l-.07 1.19v.02c0 .04-.02.23-.04.54-.01.22-.02.52-.02.88v.5c0 .11 0 .23.01.36v.14c0 .13.01.26.02.4v.15c0 .15.02.3.03.46v.13c.01.18.03.35.04.54.46.53 1.13.88 1.88.88s1.42-.34 1.88-.88c.02-.19.03-.38.05-.56v-.12l.03-.48v-.14c0-.14.01-.28.02-.41v-.14c0-.12 0-.24.01-.36v-.93c0-.17 0-.32-.02-.45v-.02c-.02-.27-.03-.44-.04-.49v-.03L28.81 19c.96-.66 1.68-1.83 1.97-3.23Z" fill="#b8b2ff"/><circle cx="32" cy="32" r="6" fill="#b8b2ff"/><path d="M25.21 25.28c0 .07.02.14.02.22.03.25.06.52.1.79.01.11.03.21.04.32.04.26.08.54.12.82.02.11.03.22.05.34.06.36.12.75.19 1.14a7.06 7.06 0 0 1 2.99-3.08c.01-.11.03-.22.04-.33 0-.07.02-.14.02-.22.03-.31.07-.62.09-.9-.46.53-1.13.88-1.88.88s-1.42-.34-1.88-.88c.03.28.06.59.09.9Z" fill="#000d6e"/><path d="M25.54 27.76c-.02-.12-.03-.23-.05-.34-.04-.28-.08-.56-.12-.82-.01-.11-.03-.21-.04-.32-.04-.27-.07-.54-.1-.79 0-.07-.02-.15-.02-.22-.03-.31-.07-.62-.09-.9-.02-.19-.03-.37-.04-.54v-.13l-.03-.46v-.15c0-.14-.01-.27-.02-.4v-.14c0-.12 0-.24-.01-.36v-.5c0-.36 0-.66.02-.88.02-.38.05-.56.05-.56l-1.54.78-3.51 1.77-3.51-1.77-1.54-.78v.03c0 .07.02.23.04.49s0 .01 0 .02c0 .13.01.28.02.45v.93c0 .11 0 .23-.01.36v.14c0 .13-.01.27-.02.41v.14c0 .15-.02.31-.03.48v.12c-.01.18-.03.36-.05.56q-.045.42-.09.9c0 .07-.02.14-.02.22-.03.25-.06.52-.1.79-.01.1-.03.21-.04.32-.04.26-.08.54-.12.82-.02.11-.03.22-.05.34-.06.4-.13.81-.21 1.24h11.44s.03-.07.05-.1c-.07-.39-.13-.77-.19-1.14ZM28.79 25.28c0 .07-.02.14-.02.22-.01.1-.03.22-.04.33.98-.52 2.09-.82 3.27-.82 1.83 0 3.48.71 4.73 1.86l-.19-1.53c-.1-.83-.61-1.55-1.35-1.92l-4.69-2.37-1.54-.78v.03c0 .07.02.23.04.49s0 .01 0 .02c0 .13.01.28.02.45v.93c0 .11 0 .23-.01.36v.14c0 .13-.01.27-.02.41v.14c0 .15-.02.31-.03.48v.12c-.01.18-.03.36-.05.56-.03.28-.06.59-.09.9Z" fill="#6c2273"/><path d="M31.15 34.76c-.17-.03-.27-.06-.36-.15l-2.12-2.2c-.19-.2-.19-.51.01-.71.2-.19.52-.19.71.01l1.76 1.83 3.91-3.91c.2-.2.51-.2.71 0s.2.51 0 .71l-4.27 4.27a.5.5 0 0 1-.35.15" fill="#000d6e"/></g></svg>