<svg xmlns="http://www.w3.org/2000/svg" viewBox="0 0 40 40" focusable="false" aria-hidden="true"><path fill="none" d="M0 0h40v40H0z"/><g><circle cx="32" cy="32" r="6" fill="#94e3d4"/><path d="M15.85 24.29v-.13c-.5.55-1.23.9-2.05.9s-1.55-.35-2.05-.9v.1c.02.26.04.52.07.79.33 3.18.66 3.94.66 3.94h2.63s.33-.76.66-3.94c.03-.27.05-.52.07-.77Z" fill="#000d6e"/><path d="M11.72 23.7c0 .15.02.3.03.46.5.55 1.23.9 2.05.9s1.55-.35 2.05-.9l.03-.46c.08-1.25.07-2.25.04-2.93-.03-.63-.07-.98-.07-.98V18.5c1.06-.7 1.86-1.92 2.18-3.39.04 0 .08.02.12.02.5 0 .91-.56.91-1.25 0-.57-.28-1.05-.66-1.2v.21c0 .07-.03.14-.07.19a.12.12 0 0 1-.05.05c-.03.03-.06.05-.1.06a.4.4 0 0 1-.11.02c-.18 0-.33-.15-.33-.33v-1.2l-.12-.18a4 4 0 0 0-.91-.99c-.67.29-1.55.43-2.59.08-.42-.14-.77-.3-1.05-.46-.26-.15-.47-.3-.64-.45-.63.1-1.15.28-1.57.45-.36.15-.65.3-.88.41-.06.22-.11.48-.13.81-.01.14-.02.29-.02.46v1.07c0 .18-.15.33-.33.33-.02 0-.04 0-.05-.01a.33.33 0 0 1-.27-.32v-.21c-.38.15-.66.63-.66 1.2 0 .69.41 1.25.91 1.25.06 0 .12 0 .18-.02.31 1.45 1.09 2.67 2.13 3.38h-.02v1.32s-.03.35-.06.98c-.03.68-.04 1.68.04 2.93Z" fill="#94e3d4"/><path d="M11.76 24.26v-.1l-.03-.46c-.08-1.25-.07-2.25-.04-2.93.03-.63.07-.98.07-.98l-.1.05L5.2 23.1c-.78.4-1.32 1.15-1.43 2.02l-.48 3.87h9.2s-.33-.76-.66-3.94c-.03-.27-.05-.54-.07-.79" fill="#1b5951"/><path d="M9.48 13.21s.03.01.05.01c.18 0 .33-.15.33-.33v-1.07c0-.16 0-.31.02-.46.03-.33.08-.6.13-.81.23-.11.52-.26.88-.41.42-.18.94-.35 1.57-.45.16.15.37.3.64.45.28.16.62.31 1.05.46 1.04.35 1.92.2 2.59-.08.39.3.68.64.91.99l.12.18v1.2000000000000002c0 .18.15.33.33.33.04 0 .07 0 .11-.02.04-.01.07-.03.1-.06l.05-.05c.04-.05.07-.12.07-.19v-1.42c.03-.85.04-1.76 0-2.2-.1-.94-1.86-3.29-4.6-3.29s-4.6 2.07-4.6 3.95v2.96c0 .16.12.29.27.32ZM28.03 26.24c.04-.35.09-.74.14-1.18.03-.27.05-.52.07-.77v-.13c-.5.55-1.23.9-2.05.9s-1.55-.35-2.05-.9v.1c.02.26.04.52.07.79.33 3.18.66 3.94.66 3.94h.81a7.06 7.06 0 0 1 2.35-2.76Z" fill="#000d6e"/><path d="M24.11 23.7c0 .15.02.3.03.46.5.55 1.23.9 2.05.9s1.55-.35 2.05-.9l.03-.46c.08-1.25.07-2.25.04-2.93-.03-.63-.07-.98-.07-.98V18.5c1.06-.7 1.86-1.92 2.18-3.39.04 0 .08.02.12.02.5 0 .91-.56.91-1.25 0-.57-.28-1.05-.66-1.2v.21c0 .07-.03.14-.07.19a.12.12 0 0 1-.05.05c-.03.03-.06.05-.1.06a.4.4 0 0 1-.11.02c-.18 0-.33-.15-.33-.33v-1.2l-.12-.18a4 4 0 0 0-.91-.99c-.67.29-1.55.43-2.59.08-.42-.14-.77-.3-1.05-.46-.26-.15-.47-.3-.64-.45-.63.1-1.15.28-1.57.45-.36.15-.65.3-.88.41-.06.22-.11.48-.13.81-.01.14-.02.29-.02.46v1.07c0 .18-.15.33-.33.33-.02 0-.04 0-.05-.01a.33.33 0 0 1-.27-.32v-.21c-.38.15-.66.63-.66 1.2 0 .69.41 1.25.91 1.25.06 0 .12 0 .18-.02.31 1.45 1.09 2.67 2.13 3.38h-.02v1.32s-.03.35-.06.98c-.03.68-.04 1.68.04 2.93Z" fill="#94e3d4"/><path d="M24.15 24.26v-.1l-.03-.46c-.08-1.25-.07-2.25-.04-2.93.03-.63.07-.98.07-.98l-.1.05-4.04 2.04-4.14-2.09s.04.35.07.98c.03.68.04 1.68-.04 2.93 0 .15-.02.3-.03.46v.13c-.02.25-.04.5-.07.77-.33 3.18-.66 3.94-.66 3.94h9.76s-.33-.76-.66-3.94c-.03-.27-.05-.54-.07-.79ZM28.28 23.7c0 .15-.02.3-.03.46v.13c-.02.25-.04.5-.07.77-.05.44-.09.83-.14 1.18a6.97 6.97 0 0 1 8.38.33l-.18-1.44a2.61 2.61 0 0 0-1.43-2.02l-6.56-3.31s.04.35.07.98c.03.68.04 1.68-.04 2.93Z" fill="#1b5951"/><path d="M21.87 13.21s.03.01.05.01c.18 0 .33-.15.33-.33v-1.07c0-.16 0-.31.02-.46.03-.33.08-.6.13-.81.23-.11.52-.26.88-.41.42-.18.94-.35 1.57-.45.16.15.37.3.64.45.28.16.62.31 1.05.46 1.04.35 1.92.2 2.59-.08.39.3.68.64.91.99l.12.18v1.2000000000000002c0 .18.15.33.33.33.04 0 .07 0 .11-.02.04-.01.07-.03.1-.06l.05-.05c.04-.05.07-.12.07-.19v-1.42c.03-.85.04-1.76 0-2.2-.1-.94-1.86-3.29-4.6-3.29s-4.6 2.07-4.6 3.95v2.96c0 .16.12.29.27.32ZM31.15 34.76c-.17-.03-.27-.06-.36-.15l-2.12-2.2c-.19-.2-.19-.51.01-.71.2-.19.52-.19.71.01l1.76 1.83 3.91-3.91c.2-.2.51-.2.71 0s.2.51 0 .71l-4.27 4.27a.5.5 0 0 1-.35.15" fill="#000d6e"/></g></svg>