<?xml version="1.0" encoding="UTF-8"?><svg xmlns="http://www.w3.org/2000/svg" viewBox="0 0 40 40" focusable="false" aria-hidden="true"><g id="uuid-7b55107b-ece1-4ac7-b2dd-65dc0df21641"><rect width="40" height="40" fill="none"/></g><g id="uuid-e855c998-e408-4a9a-b4c3-bb08d38fff3f"><g><path d="M11.12,24.37c-.02-.19-.03-.37-.04-.54,.01,.18,.03,.35,.04,.54Z" fill="none"/><path d="M11.37,26.6c.04,.26,.08,.54,.12,.82-.04-.28-.08-.56-.12-.82Z" fill="none"/><path d="M8.27,14.32h0s0,0,0-.01c0,0,0,0,0,.01Z" fill="none"/><path d="M14.63,26.6c-.04,.26-.08,.54-.12,.82,.04-.28,.08-.56,.12-.82Z" fill="none"/><path d="M11.23,25.49c.03,.25,.06,.51,.1,.79-.04-.27-.07-.54-.1-.79Z" fill="none"/><path d="M11.12,24.37c.03,.28,.06,.59,.09,.9-.03-.31-.07-.62-.09-.9Z" fill="none"/><path d="M9.43,16.57h0c-.02-.05-.04-.11-.06-.17,.02,.06,.04,.11,.06,.17Z" fill="none"/><path d="M11.03,23.09c0-.14-.01-.27-.02-.4,0,.13,.01,.26,.02,.4Z" fill="none"/><path d="M10.98,21.69c0-.36,0-.66,.02-.88-.01,.22-.02,.52-.02,.88Z" fill="none"/><path d="M11,22.55c0-.12,0-.24-.01-.36,0,.11,0,.23,.01,.36Z" fill="none"/><path d="M10.99,22.08c0-.11,0-.22,0-.32,0,.1,0,.21,0,.32Z" fill="none"/><path d="M11.06,23.71c-.01-.16-.02-.31-.03-.46,0,.15,.02,.3,.03,.46Z" fill="none"/><path d="M15,20.8c0,.13,.01,.28,.02,.45,0-.17,0-.32-.02-.45Z" fill="none"/><path d="M15.02,21.74c0,.1,0,.2,0,.31,0-.11,0-.21,0-.31Z" fill="none"/><path d="M14.96,20.29c0,.05,.02,.22,.04,.49-.01-.26-.03-.42-.04-.49Z" fill="none"/><path d="M15.01,22.18c0,.11,0,.23-.01,.36,0-.12,0-.24,.01-.36Z" fill="none"/><path d="M14.97,23.22c0,.15-.02,.31-.03,.48,.01-.17,.02-.32,.03-.48Z" fill="none"/><path d="M14.99,22.67c0,.13-.01,.27-.02,.41,0-.14,.01-.28,.02-.41Z" fill="none"/><path d="M14.88,24.38c-.03,.28-.06,.59-.09,.9,.03-.31,.07-.62,.09-.9Z" fill="none"/><path d="M14.93,23.82c-.01,.18-.03,.36-.05,.56,.02-.19,.03-.38,.05-.56Z" fill="none"/><path d="M14.77,25.49c-.03,.25-.06,.52-.1,.79,.04-.27,.07-.54,.1-.79Z" fill="none"/><path d="M15.02,21.35c0,.08,0,.17,0,.26,0-.09,0-.18,0-.26Z" fill="none"/><path d="M11.75,29c-.08-.43-.14-.84-.21-1.24,.06,.4,.13,.81,.21,1.24Z" fill="none"/><path d="M11.05,20.27v-.02s-.02,.19-.04,.56c.02-.31,.04-.5,.04-.54,0,0,0,0,0,0Z" fill="none"/><path d="M14.96,20.27s0,0,0,.01c0-.01,0-.02,0-.02h0s0,.01,0,.01Z" fill="none"/><path d="M17.76,14.25s0,0,0,0c0-.02,0-.03-.01-.05h0s0,.03,.01,.05c0,0,0,0,0,0Z" fill="none"/><path d="M14.25,29c.08-.43,.14-.84,.21-1.24-.06,.4-.13,.81-.21,1.24Z" fill="none"/><path d="M8.56,13.69s0-.01,.01-.02c0,0,0,.01-.01,.02Z" fill="none"/><path d="M17.62,13.88s-.01-.02-.02-.03c0,0,0,0,0,0s0,0,0,0c0,0,.01,.02,.02,.03h0Z" fill="none"/><path d="M9.93,17.65s0,0,0,0c.32,.54,.73,.99,1.19,1.33v.08s0-.08,0-.08c-.46-.34-.87-.79-1.19-1.33Z" fill="none"/><path d="M10.83,10.17c-.13,0-.26,.02-.38,.04h0c.12-.02,.25-.03,.38-.04,0,0,0,0,0,0Z" fill="none"/><path d="M11.26,10.2c-.14-.02-.29-.03-.42-.03h0c.13,0,.28,0,.42,.03h0Z" fill="none"/><path d="M10.33,10.23c-.09,.02-.17,.04-.26,.06h0c.08-.02,.17-.04,.26-.06,0,0,0,0,0,0Z" fill="none"/><path d="M17.39,13.6s0,0,.01,.01c0,0,0,0-.01-.01Z" fill="none"/><path d="M9.97,10.32c-.11,.03-.21,.07-.3,.11h0c.1-.04,.2-.08,.31-.11,0,0,0,0,0,0Z" fill="none"/><path d="M8.78,13.51s.03-.01,.04-.02c-.01,0-.03,.01-.04,.02Z" fill="none"/><path d="M11.73,10.3c-.07-.02-.13-.03-.19-.05,.06,.01,.13,.03,.19,.05,0,0,0,0,0,0Z" fill="none"/><polygon points="17.15 13.46 17.15 13.46 17.15 13.46 17.15 13.46 17.15 13.46" fill="none"/><path d="M14.51,27.42c.04-.28,.08-.56,.12-.82,.01-.11,.03-.21,.04-.32,.04-.27,.07-.54,.1-.79,0-.07,.02-.14,.02-.22,.03-.31,.07-.62,.09-.9,0,0,0,0,0,0-.46,.53-1.13,.88-1.88,.88s-1.42-.34-1.88-.88c0,0,0,0,0,0,.03,.28,.06,.59,.09,.9,0,.07,.02,.14,.02,.22,.03,.25,.06,.52,.1,.79,.01,.11,.03,.21,.04,.32,.04,.26,.08,.54,.12,.82,.02,.11,.03,.22,.05,.34,.06,.4,.13,.81,.21,1.24h2.5c.08-.43,.14-.84,.21-1.24,.02-.12,.03-.23,.05-.34Z" fill="#000d6e"/><path d="M11.49,27.42c-.04-.28-.08-.56-.12-.82-.01-.11-.03-.21-.04-.32-.04-.27-.07-.53-.1-.79,0-.07-.02-.15-.02-.22-.03-.32-.07-.62-.09-.9,0,0,0,0,0,0h0s0,0,0,0c-.02-.19-.03-.37-.04-.54,0-.04,0-.08,0-.13-.01-.16-.02-.31-.03-.46,0-.05,0-.1,0-.15,0-.14-.01-.27-.02-.4,0-.05,0-.09,0-.14,0-.12,0-.24-.01-.36,0-.04,0-.08,0-.12,0-.11,0-.22,0-.32,0-.02,0-.04,0-.06,0-.36,0-.66,.02-.88,0,0,0,0,0,0h0c.02-.38,.05-.56,.05-.56l-1.54,.78-4.69,2.37c-.74,.38-1.25,1.1-1.35,1.92l-.46,3.68H11.75c-.08-.43-.14-.84-.21-1.24-.02-.12-.03-.23-.05-.34Z" fill="#6c2273"/><path d="M11.12,19.06v-.08c-.47-.34-.87-.79-1.2-1.33,0,0,0,0,0,0-.2-.33-.36-.69-.49-1.07h0c-.02-.06-.04-.12-.06-.17-.06-.2-.12-.4-.16-.61-.05,.01-.1,.02-.15,.02-.46,0-.83-.53-.83-1.19,0-.11,.01-.21,.03-.3h0s0,0,0-.01c.05-.25,.15-.46,.29-.62,0,0,0-.01,.01-.02,.06-.07,.13-.12,.21-.16,.01,0,.03-.01,.04-.02,.08-.03,.16-.06,.25-.06,0,0,0,0,0,0,0-.83-.01-1.91-.02-2.25,0-.04,0-.36,.03-.48,.17-.08,.36-.18,.59-.27h0c.1-.04,.2-.08,.3-.11,0,0,0,0,0,0,.03-.01,.07-.02,.1-.03h0c.08-.02,.17-.04,.26-.06,0,0,0,0,0,0,.04,0,.08-.02,.12-.02h0c.12-.02,.25-.03,.38-.04,0,0,0,0,0,0,0,0,.01,0,.02,0h0c.13,0,.28,0,.42,.03h0c.09,.01,.19,.04,.28,.06,.06,.01,.13,.03,.19,.05,0,0,0,0,0,0,.21,.06,.42,.14,.64,.26,.31,.16,.64,.33,.99,.51,1.07,.54,2.24,1.12,2.96,1.47,.33,.16,.57,.28,.65,.32,0,.2,0,.39,0,.58,.06,0,.12,.01,.17,.03h0s0,0,0,0c.09,.03,.16,.08,.24,.14,0,0,0,0,.01,.01,.07,.07,.14,.15,.2,.24,0,0,0,0,0,0s0,0,0,0c0,0,.01,.02,.02,.03h0c.05,.1,.1,.2,.13,.32h0s0,.03,.01,.05c0,0,0,0,0,0,0,0,0,0,0,0,.03,.12,.05,.24,.05,.37,0,.66-.37,1.19-.83,1.19-.04,0-.08,0-.13-.02-.29,1.4-1.01,2.57-1.97,3.23l.08,1.22,2.74,1.38,2.01,1.02c.82-.56,1.22-1.2,.87-1.78-.59-.97-.83-2.97-1.2-4.95-.31-2.4-1.09-4.61-1.38-5.71-.44-1.68-1.75-3.56-4.94-3.67-2.35,0-4.31,1.47-4.7,3.1-.58,1.59-2.04,6.47,.21,10.39,.23,.41,.52,.75,.84,1.05l.11-.05,1.54-.78,.07-1.19Z" fill="#000d6e"/><path d="M16.85,15.8s.08,.02,.13,.02c.46,0,.83-.53,.83-1.19,0-.13-.02-.25-.05-.37,0-.02,0-.03-.01-.05-.03-.12-.08-.22-.13-.32,0,0-.01-.02-.02-.03-.06-.09-.12-.18-.2-.24,0,0,0,0-.01-.01-.07-.06-.15-.11-.24-.14,0,0,0,0,0,0-.06-.02-.11-.03-.17-.03,0-.18,0-.38,0-.58-.09-.04-.32-.16-.65-.32-.72-.35-1.89-.93-2.96-1.47-.35-.18-.68-.35-.99-.51-.22-.12-.44-.2-.64-.26-.07-.02-.13-.03-.19-.05-.09-.02-.19-.05-.28-.06-.14-.02-.29-.03-.42-.03,0,0-.01,0-.02,0-.13,0-.26,.02-.38,.04-.04,0-.08,.01-.12,.02-.09,.02-.17,.04-.26,.06-.03,0-.07,.02-.1,.03-.11,.03-.21,.07-.31,.11-.22,.09-.42,.19-.59,.27-.02,.12-.03,.44-.03,.48,0,.34,.01,1.42,.02,2.25,0,0,0,0,0,0-.09,0-.17,.02-.25,.06-.01,0-.03,.01-.04,.02-.08,.04-.15,.09-.21,.16,0,0,0,.01-.01,.02-.14,.15-.24,.37-.29,.62,0,0,0,0,0,.01-.02,.1-.03,.2-.03,.3,0,.66,.37,1.19,.83,1.19,.05,0,.1,0,.15-.02,.04,.21,.1,.41,.16,.61,.02,.06,.04,.12,.06,.17,.13,.38,.29,.74,.49,1.07,.33,.54,.73,.99,1.19,1.33v.08s-.07,1.19-.07,1.19v.02s0,0,0,0c0,.04-.02,.23-.04,.54h0s0,0,0,0c-.01,.22-.02,.52-.02,.88,0,.02,0,.04,0,.06,0,.1,0,.21,0,.32,0,.04,0,.08,0,.12,0,.11,0,.23,.01,.36,0,.05,0,.09,0,.14,0,.13,.01,.26,.02,.4,0,.05,0,.1,0,.15,0,.15,.02,.3,.03,.46,0,.04,0,.08,0,.13,.01,.18,.03,.35,.04,.54,0,0,0,0,0,0h0c.46,.53,1.13,.88,1.88,.88s1.42-.34,1.88-.88h0s0,0,0,0c.02-.19,.03-.38,.05-.56,0-.04,0-.08,0-.12,.01-.17,.02-.32,.03-.48,0-.05,0-.09,0-.14,0-.14,.01-.28,.02-.41,0-.05,0-.09,0-.14,0-.12,0-.24,.01-.36,0-.05,0-.09,0-.13,0-.11,0-.21,0-.31,0-.04,0-.08,0-.12,0-.09,0-.18,0-.26,0-.04,0-.07,0-.11,0-.17,0-.32-.02-.45,0,0,0-.01,0-.02,0,0,0,0,0,0-.02-.27-.03-.44-.04-.49,0,0,0,0,0,0,0,0,0,0,0,0,0,0,0,0,0-.01,0,0,0,0,0,0h0s0-.02,0-.02h0s-.08-1.22-.08-1.22c.96-.66,1.68-1.83,1.97-3.23Z" fill="#b8b2ff"/></g><g><path d="M25.12,24.37c-.02-.19-.03-.37-.04-.54,.01,.18,.03,.35,.04,.54Z" fill="none"/><path d="M25.37,26.6c.04,.26,.08,.54,.12,.82-.04-.28-.08-.56-.12-.82Z" fill="none"/><path d="M22.27,14.32h0s0,0,0-.01c0,0,0,0,0,.01Z" fill="none"/><path d="M25.23,25.49c.03,.25,.06,.51,.1,.79-.04-.27-.07-.54-.1-.79Z" fill="none"/><path d="M25.12,24.37c.03,.28,.06,.59,.09,.9-.03-.31-.07-.62-.09-.9Z" fill="none"/><path d="M23.43,16.57h0c-.02-.05-.04-.11-.06-.17,.02,.06,.04,.11,.06,.17Z" fill="none"/><path d="M25.03,23.09c0-.14-.01-.27-.02-.4,0,.13,.01,.26,.02,.4Z" fill="none"/><path d="M24.98,21.69c0-.36,0-.66,.02-.88-.01,.22-.02,.52-.02,.88Z" fill="none"/><path d="M25,22.55c0-.12,0-.24-.01-.36,0,.11,0,.23,.01,.36Z" fill="none"/><path d="M24.99,22.08c0-.11,0-.22,0-.32,0,.1,0,.21,0,.32Z" fill="none"/><path d="M25.06,23.71c-.01-.16-.02-.31-.03-.46,0,.15,.02,.3,.03,.46Z" fill="none"/><path d="M29,20.8c0,.13,.01,.28,.02,.45,0-.17,0-.32-.02-.45Z" fill="none"/><path d="M29.02,21.74c0,.1,0,.2,0,.31,0-.11,0-.21,0-.31Z" fill="none"/><path d="M28.96,20.29c0,.05,.02,.22,.04,.49-.01-.26-.03-.42-.04-.49Z" fill="none"/><path d="M29.01,22.18c0,.11,0,.23-.01,.36,0-.12,0-.24,.01-.36Z" fill="none"/><path d="M28.97,23.22c0,.15-.02,.31-.03,.48,.01-.17,.02-.32,.03-.48Z" fill="none"/><path d="M28.99,22.67c0,.13-.01,.27-.02,.41,0-.14,.01-.28,.02-.41Z" fill="none"/><path d="M28.88,24.38c-.03,.28-.06,.59-.09,.9,.03-.31,.07-.62,.09-.9Z" fill="none"/><path d="M28.93,23.82c-.01,.18-.03,.36-.05,.56,.02-.19,.03-.38,.05-.56Z" fill="none"/><path d="M29.02,21.35c0,.08,0,.17,0,.26,0-.09,0-.18,0-.26Z" fill="none"/><path d="M25.75,29c-.08-.43-.14-.84-.21-1.24,.06,.4,.13,.81,.21,1.24Z" fill="none"/><path d="M25.05,20.27v-.02s-.02,.19-.04,.56c.02-.31,.04-.5,.04-.54,0,0,0,0,0,0Z" fill="none"/><path d="M28.96,20.27s0,0,0,.01c0-.01,0-.02,0-.02h0s0,.01,0,.01Z" fill="none"/><path d="M31.76,14.25s0,0,0,0c0-.02,0-.03-.01-.05h0s0,.03,.01,.05c0,0,0,0,0,0Z" fill="none"/><path d="M22.56,13.69s0-.01,.01-.02c0,0,0,.01-.01,.02Z" fill="none"/><path d="M31.62,13.88s-.01-.02-.02-.03c0,0,0,0,0,0s0,0,0,0c0,0,.01,.02,.02,.03h0Z" fill="none"/><path d="M23.93,17.65s0,0,0,0c.32,.54,.73,.99,1.19,1.33v.08s0-.08,0-.08c-.46-.34-.87-.79-1.19-1.33Z" fill="none"/><path d="M24.83,10.17c-.13,0-.26,.02-.38,.04h0c.12-.02,.25-.03,.38-.04,0,0,0,0,0,0Z" fill="none"/><path d="M25.26,10.2c-.14-.02-.29-.03-.42-.03h0c.13,0,.28,0,.42,.03h0Z" fill="none"/><path d="M24.33,10.23c-.09,.02-.17,.04-.26,.06h0c.08-.02,.17-.04,.26-.06,0,0,0,0,0,0Z" fill="none"/><path d="M31.39,13.6s0,0,.01,.01c0,0,0,0-.01-.01Z" fill="none"/><path d="M23.97,10.32c-.11,.03-.21,.07-.3,.11h0c.1-.04,.2-.08,.31-.11,0,0,0,0,0,0Z" fill="none"/><path d="M22.78,13.51s.03-.01,.04-.02c-.01,0-.03,.01-.04,.02Z" fill="none"/><path d="M25.73,10.3c-.07-.02-.13-.03-.19-.05,.06,.01,.13,.03,.19,.05,0,0,0,0,0,0Z" fill="none"/><polygon points="31.15 13.46 31.15 13.46 31.15 13.46 31.15 13.46 31.15 13.46" fill="none"/><path d="M25.12,19.06v-.08c-.47-.34-.87-.79-1.2-1.33,0,0,0,0,0,0-.2-.33-.36-.69-.49-1.07h0c-.02-.06-.04-.12-.06-.17-.06-.2-.12-.4-.16-.61-.05,.01-.1,.02-.15,.02-.46,0-.83-.53-.83-1.19,0-.11,.01-.21,.03-.3h0s0,0,0-.01c.05-.25,.15-.46,.29-.62,0,0,0-.01,.01-.02,.06-.07,.13-.12,.21-.16,.01,0,.03-.01,.04-.02,.08-.03,.16-.06,.25-.06,0,0,0,0,0,0,0-.83-.01-1.91-.02-2.25,0-.04,0-.36,.03-.48,.17-.08,.36-.18,.59-.27h0c.1-.04,.2-.08,.3-.11,0,0,0,0,0,0,.03-.01,.07-.02,.1-.03h0c.08-.02,.17-.04,.26-.06,0,0,0,0,0,0,.04,0,.08-.02,.12-.02h0c.12-.02,.25-.03,.38-.04,0,0,0,0,0,0,0,0,.01,0,.02,0h0c.13,0,.28,0,.42,.03h0c.09,.01,.19,.04,.28,.06,.06,.01,.13,.03,.19,.05,0,0,0,0,0,0,.21,.06,.42,.14,.64,.26,.31,.16,.64,.33,.99,.51,1.07,.54,2.24,1.12,2.96,1.47,.33,.16,.57,.28,.65,.32,0,.2,0,.39,0,.58,.06,0,.12,.01,.17,.03h0s0,0,0,0c.09,.03,.16,.08,.24,.14,0,0,0,0,.01,.01,.07,.07,.14,.15,.2,.24,0,0,0,0,0,0s0,0,0,0c0,0,.01,.02,.02,.03h0c.05,.1,.1,.2,.13,.32h0s0,.03,.01,.05c0,0,0,0,0,0,0,0,0,0,0,0,.03,.12,.05,.24,.05,.37,0,.66-.37,1.19-.83,1.19-.04,0-.08,0-.13-.02-.29,1.4-1.01,2.57-1.97,3.23l.08,1.22,2.74,1.38,2.01,1.02c.82-.56,1.22-1.2,.87-1.78-.59-.97-.83-2.97-1.2-4.95-.31-2.4-1.09-4.61-1.38-5.71-.44-1.68-1.75-3.56-4.94-3.67-2.35,0-4.31,1.47-4.7,3.1-.58,1.59-2.04,6.47,.21,10.39,.23,.41,.52,.75,.84,1.05l.11-.05,1.54-.78,.07-1.19Z" fill="#000d6e"/><path d="M30.85,15.8s.08,.02,.13,.02c.46,0,.83-.53,.83-1.19,0-.13-.02-.25-.05-.37,0-.02,0-.03-.01-.05-.03-.12-.08-.22-.13-.32,0,0-.01-.02-.02-.03-.06-.09-.12-.18-.2-.24,0,0,0,0-.01-.01-.07-.06-.15-.11-.24-.14,0,0,0,0,0,0-.06-.02-.11-.03-.17-.03,0-.18,0-.38,0-.58-.09-.04-.32-.16-.65-.32-.72-.35-1.89-.93-2.96-1.47-.35-.18-.68-.35-.99-.51-.22-.12-.44-.2-.64-.26-.07-.02-.13-.03-.19-.05-.09-.02-.19-.05-.28-.06-.14-.02-.29-.03-.42-.03,0,0-.01,0-.02,0-.13,0-.26,.02-.38,.04-.04,0-.08,.01-.12,.02-.09,.02-.17,.04-.26,.06-.03,0-.07,.02-.1,.03-.11,.03-.21,.07-.31,.11-.22,.09-.42,.19-.59,.27-.02,.12-.03,.44-.03,.48,0,.34,.01,1.42,.02,2.25,0,0,0,0,0,0-.09,0-.17,.02-.25,.06-.01,0-.03,.01-.04,.02-.08,.04-.15,.09-.21,.16,0,0,0,.01-.01,.02-.14,.15-.24,.37-.29,.62,0,0,0,0,0,.01-.02,.1-.03,.2-.03,.3,0,.66,.37,1.19,.83,1.19,.05,0,.1,0,.15-.02,.04,.21,.1,.41,.16,.61,.02,.06,.04,.12,.06,.17,.13,.38,.29,.74,.49,1.07,.33,.54,.73,.99,1.19,1.33v.08s-.07,1.19-.07,1.19v.02s0,0,0,0c0,.04-.02,.23-.04,.54h0s0,0,0,0c-.01,.22-.02,.52-.02,.88,0,.02,0,.04,0,.06,0,.1,0,.21,0,.32,0,.04,0,.08,0,.12,0,.11,0,.23,.01,.36,0,.05,0,.09,0,.14,0,.13,.01,.26,.02,.4,0,.05,0,.1,0,.15,0,.15,.02,.3,.03,.46,0,.04,0,.08,0,.13,.01,.18,.03,.35,.04,.54,0,0,0,0,0,0h0c.46,.53,1.13,.88,1.88,.88s1.42-.34,1.88-.88h0s0,0,0,0c.02-.19,.03-.38,.05-.56,0-.04,0-.08,0-.12,.01-.17,.02-.32,.03-.48,0-.05,0-.09,0-.14,0-.14,.01-.28,.02-.41,0-.05,0-.09,0-.14,0-.12,0-.24,.01-.36,0-.05,0-.09,0-.13,0-.11,0-.21,0-.31,0-.04,0-.08,0-.12,0-.09,0-.18,0-.26,0-.04,0-.07,0-.11,0-.17,0-.32-.02-.45,0,0,0-.01,0-.02,0,0,0,0,0,0-.02-.27-.03-.44-.04-.49,0,0,0,0,0,0,0,0,0,0,0,0,0,0,0,0,0-.01,0,0,0,0,0,0h0s0-.02,0-.02h0s-.08-1.22-.08-1.22c.96-.66,1.68-1.83,1.97-3.23Z" fill="#b8b2ff"/></g><circle cx="32" cy="32" r="6" fill="#b8b2ff"/><g><path d="M25.21,25.28c0,.07,.02,.14,.02,.22,.03,.25,.06,.52,.1,.79,.01,.11,.03,.21,.04,.32,.04,.26,.08,.54,.12,.82,.02,.11,.03,.22,.05,.34,.06,.36,.12,.75,.19,1.14,.65-1.31,1.7-2.39,2.99-3.08,.01-.11,.03-.22,.04-.33,0-.07,.02-.14,.02-.22,.03-.31,.07-.62,.09-.9,0,0,0,0,0,0-.46,.53-1.13,.88-1.88,.88s-1.42-.34-1.88-.88c0,0,0,0,0,0,.03,.28,.06,.59,.09,.9Z" fill="#000d6e"/><path d="M25.54,27.76c-.02-.12-.03-.23-.05-.34-.04-.28-.08-.56-.12-.82-.01-.11-.03-.21-.04-.32-.04-.27-.07-.54-.1-.79,0-.07-.02-.15-.02-.22-.03-.31-.07-.62-.09-.9,0,0,0,0,0,0,0,0,0,0,0,0-.02-.19-.03-.37-.04-.54,0-.04,0-.08,0-.13-.01-.16-.02-.31-.03-.46,0-.05,0-.1,0-.15,0-.14-.01-.27-.02-.4,0-.05,0-.09,0-.14,0-.12,0-.24-.01-.36,0-.04,0-.08,0-.12,0-.11,0-.22,0-.32,0-.02,0-.04,0-.06,0-.36,0-.66,.02-.88,0,0,0,0,0,0h0c.02-.38,.05-.56,.05-.56l-1.54,.78-3.51,1.77-3.51-1.77-1.54-.78s0,0,0,.01h0s0,0,0,.02c0,0,0,0,0,0,0,0,0,0,0,0,0,.07,.02,.23,.04,.49h0s0,.01,0,.02c0,.13,.01,.28,.02,.45,0,.04,0,.07,0,.11,0,.08,0,.17,0,.26,0,.04,0,.08,0,.12,0,.1,0,.2,0,.31,0,.04,0,.09,0,.13,0,.11,0,.23-.01,.36,0,.05,0,.09,0,.14,0,.13-.01,.27-.02,.41,0,.04,0,.09,0,.14,0,.15-.02,.31-.03,.48,0,.04,0,.08,0,.12-.01,.18-.03,.36-.05,.56,0,0,0,0,0,0h0s0,0,0,0c-.03,.28-.06,.58-.09,.9,0,.07-.02,.14-.02,.22-.03,.25-.06,.52-.1,.79-.01,.1-.03,.21-.04,.32-.04,.26-.08,.54-.12,.82-.02,.11-.03,.22-.05,.34-.06,.4-.13,.81-.21,1.24h11.44s.03-.07,.05-.1c-.07-.39-.13-.77-.19-1.14Z" fill="#6c2273"/><path d="M28.79,25.28c0,.07-.02,.14-.02,.22-.01,.1-.03,.22-.04,.33,.98-.52,2.09-.82,3.27-.82,1.83,0,3.48,.71,4.73,1.86l-.19-1.53c-.1-.83-.61-1.55-1.35-1.92l-4.69-2.37-1.54-.78s0,0,0,.01h0s0,0,0,.02c0,0,0,0,0,0,0,0,0,0,0,0,0,.07,.02,.23,.04,.49h0s0,.01,0,.02c0,.13,.01,.28,.02,.45,0,.04,0,.07,0,.11,0,.08,0,.17,0,.26,0,.04,0,.08,0,.12,0,.1,0,.2,0,.31,0,.04,0,.09,0,.13,0,.11,0,.23-.01,.36,0,.05,0,.09,0,.14,0,.13-.01,.27-.02,.41,0,.04,0,.09,0,.14,0,.15-.02,.31-.03,.48,0,.04,0,.08,0,.12-.01,.18-.03,.36-.05,.56,0,0,0,0,0,0h0s0,0,0,0c-.03,.28-.06,.59-.09,.9Z" fill="#6c2273"/></g><path d="M31.15,34.76c-.17-.03-.27-.06-.36-.15l-2.12-2.2c-.19-.2-.19-.51,.01-.71,.2-.19,.52-.19,.71,.01l1.76,1.83,3.91-3.91c.2-.2,.51-.2,.71,0s.2,.51,0,.71l-4.27,4.27c-.09,.09-.22,.15-.35,.15Z" fill="#000d6e"/></g></svg>