<?xml version="1.0" encoding="iso-8859-1"?><!--Generator: Adobe Illustrator 26.2.1, SVG Export Plug-In . SVG Version: 6.00 Build 0)--><svg version="1.1" xmlns="http://www.w3.org/2000/svg" xmlns:xlink="http://www.w3.org/1999/xlink" x="0px" y="0px" viewBox="0 0 40 40" xml:space="preserve" enable-background="new 0 0 40 40" focusable="false" aria-hidden="true"><g id="Solid"><rect width="40" height="40" fill="none"/></g><g id="Icon_Tangerine"><g><path d="M27.067,3.229c-4.558-1.638-9.578-1.638-14.135,0L5,6.079v15.816C5,29.52,14.491,36.989,20.002,37
			C25.51,36.989,35,29.52,35,21.894V6.079L27.067,3.229z M27.24,19.954l-1.841,1.853L20,16.375L16.895,19.5L20,22.625l1.926-1.937
			l2.293,2.307l-3.767,3.791c0,0-0.001,0.001-0.001,0.001c-0.249,0.25-0.653,0.25-0.902-0.001l-6.788-6.831
			c0,0-0.001-0.001-0.001-0.001c-0.249-0.251-0.248-0.657,0.001-0.908l6.788-6.831c0,0,0.001-0.001,0.001-0.001
			c0.249-0.25,0.653-0.25,0.902,0.001l6.788,6.831c0,0,0.001,0.001,0.001,0.001C27.49,19.297,27.489,19.704,27.24,19.954z" fill="#FAE052"/><path d="M27.24,19.046l-6.788-6.831c-0.249-0.251-0.653-0.251-0.902-0.001c0,0-0.001,0.001-0.001,0.001
			l-6.788,6.831c-0.249,0.251-0.25,0.657-0.001,0.908c0,0,0.001,0.001,0.001,0.001l6.788,6.831c0.249,0.251,0.653,0.251,0.902,0.001
			c0,0,0.001-0.001,0.001-0.001l3.767-3.791l-2.293-2.307L20,22.625L16.895,19.5L20,16.375l5.399,5.432l1.841-1.853
			C27.489,19.704,27.49,19.297,27.24,19.046C27.24,19.046,27.24,19.046,27.24,19.046z" fill="#000D6E"/></g></g></svg>