<svg version="1.1" xmlns="http://www.w3.org/2000/svg" x="0px" y="0px" viewBox="0 0 40 40" xml:space="preserve" enable-background="new 0 0 40 40" focusable="false" aria-hidden="true"><path fill="none" d="M0 0h40v40H0z"/><g><path d="M27.067 3.229a20.94 20.94 0 0 0-14.135 0L5 6.079v15.816C5 29.52 14.491 36.989 20.002 37 25.51 36.989 35 29.52 35 21.894V6.079zm.173 16.725-1.841 1.853L20 16.375 16.895 19.5 20 22.625l1.926-1.937 2.293 2.307-3.767 3.791-.001.001a.635.635 0 0 1-.902-.001l-6.788-6.831-.001-.001a.645.645 0 0 1 .001-.908l6.788-6.831.001-.001a.635.635 0 0 1 .902.001l6.788 6.831.001.001a.644.644 0 0 1-.001.907" fill="#FFACA6"/><path d="m27.24 19.046-6.788-6.831a.635.635 0 0 0-.902-.001l-.001.001-6.788 6.831a.645.645 0 0 0-.001.908l.001.001 6.788 6.831a.635.635 0 0 0 .902.001l.001-.001 3.767-3.791-2.293-2.307L20 22.625 16.895 19.5 20 16.375l5.399 5.432 1.841-1.853a.644.644 0 0 0 0-.908" fill="#000D6E"/></g></svg>