<svg data-name="Calque 1" xmlns="http://www.w3.org/2000/svg" viewBox="0 0 40 40" focusable="false" aria-hidden="true"><path d="M0 0h40v40H0z" fill="none"/><path d="M6.94 23.01H5.03V31h1.91c.6 0 1.08-.49 1.08-1.08V24.1c0-.6-.49-1.08-1.08-1.08Z" fill="#aba5cd"/><path d="M34.95 26.23a1.49 1.49 0 0 0-1.47-1.22l-.3.03-7.19 1.73v.24c0 1.29-1.18 2-2 2h-8.98c-.28 0-.5-.22-.5-.5s.22-.5.5-.5h8.98c.28 0 1-.3 1-1v-1.07a.94.94 0 0 0-.43-.72s-.05-.04-.08-.05h-.01s-.05-.03-.07-.04-.02-.01-.03-.02h-.03v-.02s-.02 0-.03-.01h-.01l-.03-.01h-.01l-.03-.01h-.01c-.02 0-.05-.01-.07-.02s-.08-.01-.12-.01h-5.02c-.52-.01-1.01-.34-1.57-.72l-.09-.06h-.02s-.05-.05-.08-.07h-.02q-.105-.09-.21-.15h-.01l-.1-.08-.24-.15c-.39-.24-.8-.42-1.24-.56-.55-.13-1.12-.2-1.69-.2h-3.68c-.55 0-1 .45-1 1v5.98s0 .64 1 1 6.47 2.61 6.6 2.67c1.02.42 2.16.44 3.2.07.01 0 14.2-5.84 14.2-5.84.67-.26 1.06-.97.93-1.67Z" fill="#6c2273"/><path d="M23 15c2.76 0 5-2.24 5-5s-2.24-5-5-5-5 2.24-5 5 2.24 5 5 5m-2.49-4.85h.39v-.3h-.34l.06-.61h.4c.31-.9 1.18-1.5 2.14-1.46.73-.03 1.42.32 1.83.93l-.82.55c-.2-.38-.61-.6-1.04-.57-.43-.02-.83.2-1.06.55h1.19l-.06.61h-1.32v.3h1.28l-.06.6h-1.02c.24.36.64.57 1.07.55.43.03.83-.19 1.03-.57l.82.55c-.41.61-1.1.96-1.84.93a2.18 2.18 0 0 1-2.13-1.46h-.56l.06-.6ZM27.09 22h-8.18c-.5 0-.91.45-.91 1s.39.98.88.99h8.209999999999999c.5 0 .91-.45.91-1s-.41-1-.91-1ZM27.09 19h-8.18c-.5 0-.91.45-.91 1s.41 1 .91 1h8.18c.5 0 .91-.45.91-1s-.41-1-.91-1M27.09 16h-8.18c-.5 0-.91.45-.91 1 0 .46.28.82.66.94.08.03.16.06.25.06h8.18c.5 0 .91-.45.91-1s-.41-1-.91-1" fill="#000d6e"/></svg>