<svg xmlns="http://www.w3.org/2000/svg" viewBox="0 0 40 40" focusable="false" aria-hidden="true"><path fill="none" d="M0 0h40v40H0z"/><g><path d="M6.94 23.01H5.03V31h1.91c.6 0 1.08-.48 1.08-1.08V24.1c0-.6-.48-1.08-1.08-1.08Z" fill="#fae052"/><path d="M34.95 26.22A1.49 1.49 0 0 0 33.48 25l-.3.03-7.19 1.72v.24c0 1.29-1.18 2-2 2h-8.98c-.28 0-.5-.22-.5-.5s.22-.5.5-.5h8.98c.28 0 1-.3 1-1v-1.07a.94.94 0 0 0-.43-.72c-.02-.02-.05-.03-.07-.05h-.02c-.02-.01-.05-.03-.07-.04-.01 0-.02-.01-.04-.02-.01 0-.02-.01-.04-.01 0 0-.02 0-.03-.01h-.09c-.02 0-.04-.01-.07-.02-.05 0-.09-.01-.12-.01h-5.02c-.52-.01-1.01-.34-1.57-.72l-.09-.06s-.02-.01-.02-.02a.6.6 0 0 1-.08-.06s-.01 0-.02-.01c-.07-.05-.14-.09-.21-.14h-.01l-.1-.07-.24-.15c-.37-.22-.77-.42-1.24-.56-.56-.13-1.13-.2-1.69-.2h-3.68c-.55 0-1 .45-1 1v5.98s0 .64 1 1 6.47 2.61 6.6 2.67a4.5 4.5 0 0 0 3.2.07c.01 0 14.2-5.84 14.2-5.84.67-.26 1.06-.96.93-1.67Z" fill="#fa9319"/><path d="m24.51 11.18-2.74 2.73 2.73-2.72 2.73 2.72c.13.13.29.19.46.19-.16 0-.33-.06-.45-.19l-2.74-2.73Z" fill="none"/><path d="M28.32 11.16H26.3l1.85 1.85a.646.646 0 1 1-.92.91L24.5 11.2l-2.73 2.72c-.25.25-.66.25-.91 0a.646.646 0 0 1 0-.91l1.85-1.85h-2.02c-.29 0-6.11 8.33-2.48 11.88.57.55 1.32.93 2.17.93h8.25c.85 0 1.6-.37 2.17-.93 3.63-3.56-2.19-11.88-2.48-11.88m-6.85 9.02c.48 0 .76-.26.87-.67l.67.27c-.18.57-.7 1.06-1.53 1.06-.95 0-1.67-.71-1.67-1.69s.72-1.69 1.68-1.69c.84 0 1.35.51 1.53 1.06l-.67.27c-.11-.41-.4-.67-.88-.67-.56 0-.95.41-.95 1.03s.39 1.03.95 1.03m4.73.6h-.7v-1.35h-1.24v1.35h-.7v-3.25h.7v1.28h1.24v-1.28h.7zm2.95-2.65h-1.47v.72h1.29v.6h-1.29v1.32h-.7v-3.25h2.16v.6ZM28.83 6.14a.643.643 0 0 0-.63-.75h-7.46c-.4 0-.7.36-.63.75l.52 3.1h7.69l.52-3.1Z" fill="#fae052"/><path d="M20.86 13.91c.25.25.66.25.91 0l2.74-2.73 2.74 2.73c.12.12.29.19.45.19a.646.646 0 0 0 .46-1.1l-1.85-1.85-.64-.64h2.66V9.23h-7.69v1.28h2.73l-2.49 2.48c-.25.25-.25.66 0 .91Z" fill="#fa9319"/><path d="M21.46 18.13c.48 0 .76.27.88.67l.67-.27c-.17-.55-.69-1.06-1.53-1.06-.95 0-1.68.71-1.68 1.69s.72 1.69 1.67 1.69c.83 0 1.35-.5 1.53-1.06l-.67-.27c-.11.41-.39.67-.87.67-.56 0-.95-.41-.95-1.03s.39-1.03.95-1.03M25.5 18.81h-1.24v-1.28h-.7v3.25h.7v-1.35h1.24v1.35h.7v-3.25h-.7zM26.98 20.78h.7v-1.32h1.29v-.61h-1.29v-.72h1.47v-.6h-2.17z" fill="#000d6e"/></g></svg>