<svg version="1.1" xmlns="http://www.w3.org/2000/svg" x="0px" y="0px" viewBox="0 0 40 40" xml:space="preserve" focusable="false" aria-hidden="true" enable-background="new 0 0 40 40"><path fill="none" d="M0 0h40v40H0z"/><g><circle cx="13.125" cy="17.875" r="1.125" fill="none"/><path d="M23.5 32.75a1.25 1.25 0 0 0 2.5 0v-3.312a7.9 7.9 0 0 1-2.5.541zM12.5 32.75a1.25 1.25 0 0 0 2.5 0v-2.803a7.9 7.9 0 0 1-2.5-.721z" fill="#6C2273"/><path d="M33.5 18.5a.5.5 0 0 0-.5.5v1.144c0 .472-.425.856-.946.856H31.5c0-2.851-1.251-5.374-3.183-7.022q-.081-.073-.166-.144a9 9 0 0 0-.567-.416 8 8 0 0 0-.367-.24c-.083-.05-.159-.112-.244-.16q0 .012-.003.022c-.159-.09-.313-.188-.478-.266a7.9 7.9 0 0 0-3.4-.774h-6.388A4 4 0 0 0 13 9.5v3.06l-.008.002c-.076.03-.144.073-.219.105-.24.104-.478.214-.707.34-.134.074-.261.158-.39.239-.17.107-.338.216-.5.335a8.617 8.617 0 0 0-.821.688c-.117.11-.234.218-.344.335-.141.149-.272.309-.403.469-.083.101-.177.193-.256.298h.01A9.2 9.2 0 0 0 7.988 18H7.25C6.56 18 6 18.56 6 19.25v3.5c0 .69.56 1.25 1.25 1.25h.738c.772 2.336 2.412 4.228 4.512 5.225a7.9 7.9 0 0 0 3.4.775h7.2c.135 0 .266-.015.4-.022a7.9 7.9 0 0 0 2.5-.541c2.928-1.156 5.09-4.001 5.445-7.438h.608C33.127 22 34 21.167 34 20.144V19a.5.5 0 0 0-.5-.5m-20.375.5a1.125 1.125 0 1 1 0-2.25 1.125 1.125 0 0 1 0 2.25" fill="#B8B2FF"/><path d="M23.532 14.024h-6a.5.5 0 0 0 0 1h6a.5.5 0 0 0 0-1" fill="#000D6E"/></g></svg>