<?xml version="1.0" encoding="UTF-8"?><svg xmlns="http://www.w3.org/2000/svg" viewBox="0 0 40 40" focusable="false" aria-hidden="true"><g id="uuid-3cf53841-36e1-4fdd-b4f8-5fd4c0c5bf6d"><rect width="40" height="40" fill="none"/></g><g id="uuid-b1517fb9-0ef6-4da3-9dc5-95637acae617"><path d="M33.06,23.01h1.91v7.99h-1.91c-.6,0-1.08-.48-1.08-1.08v-5.82c0-.6,.48-1.08,1.08-1.08Z" fill="#ffaca6"/><path d="M5.05,26.22c.13-.71,.75-1.22,1.47-1.22l.3,.03,7.19,1.72v.24c0,1.29,1.18,2,2,2h8.98c.28,0,.5-.22,.5-.5,0-.28-.22-.5-.5-.5h-8.98c-.28,0-1-.3-1-1h0s0,0,0,0c0,0,0-.02,0-.03v-.97h0s0-.04,0-.06c0,0,0,0,0-.01,.02-.33,.21-.57,.43-.72,0,0,0,0,0,0,.02-.02,.05-.03,.07-.05,0,0,.01,0,.02,0,.02-.01,.05-.03,.07-.04,0,0,0,0,0,0,.01,0,.02-.01,.04-.02,.01,0,.02-.01,.04-.01,0,0,0,0,0,0,0,0,.02,0,.03-.01,0,0,0,0,.01,0,0,0,.02,0,.03,0,0,0,0,0,.01,0,0,0,.02,0,.03,0,0,0,0,0,.01,0,0,0,0,0,0,0,.02,0,.04-.01,.07-.02,0,0,0,0,0,0,.05,0,.09-.01,.12-.01h5.02s0,0,0,0c.52-.01,1.01-.34,1.57-.72,.03-.02,.06-.04,.09-.06,0,0,.02-.01,.02-.02,.03-.02,.06-.04,.08-.06,0,0,.01,0,.02-.01,.07-.05,.14-.09,.21-.14,0,0,0,0,.01,0,.03-.02,.07-.05,.1-.07h0c.08-.05,.16-.1,.24-.15,0,0,0,0,0,0,.37-.22,.77-.42,1.24-.56,.56-.13,1.13-.2,1.69-.2h3.41c.1,0,.19,0,.27,0,.55,0,1,.45,1,1v.99s0,2.99,0,2.99h0s0,.07,0,.11v1.88s0,.64-1,1c-1,.36-6.47,2.61-6.6,2.67-.54,.22-1.12,.33-1.69,.33-.51,0-1.02-.09-1.51-.26-.01,0-14.2-5.84-14.2-5.84-.67-.26-1.06-.96-.93-1.67Z" fill="#d9304c"/><path d="M15.49,11.18l2.74,2.73-2.73-2.72-2.73,2.72c-.13,.13-.29,.19-.46,.19,.16,0,.33-.06,.45-.19l2.74-2.73Z" fill="none"/><path d="M11.17,6.14c-.07-.39,.24-.75,.63-.75h7.46c.4,0,.7,.36,.63,.75l-.52,3.1h-7.69s-.52-3.1-.52-3.1Z" fill="#ffaca6"/><path d="M19.14,13.91c-.25,.25-.66,.25-.91,0l-2.74-2.73-2.74,2.73c-.12,.12-.29,.19-.45,.19-.17,0-.33-.06-.46-.19-.25-.25-.25-.66,0-.91l1.85-1.85,.64-.64h-2.66v-1.28h7.69v1.28h-2.73s2.49,2.48,2.49,2.48c.25,.25,.25,.66,0,.91Z" fill="#d9304c"/><path d="M11.68,11.16c.45,0,1.17,0,2.02,0l-1.85,1.85c-.25,.25-.25,.66,0,.91,.13,.13,.29,.19,.46,.19,.17,0,.33-.06,.46-.19l2.73-2.72,2.73,2.72c.25,.25,.66,.25,.91,0,.25-.25,.25-.66,0-.91l-1.85-1.85c.85,0,1.57,0,2.02,0,.29,0,6.11,8.33,2.48,11.88-.57,.55-1.32,.93-2.17,.93h-4.12s-4.12,0-4.12,0c-.85,0-1.6-.37-2.17-.93-3.63-3.56,2.19-11.88,2.48-11.88Z" fill="#ffaca6"/><g><path d="M15.08,16.98c0-.83-.62-1.5-1.49-1.5s-1.5,.67-1.5,1.5,.63,1.5,1.5,1.5,1.49-.66,1.49-1.5Zm-2.01,0c0-.3,.21-.55,.52-.55s.51,.25,.51,.55-.21,.55-.51,.55-.52-.24-.52-.55Z" fill="#000d6e"/><polygon points="16.72 15.57 13.11 21.95 14.27 21.94 17.9 15.56 16.72 15.57" fill="#000d6e"/><path d="M17.39,19.04c-.85,0-1.5,.67-1.5,1.5s.64,1.5,1.5,1.5,1.5-.67,1.5-1.5-.63-1.5-1.5-1.5Zm0,2.05c-.29,0-.51-.24-.51-.55s.21-.55,.51-.55,.51,.24,.51,.55-.21,.55-.51,.55Z" fill="#000d6e"/></g></g></svg>