<?xml version="1.0" encoding="UTF-8"?><svg id="Calque_1" data-name="Calque 1" xmlns="http://www.w3.org/2000/svg" viewBox="0 0 40 40" focusable="false" aria-hidden="true"><path d="M0,0H40V40H0V0Z" fill="none"/><g><path d="M20,15.04l-4.27,4.26,4.27-4.25,4.27,4.25c.19,.19,.45,.29,.71,.29-.26,0-.52-.11-.7-.29l-4.27-4.26Z" fill="none"/><path d="M25.95,15h-3.15s2.89,2.88,2.89,2.88c.38,.41,.36,1.04-.05,1.42-.39,.36-.99,.36-1.38,0l-4.27-4.25-4.27,4.25c-.38,.4-1.01,.42-1.42,.04s-.42-1.01-.04-1.42c.01-.01,.03-.03,.04-.04l2.89-2.88h-3.16c-.45,0-9.54,13-3.87,18.55,.89,.91,2.11,1.43,3.39,1.45h12.87c1.28-.02,2.49-.54,3.39-1.45,5.67-5.55-3.43-18.55-3.87-18.55Zm.8-7.83c.09-.54-.28-1.06-.82-1.15-.05,0-.11-.01-.16-.01H14.13c-.55,0-1,.45-1,1,0,.05,0,.11,.01,.16l.81,4.84h12l.81-4.84Z" fill="#f1d752"/><path d="M14.31,19.29c.39,.39,1.03,.39,1.42,0l4.27-4.26,4.27,4.26c.39,.4,1.02,.4,1.42,.01,.4-.39,.4-1.02,.01-1.42,0,0,0,0-.01-.01l-2.89-2.88-1-1h4.15v-2H13.95v2h4.26l-3.89,3.88c-.39,.39-.39,1.02,0,1.41,0,0,0,0,0,0Z" fill="#f18a19"/></g><path d="M20.5,25.9c.52-.04,1.02,.23,1.26,.69l1-.67c-.5-.74-1.34-1.16-2.23-1.13-1.17-.04-2.22,.68-2.61,1.78h-.49l-.07,.74h.42c0,.06,0,.12,0,.18,0,.06,0,.13,0,.19h-.47l-.07,.73h.68c.38,1.1,1.44,1.82,2.6,1.78,.89,.04,1.74-.39,2.24-1.14l-1-.67c-.24,.46-.74,.74-1.26,.7-.52,.02-1.02-.24-1.3-.68h1.25l.07-.73h-1.55c0-.06,0-.12,0-.19,0-.06,0-.12,0-.18h1.61l.07-.74h-1.44c.28-.44,.77-.69,1.3-.68Z" fill="#000d6e"/></svg>