<?xml version="1.0" encoding="iso-8859-1"?><!--Generator: Adobe Illustrator 26.2.1, SVG Export Plug-In . SVG Version: 6.00 Build 0)--><svg version="1.1" xmlns="http://www.w3.org/2000/svg" xmlns:xlink="http://www.w3.org/1999/xlink" x="0px" y="0px" viewBox="0 0 40 40" xml:space="preserve" focusable="false" aria-hidden="true" enable-background="new 0 0 40 40"><g id="Solid"><rect width="40" height="40" fill="none"/></g><g id="Icon_Green"><path d="M32.985,9H7.015C5.904,9,5,9.904,5,11.015v17.971C5,30.096,5.904,31,7.015,31h25.971
		C34.096,31,35,30.096,35,28.985V11.015C35,9.904,34.096,9,32.985,9z" fill="#1B5951"/><rect x="9.007" y="11" width="23.993" height="18" fill="#94E3D4"/><circle cx="7" cy="20" r="1" fill="#000D6E"/><g><path d="M19.539,23.843c-0.866,0-1.512,0.664-1.512,1.567c0,0.848,0.645,1.512,1.512,1.512
			c0.885,0,1.548-0.664,1.548-1.549C21.087,24.507,20.442,23.843,19.539,23.843z" fill="#000D6E"/><path d="M20.148,13.078c-2.194,0-3.742,1.216-4.148,3.06l2.562,0.83c0.129-0.756,0.682-1.272,1.419-1.272
			c0.719,0,1.18,0.387,1.18,1.124c0,1.659-2.802,2.083-2.802,4.774v0.682H20.7v-0.498c0-1.99,3.3-2.267,3.3-5.271
			C24,14.369,22.525,13.078,20.148,13.078z" fill="#000D6E"/></g></g></svg>