<svg version="1.1" xmlns="http://www.w3.org/2000/svg" x="0px" y="0px" viewBox="0 0 40 40" xml:space="preserve" focusable="false" aria-hidden="true" enable-background="new 0 0 40 40"><path fill="none" d="M0 0h40v40H0z"/><g><path d="M7.164 31.649a.5.5 0 0 1-.276-.917l3.336-2.208a.5.5 0 0 1 .552.834L7.44 31.566a.5.5 0 0 1-.276.083M32.836 31.649a.5.5 0 0 1-.276-.083l-3.336-2.208a.5.5 0 0 1 .552-.834l3.336 2.208a.502.502 0 0 1-.276.917M9.5 22.5h-4a.5.5 0 0 1 0-1h4a.5.5 0 0 1 0 1M10.5 14.5a.5.5 0 0 1-.276-.083l-3.336-2.208a.5.5 0 0 1 .552-.834l3.336 2.208a.5.5 0 0 1-.276.917M29.5 14.5a.5.5 0 0 1-.276-.917l3.336-2.208a.5.5 0 0 1 .552.834l-3.336 2.208a.5.5 0 0 1-.276.083M34.5 22.5h-4a.5.5 0 0 1 0-1h4a.5.5 0 0 1 0 1M20 11a.5.5 0 0 1-.5-.5v-4a.5.5 0 0 1 1 0v4a.5.5 0 0 1-.5.5" fill="#D9304C"/><path d="M20 34c-2.209 0-4-1.343-4-3h8c0 1.657-1.791 3-4 3" fill="#000D6E"/><path d="M27 20a7 7 0 1 0-14 0 6.96 6.96 0 0 0 1.286 4.034h-.005C16 26.055 16 28.108 16 28.108V30h8v-1.892s.016-1.72 1.338-3.586A6.97 6.97 0 0 0 27 20" fill="#FFACA6"/></g></svg>