<?xml version="1.0" encoding="iso-8859-1"?><!--Generator: Adobe Illustrator 26.2.1, SVG Export Plug-In . SVG Version: 6.00 Build 0)--><svg version="1.1" xmlns="http://www.w3.org/2000/svg" xmlns:xlink="http://www.w3.org/1999/xlink" x="0px" y="0px" viewBox="0 0 40 40" xml:space="preserve" focusable="false" aria-hidden="true" enable-background="new 0 0 40 40"><g id="Solid"><rect width="40" height="40" fill="none"/></g><g id="Icon_Green"><g><g><path d="M7.164,31.649c-0.162,0-0.32-0.079-0.417-0.224c-0.152-0.23-0.089-0.541,0.141-0.693l3.336-2.208
				c0.229-0.153,0.54-0.089,0.693,0.141c0.152,0.23,0.089,0.541-0.141,0.693L7.44,31.566C7.355,31.623,7.26,31.649,7.164,31.649z" fill="#1B5951"/><path d="M32.836,31.649c-0.096,0-0.191-0.026-0.276-0.083l-3.336-2.208
				c-0.229-0.152-0.293-0.463-0.141-0.693c0.153-0.229,0.465-0.294,0.693-0.141l3.336,2.208c0.229,0.152,0.293,0.463,0.141,0.693
				C33.156,31.57,32.998,31.649,32.836,31.649z" fill="#1B5951"/></g><path d="M9.5,22.5h-4C5.224,22.5,5,22.276,5,22s0.224-0.5,0.5-0.5h4c0.276,0,0.5,0.224,0.5,0.5
			S9.776,22.5,9.5,22.5z" fill="#1B5951"/><g><path d="M10.5,14.5c-0.096,0-0.191-0.026-0.276-0.083l-3.336-2.208c-0.229-0.152-0.293-0.463-0.141-0.693
				c0.153-0.23,0.465-0.293,0.693-0.141l3.336,2.208c0.229,0.152,0.293,0.463,0.141,0.693C10.82,14.421,10.662,14.5,10.5,14.5z" fill="#1B5951"/><path d="M29.5,14.5c-0.162,0-0.32-0.079-0.417-0.224c-0.152-0.23-0.089-0.541,0.141-0.693l3.336-2.208
				c0.229-0.152,0.539-0.09,0.693,0.141c0.152,0.23,0.089,0.541-0.141,0.693l-3.336,2.208C29.691,14.474,29.596,14.5,29.5,14.5z" fill="#1B5951"/></g><path d="M34.5,22.5h-4c-0.276,0-0.5-0.224-0.5-0.5s0.224-0.5,0.5-0.5h4c0.276,0,0.5,0.224,0.5,0.5
			S34.776,22.5,34.5,22.5z" fill="#1B5951"/><path d="M20,11c-0.276,0-0.5-0.224-0.5-0.5v-4C19.5,6.224,19.724,6,20,6s0.5,0.224,0.5,0.5v4
			C20.5,10.776,20.276,11,20,11z" fill="#1B5951"/><path d="M20,34L20,34c-2.209,0-4-1.343-4-3v0h8v0C24,32.657,22.209,34,20,34z" fill="#000D6E"/><path d="M27,20c0-3.866-3.134-7-7-7s-7,3.134-7,7c0,1.504,0.479,2.893,1.286,4.034h-0.005
			C16,26.055,16,28.108,16,28.108V30h8v-1.892c0,0,0.016-1.72,1.338-3.586C26.373,23.302,27,21.725,27,20z" fill="#94E3D4"/></g></g></svg>