<svg xmlns="http://www.w3.org/2000/svg" viewBox="0 0 40 40" focusable="false" aria-hidden="true"><path fill="none" d="M0 0h40v40H0z"/><g data-name="Icon Purple"><path d="M20 5A13.265 13.265 0 0 0 6.486 18h7.016a26 26 0 0 1 2.089-6.897A20.2 20.2 0 0 1 20 5M24.41 11.103A26 26 0 0 1 26.496 18h7.017A13.265 13.265 0 0 0 20 5a20.2 20.2 0 0 1 4.41 6.103" fill="#b8b2ff"/><path d="M24.41 11.103A20.2 20.2 0 0 0 20 5a20.2 20.2 0 0 0-4.41 6.103A26 26 0 0 0 13.503 18h12.995a26 26 0 0 0-2.088-6.897M19.5 32.004A2 2 0 0 1 17.504 34h-.315a2 2 0 0 1-1.997-1.996V30.5a.5.5 0 0 0-1 0v1.504A3 3 0 0 0 17.19 35h.315a3 3 0 0 0 2.996-2.996V30h-1Z" fill="#6c2273"/><path fill="#000d6e" d="M19.5 19v11h1V19z"/></g></svg>