<svg xmlns="http://www.w3.org/2000/svg" viewBox="0 0 40 40" focusable="false" aria-hidden="true"><g id="Solid"><rect width="40" height="40" fill="none"/></g><g id="Icon"><polygon points="27.93 12.84 30.17 12.84 30.17 15.65 31 16.59 31 6 28.76 6 29.76 11.04 27.93 12.84" fill="#1b5951"/><rect x="9" y="21" width="10" height="13" fill="#1b5951"/><rect x="21" y="21" width="10" height="13" fill="#1b5951"/><rect x="9" y="6" width="10" height="13" fill="#1b5951"/><polygon points="29.17 16.03 29.17 13.84 26.44 13.84 25.28 11.44 23.01 12.65 21 11.65 21 19 31 19 31 18.09 29.17 16.03" fill="#1b5951"/><polygon points="22.99 11.53 25.72 10.07 26.89 12.47 28.67 10.7 27.74 6 21 6 21 10.53 22.99 11.53" fill="#1b5951"/><path d="M26,18.75A6,6,0,0,0,25,22a5.93,5.93,0,0,0,.77,2.93A4.87,4.87,0,0,0,27,21.73,5.3,5.3,0,0,0,26,18.75Z" fill="#000d6e"/><path d="M36.25,24.9a6,6,0,0,0-.19-6.11,5.31,5.31,0,0,0-1,2.92A4.86,4.86,0,0,0,36.25,24.9Z" fill="#000d6e"/><path d="M34.06,21.71A6.46,6.46,0,0,1,35.42,18a6,6,0,0,0-8.83,0A6.38,6.38,0,0,1,28,21.73a5.89,5.89,0,0,1-1.61,4.05A6,6,0,0,0,31,28a6,6,0,0,0,4.68-2.24A5.89,5.89,0,0,1,34.06,21.71Z" fill="#000d6e"/><path d="M28,21.73a6.38,6.38,0,0,0-1.37-3.79,6.26,6.26,0,0,0-.63.81,5.3,5.3,0,0,1,1,3,4.87,4.87,0,0,1-1.19,3.2,5.54,5.54,0,0,0,.58.85A5.89,5.89,0,0,0,28,21.73Z" fill="#94e3d4"/><path d="M35.68,25.76a7.12,7.12,0,0,0,.57-.86,4.86,4.86,0,0,1-1.19-3.19,5.31,5.31,0,0,1,1-2.92,5.73,5.73,0,0,0-.64-.83,6.46,6.46,0,0,0-1.36,3.75A5.89,5.89,0,0,0,35.68,25.76Z" fill="#94e3d4"/></g></svg>