<svg xmlns="http://www.w3.org/2000/svg" viewBox="0 0 40 40" focusable="false" aria-hidden="true"><g id="Solid"><rect width="40" height="40" fill="none"/></g><g id="Icon_Green" data-name="Icon Green"><path d="M6.9383,23.0077H5.0267v7.9857H6.9383A1.0831,1.0831,0,0,0,8.0213,29.91V24.0908A1.0831,1.0831,0,0,0,6.9383,23.0077Z" fill="#1b5951"/><path d="M34.9474,26.2246a1.4974,1.4974,0,0,0-1.4715-1.22l-.2985.0317-7.1882,1.7249v.24a2.0566,2.0566,0,0,1-1.9964,1.9964H15.0089a.4991.4991,0,1,1,0-.9982h8.9839a1.0663,1.0663,0,0,0,.9982-.9982v0l-.0006,0,.0006-.0256v-.9728q0-.0327-.0021-.0644l-.001-.01a.9491.9491,0,0,0-.43-.7167l-.0081-.0054c-.0246-.0168-.05-.0327-.0746-.0472L24.46,25.15c-.0229-.0129-.0457-.0251-.0685-.0362l-.0064-.003-.0351-.0163-.0351-.0149-.006-.0026-.0265-.01-.014-.0054-.0283-.01-.0113-.0039-.026-.0079-.0126-.0038-.0076-.002c-.0226-.0063-.0445-.0116-.0655-.0159l-.0039-.0007a.63.63,0,0,0-.1206-.0134H18.9775l-.0006-.0005a3.12,3.12,0,0,1-1.5656-.7244l-.0928-.0634-.0226-.0153-.083-.0564-.0189-.0128q-.1035-.07-.2114-.14l-.01-.0067q-.0519-.0338-.105-.0675l-.0055-.0035c-.0766-.0485-.1551-.0969-.2356-.1445l-.0006,0a5.6384,5.6384,0,0,0-1.2361-.5577,7.4118,7.4118,0,0,0-1.6892-.203H10.0233A1.0038,1.0038,0,0,0,9.02,24.0116v3.9872h.0047c-.0028.0372-.0047.0746-.0047.1123v1.8841s-.001.6418.9972.9982,6.4683,2.6119,6.6018,2.6664a4.4889,4.4889,0,0,0,3.2007.0726c.0145-.0051,14.2007-5.8359,14.2007-5.8359A1.4976,1.4976,0,0,0,34.9474,26.2246Z" fill="#94e3d4"/><path d="M31.3347,7.61c-2.5648-1.5371-4.7828.0925-5.7908,1.0809a.7984.7984,0,0,1-1.1264,0c-1.008-.9884-3.2261-2.618-5.7908-1.0809-2.5944,1.5773-4.3549,6.5234.003,10.4086l5.8435,4.7775a.7966.7966,0,0,0,1.0149,0l5.8435-4.7775C35.69,14.133,33.9291,9.1869,31.3347,7.61Z" fill="#000d6e"/></g></svg>