<svg xmlns="http://www.w3.org/2000/svg" viewBox="0 0 40 40" focusable="false" aria-hidden="true"><path fill="none" d="M0 0h40v40H0z"/><g data-name="Icon Red"><path d="M6.938 23.008H5.027v7.985h1.911a1.083 1.083 0 0 0 1.083-1.083v-5.82a1.083 1.083 0 0 0-1.083-1.082" fill="#d9304c"/><path d="M34.947 26.225a1.5 1.5 0 0 0-1.471-1.22l-.299.031-7.188 1.725v.24a2.057 2.057 0 0 1-1.996 1.997h-8.984a.5.5 0 1 1 0-.999h8.984a1.066 1.066 0 0 0 .998-.998v-.998q0-.033-.002-.065l-.001-.01a.95.95 0 0 0-.43-.716l-.008-.006-.075-.047-.015-.009-.068-.036-.007-.003-.035-.017-.035-.014-.006-.003-.027-.01-.014-.005-.028-.01-.011-.004-.026-.008-.013-.004-.007-.002-.066-.016h-.004a.6.6 0 0 0-.12-.014h-5.016a3.1 3.1 0 0 1-1.566-.725l-.093-.063-.022-.016-.083-.056-.019-.013q-.103-.07-.211-.14l-.01-.007-.105-.067-.006-.004a9 9 0 0 0-.236-.144 5.6 5.6 0 0 0-1.236-.558 7.4 7.4 0 0 0-1.69-.203h-3.677a1.004 1.004 0 0 0-1.003 1.004v3.987h.005a2 2 0 0 0-.005.112v1.884s-.001.642.997.998 6.469 2.612 6.602 2.667a4.5 4.5 0 0 0 3.2.072c.015-.005 14.201-5.835 14.201-5.835a1.5 1.5 0 0 0 .927-1.672" fill="#ffaca6"/><path d="M31.335 7.61c-2.565-1.537-4.783.093-5.791 1.08a.8.8 0 0 1-1.126 0c-1.008-.987-3.227-2.617-5.791-1.08-2.595 1.577-4.355 6.523.003 10.409l5.843 4.777a.8.8 0 0 0 1.015 0l5.844-4.777c4.358-3.886 2.597-8.832.003-10.409" fill="#000d6e"/></g></svg>