<svg xmlns="http://www.w3.org/2000/svg" viewBox="0 0 40 40" focusable="false" aria-hidden="true"><path fill="none" d="M0 0h40v40H0z"/><g><path d="M7.16 31.65a.49.49 0 0 1-.41-.22.5.5 0 0 1 .14-.7l3.33-2.21a.51.51 0 0 1 .7.15.5.5 0 0 1-.14.69l-3.34 2.21a.54.54 0 0 1-.28.08M32.84 31.65a.54.54 0 0 1-.28-.08l-3.34-2.21a.5.5 0 0 1-.14-.69.51.51 0 0 1 .7-.15l3.33 2.21a.5.5 0 0 1 .14.7.49.49 0 0 1-.41.22M9.5 22.5h-4a.5.5 0 0 1 0-1h4a.5.5 0 0 1 0 1M10.5 14.5a.6.6 0 0 1-.28-.08l-3.33-2.21a.5.5 0 0 1 .55-.83l3.34 2.2a.51.51 0 0 1 .14.7.52.52 0 0 1-.42.22M29.5 14.5a.52.52 0 0 1-.42-.22.51.51 0 0 1 .14-.7l3.34-2.2a.5.5 0 1 1 .55.83l-3.33 2.21a.6.6 0 0 1-.28.08M34.5 22.5h-4a.5.5 0 0 1 0-1h4a.5.5 0 0 1 0 1M20 11a.5.5 0 0 1-.5-.5v-4a.5.5 0 0 1 1 0v4a.5.5 0 0 1-.5.5" fill="#fa9319"/><path d="M20 34c-2.21 0-4-1.34-4-3h8c0 1.66-1.79 3-4 3" fill="#000d6e"/><path d="M27 20a7 7 0 1 0-12.71 4A6.88 6.88 0 0 1 16 28.11V30h8v-1.89a7 7 0 0 1 1.34-3.59A7 7 0 0 0 27 20" fill="#fae052"/></g></svg>