<svg xmlns="http://www.w3.org/2000/svg" viewBox="0 0 40 40" focusable="false" aria-hidden="true"><path fill="none" d="M0 0h40v40H0z"/><g><path d="M9 32h22V12H9Z" fill="#fae052"/><path d="M35.41 12H32v20h3.41A1.59 1.59 0 0 0 37 30.41V13.59A1.59 1.59 0 0 0 35.41 12M3 13.59v16.82A1.59 1.59 0 0 0 4.59 32H8V12H4.59A1.59 1.59 0 0 0 3 13.59" fill="#fa9319"/><path d="M17 9.5a.5.5 0 0 1 .5-.5h5a.5.5 0 0 1 .5.5V11h1V9.5A1.5 1.5 0 0 0 22.5 8h-5A1.5 1.5 0 0 0 16 9.5V11h1Z" fill="#fae052"/><path fill="#000d6e" d="M19 14h2v2h-2z"/></g></svg>