<svg xmlns="http://www.w3.org/2000/svg" viewBox="0 0 40 40" focusable="false" aria-hidden="true"><path fill="none" d="M0 0h40v40H0z"/><g><path d="M8 22.5c0-1.34.52-2.59 1.46-3.54.2-.2.2-.51 0-.71s-.51-.2-.71 0c-1.13 1.13-1.76 2.64-1.76 4.24s.62 3.11 1.76 4.24a.485.485 0 0 0 .7 0c.2-.2.2-.51 0-.71-.94-.94-1.46-2.2-1.46-3.54Z" fill="#000d6e"/><path d="M10 22.5c0-.8.31-1.56.88-2.13.2-.2.2-.51 0-.71s-.51-.2-.71 0C9.41 20.42 9 21.42 9 22.49s.42 2.08 1.17 2.83a.485.485 0 0 0 .7 0c.2-.2.2-.51 0-.71-.57-.57-.88-1.32-.88-2.13Z" fill="#000d6e"/><path d="M12.3 21.08c-.2-.2-.51-.2-.71 0-.78.78-.78 2.06 0 2.84a.485.485 0 0 0 .7 0c.2-.2.2-.51 0-.71-.39-.39-.39-1.03 0-1.42.2-.2.2-.51 0-.71Z" fill="#000d6e"/><path d="M33.36 10H6.64C5.18 10 4 11.18 4 12.64v14.72C4 28.82 5.18 30 6.64 30h26.72c1.46 0 2.64-1.18 2.64-2.64V12.64c0-1.46-1.18-2.64-2.64-2.64M9.46 26.74a.485.485 0 0 1-.7 0C7.63 25.61 7 24.1 7 22.5s.62-3.11 1.76-4.24c.2-.2.51-.2.71 0s.2.51 0 .71c-.94.94-1.46 2.2-1.46 3.54s.52 2.59 1.46 3.54c.2.2.2.51 0 .71Zm1.42-1.41a.485.485 0 0 1-.7 0c-.76-.76-1.17-1.76-1.17-2.83s.42-2.08 1.17-2.83c.2-.2.51-.2.71 0s.2.51 0 .71c-.57.57-.88 1.32-.88 2.13s.31 1.56.88 2.13c.2.2.2.51 0 .71Zm1.41-2.12c.2.2.2.51 0 .71a.485.485 0 0 1-.7 0c-.78-.78-.78-2.06 0-2.84.2-.2.51-.2.71 0s.2.51 0 .71c-.39.39-.39 1.03 0 1.42ZM27.02 18c-1.66 0-3-1.34-3-3s1.34-3 3-3 3 1.34 3 3-1.34 3-3 3" fill="#94e3d4"/><circle cx="31" cy="15" r="3" fill="#1b5951"/></g></svg>