<svg version="1.1" xmlns="http://www.w3.org/2000/svg" x="0px" y="0px" viewBox="0 0 40 40" xml:space="preserve" focusable="false" aria-hidden="true" enable-background="new 0 0 40 40"><path fill="none" d="M0 0h40v40H0z"/><g><path d="M20.486 20.013c-.023-.339-.045-.537-.045-.537l.01-1.531c1.254-.829 2.199-2.284 2.577-4.032.046.008.092.019.139.019.598 0 1.082-.666 1.082-1.488 0-.677-.331-1.242-.781-1.422v.251a.38.38 0 0 1-.084.231.38.38 0 0 1-.307.159.39.39 0 0 1-.39-.39V10c0-.057-.005-.105-.006-.16-.042-.072-.091-.145-.138-.218a4.8 4.8 0 0 0-1.076-1.173c-.797.339-1.842.515-3.078.098a7 7 0 0 1-1.244-.544 4 4 0 0 1-.755-.536 8.3 8.3 0 0 0-1.862.536c-.423.177-.766.355-1.04.488a5.7 5.7 0 0 0-.157.965q-.018.254-.02.544v1.274a.39.39 0 0 1-.39.39c-.022 0-.042-.009-.063-.013a.385.385 0 0 1-.327-.377v-.251c-.45.18-.781.745-.781 1.422 0 .822.485 1.488 1.082 1.488a.8.8 0 0 0 .212-.029c.371 1.728 1.275 3.206 2.506 4.042v-.032l.008 1.562s-.022.204-.046.556c.666.742 1.364 1.197 2.467 1.197 1.129.001 1.809-.458 2.507-1.216" fill="#B8B2FF"/><path d="M12.858 11.651c.021.004.041.013.063.013a.39.39 0 0 0 .39-.39V10q.001-.29.022-.543c.031-.389.091-.707.157-.965.273-.133.617-.312 1.04-.488a8.4 8.4 0 0 1 1.862-.536c.194.177.44.358.755.536.334.189.74.374 1.244.544 1.236.417 2.281.241 3.078-.098.46.358.811.763 1.076 1.173.047.073.096.145.138.218.001.055.006.103.006.16v1.274c0 .215.175.39.39.39a.4.4 0 0 0 .307-.159.38.38 0 0 0 .084-.231V9.588c.034-1.01.053-2.091 0-2.612C23.355 5.854 21.254 3.07 18 3.07s-5.469 2.456-5.469 4.688v3.516c0 .193.143.346.327.377" fill="#000D6E"/><path d="M29.46 33.12v-.004zl-.043-.35-1.047-8.47c0-.417-.091-.769-.226-1.088l-.001-.004c-.542-1.279-2.039-1.864-3.662-2.328-.05-.03-.12-.03-.16-.05-1.09-.3-2.77-.61-3.83-.82-.7.76-1.38 1.22-2.51 1.22-1.1 0-1.8-.46-2.47-1.2l-.01-.01h-.01c-.48.09-1.33.28-2.12.45-.09.02-.17.03-.25.05-.86.19-1.6.36-1.62.37-.41.12-.82.24-1.2.38-1.5.56-2.69 1.37-2.69 3.04l-1.08 8.76-.011.03-.06.53c-.19 1.55.83 2.94 2.27 3.29l.15.03.23.03c.09.01.19.02.28.02h12.92v-.01h7.63z" fill="#6C2273"/><path d="M25.859 35c0-1.105-.898-2-2.005-2h-2.42l.445-.158a.5.5 0 0 0 .303-.639.497.497 0 0 0-.64-.303l-1.972.702-.229.082 2.107 4.302.006.014h2.4c.048 0 .094-.011.141-.014A1.996 1.996 0 0 0 25.859 35" fill="#B8B2FF"/><path d="M21.46 37H9.39c-.09 0-.19-.01-.28-.02-.04 0-.07 0-.11-.01s-.08-.01-.12-.02l-.15-.03c-1.32-.28-2.27-1.45-2.34-2.78-.02-.31.02-.64.11-.96l.02-.08.01-.03 3.77-11.8c.38-.14.79-.26 1.2-.38.02-.01.76-.18 1.62-.37.08-.02.16-.03.25-.05l5.97 12.2 2.11 4.3v.01z" fill="#000D6E"/></g></svg>