<svg xmlns="http://www.w3.org/2000/svg" viewBox="0 0 40 40" focusable="false" aria-hidden="true"><g id="Solid"><rect width="40" height="40" fill="none"/></g><g id="Icon"><path d="M13,16V27h.45l6-10.95-5-9H14a6.93,6.93,0,0,0-7,7V27h5V16Z" fill="#b8b2ff"/><path d="M26,7h-.43l-11,20H27V16h1V27h5V14.09A7,7,0,0,0,26,7Z" fill="#b8b2ff"/><polygon points="21.21 28 23.54 30.33 22.83 31.04 20 28.21 17.17 31.04 16.46 30.33 18.79 28 13 28 13 33 27 33 27 28 21.21 28" fill="#b8b2ff"/><polygon points="24.43 7 15.6 7 20.03 15.02 24.43 7" fill="#6c2273"/><polygon points="13 27 13 28 18.79 28 16.46 30.33 17.17 31.04 20 28.21 22.83 31.04 23.54 30.33 21.21 28 27 28 27 27 13 27" fill="#000d6e"/></g></svg>