<svg xmlns="http://www.w3.org/2000/svg" viewBox="0 0 40 40" focusable="false" aria-hidden="true"><path fill="none" d="M0 0h40v40"/><g data-name="Icon Tangerine"><path d="M34.506 4.364c-2.662-1.3-5.976 1.19-7.587 2.642-2.555-.62-5.222-.675-6.941-.675s-4.386.055-6.941.675c-1.61-1.453-4.925-3.942-7.587-2.642-2.75 1.344-.874 7.459.225 10.409-.233 3.314 1.234 6.784 3.198 9.132 2.341 2.8 7.653 6 11.105 6s8.764-3.2 11.105-6c1.963-2.348 3.43-5.818 3.197-9.132 1.1-2.95 2.977-9.065.226-10.409m-14.51 23.922c-1.895 0-3.45-2.339-3.45-3.182s1.537-2.114 3.432-2.114 3.431 1.27 3.431 2.114-1.518 3.182-3.413 3.182" fill="#fa9319"/><path d="M22.258 23.635c-.05.24-.46 1.92-.67 1.92-.27 0-.44-2.12-.46-2.4-.36-.1-.75-.16-1.15-.16-.39 0-.77.05-1.12.15 0 0-.04 2.54-.33 2.54-.23 0-.81-2.06-.81-2.06-.72.44-1.17 1.02-1.17 1.48 0 .84 1.55 3.18 3.45 3.18 1.89 0 3.41-2.34 3.41-3.18 0-.45-.44-1.03-1.15-1.47" fill="#fae052"/><circle cx="12.727947" cy="16.267939" r="1.25" fill="#fae052"/><circle cx="27.227947" cy="16.267939" r="1.25" fill="#fae052"/><path d="M10.09 36.227v-1.99a.5.5 0 1 0-1.003 0v1.99a.5.5 0 1 0 1.003 0M8.05 32.254a.5.5 0 0 0-.5-.501H5.557a.5.5 0 1 0 0 1.002H7.55a.5.5 0 0 0 .502-.501M8.731 33.763a.501.501 0 1 0-.709-.708l-1.654 1.654a.5.5 0 0 0 0 .709.5.5 0 0 0 .709 0z" fill="#000d6e"/><path d="M22.153 19.466c0 .603-1.002 1.91-2.203 1.91s-2.147-1.307-2.147-1.91.974-1.09 2.175-1.09 2.175.488 2.175 1.09" fill="#fae052"/><path d="M35.978 29.387c-1 .307-5.645 1.777-8.574-1.203-1.907-1.94-3.138-2.6-5.099-3.401-.094-.039-.208-.072-.32-.106-.135.453-.291.878-.397.878-.13 0-.238-.5-.316-1.045a7.4 7.4 0 0 0-1.145-.103q-.684-.005-1.333.07c-.047.614-.128 1.208-.267 1.208-.116 0-.327-.545-.505-1.075-5.998 1.124-9.631 6.901-9.631 6.901l1.75-.323-.389.81.49.286-.02 1.086c.864-1.87 3.124-3.83 3.155-3.87.616-.802 5.168-3.634 7.791-2.56 1.565.64 3.255 1.683 4.385 2.976 3.35 3.83 9.211 2.418 10.425 1.915z" fill="#000d6e"/></g></svg>