<svg xmlns="http://www.w3.org/2000/svg" viewBox="0 0 40 40" focusable="false" aria-hidden="true"><path fill="none" d="M0 0h40v40H0z"/><g><path d="M15.401 31.13c-.77-.28-1.982.384-2.683-.022a1.1 1.1 0 0 1-.344-.348L9.4 33.735l3.535 3.536 4.46-4.46c-.766-.21-1.26-1.414-1.993-1.68M27.281 31.109c-.7.405-1.912-.26-2.683.021-.732.267-1.226 1.471-1.992 1.68l4.46 4.46 3.535-3.535-2.976-2.976a1.1 1.1 0 0 1-.344.35M20 7.057c-6.308 0-11.44 5.132-11.44 11.44 0 4.344 2.434 8.13 6.01 10.067 1.617.875 3.466 1.373 5.43 1.373s3.813-.498 5.43-1.373c3.576-1.937 6.01-5.723 6.01-10.067 0-6.308-5.132-11.44-11.44-11.44m4.771 20.848c-1.435.73-3.053 1.152-4.771 1.152s-3.336-.421-4.771-1.152c-3.43-1.746-5.79-5.303-5.79-9.408 0-5.823 4.738-10.56 10.561-10.56s10.56 4.737 10.56 10.56c0 4.105-2.36 7.662-5.789 9.408" fill="#d9304c"/><path d="M23.401 21.134c-.662 0-1.121.527-1.121 1.19 0 .68.476 1.19 1.121 1.19.646 0 1.122-.51 1.122-1.19 0-.663-.459-1.19-1.122-1.19" fill="#ffaca6"/><path d="M20 7.938c-5.823 0-10.56 4.736-10.56 10.56 0 4.104 2.36 7.66 5.789 9.407 1.435.73 3.053 1.152 4.771 1.152s3.336-.421 4.771-1.152c3.43-1.746 5.79-5.303 5.79-9.408 0-5.823-4.738-10.56-10.561-10.56m-6.236 7.807c0-1.53 1.173-2.754 2.736-2.754 1.598 0 2.737 1.225 2.737 2.754 0 1.53-1.139 2.754-2.737 2.754-1.563 0-2.736-1.224-2.736-2.754m3.79 9.18-1.92.016 6.73-11.813 1.938-.018zm5.847.152c-1.58 0-2.736-1.223-2.736-2.754s1.156-2.753 2.736-2.753c1.599 0 2.737 1.224 2.737 2.753S25 25.077 23.401 25.077" fill="#ffaca6"/><path d="M17.622 15.745c0-.663-.459-1.19-1.122-1.19-.646 0-1.122.527-1.122 1.19 0 .68.476 1.19 1.122 1.19.663 0 1.122-.51 1.122-1.19" fill="#ffaca6"/><path d="M33.238 20.833c.138-.79 1.322-1.506 1.322-2.336s-1.184-1.545-1.322-2.335c-.142-.812.723-1.889.447-2.646-.28-.771-1.638-1.038-2.043-1.739-.41-.708.035-2.016-.488-2.639-.524-.624-1.89-.412-2.515-.937-.622-.522-.65-1.905-1.357-2.315-.701-.405-1.912.26-2.683-.022-.758-.275-1.258-1.566-2.07-1.708-.79-.138-1.7.901-2.529.901-.83 0-1.739-1.04-2.528-.9-.813.141-1.313 1.431-2.07 1.707-.771.28-1.982-.384-2.683.022-.708.41-.735 1.792-1.358 2.315-.624.524-1.99.312-2.514.936-.523.623-.08 1.932-.488 2.64-.406.7-1.764.967-2.044 1.738-.276.758.59 1.834.447 2.647-.138.79-1.322 1.506-1.322 2.335 0 .83 1.184 1.546 1.322 2.336.142.812-.723 1.888-.447 2.646.28.77 1.638 1.038 2.043 1.738.41.708-.035 2.017.488 2.64.524.623 1.89.412 2.515.936.5.42.62 1.387 1.013 1.967.097.142.205.267.344.348.701.406 1.912-.259 2.683.022.733.267 1.227 1.472 1.993 1.68.026.008.05.024.077.028.79.139 1.7-.9 2.529-.9.83 0 1.739 1.039 2.529.9.027-.004.051-.02.077-.027.766-.21 1.26-1.414 1.992-1.68.771-.281 1.982.383 2.683-.022.14-.081.248-.207.344-.35.393-.58.514-1.546 1.014-1.965.624-.524 1.99-.313 2.514-.937.523-.622.08-1.931.488-2.639.406-.7 1.764-.968 2.044-1.739.276-.758-.59-1.834-.447-2.646m-7.808 7.73c-1.617.876-3.466 1.374-5.43 1.374s-3.813-.498-5.43-1.373c-3.576-1.937-6.01-5.723-6.01-10.067 0-6.308 5.132-11.44 11.44-11.44s11.44 5.132 11.44 11.44c0 4.344-2.434 8.13-6.01 10.067" fill="#ffaca6"/><path fill="#000d6e" d="M22.365 13.128 15.633 24.94l1.921-.016 6.748-11.815zM23.401 19.57c-1.58 0-2.736 1.224-2.736 2.753s1.156 2.754 2.736 2.754c1.599 0 2.737-1.223 2.737-2.754S25 19.57 23.401 19.57m0 3.944c-.645 0-1.121-.51-1.121-1.19 0-.663.459-1.19 1.121-1.19.663 0 1.122.527 1.122 1.19 0 .68-.476 1.19-1.122 1.19M19.237 15.745c0-1.53-1.139-2.754-2.737-2.754-1.563 0-2.736 1.225-2.736 2.754 0 1.53 1.173 2.754 2.736 2.754 1.598 0 2.737-1.224 2.737-2.754m-3.859 0c0-.663.476-1.19 1.122-1.19.663 0 1.122.527 1.122 1.19 0 .68-.459 1.19-1.122 1.19-.646 0-1.122-.51-1.122-1.19"/></g></svg>