<?xml version="1.0" encoding="UTF-8"?><svg xmlns="http://www.w3.org/2000/svg" viewBox="0 0 40 40" focusable="false" aria-hidden="true"><g id="a"><rect width="40" height="40" fill="none"/></g><g id="b"><g><path d="M15.40143,31.13007c-.771-.28076-1.98248,.38361-2.68341-.02203-.13934-.08063-.24738-.20612-.34369-.34827l-2.9754,2.97559,3.53516,3.53516,4.45941-4.45966c-.76569-.20911-1.25977-1.41418-1.99207-1.68079Z" fill="#d9304c"/><path d="M27.28107,31.10858c-.70074,.40546-1.91199-.25909-2.6828,.02155-.73224,.26666-1.22632,1.47131-1.99182,1.68066l4.45947,4.45972,3.53516-3.53516-2.97571-2.97589c-.0965,.14252-.20465,.26837-.3443,.34912Z" fill="#d9304c"/><path d="M20,7.05664c-6.30811,0-11.43994,5.13281-11.43994,11.44043,0,4.34393,2.43439,8.12982,6.01025,10.06659,1.61646,.87549,3.46582,1.37384,5.42969,1.37384s3.81323-.49835,5.42969-1.37384c3.57587-1.93677,6.01025-5.72266,6.01025-10.06659,0-6.30762-5.13184-11.44043-11.43994-11.44043Zm4.77106,20.84833c-1.43506,.73071-3.05328,1.15167-4.77106,1.15167s-3.336-.42096-4.77106-1.15167c-3.42944-1.74615-5.789-5.30255-5.789-9.4079,0-5.82324,4.7373-10.55957,10.56006-10.55957s10.56006,4.73633,10.56006,10.55957c0,4.10535-2.35956,7.66174-5.789,9.4079Z" fill="#d9304c"/><path d="M23.40137,21.13379c-.6626,0-1.12158,.52734-1.12158,1.18945,0,.68066,.47607,1.19043,1.12158,1.19043,.646,0,1.12207-.50977,1.12207-1.19043,0-.66211-.45898-1.18945-1.12207-1.18945Z" fill="#ffaca6"/><path d="M20,7.9375c-5.82275,0-10.56006,4.73633-10.56006,10.55957,0,4.10535,2.35956,7.66174,5.789,9.4079,1.43506,.73071,3.05328,1.15167,4.77106,1.15167s3.336-.42096,4.77106-1.15167c3.42944-1.74615,5.789-5.30255,5.789-9.4079,0-5.82324-4.7373-10.55957-10.56006-10.55957Zm-6.23633,7.80762c0-1.5293,1.17285-2.75391,2.73633-2.75391,1.59814,0,2.73682,1.22461,2.73682,2.75391,0,1.53027-1.13867,2.75391-2.73682,2.75391-1.56348,0-2.73633-1.22363-2.73633-2.75391Zm3.79053,9.17969l-1.9209,.0166,6.73145-11.81348,1.9375-.01758-6.74805,11.81445Zm5.84717,.15234c-1.58057,0-2.73633-1.22363-2.73633-2.75391,0-1.5293,1.15576-2.75293,2.73633-2.75293,1.59814,0,2.73682,1.22363,2.73682,2.75293,0,1.53027-1.13867,2.75391-2.73682,2.75391Z" fill="#ffaca6"/><path d="M17.62207,15.74512c0-.66309-.45898-1.18945-1.12207-1.18945-.64551,0-1.12158,.52637-1.12158,1.18945,0,.67969,.47607,1.19043,1.12158,1.19043,.66309,0,1.12207-.51074,1.12207-1.19043Z" fill="#ffaca6"/><path d="M33.23785,20.83289c.13843-.78998,1.32214-1.5061,1.32214-2.33569,0-.82947-1.18372-1.54547-1.32208-2.33533-.14221-.81219,.72333-1.88855,.44751-2.64612-.28064-.77081-1.638-1.03796-2.04346-1.73877-.4093-.70752,.03479-2.01648-.48785-2.63867-.52411-.62402-1.89069-.41272-2.51465-.93683-.62219-.52271-.6499-1.90576-1.35742-2.31519-.70099-.40558-1.91241,.25879-2.68347-.02197-.75757-.27582-1.25745-1.56592-2.06958-1.70819-.78998-.13837-1.69934,.90106-2.52899,.90106-.82947,0-1.73871-1.03949-2.5285-.90112-.81226,.14221-1.31213,1.43231-2.06976,1.70813-.77081,.28064-1.98199-.38385-2.6828,.02161-.70752,.4093-.73523,1.7923-1.35748,2.31488-.62402,.52411-1.9906,.31268-2.51471,.93665-.52271,.62225-.0788,1.93127-.48816,2.63879-.40564,.70093-1.76312,.96826-2.04382,1.73932-.27582,.75757,.58966,1.83386,.44739,2.64606-.13837,.78998-1.32214,1.5061-1.32214,2.33569,0,.82947,1.18378,1.54547,1.32208,2.33533,.14227,.81219-.72327,1.88849-.44745,2.64612,.28064,.77075,1.638,1.03796,2.0434,1.73877,.40936,.70746-.03473,2.01642,.48785,2.63867,.52411,.62402,1.89069,.41266,2.51465,.93683,.49969,.41974,.62097,1.38727,1.01379,1.96686,.09631,.14215,.20435,.26764,.34369,.34827,.70093,.40564,1.91241-.25873,2.68341,.02203,.7323,.2666,1.22638,1.47168,1.99207,1.68079,.02637,.0072,.05054,.02264,.07758,.0274,.78998,.13837,1.69934-.90106,2.52893-.90106,.82947,0,1.73871,1.03943,2.52856,.90112,.02716-.00476,.05139-.02026,.07788-.02753,.7655-.20935,1.25958-1.414,1.99182-1.68066,.77081-.28064,1.98206,.38391,2.6828-.02155,.13965-.08075,.2478-.2066,.3443-.34912,.39233-.57971,.51379-1.54633,1.01324-1.96582,.62396-.52411,1.99054-.31262,2.51471-.93658,.52271-.62225,.07874-1.93127,.48816-2.63879,.40558-.70099,1.76306-.96832,2.04382-1.73932,.27582-.75757-.58972-1.83386-.44745-2.64606Zm-7.80817,7.73077c-1.61646,.87549-3.46582,1.37384-5.42969,1.37384s-3.81323-.49835-5.42969-1.37384c-3.57587-1.93677-6.01025-5.72266-6.01025-10.06659,0-6.30762,5.13184-11.44043,11.43994-11.44043s11.43994,5.13281,11.43994,11.44043c0,4.34393-2.43439,8.12982-6.01025,10.06659Z" fill="#ffaca6"/><polygon points="22.36475 13.12793 15.6333 24.94141 17.5542 24.9248 24.30225 13.11035 22.36475 13.12793" fill="#000d6e"/><path d="M23.40137,19.57031c-1.58057,0-2.73633,1.22363-2.73633,2.75293,0,1.53027,1.15576,2.75391,2.73633,2.75391,1.59814,0,2.73682-1.22363,2.73682-2.75391,0-1.5293-1.13867-2.75293-2.73682-2.75293Zm0,3.94336c-.64551,0-1.12158-.50977-1.12158-1.19043,0-.66211,.45898-1.18945,1.12158-1.18945,.66309,0,1.12207,.52734,1.12207,1.18945,0,.68066-.47607,1.19043-1.12207,1.19043Z" fill="#000d6e"/><path d="M19.23682,15.74512c0-1.5293-1.13867-2.75391-2.73682-2.75391-1.56348,0-2.73633,1.22461-2.73633,2.75391,0,1.53027,1.17285,2.75391,2.73633,2.75391,1.59814,0,2.73682-1.22363,2.73682-2.75391Zm-3.8584,0c0-.66309,.47607-1.18945,1.12158-1.18945,.66309,0,1.12207,.52637,1.12207,1.18945,0,.67969-.45898,1.19043-1.12207,1.19043-.64551,0-1.12158-.51074-1.12158-1.19043Z" fill="#000d6e"/></g></g></svg>