<svg version="1.1" xmlns="http://www.w3.org/2000/svg" x="0px" y="0px" viewBox="0 0 40 40" xml:space="preserve" focusable="false" aria-hidden="true" enable-background="new 0 0 40 40"><path fill="none" d="M0 0h40v40H0z"/><g><path d="M16.667 21.981c-.021-.3-.04-.475-.04-.475l.009-1.354c1.109-.733 1.944-2.02 2.279-3.565.041.007.081.017.123.017.529 0 .957-.589.957-1.316 0-.599-.293-1.098-.691-1.258v.222c0 .078-.03.146-.074.204a.322.322 0 0 1-.156.118.3.3 0 0 1-.115.023.345.345 0 0 1-.345-.345v-1.127c0-.05-.004-.093-.005-.141q-.057-.096-.122-.192a4.2 4.2 0 0 0-.952-1.037c-.705.3-1.629.455-2.722.087a6.3 6.3 0 0 1-1.1-.481 3.6 3.6 0 0 1-.668-.474c-.66.11-1.205.289-1.647.474-.374.156-.678.314-.919.432a5 5 0 0 0-.139.853q-.018.224-.019.48v1.127c0 .19-.154.345-.345.345-.02 0-.037-.008-.056-.011a.34.34 0 0 1-.289-.333v-.224c-.398.159-.691.659-.691 1.258 0 .727.429 1.316.957 1.316a.7.7 0 0 0 .188-.026c.328 1.528 1.145 2.807 2.234 3.546h-.018l.007 1.382s-.02.181-.041.492c.589.656 1.206 1.059 2.182 1.059.999 0 1.6-.406 2.218-1.076" fill="#FAE052"/><path d="M9.921 14.586c.019.003.036.011.056.011.19 0 .345-.154.345-.345v-1.127q.001-.256.019-.48c.027-.344.081-.625.139-.853.242-.118.545-.275.919-.432a7.4 7.4 0 0 1 1.647-.474 3.6 3.6 0 0 0 .668.474c.296.167.654.331 1.1.481 1.093.369 2.017.213 2.722-.087.407.317.718.675.952 1.037q.065.096.122.192c.001.048.005.091.005.141v1.127c0 .19.154.345.345.345q.06-.002.115-.023a.33.33 0 0 0 .156-.118.34.34 0 0 0 .074-.204v-1.489c.03-.893.047-1.849 0-2.31-.1-.992-1.958-3.454-4.836-3.454S9.633 9.17 9.633 11.143v3.109a.34.34 0 0 0 .288.334" fill="#000D6E"/><path d="M23.638 25.772c-.334-1.957-1.645-2.511-3.44-3.024-.044-.027-.106-.027-.141-.044-.964-.265-2.45-.539-3.387-.725l-.003.003c-.618.67-1.219 1.076-2.217 1.076-.975 0-1.593-.403-2.182-1.059l-.011-.011c-.531.106-1.22.239-1.901.38l5.3 10.822.203-.072 1.743-.62a.442.442 0 1 1 .298.833l-.394.14h2.14c.979 0 1.773.792 1.773 1.769 0 .934-.728 1.697-1.648 1.763h5.256zM5.297 25.772l-.982 7.8 3.352-10.479c-1.326.494-2.133.929-2.37 2.679" fill="#FA9319"/><path d="M21.418 35.237c0-.977-.794-1.769-1.773-1.769h-2.14l.394-.14a.44.44 0 0 0 .268-.565.44.44 0 0 0-.566-.268l-1.743.62-.203.072 1.863 3.805.005.008h2.123q.063-.001.125-.007a1.765 1.765 0 0 0 1.647-1.756" fill="#FAE052"/><path d="m15.655 33.189-5.3-10.822c-.522.106-1.035.221-1.45.336-.424.115-.849.239-1.238.389L4.316 33.571l-.018.071c-.08.283-.115.575-.097.849.062 1.256 1.017 2.343 2.308 2.503.115.017.23.006.345.006h10.674l-.005.006-.004-.013z" fill="#000D6E"/><path d="M35.804 37v-3.551c0-1.158-.512-1.86-1.444-2.342a6.5 6.5 0 0 0-1.313-.489l-2.106-.489-.002.002a2.17 2.17 0 0 1-1.814.974c-.129 0-.249-.026-.37-.047-.072-.012-.146-.017-.216-.037a2 2 0 0 1-.398-.158q-.052-.026-.103-.054a2.2 2.2 0 0 1-.729-.68l-.003.001-2.103.488a6.3 6.3 0 0 0-1.367.519c-.896.481-1.389 1.177-1.389 2.312V37z" fill="#FAE052"/><path d="M32.802 26.834c.152 0 .286-.08.405-.189-.12.109-.254.188-.408.188zM28.142 30.863l-.103-.054q.05.028.103.054M33.315 24.92c-.135-.175-.308-.29-.504-.294l-.004-.496-.003-.001.006.501c.195 0 .369.116.505.29M28.755 31.058c-.072-.012-.146-.018-.216-.037.07.02.144.024.216.037M32.533 26.756" fill="none"/><path d="M30.939 30.058v-.126l-.022-.332-.055-.786a4 4 0 0 0 .499-.368c.384-.331.704-.746.95-1.219.08-.153.16-.306.222-.472a.6.6 0 0 0 .248.072q.008.002.016.005l.002.001c.154 0 .288-.08.408-.188.216-.197.367-.527.367-.919 0-.32-.103-.604-.259-.806-.135-.175-.31-.29-.505-.29l-.006-.501c-.993-.287-3.051-.904-4.27-1.544-1.427-.749-2.457-.149-3.067.143l-.016.017.003.475v.007l.006 1.05.001.342c-.216 0-.409.125-.549.325-.14.201-.225.477-.225.782 0 .374.138.69.338.891l.011.008c.123.121.264.208.426.208.1 0 .199-.033.288-.089.075.206.168.4.27.586l.017.037q.022.032.043.063a3.94 3.94 0 0 0 1.287 1.35l-.055 1.317-.002.031.003-.001a2.25 2.25 0 0 0 .832.734q.189.1.398.158c.069.019.144.025.216.037.121.021.241.047.37.047.766 0 1.416-.385 1.814-.974v-.071z" fill="#FAE052"/><path d="m25.204 30.618 2.103-.488h.002v-.031l.055-1.317a3.94 3.94 0 0 1-1.287-1.35c-.013-.022-.03-.041-.043-.063q-.01-.018-.017-.037a4 4 0 0 1-.268-.582.6.6 0 0 1-.292.085c-.16 0-.301-.088-.423-.209l-.011-.008c-.2-.201-.338-.516-.338-.891 0-.304.086-.581.226-.782s.333-.325.549-.325l-.001-.342-.009-1.047v-.01l-.004-.471.004-.004.016-.017c.61-.292 1.641-.892 3.067-.143 1.218.64 3.276 1.257 4.27 1.544l.003.001.004.496c.195.004.369.119.504.294.156.202.259.486.259.806 0 .392-.151.722-.367.919-.119.109-.253.189-.405.189l-.003-.001-.002-.001q-.008-.002-.016-.005a.6.6 0 0 1-.248-.072 4 4 0 0 1-.222.472 4.04 4.04 0 0 1-1.449 1.587l.055.786.022.332v.198l.002-.002 2.106.489c.506.135.94.296 1.313.489v-6.235c0-.163-.025-.316-.036-.475a6.7 6.7 0 0 0-.354-1.776c-.02-.058-.047-.111-.069-.168-.082-.212-.164-.425-.266-.621a5 5 0 0 0-.449-.734q-.032-.055-.069-.108l-.078-.123c-.716-1.117-2.174-2.031-3.873-2.031-.042 0-.08.012-.122.013a4.7 4.7 0 0 0-1.627.341 4.75 4.75 0 0 0-1.659 1.095c-.251.213-.48.465-.691.74l-.049.06a5.6 5.6 0 0 0-.541.909l-.032.065a6 6 0 0 0-.319.897c-.018.063-.048.117-.064.181l-.009.034c-.05.196-.065.41-.097.615-.032.204-.082.399-.097.611-.011.158-.024.314-.024.475v6.265a6.4 6.4 0 0 1 1.37-.519" fill="#000D6E"/><path d="M33.356 37v-6.294l-.31-.088-2.108-.486a2.16 2.16 0 0 1-1.813.973 2.16 2.16 0 0 1-1.813-.973l-2.108.486-.31.088V37z" fill="#FA9319"/></g></svg>