<svg xmlns="http://www.w3.org/2000/svg" viewBox="0 0 40 40" focusable="false" aria-hidden="true"><path fill="none" d="M0 0h40v40H0z"/><g><path d="M22.5 8h-5a.5.5 0 1 0 0 1h5a.5.5 0 0 0 0-1" fill="none"/><path d="M13 31v1.974c0 .567.46 1.026 1.026 1.026h11.948c.567 0 1.026-.46 1.026-1.026V31z" fill="#1b5951"/><path fill="#94e3d4" d="M13 10h14v21H13z"/><path d="M26.064 7H13.936a.936.936 0 0 0-.936.936V10h14V7.936A.936.936 0 0 0 26.064 7M22.5 9h-5a.5.5 0 0 1 0-1h5a.5.5 0 1 1 0 1m1.988 0a.5.5 0 1 1 0-1 .5.5 0 0 1 0 1" fill="#1b5951"/><circle cx="24.4884" cy="8.5" r=".5" fill="#94e3d4"/><circle cx="20" cy="31" r="1" fill="#000d6e"/></g></svg>