<svg xmlns="http://www.w3.org/2000/svg" viewBox="0 0 40 40" focusable="false" aria-hidden="true"><g id="Solid"><rect width="40" height="40" fill="none"/></g><g id="Icon_Purple" data-name="Icon Purple"><path d="M22.5819,30.0649a.21.21,0,0,0-.2975,0l-2.238,2.2379a.21.21,0,0,0,0,.2976l1.2419,1.2419.7558-.7559-.6347-.6348,1.0238-1.0238,1.0237,1.0238-1.78,1.78.6072.6071a.21.21,0,0,0,.2975,0L24.82,32.6a.21.21,0,0,0,0-.2975Z" fill="#000d6e"/><path d="M13.11,29H13v6.25A1.75,1.75,0,0,0,14.75,37h10.5A1.75,1.75,0,0,0,27,35.25V29H13.11Zm11.71,3.6-2.238,2.238a.21.21,0,0,1-.2975,0l-.6072-.6071,1.78-1.78-1.0237-1.0238-1.0238,1.0238.6347.6348-.7558.7559L20.0464,32.6a.21.21,0,0,1,0-.2976l2.238-2.2379a.21.21,0,0,1,.2975,0l2.238,2.238A.21.21,0,0,1,24.82,32.6Z" fill="#b8b2ff"/><path d="M27,3H13a2.0017,2.0017,0,0,0-2,2.0035v21.993A2.0017,2.0017,0,0,0,13,29H27a2.0017,2.0017,0,0,0,2-2.0035V5.0035A2.0017,2.0017,0,0,0,27,3ZM20,18a1.5,1.5,0,1,1-1.5,1.5A1.5,1.5,0,0,1,20,18Zm-1.5-3.5A1.5,1.5,0,1,1,20,16,1.5,1.5,0,0,1,18.5,14.5ZM20,23a1.5,1.5,0,1,1-1.5,1.5A1.5,1.5,0,0,1,20,23Zm-5.5-5A1.5,1.5,0,1,1,13,19.5,1.5,1.5,0,0,1,14.5,18ZM13,14.5A1.5,1.5,0,1,1,14.5,16,1.5,1.5,0,0,1,13,14.5ZM14.5,23A1.5,1.5,0,1,1,13,24.5,1.5,1.5,0,0,1,14.5,23Zm11,3A1.5,1.5,0,1,1,27,24.5,1.5,1.5,0,0,1,25.5,26Zm0-5A1.5,1.5,0,1,1,27,19.5,1.5,1.5,0,0,1,25.5,21Zm0-5A1.5,1.5,0,1,1,27,14.5,1.5,1.5,0,0,1,25.5,16ZM27,8.9228a1,1,0,0,1-1,1H14a1,1,0,0,1-1-1V7.0055a1,1,0,0,1,1-1H26a1,1,0,0,1,1,1Z" fill="#6c2273"/><circle cx="14.5" cy="14.5" r="1.5" fill="#b8b2ff"/><circle cx="20" cy="19.5" r="1.5" fill="#b8b2ff"/><circle cx="20" cy="24.5" r="1.5" fill="#b8b2ff"/><circle cx="20" cy="14.5" r="1.5" fill="#b8b2ff"/><circle cx="25.5" cy="14.5" r="1.5" fill="#b8b2ff"/><circle cx="14.5" cy="19.5" r="1.5" fill="#b8b2ff"/><circle cx="25.5" cy="19.5" r="1.5" fill="#b8b2ff"/><circle cx="14.5" cy="24.5" r="1.5" fill="#b8b2ff"/><circle cx="25.5" cy="24.5" r="1.5" fill="#b8b2ff"/><rect x="13" y="6.0055" width="14" height="3.9173" rx="1" fill="#b8b2ff"/></g></svg>