<svg xmlns="http://www.w3.org/2000/svg" viewBox="0 0 40 40" focusable="false" aria-hidden="true"><path fill="none" d="M0 0h40v40H0z"/><g><path fill="#1b5951" d="M29 6h-4v2.306l4 3.688z"/><path d="m32.339 16.434-10.4-9.59a2.9 2.9 0 0 0-3.883.005L7.66 16.433l.339.368.339.367 10.39-9.58a1.9 1.9 0 0 1 2.538-.005l10.394 9.585.339-.367z" fill="#000d6e"/><path d="M18.354 22.525c0-.467-.324-.84-.792-.84-.455 0-.791.373-.791.84 0 .48.336.84.792.84.467 0 .791-.36.791-.84M22.432 26.327c-.468 0-.791.372-.791.84 0 .48.336.839.791.839s.792-.36.792-.839c0-.468-.324-.84-.792-.84" fill="#94e3d4"/><path d="M20.588 8.318a.895.895 0 0 0-1.19.013L10 16.997V34h20V16.997zm-4.956 14.207c0-1.079.827-1.943 1.93-1.943 1.128 0 1.932.864 1.932 1.943s-.804 1.943-1.932 1.943c-1.103 0-1.93-.864-1.93-1.943m1.32 6.489 4.749-8.335 1.367-.013-4.762 8.336zm5.48.095c-1.115 0-1.931-.863-1.931-1.942 0-1.08.816-1.943 1.931-1.943 1.128 0 1.93.863 1.93 1.943s-.802 1.942-1.93 1.942" fill="#94e3d4"/><path fill="#000d6e" d="m21.7 20.679-4.749 8.335 1.355-.012 4.762-8.336zM22.432 25.224c-1.115 0-1.931.863-1.931 1.943s.816 1.942 1.931 1.942c1.128 0 1.93-.863 1.93-1.942 0-1.08-.802-1.943-1.93-1.943m0 2.782c-.455 0-.791-.36-.791-.839 0-.468.323-.84.791-.84s.792.372.792.84c0 .48-.336.839-.792.839M19.494 22.525c0-1.079-.804-1.943-1.932-1.943-1.103 0-1.93.864-1.93 1.943s.827 1.943 1.93 1.943c1.128 0 1.932-.864 1.932-1.943m-2.723 0c0-.467.336-.84.791-.84.468 0 .792.373.792.84 0 .48-.324.84-.792.84-.455 0-.791-.36-.791-.84"/></g></svg>