<?xml version="1.0" encoding="UTF-8"?><svg xmlns="http://www.w3.org/2000/svg" viewBox="0 0 40 40" focusable="false" aria-hidden="true"><g id="a"><rect width="40" height="40" fill="none"/></g><g id="b"><g><polygon points="29 6 25 6 25 8.3058 29 11.9941 29 6" fill="#fa9319"/><path d="M32.3388,16.4335L21.9399,6.8438c-1.1059-.9922-2.7734-.9932-3.8842,.0048L7.6612,16.4335l-.0001,.0001,.3389,.3672,.3389,.3672L18.729,7.5879c.7241-.6514,1.8174-.6504,2.5376-.0049l10.3945,9.585,.3389-.3672,.3389-.3672-.0001-.0001Z" fill="#000d6e"/><g><path d="M18.35449,22.52539c0-.46777-.32422-.83984-.79199-.83984-.45557,0-.7915,.37207-.7915,.83984,0,.47949,.33594,.83984,.7915,.83984,.46777,0,.79199-.36035,.79199-.83984Z" fill="#fae052"/><path d="M22.43213,26.32715c-.46777,0-.7915,.37207-.7915,.83984,0,.47949,.33594,.83887,.7915,.83887s.7915-.35938,.7915-.83887c0-.46777-.32373-.83984-.7915-.83984Z" fill="#fae052"/><path d="M20.58844,8.31836c-.32965-.29688-.84821-.2959-1.19092,.0127l-9.39752,8.66583v17.00311H30V16.99689l-9.41156-8.67853Zm-4.9566,14.20703c0-1.0791,.82764-1.94336,1.93066-1.94336,1.12744,0,1.93115,.86426,1.93115,1.94336s-.80371,1.94238-1.93115,1.94238c-1.10303,0-1.93066-.86328-1.93066-1.94238Zm1.31934,6.48828l4.74951-8.33496,1.36719-.0127-4.76172,8.33594-1.35498,.01172Zm5.48096,.0957c-1.11523,0-1.93115-.86328-1.93115-1.94238,0-1.08008,.81592-1.94336,1.93115-1.94336,1.12744,0,1.93066,.86328,1.93066,1.94336,0,1.0791-.80322,1.94238-1.93066,1.94238Z" fill="#fae052"/></g><g><polygon points="21.70068 20.67871 16.95117 29.01367 18.30615 29.00195 23.06787 20.66602 21.70068 20.67871" fill="#000d6e"/><path d="M22.43213,25.22363c-1.11523,0-1.93115,.86328-1.93115,1.94336,0,1.0791,.81592,1.94238,1.93115,1.94238,1.12744,0,1.93066-.86328,1.93066-1.94238,0-1.08008-.80322-1.94336-1.93066-1.94336Zm0,2.78223c-.45557,0-.7915-.35938-.7915-.83887,0-.46777,.32373-.83984,.7915-.83984s.7915,.37207,.7915,.83984c0,.47949-.33594,.83887-.7915,.83887Z" fill="#000d6e"/><path d="M19.49365,22.52539c0-1.0791-.80371-1.94336-1.93115-1.94336-1.10303,0-1.93066,.86426-1.93066,1.94336s.82764,1.94238,1.93066,1.94238c1.12744,0,1.93115-.86328,1.93115-1.94238Zm-2.72266,0c0-.46777,.33594-.83984,.7915-.83984,.46777,0,.79199,.37207,.79199,.83984,0,.47949-.32422,.83984-.79199,.83984-.45557,0-.7915-.36035-.7915-.83984Z" fill="#000d6e"/></g></g></g></svg>