<svg xmlns="http://www.w3.org/2000/svg" viewBox="0 0 40 40" focusable="false" aria-hidden="true"><path fill="none" d="M0 0h40v40H0z"/><g><path fill="#6c2273" d="M2 34h36v3H2z"/><circle cx="8.84265968" cy="18.68811324" r="1.97275049" fill="#b8b2ff"/><path d="M6.462 18.07H5.454v.458H4.307a.23.23 0 1 0 0 .46h1.147v.458h1.008c-.057-.22-.09-.45-.09-.688s.033-.468.09-.688M13.368 18.528H12.22v-.458h-1.008c.057.22.09.45.09.688s-.033.467-.09.688h1.008v-.459h1.147a.23.23 0 1 0 0-.459" fill="#6c2273"/><circle cx="8.84265968" cy="18.68811324" r=".69046267" fill="#000d6e"/><path d="M7.235 27.844c0-.803.605-1.46 1.381-1.558v-5.16a2.36 2.36 0 0 1-1.56-.779h-.544c-.97 0-1.729.878-1.637 1.893l.58 6.4c.04.443.394.782.818.782h.962z" fill="#b8b2ff"/><path d="M11.197 20.347h-.544a2.36 2.36 0 0 1-1.56.779v5.16c.776.098 1.38.755 1.38 1.558v1.578h.963c.423 0 .778-.339.818-.782l.58-6.4c.091-1.015-.668-1.893-1.637-1.893" fill="#6c2273"/><path d="M8.842 29.027h-.79v1.184a.79.79 0 0 0 1.579 0v-1.184z" fill="#000d6e"/><path d="M8.842 26.7c-.654 0-1.184.53-1.184 1.183v1.184h2.367v-1.184c0-.653-.53-1.183-1.183-1.183" fill="#b8b2ff"/><circle cx="19.96641626" cy="18.68811324" r="1.97275049" fill="#b8b2ff"/><path d="M17.585 18.07h-1.007v.458H15.43a.23.23 0 1 0 0 .46h1.147v.458h1.007c-.057-.22-.09-.45-.09-.688s.033-.468.09-.688M24.491 18.528h-1.146v-.458h-1.008c.057.22.09.45.09.688s-.033.467-.09.688h1.008v-.459h1.146a.23.23 0 1 0 0-.459" fill="#6c2273"/><circle cx="19.96641626" cy="18.68811324" r=".69046267" fill="#000d6e"/><path d="M18.359 27.844c0-.803.604-1.46 1.38-1.558v-5.16a2.36 2.36 0 0 1-1.56-.779h-.544c-.969 0-1.728.878-1.636 1.893l.58 6.4c.04.443.394.782.818.782h.962z" fill="#b8b2ff"/><path d="M22.32 20.347h-.543a2.36 2.36 0 0 1-1.56.779v5.16c.776.098 1.38.755 1.38 1.558v1.578h.962c.424 0 .778-.339.819-.782l.58-6.4c.091-1.015-.668-1.893-1.637-1.893" fill="#6c2273"/><path d="M19.966 29.027h-.79v1.184a.79.79 0 0 0 1.579 0v-1.184z" fill="#000d6e"/><path d="M19.966 26.7c-.654 0-1.184.53-1.184 1.183v1.184h2.367v-1.184c0-.653-.53-1.183-1.183-1.183" fill="#b8b2ff"/><circle cx="31.09017283" cy="18.68811324" r="1.97275049" fill="#b8b2ff"/><path d="M28.71 18.07H27.7v.458h-1.146a.23.23 0 1 0 0 .46H27.7v.458h1.008c-.057-.22-.09-.45-.09-.688s.033-.468.09-.688M35.615 18.528h-1.147v-.458h-1.007c.057.22.09.45.09.688s-.033.467-.09.688h1.007v-.459h1.147a.23.23 0 1 0 0-.459" fill="#6c2273"/><circle cx="31.09017283" cy="18.68811324" r=".69046267" fill="#000d6e"/><path d="M29.483 27.844c0-.803.604-1.46 1.38-1.558v-5.16a2.36 2.36 0 0 1-1.56-.779h-.544c-.97 0-1.728.878-1.636 1.893l.58 6.4c.04.443.394.782.818.782h.962z" fill="#b8b2ff"/><path d="M33.445 20.347H32.9a2.36 2.36 0 0 1-1.56.779v5.16c.776.098 1.38.755 1.38 1.558v1.578h.962c.424 0 .778-.339.818-.782l.58-6.4c.092-1.015-.667-1.893-1.636-1.893" fill="#6c2273"/><path d="M31.09 29.027h-.79v1.184a.79.79 0 0 0 1.578 0v-1.184z" fill="#000d6e"/><path d="M31.09 26.7c-.654 0-1.184.53-1.184 1.183v1.184h2.367v-1.184c0-.653-.53-1.183-1.184-1.183" fill="#b8b2ff"/><path d="M2 10.01V34h36V10.01L20 2zM37 31H3V12h34z" fill="#b8b2ff"/></g></svg>