<?xml version="1.0" encoding="iso-8859-1"?><!--Generator: Adobe Illustrator 26.2.1, SVG Export Plug-In . SVG Version: 6.00 Build 0)--><svg version="1.1" xmlns="http://www.w3.org/2000/svg" xmlns:xlink="http://www.w3.org/1999/xlink" x="0px" y="0px" viewBox="0 0 40 40" xml:space="preserve" focusable="false" aria-hidden="true" enable-background="new 0 0 40 40"><g id="Solid"><rect width="40" height="40" fill="none"/></g><g id="Icon_Tangerine"><g><circle cx="20.011" cy="12.175" r="4.138" fill="#FAE052"/></g><path d="M15.017,10.878h-2.114v0.962h-2.405c-0.266,0-0.481,0.215-0.481,0.481s0.215,0.481,0.481,0.481
		h2.405v0.962h2.114c-0.12-0.462-0.19-0.944-0.19-1.443S14.897,11.34,15.017,10.878z" fill="#FA9319"/><path d="M29.502,11.84h-2.405v-0.962h-2.114c0.12,0.462,0.19,0.944,0.19,1.443s-0.07,0.981-0.19,1.443h2.114
		v-0.962h2.405c0.266,0,0.481-0.215,0.481-0.481S29.768,11.84,29.502,11.84z" fill="#FA9319"/><circle cx="20.011" cy="12.175" r="1.448" fill="#000D6E"/><path d="M16.639,31.38c0-1.684,1.268-3.062,2.897-3.269V17.288c-1.297-0.109-2.451-0.716-3.273-1.633h-1.141
		c-2.033,0-3.625,1.841-3.432,3.969l1.216,13.424c0.084,0.93,0.827,1.641,1.716,1.641h2.018v-0.828V31.38z" fill="#FAE052"/><path d="M24.95,15.655h-1.141c-0.821,0.917-1.976,1.524-3.273,1.633v10.823
		c1.629,0.206,2.897,1.585,2.897,3.269v2.483v0.828h2.018c0.889,0,1.632-0.711,1.716-1.641l1.216-13.424
		C28.575,17.496,26.983,15.655,24.95,15.655z" fill="#FA9319"/><g><path d="M20.009,33.862h-1.655v0.828v1.655c0,0.914,0.741,1.655,1.655,1.655s1.655-0.741,1.655-1.655V34.69
			v-0.828H20.009z" fill="#000D6E"/></g><g><path d="M20.009,28.98c-1.371,0-2.483,1.112-2.483,2.483v2.483h0.828h1.655h1.655h0.828v-2.483
			C22.492,30.092,21.38,28.98,20.009,28.98z" fill="#FAE052"/></g><g><path d="M14.938,3.04l-1.062,1.722v1.184h-0.619V4.762L12.195,3.04h0.694l0.677,1.187l0.677-1.187H14.938z" fill="#000D6E"/><path d="M14.544,4.846c0-0.66,0.493-1.154,1.191-1.154c0.694,0,1.191,0.494,1.191,1.154
			C16.927,5.502,16.429,6,15.736,6C15.037,6,14.544,5.502,14.544,4.846z M16.308,4.842c0-0.352-0.226-0.598-0.568-0.598
			s-0.573,0.246-0.573,0.602c0,0.352,0.23,0.603,0.573,0.603C16.074,5.448,16.308,5.197,16.308,4.842z" fill="#000D6E"/><path d="M18.703,3.742h0.619v2.203H18.74V5.736C18.586,5.896,18.36,6,18.097,6
			c-0.561,0-0.853-0.385-0.853-0.887V3.742h0.619v1.292c0,0.242,0.159,0.414,0.418,0.414c0.255,0,0.422-0.172,0.422-0.401V3.742z" fill="#000D6E"/><path d="M21.875,4.558v1.388H21.26V4.679c0-0.28-0.184-0.439-0.435-0.439c-0.247,0-0.439,0.176-0.443,0.401
			v1.305h-0.619V3.742h0.585v0.205c0.15-0.155,0.38-0.26,0.665-0.26C21.541,3.688,21.875,4.043,21.875,4.558z" fill="#000D6E"/><path d="M25.185,4.386c0,1.033-0.64,1.614-1.472,1.614c-0.87,0-1.505-0.64-1.505-1.506
			c0-0.873,0.644-1.509,1.505-1.509c0.715,0,1.179,0.418,1.354,0.882l-0.594,0.247c-0.113-0.335-0.38-0.539-0.773-0.539
			c-0.519,0-0.861,0.376-0.861,0.932c0,0.561,0.347,0.933,0.928,0.933c0.401,0,0.694-0.184,0.811-0.585h-0.882V4.386H25.185z" fill="#000D6E"/><path d="M25.422,4.846c0-0.66,0.493-1.154,1.191-1.154c0.694,0,1.191,0.494,1.191,1.154
			C27.805,5.502,27.307,6,26.614,6C25.915,6,25.422,5.502,25.422,4.846z M27.186,4.842c0-0.352-0.226-0.598-0.568-0.598
			s-0.573,0.246-0.573,0.602c0,0.352,0.23,0.603,0.573,0.603C26.952,5.448,27.186,5.197,27.186,4.842z" fill="#000D6E"/></g></g></svg>