<?xml version="1.0" encoding="UTF-8"?><svg xmlns="http://www.w3.org/2000/svg" viewBox="0 0 40 40" focusable="false" aria-hidden="true"><g id="Solid"><rect width="40" height="40" fill="none"/></g><g id="Icon_Green"><path d="M30.57783508,20.09502794c2.20560837,0,4,1.79438972,4,4s-1.79439163,4-4,4c-2.20561028,0-4-1.79438972-4-4s1.79438972-4,4-4m0-1c-2.76143074,0-5,2.23856926-5,5,0,2.7614193,2.23856926,5,5,5,2.7614212,0,5-2.2385807,5-5,0-2.76143074-2.2385788-5-5-5h0Z" fill="#000d6e"/><path d="M8.57470226,20.09502794c2.20561028,0,4,1.79438972,4,4s-1.79438972,4-4,4c-2.2056098,0-4-1.79438972-4-4s1.7943902-4,4-4m0-1c-2.76141977,0-5,2.23856926-5,5,0,2.7614193,2.23858023,5,5,5,2.76142025,0,5-2.2385807,5-5,0-2.76143074-2.23857975-5-5-5h0Z" fill="#000d6e"/><circle cx="17.71131953" cy="22.51814821" r="1.5" fill="#fa9319"/><g><path d="M30.5300293,23.08996583l-5.97003174-.28997803c-.09002686,.15002441-.16998291,.32000732-.26000977,.48999023-.22998047,.47003174-.47998047,1.01000977-.76000977,1.60998535-.07995605,.17004395-.15997314,.35003662-.23999023,.5300293l7.25-.60003662c.48999023,0,.86999512-.37994385,.86999512-.86999512,0-.47998047-.38995361-.86999512-.88995361-.86999512Z" fill="#94e3d4"/><path d="M24.65997314,21.67999269c.04003906-.08001709,.09002686-.16003418,.14001465-.23999023l.25-.41003418c.10998535-.19000244,.22003174-.34997559,.30999756-.5l.3059082-.5h-3.45587158c-1.39398193,0-2.64202881-.79046631-3.25854492-1.99517822h-5.56341553l1.67193604,6.4552002c.25,.83996582,1.0300293,1.51000977,1.90997314,1.51000977h5.5300293l1.77001953-3.69000244,.38995361-.63000488Z" fill="#94e3d4"/></g><path d="M10.02276843,13.00000001c.82842712,0,1.5,.67157288,1.5,1.5s-.67157288,1.5-1.5,1.5" fill="#1b5951"/><path d="M16.30224609,15.54589844h-2c-.27636719,0-.5-.22363281-.5-.5s.22363281-.5,.5-.5h2c.27636719,0,.5,.22363281,.5,.5s-.22363281,.5-.5,.5Z" fill="#000d6e"/><rect x="9.01757812" y="12.99316408" width="1" height="3.00683594" fill="#94e3d4"/><path d="M32.0300293,17.02996827c-1.0300293-.03997803-2,.04998779-2.88000488,.27001953-.19000244-1.2800293-1.30004883-2.27001953-2.63000488-2.27001953h-6.94866943c-.44470215-.70318604-1.14953613-1.16082764-2.09423828-1.16082764l-3.43035889-.21105957c-.89758301-.0916748-1.52471924,1.58660889-2.1239624,2.92498779l-3.91009521,7.19720459c-.13183594,.2421875-.04199219,.54589844,.20068359,.67773438,.07568359,.04101562,.15771484,.06054688,.23828125,.06054688,.17724609,0,.34912109-.09472656,.43994141-.26171875l3.92364502-7.2220459h6.81933594c.29852295,1.14587402,1.33642578,1.99517822,2.57543945,1.99517822h3.58062744c-.18823242,.18334961-.44744873,.48516846-.79064941,1-.34997559,.51000977-.77001953,1.2300415-1.28997803,2.2300415-.08001709,.15997314-.16003418,.31994629-.24005127,.48999023-.07995605,.15997314-.15997314,.32000732-.25,.48999023-.25,.51000977-.5199585,1.08996582-.80999756,1.72998047-.06994629,.15002441-.13995361,.29998779-.19995117,.46002197-.05999756,.11999512-.11004639,.23999023-.17004395,.36999512-.00994873,.02996826-.0199585,.05999756-.02996826,.09002686-.01000977,.02996826-.01000977,.06994629-.01000977,.10998535h1.07000732l7.47998047-.67004395c.76000977,0,1.36999512-.60998535,1.36999512-1.36999512,0-.75-.60998535-1.36999512-1.36999512-1.36999512l-5.73999023-.27996826c.13000488-.2300415,.23999023-.44000244,.34997559-.63000488,.04003906-.08001709,.09002686-.16003418,.14001465-.23999023,.08001709-.15002441,.16998291-.2800293,.25-.41003418,.10998535-.19000244,.22003174-.34997559,.30999756-.5,.64001465-.95001221,1.55999756-1.58996582,2.63000488-1.98999023l.20001221-.07000732c.15997314-.07000732,.32000732-.11999512,.48999023-.15997314,.84002686-.23999023,1.7800293-.33001709,2.80999756-.2800293,.2800293,.01000977,.51000977-.20001221,.52001953-.47998047,.01000977-.2800293-.21002197-.51000977-.47998047-.52001953Zm-1.4800415,6.55999756c.20001221,0,.36999512,.17004395,.36999512,.36999512,0,.21002197-.15997314,.36999512-.36999512,.36999512h-.08001709l-6.92999268,.57000732c.2800293-.59997559,.5300293-1.13995361,.76000977-1.60998535l.46002197,.02001953,5.78997803,.27996826Z" fill="#1b5951"/></g></svg>