<?xml version="1.0" encoding="UTF-8"?><svg xmlns="http://www.w3.org/2000/svg" viewBox="0 0 40 40" focusable="false" aria-hidden="true"><g id="Solid"><rect width="40" height="40" fill="none"/></g><g id="Icon_Purple"><rect x="2" y="34.00000001" width="36" height="3" fill="#6c2273"/><g><circle cx="8.84265968" cy="18.68811324" r="1.97275049" fill="#b8b2ff"/><path d="M6.46173086,18.0698655h-1.00781311v.45862873h-1.14657182c-.12674993,0-.22931436,.10256443-.22931436,.22931436s.10256443,.22931436,.22931436,.22931436h1.14657182v.45862873h1.00781311c-.05702067-.22032878-.09055566-.45003504-.09055566-.68794309s.03353499-.46761431,.09055566-.68794309Z" fill="#6c2273"/><path d="M13.3675251,18.52849422h-1.14657182v-.45862873h-1.00781311c.05702067,.22032878,.09055566,.45003504,.09055566,.68794309s-.03353499,.46761431-.09055566,.68794309h1.00781311v-.45862873h1.14657182c.12674993,0,.22931436-.10256443,.22931436-.22931436s-.10256443-.22931436-.22931436-.22931436Z" fill="#6c2273"/><circle cx="8.84265968" cy="18.68811324" r=".69046267" fill="#000d6e"/><path d="M7.23510136,27.84384881c0-.80268212,.60451606-1.45991242,1.38092534-1.55826097v-5.15985509c-.61836288-.05177507-1.16867165-.34133014-1.56023565-.7783358h-.54411984c-.96937376,0-1.72822768,.87759944-1.63633296,1.89236669l.57963995,6.39997633c.04016782,.4435558,.39445377,.78230923,.81816648,.78230923h.96195668v-1.57820039Z" fill="#b8b2ff"/><path d="M11.19709797,20.34739694h-.54409576c-.391564,.43700565-.94187277,.72656073-1.56023565,.7783358v5.15985509c.77640928,.09834855,1.38092534,.75557885,1.38092534,1.55826097v1.57820039h.96195668c.42371271,0,.77799866-.33875343,.81816648-.78230923l.57961586-6.39997633c.09191881-1.01476725-.66693512-1.89236669-1.63633296-1.89236669Z" fill="#6c2273"/><path d="M8.84175191,29.02724952h-.7891002v1.18365029c0,.43580158,.35329861,.7891002,.7891002,.7891002s.7891002-.35329861,.7891002-.7891002v-1.18365029h-.7891002Z" fill="#000d6e"/><path d="M8.84175191,26.6998324c-.65371441,0-1.18365029,.52993588-1.18365029,1.18365029v1.18365029h2.36730059v-1.18365029c0-.65371441-.52993588-1.18365029-1.18365029-1.18365029Z" fill="#b8b2ff"/></g><g><circle cx="19.96641626" cy="18.68811324" r="1.97275049" fill="#b8b2ff"/><path d="M17.58548743,18.0698655h-1.00781311v.45862873h-1.14657182c-.12674993,0-.22931436,.10256443-.22931436,.22931436s.10256443,.22931436,.22931436,.22931436h1.14657182v.45862873h1.00781311c-.05702067-.22032878-.09055566-.45003504-.09055566-.68794309s.03353499-.46761431,.09055566-.68794309Z" fill="#6c2273"/><path d="M24.49128168,18.52849422h-1.14657182v-.45862873h-1.00781311c.05702067,.22032878,.09055566,.45003504,.09055566,.68794309s-.03353499,.46761431-.09055566,.68794309h1.00781311v-.45862873h1.14657182c.12674993,0,.22931436-.10256443,.22931436-.22931436s-.10256443-.22931436-.22931436-.22931436Z" fill="#6c2273"/><circle cx="19.96641626" cy="18.68811324" r=".69046267" fill="#000d6e"/><path d="M18.35885794,27.84384881c0-.80268212,.60451606-1.45991242,1.38092534-1.55826097v-5.15985509c-.61836288-.05177507-1.16867165-.34133014-1.56023565-.7783358h-.54411984c-.96937376,0-1.72822768,.87759944-1.63633296,1.89236669l.57963995,6.39997633c.04016782,.4435558,.39445377,.78230923,.81816648,.78230923h.96195668v-1.57820039Z" fill="#b8b2ff"/><path d="M22.32085454,20.34739694h-.54409576c-.391564,.43700565-.94187277,.72656073-1.56023565,.7783358v5.15985509c.77640928,.09834855,1.38092534,.75557885,1.38092534,1.55826097v1.57820039h.96195668c.42371271,0,.77799866-.33875343,.81816648-.78230923l.57961586-6.39997633c.09191881-1.01476725-.66693512-1.89236669-1.63633296-1.89236669Z" fill="#6c2273"/><path d="M19.96550849,29.02724952h-.7891002v1.18365029c0,.43580158,.35329861,.7891002,.7891002,.7891002s.7891002-.35329861,.7891002-.7891002v-1.18365029h-.7891002Z" fill="#000d6e"/><path d="M19.96550849,26.6998324c-.65371441,0-1.18365029,.52993588-1.18365029,1.18365029v1.18365029h2.36730059v-1.18365029c0-.65371441-.52993588-1.18365029-1.18365029-1.18365029Z" fill="#b8b2ff"/></g><g><circle cx="31.09017283" cy="18.68811324" r="1.97275049" fill="#b8b2ff"/><path d="M28.70924401,18.0698655h-1.00781311v.45862873h-1.14657182c-.12674993,0-.22931436,.10256443-.22931436,.22931436s.10256443,.22931436,.22931436,.22931436h1.14657182v.45862873h1.00781311c-.05702067-.22032878-.09055566-.45003504-.09055566-.68794309s.03353499-.46761431,.09055566-.68794309Z" fill="#6c2273"/><path d="M35.61503825,18.52849422h-1.14657182v-.45862873h-1.00781311c.05702067,.22032878,.09055566,.45003504,.09055566,.68794309s-.03353499,.46761431-.09055566,.68794309h1.00781311v-.45862873h1.14657182c.12674993,0,.22931436-.10256443,.22931436-.22931436s-.10256443-.22931436-.22931436-.22931436Z" fill="#6c2273"/><circle cx="31.09017283" cy="18.68811324" r=".69046267" fill="#000d6e"/><path d="M29.48261451,27.84384881c0-.80268212,.60451606-1.45991242,1.38092534-1.55826097v-5.15985509c-.61836288-.05177507-1.16867165-.34133014-1.56023565-.7783358h-.54411984c-.96937376,0-1.72822768,.87759944-1.63633296,1.89236669l.57963995,6.39997633c.04016782,.4435558,.39445377,.78230923,.81816648,.78230923h.96195668v-1.57820039Z" fill="#b8b2ff"/><path d="M33.44461112,20.34739694h-.54409576c-.391564,.43700565-.94187277,.72656073-1.56023565,.7783358v5.15985509c.77640928,.09834855,1.38092534,.75557885,1.38092534,1.55826097v1.57820039h.96195668c.42371271,0,.77799866-.33875343,.81816648-.78230923l.57961586-6.39997633c.09191881-1.01476725-.66693512-1.89236669-1.63633296-1.89236669Z" fill="#6c2273"/><path d="M31.08926507,29.02724952h-.7891002v1.18365029c0,.43580158,.35329861,.7891002,.7891002,.7891002s.7891002-.35329861,.7891002-.7891002v-1.18365029h-.7891002Z" fill="#000d6e"/><path d="M31.08926507,26.6998324c-.65371441,0-1.18365029,.52993588-1.18365029,1.18365029v1.18365029h2.36730059v-1.18365029c0-.65371441-.52993588-1.18365029-1.18365029-1.18365029Z" fill="#b8b2ff"/></g><path d="M2,10.0107422v23.98925781H38V10.0107422L20,2.00000001,2,10.0107422ZM37,31.00000001H3V12.00000001H37V31.00000001Z" fill="#b8b2ff"/></g></svg>