<svg version="1.1" xmlns="http://www.w3.org/2000/svg" x="0px" y="0px" viewBox="0 0 40 40" xml:space="preserve" focusable="false" aria-hidden="true" enable-background="new 0 0 40 40"><path fill="none" d="M0 0h40v40H0z"/><g><path d="M26.367 4.734c1.426 0 2.347.921 2.347 2.347a.125.125 0 0 0 .25 0c0-1.426.921-2.347 2.347-2.347a.125.125 0 0 0 0-.25c-1.426 0-2.347-.921-2.347-2.347a.125.125 0 0 0-.25 0c0 1.426-.921 2.347-2.347 2.347a.125.125 0 0 0 0 .25M32.488 9.201c-1.081 0-1.78-.698-1.78-1.779a.125.125 0 0 0-.25 0c0 1.081-.698 1.779-1.779 1.779a.125.125 0 0 0 0 .25c1.081 0 1.779.698 1.779 1.779a.125.125 0 0 0 .25 0c0-1.081.699-1.779 1.78-1.779a.125.125 0 0 0 0-.25M28.09 8.058c-1.081 0-1.78-.698-1.78-1.779a.125.125 0 0 0-.25 0c0 1.081-.698 1.779-1.779 1.779a.125.125 0 0 0 0 .25c1.081 0 1.779.699 1.779 1.78a.125.125 0 0 0 .25 0c0-1.081.699-1.78 1.78-1.78a.125.125 0 0 0 0-.25" fill="#000D6E"/><path d="M30.228 20.034H9.772l-.977 3a4.2 4.2 0 0 0-.295 1.539v5.462h23v-5.462c0-.528-.1-1.051-.295-1.538zm-18.228 7a1.5 1.5 0 1 1 .001-3.001A1.5 1.5 0 0 1 12 27.034m16 0a1.5 1.5 0 1 1 .001-3.001A1.5 1.5 0 0 1 28 27.034M26.5 34.034a1 1 0 0 0 1 1h3a1 1 0 0 0 1-1v-3h-5zM8.5 34.034a1 1 0 0 0 1 1h3a1 1 0 0 0 1-1v-3h-5zM31 19.034h2a.5.5 0 0 0 .5-.5v-1a.5.5 0 0 0-.5-.5h-2a.5.5 0 0 0-.5.5v1a.5.5 0 0 0 .5.5M9.5 18.534v-1a.5.5 0 0 0-.5-.5H7a.5.5 0 0 0-.5.5v1a.5.5 0 0 0 .5.5h2a.5.5 0 0 0 .5-.5" fill="#1B5951"/><path d="M27.445 12.88c-.446-1.118-1.493-1.846-2.654-1.846h-9.583c-1.161 0-2.207.728-2.654 1.846l-2.457 6.154h19.806z" fill="#94E3D4"/></g></svg>