<svg version="1.1" xmlns="http://www.w3.org/2000/svg" x="0px" y="0px" viewBox="0 0 40 40" xml:space="preserve" focusable="false" aria-hidden="true" enable-background="new 0 0 40 40"><path fill="none" d="M0 0h40v40H0z"/><g><path d="M15 7a1 1 0 0 0-1-1h-3a1 1 0 0 0-1 1v1h2v1h1V8h2zM8 29.5a4.5 4.5 0 0 0 9 0V17H8z" fill="#D9304C"/><path d="M12.5 10A4.5 4.5 0 0 0 8 14.5V16h9v-1.5a4.5 4.5 0 0 0-4.5-4.5" fill="#FFACA6"/><path d="M26 7a1 1 0 0 0-1-1h-3a1 1 0 0 0-1 1v1h2v1h1V8h2zM19 29.5a4.5 4.5 0 0 0 9 0V17h-9z" fill="#D9304C"/><path d="M23.5 10a4.5 4.5 0 0 0-4.5 4.5V16h9v-1.5a4.5 4.5 0 0 0-4.5-4.5" fill="#FFACA6"/><path fill="#000D6E" d="M16 7h4v1h-4zM31 13.092V9.5C31 8.121 29.879 7 28.5 7H27v1h1.5c.827 0 1.5.673 1.5 1.5v3.592A1.496 1.496 0 0 0 30.5 16a1.495 1.495 0 0 0 .5-2.908"/></g></svg>