<svg version="1.1" xmlns="http://www.w3.org/2000/svg" x="0px" y="0px" viewBox="0 0 40 40" xml:space="preserve" focusable="false" aria-hidden="true" enable-background="new 0 0 40 40"><path fill="none" d="M0 0h40v40H0z"/><g><path d="M21.952 4.028c-1.654 0-3 1.346-3 3v26c0 1.654 1.346 3 3 3s3-1.346 3-3v-26c0-1.655-1.346-3-3-3M28.993 4.028c-1.654 0-3 1.346-3 3v26c0 1.654 1.346 3 3 3s3-1.346 3-3v-26c0-1.655-1.346-3-3-3" fill="#94E3D4"/><path d="M20 16.982c0-.275.225-.5.5-.5h3c.275 0 .5.225.5.5s-.225.5-.5.5h-3a.5.5 0 0 1-.5-.5M20 21.97c0-.275.225-.5.5-.5h3c.275 0 .5.225.5.5s-.225.5-.5.5h-3a.5.5 0 0 1-.5-.5M27 16.982c0-.275.225-.5.5-.5h3c.275 0 .5.225.5.5s-.225.5-.5.5h-3a.5.5 0 0 1-.5-.5M27 21.97c0-.275.225-.5.5-.5h3c.275 0 .5.225.5.5s-.225.5-.5.5h-3a.5.5 0 0 1-.5-.5M16.948 33h-.939V13h-1v20h-.998a.5.5 0 0 0 0 1h.998v1.496c0 .275.225.5.5.5s.5-.225.5-.5V34h.939a.5.5 0 0 0 0-1" fill="#1B5951"/><path d="M15.492 7a.5.5 0 0 0-.5.5v4.498h1V7.5a.5.5 0 0 0-.5-.5" fill="#000D6E"/><path d="M11.989 33h-1.005V13h-1v20h-.932a.5.5 0 0 0 0 1h.933v1.537c0 .275.225.5.5.5s.5-.225.5-.5V34h1.005a.5.5 0 1 0-.001-1" fill="#1B5951"/><path d="M10.485 7a.5.5 0 0 0-.5.5v4.498h1V7.5a.5.5 0 0 0-.5-.5" fill="#000D6E"/></g></svg>