<svg xmlns="http://www.w3.org/2000/svg" viewBox="0 0 40 40" focusable="false" aria-hidden="true"><path fill="none" d="M0 0h40v40H0z"/><g><rect x="3.45559403" y="21.31109303" width="9" height="16" rx="1" ry="1" transform="translate(-6.05194921 2.36261657) rotate(-12.27961249)" fill="#6c2273"/><path fill="#b8b2ff" d="m2.356 24.741 8.794-1.914 2.34 10.749-8.795 1.914z"/><path d="M8.398 36.55a.5.5 0 0 1-.106-.988l1.955-.426a.5.5 0 0 1 .212.976l-1.954.426a.5.5 0 0 1-.107.012" fill="#000d6e"/><path d="M28 4.028c-1.654 0-3 1.345-3 3v26c0 1.654 1.346 3 3 3s3-1.346 3-3v-26c0-1.655-1.346-3-3-3M35 4.028c-1.654 0-3 1.345-3 3v26c0 1.654 1.346 3 3 3s3-1.346 3-3v-26c0-1.655-1.346-3-3-3" fill="#b8b2ff"/><rect x="26.04827881" y="16.48216739" width="4" height="1" rx=".5" ry=".5" fill="#6c2273"/><rect x="26.04827881" y="21.47028293" width="4" height="1" rx=".5" ry=".5" fill="#6c2273"/><rect x="33.00701904" y="16.48216739" width="4" height="1" rx=".5" ry=".5" fill="#6c2273"/><rect x="33.00701904" y="21.47028293" width="4" height="1" rx=".5" ry=".5" fill="#6c2273"/><path d="M23.5 33h-.94V13h-1v20h-.997a.5.5 0 1 0 0 1h.998v1.496c0 .275.225.5.5.5s.5-.225.5-.5V34h.939a.5.5 0 1 0 0-1" fill="#6c2273"/><path d="M22 7a.5.5 0 0 0-.5.5v4.498h1V7.5A.5.5 0 0 0 22 7" fill="#000d6e"/><path d="M20.163 34.995h-1.005v-20h-1v20h-.933a.5.5 0 1 0 0 1h.933v1.537c0 .276.225.5.5.5s.5-.224.5-.5v-1.537h1.005a.5.5 0 1 0 0-1" fill="#6c2273"/><path d="M18.658 8.995a.5.5 0 0 0-.5.5v4.498h1V9.495a.5.5 0 0 0-.5-.5" fill="#000d6e"/><path d="m2.773 11.232-.748 4.65c-.148.715.377 1.388 1.081 1.388h12.289c.704 0 1.228-.673 1.081-1.387l-.748-4.651" fill="#b8b2ff"/><path d="M4.773 7.236h8.955a2 2 0 0 1 2 2v1.996H2.773V9.236a2 2 0 0 1 2-2" fill="#6c2273"/><path d="M12.5 9.4V5.121C12.5 3.401 11.042 2 9.25 2S6 3.4 6 5.121v4.28a.99.99 0 0 0-.5.845v1.84c0 .55.45 1 1 1s1-.45 1-1v-1.84A.99.99 0 0 0 7 9.4V5.121C7 3.951 8.01 3 9.25 3s2.25.951 2.25 2.121v4.28a.99.99 0 0 0-.5.845v1.84c0 .55.45 1 1 1s1-.45 1-1v-1.84a.99.99 0 0 0-.5-.846" fill="#b8b2ff"/></g></svg>