<svg xmlns="http://www.w3.org/2000/svg" viewBox="0 0 40 40" focusable="false" aria-hidden="true"><path fill="none" d="M0 0h40v40H0z"/><g data-name="Icon Red"><path d="M30.441 33.031c1.096 0 2.292-.806 2.292-1.8v-1.01a.97.97 0 0 0-.735-.942l-3.97-.993-1.177 4.706Z" fill="#ffaca6"/><path d="M11.89 32.992h12.941a1.35 1.35 0 0 0 1.161-1.161l1.192-4.76a1.34 1.34 0 0 0-1.131-1.364l-8.106-1.893a1.33 1.33 0 0 1-1.039-1.298V11.152c0-.647-.84-1.176-1.488-1.176H7.16a1.163 1.163 0 0 0-1.163 1.163l.012 15.971a6.184 6.184 0 0 0 5.882 5.882" fill="#d9304c"/><path fill="#ffaca6" d="M6.993 7.02h9v2h-9z"/><path fill="#000d6e" d="M4.999 33.98h29.41v1H4.998z"/></g></svg>