<?xml version="1.0" encoding="iso-8859-1"?><!--Generator: Adobe Illustrator 26.2.1, SVG Export Plug-In . SVG Version: 6.00 Build 0)--><svg version="1.1" xmlns="http://www.w3.org/2000/svg" xmlns:xlink="http://www.w3.org/1999/xlink" x="0px" y="0px" viewBox="0 0 40 40" xml:space="preserve" focusable="false" aria-hidden="true" enable-background="new 0 0 40 40"><g id="Solid"><rect width="40" height="40" fill="none"/></g><g id="Icon_Purple"><path d="M6.938,23.008H5.027v7.986h1.912c0.598,0,1.083-0.485,1.083-1.083v-5.82
		C8.021,23.493,7.536,23.008,6.938,23.008z" fill="#B8B2FF"/><path d="M34.947,26.225c-0.133-0.708-0.751-1.22-1.471-1.22l-0.298,0.032l-7.188,1.725v0.24
		c0,1.286-1.18,1.996-1.996,1.996h-8.984c-0.276,0-0.499-0.223-0.499-0.499c0-0.276,0.223-0.499,0.499-0.499h8.984
		c0.284,0,0.998-0.297,0.998-0.998v0l-0.001,0c0-0.009,0.001-0.017,0.001-0.026v-0.973c0,0,0,0,0,0c0-0.022-0.001-0.043-0.002-0.064
		c0-0.003-0.001-0.007-0.001-0.01c-0.025-0.333-0.214-0.567-0.43-0.717c-0.003-0.002-0.005-0.004-0.008-0.005
		c-0.025-0.017-0.05-0.033-0.075-0.047c-0.005-0.003-0.01-0.006-0.015-0.008c-0.023-0.013-0.046-0.025-0.068-0.036
		c-0.002-0.001-0.004-0.002-0.006-0.003c-0.012-0.006-0.023-0.011-0.035-0.016c-0.012-0.005-0.023-0.01-0.035-0.015
		c-0.002-0.001-0.004-0.002-0.006-0.003c-0.009-0.004-0.018-0.007-0.027-0.01c-0.005-0.002-0.009-0.004-0.014-0.005
		c-0.01-0.003-0.019-0.007-0.028-0.01c-0.004-0.001-0.008-0.003-0.011-0.004c-0.009-0.003-0.017-0.005-0.026-0.008
		c-0.004-0.001-0.008-0.003-0.013-0.004c-0.003-0.001-0.005-0.001-0.008-0.002c-0.023-0.006-0.045-0.012-0.066-0.016
		c-0.001,0-0.003,0-0.004-0.001c-0.045-0.009-0.086-0.013-0.121-0.013h-4.991h-0.024c0,0,0,0-0.001,0
		c-0.521-0.01-1.006-0.341-1.566-0.724c-0.031-0.021-0.062-0.042-0.093-0.063c-0.008-0.005-0.015-0.01-0.023-0.015
		c-0.027-0.019-0.055-0.038-0.083-0.056c-0.006-0.004-0.013-0.008-0.019-0.013c-0.069-0.047-0.139-0.094-0.211-0.141
		c-0.003-0.002-0.007-0.004-0.01-0.007c-0.035-0.023-0.07-0.045-0.105-0.068c-0.002-0.001-0.004-0.002-0.005-0.003
		c-0.077-0.049-0.155-0.097-0.236-0.145c0,0,0,0-0.001,0c-0.365-0.216-0.772-0.417-1.236-0.558
		c-0.563-0.132-1.132-0.203-1.689-0.203c-1.58,0-2.676,0-3.408,0c-0.096,0-0.185,0-0.268,0c-0.554,0-1.004,0.449-1.004,1.004v0.993
		v2.995h0.005c-0.003,0.037-0.005,0.075-0.005,0.112c0,0,0,1.674,0,1.884c0,0-0.001,0.642,0.997,0.998
		c0.998,0.357,6.468,2.612,6.602,2.666c0.541,0.221,1.116,0.333,1.695,0.333c0.507,0,1.016-0.086,1.506-0.26
		c0.015-0.005,14.201-5.836,14.201-5.836C34.691,27.635,35.08,26.932,34.947,26.225z" fill="#6C2273"/><path d="M22.341,20.697c0-3.936-3.191-7.126-7.126-7.126C15.214,17.506,18.405,20.697,22.341,20.697z" fill="#000D6E"/><path d="M24.721,22.034c2.572,0,4.658-2.085,4.658-4.658C26.806,17.377,24.721,19.462,24.721,22.034z" fill="#000D6E"/><path d="M23.932,24.017V13.956c3.514-0.439,6.236-3.431,6.236-7.065c-3.927,0-7.112,3.177-7.125,7.101
		l-0.001,0v0.022c0,0.001,0,0.001,0,0.002c0,0,0,0,0,0v9.999h0.445H23.932z" fill="#000D6E"/></g></svg>