<svg xmlns="http://www.w3.org/2000/svg" viewBox="0 0 40 40" focusable="false" aria-hidden="true"><path fill="none" d="M0 0h40v40H0z"/><g data-name="Icon Green"><path d="M28 6.298A3.3 3.3 0 0 0 24.704 3h-9.407A3.3 3.3 0 0 0 12 6.298V21h16Z" fill="#94e3d4"/><circle cx="12" cy="37" r="1" fill="#000d6e"/><circle cx="28.0001" cy="37" r="1" fill="#000d6e"/><circle cx="20" cy="37" r="1" fill="#000d6e"/><path d="M13.47 25h6.03v3.746l-7.296 5.35a.5.5 0 0 0 .592.807l6.704-4.916V34.5a.5.5 0 0 0 1 0v-4.513l6.704 4.916a.5.5 0 1 0 .592-.806l-7.296-5.35V25h6.03A1.47 1.47 0 0 0 28 23.53v-.06A1.47 1.47 0 0 0 26.53 22H13.47A1.47 1.47 0 0 0 12 23.47v.06A1.47 1.47 0 0 0 13.47 25" fill="#1b5951"/></g></svg>