<svg viewBox="0 0 40 40" fill="none" xmlns="http://www.w3.org/2000/svg" focusable="false" aria-hidden="true"><path d="M0 0h40v40H0z"/><path d="M27.153 32.038h5.11v3.065a1.02 1.02 0 0 1-1.022 1.022h-3.067a1.023 1.023 0 0 1-1.021-1.022zm-19.416 0h5.11v3.065a1.02 1.02 0 0 1-1.022 1.022H8.759a1.02 1.02 0 0 1-1.022-1.022zM33.795 17.731h-2.044a.51.51 0 0 0-.51.51v1.023c0 .282.228.51.51.51h2.044a.51.51 0 0 0 .511-.51v-1.022a.51.51 0 0 0-.51-.51m-25.546 0H6.205a.51.51 0 0 0-.511.51v1.023c0 .282.229.51.51.51H8.25a.51.51 0 0 0 .51-.51v-1.022a.51.51 0 0 0-.51-.51m23.64 6.074-1.022-3.065H9.04l-1.022 3.066a4 4 0 0 0-.337 1.573v5.58h24.525v-5.58a4 4 0 0 0-.317-1.574m-20.632 4.088a1.533 1.533 0 1 1 0-3.066 1.533 1.533 0 0 1 0 3.066m17.372 0a1.533 1.533 0 1 1 0-3.066 1.533 1.533 0 0 1 0 3.066" fill="#D9304C"/><path d="M27.94 13.49a3.07 3.07 0 0 0-2.831-1.89H14.89a3.07 3.07 0 0 0-2.83 1.89l-2.616 6.285h21.112z" fill="#FFACA6"/><path fill-rule="evenodd" clip-rule="evenodd" d="M16.261 8.112a.787.787 0 0 1 0-1.114 5.287 5.287 0 0 1 7.478 0 .787.787 0 1 1-1.114 1.114 3.71 3.71 0 0 0-5.25 0 .79.79 0 0 1-1.114 0" fill="#000D6E"/><path fill-rule="evenodd" clip-rule="evenodd" d="M14.193 5.519a.79.79 0 0 1 0-1.114 8.21 8.21 0 0 1 11.614 0 .788.788 0 0 1-1.114 1.114 6.637 6.637 0 0 0-9.386 0 .79.79 0 0 1-1.114 0" fill="#000D6E"/><path d="M30.178 4.859c1.419 0 2.336.916 2.336 2.336a.124.124 0 0 0 .248 0c0-1.42.917-2.336 2.336-2.336a.124.124 0 0 0 0-.249c-1.42 0-2.336-.916-2.336-2.336a.124.124 0 1 0-.248 0c0 1.42-.917 2.336-2.336 2.336a.124.124 0 1 0 0 .249m6.091 4.445c-1.075 0-1.771-.694-1.771-1.77a.124.124 0 1 0-.249 0c0 1.076-.695 1.77-1.77 1.77a.124.124 0 1 0 0 .25c1.075 0 1.77.694 1.77 1.77a.124.124 0 1 0 .249 0c0-1.076.696-1.77 1.771-1.77a.124.124 0 1 0 0-.25m-4.376-1.137c-1.076 0-1.772-.695-1.772-1.77a.124.124 0 1 0-.249 0c0 1.075-.694 1.77-1.77 1.77a.124.124 0 1 0 0 .249c1.076 0 1.77.695 1.77 1.771a.124.124 0 1 0 .25 0c0-1.076.695-1.771 1.77-1.771a.124.124 0 1 0 0-.25" fill="#000D6E"/></svg>