<svg viewBox="0 0 40 40" fill="none" xmlns="http://www.w3.org/2000/svg" focusable="false" aria-hidden="true"><path d="M27.153 32.438h5.11v3.065a1.02 1.02 0 0 1-1.022 1.022h-3.067a1.023 1.023 0 0 1-1.021-1.022zm-19.416 0h5.11v3.065a1.02 1.02 0 0 1-1.022 1.022H8.759a1.02 1.02 0 0 1-1.022-1.022zM33.795 18.131h-2.044a.51.51 0 0 0-.51.511v1.022c0 .282.228.51.51.51h2.044a.51.51 0 0 0 .511-.51v-1.022a.51.51 0 0 0-.51-.51m-25.546 0H6.205a.51.51 0 0 0-.511.511v1.022c0 .282.229.51.51.51H8.25a.51.51 0 0 0 .51-.51v-1.022a.51.51 0 0 0-.51-.51m23.64 6.075-1.022-3.066H9.04l-1.022 3.066a4 4 0 0 0-.337 1.573v5.58h24.525v-5.58a4 4 0 0 0-.317-1.573m-20.632 4.087a1.533 1.533 0 1 1 0-3.066 1.533 1.533 0 0 1 0 3.066m17.372 0a1.533 1.533 0 1 1 0-3.066 1.533 1.533 0 0 1 0 3.066" fill="#6C2273"/><path d="M27.94 13.89A3.07 3.07 0 0 0 25.109 12H14.89a3.07 3.07 0 0 0-2.83 1.89l-2.616 6.285h21.112z" fill="#B8B2FF"/><path fill-rule="evenodd" clip-rule="evenodd" d="M16.261 8.112a.787.787 0 0 1 0-1.114 5.287 5.287 0 0 1 7.478 0 .787.787 0 1 1-1.114 1.114 3.71 3.71 0 0 0-5.25 0 .79.79 0 0 1-1.114 0" fill="#000D6E"/><path fill-rule="evenodd" clip-rule="evenodd" d="M14.193 5.519a.79.79 0 0 1 0-1.114 8.21 8.21 0 0 1 11.614 0 .788.788 0 0 1-1.114 1.114 6.637 6.637 0 0 0-9.386 0 .79.79 0 0 1-1.114 0" fill="#000D6E"/></svg>