<svg viewBox="0 0 40 40" fill="none" xmlns="http://www.w3.org/2000/svg" focusable="false" aria-hidden="true"><g clip-path="url(#clip0_7_1728)"><rect width="40" height="40"/><path d="M27.1529 32.0375H32.2623V35.103C32.2623 35.374 32.1546 35.6339 31.963 35.8255C31.7714 36.0171 31.5115 36.1247 31.2406 36.1247H28.1743C28.0401 36.1247 27.9073 36.0983 27.7833 36.047C27.6594 35.9956 27.5468 35.9204 27.4519 35.8255C27.3571 35.7306 27.2819 35.618 27.2306 35.494C27.1793 35.37 27.1529 35.2372 27.1529 35.103V32.0375ZM7.73741 32.0375H12.8467V35.103C12.8467 35.2372 12.8203 35.3701 12.7689 35.4941C12.7175 35.6181 12.6422 35.7308 12.5473 35.8256C12.4524 35.9205 12.3397 35.9958 12.2157 36.0471C12.0917 36.0984 11.9588 36.1248 11.8246 36.1247H8.75911C8.48814 36.1247 8.22826 36.0171 8.03666 35.8255C7.84505 35.6339 7.73741 35.374 7.73741 35.103V32.0375Z" fill="#FA9319"/><path d="M33.7952 17.7313H31.7514C31.4692 17.7313 31.2407 17.9598 31.2407 18.2419V19.264C31.2407 19.5462 31.4692 19.7747 31.7514 19.7747H33.7952C34.0773 19.7747 34.3062 19.5462 34.3062 19.264V18.2419C34.3062 17.9598 34.0773 17.7313 33.7952 17.7313ZM8.24863 17.7313H6.20482C5.92267 17.7313 5.69377 17.9598 5.69377 18.2419V19.264C5.69377 19.5462 5.92267 19.7747 6.20482 19.7747H8.24863C8.53078 19.7747 8.75928 19.5462 8.75928 19.264V18.2419C8.75928 17.9598 8.53078 17.7313 8.24863 17.7313V17.7313ZM31.8889 23.8055L30.8672 20.74H9.03984L8.01814 23.8055C7.79955 24.3015 7.68473 24.8371 7.68075 25.3792V30.9586H32.2056V25.3792C32.2081 24.8385 32.1004 24.303 31.8889 23.8055ZM11.2573 27.8931C10.8508 27.8931 10.4609 27.7316 10.1735 27.4442C9.88604 27.1567 9.72455 26.7668 9.72455 26.3603C9.72455 25.9538 9.88604 25.564 10.1735 25.2765C10.4609 24.9891 10.8508 24.8276 11.2573 24.8276C11.6638 24.8276 12.0537 24.9891 12.3411 25.2765C12.6286 25.564 12.7901 25.9538 12.7901 26.3603C12.7901 26.7668 12.6286 27.1567 12.3411 27.4442C12.0537 27.7316 11.6638 27.8931 11.2573 27.8931V27.8931ZM28.629 27.8931C28.2225 27.8931 27.8327 27.7316 27.5452 27.4442C27.2578 27.1567 27.0963 26.7668 27.0963 26.3603C27.0963 25.9538 27.2578 25.564 27.5452 25.2765C27.8327 24.9891 28.2225 24.8276 28.629 24.8276C29.0356 24.8276 29.4254 24.9891 29.7129 25.2765C30.0003 25.564 30.1618 25.9538 30.1618 26.3603C30.1618 26.7668 30.0003 27.1567 29.7129 27.4442C29.4254 27.7316 29.0356 27.8931 28.629 27.8931V27.8931Z" fill="#FA9319"/><path d="M27.9396 13.4904C27.7074 12.9309 27.3146 12.4527 26.8108 12.1162C26.307 11.7798 25.7148 11.6001 25.1089 11.6H14.8903C14.2845 11.6001 13.6923 11.7798 13.1885 12.1162C12.6847 12.4527 12.2919 12.9309 12.0597 13.4904L9.44363 19.7748H30.5556L27.9396 13.4904Z" fill="#FAE052"/><path fill-rule="evenodd" clip-rule="evenodd" d="M16.2614 8.11219C15.9538 7.80465 15.9538 7.30604 16.2614 6.9985C16.7524 6.50751 17.3352 6.11803 17.9767 5.85231C18.6183 5.58659 19.3058 5.44983 20.0002 5.44982C20.6946 5.44982 21.3821 5.58659 22.0236 5.85231C22.6651 6.11803 23.248 6.50751 23.739 6.9985C24.0466 7.30604 24.0466 7.80465 23.739 8.11219C23.4315 8.41973 22.9329 8.41973 22.6253 8.11219C22.2806 7.76745 21.8713 7.49399 21.4209 7.30742C20.9705 7.12085 20.4877 7.02483 20.0002 7.02483C19.5127 7.02483 19.0299 7.12085 18.5795 7.30742C18.1291 7.49399 17.7198 7.76745 17.3751 8.11219C17.0675 8.41973 16.5689 8.41973 16.2614 8.11219Z" fill="#000D6E"/><path fill-rule="evenodd" clip-rule="evenodd" d="M14.1931 5.51898C13.8856 5.21144 13.8856 4.71282 14.1931 4.40529C14.9557 3.64272 15.861 3.03781 16.8574 2.62511C17.8537 2.21241 18.9216 2 20 2C21.0785 2 22.1463 2.21241 23.1427 2.62511C24.139 3.03781 25.0443 3.64272 25.8069 4.40529C26.1144 4.71282 26.1144 5.21144 25.8069 5.51898C25.4994 5.82652 25.0007 5.82652 24.6932 5.51898C24.0769 4.90266 23.3452 4.41377 22.54 4.08022C21.7347 3.74667 20.8716 3.575 20 3.575C19.1284 3.575 18.2653 3.74668 17.4601 4.08022C16.6548 4.41377 15.9232 4.90266 15.3068 5.51898C14.9993 5.82652 14.5007 5.82652 14.1931 5.51898Z" fill="#000D6E"/><path d="M30.1779 4.85887C31.597 4.85887 32.5136 5.77543 32.5136 7.19456C32.5136 7.22755 32.5267 7.25919 32.55 7.28252C32.5733 7.30585 32.605 7.31896 32.638 7.31896C32.671 7.31896 32.7026 7.30585 32.7259 7.28252C32.7493 7.25919 32.7624 7.22755 32.7624 7.19456C32.7624 5.77543 33.6789 4.85887 35.0981 4.85887C35.131 4.85887 35.1627 4.84577 35.186 4.82244C35.2093 4.79911 35.2225 4.76747 35.2225 4.73448C35.2225 4.70148 35.2093 4.66984 35.186 4.64651C35.1627 4.62319 35.131 4.61008 35.0981 4.61008C33.6789 4.61008 32.7624 3.69352 32.7624 2.27439C32.7624 2.2414 32.7493 2.20976 32.7259 2.18643C32.7026 2.1631 32.671 2.14999 32.638 2.14999C32.605 2.14999 32.5733 2.1631 32.55 2.18643C32.5267 2.20976 32.5136 2.2414 32.5136 2.27439C32.5136 3.69352 31.597 4.61008 30.1779 4.61008C30.1449 4.61008 30.1132 4.62319 30.0899 4.64651C30.0666 4.66984 30.0535 4.70148 30.0535 4.73448C30.0535 4.76747 30.0666 4.79911 30.0899 4.82244C30.1132 4.84577 30.1449 4.85887 30.1779 4.85887ZM36.2694 9.30434C35.1936 9.30434 34.498 8.60971 34.498 7.53392C34.498 7.50093 34.4849 7.46928 34.4615 7.44596C34.4382 7.42263 34.4066 7.40952 34.3736 7.40952C34.3406 7.40952 34.3089 7.42263 34.2856 7.44596C34.2623 7.46928 34.2492 7.50093 34.2492 7.53392C34.2492 8.60971 33.5545 9.30434 32.4787 9.30434C32.4457 9.30434 32.4141 9.31745 32.3908 9.34078C32.3674 9.36411 32.3543 9.39575 32.3543 9.42874C32.3543 9.46173 32.3674 9.49337 32.3908 9.5167C32.4141 9.54003 32.4457 9.55314 32.4787 9.55314C33.5545 9.55314 34.2492 10.2478 34.2492 11.3236C34.2492 11.3566 34.2623 11.3882 34.2856 11.4115C34.3089 11.4349 34.3406 11.448 34.3736 11.448C34.4066 11.448 34.4382 11.4349 34.4615 11.4115C34.4849 11.3882 34.498 11.3566 34.498 11.3236C34.498 10.2478 35.1936 9.55314 36.2694 9.55314C36.3024 9.55314 36.334 9.54003 36.3573 9.5167C36.3807 9.49337 36.3938 9.46173 36.3938 9.42874C36.3938 9.39575 36.3807 9.36411 36.3573 9.34078C36.334 9.31745 36.3024 9.30434 36.2694 9.30434ZM31.8926 8.16685C30.8168 8.16685 30.1212 7.47222 30.1212 6.39643C30.1212 6.36343 30.1081 6.33179 30.0847 6.30846C30.0614 6.28514 30.0298 6.27203 29.9968 6.27203C29.9638 6.27203 29.9321 6.28514 29.9088 6.30846C29.8855 6.33179 29.8724 6.36343 29.8724 6.39643C29.8724 7.47222 29.1777 8.16685 28.1019 8.16685C28.0689 8.16685 28.0373 8.17996 28.014 8.20329C27.9906 8.22662 27.9775 8.25826 27.9775 8.29125C27.9775 8.32424 27.9906 8.35588 28.014 8.37921C28.0373 8.40254 28.0689 8.41565 28.1019 8.41565C29.1777 8.41565 29.8724 9.11128 29.8724 10.1871C29.8724 10.2201 29.8855 10.2517 29.9088 10.275C29.9321 10.2984 29.9638 10.3115 29.9968 10.3115C30.0298 10.3115 30.0614 10.2984 30.0847 10.275C30.1081 10.2517 30.1212 10.2201 30.1212 10.1871C30.1212 9.11128 30.8168 8.41565 31.8926 8.41565C31.9256 8.41565 31.9572 8.40254 31.9805 8.37921C32.0039 8.35588 32.017 8.32424 32.017 8.29125C32.017 8.25826 32.0039 8.22662 31.9805 8.20329C31.9572 8.17996 31.9256 8.16685 31.8926 8.16685Z" fill="#000D6E"/></g><defs><clipPath id="clip0_7_1728"><rect width="40" height="40" fill="white"/></clipPath></defs></svg>