<svg viewBox="0 0 40 40" fill="none" xmlns="http://www.w3.org/2000/svg" focusable="false" aria-hidden="true"><g clip-path="url(#clip0_1_1299)"><path d="M27.153 32.4375H32.2623V35.503C32.2623 35.774 32.1546 36.0339 31.963 36.2255C31.7714 36.4171 31.5115 36.5247 31.2406 36.5247H28.1743C28.0401 36.5247 27.9073 36.4983 27.7833 36.447C27.6594 36.3956 27.5468 36.3203 27.4519 36.2255C27.3571 36.1306 27.2819 36.018 27.2306 35.894C27.1793 35.77 27.1529 35.6372 27.153 35.503V32.4375ZM7.73741 32.4375H12.8467V35.503C12.8467 35.6372 12.8203 35.7701 12.7689 35.8941C12.7175 36.0181 12.6422 36.1308 12.5473 36.2256C12.4524 36.3205 12.3397 36.3958 12.2157 36.4471C12.0917 36.4984 11.9588 36.5248 11.8246 36.5247H8.75911C8.48814 36.5247 8.22827 36.4171 8.03666 36.2255C7.84506 36.0339 7.73741 35.774 7.73741 35.503V32.4375Z" fill="#1B5951"/><path d="M33.7952 18.1313H31.7514C31.4692 18.1313 31.2407 18.3598 31.2407 18.642V19.6641C31.2407 19.9462 31.4692 20.1747 31.7514 20.1747H33.7952C34.0773 20.1747 34.3062 19.9462 34.3062 19.6641V18.642C34.3062 18.3598 34.0773 18.1313 33.7952 18.1313ZM8.24863 18.1313H6.20482C5.92267 18.1313 5.69377 18.3598 5.69377 18.642V19.6641C5.69377 19.9462 5.92267 20.1747 6.20482 20.1747H8.24863C8.53078 20.1747 8.75928 19.9462 8.75928 19.6641V18.642C8.75928 18.3598 8.53078 18.1313 8.24863 18.1313V18.1313ZM31.8889 24.2055L30.8672 21.14H9.03984L8.01814 24.2055C7.79955 24.7016 7.68473 25.2371 7.68075 25.7792V31.3586H32.2056V25.7792C32.2081 25.2385 32.1004 24.7031 31.8889 24.2055ZM11.2573 28.2931C10.8508 28.2931 10.4609 28.1316 10.1735 27.8442C9.88604 27.5567 9.72455 27.1669 9.72455 26.7603C9.72455 26.3538 9.88604 25.964 10.1735 25.6765C10.4609 25.3891 10.8508 25.2276 11.2573 25.2276C11.6638 25.2276 12.0537 25.3891 12.3411 25.6765C12.6286 25.964 12.7901 26.3538 12.7901 26.7603C12.7901 27.1669 12.6286 27.5567 12.3411 27.8442C12.0537 28.1316 11.6638 28.2931 11.2573 28.2931V28.2931ZM28.629 28.2931C28.2225 28.2931 27.8327 28.1316 27.5452 27.8442C27.2578 27.5567 27.0963 27.1669 27.0963 26.7603C27.0963 26.3538 27.2578 25.964 27.5452 25.6765C27.8327 25.3891 28.2225 25.2276 28.629 25.2276C29.0356 25.2276 29.4254 25.3891 29.7129 25.6765C30.0003 25.964 30.1618 26.3538 30.1618 26.7603C30.1618 27.1669 30.0003 27.5567 29.7129 27.8442C29.4254 28.1316 29.0356 28.2931 28.629 28.2931V28.2931Z" fill="#1B5951"/><path d="M27.9396 13.8904C27.7074 13.3309 27.3145 12.8527 26.8107 12.5162C26.307 12.1798 25.7148 12.0001 25.1089 12H14.8903C14.2845 12.0001 13.6923 12.1798 13.1885 12.5162C12.6847 12.8527 12.2919 13.3309 12.0597 13.8904L9.44362 20.1748H30.5556L27.9396 13.8904Z" fill="#94E3D4"/><path fill-rule="evenodd" clip-rule="evenodd" d="M16.2614 8.11219C15.9538 7.80465 15.9538 7.30604 16.2614 6.9985C16.7524 6.50751 17.3352 6.11803 17.9767 5.85231C18.6183 5.58659 19.3058 5.44983 20.0002 5.44982C20.6946 5.44982 21.3821 5.58659 22.0236 5.85231C22.6651 6.11803 23.248 6.50751 23.739 6.9985C24.0466 7.30604 24.0466 7.80465 23.739 8.11219C23.4315 8.41973 22.9329 8.41973 22.6253 8.11219C22.2806 7.76745 21.8713 7.49399 21.4209 7.30742C20.9705 7.12085 20.4877 7.02483 20.0002 7.02483C19.5127 7.02483 19.0299 7.12085 18.5795 7.30742C18.1291 7.49399 17.7198 7.76745 17.3751 8.11219C17.0675 8.41973 16.5689 8.41973 16.2614 8.11219Z" fill="#000D6E"/><path fill-rule="evenodd" clip-rule="evenodd" d="M14.1931 5.51898C13.8856 5.21144 13.8856 4.71282 14.1931 4.40529C14.9557 3.64272 15.861 3.03781 16.8574 2.62511C17.8537 2.21241 18.9216 2 20 2C21.0785 2 22.1463 2.21241 23.1427 2.62511C24.139 3.03781 25.0443 3.64272 25.8069 4.40529C26.1144 4.71282 26.1144 5.21144 25.8069 5.51898C25.4994 5.82652 25.0007 5.82652 24.6932 5.51898C24.0769 4.90266 23.3452 4.41377 22.54 4.08022C21.7347 3.74667 20.8716 3.575 20 3.575C19.1284 3.575 18.2653 3.74668 17.4601 4.08022C16.6548 4.41377 15.9232 4.90266 15.3068 5.51898C14.9993 5.82652 14.5007 5.82652 14.1931 5.51898Z" fill="#000D6E"/></g><defs><clipPath id="clip0_1_1299"><rect width="40" height="40" fill="white"/></clipPath></defs></svg>