<svg xmlns="http://www.w3.org/2000/svg" viewBox="0 0 40 40" focusable="false" aria-hidden="true"><path fill="none" d="M0 0h40v40H0z"/><g data-name="Icon Red"><path d="M34 10a1 1 0 0 0-1-1H7a1 1 0 0 0-1 1v17h28Zm-1 16H7V10h26Z" fill="#d9304c"/><path d="M7 26h26V10H7Zm11.53-11h11a.5.5 0 1 1 0 1h-11a.5.5 0 0 1 0-1m0 6h11a.5.5 0 0 1 0 1h-11a.5.5 0 0 1 0-1m-8.296-6.341a.5.5 0 0 1 .707.002l1.033 1.041 2.135-2.41a.5.5 0 0 1 .748.664l-2.488 2.809-.014.01-.008.012a.5.5 0 0 1-.097.065.41.41 0 0 1-.49.013.5.5 0 0 1-.096-.058l-.01-.012q-.007-.004-.014-.01l-1.408-1.42a.5.5 0 0 1 .002-.706Zm0 5.971a.5.5 0 0 1 .707.002l1.033 1.042 2.135-2.41a.5.5 0 0 1 .748.664l-2.488 2.809q-.007.004-.014.01l-.008.012a.5.5 0 0 1-.097.065 1 1 0 0 1-.061.04.41.41 0 0 1-.43-.028.5.5 0 0 1-.096-.058l-.009-.012q-.007-.004-.014-.01l-1.41-1.42a.5.5 0 0 1 .004-.706Z" fill="#ffaca6"/><path d="M23 28v2h-6v-2H4v1a2 2 0 0 0 2 2h28a2 2 0 0 0 2-2v-1Z" fill="#d9304c"/><path fill="#ffaca6" d="M17 28h6v2h-6z"/><path d="M18.53 16h11a.5.5 0 1 0 0-1h-11a.5.5 0 0 0 0 1M18.53 22h11a.5.5 0 0 0 0-1h-11a.5.5 0 0 0 0 1M11.64 16.786q.007.004.015.01l.009.012a.5.5 0 0 0 .096.058.405.405 0 0 0 .49-.013.5.5 0 0 0 .097-.065l.008-.012q.007-.006.014-.01l2.488-2.81a.5.5 0 0 0-.748-.663l-2.135 2.41-1.033-1.042a.5.5 0 0 0-.71.706ZM11.64 22.757q.007.006.015.01l.009.012a.5.5 0 0 0 .096.058.46.46 0 0 0 .43.028 1 1 0 0 0 .06-.04.5.5 0 0 0 .097-.065l.009-.012q.007-.006.013-.01l2.489-2.81a.5.5 0 0 0-.748-.663l-2.135 2.41-1.033-1.042a.5.5 0 0 0-.71.706Z" fill="#000d6e"/></g></svg>