<svg xmlns="http://www.w3.org/2000/svg" viewBox="0 0 40 40" focusable="false" aria-hidden="true"><g id="Solid"><rect width="40" height="40" fill="none"/></g><g id="Icon_Green" data-name="Icon Green"><path d="M29.7149,13.1144a.3006.3006,0,0,0-.4251,0l-3.1971,3.1971a.3.3,0,0,0,0,.4251L29.29,19.9337a.3006.3006,0,0,0,.4251,0L31.489,18.16l-1.08-1.08-.9069.9068L28.04,16.524l1.4625-1.4625,2.5424,2.5424.8673-.8673a.3006.3006,0,0,0,0-.4251Z" fill="none"/><path d="M33.5,10H6.5A2.5,2.5,0,0,0,4,12.5v15A2.5,2.5,0,0,0,6.5,30h27A2.5,2.5,0,0,0,36,27.5v-15A2.5,2.5,0,0,0,33.5,10ZM11.0724,28.0218a1,1,0,1,1,1-1A1.001,1.001,0,0,1,11.0724,28.0218Zm5.5034,0a1,1,0,1,1,1-1A1.0011,1.0011,0,0,1,16.5758,28.0218Zm2.4815-8.8789-1,4a.5.5,0,0,1-.4849.3789H10.5993l.3335,1h6.64a.5.5,0,1,1,0,1h-7a.5.5,0,0,1-.4741-.3418L7.5446,17.5218H6.5641a.5.5,0,0,1,0-1H7.9049a.5.5,0,0,1,.4742.3418l.5529,1.6582h9.64a.5.5,0,0,1,.4849.6211ZM32.912,16.7366l-.8673.8673-2.5424-2.5424L28.04,16.524l1.4625,1.4626.9069-.9068,1.08,1.08-1.7741,1.7742a.3006.3006,0,0,1-.4251,0l-3.1971-3.1971a.3.3,0,0,1,0-.4251L29.29,13.1144a.3006.3006,0,0,1,.4251,0l3.1971,3.1971A.3006.3006,0,0,1,32.912,16.7366Z" fill="#94e3d4"/><polygon points="11.073 27.022 11.572 27.022 11.072 27.021 11.073 27.022" fill="#ffaca6"/><polygon points="16.576 27.022 17.076 27.022 16.576 27.021 16.576 27.022" fill="#ffaca6"/><polygon points="10.266 22.522 17.182 22.522 17.932 19.522 9.265 19.522 10.266 22.522" fill="#94e3d4"/><path d="M18.5724,18.5218H8.932l-.5529-1.6582a.5.5,0,0,0-.4742-.3418H6.5641a.5.5,0,0,0,0,1h.9805L10.0983,25.18a.5.5,0,0,0,.4741.3418h7a.5.5,0,1,0,0-1h-6.64l-.3335-1h6.9731a.5.5,0,0,0,.4849-.3789l1-4a.5.5,0,0,0-.4849-.6211Zm-1.3906,4h-6.916l-1-3h8.6663Z" fill="#1b5951"/><path d="M11.0724,26.0218a1,1,0,1,0,1,1A1.0009,1.0009,0,0,0,11.0724,26.0218Zm.0005,1-.0005-.001.5.001Z" fill="#1b5951"/><path d="M16.5758,26.0218a1,1,0,1,0,1,1A1.001,1.001,0,0,0,16.5758,26.0218Zm0,1,0-.001.5.001Z" fill="#1b5951"/><path d="M29.7148,13.1144a.3.3,0,0,0-.425,0l-3.1971,3.1971a.3.3,0,0,0,0,.4251l3.197,3.1971a.3006.3006,0,0,0,.4251,0L31.489,18.16l-1.08-1.08-.9069.9068L28.04,16.524l1.4626-1.4625,2.5424,2.5424.8673-.8673a.3006.3006,0,0,0,0-.4251Z" fill="#000d6e"/></g></svg>