<svg version="1.1" xmlns="http://www.w3.org/2000/svg" x="0px" y="0px" viewBox="0 0 40 40" xml:space="preserve" focusable="false" aria-hidden="true" enable-background="new 0 0 40 40"><path fill="none" d="M0 0h40v40H0z"/><g><path fill="#FA9319" d="M29 6h-4v2.306l4 3.688zM32.339 16.433 21.94 6.844a2.9 2.9 0 0 0-3.884.005L7.661 16.433l.339.368.339.367 10.39-9.58a1.9 1.9 0 0 1 2.538-.005l10.395 9.585.338-.367z"/><path d="M25.963 17H30v-.003l-9.412-8.679a.894.894 0 0 0-1.191.013L10 16.997V17h15.963M20.645 25H10v9h20v-9h-4.037z" fill="#FAE052"/><path fill="#000D6E" d="M25.963 18H10v6h20v-6z"/></g></svg>