<?xml version="1.0" encoding="iso-8859-1"?><!--Generator: Adobe Illustrator 26.2.1, SVG Export Plug-In . SVG Version: 6.00 Build 0)--><svg version="1.1" xmlns="http://www.w3.org/2000/svg" xmlns:xlink="http://www.w3.org/1999/xlink" x="0px" y="0px" viewBox="0 0 40 40" xml:space="preserve" focusable="false" aria-hidden="true" enable-background="new 0 0 40 40"><g id="Solid"><rect width="40" height="40" fill="none"/></g><g id="Icon_Green"><polygon points="29,6 25,6 25,8.306 29,11.994 	" fill="#1B5951"/><path d="M32.339,16.433L21.94,6.844c-1.106-0.992-2.773-0.993-3.884,0.005L7.661,16.433l0,0L8,16.801
		l0.339,0.367l10.39-9.58c0.724-0.651,1.817-0.65,2.538-0.005l10.395,9.585L32,16.801L32.339,16.433L32.339,16.433z" fill="#1B5951"/><g><path d="M25.963,17H30v-0.003l-9.412-8.679c-0.33-0.297-0.848-0.296-1.191,0.013L10,16.997V17h10.645
			H25.963z" fill="#94E3D4"/><polygon points="20.645,25 10,25 10,34 30,34 30,25 25.963,25 		" fill="#94E3D4"/></g><g><polygon points="25.963,18 20.645,18 10,18 10,24 20.645,24 25.963,24 30,24 30,18 		" fill="#000D6E"/></g></g></svg>