<?xml version="1.0" encoding="UTF-8"?><svg xmlns="http://www.w3.org/2000/svg" viewBox="0 0 40 40" focusable="false" aria-hidden="true"><g id="uuid-b8a1b58e-bad4-46a4-8245-d4d1fa560a67"><rect width="40" height="40" fill="none"/></g><g id="uuid-999a33dc-20e0-4e42-a247-6146046eb54b"><path d="M24.80023193,30.24694826l5.25714111-3.92150879c.06671143-.04974365,.13891602-.08996582,.21008301-.13214111l-2.60754395-3.47088623c-.39215088-.52203369-.56964111-1.19976807-.38775635-1.82684326,.12799072-.44128418,.33618164-2.21569824,.17205811-3.28259277,.03448486-.41589355-.05352783-.84515381-.29241943-1.22583008l-1.73522949-2.76525879c-.11651611-.18566895-.27172852-.32995605-.44598389-.4387207-.04534912-.04943848-.07507324-.10839844-.12969971-.15161133l-2.54553223-2.01263428c-.60650635-.47955322-1.48693848-.37658691-1.9664917,.22991943l-.04003906,.05059814c-.35302734,.4465332-.38519287,1.03967285-.1383667,1.51385498-.16308594,.05474854-.32928467,.1317749-.50280762,.26196289l-4.96057129,3.72076416c-.88311768,.66345215-1.06121826,1.91717529-.39770508,2.80029297l3.65570068,4.3125c.59570312,.79290771,1.43005371,1.2901001,2.32800293,1.48516846,.47943115,.10418701,.91052246,.36199951,1.2052002,.75421143l3.17749023,4.22949219c.04882812-.04315186,.09124756-.09100342,.14447021-.1307373Z" fill="#ffaca6"/><path d="M19.47505067,12.03660974h.86451813c.55191502,0,1,.44808498,1,1v4.81921154c0,.70369012-.5713071,1.27499722-1.27499722,1.27499722h-.0895189c-.82787254,0-1.5-.67212746-1.5-1.5v-4.59421077c0-.55191392,.44808408-.999998,.999998-.999998Z" transform="translate(45.18380187 16.08587203) rotate(143.08379894)" fill="#fae052"/><path d="M17.18482936,13.75717079h.86451634c.55191497,0,.99999989,.44808493,.99999989,.99999989v4.81921202c0,.70368994-.57130695,1.27499688-1.27499688,1.27499688h-.08951964c-.82787232,0-1.4999996-.67212729-1.4999996-1.4999996v-4.5942093c0-.55191496,.44808493-.99999989,.99999989-.99999989Z" transform="translate(42.09595988 20.55766139) rotate(143.08379903)" fill="#fae052"/><path d="M15.21212548,15.52230636h.775c.55191502,0,1,.44808498,1,1v4.59751832c0,.70368964-.57130671,1.27499635-1.27499635,1.27499635h-.00000262c-.82787311,0-1.50000103-.67212793-1.50000103-1.50000103v-4.37251363c0-.55191502,.44808498-1,1-1Z" transform="translate(39.71757851 23.55201492) rotate(140.23176238)" fill="#fae052"/><g><path d="M20,3.21972658c-.27636719,0-.5,.22363281-.5,.5v3.38964844c0,.27636719,.22363281,.5,.5,.5s.5-.22363281,.5-.5V3.71972658c0-.27636719-.22363281-.5-.5-.5Z" fill="#000d6e"/><path d="M15.16162109,4.64257814c-.10595703-.25488281-.39941406-.37597656-.65332031-.27050781-.25537109,.10546875-.37646484,.3984375-.27050781,.65332031l1.14941406,2.77050781c.08007812,.19238281,.26611328,.30859375,.46191406,.30859375,.06396484,0,.12890625-.01171875,.19140625-.03808594,.25537109-.10546875,.37646484-.3984375,.27050781-.65332031l-1.14941406-2.77050781Z" fill="#000d6e"/><path d="M10.82177734,7.43847658c-.19287109-.1953125-.50927734-.20214844-.70703125-.0078125-.19775391,.19238281-.20166016,.50878906-.00878906,.70703125l1.72119141,1.76269531c.09814453,.09960938,.22802734,.15039062,.35791016,.15039062,.12597656,0,.25195312-.046875,.34912109-.14257812,.19775391-.19238281,.20166016-.50878906,.00878906-.70703125l-1.72119141-1.76269531Z" fill="#000d6e"/><path d="M25.49169922,4.37207033c-.25390625-.10644531-.546875,.015625-.65332031,.27050781l-1.14941406,2.77050781c-.10595703,.25488281,.01513672,.54785156,.27050781,.65332031,.0625,.02636719,.12744141,.03808594,.19140625,.03808594,.19580078,0,.38183594-.11621094,.46191406-.30859375l1.14941406-2.77050781c.10595703-.25488281-.01513672-.54785156-.27050781-.65332031Z" fill="#000d6e"/><path d="M29.88525391,7.43066408c-.19628906-.19433594-.51318359-.1875-.70703125,.0078125l-1.72119141,1.76269531c-.19287109,.19824219-.18896484,.51464844,.00878906,.70703125,.09716797,.09570312,.22314453,.14257812,.34912109,.14257812,.12988281,0,.25976562-.05078125,.35791016-.15039062l1.72119141-1.76269531c.19287109-.19824219,.18896484-.51464844-.00878906-.70703125Z" fill="#000d6e"/></g><path d="M26.34881592,16.72540285c-.45898438-.38201904-1.07696533-.43884277-1.58563232-.20495605l.12957764-.17248535c.42297363-.56298828,.30944824-1.36224365-.25354004-1.78521729l-.07159424-.05377197c-.66229248-.49755859-1.60266113-.36401367-2.10021973,.29833984l-.04406738,.05865479v-.00006104l.17919922-.23852539c.42297363-.56298828,.30944824-1.36224365-.25354004-1.78515625l-.07159424-.05377197c-.66235352-.49761963-1.60266113-.36407471-2.10021973,.29827881l.13513184-.17987061c.42297363-.56298828,.30944824-1.36224365-.25354004-1.78521729l-.07159424-.05377197-1.95111084,1.59448242c-.80297852,.13848877-1.56976318,.59484863-2.08685303,1.28314209l-.82171631,1.09375-.00006104,.00006104c0,.00006104-.00006104,.00006104-.00006104,.00012207l-1.91149902,2.54437256c-.7701416,1.02508545-.94940186,2.31054688-.60302734,3.46484375,.18640137,.62115479,.01629639,1.28900146-.3684082,1.80108643l-2.56561279,3.41503906c.03161621,.02124023,.06585693,.0378418,.09643555,.06066895l5.25714111,3.92150879c.08996582,.06707764,.16680908,.14428711,.24414062,.22088623l3.1383667-4.17749023c.28912354-.38476562,.71490479-.63549805,1.19006348-.73400879,.89001465-.18450928,1.71411133-.66802979,2.29852295-1.44586182l2.27172852-2.75469971c.09606934-.08251953,.17987061-.16064453,.23297119-.22442627l2.1050415-2.61035156c.45043945-.54119873,.37683105-1.34515381-.16442871-1.79559326Z" fill="#d9304c"/><path d="M32.28124448,27.26530748l1.1429503,1.53222925-7.213936,5.38124902-1.1429503-1.53222925c-.35763955-.47944847-.20952436-1.19491488,.33086748-1.59802118l5.25709011-3.92153618c.5403367-.40306517,1.26833887-.34114013,1.62597841,.13830834Z" fill="#d9304c"/><path d="M7.55137681,27.26530748l-1.1429503,1.53222925,7.213936,5.38124902,1.1429503-1.53222925c.35763955-.47944847,.20952436-1.19491488-.33086748-1.59802118l-5.25709011-3.92153618c-.5403367-.40306517-1.26833887-.34114013-1.62597841,.13830834Z" fill="#ffaca6"/><path d="M20.35302734,11.31134035l-.60479736-.61322021c-.54296875-.55047607-1.42938232-.55651855-1.9798584-.0135498l-.04589844,.04528809c-.40148926,.39599609-.50561523,.97320557-.32611084,1.47106934-.49890137-.19512939-1.08673096-.09814453-1.49279785,.30236816l-.04595947,.04534912c-.36352539,.35858154-.46600342,.86303711-.35339355,1.32543945-.46508789-.12597656-.97869873-.03082275-1.34649658,.33190918l-.04589844,.04528809c-.40148926,.39599609-.50561523,.97320557-.32611084,1.47106934-.49890137-.19512939-1.08673096-.0980835-1.49279785,.30236816l-.04595947,.04534912c-.55047607,.54296875-.55651855,1.42938232-.0135498,1.9798584l.60479736,.61315918c.54296875,.55047607,1.42938232,.55657959,1.9798584,.01361084l.04589844-.04534912c.40148926-.39605713,.50567627-.9732666,.32611084-1.47106934,.4989624,.19512939,1.08673096,.09814453,1.49279785-.30236816l.04595947-.04528809c.36352539-.35852051,.46594238-.86297607,.35339355-1.32543945,.46508789,.12597656,.97875977,.03082275,1.34649658-.33190918l.04589844-.04534912c.40148926-.39599609,.50561523-.97320557,.32611084-1.47106934,.49890137,.19512939,1.08673096,.09814453,1.49279785-.30236816l.04595947-.04528809c.55047607-.54296875,.55651855-1.42938232,.0135498-1.9798584Z" fill="#ffaca6"/></g></svg>