<?xml version="1.0" encoding="UTF-8"?><svg xmlns="http://www.w3.org/2000/svg" viewBox="0 0 40 40" focusable="false" aria-hidden="true"><g id="uuid-8530b365-6fcb-4ced-9edd-2c244445b284"><rect width="40" height="40" fill="none"/></g><g id="uuid-ddc20607-2b6e-4e66-a7f5-50e5a3abe793"><g><path d="M13.35,14.9l-2.16-.29c-.16-.02-.32,.02-.43,.13-.12,.1-.19,.25-.19,.41v5.38c0,.3,.24,.54,.54,.54h1.39c.28,.02,.5-.18,.54-.45l.77-5.1c.02-.14-.01-.29-.1-.41s-.21-.19-.36-.21Z" fill="#1b5951"/><path d="M28.24,16.27l2.16-.29c.16-.02,.32,.02,.43,.13,.12,.1,.19,.25,.19,.41v5.38c0,.3-.24,.54-.54,.54h-1.39c-.28,.02-.5-.18-.54-.45l-.77-5.1c-.02-.14,.01-.29,.1-.41s.21-.19,.36-.21Z" fill="#1b5951"/><g><path d="M21.75,18.34l-2.46,1.31c-.32,.17-.76,.29-1.21,.29-.56,0-1.13-.18-1.52-.68-.32-.42-.47-.94-.4-1.47s.34-1,.76-1.32l.93-.72-3.38-.14-.78,5.16,6.27,5.9,.42,.42c.34,.34,.9,.34,1.24,0l.05-.05c.3-.3,.32-.76,.09-1.1l.03-.02,.37,.37c.34,.34,.9,.34,1.24,0l.05-.05c.34-.34,.34-.9,0-1.24l.56,.56c.34,.34,.9,.34,1.24,0l.05-.05c.34-.34,.34-.9,0-1.24l-.28-.28h0l.56,.56c.34,.34,.9,.34,1.24,0l.05-.05c.32-.32,.33-.82,.05-1.16l-5.16-5Z" fill="#94e3d4"/><path d="M17.13,18.81c.43,.56,1.34,.45,1.81,.19l2.92-1.55,.13,.12,2.44,2.35h0s2.66,2.57,2.66,2.57c.13,0,.6-.05,.73-.07l-.86-5.75c-1.49-.62-5.45-2.37-5.69-2.38s-.4,.06-.9,.42l-3.01,2.32c-.55,.42-.65,1.22-.23,1.76Z" fill="#94e3d4"/></g><path d="M34.45,25.78l-1-2s0,0-.01-.02c-.02-.03-.04-.06-.07-.09-.02-.02-.04-.05-.06-.06-.02-.02-.05-.03-.07-.04-.03-.02-.06-.04-.1-.05,0,0-.01,0-.02,0-.02,0-.04,0-.06,0-.04,0-.08,0-.12,0-.03,0-.06,.01-.09,.02-.03,0-.05,0-.08,.02l-2,1c-.25,.12-.35,.42-.22,.67,.09,.17,.26,.28,.45,.28,.08,0,.15-.02,.22-.05l.97-.49c-1.74,5.08-6.6,8.54-12.2,8.54-5.98,0-11.13-3.96-12.51-9.62-.07-.27-.33-.43-.6-.37-.27,.07-.43,.34-.37,.6,1.5,6.11,7.04,10.38,13.49,10.38,6,0,11.22-3.7,13.12-9.15l.44,.87c.09,.17,.26,.28,.45,.28,.08,0,.15-.02,.22-.05,.25-.12,.35-.42,.22-.67Z" fill="#000d6e"/><path d="M33.49,15.88c-1.5-6.11-7.04-10.38-13.49-10.38-6,0-11.22,3.7-13.12,9.15l-.44-.87c-.12-.25-.42-.35-.67-.22-.25,.12-.35,.42-.22,.67l1,2s0,0,.01,.01c.04,.07,.09,.13,.17,.18,.02,.01,.03,.02,.05,.02,.03,.02,.06,.04,.1,.05,.03,0,.05,0,.08,0,.01,0,.03,.01,.04,.01,.01,0,.02,0,.03,0,.05,0,.1-.02,.15-.04,.01,0,.03,0,.04,0l2-1c.25-.12,.35-.42,.22-.67-.12-.25-.42-.35-.67-.22l-.97,.49c1.74-5.08,6.6-8.54,12.2-8.54,5.98,0,11.13,3.96,12.51,9.62,.06,.23,.26,.38,.49,.38,.04,0,.08,0,.12-.01,.27-.07,.43-.34,.37-.6Z" fill="#000d6e"/></g></g></svg>