<svg data-name="Calque 1" xmlns="http://www.w3.org/2000/svg" viewBox="0 0 40 40" focusable="false" aria-hidden="true"><path d="M0 0h40v40H0z" fill="none"/><path d="m17.57 13.1 3.83 3.82c.17.17.4.26.63.26-.23 0-.46-.1-.62-.26l-3.83-3.82Z" fill="none"/><path d="M23.62 6.04a.895.895 0 0 0-.74-1.03c-.05 0-.1-.01-.15-.01H12.3a.903.903 0 0 0-.89 1.05l.72 4.33h10.76s.72-4.34.72-4.33Z" fill="#94e3d4"/><path d="m13.73 16.92 3.83-3.81 3.83 3.81c.17.16.39.26.62.26a.9.9 0 0 0 .64-1.53l-2.59-2.58-.9-.89h3.72v-1.79H12.14v1.79h3.82l-3.49 3.48c-.35.34-.35.91 0 1.26a.9.9 0 0 0 1.27 0Z" fill="#1b5951"/><path d="M27.31 21.22c-1.36-4.25-4.18-8.15-4.41-8.15h-2.82l2.59 2.58c.35.35.35.91 0 1.26a.9.9 0 0 1-.64.26c-.24 0-.46-.09-.63-.26l-3.83-3.81-3.83 3.81c-.36.35-.93.35-1.28 0a.92.92 0 0 1-.26-.63c0-.23.09-.46.26-.63l2.59-2.58h-2.83c-.4 0-8.56 11.66-3.47 16.63.79.78 1.85 1.3 3.04 1.3h10.9c-.45-.94-.68-1.96-.69-3 0-3.28 2.26-6.03 5.31-6.78" fill="#94e3d4"/><path d="M17.16 26.33c-.75 0-1.31.58-1.31 1.36 0 .74.56 1.31 1.31 1.31s1.34-.58 1.34-1.34-.56-1.33-1.34-1.32Zm.53-9.33c-1.9 0-3.24 1.05-3.6 2.65l2.22.72c.11-.66.59-1.1 1.23-1.1s1.02.33 1.02.98c0 1.44-2.43 1.81-2.43 4.14v.59h2.03v-.43c0-1.73 2.86-1.97 2.86-4.57 0-1.85-1.28-2.97-3.34-2.97ZM29 22c-3.31 0-6 2.69-6 6s2.69 6 6 6 6-2.69 6-6-2.69-6-6-6m.29 5.09-.07.73h-1.59v.36h1.53l-.07.72h-1.23c.28.43.77.68 1.28.66.51.04 1-.23 1.24-.69l.98.66c-.49.73-1.32 1.16-2.2 1.12a2.61 2.61 0 0 1-2.56-1.76h-.67l.07-.72h.46v-.37h-.41l.07-.73h.48c.38-1.08 1.42-1.8 2.57-1.76.88-.03 1.71.39 2.2 1.11l-.98.66c-.24-.45-.73-.72-1.25-.68-.51-.02-1 .23-1.28.67h1.42Z" fill="#000d6e"/></svg>