<svg xmlns="http://www.w3.org/2000/svg" viewBox="0 0 40 40" focusable="false" aria-hidden="true"><path fill="none" d="M0 0h40v40H0z"/><g data-name="Icon Tangerine"><path d="m10.308 27.021-8.308 8h7.111l5.026-8zM11.705 35.021h7.026q.299-3.996.591-7.994l-3.788-.006zM20.759 27.021l.65 8h6.941a4405 4405 0 0 0-3.837-7.988zM29.742 27.039l-3.727-.018 5.13 8H38q-4.121-3.99-8.258-7.982" fill="#fae052"/><path d="M15.682 14.567c-.278.146-.518.273-.76.397-.099.05-.106.15-.133.236q-.59 1.912-1.173 3.826c-.23.753-.923 1.16-1.628.947-.662-.2-1.066-.886-.87-1.55q.651-2.2 1.347-4.385c.175-.546.547-.964 1.056-1.236a260 260 0 0 1 3.334-1.756c.52-.268 1.066-.443 1.668-.32 1.022.211 1.767 1.248 1.624 2.28a1509 1509 0 0 1-.903 6.421c-.066.468.062.839.425 1.145.65.55 1.284 1.117 1.933 1.667.534.453.84 1.02.892 1.717.146 1.922.294 3.845.428 5.768a1.546 1.546 0 0 1-1.462 1.657c-.831.053-1.553-.584-1.62-1.45a863 863 0 0 1-.399-5.277.44.44 0 0 0-.17-.336c-.98-.835-1.934-1.704-2.94-2.507-1.083-.865-1.42-1.95-1.2-3.283.208-1.255.363-2.518.54-3.777.007-.046.006-.092.011-.184M19.187 5.006a2.47 2.47 0 0 1 2.481 2.463 2.483 2.483 0 0 1-2.476 2.496 2.48 2.48 0 0 1-2.482-2.468 2.47 2.47 0 0 1 2.477-2.49" fill="#fa9319"/><path d="M24.6 17.27c-1.012-.783-2.03-1.559-3.045-2.337l-.605-.463-.407 2.928 2.501 1.914q.337.257.76.266a1.285 1.285 0 0 0 1.232-.842 1.28 1.28 0 0 0-.435-1.467M14.97 21.97l-.482 1.5q-.937 2.916-1.878 5.833c-.127.395-.123.784.047 1.165.256.573.843.939 1.459.914a1.54 1.54 0 0 0 1.42-1.073c.667-2.056 1.324-4.116 1.993-6.172z" fill="#fa9319"/></g></svg>