<svg xmlns="http://www.w3.org/2000/svg" viewBox="0 0 40 40" focusable="false" aria-hidden="true"><path fill="none" d="M0 0h40v40H0z"/><g><path d="M28 9.841A1.85 1.85 0 0 0 26.14 8H3.86A1.85 1.85 0 0 0 2 9.841V13h26z" fill="#fa9319"/><path d="M8 11a1 1 0 0 0 1-1V6a1 1 0 0 0-2 0v4a1 1 0 0 0 1 1M22 11a1 1 0 0 0 1-1V6a1 1 0 0 0-2 0v4a1 1 0 0 0 1 1" fill="#000d6e"/><path d="M18.094 29.885a6 6 0 0 1-.06-.598A9 9 0 0 1 18 28.5q0-.535.054-1.056c.012-.128.038-.25.056-.377.03-.217.056-.435.099-.648.031-.157.077-.31.116-.464.044-.175.082-.352.135-.523.053-.175.12-.343.183-.514.052-.144.099-.29.157-.43.078-.188.169-.368.257-.55.057-.115.108-.234.168-.348.105-.197.222-.385.338-.574.056-.09.107-.183.165-.271.134-.204.28-.398.427-.592.05-.065.096-.133.148-.197q.249-.308.52-.596l.12-.133q.297-.305.616-.585l.089-.08q.342-.295.707-.558.028-.02.054-.04.386-.276.795-.515l.021-.013A10.4 10.4 0 0 1 28 18.026V14H2v14a2 2 0 0 0 2 2h14.109q-.009-.058-.015-.115" fill="#fae052"/><path d="M23.796 31.03c.017-.397.043-.62.043-.62l-.061.031-3.029 1.53c.008.019.017.045.025.062.1.22.186.388.271.536.107.193.202.36.307.516.172.263.316.472.476.665.223.292.458.543.682.776.149.148.328.31.508.462l.03.026.006.006q.31.256.645.488c.107.074.212.148.327.214l.097.056a95 95 0 0 1-.232-2.029q-.027-.26-.045-.504l-.006-.066a21 21 0 0 1-.052-1.13c-.008-.407-.003-.756.008-1.019M33.7 31.68l-.007-.003s.074.511.022 1.63l-.018.007c-.004.175-.008.347-.019.546l-.011.19c-.03.374-.08.812-.14 1.282a9 9 0 0 0 1.065-.92l.029-.026c.335-.342.642-.712.912-1.109.103-.15.18-.314.272-.47l-1.064-.596.001-.004-.084-.043-.926-.52c-.013.01-.024.024-.037.033q.003 0 .005.003M31.275 33.287c-.049-1.092.023-1.595.023-1.595l-.015.008-.948.478-.195.1-3.695-1.867s.026.222.043.62a19.597 19.597 0 0 1-.095 2.719 95 95 0 0 1-.343 2.877c.263.08.526.158.796.212.08.018.15.029.223.04l.215.038c.236.033.476.056.692.064.206.01.361.019.524.019a8.3 8.3 0 0 0 2.91-.517c.07-.025.134-.065.203-.092a29 29 0 0 1-.338-3.104" fill="none"/><circle cx="26.50274658" cy="25.86621095" r=".51498413" fill="#fae052"/><path d="M23.798 25.49a.516.516 0 1 0 .002 1.031.516.516 0 0 0-.002-1.031" fill="#fae052"/><path d="M22.446 25.813c.021-.186-.056-.495-.028-.841.044-.532.318-.957.041-1.032-.021-.006-.038-.015-.066-.016-.396-.021-.755.426-.802.998-.04.486.159.903.461 1.032.094-.094.202-.161.325-.161.024 0 .045.016.07.02M25.133 27.502c-.575-.01-1.036.304-1.03.7.004.396.46.12 1.035.128.574.01 1.05.302 1.044-.094-.005-.396-.475-.725-1.05-.734M27.812 24.972c.03.354-.053.67-.027.854.038-.011.074-.033.116-.033.115 0 .217.061.308.145.284-.143.469-.546.43-1.016-.047-.572-.406-1.02-.801-.998-.014 0-.021.006-.034.008-.333.05-.037.488.008 1.04" fill="#000d6e"/><path d="m26.445 30.41.005-.652c.69-.47 1.21-1.306 1.414-2.312q.005 0 .01.002c.01 0 .017.007.027.007a.44.44 0 0 0 .254-.094c.19-.13.324-.393.324-.704l-.002-.016.002-.017a.93.93 0 0 0-.27-.686c-.09-.084-.193-.145-.308-.145-.042 0-.078.022-.116.033-.026-.184.056-.5.027-.854-.045-.552-.34-.99-.008-1.04-.305-.892-1.368-1.718-2.665-1.723h-.012c-1.3.005-2.366.836-2.668 1.73.277.076.003.501-.04 1.033-.03.346.048.655.027.841-.024-.004-.045-.02-.07-.02-.122 0-.23.067-.324.161a.95.95 0 0 0-.254.67c0 .121.02.234.052.338.008.024.022.042.03.065.1.251.28.428.497.428.007 0 .013-.005.02-.006l.062-.008c.199.99.703 1.817 1.376 2.293l.004.677s-.026.222-.043.62c-.01.262-.016.611-.008 1.018.305.387.773.64 1.305.64.588 0 1.103-.306 1.4-.767h.006c.004-.352-.001-.656-.011-.892-.017-.397-.043-.62-.043-.62m-1.307-2.08c-.574-.009-1.03.268-1.036-.128-.005-.396.456-.71 1.03-.7s1.045.338 1.05.734-.47.104-1.044.094m.276-2.099h-.485a1.155 1.155 0 0 1-1.13.927 1.155 1.155 0 0 1 0-2.307c.49 0 .907.31 1.073.742h.514a1.153 1.153 0 1 1 .028.638" fill="#fae052"/><path d="M27.656 25.866c0-.636-.517-1.153-1.153-1.153-.542 0-.994.376-1.117.88h-.514a1.152 1.152 0 1 0-1.074 1.565c.559 0 1.025-.399 1.13-.927h.486c.154.457.581.788 1.089.788.636 0 1.153-.517 1.153-1.153m-3.858.654a.516.516 0 1 1 .002-1.032.516.516 0 0 1-.002 1.032m2.19-.654a.516.516 0 1 1 1.031.002.516.516 0 0 1-1.031-.002" fill="#fa9319"/><path d="m23.953 36.837.016.01.052.025-.024-.012zM20.712 33.907c-.054-.078-.115-.153-.168-.233l.001.002c.127.194.265.381.405.566q.041.056.084.111c-.118-.143-.218-.295-.322-.446M22.42 35.79c.134.112.276.214.416.318l.14.105q-.287-.204-.557-.424zM21.105 34.45c.13.16.27.313.41.466.072.079.141.162.217.239l.023.025a9 9 0 0 1-.688-.782zM23.167 36.356q.062.04.125.08-.072-.046-.143-.094z" fill="#fff"/><path d="M30.01 28.201c.003-.33.008-.74.01-1.06l5.072.036-.01 1.038c.192.05.343.241.4.505a3.3 3.3 0 0 0 .402-1.537 3.34 3.34 0 0 0-1.422-2.757c.003-.042.013-.08.013-.123a1.915 1.915 0 0 0-3.83-.027c0 .047.01.092.014.139a3.33 3.33 0 0 0-1.442 2.72 3.3 3.3 0 0 0 .36 1.504c.074-.246.24-.414.433-.438" fill="#000d6e"/><path d="M31.275 33.287c.358.233.776.38 1.236.38.44 0 .839-.138 1.186-.353q.009-.003.018-.008c.052-1.118-.022-1.63-.022-1.63l.007.004-.005-.003q.019-.017.037-.033.196-.146.37-.327l.002-.004c.408-.43.709-1 .86-1.64l.03.003c.285 0 .517-.332.517-.743 0-.076-.015-.144-.03-.213-.056-.264-.207-.456-.4-.505l.011-1.038-5.071-.036-.011 1.06c-.194.024-.359.192-.433.438q-.041.136-.042.294c0 .41.231.743.517.743q.016-.001.032-.004c.17.85.602 1.583 1.216 2.017l-.017.01.015-.007s-.072.503-.023 1.595" fill="#fae052"/><path d="M33.33 36.67a10 10 0 0 0 .898-.603c-.286.215-.587.41-.896.593z" fill="#fff"/><path d="M22.978 36.214h-.002q-.07-.054-.14-.106.07.054.142.106M21.067 34.397q.019.027.038.052z" fill="#d9304c"/><path d="m37.222 32.222.034-.088a9 9 0 0 0 .374-1.05c.038-.132.06-.27.093-.404.065-.275.135-.548.175-.832.065-.44.102-.89.102-1.348 0-5.25-4.25-9.5-9.5-9.5-5.24 0-9.5 4.25-9.5 9.5 0 .24.01.47.03.7.01.2.03.39.06.58 0 .05.01.11.02.17.03.21.07.41.12.62.04.21.1.41.16.61.01.05.02.1.04.14.06.19.12.37.19.54.08.21.16.42.26.62.09.2.19.4.3.59.11.2.22.39.34.57l.025.036v-.002c.052.08.113.155.167.233.104.15.204.303.322.446q-.044-.055-.084-.111l.084.112c.01.012.016.024.026.036l.007.008c.208.273.444.528.688.782l.035.04c.168.168.354.334.54.493l.04.037.01.01.038.029.002.002-.001-.002q.27.22.557.424l.001.001c.053.037.1.08.153.116l.02.012q.007.008.017.014l-.018-.014q.07.048.143.093.115.081.238.155c.13.08.27.16.41.24q.003 0 .005.003l.024.014-.016-.01.044.023.024.012q.17.093.339.178c.72.35 1.49.61 2.29.77.14.03.29.05.45.08.27.04.56.07.84.08.19.01.37.02.56.02 1.15 0 2.24-.2 3.26-.58a8.4 8.4 0 0 0 1.062-.483 9.471 9.471 0 0 0 1.406-.87c.28-.213.535-.451.79-.692.112-.107.235-.201.342-.313.095-.1.179-.207.27-.31.247-.28.488-.566.7-.875q.016-.019.03-.037c.344-.503.62-1.051.862-1.618M28.5 37c-.163 0-.318-.009-.524-.02a7 7 0 0 1-.692-.063l-.215-.037c-.073-.012-.143-.023-.223-.04a9 9 0 0 1-.796-.213 88 88 0 0 0 .343-2.878 21 21 0 0 0 .106-1.827h-.006c-.297.46-.812.767-1.4.767-.532 0-1-.253-1.305-.64a20 20 0 0 0 .052 1.13l.006.066q.018.244.045.504a93 93 0 0 0 .232 2.03l-.097-.057c-.115-.066-.22-.14-.327-.214a10 10 0 0 1-.645-.488l-.005-.006-.031-.026a9 9 0 0 1-.508-.462 9 9 0 0 1-.682-.776 7 7 0 0 1-.476-.665 7 7 0 0 1-.307-.516 6 6 0 0 1-.27-.536c-.01-.017-.018-.043-.026-.061l3.029-1.53.06-.031-.003-.677c-.673-.476-1.177-1.303-1.376-2.293l-.062.008c-.007 0-.013.006-.02.006-.216 0-.397-.177-.496-.428-.01-.023-.023-.04-.03-.065a1.1 1.1 0 0 1-.053-.338c0-.282.104-.52.254-.67-.302-.129-.5-.546-.46-1.032.046-.572.405-1.02.8-.998.029.001.046.01.067.016.302-.895 1.368-1.726 2.668-1.731h.012c1.297.005 2.36.831 2.665 1.723.013-.002.02-.007.034-.008.395-.021.754.426.801.998.039.47-.146.873-.43 1.016.159.148.27.393.27.686l-.002.017.002.016c0 .311-.134.574-.324.704a.44.44 0 0 1-.254.094c-.01 0-.018-.007-.027-.007l-.01-.002c-.203 1.006-.723 1.842-1.414 2.312l-.005.653 3.695 1.866.195-.099.948-.478.017-.011c-.614-.434-1.046-1.167-1.216-2.017-.01 0-.02.004-.032.004-.286 0-.517-.332-.517-.743q0-.158.042-.294a3.3 3.3 0 0 1-.36-1.504 3.33 3.33 0 0 1 1.442-2.72c-.004-.047-.014-.092-.013-.139a1.915 1.915 0 1 1 3.829.027c0 .042-.01.081-.013.123a3.34 3.34 0 0 1 1.422 2.757 3.3 3.3 0 0 1-.403 1.537c.015.069.03.137.03.213 0 .41-.232.743-.517.743q-.015-.001-.03-.004a3.6 3.6 0 0 1-.86 1.641l-.003.004q-.172.18-.37.327l.927.52.084.043v.004l1.063.596c-.092.156-.169.32-.272.47-.27.397-.577.767-.912 1.109l-.029.026q-.496.502-1.064.92c.06-.47.108-.908.139-1.282l.011-.19c.011-.2.015-.37.02-.546a2.24 2.24 0 0 1-1.187.353c-.46 0-.878-.147-1.236-.38.034.744.13 1.78.338 3.104-.069.027-.132.067-.202.092A8.3 8.3 0 0 1 28.5 37" fill="#fa9319"/></g></svg>