<svg data-name="Calque 1" xmlns="http://www.w3.org/2000/svg" viewBox="0 0 40 40" focusable="false" aria-hidden="true"><path d="M0 0h40v40H0z" fill="none"/><path d="M6.94 23.01H5.03V31h1.91c.6 0 1.08-.48 1.08-1.08V24.1c0-.6-.49-1.08-1.08-1.08Z" fill="#f1d752"/><path d="M34.95 26.23a1.49 1.49 0 0 0-1.47-1.22l-.3.03-7.19 1.73v.24a2.06 2.06 0 0 1-2 2h-8.98c-.28.02-.51-.19-.53-.47s.19-.51.47-.53h9.04c.54-.03.96-.46 1-1v-1.07a.97.97 0 0 0-.43-.73s-.05-.04-.08-.05h-.01s-.04-.03-.07-.05l-.03-.02h-.03v-.02h-.03l-.01-.01h-.03l-.01-.01h-.03l-.01-.01s-.04-.01-.07-.02-.08-.01-.12-.01h-5.02c-.58-.09-1.12-.34-1.57-.73l-.09-.06-.02-.02-.08-.06h-.02q-.105-.09-.21-.15h-.01l-.1-.07-.24-.15c-.39-.24-.8-.42-1.24-.56-.55-.13-1.12-.2-1.69-.2h-3.68c-.55 0-1 .45-1 1v5.98s0 .64 1 1 6.47 2.61 6.6 2.67c1.02.42 2.16.44 3.2.07.01 0 14.2-5.84 14.2-5.84.67-.26 1.06-.96.93-1.67Z" fill="#f18a19"/><path d="M24.09 12a5.506 5.506 0 1 0-.07 11.01A5.506 5.506 0 0 0 24.09 12m.48 4.49-.08.81h-1.77c0 .06-.01.12-.01.19v.21h1.71l-.08.81h-1.38c.31.48.86.76 1.43.74.57.05 1.12-.25 1.39-.76l1.09.74c-.55.82-1.49 1.29-2.47 1.24-1.28.04-2.44-.77-2.85-1.98h-.75l.08-.81h.52v-.2c0-.07 0-.13.01-.2h-.46l.08-.82h.54c.43-1.21 1.6-2 2.88-1.94.98-.03 1.9.45 2.45 1.26l-1.1.73c-.27-.51-.81-.81-1.39-.77a1.64 1.64 0 0 0-1.43.74h1.59Z" fill="#f1d752"/><path d="m24.58 16.49-.08.81h-1.77c0 .06-.01.12-.01.19v.21h1.71l-.08.81h-1.38c.31.48.86.76 1.43.74.57.05 1.12-.25 1.39-.76l1.09.74c-.55.82-1.49 1.29-2.47 1.24-1.28.04-2.44-.77-2.85-1.98h-.75l.08-.81h.52v-.2c0-.07 0-.13.01-.2h-.46l.08-.82h.54c.43-1.21 1.6-2 2.88-1.94.98-.03 1.9.45 2.45 1.26l-1.1.73c-.27-.51-.81-.81-1.39-.77a1.64 1.64 0 0 0-1.43.74h1.59Z" fill="#000d6e"/></svg>