<svg xmlns="http://www.w3.org/2000/svg" viewBox="0 0 40 40" focusable="false" aria-hidden="true"><path fill="none" d="M0 0h40v40H0z"/><g data-name="Icon Red"><path d="M19.5 32.507a.5.5 0 0 0 1 0V27h-1ZM12.288 32.19a.5.5 0 0 0 .707.707L18.892 27h-1.414ZM27.015 32.898a.5.5 0 0 0 .707-.708L22.532 27h-1.414Z" fill="#d9304c"/><path d="M32.987 9h-26v18h26Zm-18.393 3.015a4.01 4.01 0 0 1 3.47 3.47h-3.47Zm-.5 7.97a4 4 0 0 1-.5-7.97v4.47h4.47a4.01 4.01 0 0 1-3.97 3.5m15.406-.986h-7a.5.5 0 0 1 0-1h7a.5.5 0 0 1 0 1m0-3h-7a.5.5 0 0 1 0-1h7a.5.5 0 0 1 0 1m0-3h-7a.5.5 0 0 1 0-1h7a.5.5 0 0 1 0 1" fill="#ffaca6"/><path d="M29.5 11.999h-7a.5.5 0 0 0 0 1h7a.5.5 0 0 0 0-1M29.5 14.999h-7a.5.5 0 0 0 0 1h7a.5.5 0 0 0 0-1M29.5 17.999h-7a.5.5 0 0 0 0 1h7a.5.5 0 0 0 0-1" fill="#000d6e"/><path d="M13.594 16.485v-4.47a4 4 0 1 0 4.47 4.47Z" fill="#d9304c"/><path d="M14.594 12.015v3.47h3.47a4.01 4.01 0 0 0-3.47-3.47" fill="#d9304c"/></g></svg>