<svg version="1.1" xmlns="http://www.w3.org/2000/svg" x="0px" y="0px" viewBox="0 0 40 40" xml:space="preserve" focusable="false" aria-hidden="true" enable-background="new 0 0 40 40"><path fill="none" d="M0 0h40v40H0z"/><g><path d="m35.342 30.405-.176.289M35.166 30.694l-.122.2M35.568 30.035l-.225.37M35.044 30.894l-.044.073M35.769 29.705l-.042.069M35.727 29.774l-.159.262M35.8 29.654l-.031.05M4.361 29.918l-.07-.116" fill="none" stroke="#1B5951" stroke-width="0" stroke-linecap="round" stroke-linejoin="round"/><path d="m4.658 30.405-.297-.487z" fill="#1B5951"/><path d="m5 30.967-.044-.073" fill="none" stroke="#1B5951" stroke-width="0" stroke-linecap="round" stroke-linejoin="round"/><path d="m4.956 30.894-.298-.489z" fill="#1B5951"/><path d="m4.291 29.803-.074-.121" fill="none" stroke="#1B5951" stroke-width="0" stroke-linecap="round" stroke-linejoin="round"/><circle cx="20" cy="15.5" r="7.5" fill="#B8B2FF"/><path d="M18.791 17.056v-.502c0-1.982 2.064-2.295 2.064-3.517 0-.543-.34-.829-.869-.829-.543 0-.951.38-1.046.937l-1.888-.611c.299-1.358 1.439-2.254 3.056-2.254 1.752 0 2.838.951 2.838 2.526 0 2.213-2.431 2.417-2.431 3.884v.367h-1.724zm-.244 2.308c0-.665.476-1.154 1.114-1.154.666 0 1.141.489 1.141 1.127 0 .652-.489 1.141-1.141 1.141a1.093 1.093 0 0 1-1.114-1.114" fill="#000D6E"/><path d="m35.342 30.405-.176.289M35.166 30.694l-.122.2M35.568 30.035l-.225.37M35.044 30.894l-.044.073M35.769 29.705l-.042.069M35.727 29.774l-.159.262" fill="none" stroke="#1B5951" stroke-width="0" stroke-linecap="round" stroke-linejoin="round"/><path d="M37.926 23.975 34.421 8.999a1.5 1.5 0 0 0-2.947.076l-.016.3.558 7.384.237.038c1.271.205 1.786 1.486 1.656 2.293l-1.434 8.885a.5.5 0 1 1-.987-.159l1.434-8.885c.045-.281-.134-1.035-.828-1.147v.001l-.025-.005-.962-.155c-.693-.112-1.101.547-1.146.828l-.797 4.936-.004.024h-.001c-.093.514-.498.94-.966 1.433-.462.487-1 1.053-1.38 1.829a7.4 7.4 0 0 0-.47 1.638C26.09 29.877 26 38 26 38h6.954s.238-4.067 2.046-7.033c1.046-1.727 2.296-3.76 2.343-3.838a4.501 4.501 0 0 0 .583-3.154" fill="#6C2273"/><path d="m35.8 29.654-.031.05M4.361 29.918l-.07-.116" fill="none" stroke="#1B5951" stroke-width="0" stroke-linecap="round" stroke-linejoin="round"/><path d="m4.658 30.405-.297-.487z" fill="#1B5951"/><path d="m5 30.967-.044-.073" fill="none" stroke="#1B5951" stroke-width="0" stroke-linecap="round" stroke-linejoin="round"/><path d="m4.956 30.894-.298-.489z" fill="#1B5951"/><path d="m4.291 29.803-.074-.121" fill="none" stroke="#1B5951" stroke-width="0" stroke-linecap="round" stroke-linejoin="round"/><path d="M13.187 26.676c-.38-.776-.917-1.342-1.38-1.829-.468-.492-.873-.919-.966-1.433h-.001l-.004-.024-.797-4.936c-.045-.281-.453-.94-1.146-.828l-.962.155-.025.005v-.001c-.694.112-.873.866-.828 1.147l1.434 8.885a.5.5 0 1 1-.987.159l-1.434-8.885c-.13-.807.384-2.088 1.656-2.293l.237-.038.558-7.384-.016-.3a1.5 1.5 0 0 0-2.947-.077L2.074 23.975a4.5 4.5 0 0 0 .582 3.154A729 729 0 0 1 5 30.967C6.808 33.933 7.046 38 7.046 38H14s-.09-8.123-.343-9.685a7.4 7.4 0 0 0-.47-1.639" fill="#6C2273"/></g></svg>