<svg xmlns="http://www.w3.org/2000/svg" viewBox="0 0 40 40" focusable="false" aria-hidden="true"><g id="Solid"><rect width="40" height="40" fill="none"/></g><g id="Icon_Tangerine" data-name="Icon Tangerine"><path d="M20.004,20.1157l-3.3886,3.3755L20,20.12l3.3846,3.3715a.7945.7945,0,0,0,.567.2315.7954.7954,0,0,1-.5591-.2315Z" fill="none"/><path d="M24.7209,20.0851c-.5546-.0006-1.4524-.0012-2.4973-.0015l2.295,2.286a.7975.7975,0,0,1-1.134,1.1216L20,20.12l-3.3846,3.3715A.7946.7946,0,0,1,15.49,22.37l2.2948-2.286c-1.0484,0-1.9491.0009-2.5052.0015-.3542,0-7.5685,10.3093-3.0712,14.7141a3.8429,3.8429,0,0,0,2.6868,1.1493H25.1053a3.8429,3.8429,0,0,0,2.6868-1.1493C32.2894,30.3944,25.0752,20.0854,24.7209,20.0851ZM16.2341,31.2582a1.0379,1.0379,0,0,0,1.0779-.8345l.8287.3361a1.8924,1.8924,0,0,1-1.895,1.3156,2.0893,2.0893,0,0,1,.0058-4.1784,1.9009,1.9009,0,0,1,1.8892,1.3155l-.8287.3361a1.05,1.05,0,0,0-1.0837-.8345,1.2757,1.2757,0,0,0,.0058,2.5441ZM22.093,32H21.23V30.3309H19.6937V32H18.83V27.9723h.8634V29.56H21.23V27.9723h.8635Zm3.651-3.28H23.93v.8926H25.53V30.36H23.93V32h-.8635V27.9723H25.744Z" fill="#fae052"/><path d="M25.3582,13.8721a.7932.7932,0,0,0-.7823-.9236H15.3448a.7931.7931,0,0,0-.7822.9236l.6391,3.8351H24.719Z" fill="#fae052"/><path d="M15.49,23.4912a.7983.7983,0,0,0,1.1259,0l3.3886-3.3755,3.3885,3.3755A.7947.7947,0,0,0,24.5186,22.37l-2.295-2.286-.7932-.79H24.719V17.7072H15.2017v1.5862h3.3758L15.49,22.37A.791.791,0,0,0,15.49,23.4912Z" fill="#fa9319"/><path d="M16.2283,28.7141a1.05,1.05,0,0,1,1.0837.8345l.8287-.3361a1.9009,1.9009,0,0,0-1.8892-1.3155,2.0893,2.0893,0,0,0-.0058,4.1784,1.8924,1.8924,0,0,0,1.895-1.3156l-.8287-.3361a1.0379,1.0379,0,0,1-1.0779.8345,1.2757,1.2757,0,0,1-.0058-2.5441Z" fill="#000d6e"/><polygon points="21.229 29.56 19.694 29.56 19.694 27.972 18.83 27.972 18.83 32 19.694 32 19.694 30.331 21.229 30.331 21.229 32 22.093 32 22.093 27.972 21.229 27.972 21.229 29.56" fill="#000d6e"/><polygon points="23.067 32 23.93 32 23.93 30.36 25.53 30.36 25.53 29.612 23.93 29.612 23.93 28.72 25.744 28.72 25.744 27.972 23.067 27.972 23.067 32" fill="#000d6e"/><path d="M12.0347,11.9424a.4988.4988,0,0,0,.3344-.1279L17.5347,7.168l3.6826,3.6074a.5.5,0,0,0,.6889.01l5.5591-5.1288V7.4717a.5.5,0,0,0,1,0v-3a.5.5,0,0,0-.5-.5h-3a.5.5,0,1,0,0,1h1.7684L21.5776,9.7285,17.8994,6.125a.5021.5021,0,0,0-.6846-.0146L11.7,11.07a.5.5,0,0,0,.3345.8721Z" fill="#000d6e"/></g></svg>