<svg xmlns="http://www.w3.org/2000/svg" viewBox="0 0 40 40" focusable="false" aria-hidden="true"><path fill="none" d="M0 0h40v40H0z"/><g data-name="Icon Purple"><path fill="none" d="M11.96 24.018h2v2h-2zM17.959 24.018h2v2h-2zM6 24.018h2v2H6z"/><path d="M34.606 23.702h-1.48a.5.5 0 0 0 0 1h.236l-1.858 1.742-1.689-1.612a.47.47 0 0 0-.357-.139.5.5 0 0 0-.35.155l-2.37 2.496a.5.5 0 0 0 .726.689l2.024-2.132 1.668 1.593a.5.5 0 0 0 .688.003l2.262-2.122v.306a.5.5 0 1 0 1 0v-1.479a.5.5 0 0 0-.5-.5" fill="#000d6e"/><path d="M31 20a6 6 0 1 0 6 6 6 6 0 0 0-6-6m4.106 5.68a.5.5 0 1 1-1 0v-.305l-2.262 2.121a.5.5 0 0 1-.688-.002L29.488 25.9l-2.024 2.132a.5.5 0 0 1-.725-.69l2.368-2.495a.5.5 0 0 1 .351-.155.47.47 0 0 1 .357.139l1.69 1.612 1.857-1.742h-.235a.5.5 0 0 1 0-1h1.478a.5.5 0 0 1 .5.5Z" fill="#b8b2ff"/><path d="M26.738 20.46 26.5 7h-4L22 19l-6-4v4l-6-4v4l-6-4v16h22.11a6.976 6.976 0 0 1 .628-10.54M8 26.018H6v-2h2Zm5.96 0h-2v-2h2Zm5.998 0h-2v-2h2Z" fill="#6c2273"/></g></svg>