<?xml version="1.0" encoding="UTF-8"?><svg xmlns="http://www.w3.org/2000/svg" viewBox="0 0 40 40" focusable="false" aria-hidden="true"><g id="Solid"><rect width="40" height="40" fill="none"/></g><g id="Icon_Green"><g><path d="M28.96752443,28.51095972c.00328792-.0412519,.00634645-.08196856,.00944321-.12272345-.47980664,.51933811-1.17336617,.85344411-1.95478193,.85344411s-1.4749753-.33410599-1.95478193-.85348234c.00252329,.03318503,.00504657,.06637007,.00768455,.09989918,.01934519,.24506458,.04094605,.49544336,.06793756,.75671815,.3131933,3.03222501,.62638661,3.75518465,.62638661,3.75518465h2.50554643s.3131933-.72295964,.62638661-3.75518465c.02615042-.25309322,.04721603-.49594037,.06617891-.73385565Z" fill="#000d6e"/><path d="M25.03739196,27.95365762c.00871681,.14164809,.01880995,.28643118,.03001181,.43454042,.47980664,.51937635,1.17336617,.85348234,1.95478193,.85348234s1.4749753-.33410599,1.95478193-.85344411c.01120186-.14810924,.021295-.29293055,.03001181-.43457865,.07328999-1.19018808,.06361739-2.14685751,.03654941-2.79243639-.0250417-.59622187-.06384678-.93063371-.06384678-.93063371l.00818156-1.2272345c1.0054912-.66480937,1.76274458-1.83117916,2.06584474-3.23263508,.03696996,.00661407,.07348114,.0154838,.11175098,.0154838,.47930962,0,.86781919-.53417198,.86781919-1.19309368,0-.54296525-.26536557-.99597153-.62638661-1.14048699v.20151879c0,.07057554-.02767968,.13247251-.0671347,.18481158-.01395454,.01846586-.02798553,.03555539-.04564854,.05054218-.02840608,.02412414-.05998539,.0434311-.0958084,.05620046-.03284095,.0117371-.06709647,.02102738-.10398996,.02102738-.17261569,0-.3125816-.1399659-.3125816-.3125816v-1.0217014c0-.04538091-.00367023-.08445361-.00470249-.12819057-.03352912-.05792088-.07298413-.11614761-.11068049-.17441258-.2123001-.32798893-.49429641-.65318696-.86288731-.94015338-.63892657,.27163555-1.4770398,.41293956-2.46807945,.07845125-.40433745-.1364486-.72926785-.28478722-.9972714-.43629907-.25217566-.14260388-.45006245-.28757813-.60535922-.42957031-.59828638,.09966979-1.09250633,.26215411-1.49302062,.42957031-.3389614,.14172456-.61445835,.28474899-.83352544,.39152986-.05275961,.20671829-.10131375,.46179955-.12597314,.77357828-.01078131,.13595159-.01758654,.28019943-.01758654,.43549621v1.0217014c0,.17261569-.13992767,.3125816-.3125816,.3125816-.01800709,0-.03360558-.00734047-.0508098-.0102843-.14742107-.02511816-.2617718-.14768869-.2617718-.3022973v-.20148056c-.36098281,.14451546-.62638661,.59752175-.62638661,1.14044876,0,.6589217,.3885478,1.19309368,.86781919,1.19309368,.05826497,0,.1150389-.00852565,.17009241-.0235889,.29778597,1.38578097,1.03837038,2.54469559,2.02520455,3.21520147h-.01598081l.00649937,1.25277321s-.03880508,.33441184-.06384678,.93063371c-.02706798,.64557887-.0367788,1.60224831,.03651118,2.79243639Z" fill="#94e3d4"/><path d="M25.07508833,28.48809722c-.00263798-.03352912-.00516127-.06671415-.00768455-.09989918-.01120186-.14810924-.021295-.29289232-.03001181-.43454042-.07328999-1.19018808-.06357916-2.14685751-.03651118-2.79243639,.0250417-.59622187,.06384678-.93063371,.06384678-.93063371l-.0913353,.04614555-6.15505892,3.10991163c-.74509574,.37646661-1.25403486,1.09904393-1.35756604,1.9274081l-.4607673,3.68594721h8.76941249s-.3131933-.72295964-.62638661-3.75518465c-.02699151-.26127478-.04859237-.51165356-.06793756-.75671815Z" fill="#1b5951"/><path d="M36.58364235,29.3140528c-.10356942-.82836417-.6124703-1.5509415-1.35760427-1.9274081l-6.24635599-3.15605718s.03880508,.33441184,.06384678,.93063371c.02706798,.64557887,.03674057,1.60224831-.03654941,2.79243639-.00871681,.14164809-.01880995,.28646941-.03001181,.43457865-.00309676,.04075489-.00615529,.08147155-.00944321,.12272345-.01896288,.23791527-.04002849,.48076243-.06617891,.73385565-.3131933,3.03222501-.62638661,3.75518465-.62638661,3.75518465h8.76941249l-.46072906-3.68594721Z" fill="#1b5951"/><path d="M22.89925126,17.95643715c.01720422,.00294383,.03280272,.0102843,.0508098,.0102843,.17265393,0,.3125816-.1399659,.3125816-.3125816v-1.0217014c0-.15529678,.00680523-.29954462,.01758654-.43549621,.02465938-.31177873,.07321352-.56686,.12597314-.77357828,.21906709-.10678087,.49456403-.2498053,.83352544-.39152986,.40051429-.1674162,.89473424-.32990051,1.49302062-.42957031,.15529678,.14199218,.35318356,.28696642,.60535922,.42957031,.26800355,.15151185,.59293395,.29985047,.9972714,.43629907,.99103965,.33448831,1.82915288,.1931843,2.46807945-.07845125,.3685909,.28696642,.65058721,.61216445,.86288731,.94015338,.03769636,.05826497,.07715138,.1164917,.11068049,.17441258,.00103225,.04373696,.00470249,.08280966,.00470249,.12819057v1.0217014c0,.17261569,.1399659,.3125816,.3125816,.3125816,.0368935,0,.07114902-.00929028,.10398996-.02102738,.03582301-.01276936,.06740232-.03207632,.0958084-.05620046,.017663-.01498679,.031694-.03207632,.04564854-.05054218,.03945502-.05233907,.0671347-.11423603,.0671347-.18481158v-1.35144898c.02760322-.80963069,.04224592-1.67653232,0-2.09428906-.09091476-.89962788-1.77562864-3.13193303-4.38470625-3.13193303s-4.38470625,1.96892763-4.38470625,3.75831964v2.81935144c0,.15460861,.11435073,.27717913,.2617718,.3022973Z" fill="#000d6e"/></g><g><g><path d="M10.44010193,16.58910592h0c-1.06726308,0-1.93248487-.64888011-1.93248487-1.44936366h3.86496975c0,.80048355-.86522179,1.44936366-1.93248487,1.44936366Z" fill="#000d6e"/><path d="M13.82195045,9.82540886c0-1.86774663-1.5141019-3.38184853-3.38184853-3.38184853s-3.38184853,1.5141019-3.38184853,3.38184853c0,.72651769,.23122182,1.39786293,.62110064,1.94905593h-.00241561c.83067862,.9760498,.83067862,1.96823584,.83067862,1.96823584v.91392041h3.86496975v-.91392041s.00792319-.83116174,.6464645-1.73237606c.49998215-.58955282,.80289915-1.35138667,.80289915-2.18491571Z" fill="#94e3d4"/></g><path d="M10.47216797,5.66308594c-.27636719,0-.5-.22363281-.5-.5v-1.66308594c0-.27636719,.22363281-.5,.5-.5s.5,.22363281,.5,.5v1.66308594c0,.27636719-.22363281,.5-.5,.5Z" fill="#1b5951"/><path d="M17.3515625,11.25390625h-1.66259766c-.27636719,0-.5-.22363281-.5-.5s.22363281-.5,.5-.5h1.66259766c.27636719,0,.5,.22363281,.5,.5s-.22363281,.5-.5,.5Z" fill="#1b5951"/><path d="M15.09765625,7.40722656c-.16308594,0-.32275391-.07910156-.41894531-.22558594-.15087891-.23144531-.08642578-.54101562,.14453125-.69238281l1.39111328-.91113281c.23095703-.15332031,.54101562-.08691406,.69238281,.14355469,.15087891,.23144531,.08642578,.54101562-.14453125,.69238281l-1.39111328,.91113281c-.08447266,.05566406-.1796875,.08203125-.2734375,.08203125Z" fill="#1b5951"/><path d="M16.61230469,15.55371094c-.09375,0-.18896484-.02636719-.2734375-.08203125l-1.390625-.91113281c-.23095703-.15136719-.29541016-.4609375-.14453125-.69238281,.15234375-.23046875,.4609375-.29589844,.69238281-.14355469l1.390625,.91113281c.23095703,.15136719,.29541016,.4609375,.14453125,.69238281-.09619141,.14648438-.25585938,.22558594-.41894531,.22558594Z" fill="#1b5951"/><path d="M5.16259766,11.25390625h-1.66259766c-.27636719,0-.5-.22363281-.5-.5s.22363281-.5,.5-.5h1.66259766c.27636719,0,.5,.22363281,.5,.5s-.22363281,.5-.5,.5Z" fill="#1b5951"/><path d="M5.75390625,7.40722656c-.09375,0-.18896484-.02636719-.2734375-.08203125l-1.39111328-.91113281c-.23095703-.15136719-.29541016-.4609375-.14453125-.69238281,.15185547-.23046875,.46191406-.29589844,.69238281-.14355469l1.39111328,.91113281c.23095703,.15136719,.29541016,.4609375,.14453125,.69238281-.09619141,.14648438-.25585938,.22558594-.41894531,.22558594Z" fill="#1b5951"/><path d="M4.23925781,15.55371094c-.16308594,0-.32275391-.07910156-.41894531-.22558594-.15087891-.23144531-.08642578-.54101562,.14453125-.69238281l1.390625-.91113281c.23193359-.15332031,.54052734-.08691406,.69238281,.14355469,.15087891,.23144531,.08642578,.54101562-.14453125,.69238281l-1.390625,.91113281c-.08447266,.05566406-.1796875,.08203125-.2734375,.08203125Z" fill="#1b5951"/></g></g></svg>