<?xml version="1.0" encoding="UTF-8"?><svg xmlns="http://www.w3.org/2000/svg" viewBox="0 0 40 40" focusable="false" aria-hidden="true"><g id="Solid"><rect width="40" height="40" fill="none"/></g><g id="Icon_Tangerine"><g><polygon points="22.45339355 29.70216067 26.33620605 25.8194092 12.74648438 12.22968752 3.68666992 21.28950198 17.2763916 34.87922366 22.45339355 29.70216067" fill="#fae052"/><path d="M11.41060791,10.8938721c-.33441162-.33447266-.87664795-.33447266-1.21105957,0l-7.84869385,7.84869385c-.33447266,.33441162-.33447266,.87664795,0,1.21105957l1.33581543,1.33587646L12.74648438,12.22968752l-1.33587646-1.33581543Zm-2.8704834,2.95361328c.17871094-.1786499,.46844482-.17871094,.64715576,0,.1786499,.17871094,.1786499,.46844482,0,.64715576l-3.23565674,3.23565674c-.17871094,.1786499-.46844482,.1786499-.64709473,0-.17877197-.17871094-.17871094-.46844482,0-.64715576m5.16949463-3.87524414c-.17871094,.1786499-.46844482,.1786499-.64715576,0-.17871094-.17871094-.1786499-.46844482,0-.64715576,.17877197-.17871094,.46844482-.17871094,.64715576,0s.17871094,.46844482,0,.64715576Z" fill="#fa9319"/><path d="M8.54012451,13.84748538l-3.2355957,3.23565674c-.17871094,.17871094-.17877197,.46844482,0,.64715576,.1786499,.1786499,.46838379,.1786499,.64709473,0l3.23565674-3.23565674c.1786499-.17871094,.1786499-.46844482,0-.64715576-.17871094-.17871094-.46844482-.1786499-.64715576,0Z" fill="#fae052"/><path d="M9.82686768,12.56074221c-.1786499,.17871094-.17871094,.46844482,0,.64715576,.17871094,.1786499,.46844482,.1786499,.64715576,0,.17871094-.17871094,.17871094-.46844482,0-.64715576s-.46838379-.17871094-.64715576,0Z" fill="#fae052"/><path d="M27.43345634,1.98302316l-.92799116,.93111239c-1.05760437,1.06113629-1.06392897,2.77132429-.01404554,3.82391827l4.74172436,4.75412714c1.05423673,1.05702941,2.77321346,1.05004771,3.8353354-.01560615l.91657403-.91961312L27.43345634,1.98302316Z" fill="#fa9319"/><path d="M31.19281442,13.44902832s-6.27975184-6.27966971-7.07081954-7.07073741c-.64798392-.64798392-1.57958913,.03022665-1.57958913,.03022665l-2.44113094,1.37555921-3.46653735,1.95347971-1.58418884,.89267197c-.64740895,.36485544-.87665513,1.18549269-.51171756,1.83306592,.36485544,.64749109,1.18557483,.87657299,1.83306592,.51171756l3.57923021-1.58410671-7.55970283,7.55970283c-.52559882,.52559882-.52551668,1.37761266,0,1.90312934,.50596792,.50605006,1.3081242,.51237466,1.83676211,.04410792l-.89636817,.89636817c-.52559882,.52551668-.52559882,1.37761266,0,1.90312934,.52559882,.52559882,1.37761266,.52559882,1.90321147,0l1.42730593-1.42738807c-.52551668,.52559882-.52551668,1.37761266,0,1.90321147,.52559882,.52559882,1.37761266,.52551668,1.90321147,0l1.90312934-1.90321147c-.52551668,.52559882-.52551668,1.37761266,0,1.90321147,.52559882,.52551668,1.37761266,.52551668,1.90321147,0l1.73302226-1.7331044,1.47330302-1.47330302,1.21818348-1.21818348c.48559778-.48559778,1.0644218-1.06433966,1.65614142-1.65614142,1.00643262-1.00635048,2.03446744-2.0343853,2.63702923-2.63702923,1.11058316-1.11058316,.10324703-2.00637636,.10324703-2.00637636Z" fill="#000d6e"/><path d="M27.32330322,26.80645752l-.98706055-.98706055-9.05981445,9.05981445,1.27752686,1.27746582c.36663818,.36669922,.96105957,.36669922,1.32775879,0l5.20562744-5.20568848c.24755859-1.63580322,1.06018066-3.08465576,2.23596191-4.14453125Z" fill="#fa9319"/><g><circle cx="32" cy="32.00000001" r="6" fill="#fae052"/><path d="M34.5,31.50000001h-2v-2c0-.27636719-.22363281-.5-.5-.5s-.5,.22363281-.5,.5v2h-2c-.27636719,0-.5,.22363281-.5,.5s.22363281,.5,.5,.5h2v2c0,.27636719,.22363281,.5,.5,.5s.5-.22363281,.5-.5v-2h2c.27636719,0,.5-.22363281,.5-.5s-.22363281-.5-.5-.5Z" fill="#000d6e"/></g><circle cx="21.69276582" cy="30.23572956" r="1" fill="#000d6e"/></g></g></svg>