<svg version="1.1" xmlns="http://www.w3.org/2000/svg" x="0px" y="0px" viewBox="0 0 40 40" xml:space="preserve" focusable="false" aria-hidden="true" enable-background="new 0 0 40 40"><path fill="none" d="M0 0h40v40H0z"/><g><path d="M13 31v1.974c0 .567.459 1.026 1.026 1.026h11.948c.567 0 1.026-.459 1.026-1.026V31z" fill="#D9304C"/><path fill="#FFACA6" d="M13 30v1h14V10H13z"/><circle cx="24.488" cy="8.5" r="0.5" fill="none"/><path d="M22.5 8h-5a.5.5 0 0 0 0 1h5a.5.5 0 0 0 0-1" fill="#FFACA6"/><path d="M26.064 7H13.936a.936.936 0 0 0-.936.936V10h14V7.936A.936.936 0 0 0 26.064 7M22.5 9h-5a.5.5 0 0 1 0-1h5a.5.5 0 0 1 0 1m1.988 0a.5.5 0 1 1 0-1 .5.5 0 0 1 0 1" fill="#D9304C"/><circle cx="24.488" cy="8.5" r="0.5" fill="#FFACA6"/><path d="M19.592 24.449c-1.001 0-1.747.767-1.747 1.811 0 .98.746 1.747 1.747 1.747 1.023 0 1.789-.767 1.789-1.79.001-1.001-.745-1.768-1.789-1.768M20.295 12.007c-2.535 0-4.325 1.406-4.794 3.536l2.961.959c.149-.874.788-1.47 1.64-1.47.831 0 1.364.447 1.364 1.3 0 1.917-3.238 2.407-3.238 5.518v.788h2.706v-.575c0-2.3 3.814-2.62 3.814-6.093 0-2.472-1.704-3.963-4.453-3.963" fill="#000D6E"/><circle cx="20" cy="31" r="1" fill="#000D6E"/></g></svg>