<svg version="1.1" xmlns="http://www.w3.org/2000/svg" x="0px" y="0px" viewBox="0 0 40 40" xml:space="preserve" focusable="false" aria-hidden="true" enable-background="new 0 0 40 40"><path fill="none" d="M0 0h40v40H0z"/><g><path d="m10.39 13.847-3.236 3.236a.457.457 0 1 0 .647.647l3.236-3.236a.457.457 0 1 0-.647-.647" fill="#FFACA6"/><path d="m29.463 27.097-1.277-1.277-9.06 9.06 1.278 1.277a.94.94 0 0 0 1.328 0l7.732-7.732a.94.94 0 0 0-.001-1.328" fill="#D9304C"/><path fill="#FFACA6" d="m24.303 29.702 3.883-3.883-13.59-13.589-9.06 9.06 13.59 13.589z"/><path d="M13.26 10.894a.857.857 0 0 0-1.211 0L4.2 18.743a.857.857 0 0 0 0 1.211l1.336 1.336 9.06-9.06zm-2.87 2.953a.457.457 0 1 1 .647.647L7.801 17.73a.457.457 0 1 1-.647-.647m5.17-3.875a.457.457 0 1 1-.647-.645.457.457 0 0 1 .647.645" fill="#D9304C"/><path d="M11.676 12.561a.457.457 0 1 0 .645.647.457.457 0 0 0-.645-.647" fill="#FFACA6"/><circle cx="23.542" cy="30.236" r="1" fill="#000D6E"/><path d="m29.283 1.983-.928.931a2.71 2.71 0 0 0-.014 3.824l4.742 4.754a2.707 2.707 0 0 0 3.835-.016l.917-.92z" fill="#D9304C"/><path d="m33.042 13.449-7.071-7.071c-.648-.648-1.58.03-1.58.03L21.95 7.784l-3.467 1.953-1.583.893a1.346 1.346 0 0 0 1.321 2.345l3.579-1.584-7.56 7.56a1.338 1.338 0 0 0 1.837 1.947l-.896.896a1.345 1.345 0 1 0 1.903 1.903l1.427-1.427a1.345 1.345 0 1 0 1.903 1.903l1.903-1.903a1.345 1.345 0 1 0 1.903 1.903l1.733-1.733 1.473-1.473 1.218-1.218 1.656-1.656 2.637-2.637c1.113-1.111.105-2.007.105-2.007" fill="#000D6E"/></g></svg>