<svg version="1.1" xmlns="http://www.w3.org/2000/svg" x="0px" y="0px" viewBox="0 0 40 40" xml:space="preserve" focusable="false" aria-hidden="true" enable-background="new 0 0 40 40"><path fill="none" d="M0 0h40v40H0z"/><g><path fill="#94E3D4" d="M23.935 16.838h2.232v2.81l.833.937V10h-2.243l1.003 5.038z"/><path fill="#94E3D4" d="M25.167 19.987v-2.191h-2.731l-1.16-2.398-2.268 1.211L13 13.874V31h14v-8.951z"/><path fill="#94E3D4" d="m18.992 15.525 2.731-1.457 1.162 2.401 1.789-1.765L23.738 10H13v2.96z"/><path d="M13 31v1.974c0 .567.459 1.026 1.026 1.026h11.948c.567 0 1.026-.459 1.026-1.026V31z" fill="#1B5951"/><circle cx="24.488" cy="8.5" r="0.5" fill="none"/><path d="M22.5 8h-5a.5.5 0 0 0 0 1h5a.5.5 0 0 0 0-1" fill="#94E3D4"/><path d="M26.064 7H13.936a.936.936 0 0 0-.936.936V10h14V7.936A.936.936 0 0 0 26.064 7M22.5 9h-5a.5.5 0 0 1 0-1h5a.5.5 0 0 1 0 1m1.988 0a.5.5 0 1 1 0-1 .5.5 0 0 1 0 1" fill="#1B5951"/><circle cx="24.488" cy="8.5" r="0.5" fill="#94E3D4"/><circle cx="20" cy="31.006" r="1" fill="#000D6E"/></g></svg>