<?xml version="1.0" encoding="iso-8859-1"?><!--Generator: Adobe Illustrator 26.2.1, SVG Export Plug-In . SVG Version: 6.00 Build 0)--><svg version="1.1" xmlns="http://www.w3.org/2000/svg" xmlns:xlink="http://www.w3.org/1999/xlink" x="0px" y="0px" viewBox="0 0 40 40" xml:space="preserve" focusable="false" aria-hidden="true" enable-background="new 0 0 40 40"><g id="Solid"><rect width="40" height="40" fill="none"/></g><g id="Icon_Green"><path d="M13,31v1.974C13,33.541,13.459,34,14.026,34h11.948C26.541,34,27,33.541,27,32.974V31H13z" fill="#1B5951"/><polygon points="13,30 13,31 27,31 27,30 27,10 13,10 	" fill="#94E3D4"/><g><circle cx="24.488" cy="8.5" r="0.5" fill="none"/><path d="M22.5,8h-5C17.224,8,17,8.224,17,8.5C17,8.776,17.224,9,17.5,9h5C22.776,9,23,8.776,23,8.5
			C23,8.224,22.776,8,22.5,8z" fill="#94E3D4"/><path d="M26.064,7H13.936C13.419,7,13,7.419,13,7.936V10h14V7.936C27,7.419,26.581,7,26.064,7z M22.5,9h-5
			C17.224,9,17,8.776,17,8.5C17,8.224,17.224,8,17.5,8h5C22.776,8,23,8.224,23,8.5C23,8.776,22.776,9,22.5,9z M24.488,9
			c-0.276,0-0.5-0.224-0.5-0.5c0-0.276,0.224-0.5,0.5-0.5c0.276,0,0.5,0.224,0.5,0.5C24.988,8.776,24.765,9,24.488,9z" fill="#1B5951"/></g><circle cx="24.488" cy="8.5" r="0.5" fill="#94E3D4"/><g><path d="M19.592,24.449c-1.001,0-1.747,0.767-1.747,1.811c0,0.98,0.746,1.747,1.747,1.747
			c1.023,0,1.789-0.767,1.789-1.79C21.382,25.216,20.636,24.449,19.592,24.449z" fill="#000D6E"/><path d="M20.295,12.007c-2.535,0-4.325,1.406-4.794,3.536l2.961,0.959c0.149-0.874,0.788-1.47,1.64-1.47
			c0.831,0,1.364,0.447,1.364,1.3c0,1.917-3.238,2.407-3.238,5.518v0.788h2.706v-0.575c0-2.3,3.814-2.62,3.814-6.093
			C24.748,13.498,23.044,12.007,20.295,12.007z" fill="#000D6E"/></g><circle cx="20" cy="31" r="1" fill="#000D6E"/></g></svg>