<svg xmlns="http://www.w3.org/2000/svg" viewBox="0 0 40 40" focusable="false" aria-hidden="true"><path fill="none" d="M0 0h40v40H0z"/><g><circle cx="27.35449219" cy="9.50000001" r="3" fill="#fae052"/><path d="M23.465 9.5a.5.5 0 0 0-.5-.5h-2.66a.5.5 0 1 0 0 1h2.66a.5.5 0 0 0 .5-.5M34.53 9h-2.66a.5.5 0 1 0 0 1h2.66a.5.5 0 1 0 0-1M23.916 12.295l-1.881 1.88a.5.5 0 1 0 .707.708l1.88-1.881a.5.5 0 1 0-.706-.707M30.566 6.852a.5.5 0 0 0 .353-.147l1.881-1.88a.5.5 0 1 0-.707-.708l-1.88 1.881a.5.5 0 0 0 .353.854M27.417 13.452a.5.5 0 0 0-.5.5v2.66a.5.5 0 1 0 1 0v-2.66a.5.5 0 0 0-.5-.5M27.417 5.548a.5.5 0 0 0 .5-.5v-2.66a.5.5 0 1 0-1 0v2.66a.5.5 0 0 0 .5.5M30.92 12.295a.5.5 0 1 0-.708.707l1.881 1.88a.5.5 0 0 0 .707 0 .5.5 0 0 0 0-.706zM23.916 6.705a.5.5 0 0 0 .707 0 .5.5 0 0 0 0-.707l-1.881-1.88a.5.5 0 1 0-.707.706zM21.09 17.37h-6c-1.102 0-1.84.896-1.646 2l2.312 13.116c.195 1.103 1.25 2 2.353 2h6c1.103 0 1.842-.897 1.647-2L23.444 19.37c-.195-1.103-1.25-2-2.353-2M14.474 32.486 12.161 19.37c-.194-1.103-1.25-2-2.353-2h-6c-1.102 0-1.841.897-1.647 2l2.313 13.117c.194 1.103 1.25 2 2.353 2h6c1.102 0 1.841-.897 1.647-2m-6.05-3.117-4.029-3" fill="#fae052"/><path d="M25.5 37.031h-21a.5.5 0 1 0 0 1h21a.5.5 0 1 0 0-1" fill="#000d6e"/><path d="M14.474 32.486 12.161 19.37c-.194-1.103-1.25-2-2.353-2h-6c-1.102 0-1.841.897-1.647 2l2.313 13.117c.194 1.103 1.25 2 2.353 2h2.29l-.027 2.545h1l.028-2.545h2.709c1.102 0 1.841-.897 1.647-2m-1.55-3.117h-3.5l-.529-3h3.5zm-1.234-7 .53 3h-3.5l-.53-3zm-1.705-4c.552 0 1.079.448 1.176 1l.353 2h-3.5l-.53-3zm-6.824 1c-.097-.552.271-1 .824-1h2.5l.529 3h-3.5zm.53 3h3.5l.528 3h-3.5zm1.233 7-.529-3h3.5l.53 3zm1.726 4.117c-.552 0-1.079-.448-1.176-1l-.373-2.117h3.5l.55 3.117zm6 0h-2.5L9.6 30.37h3.5l.374 2.117c.097.552-.271 1-.824 1M25.756 32.486 23.444 19.37c-.195-1.103-1.25-2-2.353-2h-6c-1.103 0-1.842.897-1.647 2l2.312 13.117c.195 1.103 1.25 2 2.353 2H20.4l-.027 2.545h1l.027-2.545h2.71c1.102 0 1.84-.897 1.646-2m-1.55-3.117h-3.5l-.528-3h3.5zm-1.233-7 .529 3h-3.5l-.53-3zm-1.706-4c.553 0 1.08.448 1.177 1l.352 2h-3.5l-.529-3zm-6.823 1c-.098-.552.27-1 .823-1h2.5l.53 3h-3.5zm.529 3h3.5l.529 3h-3.5zm1.234 7-.53-3h3.5l.53 3zm1.726 4.117c-.553 0-1.08-.448-1.177-1l-.373-2.117h3.5l.55 3.117zm6 0h-2.5l-.55-3.117h3.5l.373 2.117c.098.552-.27 1-.823 1" fill="#fa9319"/></g></svg>