<svg xmlns="http://www.w3.org/2000/svg" viewBox="0 0 40 40" focusable="false" aria-hidden="true"><g id="Solid"><rect width="40" height="40" fill="none"/></g><g id="Icon_Tangerine" data-name="Icon Tangerine"><path d="M24.7268,21.5036l-9.4633,2.4076L15.26,23.92l-2.98,7.41-.03.08a18.7625,18.7625,0,0,0,17.34-.95,1.8576,1.8576,0,0,1,.19-.11l-4.931-8.8775Z" fill="none"/><path d="M12.25,31.41l.03-.08,2.98-7.41.0035-.0088-.4661.1186-.7415.1886L11.34,30.97c.2.11.41.21.62.31C12.06,31.32,12.15,31.37,12.25,31.41Z" fill="#000d6e"/><path d="M24.849,21.4725,29.78,30.35c.22-.14.44-.27.66-.42.06-.04.13-.09.19-.13l-4.7709-8.5844-.1358.0345Z" fill="#000d6e"/><path d="M15.9992,16a.9979.9979,0,0,0,.2437-.03l8-2a1,1,0,1,0-.4853-1.94l-8,2A1,1,0,0,0,15.9992,16Z" fill="#fa9319"/><path d="M15.2635,23.9112l9.4633-2.4076.1222-.0311.8743-.2224.1358-.0345L30.5,20.0349,29.7269,17a1.9689,1.9689,0,0,0-2.3958-1.4252L14.6708,18.82,11.8153,8.0091A3.984,3.984,0,0,0,6.9677,5.1254L6,5.3735,10.9838,25l2.6188-.6663.4533-.1153.7415-.1886Z" fill="#fae052"/><path d="M34.12,28.2a1.0216,1.0216,0,0,0-1.4-.02,17.17,17.17,0,0,1-2.09,1.62c-.06.04-.13.09-.19.13-.22.15-.44.28-.66.42a1.8576,1.8576,0,0,0-.19.11,18.7625,18.7625,0,0,1-17.34.95c-.1-.04-.19-.09-.29-.13-.21-.1-.42-.2-.62-.31-.09-.04-.19-.09-.28-.14a18.7589,18.7589,0,0,1-3.78-2.65,1.0216,1.0216,0,0,0-1.4.02,1.048,1.048,0,0,0-.29.72.9544.9544,0,0,0,.31.72,21.2364,21.2364,0,0,0,4.68,3.21c.3.15.6.29.91.43a20.9135,20.9135,0,0,0,19.27-1.17c.29-.17.58-.35.85-.54a20.2022,20.2022,0,0,0,2.49-1.93A1.0052,1.0052,0,0,0,34.12,28.2Z" fill="#fa9319"/></g></svg>