<svg xmlns="http://www.w3.org/2000/svg" viewBox="0 0 40 40" focusable="false" aria-hidden="true"><path fill="none" d="M0 0h40v40H0z"/><g><path d="M15.81 14.7a11.3 11.3 0 0 0 3.69.77v-5a11.5 11.5 0 0 0-3.69 4.23M19.5 19.5v-3a12 12 0 0 1-4.12-.87 11.3 11.3 0 0 0-.85 3.9ZM30 19.5a9.86 9.86 0 0 0-2.17-5.75 12.7 12.7 0 0 1-2.26 1.44 12.6 12.6 0 0 1 .93 4.31ZM25.47 19.5a11.3 11.3 0 0 0-.85-3.9 12 12 0 0 1-4.12.87v3ZM20.5 10.52v5a11.3 11.3 0 0 0 3.69-.77 11.5 11.5 0 0 0-3.69-4.23M18.33 10.15A10 10 0 0 0 12.86 13a11.6 11.6 0 0 0 2 1.29 12.65 12.65 0 0 1 3.47-4.14M21.67 10.15a12.65 12.65 0 0 1 3.44 4.14 11.6 11.6 0 0 0 2-1.29 10 10 0 0 0-5.44-2.85M14.53 20.5a11.1 11.1 0 0 0 .84 3.88 12.6 12.6 0 0 1 4.13-.87v-3ZM24.2 25.29a11.4 11.4 0 0 0-3.7-.78v5a11.6 11.6 0 0 0 3.7-4.22M21.67 29.85A10 10 0 0 0 27.15 27a11.3 11.3 0 0 0-2-1.29 12.45 12.45 0 0 1-3.48 4.14M13.53 19.5a12.6 12.6 0 0 1 .93-4.31 12.7 12.7 0 0 1-2.26-1.44A9.86 9.86 0 0 0 10 19.5ZM18.33 29.85a12.45 12.45 0 0 1-3.44-4.15 11.3 11.3 0 0 0-2 1.29 10 10 0 0 0 5.44 2.86M26.47 20.5a12.4 12.4 0 0 1-.93 4.3 12.5 12.5 0 0 1 2.27 1.44A9.9 9.9 0 0 0 30 20.5ZM20.5 20.5v3a12.6 12.6 0 0 1 4.13.87 11.1 11.1 0 0 0 .84-3.88ZM10 20.5a9.9 9.9 0 0 0 2.16 5.74 12.5 12.5 0 0 1 2.27-1.44 12.4 12.4 0 0 1-.93-4.3ZM19.5 29.48v-5a11.4 11.4 0 0 0-3.7.78 11.6 11.6 0 0 0 3.7 4.22" fill="#94e3d4"/><path d="m34.45 25.78-1-2-.07-.08-.06-.07h-.07l-.1-.05h-.08a.5.5 0 0 0-.12 0h-.16l-2 1a.5.5 0 0 0 .22.95.5.5 0 0 0 .22-.05l1-.49A12.81 12.81 0 0 1 20 33.5a12.75 12.75 0 0 1-12.51-9.62.5.5 0 0 0-1 .24A13.77 13.77 0 0 0 20 34.5a13.79 13.79 0 0 0 13.12-9.15l.43.87a.5.5 0 0 0 .45.28.5.5 0 0 0 .22-.05.51.51 0 0 0 .23-.67M33.49 15.88A13.77 13.77 0 0 0 20 5.5a13.79 13.79 0 0 0-13.12 9.15l-.43-.87a.5.5 0 0 0-.9.44l1 2a.4.4 0 0 0 .17.18.3.3 0 0 0 .1 0H7a.4.4 0 0 0 .16 0l2-1a.5.5 0 0 0-.44-.9l-.92.5A12.81 12.81 0 0 1 20 6.5a12.75 12.75 0 0 1 12.51 9.62.5.5 0 0 0 .49.38h.12a.51.51 0 0 0 .37-.62" fill="#1b5951"/></g></svg>