<?xml version="1.0" encoding="UTF-8"?><svg xmlns="http://www.w3.org/2000/svg" viewBox="0 0 40 40" focusable="false" aria-hidden="true"><g id="uuid-004c00ef-2131-4a99-ba5a-40657b263e40"><rect width="40" height="40" fill="none"/></g><g id="uuid-1a865c20-7b35-4d60-8a55-51e4f40cfec9"><g><g><rect x="9" y="11" width="8" height="10" fill="#b8b2ff"/><path d="M10.5,25h5c.82839605,0,1.5-.6716,1.5-1.5v-1.5H9v1.5c0,.8284,.67159622,1.5,1.5,1.5Z" fill="#6c2273"/><path d="M17,8.5c0-.8284-.67160395-1.5-1.5-1.5h-5c-.82840378,0-1.5,.6716-1.5,1.5v1.5h8v-1.5Z" fill="#6c2273"/><path d="M32,14h-14v4h14c1.10459563,0,2-.8954,2-2s-.89540437-2-2-2Z" fill="#b8b2ff"/></g><rect x="6" y="31" width="14" height="2" fill="#000d6e"/></g></g></svg>