<svg xmlns="http://www.w3.org/2000/svg" viewBox="0 0 40 40" focusable="false" aria-hidden="true"><g id="Solid"><rect width="40" height="40" fill="none"/></g><g id="Icon_Green" data-name="Icon Green"><path d="M24.5,23A7.5,7.5,0,1,0,17,15.5,7.5,7.5,0,0,0,24.5,23Zm3.7966-7.999h2.4047c.1644,0,.2977.2239.2977.5s-.1333.5-.2977.5H28.2966c-.1644,0-.2976-.2238-.2976-.5S28.1322,15.001,28.2966,15.001ZM24,9.3c0-.1643.2239-.2976.5-.2976s.5.1333.5.2976v2.4047c0,.1644-.2239.2977-.5.2977s-.5-.1333-.5-.2977Zm0,9.9979c0-.1644.2239-.2976.5-.2976s.5.1332.5.2976v2.4047c0,.1644-.2239.2977-.5.2977s-.5-.1333-.5-.2977ZM18.001,15.501c0-.2761.1333-.5.2977-.5h2.4047c.1644,0,.2976.2239.2976.5s-.1332.5-.2976.5H18.2987C18.1343,16.001,18.001,15.7772,18.001,15.501Z" fill="#94e3d4"/><path d="M24.5,12.0021c.2761,0,.5-.1333.5-.2977V9.3c0-.1643-.2239-.2976-.5-.2976S24,9.1354,24,9.3v2.4047C24,11.8688,24.2239,12.0021,24.5,12.0021Z" fill="#000d6e"/><path d="M24.5,22c.2761,0,.5-.1333.5-.2977V19.2976c0-.1644-.2239-.2976-.5-.2976s-.5.1332-.5.2976v2.4047C24,21.8667,24.2239,22,24.5,22Z" fill="#000d6e"/><path d="M28.2966,16.001h2.4047c.1644,0,.2977-.2238.2977-.5s-.1333-.5-.2977-.5H28.2966c-.1644,0-.2976.2239-.2976.5S28.1322,16.001,28.2966,16.001Z" fill="#000d6e"/><path d="M21.001,15.501c0-.2761-.1332-.5-.2976-.5H18.2987c-.1644,0-.2977.2239-.2977.5s.1333.5.2977.5h2.4047C20.8678,16.001,21.001,15.7772,21.001,15.501Z" fill="#000d6e"/><path d="M6.9382,23.0077H5.0267v7.9857H6.9382A1.0831,1.0831,0,0,0,8.0213,29.91V24.0908A1.0831,1.0831,0,0,0,6.9382,23.0077Z" fill="#94e3d4"/><path d="M34.9473,26.2246a1.4972,1.4972,0,0,0-1.4715-1.22l-.2984.0317-7.1882,1.7249v.24a2.0567,2.0567,0,0,1-1.9965,1.9965H15.0089a.4991.4991,0,1,1,0-.9982h8.9838a1.0664,1.0664,0,0,0,.9983-.9983v0l-.0006,0,.0006-.0256v-.9728c0-.0219-.0007-.0433-.0021-.0644l-.001-.01a.95.95,0,0,0-.43-.7168l-.0081-.0053c-.0247-.0168-.05-.0327-.0746-.0473L24.46,25.15c-.0228-.0129-.0456-.0251-.0684-.0362l-.0064-.003-.0351-.0164-.0351-.0149-.006-.0025-.0266-.01-.0139-.0053-.0284-.01-.0113-.0039-.026-.0079-.0125-.0039-.0076-.0019c-.0226-.0063-.0446-.0117-.0656-.016l-.0038-.0006a.6305.6305,0,0,0-.1207-.0134H18.9775l-.0006-.0005a3.12,3.12,0,0,1-1.5656-.7244l-.0928-.0634-.0226-.0153-.083-.0564-.0189-.0128q-.1035-.07-.2115-.14l-.01-.0067c-.0346-.0225-.07-.0451-.105-.0675l-.0055-.0035q-.115-.0729-.2357-.1445l-.0005,0a5.6407,5.6407,0,0,0-1.2361-.5578A7.4117,7.4117,0,0,0,13.7,23.0077H10.0233A1.0038,1.0038,0,0,0,9.02,24.0115v3.9873h.0047c-.0027.0372-.0047.0746-.0047.1122v1.8842s-.0009.6418.9973.9982,6.4682,2.6119,6.6017,2.6663a4.49,4.49,0,0,0,3.2008.0727c.0145-.0052,14.2007-5.836,14.2007-5.836A1.4974,1.4974,0,0,0,34.9473,26.2246Z" fill="#1b5951"/></g></svg>