<?xml version="1.0" encoding="UTF-8"?><svg xmlns="http://www.w3.org/2000/svg" viewBox="0 0 40 40" focusable="false" aria-hidden="true"><g id="Solid"><rect width="40" height="40" fill="none"/></g><g id="Icon_Tangerine"><g><path d="M32.00000179,5.00000001H8.00000179c-.55230713,0-1,.44775391-1,1v30.04168701c0,.55224609,.44769287,1,1,1h24c.55224609,0,1-.44775391,1-1V6.00000001c0-.55224609-.44775391-1-1-1Z" fill="#fa9319"/><path d="M8.00000179,6.00000001v30.04168701h24V6.00000001H8.00000179Z" fill="#fae052"/><path d="M25,3.00000001H15c-.82714844,0-1.5,.66724772-1.5,1.48750726v2.02498547c0,.82025954,.67285156,1.48750726,1.5,1.48750726h10c.82714844,0,1.5-.66724772,1.5-1.48750726v-2.02498547c0-.82025954-.67285156-1.48750726-1.5-1.48750726Z" fill="#fa9319"/><g><path d="M29.23699951,29.20642091l-4.09967041-4.09967041-2.81915283-2.81915283-5.15148926-5.15148926c.4552002-1.36560059,.15509033-2.92791748-.9319458-4.01495361-1.02288818-1.02288818-2.46643066-1.34692383-3.77142334-1.00421143l1.86853027,3.03643799-1.61425781,1.61425781-3.03637695-1.86853027c-.3427124,1.30499268-.01873779,2.74847412,1.00415039,3.77130127,1.08703613,1.08709717,2.64941406,1.38726807,4.01495361,.93206787l5.15155029,5.15155029h0l6.91876221,6.91870117c.58093262,.58099365,1.52288818,.58099365,2.1038208,0l.36254883-.36248779c.58093262-.58099365,.58093262-1.52288818,0-2.1038208Z" fill="#fa9319"/><g><path d="M28.67837973,14.55828773c.29046358-.29050898,.29046358-.76143407,0-1.05194304l-1.05194304-1.05189764c-.29046358-.29050898-.76143407-.29050898-1.05189764,0l-.5423833,.50951434,2.13670965,2.13670965,.50951434-.5423833Z" fill="#000d6e"/><polygon points="12.44592384 25.726744 15.40608276 28.68685752 24.09265986 19.43982826 21.6929985 17.0401669 12.44592384 25.726744" fill="#000d6e"/><path d="M9.21786471,28.75917832c-.29046358,.29046358-.29050898,.76143407,0,1.05194304l2.10384069,2.10384069c.29046358,.29041818,.76143407,.29041818,1.05189764,0l2.5476171-2.71200732-2.99139351-2.99139351-2.71196192,2.5476171Z" fill="#000d6e"/><path d="M30.78181182,18.76556051l-7.13306457-7.13306457c-.15689936-.15689936-.37567773-.23571224-.59663525-.21487404l-3.84240005,.36223959c-.62759746,.05915506-.90253453,.82258668-.45680596,1.26831526l8.87316749,8.87316749c.29087217,.29087217,.76252364,.29087217,1.05344121,0l2.10229712-2.10234252c.29091757-.29087217,.29091757-.76252364,0-1.05344121Z" fill="#000d6e"/></g></g></g></g></svg>