<svg version="1.1" xmlns="http://www.w3.org/2000/svg" x="0px" y="0px" viewBox="0 0 40 40" xml:space="preserve" focusable="false" aria-hidden="true" enable-background="new 0 0 40 40"><path fill="none" d="M0 0h40v40H0z"/><g><path d="M5.012 21.566v9.43c0 .554.45 1.004 1.005 1.004h4.995V16.269z" fill="#FAE052"/><path d="M17.427 16.671a1.5 1.5 0 0 1-1.673.148l-2.904-1.772a.49.49 0 0 0-.524.062l-.313.276V32h6V16.185z" fill="#FA9319"/><path d="M27.018 8.258a.5.5 0 0 0-.5-.5l-1.506-.001a.5.5 0 0 0 0 1h.371l-8.588 7.138a.5.5 0 0 1-.539.06l-2.908-1.774a1.5 1.5 0 0 0-1.667.164l-8.5 7.503a.5.5 0 1 0 .662.75l8.482-7.488a.49.49 0 0 1 .524-.062l2.904 1.772a1.5 1.5 0 0 0 1.673-.148l8.592-7.142v.222a.5.5 0 0 0 1 0z" fill="#000D6E"/><path d="m29.096 21.732-2.21 2.201 2.207-2.199 2.207 2.199a.52.52 0 0 0 .37.151.52.52 0 0 1-.365-.151z" fill="none"/><path d="M32.587 17.66a.517.517 0 0 0-.51-.602h-6.02a.517.517 0 0 0-.51.602l.417 2.501h6.207zM32.172 21.712l-1.629-.001 1.497 1.491a.516.516 0 0 1-.37.883.52.52 0 0 1-.37-.151l-2.207-2.199-2.207 2.199a.52.52 0 0 1-.734 0 .516.516 0 0 1 0-.732l1.497-1.491-1.634.001c-.231 0-4.936 6.723-2.003 9.596.457.448 1.066.75 1.752.75h6.66c.686 0 1.295-.302 1.752-.75 2.932-2.872-1.773-9.595-2.004-9.596" fill="#FA9319"/><path d="M26.151 23.934a.52.52 0 0 0 .734 0l2.21-2.201 2.21 2.201a.523.523 0 0 0 .735 0 .515.515 0 0 0 0-.731l-1.497-1.491-.517-.515h2.145v-1.034h-6.207v1.034h2.202l-2.014 2.006a.516.516 0 0 0-.001.731M22.884 25.096c.013-.033 1.025-2.464 2.08-3.691v-1.161l-.403-2.419c-.073-.441.05-.889.339-1.23.034-.04.075-.071.113-.107v-6.121l-6 4.987V32h4.278c-1.052-1.045-1.963-3.086-.407-6.904" fill="#FAE052"/></g></svg>