<?xml version="1.0" encoding="iso-8859-1"?><!--Generator: Adobe Illustrator 26.2.1, SVG Export Plug-In . SVG Version: 6.00 Build 0)--><svg version="1.1" xmlns="http://www.w3.org/2000/svg" xmlns:xlink="http://www.w3.org/1999/xlink" x="0px" y="0px" viewBox="0 0 40 40" xml:space="preserve" focusable="false" aria-hidden="true" enable-background="new 0 0 40 40"><g id="Solid"><rect width="40" height="40" fill="none"/></g><g id="Icon_Green_00000049924031496346251400000015692868262072207267_"><g><path d="M9.114,31.421c-0.135,0-0.271-0.004-0.407-0.013c-1.483-0.098-2.322-0.41-2.718-1.015
			c-0.491-0.749-0.157-1.682,0.23-2.763c0.324-0.903,0.691-1.928,0.691-3.065c0-1.069-0.214-2.111-0.404-3.03
			c-0.287-1.395-0.535-2.599,0.108-3.388c0.404-0.497,1.1-0.738,2.125-0.738c3.86,0,7,3.141,7,7c0,1.984-0.828,3.897-2.27,5.25
			C12.248,30.804,10.714,31.421,9.114,31.421z M8.74,18.409c-0.696,0-1.15,0.124-1.35,0.37c-0.343,0.421-0.14,1.409,0.096,2.554
			c0.199,0.966,0.424,2.061,0.424,3.232c0,1.312-0.416,2.471-0.75,3.403c-0.297,0.828-0.553,1.544-0.336,1.876
			c0.137,0.209,0.586,0.477,1.948,0.565c1.47,0.1,2.892-0.431,4.014-1.481c1.242-1.163,1.954-2.811,1.954-4.52
			C14.74,21.101,12.049,18.409,8.74,18.409z" fill="#1B5951"/></g><rect x="20.781" y="26.993" width="3" height="1" fill="#000D6E"/><polygon points="19.781,19.995 17.382,19.995 18.048,20.995 19.781,20.995 	" fill="#000D6E"/><path d="M27.12,10.515l-4.225,0.871c-0.865,0.144-0.77,1.11,0,1.11h4.416c0.536,0,0.971-0.448,0.971-1
		C28.281,10.865,27.72,10.391,27.12,10.515z" fill="#1B5951"/><path d="M23.947,22.995h1.031c0.278-1.08,0.846-2.042,1.62-2.797l-0.506-0.885
		C25.032,20.273,24.264,21.549,23.947,22.995z" fill="#1B5951"/><path d="M30.781,17.495c-0.728,0-1.429,0.112-2.09,0.319l0.513,0.897c0.503-0.137,1.03-0.216,1.577-0.216
		c3.314,0,6,2.686,6,6s-2.686,6-6,6c-2.795,0-5.136-1.914-5.803-4.5h-1.031c0.689,3.141,3.49,5.5,6.834,5.5c3.86,0,7-3.14,7-7
		S34.641,17.495,30.781,17.495z" fill="#1B5951"/><path d="M19.781,22.495c-0.229,0-0.447,0.047-0.648,0.127l-5.418-8.127l10.275,0l-3.831,8.044
		C20.037,22.512,19.911,22.495,19.781,22.495z M21.506,23.995c-0.054-0.374-0.221-0.71-0.472-0.969l3.788-7.952l5.098,8.921
		L21.506,23.995z M31.215,24.247l-5.87-10.272l0.705-1.48h-1.107l-0.476,1l-11.397,0l1.646-2.743
		c0.093-0.155,0.095-0.347,0.007-0.504c-0.089-0.157-0.256-0.253-0.435-0.253l-3.918,0c-1.151,0-2.088,0.937-2.088,2.088
		c0,1.151,0.936,2.088,2.088,2.088c0.276,0,0.5-0.224,0.5-0.5c0-0.276-0.224-0.5-0.5-0.5c-0.6,0-1.088-0.488-1.088-1.088
		c0-0.6,0.488-1.088,1.088-1.088h3.035l-1.807,3.011c-0.463,0.773-0.499,1.713-0.098,2.516l0.048,0.097
		c0.235,0.47,0.227,1.027-0.026,1.497l-2.609,6.15c-0.127,0.245-0.031,0.547,0.215,0.674c0.073,0.038,0.151,0.056,0.229,0.056
		c0.181,0,0.356-0.099,0.444-0.27l2.605-6.142c0.403-0.749,0.417-1.651,0.037-2.41l-0.048-0.097
		c-0.249-0.497-0.227-1.079,0.06-1.556l0.036-0.06l5.857,8.785c-0.198,0.284-0.316,0.627-0.316,0.999c0,0.966,0.783,1.75,1.75,1.75
		c0.697,0,1.294-0.41,1.575-1l9.425,0c0.276,0,0.5-0.224,0.5-0.5C31.281,24.399,31.263,24.324,31.215,24.247z" fill="#94E3D4"/></g></svg>