<svg xmlns="http://www.w3.org/2000/svg" viewBox="0 0 40 40" focusable="false" aria-hidden="true"><g id="Solid"><rect width="40" height="40" fill="none"/></g><g id="Tangerine"><path d="M13.96,24.6629l-.0032-.4646-.004.0042.0039.4608,0,.01c.0027.32.0059.69.0088,1.0239-.0012-.3356-.0034-.7067-.0056-1.0271Z" fill="none"/><path d="M20.8853,28.1225a.5569.5569,0,0,0,.2582.0749.5566.5566,0,0,1-.2579-.0753Z" fill="none"/><path d="M13.9659,28.1979a.6149.6149,0,0,1-.4272-.2116.61.61,0,0,0,.4245.2124.5591.5591,0,0,0,.2856-.0828,4.1,4.1,0,0,0,.2626.5691,4.2,4.2,0,0,1-.2639-.5737A.5373.5373,0,0,1,13.9659,28.1979Z" fill="none"/><path d="M20.6682,28.5842a4.0064,4.0064,0,0,1-.93,1.1922A3.9388,3.9388,0,0,0,20.6682,28.5842Z" fill="none"/><path d="M21.1481,28.1987a.597.597,0,0,0,.3963-.1851.6026.6026,0,0,1-.399.1843Z" fill="none"/><path d="M21.65,26.3265a.6519.6519,0,0,0-.4928-.2875c-.0011-.144-.0026-.3119-.0041-.4854l-.0028-.0008c.002.1747.0039.3443.0059.49A.6412.6412,0,0,1,21.65,26.3265Z" fill="none"/><path d="M22.142,21.0735a4.38,4.38,0,0,1-.2478-.3613A3.4856,3.4856,0,0,0,22.142,21.0735Z" fill="none"/><path d="M37,20A17,17,0,1,0,3.9126,25.4606L4.04,24.76a2.5643,2.5643,0,0,1,1.38-1.98l6.3738-3.1925c.0156-.7575.0313-1.3158.0313-1.3158A5.2793,5.2793,0,0,1,9.754,14.9836a.653.653,0,0,1-.1739.0242c-.49,0-.8875-.5463-.8875-1.22a1.2235,1.2235,0,0,1,.6406-1.1663V9.9442a4.2751,4.2751,0,0,1,4.484-3.8434,4.7613,4.7613,0,0,1,4.484,3.2028,20.9789,20.9789,0,0,1,0,2.1418v1.1759a1.2235,1.2235,0,0,1,.6406,1.1664c0,.6738-.3973,1.22-.8875,1.22a.6433.6433,0,0,1-.1143-.0159,5.2536,5.2536,0,0,1-2.1126,3.3059l.0277,1.27L17.46,20.38l.0124.0062c.0407-.0011.0779-.0129.119-.0129a4.5673,4.5673,0,0,1,3.79,1.987c.0257.04.05.08.0766.12.0429-.023.0825-.04.0825-.04l1.24-.62s-.0815-.0867-.1951-.2146a4.4852,4.4852,0,0,1-.4429-.5319,3.4856,3.4856,0,0,1-.2478-.3613c-2.2455-3.9142-.7837-8.79-.2055-10.3725a4.8345,4.8345,0,0,1,4.69-3.2171,4.8852,4.8852,0,0,1,4.927,3.7851A38.7267,38.7267,0,0,1,32.68,16.6086c.3687,1.9754.6113,3.9765,1.2006,4.94.3649.5969-.0628,1.26-.9391,1.8278L32.94,23.38l1.65.83a2.4656,2.4656,0,0,1,1.3213,1.7317v0A16.9269,16.9269,0,0,0,37,20Z" fill="#fa9319"/><path d="M12.65,24.4l.0055.0023-.0282-.0151C12.6353,24.391,12.6418,24.3963,12.65,24.4Z" fill="#b8b2ff"/><path d="M9.6009,13.1366a.3041.3041,0,0,0,.0519.0105.32.32,0,0,0,.32-.32V11.7826c0-.1588.007-.3063.018-.4454a4.6657,4.6657,0,0,1,.1288-.7911c.224-.1091.5058-.2554.8524-.4a6.8385,6.8385,0,0,1,1.5268-.4394,3.3674,3.3674,0,0,0,.6191.4394,5.877,5.877,0,0,0,1.02.4461,3.4546,3.4546,0,0,0,2.5239-.08,3.9065,3.9065,0,0,1,.8825.9614c.0386.06.0789.1192.1132.1784.001.0447.0048.0847.0048.1311v1.0449a.32.32,0,0,0,.32.32.337.337,0,0,0,.2043-.079.3554.3554,0,0,0,.1153-.2406V11.4454a20.9789,20.9789,0,0,0,0-2.1418,4.7613,4.7613,0,0,0-4.484-3.2028,4.2751,4.2751,0,0,0-4.484,3.8434v2.8833A.3154.3154,0,0,0,9.6009,13.1366Z" fill="#000d6e"/><path d="M26.3188,26.0849a2.5139,2.5139,0,0,1-1.9788-.9725V25.2c.03.28.05.58.08.89a76.4941,76.4941,0,0,0,1.78,8.38,60.6665,60.6665,0,0,0,2.01-8.38l.03-.27c.02-.2.04-.41.05-.6a.4484.4484,0,0,1,.01-.11v0A2.5136,2.5136,0,0,1,26.3188,26.0849Z" fill="#fa9319"/><polygon points="15.753 31.23 15.759 31.138 15.752 31.232 15.752 31.32 15.753 31.317 15.753 31.23" fill="#6c2273"/><path d="M21.84,32.04l-.0874-.025L21.63,31.98c-.01,0-.03-.01-.04-.01v4.95h0c.3274-.03.6486-.0808.9691-.1328.105-.0171.2115-.0293.3159-.0483.3824-.0652.7516-.1655,1.1247-.2558V34.14a1.9,1.9,0,0,0-1.33-1.8l-.0039-.002c-.0055-.0025-.008-.008-.0161-.008A8.5276,8.5276,0,0,0,21.84,32.04Z" fill="#fae052"/><path d="M12.84,32.18a.0764.0764,0,0,1-.05.02c-.1.04-.19.07-.28.11a.689.689,0,0,0-.08.03c-.02.01-.03.01-.05.02l-.0026.0014A1.9052,1.9052,0,0,0,11,34.14v.2464h0c.0887.0556.1738.116.2635.17l0,0c.0658.04.1336.0769.2.1161q.4275.2527.8679.485c.2707.1431.5488.2738.83.4.0777.0342.16.0579.2387.091V32.01c-.0323.0081-.0591.0161-.0887.0242-.044.0119-.09.0238-.1313.0358C13.06,32.11,12.95,32.15,12.84,32.18Z" fill="#fae052"/><path d="M19.3262,31.4032V31.23l-.0217-.3249-.0541-.7689a3.7575,3.7575,0,0,0,.4882-.36,4.0064,4.0064,0,0,0,.93-1.1922,4.1563,4.1563,0,0,0,.2171-.4617l0,0a.5566.5566,0,0,0,.2579.0753l.0019.0005a.6026.6026,0,0,0,.399-.1843,1.2108,1.2108,0,0,0,.359-.8985,1.2927,1.2927,0,0,0-.2534-.7886.6412.6412,0,0,0-.4938-.2835c-.002-.1459-.0039-.3155-.0059-.49a26.32,26.32,0,0,1-4.1772-1.5109,2.963,2.963,0,0,0-3.0007.14l-.0159.0165.0032.4646V24.67c.0022.32.0044.6915.0056,1.0271,0,.1182.0006.2322.0006.3348-.4223,0-.758.4873-.758,1.0829a1.2306,1.2306,0,0,0,.3308.8712.6149.6149,0,0,0,.4272.2116.5373.5373,0,0,0,.2816-.0866,4.2,4.2,0,0,0,.2639.5737c.0063.0115.01.0249.0167.0363.0124.0219.029.04.0417.0618a3.8557,3.8557,0,0,0,1.2587,1.3207l-.0542.8013-.0155.2333-.0061.0916v.0867l0,.0031-.0105.0834v.0433l-.0144.0031.0007.0008.0019,0a2.215,2.215,0,0,0,.5221.5128,2.1148,2.1148,0,0,0,2.8734-.3125,1.9067,1.9067,0,0,0,.2034-.2107l0-.003-.0026,0Z" fill="#fae052"/><path d="M33.8805,21.5488c-.5893-.9637-.8319-2.9648-1.2006-4.94a38.7267,38.7267,0,0,0-1.3739-5.7009,4.8852,4.8852,0,0,0-4.927-3.7851,4.8345,4.8345,0,0,0-4.69,3.2171c-.5782,1.5821-2.04,6.4583.2055,10.3725a4.38,4.38,0,0,0,.2478.3613,4.4852,4.4852,0,0,0,.4429.5319c.0674.0691.1288.1462.2.21l1.406-.71.0072-.0036.142-.0718h.0034l0-.0017.0766-1.285a5.2461,5.2461,0,0,1-1.93-3.2218.5913.5913,0,0,1-.1519.022c-.4627,0-.8378-.539-.8378-1.2039s.3751-1.2039.8378-1.2039l.0029,0c-.0061-.84-.0144-1.935-.017-2.2776-.0023-.0376-.0083-.0746-.0083-.1125a1.9084,1.9084,0,0,1,.0413-.373,3.2931,3.2931,0,0,1,3.3293-.1419c.309.1623.6489.3371.9986.5149,1.082.55,2.2657,1.1311,2.9954,1.4865.3352.1634.5736.2787.6617.3212.0015.2006.0029.3974.0043.5831.4593.006.83.5416.83,1.2028,0,.6649-.3752,1.2039-.8379,1.2039a.5907.5907,0,0,1-.1273-.0184,5.21,5.21,0,0,1-1.9952,3.266l.0773,1.2372h0l.653.33v0l0,.0014.8579.4336,1.2586.6362,1.8776.9468C33.8177,22.8085,34.2454,22.1457,33.8805,21.5488Z" fill="#000d6e"/><path d="M17.5914,20.3733c-.0411,0-.0783.0118-.119.0129a4.7657,4.7657,0,0,0-3.2148,1.4045,4.6468,4.6468,0,0,0-.6758.7243c-.0156.02-.0328.0383-.0481.0591a5.4607,5.4607,0,0,0-.5289.8892c-.01.0217-.0215.042-.0315.0639a6.136,6.136,0,0,0-.3119.8776c-.0178.0614-.0468.1148-.063.1772l-.0084.0327c-.0487.1921-.0632.4008-.095.6014s-.0806.3906-.0945.5979v0c-.01.1541-.0231.3073-.0231.4649v6.0822L12.38,32.36c.02-.01.03-.01.05-.02a.689.689,0,0,1,.08-.03c.09-.04.18-.07.28-.11a.0764.0764,0,0,0,.05-.02c.11-.03.22-.07.34-.11.0417-.012.0873-.0239.1313-.0358.0866-.0278.1717-.0572.2648-.0787.1672-.0459.3445-.0923.5266-.1384.0412-.01.0836-.02.1258-.0306.0331-.0089.0662-.0177.1015-.0265.11-.02.22-.05.33-.08.12-.03.23-.05.35-.08.0267-.0045.0592-.0112.0889-.0178.0372-.0085.0747-.0172.1109-.0251.1649-.0359.3229-.0684.4748-.0987l.0428-.0088.0144-.0031v-.0433l.0105-.0834v-.0873l.0065-.0941.0155-.2333.0542-.8013A3.8557,3.8557,0,0,1,14.57,28.7831c-.0127-.0216-.0293-.04-.0417-.0618-.0064-.0114-.01-.0248-.0167-.0363a4.1,4.1,0,0,1-.2626-.5691.5591.5591,0,0,1-.2856.0828.61.61,0,0,1-.4245-.2124,1.2306,1.2306,0,0,1-.3308-.8712c0-.5956.3357-1.0829.758-1.0829,0-.1026,0-.2166-.0006-.3348-.0029-.3343-.0061-.7039-.0088-1.0239l0-.01-.0039-.4608.004-.0042.0159-.0165a2.963,2.963,0,0,1,3.0007-.14A26.32,26.32,0,0,0,21.15,25.5528l.0028.0008c.0015.1735.003.3414.0041.4854a.6519.6519,0,0,1,.4928.2875,1.2927,1.2927,0,0,1,.2534.7886,1.2108,1.2108,0,0,1-.359.8985.597.597,0,0,1-.3963.1851l-.0027-.0008-.0019-.0005a.5569.5569,0,0,1-.2582-.0749,4.1563,4.1563,0,0,1-.2171.4617,3.9388,3.9388,0,0,1-.93,1.1922,3.7575,3.7575,0,0,1-.4882.36l.0541.7689.0217.3249v.2061l.0026,0c.66.1408,1.5256.3353,2.2064.5189.0217.0109.065.0109.0976.0217.0378.0126.0789.0252.12.0378l.0874.025a8.5276,8.5276,0,0,1,.81.29c.0081,0,.0106.0055.0161.008l.0068.0024V26.2792c0-.1592-.0248-.3093-.0355-.4649v0a6.5467,6.5467,0,0,0-.3463-1.7375c-.02-.0571-.0459-.1086-.067-.1646a6.0241,6.0241,0,0,0-.26-.6072,5.2478,5.2478,0,0,0-.439-.7183c-.0193-.0361-.0444-.0708-.0676-.106-.0263-.04-.0509-.08-.0766-.12A4.5673,4.5673,0,0,0,17.5914,20.3733Z" fill="#000d6e"/><path d="M30.2119,16.5251a.5907.5907,0,0,0,.1273.0184c.4627,0,.8379-.539.8379-1.2039,0-.6612-.3711-1.1968-.83-1.2028-.0014-.1857-.0028-.3825-.0043-.5831-.0881-.0425-.3265-.1578-.6617-.3212-.73-.3554-1.9134-.9365-2.9954-1.4865-.35-.1778-.69-.3526-.9986-.5149a3.2931,3.2931,0,0,0-3.3293.1419,1.9084,1.9084,0,0,0-.0413.373c0,.0379.006.0749.0083.1125.0026.3426.0109,1.4381.017,2.2776l-.0029,0c-.4627,0-.8378.539-.8378,1.2039s.3751,1.2039.8378,1.2039a.5913.5913,0,0,0,.1519-.022,5.2461,5.2461,0,0,0,1.93,3.2218l-.0766,1.285,0,.0017-.0653,1.0453-.0037.0045c-.0013.0351-.0023.0736-.0035.11-.0036.1134-.0056.2433-.0078.3709-.0013.0588-.0031.1064-.0031.169-.01.56.01,1.26.06,2.06,0,.1.01.21.02.32v.0024A2.5,2.5,0,0,0,28.3,25.11c0-.11.01-.22.02-.32.01-.14.02-.27.02-.41.02-.44.03-.85.03-1.22.01-.37,0-.69-.01-.97v-.11l0-.0042,0-.0005L28.3,21.13l0,0a.4449.4449,0,0,0-.01-.0978l0-.0022.0041.002,0-.0022,0,0,0-.0017-.0773-1.2372A5.21,5.21,0,0,0,30.2119,16.5251Z" fill="#fae052"/><path d="M13.0048,23.4633a5.4607,5.4607,0,0,1,.5289-.8892c.0153-.0208.0325-.0386.0481-.0591a4.6468,4.6468,0,0,1,.6758-.7243A4.6367,4.6367,0,0,1,15.88,20.72l0-.01-.0249-1.1423-.0277-1.27A5.2536,5.2536,0,0,0,17.94,14.9919a.6433.6433,0,0,0,.1143.0159c.49,0,.8875-.5463.8875-1.22a1.2235,1.2235,0,0,0-.6406-1.1664v.2062a.3315.3315,0,0,1-.32.32.32.32,0,0,1-.32-.32V11.7826c0-.0464-.0038-.0864-.0048-.1311-.0343-.0592-.0746-.1188-.1132-.1784a3.9065,3.9065,0,0,0-.8825-.9614,3.4546,3.4546,0,0,1-2.5239.08,5.877,5.877,0,0,1-1.02-.4461,3.3674,3.3674,0,0,1-.6191-.4394,6.8385,6.8385,0,0,0-1.5268.4394c-.3466.1449-.6284.2912-.8524.4a4.6657,4.6657,0,0,0-.1288.7911c-.011.1391-.018.2866-.018.4454v1.0449a.32.32,0,0,1-.32.32.3041.3041,0,0,1-.0519-.0105.3154.3154,0,0,1-.2677-.3091v-.2061a1.2235,1.2235,0,0,0-.6406,1.1663c0,.6738.3974,1.22.8875,1.22a.653.653,0,0,0,.1739-.0242,5.2793,5.2793,0,0,0,2.0711,3.2881s-.0157.5583-.0313,1.3158l-.0041.209-.0012.0581c-.0237,1.2255-.043,2.8236-.001,3.5056q.0134.2173.0307.4444l.0018.0017a5.4119,5.4119,0,0,0,.58.4537,2.2364,2.2364,0,0,0,.2273.1272l.0282.0151.0059.0025a6.136,6.136,0,0,1,.3119-.8776C12.9833,23.5053,12.9944,23.485,13.0048,23.4633Z" fill="#fae052"/><path d="M20,4A16,16,0,1,1,4,20,16.0182,16.0182,0,0,1,20,4m0-1A17,17,0,1,0,37,20,17,17,0,0,0,20,3Z" fill="#fa9319"/></g></svg>