<svg xmlns="http://www.w3.org/2000/svg" viewBox="0 0 40 40" focusable="false" aria-hidden="true"><path fill="none" d="M0 0h40v40H0z"/><g data-name="Icon Green"><circle cx="13.125" cy="17.875" r="1.125" fill="none"/><path d="M23.5 32.75a1.25 1.25 0 0 0 2.5 0v-3.312a7.9 7.9 0 0 1-2.5.54ZM12.5 32.75a1.25 1.25 0 0 0 2.5 0v-2.803a7.9 7.9 0 0 1-2.5-.721Z" fill="#94e3d4"/><path d="M33.5 18.5a.5.5 0 0 0-.5.5v1.144a.906.906 0 0 1-.946.856H31.5a9.09 9.09 0 0 0-4.527-7.981A4.7 4.7 0 0 1 26.409 15h-8.318a4.7 4.7 0 0 1-.591-2.25 5 5 0 0 1 .076-.75h-.873A4 4 0 0 0 13 9.5v3.062A8.74 8.74 0 0 0 7.988 18H7.25A1.25 1.25 0 0 0 6 19.25v3.5A1.25 1.25 0 0 0 7.25 24h.738a8.8 8.8 0 0 0 4.512 5.226 7.9 7.9 0 0 0 3.4.774h7.2c.135 0 .267-.015.4-.022a7.9 7.9 0 0 0 2.5-.54A8.91 8.91 0 0 0 31.445 22h.609A1.905 1.905 0 0 0 34 20.144V19a.5.5 0 0 0-.5-.5m-20.375.5a1.125 1.125 0 1 1 1.125-1.125A1.125 1.125 0 0 1 13.125 19" fill="#1b5951"/><path d="M18.091 15h8.318a4.7 4.7 0 0 0 .564-1.981c.005-.091.027-.177.027-.269a4.751 4.751 0 0 0-9.5 0 4.7 4.7 0 0 0 .591 2.25m1.722-2.836a.5.5 0 0 1 .693-.139l1.175.784 2.237-2.237a.5.5 0 1 1 .707.707l-2.527 2.527a.5.5 0 0 1-.63.062l-1.517-1.01a.5.5 0 0 1-.139-.694" fill="#94e3d4"/><path d="M21.467 13.868a.5.5 0 0 0 .631-.062l2.527-2.527a.5.5 0 1 0-.707-.707l-2.237 2.237-1.175-.784a.5.5 0 1 0-.555.832Z" fill="#000d6e"/></g></svg>