<?xml version="1.0" encoding="UTF-8"?><svg id="Icon_Tangerine" data-name="Icon Tangerine" xmlns="http://www.w3.org/2000/svg" viewBox="0 0 40 40" focusable="false" aria-hidden="true"><g><path d="m21.3,25.88l-.45-.09.05-.46c0-.06,0-.12,0-.18,0-1.33-1.6-2.42-3.58-2.42-.9,0-1.76.23-2.43.65l-.14.09h-.17c-.14-.03-.28-.03-.42-.03-1.71,0-3.19.83-3.51,1.97l-.1.35-.36.02c-1.88.08-3.35,1.14-3.35,2.41s1.6,2.42,3.58,2.42c.76,0,1.49-.16,2.1-.47l.22-.11.22.11c.61.3,1.35.45,2.09.45.86,0,1.71-.2,2.37-.6l.26-.16.26.16c.66.39,1.49.61,2.36.61,1.97,0,3.58-1.08,3.58-2.42,0-1.07-1.06-2.02-2.59-2.32Z" fill="none"/><g><path d="m21.3,25.88l-.45-.09.05-.46c0-.06,0-.12,0-.18,0-1.33-1.6-2.42-3.58-2.42-.9,0-1.76.23-2.43.65l-.14.09h-.17c-.14-.03-.28-.03-.42-.03-1.71,0-3.19.83-3.51,1.97l-.1.35-.36.02c-1.88.08-3.35,1.14-3.35,2.41s1.6,2.42,3.58,2.42c.76,0,1.49-.16,2.1-.47l.22-.11.22.11c.61.3,1.35.45,2.09.45.86,0,1.71-.2,2.37-.6l.26-.16.26.16c.66.39,1.49.61,2.36.61,1.97,0,3.58-1.08,3.58-2.42,0-1.07-1.06-2.02-2.59-2.32Z" fill="none"/><g><path d="m21.3,25.88l-.45-.09.05-.46c0-.06,0-.12,0-.18,0-1.33-1.6-2.42-3.58-2.42-.9,0-1.76.23-2.43.65l-.14.09h-.17c-.14-.03-.28-.03-.42-.03-1.71,0-3.19.83-3.51,1.97l-.1.35-.36.02c-1.88.08-3.35,1.14-3.35,2.41s1.6,2.42,3.58,2.42c.76,0,1.49-.16,2.1-.47l.22-.11.22.11c.61.3,1.35.45,2.09.45.86,0,1.71-.2,2.37-.6l.26-.16.26.16c.66.39,1.49.61,2.36.61,1.97,0,3.58-1.08,3.58-2.42,0-1.07-1.06-2.02-2.59-2.32Z" fill="none"/><g><path d="m21.3,25.88l-.45-.09.05-.46c0-.06,0-.12,0-.18,0-1.33-1.6-2.42-3.58-2.42-.9,0-1.76.23-2.43.65l-.14.09h-.17c-.14-.03-.28-.03-.42-.03-1.71,0-3.19.83-3.51,1.97l-.1.35-.36.02c-1.88.08-3.35,1.14-3.35,2.41s1.6,2.42,3.58,2.42c.76,0,1.49-.16,2.1-.47l.22-.11.22.11c.61.3,1.35.45,2.09.45.86,0,1.71-.2,2.37-.6l.26-.16.26.16c.66.39,1.49.61,2.36.61,1.97,0,3.58-1.08,3.58-2.42,0-1.07-1.06-2.02-2.59-2.32Z" fill="none"/><path d="m31.13,22.12c0-.08.01-.17.01-.25,0-1.76-2.07-3.19-4.63-3.19-1.17,0-2.24.3-3.06.8-.17-.01-.35-.02-.52-.02-2.16,0-3.96,1.02-4.47,2.4,1.93.36,3.34,1.59,3.44,3.14,1.78.49,2.98,1.76,2.98,3.21,0,.04-.01.08-.02.12.77-.11,1.47-.34,2.05-.68.8.47,1.84.75,2.98.75,2.55,0,4.63-1.43,4.63-3.19,0-1.47-1.44-2.7-3.4-3.08Z" fill="#fa9319"/><path d="m21.3,25.88l-.45-.09.05-.46c0-.06,0-.12,0-.18,0-1.33-1.6-2.42-3.58-2.42-.9,0-1.76.23-2.43.65l-.14.09h-.17c-.14-.03-.28-.03-.42-.03-1.71,0-3.19.83-3.51,1.97l-.1.35-.36.02c-1.88.08-3.35,1.14-3.35,2.41s1.6,2.42,3.58,2.42c.76,0,1.49-.16,2.1-.47l.22-.11.22.11c.61.3,1.35.45,2.09.45.86,0,1.71-.2,2.37-.6l.26-.16.26.16c.66.39,1.49.61,2.36.61,1.97,0,3.58-1.08,3.58-2.42,0-1.07-1.06-2.02-2.59-2.32Z" fill="none"/></g></g></g></g><circle cx="13.02" cy="17" r="3" fill="#fae052"/><path d="m9.13,17c0-.28-.22-.5-.5-.5h-2.66c-.28,0-.5.22-.5.5s.22.5.5.5h2.66c.28,0,.5-.22.5-.5Z" fill="#fae052"/><path d="m20.66,17c0-.28-.22-.5-.5-.5h-2.66c-.28,0-.5.22-.5.5s.22.5.5.5h2.66c.28,0,.5-.22.5-.5Z" fill="#fae052"/><path d="m9.58,19.79l-1.88,1.88c-.2.2-.2.51,0,.71.1.1.23.15.35.15s.26-.05.35-.15l1.88-1.88c.2-.2.2-.51,0-.71s-.51-.2-.71,0Z" fill="#fae052"/><path d="m16.23,14.35c.13,0,.26-.05.35-.15l1.88-1.88c.2-.2.2-.51,0-.71s-.51-.2-.71,0l-1.88,1.88c-.2.2-.2.51,0,.71.1.1.23.15.35.15Z" fill="#fae052"/><path d="m13.08,13.04c.28,0,.5-.22.5-.5v-2.66c0-.28-.22-.5-.5-.5s-.5.22-.5.5v2.66c0,.28.22.5.5.5Z" fill="#fae052"/><path d="m9.58,14.2c.1.1.23.15.35.15s.26-.05.35-.15c.2-.2.2-.51,0-.71l-1.88-1.88c-.2-.2-.51-.2-.71,0s-.2.51,0,.71l1.88,1.88Z" fill="#fae052"/><path d="m13.58,21.45c0-.28-.22-.5-.5-.5s-.5.22-.5.5v1.22c.32-.09.65-.15,1-.18v-1.04Z" fill="#fae052"/><g><path d="m21.3,25.88l-.45-.09.05-.46c0-.06,0-.12,0-.18,0-1.33-1.6-2.42-3.58-2.42-.9,0-1.76.23-2.43.65l-.14.09h-.17c-.14-.03-.28-.03-.42-.03-1.71,0-3.19.83-3.51,1.97l-.1.35-.36.02c-1.88.08-3.35,1.14-3.35,2.41s1.6,2.42,3.58,2.42c.76,0,1.49-.16,2.1-.47l.22-.11.22.11c.61.3,1.35.45,2.09.45.86,0,1.71-.2,2.37-.6l.26-.16.26.16c.66.39,1.49.61,2.36.61,1.97,0,3.58-1.08,3.58-2.42,0-1.07-1.06-2.02-2.59-2.32Z" fill="none"/><g><path d="m14.77,23.48h-.17c-.14-.03-.28-.03-.42-.03-1.71,0-3.19.83-3.51,1.97l-.1.35-.36.02c-1.88.08-3.35,1.14-3.35,2.41s1.6,2.42,3.58,2.42c.76,0,1.49-.16,2.1-.47l.22-.11.22.11c.61.3,1.35.45,2.09.45.86,0,1.71-.2,2.37-.6l.26-.16.26.16c.66.39,1.49.61,2.36.61,1.97,0,3.58-1.08,3.58-2.42,0-1.07-1.06-2.02-2.59-2.32l-.45-.09.05-.46c0-.06,0-.12,0-.18,0-1.33-1.6-2.42-3.58-2.42-.9,0-1.76.23-2.43.65l-.14.09Z" fill="#000d6e"/><path d="m20.91,25.16c0,.06,0,.12,0,.18l-.05.46.45.09c1.52.3,2.59,1.25,2.59,2.32,0,1.33-1.6,2.42-3.58,2.42-.87,0-1.71-.22-2.36-.61l-.26-.16-.26.16c-.66.4-1.52.6-2.37.6-.74,0-1.48-.15-2.09-.45l-.22-.11-.22.11c-.62.31-1.34.47-2.1.47-1.97,0-3.58-1.08-3.58-2.42s1.47-2.33,3.35-2.41l.36-.02.1-.35c.32-1.14,1.8-1.97,3.51-1.97.14,0,.28,0,.42.02h.17s.14-.08.14-.08c.67-.42,1.53-.65,2.43-.65,1.97,0,3.58,1.08,3.58,2.42Z" fill="#000d6e"/></g><path d="m17.79,20.99l-1.2-1.2c-.2-.2-.51-.2-.71,0s-.2.51,0,.71l1.26,1.26c.07,0,.13-.01.2-.01.04,0,.07,0,.11,0l.09-.24c.07-.18.16-.35.25-.51Z" fill="#fae052"/></g></svg>