<?xml version="1.0" encoding="iso-8859-1"?><!--Generator: Adobe Illustrator 26.2.1, SVG Export Plug-In . SVG Version: 6.00 Build 0)--><svg version="1.1" xmlns="http://www.w3.org/2000/svg" xmlns:xlink="http://www.w3.org/1999/xlink" x="0px" y="0px" viewBox="0 0 40 40" xml:space="preserve" focusable="false" aria-hidden="true" enable-background="new 0 0 40 40"><g id="Solid"><rect width="40" height="40" fill="none"/></g><g id="Icon_Red"><g><path d="M26.672,13.58h-6.4c-2.371,0-4.3,1.929-4.3,4.3v0.8c0,1.39,0.68,2.701,1.819,3.508l0.396,0.281
			l-1.36,2.04c-0.116,0.174-0.021,0.313,0.025,0.365s0.173,0.165,0.358,0.069l3.928-1.963h5.534c2.371,0,4.3-1.93,4.3-4.301v-0.8
			C30.972,15.509,29.044,13.58,26.672,13.58z" fill="#FFACA6"/></g><path d="M20,8.5c0-0.274,0.221-0.496,0.494-0.499C20.492,8.001,20.49,8,20.488,8c-0.276,0-0.5,0.224-0.5,0.5
		c0,0.276,0.224,0.5,0.5,0.5c0.002,0,0.004-0.001,0.006-0.001C20.221,8.996,20,8.774,20,8.5z" fill="none"/><path d="M18.5,8h-5C13.224,8,13,8.224,13,8.5C13,8.776,13.224,9,13.5,9h5C18.776,9,19,8.776,19,8.5
		C19,8.224,18.776,8,18.5,8z" fill="none"/><path d="M9,31v1.974C9,33.541,9.459,34,10.026,34h11.948C22.541,34,23,33.541,23,32.974V31H9z" fill="#D9304C"/><path d="M22.064,7H9.936C9.419,7,9,7.419,9,7.936V10h14V7.936C23,7.419,22.581,7,22.064,7z M20.5,9
		c-0.002,0-0.004-0.001-0.006-0.001S20.49,9,20.488,9c-0.276,0-0.5-0.224-0.5-0.5c0-0.276,0.224-0.5,0.5-0.5
		c0.002,0,0.004,0.001,0.006,0.001S20.498,8,20.5,8C20.776,8,21,8.224,21,8.5C21,8.776,20.776,9,20.5,9z" fill="#D9304C"/><path d="M20.5,8c-0.002,0-0.004,0.001-0.006,0.001C20.221,8.004,20,8.226,20,8.5
		c0,0.274,0.221,0.496,0.494,0.499C20.496,8.999,20.498,9,20.5,9C20.776,9,21,8.776,21,8.5C21,8.224,20.776,8,20.5,8z" fill="#FFACA6"/><g><path d="M20.964,18.341c0-0.384,0.293-0.677,0.659-0.677c0.394,0,0.668,0.293,0.668,0.677
			c0,0.376-0.275,0.659-0.668,0.659C21.257,19,20.964,18.717,20.964,18.341z M22.813,18.341c0-0.384,0.274-0.677,0.659-0.677
			c0.384,0,0.668,0.293,0.668,0.677c0,0.376-0.284,0.659-0.668,0.659C23.088,19,22.813,18.717,22.813,18.341z M24.653,18.341
			c0-0.384,0.284-0.677,0.659-0.677c0.375,0,0.668,0.293,0.668,0.677c0,0.376-0.293,0.659-0.668,0.659
			C24.937,19,24.653,18.717,24.653,18.341z" fill="#000D6E"/></g><path d="M18.5,8C18.776,8,19,8.224,19,8.5C19,8.776,18.776,9,18.5,9h-5C13.224,9,13,8.776,13,8.5
		C13,8.224,13.224,8,13.5,8" fill="#FFACA6"/><path d="M21.375,23.98l-3.704,1.851c-0.191,0.099-0.393,0.149-0.601,0.149c-0.364,0-0.716-0.161-0.965-0.443
		c-0.397-0.448-0.441-1.084-0.109-1.583l0.833-1.25c-1.171-1.002-1.857-2.474-1.857-4.024v-0.8c0-2.922,2.378-5.3,5.3-5.3H23V10H9
		v21h14v-7.02H21.375z" fill="#FFACA6"/><circle cx="16" cy="31" r="1" fill="#000D6E"/></g></svg>