<?xml version="1.0" encoding="iso-8859-1"?><!--Generator: Adobe Illustrator 26.3.1, SVG Export Plug-In . SVG Version: 6.00 Build 0)--><svg version="1.1" xmlns="http://www.w3.org/2000/svg" xmlns:xlink="http://www.w3.org/1999/xlink" x="0px" y="0px" viewBox="0 0 40 40" xml:space="preserve" focusable="false" aria-hidden="true" enable-background="new 0 0 40 40"><g id="Solid"><rect width="40" height="40" fill="none"/></g><g id="Icon_Green"><path d="M25,32c0-2.278,1.099-4.3,2.789-5.579L22.997,24l0.013-1.959c1.605-1.061,2.814-2.923,3.298-5.161
		c0.059,0.011,0.117,0.025,0.178,0.025c0.765,0,1.385-0.853,1.385-1.905c0-0.867-0.424-1.59-1-1.821v-1.836
		c0.044-1.293,0.067-2.677,0-3.343c-0.145-1.436-2.835-5-7-5s-7,3.143-7,6v4.179c-0.576,0.231-1,0.954-1,1.821
		c0,1.052,0.62,1.905,1.385,1.905c0.093,0,0.184-0.014,0.272-0.038c0.475,2.212,1.658,4.062,3.233,5.133h-0.026l0.01,2l-0.146,0.074
		L7.03,29.039c-1.19,0.601-2.002,1.755-2.167,3.077L4.808,38h11.41h1.654h4h1.66h4.88C26.373,36.776,25,34.548,25,32z" fill="#1B5951"/><g><g><circle cx="32" cy="32" r="6" fill="#94E3D4"/></g><path d="M34.5,31.5h-2v-2c0-0.276-0.224-0.5-0.5-0.5s-0.5,0.224-0.5,0.5v2h-2c-0.276,0-0.5,0.224-0.5,0.5
			s0.224,0.5,0.5,0.5h2v2c0,0.276,0.224,0.5,0.5,0.5s0.5-0.224,0.5-0.5v-2h2c0.276,0,0.5-0.224,0.5-0.5S34.776,31.5,34.5,31.5z" fill="#000D6E"/></g></g></svg>