<svg xmlns="http://www.w3.org/2000/svg" viewBox="0 0 40 40" focusable="false" aria-hidden="true"><g id="Solid"><rect width="40" height="40" fill="none"/></g><g id="Icon_Red" data-name="Icon Red"><path d="M23,28v2H17V28H4v1a2,2,0,0,0,2,2H34a2,2,0,0,0,2-2V28Z" fill="#d9304c"/><rect x="17" y="28" width="6" height="2" fill="#ffaca6"/><path d="M34,10a1,1,0,0,0-1-1H7a1,1,0,0,0-1,1V27H34ZM33,26H7V10H33Z" fill="#d9304c"/><path d="M7,26H33V10H7Zm10.5021-2H15.5006A1,1,0,0,1,14.5,23V21.8652l3.002-2.7173Zm4,0h-3V18.2431l.3564-.3228,1.398,1.3487a.4978.4978,0,0,0,.1054.0776.9161.9161,0,0,0,1.1353-.168l.0049-.0043ZM25.5,23a1.0007,1.0007,0,0,1-1,1H22.5021V18.2553L25.5,15.5ZM13.438,20.01l4.7876-4.3311a1.0066,1.0066,0,0,1,1.1211-.1191.4846.4846,0,0,1,.11.081l1.4,1.3506L25.2263,13H25a.5.5,0,0,1,0-1h1.501a.4912.4912,0,0,1,.2152.0532c.0078.0036.0138.0105.0214.0144a.4956.4956,0,0,1,.1268.0936c.0044.0044.01.006.0145.0107a197.023,197.023,0,0,0,.0845.1422.49.49,0,0,1,.0376.2428l0,1.44a.5.5,0,0,1-1,0l0-.3578-4.5062,4.0746a.921.921,0,0,1-1.1323.166.4855.4855,0,0,1-.1065-.0791l-1.3969-1.3477L14.1089,20.752a.5.5,0,0,1-.6709-.7422Z" fill="#ffaca6"/><path d="M13.7734,20.8809a.5014.5014,0,0,0,.3355-.1289l4.7505-4.2989,1.3969,1.3477a.4855.4855,0,0,0,.1065.0791.921.921,0,0,0,1.1323-.166l4.5062-4.0746,0,.3578a.5.5,0,0,0,1,0l0-1.44a.49.49,0,0,0-.0376-.2428,197.023,197.023,0,0,1-.0845-.1422c-.0042-.0047-.01-.0063-.0145-.0107a.4956.4956,0,0,0-.1268-.0936c-.0076-.0039-.0136-.0108-.0214-.0144A.4912.4912,0,0,0,26.501,12H25a.5.5,0,0,0,0,1h.2263l-4.3689,3.9912-1.4-1.3506a.4846.4846,0,0,0-.11-.081,1.0066,1.0066,0,0,0-1.1211.1191L13.438,20.01a.5.5,0,0,0,.3354.8711Z" fill="#000d6e"/><path d="M14.5,23a1,1,0,0,0,1.0005,1h2.0015v-4.852L14.5,21.8652Z" fill="#000d6e"/><path d="M22.5021,24H24.5a1.0007,1.0007,0,0,0,1-1V15.5l-2.998,2.7554Z" fill="#000d6e"/><path d="M20.3619,19.3466a.4978.4978,0,0,1-.1054-.0776L18.8585,17.92l-.3564.3228V24h3V19.1743l-.0049.0043A.9161.9161,0,0,1,20.3619,19.3466Z" fill="#000d6e"/></g></svg>