<svg version="1.1" xmlns="http://www.w3.org/2000/svg" x="0px" y="0px" viewBox="0 0 40 40" xml:space="preserve" focusable="false" aria-hidden="true" enable-background="new 0 0 40 40"><path fill="none" d="M0 0h40v40H0z"/><g><path d="M25 32c0-2.278 1.099-4.3 2.789-5.579L22.997 24l.013-1.959c1.605-1.061 2.814-2.923 3.298-5.161.059.011.117.025.178.025.765 0 1.385-.853 1.385-1.905 0-.867-.424-1.59-1-1.821v-1.836c.044-1.293.067-2.677 0-3.343-.145-1.436-2.835-5-7-5s-7 3.143-7 6v4.179c-.576.231-1 .954-1 1.821 0 1.052.62 1.905 1.385 1.905q.14-.001.272-.038c.475 2.212 1.658 4.062 3.233 5.133h-.026l.01 2-.146.074-9.569 4.965a4 4 0 0 0-2.167 3.077L4.808 38h23.604A7 7 0 0 1 25 32" fill="#FA9319"/><circle cx="32" cy="32" r="6" fill="#FAE052"/><path d="M34.5 31.5h-2v-2a.5.5 0 0 0-1 0v2h-2a.5.5 0 0 0 0 1h2v2a.5.5 0 0 0 1 0v-2h2a.5.5 0 0 0 0-1" fill="#000D6E"/></g></svg>