<svg version="1.1" xmlns="http://www.w3.org/2000/svg" x="0px" y="0px" viewBox="0 0 40 40" xml:space="preserve" focusable="false" aria-hidden="true" enable-background="new 0 0 40 40"><path fill="none" d="M0 0h40v40H0z"/><g><path fill="#1B5951" d="M29 6h-4v2.306l4 3.688z"/><path d="M19.398 8.234 10 16.933V34h8v-6.023h4V34h8V16.933l-9.412-8.711a.89.89 0 0 0-1.19.012m-2.382 14.713h-3v-3.011h3zM23 19.959h3v3.011h-3zm-1.5 2.988h-3v-3.011h3z" fill="#94E3D4"/><path d="M32.339 16.433 21.94 6.844a2.9 2.9 0 0 0-3.884.005L7.661 16.433l.339.368.339.367 10.39-9.58a1.9 1.9 0 0 1 2.538-.005l10.394 9.585.339-.367zM18 28h4v6h-4z" fill="#000D6E"/><path fill="none" stroke="#000D6E" stroke-width="0" stroke-linecap="round" stroke-linejoin="round" d="M5.518 36.009"/></g></svg>