<svg xmlns="http://www.w3.org/2000/svg" viewBox="0 0 40 40" focusable="false" aria-hidden="true"><path fill="none" d="M0 0h40v40H0z"/><g><circle cx="33" cy="27" r="4" fill="#b8b2ff"/><circle cx="7" cy="27" r="4" fill="#b8b2ff"/><path d="M7 22a4.91 4.91 0 0 1 3.77 1.78l10.29-.65a3.28 3.28 0 0 0 2.5-1.44l2.72-4.09a3.1 3.1 0 0 0 .47-1.09H8.11l-.44.32a24.5 24.5 0 0 0-3.25 2.93A6.72 6.72 0 0 0 3 24.07 4.94 4.94 0 0 1 7 22" fill="#b8b2ff"/><path d="M9.83 16.55c4-3.05 7.63-6.3 9.68-6.55H25a1.14 1.14 0 0 1 1.06 1l.72 4.32a3.2 3.2 0 0 1 0 1.24 3.1 3.1 0 0 1-.47 1.09l-2.72 4.09a3.28 3.28 0 0 1-2.5 1.44l-10.29.65A4.9 4.9 0 0 1 12 27c0 .22 0 .42-.06.63l16.19-.15A4 4 0 0 1 28 27a5 5 0 0 1 5-5 4.91 4.91 0 0 1 3.78 1.79l-1.28-7.24H34a2.17 2.17 0 0 1-2.15-1.81L30.91 9h-11a2.3 2.3 0 0 0-.58.07C16 10 11 14.37 8.11 16.57Z" fill="#6c2273"/><path d="m30.91 9 1 5.75A2.17 2.17 0 0 0 34 16.56h1.5l-1-5.76A2.16 2.16 0 0 0 32.35 9z" fill="#b8b2ff"/><circle cx="33" cy="27" r="2" fill="#000d6e"/><circle cx="7" cy="27" r="2" fill="#000d6e"/></g></svg>