<svg xmlns="http://www.w3.org/2000/svg" viewBox="0 0 40 40" focusable="false" aria-hidden="true"><path fill="none" d="M0 0h40v40H0z"/><g data-name="Icon Purple"><path fill="none" d="M9 20h10v6H9z"/><path d="M30.5 17.994a2.5 2.5 0 0 1-1.5-.502 2.496 2.496 0 0 1-3 0 2.496 2.496 0 0 1-3 0 2.496 2.496 0 0 1-3 0 2.496 2.496 0 0 1-3 0 2.496 2.496 0 0 1-3 0 2.496 2.496 0 0 1-3 0 2.496 2.496 0 0 1-3 0 2.5 2.5 0 0 1-1 .451V33h16V20h8v13h2V17.943a2.5 2.5 0 0 1-1-.45 2.5 2.5 0 0 1-1.5.5M9 20h10v6H9Zm10.5 8.004h-11a.504.504 0 1 1 0-1.008h11a.504.504 0 0 1 0 1.008" fill="#b8b2ff"/><path d="M23 20v13h8V20Zm4 7.5a.5.5 0 0 1-.5.5h-2a.5.5 0 0 1-.5-.5v-.001l-.001-.005a.5.5 0 0 1 .5-.5H26.5a.5.5 0 0 1 .5.5v.003ZM19.5 26.996h-11a.504.504 0 1 0 0 1.008h11a.504.504 0 0 0 0-1.008" fill="#6c2273"/><path d="M26.5 27h-2a.497.497 0 1 0 0 .994h2a.497.497 0 1 0 0-.994" fill="#000d6e"/><path d="M26.5 27.994h-2a.5.5 0 0 1-.5-.495v.001a.5.5 0 0 0 .5.5h2a.5.5 0 0 0 .5-.5v-.003a.5.5 0 0 1-.5.497" fill="#000d6e"/><path d="M26.5 26.994h-2a.5.5 0 0 0-.5.5v.005a.5.5 0 0 1 .5-.499h2a.5.5 0 0 1 .5.497v-.003a.5.5 0 0 0-.5-.5" fill="#000d6e"/><path d="M5 7v8.5a1.5 1.5 0 0 0 3-.006 1.5 1.5 0 0 0 3 0 1.5 1.5 0 0 0 3 0 1.5 1.5 0 0 0 3 0 1.5 1.5 0 0 0 3 0 1.5 1.5 0 0 0 3 0 1.5 1.5 0 0 0 3 0 1.5 1.5 0 0 0 3 0 1.5 1.5 0 0 0 3 0 1.5 1.5 0 0 0 3 .006V7Z" fill="#6c2273"/></g></svg>