<?xml version="1.0" encoding="iso-8859-1"?><!--Generator: Adobe Illustrator 26.2.1, SVG Export Plug-In . SVG Version: 6.00 Build 0)--><svg version="1.1" xmlns="http://www.w3.org/2000/svg" xmlns:xlink="http://www.w3.org/1999/xlink" x="0px" y="0px" viewBox="0 0 40 40" xml:space="preserve" focusable="false" aria-hidden="true" enable-background="new 0 0 40 40"><g id="Solid"><rect width="40" height="40" fill="none"/></g><g id="Icon_Tangerine"><g><path d="M21,16.08V8.414l0.821,0.821c0.195,0.195,0.451,0.293,0.707,0.293s0.512-0.098,0.707-0.293
			c0.391-0.391,0.391-1.023,0-1.414l-2.528-2.528c-0.391-0.391-1.023-0.391-1.414,0l-2.528,2.528c-0.391,0.391-0.391,1.023,0,1.414
			s1.023,0.391,1.414,0L19,8.414v7.666c0.328-0.047,0.66-0.08,1-0.08S20.672,16.033,21,16.08z" fill="#FA9319"/><path d="M19,29.92V36c0,0.553,0.448,1,1,1s1-0.447,1-1v-6.08C20.672,29.967,20.34,30,20,30
			S19.328,29.967,19,29.92z" fill="#FA9319"/><path d="M11.652,13h0.923c0.552,0,1-0.447,1-1s-0.448-1-1-1H9c-0.552,0-1,0.447-1,1v3.575
			c0,0.553,0.448,1,1,1s1-0.447,1-1V14.15c1.737,1.81,2.902,3.967,3.509,6.243c0.326-0.81,0.801-1.543,1.388-2.17
			C14.172,16.34,13.095,14.562,11.652,13z" fill="#FA9319"/><path d="M13.826,26.292c-0.443,2.929-1.774,5.749-4.026,8.001c-0.391,0.391-0.391,1.023,0,1.414
			C9.995,35.902,10.251,36,10.507,36s0.512-0.098,0.707-0.293c2.123-2.123,3.521-4.69,4.232-7.402
			C14.79,27.741,14.237,27.06,13.826,26.292z" fill="#FA9319"/><path d="M24.55,28.309c0.714,2.71,2.114,5.276,4.236,7.398C28.981,35.902,29.237,36,29.493,36
			s0.512-0.098,0.707-0.293c0.391-0.391,0.391-1.023,0-1.414c-2.249-2.249-3.582-5.063-4.032-7.989
			C25.756,27.07,25.204,27.747,24.55,28.309z" fill="#FA9319"/><path d="M31,11h-3.576c-0.552,0-1,0.447-1,1s0.448,1,1,1h0.872c-1.427,1.559-2.492,3.331-3.21,5.205
			c0.588,0.623,1.064,1.351,1.393,2.156c0.608-2.285,1.776-4.451,3.52-6.268v1.482c0,0.553,0.448,1,1,1s1-0.447,1-1V12
			C32,11.447,31.552,11,31,11z" fill="#FA9319"/></g><g><circle cx="20" cy="23" r="6" fill="#FAE052"/></g><g><path d="M20.003,25.472l-2.096,1.102c-0.16,0.084-0.346-0.052-0.316-0.23l0.4-2.334l-1.696-1.653
			c-0.129-0.126-0.058-0.345,0.121-0.371l2.344-0.341l1.048-2.124c0.08-0.162,0.311-0.162,0.391,0l1.048,2.124l2.333,0.339
			c0.183,0.027,0.256,0.251,0.124,0.38l-1.688,1.646l0.4,2.334c0.031,0.178-0.156,0.314-0.316,0.23L20.003,25.472z" fill="#000D6E"/></g></g></svg>