<svg version="1.1" xmlns="http://www.w3.org/2000/svg" x="0px" y="0px" viewBox="0 0 40 40" xml:space="preserve" focusable="false" aria-hidden="true" enable-background="new 0 0 40 40"><path fill="none" d="M0 0h40v40H0z"/><g><path d="M20.707 5.293a1 1 0 0 0-1.414 0l-2.528 2.528a.999.999 0 1 0 1.414 1.414L19 8.414v7.666c.328-.047.66-.08 1-.08s.672.033 1 .08V8.414l.821.821a.997.997 0 0 0 1.414 0 1 1 0 0 0 0-1.414zM19 29.92V36a1 1 0 1 0 2 0v-6.08c-.328.047-.66.08-1 .08s-.672-.033-1-.08M10 15.575V14.15a14.3 14.3 0 0 1 3.509 6.243 7 7 0 0 1 1.388-2.17 16.3 16.3 0 0 0-3.245-5.224h.923a1 1 0 1 0 0-2H9a1 1 0 0 0-1 1v3.575a1 1 0 0 0 2 .001M9.8 34.293a.999.999 0 1 0 1.414 1.414 16.24 16.24 0 0 0 4.232-7.402 7 7 0 0 1-1.62-2.013A14.3 14.3 0 0 1 9.8 34.293M26.168 26.304a7 7 0 0 1-1.618 2.004 16.3 16.3 0 0 0 4.236 7.398.994.994 0 0 0 1.414.001 1 1 0 0 0 0-1.414 14.33 14.33 0 0 1-4.032-7.989M31 11h-3.576a1 1 0 1 0 0 2h.872a16.4 16.4 0 0 0-3.21 5.205 7 7 0 0 1 1.393 2.156 14.35 14.35 0 0 1 3.52-6.268v1.482a1 1 0 1 0 2 0V12A1 1 0 0 0 31 11" fill="#6C2273"/><circle cx="20" cy="23" r="6" fill="#B8B2FF"/><path d="m20.003 25.472-2.096 1.102a.218.218 0 0 1-.316-.23l.4-2.334-1.696-1.653a.217.217 0 0 1 .121-.371l2.344-.341 1.048-2.124a.218.218 0 0 1 .391 0l1.048 2.124 2.333.339a.223.223 0 0 1 .124.38l-1.688 1.646.4 2.334a.218.218 0 0 1-.316.23z" fill="#000D6E"/></g></svg>