<?xml version="1.0" encoding="iso-8859-1"?><!--Generator: Adobe Illustrator 26.2.1, SVG Export Plug-In . SVG Version: 6.00 Build 0)--><svg version="1.1" xmlns="http://www.w3.org/2000/svg" xmlns:xlink="http://www.w3.org/1999/xlink" x="0px" y="0px" viewBox="0 0 40 40" xml:space="preserve" focusable="false" aria-hidden="true" enable-background="new 0 0 40 40"><g id="Solid"><rect width="40" height="40" fill="none"/></g><g id="Icon_Tangerine"><g><path d="M8.443,30.564c-1.091,1.091-1.091,2.859,0,3.95c1.091,1.091,2.859,1.091,3.95,0
			c1.091-1.091,1.091-2.859,0-3.95C11.302,29.473,9.534,29.473,8.443,30.564z" fill="#FAE052"/><path d="M5.294,35.039c-0.505,0.505-0.505,1.323,0,1.828c0.505,0.505,1.323,0.505,1.828,0
			c0.505-0.505,0.505-1.323,0-1.828S5.799,34.534,5.294,35.039z" fill="#FAE052"/><path d="M34.473,19.689c1.756-1.149,2.918-3.13,2.918-5.386c0-3.554-2.881-6.435-6.435-6.435
			c-0.15,0-0.297,0.012-0.445,0.022c-1.478-2.086-3.905-3.452-6.656-3.452c-1.4,0-2.718,0.354-3.87,0.975
			c-1.157-1.117-2.729-1.807-4.465-1.807c-3.554,0-6.435,2.881-6.435,6.435c0,0.056,0.007,0.111,0.008,0.167
			c-3.6,0.117-6.485,3.065-6.485,6.693c0,2.668,1.562,4.964,3.818,6.044c0.953,3.643,4.256,6.335,8.198,6.335
			c2.194,0,4.187-0.84,5.693-2.207c1.154,0.625,2.475,0.98,3.879,0.98c1.803,0,3.464-0.592,4.815-1.583
			c0.79,0.774,1.869,1.254,3.062,1.254c2.418,0,4.379-1.961,4.379-4.379C36.451,21.815,35.663,20.472,34.473,19.689z" fill="#FAE052"/></g><polygon points="28.429,7.33 26.029,7.33 26.029,8.714 28.429,10.927 	" fill="#FA9319"/><path d="M15.669,14.358l6.288-5.817
		c0.588-0.588,1.542-0.588,2.13,0l6.359,5.817" fill="none" stroke="#000D6E" stroke-linejoin="round" stroke-miterlimit="10"/><path d="M23.382,9.608c-0.198-0.178-0.509-0.177-0.715,0.008l-5.639,5.2v10.202h12V14.815L23.382,9.608z
		 M21.001,18.073h-2.059v-2.042h2.059V18.073z M23.94,18.073h-2.059v-2.042h2.059V18.073z M27.008,18.073h-2.059v-2.042h2.059
		V18.073z" fill="#FA9319"/><rect x="21.449" y="21.017" width="3.109" height="4" fill="#000D6E"/></g></svg>