<svg version="1.1" xmlns="http://www.w3.org/2000/svg" x="0px" y="0px" viewBox="0 0 40 40" xml:space="preserve" focusable="false" aria-hidden="true" enable-background="new 0 0 40 40"><path fill="none" d="M0 0h40v40H0z"/><g><path d="M37.041 10h-34a1 1 0 0 0-1 1v20a1 1 0 0 0 1 1h34a1 1 0 0 0 1-1V11a1 1 0 0 0-1-1" fill="#1B5951"/><circle cx="32.5" cy="12.44" r="0.5" fill="none"/><circle cx="34.5" cy="12.44" r="0.5" fill="none"/><path d="M25.181 33H14.819a.82.82 0 0 0-.819.819V35h12v-1.181a.82.82 0 0 0-.819-.819" fill="#1B5951"/><path d="M3.041 11v20h34V11zM32.5 12.94a.5.5 0 1 1 0-1 .5.5 0 0 1 0 1m2 0a.5.5 0 1 1 0-1 .5.5 0 0 1 0 1" fill="#94E3D4"/><path d="M16.637 16.738a9.2 9.2 0 0 0 2.962.624V13.39a9.3 9.3 0 0 0-2.962 3.348M19.599 20.59v-2.426a9.9 9.9 0 0 1-3.306-.699 9.1 9.1 0 0 0-.683 3.125zM28 20.59a7.97 7.97 0 0 0-1.744-4.61 10 10 0 0 1-1.817 1.154 10 10 0 0 1 .754 3.456zM24.391 20.59a9.2 9.2 0 0 0-.683-3.125 10 10 0 0 1-3.306.699v2.426zM20.401 13.39v3.972a9.2 9.2 0 0 0 2.962-.624 9.3 9.3 0 0 0-2.962-3.348M18.661 13.092a8 8 0 0 0-4.385 2.286 9.3 9.3 0 0 0 1.629 1.033 10.1 10.1 0 0 1 2.756-3.319M21.339 13.092a10.1 10.1 0 0 1 2.756 3.319 9.3 9.3 0 0 0 1.629-1.033 8 8 0 0 0-4.385-2.286M15.609 21.392a9.2 9.2 0 0 0 .679 3.114 10 10 0 0 1 3.31-.7v-2.414zM23.369 25.234a9.2 9.2 0 0 0-2.968-.626v3.984a9.3 9.3 0 0 0 2.968-3.358M21.339 28.891a8 8 0 0 0 4.392-2.294 9.2 9.2 0 0 0-1.63-1.036 10.1 10.1 0 0 1-2.762 3.33M14.807 20.59a10 10 0 0 1 .754-3.456 10 10 0 0 1-1.817-1.154A7.98 7.98 0 0 0 12 20.59zM18.661 28.891a10.1 10.1 0 0 1-2.761-3.329c-.58.29-1.127.635-1.63 1.036a8 8 0 0 0 4.391 2.293M25.193 21.392a9.9 9.9 0 0 1-.75 3.445c.649.322 1.259.708 1.819 1.157A7.98 7.98 0 0 0 28 21.391h-2.807zM20.401 21.392v2.414a9.9 9.9 0 0 1 3.31.7c.4-.966.632-2.016.679-3.114zM12 21.392a7.97 7.97 0 0 0 1.738 4.603c.56-.449 1.171-.835 1.819-1.157a10 10 0 0 1-.75-3.445zM19.599 28.592v-3.984a9.2 9.2 0 0 0-2.968.626 9.3 9.3 0 0 0 2.968 3.358" fill="#000D6E"/></g></svg>