<svg version="1.1" xmlns="http://www.w3.org/2000/svg" x="0px" y="0px" viewBox="0 0 40 40" xml:space="preserve" focusable="false" aria-hidden="true" enable-background="new 0 0 40 40"><path fill="none" d="M0 0h40v40H0z"/><g><path fill="#FAE052" d="M3.041 11h34v20h-34z"/><path d="M3.041 31.5a.5.5 0 0 1-.5-.5V11a.5.5 0 0 1 .5-.5h34a.5.5 0 0 1 .5.5v20a.5.5 0 0 1-.5.5z" fill="#FFACA6"/><path d="M37.041 11v20h-34V11zm0-1h-34a1 1 0 0 0-1 1v20a1 1 0 0 0 1 1h34a1 1 0 0 0 1-1V11a1 1 0 0 0-1-1M25.181 33H14.819a.82.82 0 0 0-.819.819V35h12v-1.181a.82.82 0 0 0-.819-.819" fill="#D9304C"/><path d="M27.208 20.694V16.32a2.333 2.333 0 0 0-2.333-2.333H20.5v6.708h6.708zM20.5 28.403h4.375a2.333 2.333 0 0 0 2.333-2.333v-4.375H20.5zM12.792 21.708v4.375a2.333 2.333 0 0 0 2.333 2.333H19.5v-6.708zM19.5 14h-4.375a2.333 2.333 0 0 0-2.333 2.333v4.375H19.5z" fill="#D9304C"/><path d="M22.495 24.562h3a.5.5 0 0 0 0-1h-3a.5.5 0 0 0 0 1M25.495 25.536h-3a.5.5 0 0 0 0 1h3a.5.5 0 0 0 0-1" fill="#000D6E"/><path d="M15.501 17.854h2a.5.5 0 0 0 0-1h-2a.5.5 0 0 0 0 1M18.001 24.562h-1v-1a.5.5 0 0 0-1 0v1h-1a.5.5 0 0 0 0 1h1v1a.5.5 0 0 0 1 0v-1h1a.5.5 0 0 0 0-1M24.36 17.354l.707-.707a.5.5 0 0 0-.707-.707l-.707.707-.707-.707a.5.5 0 0 0-.707.707l.707.707-.707.707a.5.5 0 0 0 .708.707l.707-.707.707.707a.5.5 0 0 0 .708 0 .5.5 0 0 0 0-.707z" fill="#FFACA6"/><circle cx="32.5" cy="12.5" r="0.5" fill="#D9304C"/><circle cx="34.5" cy="12.5" r="0.5" fill="#D9304C"/></g></svg>