<svg xmlns="http://www.w3.org/2000/svg" viewBox="0 0 40 40" focusable="false" aria-hidden="true"><g id="Solid"><rect width="40" height="40" fill="none"/></g><g id="Icon"><path d="M35,16V15a6,6,0,0,0-6-6H21a6,6,0,0,0-6,6v1a6,6,0,0,0,6,6h6.77l4.78,2.39a1,1,0,0,0,1.28-1.45l-1.37-2.05A6,6,0,0,0,35,16Z" fill="#d9304c"/><path d="M19,15.5H11a6,6,0,0,0-6,6v1a6,6,0,0,0,2.54,4.89L6.17,29.44a1,1,0,0,0,1.28,1.45l4.78-2.39H19a6,6,0,0,0,6-6v-1A6,6,0,0,0,19,15.5Z" fill="#ffaca6"/><circle cx="11" cy="22" r="1" fill="#000d6e"/><circle cx="15" cy="22" r="1" fill="#000d6e"/><circle cx="19" cy="22" r="1" fill="#000d6e"/></g></svg>