<?xml version="1.0" encoding="iso-8859-1"?><!--Generator: Adobe Illustrator 26.2.1, SVG Export Plug-In . SVG Version: 6.00 Build 0)--><svg version="1.1" xmlns="http://www.w3.org/2000/svg" xmlns:xlink="http://www.w3.org/1999/xlink" x="0px" y="0px" viewBox="0 0 40 40" xml:space="preserve" focusable="false" aria-hidden="true" enable-background="new 0 0 40 40"><g id="Solid"><rect width="40" height="40" fill="none"/></g><g id="Icon_Green"><g><g><path d="M32,19.5V12c0-2.209-1.791-4-4-4h-7.5v11.5H32z" fill="#94E3D4"/><path d="M20.5,32H28c2.209,0,4-1.791,4-4v-7.5H20.5V32z" fill="#94E3D4"/><path d="M8,20.5V28c0,2.209,1.791,4,4,4h7.5V20.5H8z" fill="#94E3D4"/><path d="M19.5,8H12c-2.209,0-4,1.791-4,4v7.5h11.5V8z" fill="#94E3D4"/></g><path d="M16,14.5h-4c-0.276,0-0.5-0.224-0.5-0.5s0.224-0.5,0.5-0.5h4c0.276,0,0.5,0.224,0.5,0.5
			S16.276,14.5,16,14.5z" fill="#1B5951"/><path d="M28.354,15.296l-1.523-1.523l1.419-1.419c0.195-0.195,0.195-0.512,0-0.707s-0.512-0.195-0.707,0
			l-1.419,1.419l-1.419-1.419c-0.195-0.195-0.512-0.195-0.707,0s-0.195,0.512,0,0.707l1.419,1.419l-1.523,1.523
			c-0.195,0.195-0.195,0.512,0,0.707c0.098,0.098,0.226,0.146,0.354,0.146s0.256-0.049,0.354-0.146l1.523-1.523l1.523,1.523
			c0.098,0.098,0.226,0.146,0.354,0.146s0.256-0.049,0.354-0.146C28.549,15.808,28.549,15.491,28.354,15.296z" fill="#1B5951"/><g><path d="M28,25.5h-4c-0.276,0-0.5-0.224-0.5-0.5s0.224-0.5,0.5-0.5h4c0.276,0,0.5,0.224,0.5,0.5
				S28.276,25.5,28,25.5z" fill="#1B5951"/><path d="M28,28.5h-4c-0.276,0-0.5-0.224-0.5-0.5s0.224-0.5,0.5-0.5h4c0.276,0,0.5,0.224,0.5,0.5
				S28.276,28.5,28,28.5z" fill="#1B5951"/></g><path d="M16,25.5h-1.5V24c0-0.276-0.224-0.5-0.5-0.5s-0.5,0.224-0.5,0.5v1.5H12c-0.276,0-0.5,0.224-0.5,0.5
			s0.224,0.5,0.5,0.5h1.5V28c0,0.276,0.224,0.5,0.5,0.5s0.5-0.224,0.5-0.5v-1.5H16c0.276,0,0.5-0.224,0.5-0.5S16.276,25.5,16,25.5z" fill="#1B5951"/></g></g></svg>