<svg xmlns="http://www.w3.org/2000/svg" viewBox="0 0 40 40" focusable="false" aria-hidden="true"><path fill="none" d="M0 0h40v40H0z"/><g data-name="Icon Green"><path fill="#94e3d4" d="M13 35h14v1H13z"/><path d="M7 24.252V33a1 1 0 0 0 1 1h4V21l-4.514 2.395a1 1 0 0 0-.486.857M32.515 23.395 28 21v13h4a1 1 0 0 0 1-1v-8.748a1 1 0 0 0-.486-.857" fill="#1b5951"/><path d="M20.675 4.243a.99.99 0 0 0-1.327.023C17.61 5.87 13 10.828 13 15v19h14V15c0-4.557-4.57-9.246-6.325-10.757" fill="#94e3d4"/><circle cx="20" cy="16" r="4" fill="#000d6e"/></g></svg>