<svg xmlns="http://www.w3.org/2000/svg" viewBox="0 0 40 40" focusable="false" aria-hidden="true"><g id="Solid"><rect width="40" height="40" fill="none"/></g><g id="Icon_Red" data-name="Icon Red"><rect x="13" y="35" width="14" height="1" fill="#ffaca6"/><path d="M7,24.2523V33a1,1,0,0,0,1,1h4V21L7.4855,23.3948A1,1,0,0,0,7,24.2523Z" fill="#d9304c"/><path d="M32.5145,23.3948,28,21V34h4a1,1,0,0,0,1-1V24.2523A1,1,0,0,0,32.5145,23.3948Z" fill="#d9304c"/><path d="M20.6747,4.2427a.9924.9924,0,0,0-1.3267.0235C17.61,5.8688,13,10.8278,13,15V34H27V15C27,10.4427,22.4294,5.7543,20.6747,4.2427Z" fill="#ffaca6"/><circle cx="20" cy="16" r="4" fill="#000d6e"/></g></svg>