<svg xmlns="http://www.w3.org/2000/svg" viewBox="0 0 40 40" focusable="false" aria-hidden="true"><path fill="none" d="M0 0h40v40H0z"/><g><path d="m17.803 9.783 1.49-1.49a.997.997 0 0 1 1.414 0l1.49 1.49.851-.425A3.04 3.04 0 0 0 20.5 6.362v-.217a.5.5 0 1 0-1 0v.217a3.04 3.04 0 0 0-2.548 2.996zM23 18.002h-6a1 1 0 1 1 0-2h6a1 1 0 1 1 0 2M24 32h-8a1 1 0 1 1 0-2h8a1 1 0 1 1 0 2" fill="#d9304c"/><path fill="#ffaca6" d="M23.987 28.991h-7.974l2.237-10h3.5z"/><path d="M16 32h8a2 2 0 0 1 2 2v1H14v-1a2 2 0 0 1 2-2" fill="#000d6e"/><path d="m22 11-2-2-2 2-2-1 1.115 5h5.77L24 10z" fill="#ffaca6"/></g></svg>