<svg xmlns="http://www.w3.org/2000/svg" viewBox="0 0 40 40" focusable="false" aria-hidden="true"><path fill="none" d="M0 0h40v40H0z"/><g data-name="Icon Purple"><path d="M27.66 6.882a2 2 0 0 0-.777-.668L26 7.966H26l-5.47 12.22 1.043 2.582 6.276-14.02a1.97 1.97 0 0 0-.19-1.866" fill="#6c2273"/><path d="M20.539 23.53c.094.01.181.04.274.056l-.9-2.243L13.93 7.992l10.944-.023L25.867 6H13.929a1.99 1.99 0 0 0-1.676.904c-.369.567-.421 1.271.44 3.34l6 13.435A5 5 0 0 1 20 23.5a5 5 0 0 1 .539.03" fill="#6c2273"/><path d="M20.813 23.586c-.093-.016-.18-.046-.274-.056A5 5 0 0 0 20 23.5a5 5 0 0 0-1.307.179l-.01.002a5.032 5.032 0 1 0 2.13-.095M21.86 31l-1.864-1-1.865 1 .716-1.93L17.5 28h1.744l.743-2 .75 2H22.5l-1.355 1.091Z" fill="#b8b2ff"/><path fill="#000d6e" d="m20.736 28-.749-2-.743 2H17.5l1.347 1.071L18.131 31l1.865-1 1.864 1-.715-1.909L22.5 28z"/></g></svg>