<svg xmlns="http://www.w3.org/2000/svg" viewBox="0 0 40 40" focusable="false" aria-hidden="true"><g id="Solid"><rect width="40" height="40" fill="none"/></g><g id="Icon_Green" data-name="Icon Green"><path d="M11,16.95a5,5,0,1,0-5-5A5,5,0,0,0,11,16.95ZM8,11.5h2.5V9h1v2.5H14v1H11.5V15h-1V12.5H8Z" fill="#94e3d4"/><polygon points="10.5 15 11.5 15 11.5 12.5 14 12.5 14 11.5 11.5 11.5 11.5 9 10.5 9 10.5 11.5 8 11.5 8 12.5 10.5 12.5 10.5 15" fill="#000d6e"/><path d="M28.0045,7a3.9908,3.9908,0,0,0-3.8586,3h7.7172A3.9906,3.9906,0,0,0,28.0045,7Z" fill="#1b5951"/><path d="M15.1569,32.6829l.0181-.0673,1.8442-6.84.0031-.0125-1.1478-1.7581A1,1,0,0,0,14.2,25.0987L14.7883,26H9.0008a1,1,0,1,0,0,2H8a1,1,0,0,0,0,2h2a1,1,0,0,0,0,2h2.0016a1,1,0,1,0,0,2h3.4025a1.9973,1.9973,0,0,1-.2558-1.2481Z" fill="#000d6e"/><path d="M32.0045,10h-8a1,1,0,0,0-1,1V23.98a1.0177,1.0177,0,0,1-1,1.02H19a1.1046,1.1046,0,0,0-1,.98l-1.86,6.8965A1,1,0,0,0,17.1328,34h9.8717a6,6,0,0,0,6-6V11A1,1,0,0,0,32.0045,10Z" fill="#94e3d4"/></g></svg>