<svg xmlns="http://www.w3.org/2000/svg" viewBox="0 0 40 40" focusable="false" aria-hidden="true"><path fill="none" d="M0 0h40v40H0z"/><g data-name="Icon Red"><path d="M11 16.95a5 5 0 1 0-5-5 5 5 0 0 0 5 5M8 11.5h2.5V9h1v2.5H14v1h-2.5V15h-1v-2.5H8Z" fill="#ffaca6"/><path fill="#000d6e" d="M10.5 15h1v-2.5H14v-1h-2.5V9h-1v2.5H8v1h2.5z"/><path d="M28.005 7a3.99 3.99 0 0 0-3.86 3h7.718a3.99 3.99 0 0 0-3.858-3" fill="#d9304c"/><path d="m15.157 32.683.018-.067 1.844-6.84.003-.013-1.147-1.758a1 1 0 0 0-1.675 1.094l.588.901H9.001a1 1 0 1 0 0 2H8a1 1 0 0 0 0 2h2a1 1 0 0 0 0 2h2.002a1 1 0 1 0 0 2h3.402a2 2 0 0 1-.256-1.248Z" fill="#000d6e"/><path d="M32.005 10h-8a1 1 0 0 0-1 1v12.98a1.02 1.02 0 0 1-1 1.02H19a1.105 1.105 0 0 0-1 .98l-1.86 6.897A1 1 0 0 0 17.133 34h9.872a6 6 0 0 0 6-6V11a1 1 0 0 0-1-1" fill="#ffaca6"/></g></svg>