<?xml version="1.0" encoding="UTF-8"?><svg xmlns="http://www.w3.org/2000/svg" viewBox="0 0 40 40" focusable="false" aria-hidden="true"><g id="uuid-7e8fd6e6-6544-431d-9ae8-941f95c4fb23"><rect width="40" height="40" fill="none"/></g><g id="uuid-53f61e06-1fcc-441d-885d-a2ad80e45de6"><rect x="25" y="26" width="13" height="9" rx="1.04" ry="1.04" fill="#fae052"/><g><path d="M22.04,25.3s0-.09,0-.13c-.5,.55-1.23,.9-2.05,.9s-1.55-.35-2.05-.9c0,.03,0,.07,0,.1,.02,.26,.04,.52,.07,.79,.33,3.18,.66,3.94,.66,3.94h2.63s.33-.76,.66-3.94c.03-.27,.05-.52,.07-.77Z" fill="#000d6e"/><path d="M17.92,24.72c0,.15,.02,.3,.03,.46,.5,.55,1.23,.9,2.05,.9s1.55-.35,2.05-.9c.01-.16,.02-.31,.03-.46,.08-1.25,.07-2.25,.04-2.93-.03-.63-.07-.98-.07-.98v-1.29c1.06-.7,1.86-1.92,2.18-3.39,.04,0,.08,.02,.12,.02,.5,0,.91-.56,.91-1.25,0-.57-.28-1.05-.66-1.2v.21c0,.07-.03,.14-.07,.19-.01,.02-.03,.04-.05,.05-.03,.03-.06,.05-.1,.06-.03,.01-.07,.02-.11,.02-.18,0-.33-.15-.33-.33v-1.07s0-.09,0-.13c-.04-.06-.08-.12-.12-.18-.22-.34-.52-.69-.91-.99-.67,.29-1.55,.43-2.59,.08-.42-.14-.77-.3-1.05-.46-.26-.15-.47-.3-.64-.45-.63,.1-1.15,.28-1.57,.45-.36,.15-.65,.3-.88,.41-.06,.22-.11,.48-.13,.81-.01,.14-.02,.29-.02,.46v1.07c0,.18-.15,.33-.33,.33-.02,0-.04,0-.05-.01-.15-.03-.27-.16-.27-.32v-.21c-.38,.15-.66,.63-.66,1.2,0,.69,.41,1.25,.91,1.25,.06,0,.12,0,.18-.02,.31,1.45,1.09,2.67,2.13,3.38h-.02v1.32s-.03,.35-.06,.98c-.03,.68-.04,1.68,.04,2.93Z" fill="#fae052"/><path d="M17.96,25.28s0-.07,0-.1c-.01-.16-.02-.31-.03-.46-.08-1.25-.07-2.25-.04-2.93,.03-.63,.07-.98,.07-.98l-.1,.05-6.46,3.26c-.78,.4-1.32,1.15-1.43,2.02l-.48,3.87h9.21s-.33-.76-.66-3.94c-.03-.27-.05-.54-.07-.79Z" fill="#fa9319"/><path d="M26.04,25h3.56c-.25-.37-.58-.67-.99-.88l-6.56-3.31s.04,.35,.07,.98c.03,.68,.04,1.68-.04,2.93,0,.15-.02,.3-.03,.46,0,.04,0,.09,0,.13-.02,.25-.04,.5-.07,.77-.33,3.18-.66,3.94-.66,3.94h2.68v-2.98c0-1.13,.92-2.04,2.04-2.04Z" fill="#fa9319"/><path d="M15.67,14.22s.03,.01,.05,.01c.18,0,.33-.15,.33-.33v-1.07c0-.16,0-.31,.02-.46,.03-.33,.08-.6,.13-.81,.23-.11,.52-.26,.88-.41,.42-.18,.94-.35,1.57-.45,.16,.15,.37,.3,.64,.45,.28,.16,.62,.31,1.05,.46,1.04,.35,1.92,.2,2.59-.08,.39,.3,.68,.64,.91,.99,.04,.06,.08,.12,.12,.18,0,.05,0,.09,0,.13v1.07c0,.18,.15,.33,.33,.33,.04,0,.07,0,.11-.02,.04-.01,.07-.03,.1-.06,.02-.02,.03-.03,.05-.05,.04-.05,.07-.12,.07-.19v-1.42c.03-.85,.04-1.76,0-2.2-.1-.94-1.86-3.29-4.6-3.29s-4.6,2.07-4.6,3.95v2.96c0,.16,.12,.29,.27,.32Z" fill="#000d6e"/></g><rect x="30.5" y="24" width="2" height="4" fill="#fa9319"/><path d="M36.5,31h-5c-.28,0-.5-.22-.5-.5s.22-.5,.5-.5h5c.28,0,.5,.22,.5,.5s-.22,.5-.5,.5Z" fill="#fa9319"/><path d="M36.5,33h-5c-.28,0-.5-.22-.5-.5s.22-.5,.5-.5h5c.28,0,.5,.22,.5,.5s-.22,.5-.5,.5Z" fill="#fa9319"/><g><circle cx="28" cy="30.5" r="1" fill="#fa9319"/><path d="M28,31.5c-1.1,0-2,.67-2,1.5h4c0-.83-.9-1.5-2-1.5Z" fill="#fa9319"/></g></g></svg>