<svg version="1.1" xmlns="http://www.w3.org/2000/svg" x="0px" y="0px" viewBox="0 0 40 40" xml:space="preserve" focusable="false" aria-hidden="true" enable-background="new 0 0 40 40"><path fill="none" d="M0 0h40v40H0z"/><g><path fill="#1B5951" d="M29 6h-4v2.306l4 3.688z"/><path d="M19.398 8.331 10 16.997V34h20V16.997l-9.412-8.679a.893.893 0 0 0-1.19.013" fill="#94E3D4"/><path d="M32.339 16.433 21.94 6.844a2.9 2.9 0 0 0-3.884.005L7.661 16.433l.339.368.339.367 10.39-9.58a1.9 1.9 0 0 1 2.538-.005l10.395 9.585.338-.367zM26.057 22.048 24.209 20.2l.304-.304a.5.5 0 0 0-.707-.707l-5.382 5.383a3.48 3.48 0 0 0-4.475.556 3.48 3.48 0 0 0-.924 2.515 3.48 3.48 0 0 0 1.124 2.431 3.47 3.47 0 0 0 2.514.923 3.48 3.48 0 0 0 2.431-1.124c.634-.688.962-1.58.924-2.515a3.46 3.46 0 0 0-.847-2.121l2.526-2.526 1.38 1.381a.5.5 0 0 0 .708 0 .5.5 0 0 0 0-.707l-1.38-1.381 1.098-1.098 1.848 1.848a.5.5 0 0 0 .708 0 .5.5 0 0 0-.002-.706m-7.699 7.147a2.49 2.49 0 0 1-1.736.802 2.44 2.44 0 0 1-1.795-.659 2.48 2.48 0 0 1-.803-1.737 2.48 2.48 0 0 1 .66-1.795 2.49 2.49 0 0 1 1.84-.806 2.48 2.48 0 0 1 1.691.662c.491.453.776 1.069.803 1.737a2.48 2.48 0 0 1-.66 1.796" fill="#000D6E"/></g></svg>