<?xml version="1.0" encoding="iso-8859-1"?><!--Generator: Adobe Illustrator 26.2.1, SVG Export Plug-In . SVG Version: 6.00 Build 0)--><svg version="1.1" xmlns="http://www.w3.org/2000/svg" xmlns:xlink="http://www.w3.org/1999/xlink" x="0px" y="0px" viewBox="0 0 40 40" xml:space="preserve" focusable="false" aria-hidden="true" enable-background="new 0 0 40 40"><g id="Solid"><rect width="40" height="40" fill="none"/></g><g id="Icon_Tangerine"><path d="M25,9.995c0,1.104,0.894,1.998,1.997,1.998h4.96h0.033L25,5l0,0V9.995L25,9.995z" fill="#FA9319"/><path d="M27,12c-1.103,0-1.99-0.929-1.99-2.033L25,10l0.01-5H8v30h24V12H27z" fill="#FAE052"/><path d="M21.5,9h-1V7.5C20.5,7.224,20.276,7,20,7s-0.5,0.224-0.5,0.5V9h-1C18.224,9,18,9.224,18,9.5
		s0.224,0.5,0.5,0.5h1v2.5c0,0.276,0.224,0.5,0.5,0.5s0.5-0.224,0.5-0.5V10h1c0.276,0,0.5-0.224,0.5-0.5S21.776,9,21.5,9z" fill="#000D6E"/><path d="M27.321,18.018H12.636c-0.339,0-0.613,0.224-0.613,0.5s0.274,0.5,0.613,0.5h14.685
		c0.339,0,0.613-0.224,0.613-0.5S27.66,18.018,27.321,18.018z" fill="#000D6E"/><path d="M27.321,21.011H12.636c-0.339,0-0.613,0.224-0.613,0.5s0.274,0.5,0.613,0.5h14.685
		c0.339,0,0.613-0.224,0.613-0.5S27.66,21.011,27.321,21.011z" fill="#000D6E"/><path d="M27.321,24H12.636c-0.339,0-0.613,0.224-0.613,0.5s0.274,0.5,0.613,0.5h14.685
		c0.339,0,0.613-0.224,0.613-0.5S27.66,24,27.321,24z" fill="#000D6E"/><path d="M27.321,26.998H12.636c-0.339,0-0.613,0.224-0.613,0.5s0.274,0.5,0.613,0.5h14.685
		c0.339,0,0.613-0.224,0.613-0.5S27.66,26.998,27.321,26.998z" fill="#000D6E"/></g></svg>