<?xml version="1.0" encoding="UTF-8"?><svg xmlns="http://www.w3.org/2000/svg" viewBox="0 0 40 40" focusable="false" aria-hidden="true"><g id="Solid"><rect width="40" height="40" fill="none"/></g><g id="Icon_Tangerine"><rect x="13.5" y="8.99996704" width="13" height="22.00006592" fill="#fae052"/><path d="M4,9H12.5V31H4c-.55191502,0-1-.44808498-1-1V10c0-.55191502,.44808498-1,1-1Z" fill="#fae052"/><path d="M27.5,9h8.5c.55191502,0,1,.44808498,1,1V30c0,.55191502-.44808498,1-1,1h-8.5V9h0Z" fill="#fae052"/><g><path d="M19.25000204,18.53427502v10.38140623c0,.41405025,.33594617,.75000045,.75000045,.75000045,.4140462,0,.75000045-.3359502,.75000045-.75000045v-10.38140623c-.20955418,.1586501-.46750028,.25640015-.75000045,.25640015s-.54045435-.09775006-.75000045-.25640015Z" fill="#fa9319"/><path d="M20.50000279,16.39662373v-4.23095254c0-.27635017-.22365418-.5000003-.5000003-.5000003-.2763542,0-.5000003,.22365013-.5000003,.5000003v4.23095254c.15339606-.06730004,.32204616-.10595006,.5000003-.10595006,.17794606,0,.34659616,.03865002,.5000003,.10595006Z" fill="#fa9319"/><path d="M18.81334776,17.16727419l-4.00965231,1.86950112c-.25000014,.11670007-.35840021,.41405025-.24169623,.6645504,.08494614,.18165011,.26514625,.28855017,.45364636,.28855017,.07080004,0,.14255008-.01510001,.21090012-.04685003l3.72050214-1.73470104c-.12320007-.19360012-.1970461-.42170025-.1970461-.6676504,0-.13090008,.025846-.25475015,.06334603-.37340022Z" fill="#fa9319"/><path d="M25.19630144,19.03677532l-4.00965231-1.86950112c.03750002,.11865007,.06335411,.24250015,.06335411,.37340022,0,.24595015-.07385412,.47405028-.19705419,.6676504l3.72050214,1.73470104c.06835004,.03175002,.14010008,.04685003,.21095012,.04685003,.18845011,0,.36865021-.10690006,.45360444-.28855017,.11669589-.25050015,.00829583-.54785033-.24170432-.6645504Z" fill="#fa9319"/><circle cx="20.00000249" cy="17.54067442" r=".75000045" fill="#000d6e"/></g><g><path d="M28.75,12.97875978v13.96838379h7V12.97875978h-7Zm3.02923584,8.93981934h-2v-2h2v2Zm0-2.99285889h-2v-2h2v2Zm0-2.89190674h-2v-2h2v2Zm3.00244141,5.88476562h-2v-2h2v2Zm0-2.99285889h-2v-2h2v2Zm0-2.89190674h-2v-2h2v2Z" fill="#fa9319"/><rect x="30.72851195" y="23.45977786" width="3" height="3.5" fill="#000d6e"/></g><path d="M10.22460938,17.48925783l-2.47460938-2.47460938-2.47460938,2.47460938c-.1953125,.1953125-.1953125,.51171875,0,.70703125s.51171875,.1953125,.70703125,0l1.26757812-1.26757812v7.81445312c0,.27636719,.22363281,.5,.5,.5s.5-.22363281,.5-.5v-7.81445312l1.26757812,1.26757812c.09765625,.09765625,.22558594,.14648438,.35351562,.14648438s.25585938-.04882812,.35351562-.14648438c.1953125-.1953125,.1953125-.51171875,0-.70703125Z" fill="#000d6e"/></g></svg>