<svg xmlns="http://www.w3.org/2000/svg" viewBox="0 0 40 40" focusable="false" aria-hidden="true"><g id="Solid"><rect width="40" height="40" fill="none"/></g><g id="Icon_Tangerine" data-name="Icon Tangerine"><polygon points="20.394 20.171 21.508 20.171 20.954 18.422 20.394 20.171" fill="#fae052"/><path d="M27.0673,3.2288a20.9378,20.9378,0,0,0-14.1346,0L5,6.0788V21.8944C5,29.52,14.4909,36.9892,20.002,37,25.51,36.9892,35,29.52,35,21.8944V6.0788Zm-3.9812,6.8951h2.0463a1.5833,1.5833,0,1,1,0,3.1529h-.8766v1.75h-1.17ZM19.9,10.0325a2.5428,2.5428,0,1,1-2.572,2.5461A2.5122,2.5122,0,0,1,19.9,10.0325Zm-6.6349.0914h4.0018v1.0513H15.8512v3.8511h-1.17V11.1752h-1.416ZM10.4608,22.1671a1.8494,1.8494,0,0,1-1.913-1.29l1.1072-.4307a.8932.8932,0,0,0,.9177.7061c.4,0,.61-.1633.61-.4308,0-.8811-2.4245-.3953-2.4245-2.1576,0-.8684.63-1.4821,1.7727-1.4821a1.6808,1.6808,0,0,1,1.76,1.15l-1.1.4307a.696.696,0,0,0-.7149-.5782c-.3645,0-.5467.1622-.5467.3874,0,.8468,2.4387.36,2.4387,2.2216C12.3669,21.5613,11.6525,22.1671,10.4608,22.1671ZM13.22,17.1732h1.3666L15.61,20.4461,16.64,17.1732H18l.3714,4.9024H17.2779l-.2311-3.1529L16.1,21.92h-.9738L14.18,18.9227l-.2311,3.1529H12.8623Zm3.2517,11.9517H13.1008V24.2225H16.437v1.0227H14.271v.8822H16.17V27.15H14.271v.952h2.2007Zm2.8648-1.0228a1.17,1.17,0,0,0,1.2191-.9588l1.1213.4582a2.3216,2.3216,0,0,1-2.32,1.6148,2.5427,2.5427,0,0,1,.0142-5.0853,2.3163,2.3163,0,0,1,2.3057,1.6158l-1.1213.4583a1.1682,1.1682,0,0,0-1.2123-.96,1.4334,1.4334,0,0,0-.0068,2.8569Zm.7554-6.9716-.301.9451H18.6343l1.6051-4.9024h1.43l1.5978,4.9024H22.1177l-.3015-.9451Zm4.4488,8.0858a2.5427,2.5427,0,1,1,2.5579-2.5392A2.5227,2.5227,0,0,1,24.5407,29.2163Zm1.7233-7.1407-1.29-1.9541H24.848v1.9541H23.6851V17.1732h2.0464a1.5309,1.5309,0,0,1,1.7306,1.4751,1.4508,1.4508,0,0,1-1.2684,1.4309l1.374,1.9964Zm5.4149-3.8511H30.2634v3.8511h-1.17V18.2245h-1.416V17.1732h4.0018Z" fill="#fae052"/><path d="M25.6718,11.7043a.5322.5322,0,0,0-.61-.55h-.8063v1.0926h.8063C25.4754,12.2472,25.6718,12.0141,25.6718,11.7043Z" fill="#fae052"/><path d="M24.5407,25.2452a1.43,1.43,0,1,0,1.3667,1.425A1.3312,1.3312,0,0,0,24.5407,25.2452Z" fill="#fae052"/><path d="M25.6963,18.2038H24.848V19.29h.8483c.3923,0,.6234-.2045.6234-.5428C26.32,18.4153,26.0886,18.2038,25.6963,18.2038Z" fill="#fae052"/><path d="M19.9,14.0036a1.3292,1.3292,0,0,0,1.3667-1.4319,1.3747,1.3747,0,1,0-2.7475,0A1.34,1.34,0,0,0,19.9,14.0036Z" fill="#fae052"/><polygon points="14.681 15.026 15.851 15.026 15.851 11.175 17.267 11.175 17.267 10.124 13.265 10.124 13.265 11.175 14.681 11.175 14.681 15.026" fill="#000d6e"/><path d="M19.9,15.1178a2.5428,2.5428,0,1,0-2.572-2.5392A2.5148,2.5148,0,0,0,19.9,15.1178Zm0-3.9711a1.324,1.324,0,0,1,1.3667,1.425,1.3749,1.3749,0,1,1-2.7475,0A1.3312,1.3312,0,0,1,19.9,11.1467Z" fill="#000d6e"/><path d="M24.2558,13.2768h.8766a1.5833,1.5833,0,1,0,0-3.1529H23.0861v4.9024h1.17Zm0-2.1222h.8063a.5322.5322,0,0,1,.61.55c0,.31-.1964.5429-.61.5429h-.8063Z" fill="#000d6e"/><path d="M9.9282,18.4713c0-.2252.1822-.3874.5467-.3874a.696.696,0,0,1,.7149.5782l1.1-.4307a1.6808,1.6808,0,0,0-1.76-1.15c-1.1423,0-1.7727.6137-1.7727,1.4821,0,1.7623,2.4245,1.2765,2.4245,2.1576,0,.2675-.21.4308-.61.4308a.8932.8932,0,0,1-.9177-.7061l-1.1072.4307a1.8494,1.8494,0,0,0,1.913,1.29c1.1917,0,1.9061-.6058,1.9061-1.4742C12.3669,18.8313,9.9282,19.3181,9.9282,18.4713Z" fill="#000d6e"/><polygon points="14.18 18.923 15.127 21.92 16.1 21.92 17.047 18.923 17.278 22.076 18.371 22.076 18 17.173 16.64 17.173 15.61 20.446 14.587 17.173 13.22 17.173 12.862 22.076 13.949 22.076 14.18 18.923" fill="#000d6e"/><path d="M23.2669,22.0756l-1.5978-4.9024h-1.43l-1.6051,4.9024h1.1566l.301-.9451h1.7243l.3015.9451Zm-2.8731-1.9049.5605-1.7485.5536,1.7485Z" fill="#000d6e"/><path d="M27.4621,18.6483a1.5309,1.5309,0,0,0-1.7306-1.4751H23.6851v4.9024H24.848V20.1215h.1261l1.29,1.9541h1.3037l-1.374-1.9964A1.4508,1.4508,0,0,0,27.4621,18.6483Zm-1.7658.6412H24.848V18.2038h.8483c.3923,0,.6234.2115.6234.5429C26.32,19.085,26.0886,19.29,25.6963,19.29Z" fill="#000d6e"/><polygon points="27.677 18.224 29.093 18.224 29.093 22.076 30.263 22.076 30.263 18.224 31.679 18.224 31.679 17.173 27.677 17.173 27.677 18.224" fill="#000d6e"/><polygon points="14.271 27.15 16.17 27.15 16.17 26.127 14.271 26.127 14.271 25.245 16.437 25.245 16.437 24.222 13.101 24.222 13.101 29.125 16.472 29.125 16.472 28.102 14.271 28.102 14.271 27.15" fill="#000d6e"/><path d="M19.3433,25.2452a1.1682,1.1682,0,0,1,1.2123.96l1.1213-.4583a2.3163,2.3163,0,0,0-2.3057-1.6158,2.5427,2.5427,0,0,0-.0142,5.0853,2.3216,2.3216,0,0,0,2.32-1.6148l-1.1213-.4582a1.17,1.17,0,0,1-1.2191.9588,1.4334,1.4334,0,0,1,.0068-2.8569Z" fill="#000d6e"/><path d="M24.5407,24.131a2.5427,2.5427,0,1,0,2.5579,2.5461A2.52,2.52,0,0,0,24.5407,24.131Zm0,3.9711a1.4293,1.4293,0,0,1,0-2.8569,1.43,1.43,0,0,1,0,2.8569Z" fill="#000d6e"/></g></svg>