<svg xmlns="http://www.w3.org/2000/svg" viewBox="0 0 40 40" focusable="false" aria-hidden="true"><path fill="none" d="M0 0h40v40H0z"/><g data-name="Icon Tangerine"><path fill="#fae052" d="M20.394 20.171h1.114l-.554-1.749z"/><path d="M27.067 3.229a20.94 20.94 0 0 0-14.134 0L5 6.079v15.815C5 29.52 14.49 36.99 20.002 37 25.51 36.99 35 29.52 35 21.894V6.08Zm-3.98 6.895h2.045a1.583 1.583 0 1 1 0 3.153h-.876v1.75h-1.17Zm-3.187-.091a2.543 2.543 0 1 1-2.572 2.546 2.51 2.51 0 0 1 2.572-2.546m-6.635.09h4.002v1.052H15.85v3.851h-1.17v-3.85h-1.416Zm-2.804 12.044a1.85 1.85 0 0 1-1.913-1.29l1.107-.43a.89.89 0 0 0 .918.706c.4 0 .61-.164.61-.431 0-.881-2.425-.396-2.425-2.158 0-.868.63-1.482 1.773-1.482a1.68 1.68 0 0 1 1.76 1.15l-1.1.43a.696.696 0 0 0-.715-.577c-.364 0-.547.162-.547.387 0 .847 2.439.36 2.439 2.222-.001.867-.716 1.473-1.907 1.473m2.759-4.994h1.367l1.023 3.273 1.03-3.273H18l.371 4.903h-1.093l-.231-3.153-.947 2.997h-.974l-.946-2.997-.231 3.153h-1.087Zm3.252 11.952H13.1v-4.902h3.336v1.022h-2.166v.882h1.899v1.023h-1.899v.952h2.2Zm2.865-1.023a1.17 1.17 0 0 0 1.219-.959l1.12.459a2.32 2.32 0 0 1-2.32 1.614 2.543 2.543 0 0 1 .015-5.085 2.316 2.316 0 0 1 2.306 1.616l-1.121.458a1.17 1.17 0 0 0-1.213-.96 1.433 1.433 0 0 0-.007 2.857m.755-6.971-.301.945h-1.157l1.605-4.903h1.43l1.598 4.903h-1.15l-.3-.945Zm4.449 8.085a2.543 2.543 0 1 1 2.558-2.539 2.523 2.523 0 0 1-2.558 2.54m1.723-7.14-1.29-1.954h-.126v1.954h-1.163v-4.903h2.047a1.53 1.53 0 0 1 1.73 1.475 1.45 1.45 0 0 1-1.268 1.431l1.374 1.997Zm5.415-3.851h-1.416v3.85h-1.17v-3.85h-1.416v-1.052h4.002Z" fill="#fae052"/><path d="M25.672 11.704a.532.532 0 0 0-.61-.55h-.806v1.093h.806c.413 0 .61-.233.61-.543M24.54 25.245a1.43 1.43 0 1 0 1.367 1.425 1.33 1.33 0 0 0-1.366-1.425M25.696 18.204h-.848v1.086h.848c.393 0 .624-.204.624-.543 0-.332-.231-.543-.624-.543M19.9 14.004a1.33 1.33 0 0 0 1.367-1.432 1.375 1.375 0 1 0-2.748 0 1.34 1.34 0 0 0 1.381 1.432" fill="#fae052"/><path fill="#000d6e" d="M14.681 15.026h1.17v-3.851h1.416v-1.051h-4.002v1.051h1.416zM19.9 15.118a2.543 2.543 0 1 0-2.572-2.54 2.515 2.515 0 0 0 2.572 2.54m0-3.971a1.324 1.324 0 0 1 1.367 1.425 1.375 1.375 0 1 1-2.748 0 1.33 1.33 0 0 1 1.381-1.425M24.256 13.277h.876a1.583 1.583 0 1 0 0-3.153h-2.046v4.902h1.17Zm0-2.122h.806a.532.532 0 0 1 .61.55c0 .31-.196.543-.61.543h-.806ZM9.928 18.471c0-.225.182-.387.547-.387a.696.696 0 0 1 .715.578l1.1-.43a1.68 1.68 0 0 0-1.76-1.15c-1.142 0-1.773.613-1.773 1.481 0 1.763 2.425 1.277 2.425 2.158 0 .268-.21.43-.61.43a.89.89 0 0 1-.918-.705l-1.107.43a1.85 1.85 0 0 0 1.913 1.29c1.191 0 1.906-.605 1.906-1.474 0-1.86-2.438-1.374-2.438-2.22M14.18 18.923l.947 2.997h.973l.947-2.997.231 3.153h1.093L18 17.173h-1.36l-1.03 3.273-1.023-3.273H13.22l-.358 4.903h1.087zM23.267 22.076l-1.598-4.903h-1.43l-1.605 4.903h1.157l.3-.945h1.725l.301.945Zm-2.873-1.905.56-1.749.554 1.749ZM27.462 18.648a1.53 1.53 0 0 0-1.73-1.475h-2.047v4.903h1.163v-1.954h.126l1.29 1.954h1.304l-1.374-1.997a1.45 1.45 0 0 0 1.268-1.43m-1.766.641h-.848v-1.085h.848c.393 0 .624.211.624.543 0 .338-.231.543-.624.543ZM27.677 18.224h1.416v3.852h1.17v-3.852h1.416v-1.051h-4.002zM14.271 27.15h1.899v-1.023h-1.899v-.882h2.166v-1.023h-3.336v4.903h3.371v-1.023h-2.201zM19.343 25.245a1.17 1.17 0 0 1 1.213.96l1.12-.458a2.316 2.316 0 0 0-2.305-1.616 2.543 2.543 0 0 0-.014 5.085 2.32 2.32 0 0 0 2.32-1.614l-1.121-.459a1.17 1.17 0 0 1-1.22.96 1.433 1.433 0 0 1 .007-2.858M24.54 24.131a2.543 2.543 0 1 0 2.559 2.546 2.52 2.52 0 0 0-2.558-2.546m0 3.971a1.43 1.43 0 0 1 0-2.857 1.43 1.43 0 0 1 0 2.857"/></g></svg>