<svg xmlns="http://www.w3.org/2000/svg" viewBox="0 0 40 40" focusable="false" aria-hidden="true"><path fill="none" d="M0 0h40v40H0z"/><g data-name="Icon Tangerine"><path fill="#fa9319" d="m9.826 8.961-2.829 2.828 9.566 5.991 6.486-6.485z"/><path d="m13.34 21.003-5.99-.375-1.767 1.768 4.905 2.346a3.77 3.77 0 0 1 1.024-1.91Z" fill="#000d6e"/><path fill="#fa9319" d="m28.211 33.003 2.828-2.829-2.334-13.223-6.485 6.486z"/><path d="m15.26 29.516 2.344 4.9 1.768-1.767-.374-5.99-1.829 1.829a3.8 3.8 0 0 1-1.909 1.028" fill="#000d6e"/><path d="M12.3 27.7a2.944 2.944 0 0 1-.081-4.162L29.353 6.405a2.944 2.944 0 0 1 4.16.081 2.944 2.944 0 0 1 .082 4.161L16.462 27.781a2.944 2.944 0 0 1-4.161-.082" fill="#fae052"/></g></svg>