<?xml version="1.0" encoding="UTF-8"?><svg xmlns="http://www.w3.org/2000/svg" viewBox="0 0 40 40" focusable="false" aria-hidden="true"><g id="Solid"><rect width="40" height="40" fill="none"/></g><g id="Icon_Purple" data-name="Icon Purple"><path d="m29,33h5v3.800425c0,.662063-.537511,1.199575-1.199575,1.199575h-2.60085c-.662063,0-1.199575-.537511-1.199575-1.199575v-3.800425h0Z" fill="#000d6e"/><path d="m6,33h5v3.80517c0,.659445-.535386,1.19483-1.19483,1.19483h-2.610339c-.659445,0-1.19483-.535386-1.19483-1.19483v-3.80517h0Z" fill="#000d6e"/><path d="m2.739471,10.002369c-.409058.006695-.739471.379566-.739471.841431v3.312399c0,.465985.335724.8438.75.8438h1.5c.414185,0,.75-.377815.75-.8438v-3.312399c0-.466088-.335815-.8438-.75-.8438h-.010529l-1.5.002369Z" fill="#6c2273"/><path d="m35.739471,10.002369c-.409058.006695-.739471.379566-.739471.841431v3.312399c0,.465985.335724.8438.75.8438h1.5c.414185,0,.75-.377815.75-.8438v-3.312399c0-.466088-.335815-.8438-.75-.8438h-.010529l-1.5.002369Z" fill="#6c2273"/><path d="m31.636414,3H8.041199c-1.129761,0-2.044678.917236-2.041199,2.046509l.00293.953491h-.00293v26h28V5.362427c0-1.304749-1.058228-2.362427-2.363586-2.362427Zm-20.634277,1.985413c0-.552307.447754-1,1-1h15.995728c.552246,0,1,.447693,1,1v1.029175c0,.552246-.447754,1-1,1h-15.995728c-.552246,0-1-.447754-1-1v-1.029175Zm2.997864,23.014587c0,.552246-.522339,1-1.166687,1h-4.666626c-.644348,0-1.166687-.447754-1.166687-1v-1.81958c0-.61792.647339-1.087952,1.358459-.986389l4.666687.666687c.562561.080383.974854.497559.974854.986389v1.152893Zm19,0c0,.552246-.522339,1-1.166687,1h-4.666626c-.644348,0-1.166687-.447754-1.166687-1v-1.152893c0-.488831.412292-.906006.974854-.986389l4.666687-.666687c.711121-.101562,1.358459.368469,1.358459.986389v1.81958Z" fill="#6c2273"/><path d="m8,8h24c.551915,0,1,.448085,1,1v7c0,2.20766-1.79234,4-4,4H11c-2.20766,0-4-1.79234-4-4v-7c0-.551915.448085-1,1-1Z" fill="#b8b2ff"/></g></svg>