<svg xmlns="http://www.w3.org/2000/svg" viewBox="0 0 40 40" focusable="false" aria-hidden="true"><path fill="none" d="M0 0h40v40H0z"/><g data-name="Icon Green"><path fill="none" d="M19.5 10h1v2h-1z"/><path d="m29.67 35.025-.352-2.118a2.04 2.04 0 0 0-2.24-1.693l-3.892.61a29 29 0 0 1-6.373 0l-3.892-.61a2.04 2.04 0 0 0-2.24 1.693l-.352 2.118A1.696 1.696 0 0 0 12.002 37h15.996a1.696 1.696 0 0 0 1.673-1.975" fill="#94e3d4"/><path fill="#000d6e" d="M18.5 10h1v2h-1zM20.5 10h1v2h-1z"/><path d="M20.5 10h1.14a2 2 0 0 0 1.972-2.329l-.473-2.835A1 1 0 0 0 22.153 4h-4.306a1 1 0 0 0-.986.836l-.473 2.835A2 2 0 0 0 18.361 10z" fill="#94e3d4"/><path d="m14.687 30.49 2.127.334a29 29 0 0 0 3.175.176h.022a29 29 0 0 0 3.176-.176l2.126-.334A2 2 0 0 0 27 28.517l-.886-14.638A2 2 0 0 0 24.118 12h-8.236a2 2 0 0 0-1.996 1.879L13 28.517a2 2 0 0 0 1.687 1.973M16.5 16h7a.5.5 0 0 1 0 1h-7a.5.5 0 0 1 0-1m0 4h7a.5.5 0 0 1 0 1h-7a.5.5 0 0 1 0-1m0 4h7a.5.5 0 0 1 0 1h-7a.5.5 0 0 1 0-1" fill="#1b5951"/><path d="M16.5 17h7a.5.5 0 0 0 0-1h-7a.5.5 0 0 0 0 1M16.5 21h7a.5.5 0 0 0 0-1h-7a.5.5 0 0 0 0 1M16.5 25h7a.5.5 0 0 0 0-1h-7a.5.5 0 0 0 0 1" fill="#000d6e"/></g></svg>