<svg xmlns="http://www.w3.org/2000/svg" viewBox="0 0 40 40" focusable="false" aria-hidden="true"><g id="Solid"><rect width="40" height="40" fill="none"/></g><g id="Icon_Tangerine" data-name="Icon Tangerine"><rect x="19.5" y="10" width="1" height="2" fill="none"/><path d="M29.6709,35.0252l-.353-2.1179a2.042,2.042,0,0,0-2.24-1.6938l-3.8916.6111a28.8575,28.8575,0,0,1-6.3731,0l-3.8917-.6111a2.042,2.042,0,0,0-2.24,1.6938l-.3529,2.1179A1.6959,1.6959,0,0,0,12.002,37H27.998A1.696,1.696,0,0,0,29.6709,35.0252Z" fill="#fae052"/><rect x="18.5" y="10" width="1" height="2" fill="#000d6e"/><rect x="20.5" y="10" width="1" height="2" fill="#000d6e"/><path d="M20.5,10h1.1391a2,2,0,0,0,1.9728-2.3288l-.4726-2.8356A1,1,0,0,0,22.1529,4H17.8472a1,1,0,0,0-.9865.8356l-.4726,2.8356A2,2,0,0,0,18.361,10H20.5Z" fill="#fae052"/><path d="M14.6868,30.49l2.1267.334A28.867,28.867,0,0,0,19.989,31h.0221a28.867,28.867,0,0,0,3.1755-.1761l2.1266-.334A1.9965,1.9965,0,0,0,27,28.5175l-.8862-14.6387A2,2,0,0,0,24.1177,12H15.8823a2,2,0,0,0-1.996,1.8788L13,28.5175A1.9965,1.9965,0,0,0,14.6868,30.49ZM16.5,16h7a.5.5,0,0,1,0,1h-7a.5.5,0,0,1,0-1Zm0,4h7a.5.5,0,0,1,0,1h-7a.5.5,0,0,1,0-1Zm0,4h7a.5.5,0,0,1,0,1h-7a.5.5,0,0,1,0-1Z" fill="#fa9319"/><path d="M16.5,17h7a.5.5,0,0,0,0-1h-7a.5.5,0,0,0,0,1Z" fill="#000d6e"/><path d="M16.5,21h7a.5.5,0,0,0,0-1h-7a.5.5,0,0,0,0,1Z" fill="#000d6e"/><path d="M16.5,25h7a.5.5,0,0,0,0-1h-7a.5.5,0,0,0,0,1Z" fill="#000d6e"/></g></svg>