<svg version="1.1" xmlns="http://www.w3.org/2000/svg" x="0px" y="0px" viewBox="0 0 40 40" xml:space="preserve" focusable="false" aria-hidden="true" enable-background="new 0 0 40 40"><path fill="none" d="M0 0h40v40H0z"/><g><path d="m24.385 16.006.117-1.019h-9.897c-.885 0-1.605.72-1.605 1.605V21h3.136" fill="none"/><path d="M30.91 7h-5.492l-.687 5.996c-.016-.001-.03-.009-.046-.009h-10.08A3.61 3.61 0 0 0 11 16.592V21a2 2 0 1 0 0 4v5.092a1.982 1.982 0 0 1 2 .249V25h2.025a9.4 9.4 0 0 1 1.111-4H13v-4.408c0-.886.72-1.605 1.605-1.605h9.897l-.117 1.019c.039 0 .076-.006.115-.006.643 0 1.271.066 1.878.188L27.202 9h3.708a1 1 0 1 0 0-2M10.031 31H6v1a1 1 0 0 0 1 1h3.111a2 2 0 0 1-.317-1.073c0-.337.091-.649.237-.927" fill="#1B5951"/><path d="M11 30.092a2 2 0 0 0-.969.908c-.147.278-.238.59-.238.927 0 .396.119.763.317 1.073.355.556.974.927 1.683.927a2 2 0 0 0 2-2 1.99 1.99 0 0 0-.794-1.586A1.98 1.98 0 0 0 11 30.092m1.794 1.835a1 1 0 1 1-2 0 1 1 0 0 1 2 0" fill="#94E3D4"/><circle cx="11.794" cy="31.927" r="1" fill="#000D6E"/><circle cx="24.5" cy="25.5" r="8.5" fill="#B8B2FF"/><path d="M24.5 34c-4.687 0-8.5-3.813-8.5-8.5s3.813-8.5 8.5-8.5 8.5 3.813 8.5 8.5-3.813 8.5-8.5 8.5" fill="#94E3D4"/><path d="M24.5 19.5a6 6 0 1 1 0 12 6 6 0 0 1 0-12m0-1c-3.86 0-7 3.14-7 7s3.14 7 7 7 7-3.14 7-7-3.14-7-7-7" fill="#000D6E"/></g></svg>