<?xml version="1.0" encoding="iso-8859-1"?><!--Generator: Adobe Illustrator 26.2.1, SVG Export Plug-In . SVG Version: 6.00 Build 0)--><svg version="1.1" xmlns="http://www.w3.org/2000/svg" xmlns:xlink="http://www.w3.org/1999/xlink" x="0px" y="0px" viewBox="0 0 40 40" xml:space="preserve" focusable="false" aria-hidden="true" enable-background="new 0 0 40 40"><g id="Solid"><rect width="40" height="40" fill="none"/></g><g id="Icon_Green"><g><path d="M24.385,16.006l0.117-1.019h-9.897c-0.885,0-1.605,0.72-1.605,1.605V21h3.136" fill="none"/><g><g><path d="M30.91,7h-5.492l-0.687,5.996c-0.016-0.001-0.03-0.009-0.046-0.009h-10.08
					c-1.988,0-3.605,1.617-3.605,3.605V21c-1.105,0-2,0.895-2,2c0,1.105,0.895,2,2,2v5.092c0.244-0.106,0.511-0.165,0.794-0.165
					c0.455,0,0.87,0.158,1.206,0.414V25h2.025c0.076-1.44,0.462-2.799,1.111-4H13v-4.408c0-0.886,0.72-1.605,1.605-1.605h9.897
					l-0.117,1.019c0.039,0,0.076-0.006,0.115-0.006c0.643,0,1.271,0.066,1.878,0.188L27.202,9h3.708c0.552,0,1-0.447,1-1
					S31.462,7,30.91,7z" fill="#1B5951"/><path d="M10.031,31H6v1c0,0.552,0.448,1,1,1h3.111c-0.198-0.311-0.317-0.677-0.317-1.073
					C9.794,31.59,9.885,31.278,10.031,31z" fill="#1B5951"/></g><path d="M11,30.092c-0.419,0.182-0.757,0.506-0.969,0.908c-0.147,0.278-0.238,0.59-0.238,0.927
				c0,0.396,0.119,0.763,0.317,1.073c0.355,0.556,0.974,0.927,1.683,0.927c1.105,0,2-0.895,2-2c0-0.649-0.314-1.22-0.794-1.586
				c-0.336-0.256-0.751-0.414-1.206-0.414C11.511,29.927,11.244,29.987,11,30.092z M12.794,31.927c0,0.552-0.448,1-1,1
				c-0.552,0-1-0.448-1-1c0-0.552,0.448-1,1-1C12.346,30.927,12.794,31.375,12.794,31.927z" fill="#94E3D4"/><circle cx="11.794" cy="31.927" r="1" fill="#000D6E"/></g><g><circle cx="24.5" cy="25.5" r="8.5" fill="#B8B2FF"/><path d="M24.5,34c-4.687,0-8.5-3.813-8.5-8.5s3.813-8.5,8.5-8.5s8.5,3.813,8.5,8.5S29.187,34,24.5,34z" fill="#94E3D4"/></g><path d="M24.5,19.5c3.314,0,6,2.686,6,6s-2.686,6-6,6s-6-2.686-6-6S21.186,19.5,24.5,19.5 M24.5,18.5
			c-3.86,0-7,3.14-7,7s3.14,7,7,7s7-3.14,7-7S28.36,18.5,24.5,18.5L24.5,18.5z" fill="#000D6E"/></g></g></svg>