<svg xmlns="http://www.w3.org/2000/svg" viewBox="0 0 40 40" focusable="false" aria-hidden="true"><path fill="none" d="M0 0h40v40H0z"/><g><path d="M18.5 16v20.75a1.5 1.5 0 0 0 3 0V16a2.46 2.46 0 0 1-3 0M21 11.71V3.25a1 1 0 0 0-2 0v8.46a2.5 2.5 0 0 1 2 0M17.63 13.25 9.61 17a1 1 0 0 0 .39 1.9.9.9 0 0 0 .42-.1l7.44-3.46A2.56 2.56 0 0 1 17.5 14a2.4 2.4 0 0 1 .13-.75M30.39 17l-8-3.74a2.4 2.4 0 0 1 .13.75 2.56 2.56 0 0 1-.39 1.34l7.44 3.46a.9.9 0 0 0 .42.1 1 1 0 0 0 .4-1.91" fill="#1b5951"/><circle cx="20" cy="14" r="1.5" fill="#000d6e"/></g></svg>