<?xml version="1.0" encoding="iso-8859-1"?><!--Generator: Adobe Illustrator 26.3.1, SVG Export Plug-In . SVG Version: 6.00 Build 0)--><svg version="1.1" xmlns="http://www.w3.org/2000/svg" xmlns:xlink="http://www.w3.org/1999/xlink" x="0px" y="0px" viewBox="0 0 40 40" xml:space="preserve" focusable="false" aria-hidden="true" enable-background="new 0 0 40 40"><g id="Solid"><rect width="40" height="40" fill="none"/></g><g id="Icon_Green"><path d="M29.37,28.592c0.008-0.024,0.023-0.046,0.028-0.071c0.007-0.034,0.001-0.07,0-0.105
		c-0.001-0.029,0.005-0.058-0.001-0.087c-0.006-0.029-0.024-0.055-0.035-0.084c-0.013-0.033-0.02-0.067-0.041-0.097
		c-0.001-0.001-0.002-0.001-0.002-0.002c0-0.001,0-0.001-0.001-0.002l-1.373-1.982c-0.145,0.111-0.283,0.228-0.434,0.332
		c-0.125,0.087-0.255,0.163-0.384,0.244l1.078,1.557c-0.269,0.18-0.537,0.353-0.832,0.507c-6.375,3.312-14.257,0.823-17.571-5.551
		c-2.902-5.581-1.323-12.48,3.635-16.281l1.193,1.723c0.127-0.096,0.248-0.199,0.38-0.291c0.144-0.1,0.293-0.189,0.441-0.281
		l-1.493-2.155c-0.001-0.001-0.001-0.001-0.002-0.002c0,0,0-0.001,0-0.001c-0.032-0.046-0.074-0.079-0.117-0.111
		c-0.009-0.007-0.015-0.017-0.025-0.023c-0.147-0.094-0.332-0.098-0.492-0.015c-0.02,0.01-0.042,0.013-0.06,0.026
		c-0.001,0.001-0.001,0.002-0.002,0.002c-0.001,0-0.001,0-0.002,0.001C7.573,9.857,5.705,17.54,8.915,23.713
		c2.433,4.681,7.153,7.408,12.086,7.544V37h1v-5.766c1.977-0.087,3.966-0.572,5.834-1.544c0.45-0.233,0.821-0.486,1.214-0.753
		l0.138-0.094c0.001-0.001,0.001-0.002,0.002-0.002c0.001,0,0.002,0,0.002-0.001c0.032-0.022,0.052-0.053,0.077-0.08
		c0.019-0.021,0.044-0.038,0.059-0.061C29.348,28.666,29.357,28.628,29.37,28.592z" fill="#1B5951"/><path d="M26.001,37c0-2.209-2.015-4-4.5-4s-4.5,1.791-4.5,4H26.001z" fill="#000D6E"/><g><path d="M28.551,18.224c-0.304-1.411-0.87-2.783-1.686-4.063l2.867-1.993
			c-0.083-0.134-0.158-0.27-0.248-0.401c-0.102-0.147-0.215-0.28-0.323-0.42l-2.867,1.993c-0.918-1.214-2.012-2.226-3.233-3.003
			c0.433-0.788,0.782-1.613,1.036-2.468c-0.321-0.095-0.646-0.175-0.974-0.237c-0.23,0.764-0.543,1.503-0.929,2.209
			c-1.605-0.849-3.369-1.333-5.168-1.435c-0.495,0.233-0.981,0.498-1.447,0.819c-0.481,0.332-0.915,0.706-1.319,1.102
			c-0.531,1.722-0.692,3.546-0.455,5.346c-0.796,0.116-1.597,0.152-2.393,0.102c-0.056,0.33-0.094,0.662-0.117,0.996
			c0.889,0.06,1.783,0.02,2.672-0.112c0.304,1.415,0.871,2.793,1.689,4.076l-2.867,1.993c0.083,0.133,0.158,0.27,0.248,0.401
			c0.102,0.147,0.215,0.281,0.323,0.42l2.867-1.993c0.915,1.21,2.005,2.219,3.221,2.995c-0.433,0.789-0.783,1.616-1.036,2.472
			c0.321,0.095,0.645,0.176,0.974,0.238c0.23-0.765,0.543-1.506,0.929-2.213c1.608,0.853,3.377,1.339,5.18,1.441
			c0.495-0.233,0.982-0.498,1.447-0.819c0.481-0.333,0.916-0.706,1.319-1.102c0.533-1.726,0.693-3.555,0.453-5.359
			c0.797-0.116,1.599-0.151,2.396-0.1c0.056-0.33,0.093-0.662,0.116-0.996C30.337,18.054,29.441,18.093,28.551,18.224z
			 M27.565,18.406c-1.35,0.311-2.663,0.858-3.889,1.64l-1.719-2.472l4.086-2.841C26.776,15.891,27.287,17.131,27.565,18.406z
			 M22.547,11.197c1.103,0.706,2.092,1.62,2.925,2.714l-4.086,2.841l-1.728-2.485C20.817,13.391,21.786,12.352,22.547,11.197z
			 M21.677,10.697c-0.688,1.031-1.555,1.961-2.59,2.749l-2.828-4.068C18.138,9.369,20.002,9.821,21.677,10.697z M15.437,9.95
			l2.828,4.068c-1.099,0.695-2.272,1.185-3.478,1.471C14.549,13.613,14.774,11.708,15.437,9.95z M14.953,16.478
			c1.348-0.312,2.659-0.858,3.884-1.639l1.728,2.485l-4.086,2.841C15.742,19.003,15.23,17.757,14.953,16.478z M19.963,23.692
			c-1.098-0.705-2.083-1.615-2.913-2.706l4.086-2.841l1.719,2.472C21.694,21.495,20.724,22.535,19.963,23.692z M20.832,24.193
			c0.689-1.033,1.557-1.965,2.594-2.754l2.837,4.081C24.378,25.529,22.51,25.074,20.832,24.193z M27.084,24.948l-2.837-4.081
			c1.101-0.697,2.276-1.187,3.485-1.472C27.973,21.276,27.749,23.185,27.084,24.948z" fill="#1B5951"/></g><g><path d="M26.294,13.34l2.867-1.993l0.008-0.006c-0.025-0.033-0.057-0.058-0.082-0.091
			c-0.306-0.387-0.631-0.751-0.98-1.081c-0.023-0.022-0.048-0.04-0.071-0.061c-0.326-0.302-0.672-0.573-1.029-0.825
			c-0.078-0.055-0.155-0.113-0.235-0.166c-0.364-0.241-0.742-0.456-1.13-0.646c-0.107-0.052-0.217-0.097-0.326-0.145
			c-0.331-0.147-0.668-0.276-1.012-0.386c-0.07-0.022-0.135-0.057-0.205-0.078c-0.001,0.003-0.002,0.005-0.003,0.008
			c-0.253,0.854-0.603,1.68-1.036,2.468C24.282,11.114,25.376,12.126,26.294,13.34z" fill="#94E3D4"/><path d="M21.677,10.697c-1.675-0.876-3.539-1.328-5.418-1.319l2.828,4.068
			C20.121,12.658,20.989,11.729,21.677,10.697z" fill="#94E3D4"/><path d="M22.193,9.841c0.386-0.706,0.699-1.445,0.929-2.209c0.001-0.003,0.002-0.005,0.003-0.008
			c-0.329-0.062-0.661-0.102-0.995-0.131c-0.022-0.002-0.045-0.003-0.067-0.005c-0.279-0.022-0.558-0.033-0.838-0.031
			c-0.048,0-0.096,0-0.144,0.001c-0.269,0.005-0.537,0.02-0.805,0.047c-0.041,0.004-0.083,0.006-0.124,0.011
			c-0.306,0.034-0.61,0.08-0.914,0.143c-0.031,0.006-0.062,0.016-0.093,0.023c-0.254,0.055-0.506,0.121-0.757,0.196
			c-0.111,0.033-0.22,0.072-0.33,0.11c-0.172,0.059-0.344,0.121-0.514,0.189c-0.121,0.049-0.241,0.099-0.361,0.153
			c-0.059,0.026-0.118,0.047-0.177,0.075c0.006,0,0.013,0.002,0.019,0.002C18.824,8.509,20.589,8.992,22.193,9.841z" fill="#94E3D4"/><path d="M18.265,14.017L15.437,9.95c-0.663,1.759-0.888,3.663-0.65,5.538
			C15.993,15.202,17.167,14.713,18.265,14.017z" fill="#94E3D4"/><path d="M14.953,16.478c0.278,1.279,0.79,2.525,1.525,3.687l4.086-2.841l-1.728-2.485
			C17.612,15.62,16.3,16.166,14.953,16.478z" fill="#94E3D4"/><path d="M25.472,13.911c-0.833-1.094-1.823-2.008-2.925-2.714c-0.761,1.155-1.73,2.194-2.889,3.07
			l1.728,2.485L25.472,13.911z" fill="#94E3D4"/><path d="M13.805,15.674c-0.237-1.8-0.076-3.624,0.455-5.346c0.002-0.005,0.003-0.011,0.004-0.016
			c-0.037,0.037-0.07,0.077-0.107,0.114c-0.092,0.093-0.181,0.189-0.269,0.285c-0.122,0.133-0.239,0.268-0.353,0.407
			c-0.076,0.093-0.153,0.185-0.225,0.28c-0.137,0.18-0.266,0.364-0.389,0.551c-0.037,0.056-0.078,0.111-0.114,0.168
			c-0.165,0.26-0.316,0.528-0.455,0.8c-0.009,0.017-0.016,0.035-0.025,0.053c-0.13,0.258-0.246,0.521-0.352,0.789
			c-0.017,0.042-0.032,0.085-0.048,0.127c-0.098,0.256-0.185,0.516-0.262,0.779c-0.009,0.031-0.019,0.062-0.027,0.094
			c-0.094,0.336-0.177,0.675-0.236,1.019c0.004,0,0.007,0,0.011,0C12.208,15.826,13.009,15.79,13.805,15.674z" fill="#94E3D4"/><path d="M19.963,23.692c0.762-1.157,1.732-2.197,2.892-3.075l-1.719-2.472l-4.086,2.841
			C17.88,22.077,18.865,22.987,19.963,23.692z" fill="#94E3D4"/><path d="M24.247,20.868l2.837,4.081c0.665-1.763,0.889-3.673,0.648-5.553
			C26.524,19.681,25.348,20.171,24.247,20.868z" fill="#94E3D4"/><path d="M28.715,19.21c0.24,1.805,0.08,3.633-0.453,5.359c-0.002,0.006-0.003,0.012-0.004,0.017
			c0.04-0.039,0.075-0.081,0.113-0.12c0.087-0.088,0.171-0.179,0.255-0.27c0.128-0.139,0.25-0.28,0.369-0.425
			c0.072-0.088,0.144-0.175,0.213-0.265c0.142-0.185,0.275-0.376,0.402-0.569c0.034-0.051,0.071-0.101,0.104-0.153
			c0.166-0.263,0.319-0.532,0.459-0.808c0.005-0.009,0.008-0.019,0.013-0.028c0.134-0.266,0.254-0.537,0.363-0.812
			c0.016-0.04,0.03-0.08,0.045-0.119c0.099-0.257,0.186-0.518,0.263-0.782c0.009-0.032,0.019-0.063,0.028-0.095
			c0.095-0.339,0.179-0.682,0.237-1.029c-0.004,0-0.008,0-0.011,0C30.314,19.059,29.512,19.094,28.715,19.21z" fill="#94E3D4"/><path d="M13.967,16.66c-0.889,0.131-1.784,0.171-2.672,0.112c-0.004,0-0.007,0-0.011,0
			c-0.039,0.565-0.024,1.134,0.035,1.701c0.006,0.055,0.014,0.109,0.021,0.164c0.029,0.238,0.066,0.476,0.112,0.712
			c0.017,0.085,0.034,0.17,0.052,0.255c0.047,0.212,0.102,0.422,0.164,0.631c0.026,0.089,0.048,0.178,0.077,0.267
			c0.088,0.273,0.186,0.545,0.299,0.813c0.042,0.1,0.093,0.197,0.139,0.296c0.079,0.172,0.16,0.343,0.25,0.512
			c0.067,0.127,0.141,0.251,0.214,0.376c0.046,0.079,0.087,0.159,0.135,0.237l0.008-0.006l2.867-1.993
			C14.838,19.453,14.271,18.075,13.967,16.66z" fill="#94E3D4"/><path d="M20.316,25.05c-0.387,0.707-0.7,1.448-0.929,2.213c-0.001,0.003-0.002,0.006-0.003,0.008
			c0.331,0.063,0.666,0.103,1.002,0.133c0.027,0.002,0.053,0.004,0.08,0.006c0.276,0.022,0.553,0.032,0.83,0.031
			c0.048,0,0.095,0,0.143-0.001c0.272-0.005,0.544-0.021,0.816-0.048c0.037-0.004,0.074-0.005,0.111-0.009
			c0.308-0.034,0.615-0.081,0.92-0.144c0.024-0.005,0.048-0.013,0.073-0.018c0.262-0.056,0.522-0.124,0.78-0.202
			c0.104-0.031,0.207-0.068,0.311-0.103c0.18-0.061,0.359-0.126,0.537-0.198c0.115-0.046,0.229-0.094,0.343-0.145
			c0.062-0.028,0.124-0.05,0.186-0.079c-0.007,0-0.013-0.002-0.02-0.002C23.693,26.389,21.924,25.903,20.316,25.05z" fill="#94E3D4"/><path d="M31.202,16.421c-0.005-0.052-0.013-0.104-0.02-0.156c-0.029-0.241-0.066-0.48-0.113-0.72
			c-0.016-0.084-0.033-0.168-0.052-0.252c-0.047-0.213-0.103-0.424-0.165-0.635c-0.026-0.087-0.048-0.175-0.076-0.262
			c-0.089-0.274-0.187-0.547-0.3-0.815c-0.04-0.095-0.089-0.187-0.132-0.281c-0.081-0.177-0.164-0.354-0.257-0.527
			c-0.066-0.124-0.139-0.246-0.21-0.369c-0.047-0.08-0.088-0.162-0.137-0.241l-0.008,0.006l-2.867,1.993
			c0.816,1.279,1.382,2.652,1.686,4.063c0.89-0.131,1.786-0.171,2.676-0.11c0.004,0,0.007,0,0.011,0
			C31.276,17.552,31.261,16.985,31.202,16.421z" fill="#94E3D4"/><path d="M27.565,18.406c-0.278-1.275-0.789-2.515-1.522-3.673l-4.086,2.841l1.719,2.472
			C24.902,19.264,26.216,18.717,27.565,18.406z" fill="#94E3D4"/><path d="M16.228,21.558l-2.867,1.993l-0.008,0.006c0.025,0.033,0.056,0.058,0.081,0.09
			c0.306,0.387,0.63,0.751,0.979,1.081c0.021,0.02,0.045,0.038,0.066,0.058c0.326,0.303,0.673,0.575,1.031,0.828
			c0.078,0.055,0.154,0.112,0.233,0.165c0.364,0.242,0.742,0.458,1.131,0.648c0.105,0.051,0.212,0.095,0.319,0.143
			c0.33,0.147,0.667,0.276,1.01,0.386c0.07,0.022,0.136,0.058,0.206,0.079c0.001-0.003,0.002-0.006,0.003-0.009
			c0.253-0.856,0.603-1.683,1.036-2.472C18.233,23.776,17.143,22.768,16.228,21.558z" fill="#94E3D4"/><path d="M20.832,24.193c1.678,0.88,3.547,1.336,5.431,1.326l-2.837-4.081
			C22.389,22.228,21.52,23.16,20.832,24.193z" fill="#94E3D4"/></g></g></svg>