<svg xmlns="http://www.w3.org/2000/svg" viewBox="0 0 40 40" focusable="false" aria-hidden="true"><path fill="none" d="M0 0h40v40H0z"/><g><path d="M10.225 17.454c0-.608-.424-1.106-1.032-1.106-.627 0-1.051.498-1.051 1.106 0 .627.442 1.106 1.05 1.106s1.033-.48 1.033-1.106M16.807 23.483c-.608 0-1.032.48-1.032 1.106s.442 1.107 1.032 1.107c.609 0 1.033-.48 1.033-1.107s-.406-1.106-1.033-1.106" fill="#ffaca6"/><path d="M16.807 21.584c-1.714 0-3.005 1.346-3.005 3.005s1.29 3.006 3.005 3.006c1.733 0 3.006-1.346 3.006-3.006s-1.273-3.005-3.006-3.005m0 4.112c-.59 0-1.032-.48-1.032-1.107s.424-1.106 1.032-1.106c.627 0 1.033.48 1.033 1.106s-.424 1.107-1.033 1.107M15.461 14.615 8.215 27.429l2.323-.019 7.302-12.814zM12.18 17.454c0-1.66-1.254-3.005-2.987-3.005s-3.006 1.346-3.006 3.005c0 1.678 1.273 3.005 3.006 3.005s2.987-1.327 2.987-3.005m-4.038 0c0-.608.424-1.106 1.05-1.106.609 0 1.033.498 1.033 1.106 0 .627-.424 1.106-1.032 1.106s-1.051-.48-1.051-1.106" fill="#d9304c"/><path d="M12.18 17.454c0-1.66-1.254-3.005-2.987-3.005s-3.006 1.346-3.006 3.005c0 1.678 1.273 3.005 3.006 3.005s2.987-1.327 2.987-3.005M15.461 14.615 8.215 27.429l2.323-.019 7.302-12.814zM16.807 21.584c-1.714 0-3.005 1.346-3.005 3.005s1.29 3.006 3.005 3.006c1.733 0 3.006-1.346 3.006-3.006s-1.273-3.005-3.006-3.005" fill="none"/><path d="M33.5 10h-27A2.5 2.5 0 0 0 4 12.5v15A2.5 2.5 0 0 0 6.5 30h27a2.5 2.5 0 0 0 2.5-2.5v-15a2.5 2.5 0 0 0-2.5-2.5M6.187 17.454c0-1.66 1.273-3.005 3.006-3.005s2.987 1.346 2.987 3.005c0 1.678-1.254 3.005-2.987 3.005s-3.006-1.327-3.006-3.005m2.028 9.975 7.246-12.814 2.379-.019-7.302 12.814zm8.592.166c-1.714 0-3.005-1.346-3.005-3.006s1.29-3.005 3.005-3.005c1.733 0 3.006 1.346 3.006 3.005s-1.273 3.006-3.006 3.006m16.105-10.858-.867.867-2.543-2.542-1.462 1.462 1.462 1.463.907-.907 1.08 1.08-1.774 1.774a.3.3 0 0 1-.425 0l-3.197-3.197a.3.3 0 0 1 0-.425l3.197-3.198a.3.3 0 0 1 .425 0l3.197 3.198a.3.3 0 0 1 0 .425" fill="#ffaca6"/><path d="M29.715 13.114a.3.3 0 0 0-.425 0l-3.197 3.198a.3.3 0 0 0 0 .425l3.197 3.197a.3.3 0 0 0 .425 0l1.774-1.774-1.08-1.08-.907.907-1.462-1.463 1.462-1.462 2.543 2.542.867-.867a.3.3 0 0 0 0-.425z" fill="#000d6e"/></g></svg>