<svg width="311" height="51" viewBox="0 0 311 51" fill="none" xmlns="http://www.w3.org/2000/svg">
<mask id="mask0_3_26" style="mask-type:luminance" maskUnits="userSpaceOnUse" x="0" y="0" width="311" height="51">
<path d="M310.935 0.5H0.0652161V50.5H310.935V0.5Z" fill="white"/>
</mask>
<g mask="url(#mask0_3_26)">
<mask id="mask1_3_26" style="mask-type:luminance" maskUnits="userSpaceOnUse" x="168" y="12" width="143" height="30">
<path d="M310.935 12.8188H168.181V41.8043H310.935V12.8188Z" fill="white"/>
</mask>
<g mask="url(#mask1_3_26)">
<path d="M182.46 13.3882C182.622 13.3882 182.781 13.4196 182.93 13.481C183.079 13.5423 183.215 13.6322 183.329 13.7456L196.383 26.7329C196.497 26.8464 196.587 26.9812 196.649 27.1294C196.711 27.2777 196.743 27.4367 196.743 27.5972C196.743 27.7576 196.711 27.9168 196.649 28.0649C196.587 28.2131 196.496 28.3481 196.381 28.4614L192.842 31.9829L182.46 21.6548L176.489 27.5962L182.46 33.5376L186.164 29.853L190.573 34.2397L183.332 41.4468C183.218 41.5602 183.082 41.65 182.933 41.7114C182.784 41.7728 182.625 41.8042 182.463 41.8042C182.302 41.8042 182.142 41.7727 181.994 41.7114C181.845 41.6501 181.709 41.5601 181.595 41.4468L168.541 28.4595C168.311 28.2304 168.181 27.9199 168.181 27.5962C168.181 27.2725 168.311 26.9619 168.541 26.7329L181.592 13.7456C181.706 13.6322 181.842 13.5423 181.991 13.481C182.14 13.4196 182.299 13.3882 182.46 13.3882ZM207.655 22.5132C208.838 21.5222 210.332 20.9956 212.105 20.9956C216.838 20.9953 220.138 24.6494 220.138 29.5425C220.138 34.4352 216.745 38.0902 211.982 38.0903C210.021 38.0903 208.433 37.4393 207.25 36.2935V37.687H202.456V15.0493H207.655V22.5132ZM230.037 21.3042C232.059 21.3042 233.617 21.9244 234.769 23.0698V21.3667H239.563V37.687H234.769V36.2007C233.617 37.408 232.06 38.0903 230.037 38.0903C225.274 38.0901 221.849 34.4351 221.849 29.5425C221.849 24.6499 225.274 21.3044 230.037 21.3042ZM259.431 20.9946C264.69 20.9946 268.428 24.6493 268.428 29.5425C268.428 34.4046 264.692 38.0903 259.431 38.0903C254.203 38.0902 250.465 34.4045 250.465 29.5425C250.465 24.6494 254.202 20.9948 259.431 20.9946ZM302.405 20.9644C307.759 20.9644 310.935 25.1773 310.935 29.2017C310.938 29.8234 310.896 30.4452 310.81 31.061H298.918C299.448 32.887 300.911 33.8784 302.872 33.8784C304.709 33.8784 305.745 33.3262 306.678 32.1772L309.667 35.1577C308.402 36.72 306.291 38.0903 302.716 38.0903C297.299 38.0903 293.875 34.4046 293.875 29.5425C293.875 24.8374 297.673 20.9644 302.405 20.9644ZM285.563 20.9927C288.925 20.9927 291.353 22.3246 292.007 24.6147L287.709 26.2876C287.336 25.2655 286.557 24.7397 285.467 24.7397C284.409 24.7399 283.881 25.1419 283.88 25.8228C283.88 28.1454 292.441 26.6599 292.441 32.6675C292.441 36.0434 289.702 38.0874 285.375 38.0874C281.672 38.0904 279.026 36.5745 278.061 33.7231L282.357 32.0825C282.793 33.445 283.882 34.2182 285.563 34.2183C286.746 34.2183 287.369 33.7543 287.369 33.0112C287.369 30.4407 278.808 31.6788 278.808 26.0737C278.808 22.9153 281.423 20.9928 285.563 20.9927ZM248.19 37.687H242.992V15.0493H248.19V37.687ZM275.944 37.687H270.746V21.3667H275.944V37.687ZM211.235 25.5181C208.931 25.5181 207.405 27.159 207.405 29.5425C207.405 31.8958 208.962 33.5376 211.235 33.5376C213.414 33.5376 215.001 31.8651 215.001 29.5425C215.001 27.2199 213.414 25.5181 211.235 25.5181ZM230.785 25.5181C228.606 25.5181 227.018 27.2214 227.018 29.5425C227.018 31.8636 228.575 33.5376 230.785 33.5376C233.057 33.5375 234.583 31.8962 234.583 29.5425C234.582 27.1576 233.057 25.5182 230.785 25.5181ZM259.462 25.5786C257.19 25.5786 255.696 27.1882 255.696 29.5425C255.696 31.8339 257.19 33.5063 259.462 33.5063C261.704 33.5058 263.199 31.8651 263.199 29.5112C263.199 27.1887 261.735 25.5786 259.462 25.5786ZM302.529 24.8354C300.63 24.8354 299.291 25.8573 298.855 27.8394H306.109C305.673 25.9811 304.428 24.8355 302.529 24.8354ZM273.361 12.8188C275.197 12.819 276.629 14.1508 276.629 16.0083C276.629 17.866 275.197 19.1683 273.361 19.1685C271.524 19.1685 269.948 17.8666 269.948 16.0083C269.948 14.1507 271.524 12.8188 273.361 12.8188Z" fill="#A8281C"/>
</g>
<path d="M155.5 6.29712V44.7029" stroke="#A8281C" stroke-width="1.44928"/>
<mask id="mask2_3_26" style="mask-type:luminance" maskUnits="userSpaceOnUse" x="0" y="8" width="144" height="35">
<path d="M144 8H0V42.0408H144V8Z" fill="white"/>
</mask>
<g mask="url(#mask2_3_26)">
<path d="M113.963 32.8843L129.725 35.5833L131.951 40.7292L112.137 37.1659L113.963 32.8843ZM132.198 13.2424L126.522 14.5485L124.219 9.23935L129.913 7.99854L132.198 13.2424ZM125.351 31.871L128.335 32.369L129.317 34.6404L120.466 33.1251L125.351 31.871ZM125.022 31.0669L119.152 32.5751L123.79 21.8618L126.407 27.9128L125.022 31.0669ZM125.802 15.0496L118.148 32.7281L114.31 32.071L123.68 10.1587L125.802 15.0496ZM132.967 40.9118L124.258 20.7792L126.271 16.1312L137.363 41.6965L133.018 40.921L132.967 40.9118ZM143.971 40.2445L138.356 41.822L126.87 15.3516L132.548 14.0445L143.971 40.2445Z" fill="#A8281C"/>
<path d="M5.12083 16.0049V24.561H5.17797C6.36062 22.9865 7.7943 22.2528 9.79328 22.2528C13.4484 22.2528 15.2219 24.6743 15.2219 28.3314V37.1671H10.1025V29.7671C10.1025 28.0784 9.84838 26.3355 7.7943 26.3355C5.76981 26.3355 5.12083 28.0784 5.12083 29.7671V37.1671H0.00143433V16.0049H5.12083Z" fill="#A8281C"/>
<path d="M27.8253 27.8544C27.5712 26.4758 26.3059 25.5738 24.9263 25.5738C23.4355 25.5738 22.1977 26.3636 21.8875 27.8544H27.8253ZM32.5794 30.8095H21.8039C21.8039 32.8901 22.9018 34.0156 25.012 34.0156C26.109 34.0156 26.8967 33.6503 27.46 32.6942H32.3835C31.5661 36.0983 28.3314 37.6462 25.0406 37.6462C20.2569 37.6462 16.6834 34.9452 16.6834 29.9656C16.6834 25.1534 19.9743 22.2544 24.6743 22.2544C29.6814 22.2544 32.5794 25.3503 32.5794 30.2738V30.8095Z" fill="#A8281C"/>
<path d="M34.0703 16.0046H39.1897V37.1669H34.0703V16.0046Z" fill="#A8281C"/>
<path d="M48.9061 30.1335L52.3398 22.7314H58.0796L50.5378 37.1662H47.2735L39.7061 22.7314H45.4449L48.9061 30.1335Z" fill="#A8281C"/>
<path d="M67.9543 27.8544C67.7022 26.4758 66.4369 25.5738 65.0573 25.5738C63.5665 25.5738 62.3277 26.3636 62.0186 27.8544H67.9543ZM72.7104 30.8095H61.9339C61.9339 32.8901 63.0308 34.0156 65.142 34.0156C66.239 34.0156 67.0267 33.6503 67.589 32.6942H72.5135C71.6982 36.0983 68.4614 37.6462 65.1706 37.6462C60.389 37.6462 56.8134 34.9452 56.8134 29.9656C56.8134 25.1534 60.1063 22.2544 64.8032 22.2544C69.8114 22.2544 72.7104 25.3503 72.7104 30.2738V30.8095Z" fill="#A8281C"/>
<path d="M80.2628 37.167H75.1435V26.9547H73.4832V22.7323H75.1435V18.4006H80.2628V22.7323H83.1608V26.9547H80.2628V37.167Z" fill="#A8281C"/>
<path d="M89.2543 37.1669H84.1329V22.7322H89.2543V37.1669ZM89.5615 18.1751C89.5615 19.7506 88.2706 21.0435 86.6931 21.0435C85.1186 21.0435 83.8237 19.7506 83.8237 18.1751C83.8237 16.5996 85.1186 15.3047 86.6931 15.3047C88.2706 15.3047 89.5615 16.5996 89.5615 18.1751Z" fill="#A8281C"/>
<path d="M96.0343 29.9634C96.0343 31.792 97.2435 33.1981 99.3261 33.1981C101.407 33.1981 102.618 31.792 102.618 29.9634C102.618 28.191 101.407 26.6991 99.3261 26.6991C97.2435 26.6991 96.0343 28.191 96.0343 29.9634ZM107.57 37.1655H102.449V35.5614H102.393C101.491 36.9971 99.721 37.644 98.0323 37.644C93.7547 37.644 90.7445 34.0706 90.7445 29.9349C90.7445 25.7971 93.6986 22.2522 97.9772 22.2522C99.6353 22.2522 101.379 22.8726 102.449 24.1389V22.7308H107.57V37.1655Z" fill="#A8281C"/>
</g>
</g>
</svg>
