<svg width="2714" height="1023" viewBox="0 0 2714 1023" fill="none" xmlns="http://www.w3.org/2000/svg">
<path d="M1205.45 854.602C1199.42 849.775 1194.95 845.311 1192.06 841.208C1189.16 836.864 1187.11 831.675 1185.9 825.642C1172.15 843.983 1153.08 853.154 1128.71 853.154C1117.12 853.154 1107.23 850.861 1099.02 846.276C1091.06 841.691 1085.15 835.416 1081.29 827.452C1079.6 824.073 1078.39 820.091 1077.67 815.506C1076.94 810.921 1076.58 805.973 1076.58 800.664V668.172L1104.45 662.742V792.338C1104.45 800.785 1105.18 807.301 1106.63 811.886C1108.32 816.23 1111.21 819.85 1115.31 822.746C1118.21 824.677 1121.59 826.245 1125.45 827.452C1129.31 828.417 1133.29 828.9 1137.4 828.9C1146.33 828.9 1155.01 826.004 1163.46 820.212C1171.91 814.179 1178.54 806.215 1183.37 796.32V668.534L1211.24 663.828V795.234C1211.24 806.577 1212.09 815.144 1213.78 820.936C1215.71 826.487 1218.97 831.313 1223.55 835.416L1205.45 854.602ZM1278.13 847V667.448L1307.45 662.742V847H1278.13ZM1315.41 610.976C1315.41 617.251 1313.24 622.56 1308.9 626.904C1304.79 631.007 1299.6 633.058 1293.33 633.058C1287.06 633.058 1281.75 631.007 1277.4 626.904C1273.3 622.56 1271.25 617.371 1271.25 611.338C1271.25 605.063 1273.3 599.754 1277.4 595.41C1281.75 591.066 1287.06 588.894 1293.33 588.894C1299.6 588.894 1304.79 591.066 1308.9 595.41C1313.24 599.513 1315.41 604.701 1315.41 610.976ZM1361.92 764.102V736.59H1431.07V764.102H1361.92ZM1533.43 846.638C1529.81 848.327 1526.8 849.413 1524.38 849.896C1522.21 850.379 1519.19 850.62 1515.33 850.62C1506.4 850.62 1499.28 848.086 1493.97 843.018C1491.08 840.363 1488.91 837.105 1487.46 833.244C1486.01 829.141 1485.29 823.832 1485.29 817.316V626.18C1485.29 615.561 1484.68 607.115 1483.48 600.84C1482.27 594.324 1481.43 590.463 1480.94 589.256L1509.18 583.826C1509.66 585.274 1510.51 589.739 1511.71 597.22C1513.16 604.46 1513.88 614.234 1513.88 626.542V810.8C1513.88 817.799 1514.49 822.625 1515.69 825.28C1517.14 827.693 1519.92 828.9 1524.02 828.9C1524.5 828.9 1525.71 828.659 1527.64 828.176L1533.43 846.638ZM1578.97 847V667.448L1608.29 662.742V847H1578.97ZM1616.25 610.976C1616.25 617.251 1614.08 622.56 1609.74 626.904C1605.64 631.007 1600.45 633.058 1594.17 633.058C1587.9 633.058 1582.59 631.007 1578.24 626.904C1574.14 622.56 1572.09 617.371 1572.09 611.338C1572.09 605.063 1574.14 599.754 1578.24 595.41C1582.59 591.066 1587.9 588.894 1594.17 588.894C1600.45 588.894 1605.64 591.066 1609.74 595.41C1614.08 599.513 1616.25 604.701 1616.25 610.976ZM1824.62 754.328C1824.62 768.808 1822.93 782.081 1819.55 794.148C1816.18 805.973 1811.35 816.109 1805.07 824.556C1798.8 833.003 1791.2 839.639 1782.27 844.466C1773.58 849.051 1763.81 851.344 1752.95 851.344C1743.53 851.344 1734.12 849.051 1724.71 844.466C1715.54 839.881 1708.42 834.209 1703.35 827.452C1702.87 831.313 1702.39 834.692 1701.9 837.588C1701.42 840.243 1700.21 843.38 1698.28 847H1670.05C1671.98 842.656 1673.31 837.226 1674.03 830.71C1675 823.953 1675.48 814.42 1675.48 802.112V624.732C1675.48 614.113 1674.75 605.667 1673.31 599.392C1672.1 592.876 1671.25 589.015 1670.77 587.808L1699.01 582.378C1699.49 583.826 1700.34 588.291 1701.54 595.772C1702.99 603.012 1703.71 612.786 1703.71 625.094V667.086C1703.71 671.189 1703.59 675.291 1703.35 679.394C1703.11 683.255 1702.99 685.789 1702.99 686.996C1711.92 678.308 1720.37 672.154 1728.33 668.534C1736.29 664.673 1745.1 662.742 1754.76 662.742C1765.62 662.742 1775.27 664.914 1783.72 669.258C1792.4 673.361 1799.76 679.394 1805.8 687.358C1811.83 695.322 1816.42 704.975 1819.55 716.318C1822.93 727.661 1824.62 740.331 1824.62 754.328ZM1793.13 752.518C1793.13 740.451 1792.28 730.677 1790.59 723.196C1789.15 715.715 1786.49 709.319 1782.63 704.01C1779.25 699.183 1774.42 695.443 1768.15 692.788C1762.12 689.892 1755.6 688.444 1748.6 688.444C1739.67 688.444 1731.11 690.737 1722.9 695.322C1714.69 699.666 1708.18 705.217 1703.35 711.974V804.646C1708.18 810.921 1714.69 816.109 1722.9 820.212C1731.11 824.315 1739.43 826.366 1747.88 826.366C1754.15 826.366 1760.31 824.918 1766.34 822.022C1772.37 819.126 1777.08 815.265 1780.46 810.438C1783.84 805.611 1786.73 798.613 1789.15 789.442C1791.8 780.03 1793.13 767.722 1793.13 752.518ZM1955.85 693.874C1953.43 692.909 1950.78 692.426 1947.88 692.426C1936.54 692.426 1926.52 696.77 1917.84 705.458C1913.73 709.561 1910.96 713.543 1909.51 717.404C1908.06 721.024 1907.34 726.575 1907.34 734.056V847H1879.1V707.992C1879.1 696.167 1878.14 687.117 1876.21 680.842C1874.52 674.567 1873.43 670.827 1872.95 669.62L1901.18 662.018C1901.91 663.466 1903.12 667.086 1904.8 672.878C1906.74 678.429 1907.46 684.583 1906.98 691.34C1913.49 682.169 1921.22 674.929 1930.14 669.62C1939.32 664.069 1948.49 661.294 1957.66 661.294C1959.83 661.294 1961.88 661.535 1963.81 662.018C1965.74 662.501 1966.95 662.863 1967.43 663.104L1955.85 693.874ZM2114.93 853.878C2108.65 851.947 2103.34 848.689 2099 844.104C2094.9 839.277 2092 833.727 2090.31 827.452C2081.62 836.14 2073.3 842.415 2065.33 846.276C2057.61 849.896 2048.56 851.706 2038.18 851.706C2027.08 851.706 2017.79 850.137 2010.31 847C2002.83 843.863 1996.8 839.881 1992.21 835.054C1987.87 830.227 1984.73 824.797 1982.8 818.764C1981.11 812.489 1980.26 806.335 1980.26 800.302C1980.26 779.789 1988.59 763.861 2005.24 752.518C2021.89 741.175 2045.42 735.504 2075.83 735.504C2077.76 735.504 2079.57 735.504 2081.26 735.504C2083.19 735.504 2085.61 735.625 2088.5 735.866V723.196C2088.5 715.232 2088.14 709.319 2087.42 705.458C2086.93 701.355 2085.37 697.856 2082.71 694.96C2079.81 691.581 2076.44 689.168 2072.57 687.72C2068.71 686.031 2064.01 685.186 2058.46 685.186C2053.39 685.186 2048.08 685.789 2042.53 686.996C2036.98 688.203 2031.55 689.892 2026.24 692.064C2021.17 693.995 2016.34 696.287 2011.76 698.942C2007.41 701.355 2003.79 703.889 2000.9 706.544L1986.78 686.272C2010.91 670.103 2036.13 662.018 2062.44 662.018C2088.02 662.018 2104.67 671.43 2112.39 690.254C2114.33 695.081 2115.53 700.873 2116.01 707.63C2116.5 714.387 2116.62 721.869 2116.38 730.074L2114.93 789.442C2114.69 796.682 2114.69 802.715 2114.93 807.542C2115.17 812.369 2115.77 816.471 2116.74 819.85C2117.95 822.987 2119.51 825.642 2121.44 827.814C2123.38 829.986 2126.03 831.917 2129.41 833.606L2114.93 853.878ZM2087.78 755.414C2085.85 755.173 2083.43 755.052 2080.54 755.052C2077.88 754.811 2075.59 754.69 2073.66 754.69C2062.32 754.69 2052.66 755.655 2044.7 757.586C2036.74 759.517 2030.34 762.292 2025.51 765.912C2020.69 769.532 2017.19 774.117 2015.02 779.668C2012.84 784.977 2011.76 791.011 2011.76 797.768C2011.76 819.729 2022.14 830.71 2042.89 830.71C2052.06 830.71 2060.63 828.176 2068.59 823.108C2076.56 817.799 2082.59 810.921 2086.69 802.474L2087.78 755.414ZM2261.28 693.874C2258.87 692.909 2256.22 692.426 2253.32 692.426C2241.98 692.426 2231.96 696.77 2223.27 705.458C2219.17 709.561 2216.4 713.543 2214.95 717.404C2213.5 721.024 2212.78 726.575 2212.78 734.056V847H2184.54V707.992C2184.54 696.167 2183.58 687.117 2181.64 680.842C2179.96 674.567 2178.87 670.827 2178.39 669.62L2206.62 662.018C2207.35 663.466 2208.55 667.086 2210.24 672.878C2212.17 678.429 2212.9 684.583 2212.41 691.34C2218.93 682.169 2226.65 674.929 2235.58 669.62C2244.75 664.069 2253.92 661.294 2263.09 661.294C2265.27 661.294 2267.32 661.535 2269.25 662.018C2271.18 662.501 2272.39 662.863 2272.87 663.104L2261.28 693.874ZM2366.34 853.516C2363.45 862.687 2360.19 870.892 2356.57 878.132C2353.19 885.613 2349.21 892.25 2344.62 898.042C2340.04 903.834 2334.73 908.661 2328.7 912.522C2322.9 916.383 2316.03 919.279 2308.06 921.21L2299.74 902.024C2305.53 900.335 2310.47 898.163 2314.58 895.508C2318.68 892.853 2322.3 889.475 2325.44 885.372C2328.57 881.269 2331.35 876.081 2333.76 869.806C2336.42 863.531 2338.95 855.809 2341.37 846.638L2329.78 848.448C2329.3 845.552 2328.33 841.449 2326.89 836.14C2325.44 830.589 2323.87 824.677 2322.18 818.402C2320.49 812.127 2318.68 805.973 2316.75 799.94C2314.82 793.665 2313.13 788.235 2311.68 783.65L2272.95 670.706L2300.82 661.294L2337.75 778.22C2338.95 782.081 2340.16 786.305 2341.37 790.89C2342.57 795.475 2343.66 799.94 2344.62 804.284C2345.59 808.628 2346.43 812.489 2347.16 815.868C2347.88 819.247 2348.36 821.66 2348.61 823.108H2349.33C2351.26 816.833 2353.07 810.559 2354.76 804.284C2356.69 797.768 2358.62 791.373 2360.55 785.098L2396.03 666.724H2428.25L2366.34 853.516Z" fill="#009EE7"/>
<path d="M1284.64 375.33C1284.64 394.443 1282.29 411.833 1277.59 427.5C1272.89 443.167 1266.31 456.64 1257.85 467.92C1249.39 479.2 1239.36 487.973 1227.77 494.24C1216.18 500.193 1203.49 503.17 1189.7 503.17C1165.89 503.17 1146.62 494.083 1131.89 475.91C1130.64 482.177 1129.54 486.72 1128.6 489.54C1127.97 492.36 1126.88 495.18 1125.31 498H1077.84C1078.78 495.18 1079.56 492.36 1080.19 489.54C1081.13 486.72 1081.76 483.43 1082.07 479.67C1082.7 475.597 1083.17 470.897 1083.48 465.57C1083.79 459.93 1083.95 453.037 1083.95 444.89V220.7C1083.95 206.913 1083.48 195.633 1082.54 186.86C1081.6 177.773 1080.03 169.94 1077.84 163.36L1131.42 151.61C1132.99 160.07 1133.93 167.747 1134.24 174.64C1134.87 181.533 1135.18 189.68 1135.18 199.08V254.54C1135.18 261.433 1135.02 266.76 1134.71 270.52C1134.4 274.28 1134.08 276.473 1133.77 277.1L1135.65 277.57C1143.8 269.423 1152.41 263.627 1161.5 260.18C1170.59 256.42 1180.77 254.54 1192.05 254.54C1206.15 254.54 1218.84 257.36 1230.12 263C1241.71 268.64 1251.43 276.787 1259.26 287.44C1267.41 297.78 1273.67 310.47 1278.06 325.51C1282.45 340.237 1284.64 356.843 1284.64 375.33ZM1226.36 375.8C1226.36 365.147 1225.73 355.12 1224.48 345.72C1223.23 336.32 1220.88 328.173 1217.43 321.28C1213.98 314.073 1209.28 308.433 1203.33 304.36C1197.69 300.287 1190.17 298.25 1180.77 298.25C1169.8 298.25 1160.72 300.757 1153.51 305.77C1146.3 310.783 1140.35 316.267 1135.65 322.22V438.31C1140.98 443.637 1147.24 448.493 1154.45 452.88C1161.97 456.953 1170.43 458.99 1179.83 458.99C1196.12 458.99 1207.87 452.567 1215.08 439.72C1222.6 426.873 1226.36 405.567 1226.36 375.8ZM1508.6 507.87C1501.39 505.05 1494.81 500.977 1488.86 495.65C1483.22 490.01 1478.99 483.43 1476.17 475.91C1466.45 486.877 1456.27 494.397 1445.62 498.47C1435.28 502.857 1423.68 505.05 1410.84 505.05C1383.58 505.05 1363.52 498.313 1350.68 484.84C1338.14 471.367 1331.88 454.29 1331.88 433.61C1331.88 406.037 1341.9 385.357 1361.96 371.57C1382.01 357.783 1411.15 350.89 1449.38 350.89H1465.36V338.2C1465.36 324.413 1463.32 314.073 1459.25 307.18C1455.49 299.973 1446.56 296.37 1432.45 296.37C1424.94 296.37 1417.26 297.623 1409.43 300.13C1401.91 302.323 1394.86 304.987 1388.28 308.12C1381.7 310.94 1376.06 313.917 1371.36 317.05C1366.66 320.183 1363.37 322.377 1361.49 323.63L1338.46 286.5C1356.32 275.22 1373.08 267.073 1388.75 262.06C1404.73 256.733 1421.65 254.07 1439.51 254.07C1477.11 254.07 1501.23 267.23 1511.89 293.55C1512.83 296.057 1513.61 298.877 1514.24 302.01C1514.86 305.143 1515.18 308.903 1515.18 313.29C1515.49 317.677 1515.65 323.003 1515.65 329.27C1515.65 335.537 1515.65 343.057 1515.65 351.83L1514.71 419.98C1514.71 428.127 1514.86 435.02 1515.18 440.66C1515.49 445.987 1516.43 450.687 1518 454.76C1519.56 458.833 1521.6 462.437 1524.11 465.57C1526.93 468.703 1530.69 471.837 1535.39 474.97L1508.6 507.87ZM1464.42 386.14C1463.79 386.14 1462.38 386.14 1460.19 386.14C1458.31 385.827 1456.58 385.67 1455.02 385.67C1442.17 385.67 1431.36 386.61 1422.59 388.49C1414.13 390.37 1407.23 393.19 1401.91 396.95C1396.89 400.71 1393.29 405.41 1391.1 411.05C1388.9 416.69 1387.81 423.27 1387.81 430.79C1387.81 442.07 1390.63 451 1396.27 457.58C1402.22 464.16 1410.37 467.45 1420.71 467.45C1428.85 467.45 1436.69 465.257 1444.21 460.87C1451.73 456.17 1458.15 450.06 1463.48 442.54L1464.42 386.14ZM1675.69 497.53C1666.29 501.29 1655.95 503.17 1644.67 503.17C1631.51 503.17 1621.33 500.663 1614.12 495.65C1607.23 490.323 1602.06 484.213 1598.61 477.32C1595.48 470.113 1593.6 462.75 1592.97 455.23C1592.66 447.397 1592.5 440.973 1592.5 435.96V233.39C1592.5 225.243 1592.35 218.037 1592.03 211.77C1592.03 205.19 1591.72 199.237 1591.09 193.91C1590.78 188.583 1590.31 183.57 1589.68 178.87C1589.37 173.857 1588.74 168.843 1587.8 163.83L1640.91 152.08C1642.79 159.287 1643.89 168.06 1644.2 178.4C1644.83 188.74 1645.14 201.743 1645.14 217.41V419.04C1645.14 427.187 1645.14 433.767 1645.14 438.78C1645.46 443.48 1645.77 447.397 1646.08 450.53C1646.71 453.35 1647.34 455.7 1647.96 457.58C1648.59 459.147 1649.37 460.557 1650.31 461.81C1651.88 464.003 1654.23 465.57 1657.36 466.51C1660.81 467.45 1664.1 467.137 1667.23 465.57L1675.69 497.53ZM1918.79 380.03C1918.79 399.143 1916.28 416.377 1911.27 431.73C1906.57 447.083 1899.52 460.087 1890.12 470.74C1881.03 481.393 1869.91 489.697 1856.75 495.65C1843.9 501.29 1829.49 504.11 1813.51 504.11C1797.53 504.11 1782.96 501.29 1769.8 495.65C1756.95 489.697 1745.99 481.393 1736.9 470.74C1727.81 459.773 1720.76 446.613 1715.75 431.26C1711.05 415.907 1708.7 398.673 1708.7 379.56C1708.7 360.447 1711.05 343.213 1715.75 327.86C1720.76 312.507 1727.81 299.503 1736.9 288.85C1745.99 277.883 1756.95 269.423 1769.8 263.47C1782.65 257.517 1796.9 254.54 1812.57 254.54C1829.49 254.54 1844.53 257.517 1857.69 263.47C1870.85 269.423 1881.97 278.04 1891.06 289.32C1900.15 300.287 1907.04 313.447 1911.74 328.8C1916.44 344.153 1918.79 361.23 1918.79 380.03ZM1861.92 380.97C1861.92 364.05 1860.67 350.107 1858.16 339.14C1855.97 327.86 1852.68 318.93 1848.29 312.35C1844.22 305.457 1839.2 300.6 1833.25 297.78C1827.3 294.96 1820.56 293.55 1813.04 293.55C1796.43 293.55 1784.37 300.13 1776.85 313.29C1769.64 326.137 1766.04 347.13 1766.04 376.27C1766.04 393.503 1767.14 407.917 1769.33 419.51C1771.52 430.79 1774.66 439.877 1778.73 446.77C1782.8 453.663 1787.82 458.52 1793.77 461.34C1799.72 464.16 1806.62 465.57 1814.45 465.57C1829.8 465.57 1841.55 458.99 1849.7 445.83C1857.85 432.67 1861.92 411.05 1861.92 380.97ZM1979.89 498V263.94L2032.06 254.54V498H1979.89ZM2040.52 190.62C2040.52 200.02 2037.07 208.167 2030.18 215.06C2023.6 221.64 2015.45 224.93 2005.74 224.93C1996.34 224.93 1988.35 221.64 1981.77 215.06C1975.5 208.167 1972.37 200.02 1972.37 190.62C1972.37 180.907 1975.66 172.76 1982.24 166.18C1988.82 159.287 1996.96 155.84 2006.68 155.84C2015.76 155.84 2023.6 159.13 2030.18 165.71C2037.07 172.29 2040.52 180.593 2040.52 190.62ZM2273.87 423.74C2273.87 435.647 2271.52 446.613 2266.82 456.64C2262.12 466.667 2255.54 475.283 2247.08 482.49C2238.62 489.383 2228.43 494.71 2216.53 498.47C2204.93 502.543 2191.93 504.58 2177.52 504.58C2162.79 504.58 2147.75 502.387 2132.4 498C2117.04 493.3 2101.69 486.72 2086.34 478.26L2104.67 441.13C2115.32 447.397 2127.38 453.193 2140.86 458.52C2154.64 463.533 2168.27 466.04 2181.75 466.04C2193.03 466.04 2202.27 463.063 2209.48 457.11C2216.68 450.843 2220.29 442.697 2220.29 432.67C2220.29 423.583 2217.15 416.533 2210.89 411.52C2204.93 406.193 2195.22 402.12 2181.75 399.3L2153.08 393.19C2135.22 389.43 2121.27 381.91 2111.25 370.63C2101.22 359.037 2096.21 344.78 2096.21 327.86C2096.21 316.58 2098.24 306.397 2102.32 297.31C2106.7 287.91 2112.81 279.92 2120.65 273.34C2128.48 266.76 2137.72 261.59 2148.38 257.83C2159.34 254.07 2171.41 252.19 2184.57 252.19C2200.86 252.19 2215.43 254.383 2228.28 258.77C2241.44 262.843 2253.03 267.543 2263.06 272.87L2246.14 308.59C2235.17 302.637 2224.99 298.25 2215.59 295.43C2206.5 292.61 2197.26 291.2 2187.86 291.2C2176.89 291.2 2168.12 294.02 2161.54 299.66C2154.96 305.3 2151.67 312.663 2151.67 321.75C2151.67 328.957 2154.02 334.753 2158.72 339.14C2163.42 343.213 2171.72 346.817 2183.63 349.95L2213.24 357.47C2225.14 360.603 2235.01 364.52 2242.85 369.22C2250.68 373.92 2256.79 379.247 2261.18 385.2C2265.88 390.84 2269.17 396.95 2271.05 403.53C2272.93 410.11 2273.87 416.847 2273.87 423.74ZM2377.91 393.19V396.95C2377.91 405.097 2378.69 413.243 2380.26 421.39C2382.14 429.537 2385.27 436.9 2389.66 443.48C2394.36 449.747 2400.47 454.917 2407.99 458.99C2415.51 462.75 2425.07 464.63 2436.66 464.63C2457.97 464.63 2477.71 456.797 2495.88 441.13L2516.09 472.62C2491.34 493.613 2462.82 504.11 2430.55 504.11C2413.63 504.11 2398.43 501.29 2384.96 495.65C2371.49 489.697 2360.05 481.393 2350.65 470.74C2341.25 459.773 2333.89 446.613 2328.56 431.26C2323.55 415.907 2321.04 398.673 2321.04 379.56C2321.04 358.567 2323.39 340.863 2328.09 326.45C2332.79 311.723 2340.31 298.407 2350.65 286.5C2360.36 275.533 2371.17 267.543 2383.08 262.53C2394.99 257.203 2408.46 254.54 2423.5 254.54C2435.41 254.54 2446.69 256.42 2457.34 260.18C2468.31 263.627 2478.8 269.893 2488.83 278.98C2499.17 288.38 2506.85 301.07 2511.86 317.05C2517.19 333.03 2519.85 354.807 2519.85 382.38V393.19H2377.91ZM2466.27 355.12C2466.27 335.693 2462.35 320.653 2454.52 310C2447 299.033 2436.66 293.55 2423.5 293.55C2408.77 293.55 2397.49 299.033 2389.66 310C2382.14 320.653 2378.38 335.693 2378.38 355.12H2466.27Z" fill="#003399"/>
<path fill-rule="evenodd" clip-rule="evenodd" d="M0 50C0 22.3858 22.3858 0 50 0H270C297.614 0 320 22.3858 320 50V216H393V216.134C396.489 216.045 399.989 216 403.5 216C626.347 216 807 396.653 807 619.5C807 842.347 626.347 1023 403.5 1023C180.82 1023 0.270282 842.617 0.000303173 620H0V619.5V50Z" fill="url(#paint0_linear)"/>
<g filter="url(#filter0_d)">
<path d="M162 316.437L167.568 317.306C226.711 326.535 286.564 330.436 346.405 328.96L366.413 328.467C372.771 328.31 379.057 327.091 385.012 324.861C421.34 311.255 433.781 266.136 409.56 235.834L396.663 219.7C391.306 212.997 387.189 205.391 384.507 197.24L378.467 178.879C373.964 165.194 373.232 150.548 376.347 136.482C383.673 103.4 411.001 78.4922 444.619 74.2575L457.545 72.6293C466.13 71.5478 474.82 71.601 483.392 72.7877L497.461 74.7354C526.515 78.7575 550.671 99.1189 559.552 127.073C565.824 146.814 563.778 168.258 553.886 186.457L541.325 209.565L515.547 246.814C509.747 255.194 506.64 265.144 506.64 275.337V286.439C506.64 303.881 518.953 318.896 536.057 322.313L546.125 324.324C581.035 331.297 616.891 332.149 652.093 326.842C668.746 324.332 685.165 320.456 701.183 315.255L797.407 284.007L772.908 357.891C764.166 384.255 757.747 411.332 753.725 438.815L749.463 467.943C747.505 481.325 757.879 493.328 771.404 493.328C775.382 493.328 779.287 492.258 782.71 490.23L830.53 461.889C839.865 456.357 850.087 452.481 860.744 450.435L866.475 449.334C909.031 441.16 951.142 465.437 965.394 506.36C972.239 526.014 971.791 547.585 964.217 566.97C950.198 602.849 914.454 625.746 876.016 623.208L873.69 623.055C858.968 622.082 844.7 617.566 832.1 609.89L791.555 585.189C782.786 579.846 771.899 579.338 762.67 583.839C752.316 588.889 745.748 599.401 745.748 610.92V619.197C745.748 659.889 751.474 700.378 762.757 739.475L781.909 805.837L653.5 817.63L617.673 818.268C586.562 818.823 555.493 815.723 525.105 809.032C500.402 803.593 486.996 776.768 497.474 753.746L504.929 737.365C506.068 734.863 507.395 732.45 508.9 730.149L536.65 687.692C539.758 682.937 542.341 677.859 544.353 672.547L544.613 671.862C549.231 659.672 550.626 646.497 548.662 633.611C544.193 604.279 523.013 580.257 494.473 572.148L481.279 568.399C464.594 563.658 446.895 563.83 430.304 568.893L422.312 571.331C394.017 579.966 373.181 604.065 368.725 633.311C366.732 646.394 368.148 659.77 372.837 672.146L373.645 674.28C375.223 678.446 377.125 682.483 379.331 686.353L403.778 729.229C405.439 732.141 406.835 735.196 407.95 738.358L412.586 751.501C421.374 776.416 406.294 803.387 380.465 808.948C331.131 819.57 280.332 821.594 230.309 814.933L162 805.837V316.437Z" fill="url(#paint1_linear)"/>
</g>
<defs>
<filter id="filter0_d" x="152" y="71" width="834" height="774" filterUnits="userSpaceOnUse" color-interpolation-filters="sRGB">
<feFlood flood-opacity="0" result="BackgroundImageFix"/>
<feColorMatrix in="SourceAlpha" type="matrix" values="0 0 0 0 0 0 0 0 0 0 0 0 0 0 0 0 0 0 127 0"/>
<feOffset dy="10"/>
<feGaussianBlur stdDeviation="5"/>
<feColorMatrix type="matrix" values="0 0 0 0 0 0 0 0 0 0 0 0 0 0 0 0 0 0 0.4 0"/>
<feBlend mode="normal" in2="BackgroundImageFix" result="effect1_dropShadow"/>
<feBlend mode="normal" in="SourceGraphic" in2="effect1_dropShadow" result="shape"/>
</filter>
<linearGradient id="paint0_linear" x1="0" y1="0" x2="807" y2="1023" gradientUnits="userSpaceOnUse">
<stop stop-color="#009EE7"/>
<stop offset="0.863411" stop-color="#003399"/>
</linearGradient>
<linearGradient id="paint1_linear" x1="162" y1="71" x2="975.78" y2="825.296" gradientUnits="userSpaceOnUse">
<stop stop-color="#F4D94E"/>
<stop offset="0.828125" stop-color="#FFA800"/>
</linearGradient>
</defs>
</svg>
