<svg height="1709" viewBox=".8 .8 44 30.34" width="2500" xmlns="http://www.w3.org/2000/svg"><g fill="none" stroke="#0084ff" stroke-width="2"><path d="m23.3 20.34c-2.06-2.12-4.42-4.87-7.02-4.87s-4.72 1.97-4.72 4.4 2.1 4.4 4.72 4.4c2.35 0 3.5-1.46 4.16-2.16m1.86-2.71c2.06 2.1 4.42 4.87 7.02 4.87s4.72-1.97 4.72-4.4-2.1-4.4-4.72-4.4c-2.35 0-3.5 1.45-4.16 2.15" stroke-linecap="round"/><path d="m44.8 22.53c0-3.58-2.2-6.65-5.34-7.95.02-.26.04-.5.04-.78 0-7.18-5.86-13-13.1-13-5.2 0-9.7 3.03-11.8 7.42-1.02-.8-2.3-1.26-3.7-1.26-3.32 0-6.03 2.68-6.03 6 0 .62.1 1.22.28 1.78-2.6 1.54-4.35 4.36-4.35 7.56 0 4.83 3.9 8.74 8.73 8.8h26.6c4.8.04 8.67-3.8 8.67-8.57z" stroke-linejoin="round"/></g></svg>
