<svg width="981" height="1023" viewBox="0 0 981 1023" fill="none" xmlns="http://www.w3.org/2000/svg">
<path fill-rule="evenodd" clip-rule="evenodd" d="M0 50C0 22.3858 22.3858 0 50 0H270C297.614 0 320 22.3858 320 50V216H393V216.134C396.489 216.045 399.989 216 403.5 216C626.347 216 807 396.653 807 619.5C807 842.347 626.347 1023 403.5 1023C180.82 1023 0.270282 842.617 0.000303173 620H0V619.5V50Z" fill="url(#paint0_linear)"/>
<g filter="url(#filter0_d)">
<path d="M162 316.437L167.568 317.306C226.711 326.535 286.564 330.436 346.405 328.96L366.413 328.467C372.771 328.31 379.057 327.091 385.012 324.861C421.34 311.255 433.781 266.136 409.56 235.834L396.663 219.7C391.306 212.997 387.189 205.391 384.507 197.24L378.467 178.879C373.964 165.194 373.232 150.548 376.347 136.482C383.673 103.4 411.001 78.4922 444.619 74.2575L457.545 72.6293C466.13 71.5478 474.82 71.601 483.392 72.7877L497.461 74.7354C526.515 78.7575 550.671 99.1189 559.552 127.073C565.824 146.814 563.778 168.258 553.886 186.457L541.325 209.565L515.547 246.814C509.747 255.194 506.64 265.144 506.64 275.337V286.439C506.64 303.881 518.953 318.896 536.057 322.313L546.125 324.324C581.035 331.297 616.891 332.149 652.093 326.842C668.746 324.332 685.165 320.456 701.183 315.255L797.407 284.007L772.908 357.891C764.166 384.255 757.747 411.332 753.725 438.815L749.463 467.943C747.505 481.325 757.879 493.328 771.404 493.328C775.382 493.328 779.287 492.258 782.71 490.23L830.53 461.889C839.865 456.357 850.087 452.481 860.744 450.435L866.475 449.334C909.031 441.16 951.142 465.437 965.394 506.36C972.239 526.014 971.791 547.585 964.217 566.97C950.198 602.849 914.454 625.746 876.016 623.208L873.69 623.055C858.968 622.082 844.7 617.566 832.1 609.89L791.555 585.189C782.786 579.846 771.899 579.338 762.67 583.839C752.316 588.889 745.748 599.401 745.748 610.92V619.197C745.748 659.889 751.474 700.378 762.757 739.475L781.909 805.837L653.5 817.63L617.673 818.268C586.562 818.823 555.493 815.723 525.105 809.032C500.402 803.593 486.996 776.768 497.474 753.746L504.929 737.365C506.068 734.863 507.395 732.45 508.9 730.149L536.65 687.692C539.758 682.937 542.341 677.859 544.353 672.547L544.613 671.862C549.231 659.672 550.626 646.497 548.662 633.611C544.193 604.279 523.013 580.257 494.473 572.148L481.279 568.399C464.594 563.658 446.895 563.83 430.304 568.893L422.312 571.331C394.017 579.966 373.181 604.065 368.725 633.311C366.732 646.394 368.148 659.77 372.837 672.146L373.645 674.28C375.223 678.446 377.125 682.483 379.331 686.353L403.778 729.229C405.439 732.141 406.835 735.196 407.95 738.358L412.586 751.501C421.374 776.416 406.294 803.387 380.465 808.948C331.131 819.57 280.332 821.594 230.309 814.933L162 805.837V316.437Z" fill="url(#paint1_linear)"/>
</g>
<defs>
<filter id="filter0_d" x="152" y="71" width="834" height="774" filterUnits="userSpaceOnUse" color-interpolation-filters="sRGB">
<feFlood flood-opacity="0" result="BackgroundImageFix"/>
<feColorMatrix in="SourceAlpha" type="matrix" values="0 0 0 0 0 0 0 0 0 0 0 0 0 0 0 0 0 0 127 0"/>
<feOffset dy="10"/>
<feGaussianBlur stdDeviation="5"/>
<feColorMatrix type="matrix" values="0 0 0 0 0 0 0 0 0 0 0 0 0 0 0 0 0 0 0.4 0"/>
<feBlend mode="normal" in2="BackgroundImageFix" result="effect1_dropShadow"/>
<feBlend mode="normal" in="SourceGraphic" in2="effect1_dropShadow" result="shape"/>
</filter>
<linearGradient id="paint0_linear" x1="0" y1="0" x2="807" y2="1023" gradientUnits="userSpaceOnUse">
<stop stop-color="#009EE7"/>
<stop offset="0.863411" stop-color="#003399"/>
</linearGradient>
<linearGradient id="paint1_linear" x1="162" y1="71" x2="975.78" y2="825.296" gradientUnits="userSpaceOnUse">
<stop stop-color="#F4D94E"/>
<stop offset="0.828125" stop-color="#FFA800"/>
</linearGradient>
</defs>
</svg>
