<svg width="992" height="576" viewBox="0 0 992 576" fill="none" xmlns="http://www.w3.org/2000/svg">
<rect width="992" height="576" fill="white"/>
<rect width="992" height="80" fill="#000D6E"/>
<rect y="390" width="992" height="103" fill="#000D6E"/>
<rect opacity="0.3" x="21" width="950" height="493" fill="#FFACA6"/>
<path d="M219.733 48L214.117 31.32H209.773L204.157 48H207.685L208.861 44.424H215.053L216.229 48H219.733ZM211.957 35.064L214.093 41.52H209.821L211.957 35.064ZM228.333 35.064C226.677 35.064 225.309 35.664 224.349 36.744V35.352H221.061V52.296H224.613V46.944C225.525 47.832 226.749 48.312 228.237 48.312C231.885 48.312 234.525 45.456 234.525 41.688C234.525 37.896 231.981 35.064 228.333 35.064ZM227.757 45.168C225.789 45.168 224.469 43.752 224.469 41.688C224.469 39.624 225.789 38.184 227.757 38.184C229.629 38.184 230.997 39.672 230.997 41.688C230.997 43.704 229.629 45.168 227.757 45.168ZM243.755 35.064C242.099 35.064 240.731 35.664 239.771 36.744V35.352H236.483V52.296H240.035V46.944C240.947 47.832 242.171 48.312 243.659 48.312C247.307 48.312 249.947 45.456 249.947 41.688C249.947 37.896 247.403 35.064 243.755 35.064ZM243.179 45.168C241.211 45.168 239.891 43.752 239.891 41.688C239.891 39.624 241.211 38.184 243.179 38.184C245.051 38.184 246.419 39.672 246.419 41.688C246.419 43.704 245.051 45.168 243.179 45.168ZM268.462 31.32H255.046V34.488H259.966V48H263.542V34.488H268.462V31.32ZM271.821 33.504C273.117 33.504 274.149 32.592 274.149 31.272C274.149 29.952 273.117 28.992 271.821 28.992C270.525 28.992 269.517 29.952 269.517 31.272C269.517 32.592 270.525 33.504 271.821 33.504ZM273.597 48V35.352H270.045V48H273.597ZM284.131 48V44.904H282.787C281.539 44.904 280.843 44.184 280.843 42.84V38.376H284.035V35.352H280.963V32.016H277.507V33.984C277.507 34.896 277.075 35.352 276.211 35.352H275.131V38.376H277.291V43.272C277.291 46.128 278.899 48 282.043 48H284.131ZM289.371 48V30.456H285.819V48H289.371ZM304.225 42.768C304.273 42.456 304.297 41.976 304.297 41.424C304.297 38.256 301.873 35.064 297.793 35.064C294.169 35.064 291.265 38.016 291.265 41.688C291.265 45.456 293.929 48.312 298.033 48.312C301.129 48.312 302.761 47.04 303.745 45.6L301.033 43.8C300.481 44.808 299.689 45.36 298.129 45.36C296.449 45.36 295.153 44.424 294.745 42.768H304.225ZM294.697 40.44C295.057 38.712 296.257 37.752 297.889 37.752C299.521 37.752 300.625 38.784 300.961 40.44H294.697Z" fill="white"/>
<path d="M29.4863 432.88H22.0943V444H24.4783V439.472H28.8943V437.408H24.4783V434.944H29.4863V432.88ZM34.5783 444.208C37.2343 444.208 39.1383 442.304 39.1383 439.792C39.1383 437.264 37.2343 435.376 34.5783 435.376C31.9063 435.376 30.0183 437.264 30.0183 439.792C30.0183 442.304 31.9063 444.208 34.5783 444.208ZM34.5943 442.096C33.2823 442.096 32.4023 441.136 32.4023 439.792C32.4023 438.432 33.2823 437.488 34.5943 437.488C35.9063 437.488 36.7703 438.432 36.7703 439.776C36.7703 441.136 35.8743 442.096 34.5943 442.096ZM44.5939 444.208C47.2499 444.208 49.1539 442.304 49.1539 439.792C49.1539 437.264 47.2499 435.376 44.5939 435.376C41.9219 435.376 40.0339 437.264 40.0339 439.792C40.0339 442.304 41.9219 444.208 44.5939 444.208ZM44.6099 442.096C43.2979 442.096 42.4179 441.136 42.4179 439.792C42.4179 438.432 43.2979 437.488 44.6099 437.488C45.9219 437.488 46.7859 438.432 46.7859 439.776C46.7859 441.136 45.8899 442.096 44.6099 442.096ZM55.5901 444V441.936H54.6941C53.8621 441.936 53.3981 441.456 53.3981 440.56V437.584H55.5261V435.568H53.4781V433.344H51.1741V434.656C51.1741 435.264 50.8861 435.568 50.3101 435.568H49.5901V437.584H51.0301V440.848C51.0301 442.752 52.1021 444 54.1981 444H55.5901ZM64.7513 440.512C64.7833 440.304 64.7993 439.984 64.7993 439.616C64.7993 437.504 63.1833 435.376 60.4633 435.376C58.0473 435.376 56.1113 437.344 56.1113 439.792C56.1113 442.304 57.8873 444.208 60.6233 444.208C62.6873 444.208 63.7753 443.36 64.4313 442.4L62.6233 441.2C62.2553 441.872 61.7273 442.24 60.6873 442.24C59.5673 442.24 58.7033 441.616 58.4313 440.512H64.7513ZM58.3993 438.96C58.6393 437.808 59.4393 437.168 60.5273 437.168C61.6153 437.168 62.3513 437.856 62.5753 438.96H58.3993ZM68.2833 435.568H66.0433V444H68.4113V439.36C68.4113 438.24 69.2593 437.584 70.6993 437.584V435.36C69.7073 435.36 68.8593 435.776 68.2833 436.384V435.568ZM79.1494 441.024V439.104H74.5894V441.024H79.1494ZM86.5252 432.88H84.1412V444H91.6132V441.888H86.5252V432.88ZM93.8367 434.336C94.7007 434.336 95.3887 433.728 95.3887 432.848C95.3887 431.968 94.7007 431.328 93.8367 431.328C92.9727 431.328 92.3007 431.968 92.3007 432.848C92.3007 433.728 92.9727 434.336 93.8367 434.336ZM95.0207 444V435.568H92.6527V444H95.0207ZM101.499 435.36C100.411 435.36 99.5312 435.76 98.9552 436.352V435.568H96.7152V444H99.0832V439.008C99.0992 438.144 99.8352 437.472 100.779 437.472C101.739 437.472 102.443 438.08 102.443 439.152V444H104.795V438.688C104.795 436.72 103.515 435.36 101.499 435.36ZM110.978 439.472L114.338 435.568H111.698L108.786 438.896V432.304H106.418V444H108.786V440.176L111.81 444H114.386L110.978 439.472ZM117.976 444.208C120.136 444.208 121.528 443.168 121.528 441.472C121.528 438.368 117.016 439.184 117.016 437.824C117.016 437.392 117.368 437.136 118.008 437.136C118.632 437.136 119.08 437.424 119.288 438L121.288 437.232C120.936 436.064 119.72 435.376 118.04 435.376C115.992 435.376 114.68 436.352 114.68 437.952C114.68 440.848 119.176 440.144 119.176 441.616C119.176 442.096 118.76 442.384 118.056 442.384C117.112 442.384 116.504 441.952 116.28 441.216L114.28 441.984C114.76 443.44 116.104 444.208 117.976 444.208Z" fill="white"/>
<path d="M21 451L122 451" stroke="white" stroke-width="2"/>
<path d="M151.486 432.88H144.094V444H146.478V439.472H150.894V437.408H146.478V434.944H151.486V432.88ZM156.578 444.208C159.234 444.208 161.138 442.304 161.138 439.792C161.138 437.264 159.234 435.376 156.578 435.376C153.906 435.376 152.018 437.264 152.018 439.792C152.018 442.304 153.906 444.208 156.578 444.208ZM156.594 442.096C155.282 442.096 154.402 441.136 154.402 439.792C154.402 438.432 155.282 437.488 156.594 437.488C157.906 437.488 158.77 438.432 158.77 439.776C158.77 441.136 157.874 442.096 156.594 442.096ZM166.594 444.208C169.25 444.208 171.154 442.304 171.154 439.792C171.154 437.264 169.25 435.376 166.594 435.376C163.922 435.376 162.034 437.264 162.034 439.792C162.034 442.304 163.922 444.208 166.594 444.208ZM166.61 442.096C165.298 442.096 164.418 441.136 164.418 439.792C164.418 438.432 165.298 437.488 166.61 437.488C167.922 437.488 168.786 438.432 168.786 439.776C168.786 441.136 167.89 442.096 166.61 442.096ZM177.59 444V441.936H176.694C175.862 441.936 175.398 441.456 175.398 440.56V437.584H177.526V435.568H175.478V433.344H173.174V434.656C173.174 435.264 172.886 435.568 172.31 435.568H171.59V437.584H173.03V440.848C173.03 442.752 174.102 444 176.198 444H177.59ZM186.751 440.512C186.783 440.304 186.799 439.984 186.799 439.616C186.799 437.504 185.183 435.376 182.463 435.376C180.047 435.376 178.111 437.344 178.111 439.792C178.111 442.304 179.887 444.208 182.623 444.208C184.687 444.208 185.775 443.36 186.431 442.4L184.623 441.2C184.255 441.872 183.727 442.24 182.687 442.24C181.567 442.24 180.703 441.616 180.431 440.512H186.751ZM180.399 438.96C180.639 437.808 181.439 437.168 182.527 437.168C183.615 437.168 184.351 437.856 184.575 438.96H180.399ZM190.283 435.568H188.043V444H190.411V439.36C190.411 438.24 191.259 437.584 192.699 437.584V435.36C191.707 435.36 190.859 435.776 190.283 436.384V435.568ZM201.149 441.024V439.104H196.589V441.024H201.149ZM208.525 432.88H206.141V444H213.613V441.888H208.525V432.88ZM215.837 434.336C216.701 434.336 217.389 433.728 217.389 432.848C217.389 431.968 216.701 431.328 215.837 431.328C214.973 431.328 214.301 431.968 214.301 432.848C214.301 433.728 214.973 434.336 215.837 434.336ZM217.021 444V435.568H214.653V444H217.021ZM223.499 435.36C222.411 435.36 221.531 435.76 220.955 436.352V435.568H218.715V444H221.083V439.008C221.099 438.144 221.835 437.472 222.779 437.472C223.739 437.472 224.443 438.08 224.443 439.152V444H226.795V438.688C226.795 436.72 225.515 435.36 223.499 435.36ZM232.978 439.472L236.338 435.568H233.698L230.786 438.896V432.304H228.418V444H230.786V440.176L233.81 444H236.386L232.978 439.472ZM239.976 444.208C242.136 444.208 243.528 443.168 243.528 441.472C243.528 438.368 239.016 439.184 239.016 437.824C239.016 437.392 239.368 437.136 240.008 437.136C240.632 437.136 241.08 437.424 241.288 438L243.288 437.232C242.936 436.064 241.72 435.376 240.04 435.376C237.992 435.376 236.68 436.352 236.68 437.952C236.68 440.848 241.176 440.144 241.176 441.616C241.176 442.096 240.76 442.384 240.056 442.384C239.112 442.384 238.504 441.952 238.28 441.216L236.28 441.984C236.76 443.44 238.104 444.208 239.976 444.208Z" fill="white"/>
<path d="M143 451L244 451" stroke="white" stroke-width="2"/>
<path d="M31.3119 125.76H25.2719V120.1H22.8119V134H25.2719V127.96H31.3119V134H33.7519V120.1H31.3119V125.76ZM45.7158 129.38C45.7758 129.12 45.7958 128.62 45.7958 128.16C45.7958 125.22 43.9358 123.24 41.0158 123.24C38.1358 123.24 35.9158 125.48 35.9158 128.82C35.9158 132.22 37.9758 134.24 41.0358 134.24C43.1558 134.24 44.6958 133.34 45.5758 131.78L43.8958 130.7C43.2558 131.82 42.5358 132.3 41.2558 132.3C39.7158 132.3 38.6558 131.26 38.4558 129.38H45.7158ZM38.5358 127.52C38.8358 126.02 39.7958 125.16 41.0358 125.16C42.3758 125.16 43.2358 126.02 43.4158 127.54L38.5358 127.52ZM50.4425 134V119.38H47.9625V134H50.4425ZM55.7159 134V119.38H53.2359V134H55.7159ZM63.1294 134.24C66.0894 134.24 68.4494 131.96 68.4494 128.74C68.4494 125.38 66.2494 123.24 63.1294 123.24C60.1694 123.24 57.8494 125.5 57.8494 128.74C57.8494 132.1 60.0294 134.24 63.1294 134.24ZM63.1494 132.26C61.5894 132.26 60.3694 130.9 60.3694 128.74C60.3694 126.58 61.5894 125.22 63.1494 125.22C64.7294 125.22 65.9294 126.56 65.9294 128.74C65.9294 130.9 64.7294 132.26 63.1494 132.26ZM87.0305 131.14L84.2505 120.1H81.6305L78.9105 131.02L76.6505 120.1H74.2305L77.4505 134H80.1905L82.9305 123.24L85.6305 134H88.4505L91.6705 120.1H89.2905L87.0305 131.14ZM97.4263 134.24C100.386 134.24 102.746 131.96 102.746 128.74C102.746 125.38 100.546 123.24 97.4263 123.24C94.4663 123.24 92.1463 125.5 92.1463 128.74C92.1463 132.1 94.3263 134.24 97.4263 134.24ZM97.4463 132.26C95.8863 132.26 94.6663 130.9 94.6663 128.74C94.6663 126.58 95.8863 125.22 97.4463 125.22C99.0263 125.22 100.226 126.56 100.226 128.74C100.226 130.9 99.0263 132.26 97.4463 132.26ZM107.137 123.46H104.877V134H107.337V128.76C107.337 126.72 108.497 125.52 110.657 125.52V123.22C108.817 123.22 107.677 124.22 107.137 125.56V123.46ZM114.857 134V119.38H112.377V134H114.857ZM124.97 124.76C124.21 123.8 123.13 123.24 121.81 123.24C119.09 123.24 116.99 125.54 116.99 128.78C116.99 132.04 119.05 134.24 121.77 134.24C123.21 134.24 124.37 133.58 125.15 132.44V134H127.41V119.38H124.97V124.76ZM122.27 132.2C120.73 132.2 119.51 130.88 119.51 128.74C119.51 126.6 120.73 125.28 122.27 125.28C123.83 125.28 125.01 126.6 125.01 128.74C125.01 130.88 123.83 132.2 122.27 132.2Z" fill="#000D6E"/>
<path d="M21 493L41 504.547V481.453L21 493ZM971 493L951 481.453V504.547L971 493ZM39 495H953V491H39V495Z" fill="#FF596F"/>
<path d="M447.216 525.312C451.488 525.312 454.152 522.768 455.064 519.864L451.632 518.472C451.056 520.584 449.616 521.928 447.168 521.928C444.288 521.928 442.272 519.816 442.272 516.672C442.272 513.504 444.288 511.392 447.144 511.392C449.592 511.392 451.056 512.76 451.632 514.848L455.064 513.456C454.176 510.648 451.536 508.008 447.24 508.008C442.344 508.008 438.648 511.632 438.648 516.672C438.648 521.688 442.344 525.312 447.216 525.312ZM462.946 525.312C466.93 525.312 469.786 522.456 469.786 518.688C469.786 514.896 466.93 512.064 462.946 512.064C458.938 512.064 456.106 514.896 456.106 518.688C456.106 522.456 458.938 525.312 462.946 525.312ZM462.97 522.144C461.002 522.144 459.682 520.704 459.682 518.688C459.682 516.648 461.002 515.232 462.97 515.232C464.938 515.232 466.234 516.648 466.234 518.664C466.234 520.704 464.89 522.144 462.97 522.144ZM478.905 512.04C477.273 512.04 475.953 512.64 475.089 513.528V512.352H471.729V525H475.281V517.512C475.305 516.216 476.409 515.208 477.825 515.208C479.265 515.208 480.321 516.12 480.321 517.728V525H483.849V517.032C483.849 514.08 481.929 512.04 478.905 512.04ZM494.065 525V521.904H492.721C491.473 521.904 490.777 521.184 490.777 519.84V515.376H493.969V512.352H490.897V509.016H487.441V510.984C487.441 511.896 487.009 512.352 486.145 512.352H485.065V515.376H487.225V520.272C487.225 523.128 488.833 525 491.977 525H494.065ZM505.095 513.888C504.183 512.856 502.863 512.28 501.207 512.28C497.559 512.28 494.919 514.896 494.919 518.688C494.919 522.456 497.559 525.312 501.207 525.312C502.863 525.312 504.183 524.688 505.095 523.608V525H508.383V512.352H505.095V513.888ZM501.711 522.168C499.815 522.168 498.447 520.704 498.447 518.688C498.447 516.672 499.815 515.184 501.711 515.184C503.655 515.184 504.975 516.624 504.975 518.688C504.975 520.752 503.655 522.168 501.711 522.168ZM512.693 510.504C513.989 510.504 515.021 509.592 515.021 508.272C515.021 506.952 513.989 505.992 512.693 505.992C511.397 505.992 510.389 506.952 510.389 508.272C510.389 509.592 511.397 510.504 512.693 510.504ZM514.469 525V512.352H510.917V525H514.469ZM524.186 512.04C522.554 512.04 521.234 512.64 520.37 513.528V512.352H517.01V525H520.562V517.512C520.586 516.216 521.69 515.208 523.106 515.208C524.546 515.208 525.602 516.12 525.602 517.728V525H529.13V517.032C529.13 514.08 527.21 512.04 524.186 512.04ZM543.877 519.768C543.925 519.456 543.949 518.976 543.949 518.424C543.949 515.256 541.525 512.064 537.445 512.064C533.821 512.064 530.917 515.016 530.917 518.688C530.917 522.456 533.581 525.312 537.685 525.312C540.781 525.312 542.413 524.04 543.397 522.6L540.685 520.8C540.133 521.808 539.341 522.36 537.781 522.36C536.101 522.36 534.805 521.424 534.397 519.768H543.877ZM534.349 517.44C534.709 515.712 535.909 514.752 537.541 514.752C539.173 514.752 540.277 515.784 540.613 517.44H534.349ZM549.175 512.352H545.815V525H549.367V518.04C549.367 516.36 550.639 515.376 552.799 515.376V512.04C551.311 512.04 550.039 512.664 549.175 513.576V512.352ZM348.23 557.24C350.61 557.24 352.13 556.02 352.13 554.24C352.13 552.52 351.23 551.64 348.79 550.98C346.65 550.4 346.01 550.08 346.01 549.02C346.01 548.04 346.85 547.48 348.23 547.48C349.45 547.48 350.27 547.94 350.59 548.96L351.89 548.62C351.47 547.02 350.21 546.24 348.27 546.24C346.05 546.24 344.55 547.42 344.55 549.14C344.55 550.74 345.43 551.56 347.83 552.22C350.07 552.84 350.67 553.28 350.67 554.32C350.67 555.42 349.73 556 348.27 556C346.59 556 345.79 555.24 345.47 554.18L344.11 554.6C344.53 556.14 345.79 557.24 348.23 557.24ZM363.281 552.04C363.301 551.84 363.301 551.62 363.301 551.16C363.301 548.24 361.521 546.24 358.721 546.24C356.041 546.24 353.841 548.5 353.841 551.78C353.841 555.18 355.901 557.24 358.761 557.24C360.841 557.24 362.261 556.28 363.101 554.64L361.981 553.96C361.281 555.32 360.361 555.94 358.861 555.94C356.981 555.94 355.581 554.54 355.461 552.04H363.281ZM355.541 550.74C355.841 548.78 357.121 547.54 358.741 547.54C360.501 547.54 361.621 548.74 361.761 550.74H355.541ZM371.574 557V555.64H370.314C368.774 555.64 368.174 554.82 368.174 553.36V547.76H371.414V546.46H368.214V543.48H366.714V545.5C366.714 546.32 366.574 546.46 365.774 546.46H364.374V547.76H366.594V553.5C366.594 555.66 367.814 557 370.034 557H371.574ZM376.902 557.24C379.282 557.24 380.802 556.02 380.802 554.24C380.802 552.52 379.902 551.64 377.462 550.98C375.322 550.4 374.682 550.08 374.682 549.02C374.682 548.04 375.522 547.48 376.902 547.48C378.122 547.48 378.942 547.94 379.262 548.96L380.562 548.62C380.142 547.02 378.882 546.24 376.942 546.24C374.722 546.24 373.222 547.42 373.222 549.14C373.222 550.74 374.102 551.56 376.502 552.22C378.742 552.84 379.342 553.28 379.342 554.32C379.342 555.42 378.402 556 376.942 556C375.262 556 374.462 555.24 374.142 554.18L372.782 554.6C373.202 556.14 374.462 557.24 376.902 557.24ZM395.818 548.44C395.038 547.06 393.738 546.24 392.118 546.24C389.438 546.24 387.318 548.6 387.318 551.76C387.318 555.04 389.398 557.24 392.118 557.24C393.698 557.24 394.998 556.4 395.778 555.04L395.938 557H397.278V546.46H395.858L395.818 548.44ZM392.338 555.92C390.418 555.92 388.938 554.18 388.938 551.74C388.938 549.3 390.418 547.56 392.338 547.56C394.318 547.56 395.758 549.3 395.758 551.74C395.758 554.18 394.318 555.92 392.338 555.92ZM416.803 546.22C415.203 546.22 413.863 547.06 413.283 548.42C412.723 547 411.503 546.22 410.043 546.22C408.623 546.22 407.463 546.94 406.843 548.14V546.46H405.343V557H406.923V551.08C406.923 548.96 408.003 547.6 409.563 547.6C411.223 547.58 412.163 548.8 412.163 551.18V557H413.743V551.12C413.743 549 414.843 547.6 416.383 547.6C418.063 547.58 419.003 548.8 419.003 551.18V557H420.563V550.7C420.563 547.86 419.083 546.22 416.803 546.22ZM431.463 548.44C430.683 547.06 429.383 546.24 427.763 546.24C425.083 546.24 422.963 548.6 422.963 551.76C422.963 555.04 425.043 557.24 427.763 557.24C429.343 557.24 430.643 556.4 431.423 555.04L431.583 557H432.923V546.46H431.503L431.463 548.44ZM427.983 555.92C426.063 555.92 424.583 554.18 424.583 551.74C424.583 549.3 426.063 547.56 427.983 547.56C429.963 547.56 431.403 549.3 431.403 551.74C431.403 554.18 429.963 555.92 427.983 555.92ZM440.583 551.64L444.143 546.46H442.443L439.702 550.7L436.803 546.46H435.003L438.603 551.6L434.823 557H436.523L439.483 552.54L442.523 557H444.323L440.583 551.64ZM450.02 552.62V551.32H444.94V552.62H450.02ZM462.312 555.4L459.652 546.46H457.872L455.252 555.4L452.892 546.46H451.272L454.312 557H456.132L458.732 548.2L461.352 557H463.132L466.152 546.46H464.612L462.312 555.4ZM468.994 544.22C469.614 544.22 470.094 543.78 470.094 543.14C470.094 542.5 469.614 542.04 468.994 542.04C468.354 542.04 467.874 542.5 467.874 543.14C467.874 543.78 468.354 544.22 468.994 544.22ZM469.774 557V546.46H468.194V557H469.774ZM480.698 548.3C479.918 547 478.638 546.24 477.098 546.24C474.418 546.24 472.298 548.6 472.298 551.76C472.298 555.04 474.378 557.24 477.098 557.24C478.698 557.24 480.018 556.38 480.798 554.96V557H482.258V542.38H480.698V548.3ZM477.318 555.92C475.398 555.92 473.918 554.18 473.918 551.74C473.918 549.3 475.398 547.56 477.318 547.56C479.298 547.56 480.738 549.3 480.738 551.74C480.738 554.18 479.298 555.92 477.318 555.92ZM491.378 557V555.64H490.118C488.578 555.64 487.978 554.82 487.978 553.36V547.76H491.218V546.46H488.018V543.48H486.518V545.5C486.518 546.32 486.378 546.46 485.578 546.46H484.178V547.76H486.398V553.5C486.398 555.66 487.618 557 489.838 557H491.378ZM498.486 546.22C496.966 546.22 495.726 546.94 495.066 548.16L495.086 542.38H493.526V557H495.086V551.12C495.086 549 496.286 547.64 498.006 547.64C499.786 547.62 500.786 548.84 500.786 551.22V557H502.366V550.7C502.366 547.86 500.866 546.22 498.486 546.22ZM515.387 543.42V542.14H514.607C512.127 542.14 510.847 543.8 510.847 546V546.46H508.887V547.76H510.847V557H512.407V547.76H515.267V546.46H512.367V545.92C512.367 544.18 513.247 543.42 514.747 543.42H515.387ZM521.167 557.24C524.027 557.24 526.227 554.88 526.227 551.74C526.227 548.42 524.107 546.24 521.167 546.24C518.287 546.24 516.107 548.6 516.107 551.74C516.107 555.06 518.207 557.24 521.167 557.24ZM521.187 555.94C519.187 555.94 517.727 554.2 517.727 551.74C517.727 549.28 519.187 547.54 521.187 547.54C523.167 547.54 524.607 549.28 524.607 551.74C524.607 554.2 523.167 555.94 521.187 555.94ZM530.181 546.46H528.741V557H530.321V551.46C530.321 549.06 531.701 547.72 533.821 547.7V546.22C531.961 546.22 530.701 547.32 530.181 548.86V546.46ZM545.539 557V555.64H544.279C542.739 555.64 542.139 554.82 542.139 553.36V547.76H545.379V546.46H542.179V543.48H540.679V545.5C540.679 546.32 540.539 546.46 539.739 546.46H538.339V547.76H540.559V553.5C540.559 555.66 541.779 557 543.999 557H545.539ZM552.646 546.22C551.126 546.22 549.886 546.94 549.226 548.16L549.246 542.38H547.686V557H549.246V551.12C549.246 549 550.446 547.64 552.166 547.64C553.946 547.62 554.946 548.84 554.946 551.22V557H556.526V550.7C556.526 547.86 555.026 546.22 552.646 546.22ZM568.36 552.04C568.38 551.84 568.38 551.62 568.38 551.16C568.38 548.24 566.6 546.24 563.8 546.24C561.12 546.24 558.92 548.5 558.92 551.78C558.92 555.18 560.98 557.24 563.84 557.24C565.92 557.24 567.34 556.28 568.18 554.64L567.06 553.96C566.36 555.32 565.44 555.94 563.94 555.94C562.06 555.94 560.66 554.54 560.54 552.04H568.36ZM560.62 550.74C560.92 548.78 562.2 547.54 563.82 547.54C565.58 547.54 566.7 548.74 566.84 550.74H560.62ZM579.954 557.24C582.254 557.24 583.754 555.88 584.254 554.08L582.914 553.64C582.474 555.1 581.454 555.96 579.974 555.96C577.934 555.96 576.634 554.26 576.634 551.76C576.634 549.24 577.934 547.52 580.014 547.52C581.414 547.52 582.494 548.48 582.894 549.96L584.274 549.52C583.774 547.64 582.314 546.24 579.954 546.24C576.974 546.24 575.014 548.64 575.014 551.76C575.014 554.96 576.954 557.24 579.954 557.24ZM590.952 557.24C593.812 557.24 596.012 554.88 596.012 551.74C596.012 548.42 593.892 546.24 590.952 546.24C588.072 546.24 585.892 548.6 585.892 551.74C585.892 555.06 587.992 557.24 590.952 557.24ZM590.972 555.94C588.972 555.94 587.512 554.2 587.512 551.74C587.512 549.28 588.972 547.54 590.972 547.54C592.952 547.54 594.392 549.28 594.392 551.74C594.392 554.2 592.952 555.94 590.972 555.94ZM603.506 546.22C601.946 546.22 600.646 546.98 600.006 548.28V546.46H598.526V557H600.106V551.18C600.106 548.96 601.306 547.62 603.026 547.62C604.806 547.6 605.806 548.8 605.806 551.18V557H607.386V550.7C607.386 547.88 605.886 546.22 603.506 546.22ZM616.183 557V555.64H614.923C613.383 555.64 612.783 554.82 612.783 553.36V547.76H616.023V546.46H612.823V543.48H611.323V545.5C611.323 546.32 611.183 546.46 610.383 546.46H608.983V547.76H611.203V553.5C611.203 555.66 612.423 557 614.643 557H616.183ZM626.836 552.04C626.856 551.84 626.856 551.62 626.856 551.16C626.856 548.24 625.076 546.24 622.276 546.24C619.596 546.24 617.396 548.5 617.396 551.78C617.396 555.18 619.456 557.24 622.316 557.24C624.396 557.24 625.816 556.28 626.656 554.64L625.536 553.96C624.836 555.32 623.916 555.94 622.416 555.94C620.536 555.94 619.136 554.54 619.016 552.04H626.836ZM619.096 550.74C619.396 548.78 620.676 547.54 622.296 547.54C624.056 547.54 625.176 548.74 625.316 550.74H619.096ZM634.366 546.22C632.806 546.22 631.506 546.98 630.866 548.28V546.46H629.386V557H630.966V551.18C630.966 548.96 632.166 547.62 633.886 547.62C635.666 547.6 636.666 548.8 636.666 551.18V557H638.246V550.7C638.246 547.88 636.746 546.22 634.366 546.22ZM647.043 557V555.64H645.783C644.243 555.64 643.643 554.82 643.643 553.36V547.76H646.883V546.46H643.683V543.48H642.183V545.5C642.183 546.32 642.043 546.46 641.243 546.46H639.843V547.76H642.062V553.5C642.062 555.66 643.283 557 645.503 557H647.043Z" fill="#000D6E"/>
<path fill-rule="evenodd" clip-rule="evenodd" d="M133.351 27.5217C133.351 25.4706 135.09 24 137.118 24C139.146 24 140.727 25.4706 140.727 27.5217C140.727 29.5727 139.146 31.0095 137.118 31.0095C135.09 31.0095 133.351 29.5732 133.351 27.5217ZM134.231 33.4365H139.97V51.4547H134.231V33.4365ZM103.59 26.462H109.33V51.4541H103.59V26.462ZM69.3558 51.8995C74.6142 51.8995 78.3602 47.8647 78.3602 42.4631C78.3602 37.0609 74.7175 33.0266 69.4915 33.0272C67.5342 33.0272 65.8845 33.6081 64.5786 34.7022V26.4626H58.839V51.4547H64.132V49.9163C65.4378 51.1814 67.1908 51.8995 69.3558 51.8995ZM68.5312 38.02C70.9368 38.02 72.6893 39.8989 72.6893 42.4631C72.6893 45.0272 70.9368 46.8733 68.5312 46.8733C66.0224 46.8733 64.3034 45.0611 64.3034 42.4631C64.3034 39.8317 65.9877 38.02 68.5312 38.02ZM99.8057 51.4547V33.4365H94.5127V35.317C93.2409 34.0524 91.522 33.3682 89.2889 33.3682C84.0305 33.3682 80.2498 37.0614 80.2498 42.4631C80.2498 47.8647 84.0305 51.8995 89.2889 51.8995C91.5226 51.8995 93.2409 51.1464 94.5127 49.8135V51.4547H99.8057ZM90.114 38.02C92.6229 38.02 94.3072 39.83 94.3072 42.4631C94.3072 45.0617 92.6224 46.8733 90.114 46.8733C87.6744 46.8733 85.9554 45.0256 85.9554 42.4631C85.9554 39.9005 87.7084 38.02 90.114 38.02ZM121.74 33.0266C115.967 33.0266 111.842 37.0609 111.842 42.463C111.842 47.8308 115.968 51.8995 121.74 51.8995C127.549 51.8995 131.673 47.8308 131.673 42.463C131.673 37.0609 127.546 33.0266 121.74 33.0266ZM121.774 38.0867C124.283 38.0867 125.899 39.8644 125.899 42.4286C125.899 45.0272 124.249 46.8389 121.774 46.8394C119.266 46.8394 117.616 44.9928 117.616 42.463C117.616 39.8639 119.266 38.0867 121.774 38.0867ZM147.05 45.2666L142.307 47.0788C143.373 50.2267 146.294 51.8995 150.382 51.8962C155.159 51.8962 158.183 49.6397 158.183 45.9125C158.183 41.823 154.59 40.8788 151.834 40.1549C150.121 39.7047 148.732 39.3397 148.732 38.3566C148.732 37.6046 149.316 37.1603 150.484 37.1603C151.687 37.1603 152.547 37.7412 152.959 38.8697L157.705 37.0231C156.983 34.4945 154.302 33.0244 150.59 33.0244C146.019 33.0244 143.132 35.1465 143.132 38.6337C143.132 42.3232 146.492 43.3268 149.205 44.1373C151.043 44.6862 152.584 45.1465 152.584 46.2924C152.584 47.1127 151.896 47.6253 150.59 47.6253C148.734 47.6253 147.531 46.7711 147.05 45.2666ZM178.6 42.0871C178.6 37.644 175.094 32.9922 169.183 32.9922C163.959 32.9922 159.766 37.2686 159.766 42.463C159.766 47.8308 163.546 51.8995 169.527 51.8995C173.473 51.8995 175.804 50.3867 177.201 48.6616L173.901 45.3716C172.87 46.6401 171.726 47.2493 169.698 47.2493C167.533 47.2493 165.918 46.1552 165.334 44.1392H178.462C178.557 43.4593 178.603 42.7735 178.6 42.0871ZM165.264 40.5825C165.746 38.3943 167.223 37.2658 169.32 37.2658C171.416 37.2658 172.791 38.531 173.272 40.5825H165.264ZM37.7228 25.0236L52.1352 39.3613C52.2611 39.4866 52.3609 39.6354 52.4289 39.7991C52.497 39.9628 52.5319 40.1383 52.5318 40.3155C52.5316 40.4926 52.4964 40.668 52.428 40.8316C52.3597 40.9953 52.2596 41.1439 52.1335 41.269L48.2256 45.1566L36.7648 33.7552L30.1715 40.3143L36.7648 46.8733L40.8525 42.8063L45.7206 47.6486L37.7256 55.605C37.5997 55.7302 37.4503 55.8296 37.2859 55.8973C37.1215 55.9651 36.9453 56 36.7673 56C36.5893 56 36.4131 55.9651 36.2486 55.8973C36.0842 55.8296 35.9348 55.7302 35.809 55.605L21.3965 41.2673C21.1426 41.0145 21 40.6717 21 40.3143C21 39.9569 21.1426 39.6141 21.3965 39.3613L35.8062 25.0236C35.932 24.8983 36.0814 24.799 36.2458 24.7312C36.4103 24.6635 36.5865 24.6286 36.7645 24.6286C36.9425 24.6286 37.1187 24.6635 37.2831 24.7312C37.4475 24.799 37.5969 24.8983 37.7228 25.0236Z" fill="white"/>
</svg>
