<svg width="471" height="483" viewBox="0 0 471 483" fill="none" xmlns="http://www.w3.org/2000/svg">
<path d="M401.77 253C400.118 253.014 398.482 252.673 396.974 251.998C395.466 251.323 394.121 250.331 393.03 249.09C391.953 247.881 391.148 246.454 390.672 244.906C390.196 243.358 390.059 241.726 390.27 240.12C390.391 238.666 390.391 237.204 390.27 235.75C390.27 225.075 386.03 214.837 378.481 207.289C370.933 199.741 360.695 195.5 350.02 195.5C339.345 195.5 329.107 199.741 321.559 207.289C314.011 214.837 309.77 225.075 309.77 235.75C309.65 237.204 309.65 238.666 309.77 240.12C309.982 241.726 309.845 243.358 309.368 244.906C308.892 246.454 308.088 247.881 307.01 249.09C305.92 250.331 304.575 251.323 303.066 251.998C301.558 252.673 299.922 253.014 298.27 253H258.25C255.2 253 252.275 254.212 250.118 256.368C247.962 258.525 246.75 261.45 246.75 264.5V289.57C246.737 292.129 247.595 294.616 249.184 296.623C250.772 298.629 252.996 300.036 255.49 300.61C269.436 303.818 281.882 311.661 290.795 322.857C299.707 334.052 304.56 347.94 304.56 362.25C304.56 376.56 299.707 390.448 290.795 401.643C281.882 412.839 269.436 420.682 255.49 423.89C252.996 424.464 250.772 425.871 249.184 427.877C247.595 429.884 246.737 432.371 246.75 434.93V471.5C246.75 474.55 247.962 477.475 250.118 479.632C252.275 481.788 255.2 483 258.25 483H448C454.1 483 459.95 480.577 464.264 476.263C468.577 471.95 471 466.1 471 460V264.5C471 261.45 469.789 258.525 467.632 256.368C465.475 254.212 462.55 253 459.5 253H401.77Z" fill="#FFBE19"/>
<path d="M448.001 0C454.101 0 459.951 2.423 464.265 6.73633C468.578 11.0497 471.001 16.9 471.001 23V218.27C471.001 221.319 469.789 224.245 467.633 226.401C465.476 228.558 462.551 229.77 459.501 229.77H422.701C420.142 229.783 417.655 228.924 415.648 227.336C413.642 225.748 412.236 223.524 411.661 221.03C408.453 207.084 400.61 194.638 389.414 185.726C378.218 176.813 364.331 171.96 350.021 171.96C335.71 171.96 321.824 176.813 310.628 185.726C299.432 194.638 291.589 207.084 288.381 221.03C287.806 223.524 286.4 225.748 284.394 227.336C282.387 228.924 279.9 229.783 277.341 229.77H258.021C254.971 229.769 252.046 228.558 249.89 226.401C247.733 224.245 246.521 221.32 246.521 218.27V172.27C246.535 170.617 246.193 168.982 245.519 167.474C244.844 165.966 243.852 164.621 242.611 163.53C241.446 162.458 240.058 161.655 238.548 161.178C237.038 160.701 235.441 160.561 233.871 160.77C228.255 161.372 222.575 160.787 217.2 159.051C211.826 157.314 206.876 154.466 202.675 150.691C198.473 146.917 195.114 142.3 192.813 137.142C190.513 131.983 189.324 126.398 189.324 120.75C189.324 115.102 190.513 109.517 192.813 104.358C195.114 99.2 198.473 94.5832 202.675 90.8086C206.876 87.034 211.826 84.1856 217.2 82.4492C222.575 80.7128 228.255 80.1275 233.871 80.7305C235.477 80.9419 237.109 80.8044 238.657 80.3281C240.205 79.8518 241.632 79.0472 242.841 77.9697C244.082 76.8793 245.074 75.5345 245.749 74.0264C246.424 72.5183 246.765 70.8825 246.751 69.2305V11.5C246.751 8.45001 247.962 5.52483 250.119 3.36816C252.276 1.2115 255.201 0 258.251 0H448.001Z" fill="#B24A00"/>
<path d="M224.255 0V51.75C224.228 53.1159 223.734 54.4314 222.855 55.4775C221.977 56.5237 220.766 57.2375 219.425 57.5C204.494 59.4477 190.748 66.6585 180.658 77.835C170.568 89.0114 164.797 103.42 164.381 118.472C163.965 133.523 168.932 148.23 178.39 159.946C187.847 171.663 201.174 179.621 215.975 182.39C218.468 182.964 220.693 184.371 222.281 186.377C223.87 188.383 224.728 190.871 224.715 193.43V218.5C224.715 221.55 223.503 224.475 221.347 226.632C219.19 228.788 216.265 230 213.215 230H178.485C176.833 229.986 175.197 230.327 173.688 231.002C172.18 231.677 170.836 232.669 169.745 233.91C168.668 235.119 167.863 236.546 167.387 238.094C166.91 239.642 166.774 241.274 166.985 242.88C167.106 244.334 167.106 245.796 166.985 247.25C166.985 257.925 162.745 268.163 155.196 275.711C147.648 283.259 137.41 287.5 126.735 287.5C116.06 287.5 105.823 283.259 98.2744 275.711C90.7261 268.163 86.4854 257.925 86.4854 247.25C86.3648 245.796 86.3648 244.334 86.4854 242.88C86.6968 241.274 86.5593 239.642 86.083 238.094C85.6067 236.546 84.8021 235.119 83.7246 233.91C82.6342 232.669 81.2894 231.677 79.7812 231.002C78.2732 230.327 76.6374 229.986 74.9854 230H11.5049C8.45494 230 5.52969 228.788 3.37305 226.632C1.21642 224.475 0.00488281 221.55 0.00488281 218.5V180H0V64H0.0556641C0.023114 63.7526 0.00488281 63.5023 0.00488281 63.25V23C0.00488281 16.9 2.42791 11.0497 6.74121 6.73633C11.0545 2.42302 16.9049 3.20438e-05 23.0049 0H224.255Z" fill="#FFBE19"/>
<path d="M53.5898 253C56.1488 252.987 58.6362 253.845 60.6426 255.434C62.6491 257.022 64.0554 259.247 64.6299 261.74C67.8381 275.686 75.6811 288.132 86.877 297.045C98.0726 305.958 111.96 310.811 126.27 310.811C140.58 310.811 154.467 305.958 165.663 297.045C176.859 288.132 184.702 275.686 187.91 261.74C188.485 259.247 189.891 257.022 191.897 255.434C193.904 253.845 196.391 252.987 198.95 253H212.52C215.569 253 218.495 254.212 220.651 256.368C222.808 258.525 224.019 261.45 224.02 264.5V310.96C224.005 312.612 224.348 314.249 225.022 315.757C225.697 317.265 226.689 318.61 227.93 319.7C230.444 321.758 233.664 322.749 236.9 322.46C242.516 321.857 248.196 322.444 253.57 324.18C258.945 325.916 263.894 328.764 268.096 332.538C272.297 336.313 275.658 340.93 277.958 346.089C280.258 351.247 281.446 356.833 281.446 362.481C281.446 368.129 280.258 373.714 277.958 378.872C275.658 384.031 272.297 388.647 268.096 392.422C263.894 396.197 258.945 399.045 253.57 400.781C248.196 402.518 242.516 403.103 236.9 402.5C235.347 402.261 233.76 402.364 232.251 402.801C230.742 403.238 229.346 403.999 228.16 405.03C226.919 406.121 225.927 407.466 225.252 408.974C224.577 410.482 224.236 412.118 224.25 413.771V483H23C16.9 483 11.0497 480.577 6.73633 476.264C2.42304 471.95 0 466.1 0 460V264.5C3.92104e-05 261.45 1.21153 258.525 3.36816 256.368C5.52483 254.212 8.45004 253 11.5 253H53.5898Z" fill="#FFBE19"/>
</svg>
