<svg width="67" height="54" viewBox="0 0 67 54" fill="none" xmlns="http://www.w3.org/2000/svg">
<path d="M16.1968 0C15.4801 0 14.7927 0.284709 14.286 0.791496C13.7792 1.29828 13.4945 1.98563 13.4945 2.70234V16.2681C13.4978 16.6563 13.4175 17.0407 13.259 17.3951C13.1004 17.7495 12.8674 18.0656 12.5757 18.3218C12.2916 18.575 11.9562 18.764 11.5925 18.876C11.2287 18.9879 10.8452 19.0201 10.4678 18.9704C9.14819 18.8287 7.81349 18.9664 6.55053 19.3744C5.28756 19.7824 4.1246 20.4517 3.13728 21.3387C2.14996 22.2256 1.36037 23.3105 0.819853 24.5227C0.279338 25.7349 0 27.0473 0 28.3745C0 29.7018 0.279338 31.0141 0.819853 32.2263C1.36037 33.4385 2.14996 34.5234 3.13728 35.4104C4.1246 36.2974 5.28756 36.9666 6.55053 37.3747C7.81349 37.7827 9.14819 37.9203 10.4678 37.7786C10.8368 37.7297 11.212 37.7624 11.5669 37.8745C11.9218 37.9866 12.2477 38.1752 12.5216 38.4272C12.8133 38.6834 13.0464 38.9995 13.2049 39.3539C13.3635 39.7083 13.4438 40.0927 13.4404 40.481V51.2903C13.4404 52.007 13.7251 52.6944 14.2319 53.2012C14.7387 53.7079 15.426 53.9927 16.1428 53.9927H20.6827C21.284 53.9957 21.8685 53.794 22.34 53.4208C22.8115 53.0475 23.1419 52.5249 23.2769 51.9389C24.0308 48.6618 25.8737 45.7372 28.5046 43.6428C31.1354 41.5485 34.3987 40.4081 37.7614 40.4081C41.1241 40.4081 44.3875 41.5485 47.0183 43.6428C49.6492 45.7372 51.4921 48.6618 52.246 51.9389C52.3809 52.5249 52.7114 53.0475 53.1829 53.4208C53.6544 53.794 54.2388 53.9957 54.8402 53.9927H63.4877C64.2044 53.9927 64.8917 53.7079 65.3985 53.2012C65.9053 52.6944 66.19 52.007 66.19 51.2903V5.40467C66.19 3.97126 65.6206 2.59656 64.607 1.58299C63.5934 0.569419 62.2187 0 60.7853 0H51.3272C50.9688 0 50.6251 0.142355 50.3717 0.395748C50.1183 0.649141 49.976 0.992816 49.976 1.35117C49.976 4.57633 48.6948 7.66941 46.4143 9.94995C44.1337 12.2305 41.0406 13.5117 37.8155 13.5117C34.5903 13.5117 31.4972 12.2305 29.2167 9.94995C26.9362 7.66941 25.655 4.57633 25.655 1.35117C25.6437 0.993186 25.5102 0.649857 25.2766 0.378327C25.0051 0.14477 24.6618 0.0112523 24.3038 0H16.1968Z" fill="#BE82FA"/>
</svg>
