<svg width="529" height="483" viewBox="0 0 529 483" fill="none" xmlns="http://www.w3.org/2000/svg">
<path d="M63.2501 172.5C62.4863 172.467 61.7241 172.594 61.0118 172.871C60.2994 173.149 59.6525 173.571 59.1119 174.112C58.5713 174.652 58.1489 175.299 57.8715 176.012C57.594 176.724 57.4676 177.486 57.5001 178.25V218.5C57.5001 221.55 58.7117 224.475 60.8684 226.632C63.0251 228.788 65.9501 230 69.0001 230H132.48C134.132 229.986 135.768 230.327 137.276 231.002C138.785 231.677 140.13 232.669 141.22 233.91C142.298 235.119 143.102 236.546 143.578 238.094C144.055 239.642 144.192 241.274 143.98 242.88C143.86 244.334 143.86 245.796 143.98 247.25C143.98 257.925 148.221 268.163 155.769 275.711C163.317 283.259 173.555 287.5 184.23 287.5C194.905 287.5 205.143 283.259 212.691 275.711C220.239 268.163 224.48 257.925 224.48 247.25C224.601 245.796 224.601 244.334 224.48 242.88C224.269 241.274 224.406 239.642 224.882 238.094C225.358 236.546 226.163 235.119 227.24 233.91C228.331 232.669 229.676 231.677 231.184 231.002C232.692 230.327 234.328 229.986 235.98 230H270.71C273.76 230 276.685 228.788 278.842 226.632C280.999 224.475 282.21 221.55 282.21 218.5V193.43C282.223 190.871 281.365 188.384 279.776 186.377C278.188 184.371 275.964 182.964 273.47 182.39C258.67 179.621 245.342 171.663 235.885 159.946C226.427 148.23 221.46 133.524 221.875 118.472C222.291 103.421 228.063 89.011 238.153 77.8345C248.243 66.6579 261.989 59.4476 276.92 57.5C278.261 57.2375 279.471 56.5238 280.35 55.4777C281.229 54.4315 281.723 53.116 281.75 51.75V0H80.5001C74.4001 0 68.55 2.42321 64.2367 6.73654C59.9233 11.0499 57.5001 16.9 57.5001 23V63.25C57.5001 64.775 58.1059 66.2375 59.1843 67.3159C60.2626 68.3942 61.7251 69 63.2501 69C76.9751 69 90.1379 74.4522 99.8429 84.1572C109.548 93.8622 115 107.025 115 120.75C115 134.475 109.548 147.638 99.8429 157.343C90.1379 167.048 76.9751 172.5 63.2501 172.5Z" fill="#94E3D4"/>
<path d="M281.75 413.77C281.736 412.118 282.077 410.482 282.752 408.974C283.427 407.465 284.419 406.12 285.66 405.03C286.845 403.998 288.241 403.238 289.751 402.801C291.26 402.364 292.847 402.261 294.4 402.5C300.016 403.103 305.696 402.517 311.07 400.781C316.445 399.044 321.394 396.196 325.596 392.422C329.797 388.647 333.158 384.03 335.458 378.872C337.758 373.713 338.947 368.128 338.947 362.48C338.947 356.832 337.758 351.247 335.458 346.088C333.158 340.93 329.797 336.313 325.596 332.538C321.394 328.764 316.445 325.916 311.07 324.179C305.696 322.443 300.016 321.857 294.4 322.46C291.164 322.749 287.944 321.758 285.43 319.7C284.189 318.61 283.197 317.264 282.522 315.756C281.847 314.248 281.506 312.612 281.52 310.96V264.5C281.52 261.45 280.308 258.525 278.152 256.368C275.995 254.212 273.07 253 270.02 253H256.45C253.891 252.987 251.404 253.845 249.397 255.434C247.391 257.022 245.984 259.246 245.41 261.74C242.202 275.686 234.359 288.132 223.163 297.045C211.968 305.957 198.08 310.81 183.77 310.81C169.46 310.81 155.572 305.957 144.377 297.045C133.181 288.132 125.338 275.686 122.13 261.74C121.556 259.246 120.149 257.022 118.143 255.434C116.136 253.845 113.649 252.987 111.09 253H69C65.95 253 63.0249 254.212 60.8683 256.368C58.7116 258.525 57.5 261.45 57.5 264.5V304.75C57.5 306.275 56.8942 307.738 55.8159 308.816C54.7375 309.894 53.275 310.5 51.75 310.5C38.025 310.5 24.8622 315.952 15.1572 325.657C5.45222 335.362 0 348.525 0 362.25C0 375.975 5.45222 389.138 15.1572 398.843C24.8622 408.548 38.025 414 51.75 414C53.2734 414.048 54.7345 414.616 55.89 415.61C56.8839 416.765 57.4521 418.227 57.5 419.75V460C57.5 466.1 59.9232 471.95 64.2365 476.263C68.5499 480.577 74.4 483 80.5 483H281.75V413.77Z" fill="#FAE052"/>
<path d="M316.25 0C313.2 0 310.275 1.2116 308.118 3.36827C305.962 5.52494 304.75 8.45001 304.75 11.5V69.23C304.764 70.8822 304.423 72.5181 303.748 74.0263C303.073 75.5345 302.081 76.8796 300.84 77.97C299.631 79.0475 298.204 79.8518 296.656 80.3281C295.108 80.8044 293.476 80.9415 291.87 80.73C286.254 80.1271 280.574 80.7128 275.2 82.4492C269.825 84.1855 264.876 87.0337 260.674 90.8083C256.473 94.583 253.112 99.1997 250.812 104.358C248.512 109.517 247.323 115.102 247.323 120.75C247.323 126.398 248.512 131.983 250.812 137.142C253.112 142.3 256.473 146.917 260.674 150.692C264.876 154.466 269.825 157.314 275.2 159.051C280.574 160.787 286.254 161.373 291.87 160.77C293.44 160.562 295.037 160.701 296.547 161.178C298.057 161.655 299.444 162.458 300.61 163.53C301.851 164.62 302.843 165.966 303.518 167.474C304.193 168.982 304.534 170.618 304.52 172.27V218.27C304.52 221.32 305.732 224.245 307.888 226.402C310.045 228.558 312.97 229.77 316.02 229.77H335.34C337.899 229.783 340.386 228.925 342.393 227.336C344.399 225.748 345.806 223.524 346.38 221.03C349.588 207.084 357.431 194.638 368.627 185.725C379.822 176.813 393.71 171.96 408.02 171.96C422.33 171.96 436.218 176.813 447.413 185.725C458.609 194.638 466.452 207.084 469.66 221.03C470.234 223.524 471.641 225.748 473.647 227.336C475.654 228.925 478.141 229.783 480.7 229.77H517.5C520.55 229.77 523.475 228.558 525.632 226.402C527.788 224.245 529 221.32 529 218.27V23C529 16.9 526.577 11.0499 522.263 6.73654C517.95 2.42321 512.1 0 506 0H465.75C464.225 0 462.762 0.605803 461.684 1.68414C460.606 2.76247 460 4.22501 460 5.75C460 19.475 454.548 32.6378 444.843 42.3428C435.138 52.0478 421.975 57.5 408.25 57.5C394.525 57.5 381.362 52.0478 371.657 42.3428C361.952 32.6378 356.5 19.475 356.5 5.75C356.452 4.22658 355.884 2.76552 354.89 1.61C353.734 0.616079 352.273 0.0478852 350.75 0H316.25Z" fill="#B8B2FF"/>
<path d="M459.77 253C458.118 253.014 456.482 252.673 454.974 251.998C453.466 251.323 452.121 250.331 451.03 249.09C449.953 247.881 449.148 246.454 448.672 244.906C448.196 243.358 448.059 241.726 448.27 240.12C448.391 238.666 448.391 237.204 448.27 235.75C448.27 225.075 444.03 214.837 436.481 207.289C428.933 199.741 418.695 195.5 408.02 195.5C397.345 195.5 387.107 199.741 379.559 207.289C372.011 214.837 367.77 225.075 367.77 235.75C367.65 237.204 367.65 238.666 367.77 240.12C367.982 241.726 367.845 243.358 367.368 244.906C366.892 246.454 366.088 247.881 365.01 249.09C363.92 250.331 362.575 251.323 361.066 251.998C359.558 252.673 357.922 253.014 356.27 253H316.25C313.2 253 310.275 254.212 308.118 256.368C305.962 258.525 304.75 261.45 304.75 264.5V289.57C304.737 292.129 305.595 294.616 307.184 296.623C308.772 298.629 310.996 300.036 313.49 300.61C327.436 303.818 339.882 311.661 348.795 322.857C357.707 334.052 362.56 347.94 362.56 362.25C362.56 376.56 357.707 390.448 348.795 401.643C339.882 412.839 327.436 420.682 313.49 423.89C310.996 424.464 308.772 425.871 307.184 427.877C305.595 429.884 304.737 432.371 304.75 434.93V471.5C304.75 474.55 305.962 477.475 308.118 479.632C310.275 481.788 313.2 483 316.25 483H506C512.1 483 517.95 480.577 522.264 476.263C526.577 471.95 529 466.1 529 460V264.5C529 261.45 527.789 258.525 525.632 256.368C523.475 254.212 520.55 253 517.5 253H459.77Z" fill="url(#paint0_linear_806_2)"/>
<defs>
<linearGradient id="paint0_linear_806_2" x1="364.5" y1="248" x2="529.5" y2="490.5" gradientUnits="userSpaceOnUse">
<stop stop-color="#FF5970"/>
<stop offset="1" stop-color="#D9304C"/>
</linearGradient>
</defs>
</svg>
