<svg width="80" height="55" viewBox="0 0 80 55" fill="none" xmlns="http://www.w3.org/2000/svg">
<path d="M66.5001 37.9458C66.4967 37.5559 66.5774 37.1697 66.7367 36.8138C66.8959 36.4578 67.13 36.1403 67.423 35.883C67.7028 35.6395 68.0323 35.4599 68.3885 35.3568C68.7448 35.2536 69.1193 35.2294 69.4858 35.2858C70.8113 35.4281 72.1519 35.2899 73.4205 34.88C74.6891 34.4702 75.8571 33.798 76.8488 32.9071C77.8405 32.0162 78.6336 30.9265 79.1765 29.7089C79.7194 28.4914 80 27.1732 80 25.8401C80 24.507 79.7194 23.1888 79.1765 21.9712C78.6336 20.7537 77.8405 19.664 76.8488 18.7731C75.8571 17.8822 74.6891 17.2099 73.4205 16.8001C72.1519 16.3903 70.8113 16.252 69.4858 16.3944C68.7221 16.4625 67.962 16.2286 67.3687 15.7429C67.0757 15.4856 66.8416 15.1681 66.6824 14.8121C66.5231 14.4561 66.4424 14.07 66.4458 13.6801V2.71433C66.4458 1.99445 66.1599 1.30406 65.6508 0.79503C65.1418 0.286002 64.4514 3.47883e-05 63.7315 3.47883e-05H60.5287C59.9247 -0.0030532 59.3376 0.199522 58.864 0.574439C58.3904 0.949357 58.0586 1.47429 57.923 2.0629C57.1657 5.3545 55.3147 8.29204 52.6722 10.3957C50.0297 12.4993 46.7519 13.6447 43.3744 13.6447C39.9968 13.6447 36.719 12.4993 34.0765 10.3957C31.434 8.29204 29.583 5.3545 28.8258 2.0629C28.6902 1.47429 28.3583 0.949357 27.8847 0.574439C27.4111 0.199522 26.8241 -0.0030532 26.22 3.47883e-05H16.2857C15.5659 3.47883e-05 14.8755 0.286002 14.3665 0.79503C13.8574 1.30406 13.5715 1.99445 13.5715 2.71433V12.2143C13.5715 12.5743 13.4285 12.9195 13.174 13.174C12.9194 13.4285 12.5742 13.5715 12.2143 13.5715C8.97487 13.5715 5.86811 14.8584 3.57749 17.149C1.28686 19.4396 0 22.5464 0 25.7858C0 29.0252 1.28686 32.132 3.57749 34.4226C5.86811 36.7132 8.97487 38.0001 12.2143 38.0001C12.5739 38.0114 12.9187 38.1455 13.1915 38.3801C13.426 38.6528 13.5602 38.9977 13.5715 39.3572V48.8573C13.5715 50.297 14.1434 51.6778 15.1614 52.6959C16.1795 53.7139 17.5603 54.2858 19 54.2858H66.5001V37.9458Z" fill="#FFBE19"/>
</svg>
