<svg width="80" height="80" viewBox="0 0 80 80" fill="none" xmlns="http://www.w3.org/2000/svg">
<path d="M66.5001 50.9458C66.4967 50.5559 66.5774 50.1697 66.7367 49.8138C66.8959 49.4578 67.13 49.1403 67.423 48.883C67.7028 48.6395 68.0323 48.4599 68.3885 48.3568C68.7448 48.2536 69.1193 48.2294 69.4858 48.2858C70.8113 48.4281 72.1519 48.2899 73.4205 47.88C74.6891 47.4702 75.8571 46.798 76.8488 45.9071C77.8405 45.0162 78.6336 43.9265 79.1765 42.7089C79.7194 41.4914 80 40.1732 80 38.8401C80 37.507 79.7194 36.1888 79.1765 34.9712C78.6336 33.7537 77.8405 32.664 76.8488 31.7731C75.8571 30.8822 74.6891 30.2099 73.4205 29.8001C72.1519 29.3903 70.8113 29.252 69.4858 29.3944C68.7221 29.4625 67.962 29.2286 67.3687 28.7429C67.0757 28.4856 66.8416 28.1681 66.6824 27.8121C66.5231 27.4561 66.4424 27.07 66.4458 26.6801V15.7143C66.4458 14.9945 66.1599 14.3041 65.6508 13.795C65.1418 13.286 64.4514 13 63.7315 13H60.5287C59.9247 12.9969 59.3376 13.1995 58.864 13.5744C58.3904 13.9494 58.0586 14.4743 57.923 15.0629C57.1657 18.3545 55.3147 21.292 52.6722 23.3957C50.0297 25.4993 46.7519 26.6447 43.3744 26.6447C39.9968 26.6447 36.719 25.4993 34.0765 23.3957C31.434 21.292 29.583 18.3545 28.8258 15.0629C28.6902 14.4743 28.3583 13.9494 27.8847 13.5744C27.4111 13.1995 26.8241 12.9969 26.22 13H16.2857C15.5659 13 14.8755 13.286 14.3665 13.795C13.8574 14.3041 13.5715 14.9945 13.5715 15.7143V25.2143C13.5715 25.5743 13.4285 25.9195 13.174 26.174C12.9194 26.4285 12.5742 26.5715 12.2143 26.5715C8.97487 26.5715 5.86811 27.8584 3.57749 30.149C1.28686 32.4396 0 35.5464 0 38.7858C0 42.0252 1.28686 45.132 3.57749 47.4226C5.86811 49.7132 8.97487 51.0001 12.2143 51.0001C12.5739 51.0114 12.9187 51.1455 13.1915 51.3801C13.426 51.6528 13.5602 51.9977 13.5715 52.3572V61.8573C13.5715 63.297 14.1434 64.6778 15.1614 65.6959C16.1795 66.7139 17.5603 67.2858 19 67.2858H66.5001V50.9458Z" fill="#FFF9E8"/>
</svg>
