<svg width="80" height="80" viewBox="0 0 80 80" fill="none" xmlns="http://www.w3.org/2000/svg">
<path d="M23.1968 13C22.4801 13 21.7927 13.2847 21.286 13.7915C20.7792 14.2983 20.4945 14.9856 20.4945 15.7023V29.2681C20.4978 29.6563 20.4175 30.0407 20.259 30.3951C20.1004 30.7495 19.8674 31.0656 19.5757 31.3218C19.2916 31.575 18.9562 31.764 18.5925 31.876C18.2287 31.9879 17.8452 32.0201 17.4678 31.9704C16.1482 31.8287 14.8135 31.9664 13.5505 32.3744C12.2876 32.7824 11.1246 33.4517 10.1373 34.3387C9.14996 35.2256 8.36037 36.3105 7.81985 37.5227C7.27934 38.7349 7 40.0473 7 41.3745C7 42.7018 7.27934 44.0141 7.81985 45.2263C8.36037 46.4385 9.14996 47.5234 10.1373 48.4104C11.1246 49.2974 12.2876 49.9666 13.5505 50.3747C14.8135 50.7827 16.1482 50.9203 17.4678 50.7786C17.8368 50.7297 18.212 50.7624 18.5669 50.8745C18.9218 50.9866 19.2477 51.1752 19.5216 51.4272C19.8133 51.6834 20.0464 51.9995 20.2049 52.3539C20.3635 52.7083 20.4438 53.0927 20.4404 53.481V64.2903C20.4404 65.007 20.7251 65.6944 21.2319 66.2012C21.7387 66.7079 22.426 66.9927 23.1428 66.9927H27.6827C28.284 66.9957 28.8685 66.794 29.34 66.4208C29.8115 66.0475 30.1419 65.5249 30.2769 64.9389C31.0308 61.6618 32.8737 58.7372 35.5046 56.6428C38.1354 54.5485 41.3987 53.4081 44.7614 53.4081C48.1241 53.4081 51.3875 54.5485 54.0183 56.6428C56.6492 58.7372 58.4921 61.6618 59.246 64.9389C59.3809 65.5249 59.7114 66.0475 60.1829 66.4208C60.6544 66.794 61.2388 66.9957 61.8402 66.9927H70.4877C71.2044 66.9927 71.8917 66.7079 72.3985 66.2012C72.9053 65.6944 73.19 65.007 73.19 64.2903V18.4047C73.19 16.9713 72.6206 15.5966 71.607 14.583C70.5934 13.5694 69.2187 13 67.7853 13H58.3272C57.9688 13 57.6251 13.1424 57.3717 13.3957C57.1183 13.6491 56.976 13.9928 56.976 14.3512C56.976 17.5763 55.6948 20.6694 53.4143 22.9499C51.1337 25.2305 48.0406 26.5117 44.8155 26.5117C41.5903 26.5117 38.4972 25.2305 36.2167 22.9499C33.9362 20.6694 32.655 17.5763 32.655 14.3512C32.6437 13.9932 32.5102 13.6499 32.2766 13.3783C32.0051 13.1448 31.6618 13.0113 31.3038 13H23.1968Z" fill="#F9F3FF"/>
</svg>
