<svg width="80" height="80" viewBox="0 0 80 80" fill="none" xmlns="http://www.w3.org/2000/svg">
<path d="M15.3525 46.539C15.173 46.5313 14.9939 46.5611 14.8264 46.6263C14.659 46.6915 14.507 46.7907 14.38 46.9178C14.2529 47.0448 14.1537 47.1968 14.0884 47.3643C14.0232 47.5317 13.9935 47.7108 14.0012 47.8903V57.3494C14.0012 58.0662 14.2859 58.7536 14.7927 59.2604C15.2996 59.7673 15.987 60.052 16.7038 60.052H31.6221C32.0104 60.0486 32.3948 60.1289 32.7493 60.2875C33.1037 60.4461 33.4198 60.6791 33.6761 60.9709C33.9293 61.255 34.1183 61.5904 34.2303 61.9542C34.3422 62.3179 34.3744 62.7016 34.3247 63.0789C34.2964 63.4206 34.2964 63.7641 34.3247 64.1059C34.3247 66.6146 35.3213 69.0206 37.0952 70.7945C38.8691 72.5684 41.2751 73.565 43.7838 73.565C46.2925 73.565 48.6985 72.5684 50.4724 70.7945C52.2463 69.0206 53.2429 66.6146 53.2429 64.1059C53.2712 63.7641 53.2712 63.4206 53.2429 63.0789C53.1932 62.7016 53.2254 62.3179 53.3374 61.9542C53.4493 61.5904 53.6383 61.255 53.8915 60.9709C54.1478 60.6791 54.4639 60.4461 54.8183 60.2875C55.1728 60.1289 55.5572 60.0486 55.9455 60.052H64.1074C64.8241 60.052 65.5116 59.7673 66.0184 59.2604C66.5252 58.7536 66.81 58.0662 66.81 57.3494V51.4577C66.813 50.8563 66.6113 50.2718 66.238 49.8002C65.8647 49.3287 65.3421 48.9982 64.756 48.8632C61.2777 48.2125 58.1457 46.3423 55.9231 43.5888C53.7005 40.8353 52.5331 37.3792 52.6308 33.842C52.7285 30.3047 54.0849 26.9184 56.4562 24.2918C58.8274 21.6652 62.0579 19.9707 65.5668 19.513C65.8819 19.4513 66.1663 19.2836 66.3729 19.0377C66.5794 18.7919 66.6955 18.4827 66.7019 18.1617V6H19.4064C17.9728 6 16.598 6.56947 15.5843 7.58315C14.5707 8.59682 14.0012 9.97165 14.0012 11.4052V20.8643C14.0012 21.2227 14.1435 21.5664 14.397 21.8198C14.6504 22.0732 14.9941 22.2156 15.3525 22.2156C18.578 22.2156 21.6713 23.4969 23.9521 25.7777C26.2329 28.0584 27.5142 31.1518 27.5142 34.3773C27.5142 37.6028 26.2329 40.6961 23.9521 42.9769C21.6713 45.2577 18.578 46.539 15.3525 46.539Z" fill="#94E3D4"/>
</svg>
