<svg viewBox="0 0 419 85" fill="none" xmlns="http://www.w3.org/2000/svg">
<path fill-rule="evenodd" clip-rule="evenodd" d="M298.699 9.35442C298.699 3.9064 303.324 0 308.715 0C314.106 0 318.309 3.9064 318.309 9.35442C318.309 14.8024 314.106 18.6189 308.715 18.6189C303.324 18.6189 298.699 14.8039 298.699 9.35442ZM301.04 25.0656H316.298V72.9264H301.04V25.0656ZM219.577 6.53967H234.837V72.9249H219.577V6.53967ZM128.56 74.1081C142.54 74.1081 152.5 63.3906 152.5 49.0425C152.5 34.6929 142.815 23.9769 128.921 23.9784C123.717 23.9784 119.331 25.5214 115.859 28.4276V6.54116H100.6V72.9264H114.672V68.8401C118.144 72.2006 122.804 74.1081 128.56 74.1081ZM126.368 37.2407C132.764 37.2407 137.423 42.2314 137.423 49.0425C137.423 55.8536 132.764 60.7573 126.368 60.7573C119.698 60.7573 115.128 55.9436 115.128 49.0425C115.128 42.0529 119.606 37.2407 126.368 37.2407ZM209.515 72.9265V25.0656H195.443V30.0607C192.062 26.7016 187.492 24.8841 181.555 24.8841C167.575 24.8841 157.523 34.6944 157.523 49.0425C157.523 63.3906 167.575 74.1081 181.555 74.1081C187.493 74.1081 192.062 72.1077 195.443 68.5672V72.9265H209.515ZM183.749 37.2407C190.419 37.2407 194.897 42.0484 194.897 49.0425C194.897 55.9451 190.417 60.7573 183.749 60.7573C177.262 60.7573 172.692 55.8492 172.692 49.0425C172.692 42.2358 177.353 37.2407 183.749 37.2407ZM267.831 23.9769C252.481 23.9769 241.516 34.6929 241.516 49.0425C241.516 63.3005 252.486 74.1081 267.831 74.1081C283.274 74.1081 294.238 63.3005 294.238 49.0425C294.238 34.6929 283.268 23.9769 267.831 23.9769ZM267.922 37.4177C274.592 37.4177 278.888 42.1399 278.888 48.951C278.888 55.8536 274.502 60.6658 267.922 60.6673C261.252 60.6673 256.866 55.7621 256.866 49.0425C256.866 42.1384 261.252 37.4177 267.922 37.4177ZM335.12 56.4894L322.511 61.3031C325.343 69.6647 333.11 74.1081 343.978 74.0993C356.679 74.0993 364.719 68.1054 364.719 58.2051C364.719 47.3423 355.166 44.8344 347.84 42.9113C343.285 41.7156 339.592 40.746 339.592 38.1347C339.592 36.1372 341.144 34.957 344.251 34.957C347.45 34.957 349.734 36.5001 350.831 39.4978L363.447 34.5926C361.528 27.8759 354.4 23.971 344.532 23.971C332.38 23.971 324.703 29.6078 324.703 38.8708C324.703 48.6709 333.636 51.3369 340.85 53.4897C345.735 54.9477 349.832 56.1704 349.832 59.2142C349.832 61.3931 348.005 62.7547 344.532 62.7547C339.598 62.7547 336.399 60.4858 335.12 56.4894ZM419 48.0437C419 36.2419 409.68 23.8854 393.963 23.8854C380.075 23.8854 368.927 35.2447 368.927 49.0425C368.927 63.3005 378.978 74.1081 394.878 74.1081C405.37 74.1081 411.566 70.0895 415.282 65.5075L406.507 56.7682C403.767 60.1377 400.725 61.756 395.333 61.756C389.577 61.756 385.283 58.8498 383.729 53.4947H418.634C418.886 51.6886 419.008 49.867 419 48.0437ZM383.545 44.0473C384.825 38.2349 388.754 35.2373 394.327 35.2373C399.9 35.2373 403.556 38.5979 404.835 44.0473H383.545ZM44.4596 2.71883L82.777 40.8033C83.1117 41.1363 83.377 41.5315 83.5579 41.9664C83.7388 42.4013 83.8317 42.8674 83.8313 43.338C83.8309 43.8086 83.7372 44.2745 83.5555 44.709C83.3738 45.1436 83.1078 45.5384 82.7726 45.8707L72.3828 56.1973L41.9127 25.9124L24.3837 43.3348L41.9127 60.7573L52.7803 49.9542L65.723 62.8167L44.4671 83.9508C44.1325 84.2834 43.7354 84.5473 43.2982 84.7273C42.8611 84.9073 42.3925 85 41.9193 85C41.4462 85 40.9776 84.9073 40.5405 84.7273C40.1033 84.5473 39.7062 84.2834 39.3716 83.9508L1.05425 45.8663C0.379189 45.1947 0 44.2842 0 43.3348C0 42.3855 0.379189 41.4749 1.05425 40.8033L39.3642 2.71883C39.6987 2.38621 40.0959 2.12234 40.5331 1.94232C40.9702 1.7623 41.4388 1.66964 41.9119 1.66964C42.3851 1.66964 42.8537 1.7623 43.2908 1.94232C43.7279 2.12234 44.1251 2.38621 44.4596 2.71883Z" fill="white"/>
</svg>
