<svg width="225" height="288" viewBox="0 0 225 288" fill="none" xmlns="http://www.w3.org/2000/svg">
<path d="M224.255 0V51.75C224.228 53.1159 223.734 54.4314 222.855 55.4775C221.977 56.5237 220.766 57.2375 219.425 57.5C204.494 59.4477 190.748 66.6585 180.658 77.835C170.568 89.0114 164.797 103.42 164.381 118.472C163.965 133.523 168.932 148.23 178.39 159.946C187.847 171.663 201.174 179.621 215.975 182.39C218.468 182.964 220.693 184.371 222.281 186.377C223.87 188.383 224.728 190.871 224.715 193.43V218.5C224.715 221.55 223.503 224.475 221.347 226.632C219.19 228.788 216.265 230 213.215 230H178.485C176.833 229.986 175.197 230.327 173.688 231.002C172.18 231.677 170.836 232.669 169.745 233.91C168.668 235.119 167.863 236.546 167.387 238.094C166.91 239.642 166.774 241.274 166.985 242.88C167.106 244.334 167.106 245.796 166.985 247.25C166.985 257.925 162.745 268.163 155.196 275.711C147.648 283.259 137.41 287.5 126.735 287.5C116.06 287.5 105.823 283.259 98.2744 275.711C90.7261 268.163 86.4854 257.925 86.4854 247.25C86.3648 245.796 86.3648 244.334 86.4854 242.88C86.6968 241.274 86.5593 239.642 86.083 238.094C85.6067 236.546 84.8021 235.119 83.7246 233.91C82.6342 232.669 81.2894 231.677 79.7812 231.002C78.2732 230.327 76.6374 229.986 74.9854 230H11.5049C8.45494 230 5.52969 228.788 3.37305 226.632C1.21642 224.475 0.00488281 221.55 0.00488281 218.5V180H0V64H0.0556641C0.023114 63.7526 0.00488281 63.5023 0.00488281 63.25V23C0.00488281 16.9 2.42791 11.0497 6.74121 6.73633C11.0545 2.42302 16.9049 3.20438e-05 23.0049 0H224.255Z" fill="#21D9AC"/>
</svg>
