<svg width="1746" height="483" viewBox="0 0 1746 483" fill="none" xmlns="http://www.w3.org/2000/svg">
<g clip-path="url(#clip0_3142_2)">
<path d="M616.002 131.76C613.333 134.428 613.333 138.748 616.002 141.409L688.607 213.999C691.276 216.667 695.596 216.667 698.257 213.999L738.543 173.721L714.024 149.207L693.428 169.798L660.219 136.596L693.428 103.394L751.164 161.119L770.862 141.424C773.531 138.756 773.531 134.436 770.862 131.776L698.257 59.1776C695.588 56.5094 691.268 56.5094 688.607 59.1776L616.002 131.76ZM893.746 134.984V193.002H864.818V140.702C864.818 130.831 858.066 125.113 849.401 125.113C840.735 125.113 833.634 131.347 833.634 139.661V193.002H804.707V66.4041H833.634V107.619C839.87 102.6 848.186 99.4791 858.233 99.4791C879.711 99.4791 893.746 114.027 893.746 134.984ZM934.278 155.941C937.225 166.161 945.366 171.704 956.279 171.704C966.502 171.704 971.522 168.242 975.159 162.183L996.811 176.556C989.536 186.078 978.106 195.258 955.414 195.258C925.271 195.258 906.224 174.65 906.224 147.46C906.224 120.269 927.36 99.4871 953.682 99.4871C983.475 99.4871 1001.14 123.041 1001.14 145.554C1001.14 150.056 1000.79 153.519 1000.45 155.941H934.278ZM974.286 137.93C971.863 127.543 964.929 121.135 954.365 121.135C943.801 121.135 936.351 126.852 933.928 137.93H974.286ZM1014.29 193.002V66.4041H1043.22V193.002H1014.29ZM1121.16 101.734H1150.96L1118.57 193.002H1084.79L1052.4 101.734H1082.19L1101.58 164.597L1121.16 101.734H1121.16ZM1179.71 155.941C1182.66 166.161 1190.8 171.704 1201.71 171.704C1211.93 171.704 1216.95 168.242 1220.59 162.183L1242.24 176.556C1234.97 186.078 1223.54 195.258 1200.85 195.258C1170.7 195.258 1151.66 174.65 1151.66 147.46C1151.66 120.269 1172.79 99.4871 1199.11 99.4871C1228.91 99.4871 1246.57 123.041 1246.57 145.554C1246.57 150.056 1246.22 153.519 1245.88 155.941H1179.71ZM1219.72 137.93C1217.3 127.543 1210.36 121.135 1199.8 121.135C1189.23 121.135 1181.78 126.852 1179.36 137.93H1219.72ZM1303.21 193.002C1279.65 193.002 1267.69 178.978 1267.69 157.847V126.328H1252.45V101.734H1259.73C1266.14 101.734 1269.42 98.2721 1269.42 91.5141V77.49H1297.49V101.734H1318.27V126.328H1296.45V154.384C1296.45 163.215 1301.12 167.892 1309.27 167.892H1318.79V193.002H1303.2H1303.21ZM1330.92 71.8359C1330.92 61.6156 1338.88 54 1349.11 54C1359.33 54 1367.3 61.6235 1367.3 71.8359C1367.3 82.0482 1359.33 89.4971 1349.11 89.4971C1338.88 89.4971 1330.92 82.2229 1330.92 71.8359ZM1334.56 193.002V101.734H1363.48V193.002H1334.56ZM1448.33 101.734H1475V193.002H1448.33V184.688C1441.92 191.438 1433.26 195.25 1422 195.25C1395.49 195.25 1376.45 174.817 1376.45 147.452C1376.45 120.086 1395.5 101.385 1422 101.385C1433.26 101.385 1441.92 104.847 1448.33 111.256V101.734ZM1447.29 147.452C1447.29 134.119 1438.8 124.939 1426.15 124.939C1413.51 124.939 1405.19 134.46 1405.19 147.452C1405.19 160.444 1413.85 169.79 1426.15 169.79C1438.46 169.79 1447.29 160.61 1447.29 147.452Z" fill="#000D6E"/>
</g>
<path d="M692.4 330.92V284.04H706V401H693.36V385.48C686.8 396.2 675.6 402.76 661.68 402.76C637.68 402.76 620.24 384.04 620.24 358.76C620.24 333.8 637.52 314.92 661.36 314.92C674.8 314.92 685.68 320.84 692.4 330.92ZM663.28 390.76C680.72 390.76 692.88 377.64 692.88 358.76C692.88 340.04 680.88 326.92 663.28 326.92C646.32 326.92 633.68 340.68 633.68 358.76C633.68 377.16 646.32 390.76 663.28 390.76ZM806.718 363.88H736.638C739.038 379.56 751.358 390.12 766.878 390.12C780.638 390.12 788.318 384.84 792.478 375.08L804.318 382.28C798.078 394.28 786.398 402.92 766.398 402.92C740.478 402.92 722.878 384.04 722.878 358.92C722.878 334.44 741.598 314.76 765.438 314.76C790.878 314.76 807.038 334.76 807.038 357C807.038 359.4 806.878 362.28 806.718 363.88ZM736.798 352.04H793.118C791.038 336.2 779.998 326.6 765.918 326.6C751.678 326.6 739.358 336.04 736.798 352.04ZM850.525 402.76C833.085 402.76 820.285 395.72 815.805 382.28L828.765 377.16C831.485 385.8 839.325 390.92 851.005 390.92C861.565 390.92 868.445 386.44 868.445 378.6C868.445 358.28 819.965 367.4 819.965 338.44C819.965 323.88 831.965 314.92 850.525 314.92C865.885 314.92 876.925 321.16 880.605 332.36L867.645 337.48C864.925 329.96 858.845 326.44 850.365 326.44C840.605 326.44 835.005 330.76 835.005 337.64C835.005 356.52 883.805 346.6 883.805 377.48C883.805 393.48 870.525 402.76 850.525 402.76ZM906.455 301C900.375 301 895.735 296.68 895.735 290.6C895.735 284.52 900.375 280.04 906.455 280.04C912.535 280.04 917.335 284.52 917.335 290.6C917.335 296.68 912.535 301 906.455 301ZM913.335 401H899.735V316.68H913.335V401ZM1003.83 332.36V316.68H1016.47V389.96C1016.47 415.08 1000.31 431.4 973.109 431.4C951.509 431.4 938.229 421.64 932.789 405.8L944.469 401.32C948.629 413.64 958.869 419.88 973.269 419.88C992.149 419.88 1003.83 408.84 1003.83 391.08V382.76C997.429 393.64 986.389 400.36 972.309 400.36C948.149 400.36 930.709 381.8 930.709 357.64C930.709 333.8 948.309 314.92 972.309 314.92C986.389 314.92 997.429 321.64 1003.83 332.36ZM973.589 389.64C990.869 389.64 1003.03 376.52 1003.03 358.28C1003.03 340.04 991.029 326.92 973.909 326.92C956.949 326.92 944.309 340.52 944.309 358.28C944.309 376.2 956.789 389.64 973.589 389.64ZM1080.87 314.92C1102.47 314.92 1115.11 328.52 1115.11 349.48V401H1101.51V351.88C1101.51 336.2 1092.39 326.92 1077.35 327.08C1062.95 327.08 1052.71 337.48 1052.55 348.84V401H1038.95V316.68H1051.75V329C1057.19 321 1067.43 314.92 1080.87 314.92ZM1199.74 402.76C1182.3 402.76 1169.5 395.72 1165.02 382.28L1177.98 377.16C1180.7 385.8 1188.54 390.92 1200.22 390.92C1210.78 390.92 1217.66 386.44 1217.66 378.6C1217.66 358.28 1169.18 367.4 1169.18 338.44C1169.18 323.88 1181.18 314.92 1199.74 314.92C1215.1 314.92 1226.14 321.16 1229.82 332.36L1216.86 337.48C1214.14 329.96 1208.06 326.44 1199.58 326.44C1189.82 326.44 1184.22 330.76 1184.22 337.64C1184.22 356.52 1233.02 346.6 1233.02 377.48C1233.02 393.48 1219.74 402.76 1199.74 402.76ZM1278.44 389.48L1306.92 316.68H1321.16L1275.08 429.64H1261.64L1273.64 401H1269.96L1237 316.68H1251.24L1278.44 389.48ZM1358.65 402.76C1341.21 402.76 1328.41 395.72 1323.93 382.28L1336.89 377.16C1339.61 385.8 1347.45 390.92 1359.13 390.92C1369.69 390.92 1376.57 386.44 1376.57 378.6C1376.57 358.28 1328.09 367.4 1328.09 338.44C1328.09 323.88 1340.09 314.92 1358.65 314.92C1374.01 314.92 1385.05 321.16 1388.73 332.36L1375.77 337.48C1373.05 329.96 1366.97 326.44 1358.49 326.44C1348.73 326.44 1343.13 330.76 1343.13 337.64C1343.13 356.52 1391.93 346.6 1391.93 377.48C1391.93 393.48 1378.65 402.76 1358.65 402.76ZM1452.85 401H1440.53C1422.29 401 1412.53 390.12 1412.53 372.68V328.36H1397.17V316.68H1405.97C1411.09 316.68 1413.49 314.12 1413.49 309V295.08H1426.61V316.68H1451.57V328.36H1426.13V371.24C1426.13 382.6 1432.05 389 1442.93 389H1452.85V401ZM1541.25 363.88H1471.17C1473.57 379.56 1485.89 390.12 1501.41 390.12C1515.17 390.12 1522.85 384.84 1527.01 375.08L1538.85 382.28C1532.61 394.28 1520.93 402.92 1500.93 402.92C1475.01 402.92 1457.41 384.04 1457.41 358.92C1457.41 334.44 1476.13 314.76 1499.97 314.76C1525.41 314.76 1541.57 334.76 1541.57 357C1541.57 359.4 1541.41 362.28 1541.25 363.88ZM1471.33 352.04H1527.65C1525.57 336.2 1514.53 326.6 1500.45 326.6C1486.21 326.6 1473.89 336.04 1471.33 352.04ZM1657.69 314.92C1678.81 314.92 1690.81 329.32 1690.81 349V401H1677.21V351.4C1677.21 337.16 1668.73 326.92 1654.65 327.08C1640.41 327.08 1631.61 338.12 1631.29 347.88V401H1617.69V351.4C1617.69 337 1609.21 326.92 1595.13 327.08C1581.05 327.08 1572.09 338.12 1571.93 347.88V401H1558.33V316.68H1571.13V329.16C1576.25 321.32 1586.01 314.92 1598.97 314.92C1613.53 314.92 1623.13 321.16 1627.77 332.04C1632.09 322.92 1642.49 314.92 1657.69 314.92Z" fill="#000C6E"/>
<path d="M63.2501 172.5C62.4863 172.467 61.7241 172.594 61.0118 172.871C60.2994 173.149 59.6525 173.571 59.1119 174.112C58.5713 174.652 58.1489 175.299 57.8715 176.012C57.594 176.724 57.4676 177.486 57.5001 178.25V218.5C57.5001 221.55 58.7117 224.475 60.8684 226.632C63.0251 228.788 65.9501 230 69.0001 230H132.48C134.132 229.986 135.768 230.327 137.276 231.002C138.785 231.677 140.13 232.669 141.22 233.91C142.298 235.119 143.102 236.546 143.578 238.094C144.055 239.642 144.192 241.274 143.98 242.88C143.86 244.334 143.86 245.796 143.98 247.25C143.98 257.925 148.221 268.163 155.769 275.711C163.317 283.259 173.555 287.5 184.23 287.5C194.905 287.5 205.143 283.259 212.691 275.711C220.239 268.163 224.48 257.925 224.48 247.25C224.601 245.796 224.601 244.334 224.48 242.88C224.269 241.274 224.406 239.642 224.882 238.094C225.358 236.546 226.163 235.119 227.24 233.91C228.331 232.669 229.676 231.677 231.184 231.002C232.692 230.327 234.328 229.986 235.98 230H270.71C273.76 230 276.685 228.788 278.842 226.632C280.999 224.475 282.21 221.55 282.21 218.5V193.43C282.223 190.871 281.365 188.384 279.776 186.377C278.188 184.371 275.964 182.964 273.47 182.39C258.67 179.621 245.342 171.663 235.885 159.946C226.427 148.23 221.46 133.524 221.875 118.472C222.291 103.421 228.063 89.011 238.153 77.8345C248.243 66.6579 261.989 59.4476 276.92 57.5C278.261 57.2375 279.471 56.5238 280.35 55.4777C281.229 54.4315 281.723 53.116 281.75 51.75V0H80.5001C74.4001 0 68.55 2.42321 64.2367 6.73654C59.9233 11.0499 57.5001 16.9 57.5001 23V63.25C57.5001 64.775 58.1059 66.2375 59.1843 67.3159C60.2626 68.3942 61.7251 69 63.2501 69C76.9751 69 90.1379 74.4522 99.8429 84.1572C109.548 93.8622 115 107.025 115 120.75C115 134.475 109.548 147.638 99.8429 157.343C90.1379 167.048 76.9751 172.5 63.2501 172.5Z" fill="#21D9AC"/>
<path d="M281.75 413.77C281.736 412.118 282.077 410.482 282.752 408.974C283.427 407.465 284.419 406.12 285.66 405.03C286.845 403.998 288.241 403.238 289.751 402.801C291.26 402.364 292.847 402.261 294.4 402.5C300.016 403.103 305.696 402.517 311.07 400.781C316.445 399.044 321.394 396.196 325.596 392.422C329.797 388.647 333.158 384.03 335.458 378.872C337.758 373.713 338.947 368.128 338.947 362.48C338.947 356.832 337.758 351.247 335.458 346.088C333.158 340.93 329.797 336.313 325.596 332.538C321.394 328.764 316.445 325.915 311.07 324.179C305.696 322.443 300.016 321.857 294.4 322.46C291.164 322.748 287.944 321.758 285.43 319.7C284.189 318.609 283.197 317.264 282.522 315.756C281.847 314.248 281.506 312.612 281.52 310.96V264.5C281.52 261.45 280.308 258.525 278.152 256.368C275.995 254.211 273.07 253 270.02 253H256.45C253.891 252.987 251.404 253.845 249.397 255.434C247.391 257.022 245.984 259.246 245.41 261.74C242.202 275.686 234.359 288.132 223.163 297.044C211.968 305.957 198.08 310.81 183.77 310.81C169.46 310.81 155.572 305.957 144.377 297.044C133.181 288.132 125.338 275.686 122.13 261.74C121.556 259.246 120.149 257.022 118.143 255.434C116.136 253.845 113.649 252.987 111.09 253H69C65.95 253 63.0249 254.211 60.8683 256.368C58.7116 258.525 57.5 261.45 57.5 264.5V304.75C57.5 306.275 56.8942 307.737 55.8159 308.816C54.7375 309.894 53.275 310.5 51.75 310.5C38.025 310.5 24.8622 315.952 15.1572 325.657C5.45222 335.362 0 348.525 0 362.25C0 375.975 5.45222 389.138 15.1572 398.843C24.8622 408.548 38.025 414 51.75 414C53.2734 414.048 54.7345 414.616 55.89 415.61C56.8839 416.765 57.4521 418.226 57.5 419.75V460C57.5 466.1 59.9232 471.95 64.2365 476.263C68.5499 480.577 74.4 483 80.5 483H281.75V413.77Z" fill="#FFBE19"/>
<path d="M316.25 0C313.2 0 310.275 1.2116 308.118 3.36827C305.962 5.52494 304.75 8.45001 304.75 11.5V69.23C304.764 70.8822 304.423 72.5181 303.748 74.0263C303.073 75.5345 302.081 76.8796 300.84 77.97C299.631 79.0475 298.204 79.8518 296.656 80.3281C295.108 80.8044 293.476 80.9415 291.87 80.73C286.254 80.1271 280.574 80.7128 275.2 82.4492C269.825 84.1855 264.876 87.0337 260.674 90.8083C256.473 94.583 253.112 99.1997 250.812 104.358C248.512 109.517 247.323 115.102 247.323 120.75C247.323 126.398 248.512 131.983 250.812 137.142C253.112 142.3 256.473 146.917 260.674 150.692C264.876 154.466 269.825 157.314 275.2 159.051C280.574 160.787 286.254 161.373 291.87 160.77C293.44 160.562 295.037 160.701 296.547 161.178C298.057 161.655 299.444 162.458 300.61 163.53C301.851 164.62 302.843 165.966 303.518 167.474C304.193 168.982 304.534 170.618 304.52 172.27V218.27C304.52 221.32 305.732 224.245 307.888 226.402C310.045 228.558 312.97 229.77 316.02 229.77H335.34C337.899 229.783 340.386 228.925 342.393 227.336C344.399 225.748 345.806 223.524 346.38 221.03C349.588 207.084 357.431 194.638 368.627 185.725C379.822 176.813 393.71 171.96 408.02 171.96C422.33 171.96 436.218 176.813 447.413 185.725C458.609 194.638 466.452 207.084 469.66 221.03C470.234 223.524 471.641 225.748 473.647 227.336C475.654 228.925 478.141 229.783 480.7 229.77H517.5C520.55 229.77 523.475 228.558 525.632 226.402C527.788 224.245 529 221.32 529 218.27V23C529 16.9 526.577 11.0499 522.263 6.73654C517.95 2.42321 512.1 0 506 0H465.75C464.225 0 462.762 0.605803 461.684 1.68414C460.606 2.76247 460 4.22501 460 5.75C460 19.475 454.548 32.6378 444.843 42.3428C435.138 52.0478 421.975 57.5 408.25 57.5C394.525 57.5 381.362 52.0478 371.657 42.3428C361.952 32.6378 356.5 19.475 356.5 5.75C356.452 4.22658 355.884 2.76552 354.89 1.61C353.734 0.616079 352.273 0.0478852 350.75 0H316.25Z" fill="#BE82FA"/>
<path d="M459.77 253C458.118 253.014 456.482 252.673 454.974 251.998C453.465 251.323 452.12 250.331 451.03 249.09C449.952 247.881 449.148 246.454 448.672 244.906C448.195 243.358 448.058 241.726 448.27 240.12C448.39 238.666 448.39 237.204 448.27 235.75C448.27 225.075 444.029 214.837 436.481 207.289C428.933 199.741 418.695 195.5 408.02 195.5C397.345 195.5 387.107 199.741 379.559 207.289C372.011 214.837 367.77 225.075 367.77 235.75C367.649 237.204 367.649 238.666 367.77 240.12C367.981 241.726 367.844 243.358 367.368 244.906C366.892 246.454 366.087 247.881 365.01 249.09C363.92 250.331 362.574 251.323 361.066 251.998C359.558 252.673 357.922 253.014 356.27 253H316.25C313.2 253 310.275 254.212 308.118 256.368C305.961 258.525 304.75 261.45 304.75 264.5V289.57C304.737 292.129 305.595 294.616 307.184 296.623C308.772 298.629 310.996 300.036 313.49 300.61C327.436 303.818 339.882 311.661 348.794 322.857C357.707 334.052 362.56 347.94 362.56 362.25C362.56 376.56 357.707 390.448 348.794 401.643C339.882 412.839 327.436 420.682 313.49 423.89C310.996 424.464 308.772 425.871 307.184 427.877C305.595 429.884 304.737 432.371 304.75 434.93V471.5C304.75 474.55 305.961 477.475 308.118 479.632C310.275 481.788 313.2 483 316.25 483H506C512.1 483 517.95 480.577 522.263 476.263C526.577 471.95 529 466.1 529 460V264.5C529 261.45 527.788 258.525 525.632 256.368C523.475 254.212 520.55 253 517.5 253H459.77Z" fill="#FF596F"/>
<defs>
<clipPath id="clip0_3142_2">
<rect width="861" height="162" fill="white" transform="translate(614 54)"/>
</clipPath>
</defs>
</svg>
