<svg width="1746" height="483" viewBox="0 0 1746 483" fill="none" xmlns="http://www.w3.org/2000/svg">
<path fill-rule="evenodd" clip-rule="evenodd" d="M1183 71.8298C1183 61.4457 1191.73 54 1201.9 54C1212.07 54 1220 61.4457 1220 71.8298C1220 82.2139 1212.07 89.4881 1201.9 89.4881C1191.73 89.4881 1183 82.2167 1183 71.8298ZM1187.42 101.776H1216.21V193H1187.42V101.776ZM858.796 195C885.194 195 904 174.538 904 147.144C904 119.748 885.713 99.2886 859.477 99.2914C849.651 99.2914 841.369 102.237 834.814 107.786V66H806V192.744H832.572V184.942C839.127 191.358 847.928 195 858.796 195ZM854.657 124.612C866.733 124.612 875.531 134.14 875.531 147.144C875.531 160.148 866.733 169.51 854.657 169.51C842.062 169.51 833.432 160.32 833.432 147.144C833.432 133.8 841.888 124.612 854.657 124.612ZM1013 192.743V101.347H986.205V110.885C979.766 104.471 971.064 101 959.759 101C933.139 101 914 119.734 914 147.134C914 174.533 933.139 195 959.759 195C971.067 195 979.766 191.18 986.205 184.419V192.743H1013ZM963.937 124.596C976.638 124.596 985.164 133.778 985.164 147.134C985.164 160.315 976.635 169.505 963.937 169.505C951.586 169.505 942.884 160.132 942.884 147.134C942.884 134.135 951.758 124.596 963.937 124.596ZM1032 66H1061V193H1032V66ZM1123.91 100C1094.8 100 1074 120.307 1074 147.5C1074 174.519 1094.81 195 1123.91 195C1153.2 195 1174 174.519 1174 147.5C1174 120.307 1153.19 100 1123.91 100ZM1124.09 125.471C1136.74 125.471 1144.88 134.419 1144.88 147.327C1144.88 160.407 1136.57 169.527 1124.09 169.529C1111.43 169.529 1103.12 160.234 1103.12 147.5C1103.12 134.417 1111.43 125.471 1124.09 125.471ZM1251.9 161.627L1228 170.75C1233.37 186.596 1248.09 195.017 1268.69 195C1292.76 195 1308 183.641 1308 164.878C1308 144.292 1289.89 139.539 1276.01 135.895C1267.38 133.629 1260.37 131.791 1260.37 126.842C1260.37 123.057 1263.32 120.82 1269.21 120.82C1275.27 120.82 1279.6 123.744 1281.68 129.425L1305.59 120.129C1301.95 107.4 1288.44 100 1269.74 100C1246.71 100 1232.16 110.683 1232.16 128.237C1232.16 146.81 1249.09 151.862 1262.76 155.942C1272.02 158.705 1279.78 161.022 1279.78 166.791C1279.78 170.92 1276.32 173.501 1269.74 173.501C1260.39 173.501 1254.32 169.201 1251.9 161.627ZM1412 145.697C1412 123.373 1394.32 100 1364.5 100C1338.15 100 1317 121.487 1317 147.586C1317 174.557 1336.07 195 1366.23 195C1386.14 195 1397.9 187.399 1404.95 178.731L1388.3 162.2C1383.1 168.574 1377.33 171.635 1367.1 171.635C1356.18 171.635 1348.03 166.138 1345.08 156.008H1411.31C1411.78 152.592 1412.02 149.146 1412 145.697ZM1344.73 138.138C1347.16 127.143 1354.62 121.473 1365.19 121.473C1375.76 121.473 1382.7 127.83 1385.13 138.138H1344.73ZM698.855 59.0019L771.988 131.67C772.627 132.305 773.133 133.059 773.478 133.889C773.824 134.719 774.001 135.608 774 136.506C773.999 137.404 773.82 138.293 773.474 139.122C773.127 139.951 772.619 140.705 771.979 141.339L752.15 161.043L693.994 103.257L660.539 136.5L693.994 169.743L714.736 149.13L739.439 173.673L698.87 213.998C698.231 214.633 697.473 215.136 696.639 215.48C695.804 215.823 694.91 216 694.007 216C693.104 216 692.21 215.823 691.375 215.48C690.541 215.136 689.783 214.633 689.145 213.998L616.012 141.33C614.724 140.049 614 138.311 614 136.5C614 134.689 614.724 132.951 616.012 131.67L689.13 59.0019C689.769 58.3673 690.527 57.8638 691.361 57.5203C692.196 57.1768 693.09 57 693.993 57C694.896 57 695.79 57.1768 696.625 57.5203C697.459 57.8638 698.217 58.3673 698.855 59.0019Z" fill="#000D6E"/>
<path d="M692.4 330.92C685.68 320.84 674.8 314.92 661.36 314.92C637.52 314.92 620.24 333.8 620.24 358.76C620.24 384.04 637.68 402.76 661.68 402.76C675.6 402.76 686.8 396.2 693.36 385.48V401H706V284.04H692.4V330.92ZM663.28 390.76C646.32 390.76 633.68 377.16 633.68 358.76C633.68 340.68 646.32 326.92 663.28 326.92C680.88 326.92 692.88 340.04 692.88 358.76C692.88 377.64 680.72 390.76 663.28 390.76ZM806.718 363.88C806.878 362.28 807.038 359.4 807.038 357C807.038 334.76 790.878 314.76 765.438 314.76C741.598 314.76 722.878 334.44 722.878 358.92C722.878 384.04 740.478 402.92 766.398 402.92C786.398 402.92 798.078 394.28 804.318 382.28L792.478 375.08C788.318 384.84 780.638 390.12 766.878 390.12C751.358 390.12 739.038 379.56 736.638 363.88H806.718ZM736.798 352.04C739.358 336.04 751.678 326.6 765.918 326.6C779.998 326.6 791.038 336.2 793.118 352.04H736.798ZM850.525 402.76C870.525 402.76 883.805 393.48 883.805 377.48C883.805 346.6 835.005 356.52 835.005 337.64C835.005 330.76 840.605 326.44 850.365 326.44C858.845 326.44 864.925 329.96 867.645 337.48L880.605 332.36C876.925 321.16 865.885 314.92 850.525 314.92C831.965 314.92 819.965 323.88 819.965 338.44C819.965 367.4 868.445 358.28 868.445 378.6C868.445 386.44 861.565 390.92 851.005 390.92C839.325 390.92 831.485 385.8 828.765 377.16L815.805 382.28C820.285 395.72 833.085 402.76 850.525 402.76ZM906.455 301C912.535 301 917.335 296.68 917.335 290.6C917.335 284.52 912.535 280.04 906.455 280.04C900.375 280.04 895.735 284.52 895.735 290.6C895.735 296.68 900.375 301 906.455 301ZM913.335 401V316.68H899.735V401H913.335ZM1003.83 332.36C997.429 321.64 986.389 314.92 972.309 314.92C948.309 314.92 930.709 333.8 930.709 357.64C930.709 381.8 948.149 400.36 972.309 400.36C986.389 400.36 997.429 393.64 1003.83 382.76V391.08C1003.83 408.84 992.149 419.88 973.269 419.88C958.869 419.88 948.629 413.64 944.469 401.32L932.789 405.8C938.229 421.64 951.509 431.4 973.109 431.4C1000.31 431.4 1016.47 415.08 1016.47 389.96V316.68H1003.83V332.36ZM973.589 389.64C956.789 389.64 944.309 376.2 944.309 358.28C944.309 340.52 956.949 326.92 973.909 326.92C991.029 326.92 1003.03 340.04 1003.03 358.28C1003.03 376.52 990.869 389.64 973.589 389.64ZM1080.87 314.92C1067.43 314.92 1057.19 321 1051.75 329V316.68H1038.95V401H1052.55V348.84C1052.71 337.48 1062.95 327.08 1077.35 327.08C1092.39 326.92 1101.51 336.2 1101.51 351.88V401H1115.11V349.48C1115.11 328.52 1102.47 314.92 1080.87 314.92ZM1199.74 402.76C1219.74 402.76 1233.02 393.48 1233.02 377.48C1233.02 346.6 1184.22 356.52 1184.22 337.64C1184.22 330.76 1189.82 326.44 1199.58 326.44C1208.06 326.44 1214.14 329.96 1216.86 337.48L1229.82 332.36C1226.14 321.16 1215.1 314.92 1199.74 314.92C1181.18 314.92 1169.18 323.88 1169.18 338.44C1169.18 367.4 1217.66 358.28 1217.66 378.6C1217.66 386.44 1210.78 390.92 1200.22 390.92C1188.54 390.92 1180.7 385.8 1177.98 377.16L1165.02 382.28C1169.5 395.72 1182.3 402.76 1199.74 402.76ZM1278.44 389.48L1251.24 316.68H1237L1269.96 401H1273.64L1261.64 429.64H1275.08L1321.16 316.68H1306.92L1278.44 389.48ZM1358.65 402.76C1378.65 402.76 1391.93 393.48 1391.93 377.48C1391.93 346.6 1343.13 356.52 1343.13 337.64C1343.13 330.76 1348.73 326.44 1358.49 326.44C1366.97 326.44 1373.05 329.96 1375.77 337.48L1388.73 332.36C1385.05 321.16 1374.01 314.92 1358.65 314.92C1340.09 314.92 1328.09 323.88 1328.09 338.44C1328.09 367.4 1376.57 358.28 1376.57 378.6C1376.57 386.44 1369.69 390.92 1359.13 390.92C1347.45 390.92 1339.61 385.8 1336.89 377.16L1323.93 382.28C1328.41 395.72 1341.21 402.76 1358.65 402.76ZM1452.85 401V389H1442.93C1432.05 389 1426.13 382.6 1426.13 371.24V328.36H1451.57V316.68H1426.61V295.08H1413.49V309C1413.49 314.12 1411.09 316.68 1405.97 316.68H1397.17V328.36H1412.53V372.68C1412.53 390.12 1422.29 401 1440.53 401H1452.85ZM1541.25 363.88C1541.41 362.28 1541.57 359.4 1541.57 357C1541.57 334.76 1525.41 314.76 1499.97 314.76C1476.13 314.76 1457.41 334.44 1457.41 358.92C1457.41 384.04 1475.01 402.92 1500.93 402.92C1520.93 402.92 1532.61 394.28 1538.85 382.28L1527.01 375.08C1522.85 384.84 1515.17 390.12 1501.41 390.12C1485.89 390.12 1473.57 379.56 1471.17 363.88H1541.25ZM1471.33 352.04C1473.89 336.04 1486.21 326.6 1500.45 326.6C1514.53 326.6 1525.57 336.2 1527.65 352.04H1471.33ZM1657.69 314.92C1642.49 314.92 1632.09 322.92 1627.77 332.04C1623.13 321.16 1613.53 314.92 1598.97 314.92C1586.01 314.92 1576.25 321.32 1571.13 329.16V316.68H1558.33V401H1571.93V347.88C1572.09 338.12 1581.05 327.08 1595.13 327.08C1609.21 326.92 1617.69 337 1617.69 351.4V401H1631.29V347.88C1631.61 338.12 1640.41 327.08 1654.65 327.08C1668.73 326.92 1677.21 337.16 1677.21 351.4V401H1690.81V349C1690.81 329.32 1678.81 314.92 1657.69 314.92Z" fill="#000C6E"/>
<path d="M63.25 172.5C62.4862 172.467 61.724 172.594 61.0116 172.871C60.2993 173.149 59.6523 173.571 59.1118 174.112C58.5712 174.652 58.1488 175.299 57.8714 176.012C57.5939 176.724 57.4675 177.486 57.5 178.25V218.5C57.5 221.55 58.7116 224.475 60.8683 226.632C63.0249 228.788 65.95 230 69 230H132.48C134.132 229.986 135.768 230.327 137.276 231.002C138.784 231.677 140.13 232.669 141.22 233.91C142.298 235.119 143.102 236.546 143.578 238.094C144.054 239.642 144.191 241.274 143.98 242.88C143.859 244.334 143.859 245.796 143.98 247.25C143.98 257.925 148.221 268.163 155.769 275.711C163.317 283.259 173.555 287.5 184.23 287.5C194.905 287.5 205.143 283.259 212.691 275.711C220.239 268.163 224.48 257.925 224.48 247.25C224.601 245.796 224.601 244.334 224.48 242.88C224.269 241.274 224.406 239.642 224.882 238.094C225.358 236.546 226.162 235.119 227.24 233.91C228.33 232.669 229.676 231.677 231.184 231.002C232.692 230.327 234.328 229.986 235.98 230H270.71C273.76 230 276.685 228.788 278.842 226.632C280.998 224.475 282.21 221.55 282.21 218.5V193.43C282.223 190.871 281.365 188.384 279.776 186.377C278.188 184.371 275.964 182.964 273.47 182.39C258.669 179.621 245.342 171.663 235.885 159.946C226.427 148.23 221.46 133.524 221.875 118.472C222.291 103.421 228.063 89.011 238.153 77.8345C248.243 66.6579 261.989 59.4476 276.92 57.5C278.261 57.2375 279.471 56.5238 280.35 55.4777C281.229 54.4315 281.723 53.116 281.75 51.75V0H80.5C74.4 0 68.5499 2.42321 64.2365 6.73654C59.9232 11.0499 57.5 16.9 57.5 23V63.25C57.5 64.775 58.1058 66.2375 59.1841 67.3159C60.2625 68.3942 61.725 69 63.25 69C76.975 69 90.1378 74.4522 99.8428 84.1572C109.548 93.8622 115 107.025 115 120.75C115 134.475 109.548 147.638 99.8428 157.343C90.1378 167.048 76.975 172.5 63.25 172.5Z" fill="#94E3D4"/>
<path d="M281.75 413.77C281.736 412.118 282.077 410.482 282.752 408.974C283.427 407.466 284.419 406.12 285.66 405.03C286.845 403.998 288.241 403.238 289.751 402.801C291.26 402.364 292.847 402.261 294.4 402.5C300.016 403.103 305.696 402.517 311.07 400.781C316.445 399.044 321.394 396.196 325.596 392.422C329.797 388.647 333.158 384.03 335.458 378.872C337.758 373.713 338.947 368.128 338.947 362.48C338.947 356.832 337.758 351.247 335.458 346.088C333.158 340.93 329.797 336.313 325.596 332.538C321.394 328.764 316.445 325.916 311.07 324.179C305.696 322.443 300.016 321.857 294.4 322.46C291.164 322.749 287.944 321.758 285.43 319.7C284.189 318.61 283.197 317.265 282.522 315.756C281.847 314.248 281.506 312.612 281.52 310.96V264.5C281.52 261.45 280.308 258.525 278.152 256.368C275.995 254.212 273.07 253 270.02 253H256.45C253.891 252.987 251.404 253.845 249.397 255.434C247.391 257.022 245.984 259.246 245.41 261.74C242.202 275.686 234.359 288.132 223.163 297.045C211.968 305.957 198.08 310.81 183.77 310.81C169.46 310.81 155.572 305.957 144.377 297.045C133.181 288.132 125.338 275.686 122.13 261.74C121.556 259.246 120.149 257.022 118.143 255.434C116.136 253.845 113.649 252.987 111.09 253H69C65.95 253 63.0249 254.212 60.8683 256.368C58.7116 258.525 57.5 261.45 57.5 264.5V304.75C57.5 306.275 56.8942 307.738 55.8159 308.816C54.7375 309.894 53.275 310.5 51.75 310.5C38.025 310.5 24.8622 315.952 15.1572 325.657C5.45222 335.362 0 348.525 0 362.25C0 375.975 5.45222 389.138 15.1572 398.843C24.8622 408.548 38.025 414 51.75 414C53.2734 414.048 54.7345 414.616 55.89 415.61C56.8839 416.766 57.4521 418.227 57.5 419.75V460C57.5 466.1 59.9232 471.95 64.2365 476.264C68.5499 480.577 74.4 483 80.5 483H281.75V413.77Z" fill="#FAE052"/>
<path d="M316.25 0C313.2 0 310.275 1.2116 308.118 3.36827C305.962 5.52494 304.75 8.45001 304.75 11.5V69.23C304.764 70.8822 304.423 72.5181 303.748 74.0263C303.073 75.5345 302.081 76.8796 300.84 77.97C299.631 79.0475 298.204 79.8518 296.656 80.3281C295.108 80.8044 293.476 80.9415 291.87 80.73C286.254 80.1271 280.574 80.7128 275.2 82.4492C269.825 84.1855 264.876 87.0337 260.674 90.8083C256.473 94.583 253.112 99.1997 250.812 104.358C248.512 109.517 247.323 115.102 247.323 120.75C247.323 126.398 248.512 131.983 250.812 137.142C253.112 142.3 256.473 146.917 260.674 150.692C264.876 154.466 269.825 157.314 275.2 159.051C280.574 160.787 286.254 161.373 291.87 160.77C293.44 160.562 295.037 160.701 296.547 161.178C298.057 161.655 299.444 162.458 300.61 163.53C301.851 164.62 302.843 165.966 303.518 167.474C304.193 168.982 304.534 170.618 304.52 172.27V218.27C304.52 221.32 305.732 224.245 307.888 226.402C310.045 228.558 312.97 229.77 316.02 229.77H335.34C337.899 229.783 340.386 228.925 342.393 227.336C344.399 225.748 345.806 223.524 346.38 221.03C349.588 207.084 357.431 194.638 368.627 185.725C379.822 176.813 393.71 171.96 408.02 171.96C422.33 171.96 436.218 176.813 447.413 185.725C458.609 194.638 466.452 207.084 469.66 221.03C470.234 223.524 471.641 225.748 473.647 227.336C475.654 228.925 478.141 229.783 480.7 229.77H517.5C520.55 229.77 523.475 228.558 525.632 226.402C527.788 224.245 529 221.32 529 218.27V23C529 16.9 526.577 11.0499 522.263 6.73654C517.95 2.42321 512.1 0 506 0H465.75C464.225 0 462.762 0.605803 461.684 1.68414C460.606 2.76247 460 4.22501 460 5.75C460 19.475 454.548 32.6378 444.843 42.3428C435.138 52.0478 421.975 57.5 408.25 57.5C394.525 57.5 381.362 52.0478 371.657 42.3428C361.952 32.6378 356.5 19.475 356.5 5.75C356.452 4.22658 355.884 2.76552 354.89 1.61C353.734 0.616079 352.273 0.0478852 350.75 0H316.25Z" fill="#B8B2FF"/>
<path d="M459.77 253C458.118 253.014 456.482 252.673 454.974 251.998C453.465 251.323 452.12 250.331 451.03 249.09C449.952 247.881 449.148 246.454 448.672 244.906C448.196 243.358 448.059 241.726 448.27 240.12C448.391 238.666 448.391 237.204 448.27 235.75C448.27 225.075 444.029 214.837 436.481 207.289C428.933 199.741 418.695 195.5 408.02 195.5C397.345 195.5 387.107 199.741 379.559 207.289C372.011 214.837 367.77 225.075 367.77 235.75C367.649 237.204 367.649 238.666 367.77 240.12C367.981 241.726 367.844 243.358 367.368 244.906C366.892 246.454 366.088 247.881 365.01 249.09C363.92 250.331 362.574 251.323 361.066 251.998C359.558 252.673 357.922 253.014 356.27 253H316.25C313.2 253 310.275 254.212 308.118 256.368C305.962 258.525 304.75 261.45 304.75 264.5V289.57C304.737 292.129 305.595 294.616 307.184 296.623C308.772 298.629 310.996 300.036 313.49 300.61C327.436 303.818 339.882 311.661 348.795 322.857C357.707 334.052 362.56 347.94 362.56 362.25C362.56 376.56 357.707 390.448 348.795 401.643C339.882 412.839 327.436 420.682 313.49 423.89C310.996 424.464 308.772 425.871 307.184 427.877C305.595 429.884 304.737 432.371 304.75 434.93V471.5C304.75 474.55 305.962 477.475 308.118 479.632C310.275 481.788 313.2 483 316.25 483H506C512.1 483 517.95 480.577 522.263 476.263C526.577 471.95 529 466.1 529 460V264.5C529 261.45 527.788 258.525 525.632 256.368C523.475 254.212 520.55 253 517.5 253H459.77Z" fill="url(#paint0_linear_111_25)"/>
<defs>
<linearGradient id="paint0_linear_111_25" x1="364.5" y1="248" x2="529.5" y2="490.5" gradientUnits="userSpaceOnUse">
<stop stop-color="#FF5970"/>
<stop offset="1" stop-color="#D9304C"/>
</linearGradient>
</defs>
</svg>
