<svg width="578" height="696" viewBox="0 0 578 696" fill="none" xmlns="http://www.w3.org/2000/svg">
<rect x="5" y="202" width="573" height="494" rx="12" fill="white"/>
<path d="M25 30C25 27.2386 27.2386 25 30 25H179C181.761 25 184 27.2386 184 30V70C184 72.7614 181.761 75 179 75H30C27.2386 75 25 72.7614 25 70V30Z" fill="#009EE6"/>
<path d="M67.176 54L66.2 42.928H63.752L62.008 49.232C61.8 50 61.656 50.752 61.608 51.088C61.544 50.752 61.448 50.128 61.192 49.2L59.496 42.928H57.048L56.04 54H57.848L58.328 47.312C58.376 46.624 58.44 45.568 58.44 45.2C58.504 45.568 58.712 46.56 58.92 47.296L60.76 54H62.328L64.344 46.992C64.552 46.288 64.696 45.584 64.776 45.216C64.776 45.552 64.808 46.432 64.856 47.136L65.368 54H67.176ZM75.8686 53.216C75.2446 52.784 75.1486 52.432 75.1646 51.344L75.1966 49.024C75.2126 47.824 75.2126 47.392 75.0686 47.04C74.7166 46.16 73.8686 45.696 72.6046 45.696C71.3886 45.696 70.3806 46.032 69.1646 46.8L69.9486 48.064C69.9486 48.064 71.1966 47.136 72.3646 47.136C73.3246 47.136 73.4846 47.632 73.4846 48.56V48.992H72.9406C70.3486 48.992 68.9406 49.936 68.9406 51.808C68.9406 53.216 69.7726 54.24 71.6286 54.24C72.4926 54.24 73.1966 53.984 73.8526 53.248C74.0446 53.76 74.4606 54.144 74.9566 54.336L75.8686 53.216ZM73.4526 50.192L73.4206 52.112C73.0686 52.624 72.5246 52.96 71.9646 52.96C71.2606 52.96 70.8446 52.48 70.8446 51.712C70.8446 50.688 71.3726 50.176 73.1326 50.176C73.2606 50.176 73.4526 50.192 73.4526 50.192ZM83.4146 51.472C83.4146 50.528 82.9826 49.632 81.3506 49.216L80.3426 48.96C79.5266 48.752 79.2546 48.496 79.2546 48C79.2546 47.376 79.7346 46.96 80.4866 46.96C81.1266 46.96 81.7186 47.152 82.4706 47.552L83.0466 46.336C82.3586 45.968 81.4786 45.632 80.3746 45.632C78.5826 45.632 77.3666 46.688 77.3666 48.208C77.3666 49.344 78.0866 50.176 79.3026 50.432L80.2786 50.64C81.1906 50.832 81.5906 51.152 81.5906 51.776C81.5906 52.448 81.0466 52.912 80.2786 52.912C79.3666 52.912 78.3746 52.48 77.6546 52.064L77.0306 53.328C78.0706 53.904 79.1426 54.224 80.1346 54.224C82.0866 54.224 83.4146 53.104 83.4146 51.472ZM89.1185 53.856L88.8945 52.8C88.5905 52.912 88.3825 52.96 88.1425 52.96C87.3745 52.96 87.1505 52.672 87.1505 51.664V47.12H88.6385L89.1025 45.904H87.1665C87.1665 45.104 87.2305 44.128 87.3105 43.472L85.5025 43.904C85.4225 44.512 85.4225 45.216 85.4225 45.904H84.5265V47.12H85.4225V52.128C85.4225 53.28 85.9665 54.208 87.5345 54.208C88.0785 54.208 88.5905 54.096 89.1185 53.856ZM97.0855 50.432V50.064C97.0855 48.176 96.7335 47.184 96.0295 46.544C95.3415 45.92 94.6055 45.712 93.8055 45.712C92.7815 45.712 91.9815 46.048 91.3255 46.8C90.6215 47.6 90.3175 48.544 90.3175 49.968C90.3175 52.56 91.7575 54.208 94.0455 54.208C95.1335 54.208 96.1095 53.856 96.9575 53.136L96.2695 52.064C95.6615 52.592 95.0055 52.864 94.2535 52.864C92.6695 52.864 92.2535 51.68 92.2535 50.56V50.432H97.0855ZM95.2615 49.136H92.2695C92.2695 47.824 92.8135 47.04 93.8055 47.04C94.6855 47.04 95.2615 47.824 95.2615 49.136ZM103.493 45.808C103.285 45.712 103.125 45.68 102.869 45.68C102.085 45.68 101.445 46.096 100.805 46.976C100.805 46.528 100.693 46.064 100.501 45.696L98.8845 46.112C99.0605 46.608 99.1725 47.264 99.1725 48.288V54H100.933V48.528C101.093 47.872 101.717 47.328 102.453 47.328C102.645 47.328 102.773 47.376 102.949 47.44L103.493 45.808ZM115.896 50.864C115.896 49.76 115.384 48.512 113.544 48.064C114.776 47.712 115.448 46.832 115.448 45.648C115.448 44.72 115.032 44 114.2 43.472C113.512 43.04 112.936 42.928 111.288 42.928H108.36V54H111.576C114.376 54 115.896 53.056 115.896 50.864ZM113.864 50.688C113.864 51.68 113.256 52.48 111.848 52.48H110.184V48.976H111.8C112.328 48.976 112.552 48.992 112.824 49.072C113.432 49.248 113.864 49.904 113.864 50.688ZM113.512 45.936C113.512 46.224 113.416 46.688 113.08 47.04C112.728 47.408 112.392 47.456 111.72 47.456H110.152V44.432H111.576C112.104 44.432 112.392 44.48 112.616 44.56C113.144 44.752 113.512 45.296 113.512 45.936ZM124.671 53.424C124.671 53.424 124.175 53.024 124.175 51.808V45.712L122.479 46.032V51.824C122.207 52.4 121.487 52.88 120.895 52.88C119.855 52.88 119.711 52.144 119.711 51.136V45.712L117.983 46.032V51.52C117.983 52.528 118.111 53.056 118.431 53.44C118.831 53.92 119.535 54.24 120.447 54.24C121.375 54.24 122.159 53.92 122.751 53.248C122.895 53.712 123.103 54 123.455 54.256L124.671 53.424ZM130.587 53.856L130.363 52.8C130.059 52.912 129.851 52.96 129.611 52.96C128.843 52.96 128.619 52.672 128.619 51.664V47.12H130.107L130.571 45.904H128.635C128.635 45.104 128.699 44.128 128.779 43.472L126.971 43.904C126.891 44.512 126.891 45.216 126.891 45.904H125.995V47.12H126.891V52.128C126.891 53.28 127.435 54.208 129.003 54.208C129.547 54.208 130.059 54.096 130.587 53.856ZM136.04 53.856L135.816 52.8C135.512 52.912 135.304 52.96 135.064 52.96C134.296 52.96 134.072 52.672 134.072 51.664V47.12H135.56L136.024 45.904H134.088C134.088 45.104 134.152 44.128 134.232 43.472L132.424 43.904C132.344 44.512 132.344 45.216 132.344 45.904H131.448V47.12H132.344V52.128C132.344 53.28 132.888 54.208 134.456 54.208C135 54.208 135.512 54.096 136.04 53.856ZM144.311 49.984C144.311 47.424 142.999 45.712 140.695 45.712C138.551 45.712 137.159 47.376 137.159 49.968C137.159 52.56 138.535 54.208 140.727 54.208C142.919 54.208 144.311 52.592 144.311 49.984ZM142.375 50.016C142.375 52.048 141.799 52.896 140.759 52.896C139.703 52.896 139.111 52.208 139.111 49.856C139.111 47.888 139.591 47.04 140.711 47.04C141.735 47.04 142.375 47.728 142.375 50.016ZM152.645 54V47.952C152.645 46.464 151.781 45.712 150.533 45.712C149.669 45.712 148.917 46.096 148.053 46.832C148.053 46.4 147.957 46.048 147.765 45.68L146.165 46.128C146.389 46.704 146.469 47.2 146.469 48.048V54H148.197V48.128C148.725 47.6 149.461 47.216 149.973 47.216C150.645 47.216 150.901 47.52 150.901 48.624V54H152.645Z" fill="white"/>
<rect x="11.5" y="13.5" width="187" height="73" stroke="#FF3366" stroke-width="3"/>
<path d="M23 12V23H12C5.92487 23 1 18.0751 1 12C1 5.92487 5.92487 1 12 1C18.0751 1 23 5.92487 23 12Z" fill="#F0FBFF" stroke="#FF3366" stroke-width="2"/>
<path d="M20.5 12V20.5H12C7.30558 20.5 3.5 16.6944 3.5 12C3.5 7.30558 7.30558 3.5 12 3.5C16.6944 3.5 20.5 7.30558 20.5 12Z" fill="#F0FBFF" stroke="#FF3366"/>
<path d="M17.5 12V17.5H12C8.96243 17.5 6.5 15.0376 6.5 12C6.5 8.96243 8.96243 6.5 12 6.5C15.0376 6.5 17.5 8.96243 17.5 12Z" fill="#F0FBFF" stroke="#FF3366"/>
<path d="M13 210H570V680C570 684.418 566.418 688 562 688H21C16.5817 688 13 684.418 13 680V210Z" fill="#F0FBFF"/>
<path d="M12 218C12 213.582 15.5817 210 20 210H562C566.418 210 570 213.582 570 218V274H12V218Z" fill="#003399"/>
<path d="M56.056 234.928H54.136L53.08 239.952C52.808 241.216 52.44 243.552 52.44 243.552H52.392C52.392 243.552 52.12 241.744 51.848 240.432L50.696 234.928H48.632L47.48 240.208C47.192 241.552 46.872 243.632 46.872 243.632H46.824C46.824 243.632 46.616 241.872 46.232 240.08L45.128 234.928H43.16L45.8 246.064H47.96L49.032 240.88C49.304 239.536 49.592 237.728 49.592 237.728H49.64C49.64 237.728 49.816 239.264 50.184 240.928L51.32 246.064H53.432L56.056 234.928ZM63.3824 242.432V242.064C63.3824 240.176 63.0304 239.184 62.3264 238.544C61.6384 237.92 60.9024 237.712 60.1024 237.712C59.0784 237.712 58.2784 238.048 57.6224 238.8C56.9184 239.6 56.6144 240.544 56.6144 241.968C56.6144 244.56 58.0544 246.208 60.3424 246.208C61.4304 246.208 62.4064 245.856 63.2544 245.136L62.5664 244.064C61.9584 244.592 61.3024 244.864 60.5504 244.864C58.9664 244.864 58.5504 243.68 58.5504 242.56V242.432H63.3824ZM61.5584 241.136H58.5664C58.5664 239.824 59.1104 239.04 60.1024 239.04C60.9824 239.04 61.5584 239.824 61.5584 241.136ZM72.2233 241.824C72.2233 239.296 71.0073 237.712 69.0713 237.712C68.3033 237.712 67.7113 237.952 67.1513 238.496L67.0873 238.48C67.0873 238.48 67.1353 238.24 67.1353 237.712V235.824C67.1353 235.184 67.1033 234.784 67.0073 234.208L65.1833 234.608C65.3273 235.056 65.3913 235.632 65.3913 236.56V244.192C65.3913 245.28 65.3273 245.632 65.1833 246H66.7993C66.9273 245.776 66.9433 245.664 67.0233 245.248C67.5193 245.856 68.1913 246.176 68.9913 246.176C70.8793 246.176 72.2233 244.416 72.2233 241.824ZM70.2393 241.84C70.2393 243.872 69.7593 244.672 68.6553 244.672C68.0153 244.672 67.5033 244.336 67.1513 243.968V240.016C67.4713 239.616 67.9513 239.2 68.6873 239.2C69.9513 239.2 70.2393 240.384 70.2393 241.84ZM79.9771 243.472C79.9771 242.528 79.5451 241.632 77.9131 241.216L76.9051 240.96C76.0891 240.752 75.8171 240.496 75.8171 240C75.8171 239.376 76.2971 238.96 77.0491 238.96C77.6891 238.96 78.2811 239.152 79.0331 239.552L79.6091 238.336C78.9211 237.968 78.0411 237.632 76.9371 237.632C75.1451 237.632 73.9291 238.688 73.9291 240.208C73.9291 241.344 74.6491 242.176 75.8651 242.432L76.8411 242.64C77.7531 242.832 78.1531 243.152 78.1531 243.776C78.1531 244.448 77.6091 244.912 76.8411 244.912C75.9291 244.912 74.9371 244.48 74.2171 244.064L73.5931 245.328C74.6331 245.904 75.7051 246.224 76.6971 246.224C78.6491 246.224 79.9771 245.104 79.9771 243.472ZM83.6829 246V237.712L81.9069 238.032V246H83.6829ZM83.9709 235.536C83.9709 234.864 83.4429 234.352 82.8189 234.352C82.1629 234.352 81.6509 234.88 81.6509 235.536C81.6509 236.176 82.1469 236.704 82.7869 236.704C83.4429 236.704 83.9709 236.176 83.9709 235.536ZM90.1029 245.856L89.8789 244.8C89.5749 244.912 89.3669 244.96 89.1269 244.96C88.3589 244.96 88.1349 244.672 88.1349 243.664V239.12H89.6229L90.0869 237.904H88.1509C88.1509 237.104 88.2149 236.128 88.2949 235.472L86.4869 235.904C86.4069 236.512 86.4069 237.216 86.4069 237.904H85.5109V239.12H86.4069V244.128C86.4069 245.28 86.9509 246.208 88.5189 246.208C89.0629 246.208 89.5749 246.096 90.1029 245.856ZM98.0699 242.432V242.064C98.0699 240.176 97.7179 239.184 97.0139 238.544C96.3259 237.92 95.5899 237.712 94.7899 237.712C93.7659 237.712 92.9659 238.048 92.3099 238.8C91.6059 239.6 91.3019 240.544 91.3019 241.968C91.3019 244.56 92.7419 246.208 95.0299 246.208C96.1179 246.208 97.0939 245.856 97.9419 245.136L97.2539 244.064C96.6459 244.592 95.9899 244.864 95.2379 244.864C93.6539 244.864 93.2379 243.68 93.2379 242.56V242.432H98.0699ZM96.2459 241.136H93.2539C93.2539 239.824 93.7979 239.04 94.7899 239.04C95.6699 239.04 96.2459 239.824 96.2459 241.136ZM109.671 246V244.576H108.183V235.424H106.935L103.719 237.68L104.151 238.624C104.343 238.56 104.935 238.304 105.367 238.096C105.799 237.888 106.295 237.568 106.455 237.472V244.576H104.599V246H109.671Z" fill="white"/>
<rect opacity="0.2" x="60" y="489" width="462" height="151" rx="8" fill="#009EE6"/>
<rect opacity="0.2" x="60" y="322" width="462" height="151" rx="8" fill="#009EE6"/>
<rect opacity="0.2" x="76" y="505" width="430" height="22" rx="11" fill="#009EE6"/>
<rect opacity="0.2" x="76" y="338" width="430" height="22" rx="11" fill="#009EE6"/>
<rect opacity="0.2" x="76" y="535" width="186" height="10" rx="5" fill="#009EE6"/>
<rect opacity="0.2" x="76" y="368" width="186" height="10" rx="5" fill="#009EE6"/>
<rect opacity="0.2" x="76" y="553" width="186" height="10" rx="5" fill="#009EE6"/>
<rect opacity="0.2" x="76" y="386" width="186" height="10" rx="5" fill="#009EE6"/>
<path d="M350 579C350 576.239 352.239 574 355 574H501C503.761 574 506 576.239 506 579V619C506 621.761 503.761 624 501 624H355C352.239 624 350 621.761 350 619V579Z" fill="#009EE6"/>
<path d="M389.184 602.216V597H385.168L385.424 598.504H387.312V601.384C386.896 601.608 386.416 601.736 385.84 601.736C384.992 601.736 384.192 601.432 383.744 600.904C383.216 600.28 382.928 599.192 382.928 597.64C382.928 595.048 383.68 593.256 385.728 593.256C386.576 593.256 387.296 593.512 388.064 594.104L388.992 592.952C388.08 592.168 386.96 591.784 385.696 591.784C384.624 591.784 383.76 592.04 382.96 592.648C381.568 593.688 380.88 595.272 380.88 597.544C380.88 599.288 381.264 600.536 382.112 601.576C382.976 602.648 384.176 603.144 385.728 603.144C386.96 603.144 388.176 602.824 389.184 602.216ZM398.039 599.432V599.064C398.039 597.176 397.687 596.184 396.983 595.544C396.295 594.92 395.559 594.712 394.759 594.712C393.735 594.712 392.935 595.048 392.279 595.8C391.575 596.6 391.271 597.544 391.271 598.968C391.271 601.56 392.711 603.208 394.999 603.208C396.087 603.208 397.063 602.856 397.911 602.136L397.223 601.064C396.615 601.592 395.959 601.864 395.207 601.864C393.623 601.864 393.207 600.68 393.207 599.56V599.432H398.039ZM396.215 598.136H393.223C393.223 596.824 393.767 596.04 394.759 596.04C395.639 596.04 396.215 596.824 396.215 598.136ZM403.822 602.856L403.598 601.8C403.294 601.912 403.086 601.96 402.846 601.96C402.078 601.96 401.854 601.672 401.854 600.664V596.12H403.342L403.806 594.904H401.87C401.87 594.104 401.934 593.128 402.014 592.472L400.206 592.904C400.126 593.512 400.126 594.216 400.126 594.904H399.23V596.12H400.126V601.128C400.126 602.28 400.67 603.208 402.238 603.208C402.782 603.208 403.294 603.096 403.822 602.856ZM410.792 603V594.712L409.016 595.032V603H410.792ZM411.08 592.536C411.08 591.864 410.552 591.352 409.928 591.352C409.272 591.352 408.76 591.88 408.76 592.536C408.76 593.176 409.256 593.704 409.896 593.704C410.552 593.704 411.08 593.176 411.08 592.536ZM419.692 603V596.952C419.692 595.464 418.828 594.712 417.58 594.712C416.716 594.712 415.964 595.096 415.1 595.832C415.1 595.4 415.004 595.048 414.812 594.68L413.212 595.128C413.436 595.704 413.516 596.2 413.516 597.048V603H415.244V597.128C415.772 596.6 416.508 596.216 417.02 596.216C417.692 596.216 417.948 596.52 417.948 597.624V603H419.692ZM427.915 600.472C427.915 599.528 427.483 598.632 425.851 598.216L424.843 597.96C424.027 597.752 423.755 597.496 423.755 597C423.755 596.376 424.235 595.96 424.987 595.96C425.627 595.96 426.219 596.152 426.971 596.552L427.547 595.336C426.859 594.968 425.979 594.632 424.875 594.632C423.083 594.632 421.867 595.688 421.867 597.208C421.867 598.344 422.587 599.176 423.803 599.432L424.779 599.64C425.691 599.832 426.091 600.152 426.091 600.776C426.091 601.448 425.547 601.912 424.779 601.912C423.867 601.912 422.875 601.48 422.155 601.064L421.531 602.328C422.571 602.904 423.643 603.224 424.635 603.224C426.587 603.224 427.915 602.104 427.915 600.472ZM436.531 602.424C436.531 602.424 436.035 602.024 436.035 600.808V594.712L434.339 595.032V600.824C434.067 601.4 433.347 601.88 432.755 601.88C431.715 601.88 431.571 601.144 431.571 600.136V594.712L429.843 595.032V600.52C429.843 601.528 429.971 602.056 430.291 602.44C430.691 602.92 431.395 603.24 432.307 603.24C433.235 603.24 434.019 602.92 434.611 602.248C434.755 602.712 434.963 603 435.315 603.256L436.531 602.424ZM443.071 594.808C442.863 594.712 442.703 594.68 442.447 594.68C441.663 594.68 441.023 595.096 440.383 595.976C440.383 595.528 440.271 595.064 440.079 594.696L438.463 595.112C438.639 595.608 438.751 596.264 438.751 597.288V603H440.511V597.528C440.671 596.872 441.295 596.328 442.031 596.328C442.223 596.328 442.351 596.376 442.527 596.44L443.071 594.808ZM450.556 602.216C449.932 601.784 449.836 601.432 449.852 600.344L449.884 598.024C449.9 596.824 449.9 596.392 449.756 596.04C449.404 595.16 448.556 594.696 447.292 594.696C446.076 594.696 445.068 595.032 443.852 595.8L444.636 597.064C444.636 597.064 445.884 596.136 447.052 596.136C448.012 596.136 448.172 596.632 448.172 597.56V597.992H447.628C445.036 597.992 443.628 598.936 443.628 600.808C443.628 602.216 444.46 603.24 446.316 603.24C447.18 603.24 447.884 602.984 448.54 602.248C448.732 602.76 449.148 603.144 449.644 603.336L450.556 602.216ZM448.14 599.192L448.108 601.112C447.756 601.624 447.212 601.96 446.652 601.96C445.948 601.96 445.532 601.48 445.532 600.712C445.532 599.688 446.06 599.176 447.82 599.176C447.948 599.176 448.14 599.192 448.14 599.192ZM458.77 603V596.952C458.77 595.464 457.906 594.712 456.658 594.712C455.794 594.712 455.042 595.096 454.178 595.832C454.178 595.4 454.082 595.048 453.89 594.68L452.29 595.128C452.514 595.704 452.594 596.2 452.594 597.048V603H454.322V597.128C454.85 596.6 455.586 596.216 456.098 596.216C456.77 596.216 457.026 596.52 457.026 597.624V603H458.77ZM467.037 602.136L466.205 601.064C465.677 601.592 465.133 601.864 464.573 601.864C464.141 601.864 463.757 601.688 463.501 601.4C463.133 601 462.957 600.296 462.957 599.192C462.957 598.184 463.053 597.432 463.293 596.936C463.549 596.408 464.013 596.12 464.573 596.12C465.037 596.12 465.453 596.312 465.933 596.744L466.813 595.576C466.093 594.904 465.453 594.696 464.573 594.696C462.765 594.696 461.005 596.104 461.005 599.048C461.005 601.656 462.237 603.208 464.445 603.208C465.533 603.208 466.301 602.872 467.037 602.136ZM474.929 599.432V599.064C474.929 597.176 474.577 596.184 473.873 595.544C473.185 594.92 472.449 594.712 471.649 594.712C470.625 594.712 469.825 595.048 469.169 595.8C468.465 596.6 468.161 597.544 468.161 598.968C468.161 601.56 469.601 603.208 471.889 603.208C472.977 603.208 473.953 602.856 474.801 602.136L474.113 601.064C473.505 601.592 472.849 601.864 472.097 601.864C470.513 601.864 470.097 600.68 470.097 599.56V599.432H474.929ZM473.105 598.136H470.113C470.113 596.824 470.657 596.04 471.649 596.04C472.529 596.04 473.105 596.824 473.105 598.136Z" fill="white"/>
<path d="M350 412C350 409.239 352.239 407 355 407H501C503.761 407 506 409.239 506 412V452C506 454.761 503.761 457 501 457H355C352.239 457 350 454.761 350 452V412Z" fill="#009EE6"/>
<path d="M389.184 435.216V430H385.168L385.424 431.504H387.312V434.384C386.896 434.608 386.416 434.736 385.84 434.736C384.992 434.736 384.192 434.432 383.744 433.904C383.216 433.28 382.928 432.192 382.928 430.64C382.928 428.048 383.68 426.256 385.728 426.256C386.576 426.256 387.296 426.512 388.064 427.104L388.992 425.952C388.08 425.168 386.96 424.784 385.696 424.784C384.624 424.784 383.76 425.04 382.96 425.648C381.568 426.688 380.88 428.272 380.88 430.544C380.88 432.288 381.264 433.536 382.112 434.576C382.976 435.648 384.176 436.144 385.728 436.144C386.96 436.144 388.176 435.824 389.184 435.216ZM398.039 432.432V432.064C398.039 430.176 397.687 429.184 396.983 428.544C396.295 427.92 395.559 427.712 394.759 427.712C393.735 427.712 392.935 428.048 392.279 428.8C391.575 429.6 391.271 430.544 391.271 431.968C391.271 434.56 392.711 436.208 394.999 436.208C396.087 436.208 397.063 435.856 397.911 435.136L397.223 434.064C396.615 434.592 395.959 434.864 395.207 434.864C393.623 434.864 393.207 433.68 393.207 432.56V432.432H398.039ZM396.215 431.136H393.223C393.223 429.824 393.767 429.04 394.759 429.04C395.639 429.04 396.215 429.824 396.215 431.136ZM403.822 435.856L403.598 434.8C403.294 434.912 403.086 434.96 402.846 434.96C402.078 434.96 401.854 434.672 401.854 433.664V429.12H403.342L403.806 427.904H401.87C401.87 427.104 401.934 426.128 402.014 425.472L400.206 425.904C400.126 426.512 400.126 427.216 400.126 427.904H399.23V429.12H400.126V434.128C400.126 435.28 400.67 436.208 402.238 436.208C402.782 436.208 403.294 436.096 403.822 435.856ZM410.792 436V427.712L409.016 428.032V436H410.792ZM411.08 425.536C411.08 424.864 410.552 424.352 409.928 424.352C409.272 424.352 408.76 424.88 408.76 425.536C408.76 426.176 409.256 426.704 409.896 426.704C410.552 426.704 411.08 426.176 411.08 425.536ZM419.692 436V429.952C419.692 428.464 418.828 427.712 417.58 427.712C416.716 427.712 415.964 428.096 415.1 428.832C415.1 428.4 415.004 428.048 414.812 427.68L413.212 428.128C413.436 428.704 413.516 429.2 413.516 430.048V436H415.244V430.128C415.772 429.6 416.508 429.216 417.02 429.216C417.692 429.216 417.948 429.52 417.948 430.624V436H419.692ZM427.915 433.472C427.915 432.528 427.483 431.632 425.851 431.216L424.843 430.96C424.027 430.752 423.755 430.496 423.755 430C423.755 429.376 424.235 428.96 424.987 428.96C425.627 428.96 426.219 429.152 426.971 429.552L427.547 428.336C426.859 427.968 425.979 427.632 424.875 427.632C423.083 427.632 421.867 428.688 421.867 430.208C421.867 431.344 422.587 432.176 423.803 432.432L424.779 432.64C425.691 432.832 426.091 433.152 426.091 433.776C426.091 434.448 425.547 434.912 424.779 434.912C423.867 434.912 422.875 434.48 422.155 434.064L421.531 435.328C422.571 435.904 423.643 436.224 424.635 436.224C426.587 436.224 427.915 435.104 427.915 433.472ZM436.531 435.424C436.531 435.424 436.035 435.024 436.035 433.808V427.712L434.339 428.032V433.824C434.067 434.4 433.347 434.88 432.755 434.88C431.715 434.88 431.571 434.144 431.571 433.136V427.712L429.843 428.032V433.52C429.843 434.528 429.971 435.056 430.291 435.44C430.691 435.92 431.395 436.24 432.307 436.24C433.235 436.24 434.019 435.92 434.611 435.248C434.755 435.712 434.963 436 435.315 436.256L436.531 435.424ZM443.071 427.808C442.863 427.712 442.703 427.68 442.447 427.68C441.663 427.68 441.023 428.096 440.383 428.976C440.383 428.528 440.271 428.064 440.079 427.696L438.463 428.112C438.639 428.608 438.751 429.264 438.751 430.288V436H440.511V430.528C440.671 429.872 441.295 429.328 442.031 429.328C442.223 429.328 442.351 429.376 442.527 429.44L443.071 427.808ZM450.556 435.216C449.932 434.784 449.836 434.432 449.852 433.344L449.884 431.024C449.9 429.824 449.9 429.392 449.756 429.04C449.404 428.16 448.556 427.696 447.292 427.696C446.076 427.696 445.068 428.032 443.852 428.8L444.636 430.064C444.636 430.064 445.884 429.136 447.052 429.136C448.012 429.136 448.172 429.632 448.172 430.56V430.992H447.628C445.036 430.992 443.628 431.936 443.628 433.808C443.628 435.216 444.46 436.24 446.316 436.24C447.18 436.24 447.884 435.984 448.54 435.248C448.732 435.76 449.148 436.144 449.644 436.336L450.556 435.216ZM448.14 432.192L448.108 434.112C447.756 434.624 447.212 434.96 446.652 434.96C445.948 434.96 445.532 434.48 445.532 433.712C445.532 432.688 446.06 432.176 447.82 432.176C447.948 432.176 448.14 432.192 448.14 432.192ZM458.77 436V429.952C458.77 428.464 457.906 427.712 456.658 427.712C455.794 427.712 455.042 428.096 454.178 428.832C454.178 428.4 454.082 428.048 453.89 427.68L452.29 428.128C452.514 428.704 452.594 429.2 452.594 430.048V436H454.322V430.128C454.85 429.6 455.586 429.216 456.098 429.216C456.77 429.216 457.026 429.52 457.026 430.624V436H458.77ZM467.037 435.136L466.205 434.064C465.677 434.592 465.133 434.864 464.573 434.864C464.141 434.864 463.757 434.688 463.501 434.4C463.133 434 462.957 433.296 462.957 432.192C462.957 431.184 463.053 430.432 463.293 429.936C463.549 429.408 464.013 429.12 464.573 429.12C465.037 429.12 465.453 429.312 465.933 429.744L466.813 428.576C466.093 427.904 465.453 427.696 464.573 427.696C462.765 427.696 461.005 429.104 461.005 432.048C461.005 434.656 462.237 436.208 464.445 436.208C465.533 436.208 466.301 435.872 467.037 435.136ZM474.929 432.432V432.064C474.929 430.176 474.577 429.184 473.873 428.544C473.185 427.92 472.449 427.712 471.649 427.712C470.625 427.712 469.825 428.048 469.169 428.8C468.465 429.6 468.161 430.544 468.161 431.968C468.161 434.56 469.601 436.208 471.889 436.208C472.977 436.208 473.953 435.856 474.801 435.136L474.113 434.064C473.505 434.592 472.849 434.864 472.097 434.864C470.513 434.864 470.097 433.68 470.097 432.56V432.432H474.929ZM473.105 431.136H470.113C470.113 429.824 470.657 429.04 471.649 429.04C472.529 429.04 473.105 429.824 473.105 431.136Z" fill="white"/>
<rect x="343.5" y="567.5" width="169" height="63" stroke="#FF3366" stroke-width="3"/>
<rect x="343.5" y="399.5" width="169" height="63" stroke="#FF3366" stroke-width="3"/>
<rect x="332" y="554" width="20" height="20" fill="#C0E8FA"/>
<path d="M349 564V571H342C338.134 571 335 567.866 335 564C335 560.134 338.134 557 342 557C345.866 557 349 560.134 349 564Z" fill="#F0FBFF" stroke="#FF3366" stroke-width="2"/>
<path d="M349 396V403H342C338.134 403 335 399.866 335 396C335 392.134 338.134 389 342 389C345.866 389 349 392.134 349 396Z" fill="#F0FBFF" stroke="#FF3366" stroke-width="2"/>
<path d="M200 45.5C197.5 45.5 195.5 47.5 195.5 50C195.5 52.5 197.5 54.5 200 54.5C202.5 54.5 204.5 52.5 204.5 50C204.5 47.5 202.5 45.5 200 45.5Z" fill="white"/>
<path d="M343.061 432.061C343.646 431.475 343.646 430.525 343.061 429.939L333.515 420.393C332.929 419.808 331.979 419.808 331.393 420.393C330.808 420.979 330.808 421.929 331.393 422.515L339.879 431L331.393 439.485C330.808 440.071 330.808 441.021 331.393 441.607C331.979 442.192 332.929 442.192 333.515 441.607L343.061 432.061ZM197 50C197 48.3284 198.328 47 200 47V44C196.672 44 194 46.6716 194 50H197ZM200 47C201.672 47 203 48.3284 203 50H206C206 46.6716 203.328 44 200 44V47ZM203 50C203 51.6716 201.672 53 200 53V56C203.328 56 206 53.3284 206 50H203ZM200 53C198.328 53 197 51.6716 197 50H194C194 53.3284 196.672 56 200 56V53ZM204.5 51.5H251V48.5H204.5V51.5ZM269.5 70V411H272.5V70H269.5ZM291 432.5H342V429.5H291V432.5ZM269.5 411C269.5 422.874 279.126 432.5 291 432.5V429.5C280.783 429.5 272.5 421.217 272.5 411H269.5ZM251 51.5C261.217 51.5 269.5 59.7827 269.5 70H272.5C272.5 58.1259 262.874 48.5 251 48.5V51.5Z" fill="#FF3366"/>
<path d="M200 45.5C197.5 45.5 195.5 47.5 195.5 50C195.5 52.5 197.5 54.5 200 54.5C202.5 54.5 204.5 52.5 204.5 50C204.5 47.5 202.5 45.5 200 45.5Z" fill="white"/>
<path d="M343.061 600.061C343.646 599.475 343.646 598.525 343.061 597.939L333.515 588.393C332.929 587.808 331.979 587.808 331.393 588.393C330.808 588.979 330.808 589.929 331.393 590.515L339.879 599L331.393 607.485C330.808 608.071 330.808 609.021 331.393 609.607C331.979 610.192 332.929 610.192 333.515 609.607L343.061 600.061ZM197 50C197 48.3284 198.328 47 200 47V44C196.672 44 194 46.6716 194 50H197ZM200 47C201.672 47 203 48.3284 203 50H206C206 46.6716 203.328 44 200 44V47ZM203 50C203 51.6716 201.672 53 200 53V56C203.328 56 206 53.3284 206 50H203ZM200 53C198.328 53 197 51.6716 197 50H194C194 53.3284 196.672 56 200 56V53ZM204.5 51.5H251V48.5H204.5V51.5ZM269.5 70V579H272.5V70H269.5ZM291 600.5H342V597.5H291V600.5ZM269.5 579C269.5 590.874 279.126 600.5 291 600.5V597.5C280.783 597.5 272.5 589.217 272.5 579H269.5ZM251 51.5C261.217 51.5 269.5 59.7827 269.5 70H272.5C272.5 58.1259 262.874 48.5 251 48.5V51.5Z" fill="#FF3366"/>
</svg>
