<svg width="1024" height="1024" viewBox="0 0 1024 1024" fill="none" xmlns="http://www.w3.org/2000/svg">
<rect width="1024" height="1024" rx="100" fill="#003399"/>
<path d="M625.915 583.091L620.945 597.244L620.945 597.244L625.915 583.091ZM613.167 595.839L599.014 600.809L599.014 600.809L613.167 595.839ZM756.286 628.869L761.256 614.716L761.256 614.716L756.286 628.869ZM761.58 633.199L748.653 640.808L749.622 642.454L750.973 643.805L761.58 633.199ZM895.735 767.354L885.128 777.96L885.891 778.723L886.756 779.369L895.735 767.354ZM897.908 769.235L887.301 779.841L887.301 779.841L897.908 769.235ZM874.607 844.922L864 834.316L864 834.316L874.607 844.922ZM796.001 864.523L808.777 856.663L807.853 855.162L806.608 853.916L796.001 864.523ZM662.414 730.936L673.021 720.33L672.226 719.534L671.32 718.866L662.414 730.936ZM658.944 726.211L644.791 731.18L644.791 731.18L658.944 726.211ZM630.884 568.938C611.099 561.991 592.066 581.023 599.014 600.809L627.32 590.87C628.709 594.827 624.903 598.633 620.945 597.244L630.884 568.938ZM761.256 614.716L630.884 568.938L620.945 597.244L751.317 643.021L761.256 614.716ZM774.507 625.59C771.648 620.733 767.093 616.765 761.256 614.716L751.317 643.021C750.214 642.634 749.248 641.818 748.653 640.808L774.507 625.59ZM750.973 643.805L885.128 777.96L906.342 756.747L772.187 622.592L750.973 643.805ZM908.515 758.628C907.32 757.434 906.051 756.337 904.714 755.338L886.756 779.369C886.951 779.515 887.132 779.671 887.301 779.841L908.515 758.628ZM885.213 855.529C900.257 840.485 911.199 823.135 916.269 806.666C921.115 790.924 921.614 771.728 908.515 758.628L887.301 779.841C888.668 781.207 891.184 786.188 887.597 797.839C884.234 808.763 876.291 822.024 864 834.316L885.213 855.529ZM788.312 878.83C801.412 891.93 820.608 891.431 836.35 886.584C852.82 881.514 870.17 870.573 885.213 855.529L864 834.316C851.709 846.607 838.448 854.549 827.523 857.912C815.872 861.499 810.892 858.983 809.526 857.617L788.312 878.83ZM783.225 872.383C784.65 874.699 786.345 876.863 788.312 878.83L809.526 857.617C809.251 857.342 809.003 857.03 808.777 856.663L783.225 872.383ZM806.608 853.916L673.021 720.33L651.808 741.543L785.394 875.129L806.608 853.916ZM644.791 731.18C646.518 736.099 649.623 740.139 653.508 743.006L671.32 718.866C672.147 719.476 672.777 720.329 673.097 721.241L644.791 731.18ZM599.014 600.809L644.791 731.18L673.097 721.241L627.32 590.87L599.014 600.809Z" fill="#FF9900"/>
<path fill-rule="evenodd" clip-rule="evenodd" d="M336 256H436V256.001C436.167 256 436.333 256 436.5 256C488.691 256 531 298.309 531 350.5C531 402.691 488.691 445 436.5 445C436.333 445 436.167 445 436 444.999V445H336V423H398.72V422.999C398.847 423 398.975 423 399.103 423C439.144 423 471.603 390.541 471.603 350.5C471.603 310.459 439.144 278 399.103 278C398.975 278 398.847 278 398.72 278.001V278H336V256Z" fill="#A7E3FB"/>
<path fill-rule="evenodd" clip-rule="evenodd" d="M358 542H458V542.001C458.167 542 458.333 542 458.5 542C510.691 542 553 590.577 553 650.5C553 710.423 510.691 759 458.5 759C458.333 759 458.167 759 458 758.999V759H358V733.741H420.72V733.74C420.847 733.74 420.975 733.741 421.103 733.741C461.144 733.741 493.603 696.473 493.603 650.5C493.603 604.527 461.144 567.259 421.103 567.259C420.975 567.259 420.847 567.26 420.72 567.26V567.259H358V542Z" fill="#A7E3FB"/>
<path fill-rule="evenodd" clip-rule="evenodd" d="M226 242V202H186V242H226ZM226 282H186V322H226V282ZM226 362H186V854H226V362Z" fill="#A7E3FB"/>
<path fill-rule="evenodd" clip-rule="evenodd" d="M611.354 841.171L611.188 841.282C555.784 878.218 479.616 894 388 894H187H147V854V362H187V814V854H227H388C476 854 543 838.667 589 808C607.048 795.707 621.555 780.54 632.522 762.5L660.485 792.878C647.661 811.335 631.409 827.511 611.519 841.059L611.354 841.171ZM672.329 552.163L602.062 527.462C595.994 522.356 589.306 517.535 582 513C577.24 509.77 572.154 506.713 566.743 503.829C550.937 495.406 532.356 488.463 511 483C531.556 476.975 549.474 468.877 564.755 458.707C578.217 449.747 589.632 439.178 599 427C619.667 401 630 369.333 630 332C630 274.667 604 229.333 552 196C541.333 189.333 530.667 184 520 180C509.333 175.333 497 171.667 483 169C469.667 166.333 454 164.667 436 164C418 162.667 396 162 370 162H227H187V162H147V162V122H187H370C396.261 122 419.065 122.662 438.22 124.055C457.355 124.793 474.932 126.607 490.662 129.74C506.52 132.772 521.419 137.068 535.038 142.922C548.096 147.9 560.817 154.341 573.2 162.08L573.394 162.201L573.587 162.325C636 202.333 670 259.824 670 332C670 377.078 657.362 417.74 630.51 451.642C622.569 461.926 613.621 471.172 603.761 479.429L603.779 479.441C626.616 493.725 645.766 511.208 659.961 532.332C664.495 538.768 668.622 545.38 672.329 552.163ZM187 322H147V282H187V322ZM187 242H147V202L187 202V242ZM493 297C503.667 312.333 509 330 509 350C509 359.333 507 370.333 503 383C499.667 395.667 492.667 407.667 482 419C470.667 430.333 459 437.667 447 441C435 443.667 418.333 445 397 445H341H301V405V296V256H341H388C404.667 256 417.667 256.667 427 258C437 259.333 445.667 261.333 453 264C469.667 270 483 281 493 297ZM341 296V405H397C416.223 405 429.193 403.814 437.138 402.204C440.797 401.007 446.238 398.09 453.282 391.147C459.95 383.948 463.001 377.821 464.317 372.82L464.564 371.881L464.857 370.955C468.102 360.679 469 353.922 469 350C469 337.558 465.83 327.988 460.164 319.843L459.602 319.035L459.08 318.2C453.503 309.277 447.106 304.391 439.451 301.635L439.391 301.614L439.33 301.592C435.363 300.149 429.637 298.706 421.714 297.649L421.528 297.624L421.343 297.598C414.782 296.661 403.974 296 388 296H341ZM466 546C457.333 543.333 448.667 541.667 440 541C431.333 540.333 418.667 540 402 540H341H301V580V719V759H341H405C449 759 481 748.333 501 727C521 705 531 678.333 531 647C531 622.333 525 600.667 513 582C501 563.333 485.333 551.333 466 546ZM471.626 699.847C484.401 685.684 491 668.843 491 647C491 629.118 486.751 615.139 479.353 603.63C472.066 592.295 464.167 586.988 455.363 584.56L454.797 584.404L454.237 584.231C448.277 582.397 442.524 581.312 436.932 580.882C429.828 580.336 418.389 580 402 580H341V719H405C443.243 719 462.229 709.721 471.626 699.847Z" fill="white"/>
</svg>
