<svg width="780" height="772" viewBox="0 0 780 772" fill="none" xmlns="http://www.w3.org/2000/svg">
<path d="M485.915 461.091L480.945 475.244L480.945 475.244L485.915 461.091ZM473.167 473.839L459.014 478.809L459.014 478.809L473.167 473.839ZM616.286 506.869L621.256 492.716L621.256 492.716L616.286 506.869ZM621.58 511.199L608.653 518.808L609.622 520.454L610.973 521.805L621.58 511.199ZM755.735 645.354L745.128 655.96L745.891 656.723L746.756 657.369L755.735 645.354ZM757.908 647.235L747.301 657.841L747.301 657.841L757.908 647.235ZM734.607 722.922L724 712.316L724 712.316L734.607 722.922ZM656.001 742.523L668.777 734.663L667.853 733.162L666.608 731.916L656.001 742.523ZM522.414 608.936L533.021 598.33L532.226 597.534L531.32 596.866L522.414 608.936ZM518.944 604.211L504.791 609.18L504.791 609.18L518.944 604.211ZM490.884 446.938C471.099 439.991 452.066 459.023 459.014 478.809L487.32 468.87C488.709 472.827 484.903 476.633 480.945 475.244L490.884 446.938ZM621.256 492.716L490.884 446.938L480.945 475.244L611.317 521.021L621.256 492.716ZM634.507 503.59C631.648 498.733 627.093 494.765 621.256 492.716L611.317 521.021C610.214 520.634 609.248 519.818 608.653 518.808L634.507 503.59ZM610.973 521.805L745.128 655.96L766.342 634.747L632.187 500.592L610.973 521.805ZM768.515 636.628C767.32 635.434 766.051 634.337 764.714 633.338L746.756 657.369C746.951 657.515 747.132 657.671 747.301 657.841L768.515 636.628ZM745.213 733.529C760.257 718.485 771.199 701.135 776.269 684.666C781.115 668.924 781.614 649.728 768.515 636.628L747.301 657.841C748.668 659.207 751.184 664.188 747.597 675.839C744.234 686.763 736.291 700.024 724 712.316L745.213 733.529ZM648.312 756.83C661.412 769.93 680.608 769.431 696.35 764.584C712.82 759.514 730.17 748.573 745.213 733.529L724 712.316C711.709 724.607 698.448 732.549 687.523 735.912C675.872 739.499 670.892 736.983 669.526 735.617L648.312 756.83ZM643.225 750.383C644.65 752.699 646.345 754.863 648.312 756.83L669.526 735.617C669.251 735.342 669.003 735.03 668.777 734.663L643.225 750.383ZM666.608 731.916L533.021 598.33L511.808 619.543L645.394 753.129L666.608 731.916ZM504.791 609.18C506.518 614.099 509.623 618.139 513.508 621.006L531.32 596.866C532.147 597.476 532.777 598.329 533.097 599.241L504.791 609.18ZM459.014 478.809L504.791 609.18L533.097 599.241L487.32 468.87L459.014 478.809Z" fill="#FF9900"/>
<path fill-rule="evenodd" clip-rule="evenodd" d="M196 134H296V134.001C296.167 134 296.333 134 296.5 134C348.691 134 391 176.309 391 228.5C391 280.691 348.691 323 296.5 323C296.333 323 296.167 323 296 322.999V323H196V301H258.72V300.999C258.847 301 258.975 301 259.103 301C299.144 301 331.603 268.541 331.603 228.5C331.603 188.459 299.144 156 259.103 156C258.975 156 258.847 156 258.72 156.001V156H196V134Z" fill="#A7E3FB"/>
<path fill-rule="evenodd" clip-rule="evenodd" d="M218 420H318V420.001C318.167 420 318.333 420 318.5 420C370.691 420 413 468.577 413 528.5C413 588.423 370.691 637 318.5 637C318.333 637 318.167 637 318 636.999V637H218V611.741H280.72V611.74C280.847 611.74 280.975 611.741 281.103 611.741C321.144 611.741 353.603 574.473 353.603 528.5C353.603 482.527 321.144 445.259 281.103 445.259C280.975 445.259 280.847 445.26 280.72 445.26V445.259H218V420Z" fill="#A7E3FB"/>
<path fill-rule="evenodd" clip-rule="evenodd" d="M86 120V80H46V120H86ZM86 160H46V200H86V160ZM86 240H46V732H86V240Z" fill="#A7E3FB"/>
<path fill-rule="evenodd" clip-rule="evenodd" d="M471.354 719.171L471.188 719.282C415.784 756.218 339.616 772 248 772H47H7V732V240H47V692V732H87H248C336 732 403 716.667 449 686C467.048 673.707 481.555 658.54 492.522 640.5L520.485 670.878C507.661 689.335 491.409 705.511 471.519 719.059L471.354 719.171ZM532.329 430.163L462.062 405.462C455.994 400.356 449.306 395.535 442 391C437.24 387.77 432.154 384.713 426.743 381.829C410.937 373.406 392.356 366.463 371 361C391.556 354.975 409.474 346.877 424.755 336.707C438.217 327.747 449.632 317.178 459 305C479.667 279 490 247.333 490 210C490 152.667 464 107.333 412 74C401.333 67.3333 390.667 62 380 58C369.333 53.3333 357 49.6666 343 47C329.667 44.3333 314 42.6667 296 42C278 40.6667 256 40 230 40H87H47V40H7V40V0H47H230C256.261 0 279.065 0.662079 298.22 2.05533C317.355 2.79321 334.932 4.60733 350.662 7.74023C366.52 10.7716 381.419 15.0676 395.038 20.9222C408.096 25.8997 420.817 32.3405 433.2 40.08L433.394 40.2013L433.587 40.3248C496 80.3333 530 137.824 530 210C530 255.078 517.362 295.74 490.51 329.642C482.569 339.926 473.621 349.172 463.761 357.429L463.779 357.441C486.616 371.725 505.766 389.208 519.961 410.332C524.495 416.768 528.622 423.38 532.329 430.163ZM47 200H7V160H47V200ZM47 120H7V80L47 80V120ZM353 175C363.667 190.333 369 208 369 228C369 237.333 367 248.333 363 261C359.667 273.667 352.667 285.667 342 297C330.667 308.333 319 315.667 307 319C295 321.667 278.333 323 257 323H201H161V283V174V134H201H248C264.667 134 277.667 134.667 287 136C297 137.333 305.667 139.333 313 142C329.667 148 343 159 353 175ZM201 174V283H257C276.223 283 289.193 281.814 297.138 280.204C300.797 279.007 306.238 276.09 313.282 269.147C319.95 261.948 323.001 255.821 324.317 250.82L324.564 249.881L324.857 248.955C328.102 238.679 329 231.922 329 228C329 215.558 325.83 205.988 320.164 197.843L319.602 197.035L319.08 196.2C313.503 187.277 307.106 182.391 299.451 179.635L299.391 179.614L299.33 179.592C295.363 178.149 289.637 176.706 281.714 175.649L281.528 175.624L281.343 175.598C274.782 174.661 263.974 174 248 174H201ZM326 424C317.333 421.333 308.667 419.667 300 419C291.333 418.333 278.667 418 262 418H201H161V458V597V637H201H265C309 637 341 626.333 361 605C381 583 391 556.333 391 525C391 500.333 385 478.667 373 460C361 441.333 345.333 429.333 326 424ZM331.626 577.847C344.401 563.684 351 546.843 351 525C351 507.118 346.751 493.139 339.353 481.63C332.066 470.295 324.167 464.988 315.363 462.56L314.797 462.404L314.237 462.231C308.277 460.397 302.524 459.312 296.932 458.882C289.828 458.336 278.389 458 262 458H201V597H265C303.243 597 322.229 587.721 331.626 577.847Z" fill="white"/>
</svg>
