<svg width="120" height="120" viewBox="0 0 120 120" fill="none" xmlns="http://www.w3.org/2000/svg">
<rect width="120" height="120" rx="12" fill="#F9F3FF"/>
<path d="M30 16L18.453 36L41.547 36L30 16ZM30 103L41.547 83L18.453 83L30 103ZM28 34L28 85L32 85L32 34L28 34Z" fill="#6C2273"/>
<path fill-rule="evenodd" clip-rule="evenodd" d="M52 28C52 25.7909 53.7909 24 56 24H104C106.209 24 108 25.7909 108 28V36C108 38.2091 106.209 40 104 40H56C53.7909 40 52 38.2091 52 36V28ZM52 56C52 53.7909 53.7909 52 56 52H104C106.209 52 108 53.7909 108 56V64C108 66.2091 106.209 68 104 68H56C53.7909 68 52 66.2091 52 64V56ZM56 80C53.7909 80 52 81.7909 52 84V92C52 94.2091 53.7909 96 56 96H104C106.209 96 108 94.2091 108 92V84C108 81.7909 106.209 80 104 80H56Z" fill="#BE82FA"/>
</svg>
