<svg width="120" height="120" viewBox="0 0 120 120" fill="none" xmlns="http://www.w3.org/2000/svg">
<rect width="120" height="120" rx="12" fill="#F9F3FF"/>
<path d="M32.264 80.68L26.776 86C19.44 80.176 14.848 71.328 14.848 59.96C14.848 48.592 19.44 39.744 26.776 33.92L32.264 39.24C25.992 44.784 22.688 51.224 22.688 59.96C22.688 68.64 25.992 75.192 32.264 80.68ZM62.5338 64.16L73.6778 79H64.5498L57.4938 69.648L50.3257 79H41.5337L53.0698 63.768L42.3178 49.488H51.5018L58.1098 58.28L64.6618 49.488H73.4538L62.5338 64.16ZM88.5987 86L83.1667 80.68C89.4387 75.192 92.6867 68.64 92.6867 59.96C92.6867 51.224 89.4387 44.784 83.1667 39.24L88.5987 33.92C95.9907 39.744 100.583 48.592 100.583 59.96C100.583 71.328 95.9907 80.176 88.5987 86Z" fill="#6C2273"/>
</svg>
