<svg width="120" height="120" viewBox="0 0 120 120" fill="none" xmlns="http://www.w3.org/2000/svg">
<rect width="120" height="120" rx="12" fill="#F9F3FF"/>
<path d="M62.08 83L43.36 27.4H28.88L10.16 83H21.92L25.84 71.08H46.48L50.4 83H62.08ZM36.16 39.88L43.28 61.4H29.04L36.16 39.88ZM97.49 45.96C94.45 42.52 90.05 40.6 84.53 40.6C72.37 40.6 63.57 49.32 63.57 61.96C63.57 74.52 72.37 84.04 84.53 84.04C90.05 84.04 94.45 81.96 97.49 78.36V83H108.45V40.84H97.49V45.96ZM86.21 73.56C79.89 73.56 75.33 68.68 75.33 61.96C75.33 55.24 79.89 50.28 86.21 50.28C92.69 50.28 97.09 55.08 97.09 61.96C97.09 68.84 92.69 73.56 86.21 73.56Z" fill="#6C2273"/>
</svg>
