<svg width="120" height="120" viewBox="0 0 120 120" fill="none" xmlns="http://www.w3.org/2000/svg">
<rect width="120" height="120" rx="12" fill="#E9FBF7"/>
<path fill-rule="evenodd" clip-rule="evenodd" d="M18 80C16.8954 80 16 80.8954 16 82V102C16 103.105 16.8954 104 18 104H38C39.1046 104 40 103.105 40 102V82C40 80.8954 39.1046 80 38 80H18ZM80 50C80 48.8954 80.8954 48 82 48H102C103.105 48 104 48.8954 104 50V70C104 71.1046 103.105 72 102 72H82C80.8954 72 80 71.1046 80 70V50ZM16 18C16 16.8954 16.8954 16 18 16H38C39.1046 16 40 16.8954 40 18V38C40 39.1046 39.1046 40 38 40H18C16.8954 40 16 39.1046 16 38V18ZM48 18C48 16.8954 48.8954 16 50 16H70C71.1046 16 72 16.8954 72 18V38C72 39.1046 71.1046 40 70 40H50C48.8954 40 48 39.1046 48 38V18ZM82 16C80.8954 16 80 16.8954 80 18V38C80 39.1046 80.8954 40 82 40H102C103.105 40 104 39.1046 104 38V18C104 16.8954 103.105 16 102 16H82ZM50 48C48.8954 48 48 48.8954 48 50V70C48 71.1046 48.8954 72 50 72H70C71.1046 72 72 71.1046 72 70V50C72 48.8954 71.1046 48 70 48H50ZM16 50C16 48.8954 16.8954 48 18 48H38C39.1046 48 40 48.8954 40 50V70C40 71.1046 39.1046 72 38 72H18C16.8954 72 16 71.1046 16 70V50ZM48 82C48 80.8954 48.8954 80 50 80H70C71.1046 80 72 80.8954 72 82V102C72 103.105 71.1046 104 70 104H50C48.8954 104 48 103.105 48 102V82ZM81 80C79.8954 80 79 80.8954 79 82V102C79 103.105 79.8954 104 81 104H101C102.105 104 103 103.105 103 102V82C103 80.8954 102.105 80 101 80H81Z" fill="#1B5951"/>
</svg>
