<svg width="120" height="120" viewBox="0 0 120 120" fill="none" xmlns="http://www.w3.org/2000/svg">
<rect width="120" height="120" rx="12" fill="#FFF9E8"/>
<path d="M38 40C39.1046 40 40 39.1046 40 38V18C40 16.8954 39.1046 16 38 16H18C16.8954 16 16 16.8954 16 18V38C16 39.1046 16.8954 40 18 40H38ZM70 40C71.1046 40 72 39.1046 72 38V18C72 16.8954 71.1046 16 70 16H50C48.8954 16 48 16.8954 48 18V38C48 39.1046 48.8954 40 50 40H70ZM102 40C103.105 40 104 39.1046 104 38V18C104 16.8954 103.105 16 102 16H82C80.8954 16 80 16.8954 80 18V38C80 39.1046 80.8954 40 82 40H102ZM38 72C39.1046 72 40 71.1046 40 70V50C40 48.8954 39.1046 48 38 48H18C16.8954 48 16 48.8954 16 50V70C16 71.1046 16.8954 72 18 72H38ZM70 72C71.1046 72 72 71.1046 72 70V50C72 48.8954 71.1046 48 70 48H50C48.8954 48 48 48.8954 48 50V70C48 71.1046 48.8954 72 50 72H70ZM102 72C103.105 72 104 71.1046 104 70V50C104 48.8954 103.105 48 102 48H82C80.8954 48 80 48.8954 80 50V70C80 71.1046 80.8954 72 82 72H102ZM38 104C39.1046 104 40 103.105 40 102V82C40 80.8954 39.1046 80 38 80H18C16.8954 80 16 80.8954 16 82V102C16 103.105 16.8954 104 18 104H38ZM70 104C71.1046 104 72 103.105 72 102V82C72 80.8954 71.1046 80 70 80H50C48.8954 80 48 80.8954 48 82V102C48 103.105 48.8954 104 50 104H70ZM101 104C102.105 104 103 103.105 103 102V82C103 80.8954 102.105 80 101 80H81C79.8954 80 79 80.8954 79 82V102C79 103.105 79.8954 104 81 104H101Z" fill="#B24A00"/>
</svg>
