<svg width="120" height="120" viewBox="0 0 120 120" fill="none" xmlns="http://www.w3.org/2000/svg">
<rect width="120" height="120" rx="12" fill="#FFEEF1"/>
<path d="M45.8593 12.2028C44.3145 10.6237 41.782 10.5958 40.2028 12.1407C38.6237 13.6855 38.5958 16.218 40.1407 17.7972L45.8593 12.2028ZM79.7002 52.5157L76.8408 55.3129L76.8408 55.3129L79.7002 52.5157ZM79.6075 69.3925L76.779 66.5641L76.779 66.5641L79.6075 69.3925ZM40.1716 103.172C38.6095 104.734 38.6095 107.266 40.1716 108.828C41.7337 110.391 44.2663 110.391 45.8284 108.828L40.1716 103.172ZM40.1407 17.7972L76.8408 55.3129L82.5595 49.7186L45.8593 12.2028L40.1407 17.7972ZM76.779 66.5641L40.1716 103.172L45.8284 108.828L82.4359 72.221L76.779 66.5641ZM76.8408 55.3129C79.9065 58.4467 79.879 63.4642 76.779 66.5641L82.4359 72.221C88.6358 66.0211 88.6909 55.9862 82.5595 49.7186L76.8408 55.3129Z" fill="#D9304C"/>
<rect x="39.8284" y="26.9706" width="20" height="20" transform="rotate(-45 39.8284 26.9706)" fill="#FFEEF1" stroke="#99172D" stroke-width="4"/>
<rect x="39.8284" y="93.9706" width="20" height="20" transform="rotate(-45 39.8284 93.9706)" fill="#FFEEF1" stroke="#99172D" stroke-width="4"/>
</svg>
