<svg width="120" height="120" viewBox="0 0 120 120" fill="none" xmlns="http://www.w3.org/2000/svg">
<rect width="120" height="120" rx="12" fill="#FFF9E8"/>
<path d="M30 16L18.453 36L41.547 36L30 16ZM30 103L41.547 83L18.453 83L30 103ZM30 34L28 34L28 85L30 85L32 85L32 34L30 34Z" fill="#B24A00"/>
<path d="M104 80C106.209 80 108 81.7909 108 84V92C108 94.2091 106.209 96 104 96H56C53.7909 96 52 94.2091 52 92V84C52 81.7909 53.7909 80 56 80H104ZM104 52C106.209 52 108 53.7909 108 56V64C108 66.2091 106.209 68 104 68H56C53.7909 68 52 66.2091 52 64V56C52 53.7909 53.7909 52 56 52H104ZM104 24C106.209 24 108 25.7909 108 28V36C108 38.2091 106.209 40 104 40H56C53.7909 40 52 38.2091 52 36V28C52 25.7909 53.7909 24 56 24H104Z" fill="#FFBE19"/>
</svg>
