<svg width="120" height="120" viewBox="0 0 120 120" fill="none" xmlns="http://www.w3.org/2000/svg">
<rect width="120" height="120" rx="12" fill="#E9FBF7"/>
<path d="M32.264 80.68C25.992 75.192 22.688 68.64 22.688 59.96C22.688 51.224 25.992 44.784 32.264 39.24L26.776 33.92C19.44 39.744 14.848 48.592 14.848 59.96C14.848 71.328 19.44 80.176 26.776 86L32.264 80.68ZM62.5338 64.16L73.4538 49.488H64.6618L58.1098 58.28L51.5018 49.488H42.3178L53.0698 63.768L41.5337 79H50.3257L57.4938 69.648L64.5498 79H73.6778L62.5338 64.16ZM88.5987 86C95.9907 80.176 100.583 71.328 100.583 59.96C100.583 48.592 95.9907 39.744 88.5987 33.92L83.1667 39.24C89.4387 44.784 92.6867 51.224 92.6867 59.96C92.6867 68.64 89.4387 75.192 83.1667 80.68L88.5987 86Z" fill="#1B5951"/>
</svg>
