<svg xmlns="http://www.w3.org/2000/svg" viewBox="0 0 40 40" focusable="false" aria-hidden="true"><path fill="none" d="M0 0h40v40H0z"/><g><path d="M19.499 16.966a1 1 0 0 1 1-1h1.5v-2.472c0-.23-.046-.393-.13-.46-.096-.078-.286-.066-.363-.052l-.115.014h-4.6c-1.423 0-1.855-.849-1.885-1.298v-.762H10V20h9.499zM25.499 23.227h-2v1.635h-.5V27H24v2.996h2v3H14v-3h2V27h5.999v-2.138h-.5v-1.635h-2V22H10v11h20V22h-4.501z" fill="none"/><path d="M15.905 11.665c.007 0 .1.331.886.331h4.55c.193-.035.714-.086 1.14.247.237.184.518.55.518 1.251v2.472h1.5a1 1 0 0 1 1 1V20H30v-9.064H15.905z" fill="none"/><path fill="#ffaca6" d="M16 27v2.996h-2v3h12v-3h-2V27h-1.001v-2.138h-1V27z"/><path d="M7 6.003V36h6v-1h14v1h6V6.003zm3 4.933h4.905v.762c.03.45.463 1.298 1.886 1.298h4.6l.115-.014c.077-.014.267-.026.363.051.084.068.13.232.13.461v2.472h-1.5a1 1 0 0 0-1 1V20H10zM30 33H10V22h9.499v1.227h2v1.635h2v-1.635h2V22H30zm0-13h-4.501v-3.034a1 1 0 0 0-1-1h-1.5v-2.472c0-.7-.281-1.067-.517-1.25-.427-.334-.948-.283-1.141-.248h-4.55c-.787 0-.88-.331-.886-.331v-.73H30z" fill="#d9304c"/><circle cx="29" cy="8.50000001" r="1" fill="#000d6e"/><circle cx="26" cy="8.50000001" r="1" fill="#000d6e"/><path fill="#000d6e" d="M10 8h6v1h-6z"/></g></svg>