<svg data-name="Calque 1" xmlns="http://www.w3.org/2000/svg" viewBox="0 0 40 40" focusable="false" aria-hidden="true"><path d="M0 0h40v40H0z" fill="none"/><path d="M34 33H6c-.55 0-1 .45-1 1v2h30v-2c0-.55-.45-1-1-1" fill="#f4da52"/><path d="M36.28 10.44 20.39 4.09a.96.96 0 0 0-.78 0L3.72 10.44a.501.501 0 0 0 .34.94c.01 0 .02 0 .03-.01l15.56-6.2c.24-.09.5-.09.74 0l15.52 6.2c.25.11.55 0 .66-.25s0-.55-.25-.66c-.01 0-.03-.01-.04-.02" fill="#000d6e"/><path d="M34.65 12 20.37 6.15a1 1 0 0 0-.76 0L5.35 12a.53.53 0 0 0-.35.5V15h30v-2.5c0-.22-.13-.43-.35-.5" fill="#f4da52"/><path d="M6.99 16v16H33V16zM20 30c-3.31 0-6-2.69-6-6s2.69-6 6-6 6 2.69 6 6-2.69 6-6 6" fill="#f48d19"/><path d="M20 18c-3.31 0-6 2.69-6 6s2.69 6 6 6 6-2.69 6-6-2.69-6-6-6m.29 5.1-.07.73h-1.59v.36h1.53l-.07.72h-1.23c.28.43.77.68 1.29.67.51.04 1-.23 1.24-.69l.98.66c-.49.73-1.33 1.16-2.21 1.12a2.6 2.6 0 0 1-2.56-1.76h-.67l.07-.72h.47v-.37h-.41l.07-.73h.48c.38-1.09 1.42-1.8 2.57-1.76.88-.03 1.71.39 2.2 1.11l-.98.66c-.24-.46-.73-.72-1.25-.68-.51-.02-1 .23-1.28.67h1.42Z" fill="#f4da52"/><path d="M20.14 22.43c.51-.04 1 .23 1.25.68l.98-.66a2.51 2.51 0 0 0-2.2-1.11c-1.15-.04-2.19.67-2.57 1.76h-.48l-.07.73h.41v.37h-.47l-.07.72h.67a2.63 2.63 0 0 0 2.56 1.76c.88.04 1.72-.39 2.21-1.12l-.98-.66c-.24.46-.73.73-1.24.69-.52.02-1-.24-1.29-.67h1.23l.07-.72h-1.53v-.37h1.59l.07-.73h-1.43c.28-.43.76-.68 1.28-.67Z" fill="#000d6e"/></svg>