<svg xmlns="http://www.w3.org/2000/svg" viewBox="0 0 40 40" focusable="false" aria-hidden="true"><path fill="none" d="M0 0h40v40H0z"/><g data-name="Icon Green"><path d="M34 33H6a1 1 0 0 0-1 1v2h30v-2a1 1 0 0 0-1-1" fill="#94e3d4"/><path d="M36.284 10.441 20.39 4.088a.96.96 0 0 0-.782 0L3.716 10.44a.5.5 0 1 0 .371.928L19.65 5.164a1 1 0 0 1 .741 0l15.523 6.205a.5.5 0 1 0 .37-.928Z" fill="#000d6e"/><path d="M34.655 12.001 20.377 6.155a1 1 0 0 0-.758 0L5.346 12.001A.51.51 0 0 0 5 12.5V15h30v-2.5a.51.51 0 0 0-.346-.499" fill="#94e3d4"/><path d="M6.996 16v16h26.006V16ZM20 30a6 6 0 1 1 6-6 6 6 0 0 1-6 6" fill="#1b5951"/><path d="M20 18a6 6 0 1 0 6 6 6 6 0 0 0-6-6m-2.973 6.88a.79.79 0 0 0 .817-.633l.629.255a1.434 1.434 0 0 1-1.437.997 1.584 1.584 0 0 1 .004-3.168 1.44 1.44 0 0 1 1.433.998l-.629.254a.8.8 0 0 0-.822-.633.968.968 0 0 0 .005 1.93Zm4.447.563h-.655v-1.266h-1.165v1.265H19v-3.054h.655v1.205h1.165v-1.205h.655Zm2.773-2.488H22.87v.677h1.213v.566H22.87v1.244h-.655v-3.054h2.03Z" fill="#94e3d4"/><path d="M17.022 22.95a.8.8 0 0 1 .822.633l.629-.254a1.44 1.44 0 0 0-1.433-.998 1.584 1.584 0 0 0-.004 3.168 1.434 1.434 0 0 0 1.437-.997l-.629-.255a.79.79 0 0 1-.817.633.968.968 0 0 1-.005-1.93ZM20.819 23.593h-1.165v-1.205h-.655v3.054h.655v-1.265h1.165v1.265h.655v-3.054h-.655zM22.216 25.442h.655v-1.244h1.213v-.566h-1.213v-.677h1.376v-.567h-2.031z" fill="#000d6e"/></g></svg>