<svg xmlns="http://www.w3.org/2000/svg" viewBox="0 0 40 40" focusable="false" aria-hidden="true"><path fill="none" d="M0 0h40v40H0z"/><g><path d="M23.305 28.961a7.03 7.03 0 0 1 4.354-4.55l1.997-8.454.663-1.725 2.881-.63a3 3 0 0 0 1.958-1.432l.545-.946a.5.5 0 0 0-.35-.743l-3.964-.67c-.816-1.083-.752-2.128-3.196-2.526-1.105-.179-2.063.615-2.452 1.653a.5.5 0 0 0-.116.144l-2.856 5.534-.52.88-13.337.404C6.57 14.802 5.15 12.135 4.874 9.568L4.76 8.116a.505.505 0 0 0-.467-.51.5.5 0 0 0-.532.463c-.583 4.016.922 8.494 4.597 10.424l.189 3.63q-.023.02-.015.041c.008.09.02.209.034.335l.017.307a.5.5 0 0 0 .032.135l.027.278c.296 2.83.693 5.668 1.345 8.442.234 1.006 1.741 1.031 2 .018.67-2.63 1.098-5.319 1.442-8.01l9.632.857c.044 1.48.117 2.967.244 4.435" fill="#94e3d4"/><path fill="#1b5951" d="m22.249 15.519 6.955 2.29.315-1.447-6.192-2.8z"/><path d="M29.877 30.264c-.441.049-.654.278-.654.58 0 .483.556.63 1.129.826.31-.082.507-.294.507-.62 0-.45-.458-.615-.982-.786" fill="#000d6e"/><path d="M30 25a6 6 0 1 0 0 12 6 6 0 0 0 0-12m1.677 7.988c0 .883-.696 1.39-1.693 1.39-.933 0-1.555-.352-1.791-1.055l.817-.32c.123.434.458.671.957.671.434 0 .752-.22.752-.596 0-1.006-2.445-.574-2.445-2.152 0-.482.262-.843.679-1.063a1.07 1.07 0 0 1-.507-.948c0-.827.638-1.292 1.627-1.292.827 0 1.375.335 1.554.916l-.817.31c-.123-.344-.352-.499-.737-.499-.433 0-.678.196-.678.515 0 .982 2.412.467 2.412 2.102 0 .49-.22.867-.597 1.096.279.196.467.482.467.925" fill="#000d6e"/><path d="M35.77 9.597c-.494 0-.896.331-1.036.78l.62.104a.5.5 0 0 1 .35.743l-.29.502c.113.04.23.072.356.072a1.1 1.1 0 0 0 0-2.201" fill="none"/><path d="M35.722 10.761a.5.5 0 0 0-.368-.28l-.62-.105c-.032.104-.064.208-.064.321 0 .482.313.88.744 1.029l.29-.502a.5.5 0 0 0 .018-.463M29.856 10.923c.134 1.343 1.117 4.833-3.625 2.835-1.014-.428-.543-2.107-.308-3.499s1.306-2.372 2.392-2.188 1.406 1.51 1.54 2.852" fill="#000d6e"/></g></svg>