<svg version="1.1" xmlns="http://www.w3.org/2000/svg" x="0px" y="0px" viewBox="0 0 40 40" xml:space="preserve" focusable="false" aria-hidden="true" enable-background="new 0 0 40 40"><path fill="none" d="M0 0h40v40H0z"/><g><path fill="#FAE052" d="M10 18.013h6v3h-6zM10 21.994h6v3h-6z"/><path fill="none" d="M10 21.994h6v3h-6zM10 18.013h6v3h-6z"/><path d="M30.996 8H16v8H9a1 1 0 0 0-1 1v18h13v-7h6v7h5V9.004C32 8.449 31.551 8 30.996 8M16 24.994h-6v-3h6zm0-3.981h-6v-3h6zm5 3.993h-3v-3h3zm0-3.993h-3v-3h3zm0-4.007h-3v-3h3zm0-3.993h-3v-3h3zm4.5 11.993h-3v-3h3zm0-3.993h-3v-3h3zm0-4.007h-3v-3h3zm0-3.993h-3v-3h3zM30 24.994h-3v-3h3zM30 21h-3v-3h3zm0-4.006h-3v-3h3zM30 13h-3v-3h3z" fill="#FA9319"/><path fill="#FAE052" d="M18 10.013h3v3h-3zM22.5 10.013h3v3h-3zM27 10h3v3h-3zM18 14.006h3v3h-3zM22.5 14.006h3v3h-3zM27 13.994h3v3h-3zM18 18.013h3v3h-3zM22.5 18.013h3v3h-3zM27 18h3v3h-3zM18 22.006h3v3h-3zM22.5 22.006h3v3h-3zM27 21.994h3v3h-3z"/><path fill="#000D6E" d="M21 28h6v7h-6z"/></g></svg>