<svg data-name="Calque 1" xmlns="http://www.w3.org/2000/svg" viewBox="0 0 40 40" focusable="false" aria-hidden="true"><path d="M0 0h40v40H0z" fill="none"/><path d="M8.94 20.5h4.09c-.01-.17-.02-.33-.02-.5s.01-.33.02-.5H8.94c-.28-1.63-1.82-2.73-3.46-2.46s-2.73 1.82-2.46 3.46 1.82 2.73 3.46 2.46c1.26-.21 2.25-1.2 2.46-2.46m5.75 4.04-2.85 2.85a2.997 2.997 0 1 0-3.47 4.89c1.35.96 3.22.64 4.18-.71.74-1.04.74-2.44 0-3.48l2.85-2.85c-.25-.22-.49-.46-.7-.71Zm5.82 6.55v-4.11c-.17.01-.33.02-.5.02s-.33-.01-.5-.02v4.11a3.01 3.01 0 0 0-2.46 3.46c.28 1.63 1.82 2.73 3.46 2.46s2.73-1.82 2.46-3.46a2.995 2.995 0 0 0-2.46-2.46m4.75-15.7 2.94-2.93a2.997 2.997 0 1 0 3.47-4.89 2.997 2.997 0 0 0-4.18.71 3.005 3.005 0 0 0 0 3.48l-2.94 2.94c.25.22.49.45.71.7ZM34.02 17c-1.46 0-2.71 1.06-2.95 2.5h-4.09c.01.17.02.33.02.5s-.01.33-.02.5h4.09a3 3 0 0 0 3.46 2.45 3 3 0 0 0 2.45-3.46A3.004 3.004 0 0 0 34.02 17m-5.79 10.46-2.92-2.92c-.22.25-.45.49-.7.71l2.91 2.91a2.997 2.997 0 1 0 4.89 3.47c.96-1.35.64-3.22-.71-4.18a3.005 3.005 0 0 0-3.48 0ZM20 3.01c-1.65 0-3 1.33-3.01 2.98 0 1.47 1.06 2.73 2.51 2.97v4.06c.17-.01.33-.02.5-.02s.33.01.5.02V8.96a2.997 2.997 0 0 0 2.47-3.44A3.01 3.01 0 0 0 20 3.01m-7.74 4.96a2.99 2.99 0 0 0-4.24-.01 2.99 2.99 0 0 0-.01 4.24 3.006 3.006 0 0 0 3.87.33l2.87 2.87c.22-.25.46-.49.71-.7l-2.87-2.87a2.99 2.99 0 0 0-.32-3.85Z" fill="#1b5951"/><path d="M20 14c-3.31 0-6 2.69-6 6s2.69 6 6 6 6-2.69 6-6-2.69-6-6-6m.54 5.18-.06.61h-1.79v.49h1.71l-.06.61h-1.52c.24.66.76 1 1.41 1 .81 0 1.22-.43 1.39-1.07l.86.26c-.24.91-.94 1.64-2.27 1.64-1.22 0-2.12-.65-2.41-1.83h-.68l.07-.61h.52v-.49h-.45l.06-.61h.5c.31-1.14 1.25-1.83 2.41-1.83 1.31 0 2.02.78 2.25 1.68l-.87.23c-.17-.61-.6-1.08-1.36-1.08-.66 0-1.18.36-1.41 1.01h1.71Z" fill="#94e3d4"/><path d="m20.54 19.18-.06.61h-1.79v.49h1.71l-.06.61h-1.52c.24.66.76 1 1.41 1 .81 0 1.22-.43 1.39-1.07l.86.26c-.24.91-.94 1.64-2.27 1.64-1.22 0-2.12-.65-2.41-1.83h-.68l.07-.61h.52v-.49h-.45l.06-.61h.5c.31-1.14 1.25-1.83 2.41-1.83 1.31 0 2.02.78 2.25 1.68l-.87.23c-.17-.61-.6-1.08-1.36-1.08-.66 0-1.18.36-1.41 1.01h1.71Z" fill="#000d6e"/></svg>