<svg xmlns="http://www.w3.org/2000/svg" viewBox="0 0 40 40" focusable="false" aria-hidden="true"><path fill="none" d="M0 0h40v40H0z"/><g data-name="Icon Green"><path d="M17.432 21.463a1.31 1.31 0 0 0 1.31-.91l-.573-.233a.72.72 0 0 1-.746.578.882.882 0 0 1-.003-1.76.726.726 0 0 1 .75.577l.573-.233a1.315 1.315 0 0 0-1.307-.91 1.445 1.445 0 0 0-.004 2.89ZM19.816 20.256h1.063v1.155h.597v-2.786h-.597v1.098h-1.063v-1.098h-.597v2.786h.597zM22.747 20.276h1.106v-.517h-1.106v-.617h1.254v-.517h-1.852v2.786h.598z" fill="none"/><path d="m24.584 25.278 3.608 4.81a12.96 12.96 0 0 0 4.783-9.588h-6a6.98 6.98 0 0 1-2.391 4.778" fill="#94e3d4"/><path d="M20 27a6.996 6.996 0 0 1-.5-13.975v-6a12.992 12.992 0 1 0 7.891 23.663l-3.606-4.808A6.95 6.95 0 0 1 20 27" fill="#1b5951"/><path d="M26.975 19.5h6A12.98 12.98 0 0 0 20.5 7.025v6a7 7 0 0 1 6.475 6.475" fill="#94e3d4"/><path d="M14 20a6 6 0 1 0 6-6 6 6 0 0 0-6 6m8.15-1.375H24v.517h-1.254v.617h1.106v.517h-1.106v1.135h-.598Zm-2.93 0h.597v1.098h1.062v-1.098h.597v2.786h-.597v-1.155h-1.062v1.155h-.598Zm-1.784-.052a1.315 1.315 0 0 1 1.307.91l-.574.232a.726.726 0 0 0-.75-.577.882.882 0 0 0 .004 1.76.72.72 0 0 0 .746-.577l.573.232a1.31 1.31 0 0 1-1.31.91 1.445 1.445 0 0 1 .003-2.89Z" fill="#000d6e"/></g></svg>