<svg xmlns="http://www.w3.org/2000/svg" viewBox="0 0 40 40" focusable="false" aria-hidden="true"><path fill="none" d="M0 0h40v40H0z"/><g data-name="Icon Purple"><path d="m23.106 30.833.015-.195a4.255 4.255 0 0 1-6.242 0l.012.159c.031.391.066.79.109 1.208.5 4.84 1 5.995 1 5.995h4s.5-1.154 1-5.995c.042-.404.075-.792.106-1.172" fill="#000d6e"/><path d="M16.831 29.944q.021.339.048.694a4.255 4.255 0 0 0 6.242 0q.027-.355.048-.694a44 44 0 0 0 .058-4.458c-.04-.952-.102-1.486-.102-1.486l.013-1.96a8.2 8.2 0 0 0 3.298-5.16 1 1 0 0 0 .179.025C27.38 16.905 28 16.052 28 15a1.91 1.91 0 0 0-1-1.82v.321a.52.52 0 0 1-.499.499.5.5 0 0 1-.499-.499V11.87c0-.072-.006-.135-.008-.205-.053-.092-.116-.185-.176-.278a6.1 6.1 0 0 0-1.378-1.501 5.4 5.4 0 0 1-3.94.125 9 9 0 0 1-1.592-.696 5.3 5.3 0 0 1-.966-.686 10.7 10.7 0 0 0-2.384.686c-.541.226-.981.454-1.33.625a7.3 7.3 0 0 0-.202 1.235 9 9 0 0 0-.028.695V13.5a.5.5 0 0 1-.499.499 1 1 0 0 1-.081-.016A.49.49 0 0 1 13 13.5v-.322A1.91 1.91 0 0 0 12 15c0 1.052.62 1.905 1.385 1.905a1 1 0 0 0 .272-.038A8.24 8.24 0 0 0 16.89 22h-.025l.01 2s-.062.534-.102 1.486a44 44 0 0 0 .058 4.458" fill="#b8b2ff"/><path d="m16.892 30.797-.013-.16q-.027-.354-.048-.693a44 44 0 0 1-.058-4.458c.04-.952.102-1.486.102-1.486l-.146.074-9.826 4.964a4 4 0 0 0-2.167 3.077L4 38h14s-.5-1.154-1-5.995a50 50 0 0 1-.108-1.208M35.265 32.115a4 4 0 0 0-2.168-3.077L23.125 24s.062.534.102 1.486a44 44 0 0 1-.058 4.458q-.021.339-.048.694l-.015.195q-.044.568-.106 1.172C22.5 36.845 22 38 22 38h14Z" fill="#6c2273"/><path d="M13.418 13.984a1 1 0 0 0 .081.016.5.5 0 0 0 .499-.499V11.87q0-.37.028-.695a7.3 7.3 0 0 1 .201-1.235c.35-.17.79-.4 1.33-.625a10.7 10.7 0 0 1 2.385-.686 5.3 5.3 0 0 0 .966.686 9 9 0 0 0 1.592.696 5.4 5.4 0 0 0 3.94-.125 6.1 6.1 0 0 1 1.378 1.5c.06.094.123.187.176.28.002.07.008.131.008.204v1.631A.5.5 0 0 0 26.5 14a.52.52 0 0 0 .499-.499v-2.158A33 33 0 0 0 27 8c-.145-1.436-2.835-5-7-5s-7 3.143-7 6v4.501a.49.49 0 0 0 .418.483" fill="#000d6e"/></g></svg>