<svg xmlns="http://www.w3.org/2000/svg" viewBox="0 0 40 40" focusable="false" aria-hidden="true"><path fill="none" d="M0 0h40v40H0z"/><g data-name="Icon Green"><path fill="none" d="M7.589 19.005h9.429V13.98h-3.833z"/><path d="M11 23a3 3 0 1 0 3 3 3 3 0 0 0-3-3m0 4.5a1.5 1.5 0 1 1 1.5-1.5 1.5 1.5 0 0 1-1.5 1.5" fill="#94e3d4"/><circle cx="11" cy="26" r="1.5" fill="#000d6e"/><path d="M31 23a3 3 0 1 0 3 3 3 3 0 0 0-3-3m0 4.5a1.5 1.5 0 1 1 1.5-1.5 1.5 1.5 0 0 1-1.5 1.5" fill="#94e3d4"/><circle cx="31" cy="26" r="1.5" fill="#000d6e"/><path d="M5.888 20.983a.95.95 0 0 0-.944-.953A2.07 2.07 0 0 0 4 21.936h.944a.95.95 0 0 0 .944-.953" fill="#94e3d4"/><path d="M17.509 13h-4.512a.5.5 0 0 0-.33.126L6.003 19.11l-1.058.919a.953.953 0 0 1 0 1.906H4v3.107a.95.95 0 0 0 .944.957h2.069c0-.01-.004-.02-.004-.031a4.013 4.013 0 0 1 8.025 0q0 .015-.003.028h2.959v-6.599l.01-.048v-5.86a.49.49 0 0 0-.491-.49m-.491 6.005h-9.43l5.597-5.025h3.832ZM19 20v6h8.001A3.999 3.999 0 0 1 35 26h1.094a.907.907 0 0 0 .907-.907V20Z" fill="#1b5951"/><path d="M27 15a1 1 0 0 0-1-1h-6a1 1 0 0 0-1 1v4h8ZM36 15a1 1 0 0 0-1-1h-6a1 1 0 0 0-1 1v4h8Z" fill="#94e3d4"/></g></svg>