<svg xmlns="http://www.w3.org/2000/svg" viewBox="0 0 40 40" focusable="false" aria-hidden="true"><path fill="none" d="M0 0h40v40H0z"/><g data-name="Icon Red"><path d="M34 33H6a1 1 0 0 0-1 1v2h30v-2a1 1 0 0 0-1-1" fill="#ffaca6"/><path d="M36.284 10.441 20.39 4.088a.96.96 0 0 0-.782 0L3.716 10.44a.5.5 0 1 0 .371.928L19.65 5.164a1 1 0 0 1 .741 0l15.523 6.205a.5.5 0 1 0 .37-.928Z" fill="#000d6e"/><path d="M34.655 12.001 20.377 6.155a1 1 0 0 0-.758 0L5.346 12.001A.51.51 0 0 0 5 12.5V15h30v-2.5a.51.51 0 0 0-.346-.499" fill="#ffaca6"/><path fill="#d9304c" d="M6.996 16h3v16h-3zM13 16h3v16h-3zM23.998 16h3v16h-3zM30.002 16h3v16h-3z"/></g></svg>