<svg version="1.1" xmlns="http://www.w3.org/2000/svg" x="0px" y="0px" viewBox="0 0 40 40" xml:space="preserve" focusable="false" aria-hidden="true" enable-background="new 0 0 40 40"><path fill="none" d="M0 0h40v40H0z"/><g><path d="M33.999 33H6.001A1 1 0 0 0 5 34.001V36h30v-2a1 1 0 0 0-1.001-1" fill="#94E3D4"/><path d="M36.284 10.441 20.391 4.088c-.281-.112-.572-.107-.781 0L3.716 10.441a.5.5 0 0 0 .371.927l15.561-6.206c.238-.095.504-.095.742 0l15.522 6.205a.5.5 0 0 0 .372-.926" fill="#000D6E"/><path d="M34.654 12.001 20.377 6.155a1 1 0 0 0-.758 0L5.346 12.001A.51.51 0 0 0 5 12.5V15h30v-2.5a.51.51 0 0 0-.346-.499" fill="#94E3D4"/><path d="M6.997 16v16h26.007V16zm13.004 14a6 6 0 1 1 0-12 6 6 0 0 1 0 12" fill="#1B5951"/><path d="M20.001 18a6 6 0 1 0 0 12 6 6 0 0 0 0-12m-2.973 6.88c.448 0 .712-.246.817-.633l.628.255c-.167.532-.655.997-1.437.997-.892 0-1.569-.663-1.569-1.582 0-.922.677-1.586 1.573-1.586.787 0 1.27.483 1.433.998l-.628.254c-.105-.382-.374-.633-.822-.633-.523 0-.892.387-.892.967 0 .576.37.963.897.963m4.447.562h-.655v-1.266h-1.165v1.266H19v-3.055h.655v1.205h1.165v-1.205h.655zm2.773-2.487h-1.375v.677h1.213v.566h-1.213v1.244h-.655v-3.055h2.03z" fill="#94E3D4"/><path d="M17.024 22.95c.448 0 .716.251.822.633l.628-.254c-.163-.515-.646-.998-1.433-.998-.896 0-1.573.664-1.573 1.586 0 .919.677 1.582 1.569 1.582.782 0 1.27-.465 1.437-.997l-.628-.255c-.105.387-.369.633-.817.633-.527 0-.896-.387-.896-.963-.002-.58.368-.967.891-.967M20.82 23.593h-1.165v-1.205h-.654v3.054h.654v-1.265h1.165v1.265h.655v-3.054h-.655zM22.217 25.442h.655v-1.244h1.213v-.566h-1.213v-.677h1.376v-.567h-2.031z" fill="#000D6E"/></g></svg>