<svg version="1.1" xmlns="http://www.w3.org/2000/svg" x="0px" y="0px" viewBox="0 0 40 40" xml:space="preserve" focusable="false" aria-hidden="true" enable-background="new 0 0 40 40"><path fill="none" d="M0 0h40v40H0z"/><g><path d="M12.5 27.416v-8.832A2.58 2.58 0 0 1 15.067 16h.433v-.416A2.58 2.58 0 0 1 18.067 13h.433v-2h-14v21h14v-2h-3.433a2.58 2.58 0 0 1-2.567-2.584" fill="#94E3D4"/><path d="M33.933 14H18.067c-.866 0-1.567.709-1.567 1.584v8.832c0 .875.702 1.584 1.567 1.584h15.865c.866 0 1.567-.709 1.567-1.584v-8.832A1.574 1.574 0 0 0 33.933 14" fill="#94E3D4"/><path d="M18.067 27a2.58 2.58 0 0 1-2.567-2.584V17h-.433c-.866 0-1.567.709-1.567 1.584v8.832c0 .875.702 1.584 1.567 1.584h15.865c.866 0 1.567-.709 1.567-1.584V27z" fill="#94E3D4"/><path d="M18.875 21.421c0-.793.309-1.539.869-2.1a.297.297 0 1 0-.42-.42c-.673.673-1.043 1.568-1.043 2.519s.371 1.846 1.043 2.519a.296.296 0 0 0 .42 0 .297.297 0 0 0 0-.42 2.95 2.95 0 0 1-.869-2.098" fill="#1B5951"/><path d="M20.065 21.422c0-.477.186-.925.523-1.262a.297.297 0 1 0-.42-.42c-.449.449-.697 1.047-.697 1.682s.248 1.233.697 1.683a.296.296 0 0 0 .42 0 .297.297 0 0 0 0-.42 1.78 1.78 0 0 1-.523-1.263" fill="#1B5951"/><path d="M21.428 20.579a.297.297 0 0 0-.42 0 1.195 1.195 0 0 0 0 1.686.296.296 0 0 0 .42 0 .297.297 0 0 0 0-.42.6.6 0 0 1 0-.846.297.297 0 0 0 0-.42" fill="#1B5951"/><path d="M31.768 15.836a.177.177 0 0 0-.252 0l-1.898 1.898a.177.177 0 0 0 0 .252l1.898 1.898c.07.07.183.07.252 0l1.053-1.053-.641-.641-.538.538-.868-.868.868-.868 1.51 1.51.515-.515a.177.177 0 0 0 0-.252z" fill="#000D6E"/><path d="M4.5 32v1.974c0 .567.459 1.026 1.026 1.026h11.948c.567 0 1.026-.459 1.026-1.026V32" fill="#1B5951"/><circle cx="11.5" cy="32" r="1" fill="#000D6E"/><path d="M18.5 32h-14z" fill="#1B5951"/><circle cx="15.988" cy="9.5" r="0.5" fill="none"/><path d="M14 9H9a.5.5 0 0 0 0 1h5a.5.5 0 0 0 0-1" fill="#94E3D4"/><path d="M17.564 8H5.436a.936.936 0 0 0-.936.936V11h14V8.936A.936.936 0 0 0 17.564 8M14 10H9a.5.5 0 0 1 0-1h5a.5.5 0 0 1 0 1m1.988 0a.5.5 0 1 1 0-1 .5.5 0 0 1 0 1" fill="#1B5951"/><circle cx="15.988" cy="9.5" r="0.5" fill="#94E3D4"/></g></svg>