<svg version="1.1" xmlns="http://www.w3.org/2000/svg" x="0px" y="0px" viewBox="0 0 40 40" xml:space="preserve" focusable="false" aria-hidden="true" enable-background="new 0 0 40 40"><path fill="none" d="M0 0h40v40H0z"/><g><path d="M32.433 16H16.567c-.865 0-1.567.709-1.567 1.584v8.832c0 .875.702 1.584 1.567 1.584h15.865c.866 0 1.568-.709 1.568-1.584v-8.832c0-.875-.702-1.584-1.567-1.584" fill="#94E3D4"/><path d="M6 31v1.974C6 33.541 6.459 34 7.026 34h11.948c.567 0 1.026-.459 1.026-1.026V31" fill="#1B5951"/><circle cx="17.488" cy="8.5" r="0.5" fill="none"/><path d="M15.5 8h-5a.5.5 0 0 0 0 1h5a.5.5 0 0 0 0-1" fill="#94E3D4"/><path d="M19.064 7H6.936A.936.936 0 0 0 6 7.936V10h14V7.936A.936.936 0 0 0 19.064 7M15.5 9h-5a.5.5 0 0 1 0-1h5a.5.5 0 0 1 0 1m1.988 0a.5.5 0 1 1 0-1 .5.5 0 0 1 0 1" fill="#1B5951"/><circle cx="17.488" cy="8.5" r="0.5" fill="#94E3D4"/><path d="M20 31v-2h-3.433A2.58 2.58 0 0 1 14 26.416v-8.832A2.58 2.58 0 0 1 16.567 15H20v-5H6v21" fill="#94E3D4"/><path d="M17.375 23.421c0-.793.309-1.539.869-2.1a.297.297 0 1 0-.42-.42c-.673.673-1.043 1.568-1.043 2.519s.371 1.846 1.043 2.519a.296.296 0 0 0 .42 0 .297.297 0 0 0 0-.42 2.95 2.95 0 0 1-.869-2.098" fill="#1B5951"/><path d="M18.565 23.422c0-.477.186-.925.523-1.262a.297.297 0 1 0-.42-.42c-.449.449-.697 1.047-.697 1.682s.248 1.233.697 1.683a.296.296 0 0 0 .42 0 .297.297 0 0 0 0-.42 1.78 1.78 0 0 1-.523-1.263" fill="#1B5951"/><path d="M19.928 22.579a.297.297 0 0 0-.42 0 1.195 1.195 0 0 0 0 1.686.296.296 0 0 0 .42 0 .297.297 0 0 0 0-.42.6.6 0 0 1 0-.846.297.297 0 0 0 0-.42" fill="#1B5951"/><circle cx="13" cy="31" r="1" fill="#000D6E"/><path d="M20 31H6z" fill="#1B5951"/><path d="M30.268 17.836a.177.177 0 0 0-.252 0l-1.898 1.898a.177.177 0 0 0 0 .252l1.898 1.898c.07.07.183.07.252 0l1.053-1.053-.641-.641-.538.538-.868-.868.868-.868 1.51 1.51.515-.515a.177.177 0 0 0 0-.252z" fill="#000D6E"/></g></svg>