<svg xmlns="http://www.w3.org/2000/svg" viewBox="0 0 40 40" focusable="false" aria-hidden="true"><path fill="none" d="M0 0h40v40H0z"/><g data-name="Icon Purple"><path fill="#000d6e" d="M21 25.998h3v1h-3zM20 19h-2.399l.667 1H20z"/><path d="m27.34 9.52-4.226.87c-.866.145-.77 1.11 0 1.11h4.415a.997.997 0 1 0-.19-1.98ZM24.166 22h1.03a6 6 0 0 1 1.62-2.797l-.505-.885A7 7 0 0 0 24.166 22M31 16.5a7 7 0 0 0-2.09.319l.513.897A5.998 5.998 0 1 1 25.197 25h-1.031A6.999 6.999 0 1 0 31 16.5M13.474 18.122l-.474.915a6.025 6.025 0 1 1-2.663-1.382l.47-.91a6.993 6.993 0 1 0 2.667 1.377Z" fill="#6c2273"/><path d="M20 21.5a1.7 1.7 0 0 0-.648.127L13.935 13.5H24.21l-3.831 8.044A1.8 1.8 0 0 0 20 21.5m1.725 1.5a1.74 1.74 0 0 0-.472-.968l3.788-7.953L30.139 23Zm9.71.252-5.87-10.272.705-1.48h-1.107l-.476 1H13.289l1.646-2.743a.5.5 0 0 0-.43-.757h-3.917a2.088 2.088 0 0 0 0 4.176.5.5 0 0 0 0-1 1.088 1.088 0 0 1 0-2.176h3.035l-1.807 3.01a2.6 2.6 0 0 0-.097 2.516l.048.098a1.62 1.62 0 0 1-.027 1.496l-3.184 6.15a.5.5 0 0 0 .214.674A.5.5 0 0 0 9 24a.5.5 0 0 0 .444-.27l3.181-6.142a2.62 2.62 0 0 0 .037-2.41l-.048-.097a1.61 1.61 0 0 1 .06-1.555l.036-.06 5.856 8.784a1.747 1.747 0 1 0 3.01 1.75H31a.5.5 0 0 0 .5-.5.44.44 0 0 0-.065-.248Z" fill="#b8b2ff"/></g></svg>