<svg version="1.1" xmlns="http://www.w3.org/2000/svg" x="0px" y="0px" viewBox="0 0 40 40" xml:space="preserve" focusable="false" aria-hidden="true" enable-background="new 0 0 40 40"><path fill="none" d="M0 0h40v40H0z"/><g><path fill="#000D6E" d="M21 23.998h3v1h-3zM20 17h-2.399l.667 1H20z"/><path d="m27.339 7.52-4.225.87c-.865.144-.77 1.11 0 1.11h4.416c.536 0 .971-.448.971-1-.001-.631-.561-1.104-1.162-.98M24.166 20h1.031a6 6 0 0 1 1.62-2.797l-.506-.885A7 7 0 0 0 24.166 20M31 14.5c-.728 0-1.429.112-2.09.319l.513.897A6 6 0 0 1 31 15.5a6 6 0 1 1 0 12 6 6 0 0 1-5.803-4.5h-1.031c.689 3.141 3.49 5.5 6.834 5.5 3.86 0 7-3.14 7-7s-3.14-7-7-7M13.474 16.122l-.474.915a5.98 5.98 0 0 1 2 4.463 6 6 0 1 1-6-6c.46 0 .907.057 1.337.155l.471-.909A7 7 0 0 0 9 14.5c-3.86 0-7 3.14-7 7s3.14 7 7 7 7-3.14 7-7c0-2.16-.984-4.093-2.526-5.378" fill="#6C2273"/><path d="M20 19.5c-.229 0-.447.047-.648.127L13.935 11.5H24.21l-3.831 8.044A1.8 1.8 0 0 0 20 19.5m1.725 1.5a1.75 1.75 0 0 0-.472-.969l3.788-7.952L30.139 21zm9.71.252-5.87-10.272.705-1.48h-1.107l-.476 1H13.289l1.646-2.743a.5.5 0 0 0 .007-.504.5.5 0 0 0-.436-.253h-3.918A2.09 2.09 0 0 0 8.5 9.088a2.09 2.09 0 0 0 2.088 2.088.5.5 0 0 0 0-1 1.09 1.09 0 0 1 0-2.176h3.035l-1.807 3.011a2.6 2.6 0 0 0-.098 2.516l.048.097c.235.47.227 1.027-.026 1.497l-3.184 6.15a.5.5 0 1 0 .888.458l3.181-6.142a2.62 2.62 0 0 0 .037-2.41l-.048-.097a1.61 1.61 0 0 1 .06-1.556l.036-.06 5.857 8.785a1.74 1.74 0 0 0-.316.999c0 .966.784 1.75 1.75 1.75.697 0 1.294-.41 1.575-1H31a.5.5 0 0 0 .435-.746" fill="#B8B2FF"/><path d="m20.53 33.884-3.226-5.609-3.197-5.558a1.443 1.443 0 0 0-2.496 0l-3.197 5.558-3.226 5.609c-.252.439-.252.963.002 1.401.256.441.733.715 1.247.715h12.844c.514 0 .992-.274 1.247-.715.254-.438.255-.962.002-1.401m-.852.91a.45.45 0 0 1-.397.224H6.437a.45.45 0 0 1-.397-.224.41.41 0 0 1 0-.419l3.226-5.609 3.197-5.558a.45.45 0 0 1 .397-.225.45.45 0 0 1 .397.225l3.197 5.558 3.226 5.609a.41.41 0 0 1-.002.419" fill="#6C2273"/><path d="m16.453 28.765-3.197-5.558a.45.45 0 0 0-.397-.225.45.45 0 0 0-.397.225l-3.197 5.558-3.226 5.609a.41.41 0 0 0 0 .419c.081.14.229.224.397.224H19.28a.45.45 0 0 0 .397-.224.41.41 0 0 0 0-.419zm-3.599 5.406a.867.867 0 0 1-.883-.883c0-.528.377-.916.883-.916.517 0 .905.388.905.916 0 .496-.388.883-.905.883m.625-2.715h-1.26l-.269-5.268h1.821z" fill="#B8B2FF"/><path fill="#000D6E" d="M12.219 31.456h1.26l.291-5.268h-1.821zM12.854 32.372c-.506 0-.883.388-.883.916 0 .496.377.883.883.883.517 0 .905-.388.905-.883 0-.528-.388-.916-.905-.916"/></g></svg>