<svg xmlns="http://www.w3.org/2000/svg" viewBox="0 0 40 40" focusable="false" aria-hidden="true"><path fill="none" d="M0 0h40v40H0z"/><g><path d="M24.444 15.177c-.112.015-.223.034-.339.034-.76 0-1.458-.33-1.934-.848a2.6 2.6 0 0 0-4.34-.002l-.007.001c-.476.519-1.17.85-1.93.85-.116 0-.226-.02-.338-.035-1.78.942-2.937 2.43-2.937 4.11 0 1.63 1.085 3.08 2.775 4.025 1.227-.528 2.837-.852 4.606-.852s3.38.324 4.605.852c1.69-.944 2.776-2.395 2.776-4.025 0-1.68-1.156-3.168-2.937-4.11" fill="#b8b2ff"/><circle cx="11" cy="20.00000001" r="7.5" fill="#6c2273"/><circle cx="29" cy="20.00000001" r="7.5" fill="#6c2273"/><circle cx="11" cy="20.00000001" r="6.5" fill="#b8b2ff"/><circle cx="29" cy="20.00000001" r="6.5" fill="#b8b2ff"/><circle cx="20" cy="18.55958355" r=".86831963" fill="#6c2273"/><circle cx="11" cy="20" r="4.5" fill="#252c5e"/><circle cx="29" cy="20" r="4.5" fill="#000d6e"/></g></svg>