<svg xmlns="http://www.w3.org/2000/svg" viewBox="0 0 40 40" focusable="false" aria-hidden="true"><path fill="none" d="M0 0h40v40H0z"/><g data-name="Icon Red"><path d="M7.479 31.013a3.5 3.5 0 0 1-.498-.05V35h1.035v-4.041a3.5 3.5 0 0 1-.537.054M34.996 8H20v8h-7a1 1 0 0 0-1 1v18h13v-7h6v7h5V9.004A1.004 1.004 0 0 0 34.996 8M20 24.994h-6v-3h6Zm0-3.981h-6v-3h6Zm5 3.993h-3v-3h3Zm0-3.993h-3v-3h3Zm0-4.007h-3v-3h3Zm0-3.993h-3v-3h3Zm4.5 11.993h-3v-3h3Zm0-3.993h-3v-3h3Zm0-4.007h-3v-3h3Zm0-3.993h-3v-3h3Zm4.5 11.98h-3v-3h3ZM34 21h-3v-3h3Zm0-4.006h-3v-3h3ZM34 13h-3v-3h3Z" fill="#d9304c"/><path fill="#ffaca6" d="M14 18.013h6v3h-6zM14 21.994h6v3h-6z"/><path fill="#000d6e" d="M25 28h6v7h-6z"/><path d="M7.479 24a3.506 3.506 0 1 0 3.506 3.506A3.506 3.506 0 0 0 7.48 24" fill="#ffaca6"/></g></svg>