<svg viewBox="0 0 40 40" fill="none" xmlns="http://www.w3.org/2000/svg" focusable="false" aria-hidden="true"><path d="M0 0h40v40H0z"/><path d="M28.771 4h-4.268v2.46l4.268 3.936z" fill="#1B5951"/><path fill-rule="evenodd" clip-rule="evenodd" d="m8.497 15.735 10.028-9.248a.954.954 0 0 1 1.27-.014l10.043 9.262v7.136H19.434a2.23 2.23 0 0 0-2.23 2.23v2.251h-.57a1.11 1.11 0 0 0-1.11 1.11v5.416H8.496zm21.341 18.143H16.073v-5.415a.56.56 0 0 1 .56-.56h2.241a.56.56 0 0 1 .56.56v2.24h10.404v3.175m0-10.457v6.722h-9.843v-1.68a1.12 1.12 0 0 0-1.12-1.12h-1.121V25.1a1.68 1.68 0 0 1 1.68-1.68z" fill="#94E3D4"/><path d="M32.334 15.133 21.238 4.9a3.095 3.095 0 0 0-4.145.006L6 15.133l.362.392.361.392L17.81 5.694a2.025 2.025 0 0 1 2.709-.005l11.09 10.228.362-.392z" fill="#000D6E"/><path d="M19.995 28.463v1.68h10.083v-1.68a1.12 1.12 0 0 1 1.12-1.12h1.121V25.1a1.68 1.68 0 0 0-1.68-1.68H19.435a1.68 1.68 0 0 0-1.681 1.68v2.241h1.12a1.12 1.12 0 0 1 1.12 1.12" fill="#1B5951"/><path d="M34 35.745v-7.282a.56.56 0 0 0-.56-.56h-2.241a.56.56 0 0 0-.56.56v2.24H19.435v-2.24a.56.56 0 0 0-.56-.56h-2.242a.56.56 0 0 0-.56.56v7.282z" fill="#94E3D4"/><path d="M18.314 35.745v1.12a.56.56 0 1 0 1.12 0v-1.12zm12.325 0v1.12a.56.56 0 1 0 1.12 0v-1.12z" fill="#000D6E"/></svg>