<svg xmlns="http://www.w3.org/2000/svg" viewBox="0 0 40 40" focusable="false" aria-hidden="true"><path fill="none" d="M0 0h40v40H0z"/><g data-name="Icon Tangerine"><path fill="#fa9319" d="M29 6h-4v2.306l4 3.688z"/><path d="M18.355 22.525a.793.793 0 1 0-.792.84.796.796 0 0 0 .792-.84M22.432 26.327a.84.84 0 1 0 .792.84.795.795 0 0 0-.792-.84" fill="#fae052"/><path fill="#fae052" d="m22.544 10.121-6.795 7.818 10.714 7.179L19.99 34H30V16.997z"/><path d="m14.25 18.139 7.558-8.696-1.22-1.125a.895.895 0 0 0-1.19.013L10 16.997V34h8.751l6.29-8.63Z" fill="#fae052"/><path d="M32.339 16.434 21.94 6.843a2.9 2.9 0 0 0-3.884.005L7.66 16.433l.339.368.339.367 10.39-9.58a1.9 1.9 0 0 1 2.538-.005l10.394 9.585.339-.367z" fill="#000d6e"/></g></svg>