<svg xmlns="http://www.w3.org/2000/svg" viewBox="0 0 40 40" focusable="false" aria-hidden="true"><path fill="none" d="M0 0h40v40H0z"/><g data-name="Icon Green"><path d="M18.56 25.12 34 22.574v-7.598h-.04c-.367 2.392-5.433 4.332-11.96 4.667V22a1 1 0 0 1-1 1h-2a1 1 0 0 1-1-1v-2.357c-6.527-.335-11.593-2.275-11.96-4.667H6v15.217a1.72 1.72 0 0 0 1.57 1.834h11.115l-.95-5.758a1 1 0 0 1 .825-1.149" fill="#1b5951"/><path d="M18 19.643V19a1 1 0 0 1 1-1h2a1 1 0 0 1 1 1v.643c6.527-.335 11.593-2.275 11.96-4.667H34v-1.925a1 1 0 0 0-1-1h-4.974v-.003h-2v.003H13.974v-.003h-2v.003H7a1 1 0 0 0-1 1v1.925h.04c.367 2.392 5.433 4.332 11.96 4.667M35.496 23.34a1 1 0 0 0-1.15-.824l-.346.058-15.44 2.546a1 1 0 0 0-.824 1.15l.95 5.758.514 3.121a1 1 0 0 0 1.15.824l15.786-2.603a1 1 0 0 0 .824-1.15Zm-.662 2.133-.404.55-1.638-1.147-.681.928.943.66.422-.575.696.487-.826 1.125a.17.17 0 0 1-.236.039l-2.06-1.443a.163.163 0 0 1-.039-.23l1.489-2.028a.17.17 0 0 1 .236-.039l2.06 1.442a.163.163 0 0 1 .038.231" fill="#94e3d4"/><path d="M32.736 23.8a.17.17 0 0 0-.236.039l-1.489 2.028a.163.163 0 0 0 .038.23l2.061 1.443a.17.17 0 0 0 .236-.039l.826-1.125-.696-.487-.422.575-.943-.66.681-.928 1.639 1.147.403-.55a.163.163 0 0 0-.038-.23ZM21 18h-2a1 1 0 0 0-1 1v3a1 1 0 0 0 1 1h2a1 1 0 0 0 1-1v-3a1 1 0 0 0-1-1" fill="#000d6e"/><path d="M16.058 9.025h7.884a2.083 2.083 0 0 1 2.078 2.023h2a4.085 4.085 0 0 0-4.078-4.023h-7.884a4.085 4.085 0 0 0-4.078 4.023h2a2.083 2.083 0 0 1 2.078-2.023" fill="#94e3d4"/></g></svg>