<svg xmlns="http://www.w3.org/2000/svg" viewBox="0 0 40 40" focusable="false" aria-hidden="true"><path fill="none" d="M0 0h40v40H0z"/><g data-name="Icon Red"><path d="M5.88 22.84a.95.95 0 0 0-.94-.96A2.08 2.08 0 0 0 4 23.79h.94a.95.95 0 0 0 .94-.95M10.977 23.952a3 3 0 1 0 3 3 3 3 0 0 0-3-3m0 4.5a1.5 1.5 0 1 1 1.5-1.5 1.5 1.5 0 0 1-1.5 1.5" fill="#ffaca6"/><circle cx="10.977" cy="26.9518" r="1.5" fill="#000d6e"/><path d="M30.94 23.952a3 3 0 1 0 3 3 3 3 0 0 0-3-3m0 4.5a1.5 1.5 0 1 1 1.5-1.5 1.5 1.5 0 0 1-1.5 1.5" fill="#ffaca6"/><circle cx="30.9407" cy="26.9518" r="1.5" fill="#000d6e"/><path d="M32.96 20.53a.495.495 0 0 0 .5.5h2.71l-.17-1h-2.54a.495.495 0 0 0-.5.5M19.526 20.001h-2a.5.5 0 0 0 0 1h2a.5.5 0 0 0 0-1M34.117 17.046h-9.136v.953h10.077a.947.947 0 0 0-.94-.953M17.28 14.81a.475.475 0 0 0-.62-.72l-4.52 3.94h1.45Z" fill="#ffaca6"/><path d="M36.17 21.03h-2.71a.5.5 0 0 1 0-1H36v-.01a1.003 1.003 0 0 0-1-1H10.59l-5.65 2.86a.955.955 0 0 1 0 1.91H4v2.16a1.003 1.003 0 0 0 1 1h1.977a4 4 0 0 1 8 0h11.964a4 4 0 0 1 8 0h1.169a.896.896 0 0 0 .9-.9Zm-16.644-.029h-2a.5.5 0 0 1 0-1h2a.5.5 0 0 1 0 1" fill="#d9304c"/></g></svg>