<svg xmlns="http://www.w3.org/2000/svg" viewBox="0 0 40 40" focusable="false" aria-hidden="true"><path fill="none" d="M0 0h40v40H0z"/><g><path d="M32 19.5V12a4 4 0 0 0-4-4h-7.5v11.5ZM20.5 32H28a4 4 0 0 0 4-4v-7.5H20.5ZM8 20.5V28a4 4 0 0 0 4 4h7.5V20.5ZM19.5 8H12a4 4 0 0 0-4 4v7.5h11.5Z" fill="#94e3d4"/><path d="M16 14.5h-4a.5.5 0 0 1 0-1h4a.5.5 0 0 1 0 1M28.35 15.3l-1.52-1.53 1.42-1.42a.5.5 0 0 0 0-.7.5.5 0 0 0-.71 0l-1.42 1.42-1.42-1.42a.49.49 0 0 0-.7.7l1.42 1.42-1.53 1.53a.5.5 0 0 0 0 .7.5.5 0 0 0 .36.15.5.5 0 0 0 .35-.15l1.52-1.52L27.65 16a.48.48 0 0 0 .7 0 .48.48 0 0 0 0-.7M28 25.5h-4a.5.5 0 0 1 0-1h4a.5.5 0 0 1 0 1M28 28.5h-4a.5.5 0 0 1 0-1h4a.5.5 0 0 1 0 1M16 25.5h-1.5V24a.5.5 0 0 0-1 0v1.5H12a.5.5 0 0 0 0 1h1.5V28a.5.5 0 0 0 1 0v-1.5H16a.5.5 0 0 0 0-1" fill="#1b5951"/></g></svg>