<svg xmlns="http://www.w3.org/2000/svg" viewBox="0 0 40 40" focusable="false" aria-hidden="true"><path fill="none" d="M0 0h40v40H0z"/><g data-name="Icon Purple"><path fill="none" d="M24.463 18"/><path d="M32.043 17H35v-3.006a2 2 0 0 0-2-2.001h-7a1 1 0 0 1-1-1.001V9.846A.845.845 0 0 0 24.155 9h-8.31a.845.845 0 0 0-.845.846v1.146a1 1 0 0 1-1 1H7a2 2 0 0 0-2 2.002V17h10.115q.009-.01.018-.02a6.973 6.973 0 0 1 9.734 0q.009.01.018.02zM14 15a1 1 0 1 1 1-1 1 1 0 0 1-1 1" fill="#b8b2ff"/><path d="M19.025 16.086" fill="#fae052"/><path d="M20 29a6.99 6.99 0 0 1-5.735-11H5v12.083A1.96 1.96 0 0 0 7 32h26a1.96 1.96 0 0 0 2-1.917V18h-9.265A6.99 6.99 0 0 1 20 29" fill="#b8b2ff"/><path d="m25.888 20.855.01.069zM25.097 18.846l.015.025ZM25.6 19.86l-.022-.061zM14.102 20.924l.01-.07zM14.4 19.86l.022-.06zM14.888 18.87l.015-.024ZM24.463 18" fill="#fae052"/><path d="M7.5 11h5a.5.5 0 0 0 0-1h-5a.5.5 0 0 0 0 1" fill="#6c2273"/><circle cx="14" cy="14" r="1" fill="#000d6e"/><path d="m25.112 18.87-.015-.024a6 6 0 0 0-.634-.846 5.98 5.98 0 0 0-3.488-1.914l-.158-.024a5.4 5.4 0 0 0-1.633 0l-.159.024A5.98 5.98 0 0 0 15.537 18a6 6 0 0 0-.634.846l-.015.025a6 6 0 0 0-.466.929l-.022.06a6 6 0 0 0-.288.995l-.01.069a6 6 0 1 0 11.797 0q-.006-.035-.011-.07a6 6 0 0 0-.288-.994l-.022-.061a6 6 0 0 0-.466-.928" fill="#6c2273"/></g></svg>