<svg version="1.1" xmlns="http://www.w3.org/2000/svg" x="0px" y="0px" viewBox="0 0 40 40" xml:space="preserve" focusable="false" aria-hidden="true" enable-background="new 0 0 40 40"><path fill="none" d="M0 0h40v40H0z"/><g><path d="M36 21v-7a2 2 0 0 0-2-2H7.091c-.996 0-1.92.681-2.08 1.664A2 2 0 0 0 6.984 16h.518L5 21v4.992C5 27.101 5.899 28 7.008 28h.543c-.024-.165-.051-.329-.051-.5 0-1.93 1.57-3.5 3.5-3.5s3.5 1.57 3.5 3.5c0 .171-.027.335-.051.5H25.55c-.024-.165-.051-.329-.051-.5 0-1.93 1.57-3.5 3.5-3.5s3.5 1.57 3.5 3.5c0 .171-.027.335-.051.5H34a2 2 0 0 0 2-2zm-25.502 0H5.974l2.506-5h2.017a1 1 0 0 1 1 1v3a1 1 0 0 1-.999 1M32 19a1 1 0 0 1-1 1h-4a1 1 0 0 1-1-1v-2a1 1 0 0 1 1-1h4a1 1 0 0 1 1 1z" fill="#6C2273"/><path d="M23.483 28h-6V17a1 1 0 0 1 1-1h4a1 1 0 0 1 1 1zM36 25h-1a1 1 0 0 1-1-1v-1a1 1 0 0 1 1-1h1zM5 22h1a1 1 0 0 1 1 1v1a1 1 0 0 1-1 1H5z" fill="#B8B2FF"/><circle cx="11" cy="27.5" r="2.5" fill="#B8B2FF"/><circle cx="11" cy="27.5" r="0.833" fill="#000D6E"/><circle cx="29" cy="27.5" r="2.5" fill="#B8B2FF"/><circle cx="29" cy="27.5" r="0.833" fill="#000D6E"/></g></svg>