<svg version="1.1" xmlns="http://www.w3.org/2000/svg" x="0px" y="0px" viewBox="0 0 40 40" xml:space="preserve" focusable="false" aria-hidden="true" enable-background="new 0 0 40 40"><path fill="none" d="M0 0h40v40H0z"/><g><path d="M33 27.5c0-2.206-1.794-4-4-4s-4 1.794-4 4H15c0-2.206-1.794-4-4-4s-4 1.795-4 4a1.51 1.51 0 0 1-1.5-1.508v-4.835a.5.5 0 0 0 .475.343h4.523c.827 0 1.5-.673 1.5-1.5v-3c0-.827-.673-1.5-1.5-1.5H8.48a.5.5 0 0 0-.447.276l-.049.097a.498.498 0 0 0-.483-.373h-.517a1.497 1.497 0 0 1-1.479-1.756c.115-.709.797-1.244 1.586-1.244H34c.827 0 1.5.673 1.5 1.5v12c0 .827-.673 1.5-1.5 1.5zm-6-12c-.827 0-1.5.673-1.5 1.5v2c0 .827.673 1.5 1.5 1.5h4c.827 0 1.5-.673 1.5-1.5v-2c0-.827-.673-1.5-1.5-1.5z" fill="#1B5951"/><path d="M34 13c.551 0 1 .449 1 1v12c0 .551-.449 1-1 1h-.528c-.25-2.247-2.16-4-4.472-4s-4.223 1.753-4.472 4h-9.055c-.25-2.247-2.16-4-4.472-4a4.506 4.506 0 0 0-4.458 3.886A1.01 1.01 0 0 1 6 25.992V22h4.498c1.103 0 2-.897 2-2v-3c0-1.103-.897-2-2-2H8.481c-.175 0-.343.046-.49.128a1 1 0 0 0-.49-.128h-.517a.998.998 0 0 1-.985-1.175c.074-.463.554-.825 1.092-.825zm-7 8h4c1.103 0 2-.897 2-2v-2c0-1.103-.897-2-2-2h-4c-1.103 0-2 .897-2 2v2c0 1.103.897 2 2 2m7-9H7.091c-.996 0-1.92.681-2.08 1.664A2 2 0 0 0 6.984 16h.518L5 21v4.992C5 27.101 5.899 28 7.008 28h.543c-.024-.165-.051-.329-.051-.5 0-1.93 1.57-3.5 3.5-3.5s3.5 1.57 3.5 3.5c0 .171-.027.335-.051.5H25.55c-.024-.165-.051-.329-.051-.5 0-1.93 1.57-3.5 3.5-3.5s3.5 1.57 3.5 3.5c0 .171-.027.335-.051.5H34a2 2 0 0 0 2-2V14a2 2 0 0 0-2-2m-7 8a1 1 0 0 1-1-1v-2a1 1 0 0 1 1-1h4a1 1 0 0 1 1 1v2a1 1 0 0 1-1 1zM5.974 21l2.506-5h2.017a1 1 0 0 1 1 1v3a1 1 0 0 1-1 1z" fill="#1B5951"/><path d="M23.483 28h-6V17a1 1 0 0 1 1-1h4a1 1 0 0 1 1 1zM36 25h-1a1 1 0 0 1-1-1v-1a1 1 0 0 1 1-1h1zM5 22h1a1 1 0 0 1 1 1v1a1 1 0 0 1-1 1H5z" fill="#94E3D4"/><circle cx="11" cy="27.5" r="2.5" fill="#94E3D4"/><circle cx="11" cy="27.5" r="0.833" fill="#000D6E"/><circle cx="29" cy="27.5" r="2.5" fill="#94E3D4"/><circle cx="29" cy="27.5" r="0.833" fill="#000D6E"/></g></svg>