<svg xmlns="http://www.w3.org/2000/svg" viewBox="0 0 40 40" focusable="false" aria-hidden="true"><path fill="none" d="M0 0h40v40H0z"/><g><path d="M12.472 29.386h2.017V30a1 1 0 0 1-1 1h-.017a1 1 0 0 1-1-1zM4.807 29.386h2.017V30a1 1 0 0 1-1 1h-.017a1 1 0 0 1-1-1z" fill="#000d6e"/><rect x="14.08584219" y="23.73819364" width="1.21030106" height=".80686737" rx=".40343328" ry=".40343328" fill="#1b5951"/><rect x="4" y="23.73819364" width="1.21030106" height=".80686737" rx=".40343328" ry=".40343328" fill="#1b5951"/><path d="m14.365 26.159-.411-1.21H5.342l-.411 1.21a1.6 1.6 0 0 0-.124.62v2.204h9.682v-2.204c0-.213-.042-.424-.124-.62M6.22 27.773a.605.605 0 1 1 0-1.21.605.605 0 0 1 0 1.21m6.858 0a.605.605 0 1 1 0-1.21.605.605 0 0 1 0 1.21" fill="#1b5951"/><path d="M12.782 22.062a1.21 1.21 0 0 0-1.117-.744H7.631c-.489 0-.93.293-1.117.744l-1.035 2.483h8.338z" fill="#94e3d4"/><path d="M22.824 29.386h2.017V30a1 1 0 0 1-1 1h-.017a1 1 0 0 1-1-1zM15.159 29.386h2.017V30a1 1 0 0 1-1 1h-.017a1 1 0 0 1-1-1z" fill="#000d6e"/><rect x="24.43777056" y="23.73819364" width="1.21030106" height=".80686737" rx=".40343328" ry=".40343328" fill="#1b5951"/><rect x="14.35192837" y="23.73819364" width="1.21030106" height=".80686737" rx=".40343328" ry=".40343328" fill="#1b5951"/><path d="m24.717 26.159-.411-1.21h-8.612l-.411 1.21a1.6 1.6 0 0 0-.124.62v2.204h9.682v-2.204c0-.213-.042-.424-.124-.62m-8.146 1.614a.605.605 0 1 1 0-1.21.605.605 0 0 1 0 1.21m6.858 0a.605.605 0 1 1 0-1.21.605.605 0 0 1 0 1.21" fill="#1b5951"/><path d="M23.134 22.062a1.21 1.21 0 0 0-1.117-.744h-4.034c-.489 0-.93.293-1.117.744l-1.035 2.483h8.338z" fill="#94e3d4"/><path d="M33.176 29.386h2.017V30a1 1 0 0 1-1 1h-.017a1 1 0 0 1-1-1zM25.51 29.386h2.018V30a1 1 0 0 1-1 1h-.017a1 1 0 0 1-1-1z" fill="#000d6e"/><rect x="34.78969894" y="23.73819364" width="1.21030106" height=".80686737" rx=".40343328" ry=".40343328" fill="#1b5951"/><rect x="24.70385675" y="23.73819364" width="1.21030106" height=".80686737" rx=".40343328" ry=".40343328" fill="#1b5951"/><path d="m35.069 26.159-.411-1.21h-8.612l-.411 1.21a1.6 1.6 0 0 0-.124.62v2.204h9.682v-2.204c0-.213-.042-.424-.124-.62m-8.146 1.614a.605.605 0 1 1 0-1.21.605.605 0 0 1 0 1.21m6.858 0a.605.605 0 1 1 0-1.21.605.605 0 0 1 0 1.21" fill="#1b5951"/><path d="M33.486 22.062a1.21 1.21 0 0 0-1.117-.744h-4.034c-.489 0-.93.293-1.117.744l-1.035 2.483h8.338z" fill="#94e3d4"/><path fill="#1b5951" d="M2 34h36v3H2z"/><path d="M2 10.01V34h36V10.01L20 2zM37 31H3V12h34z" fill="#94e3d4"/></g></svg>