<svg xmlns="http://www.w3.org/2000/svg" viewBox="0 0 40 40" focusable="false" aria-hidden="true"><path fill="none" d="M0 0h40v40H0z"/><g data-name="Icon Tangerine"><path d="M11.9 30.325a.996.996 0 1 0 1.41-.009 1 1 0 0 0-1.41.01" fill="none"/><path d="m32.35 5.983-1.472.086a1.16 1.16 0 0 0-.75.347l-9.758 9.757L23.199 19l1.457-1.47 1.095-1.804 1.795-1.11 1.094-1.804 1.795-1.11 1.095-1.805 1.396-.709a1.16 1.16 0 0 0 .341-.753l.072-1.472a.916.916 0 0 0-.989-.98" fill="#fae052"/><path d="M18.918 16.173a2.993 2.993 0 0 0-4.232.027l-5.67 5.721a6.923 6.923 0 0 0 .024 9.792l1.456 1.443a2.993 2.993 0 0 0 4.232-.028l8.443-8.518a2.993 2.993 0 0 0-.01-4.232Zm-5.604 15.554a.996.996 0 1 1-.004-1.411 1 1 0 0 1 .004 1.41m8.46-8.676L15.45 29.43a1 1 0 0 1-1.409.006l-4.238-4.2a1 1 0 0 1-.007-1.41l6.322-6.378a1 1 0 0 1 1.41-.006l4.238 4.2a1 1 0 0 1 .006 1.41" fill="#fa9319"/><path d="m9.797 23.826 6.322-6.378a.996.996 0 0 1 1.41-.006l4.238 4.2a.996.996 0 0 1 .006 1.41L15.45 29.43a.996.996 0 0 1-1.409.006l-4.238-4.2a.996.996 0 0 1-.007-1.41" fill="#fae052"/></g></svg>