<svg version="1.1" xmlns="http://www.w3.org/2000/svg" x="0px" y="0px" viewBox="0 0 40 40" xml:space="preserve" focusable="false" aria-hidden="true" enable-background="new 0 0 40 40"><path fill="none" d="M0 0h40v40H0z"/><g><path d="M31 36h-3a1 1 0 0 1-1-1v-3h5v3a1 1 0 0 1-1 1M12 36H9a1 1 0 0 1-1-1v-3h5v3a1 1 0 0 1-1 1" fill="#000D6E"/><path d="M33.5 20h-2a.5.5 0 0 1-.5-.5v-1a.5.5 0 0 1 .5-.5h2a.5.5 0 0 1 .5.5v1a.5.5 0 0 1-.5.5M8.5 20h-2a.5.5 0 0 1-.5-.5v-1a.5.5 0 0 1 .5-.5h2a.5.5 0 0 1 .5.5v1a.5.5 0 0 1-.5.5M31.692 24l-1.019-3H9.327l-1.019 3A4 4 0 0 0 8 25.538V31h24v-5.462c0-.528-.105-1.051-.308-1.538M11.5 28a1.5 1.5 0 1 1 .001-3.001A1.5 1.5 0 0 1 11.5 28m17 0a1.5 1.5 0 1 1 .001-3.001A1.5 1.5 0 0 1 28.5 28" fill="#FA9319"/><path d="M27.769 13.846A3 3 0 0 0 25 12H15a3 3 0 0 0-2.769 1.846L9.667 20h20.667z" fill="#FAE052"/><path d="M11.877 7.646v-.86h2.044v.86zM16.825 8.099h.595v.881h-2.459v-.881h.803V5.581h-.789v-.875h.789v-.71h1.061zM17.822 6.478c0-1.635.875-2.567 2.23-2.567 1.363 0 2.238.933 2.238 2.567 0 1.606-.89 2.596-2.238 2.596-1.355-.001-2.23-.99-2.23-2.596m3.386.014c0-1.019-.466-1.571-1.155-1.571s-1.147.553-1.147 1.571.459 1.57 1.147 1.57 1.155-.551 1.155-1.57M23.102 5.101c0-.646.495-1.162 1.155-1.162.674 0 1.154.517 1.154 1.162s-.48 1.162-1.154 1.162a1.14 1.14 0 0 1-1.155-1.162m1.627 0c0-.279-.194-.502-.473-.502-.273 0-.474.223-.474.502 0 .287.201.502.474.502.28 0 .473-.215.473-.502M23.89 8.98l2.84-4.984.817-.007L24.7 8.973zm2.123-1.104c0-.646.488-1.162 1.155-1.162.674 0 1.154.517 1.154 1.162s-.48 1.162-1.154 1.162a1.14 1.14 0 0 1-1.155-1.162m1.628 0c0-.279-.194-.502-.473-.502-.28 0-.474.223-.474.502 0 .287.201.502.474.502s.473-.215.473-.502" fill="#000D6E"/></g></svg>