<svg data-name="Ebene 1" xmlns="http://www.w3.org/2000/svg" viewBox="0 0 1080 1080" focusable="false" aria-hidden="true"><path d="M565.05 907.28c0 28.16-22.83 50.99-50.99 50.99h-97.88c-28.16 0-50.99-22.83-50.99-50.99v-91.77h199.86z" fill="#000d6e"/><rect x="308.09" y="244.47" width="114.21" height="85.66" rx="28.55" ry="28.55" fill="#1b5951"/><path d="M536.5 130.27h235.41v228.41H436.57z" fill="#94e3d4"/><path d="M378.27 511.66a173.7 173.7 0 0 0-13.39 66.87l.31 208.43h406.72V387.23H422.29l-44.03 124.43Zm44.03 118.26c0-39.42 31.96-71.38 71.38-71.38s71.38 31.96 71.38 71.38c0 28.61-17.08 54.45-43.4 65.66h-.29a67.9 67.9 0 0 1-27.12 5.71h-.57c-39.42 0-71.38-31.96-71.38-71.38Z" fill="#1b5951"/><path d="M422.29 629.92c0-39.42 31.96-71.38 71.38-71.38s71.38 31.96 71.38 71.38c0 28.61-17.08 54.45-43.4 65.66h-.29a67.9 67.9 0 0 1-27.12 5.71h-.57c-39.42 0-71.38-31.96-71.38-71.38Z" fill="#94e3d4"/></svg>