<svg xmlns="http://www.w3.org/2000/svg" viewBox="0 0 40 40" focusable="false" aria-hidden="true"><path fill="none" d="M0 0h40v40H0z"/><g><path d="M27 28h5v3a1 1 0 0 1-1 1h-3a1 1 0 0 1-1-1zM8 28h5v3a1 1 0 0 1-1 1H9a1 1 0 0 1-1-1z" fill="#000d6e"/><rect x="31" y="14" width="3" height="2" rx="0.5" fill="#fa9319"/><rect x="6" y="14" width="3" height="2" rx="0.5" fill="#fa9319"/><path d="m31.69 20-1-3H9.33l-1 3A3.9 3.9 0 0 0 8 21.54V27h24v-5.46a3.9 3.9 0 0 0-.31-1.54M11.5 24a1.5 1.5 0 1 1 1.5-1.5 1.5 1.5 0 0 1-1.5 1.5m17 0a1.5 1.5 0 1 1 1.5-1.5 1.5 1.5 0 0 1-1.5 1.5" fill="#fa9319"/><path d="M27.77 9.85A3 3 0 0 0 25 8H15a3 3 0 0 0-2.77 1.85L9.67 16h20.66Z" fill="#fae052"/></g></svg>