<svg xmlns="http://www.w3.org/2000/svg" viewBox="0 0 40 40" focusable="false" aria-hidden="true"><path fill="none" d="M0 0h40v40H0z"/><g data-name="Icon Green"><circle cx="16" cy="30" r="8.5" fill="#94e3d4"/><path d="M16 22a8 8 0 1 1 0 16 8 8 0 0 1 0-16m0-1c-4.963 0-9 4.037-9 9s4.037 9 9 9 9-4.037 9-9-4.037-9-9-9" fill="#fff"/><path fill="#94e3d4" d="M3.042 4.013H6.24l10.387 6.96H13.44z"/><path d="M31.576 24.188a2.25 2.25 0 0 1-1.63-.678 2.28 2.28 0 0 1-.667-1.619c0-1.068.735-1.976 1.723-2.228L18.546 13H2v18l5.01-.017h.046A9 9 0 0 1 7 30c0-4.963 4.037-9 9-9s9 4.037 9 9c0 .336-.022.667-.058.994h6.106c1.263 0 1.946-.73 1.946-1.994v-4.812z" fill="#1b5951"/><path d="M29.945 23.51a2.28 2.28 0 0 1-.666-1.619c0-1.068.735-1.975 1.723-2.228l.046.034s.011 0 .023.012c.218.115 1.429 1.033 1.82 3.376q.102.5.103 1.103h-1.418a2.25 2.25 0 0 1-1.63-.678" fill="#94e3d4"/><path d="M25.967 5.451a.55.55 0 0 0 .45-.232l1.666-2.352a.55.55 0 0 0-.897-.636l-1.667 2.353a.55.55 0 0 0 .448.867M25.257 7.83a1.1 1.1 0 1 0-1.798-1.266 1.1 1.1 0 0 0 1.798 1.266M31.562 4.202a.55.55 0 0 0-.766.131l-4.075 5.748a.55.55 0 1 0 .897.636l4.074-5.748a.55.55 0 0 0-.13-.767M24.485 11.874a1.1 1.1 0 1 0 1.799 1.265 1.1 1.1 0 0 0-1.799-1.265M32.888 10.324c.173 0 .342-.08.45-.232l3.816-5.385a.55.55 0 1 0-.896-.636L32.44 9.456a.55.55 0 0 0 .447.868M32.163 12.69a1.1 1.1 0 1 0-1.799-1.265 1.1 1.1 0 0 0 1.799 1.265M37.74 9.829a.55.55 0 0 0-.765.13l-3.35 4.725a.55.55 0 1 0 .897.636l3.35-4.724a.55.55 0 0 0-.131-.767M31.39 16.477a1.1 1.1 0 1 0 1.798 1.265 1.1 1.1 0 0 0-1.799-1.265" fill="#000d6e"/><circle cx="16" cy="30" r="4.5" fill="#000d6e"/></g></svg>