<svg xmlns="http://www.w3.org/2000/svg" viewBox="0 0 40 40" focusable="false" aria-hidden="true"><path fill="none" d="M0 0h40v40H0z"/><g data-name="Icon Tangerine"><rect x="2" y="15.5" width="4" height="2.5" rx=".5" ry=".5" fill="#fa9319"/><rect x="34" y="15.5" width="4" height="2.5" rx=".5" ry=".5" fill="#fa9319"/><path d="M5 33h6v4a1 1 0 0 1-1 1H6a1 1 0 0 1-1-1zM28.987 33h6v4a1 1 0 0 1-1 1h-4a1 1 0 0 1-1-1z" fill="#000d6e"/><path d="M34.615 22.9 33.341 19H6.66l-1.274 3.9a5.4 5.4 0 0 0-.385 2V32h30v-7.1a5.4 5.4 0 0 0-.385-2M9 28a2 2 0 1 1 0-4 2 2 0 0 1 0 4m22 0a2 2 0 1 1 0-4 2 2 0 0 1 0 4" fill="#fa9319"/><path d="M15.965 18c-1.725-2.66-1.118-6.884 1.611-10h-3.895c-1.5 0-2.852.924-3.435 2.341L7.122 18z" fill="#fae052"/><path d="M19.27 18c-.475-.807-.624-1.894-.478-3.167a8.25 8.25 0 0 1 2.04-3.817.25.25 0 0 1 .412.237c-.612 2.695.424 3.418 1.048 3.742q.085.036.177.06a1.247 1.247 0 0 0 1.513-.908.243.243 0 0 1 .436 0c.53 1.132.987 2.617.6 3.853h2.12l.193-.217c2.913-3.262-2.333-7.977-1.191-10.721a.15.15 0 0 0-.206-.175c-2.364 1.247-1.634 4.366-2.825 3.742-1.429-.723 1.833-5.27-2.071-8.595a.143.143 0 0 0-.231.15c.524 1.834-.586 4.572-2.451 6.643-2.68 2.966-3.118 7.061-1.142 9.173z" fill="#000d6e"/><path d="M28.419 18h4.223l-3.124-7.659a3.76 3.76 0 0 0-2.505-2.211c.114.766.52 1.729.925 2.673.937 2.191 2.076 4.882.48 7.197" fill="#fae052"/></g></svg>