<svg xmlns="http://www.w3.org/2000/svg" viewBox="0 0 40 40" focusable="false" aria-hidden="true"><path fill="none" d="M0 0h40v40H0z"/><g data-name="Icon Red"><path d="M36.125 15h-20.25A1.875 1.875 0 0 0 14 16.875v11.25A1.875 1.875 0 0 0 15.875 30h20.25A1.875 1.875 0 0 0 38 28.125v-11.25A1.875 1.875 0 0 0 36.125 15m-.441 5.052-.65.65-1.907-1.906-1.097 1.097 1.097 1.097.68-.68.81.81-1.33 1.33a.226.226 0 0 1-.32 0l-2.397-2.398a.225.225 0 0 1 0-.318l2.398-2.398a.225.225 0 0 1 .319 0l2.398 2.398a.226.226 0 0 1-.001.318" fill="#ffaca6"/><path d="M26 14v-3.125A1.875 1.875 0 0 0 24.125 9H3.875A1.875 1.875 0 0 0 2 10.875v11.25A1.875 1.875 0 0 0 3.875 24h9.012v-7.125A2.88 2.88 0 0 1 15.762 14Z" fill="#ffaca6"/><path d="M33.286 17.336a.225.225 0 0 0-.319 0l-2.397 2.398a.225.225 0 0 0 0 .318l2.397 2.398a.226.226 0 0 0 .32 0l1.33-1.33-.81-.81-.68.68-1.097-1.097 1.097-1.097 1.907 1.907.65-.65a.226.226 0 0 0 0-.32Z" fill="#000d6e"/></g></svg>