<svg xmlns="http://www.w3.org/2000/svg" viewBox="0 0 40 40" focusable="false" aria-hidden="true"><path fill="none" d="M0 0h40v40H0z"/><g><path d="M20 13.742c0-1.657 1.12-3 2.5-3s2.5 1.343 2.5 3" fill="#000d6e"/><path fill="none" d="M8.665 19.42h17.509v-9.333h-7.117z"/><path d="M15 26.256a6.15 6.15 0 1 0-.001 12.3 6.15 6.15 0 0 0 0-12.3m0 9.225a3.075 3.075 0 1 1 0-6.15 3.075 3.075 0 0 1 0 6.15" fill="#94e3d4"/><circle cx="14.99906913" cy="32.40892418" r="3.075" fill="#000d6e"/><path d="M5.506 23.092c0-.978-.785-1.77-1.753-1.77 0 0-1.753.885-1.753 3.539h1.753c.968 0 1.753-.792 1.753-1.77M22.49 17.234h1.008q.272.001.496.049v-1.15c.608-.547 1.006-1.41 1.006-2.391 0-1.657-1.12-3-2.5-3s-2.5 1.343-2.5 3c0 1.449.856 2.657 1.994 2.938v.596a3 3 0 0 1 .496-.042" fill="#94e3d4"/><path d="M22.49 17.234a3 3 0 0 0-.496.042 3.12 3.12 0 0 0-2.452 2.143h5.9c-.103-1.094-.45-1.934-1.448-2.136a2.5 2.5 0 0 0-.496-.049z" fill="#000d6e"/><path d="M22.49 17.234h1.008c1.386 0 1.826.926 1.945 2.185h.73v-9.332h-7.116L8.664 19.419h10.878c.396-1.259 1.563-2.185 2.948-2.185" fill="none"/><path d="M27.086 8.268h-8.38a.92.92 0 0 0-.61.233L5.718 19.615l-1.965 1.707c.968 0 1.753.792 1.753 1.77 0 .977-.785 1.769-1.753 1.769H2v5.77c0 .982.785 1.778 1.753 1.778h3.841c0-.02-.006-.038-.006-.058 0-4.093 3.343-7.423 7.452-7.423s7.45 3.33 7.45 7.423c0 .018-.005.034-.005.052h5.495V20.15c.003-.03.018-.058.018-.09V9.177a.91.91 0 0 0-.912-.91M8.664 19.419l10.393-9.332h7.117v9.332z" fill="#1b5951"/><path d="M31.052 10C29.919 10 29 10.895 29 12v8h9V10z" fill="#94e3d4"/><path fill="#1b5951" d="M29 21h9v11.409h-9z"/><path d="M22.5 10.742c-1.52 0-2.189.837-2.408 2h-1.68a.5.5 0 1 0 0 1H25c0-1.657 0-3-2.5-3" fill="#000d6e"/></g></svg>