<svg xmlns="http://www.w3.org/2000/svg" viewBox="0 0 40 40" focusable="false" aria-hidden="true"><path fill="none" d="M0 0h40v40H0z"/><g><path d="M11.96 10a7 7 0 1 0 .08 14 7 7 0 0 0-.08-14M28 4c-3.866 0-7 3.274-7 7.09S24.134 18 28 18s7-3.094 7-6.91S31.866 4 28 4" fill="#b8b2ff"/><path d="M22.982 22a7 7 0 1 0 .037 14 7 7 0 0 0-.037-14" fill="#6c2273"/><path d="M23.514 26.696q.01-.002.02-.004c.475.002.736.237.869.57q.004.008.009.016l1.442-.623c-.294-.826-1.107-1.367-2.35-1.37l-.027.002c-1.535.009-2.528 1.077-2.532 2.411v.22h-.047l-.746-.002-.002 1.023.792.002-.002.517h-.047l-.745-.002-.002 1.034.792.002-.006 2.212 4.64.012h.047l.004-1.42-3.059-.007.002-.792 1.966.005h.047l.003-1.034-2.013-.005v-.518l1.967.006h.047l.003-1.023-2.013-.005v-.22c.002-.522.285-.998.94-1.007" fill="#b8b2ff"/><path d="M6.911 17.002c0-1.07.795-1.84 1.845-1.84.928 0 1.504.582 1.677 1.168l-.816.331c-.107-.418-.392-.693-.881-.693-.566 0-.958.413-.958 1.034 0 .623.392 1.03.953 1.03.494 0 .78-.275.886-.693l.816.331c-.184.607-.765 1.167-1.687 1.167-1.04 0-1.835-.77-1.835-1.835M13.052 15.229h.852v3.542h-.852v-1.417H11.83v1.417h-.85v-3.542h.85v1.366h1.223zM17.089 15.968h-1.55v.678h1.356v.739h-1.356v1.386h-.85v-3.542h2.4z" fill="#000d6e"/><path d="m27.1 9.093.001-.003c.002-.49.313-.789.935-.789.552 0 .972.312 1.151.972l1.62-.611q-.002-.003-.003-.007c-.23-.872-.947-1.506-1.953-1.71V5.832h-1.44v1.103C26.107 7.15 25.4 8 25.399 9.113v.004c0 2.828 3.781 2.16 3.789 3.761v.004c0 .493-.36.805-1.02.805-.743 0-1.282-.456-1.487-1.164l-1.604.598-.003.002c.324 1.08 1.187 1.787 2.339 1.955v1.091h1.428v-1.115c1.306-.264 2.087-1.128 2.087-2.29v-.005c-.004-2.958-3.827-2.18-3.827-3.666" fill="#6c2273"/></g></svg>