<svg xmlns="http://www.w3.org/2000/svg" viewBox="0 0 40 40" focusable="false" aria-hidden="true"><path fill="none" d="M0 0h40v40H0z"/><g><circle cx="20" cy="20" r="15" fill="#fae052"/><path d="M24.074 11h-.5a2 2 0 0 0-2 2v8c0 .93.64 1.706 1.5 1.93V29h2V12a1 1 0 0 0-1-1" fill="#fa9319"/><path d="M25.074 36.436c0 .31-.34.564-.758.564h-.983c-.417 0-.759-.254-.759-.564V24.564c0-.31.342-.564.759-.564h1.741z" fill="#000d6e"/><path d="M19.426 11.842a.5.5 0 0 0-.5.5v4.538h-1v-4.538a.5.5 0 1 0-1 0v4.538h-1v-4.538a.5.5 0 1 0-1 0v4.655c0 .029.011.054.016.081.075 1.372.901 2.503 1.984 2.775v1.38c.047-.012.093-.03.144-.03h.71c.052 0 .098.018.146.029v-1.38c1.08-.27 1.906-1.4 1.983-2.77.005-.029.017-.055.017-.085v-4.655a.5.5 0 0 0-.5-.5" fill="#fa9319"/><path d="M17.07 21.203c-.051 0-.097.018-.144.03a.64.64 0 0 0-.5.614v14.508c0 .355.29.645.644.645h.71c.355 0 .646-.29.646-.645V21.847a.64.64 0 0 0-.5-.615c-.048-.011-.094-.03-.145-.03z" fill="#000d6e"/></g></svg>