<svg version="1.1" xmlns="http://www.w3.org/2000/svg" x="0px" y="0px" viewBox="0 0 40 40" xml:space="preserve" focusable="false" aria-hidden="true" enable-background="new 0 0 40 40"><path fill="none" d="M0 0h40v40H0z"/><g><path fill="#000D6E" d="M10 32h20v6H10z"/><path fill="#1B5951" d="M29 6h-4v2.306l4 3.688z"/><path d="M19.398 8.331 10 16.997V31h20V16.997l-9.412-8.679a.893.893 0 0 0-1.19.013" fill="#94E3D4"/><path d="M32.339 16.433 21.94 6.844a2.9 2.9 0 0 0-3.884.005L7.661 16.433l.339.368.339.367 10.39-9.58a1.9 1.9 0 0 1 2.538-.005l10.395 9.585.338-.367z" fill="#000D6E"/><path fill="#1B5951" d="M4 31h32v1H4z"/></g></svg>