<svg xmlns="http://www.w3.org/2000/svg" viewBox="0 0 40 40" focusable="false" aria-hidden="true"><path fill="none" d="M0 0h40v40H0z"/><g><path d="M31 12.91a.41.41 0 0 0-.41-.41h-.18a.42.42 0 0 0-.41.41V14h1ZM29 12.91a.42.42 0 0 0-.41-.41h-.18a.42.42 0 0 0-.41.41V14h1Z" fill="#fa9319"/><path d="M27 14v2.78A2.21 2.21 0 0 0 29 19v6h-6v1h7v-7a2.21 2.21 0 0 0 2-2.2V14Zm2.5 3.12a.62.62 0 1 1 .62-.62.61.61 0 0 1-.62.62" fill="#fae052"/><circle cx="29.5" cy="16.5" r="0.63" fill="#000d6e"/><path d="M23 10a3 3 0 0 0-3-3h-8a3 3 0 0 0-3 3v23h14Zm-4.58 13.78-2 3A.52.52 0 0 1 16 27a.6.6 0 0 1-.28-.08.51.51 0 0 1-.14-.7L17.07 24H14a.5.5 0 0 1-.42-.78l2-3a.5.5 0 0 1 .84.56L14.93 23H18a.5.5 0 0 1 .42.78M19 17h-6a2 2 0 0 1-2-2v-4a2 2 0 0 1 2-2h6a2 2 0 0 1 2 2v4a2 2 0 0 1-2 2" fill="#fa9319"/></g></svg>