<svg xmlns="http://www.w3.org/2000/svg" viewBox="0 0 40 40" focusable="false" aria-hidden="true"><path fill="none" d="M0 0h40v40H0z"/><g><path d="M35.75 26.42V13.601A3.99 3.99 0 0 0 38 10.02c0-1.483-.816-2.762-2.014-3.453l-.822 3.453h-2.328l-.822-3.453C30.816 7.258 30 8.538 30 10.02c0 1.578.922 2.93 2.25 3.58V26.42A3.99 3.99 0 0 0 30 30a4 4 0 0 0 8 0c0-1.578-.922-2.93-2.25-3.58M34 31.25a1.251 1.251 0 0 1 0-2.5 1.251 1.251 0 0 1 0 2.5M25.728 17H5.272l-.977 3A4.2 4.2 0 0 0 4 21.538V27h23v-5.462c0-.528-.1-1.05-.295-1.538zM7.5 24a1.5 1.5 0 1 1 0-3 1.5 1.5 0 0 1 0 3m16 0a1.5 1.5 0 1 1 0-3 1.5 1.5 0 0 1 0 3" fill="#1b5951"/><path d="M22 31a1 1 0 0 0 1 1h3a1 1 0 0 0 1-1v-3h-5zM4 31a1 1 0 0 0 1 1h3a1 1 0 0 0 1-1v-3H4z" fill="#000d6e"/><rect x="26" y="14.00000001" width="3" height="2" rx=".5" ry=".5" fill="#1b5951"/><rect x="2" y="14.00000001" width="3" height="2" rx=".5" ry=".5" fill="#1b5951"/><path d="M22.945 9.846C22.5 8.728 21.452 8 20.292 8h-9.584c-1.16 0-2.207.728-2.653 1.846L5.597 16h19.806z" fill="#94e3d4"/><path d="M34 24.134a.5.5 0 0 1-.5-.5v-7.268a.5.5 0 1 1 1 0v7.268a.5.5 0 0 1-.5.5" fill="#000d6e"/><path d="M34 27.75c-1.24 0-2.25 1.01-2.25 2.25s1.01 2.25 2.25 2.25 2.25-1.01 2.25-2.25-1.01-2.25-2.25-2.25m0 3.5a1.251 1.251 0 0 1 0-2.5 1.251 1.251 0 0 1 0 2.5" fill="#94e3d4"/></g></svg>