<svg xmlns="http://www.w3.org/2000/svg" viewBox="0 0 40 40" focusable="false" aria-hidden="true"><path fill="none" d="M0 0h40v40H0z"/><g><path fill="#000d6e" d="M11 33h18v1H11z"/><path d="m14 19.51 4.91-1.86a.6.6 0 0 1 .72.31.59.59 0 0 1-.18.77C19.11 19 14 21.89 14 28h12a37.4 37.4 0 0 1 1.09-6.69c.68-2.94 2.13-5.13 1.88-8.37a6.94 6.94 0 0 0-2.48-5C24.13 6 20.32 5.94 18.81 6l.34.93a.62.62 0 0 1-.12.61L12 16.39a2 2 0 0 0 0 2.52 1.9 1.9 0 0 0 2 .6m6-8.7a.88.88 0 1 1-.88.88.88.88 0 0 1 .88-.88" fill="#ffaca6"/><path fill="#d9304c" d="M14 29h12v3H14z"/></g></svg>