<svg data-name="Ebene 1" xmlns="http://www.w3.org/2000/svg" viewBox="0 0 1080 1080" focusable="false" aria-hidden="true"><path fill="#fae052" d="m311.08 725.66 643.38-2.6-.5-125.57-643.4.5z"/><path fill="#000d6e" d="m177.89 725.752.513-127.649 43.06.173-.513 127.649zM244.07 598.36l-.52 127.65 43.06.17.52-127.64z"/><path d="m178.07 575.5-.18-40.29c-.18-42.08 17.08-81.72 48.6-111.6 29.32-27.8 67.72-44.06 108.97-46.32a98.9 98.9 0 0 1-12.11-47.03c-.13-27.91 11.47-54.18 32.65-73.98 21.04-19.67 48.99-30.57 78.68-30.68l86.56-.33c29.6-.11 57.47 10.62 78.5 30.22 21 19.59 32.65 45.7 32.77 73.53.13 27.9-11.47 54.17-32.65 73.97-21.06 19.67-48.99 30.57-78.68 30.68l-28.57.11c-8.86 43.11-49.22 75.86-97.65 76.04l-65.24.24c-24.05.09-43.53 18.56-43.44 41.18l.1 23.85-108.32.41Z" fill="#fae052"/><path fill="#fa9319" d="m711.58 724.04 242.88-.98V596.98l-242.88.01z"/></svg>