<svg xmlns="http://www.w3.org/2000/svg" viewBox="0 0 40 40" focusable="false" aria-hidden="true"><path fill="none" d="M0 0h40v40H0z"/><g data-name="Icon Red"><circle cx="11.5" cy="22.5" r="1.5" fill="none"/><circle cx="28.5" cy="22.5" r="1.5" fill="none"/><path d="M27 31a1 1 0 0 0 1 1h3a1 1 0 0 0 1-1v-3h-5ZM8 31a1 1 0 0 0 1 1h3a1 1 0 0 0 1-1v-3H8Z" fill="#000d6e"/><rect x="31" y="14" width="3" height="2" rx="0.5" fill="#d9304c"/><rect x="6" y="14" width="3" height="2" rx="0.5" fill="#d9304c"/><path d="M30.67 17h-7.59l-2.77 3.66 4.77 3.38L23.2 27H32v-5.46a3.9 3.9 0 0 0-.31-1.54Zm-2.17 7a1.5 1.5 0 1 1 1.5-1.5 1.5 1.5 0 0 1-1.5 1.5" fill="#d9304c"/><path d="M18.88 20.88 21.82 17H9.33l-1.02 3A3.9 3.9 0 0 0 8 21.54V27h14.02l1.71-2.69ZM11.5 24a1.5 1.5 0 1 1 1.5-1.5 1.5 1.5 0 0 1-1.5 1.5" fill="#d9304c"/><path d="M27.77 9.846A3 3 0 0 0 25 8H15a3 3 0 0 0-2.77 1.846L9.668 16h20.666Z" fill="#ffaca6"/></g></svg>