<svg xmlns="http://www.w3.org/2000/svg" viewBox="0 0 40 40" focusable="false" aria-hidden="true"><path fill="none" d="M0 0h40v40H0z"/><g data-name="Icon Tangerine"><path d="M34.12 22.854a.954.954 0 0 1 .94-.969 2.1 2.1 0 0 1 .94 1.927h-.94a.95.95 0 0 1-.94-.958M26 27a3 3 0 1 0 3-3 3 3 0 0 0-3 3m1.5 0a1.5 1.5 0 1 1 1.5 1.5 1.5 1.5 0 0 1-1.5-1.5" fill="#fae052"/><path d="M15.436 24.266 17.106 27H25a4 4 0 0 1 8 0h2a1.007 1.007 0 0 0 1-1.009v-2.179h-.94a.964.964 0 0 1 0-1.927L29.412 19H16.836l2.22 2.946Zm4.543-3.772a.5.5 0 0 1 .5-.504h2a.504.504 0 0 1 0 1.009h-2a.5.5 0 0 1-.5-.505" fill="#fa9319"/><circle cx="29" cy="27" r="1.5" fill="#000d6e"/><path d="M6 27a3 3 0 1 0 3-3 3 3 0 0 0-3 3m1.5 0A1.5 1.5 0 1 1 9 28.5 1.5 1.5 0 0 1 7.5 27" fill="#fae052"/><path d="M3 26.092a.9.9 0 0 0 .9.908H5a4 4 0 0 1 8 0h2.936l-1.87-3.057 3.53-2.26L15.576 19H5.01a1.007 1.007 0 0 0-1 1.009v.01h2.54a.504.504 0 0 1 0 1.009H3.84Zm5.927-5.598a.5.5 0 0 1 .5-.504h2a.504.504 0 0 1 0 1.009h-2a.5.5 0 0 1-.5-.505" fill="#fa9319"/><circle cx="9" cy="27" r="1.5" fill="#000d6e"/><path d="M7.049 20.523a.497.497 0 0 1-.5.505H3.84l.17-1.01h2.539a.497.497 0 0 1 .5.505M24.17 15.62a2.8 2.8 0 0 0-1.79-.65H10.31L8.8 18H7.05l1.78-3.49a.6.6 0 0 1 .08-.13.2.2 0 0 1 .03-.05.8.8 0 0 1 .5-.36 2 2 0 0 1 .23 0h12.71a3.78 3.78 0 0 1 2.44.89L28.38 18h-1.52ZM20.479 19.99h2a.504.504 0 0 1 0 1.009h-2a.504.504 0 0 1 0-1.009M9.427 19.99h2a.504.504 0 0 1 0 1.009h-2a.504.504 0 0 1 0-1.009" fill="#fae052"/></g></svg>