<svg xmlns="http://www.w3.org/2000/svg" viewBox="0 0 40 40" focusable="false" aria-hidden="true"><path fill="none" d="M0 0h40v40H0z"/><g data-name="Icon Green"><path d="M17 33.214A1.786 1.786 0 0 1 15.214 35h-3.428A1.786 1.786 0 0 1 10 33.214V30h7Z" fill="#000d6e"/><rect x="8" y="10" width="4" height="3" rx="1" fill="#1b5951"/><path fill="#94e3d4" d="M16 6h13v8H12.5z"/><path d="M10.458 19.358a6.1 6.1 0 0 0-.469 2.342L10 29h19V15H12ZM12 23.5a2.5 2.5 0 1 1 3.48 2.3h-.01a2.4 2.4 0 0 1-.95.2h-.02a2.5 2.5 0 0 1-2.5-2.5" fill="#1b5951"/><path d="m13.51 21.2 1.18 1.64-1.49 1.05L14.52 26h-.02a2.503 2.503 0 0 1-.99-4.8" fill="#94e3d4"/><path d="M15.98 23.05 14.5 21a2.5 2.5 0 0 1 .98 4.8h-.01l-1.03-1.66Z" fill="#94e3d4"/></g></svg>