<svg xmlns="http://www.w3.org/2000/svg" viewBox="0 0 40 40" focusable="false" aria-hidden="true"><path fill="none" d="M0 0h40v40H0z"/><g data-name="Icon Green"><path fill="none" d="M14.04 17.29 17.3 13h-1.26l-3.43 4.51 6.55 4.64L16.08 27h1.19l3.25-5.11z"/><path d="M29 16.5h-2.005q.003.04.005.08v6.85q-.002.035-.003.07H29z" fill="#000d6e"/><path d="M29 11v18a5 5 0 0 0 5 5V6a5 5 0 0 0-5 5M27 16.58q-.002-.04-.005-.08c-.004-.149-.017-.295-.025-.43A5.57 5.57 0 0 0 21.45 11H12.4a5.6 5.6 0 0 0-4.45 2.24l-.05.07-.05.08c-1.23 2.01-4.1 6.93-4.1 9.26A6.34 6.34 0 0 0 10.07 29h11.38a5.565 5.565 0 0 0 5.547-5.5q.002-.035.003-.07Zm-2 6.85A3.56 3.56 0 0 1 21.45 27H10.07a4.334 4.334 0 0 1-4.32-4.35c0-1.01.95-3.06 1.9-4.86.96-1.8 1.91-3.35 1.91-3.35A3.52 3.52 0 0 1 12.4 13h9.05A3.564 3.564 0 0 1 25 16.58Z" fill="#1b5951"/><path d="M12.61 17.51 16.04 13H12.4a3.52 3.52 0 0 0-2.84 1.44s-.95 1.55-1.91 3.35c-.95 1.8-1.9 3.85-1.9 4.86A4.334 4.334 0 0 0 10.07 27h6.01l3.08-4.85Z" fill="#94e3d4"/><path d="M21.45 13H17.3l-3.26 4.29 6.48 4.6L17.27 27h4.18A3.56 3.56 0 0 0 25 23.43v-6.85A3.564 3.564 0 0 0 21.45 13" fill="#94e3d4"/></g></svg>