<svg xmlns="http://www.w3.org/2000/svg" viewBox="0 0 40 40" focusable="false" aria-hidden="true"><path fill="none" d="M0 0h40v40H0z"/><g data-name="Icon Red"><circle cx="28.5" cy="22.5" r="1.5" fill="none"/><circle cx="11.5" cy="22.5" r="1.5" fill="none"/><path d="M27 31a1 1 0 0 0 1 1h3a1 1 0 0 0 1-1v-3h-5ZM8 31a1 1 0 0 0 1 1h3a1 1 0 0 0 1-1v-3H8Z" fill="#000d6e"/><rect x="31" y="14" width="3" height="2" rx="0.5" fill="#d9304c"/><rect x="6" y="14" width="3" height="2" rx="0.5" fill="#d9304c"/><path d="m20.89 14.51-4.85-3.44L18.38 8H15a3.01 3.01 0 0 0-2.77 1.85L9.67 16h10.27Z" fill="#ffaca6"/><path d="M22.24 14.24 21.12 16h9.21l-2.56-6.15A3.01 3.01 0 0 0 25 8h-5.36l-2.17 2.86Z" fill="#ffaca6"/><path d="M30.673 17H9.327l-1.02 3A4 4 0 0 0 8 21.538V27h24v-5.462A4 4 0 0 0 31.692 20ZM11.5 24a1.5 1.5 0 1 1 1.5-1.5 1.5 1.5 0 0 1-1.5 1.5m17 0a1.5 1.5 0 1 1 1.5-1.5 1.5 1.5 0 0 1-1.5 1.5" fill="#d9304c"/></g></svg>