<svg xmlns="http://www.w3.org/2000/svg" viewBox="0 0 40 40" focusable="false" aria-hidden="true"><path fill="none" d="M0 0h40v40H0z"/><g data-name="Icon Tangerine"><path d="M33.5 19.5h-3a.5.5 0 0 0 0 1h3a.5.5 0 0 0 0-1M29.533 22.83a.5.5 0 0 0-.707.706l2.121 2.121a.5.5 0 0 0 .707-.707ZM29.182 17.317a.5.5 0 0 0 .354-.146l2.121-2.121a.5.5 0 0 0-.707-.707l-2.121 2.121a.5.5 0 0 0 .353.854Z" fill="#000d6e"/><path d="M6 18.002v4.005a1 1 0 0 0 1 1.002h.99v5.003a1.002 1.002 0 0 0 1.708.697l1-.985a.98.98 0 0 0 .292-.697v-4.018H15V17H7a1 1 0 0 0-1 1.002" fill="#fae052"/><path d="M26 17v6a3 3 0 0 0 0-6" fill="#fa9319"/><path d="m23.799 11.057-.452.3c-1.81 2.498-4.392 4.995-7.347 5.637v6.012c2.982.648 5.583 3.171 7.394 5.704l.405.233A.922.922 0 0 0 25 27.998V12.002a.922.922 0 0 0-1.201-.944" fill="#fae052"/></g></svg>