<svg xmlns="http://www.w3.org/2000/svg" viewBox="0 0 40 40" focusable="false" aria-hidden="true"><path fill="none" d="M0 0h40v40H0z"/><g data-name="Icon Green"><path fill="#94e3d4" d="m22.702 11-3.07-6h-4.12l3 6zM28 15.98h3.88l.002.01c-.03-.18-.05-.34-.08-.5-.11-.66-.2-1.19-.24-1.48h-3.56A.985.985 0 1 0 28 15.98"/><path d="M33.5 25.71s-1.028-6.258-1.618-9.72l-.002-.01H28a.985.985 0 0 1-.988-.98l-.002-.01A.986.986 0 0 1 28 14h3.56a.4.4 0 0 1-.02-.1 4 4 0 0 0-.08-.39A1.727 1.727 0 0 0 29.58 12H6v16h5.07a8 8 0 0 1-.07-1 8.015 8.015 0 0 1 10.04-7.74l1.4-2.05-1.75-1.24L22.11 14h1.23l-1.25 1.74 1.72 1.22-1.79 2.64A8 8 0 0 1 27 27a8 8 0 0 1-.07 1h4.27a2.124 2.124 0 0 0 2.3-2.29" fill="#1b5951"/><path d="M19 20a7 7 0 1 0 7 7 7 7 0 0 0-7-7m0 11a4 4 0 1 1 4-4 4 4 0 0 1-4 4" fill="#94e3d4"/><circle cx="19" cy="27" r="4" fill="#000d6e"/></g></svg>