<svg xmlns="http://www.w3.org/2000/svg" viewBox="0 0 40 40" focusable="false" aria-hidden="true"><path fill="none" d="M0 0h40v40H0z"/><g data-name="Icon Red"><path d="M29.9 10.1a14 14 0 1 0 0 19.8 14 14 0 0 0 0-19.8m-4.256 3.064 2.121-2.121a.5.5 0 0 1 .707.707l-2.121 2.121a.5.5 0 1 1-.708-.707ZM19.5 8.5a.5.5 0 0 1 1 0v3a.5.5 0 0 1-1 0Zm.5 9.256a1.7 1.7 0 0 1 .833.22l3.07-3.071a.5.5 0 0 1 .708.707l-3.074 3.073a1.7 1.7 0 0 1 .213.821 1.75 1.75 0 1 1-1.75-1.75Zm-8.428-6.716a.5.5 0 0 1 .707 0l2.121 2.121a.5.5 0 0 1-.707.707l-2.122-2.12a.5.5 0 0 1 0-.708m-.072 8.966h-3a.5.5 0 0 1 0-1h3a.5.5 0 0 1 0 1m16.5 7.03a.964.964 0 0 1-.964.964H12.964a.964.964 0 0 1-.964-.964v-2.072a.964.964 0 0 1 .964-.964h14.072a.964.964 0 0 1 .964.964Zm3.5-7.03h-3a.5.5 0 0 1 0-1h3a.5.5 0 0 1 0 1" fill="#ffaca6"/><path d="M11.5 19.006h-3a.5.5 0 0 0 0 1h3a.5.5 0 0 0 0-1M31.5 19.006h-3a.5.5 0 0 0 0 1h3a.5.5 0 0 0 0-1M25.997 14.018a.5.5 0 0 0 .354-.147l2.121-2.121a.5.5 0 0 0-.707-.707l-2.122 2.121a.5.5 0 0 0 .354.854M13.693 13.868a.5.5 0 0 0 .707-.707L12.28 11.04a.5.5 0 0 0-.707.707ZM20 12a.5.5 0 0 0 .5-.5v-3a.5.5 0 0 0-1 0v3a.5.5 0 0 0 .5.5" fill="#d9304c"/><path d="M20 21.256a1.75 1.75 0 0 0 1.75-1.75 1.7 1.7 0 0 0-.213-.82l3.074-3.075a.5.5 0 0 0-.707-.707l-3.071 3.072a1.7 1.7 0 0 0-.833-.22 1.75 1.75 0 0 0 0 3.5Z" fill="#000d6e"/><rect x="12.4999" y="24.5" width="15" height="3" rx="0.4639" fill="#000d6e"/><path d="M27 25v2H13v-2zm.036-1H12.964a.964.964 0 0 0-.964.964v2.072a.964.964 0 0 0 .964.964h14.072a.964.964 0 0 0 .964-.964v-2.072a.964.964 0 0 0-.964-.964" fill="#000d6e"/></g></svg>