<svg xmlns="http://www.w3.org/2000/svg" viewBox="0 0 40 40" focusable="false" aria-hidden="true"><path fill="none" d="M0 0h40v40H0z"/><g data-name="Icon Green"><path fill="none" d="M25.96 17.29 22.7 13h1.26l3.43 4.51-6.55 4.64L23.92 27h-1.19l-3.25-5.11z"/><path d="M11 16.5h2.005q-.003.04-.005.08v6.85q.001.035.004.07H11z" fill="#000d6e"/><path d="M11 11v18a5 5 0 0 1-5 5V6a5 5 0 0 1 5 5M13 23.43q.001.035.004.07A5.565 5.565 0 0 0 18.55 29h11.38a6.34 6.34 0 0 0 6.32-6.35c0-2.33-2.87-7.25-4.1-9.26l-.05-.08-.05-.07A5.6 5.6 0 0 0 27.6 11h-9.05a5.57 5.57 0 0 0-5.52 5.07c-.008.135-.02.281-.025.43q-.003.04-.005.08Zm2-6.85A3.564 3.564 0 0 1 18.55 13h9.05a3.52 3.52 0 0 1 2.84 1.44s.95 1.55 1.91 3.35c.95 1.8 1.9 3.85 1.9 4.86A4.334 4.334 0 0 1 29.93 27H18.55A3.56 3.56 0 0 1 15 23.43Z" fill="#1b5951"/><path d="M27.39 17.51 23.96 13h3.64a3.52 3.52 0 0 1 2.84 1.44s.95 1.55 1.91 3.35c.95 1.8 1.9 3.85 1.9 4.86A4.334 4.334 0 0 1 29.93 27h-6.01l-3.08-4.85Z" fill="#94e3d4"/><path d="M18.55 13h4.15l3.26 4.29-6.48 4.6L22.73 27h-4.18A3.56 3.56 0 0 1 15 23.43v-6.85A3.564 3.564 0 0 1 18.55 13" fill="#94e3d4"/></g></svg>