<svg xmlns="http://www.w3.org/2000/svg" viewBox="0 0 40 40" focusable="false" aria-hidden="true"><path fill="none" d="M0 0h40v40H0z"/><g data-name="Icon Tangerine"><path d="M30 4H10a1 1 0 0 0-1 1v8h22V5a1 1 0 0 0-1-1M15 8.941A2.46 2.46 0 0 1 13 11a2.46 2.46 0 0 1-2-2.059V6.735L13 6l2 .735ZM9 35a1 1 0 0 0 1 1h20a1 1 0 0 0 1-1v-8H9ZM9 26h22V14H9Zm4.5-10h8a.5.5 0 0 1 0 1h-8a.5.5 0 0 1 0-1m0 2h8a.5.5 0 0 1 0 1h-8a.5.5 0 0 1 0-1m0 2h8a.5.5 0 0 1 0 1h-8a.5.5 0 0 1 0-1" fill="#fae052"/><path fill="#fa9319" d="M9 26h22v1H9zM9 13h22v1H9zM13.5 19h8a.5.5 0 0 0 0-1h-8a.5.5 0 0 0 0 1M13.5 17h8a.5.5 0 0 0 0-1h-8a.5.5 0 0 0 0 1M13.5 21h8a.5.5 0 0 0 0-1h-8a.5.5 0 0 0 0 1"/><path d="M11 6.735V8.94A2.46 2.46 0 0 0 13 11a2.46 2.46 0 0 0 2-2.059V6.735L13 6Z" fill="#000d6e"/></g></svg>