<svg xmlns="http://www.w3.org/2000/svg" viewBox="0 0 40 40" focusable="false" aria-hidden="true"><path fill="none" d="M0 0h40v40H0z"/><g data-name="Icon Green"><path d="M5 8.999V32A2 2 0 0 0 7.003 34h25.994A2 2 0 0 0 35 32.001v-9.768a3 3 0 0 0-.628-1.834L25.186 8.55A4.01 4.01 0 0 0 22.017 7H7.003A2 2 0 0 0 5 8.999m2.065 14.01h3.79a1 1 0 1 1 0 1.998h-3.79Zm-.108-13.99h14.582a1.99 1.99 0 0 1 1.533.72l7.681 9.633a1 1 0 0 1-.77 1.639H6.956Z" fill="#1b5951"/><path d="M10.854 23.008a1 1 0 1 1 0 1.999H7.065v-1.999z" fill="#000d6e"/><path fill="#94e3d4" d="m17.423 13.436-4.788 3.387 2.665 4.188H6.957V9.019h7.091z"/><path d="M18.845 13.656 15.31 9.019h6.23a1.99 1.99 0 0 1 1.532.72l7.682 9.633a1 1 0 0 1-.771 1.639H16.491l-2.504-3.917Z" fill="#94e3d4"/></g></svg>