<svg xmlns="http://www.w3.org/2000/svg" viewBox="0 0 40 40" focusable="false" aria-hidden="true"><path fill="none" d="M0 0h40v40H0z"/><g data-name="Icon Purple"><path d="M23 33.214A1.786 1.786 0 0 0 24.786 35h3.428A1.786 1.786 0 0 0 30 33.214V30h-7Z" fill="#000d6e"/><rect x="28" y="10" width="4" height="3" rx="1" fill="#6c2273"/><path fill="#b8b2ff" d="M24 6H11v8h16.5z"/><path d="M28 15H11v14h19l.01-7.3a6.1 6.1 0 0 0-.468-2.342Zm-2.5 11h-.02a2.4 2.4 0 0 1-.95-.2h-.01a2.5 2.5 0 0 1 .98-4.8 2.487 2.487 0 0 1 2.5 2.5 2.5 2.5 0 0 1-2.5 2.5" fill="#6c2273"/><path d="m26.49 21.2-1.18 1.64 1.49 1.05L25.48 26h.02a2.503 2.503 0 0 0 .99-4.8" fill="#b8b2ff"/><path d="M24.02 23.05 25.5 21a2.5 2.5 0 0 0-.98 4.8h.01l1.03-1.66Z" fill="#b8b2ff"/></g></svg>