<svg xmlns="http://www.w3.org/2000/svg" viewBox="0 0 40 40" focusable="false" aria-hidden="true"><path fill="none" d="M-.457-.25h40v40h-40z"/><g data-name="Icon Green"><path d="m21.1 12 10.86 6.06a2.004 2.004 0 0 0-.92 3.35 1.96 1.96 0 0 0 1.42.59H34v4.01A1.997 1.997 0 0 1 32 28h-5.09a8 8 0 0 0 .07-1 8.01 8.01 0 0 0-7.99-8.01c-.23 0-.45.01-.67.03l-.97-1.44 1.74-1.23-1.67-2.33h-1.23l1.5 2.1-1.72 1.21 1.25 1.86A8.01 8.01 0 0 0 11 27a8 8 0 0 0 .07 1H7V12Z" fill="#1b5951"/><path fill="#94e3d4" d="M9.27 5h1.82L20 11h-1.81zM12 27a7 7 0 1 0 7-7 7 7 0 0 0-7 7m3 0a4 4 0 1 1 4 4 4 4 0 0 1-4-4"/><circle cx="19" cy="27" r="4" fill="#000d6e"/><path d="M31.04 21.41a2.004 2.004 0 0 1 .92-3.35l.04.03a.03.03 0 0 1 .02.01 4.04 4.04 0 0 1 1.89 2.94A4.8 4.8 0 0 1 34 22h-1.54a1.96 1.96 0 0 1-1.42-.59" fill="#94e3d4"/></g></svg>