<svg xmlns="http://www.w3.org/2000/svg" viewBox="0 0 40 40" focusable="false" aria-hidden="true"><path fill="none" d="M0 0h40v40H0z"/><g data-name="Icon Green"><path d="M32.997 7H17.983a4.01 4.01 0 0 0-3.169 1.551L5.628 20.4A3 3 0 0 0 5 22.233v9.768A2 2 0 0 0 7.003 34h25.994A2 2 0 0 0 35 32.001V9A2 2 0 0 0 32.997 7m-.062 18.007h-3.79a1 1 0 1 1 0-1.999h3.79Zm.108-3.997H10.018a1 1 0 0 1-.771-1.638l7.681-9.634a1.99 1.99 0 0 1 1.533-.72h14.582Z" fill="#1b5951"/><path d="M29.146 23.008a1 1 0 1 0 0 1.999h3.789v-1.999z" fill="#000d6e"/><path fill="#94e3d4" d="m22.577 13.436 4.788 3.387-2.665 4.188h8.343V9.019h-7.091z"/><path d="m21.155 13.656 3.536-4.637h-6.23a1.99 1.99 0 0 0-1.533.72l-7.681 9.633a1 1 0 0 0 .77 1.639H23.51l2.504-3.918Z" fill="#94e3d4"/></g></svg>