<svg xmlns="http://www.w3.org/2000/svg" viewBox="0 0 40 40" focusable="false" aria-hidden="true"><path fill="none" d="M0 0h40v40H0z"/><g data-name="Icon Green"><path d="M14.858 27H15V17h-4.914a2.023 2.023 0 0 0-2.036 2.434l.665 5.292A3.975 3.975 0 0 1 14.858 27M12.5 19a1.5 1.5 0 1 1-1.5 1.5 1.5 1.5 0 0 1 1.5-1.5M25.142 27a3.975 3.975 0 0 1 6.143-2.274l.664-5.292A2.023 2.023 0 0 0 29.915 17H25v10Zm2.358-8a1.5 1.5 0 1 1-1.5 1.5 1.5 1.5 0 0 1 1.5-1.5" fill="#1b5951"/><path d="m15 14.42.526-.283a9.38 9.38 0 0 1 8.948 0l.526.283V16h5l-.506-6.242A3 3 0 0 0 26.504 7H13.496a3 3 0 0 0-2.99 2.758L10 16h5zM32 29v-1a3 3 0 0 0-6 0v1Z" fill="#94e3d4"/><path d="M24 15.017a8.38 8.38 0 0 0-8 0V28h8Z" fill="#1b5951"/><path d="M14 29v-1a3 3 0 0 0-6 0v1Z" fill="#94e3d4"/><path d="M27 29v2a2 2 0 0 0 4 0v-2ZM9 29v2a2 2 0 0 0 4 0v-2Z" fill="#000d6e"/></g></svg>