<svg xmlns="http://www.w3.org/2000/svg" viewBox="0 0 40 40" focusable="false" aria-hidden="true"><path fill="none" d="M0 0h40v40H0z"/><g><path fill="none" d="M21.88 15.06h6.2v3.72h-6.2z"/><path d="M35.21 13.69c-.35 0-.67-.12-.93-.31-.26.2-.58.31-.93.31s-.67-.12-.93-.31c-.26.2-.58.31-.93.31s-.67-.12-.93-.31c-.26.2-.58.31-.93.31s-.67-.12-.93-.31c-.26.2-.58.31-.93.31s-.67-.12-.93-.31c-.26.2-.58.31-.93.31s-.67-.12-.93-.31c-.26.2-.58.31-.93.31s-.67-.12-.93-.31c-.26.2-.58.31-.93.31s-.67-.12-.93-.31c-.18.14-.39.23-.62.28V23h9.92v-8.06h4.96V23h1.24v-9.34c-.23-.05-.44-.14-.62-.28-.26.2-.58.31-.93.31m-13.33 1.37h6.2v3.72h-6.2zm6.51 4.96h-6.82c-.17 0-.31-.14-.31-.31s.14-.31.31-.31h6.82c.17 0 .31.14.31.31s-.14.31-.31.31" fill="#ffaca6"/><path d="M30.56 14.94V23h4.96v-8.06zm2.48 4.65c0 .17-.14.31-.31.31h-1.24c-.17 0-.31-.14-.31-.31s.14-.31.31-.31h1.24c.17 0 .31.14.31.31M28.39 19.4h-6.82c-.17 0-.31.14-.31.31s.14.31.31.31h6.82c.17 0 .31-.14.31-.31s-.14-.31-.31-.31" fill="#d9304c"/><path d="M32.73 19.28h-1.24c-.17 0-.31.14-.31.31s.14.31.31.31h1.24c.17 0 .31-.14.31-.31s-.14-.31-.31-.31" fill="#000d6e"/><path d="M19.4 6.88v5.27c0 .51.42.93.93.93s.93-.42.93-.93c0 .51.42.93.93.93s.93-.42.93-.93c0 .51.42.93.93.93s.93-.42.93-.93c0 .51.42.93.93.93s.93-.42.93-.93c0 .51.42.93.93.93s.93-.42.93-.93c0 .51.42.93.93.93s.93-.42.93-.93c0 .51.42.93.93.93s.93-.42.93-.93c0 .51.42.93.93.93s.93-.42.93-.93c0 .51.42.93.93.93s.93-.42.93-.93c0 .51.42.93.93.93s.93-.41.93-.93V6.88z" fill="#d9304c"/><path d="M18.76 23.13s-.05.02-.08.03c.02-.01.05-.02.08-.03M18.41 23.26" fill="none"/><path d="M20.66 16.8s.06.01.09.01c.31 0 .57-.37.57-.82s-.25-.81-.56-.82v-.4c0-.15-.02-.36-.03-.6-.61.34-1.7.17-2.69-.5-.16-.11-.32-.23-.46-.35-.02.02-.03.04-.05.05-.68.68-1.59.96-2.22.88v.88c-.32 0-.57.37-.57.82 0 .12.02.23.05.33.08.31.29.53.53.53.04 0 .07 0 .1-.01.2.95.67 1.74 1.32 2.2l-.06.86s-.03.26-.05.72v.44c0 .39 0 .86.04 1.4 0 .07 0 .15.01.22.31.4.8.66 1.35.66.13 0 .27-.02.39-.05.1-.02.19-.06.28-.1.02-.01.05-.02.08-.03.22-.11.42-.27.58-.46.04-.83.07-1.56.07-2.06l-.03-.56c0-.11-.01-.17-.01-.18l-.05-.84c.66-.46 1.16-1.26 1.36-2.22Z" fill="#ffaca6"/><path d="m16.67 19.87.06-.86c-.65-.46-1.13-1.25-1.32-2.2-.03 0-.07.01-.1.01-.24 0-.45-.22-.53-.53-.03-.1-.05-.21-.05-.33 0-.45.26-.82.57-.82v-.88c.64.09 1.55-.2 2.22-.88.02-.02.03-.04.05-.05.14.12.29.24.46.35.99.67 2.08.84 2.69.5.02.24.03.45.03.6v.4c.31 0 .56.37.56.82s-.26.82-.57.82c-.03 0-.06 0-.09-.01-.2.96-.7 1.76-1.36 2.22l.05.84.58.3.8.4c1.47-.91 1.14-2.81 1.14-5.02 0-3.08-.85-5.44-3.93-5.36-2.6.07-3.84 2.27-3.84 5.36 0 2.15 0 4.02 1.32 4.95l.19-.09 1.06-.54Z" fill="#000d6e"/><path d="M19.3 23.41c-.12 1.18-.23 3.36-.31 5.08.1-1.51.23-3.43.31-5.08" fill="none"/><path d="M24.15 22.9c0-1.41-2.31-1.81-3.26-2.26 0 0-.06-.03-.14-.08l-.8-.4-.58-.29s0 .08.01.18l.03.56c0 .5-.03 1.23-.07 2.06-.01.24-.03.48-.04.74-.09 1.65-.22 3.57-.31 5.08-.06 1.01-.11 1.84-.11 2.26h5.91l-.63-7.85Z" fill="#d9304c"/><path d="M10.78 21.68c0-.1.01-.2.02-.3v-.16.16c0 .1-.01.2-.02.3M10.83 19.66v-.24c0-.14-.01-.25-.02-.34 0 .1.01.21.02.34v.25ZM8.31 21.93l-.05-.05c.02.01.03.03.05.05" fill="none"/><path d="M8.03 21.68c.07.08.15.14.23.2.02.01.03.03.05.05.31.22.69.35 1.1.35.55 0 1.04-.23 1.38-.6 0-.1.01-.2.02-.3v-.16c.03-.63.03-1.16.03-1.56v-.25c0-.14-.01-.25-.02-.34-.01-.2-.03-.31-.03-.31v-.86c.71-.47 1.25-1.29 1.46-2.28.03 0 .05.01.08.01.34 0 .61-.38.61-.84 0-.38-.19-.7-.44-.8-.05.09-.11.19-.17.28 0 0-.18-1.35-.26-1.41-.59-.42-1.17-1.11-1.44-1.73-.76.84-1.77 1.58-3.14 1.58-.21 0-.39-.03-.55-.09l-.3 1.92c-.13-.18-.22-.37-.3-.57-.25.1-.44.42-.44.81 0 .46.27.84.61.84.04 0 .08 0 .12-.02.21.98.73 1.79 1.42 2.26v.88s-.03.23-.04.65c-.03.5 0 1.56.04 2.27Z" fill="#ffaca6"/><path d="M6.92 12.62c.16.05.35.09.55.09 1.37 0 2.39-.74 3.14-1.58.27.62.85 1.31 1.44 1.73.08.06.26 1.41.26 1.41.07-.09.12-.18.17-.28.71-1.36-.02-3.58-1.24-3.44-.19-.24-.68-.65-1.32-.73-.34-.07-.76-.1-1.22-.02-.67.11-1.24.34-1.57.61-.25-.06-.53-.19-.71-.46-.14.42-.08.83.18.99-.33.23-.71.06-.94-.13 0 0 .06.7.47 1.25-.07.38-.12 1.19.17 1.94.08.2.17.39.3.57l.3-1.92Z" fill="#000d6e"/><path d="M16.73 23.3c-.02-.21-.04-.41-.05-.6v-.06c0-.08-.01-.15-.02-.23-.03-.54-.04-1.01-.03-1.39v-.45c.02-.46.05-.72.05-.72l-1.06.54-.19.1-.59.3-4.05-2.04.03.31c0 .1.01.21.02.34v.24c0 .4 0 .93-.03 1.56v.16c0 .1-.01.2-.02.3-.34.37-.83.6-1.38.6-.41 0-.79-.13-1.1-.35-.02-.01-.03-.03-.05-.05-.08-.06-.16-.13-.23-.2-.05-.71-.08-1.77-.04-2.27.01-.42.04-.65.04-.65l-.06.03-4.34 2.19c-.53.27-.88.78-.95 1.36L2 30.73h15.16s-.22-5.36-.43-7.44Z" fill="#d9304c"/><path d="M10.75 26.86h-.01v-.13l.05-.76c-.47-.3-.85-.76-1.06-1.32-.06.03-.12.06-.19.06-.28 0-.5-.32-.5-.72s.22-.72.5-.72c0-.38 0-.97-.01-1.26.4-.19 1.08-.59 2.01-.09.96.5 2.4 1.2 2.74 1.37.02 0 .03-.01.05-.01.28 0 .5.32.5.72s-.22.72-.5.72c-.06 0-.12-.02-.18-.05-.21.58-.6 1.05-1.09 1.34l.05.73v.13c.45.09 1.02.22 1.48.34.02 0 .05 0 .07.02.25.07.49.15.71.25v-4.07c0-.96-.3-1.83-.77-2.48-.43-.8-1.45-1.49-2.64-1.49-.91 0-1.71.4-2.24.95-.76.64-1.26 1.75-1.26 3.01v4.08c.25-.11.53-.2.82-.28.46-.12 1.02-.25 1.46-.34Z" fill="#000d6e"/><path d="M9.29 27.2v3.54H7.57v-2.08c0-.61.38-.95.9-1.18.25-.12.53-.2.82-.29ZM16.3 28.67v2.08h-1.64v-3.52c.25.08.49.16.72.25.53.23.92.57.92 1.19" fill="#ffaca6"/><path d="M14.67 27.22v3.52H9.3V27.2c.46-.12 1.02-.25 1.46-.34.29.32.71.51 1.17.51s.89-.19 1.19-.51c.45.09 1.02.22 1.48.34.02.01.05.01.07.02" fill="#d9304c"/><path d="m13.13 26.73-.05-.73c.49-.29.88-.76 1.09-1.34.06.03.11.05.18.05.28 0 .5-.32.5-.72s-.22-.72-.5-.72c-.02 0-.03.01-.05.01-.34-.17-1.78-.86-2.74-1.37-.94-.49-1.61-.1-2.01.09 0 .29 0 .88.01 1.26-.28 0-.5.32-.5.72s.22.72.5.72c.07 0 .13-.02.19-.06.21.57.59 1.03 1.06 1.32l-.05.76v.13h.01c.28.32.71.51 1.18.51s.89-.19 1.19-.51v-.13Z" fill="#ffaca6"/></g></svg>