<svg xmlns="http://www.w3.org/2000/svg" viewBox="0 0 40 40" focusable="false" aria-hidden="true"><path fill="none" d="M0 0h40v40H0z"/><g data-name="Icon Tangerine"><rect x="23.0286" y="20.9929" width="10" height="2" rx="0.8771" fill="#000d6e"/><rect x="23.0286" y="18.0554" width="10" height="2" rx="0.8771" fill="#000d6e"/><path d="M23.906 15.007h8.246a.877.877 0 0 1 .877.877v.246a.877.877 0 0 1-.877.877h-8.246a.877.877 0 0 1-.877-.877v-.246a.877.877 0 0 1 .877-.877" fill="#000d6e"/><path d="M6.938 23.008H5.027v7.985h1.911a1.083 1.083 0 0 0 1.083-1.083v-5.82a1.083 1.083 0 0 0-1.083-1.082" fill="#fae052"/><path d="M34.947 26.225a1.5 1.5 0 0 0-1.471-1.22l-.299.031-7.188 1.725v.24a2.057 2.057 0 0 1-1.996 1.997h-8.984a.5.5 0 1 1 0-.998h8.984A1.066 1.066 0 0 0 24.99 27v-.998q0-.032-.002-.065l-.001-.01a.95.95 0 0 0-.43-.716l-.008-.006-.075-.047-.015-.009-.068-.036-.007-.003-.035-.017-.035-.015-.006-.002-.027-.01-.013-.005-.029-.01-.011-.004-.026-.008-.013-.004-.007-.002-.066-.016h-.004a.6.6 0 0 0-.12-.014h-5.016a3.1 3.1 0 0 1-1.566-.725l-.093-.063-.022-.016-.083-.056-.019-.013q-.103-.07-.211-.14l-.01-.006-.105-.068-.006-.003q-.115-.073-.236-.145a5.6 5.6 0 0 0-1.236-.558 7.4 7.4 0 0 0-1.69-.203h-3.677a1.004 1.004 0 0 0-1.003 1.004v3.987h.005a2 2 0 0 0-.005.112v1.884s0 .642.997.998 6.469 2.612 6.602 2.667a4.5 4.5 0 0 0 3.2.072c.015-.005 14.202-5.836 14.202-5.836a1.5 1.5 0 0 0 .926-1.671" fill="#fa9319"/></g></svg>