<svg xmlns="http://www.w3.org/2000/svg" viewBox="0 0 40 40" focusable="false" aria-hidden="true"><path fill="none" d="M0 0h40v40H0z"/><g data-name="Icon Tangerine"><path d="M33.5 6.99h-27a.5.5 0 0 0 0 1h27a.5.5 0 0 0 0-1" fill="#000d6e"/><path d="M6 19.524a4.5 4.5 0 0 0 9 0v-.5H6ZM25.038 19.024v.5a4.5 4.5 0 0 0 9 0v-.5Z" fill="#fa9319"/><path fill="#fae052" d="M17.96 8.968h4v22h-4zM29 31.995H11a2 2 0 0 0-2 2v1.957h22v-1.957a2 2 0 0 0-2-2M13.288 17.988h1.088l-3.873-9.051-3.883 9.051h1.088l2.794-6.511zM29.541 8.937l-3.883 9.051h1.088l2.794-6.511 2.786 6.511h1.088z"/></g></svg>