<svg xmlns="http://www.w3.org/2000/svg" viewBox="0 0 40 40" focusable="false" aria-hidden="true"><path fill="none" d="M0 0h40v40H0z"/><g data-name="Icon Purple"><path fill="none" d="M11.96 24.018h2v2h-2zM17.959 24.018h2v2h-2zM6 24.018h2v2H6z"/><path d="M32.356 20.814a7.02 7.02 0 0 0-4.712 0L25 21.758v5.239c0 2.525 3.164 5 5 5.003 1.837-.004 5-2.478 5-5.003v-5.24Zm.569 5.368-.744.744L30 24.746 28.746 26 30 27.254l.778-.777.926.926-1.522 1.521a.26.26 0 0 1-.364 0l-2.742-2.742a.26.26 0 0 1 0-.364l2.742-2.742a.26.26 0 0 1 .364 0l2.742 2.742a.26.26 0 0 1 0 .364" fill="#b8b2ff"/><path d="M24 21.758v-.705l.664-.237 2.108-.752L26.5 7h-4L22 19l-6-4v4l-6-4v4l-6-4v16h21.954A5.78 5.78 0 0 1 24 26.997Zm-16 4.26H6v-2h2Zm5.96 0h-2v-2h2Zm5.998 0h-2v-2h2Z" fill="#6c2273"/><path d="m32.925 25.818-2.742-2.742a.26.26 0 0 0-.365 0l-2.742 2.742a.26.26 0 0 0 0 .364l2.742 2.742a.26.26 0 0 0 .365 0l1.521-1.522-.926-.926-.778.778L28.746 26 30 24.746l2.18 2.18.744-.744a.26.26 0 0 0 0-.364Z" fill="#000d6e"/></g></svg>