<svg xmlns="http://www.w3.org/2000/svg" viewBox="0 0 40 40" focusable="false" aria-hidden="true"><path fill="none" d="M0 0h40v40H0z"/><g data-name="Icon Red"><path fill="none" d="m12.938 3.796-.135 4.635 2.139-2.329zM15.05 3.02h-1.462L15.1 4.759zM15.37 14.18l-.068-2.377-2.4.039zM15.226 9.164l-.052-1.837-1.662 1.81zM15.59 21.56l-.15-5.09-2.65 2.52zM12.46 26.48l3.35 2.86-.16-5.65zM12.09 32.98l3.22-2.75-3.07-2.62zM12.67 13l-.14 4.86 2.63-2.51zM12.47 20.05l-.16 5.24 3-2.63z"/><path d="M30.972 17.296v-1.3h-1v1.954h.008v.071a1 1 0 1 1-1 1h-1a2 2 0 1 0 2.992-1.725Z" fill="#000d6e"/><path d="M33.008 9.449 16.226 9.18l-.206-7.16h-4.03l-.206 7.09-7.771-.125c-.56-.01-1.021.333-1.021.758v1.483c0 .425.46.767 1.021.758l7.691-.123-.644 22.169h1.34l3.47-2.96.08 2.96h.99l-.64-22.243 13.684-.22v3.41h1v-3.425l2.024-.033a.9.9 0 0 0 .98-.758v-.554a.9.9 0 0 0-.98-.758M15.59 21.56l-2.8-2.57 2.65-2.52Zm-.22-7.38-2.468-2.338 2.4-.039Zm-.144-5.016-1.714-.027 1.661-1.81ZM15.05 3.02l.05 1.739-1.512-1.739Zm-2.112.776 2.004 2.306-2.139 2.329ZM12.67 13l2.49 2.35-2.63 2.51Zm-.2 7.05 2.84 2.61-3 2.63Zm-.38 12.93.15-5.37 3.07 2.62Zm.37-6.5 3.19-2.79.16 5.65Z" fill="#d9304c"/><path d="M21.004 35.033h-14a1 1 0 0 0-1 1v2h16v-2a1 1 0 0 0-1-1" fill="#ffaca6"/></g></svg>