<svg data-name="Calque 1" xmlns="http://www.w3.org/2000/svg" viewBox="0 0 40 40" focusable="false" aria-hidden="true"><path d="M0 0h40v40H0z" fill="none"/><path d="M19.33 20.01c-.24 0-.48-.09-.66-.25v3.61a1.25 1.25 0 0 0 2.5 0v-3.61c-.18.16-.42.25-.66.25z" fill="#fa9319"/><path d="M18.67 19.75c.18.16.42.25.66.25h1.18c.51 0 .94-.39 1-.91l1.41-14.85c0-1.24-1.35-2.25-3-2.25s-3 1.01-3 2.25l1.41 14.85c.02.25.14.49.33.65Z" fill="#fae052"/><path d="M37.1 36.03h-8.18c-.55.05-.96.54-.9 1.09.05.47.41.84.88.9h8.2c.55-.06.96-.55.9-1.1-.05-.48-.42-.85-.9-.9Zm0-3h-8.18a1.004 1.004 0 0 0 0 2h8.18c.55-.06.96-.55.9-1.1-.05-.48-.42-.85-.9-.9m0-3h-8.18a1.004 1.004 0 0 0 0 2h8.18c.55-.06.96-.55.9-1.1-.05-.48-.42-.85-.9-.9" fill="#000d6e"/><path d="m30.01 18.79.26-.57c.23-.5.01-1.1-.49-1.33a1 1 0 0 0-.42-.09h-6.63l-.23 2.4c-.03.33-.15.65-.33.93v3.24c0 1.24-1.01 2.25-2.25 2.25s-2.25-1.01-2.25-2.25v-3.24c-.19-.28-.3-.6-.33-.93l-.23-2.4h-6.63a1.003 1.003 0 0 0-.91 1.42l4.85 10.59 2.05 4.46 1.64 3.58c.46 1 1.65 1.45 2.65.99.44-.2.79-.55.99-.99l1.64-3.58 2.04-4.46 1.7-3.7c-.48-2.51.68-5.04 2.89-6.31Z" fill="#fae052"/><path d="M33 19c-2.76 0-5 2.24-5 5s2.24 5 5 5 5-2.24 5-5-2.24-5-5-5m.24 4.24-.06.61h-1.32v.3h1.28l-.06.6h-1.02c.24.36.64.57 1.07.55.43.03.83-.19 1.03-.57l.82.55c-.41.61-1.1.96-1.84.93a2.18 2.18 0 0 1-2.13-1.46h-.56l.06-.6h.39v-.3h-.34l.06-.61h.4c.31-.9 1.18-1.5 2.14-1.46.73-.03 1.42.32 1.83.93l-.82.55c-.2-.38-.61-.6-1.04-.57-.43-.02-.83.2-1.06.55h1.19Z" fill="#000d6e"/></svg>