<svg xmlns="http://www.w3.org/2000/svg" viewBox="0 0 40 40" focusable="false" aria-hidden="true"><path fill="none" d="M0 0h40v40H0z"/><g data-name="Icon Green"><path d="M19.328 20.006a1 1 0 0 1-.659-.252v3.61a1.25 1.25 0 0 0 2.5 0v-3.61a1 1 0 0 1-.658.252z" fill="#1b5951"/><path d="M18.67 19.754a1 1 0 0 0 .658.252h1.183a1.01 1.01 0 0 0 .995-.905L22.92 4.25c0-1.237-1.35-2.25-3-2.25s-3 1.013-3 2.25l1.414 14.85a1 1 0 0 0 .335.653" fill="#94e3d4"/><path d="M37.099 36.029h-8.182a1.003 1.003 0 0 0-.025 1.994c.009 0 .016.006.025.006H37.1a1.005 1.005 0 0 0 0-2M37.099 33.028h-8.182a1.005 1.005 0 0 0 0 2H37.1a1.005 1.005 0 0 0 0-2M37.099 30.027h-8.182a1.005 1.005 0 0 0 0 2H37.1a1.005 1.005 0 0 0 0-2M28.008 23.978a5 5 0 1 0 5-5 5 5 0 0 0-5 5m6.94-1.393h1.664v.465h-1.127v.555h.993v.464h-.993v1.02h-.537Zm-2.632 0h.537v.987h.954v-.987h.536v2.503h-.536V24.05h-.954v1.037h-.537Zm-1.601-.047a1.18 1.18 0 0 1 1.173.817l-.514.21a.65.65 0 0 0-.674-.52.793.793 0 0 0 .004 1.582.645.645 0 0 0 .67-.519l.515.21a1.176 1.176 0 0 1-1.178.817 1.298 1.298 0 0 1 .004-2.597" fill="#000d6e"/><path d="m30.01 18.786.262-.572a1 1 0 0 0-.909-1.417H22.73l-.228 2.399a2 2 0 0 1-.332.927v3.24a2.25 2.25 0 1 1-4.5 0v-3.24a2 2 0 0 1-.332-.927l-.228-2.399h-6.633a1 1 0 0 0-.91 1.417L14.418 28.8l2.045 4.46 1.638 3.575a2 2 0 0 0 3.637 0l1.638-3.575 2.044-4.46 1.696-3.7a5.97 5.97 0 0 1 2.894-6.314" fill="#94e3d4"/></g></svg>