<svg xmlns="http://www.w3.org/2000/svg" viewBox="0 0 40 40" focusable="false" aria-hidden="true"><path fill="none" d="M0 0h40v40H0z"/><g><path d="M31.295 20.063 31.023 7l.022 1.03H26.98L27.023 7l-.5 12-6-4v4l-6-4v4l-6-4v16h22.954zm-18.772 5.955h-2v-2h2zm5.961 0h-2v-2h2zm5.998 0h-2v-2h2z" fill="#b8b2ff"/><path fill="none" d="M16.484 24.018h2v2h-2zM22.482 24.018h2v2h-2zM10.523 24.018h2v2h-2z"/><path fill="none" d="M10.523 24.018h2v2h-2zM16.484 24.018h2v2h-2zM22.482 24.018h2v2h-2z"/><path d="M15.22 22.035a.054.054 0 0 0-.075-.063c-.857.452-.592 1.582-1.024 1.356-.518-.262.665-1.91-.75-3.115a.052.052 0 0 0-.084.054c.19.665-.213 1.657-.889 2.408-.99 1.095-1.138 2.619-.373 3.37h.727l-.002-.004c-.191-.295-.249-.707-.193-1.19.118-.518.374-.996.739-1.383a.09.09 0 0 1 .15.086c-.222.977.153 1.239.379 1.357a.45.45 0 0 0 .613-.308.088.088 0 0 1 .158 0c.198.423.37.983.206 1.438v.004h.739l.11-.124c1.056-1.182-.845-2.891-.431-3.886M25.271 16.047a.054.054 0 0 0-.075-.063c-.856.452-.592 1.582-1.024 1.356-.517-.262.665-1.91-.75-3.115a.052.052 0 0 0-.084.054c.19.665-.212 1.657-.888 2.408-.99 1.095-1.139 2.619-.374 3.37h.728l-.003-.004c-.19-.296-.249-.707-.193-1.19.119-.518.374-.996.74-1.383a.09.09 0 0 1 .148.086c-.221.977.154 1.239.38 1.357a.45.45 0 0 0 .613-.308.088.088 0 0 1 .158 0c.198.423.37.983.207 1.438l-.002.004h.74l.11-.124c1.057-1.182-.845-2.891-.43-3.886" fill="#6c2273"/><path fill="none" d="M16.484 24.018h2v2h-2zM10.523 24.018h2v2h-2zM22.482 24.018h2v2h-2z"/><path fill="#000d6e" d="M31.045 8.03 31.023 7h-4l-.043 1.03z"/></g></svg>