<svg xmlns="http://www.w3.org/2000/svg" viewBox="0 0 40 40" focusable="false" aria-hidden="true"><path fill="none" d="M0 0h40v40H0z"/><g><path d="M25.01 9.995c0 1.104.894 1.998 1.997 1.998H32L25.01 5z" fill="#d9304c"/><path d="M12.523 11.01h7a.5.5 0 1 0 0-1h-7a.5.5 0 1 0 0 1M24.494 15.025H12.523a.5.5 0 1 0 0 1h11.971a.5.5 0 1 0 0-1M24.494 19.016H12.523a.5.5 0 1 0 0 1h11.971a.5.5 0 1 0 0-1" fill="#000d6e"/><path d="M12.523 11.01h7a.5.5 0 1 0 0-1h-7a.5.5 0 1 0 0 1M24.494 19.016H12.523a.5.5 0 1 0 0 1h11.971a.5.5 0 1 0 0-1M24.494 15.025H12.523a.5.5 0 1 0 0 1h11.971a.5.5 0 1 0 0-1" fill="none"/><path d="M27.007 11.993a2 2 0 0 1-1.997-1.998V5.028H8V35h23.967V11.993zM12.523 10.01h7a.5.5 0 1 1 0 1h-7a.5.5 0 1 1 0-1m7.839 19.998h-2.057c-.647 0-.907-.65-1.08-1.08a6 6 0 0 0-.101-.243 4 4 0 0 0-.328.436c-.298.433-.635.925-1.183.857-.631-.08-.818-.79-.999-1.48-.066-.25-.183-.698-.29-.848-.132.074-.576.429-1.44 2.106a.465.465 0 1 1-.826-.425c1.04-2.02 1.759-2.775 2.481-2.606.607.142.794.851.974 1.538.057.216.144.548.227.723.092-.103.21-.275.29-.39.294-.43.66-.964 1.24-.914.474.042.665.518.818.9.06.15.168.42.246.497h2.028a.465.465 0 1 1 0 .929m4.132-9.992H12.523a.5.5 0 1 1 0-1h11.971a.5.5 0 1 1 0 1m0-3.99H12.523a.5.5 0 1 1 0-1h11.971a.5.5 0 1 1 0 1" fill="#ffaca6"/><path d="M20.362 29.079h-2.028c-.078-.077-.186-.347-.246-.497-.153-.382-.344-.858-.818-.9-.58-.05-.946.484-1.24.913-.08.116-.198.288-.29.39-.083-.174-.17-.506-.227-.722-.18-.687-.367-1.396-.974-1.538-.723-.169-1.44.586-2.481 2.606a.464.464 0 1 0 .825.425c.865-1.677 1.309-2.032 1.441-2.106.107.15.224.598.29.849.181.688.368 1.4.999 1.479.548.068.885-.424 1.183-.857a4 4 0 0 1 .328-.436c.035.077.072.17.101.243.173.43.433 1.08 1.08 1.08h2.057a.465.465 0 1 0 0-.93" fill="#000d6e"/></g></svg>