<svg version="1.1" xmlns="http://www.w3.org/2000/svg" x="0px" y="0px" viewBox="0 0 40 40" xml:space="preserve" focusable="false" aria-hidden="true" enable-background="new 0 0 40 40"><path fill="none" d="M0 0h40v40H0z"/><g><path d="M35 16v-1a6 6 0 0 0-6-6h-8a6 6 0 0 0-6 6v1a6 6 0 0 0 6 6h6.769l4.778 2.389c.917.458 1.848-.596 1.279-1.449l-1.363-2.045A5.99 5.99 0 0 0 35 16" fill="#D9304C"/><path d="M19 15.5h-8a6 6 0 0 0-6 6v1a5.99 5.99 0 0 0 2.537 4.895L6.174 29.44c-.569.853.362 1.908 1.279 1.449l4.778-2.389H19a6 6 0 0 0 6-6v-1a6 6 0 0 0-6-6" fill="#FFACA6"/><circle cx="11" cy="22" r="1" fill="#000D6E"/><circle cx="15" cy="22" r="1" fill="#000D6E"/><circle cx="19" cy="22" r="1" fill="#000D6E"/></g></svg>