<svg xmlns="http://www.w3.org/2000/svg" viewBox="0 0 40 40" focusable="false" aria-hidden="true"><path fill="none" d="M0 0h40v40H0z"/><g><path d="m20.248 16.274-2.693-.45-2.244-3.187c-.281-.4-.739-.637-1.227-.637H11.5c-.263 0-.521.07-.749.2l-2.959 1.705c-.242.14-.44.345-.573.592l-2.106 3.935a1.5 1.5 0 1 0 2.645 1.416l1.904-3.557.63-.363-1.082 4.044a1.5 1.5 0 0 0 1.124 1.851l.342.076-1.868 7.23a1.5 1.5 0 1 0 2.904.75l1.894-7.328.727.162.895 3.86a1.5 1.5 0 0 0 2.922-.677l-1.108-4.78a1.5 1.5 0 0 0-1.136-1.126l-1.55-.344.597-2.307.51.724a1.5 1.5 0 0 0 .978.617l3.311.553a1.5 1.5 0 1 0 .496-2.959" fill="#fa9319"/><circle cx="13.21769522" cy="8.50000001" r="2.5" fill="#fa9319"/><path fill="#fae052" d="M30 22v3h-8v3h-8v3H6v3h32V22z"/><path d="m26.175 11.32-1.805-.863a.5.5 0 1 0-.43.903l.724.346-4.526 1.6a.5.5 0 1 0 .334.943l4.526-1.6-.347.725a.5.5 0 1 0 .903.431l.862-1.804a.5.5 0 0 0 .016-.39.5.5 0 0 0-.257-.292" fill="#000d6e"/></g></svg>