<svg xmlns="http://www.w3.org/2000/svg" viewBox="0 0 40 40" focusable="false" aria-hidden="true"><path fill="none" d="M0 0h40v40H0z"/><g data-name="Icon Red"><path d="M33.5 10h-27A2.5 2.5 0 0 0 4 12.5v15A2.5 2.5 0 0 0 6.5 30h27a2.5 2.5 0 0 0 2.5-2.5v-15a2.5 2.5 0 0 0-2.5-2.5M8.006 18.015h-.993a1 1 0 0 1-1-1v-.992h1.993Zm0-2.992H6.013v-.995h1.993Zm0-1.995H6.013v-.013a1 1 0 0 1 1-1h.993Zm4.007 3.987a1 1 0 0 1-1 1h-.026v-3.987h1.026Zm0-3.987h-1.526a.5.5 0 0 0-.5.5v4.487h-.98v-6h2.006a1 1 0 0 1 1 1Zm20.899 3.709-.867.867-2.543-2.542-1.462 1.462 1.463 1.463.906-.907 1.08 1.08-1.774 1.774a.3.3 0 0 1-.425 0l-3.197-3.197a.3.3 0 0 1 0-.425l3.197-3.198a.3.3 0 0 1 .425 0l3.197 3.197a.3.3 0 0 1 0 .426" fill="#ffaca6"/><path d="M11.013 12.016H9.006v6h.981v-4.488a.5.5 0 0 1 .5-.5h1.526v-.013a1 1 0 0 0-1-1M6.013 14.028h1.993v.995H6.013zM6.013 17.016a1 1 0 0 0 1 1h.993v-1.993H6.013Z" fill="#d9304c"/><path d="M10.987 18.016h.026a1 1 0 0 0 1-1v-2.988h-1.026ZM6.013 13.016v.012h1.993v-1.013h-.993a1 1 0 0 0-1 1" fill="#d9304c"/><path d="M29.715 13.114a.3.3 0 0 0-.425 0l-3.197 3.197a.3.3 0 0 0 0 .426l3.197 3.197a.3.3 0 0 0 .425 0l1.774-1.774-1.08-1.08-.907.907-1.462-1.463 1.463-1.462 2.542 2.542.867-.867a.3.3 0 0 0 0-.425Z" fill="#000d6e"/></g></svg>