<svg xmlns="http://www.w3.org/2000/svg" viewBox="0 0 40 40" focusable="false" aria-hidden="true"><path fill="none" d="M0 0h40v40H0z"/><g data-name="Icon Red"><path d="M33.5 10h-27A2.5 2.5 0 0 0 4 12.5v15A2.5 2.5 0 0 0 6.5 30h27a2.5 2.5 0 0 0 2.5-2.5v-15a2.5 2.5 0 0 0-2.5-2.5m-.588 6.737-.867.867-2.543-2.542-1.462 1.462 1.463 1.463.906-.907 1.08 1.08-1.774 1.774a.3.3 0 0 1-.425 0l-3.197-3.197a.3.3 0 0 1 0-.425l3.197-3.198a.3.3 0 0 1 .425 0l3.197 3.197a.3.3 0 0 1 0 .426" fill="#ffaca6"/><path d="M29.715 13.114a.3.3 0 0 0-.425 0l-3.197 3.197a.3.3 0 0 0 0 .426l3.197 3.197a.3.3 0 0 0 .425 0l1.774-1.774-1.08-1.08-.907.907-1.462-1.463 1.463-1.462 2.542 2.542.867-.867a.3.3 0 0 0 0-.425Z" fill="#000d6e"/></g></svg>