<svg xmlns="http://www.w3.org/2000/svg" viewBox="0 0 40 40" focusable="false" aria-hidden="true"><path fill="none" d="M0 0h40v40H0z"/><g data-name="Icon Red"><path d="M8.86 30.49a1.35 1.35 0 0 1-1.36-1.34V15.46h25v8.448a7.4 7.4 0 0 0-2.515-.438 7.5 7.5 0 0 0-3.727.999H10a1.5 1.5 0 0 0 0 3h13.355a7.4 7.4 0 0 0-.854 3.021ZM10 20.462a1.5 1.5 0 0 0 0 3h20a1.5 1.5 0 0 0 0-3Zm0-3.97a1.5 1.5 0 0 0 0 3h20a1.5 1.5 0 0 0 0-3Z" fill="#d9304c"/><path d="M32 15.96v2.015a2 2 0 0 0-2-1.984H10a2 2 0 0 0-.243 3.985A2 2 0 0 0 10 23.962h16.14l-.014.007H10a2 2 0 0 0 0 4h12.57a8 8 0 0 0-.525 2.021H8.86a.85.85 0 0 1-.86-.84V15.96zm0 2.047v3.939a2 2 0 0 0-1.756-1.97A2 2 0 0 0 32 18.006m0 3.971v1.253q-.191-.05-.384-.091A2 2 0 0 0 32 21.977m1-7.017H7v14.19a1.846 1.846 0 0 0 1.86 1.84h14.126v-.02a6.96 6.96 0 0 1 1.26-4H10a1 1 0 0 1 0-2h16.394A6.94 6.94 0 0 1 33 24.66zm-23 4.031a1 1 0 0 1 0-2h20a1 1 0 1 1 0 2Zm0 3.97a1 1 0 0 1-1-1 1 1 0 0 1 1-1h20a1 1 0 0 1 1 1 1 1 0 0 1-1 1Z" fill="#d9304c"/><path d="M9 25.97a1 1 0 0 0 1 1h14.245a7 7 0 0 1 2.148-2H10a1 1 0 0 0-1 1" fill="#ffaca6"/><rect x="9.0001" y="20.9615" width="22" height="2.0001" rx="1" fill="#ffaca6"/><path d="M7.5 13.46v-2.64a1.347 1.347 0 0 1 1.36-1.33h2.64v1.552a1.5 1.5 0 1 0 3 0V9.49h11v1.552a1.5 1.5 0 1 0 3 0V9.49h2.64a1.347 1.347 0 0 1 1.36 1.33v2.64Z" fill="#d9304c"/><path d="M31.14 9.99a.846.846 0 0 1 .86.83v2.14h-4.433A2 2 0 0 0 29 11.042V9.99zm-6.14 0v1.052a2 2 0 0 0 1.433 1.918H13.567A2 2 0 0 0 15 11.042V9.99zm-14 0v1.052a2 2 0 0 0 1.433 1.918H8v-2.14a.846.846 0 0 1 .86-.83zm20.14-1H28v2.052a1 1 0 0 1-2 0V8.99H14v2.052a1 1 0 0 1-2 0V8.99H8.86A1.844 1.844 0 0 0 7 10.82v3.14h26v-3.14a1.844 1.844 0 0 0-1.86-1.83" fill="#d9304c"/><path d="M10 18.991h20a1 1 0 1 0 0-2H10a1 1 0 0 0 0 2M13 12.042a1 1 0 0 0 1-1v-4a1 1 0 1 0-2 0v4a1 1 0 0 0 1 1M29.985 24.97a6 6 0 1 0 6 6 6 6 0 0 0-6-6m-3.069 6.684a.806.806 0 0 0 .838-.648l.643.262a1.47 1.47 0 0 1-1.471 1.021 1.623 1.623 0 0 1 .004-3.245 1.48 1.48 0 0 1 1.467 1.021l-.643.261a.816.816 0 0 0-.842-.648.991.991 0 0 0 .005 1.976m4.55.576h-.67v-1.296h-1.194v1.296h-.67v-3.128h.67v1.233h1.193v-1.233h.67Zm1.425-2.547v.693h1.242v.581h-1.242v1.274h-.671V29.1h2.08v.582Z" fill="#ffaca6"/><path d="M26.912 29.678a.816.816 0 0 1 .842.648l.643-.26a1.48 1.48 0 0 0-1.467-1.022 1.623 1.623 0 0 0-.004 3.245 1.47 1.47 0 0 0 1.471-1.021l-.643-.262a.806.806 0 0 1-.838.648.991.991 0 0 1-.004-1.976ZM30.795 30.335h-1.192v-1.233h-.671v3.128h.671v-1.296h1.192v1.296h.671v-3.128h-.671zM32.22 29.102v3.128h.671v-1.273h1.242v-.581h-1.242v-.693H34.3v-.581z" fill="#000d6e"/><path d="M27 12.042a1 1 0 0 0 1-1v-4a1 1 0 1 0-2 0v4a1 1 0 0 0 1 1" fill="#ffaca6"/></g></svg>