<svg data-name="Calque 1" xmlns="http://www.w3.org/2000/svg" viewBox="0 0 40 40" focusable="false" aria-hidden="true"><path d="M0 0h40v40H0z" fill="none"/><path d="M24.25 26.97H10c-.55 0-1-.45-1-1s.45-1 1-1h16.39a6.96 6.96 0 0 1 6.61-.31v-9.7H7v14.19c0 1.02.83 1.84 1.85 1.84h14.13v-.02c0-1.43.44-2.83 1.26-4ZM10 16.99h20c.55 0 1 .45 1 1s-.45 1-1 1H10c-.55 0-1-.45-1-1s.45-1 1-1m-1 4.97c0-.55.45-1 1-1h20c.55 0 1 .45 1 1s-.45 1-1 1H10c-.55 0-1-.45-1-1" fill="#6c2273"/><path d="M9 25.97c0 .55.45 1 1 1h14.24a7.1 7.1 0 0 1 2.15-2H10c-.55 0-1 .45-1 1M10 20.96h20c.55 0 1 .45 1 1s-.45 1-1 1H10c-.55 0-1-.45-1-1s.45-1 1-1" fill="#aba5cd"/><path d="M33 10.82c0-1.02-.84-1.84-1.86-1.83s-3.14 0-3.14 0v2.05c0 .55-.45 1-1 1s-1-.45-1-1V8.99H14v2.05c0 .55-.45 1-1 1s-1-.45-1-1V8.99H8.86c-1.02 0-1.85.81-1.86 1.83v3.14h26z" fill="#6c2273"/><path d="M10 18.99h20c.55 0 1-.45 1-1s-.45-1-1-1H10c-.55 0-1 .45-1 1s.45 1 1 1m3-6.95c.55 0 1-.45 1-1v-4c0-.55-.45-1-1-1s-1 .45-1 1v4c0 .55.45 1 1 1M27 12.04c.55 0 1-.45 1-1v-4c0-.55-.45-1-1-1s-1 .45-1 1v4c0 .55.45 1 1 1M29.99 24.97c-3.31 0-6 2.69-6 6s2.69 6 6 6 6-2.69 6-6-2.69-6-6-6m.29 5.09-.07.73h-1.59v.36h1.53l-.07.72h-1.23c.28.43.77.68 1.28.66.51.04 1-.23 1.24-.69l.98.66c-.49.73-1.32 1.16-2.2 1.12a2.61 2.61 0 0 1-2.56-1.76h-.67l.07-.72h.46v-.37h-.41l.07-.73h.48c.38-1.08 1.42-1.8 2.57-1.76.88-.03 1.71.39 2.2 1.11l-.98.66c-.24-.45-.73-.72-1.25-.68-.51-.02-1 .23-1.28.67h1.42Z" fill="#aba5cd"/></svg>