<svg xmlns="http://www.w3.org/2000/svg" viewBox="0 0 40 40" focusable="false" aria-hidden="true"><path fill="none" d="M0 0h40v40H0z"/><g data-name="Icon Red"><path d="M30.712 25.135a1.176 1.176 0 0 0 1.177-.818l-.515-.209a.645.645 0 0 1-.67.519.793.793 0 0 1-.003-1.581.65.65 0 0 1 .673.518l.515-.209a1.18 1.18 0 0 0-1.174-.817 1.298 1.298 0 0 0-.004 2.597M13.956 9.968h7.003v2.001h-7.003zM11.954 15.97H22.96v1.001H11.954z" fill="none"/><path d="M28.008 31.027a.96.96 0 0 1 .91-1h.072l-.009-1.61a5.98 5.98 0 0 1-.023-8.856v-2.59H25.96v.469a.53.53 0 0 1-.53.53h-1.94a.53.53 0 0 1-.53-.53v-.469H11.955v.469a.53.53 0 0 1-.53.53h-1.94a.53.53 0 0 1-.53-.53v-.469H5.957v15h22.71a.98.98 0 0 1-.659-.944m-10.55-1.543a5 5 0 1 1 5-5 5 5 0 0 1-5 5M9.484 13.97h1.94a.53.53 0 0 1 .53.53v1.469H22.96V14.5a.53.53 0 0 1 .53-.53h1.94a.53.53 0 0 1 .53.53v1.468h2.997v-3a1 1 0 0 0-1-1H22.96V9.163a1.206 1.206 0 0 0-1.214-1.195H13.17a1.206 1.206 0 0 0-1.214 1.195v2.806H6.957a1 1 0 0 0-1 1v3h2.997v-1.468a.53.53 0 0 1 .53-.53m4.472-4.002h7.003v2.001h-7.003Z" fill="#ffaca6"/><path d="M9.484 17.97h1.94a.53.53 0 0 0 .53-.53v-2.939a.53.53 0 0 0-.53-.53h-1.94a.53.53 0 0 0-.53.53v2.939a.53.53 0 0 0 .53.53M25.43 13.97h-1.94a.53.53 0 0 0-.53.53v2.94a.53.53 0 0 0 .531.53h1.939a.53.53 0 0 0 .53-.53v-2.939a.53.53 0 0 0-.53-.53M17.457 19.484a5 5 0 1 0 5 5 5 5 0 0 0-5-5m3.022 5.575a.413.413 0 0 1-.412.412H18.48v1.588a.413.413 0 0 1-.412.412H16.89a.413.413 0 0 1-.412-.412v-1.588H14.89a.413.413 0 0 1-.412-.412v-1.176a.413.413 0 0 1 .412-.412h1.588v-1.588a.413.413 0 0 1 .412-.412h1.177a.413.413 0 0 1 .411.412v1.588h1.589a.413.413 0 0 1 .411.412Z" fill="#d9304c"/><path d="M37.099 36.029h-8.182a1.003 1.003 0 0 0-.025 1.994c.01 0 .016.006.025.006H37.1a1.005 1.005 0 0 0 0-2M37.099 33.028h-8.182a1.005 1.005 0 0 0 0 2H37.1a1.005 1.005 0 0 0 0-2M37.099 30.027h-8.182a.96.96 0 0 0-.909 1 .98.98 0 0 0 .659.944.8.8 0 0 0 .25.056H37.1a1.005 1.005 0 0 0 0-2M33.008 28.978a5 5 0 1 0-5-5 5 5 0 0 0 5 5m1.94-6.393h1.664v.465h-1.127v.555h.994v.464h-.994v1.02h-.537Zm-2.632 0h.537v.987h.954v-.987h.537v2.503h-.537V24.05h-.954v1.037h-.537Zm-1.601-.047a1.18 1.18 0 0 1 1.174.817l-.515.21a.65.65 0 0 0-.673-.52.793.793 0 0 0 .003 1.582.645.645 0 0 0 .67-.519l.515.21a1.176 1.176 0 0 1-1.177.817 1.298 1.298 0 0 1 .003-2.597" fill="#000d6e"/></g></svg>