<svg data-name="Calque 1" xmlns="http://www.w3.org/2000/svg" viewBox="0 0 40 40" focusable="false" aria-hidden="true"><path d="M0 0h40v40H0z" fill="none"/><path d="M13.96 9.97h7v2h-7zm-2 6h11.01v1H11.95v-1Z" fill="none"/><path d="M28.01 31.03a.96.96 0 0 1 .91-1h.07v-1.61c-2.46-2.21-2.65-5.99-.44-8.45.13-.14.27-.28.41-.41v-2.59h-3v.47c0 .29-.24.53-.53.53h-1.94c-.29 0-.53-.24-.53-.53v-.47H11.95v.47c0 .29-.24.53-.53.53H9.48c-.29 0-.53-.24-.53-.53v-.47h-3v15h22.72a.98.98 0 0 1-.66-.94m-10.55-1.54c-2.76 0-5-2.24-5-5s2.24-5 5-5 5 2.24 5 5-2.24 5-5 5M9.49 13.98h1.94c.29 0 .53.24.53.53v1.47h11.01v-1.47c0-.29.24-.53.53-.53h1.94c.29 0 .53.24.53.53v1.47h3v-3c0-.55-.45-1-1-1h-5V9.17c0-.66-.55-1.2-1.21-1.2h-8.59c-.66 0-1.21.53-1.21 1.2v2.81h-5c-.55 0-1 .45-1 1v3h3v-1.47c0-.29.24-.53.53-.53m4.47-4h7v2h-7z" fill="#94e3d4"/><path d="M9.48 17.97h1.94c.29 0 .53-.24.53-.53V14.5c0-.29-.24-.53-.53-.53H9.48c-.29 0-.53.24-.53.53v2.94c0 .29.24.53.53.53m15.95-4h-1.94c-.29 0-.53.24-.53.53v2.94c0 .29.24.53.53.53h1.94c.29 0 .53-.24.53-.53V14.5c0-.29-.24-.53-.53-.53m-7.97 5.51c-2.76 0-5 2.24-5 5s2.24 5 5 5 5-2.24 5-5-2.24-5-5-5m3.02 5.57c0 .23-.18.41-.41.41h-1.59v1.59c0 .23-.18.41-.41.41h-1.18c-.23 0-.41-.18-.41-.41v-1.59h-1.59c-.23 0-.41-.18-.41-.41v-1.18c0-.23.18-.41.41-.41h1.59v-1.59c0-.23.18-.41.41-.41h1.18c.23 0 .41.19.41.41v1.59h1.59c.23 0 .41.19.41.41z" fill="#1b5951"/><path d="M37.1 36.03h-8.18c-.55.05-.96.54-.9 1.09.05.47.41.84.88.9h8.2a1.004 1.004 0 0 0 0-2Zm0-3h-8.18a1.004 1.004 0 0 0 0 2h8.18a1.004 1.004 0 0 0 0-2m0-3h-8.18a.96.96 0 0 0-.91 1c0 .42.26.81.66.94.08.03.16.05.25.06h8.18a1.004 1.004 0 0 0 0-2M33 19c-2.8 0-5 2.2-5 5s2.2 5 5 5 5-2.2 5-5-2.2-5-5-5m.2 4.2-.1.6h-1.3v.3h1.3l-.1.6h-1c.2.4.6.6 1.1.6.4 0 .8-.2 1-.6l.8.5c-.4.6-1.1 1-1.8.9-1 0-1.8-.6-2.1-1.5h-.6l.1-.6h.4v-.3h-.3l.1-.6h.3c.3-.9 1.2-1.5 2.1-1.5.7 0 1.4.3 1.8.9l-.8.5c-.2-.4-.6-.6-1-.6s-.8.2-1.1.6h1.2z" fill="#000d6e"/></svg>