<svg data-name="Ebene 1" xmlns="http://www.w3.org/2000/svg" viewBox="0 0 40 40" focusable="false" aria-hidden="true"><path fill="none" stroke-width="0px" d="M0 0h40v40H0z"/><g data-name="Icon Red"><path d="M6 2v12h7.952c0-1.103.897-2 2-2h2q.025.002.048.005V2zm6.24 7.056h-1.576v2.998H8.926V3.946h3.313c1.738 0 2.835 1.003 2.835 2.554 0 1.54-1.109 2.556-2.835 2.556" stroke-width="0px" fill="#000d6e"/><path d="M12.146 5.463h-1.482V7.54h1.482c.77 0 1.166-.431 1.166-1.039 0-.606-.396-1.037-1.166-1.037M24 36.214c0 .987-.8 1.786-1.786 1.786h-3.428C17.799 38 17 37.2 17 36.214V33h7z" stroke-width="0px" fill="#000d6e"/><path d="M34 7h-8.484a3.48 3.48 0 0 0-3.21 2.143l-.554 1.457-2.3 6.4H34z" stroke-width="0px" fill="#94e3d4"/><rect x="14.95207882" y="13" width="4.00000095" height="3" rx="1" ry="1" stroke-width="0px" fill="#1b5951"/></g><path stroke-width="0px" fill="#1b5951" d="M29.61 18 26.1 22.937l6.023 4.283-3.04 4.78H34V18z"/><path d="m30.745 27.493-6.101-4.286L28.36 18h-9.35l-1.542 4.358A6.1 6.1 0 0 0 17 24.7l.01 7.3h10.862zM22.49 28.8h-.01c-.3.13-.62.2-.95.2h-.02a2.5 2.5 0 0 1-2.5-2.5c0-1.03.63-1.92 1.51-2.3.31-.13.64-.2.99-.2a2.5 2.5 0 0 1 .98 4.8" stroke-width="0px" fill="#1b5951"/></svg>