<svg version="1.1" xmlns="http://www.w3.org/2000/svg" x="0px" y="0px" viewBox="0 0 40 40" xml:space="preserve" focusable="false" aria-hidden="true" enable-background="new 0 0 40 40"><path fill="none" d="M0 0h40v40H0z"/><g><path d="M18.523 32.722c-.08-.62-.46-1.16-1.02-1.44l-4.6-2.33-.07-.03h-.001l.005-.938h-.012c.738-.502 1.293-1.369 1.516-2.406a.5.5 0 0 0 .127.018c.359 0 .649-.4.649-.893 0-.406-.199-.745-.469-.853v-1.959c0-1.328-1.31-2.785-3.237-2.808-1.927.023-3.237 1.48-3.237 2.808v1.959c-.27.108-.469.447-.469.853 0 .493.291.893.649.893a.5.5 0 0 0 .127-.018c.223 1.037.777 1.904 1.516 2.406h-.011l.005.938H9.99l-.07.03-4.6 2.33c-.56.28-.94.82-1.02 1.44L4.01 35h14.803z" fill="#000D6E"/><path d="M25.04 35v-2.423c0-.785-.347-1.262-.979-1.589a4.4 4.4 0 0 0-.891-.331l-1.429-.332-.001.001c-.27.399-.711.66-1.23.66-.087 0-.169-.018-.251-.032-.049-.008-.099-.012-.146-.025a1.5 1.5 0 0 1-.27-.107q-.036-.017-.07-.037a1.5 1.5 0 0 1-.495-.461h-.002l-1.426.331q-.538.143-.927.352c-.608.326-.943.799-.943 1.568V35z" fill="#FAE052"/><path fill="none" d="m27.522 28.814-.001.008.001-.001zM30.236 27.937l.054.867h-.001l.001.008.001.009.001.001.001.009c.004.035.015.155.028.348.017.31.024.83-.012 1.556.04-.72.033-1.24.016-1.554 0-.09-.01-.17-.02-.23 0-.05 0-.09-.01-.12v-.024l-.004-.002zM31.728 23.976a.4.4 0 0 1 .179.054c-.02-.01-.037-.027-.058-.034-.007-.002-.013.005-.02.01-.034-.009-.065-.029-.101-.03l-.003-.408-.224-.109-.24-.116.464.225zM32.278 24.556l-.008-.036-.003-.008zM31.723 25.662c.243 0 .452-.212.541-.515-.089.303-.298.515-.541.515M30.713 27.521c.441-.477.768-1.128.921-1.872-.154.744-.48 1.395-.921 1.872M32.232 24.424c-.015-.04-.027-.082-.047-.118l-.019-.033q-.005-.007-.012-.015a1 1 0 0 1 .078.166M27.575 31.73l.002-.002-.002-.002zM27.644 32.396l.022.176zM27.546 31.359l-.021-.289zM30.153 32.525q-.065.564-.163 1.22c.071-.442.123-.844.163-1.22M30.285 31.19q.015-.03 0-.06l.007-.114c-.009.145-.021.302-.034.462.007-.093.023-.2.027-.288M25.561 24.568l-.008.035q-.02.103-.022.214c0-.098.017-.19.039-.278q-.005.015-.009.029M27.973 21.749l-.062-.015zM32.093 24.18c-.019-.023-.034-.05-.055-.07l-.018-.014c-.01-.008-.021-.011-.031-.018a.6.6 0 0 1 .104.102M27.482 29.505l.002-.071zM27.515 28.86a2 2 0 0 0-.018.257 9 9 0 0 1 .024-.295c-.001.009 0 .012-.006.038M26.118 25.662a.411.411 0 0 1 0 0"/><path d="m27.576 31.729-.002-.018v.016z" fill="#FFACA6"/><path d="M24.409 8.103c1.739 3.883 2.088 6.896 2.088 6.897h7.017c0-7.18-6.051-13-13.514-13 .001.001 2.79 2.486 4.409 6.103M15.591 8.103C17.21 4.486 19.998 2.002 20 2 12.536 2 6.486 7.82 6.486 15h7.017c-.001-.001.349-3.015 2.088-6.897" fill="#FAE052"/><path d="M15.591 8.103c-1.738 3.883-2.088 6.896-2.088 6.897h12.995c0-.001-.35-3.015-2.088-6.897C22.79 4.486 20.001 2.001 20 2c-.002.002-2.79 2.486-4.409 6.103" fill="#FA9319"/><path d="M23.004 28.091c.103 0 .194-.054.275-.128-.081.074-.172.128-.277.128zM19.843 30.823l-.07-.037q.034.02.07.037M23.352 26.792c-.091-.119-.209-.197-.342-.199l-.003-.337-.002-.001.004.34c.133.001.251.079.343.197M20.259 30.956c-.049-.008-.099-.012-.146-.025.047.013.097.016.146.025M18.024 28.09c-.11 0-.206-.059-.289-.141.083.082.178.142.287.142q.106-.002.198-.057l-.001-.003a.4.4 0 0 1-.195.059M18.02 25.639l-.002-.322-.003.003.003.319v.007l.006.71-.004-.712z" fill="none"/><path d="M21.74 30.278v-.085l-.015-.225-.038-.533q.178-.11.339-.25c.261-.224.477-.506.644-.827.054-.104.108-.208.151-.32a.4.4 0 0 0 .168.049q.006.002.011.003h.001c.104 0 .195-.054.277-.128a.84.84 0 0 0 .249-.623c0-.217-.07-.41-.176-.547-.092-.118-.21-.197-.342-.197l-.004-.34c-.674-.195-2.07-.613-2.896-1.048-.968-.508-1.667-.101-2.081.097l-.011.011.002.322v.005l.004.712v.232c-.146 0-.278.085-.373.221a.93.93 0 0 0-.153.53c0 .254.094.468.229.604l.007.006c.083.082.179.141.289.141a.4.4 0 0 0 .195-.06q.078.21.183.398.005.012.012.025l.029.043c.222.379.521.694.873.916l-.038.893-.001.021h.002a1.5 1.5 0 0 0 .835.605c.047.013.097.017.146.025.082.014.164.032.251.032.519 0 .96-.261 1.23-.66v-.048z" fill="#FAE052"/><path d="M20.5 22.669V16h-1v6.859c.299-.104.616-.177.955-.186q.023 0 .045-.004" fill="#FA9319"/><path d="M24.036 26.437a4.5 4.5 0 0 0-.24-1.205c-.014-.04-.032-.075-.047-.114-.056-.144-.111-.288-.18-.421a4 4 0 0 0-.304-.498q-.021-.037-.047-.073l-.053-.083c-.486-.757-1.475-1.378-2.627-1.378q-.019 0-.038.004l-.045.005a3.1 3.1 0 0 0-.955.186c-.049.017-.101.026-.149.046a3.2 3.2 0 0 0-1.125.743 3.3 3.3 0 0 0-.469.502l-.033.041q-.207.282-.367.617l-.022.044c-.089.19-.155.398-.216.609-.012.043-.032.08-.044.123l-.006.023c-.034.133-.044.278-.066.417s-.056.271-.065.415c-.007.107-.016.213-.016.322v4.25c.261-.14.567-.256.927-.352l1.426-.331h.001v-.021l.038-.893a2.7 2.7 0 0 1-.873-.916l-.029-.043q-.005-.012-.012-.025a3 3 0 0 1-.182-.395.4.4 0 0 1-.198.057c-.109 0-.204-.059-.287-.142l-.007-.006a.85.85 0 0 1-.229-.604c0-.206.058-.394.153-.53s.226-.221.373-.221v-.232l-.006-.71v-.007l-.003-.319.003-.003.011-.011c.414-.198 1.113-.605 2.081-.097.826.434 2.222.853 2.896 1.048l.002.001.003.337c.133.002.25.081.342.199a.9.9 0 0 1 .176.547c0 .266-.102.49-.249.623-.081.074-.172.128-.275.128l-.002-.001h-.001q-.006-.002-.011-.003a.4.4 0 0 1-.168-.049 3 3 0 0 1-.151.32 2.75 2.75 0 0 1-.983 1.077l.038.533.015.225v.12l.001.013 1.429.332q.513.136.891.331V26.76c-.001-.111-.018-.215-.026-.323" fill="#000D6E"/><path d="m27.522 28.804-.001.007q-.001.01-.004.023h.003l.001-.013.001-.001v-.006l.002-.014-.002.001zM25.553 24.603q-.02.103-.022.214c0-.098.017-.19.039-.278q-.005.014-.01.028zM27.524 28.79l.051-.827zM27.91 21.734l.063.015zM31.829 24.007c-.034-.009-.065-.03-.101-.03l-.003-.408-.224-.109-.24-.116.464.225.003.408a.4.4 0 0 1 .179.054c-.02-.01-.037-.027-.058-.034-.006-.003-.013.004-.02.01M33.488 30.42l.059.03-.231-.117zM32.186 24.306l-.019-.033q-.005-.007-.012-.015.045.077.078.167v-.001c-.016-.04-.028-.082-.047-.118M32.27 24.52l-.003-.008.011.045zM30.236 27.937l.054.867v.006-.006zM32.038 24.11l-.018-.014c-.01-.008-.021-.011-.031-.018a.6.6 0 0 1 .105.102c-.02-.023-.035-.051-.056-.07" fill="none"/><path d="m27.153 28.981.37-.19h.001l.052-.828-.001-.059c-.657-.476-1.15-1.287-1.349-2.256a.4.4 0 0 1-.106.015.44.44 0 0 1-.228-.066c-.211-.128-.359-.428-.359-.777v-.002q.001-.11.022-.214l.008-.035q.004-.014.01-.028c.081-.327.292-.564.548-.564h.002l-.012-1.596a2 2 0 0 1 .005-.148 2 2 0 0 1 .018-.192c.386-.186.984-.505 1.779-.306l.062.015c.157.044.319.102.491.192a110.798 110.798 0 0 0 1.842.933c.366.181.701.345.957.47l.24.116.224.109.003.408c.036 0 .067.021.101.03.007-.005.013-.012.02-.01.021.007.038.024.058.034a1 1 0 0 1 .081.047c.01.007.021.01.031.018l.018.014c.021.019.036.047.055.07.021.025.043.048.061.077q.007.007.012.015l.019.033c.019.036.031.078.047.118v.001c.011.03.026.055.034.087l.003.008.008.036a1.2 1.2 0 0 1-.014.591c-.089.303-.298.515-.541.515a.4.4 0 0 1-.089-.013 4.3 4.3 0 0 1-.353 1.036 3.6 3.6 0 0 1-.568.836 3 3 0 0 1-.477.416l.054.867v.015h.001v-.001l.003.001h.008l.001.003.052.018c.224.094.441.211.657.322l.365.188 1.939.983.231.117.101.05.01.005c.584-.395.865-.849.614-1.26-.418-.684-.591-2.105-.852-3.507-.217-1.703-.769-3.263-.975-4.047-.314-1.193-1.24-2.612-3.498-2.687-1.668 0-3.051 1.13-3.33 2.284-.41 1.123-1.448 4.585.146 7.364.165.287.366.53.591.74l.082-.041zM27.523 28.801v-.003z" fill="#000D6E"/><path fill="#94E3D4" d="m30.295 28.82.008.002-.001-.003z"/><path d="M30.251 31.469q.014-.137.026-.274l.003-.043.021-.428.006-.115c.014-.217.013-.438.021-.656a8 8 0 0 0-.004-.638c-.002-.038-.012-.278-.032-.495h-.001v-.009l-.001-.006h.001l-.054-.867q.256-.177.477-.416.332-.36.568-.836c.156-.315.276-.664.353-1.036.029.006.059.013.089.013.243 0 .452-.212.541-.515a1.16 1.16 0 0 0 .003-.636c-.009-.032-.023-.057-.034-.087a1 1 0 0 0-.078-.167q-.029-.041-.061-.077a.6.6 0 0 0-.105-.102.4.4 0 0 0-.081-.047.4.4 0 0 0-.179-.054l-.003-.408-.464-.225c-.256-.125-.591-.289-.957-.47a111 111 0 0 1-1.842-.933 2.5 2.5 0 0 0-.491-.192l-.063-.015c-.795-.198-1.393.12-1.779.306a3.274 3.274 0 0 0-.023.34l.012 1.596h-.002c-.255 0-.467.237-.548.564a1.1 1.1 0 0 0-.039.278v.002c0 .349.148.649.359.777a.43.43 0 0 0 .334.051c.199.97.693 1.781 1.349 2.256l.001.059-.052.828h.001l-.001.009v.002l.002-.001-.002.014v.006l-.001.001-.001.013h-.003l-.003.015a2 2 0 0 0-.018.257c-.001.029-.003.051-.003.083a10 10 0 0 0-.013.304c-.002.057-.002.122-.003.187q-.001.175.002.387l.002.111q.006.22.019.475l.003.066q.007.164.02.341l.021.289.028.339v.011c.324.376.797.619 1.332.619.53 0 .998-.24 1.322-.61l.002-.018a5 5 0 0 0 .023-.223" fill="#FAE052"/><path d="M30.146 32.515c-.04.376-.092.778-.163 1.22-.01.061-.015.113-.026.175-.022.179-.06.378-.092.568-.013.078-.052.298-.093.522h6.183l-.299-2.61c-.07-.59-.43-1.1-.96-1.36l-1.04-.525-.01-.005-.101-.05-.059-.03-.171-.087-1.939-.983-.365-.188c-.216-.111-.433-.228-.657-.322l-.052-.018-.008-.003-.003-.001v.001c.019.217.03.457.032.495q.015.319.004.638c-.007.218-.007.439-.021.656l-.006.115q-.01.215-.021.428l-.003.043c-.007.092-.019.183-.026.274l-.021.222-.002.018c-.011.107-.015.204-.03.321-.013.153-.033.323-.051.486M27.574 31.688l-.049-.628c-.008-.116-.017-.233-.02-.341l-.003-.066q-.013-.256-.019-.475l-.002-.111q-.004-.211-.002-.387c.001-.064.001-.13.003-.187l.002-.071q.004-.13.011-.233c0-.032.002-.055.003-.083.003-.115.01-.209.018-.257l.003-.015.004-.023.001-.007.001-.003v-.002l.001-.009h-.002l-.37.19-.719.369-.082.041-2.294 1.157v.44l.002.001c.632.327.979.803.979 1.589V35h2.981a58 58 0 0 1-.356-2.438l-.022-.176-.001-.01a32 32 0 0 1-.068-.655v-.033M23.38 35v-4.283l-.21-.06-1.43-.33c-.27.4-.71.66-1.23.66s-.96-.26-1.23-.66l-1.43.33-.21.06V35z" fill="#FA9319"/></g></svg>