<svg version="1.1" xmlns="http://www.w3.org/2000/svg" x="0px" y="0px" viewBox="0 0 40 40" xml:space="preserve" focusable="false" aria-hidden="true" enable-background="new 0 0 40 40"><path fill="none" d="M0 0h40v40H0z"/><g><path d="m26.023 16.574-.005.024.012-.044q-.004.01-.007.02M20.833 17.966c-.101 0-.191.058-.257.152.065-.094.156-.152.257-.152M20.83 17.312l-.002-.222.008-.008c.285-.136.766-.417 1.433-.067.569.299 1.53.587 1.994.721l.003.234c.091 0 .173.054.236.135-.063-.082-.144-.136-.235-.137l-.002-.232h-.001c-.464-.134-1.425-.422-1.995-.721-.666-.35-1.148-.069-1.433.067l-.008.008-.002.002.002.22v.005l.004.489-.003-.49zM24.136 18.964a.3.3 0 0 0 .089.026q-.048-.007-.089-.026M21.097 19.24l.004.009.006.01-.006-.009zM20.836 18.998a.26.26 0 0 0 .131-.038v-.002a.25.25 0 0 1-.131.04M25.664 24.934zM24.492 24.083l.047.014-.018-.005zM21.695 20.539l-.982.229zM24.262 19c.067 0 .124-.037.177-.083-.053.046-.111.083-.178.083zM20.831 19h.001c-.076 0-.141-.041-.199-.097.058.056.123.097.198.097M23.392 20.447l-.01-.155-.026-.367.026.367zM21.696 20.525l.026-.615zM23.392 20.54l.001-.001-.001-.009zM22.357 20.971l.015.003c.057.01.113.022.173.022-.06 0-.116-.012-.173-.022zM27.684 14.633l-.043-.01zM25.664 22.09c0-.541-.239-.869-.674-1.094.435.225.674.553.674 1.094M25.868 25.321l-.005-.011zM30.114 15.811l-.165-.08.319.155zM26.407 17.328a.3.3 0 0 1 0 0M29.29 19.626l-.004-.059.005.066zM29.962 18.032a2.98 2.98 0 0 1 0 0M27.373 19.503l.001-.005.002-.01-.001.001v.002l-.001.005-.003.016h.002zM29.182 22.055q-.001-.004-.001-.009c.012-.112.026-.23.036-.334.01-.081.013-.147.021-.221-.223.255-.545.42-.91.42-.369 0-.694-.168-.917-.427v.008l.001.012-.001-.001.047.453.015.121c.037.308.097 2.082.165 3.258l1.394-.334c.061-1.153.114-2.643.147-2.923zM30.393 16.204c-.014-.007-.026-.019-.04-.023q-.007 0-.014.007c-.023-.006-.045-.021-.07-.021l-.001-.145.001.145c.045 0 .085.018.124.037M29.279 19.483l-.037-.589zM30.617 16.475c-.01-.027-.019-.057-.032-.081l-.013-.023-.008-.01a.6.6 0 0 1 .053.114M30.648 16.566l-.005-.025-.002-.006zM30.521 16.307c-.013-.016-.024-.035-.038-.048l-.012-.01c-.007-.006-.015-.007-.021-.012a.4.4 0 0 1 .071.07" fill="none"/><path d="m15.618 22.237.031.007.031.009c.482.147.958.36 1.455.654q.133.079.268.164l.126.081.244.162.11.075.093.063c.392.268.798.546 1.026.55h.423V22.09c0-.53.23-.855.649-1.08.139-.075.315-.131.494-.187v-.013l.144-.041h.001l.982-.228.001-.015.026-.615a1.84 1.84 0 0 1-.601-.631l-.013-.02-.007-.01-.004-.009-.004-.008q-.004-.01-.009-.019a2 2 0 0 1-.117-.253.3.3 0 0 1-.131.038l-.004.001h-.001c-.075 0-.14-.041-.198-.098l-.005-.004a.59.59 0 0 1-.158-.416q0-.107.028-.201a.4.4 0 0 1 .077-.164c.065-.094.156-.152.257-.152v-.16l-.004-.489v-.005l-.002-.22.002-.002.008-.008c.285-.136.766-.417 1.433-.067.569.299 1.53.587 1.995.721h.001l.002.232c.091.002.172.055.235.137a.6.6 0 0 1 .121.376c0 .183-.07.337-.171.429-.003.003-.008.002-.012.005-.054.049-.112.086-.178.086h-.002l-.007-.002c-.009 0-.018-.006-.027-.008a.3.3 0 0 1-.089-.026 2 2 0 0 1-.104.22l-.01.016c-.109.207-.25.389-.417.536l-.016.017a2 2 0 0 1-.233.172l.026.367.01.155v.083l.001.009.984.228h.001l.144.041v.012c.169.053.336.106.469.174l-.001-.001v-.303l.001-.001v-2.608c0-.076-.012-.148-.017-.222a3.2 3.2 0 0 0-.165-.83q-.015-.04-.032-.079a2.455 2.455 0 0 0-.334-.633q-.015-.025-.032-.051l-.037-.057c-.334-.522-1.016-.949-1.809-.949l-.026.003-.031.003a2.2 2.2 0 0 0-.658.128c-.034.012-.07.018-.102.031a2.2 2.2 0 0 0-.775.511q-.175.151-.323.346l-.023.028a2.6 2.6 0 0 0-.253.425l-.015.03a3 3 0 0 0-.149.419c-.008.029-.022.055-.03.085l-.004.016c-.023.092-.03.191-.045.287s-.039.187-.045.286q-.01.11-.011.222v2.912l-2.768-1.402-.048-.021h-.001l.003-.646h-.008c.509-.346.89-.943 1.044-1.657a.3.3 0 0 0 .088.012c.247 0 .447-.275.447-.615 0-.28-.137-.513-.323-.588v-1.349c0-.915-.902-1.918-2.229-1.934-1.327.016-2.229 1.019-2.229 1.934v1.349c-.186.074-.323.308-.323.588 0 .34.2.615.447.615q.045 0 .088-.012c.154.714.535 1.311 1.044 1.657H15.3l.003.646H15.3l-.048.021-3.168 1.605a1.28 1.28 0 0 0-.656.81H13.7c.624.003 1.27.08 1.918.232" fill="#000D6E"/><path d="M20.074 21.01c-.419.225-.649.55-.649 1.08v1.914h1.143v-3.182c-.179.057-.355.113-.494.188M25.664 22.09c0-.541-.239-.869-.674-1.094a3 3 0 0 0-.469-.174v3.27l.018.006.015.005.083.03.042.016.014.006.064.027.057.026.015.008a2.4 2.4 0 0 1 .297.174 2.1 2.1 0 0 1 .537.545V22.09zM21.698 20.54c.186.275.489.454.847.454-.06 0-.116-.012-.173-.022l-.015-.003.015.003c.057.01.113.022.173.022.358 0 .661-.179.847-.454l.985.227h.001-.001l-.984-.228-.001.001v-.093l-.01-.155-.026-.367q.122-.076.233-.172l.016-.017c.168-.147.308-.329.417-.536l.01-.016c.037-.072.075-.143.104-.22a.3.3 0 0 0 .088.026c.01.002.018.008.027.008l.007.002h.001c.067 0 .125-.036.179-.083.003-.003.008-.002.012-.005a.58.58 0 0 0 .171-.429.6.6 0 0 0-.121-.376c-.063-.082-.145-.135-.236-.135l-.003-.234c-.464-.134-1.425-.422-1.994-.721-.666-.35-1.148-.069-1.433.067l-.008.008.002.222v.003l.003.49v.16c-.101 0-.191.058-.257.152q-.05.072-.077.164a.6.6 0 0 0-.028.201c0 .175.064.322.158.416l.005.004c.059.055.125.096.2.096l.004-.001a.26.26 0 0 0 .131-.04q.05.133.117.255.004.01.009.019l.004.008.004.009.006.01.013.02c.153.261.359.478.601.631l-.026.615-.001.015-.982.228h-.001.001z" fill="#94E3D4"/><path fill="#FFACA6" d="M27.41 21.493v.012h.001z"/><path d="m27.119 19.613.255-.131.036-.57-.001-.041c-.452-.328-.792-.886-.929-1.554a.3.3 0 0 1-.073.011.3.3 0 0 1-.157-.046c-.145-.088-.247-.295-.247-.535v-.001q0-.077.015-.147l.005-.024.007-.019c.056-.225.201-.389.377-.389h.001l-.008-1.099.003-.102c.003-.049.007-.103.013-.132.266-.128.678-.347 1.225-.211l.043.01c.108.03.219.07.338.132a82.617 82.617 0 0 0 2.092 1.045l.154.075.001.136.001.145c.025 0 .046.015.07.021q.007-.007.014-.007c.014.005.026.016.04.023q.03.013.056.033.011.006.021.012l.012.01c.014.013.025.032.038.048.015.018.029.033.042.053l.008.01.013.023q.018.039.032.081.013.028.024.06l.002.006.005.025a.8.8 0 0 1-.01.407c-.061.208-.205.355-.372.355a.3.3 0 0 1-.061-.009 3 3 0 0 1-.243.713q-.162.327-.391.576a2 2 0 0 1-.328.287l.037.589.252.13.199.102.046.023.252.129.388.197 1.184.597c.401-.271.593-.584.421-.866-.288-.471-.407-1.45-.587-2.415-.15-1.173-.529-2.247-.672-2.787-.217-.822-.854-1.798-2.409-1.851-1.149 0-2.101.778-2.293 1.573-.283.773-.997 3.157.101 5.071.113.198.252.365.407.51l.056-.028zM27.374 19.487v.002z" fill="#000D6E"/><path d="m29.237 21.491.001-.012.014-.153.01-.104.013-.178.003-.044.009-.188.004-.079c.009-.15.009-.302.014-.452a5 5 0 0 0-.009-.525l-.002-.057c-.001-.03-.003-.044-.005-.067l-.005-.066-.003-.048-.001-.007-.003-.016-.001-.005v-.004l-.001-.006h.001l.002.001-.037-.589q.176-.122.328-.287.23-.247.391-.576a3 3 0 0 0 .243-.713q.03.008.061.009c.167 0 .311-.146.372-.355a.8.8 0 0 0 .002-.438c-.006-.022-.016-.039-.024-.06a.6.6 0 0 0-.054-.115q-.02-.029-.042-.053a.4.4 0 0 0-.072-.07.4.4 0 0 0-.056-.033.3.3 0 0 0-.123-.037l-.001-.145-.001-.136-.319-.155-.659-.323a83 83 0 0 1-1.268-.642 1.7 1.7 0 0 0-.338-.132l-.043-.01c-.547-.136-.959.083-1.225.211-.006.03-.01.084-.013.132-.003.049-.004.093-.003.102l.008 1.099h-.001c-.176 0-.322.163-.377.389a.8.8 0 0 0-.027.191v.001c0 .241.102.447.247.535a.3.3 0 0 0 .157.046.3.3 0 0 0 .073-.011c.137.668.477 1.226.929 1.554l.001.041-.036.57h.001l-.001.006v.002l.001-.001-.002.01v.004h-.001l-.001.009h.002l-.002.01c-.005.033-.01.098-.012.177l-.002.057-.007.161-.002.049-.002.129q-.001.12.001.266l.001.077q.004.152.013.327l.002.045q.005.112.014.234l.015.199.019.234v.007a1.202 1.202 0 0 0 1.829.008" fill="#94E3D4"/><path d="m24.988 20.995.001.001c.435.225.674.553.674 1.094v2.845q.122.178.199.376l.005.011q.078.2.106.415l1.664-.399c-.068-1.176-.129-2.949-.165-3.258l-.015-.121-.001-.007a20 20 0 0 1-.046-.446l-.001-.005v-.021000000000000005l-.019-.234-.015-.199q-.01-.122-.014-.234l-.002-.045a11 11 0 0 1-.013-.327l-.001-.077a8 8 0 0 1 .001-.395l.002-.049.007-.161.002-.057c.002-.079.007-.144.012-.177l.002-.01.003-.016.001-.005v-.004l.001-.006h-.001l-.255.131-.495.254-.056.028-1.578.796-.001.001v.301zM30.029 19.867l-.252-.129-.046-.023-.199-.102-.252-.13-.002-.001h-.001l.001.006v.004l.001.005.003.016.001.007.003.048.004.059v.007c.002.022.004.037.005.067l.002.057.007.146q.009.189.002.379c-.005.15-.005.302-.014.452l-.004.079-.009.188-.003.044-.013.178-.01.104-.014.153-.001.012c-.007.074-.01.141-.021.221-.009.104-.024.222-.036.334q.001.004.001.009l-.003.024c-.034.281-.087 1.77-.147 2.923l3.913-.939.063-.015.064-.007h.003l-.099-2.081a1.2 1.2 0 0 0-.661-.937l-.652-.329v-.003l-.001-.001-.062-.031-1.184-.597zM24.521 20.821v-.012l-.144-.041h-.001l-.985-.227a1.01 1.01 0 0 1-.847.454c-.358 0-.661-.179-.847-.454l-.985.227h-.001l-.144.041v3.195h3.425a1.7 1.7 0 0 1 .434.06l.051.014.014.004.029.009v-3.27z" fill="#1B5951"/><path d="M34.947 26.225a1.496 1.496 0 0 0-1.471-1.22l-.298.032-7.188 1.725v.24c0 1.286-1.18 1.996-1.996 1.996H15.01a.498.498 0 1 1 0-.998h8.984c.284 0 .998-.297.998-.998h-.001l.001-.026v-.973l-.002-.064-.001-.01a.95.95 0 0 0-.43-.717l-.008-.005-.075-.047-.015-.008-.068-.036-.006-.003-.035-.016-.035-.015-.006-.003-.027-.01-.014-.005-.028-.01-.011-.004-.026-.008-.013-.004-.008-.002q-.034-.01-.066-.016l-.004-.001a.6.6 0 0 0-.121-.013h-5.016c-.521-.01-1.006-.341-1.566-.724l-.093-.063-.023-.015-.083-.056-.019-.013-.211-.141-.01-.007-.105-.068-.005-.003a9 9 0 0 0-.236-.145h-.001a5.6 5.6 0 0 0-1.236-.558 7.4 7.4 0 0 0-1.689-.203h-3.676c-.554 0-1.004.449-1.004 1.004v3.988h.005a1 1 0 0 0-.005.112v1.884s-.001.642.997.998c.998.357 6.468 2.612 6.602 2.666a4.48 4.48 0 0 0 3.201.073c.015-.005 14.201-5.836 14.201-5.836a1.5 1.5 0 0 0 .926-1.674" fill="#1B5951"/><path d="M6.938 23.008H5.027v7.986h1.912c.598 0 1.083-.485 1.083-1.083v-5.82a1.085 1.085 0 0 0-1.084-1.083" fill="#94E3D4"/></g></svg>