<svg xmlns="http://www.w3.org/2000/svg" viewBox="0 0 40 40" focusable="false" aria-hidden="true"><path fill="none" d="M0 0h40v40H0z"/><g data-name="Icon Red"><path d="m14.799 13.342-.015.042a19.9 19.9 0 0 0-1.117 6.148l-.002.05h5.818v-5.606h-.049a21 21 0 0 1-4.59-.624ZM15.119 12.498l.056.013a20 20 0 0 0 4.257.567h.051V6.008h-.05l-.023.002-.015.003-.011.01a19.8 19.8 0 0 0-4.244 6.422ZM13.94 26.893l-.018-.05a20.7 20.7 0 0 1-1.151-6.315l-.001-.048H6.004l.002.052a13.86 13.86 0 0 0 3.202 8.394l.028.032.036-.022a20.8 20.8 0 0 1 4.618-2.029ZM12.768 19.534a20.8 20.8 0 0 1 1.146-6.383l.017-.05-.05-.015a20.8 20.8 0 0 1-4.625-2.036l-.036-.02-.027.032a13.85 13.85 0 0 0-3.191 8.469L6 19.582h6.767ZM33.748 22.642a14 14 0 0 0 .246-2.11l.002-.052H27.07v.049a21 21 0 0 1-.351 3.271l.053-.009ZM26.176 19.532a19.9 19.9 0 0 0-1.107-6.144l-.015-.043-.044.01a21 21 0 0 1-4.58.62l-.049.001v5.606h5.796ZM24.68 12.514l.056-.013-.022-.054a19.8 19.8 0 0 0-4.238-6.432L20.452 6h-.07v7.08l.05-.002a20 20 0 0 0 4.247-.564M25.922 13.104l.017.05a20.8 20.8 0 0 1 1.136 6.38v.049H34l-.002-.052a13.85 13.85 0 0 0-3.239-8.522l-.028-.033-.036.022a20.7 20.7 0 0 1-4.723 2.092ZM14.27 27.777l-.016-.042-.044.013a20 20 0 0 0-4.3 1.86l-.055.032.044.045a14.07 14.07 0 0 0 8.018 4.136l.135.02-.09-.102a20.7 20.7 0 0 1-3.691-5.962M14.2 12.246l.043.012.017-.042a20.7 20.7 0 0 1 3.702-5.984l.09-.102-.135.019a14.06 14.06 0 0 0-8.034 4.154l-.044.046.055.031a20 20 0 0 0 4.306 1.865M25.593 12.22l.017.042.044-.013a20 20 0 0 0 4.406-1.92l.054-.032-.043-.046a14.07 14.07 0 0 0-8.145-4.127l-.133-.018.088.1a20.7 20.7 0 0 1 3.712 6.014M18.59 25.141l.893-.147V20.48h-5.815l.001.05a19.9 19.9 0 0 0 1.123 6.08l.016.042.044-.01a21 21 0 0 1 2.924-.508.98.98 0 0 1 .814-.993M17.887 27.024a20 20 0 0 0-2.702.459l-.056.014.022.053a19.7 19.7 0 0 0 3.797 5.91l-1.05-6.37ZM25.766 23.958a20 20 0 0 0 .406-3.427l.001-.051h-5.791v4.366l.025-.005Z" fill="#d9304c"/><path d="M35.526 23.362a1 1 0 0 0-1.15-.824l-.564.093-.064.01-6.974 1.15-.054.009-.903.149-.051.008-5.359.884-.026.004-.874.144-.024.004-.894.148a.98.98 0 0 0-.813.993c0 .022-.009.042-.007.065.002.03-.009.06-.004.091l.121.734.011.065 1.05 6.371.013.072.27 1.638a1 1 0 0 0 1.149.824l15.787-2.603a1 1 0 0 0 .824-1.15ZM22.41 33.006a1.047 1.047 0 0 1-.23-1.46.26.26 0 1 1 .42.307.524.524 0 0 0 .116.732.26.26 0 0 1-.16.47.27.27 0 0 1-.146-.049m-.865 1.623a.26.26 0 0 1-.217.106.26.26 0 0 1-.146-.049 3.127 3.127 0 0 1-.688-4.361.26.26 0 1 1 .42.306 2.605 2.605 0 0 0 .573 3.634.26.26 0 0 1 .059.364Zm.254-.782a2.085 2.085 0 0 1-.46-2.913.26.26 0 0 1 .42.307 1.563 1.563 0 0 0 .345 2.185.26.26 0 0 1-.306.421Zm13.065-8.353-.404.55-1.639-1.147-.68.928.942.66.422-.575.696.487-.826 1.125a.17.17 0 0 1-.236.04l-2.06-1.443a.163.163 0 0 1-.038-.231l1.489-2.028a.17.17 0 0 1 .236-.039l2.06 1.442a.163.163 0 0 1 .038.231Z" fill="#ffaca6"/><path d="M32.765 23.821a.17.17 0 0 0-.236.04l-1.488 2.027a.163.163 0 0 0 .038.23l2.061 1.443a.17.17 0 0 0 .236-.039l.826-1.125-.696-.487-.422.575-.943-.66.681-.928 1.639 1.147.403-.55a.163.163 0 0 0-.038-.23ZM20.915 30.631a.26.26 0 1 0-.42-.306 3.127 3.127 0 0 0 .687 4.362.26.26 0 0 0 .147.048.26.26 0 0 0 .16-.47 2.605 2.605 0 0 1-.574-3.634" fill="#000d6e"/><path d="M22.162 33.79a.26.26 0 0 0-.058-.364 1.563 1.563 0 0 1-.344-2.185.26.26 0 0 0-.42-.306 2.085 2.085 0 0 0 .46 2.913.26.26 0 0 0 .145.049.26.26 0 0 0 .217-.107" fill="#000d6e"/><path d="M22.774 32.949a.26.26 0 0 0-.057-.364.524.524 0 0 1-.116-.732.26.26 0 1 0-.42-.307 1.047 1.047 0 0 0 .23 1.46.27.27 0 0 0 .146.05.26.26 0 0 0 .217-.107" fill="#000d6e"/></g></svg>