<svg version="1.1" xmlns="http://www.w3.org/2000/svg" x="0px" y="0px" viewBox="0 0 40 40" xml:space="preserve" focusable="false" aria-hidden="true" enable-background="new 0 0 40 40"><path fill="none" d="M0 0h40v40H0z"/><g><path d="M32.401 14H23a1 1 0 0 1-1-1V9a1 1 0 0 1 1-1h9.401a1 1 0 0 1 .73.317l1.87 2a1 1 0 0 1 0 1.366l-1.87 2a1 1 0 0 1-.73.317" fill="#000D6E"/><path d="M7.599 18H17a1 1 0 0 0 1-1v-4a1 1 0 0 0-1-1H7.599a1 1 0 0 0-.73.317l-1.87 2a1 1 0 0 0 0 1.366l1.87 2a1 1 0 0 0 .73.317" fill="#FA9319"/><path d="M21 5a1 1 0 1 0-2 0v27h2zM24 33h-8a2 2 0 0 0-2 2v2h12v-2a2 2 0 0 0-2-2" fill="#FAE052"/></g></svg>