<svg xmlns="http://www.w3.org/2000/svg" viewBox="0 0 40 40" focusable="false" aria-hidden="true"><path fill="none" d="M0 0h40v40H0z"/><g data-name="Icon Red"><circle cx="11" cy="25.9987" r="3" fill="#ffaca6"/><circle cx="11" cy="25.9987" r="1.5" fill="#000d6e"/><circle cx="31.0317" cy="25.9987" r="3" fill="#ffaca6"/><circle cx="31.0317" cy="25.9987" r="1.5" fill="#000d6e"/><path fill="none" d="M7.578 19.03h9.399v-5.029h-3.82z"/><path d="M5.882 21.009a.947.947 0 0 0-.94-.953A2.07 2.07 0 0 0 4 21.962h.941a.947.947 0 0 0 .941-.953" fill="#ffaca6"/><path d="M17.467 13.02h-4.498a.5.5 0 0 0-.328.127l-6.645 5.989-1.055.92a.954.954 0 0 1 0 1.907H4v3.109a.95.95 0 0 0 .941.958h2.062q-.002-.015-.003-.031a4 4 0 0 1 8 0q-.002.015-.003.028h2.95v-6.603l.01-.049v-5.864a.49.49 0 0 0-.49-.49m-.49 6.01h-9.4l5.58-5.029h3.82ZM36.084 8.987H19.98a.946.946 0 0 0-.947.945v16.055h8a3.999 3.999 0 0 1 7.999 0h1.094a.907.907 0 0 0 .907-.907V9.932a.946.946 0 0 0-.948-.945" fill="#d9304c"/></g></svg>