<svg xmlns="http://www.w3.org/2000/svg" viewBox="0 0 40 40" focusable="false" aria-hidden="true"><path fill="none" d="M0 0h40v40H0z"/><g><path fill="#fae052" d="M25.58 20.47 24.63 15h-9.28l-.95 5.47zM14.3 15h-3.49L5 20.47h8.35zM5.02 21.47 19.06 35l-5.62-13.53zM25.43 21.47H14.55l5.44 13.08zM35 20.47 29.41 15h-3.73l.95 5.47zM20.92 35l14.04-13.53h-8.42z"/><path d="M20 10a.5.5 0 0 1-.5-.5v-4a.5.5 0 0 1 1 0v4a.5.5 0 0 1-.5.5M27 12a.47.47 0 0 1-.35-.15.48.48 0 0 1 0-.7l2.82-2.83a.5.5 0 0 1 .71.71l-2.83 2.82A.47.47 0 0 1 27 12M13 12a.47.47 0 0 1-.35-.15L9.82 9a.5.5 0 0 1 .71-.71l2.82 2.83a.48.48 0 0 1 0 .7.47.47 0 0 1-.35.18" fill="#000d6e"/></g></svg>