<svg xmlns="http://www.w3.org/2000/svg" viewBox="0 0 40 40" focusable="false" aria-hidden="true"><path fill="none" d="M0 0h40v40H0z"/><g><path d="M15 7a1 1 0 0 0-1-1h-3a1 1 0 0 0-1 1v1h2v1h1V8h2ZM8 29.5a4.5 4.5 0 0 0 9 0V17H8Z" fill="#6c2273"/><path d="M12.5 10A4.49 4.49 0 0 0 8 14.5V16h9v-1.5a4.49 4.49 0 0 0-4.5-4.5" fill="#b8b2ff"/><path d="M26 7a1 1 0 0 0-1-1h-3a1 1 0 0 0-1 1v1h2v1h1V8h2ZM19 29.5a4.5 4.5 0 0 0 9 0V17h-9Z" fill="#6c2273"/><path d="M23.5 10a4.49 4.49 0 0 0-4.5 4.5V16h9v-1.5a4.49 4.49 0 0 0-4.5-4.5" fill="#b8b2ff"/><path fill="#000d6e" d="M16 7h4v1h-4zM31 13.09V9.5A2.5 2.5 0 0 0 28.5 7H27v1h1.5A1.5 1.5 0 0 1 30 9.5v3.59a1.5 1.5 0 1 0 1 0"/></g></svg>