<svg xmlns="http://www.w3.org/2000/svg" viewBox="0 0 40 40" focusable="false" aria-hidden="true"><path fill="none" d="M0 0h40v40H0z"/><g><path d="M27.99 12.99h-5.02c-1.1 0-1.97-.89-1.97-1.99V6H4v30h24V12.99Z" fill="#94e3d4"/><path d="M21 11c0 1.1.87 1.99 1.97 1.99h5.02L21 6z" fill="#1b5951"/><path fill="#000d6e" d="M18.38 28.26h-.01l-.33 1.72 1.72-.34M8.5 12h7c.28 0 .5-.22.5-.5s-.22-.5-.5-.5h-7c-.28 0-.5.22-.5.5s.22.5.5.5M20.49 16H8.51c-.28 0-.5.22-.5.5s.22.5.5.5h11.97c.28 0 .5-.22.5-.5s-.22-.5-.5-.5ZM20.49 20H8.51c-.28 0-.5.22-.5.5s.22.5.5.5h11.97c.28 0 .5-.22.5-.5s-.22-.5-.5-.5Z"/><path d="M20.49 20.01H8.52c-.28 0-.5.22-.5.5s.22.5.5.5h11.97c.28 0 .5-.22.5-.5s-.22-.5-.5-.5M8.52 12h7c.28 0 .5-.22.5-.5s-.22-.5-.5-.5h-7c-.28 0-.5.22-.5.5s.22.5.5.5M20.49 16.02H8.52c-.28 0-.5.22-.5.5s.22.5.5.5h11.97c.28 0 .5-.22.5-.5s-.22-.5-.5-.5" fill="none"/><path d="M16.36 30.07h-2.03c-.08-.08-.19-.35-.25-.5-.15-.38-.34-.86-.82-.9-.58-.05-.95.48-1.24.91-.08.12-.2.29-.29.39-.08-.17-.17-.51-.23-.72-.18-.69-.37-1.4-.97-1.54-.72-.17-1.44.59-2.48 2.61a.466.466 0 0 0 .41.68c.17 0 .33-.09.41-.25.86-1.68 1.31-2.03 1.44-2.11.11.15.22.6.29.85.18.69.37 1.4 1 1.48.55.07.89-.42 1.18-.86.08-.12.22-.32.33-.44.04.08.07.17.1.24.17.43.43 1.08 1.08 1.08h2.06c.26 0 .46-.21.46-.46s-.21-.46-.46-.46Z" fill="#000d6e"/><path d="m19.76 29.64 15.87-15.93c.38-.38.38-1 0-1.38s-1-.38-1.38 0L18.38 28.26l1.39 1.38Z" fill="#1b5951"/></g></svg>