<svg xmlns="http://www.w3.org/2000/svg" viewBox="0 0 40 40" focusable="false" aria-hidden="true"><path fill="none" d="M0 0h40v40H0z"/><g><path d="M7.67 29.33a5.65 5.65 0 0 0-5.65-5.65 5.65 5.65 0 0 0 5.65 5.65" fill="#94e3d4"/><path d="M10.61 30.39c2.04 0 3.69-1.65 3.69-3.69-2.04 0-3.69 1.65-3.69 3.69" fill="#1b5951"/><path d="M4 35.5c0-.28.22-.5.5-.5h9c.27 0 .5.22.5.5s-.22.5-.5.5h-9c-.27 0-.5-.22-.5-.5" fill="#000d6e"/><path d="M14.22 19.25c-3.12 0-5.61 2.46-5.61 5.58v9.16h1v-9.25a5.54 5.54 0 0 0 4.61-5.49" fill="#1b5951"/><path d="m37.67 13.58-2.21-2.74.23-.16a3.93 3.93 0 0 0 1.06-5.46 3.92 3.92 0 0 0-2.51-1.66c-1.03-.2-2.08.01-2.95.6l-.79.53-7.85 5.29c-.6.4-.74 1.26-.33 1.93l1.46 2.64-6.64-1.5-.57 1.74 9.6 4.11.98 1.78c.22.37.59.63 1 .72.1.02.21.03.31.03.27 0 .53-.08.76-.23l8.16-5.5c.31-.21.52-.54.59-.92.07-.41-.04-.85-.31-1.21Zm-5.81-8.59c.65-.44 1.43-.59 2.2-.44s1.44.59 1.87 1.24c.9 1.34.55 3.17-.79 4.07l-.3.21-3.7-4.59z" fill="#000d6e"/></g></svg>