<svg xmlns="http://www.w3.org/2000/svg" viewBox="0 0 40 40" focusable="false" aria-hidden="true"><path fill="none" d="M0 0h40v40H0z"/><g><path d="M31.37 21.43c0 .06-.02-.32-.05-.63l.05.72v-.08ZM31.37 21.51c.01.35.02.73.01 1.12 0-.36 0-.75-.01-1.12M27.94 21.43v.05l.03-.5c-.02.25-.03.47-.03.44ZM26.31 17.68c.22 1 .72 1.84 1.38 2.42-.66-.58-1.16-1.42-1.38-2.42M32.02 19.73c.47-.55.83-1.24 1-2.04.01 0 .02 0 .03-.01h-.03c-.17.81-.53 1.51-1 2.06ZM27.92 22.57c0-.38 0-.75.02-1.09-.02.36-.02.73-.02 1.09" fill="none"/><path d="M31.28 24.92c.02-.26.1-1.2.11-2.29 0-.39 0-.77-.01-1.12l-.05-.72c-.02-.22-.03-.41-.03-.41.26-.18.5-.41.72-.66.47-.55.83-1.25 1-2.06h.03c.35-.05.62-.46.62-.97 0-.11-.02-.21-.04-.31v-.05c-.03-.09-.06-.18-.11-.27 0 0-.01-.02-.02-.02a.8.8 0 0 0-.16-.2l-.01-.01a.6.6 0 0 0-.19-.11s-.09-.03-.15-.03v-.48c-.07-.03-.27-.13-.55-.26-.6-.3-1.58-.78-2.47-1.23-.29-.15-.57-.29-.82-.42-.19-.1-.36-.16-.53-.21-.06-.02-.11-.03-.16-.04-.08-.02-.16-.04-.23-.05-.12-.02-.24-.03-.35-.03h-.02c-.11 0-.21.01-.31.03-.03 0-.06.02-.1.02-.07.02-.14.03-.21.05-.03 0-.06.02-.09.02-.09.03-.17.06-.26.09-.19.08-.35.16-.49.22-.02.1-.03.37-.03.4 0 .28.01 1.19.02 1.88-.06 0-.12.01-.18.04h-.02c-.01 0-.02.01-.03.02-.06.03-.12.08-.18.14 0 0 0 .01-.01.02-.11.13-.2.31-.24.51q-.03.135-.03.27c0 .52.28.94.63.98.21 1 .71 1.84 1.38 2.42.11.09.21.2.32.27l-.04.61-.03.5c-.01.34-.02.71-.02 1.09 0 .48.02.92.04 1.31.67.39 1.23.93 1.66 1.58.52-.19 1.07-.33 1.65-.39v-.14Z" fill="#ffaca6"/><path d="M27.96 23.88c-.02-.38-.04-.83-.04-1.31 0-.35 0-.72.02-1.09v-.05s-.02.02-.04.03c-.05.03-.13.07-.22.11-.05.02-.09.05-.14.07-.14.07-.28.14-.35.17-.02 0-.03.02-.03.02l-2.17 1.1c.7.16 1.34.32 1.79.44.42.12.82.29 1.18.51M31.51 21.51c-.07-.04-.13-.07-.14-.08v.08c.01.38.02.76.01 1.12-.01 1.09-.09 2.03-.11 2.29v.14c.24-.03.48-.04.73-.04 2.49 0 4.68 1.32 5.92 3.29l-.31-2.69c-.09-.69-.51-1.29-1.13-1.6l-4.33-2.19s-.05-.02-.12-.06l-.12-.06c-.13-.06-.29-.14-.41-.2Z" fill="#d9304c"/><path d="m27.54 21.65.14-.07c.09-.05.17-.09.22-.11.02-.01.04-.02.04-.03 0 .03.01-.2.03-.44l.04-.61c-.11-.08-.22-.18-.32-.27-.66-.58-1.17-1.42-1.38-2.42-.35-.04-.63-.46-.63-.98 0-.09.01-.17.03-.26.04-.21.13-.4.24-.52 0 0 .01-.01.01-.02.06-.06.11-.1.18-.14.01 0 .02-.01.03-.02h.02c.06-.03.12-.04.18-.04 0-.69-.01-1.6-.02-1.88 0-.03 0-.3.03-.4.14-.06.3-.15.49-.22.08-.03.17-.06.26-.09.03 0 .06-.02.09-.02.07-.02.14-.04.21-.05.04 0 .07-.02.1-.02.1-.02.2-.03.31-.03h.02a2.2 2.2 0 0 1 .58.08c.05.02.1.02.16.04.17.05.34.11.53.21.26.14.54.28.82.42.89.45 1.87.93 2.47 1.23.28.13.47.23.55.26v.48c.05 0 .1 0 .15.02.07.03.13.07.19.11 0 0 0 .01.01.01.06.06.11.13.16.2 0 0 .01.02.02.02.05.08.08.17.11.27v.05c.03.09.04.2.04.31 0 .51-.27.92-.62.97 0 0-.02 0-.03.01-.17.8-.53 1.5-1 2.04-.22.25-.45.48-.72.66 0 0 .01.19.03.41.02.32.05.69.05.63 0 .01.06.04.14.08.11.06.27.14.41.2.04.02.09.04.12.06.07.03.12.06.12.06l1.41.71 1.3.66.38.19c.69-.46 1.02-1 .72-1.48-.5-.81-.7-2.48-1.01-4.13-.26-2-.91-3.84-1.15-4.76-.37-1.4-1.46-2.97-4.12-3.06-1.97 0-3.59 1.23-3.92 2.59-.48 1.32-1.7 5.4.17 8.67.19.34.43.63.7.88l.51-.26s.01 0 .03-.02c.06-.03.2-.1.35-.17Z" fill="#000d6e"/><path d="m10.12 23.46 1.67-1.7-.09-1.39c.82-.55 1.43-1.5 1.68-2.64.04.01.09.02.14.02.39 0 .71-.44.71-.98 0-.44-.22-.8-.51-.92V16c0 .14-.11.26-.26.26s-.26-.11-.26-.26v-.95c-.01-.02-.02-.03-.03-.05-.39-.18-.99-.63-1.5-1.25-.48.28-1.15.51-1.92.64-1.07.18-2.03.1-2.59-.16-.06.24-.11.54-.11.93V16c0 .14-.11.26-.26.26s-.26-.11-.26-.26v-.15c-.29.12-.51.47-.51.92 0 .54.32.98.71.98.03 0 .06 0 .09-.01.24 1.13.85 2.08 1.66 2.62l-.09 1.4 1.71 1.7Z" fill="#ffaca6"/><path d="M13.22 23.37c.58-.17 1.48-.38 2.44-.59-.22-.11-.44-.22-.68-.29-.32-.09-.82-.2-1.37-.32-.11-.03-.24-.06-.37-.09l-.13-.03-.27-.06c-.06-.01-.11-.03-.17-.04l-.27-.06-.15-.03s-.42-.09-.45-.09l-1.67 1.7-1.71-1.7c-.03 0-.42.09-.42.09-.08.02-.15.03-.23.05-.07.02-.14.03-.21.05-.07.01-.13.03-.19.04-.09.02-.17.04-.25.06l-.15.03c-.13.03-.25.06-.37.09-.55.12-1.05.23-1.37.32-1.11.31-2 1.15-2.37 2.24L2.01 29H9.2l.64-2.41a5.07 5.07 0 0 1 3.4-3.22Z" fill="#d9304c"/><path d="M6.8 16.26c.14 0 .26-.11.26-.26v-.84c0-.4.05-.69.11-.93.56.26 1.52.34 2.59.16.76-.13 1.43-.36 1.92-.64.51.63 1.11 1.08 1.5 1.25.01.02.02.03.03.05V16c0 .14.11.26.26.26s.26-.11.26-.26v-1.11c.02-.66.03-1.37 0-1.71-.07-.74-1.45-2.56-3.59-2.56s-3.59 1.61-3.59 3.08v2.31c0 .14.11.26.26.26Z" fill="#000d6e"/><path d="m19.62 22.47.35 1.8h.07l.35-1.8 1.96-1.21c-.1-.39-.16-.83-.2-1.23.79-.68 1.39-1.72 1.64-2.96.04 0 .08.02.12.02.45 0 .82-.53.82-1.18 0-.54-.26-.99-.6-1.13 0-.02 0-.03.01-.05-.04.06-.08.13-.12.19 0 0-.25-1.86-.36-1.94-.81-.57-1.61-1.52-1.99-2.38-1.04 1.16-2.44 2.18-4.33 2.18-.29 0-.54-.04-.76-.12l-.42 2.65c-.13-.18-.24-.38-.33-.57 0 .01 0 .03.01.04-.34.15-.59.59-.59 1.12 0 .65.37 1.18.82 1.18.05 0 .1 0 .15-.02.25 1.22.84 2.26 1.62 2.94-.04.4-.1.85-.2 1.26s1.96 1.21 1.96 1.21ZM22.56 9.79s-.01 0-.02-.01l.01.01Z" fill="#ffaca6"/><path d="M29.62 25.45a5 5 0 0 0-1.66-1.58c-.37-.22-.76-.39-1.18-.51-.45-.13-1.09-.28-1.79-.44-.42-.1-.85-.19-1.29-.29s-2.35 1.6-2.35 1.6l-.96-1.76-.35 1.8h-.07l-.35-1.8-.96 1.76-2.35-1.6c-.22.05-.43.09-.64.14-.95.21-1.86.43-2.44.59a5.05 5.05 0 0 0-3.4 3.22l-.64 2.41-.53 2h16.42c.38-2.57 2.16-4.68 4.54-5.55ZM16.58 12.66c.22.07.48.12.76.12 1.89 0 3.29-1.02 4.33-2.18.37.86 1.18 1.81 1.99 2.38.11.08.36 1.94.36 1.94.05-.06.08-.13.12-.19 1.15-1.85.15-5.13-1.59-4.93l-.01-.01c-.15-.19-.46-.41-.85-.61-.23-.16-.59-.28-1.03-.35-.17-.03-.34-.05-.51-.05h-.01c-.34-.01-.71 0-1.09.06-.88.14-1.62.44-2.08.78-.37-.08-.8-.26-1.06-.66-.19.58-.11 1.14.25 1.37-.46.32-.98.09-1.29-.18 0 0 .09.96.65 1.72-.1.55-.18 1.79.32 2.87q.135.3.33.57l.42-2.65Z" fill="#000d6e"/><path fill="#d9304c" d="m20.39 22.47.96 1.76 2.35-1.6-1.35-1.37zM18.65 24.23l.97-1.76-1.96-1.21h-.01l-1.35 1.37z"/><path d="M32 26.03c-3.31 0-6 2.69-6 6s2.69 6 6 6 6-2.69 6-6-2.69-6-6-6m2.37 8.41-2.24-1.2-2.24 1.2.86-2.32-1.62-1.28h2.09l.89-2.4.9 2.4h2.12l-1.63 1.31.86 2.29Z" fill="#000d6e"/></g></svg>