<svg version="1.1" xmlns="http://www.w3.org/2000/svg" x="0px" y="0px" viewBox="0 0 40 40" xml:space="preserve" focusable="false" aria-hidden="true" enable-background="new 0 0 40 40"><path fill="none" d="M0 0h40v40H0z"/><g><path d="M25.259 20.744v.004c.023-.01.049-.008.071-.021l-.002-.004c-.021.013-.046.01-.069.021M32.517 24.536h-.001zM33.322 24.804a8.139 8.139 0 0 1 0 0M27.189 24.431c.015.014.034.023.049.036-.015-.014-.034-.023-.049-.036M25.612 21.336c.012.022.029.04.042.062.04.069.097.122.141.187-.044-.066-.1-.119-.14-.187q-.023-.03-.043-.062M30.419 23.534l-.055-.774zM25.039 17.252l-.003-.468-.004.004.004.464v.01l.009 1.03-.006-1.034zM32.779 18.926c-.132-.172-.304-.286-.496-.289l-.004-.489-.003-.001.006.493c.193.001.364.114.497.286M25.046 18.63c-.171 0-.32.095-.447.229.126-.134.275-.229.447-.229M30.44 23.861l-.021-.327zM26.867 24.054c.027.04.064.071.094.109q.033.04.068.079c-.055-.062-.115-.118-.162-.188M33.034 19.719c0-.025-.01-.045-.011-.07.001.025.011.045.011.07M32.274 20.81c.15 0 .281-.079.399-.186-.118.107-.25.186-.401.186z" fill="none"/><circle cx="17.357" cy="7.796" r="0.807" fill="#B8B2FF"/><path d="M13.12 7.207a.808.808 0 1 0 .002 1.616.808.808 0 0 0-.002-1.616" fill="#B8B2FF"/><path d="M11.002 7.713c.033-.292-.089-.775-.044-1.318.069-.833.498-1.499.064-1.617-.033-.009-.06-.022-.104-.025-.62-.033-1.182.667-1.256 1.564-.063.762.248 1.415.722 1.617.147-.147.316-.253.508-.253.039 0 .072.025.11.032M15.211 10.359c-.9-.014-1.623.477-1.615 1.097.008.621.723.186 1.623.201.9.014 1.644.472 1.636-.148s-.744-1.135-1.644-1.15M19.409 6.395c.046.555-.084 1.049-.043 1.339.061-.018.117-.053.181-.053.182 0 .341.096.483.228.446-.225.735-.857.675-1.592-.074-.897-.636-1.597-1.256-1.564-.022.001-.033.01-.052.012-.522.079-.059.765.012 1.63" fill="#000D6E"/><path d="M14.891 8.369h.761c.241.715.91 1.234 1.705 1.234.997 0 1.807-.811 1.807-1.807s-.81-1.806-1.807-1.806c-.848 0-1.557.59-1.75 1.379h-.804a1.805 1.805 0 0 0-1.682-1.162c-.997 0-1.807.811-1.807 1.807a1.81 1.81 0 0 0 1.807 1.808 1.81 1.81 0 0 0 1.77-1.453m2.466-1.379a.808.808 0 0 1 0 1.614.808.808 0 0 1 0-1.614M13.12 8.821a.808.808 0 1 1 .002-1.616.808.808 0 0 1-.002 1.616" fill="#6C2273"/><path d="M13.104 17.483a2.6 2.6 0 0 0 2.044 1.003c.922 0 1.729-.48 2.194-1.201h.009v-.195c.003-.465-.003-.88-.017-1.203-.026-.622-.067-.971-.067-.971l.007-1.022c1.083-.737 1.897-2.046 2.215-3.623l.016.002c.015.001.027.012.042.012a.7.7 0 0 0 .399-.147c.297-.204.507-.616.507-1.104q-.002-.013-.003-.024.002-.014.004-.027c0-.458-.175-.842-.424-1.074-.142-.132-.301-.228-.483-.228-.064 0-.121.034-.181.053-.041-.29.089-.784.043-1.339-.071-.865-.534-1.551-.012-1.629-.478-1.397-2.144-2.692-4.176-2.7v-.001h-.018v.001c-2.038.008-3.708 1.31-4.181 2.712.435.118.005.784-.064 1.617-.045.543.077 1.026.044 1.318-.038-.007-.071-.032-.109-.032-.193 0-.361.106-.508.253-.235.235-.398.607-.398 1.05 0 .19.031.367.082.53.011.038.033.065.047.101.156.394.439.672.777.672.011 0 .021-.009.032-.009a1 1 0 0 0 .098-.014c.311 1.551 1.101 2.847 2.156 3.593l.005 1.06s-.041.349-.067.971a26 26 0 0 0-.013 1.595m2.115-5.826c-.9-.014-1.615.42-1.623-.201-.008-.62.715-1.112 1.615-1.097.9.014 1.636.529 1.644 1.15s-.736.163-1.636.148M13.12 9.821a1.81 1.81 0 0 1-1.807-1.808 1.81 1.81 0 0 1 1.807-1.807c.768 0 1.422.484 1.682 1.162h.804a1.806 1.806 0 0 1 1.75-1.379c.997 0 1.807.811 1.807 1.807s-.811 1.807-1.807 1.807c-.795 0-1.465-.52-1.705-1.234h-.761a1.81 1.81 0 0 1-1.77 1.452" fill="#B8B2FF"/><path d="M14.318 27.147c-.42-2.399-.784-4.568-.88-5.407-.057-.499-.115-1.023-.174-1.592a33 33 0 0 1-.071-.789l-.008-.104-.031-.453c-.03-.482-.044-.914-.051-1.317a27 27 0 0 1 .013-1.596c.026-.622.067-.971.067-.971l-.095.048-6.421 3.244a2.62 2.62 0 0 0-1.416 2.011L3.997 36h7.762a5.9 5.9 0 0 1-.184-2.022c.195-2.546 1.727-5.382 2.743-6.831" fill="#6C2273"/><path d="M25.046 20.809c-.16 0-.298-.086-.419-.205.121.12.259.206.417.206.077 0 .147-.032.216-.063v-.004c-.07.033-.14.066-.214.066" fill="#FA9319"/><path d="M23.395 21.128c.02.024.034.052.052.078v-2.327c0-.159.013-.313.023-.468.008-.118.033-.229.054-.341l-6.144-3.104-.095-.048s.041.349.067.971c.013.32.018.741.015 1.203-.001.132.001.251-.002.393-.008.404-.021.836-.051 1.317q-.014.222-.031.453l-.008.104q-.03.383-.071.789l-.046.432h5.054c.456-.001.887.199 1.183.548" fill="#6C2273"/><path d="M24.599 18.859c-.03.032-.067.052-.094.091.027-.038.063-.059.094-.091M24.283 19.719" fill="#FA9319"/><path d="M26.867 24.054c.047.069.107.125.161.188.052.065.102.132.161.188.015.014.034.023.049.036.108.095.222.184.347.257q.05.028.101.053.186.097.392.156c.068.019.141.024.212.036.12.021.238.046.364.046.754 0 1.394-.379 1.786-.959v-.196l-.022-.327-.055-.774q.259-.16.491-.362l.016-.017c.37-.323.681-.725.919-1.183.079-.151.157-.302.219-.465a.6.6 0 0 0 .244.071q.007.002.016.005h.002c.151 0 .283-.078.401-.186.107-.097.197-.227.261-.38.064-.154.101-.331.101-.524 0-.025-.01-.045-.011-.07a1.3 1.3 0 0 0-.244-.724c-.133-.172-.305-.285-.497-.285l-.006-.493a40.027 40.027 0 0 1-2.019-.63c-.779-.266-1.585-.575-2.185-.891-1.405-.738-2.419-.146-3.02.141l-.016.017.003.468v.007l.006 1.034.001.337c-.171 0-.32.095-.447.23-.03.032-.067.052-.094.091q-.104.15-.163.346c-.059.196-.059.273-.059.423 0 .184.034.354.093.503s.142.276.24.374l.01.008c.121.119.26.205.419.205a.5.5 0 0 0 .213-.066c.023-.011.049-.008.07-.022q.113.303.266.577.008.019.017.036.021.032.042.062c.04.069.097.122.14.187.306.461.679.86 1.126 1.142l-.055 1.297v.03z" fill="#B8B2FF"/><path d="M23.47 18.41c-.01.155-.023.309-.023.468v2.327c.253.338.364.761.295 1.178l-.295 1.796v.867q.234-.124.508-.229c.165-.067.347-.127.533-.185v-.01l.305-.087 2.07-.481h.002v-.03l.055-1.297c-.447-.282-.82-.681-1.126-1.142-.044-.066-.1-.119-.141-.187q-.021-.031-.042-.062-.008-.018-.017-.036a4 4 0 0 1-.264-.573c-.022.013-.048.01-.071.021-.07.031-.139.063-.216.063-.158 0-.296-.086-.417-.206l-.01-.008c-.099-.099-.182-.226-.24-.374s-.093-.318-.093-.503q.001-.226.059-.423t.163-.346c.027-.038.063-.058.094-.091.127-.134.276-.229.447-.229l-.001-.337-.009-1.03v-.01l-.004-.464.004-.004.016-.017c.601-.287 1.615-.879 3.02-.141.6.315 1.406.625 2.185.891a40 40 0 0 0 2.019.63l.003.001.004.489c.192.004.363.117.496.289.142.183.229.439.244.724.001.024.011.045.011.07 0 .193-.037.371-.101.524a1.06 1.06 0 0 1-.261.38c-.118.108-.249.186-.399.186l-.003-.001h-.002q-.007-.002-.016-.005a.56.56 0 0 1-.244-.071c-.061.163-.14.314-.219.465a4 4 0 0 1-.919 1.183l-.016.017a4 4 0 0 1-.491.362l.055.774.022.327v.196l.002-.002 2.074.482h.001l.304.087v.009a7 7 0 0 1 .988.385v-6.139c0-.16-.025-.311-.036-.468a6.6 6.6 0 0 0-.348-1.749c-.02-.057-.046-.109-.068-.166-.081-.209-.161-.418-.262-.611a5 5 0 0 0-.442-.723c-.019-.036-.045-.071-.068-.107l-.077-.121c-.705-1.099-2.141-2-3.814-2-.041 0-.079.012-.12.013a4.6 4.6 0 0 0-1.602.336 4.7 4.7 0 0 0-1.633 1.078 4.6 4.6 0 0 0-.68.729q-.025.03-.048.06a5.4 5.4 0 0 0-.532.895l-.032.064a6 6 0 0 0-.314.883c-.018.062-.047.116-.063.178l-.008.033c-.049.193-.064.403-.096.605q-.019.131-.041.261c-.022.11-.047.221-.055.339" fill="#000D6E"/><path d="M32.82 24.632v-.009l-.304-.087h-.001l-2.074-.482-.002.002a2.14 2.14 0 0 1-1.786.959c-.127 0-.245-.025-.364-.046-.071-.012-.144-.017-.212-.036a2 2 0 0 1-.392-.156q-.051-.026-.101-.053a2.3 2.3 0 0 1-.347-.257c-.015-.013-.034-.022-.049-.036-.06-.057-.11-.123-.161-.188q-.034-.039-.068-.079c-.03-.038-.066-.069-.094-.109h-.003l-2.07.481-.305.087v.01a7 7 0 0 0-.533.185q-.274.105-.508.229v-.867l-.148.902v1.558c1.016 1.21 2.535 4.077 2.98 6.306.257 1.285.185 2.253-.046 3.055h9.799l-.801-8.576v-.101c0-1.14-.504-1.832-1.421-2.306a5 5 0 0 0-.487-.213 7 7 0 0 0-.502-.173" fill="#6C2273"/><path fill="none" d="m19.115 27.017-.003.003"/><path d="M22.755 22.222a.55.55 0 0 0-.544-.642h-6.422c-.341 0-.6.306-.544.642L15.678 25h6.621zM22.284 27h-6.568c-.246 0-5.265 7.168-2.136 10.232.488.478 1.137.8 1.869.8h7.103c.732 0 1.381-.322 1.869-.8C27.549 34.168 22.531 27 22.284 27" fill="#B8B2FF"/><path d="M15.878 28.913a.556.556 0 0 0 .783 0l2.357-2.348 2.357 2.348a.553.553 0 0 0 .783-.78l-1.596-1.59-.551-.543h2.288v-1h-6.621v1h2.348l-2.148 2.133a.55.55 0 0 0 0 .78" fill="#000D6E"/></g></svg>