<svg data-name="Ebene 1" xmlns="http://www.w3.org/2000/svg" viewBox="0 0 1080 1080" focusable="false" aria-hidden="true"><path d="M857.99 716.86c-3.21-17.41-18.42-30.04-36.12-29.98l-7.37.74-176.69 42.27v5.9c0 31.7-29 49.15-49.15 49.15H367.98c-6.88 0-12.29-5.41-12.29-12.29s5.41-12.29 12.29-12.29h220.68c6.88 0 24.57-7.37 24.57-24.57V709.5a23 23 0 0 0-10.57-17.69c-.49-.49-1.23-.74-1.72-1.23h-.49c-.49-.25-1.23-.74-1.72-.98-.25 0-.49-.25-.98-.49-.25 0-.49-.25-.98-.25 0 0-.49 0-.74-.25h-2.21c-.49 0-.98-.25-1.72-.49-1.23 0-2.21-.25-2.95-.25H465.79c-12.78-.25-24.82-8.36-38.58-17.69l-2.21-1.47s-.49-.25-.49-.49c-.7-.43-1.36-.92-1.97-1.47 0 0-.25 0-.49-.25-1.72-1.23-3.44-2.21-5.16-3.44h-.25l-2.46-1.72-5.9-3.69c-9.09-5.41-18.92-10.32-30.47-13.76-13.76-3.19-27.77-4.91-41.53-4.91h-90.43c-13.52 0-24.57 11.06-24.57 24.57V810.5s0 15.73 24.57 24.57c24.57 8.85 159 64.14 162.19 65.61 25.12 10.19 53.1 10.8 78.64 1.72.25 0 348.95-143.51 348.95-143.51 16.46-6.39 26.05-23.59 22.85-41.04l-.49-.98Z" fill="#6c2273"/><path d="M490.6 429.09c-92.02 0-166.61-74.6-166.61-166.61 92.02 0 166.61 74.6 166.61 166.61" fill="#b8b2ff"/><path d="M754.53 220.46c-132.21 0-239.35 107.14-239.35 239.35v202.74h24.57V458.83c122.38-10.57 214.78-113.04 214.78-238.37" fill="#000d6e"/><path d="M169.66 637.97h-46.94v196.35h46.94c14.74 0 26.54-11.8 26.54-26.54V664.76c0-14.74-11.8-26.54-26.54-26.54z" fill="#b8b2ff"/></svg>