<svg xmlns="http://www.w3.org/2000/svg" viewBox="0 0 40 40" focusable="false" aria-hidden="true"><path fill="none" d="M0 0h40v40H0z"/><g data-name="Icon Tangerine"><path fill="none" d="m12.323 15.559-3.3 4.32v1.22-1.22z"/><path d="M18.603 19.019c0 1.33.59 2.03 1.46 2.03s1.46-.7 1.46-2.03a3.4 3.4 0 0 0-.084-.756l-.556.555a.5.5 0 0 1-.707-.707l.774-.773a1.27 1.27 0 0 0-.887-.34c-.87 0-1.46.71-1.46 2.02M12.323 19.799v-2.11l-1.6 2.11zM28.617 19.799v-2.11l-1.6 2.11z" fill="#fae052"/><path d="M37 29V9H26.73l-2.523 2.523h2.764a.5.5 0 0 1 .353.854l-4.562 4.563a4.36 4.36 0 0 1 .46 2.069c0 2.24-1.26 3.62-3.16 3.62-1.92 0-3.16-1.38-3.16-3.62 0-2.29 1.24-3.59 3.16-3.59a3.04 3.04 0 0 1 2.073.734l3.629-3.63H23a.5.5 0 0 1-.353-.853L25.316 9H3v20h6.316l3.83-3.83a.5.5 0 1 1 .707.707L10.73 29zm-22.317-7.901h-.72v1.4h-1.66v-1.4h-3.28v-1.22l3.3-4.32h1.64v4.24h.72Zm16.294 0h-.72v1.4h-1.66v-1.4h-3.28v-1.22l3.3-4.32h1.64v4.24h.72ZM32.5 11a.5.5 0 1 1 .5-.5.5.5 0 0 1-.5.5m2 0a.5.5 0 1 1 .5-.5.5.5 0 0 1-.5.5" fill="#fae052"/><path d="M37 8h-9.27l-.5.5-.5.5H37v20H10.73l-.5.5-.5.5H37a1 1 0 0 0 1-1V9a1 1 0 0 0-1-1M3 29V9h22.316l.5-.5.5-.5H3a1 1 0 0 0-1 1v20a1 1 0 0 0 1 1h5.316l.5-.5.5-.5zM25.181 31H14.819a.82.82 0 0 0-.819.819V33h12v-1.181a.82.82 0 0 0-.819-.819" fill="#fa9319"/><circle cx="32.5" cy="10.5" r="0.5" fill="#fa9319"/><circle cx="34.5" cy="10.5" r="0.5" fill="#fa9319"/><path d="M13.963 15.559h-1.64l-3.3 4.32v1.22h3.28v1.4h1.66v-1.4h.72v-1.3h-.72Zm-1.64 4.24h-1.6l1.6-2.11ZM10.723 19.799l1.6-2.11zM16.903 19.009c0 2.24 1.24 3.62 3.16 3.62 1.9 0 3.16-1.38 3.16-3.62a4.36 4.36 0 0 0-.461-2.07l-1.323 1.324a3.4 3.4 0 0 1 .084.756c0 1.33-.59 2.03-1.46 2.03s-1.46-.7-1.46-2.03c0-1.31.59-2.02 1.46-2.02a1.27 1.27 0 0 1 .887.339l1.185-1.185a3.04 3.04 0 0 0-2.072-.734c-1.92 0-3.16 1.3-3.16 3.59M30.257 15.559h-1.64l-3.3 4.32v1.22h3.28v1.4h1.66v-1.4h.72v-1.3h-.72Zm-1.64 4.24h-1.6l1.6-2.11Z" fill="#000d6e"/></g></svg>