<svg xmlns="http://www.w3.org/2000/svg" viewBox="0 0 40 40" focusable="false" aria-hidden="true"><path fill="none" d="M0 0h40v40H0z"/><g><path d="M29.32 17.19 18.22 6.96a3.105 3.105 0 0 0-4.15 0L2.98 17.19l.36.39.36.39L14.79 7.75c.77-.69 1.94-.7 2.71 0l11.09 10.23.36-.39.36-.39Z" fill="#000d6e"/><path d="M15.51 8.55 5.48 17.8v18.14h10.75l.76-1.51-2.03-3.01 2.55-.92-.02-3.51 2 1.48 3-1.5L23 30l1.03-.38.06-2.42-.73.35v-1.58l-.07-6.57-.02-2.12 1.65 1.34 1.89 1.54v-2.37L16.77 8.53a.96.96 0 0 0-1.27.01ZM31.59 32.82l-1.34.65v.02L32.42 38h1.67z" fill="#ffaca6"/><path fill="#d9304c" d="M25.75 6.06h-4.26v2.46l4.26 3.94zM20.5 31.42h3v2h-3zM17 31.42h3v2h-3zM19.5 28.92h3v2h-3zM18.5 33.94h3v2h-3zM35.94 30.75l-3.78-2.8 1.06-.52-4.61-3.5.78-.38-5.1-4.14.06 6.57.79-.38-.14 5.79 1.06-.51-.16 4.7z"/></g></svg>