<svg xmlns="http://www.w3.org/2000/svg" viewBox="0 0 40 40" focusable="false" aria-hidden="true"><path fill="none" d="M0 0h40v40H0z"/><g data-name="Icon Green"><path d="M20 8a12 12 0 1 0 12 12A12 12 0 0 0 20 8m.579 10.195-.14 1.456h-3.175a3 3 0 0 0-.016.357 3 3 0 0 0 .016.37h3.067l-.14 1.44H17.73a2.96 2.96 0 0 0 2.571 1.333 2.57 2.57 0 0 0 2.478-1.378l1.967 1.317a5.05 5.05 0 0 1-4.414 2.245 5.24 5.24 0 0 1-5.126-3.516h-1.348l.14-1.44h.93a3 3 0 0 1-.016-.37 3 3 0 0 1 .015-.357h-.821l.14-1.456h.96a5.245 5.245 0 0 1 5.141-3.516 5.08 5.08 0 0 1 4.399 2.23l-1.967 1.316a2.59 2.59 0 0 0-2.494-1.363 2.92 2.92 0 0 0-2.555 1.332Z" fill="#94e3d4"/><path d="M20.284 16.863a2.59 2.59 0 0 1 2.494 1.364l1.967-1.317a5.08 5.08 0 0 0-4.399-2.23 5.245 5.245 0 0 0-5.141 3.516h-.96l-.14 1.456h.82a3 3 0 0 0-.015.356 3 3 0 0 0 .016.371h-.93l-.14 1.44h1.348a5.24 5.24 0 0 0 5.126 3.516 5.05 5.05 0 0 0 4.414-2.245l-1.966-1.317a2.57 2.57 0 0 1-2.478 1.378 2.96 2.96 0 0 1-2.571-1.332h2.462l.14-1.44h-3.067a3 3 0 0 1-.016-.37 3 3 0 0 1 .016-.357h3.175l.14-1.456h-2.85a2.92 2.92 0 0 1 2.555-1.333" fill="#000d6e"/></g></svg>