<svg xmlns="http://www.w3.org/2000/svg" viewBox="0 0 40 40" focusable="false" aria-hidden="true"><path fill="none" d="M0 0h40v40H0z"/><g data-name="Icon Green"><path d="M31.93 25.025a7 7 0 0 1 1.07.091V7.01H7v27h10v-7h6v7h2.22a6.99 6.99 0 0 1 6.71-8.984M25 9h6v6h-6Zm0 9.01h6V24h-6ZM15 24H9v-5.99h6Zm0-9H9V9h6Zm8 9h-6v-5.99h6Zm0-9h-6V9h6Z" fill="#94e3d4"/><path fill="#1b5951" d="M17 27.01h6v7h-6z"/><path d="M31.93 26.025a6 6 0 1 0 6 6 6 6 0 0 0-6-6m-3.423 4.223a1.493 1.493 0 1 1 1.497 1.497 1.475 1.475 0 0 1-1.497-1.497m2.168 4.96-1.158.01 3.61-6.385 1.185-.01Zm3.123.092a1.498 1.498 0 1 1 1.497-1.498 1.48 1.48 0 0 1-1.497 1.498" fill="#94e3d4"/><path d="M30.519 30.248a.52.52 0 1 0-.515.551.523.523 0 0 0 .515-.551M33.798 33.252a.52.52 0 0 0-.515.55.523.523 0 0 0 .515.552.517.517 0 0 0 .514-.552.51.51 0 0 0-.514-.55" fill="#94e3d4"/><path d="M31.492 30.248a1.493 1.493 0 1 0-1.488 1.497 1.467 1.467 0 0 0 1.488-1.497m-2.011 0a.52.52 0 1 1 1.038 0 .52.52 0 0 1-.515.551.525.525 0 0 1-.523-.551M33.128 28.833l-3.611 6.384 1.158-.009 3.637-6.384zM33.798 32.305a1.498 1.498 0 1 0 1.497 1.497 1.48 1.48 0 0 0-1.497-1.497m0 2.049a.523.523 0 0 1-.515-.552.52.52 0 0 1 .515-.55.51.51 0 0 1 .514.55.517.517 0 0 1-.514.552" fill="#000d6e"/></g></svg>