<svg version="1.1" xmlns="http://www.w3.org/2000/svg" x="0px" y="0px" viewBox="0 0 40 40" xml:space="preserve" focusable="false" aria-hidden="true" enable-background="new 0 0 40 40"><path fill="none" d="M0 0h40v40H0z"/><g><path fill="#1B5951" d="M21 3h1v9h-1z"/><path d="M31.754 8H23V3h8.739c.213 0 .325.24.182.39l-1.815 1.905a.225.225 0 0 0-.003.31l1.836 2.009c.138.151.026.386-.185.386" fill="#94E3D4"/><path d="m34.935 35.976-.006-.012-.013.012z" fill="#6C2273"/><path d="M23 31c0-2.971 1.864-5.509 4.481-6.524l-1.47-2.223-.831-5.421L22.013 13h-1.02l-3.351 2.505-.499 2.489-2.549 1.272-3.436 6.583-1.607.332-1.829 4.702.055 2.379L5.043 36l20.05-.016A6.98 6.98 0 0 1 23 31" fill="#1B5951"/><path d="M30 25a6 6 0 1 0 0 12 6 6 0 0 0 0-12m-3.083 6.654c.459 0 .729-.252.837-.648l.644.262c-.171.544-.671 1.021-1.472 1.021-.914 0-1.607-.68-1.607-1.62 0-.945.693-1.625 1.612-1.625.806 0 1.301.495 1.467 1.021l-.644.261c-.108-.392-.383-.648-.842-.648-.536 0-.914.396-.914.991 0 .589.378.985.919.985m4.549.576h-.67v-1.297h-1.193v1.297h-.671v-3.129h.671v1.233h1.193v-1.233h.67zm1.425-2.547v.693h1.242v.581h-1.242v1.273h-.671v-3.129h2.08v.581z" fill="#000D6E"/></g></svg>