<svg data-name="Calque 1" xmlns="http://www.w3.org/2000/svg" viewBox="0 0 40 40" focusable="false" aria-hidden="true"><path d="M0 0h40v40H0z" fill="none"/><path d="M13.98 13.48c0-2.87 2.87-5.48 6.02-5.49a6.2 6.2 0 0 1 5.87 4.36c.55-.4 1.15-.72 1.78-.95a8.19 8.19 0 0 0-7.66-5.41c-4.26 0-8 3.5-8 7.48v4.52h1.98v-4.52Z" fill="#f48d19"/><path d="M29.33 24.97c-.12-.01-.24-.03-.37-.05-.1-.02-.21-.03-.31-.05s-.2-.05-.31-.07l-.35-.09-.27-.09c-.12-.04-.24-.08-.36-.13a7 7 0 0 1-1.18-.62c-.18-.12-.36-.25-.53-.38-.06-.05-.12-.09-.17-.14-.11-.09-.22-.19-.32-.29-.05-.05-.1-.1-.16-.15l-.3-.33c-.05-.05-.09-.1-.14-.15-.1-.12-.19-.25-.28-.38-.03-.05-.07-.1-.11-.15-.12-.17-.22-.35-.33-.53-.06-.11-.11-.23-.17-.34-.04-.08-.08-.15-.11-.23-.06-.13-.1-.26-.15-.39-.03-.07-.06-.14-.08-.22-.04-.13-.08-.27-.12-.41l-.06-.22c-.03-.14-.06-.28-.08-.42 0-.05-.02-.09-.03-.14H10v13.11c.05.53.52.93 1.05.89h17.9c.53.04 1-.35 1.05-.89V25c-.18 0-.36-.01-.53-.03h-.13Zm-7.36 3.36a.507.507 0 0 1-.51.64h-2.93c-.28.02-.51-.2-.53-.47 0-.05 0-.11.02-.16l.85-2.69a2.005 2.005 0 0 1-.53-2.78c.62-.91 1.86-1.15 2.78-.53s1.15 1.86.53 2.78c-.14.21-.33.39-.54.54l.86 2.68Z" fill="#f4da52"/><path d="M22 23.99a2 2 0 1 0-4 0c0 .66.33 1.28.88 1.66l-.85 2.69c-.07.27.09.54.35.62.05.01.1.02.16.02h2.93c.28.02.51-.2.53-.47 0-.05 0-.11-.02-.16l-.86-2.68c.55-.37.89-.99.89-1.66Z" fill="#000d6e"/><path d="M30 12c-3.31 0-6 2.69-6 6s2.69 6 6 6 6-2.69 6-6-2.69-6-6-6m.29 5.1-.07.73h-1.59v.37h1.53l-.07.72h-1.23c.28.43.77.68 1.29.67.51.04 1-.23 1.24-.69l.98.66c-.49.73-1.33 1.16-2.21 1.12a2.6 2.6 0 0 1-2.56-1.76h-.67l.07-.72h.47v-.37h-.41l.07-.73h.48c.38-1.09 1.42-1.8 2.57-1.76.88-.03 1.71.39 2.2 1.12l-.98.66c-.24-.46-.73-.72-1.25-.68-.51-.02-1 .23-1.28.67h1.42Z" fill="#f48d19"/></svg>