<svg xmlns="http://www.w3.org/2000/svg" viewBox="0 0 40 40" focusable="false" aria-hidden="true"><path fill="none" d="M0 0h40v40H0z"/><g data-name="Icon Green"><path d="M30 12a6 6 0 1 0 6 6 6 6 0 0 0-6-6m-2.588 6.855a.72.72 0 0 0 .749-.58l.575.234a1.314 1.314 0 0 1-1.316.914 1.451 1.451 0 0 1 .004-2.902 1.32 1.32 0 0 1 1.312.913l-.575.234a.73.73 0 0 0-.753-.58.886.886 0 0 0 .004 1.767m4.07.515h-.6v-1.159h-1.067v1.159h-.6v-2.797h.6v1.103h1.066v-1.103h.6Zm2.535-2.278h-1.26v.62h1.11v.52h-1.11v1.138h-.6v-2.797h1.86ZM13.978 13.482c0-2.869 2.87-5.48 6.022-5.486a6.21 6.21 0 0 1 5.873 4.363 7 7 0 0 1 1.783-.946A8.2 8.2 0 0 0 20 6c-4.262.006-8 3.5-8 7.482V18h1.978Z" fill="#1b5951"/><path d="M29.335 24.966c-.124-.011-.244-.033-.366-.05-.103-.016-.207-.028-.309-.048-.104-.02-.205-.047-.307-.072-.117-.028-.233-.055-.347-.09q-.136-.04-.27-.09a7 7 0 0 1-.361-.132 6.882 6.882 0 0 1-.817-.396q-.183-.104-.358-.218l-.19-.127a7 7 0 0 1-.344-.257q-.088-.068-.173-.139a7 7 0 0 1-.323-.293q-.079-.073-.155-.148a7 7 0 0 1-.3-.331q-.07-.076-.136-.154a7 7 0 0 1-.282-.377c-.035-.05-.074-.097-.108-.147q-.174-.26-.325-.534c-.061-.112-.114-.229-.17-.344-.036-.077-.077-.152-.11-.23-.056-.126-.102-.256-.15-.386q-.041-.107-.079-.216a7 7 0 0 1-.117-.407q-.03-.11-.057-.22a7 7 0 0 1-.08-.42c-.007-.048-.02-.093-.026-.14H10V32.11a.98.98 0 0 0 1.053.889h17.894A.98.98 0 0 0 30 32.111V25c-.18 0-.357-.014-.534-.027q-.066-.003-.131-.007m-7.358 3.358a.502.502 0 0 1-.512.635h-2.93a.503.503 0 0 1-.513-.633l.855-2.686a2 2 0 1 1 2.237.007Z" fill="#94e3d4"/><path d="M22 23.986a2 2 0 1 0-3.123 1.654l-.855 2.686a.503.503 0 0 0 .513.633h2.93a.502.502 0 0 0 .512-.635l-.863-2.677a2 2 0 0 0 .886-1.66" fill="#000d6e"/></g></svg>