<svg xmlns="http://www.w3.org/2000/svg" viewBox="0 0 40 40" focusable="false" aria-hidden="true"><path fill="none" d="M0 0h40v40H0z"/><g data-name="Icon Purple"><path d="M10.113 12.604c.66 0 1.02-.313 1.02-.805l-.001-.004c-.002.49-.361.801-1.02.801a1.5 1.5 0 0 1-1.486-1.164l-1.607.6.003.006 1.604-.598a1.5 1.5 0 0 0 1.487 1.164M9.357 5.85v-.007a2.163 2.163 0 0 0-2.015 2.183v.003a2.163 2.163 0 0 1 2.015-2.178M12.749 7.572l.002-.001a2.4 2.4 0 0 0-1.955-1.716v.007a2.4 2.4 0 0 1 1.953 1.71M9.046 8.006v.004c0 1.486 3.822.708 3.825 3.666v-.004c0-2.96-3.818-2.185-3.825-3.666M9.357 4.74h1.44v.007h-1.44z" fill="none"/><path d="M17 10.09A7.11 7.11 0 0 0 10 3a7.11 7.11 0 0 0-7 7.09 7 7 0 0 0 14 0m-4.129 1.59a2.33 2.33 0 0 1-2.087 2.291v1.115H9.357v-1.092a2.75 2.75 0 0 1-2.339-1.955l.003-.001-.003-.006 1.607-.6a1.5 1.5 0 0 0 1.487 1.164c.659 0 1.018-.311 1.02-.802-.008-1.6-3.79-.933-3.79-3.761v-.008a2.163 2.163 0 0 1 2.015-2.182V4.74h1.44v1.115A2.4 2.4 0 0 1 12.75 7.57h-.003l.003.007-1.619.612a1.15 1.15 0 0 0-1.151-.972c-.623 0-.934.299-.935.789.007 1.48 3.825.706 3.825 3.666v.003Z" fill="#b8b2ff"/><path d="M9.045 8.01v-.004c.002-.49.313-.788.936-.788a1.15 1.15 0 0 1 1.151.972l1.62-.612-.003-.006a2.4 2.4 0 0 0-1.953-1.71V4.747h-1.44v1.104a2.163 2.163 0 0 0-2.014 2.178v.004c0 2.829 3.783 2.161 3.79 3.762v.004c0 .492-.36.805-1.02.805a1.5 1.5 0 0 1-1.487-1.164l-1.604.599h-.003a2.75 2.75 0 0 0 2.339 1.956v1.091h1.427v-1.115a2.33 2.33 0 0 0 2.087-2.291v-.004c-.003-2.958-3.826-2.18-3.826-3.666" fill="#6c2273"/><path d="M30.04 10A7 7 0 1 0 37 17.04 7 7 0 0 0 30.04 10m.617 5.713-.105 1.035-2.255-.013a2 2 0 0 0-.013.253 2 2 0 0 0 .01.263l2.179.013-.105 1.022-1.75-.01a2.1 2.1 0 0 0 1.821.956 1.82 1.82 0 0 0 1.766-.968l1.392.943a3.59 3.59 0 0 1-3.144 1.577 3.72 3.72 0 0 1-3.628-2.518l-.957-.005.105-1.023.66.004a2 2 0 0 1-.01-.264 2 2 0 0 1 .013-.253l-.583-.004.104-1.033.683.003a3.73 3.73 0 0 1 3.666-2.476 3.61 3.61 0 0 1 3.115 1.603l-1.402.926a1.85 1.85 0 0 0-1.766-.978 2.07 2.07 0 0 0-1.82.936Z" fill="#b8b2ff"/><path d="M30.453 14.766a1.85 1.85 0 0 1 1.766.979l1.403-.927a3.61 3.61 0 0 0-3.115-1.603 3.73 3.73 0 0 0-3.667 2.477l-.683-.004-.104 1.033.583.004a2 2 0 0 0-.013.253 2 2 0 0 0 .01.265l-.66-.004-.105 1.022.957.005a3.72 3.72 0 0 0 3.628 2.519 3.59 3.59 0 0 0 3.144-1.577l-1.391-.944a1.82 1.82 0 0 1-1.766.969 2.1 2.1 0 0 1-1.821-.956l1.749.01.105-1.022-2.178-.013a2 2 0 0 1-.01-.264 2 2 0 0 1 .012-.253l2.255.013.106-1.034-2.025-.011a2.07 2.07 0 0 1 1.82-.937" fill="#000d6e"/><path d="M18.019 23A7 7 0 1 0 25 30.018 7 7 0 0 0 18.018 23m1.567 5.928-.002 1.023h-.048l-1.966-.006-.001.518 2.013.005-.003 1.034h-.047l-1.966-.005-.002.792 3.059.008-.004 1.419h-.047l-4.64-.012.006-2.212-.792-.002.002-1.034.746.002h.047l.001-.516-.792-.002.002-1.023.746.001h.047v-.22a2.397 2.397 0 0 1 2.531-2.411q.014-.002.028-.003a2.28 2.28 0 0 1 2.35 1.372l-1.443.623-.009-.017a.86.86 0 0 0-.87-.57q-.01.002-.02.004a.918.918 0 0 0-.94 1.006v.221Z" fill="#6c2273"/><path d="M18.514 27.696q.01-.002.02-.004a.86.86 0 0 1 .87.57l.008.016 1.443-.623a2.28 2.28 0 0 0-2.35-1.37l-.028.002a2.397 2.397 0 0 0-2.531 2.411v.22h-.047l-.746-.002-.003 1.024.792.002-.001.517h-.048l-.745-.002-.002 1.034.792.002-.006 2.212 4.64.011h.047l.004-1.419-3.058-.007.001-.792 1.967.004h.047l.002-1.034-2.013-.005.001-.517 1.967.005h.047l.003-1.023-2.014-.005.001-.22a.918.918 0 0 1 .94-1.007" fill="#b8b2ff"/></g></svg>