<svg version="1.1" xmlns="http://www.w3.org/2000/svg" x="0px" y="0px" viewBox="0 0 40 40" xml:space="preserve" focusable="false" aria-hidden="true" enable-background="new 0 0 40 40"><path fill="none" d="M0 0h40v40H0z"/><g><path d="M28.5 18c1.04 0 2.043.157 2.992.44.327-1.091.508-2.244.508-3.44 0-6.617-5.383-12-12-12S8 8.383 8 15c0 5.984 4.408 10.945 10.144 11.841C18.943 21.839 23.276 18 28.5 18" fill="#94E3D4"/><path d="M27.471 10.055h-3a.5.5 0 0 0 0 1h1.768l-5.156 4.757-3.678-3.604a.504.504 0 0 0-.685-.015l-5.515 4.961a.5.5 0 0 0 .669.744l5.166-4.647 3.683 3.607a.5.5 0 0 0 .689.01l5.559-5.129v1.815a.5.5 0 0 0 1 0v-3a.5.5 0 0 0-.5-.499" fill="#000D6E"/><path d="M38 28.5c0 1.77-.49 3.44-1.33 4.86-.41.68-.89 1.3-1.45 1.86a9.48 9.48 0 0 1-5 2.62q-.705.135-1.44.15c-.09.01-.19.01-.28.01h-.23c-.49-.01-.98-.06-1.45-.15a9.43 9.43 0 0 1-4.99-2.58c-.55-.55-1.04-1.16-1.45-1.82A9.56 9.56 0 0 1 19 28.5c0-5.25 4.25-9.5 9.5-9.5s9.5 4.25 9.5 9.5" fill="#1B5951"/><path d="M26.497 28.857c.09 0 .169-.047.239-.112-.071.064-.15.111-.241.111zM23.745 31.237l-.061-.032zM26.8 27.727c-.079-.103-.182-.171-.297-.174l-.002-.293h-.002l.004.296c.114 0 .217.068.297.171M24.107 31.352c-.043-.007-.086-.01-.127-.022.041.012.084.015.127.022M22.161 28.857c-.096 0-.179-.052-.252-.123.073.072.155.123.25.123a.34.34 0 0 0 .172-.05v-.002a.33.33 0 0 1-.17.052M22.157 26.723l-.002-.28-.002.003.002.278v.006l.005.618-.003-.62z" fill="none"/><path d="M25.397 30.761v-.074l-.013-.196-.033-.464q.156-.096.295-.217c.227-.195.416-.441.561-.72.047-.09.094-.181.131-.279.043.024.097.04.146.043l.009.003h.001c.091 0 .17-.047.241-.111a.73.73 0 0 0 .217-.542.8.8 0 0 0-.153-.476c-.08-.103-.183-.171-.298-.171l-.004-.296c-.587-.17-1.802-.534-2.522-.912-.843-.443-1.451-.088-1.811.084l-.01.01.002.28v.004l.003.62v.202c-.127 0-.242.074-.324.192a.8.8 0 0 0-.133.462c0 .221.082.407.2.526l.006.005c.073.071.156.123.252.123.059 0 .118-.02.17-.052q.068.181.159.346l.01.022q.012.019.025.037c.194.33.453.604.76.797l-.033.778-.001.018h.002a1.3 1.3 0 0 0 .727.527c.041.011.085.015.127.022.072.012.143.028.219.028.452 0 .836-.228 1.071-.575v-.044z" fill="#94E3D4"/><path d="M30.79 26.733c.128.046.271.076.438.076 1.032 0 1.797-.558 2.367-1.19.203.468.643.986 1.084 1.3.063.045.197 1.058.197 1.058.074-.099.131-.209.18-.324.438-1.031-.099-2.58-.982-2.476-.17-.218-.758-.56-1.309-.56s-1.159.492-1.501.492c-.22 0-.609-.075-.816-.391-.106.315-.06.625.135.747-.252.176-.537.048-.704-.096 0 0 .049.553.377.974-.039.304-.05.833.157 1.311q.07.169.181.323zM22.01 31.092l1.242-.288h.001v-.018l.033-.778a2.34 2.34 0 0 1-.76-.797q-.013-.019-.025-.037l-.01-.022a2.6 2.6 0 0 1-.159-.344.34.34 0 0 1-.172.05c-.095 0-.177-.052-.25-.123l-.006-.005a.74.74 0 0 1-.2-.526.8.8 0 0 1 .133-.462c.083-.118.197-.192.324-.192v-.202l-.005-.618v-.006l-.002-.278.002-.003.01-.01c.36-.172.969-.527 1.811-.084.72.378 1.935.742 2.522.912h.002l.003.293c.115.002.218.07.297.173a.8.8 0 0 1 .153.476.73.73 0 0 1-.217.542c-.071.065-.149.112-.239.112l-.002-.001h-.001l-.009-.003a.35.35 0 0 1-.147-.043c-.037.098-.084.188-.131.279a2.4 2.4 0 0 1-.856.937l.033.464.013.196v.11699999999999999l.001-.001 1.244.289c.299.08.555.175.776.289v-3.682c0-.096-.015-.187-.021-.281a4 4 0 0 0-.209-1.049q-.02-.05-.04-.099c-.049-.125-.097-.251-.157-.366a3 3 0 0 0-.265-.434q-.019-.033-.041-.064l-.046-.073c-.423-.659-1.284-1.199-2.288-1.199-.025 0-.047.007-.072.008a2.8 2.8 0 0 0-.961.201 2.8 2.8 0 0 0-.98.647 3 3 0 0 0-.408.437q-.015.017-.029.036a3.2 3.2 0 0 0-.319.537l-.019.039a4 4 0 0 0-.188.53c-.011.037-.028.069-.038.107l-.005.02c-.029.116-.038.242-.057.363-.019.12-.049.236-.057.361-.006.093-.014.186-.014.281v3.7a3.6 3.6 0 0 1 .805-.308" fill="#000D6E"/><path d="M28.27 32.76V38c-.49-.01-.98-.06-1.45-.15a9.43 9.43 0 0 1-4.99-2.58c-.55-.55-1.04-1.16-1.45-1.82v-.69c0-.67.29-1.08.82-1.36.18-.1.39-.18.63-.25l.18-.06 1.24-.29c.06.08.13.16.2.23 0 .01 0 .01.01.01.06.06.14.12.22.16.09.06.19.1.3.13.04.01.08.01.13.02.03.01.07.01.11.02s.07.01.11.01c.45 0 .83-.23 1.07-.58l1.24.29c.06.02.12.04.18.05v.01c.23.06.43.14.6.23.55.29.85.7.85 1.38" fill="#94E3D4"/><path d="M26.82 31.14v6.71a9.43 9.43 0 0 1-4.99-2.58v-4.13c.06-.01.12-.03.18-.05l1.24-.29c.06.09.13.16.2.23 0 .01 0 .01.01.01.06.06.14.12.22.16.09.06.19.1.3.13.08.02.16.04.24.04.04.01.07.01.11.01.45 0 .83-.23 1.07-.58l1.24.29c.06.02.12.04.18.05" fill="#1B5951"/><path d="M30.594 28.886q.091-.001.17-.049c.186.507.523.918.942 1.183l-.047.674-.012.112.003-.001c.235.348.618.575 1.071.575s.834-.226 1.069-.573v-.009l-.048-.759c.434-.263.783-.681.974-1.199a.33.33 0 0 0 .158.046c.248 0 .448-.288.448-.644 0-.264-.11-.489-.268-.588a1.6 1.6 0 0 1-.18.324s-.134-1.013-.197-1.058c-.441-.314-.881-.833-1.084-1.3-.571.631-1.335 1.19-2.367 1.19-.167 0-.309-.03-.438-.076l-.196 1.244a1.6 1.6 0 0 1-.181-.323c-.157.1-.267.324-.267.587.002.356.203.644.45.644M29.6 31.4c.18-.1.39-.18.62-.25v6.69q-.705.135-1.44.15v-5.23c.04-.87.29-1.08.82-1.36M36.67 32.76v.6c-.41.68-.89 1.3-1.45 1.86v-4.07c.22.07.42.14.59.23.56.29.85.55.86 1.38" fill="#94E3D4"/><path d="M38 28.5c0 1.77-.49 3.44-1.33 4.86-.41.68-.89 1.3-1.45 1.86a9.48 9.48 0 0 1-5 2.62q-.705.135-1.44.15c-.09.01-.19.01-.28.01h-.23c-.49-.01-.98-.06-1.45-.15a9.43 9.43 0 0 1-4.99-2.58c-.55-.55-1.04-1.16-1.45-1.82A9.56 9.56 0 0 1 19 28.5c0-5.25 4.25-9.5 9.5-9.5s9.5 4.25 9.5 9.5" fill="none"/><path d="M35.22 31.14v4.08a9.48 9.48 0 0 1-5 2.62v-6.7c.07-.01.13-.03.19-.05l1.24-.29c.24.35.62.58 1.07.58.46 0 .84-.23 1.07-.58l1.25.29c.06.02.12.04.18.05" fill="#1B5951"/></g></svg>