<svg xmlns="http://www.w3.org/2000/svg" viewBox="0 0 40 40" focusable="false" aria-hidden="true"><path fill="none" d="M0 0h40v40H0z"/><g><circle cx="12" cy="21.50000001" r="1.5" fill="none"/><circle cx="28" cy="21.50000001" r="1.5" fill="none"/><path d="M31.5 24.166v-3.628c0-.528-.1-1.05-.295-1.538l-.977-3H9.772l-.977 3a4.2 4.2 0 0 0-.295 1.538V26h16.61a6.97 6.97 0 0 1 6.39-1.834M12 23a1.5 1.5 0 1 1 0-3 1.5 1.5 0 0 1 0 3m16 0a1.5 1.5 0 1 1 0-3 1.5 1.5 0 0 1 0 3M8.5 30a1 1 0 0 0 1 1h3a1 1 0 0 0 1-1v-3h-5z" fill="#1b5951"/><rect x="30.5" y="13.00000001" width="3" height="2" rx=".5" ry=".5" fill="#1b5951"/><rect x="6.5" y="13.00000001" width="3" height="2" rx=".5" ry=".5" fill="#1b5951"/><path d="M27.445 8.846C27 7.728 25.952 7 24.792 7h-9.584c-1.16 0-2.207.728-2.653 1.846L10.097 15h19.806z" fill="#94e3d4"/><path d="M30 25a6 6 0 1 0 0 12 6 6 0 0 0 0-12m.543 5.179-.054.612H28.7q-.01.119-.008.251c0 .086 0 .164.008.243h1.71l-.063.611h-1.522c.235.66.76 1.004 1.412 1.004.807 0 1.223-.431 1.388-1.074l.855.259c-.243.91-.941 1.639-2.267 1.639-1.223 0-2.117-.65-2.408-1.828h-.682l.07-.61h.526c-.008-.08-.008-.158-.008-.244q-.002-.132.008-.251h-.455l.055-.612h.502c.314-1.137 1.255-1.835 2.408-1.835 1.31 0 2.023.776 2.251 1.678l-.87.228c-.174-.612-.597-1.083-1.365-1.083-.66 0-1.177.361-1.412 1.012z" fill="#000d6e"/></g></svg>