<svg xmlns="http://www.w3.org/2000/svg" viewBox="0 0 40 40" focusable="false" aria-hidden="true"><path fill="none" d="M0 0h40v40H0z"/><g data-name="Icon Tangerine"><path d="M31 19v-4.89A1.06 1.06 0 0 0 30 13h-9.5v6zm-21-6c-.58.03-1.03.53-1 1.11V19h10.52v-6z" fill="#fa9319"/><path d="M20.5 36H30c.55 0 .99-.42 1-.97V20H20.51v16Zm-1-16H8.99v15.03c0 .55.43.97.97.97h9.52V20Z" fill="#fae052"/><path fill="#000d6e" d="M19.5 13h1.01v23H19.5z"/><path d="M27.79 7.82c-1.5-1.48-4.49-.26-6.08 1.27-1.36 1.3-1.62 2.3-1.71 3.28v.44-.43c-.09-.98-.35-1.98-1.71-3.28-1.59-1.53-4.58-2.75-6.08-1.27-.94.92-.9 2.78.54 3.99 1.11.93 2.19 1.19 3.53 1.19h7.44c1.34 0 2.43-.26 3.53-1.19 1.44-1.21 1.48-3.07.54-3.99ZM16.27 12c-1.28 0-2.07-.25-2.89-.95-.68-.57-.81-1.21-.82-1.54-.02-.4.11-.75.34-.98.26-.26.62-.38 1.1-.38 1.08 0 2.59.7 3.59 1.66.97.93 1.25 1.61 1.36 2.2h-2.68Zm10.33-.95c-.83.7-1.61.95-2.9.95h-2.67c.11-.58.38-1.26 1.36-2.2 1-.96 2.52-1.66 3.59-1.66.48 0 .84.13 1.1.38.23.23.35.58.34.98-.01.33-.14.97-.82 1.54Z" fill="#000d6e"/></g></svg>