<svg xmlns="http://www.w3.org/2000/svg" viewBox="0 0 40 40" focusable="false" aria-hidden="true"><path fill="none" d="M0 0h40v40H0z"/><g data-name="Icon Green"><path d="M18.51 16.08a6.78 6.78 0 0 1-6.78-6.78 6.78 6.78 0 0 1 6.78 6.78" fill="#1b5951"/><path d="M29.25 7.59c-5.38 0-9.74 4.36-9.74 9.74v8.25h1v-8.29c4.98-.43 8.74-4.6 8.74-9.7" fill="#000d6e"/><path d="m13 24 1.31 11.42c.13.91.9 1.59 1.8 1.59h7.77c.91 0 1.68-.68 1.8-1.59L26.99 24h-14Z" fill="#94e3d4"/><path d="m22.72 6.49-3.21-3.4-3.1 3.38c-.13.14-.12.36.02.49l.1.09c.14.13.36.12.49-.02L19 4.94v5.55a.495.495 0 0 0 .99.04v-5.6l2.11 2.11c.13.14.35.15.49.02l.1-.09c.14-.13.15-.35.02-.49Z" fill="#000d6e"/></g></svg>