<svg version="1.1" xmlns="http://www.w3.org/2000/svg" x="0px" y="0px" viewBox="0 0 40 40" xml:space="preserve" focusable="false" aria-hidden="true" enable-background="new 0 0 40 40"><path fill="none" d="M0 0h40v40H0z"/><g><path d="M28.433 8.422q.018-.16.018-.324c0-2.258-2.557-4.088-5.712-4.088-1.448 0-2.77.386-3.777 1.022a8 8 0 0 0-.648-.026c-2.767 0-5.074 1.408-5.599 3.277-2.997.126-5.373 1.904-5.373 4.08 0 2.258 2.557 4.088 5.712 4.088 1.21 0 2.333-.27 3.256-.729.924.46 2.046.729 3.256.729 1.399 0 2.681-.36 3.674-.958.993.598 2.275.958 3.674.958 3.154 0 5.712-1.83 5.712-4.088 0-1.881-1.776-3.465-4.193-3.941" fill="#94E3D4"/><path d="M29.824 19.301a.54.54 0 0 0-.487-.303h-5.083l4.637-6.206a.543.543 0 1 0-.87-.65l-5.286 7.074a.543.543 0 0 0 .435.868h5.063l-4.496 5.834-.319-3.45a.39.39 0 0 0-.427-.354l-.147.014a.39.39 0 0 0-.354.426l.48 5.176 5.128-.855a.39.39 0 0 0 .322-.451l-.024-.146a.39.39 0 0 0-.451-.323l-3.291.549 5.113-6.634a.54.54 0 0 0 .057-.569" fill="#000D6E"/><path d="M9.712 20.099a.5.5 0 0 0 .409-.211l1.516-2.14a.5.5 0 0 0-.816-.578l-1.516 2.14a.5.5 0 0 0 .407.789M9.067 22.262a1 1 0 1 0-1.635-1.151 1 1 0 0 0 1.635 1.151M14.801 18.963a.5.5 0 0 0-.697.119l-3.706 5.228a.499.499 0 1 0 .816.578l3.706-5.228a.5.5 0 0 0-.119-.697M8.365 25.94a1 1 0 1 0 1.636 1.15 1 1 0 0 0-1.636-1.15M16.007 24.53a.5.5 0 0 0 .408-.211l3.472-4.897a.499.499 0 1 0-.816-.578L15.6 23.741a.499.499 0 0 0 .407.789M15.347 26.683a1 1 0 1 0-1.635-1.151 1 1 0 0 0 1.635 1.151M20.42 24.08a.5.5 0 0 0-.697.119l-3.046 4.297a.499.499 0 1 0 .816.578l3.046-4.297a.5.5 0 0 0-.119-.697M14.644 30.126a1 1 0 1 0 1.636 1.15 1 1 0 0 0-1.636-1.15" fill="#1B5951"/></g></svg>