<svg data-name="Ebene 1" xmlns="http://www.w3.org/2000/svg" viewBox="0 0 1080 1080" focusable="false" aria-hidden="true"><path d="M388.53 859h302.95c49.57-42.63 80.96-105.79 80.96-176.3 0-128.37-104.07-232.44-232.44-232.44S307.56 554.33 307.56 682.7c0 70.5 31.4 133.67 80.96 176.3Z" fill="#b8b2ff"/><path d="M718.95 568.52H364.16c-9.47 0-17.14-7.67-17.14-17.14s7.67-17.14 17.14-17.14h354.79c9.47 0 17.14 7.67 17.14 17.14s-7.67 17.14-17.14 17.14M769.65 713.76h-459.3c-9.47 0-17.14-7.67-17.14-17.14s7.67-17.14 17.14-17.14h459.3c9.47 0 17.14 7.67 17.14 17.14s-7.67 17.14-17.14 17.14M707.32 859H375.79c-9.47 0-17.14-7.67-17.14-17.14s7.67-17.14 17.14-17.14h331.53c9.47 0 17.14 7.67 17.14 17.14S716.79 859 707.32 859" fill="#6c2273"/><path d="M664.89 844.47V492.68c0-9.47 7.67-17.14 17.14-17.14s17.14 7.67 17.14 17.14v351.79M380.83 844.47V492.68c0-9.47 7.67-17.14 17.14-17.14s17.14 7.67 17.14 17.14v351.79M522.86 843.22v-392.3c13.77-1.18 20.24-1.19 34.28 0v392.3" fill="#6c2273"/><path fill="#000d6e" d="M523.14 415h33.72v35.92h-33.72z"/><rect x="481.68" y="221" width="116.64" height="194" rx="31.16" ry="31.16" fill="#6c2273"/><path d="M415.35 456.53c-55.39 0-100.45-45.06-100.45-100.45s45.06-100.45 100.45-100.45S515.8 300.69 515.8 356.08s-45.06 100.45-100.45 100.45m0-166.62c-36.49 0-66.17 29.68-66.17 66.17s29.68 66.17 66.17 66.17 66.17-29.68 66.17-66.17-29.68-66.17-66.17-66.17" fill="#6c2273"/></svg>