<svg xmlns="http://www.w3.org/2000/svg" viewBox="0 0 40 40" focusable="false" aria-hidden="true"><path fill="none" d="M0 0h40v40H0z"/><g><path d="M30.15 32.95h-2.03c-.08-.08-.19-.35-.25-.5-.15-.38-.34-.86-.82-.9-.58-.05-.95.48-1.24.91-.08.12-.2.29-.29.39-.08-.17-.17-.51-.23-.72-.18-.69-.37-1.4-.97-1.54-.72-.17-1.44.59-2.48 2.61a.466.466 0 0 0 .41.68c.17 0 .33-.09.41-.25.86-1.68 1.31-2.03 1.44-2.11.11.15.22.6.29.85.18.69.37 1.4 1 1.48.55.07.89-.42 1.18-.86.08-.12.22-.32.33-.44.04.08.07.17.1.24.17.43.43 1.08 1.08 1.08h2.06c.26 0 .46-.21.46-.46s-.21-.46-.46-.46Z" fill="#1b5951"/><circle cx="25.98" cy="13.97" r="5" fill="none"/><path d="M29 14.54c0 .23-.19.41-.41.41H27v1.59c0 .23-.19.41-.41.41h-1.18c-.23 0-.41-.19-.41-.41v-1.59h-1.59c-.23 0-.41-.19-.41-.41v-1.18c0-.23.19-.41.41-.41H25v-1.59c0-.23.19-.41.41-.41h1.18c.23 0 .41.19.41.41v1.59h1.59c.23 0 .41.19.41.41z" fill="none"/><path d="M28.59 12.95H27v-1.59c0-.23-.19-.41-.41-.41h-1.18c-.23 0-.41.19-.41.41v1.59h-1.59c-.23 0-.41.19-.41.41v1.18c0 .23.19.41.41.41H25v1.59c0 .23.19.41.41.41h1.18c.23 0 .41-.19.41-.41v-1.59h1.59c.23 0 .41-.19.41-.41v-1.18c0-.23-.19-.41-.41-.41" fill="none"/><path d="M32 5H8c-.55 0-1 .45-1 1v30.04c0 .55.45 1 1 1h24c.55 0 1-.45 1-1V6c0-.55-.45-1-1-1m-3 9.54c0 .23-.19.41-.41.41H27v1.59c0 .23-.19.41-.41.41h-1.18c-.23 0-.41-.19-.41-.41v-1.59h-1.59c-.23 0-.41-.19-.41-.41v-1.18c0-.23.19-.41.41-.41H25v-1.59c0-.23.19-.41.41-.41h1.18c.23 0 .41.19.41.41v1.59h1.59c.23 0 .41.19.41.41z" fill="#6c2273"/><path d="M28.59 12.95H27v-1.59c0-.23-.19-.41-.41-.41h-1.18c-.23 0-.41.19-.41.41v1.59h-1.59c-.23 0-.41.19-.41.41v1.18c0 .23.19.41.41.41H25v1.59c0 .23.19.41.41.41h1.18c.23 0 .41-.19.41-.41v-1.59h1.59c.23 0 .41-.19.41-.41v-1.18c0-.23-.19-.41-.41-.41" fill="none"/><path d="M25.98 8.97c-2.76 0-5 2.24-5 5s2.24 5 5 5 5-2.24 5-5-2.24-5-5-5M29 14.54c0 .23-.18.41-.41.41H27v1.59c0 .23-.18.41-.41.41h-1.17c-.23 0-.42-.18-.42-.41v-1.59h-1.58c-.23 0-.42-.18-.42-.41v-1.17c0-.23.19-.42.42-.42H25v-1.58c0-.23.19-.42.42-.42h1.17c.23 0 .41.19.41.42v1.58h1.59c.23 0 .41.19.41.42z" fill="#000d6e"/><path d="M8 6v30.04h24V6zm17.98 12.97c-2.76 0-5-2.24-5-5s2.24-5 5-5 5 2.24 5 5-2.24 5-5 5" fill="#b8b2ff"/><path d="M12.53 21h7c.28 0 .5-.22.5-.5s-.22-.5-.5-.5h-7c-.28 0-.5.22-.5.5s.22.5.5.5M24.5 23H12.53c-.28 0-.5.22-.5.5s.22.5.5.5H24.5c.28 0 .5-.22.5-.5s-.22-.5-.5-.5M24.5 26H12.53c-.28 0-.5.22-.5.5s.22.5.5.5H24.5c.28 0 .5-.22.5-.5s-.22-.5-.5-.5M30.56 33.07h-2.03c-.08-.08-.19-.35-.25-.5-.15-.38-.34-.86-.82-.9-.58-.05-.95.48-1.24.91-.08.12-.2.29-.29.39-.08-.17-.17-.51-.23-.72-.18-.69-.37-1.4-.97-1.54-.72-.17-1.44.59-2.48 2.61a.466.466 0 0 0 .41.68c.17 0 .33-.09.41-.25.86-1.68 1.31-2.03 1.44-2.11.11.15.22.6.29.85.18.69.37 1.4 1 1.48.55.07.89-.42 1.18-.86.08-.12.22-.32.33-.44.04.08.07.17.1.24.17.43.43 1.08 1.08 1.08h2.06c.26 0 .46-.21.46-.46s-.21-.46-.46-.46ZM25 3H15c-.83 0-1.5.67-1.5 1.49v2.02c0 .82.67 1.49 1.5 1.49h10c.83 0 1.5-.67 1.5-1.49V4.49C26.5 3.67 25.83 3 25 3" fill="#6c2273"/></g></svg>