<svg xmlns="http://www.w3.org/2000/svg" viewBox="0 0 40 40" focusable="false" aria-hidden="true"><path fill="none" d="M0 0h40v40H0z"/><g data-name="Icon Tangerine"><path d="m16.565 14.278-.018-.03-.101-.039.098.07Z" fill="none"/><path d="M22.316 29.893a37.4 37.4 0 0 0-3.03-13.166l-1.505-1.081-.643 1.024c.156.549.323 1.18.493 1.919a78 78 0 0 1 1.26 11.319 13.5 13.5 0 0 1 3.424-.015Z" fill="#fa9319"/><path d="M10.203 13.268A6.85 6.85 0 0 0 6 19.168l5.289-2.017c-.064.096-.139.182-.198.282a6.78 6.78 0 0 0 .21 6.913l6.237-9.935 9.463 6.796a6.85 6.85 0 0 0-2.588-6.764 6.2 6.2 0 0 0-3.303-1.125l7.427-2.779a6.85 6.85 0 0 0-7.055-1.646 6.1 6.1 0 0 0-2.16 1.397l2.826-6.182a6.85 6.85 0 0 0-6.158 3.816 6.1 6.1 0 0 0-.533 2.315 6.16 6.16 0 0 0-2.342-1.59A6.85 6.85 0 0 0 6.05 10.26l6.928 2.633a6.2 6.2 0 0 0-2.776.375m6.344.98.018.03-.021.002-.098-.07Z" fill="#fae052"/><path d="M22.316 29.893a13.5 13.5 0 0 0-3.424.015 13.08 13.08 0 0 0-8.858 5.05h21.225a13.1 13.1 0 0 0-8.943-5.065" fill="#000d6e"/></g></svg>