<svg xmlns="http://www.w3.org/2000/svg" viewBox="0 0 40 40" focusable="false" aria-hidden="true"><path fill="none" d="M0 0h40v40H0z"/><g><path fill="#d9304c" d="M24 9h-8l-3 11h14z"/><path d="M25 32.01h-4V21h-2v11.01h-4c-.55 0-1 .45-1 1v1h12v-1c0-.55-.45-1-1-1" fill="#ffaca6"/><path fill="#000d6e" d="M22.5 21h1v5h-1zM14.94 3.04l-1.06 1.72v1.18h-.62V4.76L12.2 3.04h.69l.68 1.19.68-1.19zM14.54 4.85c0-.66.49-1.15 1.19-1.15s1.19.49 1.19 1.15S16.42 6 15.73 6s-1.19-.5-1.19-1.15m1.76 0c0-.35-.23-.6-.57-.6s-.57.25-.57.6.23.6.57.6.57-.25.57-.61ZM18.7 3.74h.62v2.2h-.58v-.21c-.15.16-.38.26-.64.26-.56 0-.85-.38-.85-.89V3.73h.62v1.29c0 .24.16.41.42.41s.42-.17.42-.4v-1.3ZM21.88 4.56v1.39h-.61V4.68c0-.28-.18-.44-.43-.44s-.44.18-.44.4v1.3h-.62v-2.2h.59v.21c.15-.16.38-.26.66-.26.53 0 .86.36.86.87ZM25.19 4.39c0 1.03-.64 1.61-1.47 1.61s-1.51-.64-1.51-1.51.64-1.51 1.51-1.51c.71 0 1.18.42 1.35.88l-.59.25c-.11-.33-.38-.54-.77-.54-.52 0-.86.38-.86.93s.35.93.93.93c.4 0 .69-.18.81-.58h-.88v-.47h1.49ZM25.42 4.85c0-.66.49-1.15 1.19-1.15s1.19.49 1.19 1.15S27.3 6 26.61 6s-1.19-.5-1.19-1.15m1.76 0c0-.35-.23-.6-.57-.6s-.57.25-.57.6.23.6.57.6.57-.25.57-.61Z"/></g></svg>