<svg xmlns="http://www.w3.org/2000/svg" viewBox="0 0 40 40" focusable="false" aria-hidden="true"><path fill="none" d="M0 0h40v40H0z"/><g><path d="M11 17v3h18v-3c0-1.103.897-2 2-2h2v-4a3 3 0 0 0-3-3H10a3 3 0 0 0-3 3v4h2c1.103 0 2 .897 2 2" fill="#6c2273"/><path d="M8 32a1 1 0 0 0 2 0v-2H8z" fill="#000d6e"/><path d="M32 25c1.487 0 2.865.47 4 1.264V17a1 1 0 0 0-1-1h-4a1 1 0 0 0-1 1v4H10v-4a1 1 0 0 0-1-1H5a1 1 0 0 0-1 1v13h21.295c.863-2.888 3.54-5 6.705-5" fill="#b8b2ff"/><circle cx="32" cy="32.00000001" r="6" fill="#b8b2ff"/><path d="M34.5 31.5h-2v-2a.5.5 0 1 0-1 0v2h-2a.5.5 0 1 0 0 1h2v2a.5.5 0 1 0 1 0v-2h2a.5.5 0 1 0 0-1" fill="#000d6e"/></g></svg>