<svg xmlns="http://www.w3.org/2000/svg" viewBox="0 0 40 40" focusable="false" aria-hidden="true"><path fill="none" d="M0 0h40v40H0z"/><g><path d="M12.88 12.18c-4.32 0-7.82 3.5-7.82 7.82s3.5 7.82 7.82 7.82 7.82-3.5 7.82-7.82-3.5-7.82-7.82-7.82m0 11.85c-2.23 0-4.03-1.81-4.03-4.03s1.81-4.03 4.03-4.03 4.03 1.81 4.03 4.03-1.81 4.03-4.03 4.03M32.79 18.35a.5.5 0 0 1-.35.15h-5a.54.54 0 0 1-.46-.32c-.08-.19-.03-.4.11-.54l1.99-1.99a.5.5 0 0 1 .35-.15h5.01c.2 0 .39.12.46.31.08.19.03.4-.11.54z" fill="#94e3d4"/><path d="M27.44 21.5h5.01c.13 0 .26.05.35.15l1.99 1.99a.499.499 0 0 1-.35.85h-4.99v.01a.47.47 0 0 1-.35-.15l-2-2a.499.499 0 0 1 .35-.85Z" fill="#1b5951"/><path d="M34.44 19.5H13.68l1.2-1.2c.2-.2.2-.51 0-.71s-.51-.2-.71 0l-2.12 2.12c-.2.2-.2.51 0 .71l2.12 2.12a.485.485 0 0 0 .7 0c.2-.2.2-.51 0-.71l-1.34-1.34h20.89c.28 0 .5-.22.5-.5s-.22-.5-.5-.5Z" fill="#000d6e"/></g></svg>