<svg version="1.1" xmlns="http://www.w3.org/2000/svg" x="0px" y="0px" viewBox="0 0 40 40" xml:space="preserve" focusable="false" aria-hidden="true" enable-background="new 0 0 40 40"><path fill="none" d="M0 0h40v40H0z"/><g><path d="M28.91 24.66c-.02-1.88-.68-2.48-1.93-3.13-.5-.25-1.08-.47-1.75-.65l-2.82-.65v.01c-.13.19-.28.37-.46.52-.34.32-.76.55-1.23.68-.23.06-.48.09-.73.09-.17 0-.33-.03-.5-.06-.065-.015-.135-.024-.204-.036-.12-.03-.241-.058-.356-.104-.14-.05-.27-.11-.39-.19-.1-.06-.19-.12-.28-.19-.18-.12-.34-.28-.49-.45q-.12-.135-.21-.27l-.26.06-2.55.59c-.47.13-.9.27-1.28.44-.19.07-.38.16-.55.25-1.19.65-1.77 1.11-1.85 3.09v4.15l-1.04 3.25-.02.08c-.09.32-.13.65-.11.96.07 1.42 1.228 2.764 2.61 2.9h17.55z" fill="#FA9319"/><path d="M15.616 11.022c.29.104.613.172.99.172 2.334 0 4.064-1.263 5.354-2.691.459 1.058 1.455 2.231 2.453 2.941.142.101.445 2.392.445 2.392.167-.224.297-.473.407-.732.992-2.333-.224-5.835-2.222-5.6-.384-.494-1.715-1.266-2.962-1.266S17.459 7.35 16.685 7.35c-.498 0-1.376-.17-1.845-.884-.239.713-.135 1.414.305 1.69-.569.398-1.215.108-1.592-.217 0 0 .11 1.251.853 2.202-.088.689-.113 1.885.356 2.965.11.253.241.5.41.73z" fill="#000D6E"/><path d="M15.173 15.891a.75.75 0 0 0 .385-.112 5.3 5.3 0 0 0 2.132 2.675l-.105 1.525-.026.252.007-.002a2.89 2.89 0 0 0 2.422 1.3c1.022 0 1.886-.51 2.418-1.295v-.02l-.108-1.714a5.3 5.3 0 0 0 2.203-2.713c.112.061.23.104.357.104.56 0 1.014-.652 1.014-1.457 0-.596-.25-1.105-.607-1.33-.11.26-.24.509-.407.732 0 0-.303-2.292-.445-2.392-.998-.71-1.994-1.884-2.453-2.941-1.29 1.428-3.02 2.691-5.354 2.691-.377 0-.7-.068-.99-.172l-.443 2.815a3.7 3.7 0 0 1-.41-.73c-.355.227-.604.734-.604 1.328 0 .804.454 1.456 1.014 1.456M26.254 32.586h-2.065l.38-.135a.426.426 0 0 0 .259-.545.42.42 0 0 0-.546-.258l-1.578.562-.344.127L24.148 36h2.106c.041 0 .08-.009.121-.012a1.703 1.703 0 0 0 1.59-1.695 1.71 1.71 0 0 0-1.711-1.707" fill="#FAE052"/><path d="m16.572 20.458-1.822.422c-.47.13-.9.27-1.28.44l-2.39 7.46-.01.03-1.04 3.25-.02.08c-.09.32-.13.65-.11.96.07 1.42 1.228 2.764 2.61 2.9h11.638l-7.563-15.491c-.008-.016-.007-.034-.013-.051" fill="#000D6E"/></g></svg>