<svg version="1.1" xmlns="http://www.w3.org/2000/svg" x="0px" y="0px" viewBox="0 0 40 40" xml:space="preserve" focusable="false" aria-hidden="true" enable-background="new 0 0 40 40"><path fill="none" d="M0 0h40v40H0z"/><g><path d="M30 24c.331 0 .654.031.974.076A9.4 9.4 0 0 0 31.446 22h.608C33.127 22 34 21.167 34 20.144V19a.5.5 0 0 0-1 0v1.144c0 .472-.425.856-.946.856H31.5c0-2.851-1.251-5.374-3.183-7.022q-.081-.073-.166-.144a9 9 0 0 0-.567-.416 8 8 0 0 0-.367-.24c-.083-.05-.159-.112-.244-.16q0 .012-.003.022c-.159-.09-.313-.188-.478-.266a7.9 7.9 0 0 0-3.4-.774h-6.388A4 4 0 0 0 13 9.5v3.06l-.008.002c-.076.03-.144.073-.219.105-.24.104-.478.214-.707.34-.134.074-.261.158-.39.239-.17.107-.338.216-.5.335a8.617 8.617 0 0 0-.821.688c-.117.11-.234.218-.344.335-.141.149-.272.309-.403.469-.083.101-.177.193-.256.298h.01A9.2 9.2 0 0 0 7.988 18H7.25C6.56 18 6 18.56 6 19.25v3.5c0 .69.56 1.25 1.25 1.25h.738c.772 2.336 2.412 4.228 4.512 5.225a7.9 7.9 0 0 0 3.4.775h7.18c.488-3.387 3.401-6 6.92-6m-16.875-5a1.125 1.125 0 1 1 0-2.25 1.125 1.125 0 0 1 0 2.25" fill="#FAE052"/><circle cx="13.125" cy="17.875" r="1.125" fill="none"/><path d="M12.5 32.75a1.25 1.25 0 0 0 2.5 0v-2.803a7.9 7.9 0 0 1-2.5-.721z" fill="#FA9319"/><path d="M23.532 15.024h-6a.5.5 0 0 1 0-1h6a.5.5 0 0 1 0 1M30 25a6 6 0 1 0 0 12 6 6 0 0 0 0-12m.543 5.179-.055.612H28.7c-.008.078-.008.164-.008.251 0 .086 0 .164.008.243h1.709l-.062.611h-1.521c.235.659.761 1.004 1.412 1.004.808 0 1.224-.432 1.388-1.074l.855.259c-.243.909-.941 1.639-2.267 1.639-1.224 0-2.118-.65-2.408-1.827h-.682l.071-.611h.525c-.008-.079-.008-.157-.008-.243 0-.087 0-.173.008-.251h-.455l.055-.612h.502c.313-1.137 1.255-1.835 2.408-1.835 1.31 0 2.023.776 2.251 1.679l-.871.226c-.173-.612-.596-1.083-1.365-1.083-.659 0-1.177.361-1.412 1.012z" fill="#000D6E"/></g></svg>