<svg xmlns="http://www.w3.org/2000/svg" viewBox="0 0 40 40" focusable="false" aria-hidden="true"><path fill="none" d="M0 0h40v40H0z"/><g data-name="Icon Tangerine"><path d="M34 11a1 1 0 0 0-1-1H7a1 1 0 0 0-1 1v17h28ZM23 29v2h-6v-2H4v1a2 2 0 0 0 2 2h28a2 2 0 0 0 2-2v-1Z" fill="#fa9319"/><path fill="#fae052" d="M7 11h26v16H7zM17 29h6v2h-6z"/><path d="M9.536 24.443a.5.5 0 0 1-.37-.836l5.258-5.795 3.546 2.978 5.002-5.375 2.974 2.508 2.954-3.24a.5.5 0 0 1 .739.674l-3.602 3.95-2.982-2.513-5 5.373-3.537-2.97-4.612 5.083a.5.5 0 0 1-.37.163" fill="#000d6e"/></g></svg>