<svg xmlns="http://www.w3.org/2000/svg" viewBox="0 0 40 40" focusable="false" aria-hidden="true"><path fill="none" d="M0 0h40v40H0z"/><g><path d="M33.06 23.01h1.91V31h-1.91c-.6 0-1.08-.48-1.08-1.08V24.1c0-.6.48-1.08 1.08-1.08Z" fill="#ffaca6"/><path d="M5.05 26.22c.13-.71.75-1.22 1.47-1.22l.3.03 7.19 1.72v.24c0 1.29 1.18 2 2 2h8.98c.28 0 .5-.22.5-.5s-.22-.5-.5-.5h-8.98c-.28 0-1-.3-1-1v-1.07c.02-.33.21-.57.43-.72.02-.02.05-.03.07-.05h.02c.02-.01.05-.03.07-.04.01 0 .02-.01.04-.02.01 0 .02-.01.04-.01 0 0 .02 0 .03-.01h.09c.02 0 .04-.01.07-.02.05 0 .09-.01.12-.01h5.02c.52-.01 1.01-.34 1.57-.72l.09-.06s.02-.01.02-.02c.03-.02.06-.04.08-.06 0 0 .01 0 .02-.01.07-.05.14-.09.21-.14h.01l.1-.07.24-.15c.37-.22.77-.42 1.24-.56.56-.13 1.13-.2 1.69-.2h3.68c.55 0 1 .45 1 1v5.97s0 .64-1 1-6.47 2.61-6.6 2.67a4.5 4.5 0 0 1-3.2.07c-.01 0-14.2-5.84-14.2-5.84-.67-.26-1.06-.96-.93-1.67Z" fill="#d9304c"/><path d="m15.49 11.18 2.74 2.73-2.73-2.72-2.73 2.72c-.13.13-.29.19-.46.19.16 0 .33-.06.45-.19l2.74-2.73Z" fill="none"/><path d="M11.17 6.14c-.07-.39.24-.75.63-.75h7.46c.4 0 .7.36.63.75l-.52 3.1h-7.69l-.52-3.1Z" fill="#ffaca6"/><path d="M19.14 13.91c-.25.25-.66.25-.91 0l-2.74-2.73-2.74 2.73c-.12.12-.29.19-.45.19a.646.646 0 0 1-.46-1.1l1.85-1.85.64-.64h-2.66V9.23h7.69v1.28h-2.73l2.49 2.48c.25.25.25.66 0 .91Z" fill="#d9304c"/><path d="M11.68 11.16h2.02l-1.85 1.85a.646.646 0 1 0 .92.91l2.73-2.72 2.73 2.72c.25.25.66.25.91 0s.25-.66 0-.91l-1.85-1.85h2.02c.29 0 6.11 8.33 2.48 11.88-.57.55-1.32.93-2.17.93h-8.24c-.85 0-1.6-.37-2.17-.93-3.63-3.56 2.19-11.88 2.48-11.88Z" fill="#ffaca6"/><path d="M15.08 16.98c0-.83-.62-1.5-1.49-1.5s-1.5.67-1.5 1.5.63 1.5 1.5 1.5 1.49-.66 1.49-1.5m-2.01 0c0-.3.21-.55.52-.55s.51.25.51.55-.21.55-.51.55-.52-.24-.52-.55M16.72 15.57l-3.61 6.38 1.16-.01 3.63-6.38zM17.39 19.04c-.85 0-1.5.67-1.5 1.5s.64 1.5 1.5 1.5 1.5-.67 1.5-1.5-.63-1.5-1.5-1.5m0 2.05c-.29 0-.51-.24-.51-.55s.21-.55.51-.55.51.24.51.55-.21.55-.51.55" fill="#000d6e"/></g></svg>