<svg xmlns="http://www.w3.org/2000/svg" viewBox="0 0 40 40" focusable="false" aria-hidden="true"><path fill="none" d="M0 0h40v40H0z"/><g><path d="M29.47 25.03c-.2-.2-.51-.2-.71 0l-1.27 1.27v-6.29h-4.46l-3.04-3.04-3.04 3.04h-4.46v6.29l-1.27-1.27c-.2-.2-.51-.2-.71 0s-.2.51 0 .71l2.12 2.12a.485.485 0 0 0 .7 0l2.12-2.12c.2-.2.2-.51 0-.71s-.51-.2-.71 0l-1.27 1.27v-5.29h3.46l3.04 3.04 3.04-3.04h3.46v5.29l-1.27-1.27c-.2-.2-.51-.2-.71 0s-.2.51 0 .71l2.12 2.12a.485.485 0 0 0 .7 0l2.12-2.12c.2-.2.2-.51 0-.71Z" fill="#000d6e"/><path d="M17 29.03H8v6h10v-6zm0 5H9v-4h8zM31 29.03h-9v6h10v-6zm0 5h-8v-4h8z" fill="#6c2273"/><path d="M32.76 24c-.17-.03-.27-.06-.36-.15l-2.12-2.2c-.19-.2-.19-.51.01-.71.2-.19.52-.19.71.01l1.76 1.83 3.91-3.91c.2-.2.51-.2.71 0s.2.51 0 .71l-4.27 4.27a.5.5 0 0 1-.35.15M8.41 23.14 7 21.73l1.41-1.41c.2-.2.2-.51 0-.71s-.51-.2-.71 0l-1.41 1.41-1.41-1.41c-.2-.2-.51-.2-.71 0s-.2.51 0 .71l1.41 1.41-1.41 1.41c-.2.2-.2.51 0 .71s.51.2.71 0l1.41-1.41 1.41 1.41c.2.2.51.2.71 0s.2-.51 0-.71" fill="#000d6e"/><path d="M24 4h-9v6h4.47v4.29l-1.27-1.27c-.2-.2-.51-.2-.71 0s-.2.51 0 .71l2.12 2.12a.485.485 0 0 0 .7 0l2.12-2.12c.2-.2.2-.51 0-.71s-.51-.2-.71 0l-1.27 1.27V10h4.53V4h-1Zm0 5h-8V5h8z" fill="#6c2273"/><path fill="none" d="m17.877 20.504 2.12-2.122 2.122 2.122-2.121 2.12z"/><path d="m20 16.96-3.54 3.54L20 24.04l3.54-3.54zm-2.12 3.54L20 18.38l2.12 2.12L20 22.62z" fill="#000d6e"/><path fill="#b8b2ff" d="m17.877 20.504 2.12-2.122 2.122 2.122-2.121 2.12zM9 30.03h8v4H9zM23 30.03h8v4h-8zM16 5h8v4h-8z"/></g></svg>