<svg xmlns="http://www.w3.org/2000/svg" viewBox="0 0 40 40" focusable="false" aria-hidden="true"><path fill="none" d="M0 0h40v40H0z"/><g data-name="Icon Green"><path d="M18.714 17.499a8 8 0 0 0-8-8 8 8 0 0 0 8 8" fill="#000d6e"/><path d="M21.386 19a5.23 5.23 0 0 0 5.228-5.229A5.23 5.23 0 0 0 21.386 19" fill="#1b5951"/><path d="M20.5 22V9.93a8 8 0 0 0 7-7.93 8 8 0 0 0-7.999 7.972H19.5V22z" fill="#1b5951"/><path d="M20.5 22H12l1.755 12.283A2 2 0 0 0 15.735 36h8.53a2 2 0 0 0 1.98-1.717L28 22Z" fill="#94e3d4"/></g></svg>