<svg xmlns="http://www.w3.org/2000/svg" viewBox="0 0 40 40" focusable="false" aria-hidden="true"><path fill="none" d="M0 0h40v40H0z"/><g data-name="Icon Purple"><path fill="none" d="M11.96 24.018h2v2h-2zM6 24.018h2v2H6zM17.959 24.018h2v2h-2z"/><path d="M26.738 20.46 26.5 7h-4L22 19l-6-4v4l-6-4v4l-6-4v16h22.11a6.976 6.976 0 0 1 .628-10.54M8 26.018H6v-2h2Zm5.96 0h-2v-2h2Zm5.998 0h-2v-2h2Z" fill="#6c2273"/><path d="M31 20a6 6 0 1 0 6 6 6 6 0 0 0-6-6m2.117 6.9L31 28.5l-2.117-1.6a1.89 1.89 0 0 1-.001-3.205 1.75 1.75 0 0 1 2.118.524 1.75 1.75 0 0 1 2.118-.524 1.89 1.89 0 0 1-.001 3.206" fill="#b8b2ff"/><path d="M33.118 23.695a1.75 1.75 0 0 0-2.118.524 1.75 1.75 0 0 0-2.118-.524 1.89 1.89 0 0 0 .001 3.206L31 28.5l2.117-1.6a1.89 1.89 0 0 0 .001-3.205" fill="#000d6e"/></g></svg>