<svg xmlns="http://www.w3.org/2000/svg" viewBox="0 0 40 40" focusable="false" aria-hidden="true"><path fill="none" d="M0 0h40v40H0z"/><g><path d="m20.005 15.037-4.273 4.256L20 15.042l4.268 4.25c.197.197.456.294.714.293a1 1 0 0 1-.704-.292z" fill="none"/><path d="M26.756 7.164A1 1 0 0 0 25.77 6H14.13a1 1 0 0 0-.986 1.164L13.95 12h12z" fill="#fae052"/><path d="M14.313 19.293c.392.39 1.027.39 1.42 0l4.272-4.256 4.273 4.256c.194.194.45.29.704.292a.997.997 0 0 0 .715-1.706l-2.893-2.883-1-.996h4.146v-2h-12v2h4.256l-3.893 3.879a.997.997 0 0 0 0 1.414" fill="#fa9319"/><circle cx="30" cy="31" r="6" fill="#fae052"/><path d="M23 31c0-3.86 3.14-7 7-7 .293 0 .58.024.864.06-1.518-4.73-4.654-9.061-4.911-9.062l-3.15-.002 2.894 2.883a.997.997 0 0 1-.715 1.706 1 1 0 0 1-.714-.292L20 15.042l-4.268 4.25c-.392.391-1.027.391-1.42 0a.997.997 0 0 1 0-1.413l2.894-2.883-3.159.002c-.446 0-9.542 12.999-3.872 18.553.884.866 2.061 1.449 3.388 1.449h10.7A6.96 6.96 0 0 1 23 31" fill="#fae052"/><path d="M30.182 28.076c-.1-.101-.264-.101-.364 0l-2.742 2.742c-.101.1-.101.264 0 .364l2.742 2.742c.1.101.264.101.364 0l1.522-1.521-.926-.926-.778.777L28.746 31 30 29.746l2.18 2.18.744-.744c.101-.1.101-.264 0-.364z" fill="#000d6e"/></g></svg>