<svg xmlns="http://www.w3.org/2000/svg" viewBox="0 0 40 40" focusable="false" aria-hidden="true"><path fill="none" d="M0 0h40v40H0z"/><g data-name="Icon Red"><path d="M20 8a12 12 0 1 0 12 12A12.014 12.014 0 0 0 20 8m7.971 10.555a.5.5 0 0 1-1 0v-1.816l-5.559 5.13a.5.5 0 0 1-.689-.01l-3.682-3.608-5.166 4.647a.5.5 0 0 1-.669-.744l5.515-4.96a.503.503 0 0 1 .684.014l3.678 3.604 5.157-4.757h-1.769a.5.5 0 0 1 0-1h3a.5.5 0 0 1 .5.5Z" fill="#ffaca6"/><path d="M27.471 15.055h-3a.5.5 0 0 0 0 1h1.769l-5.156 4.757-3.679-3.604a.503.503 0 0 0-.684-.015l-5.515 4.961a.5.5 0 0 0 .669.744l5.166-4.647 3.682 3.607a.5.5 0 0 0 .69.01l5.558-5.128v1.815a.5.5 0 0 0 1 0v-3a.5.5 0 0 0-.5-.5" fill="#000d6e"/></g></svg>