<svg version="1.1" xmlns="http://www.w3.org/2000/svg" x="0px" y="0px" viewBox="0 0 40 40" xml:space="preserve" focusable="false" aria-hidden="true" enable-background="new 0 0 40 40"><path fill="none" d="M0 0h40v40H0z"/><g><path d="M30 24c.331 0 .654.031.974.076A9.4 9.4 0 0 0 31.446 22h.608C33.127 22 34 21.167 34 20.144V19a.5.5 0 0 0-1 0v1.144c0 .472-.425.856-.946.856H31.5c0-2.851-1.251-5.374-3.183-7.022q-.081-.073-.166-.144a9 9 0 0 0-.567-.416 8 8 0 0 0-.367-.24c-.083-.05-.159-.112-.244-.16q0 .012-.003.022c-.159-.09-.313-.188-.478-.266a7.9 7.9 0 0 0-3.4-.774h-6.388A4 4 0 0 0 13 9.5v3.06l-.008.002c-.076.03-.144.073-.219.105-.24.104-.478.214-.707.34-.134.074-.261.158-.39.239-.17.107-.338.216-.5.335a8.617 8.617 0 0 0-.821.688c-.117.11-.234.218-.344.335-.141.149-.272.309-.403.469-.083.101-.177.193-.256.298h.01A9.2 9.2 0 0 0 7.988 18H7.25C6.56 18 6 18.56 6 19.25v3.5c0 .69.56 1.25 1.25 1.25h.738c.772 2.336 2.412 4.228 4.512 5.225a7.9 7.9 0 0 0 3.4.775h7.18c.488-3.387 3.401-6 6.92-6m-16.875-5a1.125 1.125 0 1 1 0-2.25 1.125 1.125 0 0 1 0 2.25" fill="#FAE052"/><circle cx="13.125" cy="17.875" r="1.125" fill="none"/><path d="M12.5 32.75a1.25 1.25 0 0 0 2.5 0v-2.803a7.9 7.9 0 0 1-2.5-.721z" fill="#FA9319"/><path d="M29.985 24.969a6 6 0 1 0 0 12 6 6 0 0 0 0-12m-2.878 7.019c.459 0 .729-.252.837-.648l.644.262c-.171.544-.671 1.021-1.472 1.021-.914 0-1.607-.68-1.607-1.62 0-.945.693-1.625 1.612-1.625.806 0 1.301.495 1.467 1.021l-.644.261c-.108-.392-.383-.648-.842-.648-.536 0-.914.396-.914.991.001.588.379.985.919.985m4.55.576h-.67v-1.297h-1.193v1.297h-.671v-3.129h.671v1.233h1.193v-1.233h.67zm2.667-1.855v.581h-1.242v1.273h-.671v-3.129h2.08v.581h-1.409v.693zM23.532 15.024h-6a.5.5 0 0 1 0-1h6a.5.5 0 0 1 0 1" fill="#000D6E"/></g></svg>