<svg xmlns="http://www.w3.org/2000/svg" viewBox="0 0 40 40" focusable="false" aria-hidden="true"><path fill="none" d="M0 0h40v40H0z"/><g><path d="M25.63 9h-11.2c-4.64 0-8.4 3.81-8.4 8.52v1.42c0 2.87 1.41 5.4 3.55 6.95l-1.91 2.9c-.8 1.21.51 2.71 1.79 2.06l6.69-3.39h9.48c4.64 0 8.4-3.81 8.4-8.52v-1.42c0-4.7-3.76-8.52-8.4-8.52" fill="#fae052"/><path fill="#fa9319" d="M18.5 15h3v9h-3z"/><path d="M15 17h2.5v7H15c-.28 0-.5-.22-.5-.5v-6c0-.28.22-.5.5-.5" fill="#000d6e"/><path d="M22.5 12H25c.28 0 .5.22.5.5v11c0 .28-.22.5-.5.5h-2.5z" fill="#fa9319"/></g></svg>