<svg version="1.1" xmlns="http://www.w3.org/2000/svg" x="0px" y="0px" viewBox="0 0 40 40" xml:space="preserve" focusable="false" aria-hidden="true" enable-background="new 0 0 40 40"><path fill="none" d="M0 0h40v40H0z"/><g><path d="M32.985 9H7.015A2.017 2.017 0 0 0 5 11.015v17.971C5 30.096 5.904 31 7.015 31h25.971c1.11 0 2.014-.904 2.014-2.015v-17.97A2.017 2.017 0 0 0 32.985 9" fill="#D9304C"/><path fill="#FFACA6" d="M9.007 11H33v18H9.007z"/><circle cx="7" cy="20" r="1" fill="#000D6E"/><path d="M19.539 23.843c-.866 0-1.512.664-1.512 1.567 0 .848.645 1.512 1.512 1.512.885 0 1.548-.664 1.548-1.549 0-.866-.645-1.53-1.548-1.53M20.148 13.078c-2.194 0-3.742 1.216-4.148 3.06l2.562.83c.129-.756.682-1.272 1.419-1.272.719 0 1.18.387 1.18 1.124 0 1.659-2.802 2.083-2.802 4.774v.682H20.7v-.498c0-1.99 3.3-2.267 3.3-5.271 0-2.138-1.475-3.429-3.852-3.429" fill="#000D6E"/></g></svg>