<svg version="1.1" xmlns="http://www.w3.org/2000/svg" x="0px" y="0px" viewBox="0 0 40 40" xml:space="preserve" focusable="false" aria-hidden="true" enable-background="new 0 0 40 40"><path fill="none" d="M0 0h40v40H0z"/><g><path d="M23 33.883v2h-6v-2H4v1a2 2 0 0 0 2 2h28a2 2 0 0 0 2-2v-1z" fill="#1B5951"/><path fill="#94E3D4" d="M17 33.883h6v2h-6zM7 15.883h26v16H7z"/><path d="M33 14.883H7a1 1 0 0 0-1 1v17h28v-17a1 1 0 0 0-1-1m0 17H7v-16h26zM29.283 1.983l-.928.931a2.71 2.71 0 0 0-.014 3.824l4.742 4.754a2.707 2.707 0 0 0 3.835-.016l.917-.92z" fill="#1B5951"/><path d="m33.042 13.449-7.071-7.071c-.648-.648-1.58.03-1.58.03L21.95 7.784l-3.467 1.953-1.583.893a1.346 1.346 0 0 0 1.321 2.345l3.579-1.584-7.56 7.56a1.338 1.338 0 0 0 1.837 1.947l-.896.896a1.345 1.345 0 1 0 1.903 1.903l1.427-1.427a1.345 1.345 0 1 0 1.903 1.903l1.903-1.903a1.345 1.345 0 1 0 1.903 1.903l1.733-1.733 1.473-1.473 1.218-1.218 1.656-1.656 2.637-2.637c1.113-1.111.105-2.007.105-2.007" fill="#000D6E"/></g></svg>