<svg version="1.1" xmlns="http://www.w3.org/2000/svg" x="0px" y="0px" viewBox="0 0 40 40" xml:space="preserve" focusable="false" aria-hidden="true" enable-background="new 0 0 40 40"><path fill="none" d="M0 0h40v40H0z"/><g><path d="M33 9H7a1 1 0 0 0-1 1v17h28V10a1 1 0 0 0-1-1" fill="#6C2273"/><path fill="#B8B2FF" d="M7 10h26v16H7z"/><path d="M36 28H4v1a2 2 0 0 0 2 2h28a2 2 0 0 0 2-2z" fill="#6C2273"/><path fill="#000D6E" d="M17 28h6v2h-6zM19.546 21.865c-.866 0-1.512.664-1.512 1.567 0 .848.645 1.512 1.512 1.512.885 0 1.548-.664 1.548-1.549 0-.867-.645-1.53-1.548-1.53M20.154 11.099c-2.194 0-3.742 1.216-4.148 3.06l2.562.83c.129-.756.682-1.272 1.419-1.272.719 0 1.18.387 1.18 1.124 0 1.659-2.802 2.083-2.802 4.774v.682h2.341V19.8c0-1.99 3.3-2.267 3.3-5.271.001-2.139-1.474-3.43-3.852-3.43"/></g></svg>