<svg version="1.1" xmlns="http://www.w3.org/2000/svg" x="0px" y="0px" viewBox="0 0 40 40" xml:space="preserve" focusable="false" aria-hidden="true" enable-background="new 0 0 40 40"><path fill="none" d="M0 0h40v40H0z"/><g><path d="m32 20-3.49 8.56c-.31.17-.58.36-.81.53-.55.41-1.07.8-2.02.88-.12.01-.23.02-.34.02-.12 0-.23-.01-.33-.02-.97-.08-1.49-.47-2.04-.88-.59-.45-1.27-.96-2.44-1.08h-.03c-.17-.01-.32-.02-.49-.02-.18 0-.34.01-.51.02-1.18.12-1.86.63-2.46 1.08-.55.41-1.07.8-2.02.88-.12.01-.23.02-.35.02-.11 0-.22-.01-.32-.02-.97-.08-1.49-.47-2.04-.88-.22-.17-.46-.33-.72-.49L8 20l12-2.71z" fill="#94E3D4"/><path fill="#1B5951" d="M10.493 10h3.969v3.912h-3.969zM15.561 10h3.969v3.912h-3.969zM20.469 10h3.969v3.912h-3.969zM25.538 10h3.969v3.912h-3.969zM14.463 15h-3.97v3.413l3.97-.895zM19.531 15h-3.97v2.27l3.97-.894zM24.439 15h-3.97v1.376l3.97.894zM29.507 15h-3.97v2.518l3.97.895zM20.5 19.48v8.53c-.17-.01-.32-.02-.49-.02-.18 0-.34.01-.51.02v-8.53c0-.28.22-.5.5-.5s.5.22.5.5"/><path d="M35.576 30.965c-1.226-.099-1.923-.615-2.542-1.08-.56-.42-1.054-.79-1.941-.879a5 5 0 0 0-.423-.021c-.15 0-.288.01-.424.021a3 3 0 0 0-.876.217c-.4.167-.722.404-1.066.662-.618.464-1.316.979-2.542 1.079a4.3 4.3 0 0 1-.847 0c-1.225-.099-1.923-.615-2.541-1.08-.56-.42-1.054-.79-1.941-.879a5 5 0 0 0-.423-.021c-.15 0-.288.01-.424.021-.888.089-1.383.459-1.943.88-.619.464-1.316.98-2.542 1.079a4.3 4.3 0 0 1-.848 0c-1.227-.099-1.925-.615-2.544-1.079-.561-.421-1.056-.79-1.944-.879a5 5 0 0 0-.424-.021c-.15 0-.288.01-.424.021-.889.089-1.384.459-1.945.879-.619.464-1.318.979-2.544 1.079a4 4 0 0 1-.428.022v1c.15 0 .288-.01.424-.021 1.226-.099 1.925-.615 2.544-1.079.561-.421 1.056-.79 1.945-.879q.168-.016.354-.018.034-.002.07-.003.226 0 .424.021c.888.089 1.383.459 1.944.879.619.464 1.318.979 2.544 1.079.136.011.274.021.424.021s.288-.01.424-.021c1.226-.099 1.924-.615 2.542-1.079.56-.421 1.055-.79 1.943-.88a4.3 4.3 0 0 1 .847 0c.887.089 1.381.459 1.941.879.618.465 1.316.981 2.541 1.08.136.011.274.021.423.021.15 0 .288-.01.424-.021 1.226-.099 1.924-.615 2.542-1.079.324-.243.626-.469.994-.634.269-.12.574-.208.948-.245a4.3 4.3 0 0 1 .847 0c.887.089 1.382.459 1.941.879.619.465 1.317.981 2.542 1.08.136.011.274.021.424.021v-1a5 5 0 0 1-.42-.022" fill="#000D6E"/><path d="M35.576 33.182c-1.226-.099-1.923-.615-2.542-1.08-.56-.42-1.054-.79-1.941-.879a5 5 0 0 0-.423-.021c-.15 0-.288.01-.424.021a3 3 0 0 0-.876.217c-.4.167-.722.404-1.066.662-.618.464-1.316.979-2.542 1.079a4.3 4.3 0 0 1-.847 0c-1.225-.099-1.923-.615-2.541-1.08-.56-.42-1.054-.79-1.941-.879a5 5 0 0 0-.423-.021c-.15 0-.288.01-.424.021-.888.089-1.383.459-1.943.88-.619.464-1.316.98-2.542 1.079a4.3 4.3 0 0 1-.848 0c-1.227-.099-1.925-.615-2.544-1.079-.561-.421-1.056-.79-1.944-.879a5 5 0 0 0-.424-.021c-.15 0-.288.01-.424.021-.889.089-1.384.459-1.945.879-.619.464-1.318.979-2.544 1.079a4 4 0 0 1-.428.022v1c.15 0 .288-.01.424-.021 1.226-.099 1.925-.615 2.544-1.079.561-.421 1.056-.79 1.945-.879q.168-.016.354-.018.034-.002.07-.003.226 0 .424.021c.888.089 1.383.459 1.944.879.619.464 1.318.979 2.544 1.079.136.011.274.021.424.021s.288-.01.424-.021c1.226-.099 1.924-.615 2.542-1.079.56-.421 1.055-.79 1.943-.88a4.3 4.3 0 0 1 .847 0c.887.089 1.381.459 1.941.879.618.465 1.316.981 2.541 1.08.136.011.274.021.423.021.15 0 .288-.01.424-.021 1.226-.099 1.924-.615 2.542-1.079.324-.243.626-.469.994-.634.269-.12.574-.208.948-.245a4.3 4.3 0 0 1 .847 0c.887.089 1.382.459 1.941.879.619.465 1.317.981 2.542 1.08.136.011.274.021.424.021v-1a5 5 0 0 1-.42-.022" fill="#000D6E"/></g></svg>