<svg xmlns="http://www.w3.org/2000/svg" viewBox="0 0 40 40" focusable="false" aria-hidden="true"><path fill="none" d="M0 0h40v40H0z"/><g data-name="Icon Purple"><path fill="none" d="M22 25h3v3h-3zM22 29h3v3h-3zM22 17h3v3h-3zM22 21h3v3h-3zM6 9h12v3H6zM22 13h3v3h-3zM6 13h12v3H6zM6 29h12v3H6zM6 21h12v3H6zM6 25h12v3H6zM6 17h12v3H6zM31 17h3v3h-3zM31 21h3v3h-3zM26.5 29h3v3h-3zM31 13h3v3h-3zM31 25h3v3h-3zM31 29h3v3h-3zM26.5 25h3v3h-3zM26.5 21h3v3h-3zM26.5 13h3v3h-3zM26.5 17h3v3h-3z"/><path d="M18 2.5a.5.5 0 0 0-1 0V4h1Z" fill="#6c2273"/><path d="M34.896 11H20V4H4.987A1.036 1.036 0 0 0 4 5.08V38h3v-4h10v4h8v-4h6v4h5V12.043A1.075 1.075 0 0 0 34.896 11M18 32H6v-3h12Zm0-4H6v-3h12Zm0-4H6v-3h12Zm0-4H6v-3h12Zm0-4H6v-3h12Zm0-4H6V9h12Zm7 20h-3v-3h3Zm0-4h-3v-3h3Zm0-4h-3v-3h3Zm0-4h-3v-3h3Zm0-4h-3v-3h3Zm4.5 16h-3v-3h3Zm0-4h-3v-3h3Zm0-4h-3v-3h3Zm0-4h-3v-3h3Zm0-4h-3v-3h3ZM34 32h-3v-3h3Zm0-4h-3v-3h3Zm0-4h-3v-3h3Zm0-4h-3v-3h3Zm0-4h-3v-3h3Z" fill="#b8b2ff"/><path fill="#000d6e" d="M7 34h10v4H7zM25 34h6v4h-6z"/></g></svg>