<svg xmlns="http://www.w3.org/2000/svg" viewBox="0 0 40 40" focusable="false" aria-hidden="true"><path fill="none" d="M0 0h40v40H0z"/><g data-name="Icon Red"><path fill="none" d="M16.46 22.018h2v2h-2zM10.5 22.018h2v2h-2zM22.459 22.018h2v2h-2z"/><path d="M9.338 27c.178 0 .342.011.524.026a4.5 4.5 0 0 1 2.444 1.074 3.56 3.56 0 0 0 2.044.884q.152.016.325.016a3 3 0 0 0 .343-.018 3.54 3.54 0 0 0 2.023-.882 4.5 4.5 0 0 1 2.463-1.076c.162-.013.326-.024.504-.024s.342.01.524.026a4.5 4.5 0 0 1 2.442 1.074 3.54 3.54 0 0 0 2.04.884 3 3 0 0 0 .323.016 3 3 0 0 0 .343-.018 3.53 3.53 0 0 0 2.023-.881 6 6 0 0 1 1.282-.786 4 4 0 0 1 1.18-.29c.162-.014.326-.025.505-.025s.342.011.523.026c.099.01.175.037.267.052L31 5h-4l-.5 12-6-4v4l-6-4v4l-6-4v14.089c.113-.02.21-.052.332-.065.162-.013.327-.024.505-.024m13.12-4.982h2v2h-2Zm-5.997 0h2v2h-2Zm-5.961 0h2v2h-2Z" fill="#d9304c"/><path d="M35.576 29.98a4.5 4.5 0 0 1-2.542-1.08 3.54 3.54 0 0 0-1.941-.88c-.136-.01-.274-.02-.423-.02s-.288.01-.424.02a3 3 0 0 0-.876.218 5 5 0 0 0-1.066.662 4.5 4.5 0 0 1-2.542 1.08 4.3 4.3 0 0 1-.847 0 4.5 4.5 0 0 1-2.542-1.08 3.54 3.54 0 0 0-1.94-.88c-.137-.01-.274-.02-.424-.02s-.288.01-.424.02a3.54 3.54 0 0 0-1.943.88 4.5 4.5 0 0 1-2.543 1.08 4.3 4.3 0 0 1-.848 0 4.5 4.5 0 0 1-2.545-1.08 3.55 3.55 0 0 0-1.944-.88c-.137-.01-.274-.02-.425-.02s-.288.01-.424.02a3.55 3.55 0 0 0-1.945.88 4.5 4.5 0 0 1-2.544 1.08q-.197.019-.424.02v1c.15 0 .288-.01.424-.02a4.5 4.5 0 0 0 2.544-1.08 3.55 3.55 0 0 1 1.945-.88q.166-.016.354-.018.036-.002.07-.003.227 0 .425.021a3.55 3.55 0 0 1 1.944.88 4.5 4.5 0 0 0 2.544 1.08c.136.01.274.02.425.02s.287-.01.423-.02a4.5 4.5 0 0 0 2.543-1.08 3.54 3.54 0 0 1 1.943-.88 4.3 4.3 0 0 1 .848 0 3.54 3.54 0 0 1 1.94.879 4.5 4.5 0 0 0 2.542 1.08c.136.01.274.02.424.02s.287-.01.423-.02a4.5 4.5 0 0 0 2.542-1.079 5.2 5.2 0 0 1 .995-.634 3 3 0 0 1 .948-.245 4.3 4.3 0 0 1 .847 0 3.54 3.54 0 0 1 1.941.878 4.5 4.5 0 0 0 2.542 1.08c.136.011.274.021.424.021v-1a4 4 0 0 1-.424-.02" fill="#ffaca6"/></g></svg>