<svg xmlns="http://www.w3.org/2000/svg" viewBox="0 0 40 40" focusable="false" aria-hidden="true"><path fill="none" d="M0 0h40v40H0z"/><g><path fill="#d9304c" d="M27.93 12.84h2.24v2.81l.83.94V6h-2.24l1 5.04zM9 21h10v13H9zM21 21h10v13H21zM9 6h10v13H9z"/><path fill="#d9304c" d="M29.17 16.03v-2.19h-2.73l-1.16-2.4-2.27 1.21-2.01-1V19h10v-.91z"/><path fill="#d9304c" d="m22.99 11.53 2.73-1.46 1.17 2.4 1.78-1.77-.93-4.7H21v4.53z"/><path d="M26 18.75A6 6 0 0 0 25 22a5.93 5.93 0 0 0 .77 2.93 4.87 4.87 0 0 0 1.23-3.2 5.3 5.3 0 0 0-1-2.98M36.25 24.9a6 6 0 0 0-.19-6.11 5.3 5.3 0 0 0-1 2.92 4.86 4.86 0 0 0 1.19 3.19" fill="#000d6e"/><path d="M34.06 21.71A6.46 6.46 0 0 1 35.42 18a6 6 0 0 0-8.83 0A6.38 6.38 0 0 1 28 21.73a5.9 5.9 0 0 1-1.61 4.05A6 6 0 0 0 31 28a6 6 0 0 0 4.68-2.24 5.9 5.9 0 0 1-1.62-4.05" fill="#000d6e"/><path d="M28 21.73a6.38 6.38 0 0 0-1.37-3.79 6 6 0 0 0-.63.81 5.3 5.3 0 0 1 1 3 4.87 4.87 0 0 1-1.19 3.2 5.5 5.5 0 0 0 .58.85A5.9 5.9 0 0 0 28 21.73M35.68 25.76a7 7 0 0 0 .57-.86 4.86 4.86 0 0 1-1.19-3.19 5.3 5.3 0 0 1 1-2.92 5.7 5.7 0 0 0-.64-.83 6.46 6.46 0 0 0-1.36 3.75 5.9 5.9 0 0 0 1.62 4.05" fill="#ffaca6"/></g></svg>