<svg xmlns="http://www.w3.org/2000/svg" viewBox="0 0 40 40" focusable="false" aria-hidden="true"><path fill="none" d="M0 0h40v40H0z"/><g data-name="Icon Green"><path d="M22.607 24.53q.01-.13.023-.26c.033-.5.055-.957.072-1.393-.018.436-.04.894-.075 1.397zM22.48 25.98c.03-.34.06-.66.09-.98 0-.048.009-.097.01-.153a3.515 3.515 0 0 1-5.16 0 .6.6 0 0 0 .01.133c.02.32.05.65.09 1 .23 2.31.35 5.62.42 8v.009l2.06 1.7 2.06-1.7v-.009c.07-2.38.19-5.69.42-8M8.676 26.34l6.423 5.303L8.68 26.34zM17.298 22.876c.017.437.039.894.072 1.394q.014.129.023.258l-.02-.254a49 49 0 0 1-.075-1.398M9.17 23.53l8.13-4.17s-.013.227-.025.616c.013-.39.028-.616.028-.616l-.003.002.108-1.655h.021a6.8 6.8 0 0 1-2.673-4.243.9.9 0 0 1-.224.03c-.633 0-1.145-.704-1.145-1.574a1.58 1.58 0 0 1 .826-1.505V7.391l-.003-.001a2 2 0 0 0-.23-.08 6.6 6.6 0 0 0-1.9-.29 6.86 6.86 0 0 0-3.56 1.06 10.42 10.42 0 0 0-4.45 7.51A11 11 0 0 0 4.455 20q.104.345.234.7.042.111.087.222.09.23.191.463a12 12 0 0 0 .328.68q.11.216.232.43.061.108.127.215a14.6 14.6 0 0 0 1.936 2.55 3.26 3.26 0 0 1 1.58-1.73M25.787 10.415a1.58 1.58 0 0 1 .827 1.505c0 .87-.513 1.575-1.146 1.575a1 1 0 0 1-.147-.02 6.78 6.78 0 0 1-2.727 4.266l.106 1.62h-.003s.015.224.028.61c-.012-.386-.025-.61-.025-.61l8.13 4.17a3.26 3.26 0 0 1 1.58 1.73 11.84 11.84 0 0 0 3.52-9.67 10.39 10.39 0 0 0-4.45-7.51 6.87 6.87 0 0 0-3.57-1.06 6.5 6.5 0 0 0-1.83.27c-.09.03-.17.05-.26.08h-.001c-.003.479-.014 1.004-.032 1.526ZM23.78 32.568l7.578-6.258h.001-.009zM31.713 25.967q.284-.27.555-.54l.003-.003c-.16.164-.324.332-.501.486a1 1 0 0 1-.057.057" fill="none"/><path d="M13.387 11.92c0 .87.512 1.575 1.145 1.575a.9.9 0 0 0 .224-.031 6.8 6.8 0 0 0 2.673 4.243h-.021l-.108 1.655.003-.002s-.015.227-.028.616a36 36 0 0 0-.015.694 48.71 48.71 0 0 0 .113 3.604l.02.254q.011.156.027.312v.007a3.515 3.515 0 0 0 5.16 0v-.007q.015-.154.026-.31l.02-.256a49 49 0 0 0 .113-3.604 36 36 0 0 0-.015-.7c-.013-.385-.028-.61-.028-.61l.003.001-.106-1.621a6.78 6.78 0 0 0 2.727-4.266 1 1 0 0 0 .147.02c.633 0 1.146-.705 1.146-1.574a1.58 1.58 0 0 0-.827-1.505v.265a.4.4 0 0 1-.089.244.4.4 0 0 1-.06.067.44.44 0 0 1-.263.102.413.413 0 0 1-.413-.413V9.332c0-.06-.005-.11-.006-.169-.044-.076-.096-.153-.146-.23a5 5 0 0 0-.882-1.036c-.08-.071-.17-.137-.257-.204a4.4 4.4 0 0 1-1.76.357 4.7 4.7 0 0 1-1.497-.254 7.6 7.6 0 0 1-1.316-.576 4.4 4.4 0 0 1-.799-.567 8.7 8.7 0 0 0-1.676.451q-.153.058-.294.116c-.325.136-.605.271-.844.39l-.256.126a6 6 0 0 0-.166 1.021q-.023.269-.024.575v1.349a.413.413 0 0 1-.412.412.4.4 0 0 1-.067-.013.41.41 0 0 1-.346-.4v-.265a1.58 1.58 0 0 0-.826 1.505" fill="#94e3d4"/><path d="M14.213 7.125v3.556a.41.41 0 0 0 .346.399.4.4 0 0 0 .067.013.413.413 0 0 0 .412-.412V9.333q.002-.307.023-.575a6 6 0 0 1 .167-1.021l.256-.127c.24-.119.519-.254.844-.39q.141-.058.294-.115a8.7 8.7 0 0 1 1.676-.452 4.4 4.4 0 0 0 .8.567 7.6 7.6 0 0 0 1.315.576 4.7 4.7 0 0 0 1.498.253 4.4 4.4 0 0 0 1.76-.356c.086.067.177.133.257.204a5 5 0 0 1 .881 1.036c.05.077.102.154.146.23.002.058.007.11.007.17v1.348a.413.413 0 0 0 .412.412.44.44 0 0 0 .264-.102.4.4 0 0 0 .06-.066.4.4 0 0 0 .089-.244V8.897c.017-.521.029-1.047.031-1.527l.003-.26c0-.306-.009-.563-.023-.78-.004-.065-.006-.143-.011-.197l-.005-.022C25.64 4.91 23.423 2 20 2a5.695 5.695 0 0 0-5.693 4.143c-.015.07-.012.141-.024.212a4 4 0 0 0-.07.605ZM30.83 23.53l-8.13-4.17s.013.225.025.61c.006.195.012.418.015.7a52.302 52.302 0 0 1-.11 3.6q-.014.13-.023.26-.011.155-.027.31v.007c0 .056-.01.105-.01.153-.03.32-.06.64-.09.98-.23 2.31-.35 5.62-.42 8v.008l1.72-1.42 7.57-6.258h.009c.037-.034.069-.068.106-.102l.248-.241a1 1 0 0 0 .057-.057c.177-.154.34-.321.501-.486.05-.052.094-.104.143-.156l-.004-.008a3.26 3.26 0 0 0-1.58-1.73M17.52 25.98c-.04-.35-.07-.68-.09-1a.6.6 0 0 1-.01-.133v-.007l-.027-.312-.023-.258a52 52 0 0 1-.11-3.6 36 36 0 0 1 .04-1.31l-8.13 4.17a3.26 3.26 0 0 0-1.58 1.73v.007q.032.035.063.068c.09.1.189.2.286.299.234.235.475.47.735.704l.002.002h.004l6.419 5.303 2.841 2.346v-.009c-.07-2.38-.19-5.69-.42-8" fill="#1b5951"/><path d="M35.672 22.343a14 14 0 0 0 .343-.742q.092-.222.176-.444c.042-.112.087-.224.126-.336q.142-.406.253-.812l.003-.009C38.062 14.53 35.411 9.323 32 7.23a7.8 7.8 0 0 0-4.09-1.21 7.6 7.6 0 0 0-2.11.31h-.001c.013.217.022.473.022.78l-.002.26h.001c.09-.03.17-.05.26-.08a6.5 6.5 0 0 1 1.83-.27 6.87 6.87 0 0 1 3.57 1.06 10.39 10.39 0 0 1 4.45 7.51 11.84 11.84 0 0 1-3.52 9.67l.004.008c-.049.052-.093.104-.143.156l-.003.004q-.27.268-.555.539-.125.12-.248.241c-.037.034-.069.068-.106.102l-7.579 6.258-1.72 1.42L20 35.69l-2.06-1.7-2.841-2.346-6.423-5.303-.002-.002c-.26-.234-.501-.47-.735-.704-.097-.1-.195-.199-.286-.299l-.063-.068v-.007a14.6 14.6 0 0 1-1.937-2.55q-.065-.107-.126-.214a13 13 0 0 1-.4-.767q-.083-.173-.16-.344-.102-.234-.19-.463l-.088-.222q-.13-.354-.233-.7h-.002a11 11 0 0 1-.384-4.41 10.42 10.42 0 0 1 4.45-7.51 6.86 6.86 0 0 1 3.56-1.06 6.6 6.6 0 0 1 1.9.29 2 2 0 0 1 .23.08l.003.001V6.96a4 4 0 0 1 .07-.605l-.013-.005a7.5 7.5 0 0 0-2.19-.33A7.77 7.77 0 0 0 8 7.23c-3.59 2.203-6.336 7.86-4.302 13.64l.047.123q.124.342.27.684.061.141.127.281.118.26.25.517.089.176.184.353.119.21.246.422A15 15 0 0 0 6 24.952l.11.14q.256.31.535.62l.073.08c.396.435.816.866 1.286 1.29l9.956 8.22.009.008L20 36.99l2.03-1.68.097-.08 9.868-8.148c.131-.119.248-.24.373-.359q.077-.07.152-.143.012-.012.023-.025a15.9 15.9 0 0 0 2.817-3.618l.017-.03q.156-.281.295-.564" fill="#000d6e"/></g></svg>