<svg xmlns="http://www.w3.org/2000/svg" viewBox="0 0 40 40" focusable="false" aria-hidden="true"><path fill="none" d="M0 0h40v40H0z"/><g data-name="Icon Purple"><path d="M27.067 3.229a20.94 20.94 0 0 0-14.134 0L5 6.079v15.815C5 29.52 14.49 36.99 20.002 37 25.51 36.99 35 29.52 35 21.894V6.08Zm-2.124 18.454L20 25.548l-4.943-3.865c-3.392-2.892-2.022-6.574-.002-7.749 2.616-1.5 4.768 1.05 4.945 1.268.177-.218 2.33-2.767 4.945-1.268 2.02 1.175 3.39 4.857-.002 7.749" fill="#b8b2ff"/><path d="M24.945 13.934c-2.616-1.5-4.768 1.05-4.945 1.268-.177-.218-2.33-2.767-4.945-1.268-2.02 1.175-3.39 4.857.002 7.749L20 25.548l4.943-3.865c3.392-2.892 2.022-6.574.002-7.749" fill="#000d6e"/></g></svg>