<svg xmlns="http://www.w3.org/2000/svg" viewBox="0 0 40 40" focusable="false" aria-hidden="true"><path fill="none" d="M0 0h40v40H0z"/><g data-name="Icon Red"><path d="M33 10H7a2 2 0 0 0-2 2v1h30v-1a2 2 0 0 0-2-2M21.5 21.3v3.2a1.5 1.5 0 0 1-3 0v-3.2a2.74 2.74 0 0 1-1.25-2.3H5v8a2 2 0 0 0 2 2h26a2 2 0 0 0 2-2v-8H22.75a2.74 2.74 0 0 1-1.25 2.3" fill="#ffaca6"/><path d="M5 19h12.25a2.75 2.75 0 0 1 5.5 0H35v-5H5Z" fill="#d9304c"/><path d="M20 16.25a2.747 2.747 0 0 0-1.5 5.05v3.2a1.5 1.5 0 0 0 3 0v-3.2a2.747 2.747 0 0 0-1.5-5.05" fill="#000d6e"/></g></svg>