<svg xmlns="http://www.w3.org/2000/svg" viewBox="0 0 40 40" focusable="false" aria-hidden="true"><path fill="none" d="M0 0h40v40H0z"/><g data-name="Icon Tangerine"><path d="M32.5 7.53v5.44h1V7.53a3.5 3.5 0 1 0-7 0 .5.5 0 0 0 1 0 2.5 2.5 0 1 1 5 0M32.5 32.97v2.5a.5.5 0 0 0 1 0v-2.5Z" fill="#fa9319"/><path d="M19.025 27.702a2.802 2.802 0 1 0 2.819 2.784 2.726 2.726 0 0 0-2.819-2.784M20.133 8.106c-3.993 0-6.812 2.214-7.55 5.57l4.664 1.51a2.605 2.605 0 0 1 2.583-2.315 1.916 1.916 0 0 1 2.148 2.047c0 3.02-5.1 3.791-5.1 8.69v1.242h4.261v-.906c0-3.623 6.006-4.127 6.006-9.596 0-3.893-2.683-6.242-7.012-6.242" fill="#000d6e"/><path d="M11.053 22.189a3.52 3.52 0 1 0-2.3.705l.215.676.65 1.055.079 1.237.651 1.055.078 1.237.651 1.055-.022.921a.67.67 0 0 0 .305.38l.768.43a.574.574 0 0 0 .81-.258l.378-.794a.67.67 0 0 0 .03-.487ZM8.519 18.04a.705.705 0 1 1 .462-.883.705.705 0 0 1-.462.883M33 13.97h-4.045l3.545 18h1l3.545-18z" fill="#fae052"/></g></svg>