<svg xmlns="http://www.w3.org/2000/svg" viewBox="0 0 40 40" focusable="false" aria-hidden="true"><path fill="none" d="M0 0h40v40H0z"/><g><path d="M13 16v11h.45l6-10.95-5-9H14a6.93 6.93 0 0 0-7 7V27h5V16ZM26 7h-.43l-11 20H27V16h1v11h5V14.09A7 7 0 0 0 26 7M21.21 28l2.33 2.33-.71.71L20 28.21l-2.83 2.83-.71-.71L18.79 28H13v5h14v-5z" fill="#94e3d4"/><path fill="#1b5951" d="M24.43 7H15.6l4.43 8.02z"/><path fill="#000d6e" d="M13 27v1h5.79l-2.33 2.33.71.71L20 28.21l2.83 2.83.71-.71L21.21 28H27v-1z"/></g></svg>