<svg xmlns="http://www.w3.org/2000/svg" viewBox="0 0 40 40" focusable="false" aria-hidden="true"><path fill="none" d="M0 0h40v40H0z"/><g data-name="Icon Green"><path d="m19.483 13.977-.049-.002a21 21 0 0 1-4.59-.623l-.045-.01-.015.042a19.9 19.9 0 0 0-1.117 6.148l-.002.05h4.374a5 5 0 0 1 1.444-3.133ZM15.119 12.498l.056.013a20 20 0 0 0 4.257.567h.051V6.008h-.05l-.023.002-.015.003-.011.01a19.8 19.8 0 0 0-4.244 6.422ZM13.94 26.893l-.018-.05a20.7 20.7 0 0 1-1.151-6.315l-.001-.048H6.004l.002.052a13.86 13.86 0 0 0 3.202 8.394l.028.032.036-.022a20.8 20.8 0 0 1 4.618-2.029ZM12.768 19.534a20.8 20.8 0 0 1 1.146-6.383l.017-.05-.05-.015a20.8 20.8 0 0 1-4.625-2.036l-.036-.02-.027.032a13.85 13.85 0 0 0-3.191 8.469L6 19.582h6.767ZM28 25a4.98 4.98 0 0 1 2.91-4.52h-2.956a4.97 4.97 0 0 1-1.142 2.718 20.7 20.7 0 0 1-.898 3.635l-.018.05.05.015a21 21 0 0 1 3.222 1.277c-.058-.07-.12-.137-.175-.21A4.96 4.96 0 0 1 28 25M25.735 15.827a20 20 0 0 0-.666-2.44l-.015-.042-.044.01a21 21 0 0 1-4.58.62l-.049.001v1.779a4.92 4.92 0 0 1 5.354.071ZM24.68 12.514l.056-.013-.022-.054a19.8 19.8 0 0 0-4.238-6.432L20.452 6h-.07v7.08l.05-.002a20 20 0 0 0 4.247-.564M27.956 19.582H34l-.002-.051a13.85 13.85 0 0 0-3.239-8.523l-.028-.033-.036.022a20.7 20.7 0 0 1-4.723 2.093l-.05.015.017.05a20.6 20.6 0 0 1 .89 3.667 4.94 4.94 0 0 1 1.086 2.267 5 5 0 0 1 .041.493M14.27 27.777l-.016-.042-.044.013a20 20 0 0 0-4.3 1.86l-.055.032.044.045a14.07 14.07 0 0 0 8.018 4.136l.135.02-.09-.102a20.7 20.7 0 0 1-3.691-5.962M14.2 12.246l.043.012.017-.042a20.7 20.7 0 0 1 3.702-5.984l.09-.102-.135.019a14.06 14.06 0 0 0-8.034 4.154l-.044.046.055.031a20 20 0 0 0 4.306 1.865M25.593 12.22l.017.042.044-.013a20 20 0 0 0 4.406-1.92l.054-.032-.043-.046a14.07 14.07 0 0 0-8.145-4.127l-.133-.018.088.1a20.7 20.7 0 0 1 3.712 6.014M18.085 20.912c-.027-.145-.022-.288-.036-.432h-4.381l.001.05a19.9 19.9 0 0 0 1.123 6.08l.016.042.044-.01a21 21 0 0 1 4.582-.621l.049-.001v-2.475a4.97 4.97 0 0 1-1.398-2.633M25.625 27.738l-.044-.013-.017.042c-.061.152-.138.296-.203.447a4.97 4.97 0 0 1 3.22 2.822 14 14 0 0 0 1.474-1.3l.044-.046-.055-.032a20 20 0 0 0-4.42-1.92M19.057 32.252a5 5 0 0 1 .426-1.342v-3.993l-.051.001a20 20 0 0 0-4.247.565l-.056.014.022.053a19.7 19.7 0 0 0 3.904 6.03 5 5 0 0 1 .002-1.328M24.45 28.042c.074-.168.163-.328.234-.499l.022-.054-.057-.014a20 20 0 0 0-4.216-.557l-.051-.002v2.644a4.98 4.98 0 0 1 4.067-1.518M20.382 24.238v1.782l.048.001a21 21 0 0 1 4.553.613l.045.011.015-.043a20 20 0 0 0 .67-2.406 4.94 4.94 0 0 1-5.331.043Z" fill="#1b5951"/><path d="M33 20a5 5 0 0 0-1.855.365c-.082.032-.156.078-.236.115a4.95 4.95 0 0 0-1.916 7.484c.054.073.117.14.175.21A4.99 4.99 0 1 0 33 20m.34 3.648a.504.504 0 0 0-.532.553v.05h1.212v.735h-1.212v.246h1.212v.735h-1.212v.385h1.891v1.015h-3.06v-1.4h-.491v-.735h.491v-.245h-.491v-.736h.491v-.05a1.564 1.564 0 0 1 1.674-1.568 1.505 1.505 0 0 1 1.54.854l-1.036.455a.46.46 0 0 0-.477-.294" fill="#94e3d4"/><path d="m33.816 23.942 1.036-.455a1.505 1.505 0 0 0-1.54-.854A1.564 1.564 0 0 0 31.64 24.2v.05h-.491v.735h.49v.246h-.49v.735h.49v1.4h3.06v-1.015h-1.89v-.385h1.212v-.736h-1.212v-.245h1.212v-.735h-1.212v-.05a.504.504 0 0 1 .532-.553.46.46 0 0 1 .476.294" fill="#000d6e"/><path d="M25.36 28.214a5 5 0 0 0-.612-.157c-.1-.015-.198-.006-.299-.015a5.02 5.02 0 1 0 .912.172m-1.537 6.203a1.08 1.08 0 0 0 1.143-.443l.89.815a2.33 2.33 0 0 1-2.17.726 2.405 2.405 0 0 1-2.074-1.886l-.59-.089.18-.71.373.057.019-.124c.007-.042.012-.076.017-.118l-.337-.052.177-.717.417.064a2.4 2.4 0 0 1 2.546-1.195 2.34 2.34 0 0 1 1.852 1.336l-1.09.515a1.09 1.09 0 0 0-.955-.76 1.23 1.23 0 0 0-1.052.3l1.1.167-.171.718-1.301-.196a.6.6 0 0 0-.027.116 1 1 0 0 0-.01.126l1.267.191-.185.71-.929-.141a1.22 1.22 0 0 0 .91.59" fill="#94e3d4"/><path d="m24.027 33.258-1.268-.191a1 1 0 0 1 .011-.126.6.6 0 0 1 .026-.116l1.301.196.172-.718-1.1-.167a1.23 1.23 0 0 1 1.051-.3 1.09 1.09 0 0 1 .955.76l1.09-.514a2.34 2.34 0 0 0-1.851-1.337 2.4 2.4 0 0 0-2.546 1.195l-.417-.063-.178.716.338.052c-.006.042-.01.076-.018.118l-.018.124-.373-.056-.18.71.59.088a2.405 2.405 0 0 0 2.073 1.886 2.33 2.33 0 0 0 2.171-.726l-.89-.815a1.08 1.08 0 0 1-1.144.444 1.22 1.22 0 0 1-.91-.591l.93.14Z" fill="#000d6e"/><path d="M27.956 19.582a5 5 0 0 0-.04-.494 4.986 4.986 0 0 0-9.867 1.392c.014.144.009.287.036.432a4.986 4.986 0 0 0 9.871-1.33M23.8 22.376l.12.647-.923.171-.116-.626a1.66 1.66 0 0 1-1.556-.901l.968-.58a.825.825 0 0 0 .91.494c.338-.063.482-.246.437-.494-.156-.833-2.247-.053-2.554-1.705a1.3 1.3 0 0 1 .928-1.49l-.118-.633.922-.171.12.64a1.43 1.43 0 0 1 1.31.798l-.967.591a.62.62 0 0 0-.704-.418c-.31.058-.427.237-.384.463.144.78 2.238-.065 2.556 1.65a1.396 1.396 0 0 1-.949 1.564" fill="#94e3d4"/><path d="M22.192 19.162c-.043-.227.074-.405.384-.463a.62.62 0 0 1 .704.418l.967-.592a1.43 1.43 0 0 0-1.31-.798l-.12-.64-.922.171.118.634a1.3 1.3 0 0 0-.928 1.49c.307 1.652 2.399.871 2.554 1.704.045.248-.099.432-.436.495a.825.825 0 0 1-.91-.494l-.968.58a1.66 1.66 0 0 0 1.555.9l.117.627.922-.171-.12-.647a1.396 1.396 0 0 0 .95-1.565c-.319-1.714-2.412-.87-2.557-1.649" fill="#000d6e"/></g></svg>