<svg xmlns="http://www.w3.org/2000/svg" viewBox="0 0 40 40" focusable="false" aria-hidden="true"><path fill="none" d="M0 0h40v40H0z"/><g data-name="Icon Green"><path d="M22.582 30.065a.21.21 0 0 0-.298 0l-2.238 2.238a.21.21 0 0 0 0 .297l1.242 1.242.756-.756-.635-.634 1.024-1.024 1.024 1.024-1.78 1.78.607.607a.21.21 0 0 0 .298 0L24.82 32.6a.21.21 0 0 0 0-.297Z" fill="#000d6e"/><path d="M13.11 29H13v6.25A1.75 1.75 0 0 0 14.75 37h10.5A1.75 1.75 0 0 0 27 35.25V29zm11.71 3.6-2.238 2.238a.21.21 0 0 1-.297 0l-.608-.607 1.78-1.78-1.023-1.024-1.024 1.024.635.635-.756.756-1.243-1.242a.21.21 0 0 1 0-.298l2.238-2.238a.21.21 0 0 1 .298 0l2.238 2.238a.21.21 0 0 1 0 .298" fill="#94e3d4"/><path d="M27 3H13a2 2 0 0 0-2 2.003v21.993A2 2 0 0 0 13 29h14a2 2 0 0 0 2-2.003V5.004A2 2 0 0 0 27 3m-7 15a1.5 1.5 0 1 1-1.5 1.5A1.5 1.5 0 0 1 20 18m-1.5-3.5A1.5 1.5 0 1 1 20 16a1.5 1.5 0 0 1-1.5-1.5M20 23a1.5 1.5 0 1 1-1.5 1.5A1.5 1.5 0 0 1 20 23m-5.5-5a1.5 1.5 0 1 1-1.5 1.5 1.5 1.5 0 0 1 1.5-1.5M13 14.5a1.5 1.5 0 1 1 1.5 1.5 1.5 1.5 0 0 1-1.5-1.5m1.5 8.5a1.5 1.5 0 1 1-1.5 1.5 1.5 1.5 0 0 1 1.5-1.5m11 3a1.5 1.5 0 1 1 1.5-1.5 1.5 1.5 0 0 1-1.5 1.5m0-5a1.5 1.5 0 1 1 1.5-1.5 1.5 1.5 0 0 1-1.5 1.5m0-5a1.5 1.5 0 1 1 1.5-1.5 1.5 1.5 0 0 1-1.5 1.5M27 8.923a1 1 0 0 1-1 1H14a1 1 0 0 1-1-1V7.005a1 1 0 0 1 1-1h12a1 1 0 0 1 1 1Z" fill="#1b5951"/><circle cx="14.5" cy="14.5" r="1.5" fill="#94e3d4"/><circle cx="20" cy="19.5" r="1.5" fill="#94e3d4"/><circle cx="20" cy="24.5" r="1.5" fill="#94e3d4"/><circle cx="20" cy="14.5" r="1.5" fill="#94e3d4"/><circle cx="25.5" cy="14.5" r="1.5" fill="#94e3d4"/><circle cx="14.5" cy="19.5" r="1.5" fill="#94e3d4"/><circle cx="25.5" cy="19.5" r="1.5" fill="#94e3d4"/><circle cx="14.5" cy="24.5" r="1.5" fill="#94e3d4"/><circle cx="25.5" cy="24.5" r="1.5" fill="#94e3d4"/><rect x="13" y="6.0055" width="14" height="3.9173" rx="1" fill="#94e3d4"/></g></svg>