<svg xmlns="http://www.w3.org/2000/svg" viewBox="0 0 40 40" focusable="false" aria-hidden="true"><path fill="none" d="M0 0h40v40H0z"/><g data-name="Icon Purple"><path d="m20.005 15.037-4.272 4.256L20 15.042l4.268 4.25a1 1 0 0 0 .714.293 1 1 0 0 1-.705-.292Z" fill="none"/><path d="m25.953 14.998-3.15-.002 2.894 2.883a1.006 1.006 0 0 1-1.43 1.414L20 15.042l-4.267 4.25a1.002 1.002 0 1 1-1.42-1.413l2.893-2.883-3.159.002c-.446 0-9.543 12.999-3.872 18.553A4.85 4.85 0 0 0 13.563 35h12.874a4.85 4.85 0 0 0 3.388-1.45c5.67-5.553-3.426-18.551-3.872-18.552M15.252 29.086a1.31 1.31 0 0 0 1.359-1.052l1.045.424a2.386 2.386 0 0 1-2.39 1.658 2.634 2.634 0 0 1 .008-5.268 2.4 2.4 0 0 1 2.382 1.659l-1.045.423a1.32 1.32 0 0 0-1.367-1.052 1.609 1.609 0 0 0 .008 3.208m7.387.935H21.55v-2.104h-1.936v2.104h-1.089v-5.078h1.089v2.002h1.936v-2.002h1.089Zm4.603-4.135h-2.287v1.125h2.017v.943h-2.017v2.067h-1.088v-5.078h3.375ZM26.756 7.164A1 1 0 0 0 25.77 6H14.13a1 1 0 0 0-.986 1.164L13.95 12h12Z" fill="#b8b2ff"/><path d="M14.313 19.293a1.007 1.007 0 0 0 1.42 0l4.272-4.256 4.273 4.256a1.002 1.002 0 1 0 1.42-1.414l-2.894-2.883-1-.996h4.146v-2h-12v2h4.256l-3.893 3.879a.997.997 0 0 0 0 1.414" fill="#6c2273"/><path d="M15.244 25.878a1.32 1.32 0 0 1 1.367 1.052l1.045-.423a2.4 2.4 0 0 0-2.382-1.659 2.634 2.634 0 0 0-.008 5.268 2.386 2.386 0 0 0 2.39-1.658l-1.045-.424a1.31 1.31 0 0 1-1.36 1.052 1.609 1.609 0 0 1-.007-3.208M21.55 26.945h-1.936v-2.002h-1.089v5.078h1.089v-2.104h1.936v2.104h1.089v-5.078H21.55zM23.867 30.021h1.088v-2.068h2.017v-.942h-2.017v-1.125h2.287v-.943h-3.375z" fill="#000d6e"/></g></svg>