<svg version="1.1" xmlns="http://www.w3.org/2000/svg" x="0px" y="0px" viewBox="0 0 40 40" xml:space="preserve" focusable="false" aria-hidden="true" enable-background="new 0 0 40 40"><path fill="none" d="M0 0h40v40H0z"/><g><circle cx="20.011" cy="12.175" r="4.138" fill="#FAE052"/><path d="M15.017 10.878h-2.114v.962h-2.405a.48.48 0 1 0 0 .962h2.405v.962h2.114c-.12-.462-.19-.944-.19-1.443s.07-.981.19-1.443M29.502 11.84h-2.405v-.962h-2.114c.12.462.19.944.19 1.443s-.07.981-.19 1.443h2.114v-.962h2.405a.48.48 0 1 0 0-.962" fill="#FA9319"/><circle cx="20.011" cy="12.175" r="1.448" fill="#000D6E"/><path d="M16.639 31.38c0-1.684 1.268-3.062 2.897-3.269V17.288a4.94 4.94 0 0 1-3.273-1.633h-1.141c-2.033 0-3.625 1.841-3.432 3.969l1.216 13.424c.084.93.827 1.641 1.716 1.641h2.018V31.38z" fill="#FAE052"/><path d="M24.95 15.655h-1.141a4.94 4.94 0 0 1-3.273 1.633v10.823c1.629.206 2.897 1.585 2.897 3.269v3.311h2.018c.889 0 1.632-.711 1.716-1.641l1.216-13.424c.192-2.13-1.4-3.971-3.433-3.971" fill="#FA9319"/><path d="M20.009 33.862h-1.655v2.483a1.655 1.655 0 0 0 3.31 0v-2.483z" fill="#000D6E"/><path d="M20.009 28.98a2.483 2.483 0 0 0-2.483 2.483v2.483h4.966v-2.483a2.483 2.483 0 0 0-2.483-2.483" fill="#FAE052"/><path d="m14.938 3.04-1.062 1.722v1.184h-.619V4.762L12.195 3.04h.694l.677 1.187.677-1.187zM14.544 4.846c0-.66.493-1.154 1.191-1.154.694 0 1.191.494 1.191 1.154.001.656-.497 1.154-1.19 1.154-.699 0-1.192-.498-1.192-1.154m1.764-.004c0-.352-.226-.598-.568-.598s-.573.246-.573.602c0 .352.23.603.573.603.334-.001.568-.252.568-.607M18.703 3.742h.619v2.203h-.582v-.209a.88.88 0 0 1-.643.264c-.561 0-.853-.385-.853-.887V3.742h.619v1.292c0 .242.159.414.418.414.255 0 .422-.172.422-.401zM21.875 4.558v1.388h-.615V4.679c0-.28-.184-.439-.435-.439-.247 0-.439.176-.443.401v1.305h-.619V3.742h.585v.205a.9.9 0 0 1 .665-.26c.528.001.862.356.862.871M25.185 4.386c0 1.033-.64 1.614-1.472 1.614-.87 0-1.505-.64-1.505-1.506 0-.873.644-1.509 1.505-1.509.715 0 1.179.418 1.354.882l-.594.247c-.113-.335-.38-.539-.773-.539-.519 0-.861.376-.861.932 0 .561.347.933.928.933.401 0 .694-.184.811-.585h-.882v-.469zM25.422 4.846c0-.66.493-1.154 1.191-1.154.694 0 1.191.494 1.191 1.154.001.656-.497 1.154-1.19 1.154-.699 0-1.192-.498-1.192-1.154m1.764-.004c0-.352-.226-.598-.568-.598s-.573.246-.573.602c0 .352.23.603.573.603.334-.001.568-.252.568-.607" fill="#000D6E"/></g></svg>