<svg version="1.1" xmlns="http://www.w3.org/2000/svg" x="0px" y="0px" viewBox="0 0 40 40" xml:space="preserve" focusable="false" aria-hidden="true" enable-background="new 0 0 40 40"><path fill="none" d="M0 0h40v40H0z"/><g><path d="M11.005 25.076c-1.657 0-3 1.343-3 3s1.343 1.919 3 1.919 3-.262 3-1.919-1.344-3-3-3" fill="#FFACA6"/><path d="M11.005 26.576c-.828 0-1.5.672-1.5 1.5s.672 1.4 1.5 1.4 1.5-.572 1.5-1.4-.672-1.5-1.5-1.5" fill="#000D6E"/><path d="M31.005 24a3 3 0 1 0 0 6 3 3 0 0 0 0-6m0 4.5a1.5 1.5 0 1 1 .001-3.001 1.5 1.5 0 0 1-.001 3.001" fill="#FFACA6"/><path d="M31.005 25.5a1.5 1.5 0 1 0 .001 3.001 1.5 1.5 0 0 0-.001-3.001" fill="#000D6E"/><path d="M15.409 16.666a2.8 2.8 0 0 1 1.765-.716l12.062-.448 1.621 2.972 1.749-.065-1.908-3.422a.6.6 0 0 0-.085-.127c-.011-.02-.021-.039-.032-.049-.137-.175-.312-.319-.513-.341-.06-.008-.23.009-.23.009l-12.701.472a3.78 3.78 0 0 0-2.405.98L11.29 19.2l1.519-.056zM32.7 20.93c.01.282.238.496.518.485l2.707-.101-.207-1.002-2.537.094a.5.5 0 0 0-.481.524M19.26 20.896l-1.998.074a.5.5 0 0 0-.481.523.5.5 0 0 0 .518.485l1.998-.074c.276-.01.491-.244.481-.523s-.242-.496-.518-.485M30.304 20.485l-1.998.074a.5.5 0 0 0-.481.523.5.5 0 0 0 .518.485l1.998-.074c.276-.01.491-.244.481-.523s-.242-.495-.518-.485" fill="#FFACA6"/><path d="m5.201 24.552 1.809-1.275-.617-.858-1.633.912s-.921.519-.868 1.96l.081 2.178c.021.555.487.991 1.036.971l1.978-.073.021-.001a4 4 0 0 1 .085-.932z" fill="#D9304C"/><path d="m35.926 21.315-2.707.101a.497.497 0 0 1-.518-.486.5.5 0 0 1 .481-.523l2.537-.094v-.01a1.01 1.01 0 0 0-1.036-.971l-11.189.415-13.197.49-3.025 1.69 1.14 1.585-1.843 1.299.958 1.461a3.99 3.99 0 0 1 3.33-2.052 4.005 4.005 0 0 1 4.146 3.849l8.473-.315 3.452-.128.296-.003c-.248-2.388.997-4.259 3.56-4.417 2.69-.166 4.18 1.821 3.932 4.12l1.373-.041a.9.9 0 0 0 .865-.941zm-16.629.589-1.998.074a.5.5 0 0 1-.518-.486.503.503 0 0 1 .481-.523l1.998-.074a.5.5 0 0 1 .518.486.503.503 0 0 1-.481.523m11.044-.41-1.998.074a.5.5 0 0 1-.518-.485.503.503 0 0 1 .481-.523l1.998-.074a.5.5 0 0 1 .518.486.5.5 0 0 1-.481.522" fill="#D9304C"/></g></svg>