<svg xmlns="http://www.w3.org/2000/svg" viewBox="0 0 40 40" focusable="false" aria-hidden="true"><path fill="none" d="M0 0h40v40H0z"/><g><path d="M30.578 20.095c2.205 0 4 1.794 4 4s-1.795 4-4 4-4-1.794-4-4 1.794-4 4-4m0-1a5 5 0 1 0 0 10 5 5 0 0 0 0-10M8.575 20.095c2.205 0 4 1.794 4 4s-1.795 4-4 4-4-1.794-4-4 1.794-4 4-4m0-1a5 5 0 1 0 0 10 5 5 0 0 0 0-10" fill="#000d6e"/><circle cx="17.71131953" cy="22.51814821" r="1.5" fill="#fa9319"/><path d="m30.53 23.09-5.97-.29c-.09.15-.17.32-.26.49-.23.47-.48 1.01-.76 1.61-.08.17-.16.35-.24.53l7.25-.6c.49 0 .87-.38.87-.87 0-.48-.39-.87-.89-.87M24.66 21.68c.04-.08.09-.16.14-.24l.25-.41c.11-.19.22-.35.31-.5l.306-.5H22.21a3.66 3.66 0 0 1-3.259-1.995h-5.563l1.672 6.455c.25.84 1.03 1.51 1.91 1.51h5.53l1.77-3.69z" fill="#fae052"/><path d="M10.023 13a1.5 1.5 0 0 1 0 3" fill="#fa9319"/><path d="M16.302 15.546h-2a.5.5 0 1 1 0-1h2a.5.5 0 1 1 0 1" fill="#000d6e"/><path fill="#fae052" d="M9.018 12.993h1V16h-1z"/><path d="M32.03 17.03c-1.03-.04-2 .05-2.88.27a2.67 2.67 0 0 0-2.63-2.27h-6.949c-.444-.703-1.15-1.16-2.094-1.16l-3.43-.212c-.898-.092-1.525 1.587-2.124 2.925l-3.91 7.197a.5.5 0 1 0 .879.477l3.923-7.222h6.82a2.665 2.665 0 0 0 2.575 1.995h3.58c-.188.183-.447.485-.79 1-.35.51-.77 1.23-1.29 2.23-.08.16-.16.32-.24.49-.08.16-.16.32-.25.49-.25.51-.52 1.09-.81 1.73-.07.15-.14.3-.2.46-.06.12-.11.24-.17.37l-.03.09c-.01.03-.01.07-.01.11h1.07l7.48-.67c.76 0 1.37-.61 1.37-1.37 0-.75-.61-1.37-1.37-1.37l-5.74-.28c.13-.23.24-.44.35-.63.04-.08.09-.16.14-.24.08-.15.17-.28.25-.41.11-.19.22-.35.31-.5.64-.95 1.56-1.59 2.63-1.99l.2-.07c.16-.07.32-.12.49-.16.84-.24 1.78-.33 2.81-.28.28.01.51-.2.52-.48a.5.5 0 0 0-.48-.52m-1.48 6.56c.2 0 .37.17.37.37 0 .21-.16.37-.37.37h-.08l-6.93.57c.28-.6.53-1.14.76-1.61l.46.02z" fill="#fa9319"/></g></svg>