<svg xmlns="http://www.w3.org/2000/svg" viewBox="0 0 40 40" focusable="false" aria-hidden="true"><path fill="none" d="M0 0h40v40H0z"/><g data-name="Icon Green"><path d="M8.913 31.02q.17-.013.354-.016a4 4 0 0 0-.354.017M30.246 30.02c.136-.01.274-.02.424-.02a4 4 0 0 0-.424.02M30.67 30c.15 0 .287.01.423.02a4 4 0 0 0-.423-.02M8.913 30.02c.136-.01.274-.02.424-.02a4 4 0 0 0-.424.02M30.246 31.02c.136-.01.274-.02.424-.02a4 4 0 0 0-.424.02M30.67 31c.15 0 .287.01.423.02a4 4 0 0 0-.423-.02M36 32c-.15 0-.287-.01-.424-.02A4 4 0 0 0 36 32M36 33c-.15 0-.287-.01-.424-.02A4 4 0 0 0 36 33" fill="none"/><path d="M19.584 31.02a5 5 0 0 1 .424-.02 4 4 0 0 0-.424.02M20.008 31c.15 0 .288.01.424.02a4 4 0 0 0-.424-.02M24.914 32.98a4 4 0 0 0 .423.02c-.15 0-.287-.01-.423-.02M25.337 33a4 4 0 0 0 .424-.02c-.136.01-.274.02-.424.02M14.25 32.98a4 4 0 0 0 .425.02c-.15 0-.288-.01-.425-.02M14.25 31.98a4 4 0 0 0 .425.02c-.15 0-.288-.01-.425-.02M19.584 30.02a5 5 0 0 1 .424-.02 4 4 0 0 0-.424.02M14.675 32a4 4 0 0 0 .424-.02 5 5 0 0 1-.424.02M14.675 33a4 4 0 0 0 .424-.02 5 5 0 0 1-.424.02M9.267 31.003q.036-.002.07-.003-.034.001-.07.003M25.337 32a4 4 0 0 0 .424-.02c-.136.01-.274.02-.424.02M20.008 30c.15 0 .288.01.424.02a4 4 0 0 0-.424-.02M24.914 31.98a4 4 0 0 0 .423.02c-.15 0-.287-.01-.423-.02" fill="#b8b2ff"/><path d="M14.675 31a3.44 3.44 0 0 0 2.366-.9 4.55 4.55 0 0 1 5.932.001 3.56 3.56 0 0 0 4.73-.001 5 5 0 0 1 1.742-.94l.74-10.585-8.783-9.314a.895.895 0 0 0-1.189-.07l-9.98 7.989-.826 11.823a4.44 4.44 0 0 1 2.899 1.097 3.45 3.45 0 0 0 2.369.9" fill="#94e3d4"/><path d="m8.565 17.235 11.033-8.832a1.9 1.9 0 0 1 2.532.172l9.7 10.287.364-.343.363-.343-9.704-10.292a2.9 2.9 0 0 0-3.875-.266L7.94 16.455l.312.39Z" fill="#000d6e"/><path fill="#1b5951" d="m29.955 7.535-3.991-.279-.16 2.3 3.733 3.959zM35.576 31.98a4.5 4.5 0 0 1-2.542-1.08 3.54 3.54 0 0 0-1.941-.88c-.136-.01-.274-.02-.423-.02s-.288.01-.424.02a3 3 0 0 0-.876.218 5 5 0 0 0-1.066.662 4.5 4.5 0 0 1-2.542 1.08 4.3 4.3 0 0 1-.848 0 4.48 4.48 0 0 1-2.54-1.08 3.54 3.54 0 0 0-1.942-.88c-.136-.01-.274-.02-.424-.02s-.288.01-.424.02a3.54 3.54 0 0 0-1.943.88 4.5 4.5 0 0 1-2.542 1.08 4.3 4.3 0 0 1-.849 0 4.5 4.5 0 0 1-2.544-1.08 3.55 3.55 0 0 0-1.944-.88c-.137-.01-.274-.02-.425-.02s-.288.01-.424.02a3.54 3.54 0 0 0-1.945.88 4.5 4.5 0 0 1-2.544 1.08q-.197.019-.424.02v1c.15 0 .288-.01.424-.02a4.5 4.5 0 0 0 2.544-1.08 3.54 3.54 0 0 1 1.945-.88q.166-.016.354-.018.036-.002.07-.003.227 0 .425.021a3.55 3.55 0 0 1 1.944.88 4.5 4.5 0 0 0 2.544 1.08c.136.01.274.02.425.02s.287-.01.423-.02a4.5 4.5 0 0 0 2.543-1.08 3.54 3.54 0 0 1 1.943-.88 4.3 4.3 0 0 1 .848 0 3.54 3.54 0 0 1 1.94.879 4.48 4.48 0 0 0 2.542 1.08c.136.01.274.02.423.02s.288-.01.424-.02a4.5 4.5 0 0 0 2.542-1.079 5.2 5.2 0 0 1 .995-.634 3 3 0 0 1 .948-.245 4.3 4.3 0 0 1 .847 0 3.54 3.54 0 0 1 1.941.878 4.5 4.5 0 0 0 2.542 1.08c.136.011.274.021.424.021v-1a4 4 0 0 1-.424-.02"/></g></svg>