<svg version="1.1" xmlns="http://www.w3.org/2000/svg" x="0px" y="0px" viewBox="0 0 40 40" xml:space="preserve" focusable="false" aria-hidden="true" enable-background="new 0 0 40 40"><path fill="none" d="M0 0h40v40H0z"/><g><path d="M6.938 23.008H5.027v7.986h1.912c.598 0 1.083-.485 1.083-1.083v-5.82a1.085 1.085 0 0 0-1.084-1.083" fill="#B8B2FF"/><path d="M34.947 26.225a1.496 1.496 0 0 0-1.471-1.22l-.298.032-7.188 1.725v.24c0 1.286-1.18 1.996-1.996 1.996H15.01a.498.498 0 1 1 0-.998h8.984c.284 0 .998-.297.998-.998h-.001l.001-.026v-.973l-.002-.064-.001-.01a.95.95 0 0 0-.43-.717l-.008-.005-.075-.047-.015-.008-.068-.036-.006-.003-.035-.016-.035-.015-.006-.003-.027-.01-.014-.005-.028-.01-.011-.004-.026-.008-.013-.004-.008-.002q-.034-.01-.066-.016l-.004-.001a.6.6 0 0 0-.121-.013h-5.016c-.521-.01-1.006-.341-1.566-.724l-.093-.063-.023-.015-.083-.056-.019-.013-.211-.141-.01-.007-.105-.068-.005-.003a9 9 0 0 0-.236-.145h-.001a5.6 5.6 0 0 0-1.236-.558 7.4 7.4 0 0 0-1.689-.203h-3.676c-.554 0-1.004.449-1.004 1.004v3.988h.005a1 1 0 0 0-.005.112v1.884s-.001.642.997.998c.998.357 6.468 2.612 6.602 2.666a4.48 4.48 0 0 0 3.201.073c.015-.005 14.201-5.836 14.201-5.836a1.5 1.5 0 0 0 .926-1.674" fill="#6C2273"/><path d="M22.341 20.697a7.126 7.126 0 0 0-7.126-7.126 7.125 7.125 0 0 0 7.126 7.126M24.721 22.034a4.66 4.66 0 0 0 4.658-4.658 4.66 4.66 0 0 0-4.658 4.658" fill="#000D6E"/><path d="M23.932 24.017V13.956c3.514-.439 6.236-3.431 6.236-7.065a7.125 7.125 0 0 0-7.125 7.101h-.001v10.023h.89z" fill="#000D6E"/></g></svg>