<svg xmlns="http://www.w3.org/2000/svg" viewBox="0 0 40 40" focusable="false" aria-hidden="true"><path fill="none" d="M0 0h40v40H0z"/><g><path d="M14.86 27H15V17h-4.91a2 2 0 0 0-2 2.43l.66 5.3A4 4 0 0 1 11 24a4 4 0 0 1 3.86 3m-2.36-8a1.5 1.5 0 1 1-1.5 1.5 1.5 1.5 0 0 1 1.5-1.5M25.14 27A4 4 0 0 1 29 24a4 4 0 0 1 2.29.73l.66-5.3a2 2 0 0 0-2-2.43H25v10Zm2.36-8a1.5 1.5 0 1 1-1.5 1.5 1.5 1.5 0 0 1 1.5-1.5" fill="#1b5951"/><path d="m15 14.42.53-.28a9.33 9.33 0 0 1 8.94 0l.53.28V16h5l-.51-6.24A3 3 0 0 0 26.5 7h-13a3 3 0 0 0-3 2.76L10 16h5zM32 29v-1a3 3 0 0 0-6 0v1Z" fill="#94e3d4"/><path d="M24 15a8.35 8.35 0 0 0-8 0v13h8Z" fill="#1b5951"/><path d="M14 29v-1a3 3 0 0 0-6 0v1Z" fill="#94e3d4"/><path d="M27 29v2a2 2 0 0 0 4 0v-2ZM9 29v2a2 2 0 0 0 4 0v-2Z" fill="#000d6e"/></g></svg>