<svg xmlns="http://www.w3.org/2000/svg" viewBox="0 0 40 40" focusable="false" aria-hidden="true"><path fill="none" d="M0 0h40v40H0z"/><g data-name="Icon Red"><path d="M7 26.982v-16h26v11.772l1-.165V10.982a1 1 0 0 0-1-1H7a1 1 0 0 0-1 1v17h12.05l-.165-1ZM17 30.982v-2H4v1a2 2 0 0 0 2 2h12.71l-.166-1Z" fill="#d9304c"/><path d="M7 10.982v16h10.885l-.116-.703a1 1 0 0 1 .824-1.15L33 22.755V10.982ZM18.544 30.982l-.329-2H17v2z" fill="#ffaca6"/><path d="M35.53 23.35a1 1 0 0 0-1.15-.823l-.38.062-1 .165-14.407 2.376a1 1 0 0 0-.824 1.15l.116.702.165 1 .165 1 .33 2 .164 1 .524 3.177a1 1 0 0 0 1.15.825l15.786-2.604a1 1 0 0 0 .824-1.15Zm-4.448 2.757a.163.163 0 0 1-.038-.23l1.489-2.028a.17.17 0 0 1 .236-.039l2.06 1.443a.163.163 0 0 1 .038.23l-.404.55-1.638-1.147-.681.928.943.66.422-.575.696.487-.826 1.125a.17.17 0 0 1-.236.039Zm-9.533 8.51a.26.26 0 0 1-.218.107.26.26 0 0 1-.146-.049 3.127 3.127 0 0 1-.687-4.362.26.26 0 1 1 .42.307 2.605 2.605 0 0 0 .573 3.634.26.26 0 0 1 .058.364m.616-.838a.26.26 0 0 1-.217.106.26.26 0 0 1-.146-.049 2.085 2.085 0 0 1-.46-2.913.26.26 0 0 1 .42.307 1.563 1.563 0 0 0 .345 2.185.26.26 0 0 1 .058.364m.612-.841a.26.26 0 0 1-.217.106.27.27 0 0 1-.146-.049 1.047 1.047 0 0 1-.23-1.46.26.26 0 1 1 .42.306.524.524 0 0 0 .116.732.26.26 0 0 1 .057.365" fill="#000d6e"/><path d="m33.379 27.51.826-1.124-.696-.487-.422.575-.943-.66.68-.928 1.64 1.147.403-.55a.163.163 0 0 0-.038-.23l-2.06-1.443a.17.17 0 0 0-.236.039l-1.489 2.028a.163.163 0 0 0 .038.23l2.06 1.443a.17.17 0 0 0 .237-.04M20.919 30.62a.26.26 0 1 0-.421-.306 3.127 3.127 0 0 0 .687 4.362.26.26 0 0 0 .146.049.26.26 0 0 0 .16-.471 2.605 2.605 0 0 1-.572-3.634" fill="#ffaca6"/><path d="M21.483 32.394a1.55 1.55 0 0 1 .28-1.164.26.26 0 0 0-.42-.306 2.085 2.085 0 0 0 .46 2.912.26.26 0 0 0 .145.05.26.26 0 0 0 .16-.471 1.55 1.55 0 0 1-.625-1.021" fill="#ffaca6"/><path d="M22.604 31.842a.26.26 0 1 0-.42-.307 1.047 1.047 0 0 0 .23 1.46.27.27 0 0 0 .146.05.26.26 0 0 0 .16-.47.524.524 0 0 1-.116-.733" fill="#ffaca6"/></g></svg>