<svg xmlns="http://www.w3.org/2000/svg" viewBox="0 0 40 40" focusable="false" aria-hidden="true"><path fill="none" d="M0 0h40v40H0z"/><g data-name="Icon Tangerine"><path d="M36 8H4a2 2 0 0 0-2 2v18a2 2 0 0 0 2 2h32a2 2 0 0 0 2-2V10a2 2 0 0 0-2-2m1 20a1 1 0 0 1-1 1H4a1 1 0 0 1-1-1V10a1 1 0 0 1 1-1h32a1 1 0 0 1 1 1ZM25.181 31H14.819a.82.82 0 0 0-.819.819V33h12v-1.181a.82.82 0 0 0-.819-.819" fill="#fa9319"/><circle cx="34.5" cy="10.5" r="0.5" fill="#fa9319"/><circle cx="32.5" cy="10.5" r="0.5" fill="#fa9319"/><path fill="#fae052" d="M13.449 16.006h-.037l1.443 4.329h9.465l1.082-4.329H13.449"/><path d="M36 9H4a1 1 0 0 0-1 1v18a1 1 0 0 0 1 1h32a1 1 0 0 0 1-1V10a1 1 0 0 0-1-1M16 27a1 1 0 1 1 1-1 1 1 0 0 1-1 1m8 0a1 1 0 1 1 1-1 1 1 0 0 1-1 1m2.485-11.402-1.333 5.329a.5.5 0 0 1-.485.379h-9.521l.555 1.665h8.967a.5.5 0 1 1 0 1H15.34a.5.5 0 0 1-.474-.342L11.427 13H10a.5.5 0 0 1 0-1h1.787a.5.5 0 0 1 .474.342l.776 2.64c.009 0 .016-.005.025-.005H26a.5.5 0 0 1 .485.62M32.5 11a.5.5 0 1 1 .5-.5.5.5 0 0 1-.5.5m2 0a.5.5 0 1 1 .5-.5.5.5 0 0 1-.5.5" fill="#fae052"/><circle cx="16" cy="26" r="1" fill="#000d6e"/><circle cx="24" cy="26" r="1" fill="#000d6e"/><path d="M26 14.977H13.063q-.014.002-.026.005l-.776-2.64a.5.5 0 0 0-.474-.342H10a.5.5 0 0 0 0 1h1.426l3.44 10.63a.5.5 0 0 0 .474.34h9.327a.5.5 0 1 0 0-1h-8.966l-.555-1.664h9.521a.5.5 0 0 0 .485-.379l1.333-5.33a.5.5 0 0 0-.485-.62m-1.68 5.358h-9.465l-1.443-4.33h11.99Z" fill="#000d6e"/></g></svg>