<svg version="1.1" xmlns="http://www.w3.org/2000/svg" x="0px" y="0px" viewBox="0 0 40 40" xml:space="preserve" focusable="false" aria-hidden="true" enable-background="new 0 0 40 40"><path fill="none" d="M0 0h40v40H0z"/><g><path fill="#FA9319" d="M28.195 6h-4v2.306l4 3.688z"/><path d="m31.534 16.433-10.399-9.59a2.9 2.9 0 0 0-3.884.005L6.856 16.433l.339.367.339.367 10.39-9.58a1.9 1.9 0 0 1 2.538-.005l10.395 9.585.339-.367z" fill="#000D6E"/><path d="M18.866 24.873v-.502l.402-.3 6.248-4.659a1.7 1.7 0 0 1 1.977 0l1.702 1.269v-3.684l-9.412-8.679a.894.894 0 0 0-1.191.013l-9.398 8.666V34h9.671z" fill="#FAE052"/><path d="m26.105 20.221-6.239 4.652V34h13.278v-9.127l-6.248-4.659a.7.7 0 0 0-.791.007" fill="#FA9319"/></g></svg>