<svg xmlns="http://www.w3.org/2000/svg" viewBox="0 0 40 40" focusable="false" aria-hidden="true"><path fill="none" d="M0 0h40v40H0z"/><g><path d="M30.5 18.5h3a.5.5 0 1 1 0 1h-3a.5.5 0 1 1 0-1M16 28.714h2.857V30a1 1 0 0 1-1 1H17a1 1 0 0 1-1-1zM5.143 28.714H8V30a1 1 0 0 1-1 1h-.857a1 1 0 0 1-1-1z" fill="#000d6e"/><rect x="18.28571429" y="20.71428573" width="1.71428571" height="1.14285714" rx=".40343328" ry=".40343328" fill="#fa9319"/><rect x="4" y="20.71428573" width="1.71428571" height="1.14285714" rx=".40343328" ry=".40343328" fill="#fa9319"/><path d="m18.681 24.143-.582-1.714H5.9l-.582 1.714a2.3 2.3 0 0 0-.176.879v3.12h13.714v-3.12c0-.302-.06-.6-.176-.88M7.143 26.429a.857.857 0 1 1 0-1.715.857.857 0 0 1 0 1.715m9.714 0a.857.857 0 1 1 0-1.715.857.857 0 0 1 0 1.715" fill="#fa9319"/><path d="M16.44 18.34a1.71 1.71 0 0 0-1.583-1.054H9.143c-.692 0-1.316.416-1.583 1.055l-1.465 3.516h11.81z" fill="#fae052"/><path fill="#fa9319" d="M2 34h36v3H2z"/><path d="M31.968 17.5h1.288a1 1 0 0 1 1 1v2.801h-3.288V18.5a1 1 0 0 1 1-1" fill="#fae052"/><path d="M29.824 20.48H35.4a.5.5 0 0 1 .5.5v11.007h-6.576V20.979a.5.5 0 0 1 .5-.5" fill="#fa9319"/><path d="M22.84 18.5h3a.5.5 0 1 1 0 1h-3a.5.5 0 1 1 0-1M26.807 21.864a.5.5 0 1 1 .707.708l-2.121 2.12a.5.5 0 0 1-.707 0 .5.5 0 0 1 0-.706zM27.158 16.353a.5.5 0 0 1-.354-.147l-2.121-2.12a.5.5 0 1 1 .707-.708L27.51 15.5a.5.5 0 0 1-.353.854" fill="#000d6e"/><path d="M2 10.01V34h36V10.01L20 2zM37 31H3V12h34z" fill="#fae052"/></g></svg>