<svg xmlns="http://www.w3.org/2000/svg" viewBox="0 0 40 40" focusable="false" aria-hidden="true"><path fill="none" d="M0 0h40v40H0z"/><g><path d="m24.8 30.247 5.257-3.922c.067-.05.14-.09.21-.132l-2.607-3.47c-.392-.523-.57-1.2-.388-1.827.128-.442.336-2.216.172-3.283a2 2 0 0 0-.292-1.226l-1.735-2.765a1.4 1.4 0 0 0-.446-.439c-.046-.05-.075-.108-.13-.151l-2.546-2.013a1.4 1.4 0 0 0-1.966.23l-.04.05a1.4 1.4 0 0 0-.139 1.514c-.163.055-.329.132-.502.262l-4.96 3.721a2 2 0 0 0-.399 2.8l3.656 4.313a3.94 3.94 0 0 0 2.328 1.485c.48.104.91.362 1.205.754l3.178 4.23c.049-.043.091-.091.144-.131" fill="#94e3d4"/><path d="m22.383 18.16-.69.52a1 1 0 0 1-1.4-.2l-2.896-3.853a1.276 1.276 0 0 1 .254-1.785l.072-.054a1.5 1.5 0 0 1 2.1.299l2.76 3.673a1 1 0 0 1-.2 1.4M20.093 19.88l-.691.52a1 1 0 0 1-1.4-.199l-2.895-3.853a1.276 1.276 0 0 1 .254-1.785l.071-.054a1.5 1.5 0 0 1 2.1.298l2.76 3.673a1 1 0 0 1-.199 1.4" fill="#fae052"/><path d="m18.096 21.352-.596.496a1 1 0 0 1-1.408-.13l-2.941-3.533a1.276 1.276 0 0 1 .164-1.796 1.5 1.5 0 0 1 2.113.194l2.797 3.36a1 1 0 0 1-.13 1.409" fill="#fae052"/><path d="M20 3.22a.5.5 0 0 0-.5.5v3.39a.5.5 0 1 0 1 0V3.72a.5.5 0 0 0-.5-.5M15.162 4.643a.5.5 0 0 0-.924.382l1.15 2.77a.5.5 0 0 0 .923-.382zM10.822 7.438a.5.5 0 0 0-.716.7L11.827 9.9a.5.5 0 0 0 .707.008.5.5 0 0 0 .009-.707zM25.492 4.372a.5.5 0 0 0-.654.27L23.69 7.414a.5.5 0 1 0 .924.383l1.15-2.77a.5.5 0 0 0-.271-.654M29.885 7.43a.5.5 0 0 0-.707.008l-1.721 1.763a.5.5 0 0 0 .716.7l1.721-1.763a.5.5 0 0 0-.009-.707" fill="#000d6e"/><path d="M26.349 16.725a1.5 1.5 0 0 0-1.586-.205l.13-.172a1.275 1.275 0 0 0-.254-1.785l-.071-.054a1.5 1.5 0 0 0-2.1.298l-.045.059.18-.239a1.275 1.275 0 0 0-.254-1.785l-.072-.054a1.5 1.5 0 0 0-2.1.299l.135-.18a1.275 1.275 0 0 0-.253-1.785l-.072-.054-1.95 1.594a3.35 3.35 0 0 0-2.088 1.283l-.821 1.094-1.912 2.545a3.88 3.88 0 0 0-.603 3.465c.186.62.016 1.289-.369 1.8L9.68 26.266c.031.021.066.038.096.06l5.257 3.922c.09.067.167.144.245.22l3.138-4.177c.289-.384.715-.635 1.19-.734a3.82 3.82 0 0 0 2.299-1.446l2.271-2.754c.096-.083.18-.16.233-.225l2.105-2.61a1.275 1.275 0 0 0-.164-1.796M32.281 27.265l1.143 1.533-7.214 5.38-1.143-1.531c-.357-.48-.21-1.195.331-1.598l5.257-3.922c.54-.403 1.269-.341 1.626.138" fill="#1b5951"/><path d="m7.551 27.265-1.143 1.533 7.214 5.38 1.143-1.531c.358-.48.21-1.195-.33-1.598l-5.258-3.922c-.54-.403-1.268-.341-1.626.138M20.353 11.311l-.605-.613a1.4 1.4 0 0 0-1.98-.013l-.046.045a1.4 1.4 0 0 0-.326 1.47 1.4 1.4 0 0 0-1.492.303l-.046.046c-.364.358-.466.863-.354 1.325-.465-.126-.978-.03-1.346.332l-.046.045a1.4 1.4 0 0 0-.326 1.471 1.4 1.4 0 0 0-1.493.303l-.046.045a1.4 1.4 0 0 0-.014 1.98l.605.613a1.4 1.4 0 0 0 1.98.014l.046-.046c.401-.396.506-.973.326-1.47a1.4 1.4 0 0 0 1.493-.303l.046-.045c.363-.359.466-.863.353-1.326.465.126.979.031 1.347-.332l.046-.045c.401-.396.505-.973.326-1.471a1.4 1.4 0 0 0 1.493-.303l.045-.045a1.4 1.4 0 0 0 .014-1.98" fill="#94e3d4"/></g></svg>