<svg version="1.1" xmlns="http://www.w3.org/2000/svg" x="0px" y="0px" viewBox="0 0 40 40" xml:space="preserve" focusable="false" aria-hidden="true" enable-background="new 0 0 40 40"><path fill="none" d="M0 0h40v40H0z"/><g><path d="m17.566 13.102-.005.005 3.826 3.811a.9.9 0 0 0 .633.26.9.9 0 0 1-.624-.26z" fill="none"/><path d="M23.618 6.044A.896.896 0 0 0 22.734 5H12.299a.896.896 0 0 0-.884 1.044l.723 4.335h10.759z" fill="#FAE052"/><path d="m13.735 16.918 3.826-3.811.005-.005 3.83 3.816a.9.9 0 0 0 .624.26l.008.001a.896.896 0 0 0 .641-1.53l-2.594-2.584-.897-.893h3.718v-1.793H12.137v1.793h3.816l-3.491 3.477a.89.89 0 0 0 0 1.268.9.9 0 0 0 1.273.001" fill="#FA9319"/><path d="M27.309 21.215c-1.358-4.25-4.18-8.147-4.411-8.148l-2.823-.002 2.594 2.584a.893.893 0 0 1 0 1.268.9.9 0 0 1-.641.262l-.008-.001a.9.9 0 0 1-.633-.26l-3.826-3.811-3.826 3.811a.903.903 0 0 1-1.537-.634c0-.229.088-.459.264-.634l2.594-2.584-2.832.002c-.4 0-8.556 11.654-3.472 16.633.794.776 1.849 1.299 3.038 1.299h10.895A6.95 6.95 0 0 1 22 28c0-3.276 2.265-6.026 5.309-6.785" fill="#FAE052"/><path d="M23 28a6 6 0 1 0 12 0 6 6 0 0 0-12 0m8.328-1.672h1.996v.558h-1.352v.666h1.192v.557h-1.192v1.223h-.644zm-3.158 0h.644v1.185h1.145v-1.185h.644v3.004h-.644v-1.245h-1.145v1.245h-.644zm-1.922-.056c.773 0 1.249.476 1.409.981l-.618.251c-.104-.376-.367-.622-.808-.622-.514 0-.878.381-.878.95 0 .567.363.947.882.947.441 0 .7-.241.804-.622l.618.251c-.164.523-.644.981-1.413.981-.878 0-1.543-.653-1.543-1.556 0-.908.665-1.561 1.547-1.561M17.162 26.332c-.751 0-1.31.575-1.31 1.358 0 .735.559 1.31 1.31 1.31.767 0 1.342-.575 1.342-1.343 0-.75-.559-1.325-1.342-1.325M17.689 17c-1.902 0-3.244 1.054-3.595 2.652l2.221.719c.112-.655.591-1.103 1.23-1.103.623 0 1.023.335 1.023.975 0 1.438-2.429 1.805-2.429 4.138v.591h2.029v-.432c0-1.725 2.86-1.965 2.86-4.57.001-1.852-1.277-2.97-3.339-2.97" fill="#000D6E"/></g></svg>