<svg data-name="Calque 1" xmlns="http://www.w3.org/2000/svg" viewBox="0 0 40 40" focusable="false" aria-hidden="true"><path d="M25 22H4c-.55 0-1 .45-1 1v10c0 .55.45 1 1 1h21c.55 0 1-.45 1-1V23c0-.55-.45-1-1-1m-2.43 8.6-.05.49h-1.07v.24h1.04l-.05.49h-.83c.19.29.52.46.87.45.35.03.68-.15.84-.46l.66.45c-.33.49-.9.78-1.5.75-.78.02-1.48-.46-1.73-1.2h-.46l.05-.49h.31v-.24h-.28l.05-.49h.33c.26-.73.97-1.21 1.75-1.18.59-.02 1.15.27 1.48.76l-.67.44a.88.88 0 0 0-.84-.47.98.98 0 0 0-.87.45h.96Z" fill="#ffa39d"/><path d="m22.57 30.6-.05.49h-1.07v.24h1.04l-.05.49h-.83c.19.29.52.46.87.45.35.03.68-.15.84-.46l.66.45c-.33.49-.9.78-1.5.75-.78.02-1.48-.46-1.73-1.2h-.46l.05-.49h.31v-.24h-.28l.05-.49h.33c.26-.73.97-1.21 1.75-1.18.59-.02 1.15.27 1.48.76l-.67.44a.88.88 0 0 0-.84-.47.98.98 0 0 0-.87.45h.96Z" fill="#000d6e"/><path d="M0 0h40v40H0z" fill="none"/><path d="M8 34H3.98c-.55 0-.98-.45-.98-1V23c0-.55.44-1 .98-1H8m8.52-14c-.28 0-.5-.22-.5-.5s.22-.5.5-.5h18.25V6c0-1.1-.9-2-2-2H16c-1.1 0-2 .9-2 2v15h11c1.1 0 2 .9 2 2v1h8.99v-4.6h-2.58a3.44 3.44 0 1 1 0-6.88h2.58V9c0-.55-.45-1-1-1z" fill="#d0304c"/><path d="M30.97 15.96c0 1.35 1.09 2.44 2.44 2.44h3.6v-4.88h-3.6c-1.35 0-2.44 1.09-2.44 2.44" fill="#ffa39d"/><circle cx="34" cy="16" r="1" fill="#000d6e"/></svg>