<svg version="1.1" xmlns="http://www.w3.org/2000/svg" x="0px" y="0px" viewBox="0 0 40 40" xml:space="preserve" focusable="false" aria-hidden="true" enable-background="new 0 0 40 40"><path fill="none" d="M0 0h40v40H0z"/><g><path d="M25 34H4a1 1 0 0 1-1-1V23a1 1 0 0 1 1-1h21a1 1 0 0 1 1 1v10a1 1 0 0 1-1 1" fill="#94E3D4"/><path d="M8 34H3.979A.99.99 0 0 1 3 33V23c0-.552.438-1 .979-1H8M16.522 8a.5.5 0 0 1 0-1h18.251V6a2 2 0 0 0-2-2H16.001a2 2 0 0 0-2 2v15H25c1.103 0 2 .897 2 2v1h8.988v-4.602h-2.579c-1.896 0-3.438-1.542-3.438-3.438s1.542-3.438 3.438-3.438h2.579V9a1 1 0 0 0-1-1H16.522" fill="#1B5951"/><path d="M14.609 31.233c0-1.052.754-1.808 1.753-1.808.877 0 1.416.551 1.597 1.137l-.7.29c-.118-.436-.417-.721-.916-.721-.583 0-.994.44-.994 1.102 0 .655.411 1.096.999 1.096.5 0 .793-.28.911-.721l.7.29c-.186.605-.729 1.137-1.602 1.137-.993 0-1.748-.756-1.748-1.802M20.373 29.491h.73v3.479h-.73v-1.441h-1.298v1.441h-.73v-3.479h.73v1.371h1.298zM23.991 30.137h-1.533v.771h1.352v.646h-1.352v1.416h-.73v-3.479h2.263z" fill="#000D6E"/><path d="M30.971 15.961a2.44 2.44 0 0 0 2.438 2.438h3.603v-4.875h-3.603a2.44 2.44 0 0 0-2.438 2.437" fill="#94E3D4"/><circle cx="34" cy="16" r="1" fill="#000D6E"/></g></svg>