<svg xmlns="http://www.w3.org/2000/svg" viewBox="0 0 40 40" focusable="false" aria-hidden="true"><path fill="none" d="M0 0h40v40H0z"/><g data-name="Icon Green"><path d="m10.308 27.021-8.308 8h7.111l5.026-8zM11.705 35.021h7.026q.299-3.996.591-7.994l-3.788-.006zM20.759 27.021l.65 8h6.941a4405 4405 0 0 0-3.837-7.988zM29.742 27.039l-3.727-.018 5.13 8H38q-4.121-3.99-8.258-7.982" fill="#94e3d4"/><path d="M15.683 14.567c-.278.146-.518.273-.76.397-.099.05-.107.15-.133.236q-.59 1.912-1.174 3.826c-.229.753-.923 1.16-1.628.947-.661-.2-1.065-.886-.869-1.55q.65-2.2 1.347-4.385c.174-.546.547-.964 1.055-1.236a260 260 0 0 1 3.335-1.756c.52-.268 1.066-.443 1.667-.32 1.023.211 1.768 1.248 1.625 2.28a1509 1509 0 0 1-.903 6.421c-.067.468.062.839.425 1.145.65.55 1.284 1.117 1.933 1.667.534.453.84 1.02.892 1.717.146 1.922.294 3.845.428 5.768a1.546 1.546 0 0 1-1.463 1.657c-.83.053-1.552-.584-1.62-1.45a863 863 0 0 1-.398-5.277.44.44 0 0 0-.17-.336c-.981-.835-1.935-1.704-2.94-2.507-1.084-.865-1.42-1.95-1.2-3.283.207-1.255.362-2.518.54-3.777.006-.046.006-.092.01-.184M19.187 5.006A2.47 2.47 0 0 1 21.67 7.47a2.483 2.483 0 0 1-2.477 2.496 2.48 2.48 0 0 1-2.481-2.468 2.47 2.47 0 0 1 2.476-2.49" fill="#1b5951"/><path d="M24.601 17.27c-1.012-.783-2.03-1.559-3.045-2.337l-.606-.463-.406 2.928q1.25.956 2.5 1.914.339.257.76.266a1.285 1.285 0 0 0 1.232-.842 1.28 1.28 0 0 0-.435-1.467M14.971 21.97l-.482 1.5q-.938 2.916-1.878 5.833c-.128.395-.123.784.047 1.165.255.573.842.939 1.459.914a1.54 1.54 0 0 0 1.42-1.073c.666-2.056 1.323-4.116 1.993-6.172z" fill="#1b5951"/></g></svg>