<svg xmlns="http://www.w3.org/2000/svg" viewBox="0 0 40 40" focusable="false" aria-hidden="true"><path fill="none" d="M0 0h40v40H0z"/><g data-name="Icon Purple"><path d="M30.863 10.4a1.383 1.383 0 0 0-1.683-.998l-8.89 2.272-2.006-7.568a2.8 2.8 0 0 0-3.404-2.018l-.68.174L17.7 16l1.66-.42 1.198-.305L27.2 13.59l1-.253 3.205-.813Z" fill="#b8b2ff"/><path d="M18.506 20.397q.005-.006.009-.011l2.043-5.11-1.199.304-1.747 4.369q.438.24.894.448M31.434 19.307l-3.233-5.97-1 .254 3.383 6.247q.436-.25.85-.53" fill="#000d6e"/><path d="M21.864 10a1 1 0 0 0 .244-.03l5.6-1.4a1 1 0 1 0-.485-1.94l-5.6 1.4a1 1 0 0 0 .241 1.97M24 23a14.64 14.64 0 0 0 9.87-3.815.696.696 0 0 0 .011-1.004.705.705 0 0 0-.974-.012 13.276 13.276 0 0 1-17.814 0 .705.705 0 0 0-.974.012.696.696 0 0 0 .012 1.004A14.64 14.64 0 0 0 24 23M6.938 23.008H5.027v7.985h1.911a1.083 1.083 0 0 0 1.083-1.083v-5.82a1.083 1.083 0 0 0-1.083-1.082" fill="#6c2273"/><path d="M34.947 26.225a1.5 1.5 0 0 0-1.471-1.22l-.299.031-7.188 1.725v.24a2.057 2.057 0 0 1-1.996 1.997h-8.984a.5.5 0 1 1 0-.999h8.984a1.066 1.066 0 0 0 .998-.998v-.998q0-.033-.002-.065l-.001-.01a.95.95 0 0 0-.43-.716l-.008-.006-.075-.047-.015-.009-.068-.036-.007-.003-.035-.017-.035-.014-.006-.003-.027-.01-.014-.005-.028-.01-.011-.004-.026-.008-.013-.004-.007-.002-.066-.016h-.004a.6.6 0 0 0-.12-.014h-5.016a3.1 3.1 0 0 1-1.566-.725l-.093-.063-.022-.016-.083-.056-.019-.013q-.103-.07-.211-.14l-.01-.007-.105-.067-.006-.004a9 9 0 0 0-.236-.144 5.6 5.6 0 0 0-1.236-.558 7.4 7.4 0 0 0-1.69-.203h-3.677a1.004 1.004 0 0 0-1.003 1.004v3.987h.005a2 2 0 0 0-.005.112v1.884s-.001.642.997.998 6.469 2.612 6.602 2.667a4.5 4.5 0 0 0 3.2.072c.015-.005 14.201-5.835 14.201-5.835a1.5 1.5 0 0 0 .927-1.672" fill="#b8b2ff"/></g></svg>