<svg viewBox="0 0 40 40" xmlns="http://www.w3.org/2000/svg" focusable="false" aria-hidden="true"><path d="M0 0h40v40H0z" fill="none"/><g fill="#000d6e"><path d="M37.099 36.086h-8.182c-.502 0-.91.447-.91 1 0 .542.395.979.885.994.009 0 .016.006.025.006h8.182c.502 0 .909-.448.909-1 0-.553-.407-1-.91-1M37.099 33.085h-8.182c-.502 0-.91.447-.91 1s.408 1 .91 1h8.182c.502 0 .909-.448.909-1 0-.553-.407-1-.91-1M37.099 30.083h-8.182c-.502 0-.91.448-.91 1s.408 1 .91 1h8.182c.502 0 .909-.447.909-1s-.407-1-.91-1"/></g><circle cx="14.58745" cy="11.73145" fill="#94e3d4" r=".80688"/><path d="M10.35 11.142a.808.808 0 0 0 0 1.614.808.808 0 0 0 0-1.614" fill="#94e3d4"/><path d="M8.232 11.648c.033-.292-.089-.775-.044-1.318.069-.833.498-1.5.064-1.617-.034-.01-.06-.022-.104-.025-.62-.033-1.182.668-1.256 1.565-.063.761.248 1.414.722 1.616.147-.147.316-.253.508-.253.04 0 .072.025.11.032M12.44 14.294c-.899-.014-1.622.477-1.614 1.098.008.62.723.186 1.623.2s1.644.473 1.636-.148c-.008-.62-.744-1.135-1.644-1.15M16.64 10.33c.045.555-.084 1.05-.044 1.34.06-.02.117-.054.182-.054.181 0 .34.096.482.228.446-.224.736-.856.675-1.591-.074-.897-.636-1.598-1.256-1.565-.022.002-.033.01-.052.013-.522.078-.059.764.012 1.63" fill="#000d6e"/><path d="M10.334 21.418a2.6 2.6 0 0 0 2.044 1.004c.922 0 1.729-.48 2.194-1.202h.01a26 26 0 0 0-.018-1.398c-.026-.622-.066-.97-.066-.97l.006-1.023c1.083-.736 1.898-2.046 2.216-3.622l.016.002c.015.001.027.012.042.012.145 0 .277-.06.399-.147.297-.204.506-.616.506-1.104l-.003-.024c0-.01.004-.018.004-.027 0-.459-.175-.842-.424-1.075-.142-.132-.3-.228-.482-.228-.065 0-.121.035-.182.053-.04-.29.089-.784.043-1.339-.071-.865-.534-1.551-.012-1.63-.478-1.397-2.144-2.691-4.176-2.7h-.018c-2.038.009-3.708 1.311-4.181 2.713.434.118.005.784-.064 1.617-.045.543.077 1.026.044 1.318-.038-.007-.07-.032-.11-.032-.192 0-.36.106-.508.253-.234.236-.398.607-.398 1.05 0 .19.031.367.082.53.011.037.033.065.047.1.156.395.44.672.777.672.012 0 .021-.008.032-.009a1 1 0 0 0 .098-.014c.31 1.551 1.101 2.848 2.156 3.593l.005 1.06s-.04.35-.066.971c-.018.413-.025.96-.013 1.596m2.115-5.826c-.9-.014-1.615.42-1.623-.2s.715-1.112 1.615-1.098 1.636.53 1.644 1.15-.736.163-1.636.148m-2.099-1.836a1.81 1.81 0 0 1-1.807-1.808c0-.996.81-1.806 1.807-1.806.769 0 1.422.484 1.683 1.162h.804a1.806 1.806 0 0 1 1.75-1.38c.997 0 1.808.811 1.808 1.807s-.811 1.807-1.808 1.807c-.795 0-1.464-.52-1.705-1.234h-.761a1.81 1.81 0 0 1-1.77 1.452" fill="#94e3d4"/><path d="M12.12 12.304h.762c.24.714.91 1.234 1.705 1.234.997 0 1.808-.81 1.808-1.807s-.811-1.806-1.808-1.806c-.848 0-1.556.59-1.75 1.379h-.804a1.81 1.81 0 0 0-1.683-1.162c-.996 0-1.807.81-1.807 1.806 0 .997.81 1.808 1.807 1.808a1.81 1.81 0 0 0 1.77-1.452m2.467-1.38c.445 0 .808.363.808.807s-.363.807-.808.807-.807-.362-.807-.807.363-.806.807-.806m-4.237 1.832a.808.808 0 0 1 0-1.614.808.808 0 0 1 0 1.614M10.424 23.293l-.008-.104-.031-.454c-.03-.481-.044-.913-.051-1.317a27 27 0 0 1 .013-1.596c.026-.622.066-.97.066-.97l-.095.048-6.421 3.244a2.62 2.62 0 0 0-1.416 2.01L2 29.419h9.148s-.22-1.474-.479-3.743c-.057-.499-.115-1.023-.174-1.593q-.041-.407-.07-.789" fill="#1b5951"/><path d="m20.083 15.39.016-1.661 7.947.057-.017 1.626c.301.077.538.377.626.79a5.2 5.2 0 0 0 .63-2.407 5.23 5.23 0 0 0-2.227-4.32c.004-.065.02-.126.02-.192a3 3 0 0 0-6-.043c0 .074.016.144.02.217a5.22 5.22 0 0 0-2.258 4.263c-.006.85.21 1.644.565 2.356.115-.385.374-.649.678-.686" fill="#000d6e"/><path d="M22.065 23.359c.56.364 1.215.595 1.936.595.7 0 1.336-.22 1.887-.565.082-1.752-.034-2.554-.034-2.554l.01.005-.007-.004c.229-.161.437-.356.636-.564l.005-.006c.638-.674 1.11-1.567 1.347-2.571q.022.005.046.006c.448 0 .81-.521.81-1.165 0-.118-.023-.226-.046-.333-.088-.414-.325-.714-.626-.791l.017-1.626-7.947-.057-.016 1.661c-.304.037-.563.301-.678.686a1.6 1.6 0 0 0-.067.46c0 .644.363 1.165.81 1.165q.026-.002.05-.007c.268 1.332.945 2.48 1.907 3.16l-.028.017.024-.012s-.113.788-.036 2.5" fill="#94e3d4"/><path d="m22.1 20.86-.023.011-1.485.75-.306.155-5.788-2.924s.04.348.066.97a30.594 30.594 0 0 1-.07 3.367l-.01.128q-.027.37-.068.765a146 146 0 0 1-.654 5.336h.464v.005h8.563v-.005c-.475-2.682-.662-4.673-.724-6.06-.077-1.711.036-2.499.036-2.499M27.008 24.035c0-.841.176-1.642.49-2.37l-.136-.068-1.498-.757-.01-.005s.116.802.033 2.554c-.064 1.384-.253 3.361-.721 6.01h5.168a6 6 0 0 1-3.326-5.364" fill="#1b5951"/><path d="M33.008 19.035a5 5 0 1 0 0 10 5 5 0 0 0 0-10m-2.332 5.649c.367 0 .583-.202.67-.519l.514.209c-.136.436-.536.817-1.177.817-.731 0-1.285-.544-1.285-1.296 0-.756.554-1.3 1.289-1.3.644 0 1.04.396 1.173.817l-.514.21c-.087-.314-.306-.52-.674-.52-.428 0-.731.318-.731.793 0 .472.303.789.735.789m3.64.46h-.537v-1.037h-.954v1.038h-.537v-2.503h.537v.987h.954v-.987h.536zm1.14-2.038v.555h.994v.464h-.993v1.02h-.537v-2.503h1.664v.464z" fill="#000d6e"/></svg>