<svg data-name="Calque 1" xmlns="http://www.w3.org/2000/svg" viewBox="0 0 40 40" focusable="false" aria-hidden="true"><path d="M0 0h40v40H0z" fill="none"/><path d="m20 20.12-3.39 3.38L20 20.13l3.39 3.37c.15.15.35.23.57.23-.21 0-.41-.08-.56-.23l-3.39-3.38Z" fill="none"/><path d="M24.72 20.08h-2.5l2.3 2.28c.31.31.31.82 0 1.13s-.82.31-1.13 0l-3.38-3.37-3.39 3.37a.791.791 0 0 1-1.12-1.12l2.3-2.29h-2.51c-.35 0-7.57 10.31-3.07 14.71a3.87 3.87 0 0 0 2.69 1.15h10.21c1.01-.01 1.98-.43 2.69-1.15 4.5-4.41-2.72-14.71-3.07-14.71Zm.64-6.21a.79.79 0 0 0-.65-.91c-.04 0-.09-.01-.13-.01h-9.24a.792.792 0 0 0-.78.92l.64 3.84h9.52z" fill="#f4da52"/><path d="M15.49 23.49c.31.31.81.31 1.13 0l3.39-3.38 3.39 3.38a.791.791 0 0 0 1.12-1.12l-2.3-2.29-.79-.79h3.29V17.7H15.2v1.59h3.38l-3.09 3.08a.79.79 0 0 0 0 1.12" fill="#f48d19"/><path d="M12.03 11.94c.12 0 .24-.05.33-.13l5.17-4.65 3.68 3.61c.19.19.49.19.69.01l5.56-5.13v1.82c0 .28.22.5.5.5s.5-.22.5-.5v-3c0-.28-.22-.5-.5-.5h-3c-.28 0-.5.22-.5.5s.22.5.5.5h1.77l-5.16 4.76-3.68-3.6a.496.496 0 0 0-.68-.01l-5.52 4.96a.504.504 0 0 0 .33.88Z" fill="#000d6e"/><path d="m20.51 29.25-.06.59h-1.28v.29h1.24l-.06.58h-.99c.23.35.62.55 1.04.54.41.03.81-.19 1-.56l.79.53c-.39.59-1.07.93-1.78.9-.92.03-1.76-.54-2.07-1.42h-.54l.06-.58h.37v-.29h-.33l.06-.59h.39c.31-.88 1.15-1.45 2.07-1.42.71-.03 1.38.31 1.77.9l-.79.53c-.2-.37-.59-.58-1-.55-.41-.01-.8.19-1.03.54h1.15Z" fill="#fae052"/><path d="M20.4 28.71c.41-.03.81.18 1 .55l.79-.53c-.4-.59-1.07-.92-1.77-.9-.93-.03-1.77.54-2.07 1.42h-.39l-.06.59h.33v.29h-.37l-.06.58h.54c.3.87 1.14 1.45 2.07 1.42.71.03 1.38-.31 1.78-.9l-.79-.53c-.19.37-.58.59-1 .56a1.2 1.2 0 0 1-1.04-.54h.99l.06-.58h-1.24v-.29h1.28l.06-.59h-1.15c.22-.35.62-.55 1.03-.54Z" fill="#000d6e"/></svg>