<svg xmlns="http://www.w3.org/2000/svg" viewBox="0 0 40 40" focusable="false" aria-hidden="true"><path fill="none" d="M0 0h40v40H0z"/><g data-name="Icon Purple"><path d="m35.342 30.405-.176.289M35.166 30.694l-.122.2M35.568 30.036l-.226.37M35.044 30.894l-.044.073M35.77 29.705l-.043.069M35.727 29.774l-.16.262" stroke="#1b5951" stroke-linecap="round" stroke-linejoin="round" stroke-width="0" fill="none"/><path d="M37.926 23.975 34.421 8.999a1.5 1.5 0 0 0-2.947.076l-.016.3.558 7.385.237.038a2.06 2.06 0 0 1 1.656 2.293l-1.434 8.885a.5.5 0 0 1-.987-.16l1.434-8.884a1.07 1.07 0 0 0-.828-1.147l-.025-.004-.962-.155a1.07 1.07 0 0 0-1.147.828l-.797 4.936-.004.024a3.13 3.13 0 0 1-.966 1.433 7.3 7.3 0 0 0-1.38 1.829 7.4 7.4 0 0 0-.47 1.638C26.09 29.877 26 38 26 38h6.954A17.6 17.6 0 0 1 35 30.967c1.046-1.727 2.296-3.76 2.343-3.838a4.5 4.5 0 0 0 .583-3.154" fill="#6c2273"/><path d="m35.8 29.654-.03.05M4.361 29.918l-.07-.115" stroke="#1b5951" stroke-linecap="round" stroke-linejoin="round" stroke-width="0" fill="none"/><path d="m4.658 30.405-.297-.487Z" fill="#1b5951"/><path d="m5 30.967-.044-.073" stroke="#1b5951" stroke-linecap="round" stroke-linejoin="round" stroke-width="0" fill="none"/><path d="m4.956 30.894-.298-.489Z" fill="#1b5951"/><path d="m4.29 29.803-.073-.121" stroke="#1b5951" stroke-linecap="round" stroke-linejoin="round" stroke-width="0" fill="none"/><path d="M13.187 26.676a7.3 7.3 0 0 0-1.38-1.829 3.13 3.13 0 0 1-.966-1.432l-.005-.024-.796-4.937a1.07 1.07 0 0 0-1.146-.828l-.962.155-.026.005a1.07 1.07 0 0 0-.827 1.146l1.434 8.885a.5.5 0 0 1-.988.16L6.091 19.09a2.06 2.06 0 0 1 1.656-2.293l.237-.038.558-7.384-.016-.3a1.5 1.5 0 0 0-2.947-.077S2.077 23.96 2.074 23.975a4.5 4.5 0 0 0 .583 3.154c.047.077 1.297 2.111 2.343 3.838A17.6 17.6 0 0 1 7.046 38H14s-.09-8.123-.343-9.685a7.4 7.4 0 0 0-.47-1.639" fill="#6c2273"/><path d="M20 8a7.5 7.5 0 1 0 7.5 7.5A7.5 7.5 0 0 0 20 8m.5 7.707-3.644 3.645a.5.5 0 0 1-.708-.707l3.352-3.352v-4.294a.5.5 0 0 1 1 0Z" fill="#b8b2ff"/><path d="M20 10.499a.5.5 0 0 0-.5.5v4.294l-3.352 3.352a.5.5 0 0 0 .707.707l3.645-3.645v-4.708a.5.5 0 0 0-.5-.5" fill="#000d6e"/></g></svg>