<svg xmlns="http://www.w3.org/2000/svg" viewBox="0 0 40 40" focusable="false" aria-hidden="true"><path fill="none" d="M0 0h40v40H0z"/><g><path d="m35.342 30.405-.176.289M35.166 30.694l-.122.2M35.568 30.035l-.226.37M35.044 30.894l-.044.073M35.77 29.705l-.043.069M35.727 29.774l-.16.261M35.8 29.654q-.002.004-.03.05M4.361 29.918q-.04-.063-.07-.115" stroke="#1b5951" stroke-linecap="round" stroke-linejoin="round" stroke-width="0px" fill="none"/><path d="m4.658 30.405-.297-.487z" fill="#1b5951"/><path d="m5 30.967-.044-.073" stroke="#1b5951" stroke-linecap="round" stroke-linejoin="round" stroke-width="0px" fill="none"/><path d="m4.956 30.894-.298-.489z" fill="#1b5951"/><path d="m4.29 29.803-.073-.121M35.342 30.405l-.176.289M35.166 30.694l-.122.2M35.568 30.035l-.226.37M35.044 30.894l-.044.073M35.77 29.705l-.043.069M35.727 29.774l-.16.261" stroke="#1b5951" stroke-linecap="round" stroke-linejoin="round" stroke-width="0px" fill="none"/><path d="M37.926 23.975 34.421 8.999a1.5 1.5 0 0 0-2.947.076l-.016.3.558 7.385.237.038c1.272.205 1.786 1.486 1.656 2.293l-1.434 8.885a.5.5 0 1 1-.987-.159l1.434-8.885c.045-.28-.135-1.035-.828-1.147v.001l-.026-.005-.961-.155c-.694-.112-1.102.547-1.147.828l-.797 4.936-.004.024c-.093.515-.498.94-.966 1.433-.463.487-1 1.053-1.38 1.83a7.4 7.4 0 0 0-.47 1.638C26.09 29.877 26 38 26 38h6.954s.238-4.067 2.046-7.033c1.046-1.727 2.296-3.76 2.343-3.838a4.5 4.5 0 0 0 .583-3.154" fill="#d9304c"/><path d="M35.8 29.654q-.002.004-.03.05M4.361 29.918q-.04-.063-.07-.115" stroke="#1b5951" stroke-linecap="round" stroke-linejoin="round" stroke-width="0px" fill="none"/><path d="m4.658 30.405-.297-.487z" fill="#1b5951"/><path d="m5 30.967-.044-.073" stroke="#1b5951" stroke-linecap="round" stroke-linejoin="round" stroke-width="0px" fill="none"/><path d="m4.956 30.894-.298-.489z" fill="#1b5951"/><path d="m4.29 29.803-.073-.121" stroke="#1b5951" stroke-linecap="round" stroke-linejoin="round" stroke-width="0px" fill="none"/><path d="M13.187 26.676c-.38-.776-.917-1.342-1.38-1.829-.468-.492-.873-.918-.966-1.432l-.004-.025-.797-4.936c-.045-.281-.453-.94-1.147-.828l-.961.155-.026.005c-.693.111-.873.865-.828 1.146l1.434 8.885a.5.5 0 0 1-.987.16L6.091 19.09c-.13-.807.384-2.088 1.656-2.293l.237-.038.558-7.384-.016-.3a1.5 1.5 0 0 0-2.947-.077L2.074 23.975a4.5 4.5 0 0 0 .583 3.154c.047.077 1.297 2.11 2.343 3.838C6.808 33.933 7.046 38 7.046 38H14s-.09-8.123-.343-9.685a7.4 7.4 0 0 0-.47-1.639" fill="#d9304c"/><path d="M23.178 14.296v-.013h-6.384v.036c-.406.262-5.004 6.97-2.037 9.875.472.462 1.1.774 1.808.774h6.87c.708 0 1.336-.312 1.808-.774 3.022-2.96-1.816-9.881-2.065-9.898m0 1.982v-.138a.5.5 0 0 1 0 .138M16.395 9.615a.534.534 0 0 1 .526-.621h6.211c.33 0 .58.296.526.621l-.43 2.58h-6.403z" fill="#ffaca6"/><path d="M23.035 16.087a.537.537 0 0 1-.758 0l-2.28-2.271-2.28 2.27a.535.535 0 0 1-.757 0 .53.53 0 0 1 0-.754l1.544-1.538.534-.531h-2.213v-1.068h6.403v1.068h-2.27l2.077 2.07c.209.208.209.546 0 .754" fill="#000d6e"/></g></svg>