<svg xmlns="http://www.w3.org/2000/svg" viewBox="0 0 40 40" focusable="false" aria-hidden="true"><path fill="none" d="M0 0h40v40H0z"/><g data-name="Icon Purple"><path fill="none" d="M32.309 25.088h.536v.022h-.536zM32.845 24.05h.954v.022h-.954zM30.704 24.684a.645.645 0 0 0 .67-.519l.494.2c.003-.009.01-.017.013-.026l-.515-.209a.645.645 0 0 1-.67.519.695.695 0 0 1-.678-.462.694.694 0 0 0 .686.497M35.485 23.05h1.119v.021h-1.12zM33.8 25.088h.536v.022h-.537zM29.518 24.383a1.4 1.4 0 0 1-.092-.488 1.257 1.257 0 0 1 1.289-1.3 1.18 1.18 0 0 1 1.158.785l.008-.003a1.18 1.18 0 0 0-1.174-.817 1.257 1.257 0 0 0-1.29 1.3 1.4 1.4 0 0 0 .1.523M35.485 24.068h.986v.022h-.986zM35.477 25.088h-.529v-2.481h-.008v2.503h.537z"/><path d="M37.09 36h-8.18a1.003 1.003 0 0 0-.026 1.995c.01 0 .016.005.025.005h8.182a1.005 1.005 0 0 0 0-2M37.09 33h-8.18a1.005 1.005 0 0 0 0 2h8.18a1.005 1.005 0 0 0 0-2M37.09 30h-8.18a1.005 1.005 0 0 0 0 2h8.18a1.005 1.005 0 0 0 0-2M33 29a5 5 0 1 0-5-5 5 5 0 0 0 5 5m1.94-6.393h.008v-.022h1.663v.465h-.007v.022h-1.12v.533h.994v.464h-.008v.021h-.986v.998h-.007v.022h-.537Zm-2.632 2.48v-2.502h.537v.987h.954v-.987h.536v2.525H33.8v-1.037h-.954v1.037h-.537Zm-1.601-2.527a1.18 1.18 0 0 1 1.174.817l-.008.003-.507.206a.65.65 0 0 0-.673-.518.727.727 0 0 0-.732.792.9.9 0 0 0 .057.327.695.695 0 0 0 .678.462.645.645 0 0 0 .67-.519l.515.21c-.003.009-.01.017-.013.026a1.17 1.17 0 0 1-1.164.79 1.25 1.25 0 0 1-1.186-.773 1.4 1.4 0 0 1-.1-.523 1.257 1.257 0 0 1 1.289-1.3" fill="#000d6e"/><path d="M25.728 16H5.272l-.977 3A4.2 4.2 0 0 0 4 20.538V26h23v-5.462A4.2 4.2 0 0 0 26.705 19ZM7.5 23A1.5 1.5 0 1 1 9 21.5 1.5 1.5 0 0 1 7.5 23m16 0a1.5 1.5 0 1 1 1.5-1.5 1.5 1.5 0 0 1-1.5 1.5" fill="#6c2273"/><path d="M22 30a1 1 0 0 0 1 1h3a1 1 0 0 0 1-1v-3h-5ZM4 30a1 1 0 0 0 1 1h3a1 1 0 0 0 1-1v-3H4Z" fill="#000d6e"/><rect x="26" y="13" width="3" height="2" rx="0.5" fill="#6c2273"/><rect x="2" y="13" width="3" height="2" rx="0.5" fill="#6c2273"/><path d="M22.946 8.846A2.88 2.88 0 0 0 20.292 7h-9.584a2.88 2.88 0 0 0-2.653 1.846L5.597 15h19.806Z" fill="#b8b2ff"/></g></svg>