<svg xmlns="http://www.w3.org/2000/svg" viewBox="0 0 40 40" focusable="false" aria-hidden="true"><path fill="none" d="M0 0h40v40H0z"/><g data-name="Icon Purple"><path d="M31.967 6.981c-.431-2.751-2.843-4.699-5.743-4.934-4.102-.333-7.427 3.27-7.649 5.708 0 0-1.446 1.373-2.405 3.06l2.38 3.75c.34.137.671.305 1 .486q.077.042.152.086c3.3 1.894 6.06 5.881 7.572 9.879.021-.123.03-.26.048-.385.017-.181.036-.362.048-.547q.011-.006.021-.011.088-.73.13-1.51l.007-.158q.036-.71.034-1.462c-.002-.195-.01-.398-.015-.597-.009-.39-.017-.78-.041-1.186a40 40 0 0 0-.168-1.986 2.48 2.48 0 0 1 .532-1.838c.08-.099.699-.739.837-1.005l5.054.13s2.716.389 3.104-5.597c-2.13-.794-4.07-1.555-4.898-1.883" fill="#b8b2ff"/><path d="M22.263 8.257c-.112-2.7-.22-4.528 2.483-5 3.562-.624 3.334 2.143 3.224 4.84-.11 2.702-1.224 4.205-2.707 4.267s-2.888-1.407-3-4.107" fill="#6c2273"/><path d="M27 33a6 6 0 0 1 3.835-5.59c.769-2.974.94-6.538.478-10.679a1.51 1.51 0 0 0-1.656-1.325 1.5 1.5 0 0 0-1.325 1.657c.536 4.809.178 8.689-1.054 11.572-1.054-5.514-5.07-11.705-9.394-13.255l-3.053-4.808c.371-4.825-3.148-6.94-3.148-6.94-1.566-1.18-3.421-1.652-3.421-1.652v1.97C5.1 3.93 6.071 5.997 4.404 7c-.277.038-.613.142-1.027.358-.647.338.617 3.541 1.323 3.76s1.808.306 1.808.306l.82 1.138c-.29 1.203-.783 2.425-1.17 3.284-.588 1.302-.803 2.75-.558 4.158.552 3.172 2.93 4.127 2.93 4.127L6.993 34.928C4 35 5 38 5 38h4l2.224-6.672c.054 1.562.685 2.908 1.617 3.67h-.328c-.823 0-1.497.674-1.497 1.498S11.69 38 12.513 38H21c3.432 0 5.328-1.56 6.111-3.86A6 6 0 0 1 27 33" fill="#6c2273"/><circle cx="33" cy="33" r="5" fill="#000d6e"/><path d="M36 33.588a.413.413 0 0 1-.412.412H34v1.588a.413.413 0 0 1-.412.412h-1.176a.413.413 0 0 1-.412-.412V34h-1.588a.413.413 0 0 1-.412-.412v-1.176c0-.227.185-.412.412-.412H32v-1.588c0-.227.185-.412.412-.412h1.176c.227 0 .412.185.412.412V32h1.588c.227 0 .412.185.412.412z" fill="#fff"/></g></svg>