<svg viewBox="0 0 40 40" fill="none" xmlns="http://www.w3.org/2000/svg" focusable="false" aria-hidden="true"><path d="M0 0h40v40H0z"/><path d="M26.5 32h-20c-.55 0-1 .45-1 1v2c0 .55.45 1 1 1h20c.55 0 1-.45 1-1v-2c0-.55-.45-1-1-1" fill="#D9304C"/><path fill="#000D6E" d="M10.5 7h12v10h-12z"/><path d="m36.325 10.706-5.063-5.062a1.003 1.003 0 0 0-1.412 0l-.706.706a1.003 1.003 0 0 0 0 1.413l2.356 2.356V14a3.494 3.494 0 0 0 3 3.45V27.5c0 .825-.675 1.5-1.5 1.5s-1.5-.675-1.5-1.5v-2A5.5 5.5 0 0 0 26 20h-.5V8c0-2.206-1.794-4-4-4h-10c-2.206 0-4 1.794-4 4v22h18v-7h.5a2.5 2.5 0 0 1 2.5 2.5v1.738c0 2.356 1.688 4.5 4.031 4.743A4.51 4.51 0 0 0 37.5 27.5V13.538a4 4 0 0 0-1.175-2.832M21.5 16h-10V8h10z" fill="#FFACA6"/></svg>