<svg xmlns="http://www.w3.org/2000/svg" viewBox="0 0 40 40" focusable="false" aria-hidden="true"><path fill="none" d="M0 0h40v40H0z"/><g><path d="m28.968 28.511.009-.123c-.48.52-1.173.854-1.955.854s-1.475-.334-1.955-.854l.008.1q.029.367.068.757c.313 3.032.626 3.755.626 3.755h2.506s.313-.723.626-3.755q.039-.378.067-.734" fill="#000d6e"/><path d="m25.037 27.954.03.434c.48.52 1.174.854 1.955.854s1.475-.334 1.955-.854l.03-.434c.073-1.19.064-2.147.037-2.793-.026-.596-.064-.93-.064-.93l.008-1.228c1.005-.664 1.763-1.83 2.066-3.232.037.006.073.015.111.015.48 0 .868-.534.868-1.193 0-.543-.265-.996-.626-1.14v.201c0 .07-.028.133-.067.185a.3.3 0 0 1-.246.128.313.313 0 0 1-.312-.313v-1.022c0-.045-.004-.084-.005-.128q-.053-.087-.11-.174a3.8 3.8 0 0 0-.864-.94c-.638.271-1.477.413-2.468.078a5.8 5.8 0 0 1-.997-.436 3.3 3.3 0 0 1-.605-.43c-.599.1-1.093.262-1.493.43-.34.142-.615.285-.834.391a4.6 4.6 0 0 0-.126.774q-.016.203-.017.435v1.022c0 .173-.14.313-.313.313-.018 0-.034-.008-.05-.01a.31.31 0 0 1-.263-.303v-.201c-.36.144-.626.597-.626 1.14 0 .659.389 1.193.868 1.193a.6.6 0 0 0 .17-.023c.298 1.385 1.038 2.544 2.025 3.215h-.016l.007 1.253s-.04.334-.064.93c-.027.646-.037 1.602.036 2.793" fill="#ffaca6"/><path d="m25.075 28.488-.038-.534a27 27 0 0 1-.036-2.793c.025-.596.064-.93.064-.93l-.092.046-6.155 3.11a2.51 2.51 0 0 0-1.357 1.927L17 33h8.77s-.314-.723-.627-3.755a31 31 0 0 1-.068-.757M36.584 29.314a2.51 2.51 0 0 0-1.358-1.927L28.98 24.23s.038.334.064.93a27 27 0 0 1-.067 3.227l-.01.123c-.018.238-.04.48-.066.734-.313 3.032-.626 3.755-.626 3.755h8.77z" fill="#d9304c"/><path d="M22.9 17.956c.016.003.032.01.05.01.173 0 .313-.14.313-.312v-1.022q0-.233.017-.435c.025-.312.073-.567.126-.774.22-.106.495-.25.834-.391.4-.168.894-.33 1.493-.43.155.142.353.287.605.43.268.151.593.3.997.436.991.335 1.83.193 2.468-.078.369.287.651.612.863.94q.059.087.111.174c.001.044.005.083.005.128v1.022c0 .173.14.313.312.313.037 0 .071-.01.104-.021a.3.3 0 0 0 .142-.107.3.3 0 0 0 .067-.185v-1.351c.027-.81.042-1.677 0-2.095-.091-.9-1.776-3.132-4.385-3.132s-4.385 1.97-4.385 3.759v2.82c0 .154.115.276.262.301M10.44 16.59c-1.067 0-1.932-.65-1.932-1.45h3.865c0 .8-.866 1.45-1.933 1.45" fill="#000d6e"/><path d="M13.822 9.825a3.382 3.382 0 1 0-6.143 1.95h-.002c.83.976.83 1.968.83 1.968v.914h3.866v-.914s.008-.831.646-1.733c.5-.59.803-1.351.803-2.185" fill="#ffaca6"/><path d="M10.472 5.663a.5.5 0 0 1-.5-.5V3.5a.5.5 0 1 1 1 0v1.663a.5.5 0 0 1-.5.5M17.352 11.254h-1.663a.5.5 0 1 1 0-1h1.663a.5.5 0 1 1 0 1M15.098 7.407a.5.5 0 0 1-.275-.918l1.391-.91a.499.499 0 1 1 .548.835l-1.39.911a.5.5 0 0 1-.274.082M16.612 15.554a.5.5 0 0 1-.273-.082l-1.39-.911a.5.5 0 0 1 .547-.836l1.39.91a.5.5 0 0 1-.274.919M5.163 11.254H3.5a.5.5 0 1 1 0-1h1.663a.5.5 0 1 1 0 1M5.754 7.407a.5.5 0 0 1-.274-.082l-1.39-.91a.5.5 0 0 1 .547-.837l1.391.911a.5.5 0 0 1-.274.918M4.24 15.554a.5.5 0 0 1-.275-.918l1.39-.911a.499.499 0 1 1 .548.836l-1.39.91a.5.5 0 0 1-.274.083" fill="#d9304c"/></g></svg>