<svg xmlns="http://www.w3.org/2000/svg" viewBox="0 0 40 40" focusable="false" aria-hidden="true"><path fill="none" d="M0 0h40v40H0z"/><g><path fill="#94e3d4" d="m22.453 29.702 3.883-3.883-13.59-13.59-9.06 9.06 13.59 13.59z"/><path d="M11.41 10.894a.856.856 0 0 0-1.21 0l-7.85 7.849a.856.856 0 0 0 0 1.21l1.337 1.337 9.06-9.06zm-2.87 2.953a.458.458 0 0 1 .647.648L5.952 17.73a.458.458 0 0 1-.647-.647m5.169-3.875a.458.458 0 1 1-.647-.648.458.458 0 0 1 .647.648" fill="#1b5951"/><path d="m8.54 13.847-3.235 3.236a.458.458 0 1 0 .647.647l3.235-3.235a.458.458 0 0 0-.647-.648M9.827 12.56a.458.458 0 1 0 .647.648.458.458 0 0 0-.647-.647" fill="#94e3d4"/><path d="m27.433 1.983-.928.931a2.71 2.71 0 0 0-.014 3.824l4.742 4.754a2.71 2.71 0 0 0 3.835-.015l.917-.92z" fill="#1b5951"/><path d="m31.193 13.449-7.071-7.07c-.648-.649-1.58.03-1.58.03l-2.44 1.375-3.467 1.954-1.584.892a1.346 1.346 0 1 0 1.32 2.345l3.58-1.584-7.56 7.56a1.346 1.346 0 0 0 0 1.903 1.337 1.337 0 0 0 1.837.044l-.896.896a1.346 1.346 0 1 0 1.903 1.903l1.427-1.427a1.346 1.346 0 0 0 1.904 1.903l1.903-1.903a1.346 1.346 0 0 0 1.903 1.903l1.733-1.733 1.473-1.473 1.218-1.218 1.657-1.657 2.637-2.637c1.11-1.11.103-2.006.103-2.006" fill="#000d6e"/><path d="m27.323 26.806-.987-.987-9.06 9.06 1.278 1.278a.94.94 0 0 0 1.328 0l5.205-5.206a6.98 6.98 0 0 1 2.236-4.145" fill="#1b5951"/><circle cx="32" cy="32.00000001" r="6" fill="#94e3d4"/><path d="M34.5 31.5h-2v-2a.5.5 0 1 0-1 0v2h-2a.5.5 0 1 0 0 1h2v2a.5.5 0 1 0 1 0v-2h2a.5.5 0 1 0 0-1" fill="#000d6e"/><circle cx="21.69276582" cy="30.23572956" r="1" fill="#000d6e"/></g></svg>