<svg xmlns="http://www.w3.org/2000/svg" viewBox="0 0 40 40" focusable="false" aria-hidden="true"><path fill="none" d="M0 0h40v40H0z"/><g><path d="M23.5 31.75a1.25 1.25 0 0 0 2.5 0v-3.31a8 8 0 0 1-2.5.54ZM12.5 31.75a1.25 1.25 0 0 0 2.5 0V29a7.9 7.9 0 0 1-2.5-.72Z" fill="#000d6e"/><path d="M33.5 17.5a.5.5 0 0 0-.5.5v1.14a.9.9 0 0 1-1 .86h-.5a9.09 9.09 0 0 0-4.5-8 4.7 4.7 0 0 1-.56 2h-8.35a4.74 4.74 0 0 1-.59-2.25 4.7 4.7 0 0 1 .08-.75h-.88A4 4 0 0 0 13 8.5v3.06A8.72 8.72 0 0 0 8 17h-.75A1.25 1.25 0 0 0 6 18.25v3.5A1.25 1.25 0 0 0 7.25 23H8a8.8 8.8 0 0 0 4.51 5.23A7.9 7.9 0 0 0 15 29c.3 0 .6.05.9.05h7.6a8 8 0 0 0 2.5-.54A8.93 8.93 0 0 0 31.45 21h.6a1.9 1.9 0 0 0 2-1.86V18a.5.5 0 0 0-.55-.5M12 16.88A1.13 1.13 0 1 1 13.12 18 1.12 1.12 0 0 1 12 16.88" fill="#6c2273"/><path d="M18.09 14h8.32a4.7 4.7 0 0 0 .59-2 3 3 0 0 0 0-.27 4.74 4.74 0 0 0-9.42-.73 4.7 4.7 0 0 0-.08.75 4.74 4.74 0 0 0 .59 2.25" fill="#b8b2ff"/></g></svg>