<svg data-name="Ebene 1" xmlns="http://www.w3.org/2000/svg" viewBox="0 0 1080 1080" focusable="false" aria-hidden="true"><path d="M813.39 258.29h112.33c8.17 0 14.8 6.63 14.8 14.8v65.4c0 8.17-6.63 14.8-14.8 14.8H813.39zM538.33 428.17v44.5c0 36.98 30.04 66.94 66.99 66.94 4.48 0 8.04 3.61 8.04 8.05s-3.57 8.06-8.04 8.06h-9.61c-51.43 0-93.19-41.74-93.19-93.2v-34.36h35.82Z" fill="#000d6e"/><path d="M139.47 384.03h752.42c0 13.88-11.27 25.15-25.15 25.15H164.62c-13.88 0-25.15-11.27-25.15-25.15" fill="#fa9319"/><path d="M860.72 353.29H170.84c-17.22 0-31.17 13.96-31.17 31.17v14.45c0 17.22 13.96 31.17 31.17 31.17h45.84c19.59 0 34.32 17.85 30.61 37.09l-78.97 333.1c-6.38 31.27 5.92 58.72 41.07 58.72h204.1c17.22 0 31.17-13.96 31.17-31.17l15.59-366.56c0-17.22 13.96-31.17 31.17-31.17h369.3c17.22 0 31.17-13.96 31.17-31.17v-14.45c0-17.22-13.96-31.17-31.17-31.17Z" fill="#fa9319"/><path d="M216.5 221h644.22c17.22 0 31.17 13.96 31.17 31.17v131.91H139.9l-.22-86.06C139.57 255.52 174 221 216.5 221" fill="#fae052"/><path fill="#fa9319" d="m226.34 358.31-32.78-10.04L232.53 221l35.76.34zM297.34 358.31l-32.79-10.04L303.52 221l35.76.34zM368.33 358.31l-32.79-10.04L374.52 221l35.75.34z"/></svg>