<svg xmlns="http://www.w3.org/2000/svg" viewBox="0 0 40 40" focusable="false" aria-hidden="true"><path fill="none" d="M0 0h40v40H0z"/><g><path d="M25 33.44a2 2 0 0 0 2.83 0l5.66-5.66a2 2 0 0 0 0-2.83l-4.25-4.24-8.48 8.48ZM15.05 6.56a2 2 0 0 0-2.83 0l-5.66 5.66a2 2 0 0 0 0 2.83l4.25 4.24 8.48-8.48Z" fill="#1b5951"/><path d="M20 11.51 28.49 20l4.95-4.95a2 2 0 0 0 0-2.83l-5.66-5.66a2 2 0 0 0-2.83 0ZM6.56 25a2 2 0 0 0 0 2.83l5.66 5.66a2 2 0 0 0 2.83 0l4.95-5L11.51 20Z" fill="#94e3d4"/><path d="M11.51 20 20 28.49 28.49 20 20 11.51Zm4.78-.53a.75.75 0 1 1 0 1.06.74.74 0 0 1 0-1.06m3.18 3.18a.75.75 0 0 1 1.06 1.06.74.74 0 0 1-1.06 0 .75.75 0 0 1 0-1.06m3.18-3.18a.75.75 0 0 1 1.06 0 .74.74 0 0 1 0 1.06.75.75 0 0 1-1.06-1.06m-2.12-2.12a.75.75 0 0 1-1.06-1.06.74.74 0 0 1 1.06 0 .75.75 0 0 1 0 1.06" fill="#000d6e"/></g></svg>