<svg xmlns="http://www.w3.org/2000/svg" viewBox="0 0 40 40" focusable="false" aria-hidden="true"><path fill="none" d="M0 0h40v40H0z"/><g><rect x="9" y="5.00000001" width="24" height="30" rx="2" ry="2" fill="#b8b2ff"/><path d="M31 35.5H11A2.503 2.503 0 0 1 8.5 33V7c0-1.379 1.122-2.5 2.5-2.5h20c1.378 0 2.5 1.121 2.5 2.5v26c0 1.379-1.122 2.5-2.5 2.5m-20-30c-.827 0-1.5.673-1.5 1.5v26c0 .827.673 1.5 1.5 1.5h20c.827 0 1.5-.673 1.5-1.5V7c0-.827-.673-1.5-1.5-1.5z" fill="#6c2273"/><rect x="7" y="10.33178607" width="5" height="2" rx=".999998" ry=".999998" fill="#6c2273"/><rect x="7" y="16.33599921" width="5" height="2" rx=".999998" ry=".999998" fill="#6c2273"/><rect x="7" y="22.34021236" width="5" height="2" rx=".999998" ry=".999998" fill="#6c2273"/><rect x="7" y="28.34442551" width="5" height="2" rx=".999998" ry=".999998" fill="#6c2273"/><path fill="#6c2273" d="M13 5.063h1v29.93h-1zM16.635 24.432c0 .294.282.533.628.533h3.121V16.95l-3.749 3.098zM25.383 24.964h3.12c.347 0 .628-.238.628-.532V13.499l-3.748 2.917zM23.347 17.273l-1.815-1.037a.32.32 0 0 0-.327.037l-.196.161v8.53h3.749v-8.062l-.366.284a.99.99 0 0 1-1.045.087"/><path d="M30.385 12.265c0-.161-.14-.292-.312-.292h-.941c-.173 0-.313.13-.313.292 0 .16.14.292.312.292h.232l-5.366 4.175a.33.33 0 0 1-.336.035l-1.817-1.038a.99.99 0 0 0-1.042.096l-5.31 4.389a.28.28 0 0 0-.028.413.32.32 0 0 0 .234.099.33.33 0 0 0 .207-.074l.73-.603 3.75-3.098.624-.517.196-.161a.32.32 0 0 1 .327-.037l1.815 1.037a.99.99 0 0 0 1.045-.087l.366-.284.625-.486 3.748-2.917.63-.49v.13c0 .161.14.292.312.292.173 0 .313-.131.313-.292zM37.758 36.005l-4.702-4.702a.85.85 0 0 0-1.169 0l-.001.002-.908-.908-.587-.587a3 3 0 0 1-.281.314q-.149.15-.298.273l.587.587.904.903a.83.83 0 0 0 0 1.17l4.701 4.702c.156.155.364.241.585.241s.429-.086.584-.241l.585-.585c.156-.156.242-.363.242-.584s-.086-.429-.242-.585" fill="#000d6e"/><path d="M30.697 23.106a5.393 5.393 0 0 0-7.605 0c-1.009 1.017-1.57 2.364-1.57 3.802s.561 2.786 1.57 3.803a5.37 5.37 0 0 0 3.802 1.57c1.306 0 2.53-.462 3.505-1.297.108-.091.199-.182.298-.273.099-.1.198-.207.28-.314a5.3 5.3 0 0 0 1.29-3.489 5.37 5.37 0 0 0-1.57-3.802m-.306 6.704a3 3 0 0 1-.281.314q-.149.15-.298.273a4.5 4.5 0 0 1-2.918 1.058 4.51 4.51 0 0 1-3.215-1.331c-.86-.86-1.331-2-1.331-3.216 0-1.215.471-2.355 1.33-3.215.885-.885 2.05-1.33 3.216-1.33s2.331.445 3.216 1.33c.86.86 1.33 2 1.33 3.215a4.47 4.47 0 0 1-1.05 2.902" fill="#000d6e"/></g></svg>