<svg xmlns="http://www.w3.org/2000/svg" viewBox="0 0 40 40" focusable="false" aria-hidden="true"><path fill="none" d="M0 0h40v40H0z"/><g data-name="Icon Red"><path d="m24.727 21.504-9.463 2.407-.004.009-2.98 7.41-.03.08a18.76 18.76 0 0 0 17.34-.95 2 2 0 0 1 .19-.11l-4.931-8.877Z" fill="none"/><path d="m12.25 31.41.03-.08 2.98-7.41.004-.009-.467.119-.741.188-2.716 6.752c.2.11.41.21.62.31.1.04.19.09.29.13M24.849 21.473l4.931 8.877c.22-.14.44-.27.66-.42l.19-.13-4.77-8.584-.137.034Z" fill="#000d6e"/><path d="M16 16a1 1 0 0 0 .243-.03l8-2a1 1 0 1 0-.485-1.94l-8 2a1 1 0 0 0 .241 1.97" fill="#d9304c"/><path d="m15.264 23.911 9.463-2.407.122-.031.874-.223.136-.034 4.641-1.181L29.727 17a1.97 1.97 0 0 0-2.396-1.425l-12.66 3.245-2.856-10.81a3.984 3.984 0 0 0-4.847-2.885L6 5.373 10.984 25l2.619-.666.453-.116.741-.188Z" fill="#ffaca6"/><path d="M34.12 28.2a1.02 1.02 0 0 0-1.4-.02 17 17 0 0 1-2.09 1.62l-.19.13c-.22.15-.44.28-.66.42a2 2 0 0 0-.19.11 18.76 18.76 0 0 1-17.34.95c-.1-.04-.19-.09-.29-.13-.21-.1-.42-.2-.62-.31-.09-.04-.19-.09-.28-.14a18.8 18.8 0 0 1-3.78-2.65 1.02 1.02 0 0 0-1.4.02 1.05 1.05 0 0 0-.29.72.95.95 0 0 0 .31.72 21.2 21.2 0 0 0 4.68 3.21c.3.15.6.29.91.43a20.91 20.91 0 0 0 19.27-1.17c.29-.17.58-.35.85-.54a20 20 0 0 0 2.49-1.93 1.005 1.005 0 0 0 .02-1.44" fill="#d9304c"/></g></svg>