<svg xmlns="http://www.w3.org/2000/svg" viewBox="0 0 40 40" focusable="false" aria-hidden="true"><path fill="none" d="M0 0h40v40H0z"/><g><path d="M30.81 24.13c-1.25-1.25-3.04-1.59-4.6-1.07l-9.14-9.14c.52-1.57.18-3.36-1.07-4.6-1.17-1.17-2.83-1.54-4.33-1.15l2.14 3.48-1.85 1.85-3.48-2.14c-.39 1.5-.02 3.15 1.15 4.32 1.25 1.25 3.04 1.59 4.6 1.07l9.14 9.14c-.52 1.57-.18 3.36 1.07 4.6a4.49 4.49 0 0 0 6.36 0 4.49 4.49 0 0 0 0-6.36Zm-1.38 4.99c-.47.47-1.1.73-1.77.73s-1.3-.26-1.77-.73c-.97-.97-.97-2.56 0-3.54.94-.95 2.59-.95 3.54 0 .97.97.97 2.56 0 3.54" fill="#d9304c"/><path d="M27.67 29.85c-.67 0-1.3-.26-1.77-.73-.97-.97-.97-2.56 0-3.54.94-.95 2.59-.95 3.54 0 .97.97.97 2.56 0 3.54-.47.47-1.1.73-1.77.73m0-4c-.4 0-.78.16-1.06.44-.58.58-.58 1.54 0 2.12s1.55.57 2.12 0 .58-1.54 0-2.12c-.28-.28-.66-.44-1.06-.44" fill="#ffaca6"/><path d="M23.06 23.23a.47.47 0 0 1-.35-.15l-5.66-5.66c-.2-.2-.2-.51 0-.71s.51-.2.71 0l5.66 5.66c.2.2.2.51 0 .71-.1.1-.23.15-.35.15Z" fill="#000d6e"/></g></svg>