<svg data-name="Calque 1" xmlns="http://www.w3.org/2000/svg" viewBox="0 0 40 40" focusable="false" aria-hidden="true"><path d="M0 0h40v40H0z" fill="none"/><path d="M29 6h-4v2.31L29 12z" fill="#d3304c"/><path d="m21.27 7.58 10.39 9.58.34-.37.34-.37-10.4-9.58c-1.1-.99-2.78-.99-3.88 0l-10.4 9.59.34.37.34.37 10.39-9.58c.72-.65 1.82-.65 2.54 0Z" fill="#000d6e"/><path d="M28.92 29.03h.86c-2.79-1.78-3.61-5.48-1.83-8.26.52-.81 1.22-1.49 2.05-1.97V17l-9.4-8.67h-.01a.8.8 0 0 0-.54-.22h-.1c-.2 0-.39.08-.54.21h-.01L10 17v17h17.01c0-.56.24-1.09.66-1.47-.42-.38-.66-.93-.66-1.5-.02-1.08.83-1.97 1.91-2" fill="#ffa6a0"/><path d="M37.1 36.03h-8.18c-.55.05-.96.54-.9 1.09.05.47.41.84.88.9h8.2c.55-.06.96-.55.9-1.1-.05-.48-.42-.85-.9-.9Zm0-3h-8.18a1.004 1.004 0 0 0 0 2h8.18c.55-.06.96-.55.9-1.1-.05-.48-.42-.85-.9-.9m0-3h-8.18a1.004 1.004 0 0 0 0 2h8.18c.55-.06.96-.55.9-1.1-.05-.48-.42-.85-.9-.9M33 19c-2.8 0-5 2.2-5 5s2.2 5 5 5 5-2.2 5-5-2.2-5-5-5m.2 4.2-.1.6h-1.3v.3h1.3l-.1.6h-1c.2.4.6.6 1.1.6.4 0 .8-.2 1-.6l.8.5c-.4.6-1.1 1-1.8.9-1 0-1.8-.6-2.1-1.5h-.6l.1-.6h.4v-.3h-.3l.1-.6h.3c.3-.9 1.2-1.5 2.1-1.5.7 0 1.4.3 1.8.9l-.8.5c-.2-.4-.6-.6-1-.6s-.8.2-1.1.6h1.2z" fill="#000d6e"/></svg>