<svg xmlns="http://www.w3.org/2000/svg" viewBox="0 0 40 40" focusable="false" aria-hidden="true"><path fill="none" d="M0 0h40v40H0z"/><g data-name="Icon Green"><path fill="#1b5951" d="M29 6h-4v2.306l4 3.688z"/><path d="m21.267 7.583 10.394 9.585.339-.367.339-.367-10.399-9.59a2.9 2.9 0 0 0-3.884.005L7.66 16.433l.339.368.339.367 10.39-9.58a1.9 1.9 0 0 1 2.538-.005" fill="#000d6e"/><path d="M28.917 29.027h.861A5.986 5.986 0 0 1 30 18.795v-1.798L20.603 8.33h-.001l-.014-.012a.86.86 0 0 0-.54-.212c-.016-.001-.032-.008-.048-.008s-.032.007-.049.008a.86.86 0 0 0-.54.212l-.013.012L10 16.997V34h17.01a2.03 2.03 0 0 1 .658-1.473 2.03 2.03 0 0 1-.66-1.5 1.96 1.96 0 0 1 1.91-2" fill="#94e3d4"/><path d="M37.099 36.029h-8.182a1.003 1.003 0 0 0-.025 1.994c.009 0 .016.006.025.006H37.1a1.005 1.005 0 0 0 0-2M37.099 33.028h-8.182a1.005 1.005 0 0 0 0 2H37.1a1.005 1.005 0 0 0 0-2M37.099 30.027h-8.182a1.005 1.005 0 0 0 0 2H37.1a1.005 1.005 0 0 0 0-2M28.008 23.978a5 5 0 1 0 5-5 5 5 0 0 0-5 5m6.94-1.393h1.664v.465h-1.127v.555h.993v.464h-.993v1.02h-.537Zm-2.632 0h.537v.987h.954v-.987h.536v2.503h-.536V24.05h-.954v1.037h-.537Zm-1.601-.047a1.18 1.18 0 0 1 1.173.817l-.514.21a.65.65 0 0 0-.674-.52.793.793 0 0 0 .004 1.582.645.645 0 0 0 .67-.519l.515.21a1.176 1.176 0 0 1-1.178.817 1.298 1.298 0 0 1 .004-2.597" fill="#000d6e"/></g></svg>