<svg xmlns="http://www.w3.org/2000/svg" viewBox="0 0 40 40" focusable="false" aria-hidden="true"><path fill="none" d="M0 0h40v40H0z"/><g><path fill="#94e3d4" d="M13 19.92h4v4h-4zM13 24.92h4v4h-4zM18 14.92h4v4h-4zM13 14.92h4v4h-4zM18 9.92h4v4h-4zM13 9.92h4v4h-4zM18 19.92h4v4h-4zM23 24.92h4v4h-4zM23 9.92h4v4h-4zM23 14.92h4v4h-4zM18 24.92h4v4h-4zM23 19.92h4v4h-4z"/><path d="M11 6.92v30h5v-5h8v5h5v-30zm6 8v4h-4v-4zm-4-1v-4h4v4zm4 6v4h-4v-4zm0 5v4h-4v-4zm5-10v4h-4v-4zm-4-1v-4h4v4zm4 6v4h-4v-4zm0 5v4h-4v-4zm5-5v4h-4v-4zm-4-1v-4h4v4zm4 6v4h-4v-4zm0-11h-4v-4h4z" fill="#1b5951"/><path fill="#000d6e" d="M16 31.92h8v5h-8z"/></g></svg>