<svg xmlns="http://www.w3.org/2000/svg" viewBox="0 0 40 40" focusable="false" aria-hidden="true"><path fill="none" d="M0 0h40v40H0z"/><g data-name="Icon Red"><circle cx="20" cy="23.0004" r="2" fill="#000d6e"/><path d="M20 15a7.994 7.994 0 0 0-7.413 11h14.826A7.994 7.994 0 0 0 20 15m0 10a2 2 0 1 1 2-2 2 2 0 0 1-2 2" fill="#ffaca6"/><path d="m30.678 23 1.66-1.533a.5.5 0 0 0-.13-.821l-2.053-.945 1.106-1.973a.5.5 0 0 0-.377-.74l-2.246-.264.443-2.217a.5.5 0 0 0-.588-.588l-2.217.442-.264-2.245a.5.5 0 0 0-.27-.386.5.5 0 0 0-.472.008l-1.97 1.107-.945-2.054a.5.5 0 0 0-.822-.13L20 12.322l-1.533-1.66a.5.5 0 0 0-.821.13l-.946 2.053-1.971-1.107a.5.5 0 0 0-.472-.008.5.5 0 0 0-.27.386l-.263 2.245-2.217-.442a.5.5 0 0 0-.589.588l.443 2.217-2.245.263a.5.5 0 0 0-.378.742L9.844 19.7l-2.054.944a.5.5 0 0 0-.13.822L9.322 23l-1.661 1.534a.5.5 0 0 0 .13.821L9.193 26h2.33a9 9 0 1 1 16.954 0h2.329l1.403-.645a.5.5 0 0 0 .13-.82Z" fill="#ffaca6"/><path fill="#d9304c" d="M4 26.971h32v2H4z"/></g></svg>