<svg xmlns="http://www.w3.org/2000/svg" viewBox="0 0 40 40" focusable="false" aria-hidden="true"><path fill="none" d="M0 0h40v40H0z"/><g data-name="Icon Red"><path d="m27 16.198-6 5.537V38h15V23.558l-7.989-7.37a.76.76 0 0 0-1.01.01" fill="#ffaca6"/><path fill="#d9304c" d="M35 14h-3v2.132l3 2.766zM2 38h5v-5h8v5h5V3H2ZM14 6h4v4h-4Zm0 5h4v4h-4Zm0 5h4v4h-4Zm0 5h4v4h-4Zm0 5h4v4h-4ZM9 6h4v4H9Zm0 5h4v4H9Zm0 5h4v4H9Zm0 5h4v4H9Zm0 5h4v4H9ZM4 6h4v4H4Zm0 5h4v4H4Zm0 5h4v4H4Zm0 5h4v4H4Zm0 5h4v4H4Z"/><path d="M38.028 23.052 29.18 14.89a2.47 2.47 0 0 0-3.305.004L21 19.389v1.157l5.447-5.022a1.615 1.615 0 0 1 2.16-.004l8.845 8.156.289-.312zM7 33h8v5H7z" fill="#000d6e"/></g></svg>