<svg version="1.1" xmlns="http://www.w3.org/2000/svg" x="0px" y="0px" viewBox="0 0 40 40" xml:space="preserve" focusable="false" aria-hidden="true" enable-background="new 0 0 40 40"><path fill="none" d="M0 0h40v40H0z"/><g><circle cx="20" cy="20" r="17" fill="#6C2273"/><path d="M11.509 12.277a.5.5 0 0 0 .708 0 .5.5 0 0 0 0-.707l-1.414-1.415a.5.5 0 0 0-.707.707zM8.513 19.553h-2a.5.5 0 0 0 0 1h2a.5.5 0 0 0 0-1M11.539 27.786 10.124 29.2a.5.5 0 0 0 .708.707l1.415-1.414a.5.5 0 0 0-.708-.707M29.169 10.155l-1.415 1.415a.5.5 0 0 0 .708.707l1.415-1.415a.5.5 0 0 0-.708-.707M28.461 27.815a.5.5 0 0 0-.707.707l1.415 1.414a.5.5 0 0 0 .708 0 .5.5 0 0 0 0-.707zM33.487 19.553h-2a.5.5 0 0 0 0 1h2a.5.5 0 0 0 0-1M20 6.064a.5.5 0 0 0-.5.5v2a.5.5 0 0 0 1 0v-2a.5.5 0 0 0-.5-.5" fill="none"/><path d="M20 5C11.716 5 5 11.716 5 20s6.716 15 15 15 15-6.716 15-15S28.284 5 20 5M8.513 20.553h-2a.5.5 0 0 1 0-1h2a.5.5 0 0 1 0 1m1.582-10.398a.5.5 0 0 1 .707 0l1.414 1.415a.5.5 0 0 1-.708.707l-1.414-1.415a.5.5 0 0 1 .001-.707m2.151 18.338-1.415 1.414a.5.5 0 0 1-.708 0 .5.5 0 0 1 0-.707l1.415-1.414a.5.5 0 0 1 .708.707m8.254 5.005a.5.5 0 0 1-1 0v-2a.5.5 0 0 1 1 0zm0-24.934a.5.5 0 0 1-1 0v-2a.5.5 0 0 1 1 0zm9.376 21.373a.5.5 0 0 1-.708 0l-1.415-1.414a.5.5 0 0 1 .707-.707l1.415 1.414a.5.5 0 0 1 .001.707m0-19.075-1.415 1.415a.5.5 0 0 1-.708 0 .5.5 0 0 1 0-.707l1.415-1.415a.5.5 0 0 1 .708.707m3.611 9.691h-2a.5.5 0 0 1 0-1h2a.5.5 0 0 1 0 1" fill="#B8B2FF"/><path d="M25.704 13.356a.9.9 0 0 0-.294.066l-8.187 3.368a.9.9 0 0 0-.277.191l.018.018a.9.9 0 0 0-.175.263l-3.37 8.185c-.294.714.42 1.429 1.135 1.135l8.185-3.37a.87.87 0 0 0 .473-.473l3.37-8.185c.258-.629-.263-1.256-.878-1.198M20 21.5a1.5 1.5 0 1 1 .001-3.001A1.5 1.5 0 0 1 20 21.5" fill="#000D6E"/></g></svg>