<svg xmlns="http://www.w3.org/2000/svg" viewBox="0 0 40 40" focusable="false" aria-hidden="true"><path fill="none" d="M0 0h40v40H0z"/><g><path d="M32 5H8a1 1 0 0 0-1 1v30.042a1 1 0 0 0 1 1h24a1 1 0 0 0 1-1V6a1 1 0 0 0-1-1" fill="#6c2273"/><path d="M8 6v30.042h24V6z" fill="#b8b2ff"/><path d="M25 3H15c-.827 0-1.5.667-1.5 1.488v2.024C13.5 7.332 14.173 8 15 8h10c.827 0 1.5-.667 1.5-1.488V4.488C26.5 3.668 25.827 3 25 3M29.237 29.206l-4.1-4.1-2.819-2.818-5.151-5.152a3.91 3.91 0 0 0-.932-4.015 3.91 3.91 0 0 0-3.772-1.004l1.869 3.036-1.614 1.615-3.037-1.869c-.342 1.305-.019 2.749 1.004 3.771a3.91 3.91 0 0 0 4.015.932l5.152 5.152 6.919 6.919c.58.58 1.523.58 2.103 0l.363-.363c.58-.58.58-1.523 0-2.104" fill="#6c2273"/><path d="M28.678 14.558a.744.744 0 0 0 0-1.052l-1.052-1.052a.744.744 0 0 0-1.051 0l-.543.51 2.137 2.137zM12.446 25.727l2.96 2.96 8.687-9.247-2.4-2.4zM9.218 28.76a.744.744 0 0 0 0 1.051l2.104 2.104c.29.29.761.29 1.052 0l2.547-2.712-2.991-2.991zM30.782 18.766l-7.133-7.134a.75.75 0 0 0-.597-.214l-3.842.362a.745.745 0 0 0-.457 1.268l8.873 8.873c.29.291.763.291 1.054 0l2.102-2.102a.745.745 0 0 0 0-1.053" fill="#000d6e"/></g></svg>