<svg version="1.1" xmlns="http://www.w3.org/2000/svg" x="0px" y="0px" viewBox="0 0 40 40" xml:space="preserve" enable-background="new 0 0 40 40" focusable="false" aria-hidden="true"><path fill="none" d="M0 0h40v40H0z"/><g><path d="M31 31H9a2 2 0 0 1-2-2V15h26v14a2 2 0 0 1-2 2M33 10.841A1.85 1.85 0 0 0 31.14 9H28v2.064c0 .556-.448 1.006-1 1.006s-1-.45-1-1.006V9H14v2.064c0 .556-.448 1.006-1 1.006s-1-.45-1-1.006V9H8.86A1.85 1.85 0 0 0 7 10.841V14h26z" fill="#6C2273"/><path d="M13 12.042a1 1 0 0 0 1-1v-4a1 1 0 0 0-2 0v4a1 1 0 0 0 1 1M27 12.042a1 1 0 0 0 1-1v-4a1 1 0 0 0-2 0v4a1 1 0 0 0 1 1M12 21h-2a1 1 0 0 1-1-1v-2a1 1 0 0 1 1-1h2a1 1 0 0 1 1 1v2a1 1 0 0 1-1 1M18 21h-2a1 1 0 0 1-1-1v-2a1 1 0 0 1 1-1h2a1 1 0 0 1 1 1v2a1 1 0 0 1-1 1M24 21h-2a1 1 0 0 1-1-1v-2a1 1 0 0 1 1-1h2a1 1 0 0 1 1 1v2a1 1 0 0 1-1 1M30 21h-2a1 1 0 0 1-1-1v-2a1 1 0 0 1 1-1h2a1 1 0 0 1 1 1v2a1 1 0 0 1-1 1M12 27h-2a1 1 0 0 1-1-1v-2a1 1 0 0 1 1-1h2a1 1 0 0 1 1 1v2a1 1 0 0 1-1 1M18 27h-2a1 1 0 0 1-1-1v-2a1 1 0 0 1 1-1h2a1 1 0 0 1 1 1v2a1 1 0 0 1-1 1M24 27h-2a1 1 0 0 1-1-1v-2a1 1 0 0 1 1-1h2a1 1 0 0 1 1 1v2a1 1 0 0 1-1 1" fill="#B8B2FF"/><path d="m24.122 18.352-.623.623.623.623-.462.457-.623-.623-.627.623-.462-.457.623-.628-.623-.622.462-.462.623.623.623-.623z" fill="#000D6E"/></g></svg>