<svg xmlns="http://www.w3.org/2000/svg" viewBox="0 0 40 40" focusable="false" aria-hidden="true"><path fill="none" d="M0 0h40v40H0z"/><g data-name="Icon Purple"><path d="M26.738 20.46 26.5 7h-4L22 19l-6-4v4l-6-4v4l-6-4v16h22.11a6.976 6.976 0 0 1 .628-10.54M8 26.018H6v-2h2Zm5.96 0h-2v-2h2Zm5.998 0h-2v-2h2Z" fill="#6c2273"/><circle cx="31" cy="26" r="6" fill="#b8b2ff"/><path d="M30.263 29.867a.79.79 0 0 0-.425-.604l-1.952-.986-.014-.224a1.6 1.6 0 0 0 .633-1.003l.038.01c.15 0 .272-.166.272-.373a.37.37 0 0 0-.197-.352v-.37a6 6 0 0 0 0-.65 1.46 1.46 0 0 0-1.372-.98 1.31 1.31 0 0 0-1.373 1.176v.824a.37.37 0 0 0-.196.353c0 .206.122.373.272.373a.2.2 0 0 0 .055-.015 1.62 1.62 0 0 0 .617.996l-.016.236-1.951.986a.79.79 0 0 0-.425.603l-.144 1.368h6.322ZM37.771 29.867a.79.79 0 0 0-.425-.604l-1.951-.986-.015-.224a1.6 1.6 0 0 0 .634-1.003l.037.01c.15 0 .272-.166.272-.373a.37.37 0 0 0-.196-.352v-.37a6 6 0 0 0 0-.65 1.46 1.46 0 0 0-1.373-.98 1.31 1.31 0 0 0-1.373 1.176v.824a.37.37 0 0 0-.196.353c0 .206.122.373.272.373a.2.2 0 0 0 .055-.015 1.62 1.62 0 0 0 .617.996l-.015.236-1.952.986a.79.79 0 0 0-.425.603l-.144 1.368h6.322Z" fill="#000d6e"/><path d="M34.017 30.543a.79.79 0 0 0-.425-.604l-1.951-.986-.015-.224a1.6 1.6 0 0 0 .633-1.003l.038.01c.15 0 .272-.167.272-.373a.37.37 0 0 0-.196-.353v-.369a6 6 0 0 0 0-.65A1.46 1.46 0 0 0 31 25.01a1.31 1.31 0 0 0-1.373 1.177v.824a.37.37 0 0 0-.196.352c0 .207.122.374.272.374a.2.2 0 0 0 .055-.016 1.62 1.62 0 0 0 .617.996l-.016.236-1.95.986a.79.79 0 0 0-.426.604l-.144 1.65h6.322Z" fill="#000d6e"/></g></svg>