<svg xmlns="http://www.w3.org/2000/svg" viewBox="0 0 40 40" focusable="false" aria-hidden="true"><path fill="none" d="M0 0h40v40H0z"/><g><path d="M20 5C12.54 5 6.49 10.82 6.49 18h7.02s.35-3.01 2.09-6.9C17.22 7.48 20.01 5 20.01 5Z" fill="#ffaca6"/><path d="M24.41 11.1c1.74 3.88 2.09 6.9 2.09 6.9h7.02c0-7.18-6.05-13-13.51-13 0 0 2.79 2.49 4.41 6.1Z" fill="#ffaca6"/><path d="M24.41 11.1C22.79 7.48 20 5 20 5s-2.79 2.49-4.41 6.1C13.85 14.98 13.5 18 13.5 18h13s-.35-3.01-2.09-6.9M19.5 32c0 1.1-.9 2-2 2h-.32c-1.1 0-2-.9-2-2v-1.5c0-.28-.22-.5-.5-.5s-.5.22-.5.5V32c0 1.65 1.34 3 3 3h.32c1.65 0 3-1.34 3-3v-2h-1z" fill="#d9304c"/><path fill="#000d6e" d="M19.5 19v11h1V19z"/><circle cx="29.99" cy="30.97" r="6" fill="#ffaca6"/><path fill="#000d6e" d="M29.33 32.51h1.29l.29-5.37h-1.85zM29.98 33.44c-.52 0-.9.39-.9.93 0 .5.38.9.9.9s.92-.39.92-.9c0-.54-.39-.93-.92-.93"/></g></svg>