<svg xmlns="http://www.w3.org/2000/svg" viewBox="0 0 40 40" focusable="false" aria-hidden="true"><path fill="none" d="M0 0h40v40H0z"/><g><path d="m27.575 27.943-.001-.06c-.657-.476-1.15-1.287-1.35-2.256a.4.4 0 0 1-.106.015.44.44 0 0 1-.228-.066c-.21-.128-.359-.428-.359-.777v-.002q.002-.11.022-.214l.008-.035q.004-.014.01-.028c.08-.327.292-.564.547-.564h.002l-.012-1.596a2.4 2.4 0 0 1 .023-.34c.386-.186.985-.505 1.78-.306l.062.015c.157.044.319.101.49.192a120.246 120.246 0 0 0 2.798 1.402l.464.225.003.408c.036 0 .067.021.101.03.007-.005.014-.012.02-.01.021.007.039.024.058.034a.5.5 0 0 1 .082.048c.01.007.021.01.03.018l.019.014c.02.02.036.047.055.07.022.025.043.048.062.077l.012.016.019.033c.019.036.031.078.046.118.012.03.026.056.035.087l.003.009.008.036a1.17 1.17 0 0 1-.014.591c-.09.303-.298.515-.541.515a.4.4 0 0 1-.09-.013c-.153.744-.48 1.395-.92 1.872a3 3 0 0 1-.477.416l.054.867.005.162v.036l.724.17 1.212.612 1.426.721c.584-.395.865-.85.614-1.26-.418-.684-.59-2.105-.852-3.507-.218-1.704-.77-3.263-.976-4.048-.314-1.193-1.24-2.611-3.498-2.687-1.668 0-3.05 1.13-3.33 2.284-.41 1.123-1.448 4.585.146 7.364.166.288.368.532.594.743l.076-.038.722-.365.37-.19z" fill="#000d6e"/><path fill="#ffaca6" d="M30.912 31.51H27.14l.335-2.695 2.827-.016z"/><path fill="none" d="m27.522 28.794-.001.008V28.8zM30.236 27.917l.054.867v.008l.001.009h.001l.001.01c.004.034.015.154.028.347.016.31.024.83-.013 1.556.04-.72.034-1.24.017-1.554 0-.09-.01-.17-.02-.23 0-.05 0-.09-.01-.12v-.024l-.005-.002zM31.728 23.956a.4.4 0 0 1 .18.054c-.02-.01-.038-.027-.059-.034-.006-.002-.013.005-.02.01-.034-.009-.065-.03-.1-.03l-.004-.408zM32.278 24.536l-.008-.036-.003-.009zM31.723 25.642c.243 0 .452-.212.54-.515-.088.303-.297.515-.54.515M30.713 27.501c.44-.477.767-1.128.92-1.872-.153.744-.48 1.395-.92 1.872M32.232 24.404c-.015-.04-.027-.082-.046-.118l-.02-.033-.011-.015q.045.076.078.167M27.575 31.71l.001-.001-.001-.002zM27.644 32.376l.021.176zM27.546 31.339l-.021-.289zM30.153 32.505q-.065.564-.163 1.22c.071-.442.123-.844.163-1.22M27.502 30.644a17.818 17.818 0 0 0 0 0M30.285 31.17q.015-.03 0-.06l.006-.114c-.009.145-.02.302-.034.463.008-.094.024-.2.028-.289M25.56 24.548l-.007.035q-.02.104-.022.214c0-.098.018-.19.04-.277q-.006.014-.01.028M27.973 21.729l-.063-.015zM32.093 24.16c-.019-.023-.034-.05-.055-.07l-.018-.014c-.01-.008-.021-.01-.031-.018a.6.6 0 0 1 .104.102M27.482 29.485l.002-.072zM27.515 28.84a2 2 0 0 0-.018.257c.01-.159.021-.27.024-.295 0 .009 0 .012-.006.038M26.118 25.642a.414.414 0 0 1 0 0M11.435 32.58h-.002zM9.945 31.616c-.008-.141-.013-.27-.019-.403.006.134.01.264.019.407.01.1.01.21.02.32l.003.001q-.013-.166-.023-.325M12.895 31.94l.008-.136-.01.137zM12.931 31.303c.038-.741.031-1.353.014-1.773l-.002-.004c.018.424.023 1.035-.012 1.777"/><path d="M30.32 29.158a9 9 0 0 0-.027-.348l-.001-.009-.001-.009-.001-.008-.054-.867q.256-.177.477-.416c.44-.477.767-1.128.92-1.872q.045.012.09.013c.243 0 .452-.212.54-.515a1.17 1.17 0 0 0 .004-.636c-.009-.031-.023-.057-.034-.086a1 1 0 0 0-.078-.168c-.019-.029-.04-.052-.062-.077a.484.484 0 0 0-.186-.15.4.4 0 0 0-.179-.054l-.003-.408a155 155 0 0 1-2.562-1.267 60 60 0 0 1-.7-.36 2.5 2.5 0 0 0-.49-.192l-.063-.015c-.794-.199-1.393.12-1.779.306a2.391 2.391 0 0 0-.023.34l.012 1.596h-.002c-.255 0-.467.237-.547.564-.022.087-.04.179-.04.277v.002c0 .35.148.649.359.777q.106.065.228.066a.4.4 0 0 0 .107-.015c.199.97.692 1.78 1.349 2.256l.001.06-.052.838.002-.001-.003.014v.007h-.001a9 9 0 0 0-.024.296l-.002.083-.011.233-.002.072c-.002.056-.002.122-.003.186q-.001.175.002.387c0 .038 0 .071.002.111.003.143.01.31.019.475 0 .023.001.042.003.066.003.108.012.224.02.34l.021.289.028.34c.325.375.797.619 1.333.619.534 0 1.005-.243 1.33-.617q.012-.114.02-.222c.013-.16.025-.317.034-.463l.017-.282c.037-.727.03-1.247.013-1.556M27.576 31.709l-.001-.018v.016zM24.41 8.103c1.738 3.882 2.087 6.896 2.088 6.897h7.016c0-7.18-6.05-13-13.514-13 .001.001 2.79 2.486 4.41 6.103M15.59 8.103C17.21 4.486 19.999 2.002 20 2 12.536 2 6.486 7.82 6.486 15h7.016c0-.001.35-3.015 2.089-6.897" fill="#ffaca6"/><path d="M15.59 8.103c-1.738 3.882-2.088 6.896-2.088 6.897h12.996c0-.001-.35-3.015-2.089-6.897C22.79 4.486 20.001 2 20 2c-.002.002-2.79 2.486-4.41 6.103M20.5 16h-1v7.17a3.2 3.2 0 0 1 1-.187z" fill="#d9304c"/><path d="M9.945 31.616q.01.159.023.325c.232.251.534.434.874.54.187.058.381.099.589.099h.002c.26 0 .505-.057.73-.146.281-.112.532-.278.73-.493l.01-.137c.003-.062.006-.127.012-.184.007-.111.01-.212.016-.317.035-.742.03-1.353.012-1.777-.006-.149-.013-.267-.02-.37-.015-.207-.028-.326-.028-.326l.007-.918c.752-.498 1.319-1.37 1.546-2.42.027.005.055.012.083.012.359 0 .65-.4.65-.893 0-.406-.199-.745-.469-.853v.15c0 .053-.02.1-.05.139a.23.23 0 0 1-.184.096.234.234 0 0 1-.234-.234v-.765c0-.034-.003-.063-.003-.096q-.04-.065-.083-.13a2.9 2.9 0 0 0-.646-.704 2.53 2.53 0 0 1-1.847.059 4.3 4.3 0 0 1-.746-.327 2.5 2.5 0 0 1-.453-.321 5 5 0 0 0-1.117.321c-.254.106-.46.213-.624.293-.04.155-.076.346-.095.58q-.012.15-.013.325v.765c0 .129-.104.234-.234.234-.013 0-.025-.006-.038-.008a.23.23 0 0 1-.196-.226v-.151c-.27.108-.468.447-.468.853 0 .493.29.893.65.893a.5.5 0 0 0 .126-.018c.223 1.037.778 1.905 1.516 2.406h-.012l.005.938s-.03.25-.048.696a19 19 0 0 0 .008 1.687c.006.132.01.262.02.403" fill="#ffaca6"/><path d="M9.975 32.02c0-.03 0-.05-.01-.08-.01-.11-.01-.22-.02-.32-.008-.143-.013-.273-.019-.407a26 26 0 0 1-.018-.602c-.008-.43-.005-.8.007-1.081.02-.45.05-.7.05-.7l-.07.03-4.6 2.33c-.56.28-.94.82-1.02 1.44l-.29 2.35h6.39c-.09-.39-.22-1.12-.35-2.4-.02-.19-.04-.38-.05-.56M16.965 31.265l-.034.013v-.41l-4.035-2.037-.001-.001s.013.12.028.325c.007.104.015.224.022.375.017.42.024 1.032-.014 1.772-.005.106-.009.207-.016.318-.006.057-.009.122-.012.184q-.003.068-.008.136c0 .03-.01.06-.01.09-.01.18-.03.36-.05.55-.13 1.28-.26 2.01-.35 2.4h3.746v-2.47c0-.64.154-.99.704-1.23" fill="#d9304c"/><path d="M8.345 24.135q.019.005.038.007c.13 0 .234-.104.234-.233v-.765q0-.174.013-.326c.019-.233.055-.424.095-.579.164-.08.37-.187.624-.293.3-.125.67-.247 1.117-.321.116.106.264.214.453.321.2.114.443.225.746.327.742.25 1.369.144 1.847-.059.276.215.487.458.646.704q.044.065.083.13c0 .033.003.062.003.096v.765c0 .129.105.233.234.233a.2.2 0 0 0 .078-.015.23.23 0 0 0 .106-.08c.03-.04.05-.086.05-.138v-1.012c.02-.606.032-1.254 0-1.567-.068-.673-1.329-2.344-3.281-2.344S8.149 20.46 8.149 21.8v2.11a.23.23 0 0 0 .196.226" fill="#000d6e"/><path d="M24.975 32.5v2.48h3.046c-.143-.85-.282-1.82-.356-2.438l-.021-.176-.001-.01q-.04-.346-.068-.656v-.032l-.029-.339-.021-.289c-.008-.116-.017-.232-.02-.34l-.003-.066a18 18 0 0 1-.02-.475l-.001-.111a14 14 0 0 1-.002-.387c0-.064.001-.13.003-.187l.002-.07.01-.234c0-.032.002-.055.003-.083.003-.115.01-.21.018-.257.006-.026.005-.03.006-.038l.001-.008.003-.014h-.002l-.37.19-.719.37-2.375 1.198v.724c.537.24.916.6.916 1.248M35.963 34.98l-.298-2.61c-.07-.59-.43-1.1-.96-1.36l-1.05-.53-.16-.08-2.11-1.07-.366-.188c-.216-.11-.433-.227-.657-.321q-.032-.017-.067-.023c.004 0 .033.459.036.496q.015.32.004.639c-.008.218-.007.438-.02.656l-.007.115-.021.428-.003.043c-.008.091-.02.182-.027.274l-.02.222c-.013.114-.016.215-.032.339-.014.152-.035.322-.052.485-.04.376-.092.778-.163 1.22-.01.06-.015.113-.025.175-.022.178-.06.378-.092.568l-.093.522z" fill="#d9304c"/><path d="M23.004 28.07c.103 0 .193-.053.274-.128-.08.074-.172.128-.276.128zM19.843 30.803l-.07-.036q.034.019.07.036M23.352 26.772c-.092-.118-.21-.196-.342-.199l-.003-.336h-.002l.004.339c.133 0 .25.078.343.196M20.259 30.936c-.049-.008-.1-.012-.146-.025.047.013.097.016.146.025M18.024 28.07c-.11 0-.206-.06-.29-.141.084.082.18.142.288.142.07 0 .137-.022.198-.058v-.003a.37.37 0 0 1-.196.06M18.02 25.62l-.003-.323-.002.003.002.32v.006l.006.71-.003-.712z" fill="none"/><path d="M21.74 30.258v-.086l-.015-.225-.037-.533q.178-.11.338-.25a2.8 2.8 0 0 0 .645-.826c.054-.104.108-.208.15-.32.05.028.112.046.169.049l.01.003h.002c.104 0 .195-.054.276-.128a.84.84 0 0 0 .25-.623c0-.217-.07-.41-.176-.547-.092-.118-.21-.196-.343-.196l-.004-.34c-.674-.195-2.07-.613-2.896-1.048-.968-.508-1.667-.1-2.08.097l-.012.012.003.322v.005l.004.944c-.147 0-.278.085-.373.221a.94.94 0 0 0-.153.53c0 .254.094.468.23.604l.007.006c.083.082.179.141.289.141a.37.37 0 0 0 .195-.06q.078.209.183.398.005.013.012.025c.008.015.02.028.028.043.223.379.521.693.873.915l-.037.894-.002.021h.002a1.52 1.52 0 0 0 .835.605c.047.013.097.017.146.025.082.014.164.031.251.031.52 0 .96-.26 1.23-.66z" fill="#ffaca6"/><path d="m19.276 30.612.002-.327.037-.894a2.7 2.7 0 0 1-.872-.915l-.03-.043-.01-.025a3 3 0 0 1-.183-.395.4.4 0 0 1-.198.058c-.109 0-.204-.06-.287-.142l-.007-.006a.85.85 0 0 1-.23-.604c0-.206.058-.394.153-.53s.226-.22.373-.22v-.233l-.007-.71v-.007l-.002-.32.002-.002.011-.012c.414-.197 1.113-.605 2.08-.097.827.435 2.223.853 2.897 1.048h.002l.003.337c.132.003.25.08.342.2.106.136.175.329.175.546a.84.84 0 0 1-.249.623c-.08.075-.171.129-.274.129h-.002L23 28.07l-.01-.003a.4.4 0 0 1-.169-.05c-.042.113-.096.217-.15.32a2.73 2.73 0 0 1-.983 1.077l.037.533.015.225v.576l.002-.442 1.428.773q.513.135.89.331v-4.67c0-.11-.016-.215-.024-.323a4.5 4.5 0 0 0-.24-1.204c-.013-.04-.032-.076-.046-.115-.056-.144-.111-.288-.18-.42a3.6 3.6 0 0 0-.305-.499q-.02-.037-.047-.073l-.053-.083c-.486-.758-1.475-1.378-2.627-1.378-.029 0-.055.008-.083.009-.394.01-.765.095-1.104.231-.44.177-.829.433-1.125.743-.17.144-.326.315-.468.502l-.034.04q-.207.284-.367.617l-.021.045c-.089.19-.155.397-.217.608-.012.043-.032.08-.043.123l-.006.023c-.034.133-.044.278-.066.417s-.056.27-.065.414q-.014.16-.016.323v4.25c.26-.14.567.05.927-.047z" fill="#000d6e"/><path d="M25.04 34.98v-2.423c0-.785-.347-1.262-.98-1.588a4.4 4.4 0 0 0-.89-.332l-1.428-.331h-.002c-.27.4-.71.661-1.23.661-.087 0-.169-.017-.251-.031-.049-.009-.1-.012-.146-.025a1.4 1.4 0 0 1-.27-.108q-.036-.017-.07-.036a1.5 1.5 0 0 1-.495-.461h-.002l-1.426.331q-.538.144-.928.352c-.608.326-.942.799-.942 1.568v2.423z" fill="#ffaca6"/><path d="M23.38 34.98v-4.283l-.21-.06-1.43-.33c-.27.4-.71.66-1.23.66s-.96-.26-1.23-.66l-1.43.33-.21.06v4.283z" fill="#d9304c"/></g></svg>