<svg version="1.1" xmlns="http://www.w3.org/2000/svg" x="0px" y="0px" viewBox="0 0 40 40" xml:space="preserve" focusable="false" aria-hidden="true" enable-background="new 0 0 40 40"><path fill="none" d="M0 0h40v40H0z"/><g><path d="M27.902 12.666a.67.67 0 0 0-.893.01l-7.029 6.506-7.039-6.516a.67.67 0 0 0-.893.01L5 19.2V32h29.961V19.2zM10 24H7v-3h3zm4 0h-3v-3h3zm4 0h-3v-3h3zm7 0h-3v-3h3zm4 0h-3v-3h3zm4 0h-3v-3h3z" fill="#FAE052"/><path fill="#000D6E" d="M11 27h3v5h-3zM26 27h3v5h-3z"/><path fill="#FA9319" d="M19.31 10.94h-3.009v1.734l3.009 2.775z"/><path fill="none" d="M11.371 21.464h2.257v2.257h-2.257zM7.998 21.464h2.257v2.257H7.998zM14.757 21.482h2.257v2.257h-2.257z"/><path fill="#FA9319" d="M34.233 10.94h-3.01v1.734l3.01 2.775z"/><path d="M28.92 11.577c-.83-.75-2.09-.75-2.92 0l-6 5.53-6-5.53c-.83-.75-2.09-.75-2.92 0l-7.82 7.21.25.28.26.28 7.81-7.21c.55-.49 1.37-.49 1.91-.01l5.95 5.5.56.51.56-.51 5.94-5.49c.55-.49 1.37-.49 1.91-.01l7.82 7.22.26-.28.25-.28z" fill="#000D6E"/><path fill="none" stroke="#000D6E" stroke-width="0" stroke-linecap="round" stroke-linejoin="round" d="M5.518 36.616"/></g></svg>