<svg xmlns="http://www.w3.org/2000/svg" viewBox="0 0 40 40" focusable="false" aria-hidden="true"><path fill="none" d="M0 0h40v40H0z"/><g data-name="Icon Tangerine"><path d="M27.067 3.229a20.94 20.94 0 0 0-14.134 0L5 6.079v15.815C5 29.52 14.49 36.99 20.002 37 25.51 36.99 35 29.52 35 21.894V6.08Zm3.425 7.693a.5.5 0 0 1-.5-.504l-.001-.96a.5.5 0 0 1-.067.084L27 11.988v15.947A1.037 1.037 0 0 1 26 29h-3V15.334l-.734.614a1.4 1.4 0 0 1-.266.157V29h-4V14.624c-.005.004-.012.003-.017.007l-.983.874V29h-3a1.026 1.026 0 0 1-1-1.045V19.06l-2.13 1.893a.5.5 0 0 1-.707-.045.506.506 0 0 1 .044-.71l7.132-6.337a1.34 1.34 0 0 1 1.49-.15l2.445 1.502a.33.33 0 0 0 .36-.045l7.481-6.259h-.625a.504.504 0 0 1 0-1.007l2 .001a.5.5 0 0 1 .5.504l.002 2.013a.5.5 0 0 1-.5.503" fill="#fae052"/><path d="M13 27.955A1.026 1.026 0 0 0 14 29h3V15.505l-4 3.554ZM20.77 16.082l-2.44-1.499a.32.32 0 0 0-.33.04V29h4V16.105a1.32 1.32 0 0 1-1.23-.023M23 29h3a1.037 1.037 0 0 0 1-1.065V11.988l-4 3.346Z" fill="#fa9319"/><path d="m30.49 7.902-2-.001a.504.504 0 0 0 0 1.007h.625l-7.482 6.259a.33.33 0 0 1-.359.044L18.83 13.71a1.34 1.34 0 0 0-1.49.15l-7.132 6.336a.506.506 0 0 0-.044.711.5.5 0 0 0 .706.045L13 19.059l4-3.554.983-.874c.005-.004.012-.003.017-.007a.32.32 0 0 1 .33-.04l2.44 1.498a1.32 1.32 0 0 0 1.23.023 1.4 1.4 0 0 0 .266-.157l.734-.614 4-3.346 2.924-2.446a.5.5 0 0 0 .067-.084v.96a.5.5 0 0 0 .5.504.5.5 0 0 0 .5-.504l-.001-2.013a.5.5 0 0 0-.5-.503" fill="#000d6e"/></g></svg>