<svg xmlns="http://www.w3.org/2000/svg" viewBox="0 0 40 40" focusable="false" aria-hidden="true"><path fill="none" d="M0 0h40v40H0z"/><g><path d="m13.96 24.663-.003-.465-.004.004.004.461v.01l.009 1.024-.006-1.027ZM20.885 28.123a.56.56 0 0 0 .258.074.56.56 0 0 1-.257-.075ZM13.966 28.198a.62.62 0 0 1-.427-.212.6.6 0 0 0 .424.213.56.56 0 0 0 .286-.083 4 4 0 0 0 .262.569 4 4 0 0 1-.263-.574.54.54 0 0 1-.282.087M20.668 28.584a4 4 0 0 1-.93 1.192 3.9 3.9 0 0 0 .93-1.192M21.148 28.199a.6.6 0 0 0 .396-.185.6.6 0 0 1-.399.184ZM21.65 26.327a.65.65 0 0 0-.493-.288c0-.144-.002-.312-.004-.485l-.003-.001.006.49a.64.64 0 0 1 .494.284M22.142 21.074a4 4 0 0 1-.248-.362 4 4 0 0 0 .248.361" fill="none"/><path d="M37 20a17 17 0 1 0-33.087 5.46l.127-.7a2.56 2.56 0 0 1 1.38-1.98l6.374-3.192c.015-.758.031-1.316.031-1.316a5.28 5.28 0 0 1-2.071-3.288.7.7 0 0 1-.174.024c-.49 0-.887-.546-.887-1.22a1.22 1.22 0 0 1 .64-1.167V9.945a4.275 4.275 0 0 1 4.484-3.843 4.76 4.76 0 0 1 4.484 3.203 21 21 0 0 1 0 2.141v1.176a1.22 1.22 0 0 1 .64 1.167c0 .673-.396 1.22-.887 1.22a1 1 0 0 1-.114-.016 5.25 5.25 0 0 1-2.113 3.306l.028 1.27 1.605.812.012.006c.041 0 .078-.013.12-.013a4.57 4.57 0 0 1 3.79 1.987l.076.12c.043-.023.083-.04.083-.04l1.24-.62s-.082-.086-.196-.214a4.5 4.5 0 0 1-.443-.532 4 4 0 0 1-.247-.361c-2.246-3.915-.784-8.79-.206-10.373a4.835 4.835 0 0 1 4.69-3.217 4.885 4.885 0 0 1 4.927 3.785 39 39 0 0 1 1.374 5.7c.369 1.976.611 3.977 1.2 4.94.365.598-.062 1.26-.939 1.828l-.001.004 1.65.83a2.47 2.47 0 0 1 1.321 1.732A16.9 16.9 0 0 0 37 20" fill="#6c2273"/><path d="m12.65 24.4.006.002-.029-.015q.011.007.023.013" fill="#b8b2ff"/><path d="M9.6 13.137a.3.3 0 0 0 .053.01.32.32 0 0 0 .32-.32v-1.044q0-.239.018-.446a4.7 4.7 0 0 1 .129-.79c.224-.11.505-.256.852-.4a6.8 6.8 0 0 1 1.527-.44 3.4 3.4 0 0 0 .619.44 6 6 0 0 0 1.02.445 3.46 3.46 0 0 0 2.524-.08 3.9 3.9 0 0 1 .882.962c.039.06.08.119.113.178.001.045.005.085.005.131v1.045a.32.32 0 0 0 .32.32.34.34 0 0 0 .205-.079.36.36 0 0 0 .115-.24v-1.384a21 21 0 0 0 0-2.141A4.76 4.76 0 0 0 13.818 6.1a4.275 4.275 0 0 0-4.484 3.843v2.883a.315.315 0 0 0 .267.31" fill="#000d6e"/><path d="M26.319 26.085a2.51 2.51 0 0 1-1.979-.973v.088c.03.28.05.58.08.89a77 77 0 0 0 1.78 8.38 61 61 0 0 0 2.01-8.38l.03-.27c.02-.2.04-.41.05-.6a.5.5 0 0 1 .01-.11 2.51 2.51 0 0 1-1.981.975M15.753 31.23l.006-.092-.007.094v.088l.001-.003z" fill="#6c2273"/><path d="m21.84 32.04-.087-.025-.123-.035c-.01 0-.03-.01-.04-.01v4.95c.327-.03.649-.08.97-.133.104-.017.21-.03.315-.048.382-.065.752-.166 1.125-.256V34.14a1.9 1.9 0 0 0-1.33-1.8l-.004-.002c-.006-.002-.008-.008-.016-.008a9 9 0 0 0-.81-.29M12.84 32.18a.08.08 0 0 1-.05.02c-.1.04-.19.07-.28.11a1 1 0 0 0-.08.03c-.02.01-.03.01-.05.02l-.003.001A1.905 1.905 0 0 0 11 34.14v.246c.089.056.174.116.264.17q.098.059.2.117.427.252.867.485c.271.143.55.273.83.4.078.034.16.057.24.09V32.01l-.09.024-.13.036c-.121.04-.231.08-.341.11M19.326 31.403v-.173l-.022-.325-.054-.769a4 4 0 0 0 .489-.36 4 4 0 0 0 .93-1.192 4 4 0 0 0 .217-.462.56.56 0 0 0 .258.076h.002a.6.6 0 0 0 .398-.184 1.2 1.2 0 0 0 .36-.899 1.3 1.3 0 0 0-.254-.788.64.64 0 0 0-.494-.284l-.006-.49a26.3 26.3 0 0 1-4.177-1.51 2.96 2.96 0 0 0-3 .14l-.016.016.003.464v.007l.005 1.027.001.335c-.422 0-.758.487-.758 1.083a1.23 1.23 0 0 0 .33.871.62.62 0 0 0 .428.212.54.54 0 0 0 .282-.087 4 4 0 0 0 .264.574q.008.018.016.036c.013.022.03.04.042.062a3.86 3.86 0 0 0 1.259 1.32l-.055.802-.015.233-.006.092v.09l-.01.083v.043l-.015.003v.001h.003a2.2 2.2 0 0 0 .522.513 2.115 2.115 0 0 0 2.873-.313 2 2 0 0 0 .203-.21v-.003h-.002Z" fill="#b8b2ff"/><path d="M33.88 21.549c-.589-.964-.831-2.965-1.2-4.94a39 39 0 0 0-1.374-5.701 4.885 4.885 0 0 0-4.927-3.785 4.835 4.835 0 0 0-4.69 3.217c-.578 1.582-2.04 6.458.205 10.372a4 4 0 0 0 .248.362 4.5 4.5 0 0 0 .443.532c.068.069.129.146.2.21l1.406-.71.007-.004.142-.072h.004v-.002l.076-1.284a5.25 5.25 0 0 1-1.93-3.222.6.6 0 0 1-.152.022c-.462 0-.837-.54-.837-1.204s.375-1.204.837-1.204h.003l-.017-2.278c-.002-.037-.008-.074-.008-.112a2 2 0 0 1 .041-.373 3.29 3.29 0 0 1 3.33-.142c.309.162.649.337.998.515a209 209 0 0 0 3.657 1.807l.005.584c.459.006.83.541.83 1.202 0 .665-.376 1.204-.838 1.204a.6.6 0 0 1-.128-.018 5.2 5.2 0 0 1-1.995 3.266l.078 1.237.653.33v.001l.857.434 1.26.636 1.877.947c.877-.568 1.304-1.23.94-1.827M17.591 20.373c-.04 0-.078.012-.119.013a4.77 4.77 0 0 0-3.214 1.405 4.7 4.7 0 0 0-.676.724q-.025.028-.048.06a5.5 5.5 0 0 0-.53.888l-.03.064a6 6 0 0 0-.313.878c-.017.061-.046.115-.063.177l-.008.033c-.049.192-.063.4-.095.601s-.08.39-.094.598c-.01.154-.024.307-.024.465v6.082l.003-.001c.02-.01.03-.01.05-.02a1 1 0 0 1 .08-.03c.09-.04.18-.07.28-.11a.08.08 0 0 0 .05-.02c.11-.03.22-.07.34-.11l.131-.036c.087-.028.172-.057.265-.079q.252-.068.527-.138l.126-.03.101-.027c.11-.02.22-.05.33-.08.12-.03.23-.05.35-.08.027-.005.06-.011.089-.018l.11-.025q.249-.053.476-.099l.042-.008.015-.004v-.043l.01-.083v-.088l.007-.094.015-.233.055-.801a3.86 3.86 0 0 1-1.259-1.32c-.013-.022-.03-.04-.042-.063q-.008-.018-.016-.036a4 4 0 0 1-.263-.57.56.56 0 0 1-.286.084.6.6 0 0 1-.424-.213 1.23 1.23 0 0 1-.33-.87c0-.597.335-1.084.757-1.084v-.335l-.01-1.024v-.01l-.003-.46.004-.005.016-.016a2.96 2.96 0 0 1 3-.14 26.3 26.3 0 0 0 4.177 1.51l.003.002.004.485a.65.65 0 0 1 .493.288 1.3 1.3 0 0 1 .253.788 1.2 1.2 0 0 1-.359.899.6.6 0 0 1-.396.185l-.003-.001h-.002a.56.56 0 0 1-.258-.076 4 4 0 0 1-.217.462 3.9 3.9 0 0 1-.93 1.192 4 4 0 0 1-.488.36l.054.77.022.324v.206h.002c.66.141 1.526.336 2.207.52.021.01.065.01.097.02l.12.039.088.025a9 9 0 0 1 .81.29c.008 0 .01.005.016.008l.006.002v-6.06c0-.16-.024-.31-.035-.466a6.6 6.6 0 0 0-.346-1.737c-.02-.057-.046-.109-.067-.165a6 6 0 0 0-.26-.607 5 5 0 0 0-.44-.718c-.019-.036-.044-.071-.067-.106q-.038-.06-.077-.12a4.57 4.57 0 0 0-3.789-1.988" fill="#000d6e"/><path d="M30.212 16.525a.6.6 0 0 0 .127.018c.463 0 .838-.539.838-1.203 0-.662-.371-1.197-.83-1.203l-.004-.583-.662-.322c-.73-.355-1.913-.936-2.995-1.486-.35-.178-.69-.353-.999-.515a3.29 3.29 0 0 0-3.33.142 2 2 0 0 0-.04.373c0 .038.006.075.008.112l.017 2.278h-.003c-.463 0-.838.54-.838 1.204s.375 1.204.838 1.204a.6.6 0 0 0 .152-.022 5.25 5.25 0 0 0 1.93 3.222l-.077 1.285v.001l-.065 1.046-.004.004-.003.11c-.004.114-.006.243-.008.371-.001.059-.003.106-.003.17-.01.56.01 1.26.06 2.06 0 .1.01.21.02.32v.001a2.5 2.5 0 0 0 3.959-.002c0-.11.01-.22.02-.32.01-.14.02-.27.02-.41.02-.44.03-.85.03-1.22.01-.37 0-.69-.01-.97v-.114l-.06-.946a.5.5 0 0 0-.01-.098v-.002l.004.002v-.004l-.077-1.237a5.2 5.2 0 0 0 1.995-3.266M13.005 23.463a5.5 5.5 0 0 1 .529-.889l.048-.059a4.7 4.7 0 0 1 .676-.724 4.6 4.6 0 0 1 1.622-1.071v-.01l-.025-1.142-.028-1.27a5.25 5.25 0 0 0 2.113-3.306 1 1 0 0 0 .114.016c.49 0 .888-.546.888-1.22a1.22 1.22 0 0 0-.64-1.167v.207a.33.33 0 0 1-.32.32.32.32 0 0 1-.32-.32v-1.045c0-.047-.005-.087-.006-.131q-.053-.09-.113-.179a3.9 3.9 0 0 0-.882-.961 3.46 3.46 0 0 1-2.524.08 6 6 0 0 1-1.02-.446 3.4 3.4 0 0 1-.62-.44 6.8 6.8 0 0 0-1.526.44c-.347.145-.628.29-.852.4a4.7 4.7 0 0 0-.13.79q-.016.209-.017.446v1.045a.32.32 0 0 1-.32.32.3.3 0 0 1-.052-.01.315.315 0 0 1-.268-.31v-.206a1.22 1.22 0 0 0-.64 1.167c0 .673.397 1.22.887 1.22a.7.7 0 0 0 .174-.025 5.28 5.28 0 0 0 2.071 3.289s-.016.558-.031 1.315l-.004.21-.002.057c-.023 1.226-.043 2.824 0 3.506q.013.217.03.444l.002.002a5.4 5.4 0 0 0 .58.454 2 2 0 0 0 .227.127l.028.015.006.003a6 6 0 0 1 .312-.878z" fill="#b8b2ff"/><path d="M20 4A16 16 0 1 1 4 20 16.02 16.02 0 0 1 20 4m0-1a17 17 0 1 0 17 17A17 17 0 0 0 20 3" fill="#6c2273"/></g></svg>