<svg xmlns="http://www.w3.org/2000/svg" viewBox="0 0 40 40" focusable="false" aria-hidden="true"><path fill="none" d="M0 0h40v40H0z"/><g><circle cx="20" cy="20" r="17" fill="#d9304c"/><path d="M16.59 18.186c.15 0 .282-.079.4-.187-.119.107-.25.186-.402.186zM12.003 22.152 11.9 22.1q.05.029.102.053M17.096 16.301c-.133-.172-.304-.286-.496-.29l-.004-.488h-.003l.006.493c.192 0 .364.113.497.285M12.607 22.344c-.071-.011-.144-.017-.213-.036.069.02.142.024.213.036M9.362 18.185c-.16 0-.298-.086-.42-.205.122.12.26.206.417.206.102 0 .2-.031.288-.084l-.001-.005a.54.54 0 0 1-.284.088M9.356 14.627l-.003-.468-.004.005.004.463v.01l.009 1.031-.006-1.034z" fill="none"/><path d="M14.757 21.36v-.124l-.022-.327-.054-.773a4 4 0 0 0 .491-.363c.378-.325.693-.734.936-1.2.078-.15.157-.301.218-.464.072.04.162.067.244.07.006 0 .01.005.016.005h.002c.151 0 .283-.078.401-.185.214-.194.362-.518.362-.904 0-.316-.101-.595-.255-.794-.133-.172-.305-.285-.497-.285l-.006-.493c-.978-.283-3.005-.89-4.204-1.521-1.405-.738-2.42-.147-3.02.14l-.016.017.003.468v.007l.006 1.371c-.212 0-.403.123-.54.32-.138.198-.223.47-.223.77 0 .368.136.68.333.877l.01.008c.122.119.26.205.42.205a.54.54 0 0 0 .284-.088q.113.304.265.578.008.019.017.036c.013.022.03.04.042.063.323.55.756 1.007 1.267 1.329l-.055 1.297-.002.03h.003a2.2 2.2 0 0 0 1.211.878c.069.02.142.025.213.036.12.021.237.046.364.046.754 0 1.394-.379 1.786-.958z" fill="#ffaca6"/><path d="M23.749 14.644c.214.077.452.127.73.127 1.72 0 2.995-.931 3.946-1.984.338.78 1.072 1.645 1.808 2.168.104.075.328 1.764.328 1.764.123-.165.219-.349.3-.54.731-1.72-.165-4.301-1.638-4.128-.283-.364-1.263-.933-2.183-.933s-1.933.82-2.503.82c-.367 0-1.014-.126-1.36-.652-.176.526-.1 1.042.225 1.246-.42.293-.895.08-1.173-.16 0 0 .08.922.629 1.623-.065.508-.083 1.39.262 2.186.08.186.177.368.302.538zM9.11 21.911l2.07-.48h.002V21.4l.055-1.297a3.9 3.9 0 0 1-1.267-1.33c-.013-.021-.03-.04-.042-.062q-.008-.017-.017-.036-.151-.272-.264-.573a.56.56 0 0 1-.288.084c-.157 0-.295-.087-.416-.206l-.01-.008c-.198-.198-.334-.509-.334-.877 0-.3.085-.572.222-.77.138-.197.329-.32.541-.32v-.337l-.01-1.03v-.01l-.003-.464.004-.005.016-.016c.6-.288 1.615-.879 3.02-.141 1.2.63 3.226 1.238 4.204 1.52l.003.001.004.489c.192.003.363.117.496.29.154.198.255.477.255.793 0 .386-.148.71-.362.904-.117.108-.249.187-.398.187l-.003-.001h-.002c-.006 0-.01-.005-.016-.005a.6.6 0 0 1-.244-.071c-.061.163-.14.314-.218.465a3.97 3.97 0 0 1-1.427 1.562l.054.773.022.327v.196l.002-.002 2.073.481c.498.133.926.292 1.293.482v-6.14c0-.16-.025-.31-.036-.467a6.6 6.6 0 0 0-.348-1.75c-.02-.057-.046-.109-.068-.165a5.277 5.277 0 0 0-.704-1.334c-.018-.036-.044-.071-.067-.107l-.077-.12c-.705-1.1-2.141-2-3.814-2-.041 0-.079.012-.12.013a4.6 4.6 0 0 0-1.602.335 4.7 4.7 0 0 0-1.633 1.078c-.248.21-.473.458-.68.73q-.024.029-.049.059a5.5 5.5 0 0 0-.532.895l-.032.064a6 6 0 0 0-.314.883c-.018.062-.047.116-.063.178l-.009.033c-.048.194-.063.404-.095.606-.032.2-.081.393-.095.601-.01.156-.023.31-.023.469v6.168a6.3 6.3 0 0 1 1.346-.51" fill="#000d6e"/><path d="M19.547 27.015v-2.317c0-1.14-.504-1.831-1.422-2.305a6.4 6.4 0 0 0-1.293-.482l-2.073-.481-.002.002a2.14 2.14 0 0 1-1.786.958c-.127 0-.245-.025-.364-.046-.071-.012-.144-.017-.213-.036a2 2 0 0 1-.391-.156q-.053-.025-.102-.053a2.2 2.2 0 0 1-.718-.67l-.003.001-2.07.481c-.523.14-.968.308-1.347.511-.882.473-1.368 1.16-1.368 2.276v2.317z" fill="#ffaca6"/><path d="M17.137 27.015v-5.017l-.305-.087-2.076-.479c-.392.581-1.03.958-1.785.958s-1.394-.377-1.785-.958l-2.076.48-.305.086v5.017z" fill="#fff"/><path d="M33.547 27.015v-2.317c-.016-1.388-.503-1.831-1.421-2.305a6.4 6.4 0 0 0-1.293-.482l-2.074-.481-.001.002a2.14 2.14 0 0 1-1.786.958c-.127 0-.245-.025-.365-.046-.07-.012-.144-.017-.212-.036a2 2 0 0 1-.392-.156q-.051-.025-.101-.053a2.2 2.2 0 0 1-.718-.67l-.003.001-2.07.481c-.524.14-.968.308-1.347.511-.882.473-1.306.815-1.368 2.276v2.317z" fill="#ffaca6"/><path d="M23.422 18.233c.101 0 .197-.03.284-.082.31.845.872 1.53 1.572 1.972l-.078 1.125-.02.186.006-.002c.392.581 1.031.958 1.786.958a2.13 2.13 0 0 0 1.782-.954v-.015l-.08-1.264a3.9 3.9 0 0 0 1.624-2 .55.55 0 0 0 .263.076c.413 0 .748-.48.748-1.074 0-.439-.185-.814-.448-.98a2.6 2.6 0 0 1-.3.54s-.224-1.69-.328-1.764c-.736-.523-1.47-1.388-1.808-2.168-.951 1.053-2.226 1.984-3.946 1.984-.278 0-.516-.05-.73-.127l-.327 2.075a2.7 2.7 0 0 1-.302-.538c-.261.167-.445.54-.445.978 0 .594.335 1.074.747 1.074" fill="#ffaca6"/><path d="M31.138 27.015v-5.017l-.305-.087-2.076-.479c-.392.581-1.03.958-1.785.958s-1.394-.377-1.786-.958l-2.075.48-.305.086v5.017z" fill="#fff"/></g></svg>