<svg version="1.1" xmlns="http://www.w3.org/2000/svg" x="0px" y="0px" viewBox="0 0 40 40" xml:space="preserve" focusable="false" aria-hidden="true" enable-background="new 0 0 40 40"><path fill="none" d="M0 0h40v40H0z"/><g><path d="M33.5 18.5a.5.5 0 0 0-.5.5v1.144c0 .472-.425.856-.946.856H31.5c0-2.851-1.251-5.374-3.183-7.022q-.081-.073-.166-.144a9 9 0 0 0-.567-.416 8 8 0 0 0-.367-.24c-.083-.05-.159-.112-.244-.16q0 .012-.003.022c-.159-.09-.313-.188-.478-.266a7.9 7.9 0 0 0-3.4-.774h-6.388A4 4 0 0 0 13 9.5v3.06l-.008.002c-.076.03-.144.073-.219.105-.24.104-.478.214-.707.34-.134.074-.261.158-.39.239-.17.107-.338.216-.5.335a8.617 8.617 0 0 0-.821.688c-.117.11-.234.218-.344.335-.141.149-.272.309-.403.469-.083.101-.177.193-.256.298h.01A9.2 9.2 0 0 0 7.988 18H7.25C6.56 18 6 18.56 6 19.25v3.5c0 .69.56 1.25 1.25 1.25h.738c.772 2.336 2.412 4.228 4.512 5.225a7.9 7.9 0 0 0 3.4.775h7.175c.475-3.401 3.395-6.031 6.925-6.031.334 0 .661.032.983.077.22-.653.389-1.333.463-2.047h.608C33.127 22 34 21.167 34 20.144V19a.5.5 0 0 0-.5-.5m-20.375.5a1.125 1.125 0 1 1 0-2.25 1.125 1.125 0 0 1 0 2.25" fill="#FFACA6"/><circle cx="13.125" cy="17.875" r="1.125" fill="none"/><path d="M12.5 32.75a1.25 1.25 0 0 0 2.5 0v-2.803a7.9 7.9 0 0 1-2.5-.721z" fill="#D9304C"/><path d="M23.5 14h-6a.5.5 0 0 0 0 1h6a.5.5 0 0 0 0-1" fill="#000D6E"/><path fill="none" d="m28.912 33.902.004.005-.003-.005zM31.085 33.906l.001-.002z"/><path fill="none" stroke="#000D6E" stroke-width="0" stroke-linecap="round" stroke-linejoin="round" d="M31.086 33.904"/><path d="M30 25c-3.31 0-6 2.69-6 6 0 .22.01.44.04.66.02.21.05.41.1.61 0 .04.01.09.03.13.04.18.09.35.15.52.06.19.14.38.22.57.01.02.02.03.02.05.09.18.18.36.29.52-.01.01 0 .02.02.03-.01.01 0 .01 0 .01q.135.225.3.45a3.622 3.622 0 0 0 .4.48c.01.02.03.04.05.06.06.06.11.12.17.17.08.08.16.16.25.24q.15.15.33.27c.35.27.72.5 1.12.68.15.07.3.13.46.19.15.06.31.1.46.14.11.04.23.07.35.09.06.01.12.03.18.03q.18.045.39.06c.17.02.34.03.52.03.05.01.1.01.15.01.06 0 .12 0 .18-.01.17 0 .33-.01.49-.03q.225-.015.42-.06l.15-.03c.12-.02.24-.05.35-.09.15-.04.31-.08.46-.14.16-.06.31-.12.46-.19.4-.18.77-.41 1.12-.68q.18-.12.33-.27c.1-.09.2-.18.29-.28.07-.06.13-.12.19-.19.12-.13.24-.27.35-.42.02-.02.03-.04.04-.06.12-.16.22-.32.32-.49 0 0 .02 0 .01-.01v-.01c.11-.16.19-.33.28-.5 0-.02.01-.03.02-.05.08-.19.16-.38.22-.57.06-.17.11-.34.15-.52.02-.04.03-.09.04-.13.04-.2.07-.4.09-.61.03-.22.04-.44.04-.66 0-3.31-2.69-6-6-6" fill="#D9304C"/><path d="M28.735 31.226c.057 0 .107-.03.151-.071a.23.23 0 0 1-.152.07zM26.997 32.728l-.038-.02q.018.011.038.02M28.926 30.512c-.05-.065-.115-.108-.188-.11l-.002-.185h-.001l.002.187c.074 0 .139.043.189.108M27.225 32.801q-.042-.005-.08-.014c.026.008.054.01.08.014M28.634 31.197q.002 0 0 0M25.996 31.225c-.06 0-.113-.033-.159-.078.046.045.098.078.158.078a.2.2 0 0 0 .109-.032l-.001-.002a.2.2 0 0 1-.107.034M25.994 29.878l-.001-.177-.002.002.002.176v.004l.003.39-.002-.392z" fill="none"/><path d="M28.04 32.428v-.047l-.008-.124-.021-.293q.098-.061.186-.137c.143-.123.263-.278.354-.455q.047-.084.083-.176a.2.2 0 0 0 .092.027l.006.002h.001c.057 0 .107-.03.152-.07a.46.46 0 0 0 .137-.343.5.5 0 0 0-.097-.301c-.05-.065-.115-.108-.188-.108l-.002-.187c-.371-.107-1.138-.337-1.593-.576-.532-.28-.916-.055-1.144.053l-.006.006.001.177v.003l.002.392v.128c-.08 0-.153.046-.205.121a.5.5 0 0 0-.084.292c0 .14.051.257.126.332l.004.003c.046.045.098.078.159.078a.2.2 0 0 0 .107-.033 1.5 1.5 0 0 0 .107.233l.016.024c.122.208.286.381.48.503l-.021.491-.001.012h.001a.8.8 0 0 0 .272.254l.038.02a1 1 0 0 0 .148.059q.04.009.08.014c.045.008.09.017.138.017a.81.81 0 0 0 .677-.363v-.028z" fill="#FFACA6"/><path d="M31.446 29.884a.8.8 0 0 0 .276.048c.652 0 1.135-.353 1.495-.751.128.295.406.623.685.821.04.028.124.668.124.668a1 1 0 0 0 .114-.205c.277-.651-.062-1.629-.62-1.564-.107-.138-.479-.354-.827-.354s-.732.31-.948.31c-.139 0-.384-.048-.515-.247-.067.199-.038.395.085.472-.159.111-.339.03-.445-.061 0 0 .031.349.238.615-.025.192-.031.526.099.828q.045.107.115.204zM25.901 32.637l.784-.182h.001v-.011l.021-.491a1.46 1.46 0 0 1-.48-.504l-.016-.024-.006-.014a2 2 0 0 1-.1-.217.2.2 0 0 1-.109.032c-.06 0-.112-.033-.158-.078l-.004-.003a.47.47 0 0 1-.126-.332c0-.114.032-.217.084-.292s.124-.121.205-.121v-.128l-.003-.39v-.004l-.002-.176.002-.002.006-.006c.228-.109.612-.333 1.144-.053.454.239 1.222.469 1.593.576h.001l.002.185c.073.001.138.044.188.11a.5.5 0 0 1 .097.301.46.46 0 0 1-.137.343c-.045.041-.094.071-.151.071h-.002l-.006-.002a.2.2 0 0 1-.093-.027q-.036.092-.083.176a1.5 1.5 0 0 1-.54.592l.021.293.008.124v.07400000000000001l.001-.001.786.182q.282.075.49.182v-2.326c0-.061-.009-.118-.014-.177a2.5 2.5 0 0 0-.132-.662q-.012-.032-.026-.063c-.031-.079-.061-.158-.099-.231a2 2 0 0 0-.167-.274q-.012-.02-.026-.04l-.029-.046c-.267-.416-.811-.758-1.445-.758-.016 0-.03.005-.045.005a1.8 1.8 0 0 0-.607.127 1.8 1.8 0 0 0-.619.408 1.8 1.8 0 0 0-.258.276l-.018.023a2 2 0 0 0-.202.339l-.012.024a2.4 2.4 0 0 0-.119.335c-.007.023-.018.044-.024.068l-.003.013c-.019.073-.024.153-.036.229s-.031.149-.036.228q-.008.088-.009.177v2.337q.211-.116.508-.195" fill="#000D6E"/><path d="M25.39 32.83c.11-.06.25-.1.4-.15v2.58c-.06-.05-.11-.11-.17-.17-.02-.02-.04-.04-.05-.06q-.195-.195-.36-.42c-.02-.02-.03-.04-.04-.06q-.165-.225-.3-.45s-.01 0 0-.01v-.4c0-.42.19-.68.52-.86M29.85 33.69v3.3c-.18 0-.35-.01-.52-.03q-.21-.015-.39-.06v-4.22c.14.04.27.08.38.14.34.18.53.44.53.87" fill="#FFACA6"/><path d="m26.966 32.712.02.011z" fill="#94E3D4"/><path d="M31.323 31.244a.2.2 0 0 0 .108-.031c.118.32.33.58.595.747l-.029.426-.007.07h.002c.148.22.39.363.676.363a.8.8 0 0 0 .675-.362v-.006l-.03-.479a1.48 1.48 0 0 0 .615-.757.2.2 0 0 0 .1.029c.156 0 .283-.182.283-.407 0-.166-.07-.309-.169-.371a1 1 0 0 1-.114.205s-.085-.64-.124-.668a2.2 2.2 0 0 1-.685-.821c-.36.399-.843.751-1.495.751a.8.8 0 0 1-.276-.048l-.124.786a1 1 0 0 1-.115-.204c-.099.063-.169.205-.169.371 0 .224.126.406.283.406" fill="#FFACA6"/><path d="m32.269 32.712.02.011z" fill="#94E3D4"/><path d="M30.69 32.83c.12-.06.26-.1.4-.15v4.22q-.195.045-.42.06c-.16.02-.32.03-.49.03v-3.3c.02-.55.18-.68.51-.86M35.16 33.69v.36c.01.01-.01.01-.01.01-.1.17-.2.33-.32.49a.2.2 0 0 1-.04.06c-.11.15-.23.29-.35.42-.06.07-.12.13-.19.19v-2.54c.13.04.26.08.37.14.35.18.53.35.54.87" fill="#FFACA6"/><path d="M36 31c0 .22-.01.44-.04.66-.02.21-.05.41-.09.61-.01.04-.02.09-.04.13-.04.18-.09.35-.15.52-.06.19-.14.38-.22.57-.01.02-.02.03-.02.05-.08.18-.17.35-.28.51.01.01-.01.01-.01.01-.1.17-.2.33-.32.49a.2.2 0 0 1-.04.06c-.11.15-.23.29-.35.42-.06.07-.12.13-.19.19v.01c-.09.1-.19.19-.29.27q-.15.15-.33.27c-.35.27-.72.5-1.12.68-.15.07-.3.13-.46.19-.15.06-.31.1-.46.14-.11.04-.23.07-.35.09l-.15.03q-.195.045-.42.06c-.16.02-.32.03-.49.03-.06.01-.12.01-.18.01-.05 0-.1 0-.15-.01-.18 0-.35-.01-.52-.03q-.21-.015-.39-.06c-.06 0-.12-.02-.18-.03-.12-.02-.24-.05-.35-.09-.15-.04-.31-.08-.46-.14-.16-.06-.31-.12-.46-.19-.4-.18-.77-.41-1.12-.68q-.18-.12-.33-.27c-.09-.07-.17-.15-.25-.23v-.01c-.06-.05-.11-.11-.17-.17-.02-.02-.04-.04-.05-.06q-.195-.195-.36-.42c-.02-.02-.03-.04-.04-.06q-.165-.225-.3-.45s-.01 0 0-.01c-.02-.01-.03-.02-.02-.03-.11-.16-.2-.34-.29-.52 0-.02-.01-.03-.02-.05-.08-.19-.16-.38-.22-.57-.06-.17-.11-.34-.15-.52a.3.3 0 0 1-.03-.13c-.05-.2-.08-.4-.1-.61-.03-.22-.04-.44-.04-.66 0-3.31 2.69-6 6-6s6 2.69 6 6" fill="none"/></g></svg>