<svg xmlns="http://www.w3.org/2000/svg" viewBox="0 0 40 40" focusable="false" aria-hidden="true"><path fill="none" d="M0 0h40v40H0z"/><g><circle cx="20" cy="7" r="5" fill="#fae052"/><path d="M14.2 5.5H12v1H9.5a.5.5 0 0 0 0 1H12v1h2.2a5.73 5.73 0 0 1 0-3M30.5 6.5H28v-1h-2.2a5.73 5.73 0 0 1 0 3H28v-1h2.5a.5.5 0 0 0 0-1" fill="#fa9319"/><circle cx="20" cy="7" r="1.75" fill="#000d6e"/><path d="M16 30a4 4 0 0 1 3.5-3.95V13a5.93 5.93 0 0 1-3.95-2h-1.38A4.3 4.3 0 0 0 10 15.8L11.49 32a2.13 2.13 0 0 0 2.07 2H16z" fill="#fae052"/><path d="M25.83 11h-1.38a5.93 5.93 0 0 1-3.95 2v13.05A4 4 0 0 1 24 30v4h2.44a2.13 2.13 0 0 0 2.07-2L30 15.8a4.3 4.3 0 0 0-4.17-4.8" fill="#fa9319"/><path d="M20 27a3 3 0 0 0-3 3v3h6v-3a3 3 0 0 0-3-3" fill="#fae052"/><path d="M20 33h-2v3a2 2 0 0 0 4 0v-3Z" fill="#000d6e"/></g></svg>