<svg version="1.1" xmlns="http://www.w3.org/2000/svg" x="0px" y="0px" viewBox="0 0 40 40" xml:space="preserve" focusable="false" aria-hidden="true" enable-background="new 0 0 40 40"><path fill="none" d="M0 0h40v40H0z"/><g><path d="M26.672 13.58h-6.4a4.305 4.305 0 0 0-4.3 4.3v.8c0 1.39.68 2.701 1.819 3.508l.396.281-1.36 2.04c-.116.174-.021.313.025.365s.173.165.358.069l3.928-1.963h5.534c2.371 0 4.3-1.93 4.3-4.301v-.8a4.304 4.304 0 0 0-4.3-4.299" fill="#FFACA6"/><path d="M20 8.5a.5.5 0 0 1 .494-.499L20.488 8a.5.5 0 0 0 0 1l.006-.001A.5.5 0 0 1 20 8.5M18.5 8h-5a.5.5 0 0 0 0 1h5a.5.5 0 0 0 0-1" fill="none"/><path d="M9 31v1.974C9 33.541 9.459 34 10.026 34h11.948c.567 0 1.026-.459 1.026-1.026V31zM22.064 7H9.936A.936.936 0 0 0 9 7.936V10h14V7.936A.936.936 0 0 0 22.064 7M20.5 9l-.006-.001-.006.001a.5.5 0 0 1 0-1l.006.001L20.5 8a.5.5 0 0 1 0 1" fill="#D9304C"/><path d="m20.5 8-.006.001a.5.5 0 0 0 0 .998L20.5 9a.5.5 0 0 0 0-1" fill="#FFACA6"/><path d="M20.964 18.341a.66.66 0 0 1 .659-.677c.394 0 .668.293.668.677a.64.64 0 0 1-.668.659.65.65 0 0 1-.659-.659m1.849 0c0-.384.274-.677.659-.677.384 0 .668.293.668.677a.647.647 0 0 1-.668.659.64.64 0 0 1-.659-.659m1.84 0c0-.384.284-.677.659-.677s.668.293.668.677a.65.65 0 0 1-.668.659.645.645 0 0 1-.659-.659" fill="#000D6E"/><path d="M18.5 8a.5.5 0 0 1 0 1h-5a.5.5 0 0 1 0-1M21.375 23.98l-3.704 1.851a1.3 1.3 0 0 1-.601.149c-.364 0-.716-.161-.965-.443a1.285 1.285 0 0 1-.109-1.583l.833-1.25a5.3 5.3 0 0 1-1.857-4.024v-.8c0-2.922 2.378-5.3 5.3-5.3H23V10H9v21h14v-7.02z" fill="#FFACA6"/><circle cx="16" cy="31" r="1" fill="#000D6E"/></g></svg>