<svg xmlns="http://www.w3.org/2000/svg" viewBox="0 0 40 40" focusable="false" aria-hidden="true"><path fill="none" d="M0 0h40v40H0z"/><g data-name="Icon Red"><path d="M23 28v2h-6v-2H4v1a2 2 0 0 0 2 2h28a2 2 0 0 0 2-2v-1Z" fill="#d9304c"/><path fill="#ffaca6" d="M17 28h6v2h-6z"/><path d="M34 10a1 1 0 0 0-1-1H7a1 1 0 0 0-1 1v17h28Zm-1 16H7V10h26Z" fill="#d9304c"/><path d="M7 26h26V10H7Zm10.502-2h-2.001a1 1 0 0 1-1.001-1v-1.135l3.002-2.717Zm4 0h-3v-5.757l.356-.323 1.398 1.349a.5.5 0 0 0 .106.078.916.916 0 0 0 1.135-.168l.005-.005Zm3.998-1a1 1 0 0 1-1 1h-1.998v-5.745L25.5 15.5Zm-12.062-2.99 4.788-4.331a1.01 1.01 0 0 1 1.12-.12.5.5 0 0 1 .11.082l1.4 1.35L25.227 13H25a.5.5 0 0 1 0-1h1.501a.5.5 0 0 1 .215.053q.011.007.022.015a.5.5 0 0 1 .126.093q.007.006.015.01l.084.143a.5.5 0 0 1 .038.243v1.44a.5.5 0 0 1-1 0v-.358l-4.506 4.075a.92.92 0 0 1-1.132.166.5.5 0 0 1-.107-.08l-1.397-1.347-4.75 4.299a.5.5 0 0 1-.671-.742Z" fill="#ffaca6"/><path d="M13.773 20.88a.5.5 0 0 0 .336-.128l4.75-4.299 1.397 1.348a.5.5 0 0 0 .107.079.92.92 0 0 0 1.132-.166l4.506-4.075v.358a.5.5 0 0 0 1 0v-1.44a.5.5 0 0 0-.037-.243l-.085-.142q-.007-.006-.014-.01a.5.5 0 0 0-.127-.094q-.011-.008-.021-.015A.5.5 0 0 0 26.5 12H25a.5.5 0 0 0 0 1h.226l-4.369 3.991-1.4-1.35a.5.5 0 0 0-.11-.081 1.01 1.01 0 0 0-1.12.119l-4.789 4.331a.5.5 0 0 0 .335.871Z" fill="#000d6e"/><path d="M14.5 23a1 1 0 0 0 1 1h2.002v-4.852L14.5 21.865ZM22.502 24H24.5a1 1 0 0 0 1-1v-7.5l-2.998 2.755ZM20.362 19.347a.5.5 0 0 1-.105-.078l-1.399-1.349-.356.323V24h3v-4.826l-.005.005a.916.916 0 0 1-1.135.168" fill="#000d6e"/></g></svg>