<svg xmlns="http://www.w3.org/2000/svg" viewBox="0 0 40 40" focusable="false" aria-hidden="true"><path fill="none" d="M0 0h40v40H0z"/><g data-name="Icon Tangerine"><path d="M28.997 19.473v2.547h2v-4.547l-.905.905ZM23.127 8.02h-6.25a7.904 7.904 0 0 0-7.88 7.87v6.13h2v-6.13a5.886 5.886 0 0 1 5.88-5.873h6.25c.108 0 .213.01.32.017l2.575-1.452a7.8 7.8 0 0 0-2.895-.562" fill="#94e3d4"/><path d="m31.47 4.272-.69.692a2.01 2.01 0 0 0-.01 2.841l3.523 3.533a2.01 2.01 0 0 0 2.85-.012l.682-.683Z" fill="#1b5951"/><path d="M34.264 12.792 29.01 7.538c-.481-.482-1.174.022-1.174.022l-1.814 1.023-2.576 1.451-1.177.663a1 1 0 1 0 .982 1.743l2.66-1.177-5.618 5.617a.995.995 0 0 0 1.365 1.447l-.666.666a1 1 0 0 0 1.414 1.414l1.06-1.06a1 1 0 0 0 1.415 1.414l1.414-1.414a1 1 0 0 0 1.414 1.414l1.288-1.288 1.095-1.095.905-.905 1.23-1.23 1.96-1.96a.973.973 0 0 0 .077-1.491" fill="#000d6e"/><path d="M11.2 37.44a1.75 1.75 0 0 1-1.7-1.791V24.351A14.87 14.87 0 0 0 20 28.46a14.87 14.87 0 0 0 10.5-4.11v11.298a1.75 1.75 0 0 1-1.7 1.791Z" fill="#1b5951"/><path d="M30 25.485V35.65a1.25 1.25 0 0 1-1.2 1.292H11.2a1.25 1.25 0 0 1-1.2-1.292V25.485a15.63 15.63 0 0 0 10 3.476 15.63 15.63 0 0 0 10-3.476m1-2.441a14.06 14.06 0 0 1-11 4.917 14.06 14.06 0 0 1-11-4.917v12.605a2.247 2.247 0 0 0 2.2 2.292h17.6a2.247 2.247 0 0 0 2.2-2.292z" fill="#1b5951"/><path d="M9 23.044a14.06 14.06 0 0 0 11 4.917 14.06 14.06 0 0 0 11-4.917V23H9ZM28.997 19.473v2.547h2v-4.547l-.905.905ZM23.127 8.02h-6.25a7.904 7.904 0 0 0-7.88 7.87v6.13h2v-6.13a5.886 5.886 0 0 1 5.88-5.873h6.25c.108 0 .213.01.32.017l2.575-1.452a7.8 7.8 0 0 0-2.895-.562" fill="#94e3d4"/><path d="m31.47 4.272-.69.692a2.01 2.01 0 0 0-.01 2.841l3.523 3.533a2.01 2.01 0 0 0 2.85-.012l.682-.683Z" fill="#1b5951"/><path d="M34.264 12.792 29.01 7.538c-.481-.482-1.174.022-1.174.022l-1.814 1.023-2.576 1.451-1.177.663a1 1 0 1 0 .982 1.743l2.66-1.177-5.618 5.617a.995.995 0 0 0 1.365 1.447l-.666.666a1 1 0 0 0 1.414 1.414l1.06-1.06a1 1 0 0 0 1.415 1.414l1.414-1.414a1 1 0 0 0 1.414 1.414l1.288-1.288 1.095-1.095.905-.905 1.23-1.23 1.96-1.96a.973.973 0 0 0 .077-1.491" fill="#000d6e"/><path d="M11.2 37.44a1.75 1.75 0 0 1-1.7-1.791V24.351A14.87 14.87 0 0 0 20 28.46a14.87 14.87 0 0 0 10.5-4.11v11.298a1.75 1.75 0 0 1-1.7 1.791Z" fill="#1b5951"/><path d="M30 25.485V35.65a1.25 1.25 0 0 1-1.2 1.292H11.2a1.25 1.25 0 0 1-1.2-1.292V25.485a15.63 15.63 0 0 0 10 3.476 15.63 15.63 0 0 0 10-3.476m1-2.441a14.06 14.06 0 0 1-11 4.917 14.06 14.06 0 0 1-11-4.917v12.605a2.247 2.247 0 0 0 2.2 2.292h17.6a2.247 2.247 0 0 0 2.2-2.292z" fill="#1b5951"/><path d="M9 23.044a14.06 14.06 0 0 0 11 4.917 14.06 14.06 0 0 0 11-4.917V23H9ZM28.997 19.473v2.547h2v-4.547l-.905.905ZM23.127 8.02h-6.25a7.904 7.904 0 0 0-7.88 7.87v6.13h2v-6.13a5.886 5.886 0 0 1 5.88-5.873h6.25c.108 0 .213.01.32.017l2.575-1.452a7.8 7.8 0 0 0-2.895-.562" fill="#94e3d4"/><path d="m31.47 4.272-.69.692a2.01 2.01 0 0 0-.01 2.841l3.523 3.533a2.01 2.01 0 0 0 2.85-.012l.682-.683Z" fill="#1b5951"/><path d="M34.264 12.792 29.01 7.538c-.481-.482-1.174.022-1.174.022l-1.814 1.023-2.576 1.451-1.177.663a1 1 0 1 0 .982 1.743l2.66-1.177-5.618 5.617a.995.995 0 0 0 1.365 1.447l-.666.666a1 1 0 0 0 1.414 1.414l1.06-1.06a1 1 0 0 0 1.415 1.414l1.414-1.414a1 1 0 0 0 1.414 1.414l1.288-1.288 1.095-1.095.905-.905 1.23-1.23 1.96-1.96a.973.973 0 0 0 .077-1.491" fill="#000d6e"/><path d="M11.2 37.44a1.75 1.75 0 0 1-1.7-1.791V24.351A14.87 14.87 0 0 0 20 28.46a14.87 14.87 0 0 0 10.5-4.11v11.298a1.75 1.75 0 0 1-1.7 1.791Z" fill="#1b5951"/><path d="M30 25.485V35.65a1.25 1.25 0 0 1-1.2 1.292H11.2a1.25 1.25 0 0 1-1.2-1.292V25.485a15.63 15.63 0 0 0 10 3.476 15.63 15.63 0 0 0 10-3.476m1-2.441a14.06 14.06 0 0 1-11 4.917 14.06 14.06 0 0 1-11-4.917v12.605a2.247 2.247 0 0 0 2.2 2.292h17.6a2.247 2.247 0 0 0 2.2-2.292z" fill="#1b5951"/><path d="M9 23.044a14.06 14.06 0 0 0 11 4.917 14.06 14.06 0 0 0 11-4.917V23H9Z" fill="#94e3d4"/><path d="M28.997 19.473v2.547h2v-4.547l-.905.905ZM23.127 8.02h-6.25a7.904 7.904 0 0 0-7.88 7.87v6.13h2v-6.13a5.886 5.886 0 0 1 5.88-5.873h6.25c.108 0 .213.01.32.017l2.575-1.452a7.8 7.8 0 0 0-2.895-.562" fill="#fae052"/><path d="m31.47 4.272-.69.692a2.01 2.01 0 0 0-.01 2.841l3.523 3.533a2.01 2.01 0 0 0 2.85-.012l.682-.683Z" fill="#fa9319"/><path d="M34.264 12.792 29.01 7.538c-.481-.482-1.174.022-1.174.022l-1.814 1.023-2.576 1.451-1.177.663a1 1 0 1 0 .982 1.743l2.66-1.177-5.618 5.617a.995.995 0 0 0 1.365 1.447l-.666.666a1 1 0 0 0 1.414 1.414l1.06-1.06a1 1 0 0 0 1.415 1.414l1.414-1.414a1 1 0 0 0 1.414 1.414l1.288-1.288 1.095-1.095.905-.905 1.23-1.23 1.96-1.96a.973.973 0 0 0 .077-1.491" fill="#000d6e"/><path d="M20 27.961a14.06 14.06 0 0 1-11-4.917v12.605a2.247 2.247 0 0 0 2.2 2.292h17.6a2.247 2.247 0 0 0 2.2-2.292V23.044a14.06 14.06 0 0 1-11 4.917" fill="#fa9319"/><path d="M9 23.044a14.06 14.06 0 0 0 11 4.917 14.06 14.06 0 0 0 11-4.917V23H9Z" fill="#fae052"/></g></svg>