<svg xmlns="http://www.w3.org/2000/svg" viewBox="0 0 40 40" focusable="false" aria-hidden="true"><path fill="none" d="M0 0h40v40H0z"/><g data-name="Icon Tangerine"><path d="M8.05 11.5H4.5a.5.5 0 0 0 0 1h3.55a2.5 2.5 0 0 1 0-1" fill="#000d6e"/><path d="M24.002 18a1 1 0 0 0-1 1v2.958a1 1 0 0 0 1 1H25V18ZM8.05 11.5A3 3 0 0 0 11 15h3V9h-3a2.994 2.994 0 0 0-2.95 2.5M31.016 30.983h-11a1 1 0 0 0-1 1v4.052h13v-4.052a1 1 0 0 0-1-1" fill="#fae052"/><path d="M15 9v6a1 1 0 0 0 1 1h2V8h-2a1 1 0 0 0-1 1M35.977 11.509A5.145 5.145 0 0 0 30.785 7H19v10h6v13h6V17a5 5 0 0 0 4.977-5.491" fill="#fa9319"/></g></svg>