<svg version="1.1" xmlns="http://www.w3.org/2000/svg" x="0px" y="0px" viewBox="0 0 40 40" xml:space="preserve" focusable="false" aria-hidden="true" enable-background="new 0 0 40 40"><path fill="none" d="M0 0h40v40H0z"/><g><circle cx="20" cy="20" r="15" fill="#FFACA6"/><path d="m20.008 26.181-5.241 2.755a.545.545 0 0 1-.79-.574l1.001-5.836-4.24-4.133a.545.545 0 0 1 .302-.929l5.86-.851 2.621-5.31a.544.544 0 0 1 .976 0l2.621 5.31 5.833.848c.457.066.64.629.309.951l-4.221 4.114 1.001 5.836a.544.544 0 0 1-.79.574z" fill="#000D6E"/></g></svg>