<svg version="1.1" xmlns="http://www.w3.org/2000/svg" x="0px" y="0px" viewBox="0 0 40 40" xml:space="preserve" focusable="false" aria-hidden="true" enable-background="new 0 0 40 40"><path fill="none" d="M0 0h40v40H0z"/><g><path d="m9.734 9.971-3.676-.499A.926.926 0 0 0 5 10.387v9.138a.93.93 0 0 0 .915.925l2.358.024a.914.914 0 0 0 .925-.786l1.316-8.663c.037-.245-.023-.49-.171-.689s-.364-.33-.609-.365M34.68 11.394a.91.91 0 0 0-.738-.216l-3.676.499c-.246.035-.462.165-.61.364s-.208.444-.171.689l1.316 8.663a.914.914 0 0 0 .925.786l2.358-.024a.93.93 0 0 0 .916-.924v-9.138a.93.93 0 0 0-.32-.699" fill="#1B5951"/><path d="m21.404 15.561-3.372 1.792c-.437.234-1.042.4-1.663.4-.765 0-1.555-.252-2.084-.938-.444-.575-.638-1.29-.545-2.013s.461-1.365 1.036-1.809l1.276-.985-4.639-.193-1.076 7.08 8.592 8.087.575.575c.467.467 1.23.467 1.697 0l.071-.071c.412-.412.439-1.044.124-1.51l.047-.028.5.5c.467.467 1.23.467 1.697 0l.071-.071a1.203 1.203 0 0 0 0-1.697l.771.771c.467.467 1.23.467 1.697 0l.071-.071a1.203 1.203 0 0 0 0-1.697l-.38-.38.773.773c.467.467 1.23.467 1.697 0l.071-.071a1.19 1.19 0 0 0 .069-1.593z" fill="#94E3D4"/><path d="M15.077 16.205c.596.771 1.836.614 2.486.266l3.996-2.124.178.171 3.346 3.217v-.001l3.642 3.529c.178.003.827-.064 1.001-.092l-1.185-7.877c-2.041-.849-7.475-3.25-7.801-3.262s-.554.082-1.228.569l-4.125 3.185a1.727 1.727 0 0 0-.31 2.419" fill="#94E3D4"/><circle cx="32" cy="32" r="6" fill="#94E3D4"/><path d="m32.003 34.282-2.096 1.102a.218.218 0 0 1-.316-.23l.4-2.334-1.696-1.653a.217.217 0 0 1 .121-.371l2.344-.341 1.048-2.124a.218.218 0 0 1 .391 0l1.048 2.124 2.333.339a.223.223 0 0 1 .124.38l-1.688 1.646.4 2.334a.218.218 0 0 1-.316.23z" fill="#000D6E"/></g></svg>