<svg version="1.1" xmlns="http://www.w3.org/2000/svg" x="0px" y="0px" viewBox="0 0 40 40" xml:space="preserve" focusable="false" aria-hidden="true" enable-background="new 0 0 40 40"><path fill="none" d="M0 0h40v40H0z"/><g><path d="M8.443 30.564a2.793 2.793 0 1 0 3.949 3.95 2.793 2.793 0 0 0-3.949-3.95M5.294 35.039a1.292 1.292 0 1 0 1.827 1.828 1.292 1.292 0 0 0-1.827-1.828M34.473 19.689a6.435 6.435 0 0 0-3.517-11.821c-.15 0-.297.012-.445.022a8.14 8.14 0 0 0-6.656-3.452c-1.4 0-2.718.354-3.87.975a6.4 6.4 0 0 0-4.465-1.807 6.435 6.435 0 0 0-6.435 6.435c0 .056.007.111.008.167-3.6.117-6.485 3.065-6.485 6.693a6.7 6.7 0 0 0 3.818 6.044c.953 3.643 4.256 6.335 8.198 6.335 2.194 0 4.187-.84 5.693-2.207a8.1 8.1 0 0 0 3.879.98 8.1 8.1 0 0 0 4.815-1.583 4.36 4.36 0 0 0 3.062 1.254 4.373 4.373 0 0 0 2.4-8.035" fill="#FAE052"/><path fill="#FA9319" d="M28.429 7.33h-2.4v1.384l2.4 2.213z"/><path d="m15.669 14.358 6.288-5.817a1.506 1.506 0 0 1 2.13 0l6.359 5.817" fill="none" stroke="#000D6E" stroke-linejoin="round" stroke-miterlimit="10"/><path d="M23.382 9.608a.54.54 0 0 0-.715.008l-5.639 5.2v10.202h12V14.815zm-2.381 8.465h-2.059v-2.042h2.059zm2.939 0h-2.059v-2.042h2.059zm3.068 0h-2.059v-2.042h2.059z" fill="#FA9319"/><path fill="#000D6E" d="M21.449 21.017h3.109v4h-3.109z"/></g></svg>