<svg version="1.1" xmlns="http://www.w3.org/2000/svg" x="0px" y="0px" viewBox="0 0 40 40" xml:space="preserve" focusable="false" aria-hidden="true" enable-background="new 0 0 40 40"><path fill="none" d="M0 0h40v40H0z"/><g><path d="M5.921 22.854c0-.535-.42-.968-.94-.968 0 0-.94.484-.94 1.927h.94a.953.953 0 0 0 .94-.959M11.041 24a3 3 0 1 0 0 6 3 3 0 0 0 0-6m0 4.5a1.5 1.5 0 1 1 .001-3.001 1.5 1.5 0 0 1-.001 3.001" fill="#94E3D4"/><path d="M11.041 25.5a1.5 1.5 0 1 0 .001 3.001 1.5 1.5 0 0 0-.001-3.001" fill="#000D6E"/><path d="M31.041 24a3 3 0 1 0 0 6 3 3 0 0 0 0-6m0 4.5a1.5 1.5 0 1 1 .001-3.001 1.5 1.5 0 0 1-.001 3.001" fill="#94E3D4"/><path d="M36.202 21.028h-2.709c-.28 0-.5-.222-.5-.504s.22-.504.5-.504h2.539v-.01c0-.555-.45-1.009-1-1.009H10.629l-5.648 2.885c.52 0 .94.434.94.968 0 .525-.42.958-.94.958h-.94v2.179c0 .555.45 1.009 1 1.009h2c0-2.206 1.794-4 4-4s4 1.794 4 4h12c0-2.206 1.794-4 4-4s4 1.794 4 4h1.1a.9.9 0 0 0 .9-.908zm-16.639-.03h-1.999c-.276 0-.5-.226-.5-.504s.224-.504.5-.504h1.999c.276 0 .5.226.5.504s-.224.504-.5.504m11.051 0h-1.999c-.276 0-.5-.226-.5-.504s.224-.504.5-.504h1.999c.276 0 .5.226.5.504s-.223.504-.5.504" fill="#1B5951"/><path d="M31.041 25.5a1.5 1.5 0 1 0 .001 3.001 1.5 1.5 0 0 0-.001-3.001" fill="#000D6E"/><path d="M32.993 20.523c0 .282.22.504.5.504h2.709l-.17-1.009h-2.539a.5.5 0 0 0-.5.505M15.871 15.62c.5-.42 1.14-.65 1.79-.65h12.07l1.51 3.03h1.75l-1.78-3.49c-.02-.05-.05-.09-.08-.13-.01-.02-.02-.04-.03-.05-.13-.18-.3-.33-.5-.36-.06-.01-.23 0-.23 0h-12.71c-.89 0-1.75.31-2.44.89L11.661 18h1.52zM19.563 19.99h-1.999c-.276 0-.5.226-.5.504s.224.504.5.504h1.999c.276 0 .5-.226.5-.504s-.224-.504-.5-.504M30.614 19.99h-1.999c-.276 0-.5.226-.5.504s.224.504.5.504h1.999c.276 0 .5-.226.5-.504s-.223-.504-.5-.504" fill="#94E3D4"/></g></svg>