<svg version="1.1" xmlns="http://www.w3.org/2000/svg" x="0px" y="0px" viewBox="0 0 40 40" xml:space="preserve" focusable="false" aria-hidden="true" enable-background="new 0 0 40 40"><path fill="none" d="M0 0h40v40H0z"/><g><path d="m20.005 15.037-4.273 4.256L20 15.042l4.268 4.251a1 1 0 0 0 .715.292 1 1 0 0 1-.705-.292z" fill="none"/><path d="M26.756 7.164A1 1 0 0 0 25.77 6H14.13a1 1 0 0 0-.986 1.164L13.95 12h12z" fill="#94E3D4"/><path d="M14.313 19.293a1.006 1.006 0 0 0 1.42 0l4.273-4.256 4.272 4.256c.195.194.45.291.705.292a1 1 0 0 0 .715-1.706l-2.893-2.882-1-.996h4.146v-2h-12v2h4.256l-3.894 3.879a.996.996 0 0 0 0 1.413" fill="#1B5951"/><path d="m25.953 14.998-3.149-.002 2.893 2.882a.997.997 0 0 1-.715 1.706 1 1 0 0 1-.715-.292L20 15.042l-4.268 4.251a1.006 1.006 0 0 1-1.42 0 .997.997 0 0 1 0-1.414l2.893-2.882-3.159.002c-.447 0-9.543 12.999-3.872 18.553.885.865 2.062 1.448 3.389 1.448h12.874c1.327 0 2.503-.583 3.388-1.449 5.67-5.554-3.426-18.552-3.872-18.553" fill="#94E3D4"/><path d="m20.004 30.558-2.621 1.378a.272.272 0 0 1-.395-.287l.5-2.918-2.12-2.067a.272.272 0 0 1 .151-.464l2.93-.426 1.31-2.655a.272.272 0 0 1 .488 0l1.31 2.655 2.917.424a.28.28 0 0 1 .155.476l-2.11 2.057.5 2.918a.272.272 0 0 1-.395.287z" fill="#000D6E"/></g></svg>