<svg version="1.1" xmlns="http://www.w3.org/2000/svg" x="0px" y="0px" viewBox="0 0 40 40" xml:space="preserve" focusable="false" aria-hidden="true" enable-background="new 0 0 40 40"><path fill="none" d="M0 0h40v40H0z"/><g><path d="M32.236 17.125 11.83 22.087 8.523 8.483l20.405-4.962a1 1 0 0 1 1.208.735l2.835 11.66a1 1 0 0 1-.735 1.209" fill="#94E3D4"/><path d="M13.476 38c-.45 0-.859-.307-.971-.764L5.583 8.835a1 1 0 0 1 .735-1.208 1 1 0 0 1 1.208.735l6.922 28.401A1 1 0 0 1 13.476 38" fill="#1B5951"/><path d="m21.431 14.885-1.652 1.45a.202.202 0 0 1-.335-.139l-.146-2.193-1.89-1.123a.202.202 0 0 1 .028-.361l2.041-.816.485-2.144a.202.202 0 0 1 .352-.085l1.407 1.689 2.179-.201a.206.206 0 0 1 .194.316l-1.166 1.852.868 2.02a.202.202 0 0 1-.235.276z" fill="#000D6E"/></g></svg>