<svg version="1.1" xmlns="http://www.w3.org/2000/svg" x="0px" y="0px" viewBox="0 0 40 40" xml:space="preserve" focusable="false" aria-hidden="true" enable-background="new 0 0 40 40"><path fill="none" d="M0 0h40v40H0z"/><g><path d="m32.278 17.556-.008-.036-.003-.008zM32.232 17.424c-.015-.04-.027-.082-.047-.118l-.019-.033q-.005-.007-.012-.015a1 1 0 0 1 .078.166M25.561 17.568l-.008.035q-.02.103-.022.214c0-.098.017-.19.039-.278q-.005.015-.009.029M32.093 17.18c-.019-.023-.034-.05-.055-.07l-.018-.014c-.01-.008-.021-.011-.031-.018a.6.6 0 0 1 .104.102M26.118 18.662a.411.411 0 0 1 0 0M11.435 25.598h-.002zM12.895 24.958l.009-.136zq-.001.002 0 0M12.931 24.321c.038-.74.031-1.353.014-1.773l-.001-.004c.017.424.022 1.035-.013 1.777" fill="none"/><path d="m9.945 24.635.022.325c.232.251.534.434.874.54.187.058.381.099.589.099h.002c.261 0 .505-.056.731-.146.28-.111.531-.277.73-.492l.009-.137q.004-.095.011-.184c.008-.111.011-.212.016-.318.035-.742.03-1.353.012-1.776a13 13 0 0 0-.021-.371c-.015-.206-.028-.325-.028-.325l.001.001v-.001l.006-.918c.752-.497 1.319-1.37 1.546-2.419.028.005.055.012.084.012.359 0 .649-.4.649-.893 0-.406-.199-.745-.469-.853v.151a.23.23 0 0 1-.05.138.217.217 0 0 1-.106.08.2.2 0 0 1-.078.016.234.234 0 0 1-.234-.234v-.764c0-.034-.003-.063-.004-.096q-.04-.065-.083-.13a2.9 2.9 0 0 0-.646-.704 2.53 2.53 0 0 1-1.847.059 4.3 4.3 0 0 1-.746-.326 2.5 2.5 0 0 1-.453-.321 5 5 0 0 0-1.117.321c-.254.106-.46.213-.624.293a3.4 3.4 0 0 0-.094.579q-.012.153-.013.326v.764a.234.234 0 0 1-.234.234q-.019-.002-.038-.008a.23.23 0 0 1-.196-.226v-.151c-.27.108-.469.447-.469.853 0 .493.291.893.649.893a.5.5 0 0 0 .127-.018c.223 1.037.777 1.904 1.516 2.406h-.008l.005.938s-.029.25-.048.696a20 20 0 0 0 .008 1.687c.006.129.011.258.019.4" fill="#B8B2FF"/><path d="m9.945 24.64-.018-.407a29 29 0 0 1-.019-.602c-.008-.43-.005-.801.007-1.081.02-.45.05-.7.05-.7l-.07.03-4.6 2.45c-.56.28-.94.82-1.02 1.44L3.985 28h6.39c-.09-.39-.22-1.12-.35-2.4-.02-.19-.04-.38-.05-.56z" fill="#6C2273"/><path d="M8.345 17.153c.013.002.025.008.038.008a.234.234 0 0 0 .234-.234v-.764q0-.174.013-.326c.018-.233.055-.424.094-.579.164-.08.37-.187.624-.293.3-.125.67-.247 1.117-.321.116.106.264.215.453.321.201.113.444.224.746.326.742.25 1.369.145 1.847-.059.276.215.487.458.646.704q.044.066.083.13c.001.033.004.062.004.096v.764c0 .129.105.234.234.234a.247.247 0 0 0 .15-.058.2.2 0 0 0 .034-.038.23.23 0 0 0 .05-.138v-1.012c.021-.606.032-1.255 0-1.567-.068-.673-1.329-2.344-3.281-2.344S8.15 13.476 8.15 14.815v2.11a.23.23 0 0 0 .195.228" fill="#000D6E"/><path d="M18.024 21.09c-.11 0-.206-.059-.289-.141.083.082.178.142.287.142q.106-.002.198-.057l-.001-.003a.4.4 0 0 1-.195.059M18.02 18.639l-.002-.322-.003.003.003.319v.007l.006.71-.004-.712zM25.553 17.603q-.02.103-.022.214c0-.098.017-.19.039-.278q-.005.014-.01.028zM32.186 17.306l-.019-.033q-.005-.007-.012-.015.045.077.078.167v-.001c-.016-.04-.028-.082-.047-.118M31.829 17.007c-.034-.009-.065-.03-.101-.03l-.003-.408-.224-.109-.24-.116.464.225.003.408a.4.4 0 0 1 .179.054c-.02-.01-.037-.027-.058-.034-.006-.003-.013.004-.02.01M32.038 17.11l-.018-.014c-.01-.008-.021-.011-.031-.018a.6.6 0 0 1 .105.102c-.02-.023-.035-.051-.056-.07M30.236 20.937l.054.867v.006-.006zM32.27 17.52l-.003-.008.011.045zM27.524 21.79l.051-.827zM27.522 21.804l-.001.007q-.001.01-.004.023h.003l.001-.013.001-.001v-.006l.002-.014-.002.001zM27.91 14.734l.063.015zM23.007 19.257l-.002-.001.004.34c.132 0 .251.078.342.197-.091-.119-.209-.197-.342-.199z" fill="none"/><path d="M18.017 18.639v.007l.006.71-.004-.712v-.005l-.002-.322-.003.003zM23.278 20.962c-.081.074-.172.128-.277.128l.002.001c.104 0 .194-.055.275-.129M18.22 21.033l-.001-.003a.37.37 0 0 1-.195.06c-.11 0-.206-.059-.289-.141.083.082.178.142.287.142a.4.4 0 0 0 .198-.058M22.822 21.037q-.002.002 0 0" fill="none"/><path d="m27.153 21.981.37-.19h.001l.052-.828-.001-.059c-.657-.476-1.15-1.287-1.349-2.256a.4.4 0 0 1-.106.015.44.44 0 0 1-.228-.066c-.211-.128-.359-.428-.359-.777v-.002q.001-.11.022-.214l.008-.035q.004-.014.01-.028c.081-.327.292-.564.548-.564h.002l-.012-1.596a2 2 0 0 1 .005-.148 2 2 0 0 1 .018-.192c.386-.186.984-.505 1.779-.306l.062.015c.157.044.319.102.491.192a110.798 110.798 0 0 0 1.842.933c.366.181.701.345.957.47l.24.116.224.109.003.408c.036 0 .067.021.101.03.007-.005.013-.012.02-.01.021.007.038.024.058.034a1 1 0 0 1 .081.047c.01.007.021.01.031.018l.018.014c.021.019.036.047.055.07.021.025.043.048.061.077q.007.008.012.015l.019.033c.019.036.031.078.047.118v.001c.011.03.026.055.034.087l.003.008.008.036a1.2 1.2 0 0 1-.014.591c-.089.303-.298.515-.541.515a.4.4 0 0 1-.089-.013 4.3 4.3 0 0 1-.353 1.036 3.6 3.6 0 0 1-.568.836 3 3 0 0 1-.477.416l.054.867v.015h.004v-.001l.003.001h.004v.001q.03.006.059.02c.224.094.441.211.657.322l.365.188 2.11 1.07.16.08.005.003c.582-.394.862-.848.611-1.258-.418-.684-.591-2.105-.852-3.507-.217-1.703-.769-3.263-.975-4.047-.314-1.193-1.24-2.612-3.498-2.687-1.668 0-3.051 1.13-3.33 2.284-.41 1.123-1.448 4.585.146 7.364.165.287.366.53.591.74l.082-.041zM27.523 21.801v-.003z" fill="#000D6E"/><path d="m27.575 24.72.001.008.001.001-.002-.018v.009" fill="#FFACA6"/><path fill="#94E3D4" d="m30.298 21.819.005.002-.001-.002z"/><path d="M30.257 24.469q.014-.137.026-.274l.003-.043.021-.428.006-.115c.014-.217.013-.438.021-.656a8 8 0 0 0-.004-.638 19 19 0 0 0-.035-.495h-.004v-.009l-.001-.006h.001l-.054-.867q.256-.177.477-.416.332-.36.568-.836c.156-.315.276-.664.353-1.036.029.006.059.013.089.013.243 0 .452-.212.541-.515a1.16 1.16 0 0 0 .003-.636c-.009-.032-.023-.057-.034-.087a1 1 0 0 0-.078-.167q-.029-.041-.061-.077a.6.6 0 0 0-.105-.102.4.4 0 0 0-.081-.047.4.4 0 0 0-.179-.054l-.003-.408-.464-.225c-.256-.125-.591-.289-.957-.47a111 111 0 0 1-1.842-.933 2.5 2.5 0 0 0-.491-.192l-.063-.015c-.795-.198-1.393.12-1.779.306a3.274 3.274 0 0 0-.023.34l.012 1.596h-.002c-.255 0-.467.237-.548.564a1.1 1.1 0 0 0-.039.278v.002c0 .349.148.649.359.777a.43.43 0 0 0 .334.051c.199.97.693 1.781 1.349 2.256l.001.059-.052.828h.001l-.001.009v.002l.002-.001-.002.014v.006l-.001.001-.001.013h-.003l-.003.015a2 2 0 0 0-.018.257c-.001.029-.003.051-.003.083a10 10 0 0 0-.013.304c-.002.057-.002.122-.003.187q-.001.175.002.387l.002.111q.006.22.019.475l.003.066q.007.164.02.341l.021.289.028.339v.011c.324.376.797.619 1.332.619.534 0 1.005-.243 1.329-.616l.001-.011q.015-.117.023-.224" fill="#B8B2FF"/><path d="M15.98 25.577c0-.77.334-1.242.943-1.568v-.006l-4.027-2.153-.001-.001a10 10 0 0 0 .05.7c.018.42.024 1.032-.014 1.773-.005.106-.009.206-.016.318a3 3 0 0 0-.011.184 2 2 0 0 1-.009.136c0 .03-.01.06-.01.09-.01.18-.03.36-.05.55-.13 1.28-.26 2.01-.35 2.4h3.747-.252zM27.574 24.688l-.049-.628c-.008-.116-.017-.233-.02-.341l-.003-.066q-.013-.256-.019-.475l-.002-.111q-.004-.211-.002-.387c.001-.064.001-.13.003-.187l.002-.071q.004-.13.011-.233c0-.032.002-.055.003-.083.003-.115.01-.209.018-.257l.003-.015.004-.023.001-.007.001-.003v-.002l.001-.009h-.002l-.37.19-.719.369-.082.041-2.292 1.156v.442c.632.327.979.803.979 1.589V28h2.981a58 58 0 0 1-.356-2.438l-.022-.176-.001-.01a25 25 0 0 1-.067-.647l-.001-.008v-.03300000000000001" fill="#6C2273"/><path d="m17.85 23.657 1.426-.331h.001v-.021l.038-.893a2.7 2.7 0 0 1-.873-.916l-.029-.043q-.005-.012-.012-.025a3 3 0 0 1-.182-.395.4.4 0 0 1-.198.057c-.109 0-.204-.059-.287-.142l-.007-.006a.85.85 0 0 1-.229-.604c0-.206.058-.394.153-.53s.226-.221.373-.221v-.232l-.006-.71v-.007l-.003-.319.003-.003.011-.011c.414-.198 1.113-.605 2.081-.097.826.434 2.222.853 2.896 1.048l.002.001.003.337c.133.002.25.081.342.199a.9.9 0 0 1 .176.547c0 .266-.102.49-.249.623-.081.074-.172.128-.275.128l-.002-.001h-.001q-.006-.002-.011-.003a.4.4 0 0 1-.168-.049 3 3 0 0 1-.151.32 2.75 2.75 0 0 1-.983 1.077l.038.533.015.225v.135l.001-.001 1.429.332q.513.136.891.331v-4.23c0-.11-.017-.214-.025-.322a4.5 4.5 0 0 0-.24-1.205c-.014-.04-.032-.075-.047-.114-.056-.144-.111-.288-.18-.421a4 4 0 0 0-.304-.498q-.021-.037-.047-.073l-.053-.083c-.486-.757-1.475-1.378-2.627-1.378-.029 0-.054.008-.083.009a3.2 3.2 0 0 0-1.104.231 3.2 3.2 0 0 0-1.125.743 3.3 3.3 0 0 0-.469.502l-.033.041q-.208.282-.367.617l-.022.044c-.089.19-.155.398-.216.609-.012.043-.032.08-.044.123l-.006.023c-.034.133-.044.278-.066.417s-.056.271-.065.415c-.007.107-.016.213-.016.322v4.25q.387-.213.926-.355" fill="#000D6E"/><path d="M24.061 23.989a4.4 4.4 0 0 0-.891-.331l-1.429-.332-.001.001v-.135l-.015-.225-.038-.533q.179-.11.339-.25c.261-.224.477-.506.644-.827.054-.104.108-.208.151-.32a.4.4 0 0 0 .168.049q.006.002.011.003h.001c.104 0 .195-.054.277-.128a.84.84 0 0 0 .249-.623c0-.217-.07-.41-.176-.547-.092-.118-.21-.197-.342-.197l-.004-.34c-.674-.195-2.07-.613-2.896-1.048-.968-.508-1.667-.101-2.081.097l-.011.011.002.322v.005l.004.712v.232c-.146 0-.278.085-.373.221a.93.93 0 0 0-.153.53c0 .254.094.468.229.604l.007.006c.083.082.179.141.289.141a.4.4 0 0 0 .195-.06q.078.21.183.398.005.012.012.025l.029.043c.222.379.521.694.873.916l-.038.893v.021h-.001l-1.426.331q-.538.143-.927.352c-.608.326-.943.799-.943 1.568V28h9.059v-2.423c.002-.785-.345-1.262-.977-1.588" fill="#B8B2FF"/><path d="M30.153 25.515c-.04.376-.092.778-.163 1.22-.01.061-.015.113-.026.175-.022.179-.06.378-.092.568-.012.078-.052.298-.092.522h6.183l-.299-2.61c-.07-.59-.43-1.1-.96-1.36l-1.045-.527-.004-.003-.16-.08-2.11-1.07-.365-.188c-.216-.111-.433-.228-.657-.322a.3.3 0 0 0-.059-.02l-.004-.001-.003-.001v.001c.004.004.033.457.035.495q.015.319.004.638c-.008.218-.007.439-.021.656l-.006.115q-.01.215-.021.428l-.003.043c-.007.092-.019.183-.026.274l-.021.222-.001.011c-.011.11-.015.209-.031.328-.015.153-.036.323-.053.486M23.38 28v-4.283l-.21-.06-1.43-.33c-.27.4-.71.66-1.23.66s-.96-.26-1.23-.66l-1.43.33-.21.06V28z" fill="#6C2273"/></g></svg>