<svg version="1.1" xmlns="http://www.w3.org/2000/svg" x="0px" y="0px" viewBox="0 0 40 40" xml:space="preserve" focusable="false" aria-hidden="true" enable-background="new 0 0 40 40"><path fill="none" d="M0 0h40v40H0z"/><g><path d="M27.067 3.229a20.94 20.94 0 0 0-14.135 0L5 6.079v15.816C5 29.52 14.491 36.989 20.002 37 25.51 36.989 35 29.52 35 21.894V6.079z" fill="#94E3D4"/><path d="m20.002 23.915-4.447 2.338a.462.462 0 0 1-.67-.487l.849-4.952-3.598-3.507a.462.462 0 0 1 .256-.788l4.972-.723 2.224-4.506a.462.462 0 0 1 .828 0l2.224 4.506 4.95.719a.473.473 0 0 1 .262.807l-3.582 3.491.849 4.952a.462.462 0 0 1-.67.487z" fill="#000D6E"/></g></svg>