<svg xmlns="http://www.w3.org/2000/svg" viewBox="0 0 40 40" focusable="false" aria-hidden="true"><path fill="none" d="M0 0h40v40H0z"/><g><path d="M35 16v-1a6 6 0 0 0-6-6h-8a6 6 0 0 0-6 6v1a6 6 0 0 0 6 6h6.77l4.78 2.39a1 1 0 0 0 1.28-1.45l-1.37-2.05A6 6 0 0 0 35 16" fill="#d9304c"/><path d="M19 15.5h-8a6 6 0 0 0-6 6v1a6 6 0 0 0 2.54 4.89l-1.37 2.05a1 1 0 0 0 1.28 1.45l4.78-2.39H19a6 6 0 0 0 6-6v-1a6 6 0 0 0-6-6" fill="#ffaca6"/><circle cx="11" cy="22" r="1" fill="#000d6e"/><circle cx="15" cy="22" r="1" fill="#000d6e"/><circle cx="19" cy="22" r="1" fill="#000d6e"/></g></svg>