<svg version="1.1" xmlns="http://www.w3.org/2000/svg" x="0px" y="0px" viewBox="0 0 40 40" xml:space="preserve" focusable="false" aria-hidden="true" enable-background="new 0 0 40 40"><path fill="none" d="M0 0h40v40H0z"/><g><path d="M32 19.5V12a4 4 0 0 0-4-4h-7.5v11.5zM20.5 32H28a4 4 0 0 0 4-4v-7.5H20.5zM8 20.5V28a4 4 0 0 0 4 4h7.5V20.5zM19.5 8H12a4 4 0 0 0-4 4v7.5h11.5z" fill="#94E3D4"/><path d="M16 14.5h-4a.5.5 0 0 1 0-1h4a.5.5 0 0 1 0 1M28.354 15.296l-1.523-1.523 1.419-1.419a.5.5 0 0 0-.707-.707l-1.419 1.419-1.419-1.419a.5.5 0 0 0-.707.707l1.419 1.419-1.523 1.523a.5.5 0 0 0 .708.707l1.523-1.523 1.523 1.523a.5.5 0 0 0 .708 0 .5.5 0 0 0-.002-.707M28 25.5h-4a.5.5 0 0 1 0-1h4a.5.5 0 0 1 0 1M28 28.5h-4a.5.5 0 0 1 0-1h4a.5.5 0 0 1 0 1M16 25.5h-1.5V24a.5.5 0 0 0-1 0v1.5H12a.5.5 0 0 0 0 1h1.5V28a.5.5 0 0 0 1 0v-1.5H16a.5.5 0 0 0 0-1" fill="#1B5951"/></g></svg>