<svg data-name="Calque 1" xmlns="http://www.w3.org/2000/svg" viewBox="0 0 40 40" focusable="false" aria-hidden="true"><path d="M0 0h40v40H0z" fill="none"/><path d="M17 8h6v24h-6zm-7 11v12c0 .55.45 1 1 1h5V18h-5c-.55 0-1 .45-1 1" fill="#6c2273"/><path d="M30 23.97V14c0-.55-.45-1-1-1h-5v14.4a6.98 6.98 0 0 1 6-3.43" fill="#b8b2ff"/><path d="M29.94 24.97c-3.31 0-6 2.69-6 6s2.69 6 6 6 6-2.69 6-6-2.69-6-6-6m.29 5.09-.07.73h-1.59v.36h1.53l-.07.72H28.8c.28.43.77.68 1.28.66.51.04 1-.23 1.24-.69l.98.66c-.49.73-1.32 1.16-2.2 1.12a2.61 2.61 0 0 1-2.56-1.76h-.67l.07-.72h.46v-.37h-.41l.07-.73h.48c.38-1.08 1.42-1.8 2.57-1.76.88-.03 1.71.39 2.2 1.11l-.98.66c-.24-.45-.73-.72-1.25-.68-.51-.02-1 .23-1.28.67h1.42Z" fill="#b8b2ff"/><path d="m30.24 30.06-.07.73h-1.59v.36h1.53l-.07.72h-1.23c.28.43.77.68 1.28.66.51.04 1-.23 1.24-.69l.98.66c-.49.73-1.32 1.16-2.2 1.12a2.61 2.61 0 0 1-2.56-1.76h-.67l.07-.72h.46v-.37H27l.07-.73h.48c.38-1.08 1.42-1.8 2.57-1.76.88-.03 1.71.39 2.2 1.11l-.98.66c-.24-.45-.73-.72-1.25-.68-.51-.02-1 .23-1.28.67h1.42Z" fill="#000d6e"/></svg>