<svg xmlns="http://www.w3.org/2000/svg" viewBox="0 0 40 40" focusable="false" aria-hidden="true"><path fill="none" d="M0 0h40v40H0z"/><g data-name="Icon Purple"><path d="m33.684 22.133-1.999-.001a.5.5 0 0 0 0 1h.625l-7.477 6.215a.33.33 0 0 1-.36.044l-2.443-1.49a1.34 1.34 0 0 0-1.489.149l-7.127 6.292a.5.5 0 0 0 .662.75l7.109-6.276a.33.33 0 0 1 .347-.048l2.438 1.488a1.34 1.34 0 0 0 1.495-.133l7.652-6.361a.5.5 0 0 0 .067-.083v.953a.5.5 0 0 0 .5.5.5.5 0 0 0 .5-.5v-2a.5.5 0 0 0-.5-.5" fill="#000d6e"/><path d="M31.995 12.7a.854.854 0 1 1 .352-1.668l.924.273a1 1 0 0 0-.207-.405l-2.818-3.316a4 4 0 0 0-1.853-1.227L20.88 4.175a3 3 0 0 0-2.986.71L7.3 15.002a2 2 0 0 0-.363.478l-1.51 2.771a8.3 8.3 0 0 0-1.558 5.237.5.5 0 1 0 1 0 8.44 8.44 0 0 1 .809-3.798l.439 1.22-.252 5.695.004.002 1.648 5.391h3.467l-.64-1.413a1 1 0 0 0-.911-.587h-.325l-.063-2.596 4.898-7.315-.009-.001 6.408-3.207 3.277 2.384-.653 1.254-.896-.896-.65.68-1.24 1.32-.32.34 1.45.55h.01l.91.71a1.005 1.005 0 0 0 1.36-.12l.925-1.04 1.914-1.971a1 1 0 0 0 .076-.13l.252-.26a1 1 0 0 0 .101-1.268l-2.491-3.567 1.998-1-.151 1.816a1 1 0 0 0 .622 1.01l1.308.528a1 1 0 0 0 1.187-.344l.7-.973 2.217-1.238a1 1 0 0 0 .485-.638l.288-1.194-.665-.085ZM24.68 25.122l.035.027.047-.082z" fill="#b8b2ff"/><path d="m36.595 12.286-3.324-.981-.924-.273a.854.854 0 1 0-.352 1.668l.361.046.665.086 3.355.43a.502.502 0 0 0 .219-.976" fill="#6c2273"/></g></svg>