<svg xmlns="http://www.w3.org/2000/svg" viewBox="0 0 40 40" focusable="false" aria-hidden="true"><path fill="none" d="M0 0h40v40H0z"/><g data-name="Icon Purple"><path fill="#6c2273" d="M17 8h6v24h-6zM10 19v12a1 1 0 0 0 1 1h5V18h-5a1 1 0 0 0-1 1"/><path d="M30 23.97V14a1 1 0 0 0-1-1h-5v14.405a7 7 0 0 1 6-3.435" fill="#b8b2ff"/><path d="M29.985 24.97a6 6 0 1 0 6 6 6 6 0 0 0-6-6m-3.16 7.102a.834.834 0 0 0 .87-.68l.802.324a1.656 1.656 0 0 1-1.657 1.147 1.804 1.804 0 1 1 .01-3.609 1.65 1.65 0 0 1 1.647 1.147l-.8.324a.83.83 0 0 0-.867-.68 1.016 1.016 0 0 0-.005 2.027Zm5.097.725h-.836v-1.39h-1.2v1.39h-.836V29.32h.835v1.342h1.202v-1.342h.836Zm2.957-2.087v.726h-1.332v1.36h-.836V29.32h2.358v.726h-1.522v.665Z" fill="#b8b2ff"/><path d="M26.83 30.045a.83.83 0 0 1 .866.68l.801-.324a1.65 1.65 0 0 0-1.646-1.146 1.804 1.804 0 1 0-.01 3.608 1.656 1.656 0 0 0 1.656-1.147l-.8-.325a.834.834 0 0 1-.871.68 1.016 1.016 0 0 1 .004-2.025ZM35.069 30.045v-.726h-2.358v3.478h.836v-1.361h1.332v-.726h-1.332v-.665zM31.087 30.66h-1.201v-1.341h-.836v3.478h.836v-1.39h1.201v1.39h.836v-3.478h-.836z" fill="#000d6e"/></g></svg>