<svg xmlns="http://www.w3.org/2000/svg" viewBox="0 0 40 40" focusable="false" aria-hidden="true"><path fill="none" d="M0 0h40v40H0z"/><g><rect x="6" y="9" width="28" height="19" rx="1" ry="1" fill="#fa9319"/><path fill="#fae052" d="M7 10h26v17H7z"/><path d="M25 31H15v-1a1 1 0 0 1 1-1h8a1 1 0 0 1 1 1zM13.54 14.038h12.92a.539.539 0 1 0 0-1.076H13.54a.539.539 0 1 0 0 1.076" fill="#fa9319"/><circle cx="16.5" cy="13.50000001" r=".5" fill="#fae052"/><path d="M16.5 12c-.827 0-1.5.673-1.5 1.5s.673 1.5 1.5 1.5 1.5-.673 1.5-1.5-.673-1.5-1.5-1.5m0 2a.5.5 0 1 1 .001-1.001A.5.5 0 0 1 16.5 14" fill="#000d6e"/><path d="M13.54 24.038h12.92a.539.539 0 1 0 0-1.076H13.54a.539.539 0 1 0 0 1.076" fill="#fa9319"/><circle cx="16.5" cy="23.50000001" r=".5" fill="#fae052"/><path d="M16.5 22c-.827 0-1.5.673-1.5 1.5s.673 1.5 1.5 1.5 1.5-.673 1.5-1.5-.673-1.5-1.5-1.5m0 2a.5.5 0 1 1 .001-1.001A.5.5 0 0 1 16.5 24" fill="#000d6e"/><path d="M26.46 17.506H13.54a.539.539 0 1 0 0 1.077h12.92a.539.539 0 1 0 0-1.077" fill="#fa9319"/><circle cx="23.5" cy="18.04492189" r=".5" fill="#fae052"/><path d="M23.5 16.545c-.827 0-1.5.673-1.5 1.5s.673 1.5 1.5 1.5 1.5-.673 1.5-1.5-.673-1.5-1.5-1.5m0 2a.5.5 0 1 1 .001-1.001.5.5 0 0 1-.001 1" fill="#000d6e"/></g></svg>