<svg xmlns="http://www.w3.org/2000/svg" viewBox="0 0 40 40" focusable="false" aria-hidden="true"><path fill="none" d="M0 0h40v40H0z"/><g data-name="Icon Purple"><path d="M26 10a9.99 9.99 0 0 0-9.975 9.5h3a7 7 0 1 1 0 1h-3A9.994 9.994 0 1 0 26 10" fill="#6c2273"/><path d="M26 17a3 3 0 1 1-2.95 3.5h-4.025a7 7 0 1 0 0-1h4.025A2.994 2.994 0 0 1 26 17" fill="#b8b2ff"/><path d="M23.05 20.5h2.45a.5.5 0 0 0 0-1h-21a.5.5 0 0 0 0 1z" fill="#000d6e"/><path d="M6.15 18.354a.5.5 0 0 0 .354.146h.002l4.995-.014a.5.5 0 0 0 .352-.854l-1.99-1.986a.5.5 0 0 0-.353-.146H4.501a.5.5 0 0 0-.354.854Z" fill="#b8b2ff"/><path d="M11.499 21.5H6.49a.5.5 0 0 0-.354.147l-1.99 1.985a.5.5 0 0 0 .353.854l4.995.014h.002a.5.5 0 0 0 .354-.146l2.003-2a.5.5 0 0 0-.354-.854" fill="#6c2273"/></g></svg>