<svg version="1.1" xmlns="http://www.w3.org/2000/svg" x="0px" y="0px" viewBox="0 0 40 40" xml:space="preserve" focusable="false" aria-hidden="true" enable-background="new 0 0 40 40"><path fill="none" d="M0 0h40v40H0z"/><g><path fill="none" d="m24.922 19.82.005.001-.001-.001z"/><path d="m21.055 20.356-.076.038-.003-.003-2.029 1.029-.16.08-.005.003-1.045.527c-.53.26-.89.77-.96 1.36L16.478 26h6.183l-.093-.522c-.032-.19-.07-.389-.092-.568l-.026-.175a24 24 0 0 1-.163-1.22c-.017-.163-.038-.334-.052-.485-.015-.12-.02-.218-.031-.328l-.001-.011-.021-.222q-.014-.137-.026-.274l-.003-.043-.021-.428-.006-.115c-.014-.218-.013-.438-.021-.656a8 8 0 0 1 .004-.638c.002-.037.031-.491.035-.495v-.001l-.003.001-.004.001q-.03.006-.059.02c-.075.031-.146.072-.22.108l-.083.043zM27.695 21.205l-1.686-.855-.365-.188c-.216-.111-.433-.228-.657-.322a.3.3 0 0 0-.059-.02l-.004-.001-.003-.001v.001c.004.004.033.457.035.495q.015.319.004.638c-.008.218-.007.439-.021.656l-.006.115q-.01.215-.021.428l-.003.043c-.007.092-.019.183-.026.274l-.021.222-.001.011c-.011.11-.015.209-.031.328-.014.152-.034.322-.052.485-.04.376-.092.778-.163 1.22-.01.061-.015.113-.026.175-.022.179-.06.378-.092.568-.013.078-.052.298-.093.522h2.946a5.94 5.94 0 0 1 .345-4.794" fill="#D9304C"/><path d="M24.922 19.82h.004v.001q.03.006.059.02c.224.094.441.21.657.322l.365.188 1.686.855a6 6 0 0 1 1.012-1.388c-.286-.757-.447-1.916-.664-3.08-.217-1.703-.769-3.263-.975-4.047-.314-1.193-1.24-2.612-3.498-2.687-1.668 0-3.051 1.13-3.33 2.284-.41 1.123-1.448 4.585.146 7.364.164.287.366.529.591.74l.003.003.076-.038.722-.365.083-.043.287-.148.052-.838-.001-.059c-.657-.476-1.15-1.287-1.349-2.256a.4.4 0 0 1-.106.015.44.44 0 0 1-.228-.066c-.211-.128-.359-.428-.359-.777v-.002q.001-.11.022-.214l.008-.035q.004-.014.01-.028c.081-.327.292-.564.548-.564h.002l-.012-1.596a2 2 0 0 1 .005-.148 2 2 0 0 1 .018-.192c.386-.186.984-.505 1.779-.306l.062.015c.157.044.319.102.491.192a110.798 110.798 0 0 0 1.842.933c.366.181.701.345.957.47l.24.116.224.109.003.408c.036 0 .067.021.101.03.007-.005.013-.012.02-.01.021.007.038.024.058.034a1 1 0 0 1 .081.047c.01.007.021.01.031.018l.018.014c.021.019.036.047.055.07q.033.036.061.077.007.008.012.015l.019.033c.019.036.031.078.047.118v.001c.011.03.026.055.034.087l.003.008.008.036a1.2 1.2 0 0 1-.014.591c-.089.303-.298.515-.541.515a.4.4 0 0 1-.089-.013 4.3 4.3 0 0 1-.353 1.036 3.6 3.6 0 0 1-.568.836 3 3 0 0 1-.477.416l.054.867v.016h.004v-.001z" fill="#000D6E"/><path d="M9.45 22.6h-.002zM7.961 21.636c-.009-.142-.013-.271-.019-.403.006.134.01.264.018.407.01.1.01.21.02.32l.003.001q-.013-.165-.022-.325M10.91 21.96l.009-.136zM10.946 21.323c.038-.74.031-1.353.014-1.773l-.001-.004c.018.424.023 1.035-.013 1.777" fill="none"/><path d="m7.961 21.636.022.325c.232.251.534.434.874.54.187.058.382.099.589.099h.002c.261 0 .505-.056.731-.146.28-.111.531-.277.73-.492l.009-.137q.004-.095.011-.184c.008-.111.011-.212.016-.318.035-.742.03-1.353.012-1.776a13 13 0 0 0-.021-.371c-.015-.206-.028-.325-.028-.325l.001.001v-.001l.006-.918c.752-.497 1.319-1.37 1.546-2.419.028.005.055.012.084.012.359 0 .649-.4.649-.893 0-.406-.199-.745-.469-.853v.151a.23.23 0 0 1-.05.138.217.217 0 0 1-.106.08.2.2 0 0 1-.078.016.234.234 0 0 1-.234-.234v-.764c0-.034-.003-.063-.004-.096q-.04-.065-.083-.13a2.9 2.9 0 0 0-.646-.704 2.53 2.53 0 0 1-1.847.059 4.3 4.3 0 0 1-.746-.326 2.5 2.5 0 0 1-.453-.321 5 5 0 0 0-1.117.321c-.254.106-.46.213-.624.293a3.4 3.4 0 0 0-.094.579q-.012.152-.013.326v.764a.234.234 0 0 1-.234.234q-.019-.002-.038-.008a.23.23 0 0 1-.196-.226v-.151c-.27.108-.469.447-.469.853 0 .493.291.893.649.893a.5.5 0 0 0 .127-.018c.223 1.037.777 1.904 1.516 2.406h-.008l.005.938s-.029.25-.048.696a20 20 0 0 0 .008 1.687c.006.129.01.259.019.4" fill="#FFACA6"/><path d="M7.99 22.04c0-.03 0-.05-.01-.08-.01-.11-.01-.22-.02-.32l-.018-.407a29 29 0 0 1-.019-.602c-.008-.43-.005-.801.007-1.081.02-.45.05-.7.05-.7l-.07.03-4.6 2.33c-.56.28-.94.82-1.02 1.44L2 25h6.39c-.09-.39-.22-1.12-.35-2.4-.02-.19-.04-.38-.05-.56M16.599 22.65c-.08-.62-.46-1.16-1.02-1.44l-4.6-2.33-.07-.03s.03.25.05.7a23.195 23.195 0 0 1-.012 1.683c-.006.134-.01.264-.018.407-.01.1-.01.21-.02.32-.01.03-.01.05-.01.08-.01.18-.03.37-.05.56-.13 1.28-.26 2.01-.35 2.4h6.39z" fill="#D9304C"/><path d="M6.361 14.155c.013.002.025.008.038.008a.234.234 0 0 0 .234-.234v-.764q0-.174.013-.326c.018-.233.055-.424.094-.579.164-.08.37-.187.624-.293.3-.125.67-.247 1.117-.321.116.106.264.215.453.321.201.113.444.224.746.326.742.25 1.369.145 1.847-.059.276.215.487.458.646.704q.044.066.083.13c.001.033.004.062.004.096v.764c0 .129.105.234.234.234a.247.247 0 0 0 .15-.058.2.2 0 0 0 .034-.038.23.23 0 0 0 .05-.138v-1.012c.021-.606.032-1.255 0-1.567-.068-.673-1.329-2.344-3.281-2.344s-3.281 1.473-3.281 2.812v2.11a.23.23 0 0 0 .195.228" fill="#000D6E"/><path fill="none" d="m22.146 19.814-.001.008.001-.001zM22.198 22.73l.002-.002-.002-.002zM22.268 23.396l.022.176zM22.17 22.359l-.021-.289zM24.777 23.525q-.065.564-.163 1.22c.071-.442.122-.844.163-1.22M24.908 22.19q.015-.03 0-.06l.007-.114c-.009.145-.021.302-.034.462.008-.093.024-.2.027-.288M22.597 12.749l-.062-.015zM22.106 20.505l.002-.071zM22.138 19.86a2 2 0 0 0-.018.257 9 9 0 0 1 .024-.295c0 .009.001.012-.006.038"/><path d="m22.2 22.729-.002-.018v.016z" fill="#FFACA6"/><path d="M22.145 19.812q-.001.01-.004.023h.003l.001-.013.001-.001v-.006l.002-.014-.002.001v-.003l-.001.006zM26.453 14.788c-.034-.009-.065-.03-.101-.03l-.003-.408-.224-.109-.24-.116.464.225.003.408a.4.4 0 0 1 .179.054c-.02-.01-.037-.027-.058-.034-.006-.002-.013.005-.02.01M26.662 14.892l-.018-.014c-.01-.008-.021-.011-.031-.018a.6.6 0 0 1 .105.102c-.02-.024-.035-.051-.056-.07M22.534 12.734l.063.015zM20.177 15.385q-.02.103-.022.214c0-.098.017-.19.039-.278q-.005.014-.01.028zM26.81 15.088l-.019-.033q-.005-.008-.012-.015.045.077.078.167v-.001c-.016-.04-.028-.083-.047-.118M26.258 16.431" fill="none"/><path fill="none" d="m22.148 19.79.051-.827-.052.838v-.003zM26.894 15.301l-.003-.008.011.045zM24.86 18.937l.054.867v.006-.006z"/><path fill="#94E3D4" d="m24.922 19.82.005.001-.001-.001z"/><path d="M24.881 22.469q.014-.137.026-.274l.003-.043.021-.428.006-.115c.014-.218.013-.438.021-.656a8 8 0 0 0-.004-.638 19 19 0 0 0-.035-.495h-.004v-.01l-.001-.006h.001l-.054-.867q.256-.177.477-.416.332-.36.568-.836c.156-.315.276-.664.353-1.036q.044.011.089.013c.243 0 .452-.212.541-.515a1.16 1.16 0 0 0 .003-.636c-.009-.032-.023-.057-.034-.087a1 1 0 0 0-.078-.167q-.029-.042-.061-.077a.6.6 0 0 0-.105-.102.4.4 0 0 0-.081-.047.4.4 0 0 0-.179-.054l-.003-.408-.464-.225c-.256-.125-.591-.289-.957-.47a111 111 0 0 1-1.842-.933 2.5 2.5 0 0 0-.491-.192l-.063-.015c-.795-.198-1.393.12-1.779.306a3.274 3.274 0 0 0-.023.34l.012 1.596h-.002c-.255 0-.467.237-.548.564a1.1 1.1 0 0 0-.039.278v.002c0 .349.148.649.359.777a.43.43 0 0 0 .334.051c.199.97.693 1.781 1.349 2.256l.001.059-.052.828h.001l-.001.008v.003l.002-.001-.002.014v.006l-.001.001-.001.013h-.003l-.003.015a2 2 0 0 0-.018.257c-.001.029-.003.051-.003.083a10 10 0 0 0-.013.304c-.002.057-.002.122-.003.187q-.001.175.002.387l.002.111q.006.22.019.475l.003.066q.007.164.02.341l.021.289.028.339v.011c.324.376.797.619 1.332.619.534 0 1.005-.243 1.329-.616l.001-.011a5 5 0 0 0 .023-.223" fill="#FFACA6"/><path d="M18.237 21.089c.103 0 .194-.054.275-.128-.081.074-.172.128-.277.128zM18.585 19.791c-.091-.119-.209-.197-.342-.199l-.003-.337-.002-.001.004.34c.133 0 .251.078.343.197M18.055 21.036" fill="none"/><path d="M18.585 19.791c-.091-.119-.209-.197-.342-.199l-.003-.337-.002-.001.004.34c.133 0 .251.078.343.197M16.974 23.326v-.001zM13.257 21.089c-.11 0-.206-.059-.289-.141.083.082.178.142.287.142q.106-.002.198-.057l-.001-.003a.4.4 0 0 1-.195.059M13.253 18.638l-.002-.322-.003.003.003.319v.007l.006.71-.004-.712zM18.237 21.089c.103 0 .194-.054.275-.128-.081.074-.172.128-.277.128zM17.904 21.356" fill="none"/><path d="m12.874 23.716.208-.059.002-.001.011-.003 1.415-.327v-.002h.001v-.021l.038-.893a2.7 2.7 0 0 1-.873-.916l-.029-.043q-.005-.012-.012-.025a3 3 0 0 1-.182-.395.4.4 0 0 1-.198.057c-.109 0-.204-.059-.287-.142l-.007-.006a.85.85 0 0 1-.229-.604c0-.206.058-.394.153-.53s.226-.221.373-.221v-.232l-.006-.71v-.007l-.003-.319.003-.003.011-.011c.414-.198 1.113-.605 2.081-.097.826.434 2.222.853 2.896 1.048l.002.001.003.337c.133.002.25.081.342.199a.9.9 0 0 1 .176.547c0 .266-.102.49-.249.623-.081.074-.172.128-.275.128l-.002-.001h-.001q-.006-.002-.011-.003a.4.4 0 0 1-.168-.049 3 3 0 0 1-.151.32 2.75 2.75 0 0 1-.983 1.077l.038.533.015.225v.136l1.428.329h.002l.003.001.207.059v.006c.252.078.483.163.681.265v-4.229c0-.11-.017-.214-.025-.322a4.5 4.5 0 0 0-.24-1.205c-.014-.04-.032-.075-.047-.114-.056-.144-.111-.288-.18-.421a4 4 0 0 0-.304-.498q-.021-.037-.047-.073l-.053-.083c-.486-.757-1.475-1.378-2.627-1.378-.029 0-.054.008-.083.009a3.2 3.2 0 0 0-1.104.231 3.2 3.2 0 0 0-1.125.743 3.3 3.3 0 0 0-.469.502l-.033.041q-.207.282-.367.617l-.022.044c-.089.19-.155.398-.216.609-.012.043-.032.08-.044.123l-.006.023c-.034.133-.044.278-.066.417s-.056.271-.065.415c-.007.107-.016.213-.016.322v4.25c.206-.111.45-.202.717-.285v-.009z" fill="#000D6E"/><path d="M20.274 25.576c0-.785-.347-1.262-.979-1.589a4 4 0 0 0-.681-.265v4.276h1.66zM12.156 24.008c-.608.326-.943.799-.943 1.568v2.423h1.66v-4.276a4 4 0 0 0-.717.285M16.974 23.311v-.12000000000000001l-.015-.225-.038-.533q.178-.11.339-.25c.261-.224.477-.506.644-.827.054-.104.108-.208.151-.32a.4.4 0 0 0 .168.049q.006.002.011.003h.001c.104 0 .195-.054.277-.128a.84.84 0 0 0 .249-.623c0-.217-.07-.41-.176-.547-.092-.118-.21-.197-.342-.197l-.004-.34c-.674-.195-2.07-.613-2.896-1.048-.968-.508-1.667-.101-2.081.097l-.011.011.002.322v.005l.004.712v.232c-.146 0-.278.085-.373.221a.93.93 0 0 0-.153.53c0 .254.094.468.229.604l.007.006c.083.082.179.141.289.141a.4.4 0 0 0 .195-.06q.078.21.183.398.005.012.012.025l.029.043c.222.379.521.694.873.916l-.038.893v.021h-.001v.002h.001l.002-.001c.27.4.71.66 1.23.66s.96-.26 1.23-.66v-.012z" fill="#FFACA6"/><path fill="#B8B2FF" d="M13.082 23.656h.002l.011-.003-.011.003zM18.402 23.655l.002.001.002.001-.002-.001z"/><path d="m18.614 23.716-.207-.059-.003-.001h-.002l-1.428-.329c-.27.4-.71.66-1.23.66s-.96-.26-1.23-.66l-.002.001h-.001l-1.415.327-.011.003-.002.001-.208.059v4.283h5.74v-4.285z" fill="#D9304C"/><path d="M37.099 36.029h-8.181999999999999c-.502 0-.909.448-.909 1 0 .543.394.979.884.995.009 0 .016.005.025.005h8.182c.502 0 .909-.448.909-1s-.407-1-.909-1M37.099 33.028h-8.181999999999999c-.502 0-.909.448-.909 1s.407 1 .909 1h8.181999999999999c.502 0 .909-.448.909-1s-.407-1-.909-1M37.099 30.027h-8.181999999999999c-.502 0-.909.448-.909 1s.407 1 .909 1h8.181999999999999c.502 0 .909-.448.909-1s-.407-1-.909-1" fill="#000D6E"/><path fill="none" d="m24.922 19.82.005.001-.001-.001z"/><path d="M28 24a5 5 0 1 0 10.001-.001A5 5 0 0 0 28 24m6.94-1.393h1.664v.465h-1.127v.555h.994v.464h-.994v1.02h-.537zm-2.632 0h.537v.987h.954v-.987h.537v2.503h-.537v-1.037h-.954v1.037h-.537zm-1.601-.047c.645 0 1.041.396 1.174.817l-.515.209c-.086-.313-.306-.519-.673-.519-.429 0-.731.317-.731.792 0 .473.303.789.735.789.367 0 .583-.201.67-.519l.515.209c-.137.436-.537.817-1.177.817-.731 0-1.286-.544-1.286-1.297-.001-.754.553-1.298 1.288-1.298" fill="#000D6E"/></g></svg>