<svg xmlns="http://www.w3.org/2000/svg" viewBox="0 0 40 40" focusable="false" aria-hidden="true"><path fill="none" d="M0 0h40v40H0z"/><g><path fill="#d9304c" d="M29 6h-4v2.31l4 3.68z"/><path d="M19.4 8.33 10 17v17h20V17l-9.41-8.68c-.33-.3-.85-.3-1.19.01" fill="#ffaca6"/><path d="m32.34 16.43-10.4-9.59a2.906 2.906 0 0 0-3.88 0l-10.4 9.59.34.37.34.37 10.39-9.58c.72-.65 1.82-.65 2.54 0l10.39 9.58.34-.37zM26.06 22.05l-1.85-1.85.3-.3c.2-.2.2-.51 0-.71s-.51-.2-.71 0l-5.38 5.38c-.6-.39-1.31-.6-2.04-.57-.93.04-1.8.44-2.43 1.12s-.96 1.58-.92 2.51.44 1.8 1.12 2.43c.65.6 1.49.93 2.37.93h.15c.93-.04 1.8-.44 2.43-1.12.63-.69.96-1.58.92-2.51-.03-.79-.34-1.53-.85-2.12l2.53-2.53 1.38 1.38a.485.485 0 0 0 .7 0c.2-.2.2-.51 0-.71L22.4 22l1.1-1.1 1.85 1.85a.485.485 0 0 0 .7 0c.2-.2.2-.51 0-.71Zm-7.7 7.15c-.45.49-1.07.78-1.74.8-.66.04-1.3-.21-1.8-.66-.49-.45-.78-1.07-.8-1.74-.03-.67.21-1.3.66-1.79s1.07-.78 1.74-.8h.1c.63 0 1.23.23 1.69.66.49.45.78 1.07.8 1.74.03.67-.21 1.3-.66 1.8Z" fill="#000d6e"/></g></svg>