<svg version="1.1" xmlns="http://www.w3.org/2000/svg" x="0px" y="0px" viewBox="0 0 40 40" xml:space="preserve" focusable="false" aria-hidden="true" enable-background="new 0 0 40 40"><path fill="none" d="M0 0h40v40H0z"/><g><path d="M25 9.995c0 1.104.894 1.998 1.997 1.998h4.993L25 5z" fill="#1B5951"/><path d="M27 12c-1.103 0-1.99-.929-1.99-2.033L25 10l.01-5H8v30h24V12z" fill="#94E3D4"/><path d="M21.5 9h-1V7.5a.5.5 0 0 0-1 0V9h-1a.5.5 0 0 0 0 1h1v2.5a.5.5 0 0 0 1 0V10h1a.5.5 0 0 0 0-1M27.321 18.018H12.636c-.339 0-.613.224-.613.5s.274.5.613.5h14.685c.339 0 .613-.224.613-.5s-.274-.5-.613-.5M27.321 21.011H12.636c-.339 0-.613.224-.613.5s.274.5.613.5h14.685c.339 0 .613-.224.613-.5s-.274-.5-.613-.5M27.321 24H12.636c-.339 0-.613.224-.613.5s.274.5.613.5h14.685c.339 0 .613-.224.613-.5s-.274-.5-.613-.5M27.321 26.998H12.636c-.339 0-.613.224-.613.5s.274.5.613.5h14.685c.339 0 .613-.224.613-.5s-.274-.5-.613-.5" fill="#000D6E"/></g></svg>