<svg xmlns="http://www.w3.org/2000/svg" viewBox="0 0 40 40" focusable="false" aria-hidden="true"><path fill="none" d="M0 0h40v40H0z"/><g data-name="Icon Red"><path d="M23.512 20.931c1.009-.78 2.023-1.553 3.036-2.329l.603-.461.405 2.918-2.493 1.908q-.336.256-.757.265a1.28 1.28 0 0 1-1.228-.838 1.28 1.28 0 0 1 .434-1.463" fill="#ffaca6"/><path d="m27.806 24.76-6.487-9.75-.295-.207c-.522-.133-1.344-.504-1.446-.88q-.094-.346.022-.47c.447-.481 2.576-.04 3.379.125.248.05.457.094.608.118l.156-.988c-.14-.021-.333-.062-.562-.11-1.76-.363-3.54-.649-4.31.17-.228.243-.457.686-.258 1.419.25.914 1.478 1.378 1.975 1.53l6.455 9.7q.237-.203.473-.407z" fill="#000d6e"/><path d="M36.95 22.081a216 216 0 0 0-1.342-4.37c-.174-.545-.545-.961-1.052-1.233a259 259 0 0 0-3.323-1.75c-.519-.268-1.063-.441-1.663-.318-1.019.21-1.762 1.243-1.619 2.272q.443 3.202.9 6.4c.067.466-.062.836-.423 1.141q-.313.266-.622.536l-.29.25q-.236.205-.473.408l-.365.315q-.09.076-.177.153c-.532.451-.837 1.016-.89 1.71-.145 1.917-.292 3.834-.426 5.75a1.54 1.54 0 0 0 1.458 1.652c.828.053 1.547-.582 1.615-1.445q.207-2.63.397-5.26a.44.44 0 0 1 .17-.335c.977-.832 1.927-1.699 2.93-2.5 1.08-.862 1.416-1.942 1.196-3.271-.207-1.25-.362-2.51-.539-3.765-.006-.046-.005-.092-.01-.183.276.145.516.272.757.395.099.05.106.15.133.235q.587 1.906 1.17 3.814c.228.75.92 1.157 1.622.944.66-.2 1.062-.883.866-1.545M28.908 8.708a2.464 2.464 0 0 0-2.473 2.455 2.475 2.475 0 0 0 2.469 2.488 2.474 2.474 0 0 0 2.473-2.46 2.463 2.463 0 0 0-2.469-2.483" fill="#ffaca6"/><path d="m33.111 25.617.48 1.494 1.873 5.815c.127.394.122.781-.047 1.16a1.54 1.54 0 0 1-1.454.912 1.535 1.535 0 0 1-1.416-1.07c-.664-2.05-1.32-4.102-1.986-6.151z" fill="#ffaca6"/><circle cx="12.621544" cy="24.244826" r="1.697919" fill="none"/><path d="M11 33.866A1.12 1.12 0 0 0 12.12 35h3.744C16.49 35 17 34.492 17 33.866V30h-6z" fill="#000d6e"/><path d="M17.935 15h-1.87a.57.57 0 0 0-.565.578v.844c0 .32.253.578.565.578h1.87a.57.57 0 0 0 .565-.578v-.844a.57.57 0 0 0-.565-.578M15.078 18.02H3v10.99h13.992v-5.852a4.4 4.4 0 0 0-.351-1.743zm-2.456 7.923c-.94 0-1.698-.759-1.698-1.698 0-.94.758-1.698 1.698-1.698s1.697.758 1.697 1.698-.758 1.698-1.697 1.698" fill="#d9304c"/><path d="m14.697 17-2.903-6.91A3.4 3.4 0 0 0 8.66 8H3v9z" fill="#ffaca6"/></g></svg>