<svg xmlns="http://www.w3.org/2000/svg" viewBox="0 0 40 40" focusable="false" aria-hidden="true"><path fill="none" d="M0 0h40v40H0z"/><g data-name="Icon Purple"><path d="M30.118 20.396c-1.026 1.629-2.519 4.199-2.519 5.375a3.24 3.24 0 0 0 6.481 0c0-1.197-1.345-3.837-2.239-5.46Z" fill="#6c2273"/><path d="M29.541 33H10.46a.405.405 0 1 1 0-.81H29.54a.405.405 0 1 1 0 .81" fill="#000d6e"/><path d="m31.877 16.254-4.689.232-1.967-3.053a3 3 0 0 0 .473.048 3.296 3.296 0 1 0-3.061-2.22l-4.408-1.958a1.62 1.62 0 0 0-1.753.287l-4.15 3.806a1.62 1.62 0 1 0 2.19 2.388l3.368-3.089 1.282.57-2.403 3.496c-.03.044-.049.092-.077.137l-3.598 5.12-4.215-1.581a1.62 1.62 0 0 0-1.138 3.035l5.388 2.02a1.62 1.62 0 0 0 1.895-.586l2.563-3.646 2.745 4.133-1.694 4.516a1.705 1.705 0 0 0 .944 2.194 1.62 1.62 0 0 0 2.054-.96l2.02-5.387a1.62 1.62 0 0 0-.167-1.465l-1.855-2.794a.81.81 0 0 1 .007-.907l.934-1.36-.008-.004 1.312-1.909 1.102 1.711a1.62 1.62 0 0 0 1.362.743l.08-.002 5.625-.28a1.62 1.62 0 1 0-.16-3.235" fill="#b8b2ff"/></g></svg>