<svg xmlns="http://www.w3.org/2000/svg" viewBox="0 0 40 40" focusable="false" aria-hidden="true"><path fill="none" d="M0 0h40v40H0z"/><g><path fill="#fae052" d="M13.5 9h13v22h-13zM4 9h8.5v22H4a1 1 0 0 1-1-1V10a1 1 0 0 1 1-1M27.5 9H36a1 1 0 0 1 1 1v20a1 1 0 0 1-1 1h-8.5z"/><path d="M19.25 18.534v10.382a.75.75 0 0 0 1.5 0V18.534c-.21.159-.467.257-.75.257s-.54-.098-.75-.257M20.5 16.397v-4.231a.5.5 0 1 0-1 0v4.23a1.24 1.24 0 0 1 1 0M18.813 17.167l-4.01 1.87a.5.5 0 0 0 .424.906l3.72-1.735a1.24 1.24 0 0 1-.197-.667c0-.131.026-.255.063-.374M25.196 19.037l-4.01-1.87c.038.119.064.243.064.374 0 .246-.074.474-.197.667l3.72 1.735a.5.5 0 1 0 .423-.906" fill="#fa9319"/><circle cx="20.00000249" cy="17.54067442" r=".75000045" fill="#000d6e"/><path d="M28.75 12.979v13.968h7V12.98zm3.03 8.94h-2v-2h2zm0-2.993h-2v-2h2zm0-2.892h-2v-2h2zm3.002 5.885h-2v-2h2zm0-2.993h-2v-2h2zm0-2.892h-2v-2h2z" fill="#fa9319"/><path fill="#000d6e" d="M30.729 23.46h3v3.5h-3zM10.225 17.49 7.75 15.014l-2.475 2.474a.5.5 0 1 0 .707.707L7.25 16.93v7.814a.5.5 0 1 0 1 0V16.93l1.268 1.267a.5.5 0 0 0 .707 0 .5.5 0 0 0 0-.707"/></g></svg>