<svg xmlns="http://www.w3.org/2000/svg" viewBox="0 0 40 40" focusable="false" aria-hidden="true"><path fill="none" d="M0 0h40v40H0z"/><g><path d="M6.938 23.008H5.027v7.985h1.911c.598 0 1.083-.484 1.083-1.083v-5.82c0-.597-.485-1.082-1.083-1.082" fill="#94e3d4"/><path d="M34.947 26.225a1.5 1.5 0 0 0-1.471-1.22l-.299.03-7.188 1.726V27c0 1.285-1.18 1.996-1.996 1.996h-8.984a.5.5 0 1 1 0-.998h8.984c.284 0 .998-.297.998-.998v-.999l-.002-.064-.001-.01a.95.95 0 0 0-.43-.717l-.008-.005-.075-.048-.015-.008-.068-.036-.007-.003-.07-.031-.006-.003-.026-.01-.014-.006-.029-.01-.011-.003-.026-.008-.013-.004-.007-.002-.066-.016h-.004a.6.6 0 0 0-.12-.014h-5.016c-.521-.01-1.006-.342-1.566-.725l-.092-.063-.106-.072-.019-.013-.211-.14-.01-.007-.106-.067-.005-.004a9 9 0 0 0-.236-.144 5.6 5.6 0 0 0-1.237-.558 7.4 7.4 0 0 0-1.689-.203h-3.677c-.554 0-1.003.45-1.003 1.004v3.987h.004a2 2 0 0 0-.004.112v1.884s-.001.642.997.998c.998.357 6.468 2.612 6.602 2.667a4.49 4.49 0 0 0 3.2.072c.015-.005 14.201-5.836 14.201-5.836a1.5 1.5 0 0 0 .927-1.671" fill="#1b5951"/><path d="M14.252 18.668a.582.582 0 1 0 .003 1.164.582.582 0 0 0-.003-1.164" fill="none"/><path d="m33.144 17.063-.642-.572a.68.68 0 0 0-.453-.167H24v2.334l1.208-.005 1.195-.293 1.199.282 1.195-.292 1.199.282 1.195-.292.869.283c.17 0 .332-.062.451-.17l.637-.578a.534.534 0 0 0-.004-.812" fill="#1b5951"/><path d="M22.984 15.725a1.746 1.746 0 0 0-1.757-1.734l-4.698.021a4.04 4.04 0 0 0-4.029 4.049l.005 1.196c.005.962.791 1.738 1.757 1.734l6.997-.031A1.746 1.746 0 0 0 23 19.21zM14.5 20a.5.5 0 1 1 0-1 .5.5 0 0 1 0 1" fill="#000d6e"/><path d="M21.985 15.62c0-.343-.247-.622-.545-.62l-4.899.025c-.299.002-.542.283-.541.626l.015 3.73c0 .342.247.62.545.619l4.899-.025c.299-.002.542-.283.541-.626z" fill="#94e3d4"/></g></svg>