<svg xmlns="http://www.w3.org/2000/svg" viewBox="0 0 40 40" focusable="false" aria-hidden="true"><path fill="none" d="M0 0h40v40H0z"/><g data-name="Icon Purple"><path d="m17.36 14.15-3.06-.46c-.43-.06-.81-.26-1.09-.55-.08-.08-.15-.17-.22-.26-.21-.3-.34-.67-.35-1.07L9.4 15.05l-1.45.48c-.44.15-.84.4-1.17.72l-3.03 3.03a.996.996 0 1 0 1.41 1.41l-.35.36a.996.996 0 1 0 1.41 1.41l-.35.37a.996.996 0 1 0 1.41 1.41l-.36.35c-.39.39-.39 1.03 0 1.42s1.02.39 1.41 0l1.06-1.06 1.42-1.42v1.87c0 .53.43.95.96.95.47 0 .86-.35.93-.81l.76-5.02.04-.24c.1-.64.39-1.24.85-1.7l4.25-4.25-1.23-.18Z" fill="#6c2273"/><path d="m24.94 9.4-.48-1.45c-.15-.44-.4-.84-.72-1.17l-3.03-3.03a.996.996 0 1 0-1.41 1.41l-.36-.35a.996.996 0 1 0-1.41 1.41l-.37-.35a.996.996 0 1 0-1.41 1.41l-.35-.36c-.39-.38-1.02-.38-1.41 0a.996.996 0 0 0 0 1.41l.36.36.71.71.71.71.71.71h-1.87c-.53 0-.95.43-.95.96 0 .13.04.25.09.37.13.29.39.51.72.56l3.8.57 1.17.18.3.04c.25.04.48.11.71.21.37.15.71.36.99.64l4.26 4.26.65-4.3c.06-.43.26-.81.55-1.09.34-.34.81-.55 1.33-.56l-3.25-3.25Z" fill="#000d6e"/><path fill="#fa9319" d="m32.37 14.69-.31.31.32-.31z"/><path d="M36.26 19.3a.996.996 0 0 0-1.41 0l.35-.36a.996.996 0 1 0-1.41-1.41l.35-.37a.996.996 0 1 0-1.41-1.41l.36-.35c.39-.39.39-1.03 0-1.42s-1.02-.39-1.41 0l-.36.36-.71.71-1.41 1.41v-1.87c0-.53-.43-.95-.96-.95-.47 0-.86.35-.93.81l-.75 4.97-.04.3c-.04.25-.11.48-.21.71-.15.37-.36.71-.64.99l-4.26 4.26 1.23.18 3.07.46c.43.06.81.26 1.09.55.08.08.15.17.22.26.21.3.34.67.35 1.07l3.25-3.25 1.45-.48c.44-.15.84-.4 1.17-.72l3.03-3.03a.996.996 0 0 0 0-1.41Z" fill="#6c2273"/><path fill="#fae052" d="M12.93 28.49"/><path d="m25.66 31.31-.71-.71-1.41-1.41h1.88c.53 0 .95-.43.95-.96 0-.13-.04-.26-.09-.37a.95.95 0 0 0-.72-.56l-3.8-.57-1.17-.18-.3-.04c-.25-.04-.48-.11-.71-.21a3 3 0 0 1-.99-.64l-1.42-1.42-.67-.67-2.17-2.17-.65 4.29c-.06.43-.26.81-.55 1.09-.34.34-.82.56-1.34.57l.46.46.67.67 2.12 2.12.48 1.45c.15.44.4.84.72 1.17l3.03 3.03a.996.996 0 1 0 1.41-1.41l.36.35a.996.996 0 1 0 1.41-1.41l.37.35a.996.996 0 1 0 1.41-1.41l.35.36c.39.38 1.02.38 1.41 0s.39-1.02 0-1.41l-.36-.36Z" fill="#b8b2ff"/></g></svg>