<svg xmlns="http://www.w3.org/2000/svg" viewBox="0 0 40 40" focusable="false" aria-hidden="true"><path fill="none" d="M0 0h40v40H0z"/><g data-name="Icon Green"><path d="M20.42 13.18a.61.61 0 0 0-.85 0l-6.39 6.39a.61.61 0 0 0 0 .85l6.39 6.39c.23.23.62.23.85 0l3.55-3.55-2.16-2.16L20 22.91l-2.92-2.92L20 17.07l5.08 5.08 1.73-1.73a.61.61 0 0 0 0-.85z" fill="#000d6e"/><path d="M31.76 12.3c-.26-.1-.55.03-.65.29l-.64 1.68c-2.22-3.89-6.38-6.3-10.85-6.3-5.2 0-9.9 3.27-11.72 8.14a.496.496 0 0 0 .46.67c.2 0 .39-.12.47-.33 1.67-4.48 6-7.49 10.78-7.49 4.07 0 7.85 2.18 9.91 5.68l-1.64-.63a.503.503 0 1 0-.36.94l2.8 1.07q.09.03.18.03c.2 0 .39-.12.47-.32l1.07-2.8c.1-.26-.03-.55-.29-.65Z" fill="#94e3d4"/><path d="M8.2 27.64c.26.1.55-.03.65-.29l.64-1.68c2.22 3.89 6.38 6.3 10.85 6.3 5.2 0 9.9-3.27 11.72-8.14a.496.496 0 0 0-.46-.67c-.2 0-.39.12-.47.33-1.67 4.48-6 7.49-10.78 7.49-4.07 0-7.85-2.18-9.91-5.68l1.64.63a.503.503 0 1 0 .36-.94l-2.8-1.07a.6.6 0 0 0-.18-.03c-.2 0-.39.12-.47.32l-1.07 2.8c-.1.26.03.55.29.65Z" fill="#1b5951"/></g></svg>