<svg xmlns="http://www.w3.org/2000/svg" viewBox="0 0 40 40" focusable="false" aria-hidden="true"><path fill="none" d="M0 0h40v40H0z"/><g data-name="Icon Red"><path d="m14.799 13.342-.015.042a19.9 19.9 0 0 0-1.117 6.148l-.002.05h5.818v-5.606h-.049a21 21 0 0 1-4.59-.624ZM15.119 12.498l.056.013a20 20 0 0 0 4.257.567h.051V6.008h-.05l-.023.002-.015.003-.011.01a19.8 19.8 0 0 0-4.244 6.422ZM13.94 26.893l-.018-.05a20.7 20.7 0 0 1-1.151-6.315l-.001-.048H6.004l.002.052a13.86 13.86 0 0 0 3.202 8.394l.028.032.036-.022a20.8 20.8 0 0 1 4.618-2.029ZM12.768 19.534a20.8 20.8 0 0 1 1.146-6.383l.017-.05-.05-.015a20.8 20.8 0 0 1-4.625-2.036l-.036-.02-.027.032a13.85 13.85 0 0 0-3.191 8.469L6 19.582h6.767ZM33.75 22.634a14 14 0 0 0 .244-2.102l.002-.052h-6.925v.049a21 21 0 0 1-.349 3.264l.021-.004ZM26.176 19.532a19.9 19.9 0 0 0-1.107-6.144l-.015-.043-.044.01a21 21 0 0 1-4.58.62l-.049.001v5.606h5.796ZM24.68 12.514l.056-.013-.022-.054a19.8 19.8 0 0 0-4.238-6.432L20.452 6h-.07v7.08l.05-.002a20 20 0 0 0 4.247-.564M25.922 13.104l.017.05a20.8 20.8 0 0 1 1.136 6.38v.049H34l-.002-.052a13.85 13.85 0 0 0-3.239-8.522l-.028-.033-.036.022a20.7 20.7 0 0 1-4.723 2.092ZM14.27 27.777l-.016-.042-.044.013a20 20 0 0 0-4.3 1.86l-.055.032.044.045a14.07 14.07 0 0 0 8.018 4.136l.135.02-.09-.102a20.7 20.7 0 0 1-3.691-5.962M14.2 12.246l.043.012.017-.042a20.7 20.7 0 0 1 3.702-5.984l.09-.102-.135.019a14.06 14.06 0 0 0-8.034 4.154l-.044.046.055.031a20 20 0 0 0 4.306 1.865M25.593 12.22l.017.042.044-.013a20 20 0 0 0 4.406-1.92l.054-.032-.043-.046a14.07 14.07 0 0 0-8.145-4.127l-.133-.018.088.1a20.7 20.7 0 0 1 3.712 6.014M18.673 25.12l.809-.133h.001V20.48h-5.815l.001.05a19.9 19.9 0 0 0 1.123 6.08l.016.042.044-.01a21 21 0 0 1 3.006-.517.985.985 0 0 1 .815-1.005M17.972 27.015a20 20 0 0 0-2.787.468l-.056.014.022.053a19.7 19.7 0 0 0 3.904 6.03l-1.076-6.526ZM25.768 23.95a20 20 0 0 0 .404-3.42l.001-.05h-5.791v4.358Z" fill="#d9304c"/><path d="M35.61 23.34a1 1 0 0 0-1.15-.824l-.677.112-.033.006-7.006 1.155-.022.003-.934.155-.02.003-5.386.888-.9.148-.81.133a.985.985 0 0 0-.815 1.006c0 .013-.005.025-.005.037a1 1 0 0 0-.003.107l.123.746.006.039 1.077 6.526.012.077.246 1.493a1 1 0 0 0 1.15.824L36.25 33.37a1 1 0 0 0 .824-1.15Zm-13.285 3.547.675-.112.324 1.966a.667.667 0 0 1-.55.766l-.016.003Zm-.2-1.327a.667.667 0 0 1 .765.55l.002.007-1.004.166a.333.333 0 0 0-.275.383l.487 2.952-.645.106-.651-3.946Zm-2.632.434.653-.108.11.666-1.31.216-.002-.008a.666.666 0 0 1 .549-.766Zm.871 1.216.108.654-1.31.216-.109-.654Zm-.987 2.181-.107-.653 1.31-.216.217 1.31-.653.109a.667.667 0 0 1-.766-.55Zm15.57-3.918-.403.55-1.639-1.147-.68.927.942.66.422-.575.696.487-.826 1.126a.173.173 0 0 1-.236.039l-2.06-1.443a.163.163 0 0 1-.038-.23l1.489-2.028a.17.17 0 0 1 .235-.04l2.06 1.443a.163.163 0 0 1 .038.231Z" fill="#ffaca6"/><path d="M32.849 23.8a.17.17 0 0 0-.236.039l-1.488 2.028a.163.163 0 0 0 .038.23l2.06 1.443a.173.173 0 0 0 .236-.04l.826-1.125-.696-.487-.423.575-.942-.66.68-.927 1.64 1.147.403-.55a.163.163 0 0 0-.038-.23ZM21.455 29.725l.645-.107-.487-2.952a.333.333 0 0 1 .275-.383l1.004-.165-.002-.008a.667.667 0 0 0-.766-.55l-1.32.218ZM19.053 27.426l1.311-.216.108.655-1.31.216zM20.797 29.833l-.216-1.31-1.311.216.108.653a.667.667 0 0 0 .766.549Z" fill="#000d6e"/><path d="M22.775 29.507a.667.667 0 0 0 .55-.766L23 26.775l-.675.112.433 2.623ZM18.944 26.76v.008l1.312-.216-.11-.666-.653.108a.666.666 0 0 0-.55.766" fill="#000d6e"/></g></svg>