<svg xmlns="http://www.w3.org/2000/svg" viewBox="0 0 40 40" focusable="false" aria-hidden="true"><path fill="none" d="M0 0h40v40H0z"/><g data-name="Icon Green"><path d="M29 33h5v3.8a1.2 1.2 0 0 1-1.2 1.2h-2.6a1.2 1.2 0 0 1-1.2-1.2zM6 33h5v3.805c0 .66-.535 1.195-1.195 1.195h-2.61C6.535 38 6 37.465 6 36.805z" fill="#000d6e"/><path d="M2.74 10.002c-.41.007-.74.38-.74.842v3.312c0 .466.336.844.75.844h1.5c.414 0 .75-.378.75-.844v-3.312c0-.466-.336-.844-.75-.844h-.01zM35.74 10.002c-.41.007-.74.38-.74.842v3.312c0 .466.336.844.75.844h1.5c.414 0 .75-.378.75-.844v-3.312c0-.466-.336-.844-.75-.844h-.01zM31.636 3H8.041A2.04 2.04 0 0 0 6 5.047L6.003 6H6v26h28V5.362A2.363 2.363 0 0 0 31.636 3M11.002 4.985a1 1 0 0 1 1-1h15.996a1 1 0 0 1 1 1v1.03a1 1 0 0 1-1 1H12.002a1 1 0 0 1-1-1zM14 28c0 .552-.522 1-1.167 1H8.167C7.522 29 7 28.552 7 28v-1.82c0-.617.647-1.088 1.358-.986l4.667.667c.563.08.975.497.975.986zm19 0c0 .552-.522 1-1.167 1h-4.666C26.522 29 26 28.552 26 28v-1.153c0-.489.412-.906.975-.986l4.667-.667c.71-.102 1.358.369 1.358.986z" fill="#1b5951"/><path d="M8 8h24a1 1 0 0 1 1 1v7c0 2.208-1.792 4-4 4H11c-2.208 0-4-1.792-4-4V9a1 1 0 0 1 1-1" fill="#94e3d4"/></g></svg>