<svg xmlns="http://www.w3.org/2000/svg" viewBox="0 0 40 40" focusable="false" aria-hidden="true"><path fill="none" d="M0 0h40v40H0z"/><g data-name="Icon Purple"><path d="M27.072 33.559h-1.148l-.301-.939h-1.724l-.3.939h-1.156l.349-1.059h-.774c-.155.69-.83 1.15-1.87 1.15-.052 0-.096-.017-.148-.02V35h15.625l-.313-2.5h-8.587ZM20 18.5h5.857a9.3 9.3 0 0 0 .501-1.535 1 1 0 0 0 .256.035 1.39 1.39 0 0 0 1.194-1H20ZM20.737 32.5H20v.104a1 1 0 0 0 .26.037.7.7 0 0 0 .477-.141M20 24h3.502l-.004-2.356c.058-.045.112-.097.169-.144H20ZM20 28.615c.072-.006.14-.015.218-.015a1.73 1.73 0 0 1 1.644.9h1.918l.267-.81h1.428l.266.81h8.06a4 4 0 0 0-.704-.462L29.215 27H20ZM20 10.5h7V13h-7z" fill="#b8b2ff"/><path fill="none" d="M24 2"/><path d="M20 7.5h6.977a9.6 9.6 0 0 0-.49-2.5H20Z" fill="#b8b2ff"/><path d="M20 35v-1.37a1.81 1.81 0 0 1-1.764-1.263l1.107-.427a.87.87 0 0 0 .657.664V31.58c-.695-.217-1.554-.467-1.554-1.51A1.466 1.466 0 0 1 20 28.615V4.226A11.4 11.4 0 0 0 15.5 5 4.15 4.15 0 0 0 13 9v4.079A2.04 2.04 0 0 0 12 15c0 1.105.62 2 1.385 2a1 1 0 0 0 .4-.085 8.27 8.27 0 0 0 2.717 4.605v2.481l-9.599 5.037a4 4 0 0 0-2.168 3.078L4 38h16zm-6.552-3.353V28.69h1.177v2.95a.833.833 0 1 0 1.66 0v-2.95h1.17v2.956a1.87 1.87 0 0 1-1.997 2.003 1.878 1.878 0 0 1-2.01-2.003" fill="#000d6e"/><path d="M19.616 29.98c0 .211.154.339.384.44v-.806c-.251.043-.384.18-.384.366" fill="#000d6e"/><path fill="#6c2273" d="m35.813 36.5-.188-1.5H20v3h16zM22.053 32.185a1.4 1.4 0 0 1-.035.315h.774l.494-1.5.494-1.5h-1.918a1.4 1.4 0 0 1 .114.241l-1.1.427a.696.696 0 0 0-.714-.574 1 1 0 0 0-.162.02v.806a8 8 0 0 1 1.448.58 1.32 1.32 0 0 1 .605 1.185M24.416 31l-.215.667h1.113L25.102 31l-.341-1.069zM20.87 32.214c0-.354-.398-.486-.87-.634v.92h.737a.36.36 0 0 0 .132-.286M26.233 31l.492 1.5h8.587l-.048-.384a4.06 4.06 0 0 0-1.463-2.616h-8.06ZM26.358 25.5 23.502 24H20v3h9.215zM25.034 20a8.5 8.5 0 0 0 .823-1.5H20v3h3.667a7.3 7.3 0 0 0 1.367-1.5M28 15a3 3 0 0 0-.058-.5A1.84 1.84 0 0 0 27 13.079V13h-7v3h7.808A2.7 2.7 0 0 0 28 15M27 9V8l-.002-.108V7.88c-.003-.085-.01-.222-.02-.379H20v3h7ZM26 4a8 8 0 0 0-.361-.5A5.5 5.5 0 0 0 24 2s.08.838-1.116 1.5a7.1 7.1 0 0 1-2.789.725L20 4.226V5h6.487A4.7 4.7 0 0 0 26 4"/></g></svg>