<svg xmlns="http://www.w3.org/2000/svg" viewBox="0 0 40 40" focusable="false" aria-hidden="true"><path fill="none" d="M0 0h40v40H0z"/><g data-name="Icon Purple"><path d="M10 35.857c0 1.184.914 2.143 2.04 2.143h3.92c1.126 0 2.04-.96 2.04-2.143V32h-8z" fill="#000d6e"/><rect x="16.387106" y="7.736286" width="4.380084" height="5.840112" rx="1.460028" ry="1.460028" transform="translate(-.73023 19.9242) rotate(-55.481488)" fill="#6c2273"/><path fill="#b8b2ff" d="M10.635 2H2l.006 10H15z"/><path d="M21.064 6.235V8.24a.505.505 0 1 0 1.01 0V6.235a.505.505 0 1 0-1.01 0M23.119 10.238c0 .28.226.505.505.505h2.006a.505.505 0 1 0 0-1.01h-2.006a.505.505 0 0 0-.505.505M22.433 8.717a.505.505 0 1 0 .714.714l1.667-1.667a.503.503 0 0 0 0-.714.505.505 0 0 0-.714 0z" fill="#000d6e"/><path d="m25.238 16.927-.167.697-.716 3.005-.077.32c5.729 2.475 7.77 3.378 12.286 4.455L38 19.384c-6.02-1.437-5.493-.875-12.762-2.457" fill="#6c2273"/><path d="m25.071 17.624-.9-.236v.008a3.4 3.4 0 0 0-.758 1.466 3.4 3.4 0 0 0-.012 1.516l.954.25z" fill="#b8b2ff"/><path d="M23.413 18.862a3.4 3.4 0 0 1 .758-1.466v-.008l-.109-4.413c-.016-.65-.405-1.185-.96-1.317l-.616-.147-2.02 8.465 2.495.595a.48.48 0 0 0 .446-.14c-.004-.017-.002-.036-.006-.053a3.4 3.4 0 0 1 .012-1.516" fill="#000d6e"/><path d="M17.42 18.417 15.509 13H2v18h15.987L18 21.328c0-1-.197-1.988-.58-2.91M12.5 26.5a3 3 0 1 1 0-6 3 3 0 0 1 0 6" fill="#6c2273"/></g></svg>