<svg xmlns="http://www.w3.org/2000/svg" viewBox="0 0 40 40" focusable="false" aria-hidden="true"><path fill="none" d="M0 0h40v40H0z"/><g data-name="Icon Red"><path d="M36.17 21.03h-2.71a.5.5 0 0 1 0-1H36v-.01a1.003 1.003 0 0 0-1-1H10.59l-5.65 2.86a.955.955 0 0 1 0 1.91H4v2.16a1.003 1.003 0 0 0 1 1h1.977a4 4 0 0 1 8 0h11.964a4 4 0 0 1 8 0h1.169a.896.896 0 0 0 .9-.9Zm-16.644-.029h-2a.5.5 0 0 1 0-1h2a.5.5 0 0 1 0 1m11.055 0h-2a.5.5 0 0 1 0-1h2a.5.5 0 0 1 0 1" fill="#d9304c"/><path d="M29.922 11.001a1 1 0 0 0-1-1h-8.029c-1.635 0-3.935 1.326-3.935 2.961h12.964Z" fill="#000d6e"/><path d="M5.88 22.84a.95.95 0 0 0-.94-.96A2.08 2.08 0 0 0 4 23.79h.94a.95.95 0 0 0 .94-.95M10.977 23.952a3 3 0 1 0 3 3 3 3 0 0 0-3-3m0 4.5a1.5 1.5 0 1 1 1.5-1.5 1.5 1.5 0 0 1-1.5 1.5" fill="#ffaca6"/><circle cx="10.977" cy="26.9518" r="1.5" fill="#000d6e"/><path d="M30.94 23.952a3 3 0 1 0 3 3 3 3 0 0 0-3-3m0 4.5a1.5 1.5 0 1 1 1.5-1.5 1.5 1.5 0 0 1-1.5 1.5" fill="#ffaca6"/><circle cx="30.9407" cy="26.9518" r="1.5" fill="#000d6e"/><path d="M32.96 20.53a.495.495 0 0 0 .5.5h2.71l-.17-1h-2.54a.495.495 0 0 0-.5.5M19.526 20.001h-2a.5.5 0 0 0 0 1h2a.5.5 0 0 0 0-1M30.581 20.001h-2a.5.5 0 0 0 0 1h2a.5.5 0 0 0 0-1M15.83 15.62a2.8 2.8 0 0 1 1.79-.65h12.07L31.2 18h1.75l-1.78-3.49a.6.6 0 0 0-.08-.13.2.2 0 0 0-.03-.05.8.8 0 0 0-.5-.36 2 2 0 0 0-.23 0H17.62a3.78 3.78 0 0 0-2.44.89L11.62 18h1.52Z" fill="#ffaca6"/></g></svg>