<svg xmlns="http://www.w3.org/2000/svg" viewBox="0 0 40 40" focusable="false" aria-hidden="true"><path fill="none" d="M0 0h40v40H0z"/><g data-name="Icon Tangerine"><path d="M33.36 10H6.64A2.64 2.64 0 0 0 4 12.64v14.72A2.64 2.64 0 0 0 6.64 30h26.72A2.64 2.64 0 0 0 36 27.36V12.64A2.64 2.64 0 0 0 33.36 10M9.464 26.741a.5.5 0 0 1-.707 0 6 6 0 0 1 0-8.485.5.5 0 0 1 .707.707 5 5 0 0 0 0 7.071.5.5 0 0 1 0 .707m1.421-1.407a.5.5 0 0 1-.707 0 4.007 4.007 0 0 1 0-5.667.5.5 0 1 1 .707.707 3.007 3.007 0 0 0 0 4.253.5.5 0 0 1 0 .707m1.414-2.121a.5.5 0 1 1-.707.707 2.01 2.01 0 0 1 0-2.839.5.5 0 0 1 .707.707 1.01 1.01 0 0 0 0 1.425m20.613-6.498-.867.867-2.543-2.542-1.462 1.462 1.463 1.463.906-.907 1.08 1.08-1.774 1.774a.3.3 0 0 1-.425 0l-3.197-3.197a.3.3 0 0 1 0-.425l3.197-3.197a.3.3 0 0 1 .425 0l3.197 3.197a.3.3 0 0 1 0 .425" fill="#fae052"/><path d="M8 22.499a4.97 4.97 0 0 1 1.464-3.536.5.5 0 0 0-.707-.707 6 6 0 0 0 0 8.485.5.5 0 0 0 .707-.707A4.97 4.97 0 0 1 8 22.5" fill="#fa9319"/><path d="M10.004 22.5a2.99 2.99 0 0 1 .881-2.126.5.5 0 1 0-.707-.707 4.007 4.007 0 0 0 0 5.667.5.5 0 0 0 .707-.707 3 3 0 0 1-.88-2.127" fill="#fa9319"/><path d="M12.3 21.081a.5.5 0 0 0-.708 0 2.01 2.01 0 0 0 0 2.839.5.5 0 1 0 .707-.707 1.01 1.01 0 0 1 0-1.425.5.5 0 0 0 0-.707" fill="#fa9319"/><path d="M29.715 13.093a.3.3 0 0 0-.425 0l-3.197 3.197a.3.3 0 0 0 0 .425l3.197 3.197a.3.3 0 0 0 .425 0l1.774-1.774-1.08-1.08-.907.907-1.462-1.463 1.462-1.462 2.543 2.542.867-.867a.3.3 0 0 0 0-.425Z" fill="#000d6e"/></g></svg>