<svg version="1.1" xmlns="http://www.w3.org/2000/svg" x="0px" y="0px" viewBox="0 0 40 40" xml:space="preserve" focusable="false" aria-hidden="true" enable-background="new 0 0 40 40"><path fill="none" d="M0 0h40v40H0z"/><g><path d="M27.067 3.229a20.94 20.94 0 0 0-14.135 0L5 6.079v15.816C5 29.52 14.491 36.989 20.002 37 25.51 36.989 35 29.52 35 21.894V6.079z" fill="#94E3D4"/><path d="M18.653 24.585c.013.013.03.016.042.028.011.01.015.025.026.035.085.076.185.117.281.17.054.029.1.073.157.095.172.067.352.105.533.105.194 0 .387-.042.569-.119.065-.028.117-.081.178-.118.097-.059.201-.105.285-.189.011-.011.014-.026.025-.037.012-.012.028-.016.04-.029l7.29-8.229a1.467 1.467 0 0 0-.124-2.069 1.464 1.464 0 0 0-2.067.123l-6.254 7.06-3.027-3.051a1.464 1.464 0 0 0-2.071-.006 1.464 1.464 0 0 0-.009 2.071z" fill="#000D6E"/></g></svg>