<svg xmlns="http://www.w3.org/2000/svg" viewBox="0 0 40 40" focusable="false" aria-hidden="true"><path fill="none" d="M0 0h40v40H0z"/><g><path d="m8.91 31.02 21.33-1c.14-.01.27-.02.42-.02-.14 0-.28 0-.42.02Zm.42-.02c.15 0 .29.01.42.02-.14-.01-.28-.02-.42-.02m-21.76.02c.14-.01.27-.02.42-.02-.14 0-.28 0-.42.02m21.33 1c.14-.01.27-.02.42-.02-.14 0-.28 0-.42.02m.42-.02c.15 0 .29.01.42.02-.14-.01-.28-.02-.42-.02m5.33 1c-.15 0-.29-.01-.42-.02.14.01.28.02.42.02m0 1c-.15 0-.29 0-.42-.02.14.01.28.02.42.02" fill="none"/><path d="M19.58 31.02c.14-.01.28-.02.42-.02-.14 0-.28 0-.42.02M20 31c.15 0 .29.01.42.02-.14-.01-.28-.02-.42-.02m4.91 1.98c.14.01.28.02.42.02-.15 0-.29 0-.42-.02m.42.02c.14 0 .28 0 .42-.02-.14 0-.27.02-.42.02m-11.09-.02c.14.01.28.02.43.02-.15 0-.29 0-.43-.02m0-1c.14.01.28.02.43.02-.15 0-.29-.01-.43-.02m5.33-1.96c.14-.01.28-.02.42-.02-.14 0-.28 0-.42.02M14.66 32c.14 0 .28 0 .42-.02-.14.01-.28.02-.42.02m0 1c.14 0 .28 0 .42-.02-.14.01-.28.02-.42.02m-5.41-2h.07zm16.07 1c.14 0 .28 0 .42-.02-.14.01-.27.02-.42.02m-5.33-2c.15 0 .29.01.42.02-.14-.01-.28-.02-.42-.02m4.91 1.98c.14.01.28.02.42.02-.15 0-.29-.01-.42-.02" fill="#c1b2e8"/><path d="M35.58 31.98c-.94-.08-1.83-.46-2.54-1.08a3.53 3.53 0 0 0-1.94-.88c-.14-.01-.27-.02-.42-.02s-.29.01-.42.02c-.3.03-.6.1-.88.22-.38.17-.74.4-1.07.66-.71.62-1.6 1-2.54 1.08-.28.03-.57.03-.85 0-.94-.08-1.83-.46-2.54-1.08a3.53 3.53 0 0 0-1.94-.88c-.14-.01-.27-.02-.42-.02s-.29.01-.42.02c-.72.09-1.4.39-1.94.88-.71.62-1.6 1-2.54 1.08-.28.03-.57.03-.85 0-.94-.08-1.83-.46-2.54-1.08a3.53 3.53 0 0 0-1.94-.88c-.14-.01-.27-.02-.43-.02s-.29.01-.42.02c-.72.09-1.4.39-1.95.88-.71.62-1.6 1-2.54 1.08-.13.01-.27.02-.42.02v1c.15 0 .29 0 .42-.02.94-.08 1.83-.46 2.54-1.08a3.53 3.53 0 0 1 1.94-.88c.11-.01.23-.02.35-.02h.07c.15 0 .29 0 .43.02.72.09 1.4.39 1.94.88.71.62 1.6 1 2.54 1.08.14 0 .27.02.42.02s.29 0 .42-.02c.94-.08 1.83-.46 2.54-1.08a3.53 3.53 0 0 1 1.94-.88c.28-.03.57-.03.85 0 .72.09 1.4.39 1.94.88.71.62 1.6 1 2.54 1.08.14.01.27.02.42.02s.29 0 .42-.02c.94-.08 1.83-.46 2.54-1.08.31-.25.64-.46 1-.63.3-.13.62-.22.95-.25.28-.03.57-.03.85 0 .72.09 1.4.39 1.94.88.71.62 1.6 1 2.54 1.08.14.01.27.02.42.02v-1c-.14 0-.28 0-.42-.02Z" fill="#6c2273"/><path d="M35.79 20.91a.94.94 0 0 0-.86-1.01l-3.73-.29a.94.94 0 0 0-1.01.86l-.29 3.73-18.67-1.45.29-3.73a.94.94 0 0 0-.86-1.01l-3.73-.29a.94.94 0 0 0-1.01.86l-.94 12.13.47.04a4.8 4.8 0 0 0 1.52-.85c.54-.49 1.22-.79 1.95-.88.14 0 .27-.02.42-.02s.29.01.43.02c.72.09 1.4.39 1.94.88.71.62 1.6 1 2.54 1.08.28.03.57.03.85 0 .94-.08 1.83-.46 2.54-1.08a3.53 3.53 0 0 1 1.94-.88c.14 0 .27-.02.42-.02s.29.01.42.02c.72.09 1.4.39 1.94.88.71.62 1.6 1 2.54 1.08.28.03.57.03.85 0 .94-.08 1.83-.46 2.54-1.08.33-.27.68-.49 1.07-.66.28-.12.57-.19.88-.22.14 0 .28-.02.42-.02s.29.01.42.02c.72.09 1.4.39 1.94.88.57.49 1.25.83 1.98.99l.78-9.98Z" fill="#b8b2ff"/><path d="M28.98 5.49s3 3.68 3 5.4-1.34 3.1-3 3.1-3-1.39-3-3.1 3-5.4 3-5.4" fill="#000d6e"/><path d="M32.52 12.81c-.68 1.3-2 2.21-3.54 2.21-1.97 0-3.61-1.47-3.95-3.39l-12.85-1a2.81 2.81 0 0 0-3.02 2.58l-.29 3.73 1.87.15c1.03.08 1.8.98 1.72 2.01l-.22 2.8 16.8 1.31.22-2.8c.08-1.03.98-1.8 2.01-1.72l1.87.15.29-3.73c.07-.9-.3-1.72-.91-2.28Z" fill="#6c2273"/></g></svg>