<svg width="30" height="30" viewBox="0 0 30 30" fill="none" xmlns="http://www.w3.org/2000/svg">
<path d="M24 23.5H19.7C19.4 23.5 19.2 23.3 19.2 23V17C19.2 16.3 18.7 15.8 18 15.8C17.3 15.8 16.8 16.3 16.8 17V23C16.8 23.3 16.6 23.5 16.3 23.5H12C11.9 23.5 11.7 23.4 11.6 23.4C11.5 23.3 11.5 23.2 11.5 23C11.5 19.5 11.5 12.6 11.5 11.9C11.5 11.8 11.5 11.6 11.6 11.5C11.7 11.4 11.8 11.3 12 11.3H16.3C16.6 11.3 16.8 11.5 16.8 11.8V12.1C17.4 11.7 18.4 11.3 19.7 11.3C22.7 11.3 24.5 13.6 24.5 17.2V23C24.5 23.3 24.3 23.5 24 23.5ZM20.2 22.5H23.5V17.3C23.5 14.2 22.1 12.4 19.7 12.4C17.9 12.4 16.7 13.5 16.7 13.5C16.6 13.6 16.3 13.7 16.2 13.6C16 13.5 15.9 13.3 15.9 13.1V12.3H12.6C12.6 14.3 12.6 20.6 12.6 22.4H15.9V17C15.9 15.8 16.9 14.8 18.1 14.8C19.3 14.8 20.3 15.8 20.3 17V22.5H20.2ZM10.3 23.5H6C5.7 23.5 5.5 23.3 5.5 23V11.9C5.5 11.6 5.7 11.4 6 11.4H10.3C10.6 11.4 10.8 11.6 10.8 11.9V23C10.8 23.3 10.6 23.5 10.3 23.5ZM6.5 22.5H9.8V12.4H6.5V22.5ZM8.2 10.7C6.7 10.7 5.5 9.5 5.5 8.1C5.5 6.6 6.7 5.5 8.2 5.5C9.7 5.5 10.8 6.6 10.9 8.1C10.8 9.6 9.7 10.7 8.2 10.7ZM8.2 6.5C7.2 6.5 6.5 7.1 6.5 8.1C6.5 8.9 7.1 9.7 8.1 9.7C9.2 9.7 9.8 8.9 9.8 8.1C9.8 7.3 9.3 6.5 8.2 6.5Z" fill="black"/>
</svg>
