<svg width="30" height="30" viewBox="0 0 30 30" fill="none" xmlns="http://www.w3.org/2000/svg">
<g clip-path="url(#clip0)">
<path d="M29.4194 26.5161L20.129 17.2258C21.2903 15.4839 22.0645 13.3548 22.0645 11.0323C22.0645 5.03226 17.2258 0 11.0323 0C5.03226 0 0 4.83871 0 11.0323C0 17.0323 4.83871 22.0645 11.0323 22.0645C13.3548 22.0645 15.4839 21.2903 17.2258 20.129L26.5161 29.4194C26.9032 29.8065 27.4839 30 27.871 30C28.2581 30 28.8387 29.8065 29.2258 29.4194C30.1935 28.4516 30.1935 27.2903 29.4194 26.5161ZM4.06452 11.0323C4.06452 7.16129 7.16129 3.87097 11.2258 3.87097C15.0968 3.87097 18.3871 6.96774 18.3871 11.0323C18.3871 14.9032 15.2903 18.1936 11.2258 18.1936C7.16129 18 4.06452 14.9032 4.06452 11.0323Z" fill="black"/>
</g>
<defs>
<clipPath id="clip0">
<rect width="30" height="30" fill="white"/>
</clipPath>
</defs>
</svg>
