<svg width="30" height="30" viewBox="0 0 30 30" fill="none" xmlns="http://www.w3.org/2000/svg">
<path d="M23.7313 14.2836C17.7612 9.20896 8.80597 9.20896 4.92537 9.50746L10.2985 3.53731C10.8955 2.9403 10.8955 2.04478 10.2985 1.44776C9.70149 0.850746 8.80597 0.850746 8.20896 1.44776L0.447761 10.403C-0.149254 11 -0.149254 11.8955 0.447761 12.4925L8.80597 21.1493C9.10448 21.4478 9.40299 21.7463 10 21.7463C10.2985 21.7463 10.597 21.7463 10.8955 21.4478C11.4925 20.8508 11.4925 19.9552 10.8955 19.3582L4.92537 13.0896C8.20896 12.791 16.8657 12.4925 22.2388 16.9702C25.2239 19.3582 27.0149 23.2388 27.0149 28.0149C27.0149 28.9104 27.6119 29.5075 28.5075 29.5075C29.403 29.5075 30 28.9104 30 28.0149C29.403 21.7463 27.6119 17.2687 23.7313 14.2836Z" fill="black"/>
</svg>
