<svg width="30" height="30" viewBox="0 0 30 30" fill="none" xmlns="http://www.w3.org/2000/svg">
<path d="M7.57143 27.7143C7.42857 27.7143 7.42857 27.7143 7.28572 27.5714C7 27.4286 6.85714 27.1429 6.85714 27V23H0.714286C0.285714 23 0 22.7143 0 22.2857V2.71429C0 2.28571 0.285714 2 0.714286 2H29.2857C29.7143 2 30 2.28571 30 2.71429V22.2857C30 22.7143 29.7143 23 29.2857 23H14L8 27.5714C7.85714 27.7143 7.71429 27.7143 7.57143 27.7143ZM1.42857 21.5714H7.57143C8 21.5714 8.28571 21.8571 8.28571 22.2857V25.5714L13.2857 21.7143C13.4286 21.5714 13.5714 21.5714 13.7143 21.5714H28.5714V3.42857H1.42857V21.5714Z" fill="black"/>
<path d="M8.28572 13C8.28572 13.7143 8.85715 14.2857 9.57143 14.2857C10.2857 14.2857 10.8571 13.7143 10.8571 13C10.8571 12.2857 10.2857 11.7143 9.57143 11.7143C8.85715 11.7143 8.28572 12.2857 8.28572 13ZM14 13C14 13.7143 14.5714 14.2857 15.2857 14.2857C16 14.2857 16.5714 13.7143 16.5714 13C16.5714 12.2857 16 11.7143 15.2857 11.7143C14.5714 11.7143 14 12.2857 14 13ZM19.7143 13C19.7143 13.7143 20.2857 14.2857 21 14.2857C21.7143 14.2857 22.2857 13.7143 22.2857 13C22.2857 12.2857 21.7143 11.7143 21 11.7143C20.2857 11.7143 19.7143 12.2857 19.7143 13Z" fill="black"/>
</svg>
