<?xml version="1.0" encoding="UTF-8"?>
<svg width="24px" height="25px" viewBox="0 0 24 25" version="1.1" xmlns="http://www.w3.org/2000/svg" xmlns:xlink="http://www.w3.org/1999/xlink">
    <!-- Generator: Sketch 52.3 (67297) - http://www.bohemiancoding.com/sketch -->
    <title>icon-print</title>
    <desc>Created with Sketch.</desc>
    <g id="Page-1" stroke="none" stroke-width="1" fill="none" fill-rule="evenodd">
        <g id="icon-print" transform="translate(1.000000, 2.000000)" fill="#003399" fill-rule="nonzero">
            <polygon id="Path-22" points="19.9469013 8.56222036 19.9469013 7.56222036 22.5 7.56222036 22.5 17.5 -0.5 17.5 -0.5 7.55724911 2.03983617 7.55724911 2.03983617 8.55724911 0.5 8.55724911 0.5 16.5 21.5 16.5 21.5 8.56222036"></polygon>
            <g id="Group" transform="translate(5.000000, 0.000000)">
                <path d="M4.5,1.20710678 L1.20710678,4.5 L4.5,4.5 L4.5,1.20710678 Z M5.5,5.5 L-1.20710678,5.5 L5.5,-1.20710678 L5.5,5.5 Z" id="Rectangle"></path>
                <polygon id="Path-23" points="11.5 0.5 5.01684509 0.5 5.01684509 -0.5 12.5 -0.5 12.5 11.5 -0.5 11.5 -0.5 5.02450622 0.5 5.02450622 0.5 10.5 11.5 10.5"></polygon>
            </g>
            <path d="M5.5,17.5 L5.5,21.5 L16.5,21.5 L16.5,17.5 L5.5,17.5 Z M17.5,16.5 L17.5,22.5 L4.5,22.5 L4.5,16.5 L17.5,16.5 Z" id="Rectangle-29"></path>
            <polygon id="Line" points="9.5 9 9.5 8 14.5 8 14.5 9"></polygon>
            <polygon id="Line-Copy" points="11.5 7 11.5 6 14.5 6 14.5 7"></polygon>
        </g>
    </g>
</svg>