<svg width="1904" height="588" viewBox="0 0 1904 588" fill="none" xmlns="http://www.w3.org/2000/svg">
<rect width="1904" height="588" fill="#F6F6F6"/>
<g filter="url(#filter0_d_2645_17321)">
<rect x="260" y="64" width="440" height="214" rx="12" fill="white"/>
</g>
<g clip-path="url(#clip0_2645_17321)">
<line x1="700.5" y1="171" x2="700.5" y2="163" stroke="#E8178A"/>
<line x1="700.016" y1="167.5" x2="732.016" y2="167.5" stroke="#E8178A"/>
<line x1="731.5" y1="171" x2="731.5" y2="163" stroke="#E8178A"/>
</g>
<rect opacity="0.2" x="700" y="64" width="32" height="214" fill="#E8178A"/>
<path d="M704.438 182.032V183.134H705.276C705.519 183.134 705.737 183.163 705.933 183.222C706.132 183.277 706.302 183.361 706.442 183.474C706.583 183.591 706.69 183.738 706.765 183.913C706.839 184.089 706.876 184.3 706.876 184.546C706.876 184.765 706.843 184.96 706.776 185.132C706.714 185.3 706.622 185.441 706.501 185.554C706.376 185.675 706.222 185.767 706.038 185.829C705.858 185.888 705.655 185.917 705.429 185.917C705.218 185.917 705.024 185.886 704.849 185.823C704.677 185.761 704.528 185.673 704.403 185.56C704.274 185.45 704.175 185.318 704.105 185.161C704.038 185.001 704.005 184.827 704.005 184.64H702.605C702.605 185.038 702.681 185.388 702.833 185.689C702.989 185.986 703.196 186.236 703.454 186.439C703.712 186.642 704.011 186.794 704.351 186.896C704.69 186.997 705.044 187.048 705.411 187.048C705.817 187.048 706.194 186.993 706.542 186.884C706.894 186.771 707.198 186.607 707.456 186.392C707.71 186.181 707.909 185.921 708.054 185.613C708.202 185.3 708.276 184.945 708.276 184.546C708.276 184.331 708.251 184.124 708.2 183.925C708.149 183.722 708.067 183.532 707.954 183.357C707.841 183.185 707.694 183.031 707.515 182.894C707.339 182.753 707.124 182.64 706.87 182.554C707.085 182.456 707.272 182.337 707.433 182.197C707.593 182.056 707.726 181.906 707.831 181.745C707.937 181.581 708.015 181.411 708.065 181.236C708.12 181.06 708.147 180.884 708.147 180.708C708.147 180.31 708.081 179.96 707.948 179.659C707.815 179.359 707.628 179.105 707.386 178.898C707.147 178.695 706.858 178.542 706.519 178.441C706.183 178.335 705.813 178.282 705.411 178.282C705.017 178.282 704.653 178.341 704.321 178.458C703.993 178.575 703.708 178.738 703.466 178.945C703.224 179.156 703.034 179.404 702.897 179.689C702.761 179.974 702.692 180.286 702.692 180.626H704.093C704.093 180.443 704.126 180.277 704.192 180.128C704.263 179.98 704.358 179.853 704.48 179.747C704.597 179.642 704.735 179.562 704.896 179.507C705.06 179.448 705.237 179.419 705.429 179.419C705.644 179.419 705.833 179.448 705.997 179.507C706.165 179.566 706.304 179.648 706.413 179.753C706.522 179.866 706.605 180.003 706.659 180.163C706.718 180.323 706.747 180.505 706.747 180.708C706.747 180.896 706.716 181.072 706.653 181.236C706.595 181.396 706.509 181.531 706.396 181.64C706.274 181.765 706.12 181.863 705.933 181.933C705.745 181.999 705.526 182.032 705.276 182.032H704.438ZM715.475 186.931V185.8H711.502L713.401 183.773C713.651 183.507 713.881 183.249 714.092 182.999C714.307 182.749 714.492 182.501 714.649 182.255C714.801 182.009 714.92 181.761 715.006 181.511C715.096 181.257 715.141 180.995 715.141 180.726C715.141 180.366 715.082 180.038 714.965 179.741C714.848 179.441 714.678 179.183 714.455 178.968C714.229 178.753 713.949 178.585 713.617 178.464C713.289 178.343 712.916 178.282 712.498 178.282C712.053 178.282 711.649 178.355 711.285 178.499C710.926 178.644 710.621 178.839 710.371 179.085C710.117 179.331 709.922 179.62 709.785 179.952C709.649 180.281 709.58 180.63 709.58 181.001H710.986C710.986 180.755 711.018 180.536 711.08 180.345C711.143 180.15 711.236 179.984 711.361 179.847C711.483 179.718 711.635 179.618 711.818 179.548C712.002 179.478 712.219 179.443 712.469 179.443C712.664 179.443 712.84 179.476 712.996 179.542C713.156 179.609 713.293 179.7 713.406 179.818C713.52 179.935 713.606 180.075 713.664 180.24C713.723 180.404 713.752 180.585 713.752 180.784C713.752 180.933 713.731 181.081 713.688 181.23C713.649 181.374 713.582 181.531 713.488 181.698C713.391 181.866 713.264 182.052 713.108 182.255C712.951 182.454 712.758 182.681 712.527 182.935L709.75 185.958V186.931H715.475ZM717.142 189.368H718.542V186.357C718.616 186.439 718.697 186.515 718.782 186.585C718.868 186.656 718.958 186.718 719.052 186.773C719.212 186.863 719.386 186.931 719.573 186.978C719.765 187.025 719.974 187.048 720.2 187.048C720.599 187.048 720.952 186.966 721.261 186.802C721.57 186.638 721.829 186.411 722.04 186.122C722.251 185.837 722.409 185.497 722.515 185.103C722.624 184.708 722.679 184.282 722.679 183.825V183.702C722.679 183.226 722.624 182.79 722.515 182.396C722.406 181.997 722.247 181.656 722.04 181.37C721.829 181.085 721.568 180.865 721.255 180.708C720.947 180.552 720.589 180.474 720.183 180.474C719.976 180.474 719.781 180.497 719.597 180.544C719.413 180.587 719.245 180.65 719.093 180.732C718.976 180.794 718.866 180.868 718.765 180.954C718.663 181.04 718.57 181.136 718.484 181.241L718.431 180.591H717.142V189.368ZM721.279 183.702V183.825C721.279 184.107 721.251 184.374 721.197 184.628C721.142 184.878 721.054 185.101 720.933 185.296C720.816 185.488 720.663 185.64 720.476 185.753C720.292 185.863 720.07 185.917 719.808 185.917C719.648 185.917 719.501 185.9 719.368 185.865C719.236 185.825 719.116 185.775 719.011 185.712C718.909 185.646 718.82 185.568 718.741 185.478C718.663 185.388 718.597 185.288 718.542 185.179V182.361C718.605 182.243 718.677 182.138 718.759 182.044C718.845 181.95 718.945 181.872 719.058 181.81C719.156 181.751 719.267 181.706 719.392 181.675C719.517 181.644 719.652 181.628 719.796 181.628C720.058 181.628 720.282 181.683 720.47 181.792C720.657 181.902 720.812 182.05 720.933 182.238C721.05 182.425 721.136 182.646 721.191 182.9C721.249 183.15 721.279 183.417 721.279 183.702ZM727 182.724L725.5 180.591H723.959L726.18 183.714L723.883 186.931H725.436L727.012 184.716L728.594 186.931H730.141L727.844 183.714L730.071 180.591H728.518L727 182.724Z" fill="#E8178A"/>
<g filter="url(#filter1_d_2645_17321)">
<rect x="732" y="64" width="440" height="214" rx="12" fill="white"/>
</g>
<rect opacity="0.2" x="1172" y="64" width="32" height="214" fill="#E8178A"/>
<g filter="url(#filter2_d_2645_17321)">
<rect x="1204" y="64" width="440" height="214" rx="12" fill="white"/>
</g>
<g clip-path="url(#clip1_2645_17321)">
<line x1="369.544" y1="278.5" x2="390.472" y2="278.5" stroke="#E8178A"/>
<line x1="379.044" y1="310.016" x2="379.044" y2="278.016" stroke="#E8178A"/>
<line x1="369.544" y1="309.5" x2="390.472" y2="309.5" stroke="#E8178A"/>
</g>
<rect opacity="0.2" x="260" y="278" width="1384" height="32" fill="#E8178A"/>
<path d="M337.886 294.102V295.203H338.724C338.966 295.203 339.185 295.232 339.38 295.291C339.58 295.346 339.749 295.43 339.89 295.543C340.031 295.66 340.138 295.807 340.212 295.982C340.287 296.158 340.324 296.369 340.324 296.615C340.324 296.834 340.291 297.029 340.224 297.201C340.162 297.369 340.07 297.51 339.949 297.623C339.824 297.744 339.669 297.836 339.486 297.898C339.306 297.957 339.103 297.986 338.876 297.986C338.666 297.986 338.472 297.955 338.296 297.893C338.124 297.83 337.976 297.742 337.851 297.629C337.722 297.52 337.623 297.387 337.552 297.23C337.486 297.07 337.453 296.896 337.453 296.709H336.052C336.052 297.107 336.128 297.457 336.281 297.758C336.437 298.055 336.644 298.305 336.902 298.508C337.16 298.711 337.458 298.863 337.798 298.965C338.138 299.066 338.492 299.117 338.859 299.117C339.265 299.117 339.642 299.062 339.99 298.953C340.341 298.84 340.646 298.676 340.904 298.461C341.158 298.25 341.357 297.99 341.501 297.682C341.65 297.369 341.724 297.014 341.724 296.615C341.724 296.4 341.699 296.193 341.648 295.994C341.597 295.791 341.515 295.602 341.402 295.426C341.289 295.254 341.142 295.1 340.962 294.963C340.787 294.822 340.572 294.709 340.318 294.623C340.533 294.525 340.72 294.406 340.88 294.266C341.041 294.125 341.173 293.975 341.279 293.814C341.384 293.65 341.462 293.48 341.513 293.305C341.568 293.129 341.595 292.953 341.595 292.777C341.595 292.379 341.529 292.029 341.396 291.729C341.263 291.428 341.076 291.174 340.833 290.967C340.595 290.764 340.306 290.611 339.966 290.51C339.63 290.404 339.261 290.352 338.859 290.352C338.464 290.352 338.101 290.41 337.769 290.527C337.441 290.645 337.156 290.807 336.914 291.014C336.671 291.225 336.482 291.473 336.345 291.758C336.208 292.043 336.14 292.355 336.14 292.695H337.541C337.541 292.512 337.574 292.346 337.64 292.197C337.71 292.049 337.806 291.922 337.927 291.816C338.044 291.711 338.183 291.631 338.343 291.576C338.507 291.518 338.685 291.488 338.876 291.488C339.091 291.488 339.281 291.518 339.445 291.576C339.613 291.635 339.751 291.717 339.861 291.822C339.97 291.936 340.052 292.072 340.107 292.232C340.166 292.393 340.195 292.574 340.195 292.777C340.195 292.965 340.164 293.141 340.101 293.305C340.042 293.465 339.957 293.6 339.843 293.709C339.722 293.834 339.568 293.932 339.38 294.002C339.193 294.068 338.974 294.102 338.724 294.102H337.886ZM348.922 299V297.869H344.95L346.848 295.842C347.098 295.576 347.329 295.318 347.54 295.068C347.754 294.818 347.94 294.57 348.096 294.324C348.249 294.078 348.368 293.83 348.454 293.58C348.544 293.326 348.588 293.064 348.588 292.795C348.588 292.436 348.53 292.107 348.413 291.811C348.296 291.51 348.126 291.252 347.903 291.037C347.676 290.822 347.397 290.654 347.065 290.533C346.737 290.412 346.364 290.352 345.946 290.352C345.501 290.352 345.096 290.424 344.733 290.568C344.374 290.713 344.069 290.908 343.819 291.154C343.565 291.4 343.37 291.689 343.233 292.021C343.096 292.35 343.028 292.699 343.028 293.07H344.434C344.434 292.824 344.465 292.605 344.528 292.414C344.59 292.219 344.684 292.053 344.809 291.916C344.93 291.787 345.083 291.688 345.266 291.617C345.45 291.547 345.667 291.512 345.917 291.512C346.112 291.512 346.288 291.545 346.444 291.611C346.604 291.678 346.741 291.77 346.854 291.887C346.967 292.004 347.053 292.145 347.112 292.309C347.171 292.473 347.2 292.654 347.2 292.854C347.2 293.002 347.178 293.15 347.135 293.299C347.096 293.443 347.03 293.6 346.936 293.768C346.838 293.936 346.712 294.121 346.555 294.324C346.399 294.523 346.206 294.75 345.975 295.004L343.198 298.027V299H348.922ZM350.59 301.438H351.99V298.426C352.064 298.508 352.144 298.584 352.23 298.654C352.316 298.725 352.406 298.787 352.5 298.842C352.66 298.932 352.834 299 353.021 299.047C353.213 299.094 353.422 299.117 353.648 299.117C354.047 299.117 354.4 299.035 354.709 298.871C355.017 298.707 355.277 298.48 355.488 298.191C355.699 297.906 355.857 297.566 355.963 297.172C356.072 296.777 356.127 296.352 356.127 295.895V295.771C356.127 295.295 356.072 294.859 355.963 294.465C355.853 294.066 355.695 293.725 355.488 293.439C355.277 293.154 355.015 292.934 354.703 292.777C354.394 292.621 354.037 292.543 353.631 292.543C353.424 292.543 353.228 292.566 353.045 292.613C352.861 292.656 352.693 292.719 352.541 292.801C352.424 292.863 352.314 292.938 352.213 293.023C352.111 293.109 352.017 293.205 351.931 293.311L351.879 292.66H350.59V301.438ZM354.726 295.771V295.895C354.726 296.176 354.699 296.443 354.644 296.697C354.59 296.947 354.502 297.17 354.381 297.365C354.263 297.557 354.111 297.709 353.924 297.822C353.74 297.932 353.517 297.986 353.256 297.986C353.095 297.986 352.949 297.969 352.816 297.934C352.683 297.895 352.564 297.844 352.459 297.781C352.357 297.715 352.267 297.637 352.189 297.547C352.111 297.457 352.045 297.357 351.99 297.248V294.43C352.052 294.312 352.125 294.207 352.207 294.113C352.293 294.02 352.392 293.941 352.506 293.879C352.603 293.82 352.715 293.775 352.84 293.744C352.965 293.713 353.099 293.697 353.244 293.697C353.506 293.697 353.73 293.752 353.918 293.861C354.105 293.971 354.259 294.119 354.381 294.307C354.498 294.494 354.584 294.715 354.638 294.969C354.697 295.219 354.726 295.486 354.726 295.771ZM360.448 294.793L358.948 292.66H357.407L359.628 295.783L357.331 299H358.884L360.46 296.785L362.042 299H363.589L361.292 295.783L363.518 292.66H361.966L360.448 294.793Z" fill="#E8178A"/>
<g filter="url(#filter3_d_2645_17321)">
<rect x="260" y="310" width="440" height="214" rx="12" fill="white"/>
</g>
<rect opacity="0.2" x="700" y="310" width="32" height="214" fill="#E8178A"/>
<g filter="url(#filter4_d_2645_17321)">
<rect x="732" y="310" width="440" height="214" rx="12" fill="white"/>
</g>
<rect opacity="0.2" x="1172" y="310" width="32" height="214" fill="#E8178A"/>
<g filter="url(#filter5_d_2645_17321)">
<rect x="1204" y="310" width="440" height="214" rx="12" fill="white"/>
</g>
<defs>
<filter id="filter0_d_2645_17321" x="245" y="54" width="470" height="244" filterUnits="userSpaceOnUse" color-interpolation-filters="sRGB">
<feFlood flood-opacity="0" result="BackgroundImageFix"/>
<feColorMatrix in="SourceAlpha" type="matrix" values="0 0 0 0 0 0 0 0 0 0 0 0 0 0 0 0 0 0 127 0" result="hardAlpha"/>
<feOffset dy="5"/>
<feGaussianBlur stdDeviation="7.5"/>
<feColorMatrix type="matrix" values="0 0 0 0 0 0 0 0 0 0 0 0 0 0 0 0 0 0 0.1 0"/>
<feBlend mode="normal" in2="BackgroundImageFix" result="effect1_dropShadow_2645_17321"/>
<feBlend mode="normal" in="SourceGraphic" in2="effect1_dropShadow_2645_17321" result="shape"/>
</filter>
<filter id="filter1_d_2645_17321" x="717" y="54" width="470" height="244" filterUnits="userSpaceOnUse" color-interpolation-filters="sRGB">
<feFlood flood-opacity="0" result="BackgroundImageFix"/>
<feColorMatrix in="SourceAlpha" type="matrix" values="0 0 0 0 0 0 0 0 0 0 0 0 0 0 0 0 0 0 127 0" result="hardAlpha"/>
<feOffset dy="5"/>
<feGaussianBlur stdDeviation="7.5"/>
<feColorMatrix type="matrix" values="0 0 0 0 0 0 0 0 0 0 0 0 0 0 0 0 0 0 0.1 0"/>
<feBlend mode="normal" in2="BackgroundImageFix" result="effect1_dropShadow_2645_17321"/>
<feBlend mode="normal" in="SourceGraphic" in2="effect1_dropShadow_2645_17321" result="shape"/>
</filter>
<filter id="filter2_d_2645_17321" x="1189" y="54" width="470" height="244" filterUnits="userSpaceOnUse" color-interpolation-filters="sRGB">
<feFlood flood-opacity="0" result="BackgroundImageFix"/>
<feColorMatrix in="SourceAlpha" type="matrix" values="0 0 0 0 0 0 0 0 0 0 0 0 0 0 0 0 0 0 127 0" result="hardAlpha"/>
<feOffset dy="5"/>
<feGaussianBlur stdDeviation="7.5"/>
<feColorMatrix type="matrix" values="0 0 0 0 0 0 0 0 0 0 0 0 0 0 0 0 0 0 0.1 0"/>
<feBlend mode="normal" in2="BackgroundImageFix" result="effect1_dropShadow_2645_17321"/>
<feBlend mode="normal" in="SourceGraphic" in2="effect1_dropShadow_2645_17321" result="shape"/>
</filter>
<filter id="filter3_d_2645_17321" x="245" y="300" width="470" height="244" filterUnits="userSpaceOnUse" color-interpolation-filters="sRGB">
<feFlood flood-opacity="0" result="BackgroundImageFix"/>
<feColorMatrix in="SourceAlpha" type="matrix" values="0 0 0 0 0 0 0 0 0 0 0 0 0 0 0 0 0 0 127 0" result="hardAlpha"/>
<feOffset dy="5"/>
<feGaussianBlur stdDeviation="7.5"/>
<feColorMatrix type="matrix" values="0 0 0 0 0 0 0 0 0 0 0 0 0 0 0 0 0 0 0.1 0"/>
<feBlend mode="normal" in2="BackgroundImageFix" result="effect1_dropShadow_2645_17321"/>
<feBlend mode="normal" in="SourceGraphic" in2="effect1_dropShadow_2645_17321" result="shape"/>
</filter>
<filter id="filter4_d_2645_17321" x="717" y="300" width="470" height="244" filterUnits="userSpaceOnUse" color-interpolation-filters="sRGB">
<feFlood flood-opacity="0" result="BackgroundImageFix"/>
<feColorMatrix in="SourceAlpha" type="matrix" values="0 0 0 0 0 0 0 0 0 0 0 0 0 0 0 0 0 0 127 0" result="hardAlpha"/>
<feOffset dy="5"/>
<feGaussianBlur stdDeviation="7.5"/>
<feColorMatrix type="matrix" values="0 0 0 0 0 0 0 0 0 0 0 0 0 0 0 0 0 0 0.1 0"/>
<feBlend mode="normal" in2="BackgroundImageFix" result="effect1_dropShadow_2645_17321"/>
<feBlend mode="normal" in="SourceGraphic" in2="effect1_dropShadow_2645_17321" result="shape"/>
</filter>
<filter id="filter5_d_2645_17321" x="1189" y="300" width="470" height="244" filterUnits="userSpaceOnUse" color-interpolation-filters="sRGB">
<feFlood flood-opacity="0" result="BackgroundImageFix"/>
<feColorMatrix in="SourceAlpha" type="matrix" values="0 0 0 0 0 0 0 0 0 0 0 0 0 0 0 0 0 0 127 0" result="hardAlpha"/>
<feOffset dy="5"/>
<feGaussianBlur stdDeviation="7.5"/>
<feColorMatrix type="matrix" values="0 0 0 0 0 0 0 0 0 0 0 0 0 0 0 0 0 0 0.1 0"/>
<feBlend mode="normal" in2="BackgroundImageFix" result="effect1_dropShadow_2645_17321"/>
<feBlend mode="normal" in="SourceGraphic" in2="effect1_dropShadow_2645_17321" result="shape"/>
</filter>
<clipPath id="clip0_2645_17321">
<rect width="8" height="32" fill="white" transform="translate(700 171) rotate(-90)"/>
</clipPath>
<clipPath id="clip1_2645_17321">
<rect width="20.9274" height="32" fill="white" transform="translate(369.544 278)"/>
</clipPath>
</defs>
</svg>
