<svg width="562" height="414" viewBox="0 0 562 414" fill="none" xmlns="http://www.w3.org/2000/svg">
<rect width="562" height="413.776" fill="#F6F6F6"/>
<g filter="url(#filter0_d_2645_17318)">
<rect x="59" y="55" width="445" height="304" rx="12" fill="white" shape-rendering="crispEdges"/>
<rect x="83" y="79" width="50" height="32" rx="16" fill="#E1D9FF"/>
<path d="M96.168 101C98.44 101 99.624 99.672 99.624 97.56V89.88H97.24V97.528C97.24 98.392 96.808 98.888 95.976 98.888H95.336V101H96.168ZM105.461 101.208C108.117 101.208 110.021 99.304 110.021 96.792C110.021 94.264 108.117 92.376 105.461 92.376C102.789 92.376 100.901 94.264 100.901 96.792C100.901 99.304 102.789 101.208 105.461 101.208ZM105.477 99.096C104.165 99.096 103.285 98.136 103.285 96.792C103.285 95.432 104.165 94.488 105.477 94.488C106.789 94.488 107.653 95.432 107.653 96.776C107.653 98.136 106.757 99.096 105.477 99.096ZM116.165 92.376C115.157 92.376 114.309 92.712 113.685 93.304V89.304H111.317V101H113.509V100.12C114.133 100.808 115.013 101.208 116.101 101.208C118.533 101.208 120.293 99.304 120.293 96.792C120.293 94.264 118.597 92.376 116.165 92.376ZM115.781 99.112C114.469 99.112 113.589 98.168 113.589 96.792C113.589 95.416 114.469 94.456 115.781 94.456C117.029 94.456 117.941 95.448 117.941 96.792C117.941 98.136 117.029 99.112 115.781 99.112Z" fill="#000D6E"/>
<rect width="397" height="24" transform="translate(83 111)" fill="#E5BCD3"/>
<g clip-path="url(#clip0_2645_17318)">
<line x1="151.908" y1="111.5" x2="166.908" y2="111.5" stroke="#E8178A"/>
<line x1="159.408" y1="135.188" x2="159.408" y2="111.188" stroke="#E8178A"/>
<line x1="151.908" y1="134.5" x2="166.908" y2="134.5" stroke="#E8178A"/>
</g>
<path d="M138.628 128V126.681H133.994L136.208 124.315C136.5 124.006 136.769 123.705 137.015 123.413C137.266 123.121 137.482 122.832 137.664 122.545C137.842 122.258 137.981 121.968 138.081 121.677C138.186 121.381 138.239 121.075 138.239 120.761C138.239 120.341 138.17 119.959 138.034 119.612C137.897 119.261 137.699 118.961 137.439 118.71C137.175 118.459 136.849 118.263 136.461 118.122C136.078 117.981 135.643 117.91 135.156 117.91C134.636 117.91 134.164 117.994 133.741 118.163C133.321 118.332 132.966 118.56 132.674 118.847C132.378 119.134 132.15 119.471 131.991 119.858C131.831 120.241 131.751 120.649 131.751 121.082H133.392C133.392 120.795 133.428 120.54 133.501 120.316C133.574 120.089 133.684 119.895 133.829 119.735C133.971 119.585 134.148 119.469 134.363 119.387C134.577 119.305 134.83 119.264 135.121 119.264C135.349 119.264 135.554 119.302 135.737 119.38C135.924 119.457 136.083 119.564 136.215 119.701C136.347 119.838 136.448 120.002 136.516 120.193C136.584 120.385 136.619 120.597 136.619 120.829C136.619 121.002 136.593 121.175 136.543 121.349C136.498 121.517 136.42 121.7 136.311 121.896C136.197 122.091 136.049 122.308 135.867 122.545C135.684 122.777 135.459 123.042 135.19 123.338L131.95 126.865V128H138.628ZM145.933 124.452V118.047H144.251L139.951 124.773L139.992 125.778H144.299V128H145.933V125.778H147.184V124.452H145.933ZM141.619 124.452L144.107 120.59L144.299 120.234V124.452H141.619Z" fill="#E8178A"/>
<path d="M86.168 138.66H85.232V139.776H83.6V140.592H85.232V146.196H83.564V147H87.728V146.196H86.168V138.66ZM91.4744 141.48C91.2584 141.48 91.0544 141.504 90.8504 141.552L93.0944 138.66H91.9904L89.1824 142.284C88.7624 142.824 88.4504 143.472 88.4504 144.3C88.4504 145.944 89.7464 147.144 91.4384 147.144C93.1064 147.144 94.3784 145.968 94.3784 144.288C94.3784 142.62 93.1664 141.48 91.4744 141.48ZM91.4384 146.316C90.2864 146.316 89.4104 145.452 89.4104 144.3C89.4104 143.124 90.2864 142.272 91.4384 142.272C92.5904 142.272 93.4184 143.124 93.4184 144.3C93.4184 145.464 92.5904 146.316 91.4384 146.316ZM96.1565 147.108C96.5525 147.108 96.8285 146.82 96.8285 146.436C96.8285 146.052 96.5525 145.764 96.1565 145.764C95.7725 145.764 95.4845 146.052 95.4845 146.436C95.4845 146.82 95.7725 147.108 96.1565 147.108ZM101.143 138.66V147H103.543C106.135 147 107.839 145.344 107.839 142.824C107.839 140.304 106.183 138.66 103.567 138.66H101.143ZM102.079 146.184V139.476H103.483C105.583 139.476 106.879 140.808 106.879 142.836C106.879 144.876 105.583 146.184 103.483 146.184H102.079ZM114.657 144.024C114.669 143.904 114.669 143.772 114.669 143.496C114.669 141.744 113.601 140.544 111.921 140.544C110.313 140.544 108.993 141.9 108.993 143.868C108.993 145.908 110.229 147.144 111.945 147.144C113.193 147.144 114.045 146.568 114.549 145.584L113.877 145.176C113.457 145.992 112.905 146.364 112.005 146.364C110.877 146.364 110.037 145.524 109.965 144.024H114.657ZM110.013 143.244C110.193 142.068 110.961 141.324 111.933 141.324C112.989 141.324 113.661 142.044 113.745 143.244H110.013ZM120.341 141.396V140.676H115.637V141.444H119.273L115.625 146.316V147H120.509V146.232H116.717L120.341 141.396ZM127.02 144.024C127.032 143.904 127.032 143.772 127.032 143.496C127.032 141.744 125.964 140.544 124.284 140.544C122.676 140.544 121.356 141.9 121.356 143.868C121.356 145.908 122.592 147.144 124.308 147.144C125.556 147.144 126.408 146.568 126.912 145.584L126.24 145.176C125.82 145.992 125.268 146.364 124.368 146.364C123.24 146.364 122.4 145.524 122.328 144.024H127.02ZM122.376 143.244C122.556 142.068 123.324 141.324 124.296 141.324C125.352 141.324 126.024 142.044 126.108 143.244H122.376ZM135.426 140.532C134.466 140.532 133.662 141.036 133.314 141.852C132.978 141 132.246 140.532 131.37 140.532C130.518 140.532 129.822 140.964 129.45 141.684V140.676H128.55V147H129.498V143.448C129.498 142.176 130.146 141.36 131.082 141.36C132.078 141.348 132.642 142.08 132.642 143.508V147H133.59V143.472C133.59 142.2 134.25 141.36 135.174 141.36C136.182 141.348 136.746 142.08 136.746 143.508V147H137.682V143.22C137.682 141.516 136.794 140.532 135.426 140.532ZM142.662 140.544C141.726 140.544 140.958 141.024 140.49 141.804V138.228H139.554V147H140.442V145.836C140.91 146.664 141.678 147.144 142.65 147.144C144.27 147.144 145.53 145.728 145.53 143.832C145.53 141.864 144.27 140.544 142.662 140.544ZM142.53 146.352C141.342 146.352 140.478 145.308 140.478 143.844C140.478 142.38 141.342 141.336 142.53 141.336C143.682 141.336 144.558 142.38 144.558 143.844C144.558 145.308 143.682 146.352 142.53 146.352ZM152.286 144.024C152.298 143.904 152.298 143.772 152.298 143.496C152.298 141.744 151.23 140.544 149.55 140.544C147.942 140.544 146.622 141.9 146.622 143.868C146.622 145.908 147.858 147.144 149.574 147.144C150.822 147.144 151.674 146.568 152.178 145.584L151.506 145.176C151.086 145.992 150.534 146.364 149.634 146.364C148.506 146.364 147.666 145.524 147.594 144.024H152.286ZM147.642 143.244C147.822 142.068 148.59 141.324 149.562 141.324C150.618 141.324 151.29 142.044 151.374 143.244H147.642ZM154.68 140.676H153.816V147H154.764V143.676C154.764 142.236 155.592 141.432 156.864 141.42V140.532C155.748 140.532 154.992 141.192 154.68 142.116V140.676ZM163.972 143.7C164.752 142.932 165.52 142.08 165.52 140.784C165.52 139.464 164.5 138.54 162.928 138.54C161.572 138.54 160.504 139.32 160.18 140.508L161.056 140.784C161.32 139.86 162.052 139.356 162.928 139.356C163.9 139.356 164.572 139.956 164.572 140.844C164.572 141.912 163.864 142.62 163.276 143.208L160.192 146.376V147H165.712V146.196H161.536L163.972 143.7ZM170.222 147.132C172.19 147.132 173.498 145.236 173.498 142.824C173.498 140.388 172.202 138.552 170.222 138.552C168.23 138.552 166.898 140.376 166.898 142.824C166.898 145.248 168.23 147.132 170.222 147.132ZM170.222 146.268C168.806 146.268 167.858 144.744 167.858 142.848C167.858 140.928 168.806 139.416 170.222 139.416C171.614 139.416 172.538 140.94 172.538 142.848C172.538 144.744 171.614 146.268 170.222 146.268ZM178.386 143.7C179.166 142.932 179.934 142.08 179.934 140.784C179.934 139.464 178.914 138.54 177.342 138.54C175.986 138.54 174.918 139.32 174.594 140.508L175.47 140.784C175.734 139.86 176.466 139.356 177.342 139.356C178.314 139.356 178.986 139.956 178.986 140.844C178.986 141.912 178.278 142.62 177.69 143.208L174.606 146.376V147H180.126V146.196H175.95L178.386 143.7ZM184.96 143.7C185.74 142.932 186.508 142.08 186.508 140.784C186.508 139.464 185.488 138.54 183.916 138.54C182.56 138.54 181.492 139.32 181.168 140.508L182.044 140.784C182.308 139.86 183.04 139.356 183.916 139.356C184.888 139.356 185.56 139.956 185.56 140.844C185.56 141.912 184.852 142.62 184.264 143.208L181.18 146.376V147H186.7V146.196H182.524L184.96 143.7Z" fill="#000D6E"/>
<rect width="397" height="8" transform="translate(83 151)" fill="#E5BCD3"/>
<g clip-path="url(#clip1_2645_17318)">
<line x1="151.908" y1="151.5" x2="166.908" y2="151.5" stroke="#E8178A"/>
<line x1="159.408" y1="159.062" x2="159.408" y2="151.062" stroke="#E8178A"/>
<line x1="151.908" y1="158.5" x2="166.908" y2="158.5" stroke="#E8178A"/>
</g>
<path d="M146.753 152.672C146.753 152.23 146.675 151.838 146.521 151.496C146.366 151.15 146.154 150.86 145.885 150.628C145.607 150.391 145.281 150.213 144.907 150.095C144.538 149.972 144.135 149.91 143.697 149.91C143.255 149.91 142.847 149.972 142.474 150.095C142.104 150.213 141.788 150.391 141.523 150.628C141.255 150.865 141.043 151.154 140.888 151.496C140.737 151.838 140.662 152.23 140.662 152.672C140.662 152.918 140.696 153.153 140.765 153.376C140.833 153.599 140.929 153.804 141.052 153.991C141.17 154.174 141.314 154.34 141.482 154.49C141.656 154.641 141.847 154.768 142.057 154.873C141.811 154.987 141.587 155.126 141.387 155.29C141.191 155.45 141.022 155.63 140.881 155.83C140.74 156.04 140.63 156.268 140.553 156.514C140.48 156.76 140.443 157.02 140.443 157.293C140.443 157.758 140.525 158.168 140.689 158.523C140.858 158.874 141.09 159.168 141.387 159.405C141.678 159.647 142.022 159.829 142.419 159.952C142.82 160.075 143.253 160.137 143.718 160.137C144.174 160.137 144.597 160.075 144.989 159.952C145.386 159.829 145.732 159.647 146.028 159.405C146.32 159.168 146.55 158.872 146.719 158.517C146.887 158.161 146.972 157.753 146.972 157.293C146.972 156.969 146.919 156.669 146.814 156.391C146.71 156.113 146.564 155.864 146.377 155.646C146.245 155.481 146.09 155.338 145.912 155.215C145.739 155.087 145.55 154.976 145.345 154.88C145.518 154.793 145.675 154.693 145.816 154.579C145.958 154.465 146.083 154.342 146.192 154.21C146.37 154.005 146.507 153.772 146.603 153.513C146.703 153.253 146.753 152.973 146.753 152.672ZM145.338 157.204C145.338 157.459 145.297 157.687 145.215 157.888C145.133 158.084 145.023 158.252 144.887 158.394C144.741 158.53 144.568 158.635 144.367 158.708C144.171 158.781 143.955 158.817 143.718 158.817C143.467 158.817 143.242 158.783 143.041 158.715C142.845 158.642 142.676 158.539 142.535 158.407C142.389 158.271 142.278 158.102 142.2 157.901C142.123 157.696 142.084 157.466 142.084 157.211C142.084 156.96 142.12 156.735 142.193 156.534C142.271 156.329 142.38 156.151 142.521 156.001C142.663 155.86 142.831 155.75 143.027 155.673C143.228 155.595 143.453 155.557 143.704 155.557C143.946 155.557 144.167 155.595 144.367 155.673C144.568 155.75 144.741 155.86 144.887 156.001C145.028 156.151 145.137 156.329 145.215 156.534C145.297 156.735 145.338 156.958 145.338 157.204ZM145.126 152.733C145.126 152.957 145.092 153.162 145.023 153.349C144.955 153.531 144.859 153.686 144.736 153.813C144.613 153.946 144.465 154.048 144.292 154.121C144.119 154.194 143.925 154.23 143.711 154.23C143.497 154.23 143.303 154.194 143.13 154.121C142.957 154.048 142.809 153.946 142.686 153.813C142.558 153.686 142.462 153.531 142.398 153.349C142.335 153.162 142.303 152.957 142.303 152.733C142.303 152.506 142.335 152.298 142.398 152.111C142.462 151.924 142.553 151.767 142.672 151.64C142.795 151.512 142.941 151.414 143.109 151.346C143.283 151.273 143.476 151.236 143.69 151.236C143.909 151.236 144.105 151.273 144.278 151.346C144.451 151.419 144.602 151.519 144.729 151.646C144.853 151.783 144.948 151.943 145.017 152.125C145.09 152.307 145.126 152.51 145.126 152.733Z" fill="#E8178A"/>
<g clip-path="url(#clip2_2645_17318)">
<path d="M90.648 170.264H86.408V165.88H84.024V177H86.408V172.392H90.648V177H93.032V165.88H90.648V170.264ZM103.009 173.512C103.041 173.304 103.057 172.984 103.057 172.616C103.057 170.504 101.441 168.376 98.7211 168.376C96.3051 168.376 94.3691 170.344 94.3691 172.792C94.3691 175.304 96.1451 177.208 98.8811 177.208C100.945 177.208 102.033 176.36 102.689 175.4L100.881 174.2C100.513 174.872 99.9851 175.24 98.9451 175.24C97.8251 175.24 96.9611 174.616 96.6891 173.512H103.009ZM96.6571 171.96C96.8971 170.808 97.6971 170.168 98.7851 170.168C99.8731 170.168 100.609 170.856 100.833 171.96H96.6571ZM110.701 169.592C110.093 168.904 109.213 168.52 108.109 168.52C105.677 168.52 103.917 170.264 103.917 172.792C103.917 175.304 105.677 177.208 108.109 177.208C109.213 177.208 110.093 176.792 110.701 176.072V177H112.893V168.568H110.701V169.592ZM108.445 175.112C107.181 175.112 106.269 174.136 106.269 172.792C106.269 171.448 107.181 170.456 108.445 170.456C109.741 170.456 110.621 171.416 110.621 172.792C110.621 174.168 109.741 175.112 108.445 175.112ZM120.806 169.304C120.182 168.712 119.334 168.376 118.326 168.376C115.91 168.376 114.198 170.264 114.198 172.792C114.198 175.304 115.958 177.208 118.39 177.208C119.478 177.208 120.358 176.808 120.982 176.136V177H123.174V165.304H120.806V169.304ZM118.726 175.112C117.462 175.112 116.55 174.136 116.55 172.792C116.55 171.448 117.462 170.456 118.726 170.456C120.022 170.456 120.902 171.416 120.902 172.792C120.902 174.168 120.022 175.112 118.726 175.112ZM127.232 177V165.304H124.864V177H127.232ZM130.11 167.336C130.974 167.336 131.662 166.728 131.662 165.848C131.662 164.968 130.974 164.328 130.11 164.328C129.246 164.328 128.574 164.968 128.574 165.848C128.574 166.728 129.246 167.336 130.11 167.336ZM131.294 177V168.568H128.926V177H131.294ZM137.773 168.36C136.685 168.36 135.805 168.76 135.229 169.352V168.568H132.989V177H135.357V172.008C135.373 171.144 136.109 170.472 137.053 170.472C138.013 170.472 138.717 171.08 138.717 172.152V177H141.069V171.688C141.069 169.72 139.789 168.36 137.773 168.36ZM150.9 173.512C150.932 173.304 150.948 172.984 150.948 172.616C150.948 170.504 149.332 168.376 146.612 168.376C144.196 168.376 142.26 170.344 142.26 172.792C142.26 175.304 144.036 177.208 146.772 177.208C148.836 177.208 149.924 176.36 150.58 175.4L148.772 174.2C148.404 174.872 147.876 175.24 146.836 175.24C145.716 175.24 144.852 174.616 144.58 173.512H150.9ZM144.548 171.96C144.788 170.808 145.588 170.168 146.676 170.168C147.764 170.168 148.5 170.856 148.724 171.96H144.548ZM162.132 170.264H157.892V165.88H155.508V177H157.892V172.392H162.132V177H164.516V165.88H162.132V170.264ZM169.051 169.88L169.179 167.736H173.419V165.88H167.163L166.843 171.736H169.883C171.051 171.736 171.755 172.504 171.755 173.496C171.755 174.472 171.051 175.192 169.931 175.192C168.987 175.192 168.203 174.68 167.947 173.704L165.787 174.568C166.395 176.312 167.867 177.208 169.899 177.208C172.571 177.208 174.171 175.688 174.171 173.528C174.171 171.304 172.523 169.88 169.963 169.88H169.051Z" fill="#000D6E"/>
</g>
<rect width="397" height="8" transform="translate(83 183)" fill="#E5BCD3"/>
<g clip-path="url(#clip3_2645_17318)">
<line x1="151.908" y1="183.5" x2="166.908" y2="183.5" stroke="#E8178A"/>
<line x1="159.408" y1="191.062" x2="159.408" y2="183.062" stroke="#E8178A"/>
<line x1="151.908" y1="190.5" x2="166.908" y2="190.5" stroke="#E8178A"/>
</g>
<path d="M146.753 184.672C146.753 184.23 146.675 183.838 146.521 183.496C146.366 183.15 146.154 182.86 145.885 182.628C145.607 182.391 145.281 182.213 144.907 182.095C144.538 181.972 144.135 181.91 143.697 181.91C143.255 181.91 142.847 181.972 142.474 182.095C142.104 182.213 141.788 182.391 141.523 182.628C141.255 182.865 141.043 183.154 140.888 183.496C140.737 183.838 140.662 184.23 140.662 184.672C140.662 184.918 140.696 185.153 140.765 185.376C140.833 185.599 140.929 185.804 141.052 185.991C141.17 186.174 141.314 186.34 141.482 186.49C141.656 186.641 141.847 186.768 142.057 186.873C141.811 186.987 141.587 187.126 141.387 187.29C141.191 187.45 141.022 187.63 140.881 187.83C140.74 188.04 140.63 188.268 140.553 188.514C140.48 188.76 140.443 189.02 140.443 189.293C140.443 189.758 140.525 190.168 140.689 190.523C140.858 190.874 141.09 191.168 141.387 191.405C141.678 191.647 142.022 191.829 142.419 191.952C142.82 192.075 143.253 192.137 143.718 192.137C144.174 192.137 144.597 192.075 144.989 191.952C145.386 191.829 145.732 191.647 146.028 191.405C146.32 191.168 146.55 190.872 146.719 190.517C146.887 190.161 146.972 189.753 146.972 189.293C146.972 188.969 146.919 188.669 146.814 188.391C146.71 188.113 146.564 187.864 146.377 187.646C146.245 187.481 146.09 187.338 145.912 187.215C145.739 187.087 145.55 186.976 145.345 186.88C145.518 186.793 145.675 186.693 145.816 186.579C145.958 186.465 146.083 186.342 146.192 186.21C146.37 186.005 146.507 185.772 146.603 185.513C146.703 185.253 146.753 184.973 146.753 184.672ZM145.338 189.204C145.338 189.459 145.297 189.687 145.215 189.888C145.133 190.084 145.023 190.252 144.887 190.394C144.741 190.53 144.568 190.635 144.367 190.708C144.171 190.781 143.955 190.817 143.718 190.817C143.467 190.817 143.242 190.783 143.041 190.715C142.845 190.642 142.676 190.539 142.535 190.407C142.389 190.271 142.278 190.102 142.2 189.901C142.123 189.696 142.084 189.466 142.084 189.211C142.084 188.96 142.12 188.735 142.193 188.534C142.271 188.329 142.38 188.151 142.521 188.001C142.663 187.86 142.831 187.75 143.027 187.673C143.228 187.595 143.453 187.557 143.704 187.557C143.946 187.557 144.167 187.595 144.367 187.673C144.568 187.75 144.741 187.86 144.887 188.001C145.028 188.151 145.137 188.329 145.215 188.534C145.297 188.735 145.338 188.958 145.338 189.204ZM145.126 184.733C145.126 184.957 145.092 185.162 145.023 185.349C144.955 185.531 144.859 185.686 144.736 185.813C144.613 185.946 144.465 186.048 144.292 186.121C144.119 186.194 143.925 186.23 143.711 186.23C143.497 186.23 143.303 186.194 143.13 186.121C142.957 186.048 142.809 185.946 142.686 185.813C142.558 185.686 142.462 185.531 142.398 185.349C142.335 185.162 142.303 184.957 142.303 184.733C142.303 184.506 142.335 184.298 142.398 184.111C142.462 183.924 142.553 183.767 142.672 183.64C142.795 183.512 142.941 183.414 143.109 183.346C143.283 183.273 143.476 183.236 143.69 183.236C143.909 183.236 144.105 183.273 144.278 183.346C144.451 183.419 144.602 183.519 144.729 183.646C144.853 183.783 144.948 183.943 145.017 184.125C145.09 184.307 145.126 184.51 145.126 184.733Z" fill="#E8178A"/>
<path d="M87.896 207.64L84.6 197.88H83.272L87.08 209H88.6L92.424 197.88H91.16L87.896 207.64ZM100.194 205.032C100.21 204.872 100.21 204.696 100.21 204.328C100.21 201.992 98.7859 200.392 96.5459 200.392C94.4019 200.392 92.6419 202.2 92.6419 204.824C92.6419 207.544 94.2899 209.192 96.5779 209.192C98.2419 209.192 99.3779 208.424 100.05 207.112L99.1539 206.568C98.5939 207.656 97.8579 208.152 96.6579 208.152C95.1539 208.152 94.0339 207.032 93.9379 205.032H100.194ZM94.0019 203.992C94.2419 202.424 95.2659 201.432 96.5619 201.432C97.9699 201.432 98.8659 202.392 98.9779 203.992H94.0019ZM103.386 200.568H102.234V209H103.498V204.568C103.498 202.648 104.602 201.576 106.298 201.56V200.376C104.81 200.376 103.802 201.256 103.386 202.488V200.568ZM110.278 209.192C112.182 209.192 113.398 208.216 113.398 206.792C113.398 205.416 112.678 204.712 110.726 204.184C109.014 203.72 108.502 203.464 108.502 202.616C108.502 201.832 109.174 201.384 110.278 201.384C111.254 201.384 111.91 201.752 112.166 202.568L113.206 202.296C112.87 201.016 111.862 200.392 110.31 200.392C108.534 200.392 107.334 201.336 107.334 202.712C107.334 203.992 108.038 204.648 109.958 205.176C111.75 205.672 112.23 206.024 112.23 206.856C112.23 207.736 111.478 208.2 110.31 208.2C108.966 208.2 108.326 207.592 108.07 206.744L106.982 207.08C107.318 208.312 108.326 209.192 110.278 209.192ZM115.983 198.776C116.479 198.776 116.863 198.424 116.863 197.912C116.863 197.4 116.479 197.032 115.983 197.032C115.471 197.032 115.087 197.4 115.087 197.912C115.087 198.424 115.471 198.776 115.983 198.776ZM116.607 209V200.568H115.343V209H116.607ZM122.594 209.192C124.434 209.192 125.634 208.104 126.034 206.664L124.962 206.312C124.61 207.48 123.794 208.168 122.61 208.168C120.978 208.168 119.938 206.808 119.938 204.808C119.938 202.792 120.978 201.416 122.642 201.416C123.762 201.416 124.626 202.184 124.946 203.368L126.05 203.016C125.65 201.512 124.482 200.392 122.594 200.392C120.21 200.392 118.642 202.312 118.642 204.808C118.642 207.368 120.194 209.192 122.594 209.192ZM131.889 200.376C130.673 200.376 129.681 200.952 129.153 201.928L129.169 197.304H127.921V209H129.169V204.296C129.169 202.6 130.129 201.512 131.505 201.512C132.929 201.496 133.729 202.472 133.729 204.376V209H134.993V203.96C134.993 201.688 133.793 200.376 131.889 200.376ZM144.46 205.032C144.476 204.872 144.476 204.696 144.476 204.328C144.476 201.992 143.052 200.392 140.812 200.392C138.668 200.392 136.908 202.2 136.908 204.824C136.908 207.544 138.556 209.192 140.844 209.192C142.508 209.192 143.644 208.424 144.316 207.112L143.42 206.568C142.86 207.656 142.124 208.152 140.924 208.152C139.42 208.152 138.299 207.032 138.204 205.032H144.46ZM138.268 203.992C138.508 202.424 139.532 201.432 140.828 201.432C142.236 201.432 143.132 202.392 143.244 203.992H138.268ZM147.651 200.568H146.499V209H147.763V204.568C147.763 202.648 148.867 201.576 150.563 201.56V200.376C149.075 200.376 148.067 201.256 147.651 202.488V200.568ZM156.875 209V207.912H155.867C154.635 207.912 154.155 207.256 154.155 206.088V201.608H156.747V200.568H154.187V198.184H152.987V199.8C152.987 200.456 152.875 200.568 152.235 200.568H151.115V201.608H152.891V206.2C152.891 207.928 153.867 209 155.643 209H156.875ZM165.397 205.032C165.413 204.872 165.413 204.696 165.413 204.328C165.413 201.992 163.989 200.392 161.749 200.392C159.605 200.392 157.845 202.2 157.845 204.824C157.845 207.544 159.493 209.192 161.781 209.192C163.445 209.192 164.581 208.424 165.253 207.112L164.357 206.568C163.797 207.656 163.061 208.152 161.861 208.152C160.357 208.152 159.237 207.032 159.141 205.032H165.397ZM159.205 203.992C159.445 202.424 160.469 201.432 161.765 201.432C163.173 201.432 164.069 202.392 164.181 203.992H159.205ZM168.589 200.568H167.437V209H168.701V204.568C168.701 202.648 169.805 201.576 171.501 201.56V200.376C170.013 200.376 169.005 201.256 168.589 202.488V200.568ZM175.902 209C177.822 209 178.878 207.896 178.878 205.992V197.88H177.63V205.944C177.63 207.208 177.038 207.896 175.806 207.896H175.038V209H175.902ZM187.676 202.152C187.052 201.048 186.012 200.392 184.716 200.392C182.572 200.392 180.876 202.28 180.876 204.808C180.876 207.432 182.54 209.192 184.716 209.192C185.98 209.192 187.02 208.52 187.644 207.432L187.772 209H188.844V200.568H187.708L187.676 202.152ZM184.892 208.136C183.356 208.136 182.172 206.744 182.172 204.792C182.172 202.84 183.356 201.448 184.892 201.448C186.476 201.448 187.628 202.84 187.628 204.792C187.628 206.744 186.476 208.136 184.892 208.136ZM195.42 200.376C194.204 200.376 193.212 200.952 192.684 201.928L192.7 197.304H191.452V209H192.7V204.296C192.7 202.6 193.66 201.512 195.036 201.512C196.46 201.496 197.26 202.472 197.26 204.376V209H198.524V203.96C198.524 201.688 197.324 200.376 195.42 200.376ZM202.167 200.568H201.015V209H202.279V204.568C202.279 202.648 203.383 201.576 205.079 201.56V200.376C203.591 200.376 202.583 201.256 202.167 202.488V200.568ZM213.288 205.032C213.304 204.872 213.304 204.696 213.304 204.328C213.304 201.992 211.88 200.392 209.64 200.392C207.496 200.392 205.736 202.2 205.736 204.824C205.736 207.544 207.384 209.192 209.672 209.192C211.336 209.192 212.472 208.424 213.144 207.112L212.248 206.568C211.688 207.656 210.952 208.152 209.752 208.152C208.248 208.152 207.128 207.032 207.032 205.032H213.288ZM207.096 203.992C207.336 202.424 208.36 201.432 209.656 201.432C211.064 201.432 211.96 202.392 212.072 203.992H207.096ZM217.871 209.192C219.775 209.192 220.991 208.216 220.991 206.792C220.991 205.416 220.271 204.712 218.319 204.184C216.607 203.72 216.095 203.464 216.095 202.616C216.095 201.832 216.767 201.384 217.871 201.384C218.847 201.384 219.503 201.752 219.759 202.568L220.799 202.296C220.463 201.016 219.455 200.392 217.903 200.392C216.127 200.392 214.927 201.336 214.927 202.712C214.927 203.992 215.631 204.648 217.551 205.176C219.343 205.672 219.823 206.024 219.823 206.856C219.823 207.736 219.071 208.2 217.903 208.2C216.559 208.2 215.919 207.592 215.663 206.744L214.575 207.08C214.911 208.312 215.919 209.192 217.871 209.192ZM224.201 209V197.304H222.937V209H224.201ZM230.284 209.192C232.572 209.192 234.332 207.304 234.332 204.792C234.332 202.136 232.636 200.392 230.284 200.392C227.98 200.392 226.236 202.28 226.236 204.792C226.236 207.448 227.916 209.192 230.284 209.192ZM230.3 208.152C228.7 208.152 227.532 206.76 227.532 204.792C227.532 202.824 228.7 201.432 230.3 201.432C231.884 201.432 233.036 202.824 233.036 204.792C233.036 206.76 231.884 208.152 230.3 208.152ZM240.311 200.376C239.095 200.376 238.103 200.952 237.575 201.928L237.591 197.304H236.343V209H237.591V204.296C237.591 202.6 238.551 201.512 239.927 201.512C241.351 201.496 242.151 202.472 242.151 204.376V209H243.415V203.96C243.415 201.688 242.215 200.376 240.311 200.376ZM249.889 200.376C248.641 200.376 247.601 200.984 247.089 202.024V200.568H245.905V209H247.169V204.344C247.169 202.568 248.129 201.496 249.505 201.496C250.929 201.48 251.729 202.44 251.729 204.344V209H252.993V203.96C252.993 201.704 251.793 200.376 249.889 200.376ZM255.916 207.384C255.436 207.384 255.036 207.736 255.036 208.264C255.036 208.728 255.34 209.032 255.756 209.08L254.876 210.872H255.708L256.508 209.272C256.7 208.84 256.812 208.584 256.812 208.296C256.812 207.752 256.412 207.384 255.916 207.384ZM270.512 209L266.432 197.88H264.944L260.864 209H262.096L263.232 205.848H268.112L269.264 209H270.512ZM265.68 199.128L267.728 204.792H263.616L265.68 199.128ZM273.279 209V197.304H272.015V209H273.279ZM280.578 209V207.912H279.57C278.338 207.912 277.858 207.256 277.858 206.088V201.608H280.45V200.568H277.89V198.184H276.69V199.8C276.69 200.456 276.578 200.568 275.938 200.568H274.818V201.608H276.594V206.2C276.594 207.928 277.57 209 279.346 209H280.578ZM289.1 205.032C289.116 204.872 289.116 204.696 289.116 204.328C289.116 201.992 287.692 200.392 285.452 200.392C283.308 200.392 281.548 202.2 281.548 204.824C281.548 207.544 283.196 209.192 285.484 209.192C287.148 209.192 288.284 208.424 288.956 207.112L288.06 206.568C287.5 207.656 286.764 208.152 285.564 208.152C284.06 208.152 282.94 207.032 282.844 205.032H289.1ZM282.908 203.992C283.148 202.424 284.172 201.432 285.468 201.432C286.876 201.432 287.772 202.392 287.884 203.992H282.908ZM292.292 200.568H291.14V209H292.404V204.568C292.404 202.648 293.508 201.576 295.204 201.56V200.376C293.716 200.376 292.708 201.256 292.292 202.488V200.568ZM299.184 209.192C301.088 209.192 302.304 208.216 302.304 206.792C302.304 205.416 301.584 204.712 299.632 204.184C297.92 203.72 297.408 203.464 297.408 202.616C297.408 201.832 298.08 201.384 299.184 201.384C300.16 201.384 300.816 201.752 301.072 202.568L302.112 202.296C301.776 201.016 300.768 200.392 299.216 200.392C297.44 200.392 296.24 201.336 296.24 202.712C296.24 203.992 296.944 204.648 298.864 205.176C300.656 205.672 301.136 206.024 301.136 206.856C301.136 207.736 300.384 208.2 299.216 208.2C297.872 208.2 297.232 207.592 296.976 206.744L295.888 207.08C296.224 208.312 297.232 209.192 299.184 209.192ZM310.521 202.088C309.929 201 308.857 200.392 307.417 200.392C305.289 200.392 303.689 202.12 303.689 204.52C303.689 207 305.225 208.6 307.417 208.6C308.777 208.6 309.833 208.008 310.441 207V208.072C310.441 209.912 309.433 211.032 307.753 211.032C306.425 211.032 305.465 210.568 305.081 209.416L303.961 209.848C304.473 211.368 305.785 212.056 307.737 212.056C310.169 212.056 311.689 210.472 311.689 208.12V200.568H310.521V202.088ZM307.721 207.528C306.089 207.528 304.985 206.312 304.985 204.504C304.985 202.696 306.089 201.48 307.721 201.48C309.369 201.48 310.473 202.696 310.473 204.504C310.473 206.312 309.369 207.528 307.721 207.528ZM319.912 205.208C319.912 206.984 318.984 208.072 317.64 208.072C316.248 208.072 315.448 207.32 315.448 205.512V200.552H314.2V205.864C314.2 208.072 315.448 209.176 317.256 209.176C318.456 209.176 319.448 208.616 319.992 207.672V209H321.16V200.568H319.912V205.208ZM328.453 209V207.912H327.445C326.213 207.912 325.733 207.256 325.733 206.088V201.608H328.325V200.568H325.765V198.184H324.565V199.8C324.565 200.456 324.453 200.568 323.813 200.568H322.693V201.608H324.469V206.2C324.469 207.928 325.445 209 327.221 209H328.453ZM334.139 200.376C332.923 200.376 331.931 200.952 331.403 201.928L331.419 197.304H330.171V209H331.419V204.296C331.419 202.6 332.379 201.512 333.755 201.512C335.179 201.496 335.979 202.472 335.979 204.376V209H337.243V203.96C337.243 201.688 336.043 200.376 334.139 200.376ZM345.958 202.152C345.334 201.048 344.294 200.392 342.998 200.392C340.854 200.392 339.158 202.28 339.158 204.808C339.158 207.432 340.822 209.192 342.998 209.192C344.262 209.192 345.302 208.52 345.926 207.432L346.054 209H347.126V200.568H345.99L345.958 202.152ZM343.174 208.136C341.638 208.136 340.454 206.744 340.454 204.792C340.454 202.84 341.638 201.448 343.174 201.448C344.758 201.448 345.91 202.84 345.91 204.792C345.91 206.744 344.758 208.136 343.174 208.136ZM353.878 200.392C352.63 200.392 351.606 201.032 350.982 202.072V197.304H349.734V209H350.918V207.448C351.542 208.552 352.566 209.192 353.862 209.192C356.022 209.192 357.702 207.304 357.702 204.776C357.702 202.152 356.022 200.392 353.878 200.392ZM353.702 208.136C352.118 208.136 350.966 206.744 350.966 204.792C350.966 202.84 352.118 201.448 353.702 201.448C355.238 201.448 356.406 202.84 356.406 204.792C356.406 206.744 355.238 208.136 353.702 208.136ZM366.71 205.032C366.726 204.872 366.726 204.696 366.726 204.328C366.726 201.992 365.302 200.392 363.062 200.392C360.918 200.392 359.158 202.2 359.158 204.824C359.158 207.544 360.806 209.192 363.094 209.192C364.758 209.192 365.894 208.424 366.566 207.112L365.67 206.568C365.11 207.656 364.374 208.152 363.174 208.152C361.67 208.152 360.549 207.032 360.454 205.032H366.71ZM360.518 203.992C360.758 202.424 361.782 201.432 363.078 201.432C364.486 201.432 365.382 202.392 365.494 203.992H360.518ZM372.733 200.376C371.485 200.376 370.445 200.984 369.933 202.024V200.568H368.749V209H370.013V204.344C370.013 202.568 370.973 201.496 372.349 201.496C373.773 201.48 374.573 202.44 374.573 204.344V209H375.837V203.96C375.837 201.704 374.637 200.376 372.733 200.376ZM378.759 207.384C378.279 207.384 377.879 207.736 377.879 208.264C377.879 208.728 378.183 209.032 378.599 209.08L377.719 210.872H378.551L379.351 209.272C379.543 208.84 379.655 208.584 379.655 208.296C379.655 207.752 379.255 207.384 378.759 207.384ZM391.331 202.04C390.707 201 389.683 200.392 388.451 200.392C386.307 200.392 384.611 202.28 384.611 204.808C384.611 207.432 386.275 209.192 388.451 209.192C389.731 209.192 390.787 208.504 391.411 207.368V209H392.579V197.304H391.331V202.04ZM388.627 208.136C387.091 208.136 385.907 206.744 385.907 204.792C385.907 202.84 387.091 201.448 388.627 201.448C390.211 201.448 391.363 202.84 391.363 204.792C391.363 206.744 390.211 208.136 388.627 208.136ZM395.827 198.776C396.323 198.776 396.707 198.424 396.707 197.912C396.707 197.4 396.323 197.032 395.827 197.032C395.315 197.032 394.931 197.4 394.931 197.912C394.931 198.424 395.315 198.776 395.827 198.776ZM396.451 209V200.568H395.187V209H396.451ZM401.958 207.656L399.286 200.568H397.942L401.254 209H402.55L405.862 200.568H404.614L401.958 207.656ZM414.178 205.032C414.194 204.872 414.194 204.696 414.194 204.328C414.194 201.992 412.77 200.392 410.53 200.392C408.386 200.392 406.626 202.2 406.626 204.824C406.626 207.544 408.274 209.192 410.562 209.192C412.226 209.192 413.362 208.424 414.034 207.112L413.138 206.568C412.578 207.656 411.842 208.152 410.642 208.152C409.138 208.152 408.018 207.032 407.922 205.032H414.178ZM407.986 203.992C408.226 202.424 409.25 201.432 410.546 201.432C411.954 201.432 412.85 202.392 412.962 203.992H407.986ZM417.37 200.568H416.218V209H417.482V204.568C417.482 202.648 418.586 201.576 420.282 201.56V200.376C418.794 200.376 417.786 201.256 417.37 202.488V200.568ZM424.262 209.192C426.166 209.192 427.382 208.216 427.382 206.792C427.382 205.416 426.662 204.712 424.71 204.184C422.998 203.72 422.486 203.464 422.486 202.616C422.486 201.832 423.158 201.384 424.262 201.384C425.238 201.384 425.894 201.752 426.15 202.568L427.19 202.296C426.854 201.016 425.846 200.392 424.294 200.392C422.518 200.392 421.318 201.336 421.318 202.712C421.318 203.992 422.022 204.648 423.942 205.176C425.734 205.672 426.214 206.024 426.214 206.856C426.214 207.736 425.462 208.2 424.294 208.2C422.95 208.2 422.31 207.592 422.054 206.744L420.966 207.08C421.302 208.312 422.31 209.192 424.262 209.192ZM436.303 205.032C436.319 204.872 436.319 204.696 436.319 204.328C436.319 201.992 434.895 200.392 432.655 200.392C430.511 200.392 428.751 202.2 428.751 204.824C428.751 207.544 430.399 209.192 432.687 209.192C434.351 209.192 435.487 208.424 436.159 207.112L435.263 206.568C434.703 207.656 433.967 208.152 432.767 208.152C431.263 208.152 430.143 207.032 430.047 205.032H436.303ZM430.111 203.992C430.351 202.424 431.375 201.432 432.671 201.432C434.079 201.432 434.975 202.392 435.087 203.992H430.111ZM85.72 221.88H84.472V233H90.968V231.88H85.72V221.88ZM99.1314 229.032C99.1474 228.872 99.1474 228.696 99.1474 228.328C99.1474 225.992 97.7234 224.392 95.4834 224.392C93.3394 224.392 91.5794 226.2 91.5794 228.824C91.5794 231.544 93.2274 233.192 95.5154 233.192C97.1794 233.192 98.3154 232.424 98.9874 231.112L98.0914 230.568C97.5314 231.656 96.7954 232.152 95.5954 232.152C94.0914 232.152 92.9714 231.032 92.8754 229.032H99.1314ZM92.9394 227.992C93.1794 226.424 94.2034 225.432 95.4994 225.432C96.9074 225.432 97.8034 226.392 97.9154 227.992H92.9394ZM101.811 222.776C102.307 222.776 102.691 222.424 102.691 221.912C102.691 221.4 102.307 221.032 101.811 221.032C101.299 221.032 100.915 221.4 100.915 221.912C100.915 222.424 101.299 222.776 101.811 222.776ZM102.435 233V224.568H101.171V233H102.435ZM107.574 233.192C109.478 233.192 110.694 232.216 110.694 230.792C110.694 229.416 109.974 228.712 108.022 228.184C106.31 227.72 105.798 227.464 105.798 226.616C105.798 225.832 106.47 225.384 107.574 225.384C108.55 225.384 109.206 225.752 109.462 226.568L110.502 226.296C110.166 225.016 109.158 224.392 107.606 224.392C105.83 224.392 104.63 225.336 104.63 226.712C104.63 227.992 105.334 228.648 107.254 229.176C109.046 229.672 109.526 230.024 109.526 230.856C109.526 231.736 108.774 232.2 107.606 232.2C106.262 232.2 105.622 231.592 105.366 230.744L104.278 231.08C104.614 232.312 105.622 233.192 107.574 233.192ZM117.328 233V231.912H116.32C115.088 231.912 114.608 231.256 114.608 230.088V225.608H117.2V224.568H114.64V222.184H113.44V223.8C113.44 224.456 113.328 224.568 112.688 224.568H111.568V225.608H113.344V230.2C113.344 231.928 114.32 233 116.096 233H117.328ZM124.678 229.208C124.678 230.984 123.75 232.072 122.406 232.072C121.014 232.072 120.214 231.32 120.214 229.512V224.552H118.966V229.864C118.966 232.072 120.214 233.176 122.022 233.176C123.222 233.176 124.214 232.616 124.758 231.672V233H125.926V224.568H124.678V229.208ZM132.514 224.376C131.266 224.376 130.226 224.984 129.714 226.024V224.568H128.53V233H129.794V228.344C129.794 226.568 130.754 225.496 132.13 225.496C133.554 225.48 134.354 226.44 134.354 228.344V233H135.618V227.96C135.618 225.704 134.418 224.376 132.514 224.376ZM144.381 226.088C143.789 225 142.717 224.392 141.277 224.392C139.149 224.392 137.549 226.12 137.549 228.52C137.549 231 139.085 232.6 141.277 232.6C142.637 232.6 143.693 232.008 144.301 231V232.072C144.301 233.912 143.293 235.032 141.613 235.032C140.285 235.032 139.325 234.568 138.941 233.416L137.821 233.848C138.333 235.368 139.645 236.056 141.597 236.056C144.029 236.056 145.549 234.472 145.549 232.12V224.568H144.381V226.088ZM141.581 231.528C139.949 231.528 138.845 230.312 138.845 228.504C138.845 226.696 139.949 225.48 141.581 225.48C143.229 225.48 144.333 226.696 144.333 228.504C144.333 230.312 143.229 231.528 141.581 231.528ZM155.116 229.032C155.132 228.872 155.132 228.696 155.132 228.328C155.132 225.992 153.708 224.392 151.468 224.392C149.324 224.392 147.564 226.2 147.564 228.824C147.564 231.544 149.212 233.192 151.5 233.192C153.164 233.192 154.3 232.424 154.972 231.112L154.076 230.568C153.516 231.656 152.78 232.152 151.58 232.152C150.076 232.152 148.956 231.032 148.86 229.032H155.116ZM148.924 227.992C149.164 226.424 150.188 225.432 151.484 225.432C152.892 225.432 153.788 226.392 153.9 227.992H148.924ZM161.139 224.376C159.891 224.376 158.851 224.984 158.339 226.024V224.568H157.155V233H158.419V228.344C158.419 226.568 159.379 225.496 160.755 225.496C162.179 225.48 162.979 226.44 162.979 228.344V233H164.243V227.96C164.243 225.704 163.043 224.376 161.139 224.376ZM167.406 227.464C167.902 227.464 168.286 227.096 168.286 226.584C168.286 226.088 167.902 225.704 167.406 225.704C166.91 225.704 166.526 226.088 166.526 226.584C166.526 227.096 166.91 227.464 167.406 227.464ZM167.406 233.144C167.902 233.144 168.286 232.776 168.286 232.28C168.286 231.768 167.902 231.384 167.406 231.384C166.91 231.384 166.526 231.768 166.526 232.28C166.526 232.776 166.91 233.144 167.406 233.144ZM180.643 226.04C180.019 225 178.995 224.392 177.763 224.392C175.619 224.392 173.923 226.28 173.923 228.808C173.923 231.432 175.587 233.192 177.763 233.192C179.043 233.192 180.099 232.504 180.723 231.368V233H181.891V221.304H180.643V226.04ZM177.939 232.136C176.403 232.136 175.219 230.744 175.219 228.792C175.219 226.84 176.403 225.448 177.939 225.448C179.523 225.448 180.675 226.84 180.675 228.792C180.675 230.744 179.523 232.136 177.939 232.136ZM191.475 229.032C191.491 228.872 191.491 228.696 191.491 228.328C191.491 225.992 190.067 224.392 187.827 224.392C185.683 224.392 183.923 226.2 183.923 228.824C183.923 231.544 185.571 233.192 187.859 233.192C189.523 233.192 190.659 232.424 191.331 231.112L190.435 230.568C189.875 231.656 189.139 232.152 187.939 232.152C186.435 232.152 185.315 231.032 185.219 229.032H191.475ZM185.283 227.992C185.523 226.424 186.547 225.432 187.843 225.432C189.251 225.432 190.147 226.392 190.259 227.992H185.283ZM194.155 222.776C194.651 222.776 195.035 222.424 195.035 221.912C195.035 221.4 194.651 221.032 194.155 221.032C193.643 221.032 193.259 221.4 193.259 221.912C193.259 222.424 193.643 222.776 194.155 222.776ZM194.779 233V224.568H193.515V233H194.779ZM201.358 224.376C200.11 224.376 199.07 224.984 198.558 226.024V224.568H197.374V233H198.638V228.344C198.638 226.568 199.598 225.496 200.974 225.496C202.398 225.48 203.198 226.44 203.198 228.344V233H204.462V227.96C204.462 225.704 203.262 224.376 201.358 224.376ZM210.972 221.88V233H212.22V228.344H214.956C217.164 228.344 218.636 227.032 218.636 225.096C218.636 223.144 217.228 221.88 214.972 221.88H210.972ZM212.22 227.224V223H214.908C216.508 223 217.372 223.848 217.372 225.096C217.372 226.36 216.492 227.224 214.892 227.224H212.22ZM223.093 227.224L228.933 221.88H227.445L221.829 226.952V221.88H220.581V233H221.829V227.624L227.477 233H229.061L223.093 227.224ZM233.288 229.496V228.456H229.224V229.496H233.288ZM243.825 233L239.745 221.88H238.257L234.177 233H235.409L236.545 229.848H241.425L242.577 233H243.825ZM238.993 223.128L241.041 228.792H236.929L238.993 223.128ZM250.819 229.208C250.819 230.984 249.891 232.072 248.547 232.072C247.155 232.072 246.355 231.32 246.355 229.512V224.552H245.107V229.864C245.107 232.072 246.355 233.176 248.163 233.176C249.363 233.176 250.355 232.616 250.899 231.672V233H252.067V224.568H250.819V229.208ZM257.215 233.192C259.119 233.192 260.335 232.216 260.335 230.792C260.335 229.416 259.615 228.712 257.663 228.184C255.951 227.72 255.439 227.464 255.439 226.616C255.439 225.832 256.111 225.384 257.215 225.384C258.191 225.384 258.847 225.752 259.103 226.568L260.143 226.296C259.807 225.016 258.799 224.392 257.247 224.392C255.471 224.392 254.271 225.336 254.271 226.712C254.271 227.992 254.975 228.648 256.895 229.176C258.687 229.672 259.167 230.024 259.167 230.856C259.167 231.736 258.415 232.2 257.247 232.2C255.903 232.2 255.263 231.592 255.007 230.744L253.919 231.08C254.255 232.312 255.263 233.192 257.215 233.192ZM270.121 231.72L267.993 224.568H266.569L264.473 231.72L262.585 224.568H261.289L263.721 233H265.177L267.257 225.96L269.353 233H270.777L273.193 224.568H271.961L270.121 231.72ZM281.741 229.032C281.757 228.872 281.757 228.696 281.757 228.328C281.757 225.992 280.333 224.392 278.093 224.392C275.949 224.392 274.189 226.2 274.189 228.824C274.189 231.544 275.837 233.192 278.125 233.192C279.789 233.192 280.925 232.424 281.597 231.112L280.701 230.568C280.141 231.656 279.405 232.152 278.205 232.152C276.701 232.152 275.581 231.032 275.485 229.032H281.741ZM275.549 227.992C275.789 226.424 276.813 225.432 278.109 225.432C279.517 225.432 280.413 226.392 280.525 227.992H275.549ZM284.42 222.776C284.916 222.776 285.3 222.424 285.3 221.912C285.3 221.4 284.916 221.032 284.42 221.032C283.908 221.032 283.524 221.4 283.524 221.912C283.524 222.424 283.908 222.776 284.42 222.776ZM285.044 233V224.568H283.78V233H285.044ZM290.184 233.192C292.088 233.192 293.304 232.216 293.304 230.792C293.304 229.416 292.584 228.712 290.632 228.184C288.92 227.72 288.408 227.464 288.408 226.616C288.408 225.832 289.08 225.384 290.184 225.384C291.16 225.384 291.816 225.752 292.072 226.568L293.112 226.296C292.776 225.016 291.768 224.392 290.216 224.392C288.44 224.392 287.24 225.336 287.24 226.712C287.24 227.992 287.944 228.648 289.864 229.176C291.656 229.672 292.136 230.024 292.136 230.856C292.136 231.736 291.384 232.2 290.216 232.2C288.872 232.2 288.232 231.592 287.976 230.744L286.888 231.08C287.224 232.312 288.232 233.192 290.184 233.192ZM306.069 229.032C306.085 228.872 306.085 228.696 306.085 228.328C306.085 225.992 304.661 224.392 302.421 224.392C300.277 224.392 298.517 226.2 298.517 228.824C298.517 231.544 300.165 233.192 302.453 233.192C304.117 233.192 305.253 232.424 305.925 231.112L305.029 230.568C304.469 231.656 303.733 232.152 302.533 232.152C301.029 232.152 299.909 231.032 299.813 229.032H306.069ZM299.877 227.992C300.117 226.424 301.141 225.432 302.437 225.432C303.845 225.432 304.741 226.392 304.853 227.992H299.877ZM308.749 222.776C309.245 222.776 309.629 222.424 309.629 221.912C309.629 221.4 309.245 221.032 308.749 221.032C308.237 221.032 307.853 221.4 307.853 221.912C307.853 222.424 308.237 222.776 308.749 222.776ZM309.373 233V224.568H308.109V233H309.373ZM315.952 224.376C314.704 224.376 313.664 224.984 313.152 226.024V224.568H311.968V233H313.232V228.344C313.232 226.568 314.192 225.496 315.568 225.496C316.992 225.48 317.792 226.44 317.792 228.344V233H319.056V227.96C319.056 225.704 317.856 224.376 315.952 224.376ZM325.629 222.136V221.112H325.005C323.021 221.112 321.997 222.44 321.997 224.2V224.568H320.429V225.608H321.997V233H323.245V225.608H325.533V224.568H323.213V224.136C323.213 222.744 323.917 222.136 325.117 222.136H325.629ZM333.02 226.152C332.396 225.048 331.356 224.392 330.06 224.392C327.916 224.392 326.22 226.28 326.22 228.808C326.22 231.432 327.884 233.192 330.06 233.192C331.324 233.192 332.364 232.52 332.988 231.432L333.116 233H334.188V224.568H333.052L333.02 226.152ZM330.236 232.136C328.7 232.136 327.516 230.744 327.516 228.792C327.516 226.84 328.7 225.448 330.236 225.448C331.82 225.448 332.972 226.84 332.972 228.792C332.972 230.744 331.82 232.136 330.236 232.136ZM340.188 233.192C342.028 233.192 343.228 232.104 343.628 230.664L342.556 230.312C342.204 231.48 341.388 232.168 340.204 232.168C338.572 232.168 337.532 230.808 337.532 228.808C337.532 226.792 338.572 225.416 340.236 225.416C341.356 225.416 342.22 226.184 342.54 227.368L343.644 227.016C343.244 225.512 342.076 224.392 340.188 224.392C337.804 224.392 336.236 226.312 336.236 228.808C336.236 231.368 337.788 233.192 340.188 233.192ZM349.483 224.376C348.267 224.376 347.275 224.952 346.747 225.928L346.763 221.304H345.515V233H346.763V228.296C346.763 226.6 347.723 225.512 349.099 225.512C350.523 225.496 351.323 226.472 351.323 228.376V233H352.587V227.96C352.587 225.688 351.387 224.376 349.483 224.376ZM365.897 229.032C365.913 228.872 365.913 228.696 365.913 228.328C365.913 225.992 364.489 224.392 362.249 224.392C360.105 224.392 358.345 226.2 358.345 228.824C358.345 231.544 359.993 233.192 362.281 233.192C363.945 233.192 365.081 232.424 365.753 231.112L364.857 230.568C364.297 231.656 363.561 232.152 362.361 232.152C360.857 232.152 359.737 231.032 359.641 229.032H365.897ZM359.705 227.992C359.945 226.424 360.969 225.432 362.265 225.432C363.673 225.432 364.569 226.392 364.681 227.992H359.705ZM369.089 224.568H367.937V233H369.201V228.568C369.201 226.648 370.305 225.576 372.001 225.56V224.376C370.513 224.376 369.505 225.256 369.089 226.488V224.568ZM376.216 228.552L380.536 224.568H378.968L374.888 228.36V221.304H373.624V233H374.888V228.856L379 233H380.648L376.216 228.552ZM383.248 233V221.304H381.984V233H383.248ZM387.747 222.824C388.259 222.824 388.659 222.44 388.659 221.928C388.659 221.384 388.275 221 387.763 221C387.235 221 386.819 221.384 386.819 221.912C386.819 222.44 387.235 222.824 387.747 222.824ZM390.771 222.824C391.299 222.824 391.683 222.44 391.683 221.928C391.683 221.384 391.299 221 390.771 221C390.259 221 389.843 221.384 389.843 221.912C389.843 222.44 390.259 222.824 390.771 222.824ZM392.083 226.152C391.459 225.048 390.419 224.392 389.123 224.392C386.979 224.392 385.283 226.28 385.283 228.808C385.283 231.432 386.947 233.192 389.123 233.192C390.387 233.192 391.427 232.52 392.051 231.432L392.179 233H393.251V224.568H392.115L392.083 226.152ZM389.299 232.136C387.763 232.136 386.579 230.744 386.579 228.792C386.579 226.84 387.763 225.448 389.299 225.448C390.883 225.448 392.035 226.84 392.035 228.792C392.035 230.744 390.883 232.136 389.299 232.136ZM397.011 224.568H395.859V233H397.123V228.568C397.123 226.648 398.227 225.576 399.923 225.56V224.376C398.435 224.376 397.427 225.256 397.011 226.488V224.568ZM406.234 233V231.912H405.226C403.994 231.912 403.514 231.256 403.514 230.088V225.608H406.106V224.568H403.546V222.184H402.346V223.8C402.346 224.456 402.234 224.568 401.594 224.568H400.474V225.608H402.25V230.2C402.25 231.928 403.226 233 405.002 233H406.234ZM408.384 231.384C407.904 231.384 407.504 231.736 407.504 232.264C407.504 232.728 407.808 233.032 408.224 233.08L407.344 234.872H408.176L408.976 233.272C409.168 232.84 409.28 232.584 409.28 232.296C409.28 231.752 408.88 231.384 408.384 231.384ZM420.956 226.04C420.332 225 419.308 224.392 418.076 224.392C415.932 224.392 414.236 226.28 414.236 228.808C414.236 231.432 415.9 233.192 418.076 233.192C419.356 233.192 420.412 232.504 421.036 231.368V233H422.204V221.304H420.956V226.04ZM418.252 232.136C416.716 232.136 415.532 230.744 415.532 228.792C415.532 226.84 416.716 225.448 418.252 225.448C419.836 225.448 420.988 226.84 420.988 228.792C420.988 230.744 419.836 232.136 418.252 232.136ZM431.036 226.152C430.412 225.048 429.372 224.392 428.076 224.392C425.932 224.392 424.236 226.28 424.236 228.808C424.236 231.432 425.9 233.192 428.076 233.192C429.34 233.192 430.38 232.52 431.004 231.432L431.132 233H432.204V224.568H431.068L431.036 226.152ZM428.252 232.136C426.716 232.136 425.532 230.744 425.532 228.792C425.532 226.84 426.716 225.448 428.252 225.448C429.836 225.448 430.988 226.84 430.988 228.792C430.988 230.744 429.836 232.136 428.252 232.136ZM443.98 224.376C442.7 224.376 441.628 225.048 441.164 226.136C440.716 225 439.74 224.376 438.572 224.376C437.436 224.376 436.508 224.952 436.012 225.912V224.568H434.812V233H436.076V228.264C436.076 226.568 436.94 225.48 438.188 225.48C439.516 225.464 440.268 226.44 440.268 228.344V233H441.532V228.296C441.532 226.6 442.412 225.48 443.644 225.48C444.988 225.464 445.74 226.44 445.74 228.344V233H446.988V227.96C446.988 225.688 445.804 224.376 443.98 224.376ZM450.124 222.776C450.62 222.776 451.004 222.424 451.004 221.912C451.004 221.4 450.62 221.032 450.124 221.032C449.612 221.032 449.228 221.4 449.228 221.912C449.228 222.424 449.612 222.776 450.124 222.776ZM450.748 233V224.568H449.484V233H450.748ZM458.031 233V231.912H457.023C455.791 231.912 455.311 231.256 455.311 230.088V225.608H457.903V224.568H455.343V222.184H454.143V223.8C454.143 224.456 454.031 224.568 453.391 224.568H452.271V225.608H454.047V230.2C454.047 231.928 455.023 233 456.799 233H458.031ZM90.44 250.04C89.816 249 88.792 248.392 87.56 248.392C85.416 248.392 83.72 250.28 83.72 252.808C83.72 255.432 85.384 257.192 87.56 257.192C88.84 257.192 89.896 256.504 90.52 255.368V257H91.688V245.304H90.44V250.04ZM87.736 256.136C86.2 256.136 85.016 254.744 85.016 252.792C85.016 250.84 86.2 249.448 87.736 249.448C89.32 249.448 90.472 250.84 90.472 252.792C90.472 254.744 89.32 256.136 87.736 256.136ZM99.928 253.208C99.928 254.984 99 256.072 97.656 256.072C96.264 256.072 95.464 255.32 95.464 253.512V248.552H94.216V253.864C94.216 256.072 95.464 257.176 97.272 257.176C98.472 257.176 99.464 256.616 100.008 255.672V257H101.176V248.568H99.928V253.208ZM107.667 257.144C108.195 257.144 108.563 256.76 108.563 256.248C108.563 255.736 108.195 255.352 107.667 255.352C107.155 255.352 106.771 255.736 106.771 256.248C106.771 256.76 107.155 257.144 107.667 257.144ZM111.245 257.144C111.773 257.144 112.141 256.76 112.141 256.248C112.141 255.736 111.773 255.352 111.245 255.352C110.733 255.352 110.349 255.736 110.349 256.248C110.349 256.76 110.733 257.144 111.245 257.144ZM114.823 257.144C115.351 257.144 115.719 256.76 115.719 256.248C115.719 255.736 115.351 255.352 114.823 255.352C114.311 255.352 113.927 255.736 113.927 256.248C113.927 256.76 114.311 257.144 114.823 257.144Z" fill="#000D6E"/>
<rect width="397" height="24" transform="translate(83 263)" fill="#E5BCD3"/>
<g clip-path="url(#clip4_2645_17318)">
<line x1="151.908" y1="263.5" x2="166.908" y2="263.5" stroke="#E8178A"/>
<line x1="159.408" y1="287.188" x2="159.408" y2="263.188" stroke="#E8178A"/>
<line x1="151.908" y1="286.5" x2="166.908" y2="286.5" stroke="#E8178A"/>
</g>
<path d="M138.628 280V278.681H133.994L136.208 276.315C136.5 276.006 136.769 275.705 137.015 275.413C137.266 275.121 137.482 274.832 137.664 274.545C137.842 274.258 137.981 273.968 138.081 273.677C138.186 273.381 138.239 273.075 138.239 272.761C138.239 272.341 138.17 271.959 138.034 271.612C137.897 271.261 137.699 270.961 137.439 270.71C137.175 270.459 136.849 270.263 136.461 270.122C136.078 269.981 135.643 269.91 135.156 269.91C134.636 269.91 134.164 269.994 133.741 270.163C133.321 270.332 132.966 270.56 132.674 270.847C132.378 271.134 132.15 271.471 131.991 271.858C131.831 272.241 131.751 272.649 131.751 273.082H133.392C133.392 272.795 133.428 272.54 133.501 272.316C133.574 272.089 133.684 271.895 133.829 271.735C133.971 271.585 134.148 271.469 134.363 271.387C134.577 271.305 134.83 271.264 135.121 271.264C135.349 271.264 135.554 271.302 135.737 271.38C135.924 271.457 136.083 271.564 136.215 271.701C136.347 271.838 136.448 272.002 136.516 272.193C136.584 272.385 136.619 272.597 136.619 272.829C136.619 273.002 136.593 273.175 136.543 273.349C136.498 273.517 136.42 273.7 136.311 273.896C136.197 274.091 136.049 274.308 135.867 274.545C135.684 274.777 135.459 275.042 135.19 275.338L131.95 278.865V280H138.628ZM145.933 276.452V270.047H144.251L139.951 276.773L139.992 277.778H144.299V280H145.933V277.778H147.184V276.452H145.933ZM141.619 276.452L144.107 272.59L144.299 272.234V276.452H141.619Z" fill="#E8178A"/>
<path d="M225.378 314.872L230.706 307.496V305.88H222.482V307.96H227.618L222.37 315.384V317H230.786L230.738 314.872H225.378ZM237.352 313.56C237.352 314.44 236.712 315.096 235.736 315.096C234.744 315.096 234.136 314.44 234.136 313.512V308.568H231.768V313.816C231.768 315.736 232.888 317.208 235.032 317.208C236.04 317.208 236.904 316.808 237.496 316.2V317H239.72V308.568H237.352V313.56ZM251.411 308.36C250.067 308.36 249.139 308.872 248.642 309.592C248.179 308.808 247.363 308.36 246.083 308.36C245.027 308.36 244.179 308.776 243.651 309.368V308.568H241.411V316.984H243.779V311.976C243.795 311.272 244.307 310.472 245.331 310.472C246.323 310.472 246.835 311.256 246.835 312.2V316.984H249.203V311.976C249.219 311.272 249.715 310.472 250.771 310.472C251.763 310.472 252.259 311.256 252.259 312.2V316.984H254.627V311.752C254.627 309.88 253.523 308.36 251.411 308.36ZM266.195 311.08C267.123 310.552 267.699 309.64 267.699 308.584C267.699 306.936 266.515 305.88 264.611 305.88H259.555V317H264.435C266.771 317 268.083 315.72 268.083 313.848C268.083 312.584 267.395 311.576 266.195 311.08ZM265.331 309.064C265.331 309.848 264.739 310.344 263.875 310.344H261.907V307.784H263.907C264.851 307.784 265.331 308.296 265.331 309.064ZM261.907 315.096V312.248H264.067C265.059 312.248 265.715 312.744 265.715 313.656C265.715 314.568 265.123 315.096 264.083 315.096H261.907ZM271.825 317V305.304H269.457V317H271.825ZM277.68 317.208C280.336 317.208 282.24 315.304 282.24 312.792C282.24 310.264 280.336 308.376 277.68 308.376C275.008 308.376 273.12 310.264 273.12 312.792C273.12 315.304 275.008 317.208 277.68 317.208ZM277.696 315.096C276.384 315.096 275.504 314.136 275.504 312.792C275.504 311.432 276.384 310.488 277.696 310.488C279.008 310.488 279.872 311.432 279.872 312.776C279.872 314.136 278.976 315.096 277.696 315.096ZM289.936 309.496C289.328 308.792 288.448 308.376 287.328 308.376C284.912 308.376 283.152 310.264 283.152 312.568C283.152 314.872 284.896 316.712 287.328 316.712C288.448 316.712 289.328 316.296 289.936 315.592V315.944C289.936 317.24 289.04 318.088 287.52 318.088C286.464 318.088 285.632 317.688 285.28 316.808L283.264 317.592C283.824 319.064 285.152 320.072 287.504 320.072C290.432 320.072 292.128 318.296 292.128 315.72V308.568H289.936V309.496ZM287.632 314.904C286.416 314.904 285.504 313.928 285.504 312.68C285.504 311.432 286.416 310.456 287.648 310.456C288.912 310.456 289.792 311.4 289.792 312.68C289.792 313.944 288.912 314.904 287.632 314.904ZM300.201 309.592C299.593 308.904 298.713 308.52 297.609 308.52C295.177 308.52 293.417 310.264 293.417 312.792C293.417 315.304 295.177 317.208 297.609 317.208C298.713 317.208 299.593 316.792 300.201 316.072V317H302.393V308.568H300.201V309.592ZM297.945 315.112C296.681 315.112 295.769 314.136 295.769 312.792C295.769 311.448 296.681 310.456 297.945 310.456C299.241 310.456 300.121 311.416 300.121 312.792C300.121 314.168 299.241 315.112 297.945 315.112ZM306.322 308.568H304.082V317H306.45V312.36C306.45 311.24 307.298 310.584 308.738 310.584V308.36C307.746 308.36 306.898 308.776 306.322 309.384V308.568ZM315.16 317V314.936H314.264C313.432 314.936 312.968 314.456 312.968 313.56V310.584H315.096V308.568H313.048V306.344H310.744V307.656C310.744 308.264 310.456 308.568 309.88 308.568H309.16V310.584H310.6V313.848C310.6 315.752 311.672 317 313.768 317H315.16ZM317.47 307.336C318.334 307.336 319.022 306.728 319.022 305.848C319.022 304.968 318.334 304.328 317.47 304.328C316.606 304.328 315.934 304.968 315.934 305.848C315.934 306.728 316.606 307.336 317.47 307.336ZM318.654 317V308.568H316.286V317H318.654ZM324.908 312.472L328.268 308.568H325.628L322.716 311.896V305.304H320.348V317H322.716V313.176L325.74 317H328.316L324.908 312.472ZM336.587 313.512C336.619 313.304 336.635 312.984 336.635 312.616C336.635 310.504 335.019 308.376 332.299 308.376C329.883 308.376 327.947 310.344 327.947 312.792C327.947 315.304 329.723 317.208 332.459 317.208C334.523 317.208 335.611 316.36 336.267 315.4L334.459 314.2C334.091 314.872 333.563 315.24 332.523 315.24C331.403 315.24 330.539 314.616 330.267 313.512H336.587ZM330.235 311.96C330.475 310.808 331.275 310.168 332.363 310.168C333.451 310.168 334.187 310.856 334.411 311.96H330.235ZM340.247 317V305.304H337.879V317H340.247Z" fill="#000D6E"/>
<rect x="84" y="288" width="395" height="46" rx="3" stroke="#000D6E" stroke-width="2"/>
</g>
<defs>
<filter id="filter0_d_2645_17318" x="29" y="25" width="505" height="364" filterUnits="userSpaceOnUse" color-interpolation-filters="sRGB">
<feFlood flood-opacity="0" result="BackgroundImageFix"/>
<feColorMatrix in="SourceAlpha" type="matrix" values="0 0 0 0 0 0 0 0 0 0 0 0 0 0 0 0 0 0 127 0" result="hardAlpha"/>
<feOffset/>
<feGaussianBlur stdDeviation="15"/>
<feComposite in2="hardAlpha" operator="out"/>
<feColorMatrix type="matrix" values="0 0 0 0 0 0 0 0 0 0.027451 0 0 0 0 0.223529 0 0 0 0.15 0"/>
<feBlend mode="normal" in2="BackgroundImageFix" result="effect1_dropShadow_2645_17318"/>
<feBlend mode="normal" in="SourceGraphic" in2="effect1_dropShadow_2645_17318" result="shape"/>
</filter>
<clipPath id="clip0_2645_17318">
<rect width="15" height="24" fill="white" transform="translate(151.908 111)"/>
</clipPath>
<clipPath id="clip1_2645_17318">
<rect width="15" height="8" fill="white" transform="translate(151.908 151)"/>
</clipPath>
<clipPath id="clip2_2645_17318">
<rect width="397" height="24" fill="white" transform="translate(83 159)"/>
</clipPath>
<clipPath id="clip3_2645_17318">
<rect width="15" height="8" fill="white" transform="translate(151.908 183)"/>
</clipPath>
<clipPath id="clip4_2645_17318">
<rect width="15" height="24" fill="white" transform="translate(151.908 263)"/>
</clipPath>
</defs>
</svg>
