<svg width="2032" height="1224" viewBox="0 0 2032 1224" fill="none" xmlns="http://www.w3.org/2000/svg">
<rect width="2032" height="1224" fill="#F6F6F6"/>
<g filter="url(#filter0_d_2645_17369)">
<g clip-path="url(#clip0_2645_17369)">
<rect x="260" y="64" width="1512" height="1096" rx="12" fill="white"/>
<g clip-path="url(#clip1_2645_17369)">
<path d="M387.12 83.9V139.5H408.8C425.44 139.5 437.12 128.62 437.12 111.66C437.12 94.7 425.44 83.9 408.8 83.9H387.12ZM399.04 128.94V94.46H408.4C418.24 94.46 425.04 100.7 425.04 111.82C425.04 122.78 418.24 128.94 408.4 128.94H399.04ZM449.894 91.18C454.214 91.18 457.654 88.14 457.654 83.74C457.654 79.34 454.214 76.14 449.894 76.14C445.574 76.14 442.214 79.34 442.214 83.74C442.214 88.14 445.574 91.18 449.894 91.18ZM455.814 139.5V97.34H443.974V139.5H455.814ZM479.887 140.54C490.687 140.54 497.647 135.34 497.647 126.86C497.647 111.34 475.087 115.42 475.087 108.62C475.087 106.46 476.847 105.18 480.047 105.18C483.167 105.18 485.407 106.62 486.447 109.5L496.447 105.66C494.687 99.82 488.607 96.38 480.207 96.38C469.967 96.38 463.407 101.26 463.407 109.26C463.407 123.74 485.887 120.22 485.887 127.58C485.887 129.98 483.807 131.42 480.287 131.42C475.567 131.42 472.527 129.26 471.407 125.58L461.407 129.42C463.807 136.7 470.527 140.54 479.887 140.54ZM528.136 96.38C522.616 96.38 518.056 98.38 514.856 101.98V97.34H503.896V153.82H515.736V135.98C518.776 138.94 522.856 140.54 527.816 140.54C539.976 140.54 548.776 131.02 548.776 118.46C548.776 105.82 540.296 96.38 528.136 96.38ZM526.216 130.06C519.656 130.06 515.256 125.34 515.256 118.46C515.256 111.58 519.656 106.78 526.216 106.78C532.456 106.78 537.016 111.74 537.016 118.46C537.016 125.18 532.456 130.06 526.216 130.06ZM567.143 139.5V81.02H555.303V139.5H567.143ZM607.615 102.46C604.575 99.02 600.175 97.1 594.655 97.1C582.495 97.1 573.695 105.82 573.695 118.46C573.695 131.02 582.495 140.54 594.655 140.54C600.175 140.54 604.575 138.46 607.615 134.86V139.5H618.575V97.34H607.615V102.46ZM596.335 130.06C590.015 130.06 585.455 125.18 585.455 118.46C585.455 111.74 590.015 106.78 596.335 106.78C602.815 106.78 607.215 111.58 607.215 118.46C607.215 125.34 602.815 130.06 596.335 130.06ZM644.861 130.06L635.341 97.34H623.101L637.181 139.5H641.101L635.421 153.82H647.101L652.301 139.5L667.821 97.34H655.581L644.861 130.06ZM706.162 83.9H694.322V91.82H685.522V101.58H694.322V129.66H685.362V139.5H712.802V129.66H706.162V83.9Z" fill="#000D6E"/>
</g>
<g clip-path="url(#clip2_2645_17369)">
<line x1="463.624" y1="160" x2="478.624" y2="160" stroke="#E8178A"/>
<line x1="471.124" y1="175.508" x2="471.124" y2="159.508" stroke="#E8178A"/>
<line x1="463.624" y1="175" x2="478.624" y2="175" stroke="#E8178A"/>
</g>
<path d="M431.894 172V162.047H431.791L427.696 163.564V165.007L430.246 164.07V172H431.894ZM440.62 161.999H440.428C439.654 161.999 438.966 162.12 438.364 162.361C437.762 162.603 437.257 162.949 436.846 163.4C436.363 163.924 436.017 164.551 435.807 165.28C435.602 166.005 435.5 166.768 435.5 167.57V168.247C435.5 168.78 435.577 169.288 435.732 169.771C435.887 170.25 436.115 170.667 436.416 171.022C436.698 171.364 437.045 171.635 437.455 171.836C437.865 172.036 438.332 172.137 438.856 172.137C439.367 172.137 439.82 172.05 440.217 171.877C440.618 171.699 440.957 171.455 441.235 171.146C441.509 170.84 441.716 170.482 441.857 170.072C442.003 169.658 442.076 169.213 442.076 168.739C442.076 168.306 442.019 167.889 441.905 167.488C441.796 167.087 441.622 166.732 441.385 166.422C441.153 166.112 440.857 165.866 440.497 165.684C440.141 165.501 439.722 165.41 439.239 165.41C439.011 165.41 438.795 165.438 438.59 165.492C438.384 165.542 438.198 165.611 438.029 165.697C437.851 165.788 437.69 165.893 437.544 166.012C437.398 166.126 437.27 166.244 437.161 166.367C437.197 165.943 437.291 165.547 437.441 165.178C437.596 164.809 437.813 164.492 438.091 164.228C438.364 163.963 438.699 163.758 439.095 163.612C439.496 163.462 439.968 163.387 440.51 163.387H440.62V161.999ZM438.836 166.736C439.1 166.736 439.332 166.791 439.533 166.9C439.738 167.005 439.909 167.151 440.046 167.338C440.182 167.525 440.285 167.743 440.353 167.994C440.426 168.24 440.463 168.502 440.463 168.78C440.463 169.072 440.426 169.343 440.353 169.594C440.28 169.84 440.173 170.054 440.032 170.236C439.891 170.414 439.72 170.555 439.519 170.66C439.319 170.76 439.091 170.811 438.836 170.811C438.603 170.811 438.384 170.758 438.179 170.653C437.974 170.549 437.794 170.396 437.639 170.195C437.484 169.995 437.361 169.744 437.27 169.443C437.184 169.143 437.14 168.794 437.14 168.397V167.892C437.213 167.723 437.304 167.57 437.414 167.434C437.523 167.297 437.646 167.176 437.783 167.071C437.933 166.966 438.097 166.884 438.275 166.825C438.453 166.766 438.64 166.736 438.836 166.736ZM444.021 174.844H445.655V171.33C445.741 171.426 445.835 171.515 445.935 171.597C446.035 171.679 446.14 171.752 446.249 171.815C446.436 171.92 446.639 172 446.858 172.055C447.081 172.109 447.325 172.137 447.589 172.137C448.054 172.137 448.466 172.041 448.827 171.85C449.187 171.658 449.49 171.394 449.736 171.057C449.982 170.724 450.166 170.327 450.289 169.867C450.417 169.407 450.481 168.91 450.481 168.377V168.233C450.481 167.677 450.417 167.169 450.289 166.709C450.162 166.244 449.977 165.845 449.736 165.513C449.49 165.18 449.184 164.923 448.82 164.74C448.46 164.558 448.043 164.467 447.569 164.467C447.327 164.467 447.099 164.494 446.885 164.549C446.671 164.599 446.475 164.672 446.297 164.768C446.161 164.84 446.033 164.927 445.914 165.027C445.796 165.128 445.687 165.239 445.586 165.362L445.525 164.604H444.021V174.844ZM448.847 168.233V168.377C448.847 168.705 448.815 169.017 448.751 169.313C448.688 169.605 448.585 169.865 448.444 170.093C448.307 170.316 448.129 170.494 447.911 170.626C447.696 170.754 447.437 170.817 447.131 170.817C446.944 170.817 446.773 170.797 446.619 170.756C446.464 170.71 446.325 170.651 446.202 170.578C446.083 170.501 445.978 170.41 445.887 170.305C445.796 170.2 445.718 170.084 445.655 169.956V166.668C445.728 166.531 445.812 166.408 445.908 166.299C446.008 166.189 446.124 166.098 446.256 166.025C446.37 165.957 446.5 165.905 446.646 165.868C446.792 165.832 446.949 165.813 447.118 165.813C447.423 165.813 447.685 165.877 447.904 166.005C448.122 166.132 448.302 166.306 448.444 166.524C448.58 166.743 448.681 167.001 448.744 167.297C448.813 167.589 448.847 167.901 448.847 168.233ZM455.522 167.092L453.772 164.604H451.975L454.565 168.247L451.886 172H453.697L455.536 169.416L457.382 172H459.187L456.507 168.247L459.104 164.604H457.293L455.522 167.092Z" fill="#E8178A"/>
<path opacity="0.2" d="M382 159.5H1652V175.5H382V159.5Z" fill="#E8178A"/>
<path d="M382 175.5H1652V267.5C1652 269.709 1650.21 271.5 1648 271.5H386C383.791 271.5 382 269.709 382 267.5V175.5Z" fill="#E8E8E8"/>
<path d="M985.637 230.74C989.017 230.74 990.817 228.88 991.417 226.56L989.237 225.9C988.817 227.54 987.757 228.64 985.697 228.64C983.457 228.64 981.757 226.9 981.757 223.58C981.757 220.34 983.417 218.46 985.717 218.46C987.677 218.46 988.757 219.64 989.197 221.2L991.417 220.62C990.837 218.34 989.017 216.36 985.677 216.36C982.057 216.36 979.257 219.2 979.257 223.58C979.257 228.16 981.857 230.74 985.637 230.74ZM998.01 230.74C1000.97 230.74 1003.33 228.46 1003.33 225.24C1003.33 221.88 1001.13 219.74 998.01 219.74C995.05 219.74 992.73 222 992.73 225.24C992.73 228.6 994.91 230.74 998.01 230.74ZM998.03 228.76C996.47 228.76 995.25 227.4 995.25 225.24C995.25 223.08 996.47 221.72 998.03 221.72C999.61 221.72 1000.81 223.06 1000.81 225.24C1000.81 227.4 999.61 228.76 998.03 228.76ZM1011.04 219.72C1009.58 219.72 1008.38 220.36 1007.74 221.5V219.96H1005.46V230.5H1007.92V224.6C1007.92 222.92 1008.84 221.88 1010.16 221.88C1011.54 221.86 1012.34 222.8 1012.34 224.6V230.5H1014.8V224.02C1014.8 221.3 1013.38 219.72 1011.04 219.72ZM1023.67 230.5V228.38H1022.49C1021.17 228.38 1020.69 227.7 1020.69 226.46V221.94H1023.59V219.96H1020.77V217.08H1018.37V218.9C1018.37 219.76 1018.11 219.96 1017.35 219.96H1016.25V221.94H1018.23V226.72C1018.23 229.02 1019.53 230.5 1022.01 230.5H1023.67ZM1034.58 225.88C1034.64 225.62 1034.66 225.12 1034.66 224.66C1034.66 221.72 1032.8 219.74 1029.88 219.74C1027 219.74 1024.78 221.98 1024.78 225.32C1024.78 228.72 1026.84 230.74 1029.9 230.74C1032.02 230.74 1033.56 229.84 1034.44 228.28L1032.76 227.2C1032.12 228.32 1031.4 228.8 1030.12 228.8C1028.58 228.8 1027.52 227.76 1027.32 225.88H1034.58ZM1027.4 224.02C1027.7 222.52 1028.66 221.66 1029.9 221.66C1031.24 221.66 1032.1 222.52 1032.28 224.04L1027.4 224.02ZM1042.41 219.72C1040.95 219.72 1039.75 220.36 1039.11 221.5V219.96H1036.83V230.5H1039.29V224.6C1039.29 222.92 1040.21 221.88 1041.53 221.88C1042.91 221.86 1043.71 222.8 1043.71 224.6V230.5H1046.17V224.02C1046.17 221.3 1044.75 219.72 1042.41 219.72ZM1055.04 230.5V228.38H1053.86C1052.54 228.38 1052.06 227.7 1052.06 226.46V221.94H1054.96V219.96H1052.14V217.08H1049.74V218.9C1049.74 219.76 1049.48 219.96 1048.72 219.96H1047.62V221.94H1049.6V226.72C1049.6 229.02 1050.9 230.5 1053.38 230.5H1055.04Z" fill="#000D6E"/>
<g clip-path="url(#clip3_2645_17369)">
<path d="M385.072 315.14V348.5H398.08C408.064 348.5 415.072 341.972 415.072 331.796C415.072 321.62 408.064 315.14 398.08 315.14H385.072ZM392.224 342.164V321.476H397.84C403.744 321.476 407.824 325.22 407.824 331.892C407.824 338.468 403.744 342.164 397.84 342.164H392.224ZM422.737 319.508C425.329 319.508 427.393 317.684 427.393 315.044C427.393 312.404 425.329 310.484 422.737 310.484C420.145 310.484 418.129 312.404 418.129 315.044C418.129 317.684 420.145 319.508 422.737 319.508ZM426.289 348.5V323.204H419.185V348.5H426.289ZM440.732 349.124C447.212 349.124 451.388 346.004 451.388 340.916C451.388 331.604 437.852 334.052 437.852 329.972C437.852 328.676 438.908 327.908 440.828 327.908C442.7 327.908 444.044 328.772 444.668 330.5L450.668 328.196C449.612 324.692 445.964 322.628 440.924 322.628C434.78 322.628 430.844 325.556 430.844 330.356C430.844 339.044 444.332 336.932 444.332 341.348C444.332 342.788 443.084 343.652 440.972 343.652C438.14 343.652 436.316 342.356 435.644 340.148L429.644 342.452C431.084 346.82 435.116 349.124 440.732 349.124ZM469.682 322.628C466.37 322.628 463.634 323.828 461.714 325.988V323.204H455.138V357.092H462.242V346.388C464.066 348.164 466.514 349.124 469.49 349.124C476.786 349.124 482.066 343.412 482.066 335.876C482.066 328.292 476.978 322.628 469.682 322.628ZM468.53 342.836C464.594 342.836 461.954 340.004 461.954 335.876C461.954 331.748 464.594 328.868 468.53 328.868C472.274 328.868 475.01 331.844 475.01 335.876C475.01 339.908 472.274 342.836 468.53 342.836ZM493.086 348.5V313.412H485.982V348.5H493.086ZM517.369 326.276C515.545 324.212 512.905 323.06 509.593 323.06C502.297 323.06 497.017 328.292 497.017 335.876C497.017 343.412 502.297 349.124 509.593 349.124C512.905 349.124 515.545 347.876 517.369 345.716V348.5H523.945V323.204H517.369V326.276ZM510.601 342.836C506.809 342.836 504.073 339.908 504.073 335.876C504.073 331.844 506.809 328.868 510.601 328.868C514.489 328.868 517.129 331.748 517.129 335.876C517.129 340.004 514.489 342.836 510.601 342.836ZM539.717 342.836L534.005 323.204H526.661L535.109 348.5H537.461L534.053 357.092H541.061L544.181 348.5L553.493 323.204H546.149L539.717 342.836ZM580.769 336.068C584.993 332.18 587.393 328.724 587.393 324.308C587.393 318.404 582.833 314.564 575.681 314.564C569.585 314.564 564.737 317.972 563.489 323.156L570.209 325.316C570.977 322.196 573.041 320.612 575.633 320.612C578.369 320.612 580.145 322.244 580.145 324.644C580.145 327.428 577.937 330.212 575.201 332.708L563.537 343.796V348.5H587.969V342.596H573.905L580.769 336.068Z" fill="#000D6E"/>
</g>
<g clip-path="url(#clip4_2645_17369)">
<line x1="463.577" y1="360" x2="478.577" y2="360" stroke="#E8178A"/>
<line x1="471.077" y1="367.504" x2="471.077" y2="359.504" stroke="#E8178A"/>
<line x1="463.577" y1="367" x2="478.577" y2="367" stroke="#E8178A"/>
</g>
<path d="M450.731 362.336C450.731 362.115 450.693 361.919 450.615 361.748C450.538 361.575 450.432 361.43 450.297 361.314C450.158 361.195 449.995 361.107 449.808 361.047C449.624 360.986 449.422 360.955 449.203 360.955C448.982 360.955 448.779 360.986 448.592 361.047C448.407 361.107 448.249 361.195 448.117 361.314C447.982 361.432 447.876 361.577 447.799 361.748C447.723 361.919 447.686 362.115 447.686 362.336C447.686 362.459 447.703 362.576 447.737 362.688C447.771 362.8 447.819 362.902 447.881 362.996C447.94 363.087 448.012 363.17 448.096 363.245C448.183 363.32 448.278 363.384 448.383 363.437C448.26 363.493 448.148 363.563 448.048 363.645C447.95 363.725 447.866 363.815 447.795 363.915C447.725 364.02 447.67 364.134 447.631 364.257C447.595 364.38 447.577 364.51 447.577 364.646C447.577 364.879 447.618 365.084 447.7 365.262C447.784 365.437 447.9 365.584 448.048 365.703C448.194 365.823 448.366 365.915 448.564 365.976C448.765 366.038 448.981 366.068 449.214 366.068C449.442 366.068 449.654 366.038 449.849 365.976C450.048 365.915 450.221 365.823 450.369 365.703C450.515 365.584 450.63 365.436 450.714 365.258C450.799 365.081 450.841 364.877 450.841 364.646C450.841 364.485 450.814 364.334 450.762 364.195C450.71 364.056 450.637 363.932 450.543 363.823C450.477 363.741 450.4 363.669 450.311 363.607C450.224 363.544 450.13 363.488 450.027 363.44C450.114 363.397 450.192 363.347 450.263 363.29C450.334 363.233 450.396 363.171 450.451 363.105C450.54 363.002 450.608 362.886 450.656 362.756C450.706 362.626 450.731 362.486 450.731 362.336ZM450.024 364.602C450.024 364.73 450.003 364.844 449.962 364.944C449.921 365.042 449.867 365.126 449.798 365.197C449.725 365.265 449.639 365.318 449.538 365.354C449.44 365.39 449.332 365.409 449.214 365.409C449.088 365.409 448.976 365.392 448.875 365.357C448.777 365.321 448.693 365.27 448.622 365.204C448.55 365.135 448.494 365.051 448.455 364.951C448.416 364.848 448.397 364.733 448.397 364.605C448.397 364.48 448.415 364.367 448.452 364.267C448.49 364.165 448.545 364.076 448.616 364C448.686 363.93 448.771 363.875 448.869 363.836C448.969 363.798 449.082 363.778 449.207 363.778C449.328 363.778 449.438 363.798 449.538 363.836C449.639 363.875 449.725 363.93 449.798 364C449.869 364.076 449.924 364.165 449.962 364.267C450.003 364.367 450.024 364.479 450.024 364.602ZM449.918 362.367C449.918 362.478 449.901 362.581 449.867 362.674C449.832 362.765 449.785 362.843 449.723 362.907C449.661 362.973 449.587 363.024 449.501 363.061C449.414 363.097 449.317 363.115 449.21 363.115C449.103 363.115 449.006 363.097 448.92 363.061C448.833 363.024 448.759 362.973 448.698 362.907C448.634 362.843 448.586 362.765 448.554 362.674C448.522 362.581 448.506 362.478 448.506 362.367C448.506 362.253 448.522 362.149 448.554 362.056C448.586 361.962 448.632 361.884 448.691 361.82C448.752 361.756 448.825 361.707 448.91 361.673C448.996 361.636 449.093 361.618 449.2 361.618C449.309 361.618 449.407 361.636 449.494 361.673C449.581 361.709 449.656 361.759 449.72 361.823C449.781 361.892 449.829 361.971 449.863 362.062C449.9 362.154 449.918 362.255 449.918 362.367ZM451.776 367.422H452.592V365.665C452.636 365.713 452.682 365.757 452.733 365.798C452.783 365.839 452.835 365.876 452.89 365.908C452.983 365.96 453.085 366 453.194 366.027C453.306 366.055 453.428 366.068 453.56 366.068C453.792 366.068 453.998 366.021 454.178 365.925C454.358 365.829 454.51 365.697 454.633 365.528C454.756 365.362 454.848 365.164 454.91 364.934C454.974 364.703 455.006 364.455 455.006 364.188V364.117C455.006 363.839 454.974 363.585 454.91 363.354C454.846 363.122 454.754 362.923 454.633 362.756C454.51 362.59 454.357 362.461 454.175 362.37C453.995 362.279 453.786 362.233 453.549 362.233C453.429 362.233 453.315 362.247 453.208 362.274C453.101 362.299 453.003 362.336 452.914 362.384C452.845 362.42 452.782 362.464 452.722 362.514C452.663 362.564 452.608 362.62 452.558 362.681L452.528 362.302H451.776V367.422ZM454.189 364.117V364.188C454.189 364.353 454.173 364.509 454.141 364.657C454.109 364.803 454.058 364.932 453.987 365.046C453.919 365.158 453.83 365.247 453.72 365.313C453.613 365.377 453.483 365.409 453.331 365.409C453.237 365.409 453.152 365.398 453.074 365.378C452.997 365.355 452.927 365.326 452.866 365.289C452.807 365.25 452.754 365.205 452.709 365.152C452.663 365.1 452.624 365.042 452.592 364.978V363.334C452.629 363.266 452.671 363.204 452.719 363.149C452.769 363.095 452.827 363.049 452.893 363.013C452.95 362.979 453.015 362.952 453.088 362.934C453.161 362.916 453.24 362.907 453.324 362.907C453.477 362.907 453.608 362.939 453.717 363.002C453.826 363.066 453.916 363.153 453.987 363.262C454.055 363.372 454.105 363.5 454.137 363.648C454.172 363.794 454.189 363.95 454.189 364.117ZM457.526 363.546L456.651 362.302H455.752L457.048 364.124L455.708 366H456.614L457.533 364.708L458.456 366H459.358L458.019 364.124L459.317 362.302H458.412L457.526 363.546Z" fill="#E8178A"/>
<path opacity="0.2" d="M382 359.513H1652V367.513H382V359.513Z" fill="#E8178A"/>
<path d="M382 367.513H1652V459.513C1652 461.722 1650.21 463.513 1648 463.513H386C383.791 463.513 382 461.722 382 459.513V367.513Z" fill="#E8E8E8"/>
<path d="M985.637 422.753C989.017 422.753 990.817 420.893 991.417 418.573L989.237 417.913C988.817 419.553 987.757 420.653 985.697 420.653C983.457 420.653 981.757 418.913 981.757 415.593C981.757 412.353 983.417 410.473 985.717 410.473C987.677 410.473 988.757 411.653 989.197 413.213L991.417 412.633C990.837 410.353 989.017 408.373 985.677 408.373C982.057 408.373 979.257 411.213 979.257 415.593C979.257 420.173 981.857 422.753 985.637 422.753ZM998.01 422.753C1000.97 422.753 1003.33 420.473 1003.33 417.253C1003.33 413.893 1001.13 411.753 998.01 411.753C995.05 411.753 992.73 414.013 992.73 417.253C992.73 420.613 994.91 422.753 998.01 422.753ZM998.03 420.773C996.47 420.773 995.25 419.413 995.25 417.253C995.25 415.093 996.47 413.733 998.03 413.733C999.61 413.733 1000.81 415.073 1000.81 417.253C1000.81 419.413 999.61 420.773 998.03 420.773ZM1011.04 411.733C1009.58 411.733 1008.38 412.373 1007.74 413.513V411.973H1005.46V422.513H1007.92V416.613C1007.92 414.933 1008.84 413.893 1010.16 413.893C1011.54 413.873 1012.34 414.813 1012.34 416.613V422.513H1014.8V416.033C1014.8 413.313 1013.38 411.733 1011.04 411.733ZM1023.67 422.513V420.393H1022.49C1021.17 420.393 1020.69 419.713 1020.69 418.473V413.953H1023.59V411.973H1020.77V409.093H1018.37V410.913C1018.37 411.773 1018.11 411.973 1017.35 411.973H1016.25V413.953H1018.23V418.733C1018.23 421.033 1019.53 422.513 1022.01 422.513H1023.67ZM1034.58 417.893C1034.64 417.633 1034.66 417.133 1034.66 416.673C1034.66 413.733 1032.8 411.753 1029.88 411.753C1027 411.753 1024.78 413.993 1024.78 417.333C1024.78 420.733 1026.84 422.753 1029.9 422.753C1032.02 422.753 1033.56 421.853 1034.44 420.293L1032.76 419.213C1032.12 420.333 1031.4 420.813 1030.12 420.813C1028.58 420.813 1027.52 419.773 1027.32 417.893H1034.58ZM1027.4 416.033C1027.7 414.533 1028.66 413.673 1029.9 413.673C1031.24 413.673 1032.1 414.533 1032.28 416.053L1027.4 416.033ZM1042.41 411.733C1040.95 411.733 1039.75 412.373 1039.11 413.513V411.973H1036.83V422.513H1039.29V416.613C1039.29 414.933 1040.21 413.893 1041.53 413.893C1042.91 413.873 1043.71 414.813 1043.71 416.613V422.513H1046.17V416.033C1046.17 413.313 1044.75 411.733 1042.41 411.733ZM1055.04 422.513V420.393H1053.86C1052.54 420.393 1052.06 419.713 1052.06 418.473V413.953H1054.96V411.973H1052.14V409.093H1049.74V410.913C1049.74 411.773 1049.48 411.973 1048.72 411.973H1047.62V413.953H1049.6V418.733C1049.6 421.033 1050.9 422.513 1053.38 422.513H1055.04Z" fill="#000D6E"/>
<g clip-path="url(#clip5_2645_17369)">
<path d="M401.12 516.673H390.52V505.713H384.56V533.513H390.52V521.993H401.12V533.513H407.08V505.713H401.12V516.673ZM432.023 524.793C432.103 524.273 432.143 523.473 432.143 522.553C432.143 517.273 428.103 511.953 421.303 511.953C415.263 511.953 410.423 516.873 410.423 522.993C410.423 529.273 414.863 534.033 421.703 534.033C426.863 534.033 429.583 531.913 431.223 529.513L426.703 526.513C425.783 528.193 424.463 529.113 421.863 529.113C419.063 529.113 416.903 527.553 416.223 524.793H432.023ZM416.143 520.913C416.743 518.033 418.743 516.433 421.463 516.433C424.183 516.433 426.023 518.153 426.583 520.913H416.143ZM451.253 514.993C449.733 513.273 447.533 512.313 444.773 512.313C438.693 512.313 434.293 516.673 434.293 522.993C434.293 529.273 438.693 534.033 444.773 534.033C447.533 534.033 449.733 532.993 451.253 531.193V533.513H456.733V512.433H451.253V514.993ZM445.613 528.793C442.453 528.793 440.173 526.353 440.173 522.993C440.173 519.633 442.453 517.153 445.613 517.153C448.853 517.153 451.053 519.553 451.053 522.993C451.053 526.433 448.853 528.793 445.613 528.793ZM476.516 514.273C474.956 512.793 472.836 511.953 470.316 511.953C464.276 511.953 459.996 516.673 459.996 522.993C459.996 529.273 464.396 534.033 470.476 534.033C473.196 534.033 475.396 533.033 476.956 531.353V533.513H482.436V504.273H476.516V514.273ZM471.316 528.793C468.156 528.793 465.876 526.353 465.876 522.993C465.876 519.633 468.156 517.153 471.316 517.153C474.556 517.153 476.756 519.553 476.756 522.993C476.756 526.433 474.556 528.793 471.316 528.793ZM492.579 533.513V504.273H486.659V533.513H492.579ZM499.775 509.353C501.935 509.353 503.655 507.833 503.655 505.633C503.655 503.433 501.935 501.833 499.775 501.833C497.615 501.833 495.935 503.433 495.935 505.633C495.935 507.833 497.615 509.353 499.775 509.353ZM502.735 533.513V512.433H496.815V533.513H502.735ZM518.932 511.913C516.212 511.913 514.012 512.913 512.572 514.393V512.433H506.972V533.513H512.892V521.033C512.932 518.873 514.772 517.193 517.132 517.193C519.532 517.193 521.292 518.713 521.292 521.393V533.513H527.172V520.233C527.172 515.313 523.972 511.913 518.932 511.913ZM551.749 524.793C551.829 524.273 551.869 523.473 551.869 522.553C551.869 517.273 547.829 511.953 541.029 511.953C534.989 511.953 530.149 516.873 530.149 522.993C530.149 529.273 534.589 534.033 541.429 534.033C546.589 534.033 549.309 531.913 550.949 529.513L546.429 526.513C545.509 528.193 544.189 529.113 541.589 529.113C538.789 529.113 536.629 527.553 535.949 524.793H551.749ZM535.869 520.913C536.469 518.033 538.469 516.433 541.189 516.433C543.909 516.433 545.749 518.153 546.309 520.913H535.869ZM572.831 505.713H566.911V509.673H562.511V514.553H566.911V528.593H562.431V533.513H576.151V528.593H572.831V505.713Z" fill="#000D6E"/>
</g>
<g clip-path="url(#clip6_2645_17369)">
<line x1="463.577" y1="544.013" x2="478.577" y2="544.013" stroke="#E8178A"/>
<line x1="471.077" y1="551.517" x2="471.077" y2="543.517" stroke="#E8178A"/>
<line x1="463.577" y1="551.013" x2="478.577" y2="551.013" stroke="#E8178A"/>
</g>
<path d="M450.731 546.349C450.731 546.128 450.693 545.932 450.615 545.761C450.538 545.588 450.432 545.443 450.297 545.327C450.158 545.209 449.995 545.12 449.808 545.061C449.624 544.999 449.422 544.968 449.203 544.968C448.982 544.968 448.779 544.999 448.592 545.061C448.407 545.12 448.249 545.209 448.117 545.327C447.982 545.446 447.876 545.59 447.799 545.761C447.723 545.932 447.686 546.128 447.686 546.349C447.686 546.472 447.703 546.59 447.737 546.701C447.771 546.813 447.819 546.915 447.881 547.009C447.94 547.1 448.012 547.183 448.096 547.258C448.183 547.334 448.278 547.397 448.383 547.45C448.26 547.507 448.148 547.576 448.048 547.658C447.95 547.738 447.866 547.828 447.795 547.928C447.725 548.033 447.67 548.147 447.631 548.27C447.595 548.393 447.577 548.523 447.577 548.66C447.577 548.892 447.618 549.097 447.7 549.275C447.784 549.45 447.9 549.597 448.048 549.716C448.194 549.837 448.366 549.928 448.564 549.989C448.765 550.051 448.981 550.082 449.214 550.082C449.442 550.082 449.654 550.051 449.849 549.989C450.048 549.928 450.221 549.837 450.369 549.716C450.515 549.597 450.63 549.449 450.714 549.272C450.799 549.094 450.841 548.89 450.841 548.66C450.841 548.498 450.814 548.348 450.762 548.209C450.71 548.07 450.637 547.945 450.543 547.836C450.477 547.754 450.4 547.682 450.311 547.621C450.224 547.557 450.13 547.501 450.027 547.453C450.114 547.41 450.192 547.36 450.263 547.303C450.334 547.246 450.396 547.184 450.451 547.118C450.54 547.016 450.608 546.9 450.656 546.77C450.706 546.64 450.731 546.5 450.731 546.349ZM450.024 548.615C450.024 548.743 450.003 548.857 449.962 548.957C449.921 549.055 449.867 549.139 449.798 549.21C449.725 549.278 449.639 549.331 449.538 549.367C449.44 549.404 449.332 549.422 449.214 549.422C449.088 549.422 448.976 549.405 448.875 549.371C448.777 549.334 448.693 549.283 448.622 549.217C448.55 549.149 448.494 549.064 448.455 548.964C448.416 548.861 448.397 548.746 448.397 548.619C448.397 548.493 448.415 548.381 448.452 548.28C448.49 548.178 448.545 548.089 448.616 548.014C448.686 547.943 448.771 547.888 448.869 547.85C448.969 547.811 449.082 547.792 449.207 547.792C449.328 547.792 449.438 547.811 449.538 547.85C449.639 547.888 449.725 547.943 449.798 548.014C449.869 548.089 449.924 548.178 449.962 548.28C450.003 548.381 450.024 548.492 450.024 548.615ZM449.918 546.38C449.918 546.492 449.901 546.594 449.867 546.688C449.832 546.779 449.785 546.856 449.723 546.92C449.661 546.986 449.587 547.037 449.501 547.074C449.414 547.11 449.317 547.129 449.21 547.129C449.103 547.129 449.006 547.11 448.92 547.074C448.833 547.037 448.759 546.986 448.698 546.92C448.634 546.856 448.586 546.779 448.554 546.688C448.522 546.594 448.506 546.492 448.506 546.38C448.506 546.266 448.522 546.162 448.554 546.069C448.586 545.976 448.632 545.897 448.691 545.833C448.752 545.769 448.825 545.72 448.91 545.686C448.996 545.65 449.093 545.631 449.2 545.631C449.309 545.631 449.407 545.65 449.494 545.686C449.581 545.723 449.656 545.773 449.72 545.837C449.781 545.905 449.829 545.985 449.863 546.076C449.9 546.167 449.918 546.268 449.918 546.38ZM451.776 551.435H452.592V549.678C452.636 549.726 452.682 549.771 452.733 549.812C452.783 549.853 452.835 549.889 452.89 549.921C452.983 549.973 453.085 550.013 453.194 550.041C453.306 550.068 453.428 550.082 453.56 550.082C453.792 550.082 453.998 550.034 454.178 549.938C454.358 549.842 454.51 549.71 454.633 549.542C454.756 549.375 454.848 549.177 454.91 548.947C454.974 548.717 455.006 548.468 455.006 548.202V548.13C455.006 547.852 454.974 547.598 454.91 547.368C454.846 547.135 454.754 546.936 454.633 546.77C454.51 546.603 454.357 546.475 454.175 546.383C453.995 546.292 453.786 546.247 453.549 546.247C453.429 546.247 453.315 546.26 453.208 546.288C453.101 546.313 453.003 546.349 452.914 546.397C452.845 546.434 452.782 546.477 452.722 546.527C452.663 546.577 452.608 546.633 452.558 546.694L452.528 546.315H451.776V551.435ZM454.189 548.13V548.202C454.189 548.366 454.173 548.522 454.141 548.67C454.109 548.816 454.058 548.946 453.987 549.06C453.919 549.171 453.83 549.26 453.72 549.326C453.613 549.39 453.483 549.422 453.331 549.422C453.237 549.422 453.152 549.412 453.074 549.391C452.997 549.368 452.927 549.339 452.866 549.302C452.807 549.264 452.754 549.218 452.709 549.166C452.663 549.113 452.624 549.055 452.592 548.991V547.347C452.629 547.279 452.671 547.217 452.719 547.163C452.769 547.108 452.827 547.062 452.893 547.026C452.95 546.992 453.015 546.966 453.088 546.947C453.161 546.929 453.24 546.92 453.324 546.92C453.477 546.92 453.608 546.952 453.717 547.016C453.826 547.08 453.916 547.166 453.987 547.276C454.055 547.385 454.105 547.514 454.137 547.662C454.172 547.808 454.189 547.964 454.189 548.13ZM457.526 547.559L456.651 546.315H455.752L457.048 548.137L455.708 550.013H456.614L457.533 548.721L458.456 550.013H459.358L458.019 548.137L459.317 546.315H458.412L457.526 547.559Z" fill="#E8178A"/>
<path opacity="0.2" d="M382 543.527H1652V551.527H382V543.527Z" fill="#E8178A"/>
<path d="M382 551.527H1652V643.527C1652 645.736 1650.21 647.527 1648 647.527H386C383.791 647.527 382 645.736 382 643.527V551.527Z" fill="#E8E8E8"/>
<path d="M985.637 606.767C989.017 606.767 990.817 604.907 991.417 602.587L989.237 601.927C988.817 603.567 987.757 604.667 985.697 604.667C983.457 604.667 981.757 602.927 981.757 599.607C981.757 596.367 983.417 594.487 985.717 594.487C987.677 594.487 988.757 595.667 989.197 597.227L991.417 596.647C990.837 594.367 989.017 592.387 985.677 592.387C982.057 592.387 979.257 595.227 979.257 599.607C979.257 604.187 981.857 606.767 985.637 606.767ZM998.01 606.767C1000.97 606.767 1003.33 604.487 1003.33 601.267C1003.33 597.907 1001.13 595.767 998.01 595.767C995.05 595.767 992.73 598.027 992.73 601.267C992.73 604.627 994.91 606.767 998.01 606.767ZM998.03 604.787C996.47 604.787 995.25 603.427 995.25 601.267C995.25 599.107 996.47 597.747 998.03 597.747C999.61 597.747 1000.81 599.087 1000.81 601.267C1000.81 603.427 999.61 604.787 998.03 604.787ZM1011.04 595.747C1009.58 595.747 1008.38 596.387 1007.74 597.527V595.987H1005.46V606.527H1007.92V600.627C1007.92 598.947 1008.84 597.907 1010.16 597.907C1011.54 597.887 1012.34 598.827 1012.34 600.627V606.527H1014.8V600.047C1014.8 597.327 1013.38 595.747 1011.04 595.747ZM1023.67 606.527V604.407H1022.49C1021.17 604.407 1020.69 603.727 1020.69 602.487V597.967H1023.59V595.987H1020.77V593.107H1018.37V594.927C1018.37 595.787 1018.11 595.987 1017.35 595.987H1016.25V597.967H1018.23V602.747C1018.23 605.047 1019.53 606.527 1022.01 606.527H1023.67ZM1034.58 601.907C1034.64 601.647 1034.66 601.147 1034.66 600.687C1034.66 597.747 1032.8 595.767 1029.88 595.767C1027 595.767 1024.78 598.007 1024.78 601.347C1024.78 604.747 1026.84 606.767 1029.9 606.767C1032.02 606.767 1033.56 605.867 1034.44 604.307L1032.76 603.227C1032.12 604.347 1031.4 604.827 1030.12 604.827C1028.58 604.827 1027.52 603.787 1027.32 601.907H1034.58ZM1027.4 600.047C1027.7 598.547 1028.66 597.687 1029.9 597.687C1031.24 597.687 1032.1 598.547 1032.28 600.067L1027.4 600.047ZM1042.41 595.747C1040.95 595.747 1039.75 596.387 1039.11 597.527V595.987H1036.83V606.527H1039.29V600.627C1039.29 598.947 1040.21 597.907 1041.53 597.907C1042.91 597.887 1043.71 598.827 1043.71 600.627V606.527H1046.17V600.047C1046.17 597.327 1044.75 595.747 1042.41 595.747ZM1055.04 606.527V604.407H1053.86C1052.54 604.407 1052.06 603.727 1052.06 602.487V597.967H1054.96V595.987H1052.14V593.107H1049.74V594.927C1049.74 595.787 1049.48 595.987 1048.72 595.987H1047.62V597.967H1049.6V602.747C1049.6 605.047 1050.9 606.527 1053.38 606.527H1055.04Z" fill="#000D6E"/>
<g clip-path="url(#clip7_2645_17369)">
<path d="M397.296 697.055H388.816V688.287H384.048V710.527H388.816V701.311H397.296V710.527H402.064V688.287H397.296V697.055ZM422.018 703.551C422.082 703.135 422.114 702.495 422.114 701.759C422.114 697.535 418.882 693.279 413.442 693.279C408.61 693.279 404.738 697.215 404.738 702.111C404.738 707.135 408.29 710.943 413.762 710.943C417.89 710.943 420.066 709.247 421.378 707.327L417.762 704.927C417.026 706.271 415.97 707.007 413.89 707.007C411.65 707.007 409.922 705.759 409.378 703.551H422.018ZM409.314 700.447C409.794 698.143 411.394 696.863 413.57 696.863C415.746 696.863 417.218 698.239 417.666 700.447H409.314ZM437.402 695.711C436.186 694.335 434.426 693.567 432.218 693.567C427.354 693.567 423.834 697.055 423.834 702.111C423.834 707.135 427.354 710.943 432.218 710.943C434.426 710.943 436.186 710.111 437.402 708.671V710.527H441.786V693.663H437.402V695.711ZM432.89 706.751C430.362 706.751 428.538 704.799 428.538 702.111C428.538 699.423 430.362 697.439 432.89 697.439C435.482 697.439 437.242 699.359 437.242 702.111C437.242 704.863 435.482 706.751 432.89 706.751ZM457.613 695.135C456.365 693.951 454.669 693.279 452.653 693.279C447.821 693.279 444.397 697.055 444.397 702.111C444.397 707.135 447.917 710.943 452.781 710.943C454.957 710.943 456.717 710.143 457.965 708.799V710.527H462.349V687.135H457.613V695.135ZM453.453 706.751C450.925 706.751 449.101 704.799 449.101 702.111C449.101 699.423 450.925 697.439 453.453 697.439C456.045 697.439 457.805 699.359 457.805 702.111C457.805 704.863 456.045 706.751 453.453 706.751ZM470.463 710.527V687.135H465.727V710.527H470.463ZM476.22 691.199C477.948 691.199 479.324 689.983 479.324 688.223C479.324 686.463 477.948 685.183 476.22 685.183C474.492 685.183 473.148 686.463 473.148 688.223C473.148 689.983 474.492 691.199 476.22 691.199ZM478.588 710.527V693.663H473.852V710.527H478.588ZM491.545 693.247C489.369 693.247 487.609 694.047 486.457 695.231V693.663H481.977V710.527H486.713V700.543C486.745 698.815 488.217 697.471 490.105 697.471C492.025 697.471 493.433 698.687 493.433 700.831V710.527H498.137V699.903C498.137 695.967 495.577 693.247 491.545 693.247ZM517.8 703.551C517.864 703.135 517.896 702.495 517.896 701.759C517.896 697.535 514.664 693.279 509.224 693.279C504.391 693.279 500.52 697.215 500.52 702.111C500.52 707.135 504.072 710.943 509.544 710.943C513.672 710.943 515.847 709.247 517.16 707.327L513.544 704.927C512.808 706.271 511.752 707.007 509.672 707.007C507.432 707.007 505.704 705.759 505.16 703.551H517.8ZM505.096 700.447C505.576 698.143 507.176 696.863 509.352 696.863C511.528 696.863 513 698.239 513.448 700.447H505.096ZM537.513 702.239C540.329 699.647 541.929 697.343 541.929 694.399C541.929 690.463 538.889 687.903 534.121 687.903C530.057 687.903 526.825 690.175 525.993 693.631L530.473 695.071C530.985 692.991 532.361 691.935 534.089 691.935C535.913 691.935 537.097 693.023 537.097 694.623C537.097 696.479 535.625 698.335 533.801 699.999L526.025 707.391V710.527H542.313V706.591H532.937L537.513 702.239Z" fill="#000D6E"/>
</g>
<g clip-path="url(#clip8_2645_17369)">
<line x1="463.577" y1="720.027" x2="478.577" y2="720.027" stroke="#E8178A"/>
<line x1="471.077" y1="727.531" x2="471.077" y2="719.531" stroke="#E8178A"/>
<line x1="463.577" y1="727.027" x2="478.577" y2="727.027" stroke="#E8178A"/>
</g>
<path d="M450.731 722.363C450.731 722.142 450.693 721.946 450.615 721.775C450.538 721.601 450.432 721.457 450.297 721.341C450.158 721.222 449.995 721.133 449.808 721.074C449.624 721.012 449.422 720.982 449.203 720.982C448.982 720.982 448.779 721.012 448.592 721.074C448.407 721.133 448.249 721.222 448.117 721.341C447.982 721.459 447.876 721.604 447.799 721.775C447.723 721.946 447.686 722.142 447.686 722.363C447.686 722.486 447.703 722.603 447.737 722.715C447.771 722.826 447.819 722.929 447.881 723.022C447.94 723.113 448.012 723.197 448.096 723.272C448.183 723.347 448.278 723.411 448.383 723.463C448.26 723.52 448.148 723.59 448.048 723.672C447.95 723.751 447.866 723.841 447.795 723.942C447.725 724.046 447.67 724.16 447.631 724.283C447.595 724.406 447.577 724.536 447.577 724.673C447.577 724.906 447.618 725.111 447.7 725.288C447.784 725.464 447.9 725.611 448.048 725.729C448.194 725.85 448.366 725.941 448.564 726.003C448.765 726.064 448.981 726.095 449.214 726.095C449.442 726.095 449.654 726.064 449.849 726.003C450.048 725.941 450.221 725.85 450.369 725.729C450.515 725.611 450.63 725.463 450.714 725.285C450.799 725.107 450.841 724.903 450.841 724.673C450.841 724.511 450.814 724.361 450.762 724.222C450.71 724.083 450.637 723.959 450.543 723.849C450.477 723.767 450.4 723.696 450.311 723.634C450.224 723.57 450.13 723.514 450.027 723.467C450.114 723.423 450.192 723.373 450.263 723.316C450.334 723.259 450.396 723.198 450.451 723.132C450.54 723.029 450.608 722.913 450.656 722.783C450.706 722.653 450.731 722.513 450.731 722.363ZM450.024 724.629C450.024 724.756 450.003 724.87 449.962 724.97C449.921 725.068 449.867 725.153 449.798 725.223C449.725 725.292 449.639 725.344 449.538 725.381C449.44 725.417 449.332 725.435 449.214 725.435C449.088 725.435 448.976 725.418 448.875 725.384C448.777 725.348 448.693 725.296 448.622 725.23C448.55 725.162 448.494 725.078 448.455 724.977C448.416 724.875 448.397 724.76 448.397 724.632C448.397 724.507 448.415 724.394 448.452 724.294C448.49 724.191 448.545 724.102 448.616 724.027C448.686 723.956 448.771 723.902 448.869 723.863C448.969 723.824 449.082 723.805 449.207 723.805C449.328 723.805 449.438 723.824 449.538 723.863C449.639 723.902 449.725 723.956 449.798 724.027C449.869 724.102 449.924 724.191 449.962 724.294C450.003 724.394 450.024 724.506 450.024 724.629ZM449.918 722.393C449.918 722.505 449.901 722.608 449.867 722.701C449.832 722.792 449.785 722.87 449.723 722.933C449.661 722.999 449.587 723.051 449.501 723.087C449.414 723.124 449.317 723.142 449.21 723.142C449.103 723.142 449.006 723.124 448.92 723.087C448.833 723.051 448.759 722.999 448.698 722.933C448.634 722.87 448.586 722.792 448.554 722.701C448.522 722.608 448.506 722.505 448.506 722.393C448.506 722.279 448.522 722.176 448.554 722.082C448.586 721.989 448.632 721.91 448.691 721.846C448.752 721.783 448.825 721.734 448.91 721.699C448.996 721.663 449.093 721.645 449.2 721.645C449.309 721.645 449.407 721.663 449.494 721.699C449.581 721.736 449.656 721.786 449.72 721.85C449.781 721.918 449.829 721.998 449.863 722.089C449.9 722.18 449.918 722.282 449.918 722.393ZM451.776 727.448H452.592V725.692C452.636 725.74 452.682 725.784 452.733 725.825C452.783 725.866 452.835 725.902 452.89 725.934C452.983 725.987 453.085 726.027 453.194 726.054C453.306 726.081 453.428 726.095 453.56 726.095C453.792 726.095 453.998 726.047 454.178 725.951C454.358 725.856 454.51 725.724 454.633 725.555C454.756 725.389 454.848 725.19 454.91 724.96C454.974 724.73 455.006 724.482 455.006 724.215V724.143C455.006 723.865 454.974 723.611 454.91 723.381C454.846 723.149 454.754 722.949 454.633 722.783C454.51 722.617 454.357 722.488 454.175 722.397C453.995 722.306 453.786 722.26 453.549 722.26C453.429 722.26 453.315 722.274 453.208 722.301C453.101 722.326 453.003 722.363 452.914 722.41C452.845 722.447 452.782 722.49 452.722 722.54C452.663 722.59 452.608 722.646 452.558 722.708L452.528 722.328H451.776V727.448ZM454.189 724.143V724.215C454.189 724.379 454.173 724.535 454.141 724.683C454.109 724.829 454.058 724.959 453.987 725.073C453.919 725.185 453.83 725.274 453.72 725.34C453.613 725.403 453.483 725.435 453.331 725.435C453.237 725.435 453.152 725.425 453.074 725.405C452.997 725.382 452.927 725.352 452.866 725.316C452.807 725.277 452.754 725.231 452.709 725.179C452.663 725.127 452.624 725.068 452.592 725.005V723.361C452.629 723.292 452.671 723.231 452.719 723.176C452.769 723.121 452.827 723.076 452.893 723.039C452.95 723.005 453.015 722.979 453.088 722.961C453.161 722.942 453.24 722.933 453.324 722.933C453.477 722.933 453.608 722.965 453.717 723.029C453.826 723.093 453.916 723.179 453.987 723.289C454.055 723.398 454.105 723.527 454.137 723.675C454.172 723.821 454.189 723.977 454.189 724.143ZM457.526 723.573L456.651 722.328H455.752L457.048 724.15L455.708 726.027H456.614L457.533 724.735L458.456 726.027H459.358L458.019 724.15L459.317 722.328H458.412L457.526 723.573Z" fill="#E8178A"/>
<path opacity="0.2" d="M382 719.54H1652V727.54H382V719.54Z" fill="#E8178A"/>
<path d="M382 727.54H1652V819.54C1652 821.749 1650.21 823.54 1648 823.54H386C383.791 823.54 382 821.749 382 819.54V727.54Z" fill="#E8E8E8"/>
<path d="M985.637 782.78C989.017 782.78 990.817 780.92 991.417 778.6L989.237 777.94C988.817 779.58 987.757 780.68 985.697 780.68C983.457 780.68 981.757 778.94 981.757 775.62C981.757 772.38 983.417 770.5 985.717 770.5C987.677 770.5 988.757 771.68 989.197 773.24L991.417 772.66C990.837 770.38 989.017 768.4 985.677 768.4C982.057 768.4 979.257 771.24 979.257 775.62C979.257 780.2 981.857 782.78 985.637 782.78ZM998.01 782.78C1000.97 782.78 1003.33 780.5 1003.33 777.28C1003.33 773.92 1001.13 771.78 998.01 771.78C995.05 771.78 992.73 774.04 992.73 777.28C992.73 780.64 994.91 782.78 998.01 782.78ZM998.03 780.8C996.47 780.8 995.25 779.44 995.25 777.28C995.25 775.12 996.47 773.76 998.03 773.76C999.61 773.76 1000.81 775.1 1000.81 777.28C1000.81 779.44 999.61 780.8 998.03 780.8ZM1011.04 771.76C1009.58 771.76 1008.38 772.4 1007.74 773.54V772H1005.46V782.54H1007.92V776.64C1007.92 774.96 1008.84 773.92 1010.16 773.92C1011.54 773.9 1012.34 774.84 1012.34 776.64V782.54H1014.8V776.06C1014.8 773.34 1013.38 771.76 1011.04 771.76ZM1023.67 782.54V780.42H1022.49C1021.17 780.42 1020.69 779.74 1020.69 778.5V773.98H1023.59V772H1020.77V769.12H1018.37V770.94C1018.37 771.8 1018.11 772 1017.35 772H1016.25V773.98H1018.23V778.76C1018.23 781.06 1019.53 782.54 1022.01 782.54H1023.67ZM1034.58 777.92C1034.64 777.66 1034.66 777.16 1034.66 776.7C1034.66 773.76 1032.8 771.78 1029.88 771.78C1027 771.78 1024.78 774.02 1024.78 777.36C1024.78 780.76 1026.84 782.78 1029.9 782.78C1032.02 782.78 1033.56 781.88 1034.44 780.32L1032.76 779.24C1032.12 780.36 1031.4 780.84 1030.12 780.84C1028.58 780.84 1027.52 779.8 1027.32 777.92H1034.58ZM1027.4 776.06C1027.7 774.56 1028.66 773.7 1029.9 773.7C1031.24 773.7 1032.1 774.56 1032.28 776.08L1027.4 776.06ZM1042.41 771.76C1040.95 771.76 1039.75 772.4 1039.11 773.54V772H1036.83V782.54H1039.29V776.64C1039.29 774.96 1040.21 773.92 1041.53 773.92C1042.91 773.9 1043.71 774.84 1043.71 776.64V782.54H1046.17V776.06C1046.17 773.34 1044.75 771.76 1042.41 771.76ZM1055.04 782.54V780.42H1053.86C1052.54 780.42 1052.06 779.74 1052.06 778.5V773.98H1054.96V772H1052.14V769.12H1049.74V770.94C1049.74 771.8 1049.48 772 1048.72 772H1047.62V773.98H1049.6V778.76C1049.6 781.06 1050.9 782.54 1053.38 782.54H1055.04Z" fill="#000D6E"/>
<g clip-path="url(#clip9_2645_17369)">
<path d="M393.472 869.436H387.112V862.86H383.536V879.54H387.112V872.628H393.472V879.54H397.048V862.86H393.472V869.436ZM412.014 874.308C412.062 873.996 412.086 873.516 412.086 872.964C412.086 869.796 409.662 866.604 405.582 866.604C401.958 866.604 399.054 869.556 399.054 873.228C399.054 876.996 401.718 879.852 405.822 879.852C408.918 879.852 410.55 878.58 411.534 877.14L408.822 875.34C408.27 876.348 407.478 876.9 405.918 876.9C404.238 876.9 402.942 875.964 402.534 874.308H412.014ZM402.486 871.98C402.846 870.252 404.046 869.292 405.678 869.292C407.31 869.292 408.414 870.324 408.75 871.98H402.486ZM423.552 868.428C422.64 867.396 421.32 866.82 419.664 866.82C416.016 866.82 413.376 869.436 413.376 873.228C413.376 876.996 416.016 879.852 419.664 879.852C421.32 879.852 422.64 879.228 423.552 878.148V879.54H426.84V866.892H423.552V868.428ZM420.168 876.708C418.272 876.708 416.904 875.244 416.904 873.228C416.904 871.212 418.272 869.724 420.168 869.724C422.112 869.724 423.432 871.164 423.432 873.228C423.432 875.292 422.112 876.708 420.168 876.708ZM438.71 867.996C437.774 867.108 436.502 866.604 434.99 866.604C431.366 866.604 428.798 869.436 428.798 873.228C428.798 876.996 431.438 879.852 435.086 879.852C436.718 879.852 438.038 879.252 438.974 878.244V879.54H442.262V861.996H438.71V867.996ZM435.59 876.708C433.694 876.708 432.326 875.244 432.326 873.228C432.326 871.212 433.694 869.724 435.59 869.724C437.534 869.724 438.854 871.164 438.854 873.228C438.854 875.292 437.534 876.708 435.59 876.708ZM448.347 879.54V861.996H444.795V879.54H448.347ZM452.665 865.044C453.961 865.044 454.993 864.132 454.993 862.812C454.993 861.492 453.961 860.532 452.665 860.532C451.369 860.532 450.361 861.492 450.361 862.812C450.361 864.132 451.369 865.044 452.665 865.044ZM454.441 879.54V866.892H450.889V879.54H454.441ZM464.159 866.58C462.527 866.58 461.207 867.18 460.343 868.068V866.892H456.983V879.54H460.535V872.052C460.559 870.756 461.663 869.748 463.079 869.748C464.519 869.748 465.575 870.66 465.575 872.268V879.54H469.103V871.572C469.103 868.62 467.183 866.58 464.159 866.58ZM483.85 874.308C483.898 873.996 483.922 873.516 483.922 872.964C483.922 869.796 481.498 866.604 477.418 866.604C473.794 866.604 470.89 869.556 470.89 873.228C470.89 876.996 473.554 879.852 477.658 879.852C480.754 879.852 482.386 878.58 483.37 877.14L480.658 875.34C480.106 876.348 479.314 876.9 477.754 876.9C476.074 876.9 474.778 875.964 474.37 874.308H483.85ZM474.322 871.98C474.682 870.252 475.882 869.292 477.514 869.292C479.146 869.292 480.25 870.324 480.586 871.98H474.322ZM501.563 865.644V862.86H490.499V865.644H497.555L493.355 869.532V871.884H496.091C497.579 871.884 498.755 872.796 498.755 874.308C498.755 875.748 497.675 876.804 496.019 876.804C494.435 876.804 493.283 875.964 492.899 874.668L489.635 875.964C490.331 878.292 492.827 879.852 496.115 879.852C499.811 879.852 502.427 877.572 502.427 874.548C502.427 871.788 500.411 869.724 497.531 869.556L501.563 865.644Z" fill="#000D6E"/>
</g>
<g clip-path="url(#clip10_2645_17369)">
<line x1="463.577" y1="888.04" x2="478.577" y2="888.04" stroke="#E8178A"/>
<line x1="471.077" y1="895.544" x2="471.077" y2="887.544" stroke="#E8178A"/>
<line x1="463.577" y1="895.04" x2="478.577" y2="895.04" stroke="#E8178A"/>
</g>
<path d="M450.731 890.376C450.731 890.155 450.693 889.959 450.615 889.788C450.538 889.615 450.432 889.47 450.297 889.354C450.158 889.235 449.995 889.147 449.808 889.087C449.624 889.026 449.422 888.995 449.203 888.995C448.982 888.995 448.779 889.026 448.592 889.087C448.407 889.147 448.249 889.235 448.117 889.354C447.982 889.472 447.876 889.617 447.799 889.788C447.723 889.959 447.686 890.155 447.686 890.376C447.686 890.499 447.703 890.616 447.737 890.728C447.771 890.84 447.819 890.942 447.881 891.036C447.94 891.127 448.012 891.21 448.096 891.285C448.183 891.36 448.278 891.424 448.383 891.476C448.26 891.533 448.148 891.603 448.048 891.685C447.95 891.765 447.866 891.855 447.795 891.955C447.725 892.06 447.67 892.174 447.631 892.297C447.595 892.42 447.577 892.55 447.577 892.686C447.577 892.919 447.618 893.124 447.7 893.302C447.784 893.477 447.9 893.624 448.048 893.743C448.194 893.863 448.366 893.954 448.564 894.016C448.765 894.078 448.981 894.108 449.214 894.108C449.442 894.108 449.654 894.078 449.849 894.016C450.048 893.954 450.221 893.863 450.369 893.743C450.515 893.624 450.63 893.476 450.714 893.298C450.799 893.12 450.841 892.917 450.841 892.686C450.841 892.525 450.814 892.374 450.762 892.235C450.71 892.096 450.637 891.972 450.543 891.863C450.477 891.781 450.4 891.709 450.311 891.647C450.224 891.584 450.13 891.528 450.027 891.48C450.114 891.437 450.192 891.386 450.263 891.329C450.334 891.273 450.396 891.211 450.451 891.145C450.54 891.042 450.608 890.926 450.656 890.796C450.706 890.666 450.731 890.526 450.731 890.376ZM450.024 892.642C450.024 892.77 450.003 892.884 449.962 892.984C449.921 893.082 449.867 893.166 449.798 893.237C449.725 893.305 449.639 893.357 449.538 893.394C449.44 893.43 449.332 893.449 449.214 893.449C449.088 893.449 448.976 893.432 448.875 893.397C448.777 893.361 448.693 893.31 448.622 893.244C448.55 893.175 448.494 893.091 448.455 892.991C448.416 892.888 448.397 892.773 448.397 892.645C448.397 892.52 448.415 892.407 448.452 892.307C448.49 892.204 448.545 892.116 448.616 892.04C448.686 891.97 448.771 891.915 448.869 891.876C448.969 891.838 449.082 891.818 449.207 891.818C449.328 891.818 449.438 891.838 449.538 891.876C449.639 891.915 449.725 891.97 449.798 892.04C449.869 892.116 449.924 892.204 449.962 892.307C450.003 892.407 450.024 892.519 450.024 892.642ZM449.918 890.407C449.918 890.518 449.901 890.621 449.867 890.714C449.832 890.805 449.785 890.883 449.723 890.947C449.661 891.013 449.587 891.064 449.501 891.1C449.414 891.137 449.317 891.155 449.21 891.155C449.103 891.155 449.006 891.137 448.92 891.1C448.833 891.064 448.759 891.013 448.698 890.947C448.634 890.883 448.586 890.805 448.554 890.714C448.522 890.621 448.506 890.518 448.506 890.407C448.506 890.293 448.522 890.189 448.554 890.096C448.586 890.002 448.632 889.924 448.691 889.86C448.752 889.796 448.825 889.747 448.91 889.713C448.996 889.676 449.093 889.658 449.2 889.658C449.309 889.658 449.407 889.676 449.494 889.713C449.581 889.749 449.656 889.799 449.72 889.863C449.781 889.932 449.829 890.011 449.863 890.102C449.9 890.194 449.918 890.295 449.918 890.407ZM451.776 895.462H452.592V893.705C452.636 893.753 452.682 893.797 452.733 893.838C452.783 893.879 452.835 893.916 452.89 893.948C452.983 894 453.085 894.04 453.194 894.067C453.306 894.095 453.428 894.108 453.56 894.108C453.792 894.108 453.998 894.06 454.178 893.965C454.358 893.869 454.51 893.737 454.633 893.568C454.756 893.402 454.848 893.204 454.91 892.974C454.974 892.743 455.006 892.495 455.006 892.228V892.157C455.006 891.879 454.974 891.625 454.91 891.394C454.846 891.162 454.754 890.963 454.633 890.796C454.51 890.63 454.357 890.501 454.175 890.41C453.995 890.319 453.786 890.273 453.549 890.273C453.429 890.273 453.315 890.287 453.208 890.314C453.101 890.339 453.003 890.376 452.914 890.424C452.845 890.46 452.782 890.503 452.722 890.554C452.663 890.604 452.608 890.66 452.558 890.721L452.528 890.342H451.776V895.462ZM454.189 892.157V892.228C454.189 892.392 454.173 892.549 454.141 892.697C454.109 892.842 454.058 892.972 453.987 893.086C453.919 893.198 453.83 893.287 453.72 893.353C453.613 893.417 453.483 893.449 453.331 893.449C453.237 893.449 453.152 893.438 453.074 893.418C452.997 893.395 452.927 893.365 452.866 893.329C452.807 893.29 452.754 893.245 452.709 893.192C452.663 893.14 452.624 893.082 452.592 893.018V891.374C452.629 891.306 452.671 891.244 452.719 891.189C452.769 891.135 452.827 891.089 452.893 891.053C452.95 891.018 453.015 890.992 453.088 890.974C453.161 890.956 453.24 890.947 453.324 890.947C453.477 890.947 453.608 890.979 453.717 891.042C453.826 891.106 453.916 891.193 453.987 891.302C454.055 891.411 454.105 891.54 454.137 891.688C454.172 891.834 454.189 891.99 454.189 892.157ZM457.526 891.586L456.651 890.342H455.752L457.048 892.163L455.708 894.04H456.614L457.533 892.748L458.456 894.04H459.358L458.019 892.163L459.317 890.342H458.412L457.526 891.586Z" fill="#E8178A"/>
<path opacity="0.2" d="M382 887.553H1652V895.553H382V887.553Z" fill="#E8178A"/>
<path d="M382 895.553H1652V987.553C1652 989.762 1650.21 991.553 1648 991.553H386C383.791 991.553 382 989.762 382 987.553V895.553Z" fill="#E8E8E8"/>
<path d="M985.637 950.793C989.017 950.793 990.817 948.933 991.417 946.613L989.237 945.953C988.817 947.593 987.757 948.693 985.697 948.693C983.457 948.693 981.757 946.953 981.757 943.633C981.757 940.393 983.417 938.513 985.717 938.513C987.677 938.513 988.757 939.693 989.197 941.253L991.417 940.673C990.837 938.393 989.017 936.413 985.677 936.413C982.057 936.413 979.257 939.253 979.257 943.633C979.257 948.213 981.857 950.793 985.637 950.793ZM998.01 950.793C1000.97 950.793 1003.33 948.513 1003.33 945.293C1003.33 941.933 1001.13 939.793 998.01 939.793C995.05 939.793 992.73 942.053 992.73 945.293C992.73 948.653 994.91 950.793 998.01 950.793ZM998.03 948.813C996.47 948.813 995.25 947.453 995.25 945.293C995.25 943.133 996.47 941.773 998.03 941.773C999.61 941.773 1000.81 943.113 1000.81 945.293C1000.81 947.453 999.61 948.813 998.03 948.813ZM1011.04 939.773C1009.58 939.773 1008.38 940.413 1007.74 941.553V940.013H1005.46V950.553H1007.92V944.653C1007.92 942.973 1008.84 941.933 1010.16 941.933C1011.54 941.913 1012.34 942.853 1012.34 944.653V950.553H1014.8V944.073C1014.8 941.353 1013.38 939.773 1011.04 939.773ZM1023.67 950.553V948.433H1022.49C1021.17 948.433 1020.69 947.753 1020.69 946.513V941.993H1023.59V940.013H1020.77V937.133H1018.37V938.953C1018.37 939.813 1018.11 940.013 1017.35 940.013H1016.25V941.993H1018.23V946.773C1018.23 949.073 1019.53 950.553 1022.01 950.553H1023.67ZM1034.58 945.933C1034.64 945.673 1034.66 945.173 1034.66 944.713C1034.66 941.773 1032.8 939.793 1029.88 939.793C1027 939.793 1024.78 942.033 1024.78 945.373C1024.78 948.773 1026.84 950.793 1029.9 950.793C1032.02 950.793 1033.56 949.893 1034.44 948.333L1032.76 947.253C1032.12 948.373 1031.4 948.853 1030.12 948.853C1028.58 948.853 1027.52 947.813 1027.32 945.933H1034.58ZM1027.4 944.073C1027.7 942.573 1028.66 941.713 1029.9 941.713C1031.24 941.713 1032.1 942.573 1032.28 944.093L1027.4 944.073ZM1042.41 939.773C1040.95 939.773 1039.75 940.413 1039.11 941.553V940.013H1036.83V950.553H1039.29V944.653C1039.29 942.973 1040.21 941.933 1041.53 941.933C1042.91 941.913 1043.71 942.853 1043.71 944.653V950.553H1046.17V944.073C1046.17 941.353 1044.75 939.773 1042.41 939.773ZM1055.04 950.553V948.433H1053.86C1052.54 948.433 1052.06 947.753 1052.06 946.513V941.993H1054.96V940.013H1052.14V937.133H1049.74V938.953C1049.74 939.813 1049.48 940.013 1048.72 940.013H1047.62V941.993H1049.6V946.773C1049.6 949.073 1050.9 950.553 1053.38 950.553H1055.04Z" fill="#000D6E"/>
<g clip-path="url(#clip11_2645_17369)">
<path d="M391.56 1038.13H386.26V1032.65H383.28V1046.55H386.26V1040.79H391.56V1046.55H394.54V1032.65H391.56V1038.13ZM407.011 1042.19C407.051 1041.93 407.071 1041.53 407.071 1041.07C407.071 1038.43 405.051 1035.77 401.651 1035.77C398.631 1035.77 396.211 1038.23 396.211 1041.29C396.211 1044.43 398.431 1046.81 401.851 1046.81C404.431 1046.81 405.791 1045.75 406.611 1044.55L404.351 1043.05C403.891 1043.89 403.231 1044.35 401.931 1044.35C400.531 1044.35 399.451 1043.57 399.111 1042.19H407.011ZM399.071 1040.25C399.371 1038.81 400.371 1038.01 401.731 1038.01C403.091 1038.01 404.011 1038.87 404.291 1040.25H399.071ZM416.626 1037.29C415.866 1036.43 414.766 1035.95 413.386 1035.95C410.346 1035.95 408.146 1038.13 408.146 1041.29C408.146 1044.43 410.346 1046.81 413.386 1046.81C414.766 1046.81 415.866 1046.29 416.626 1045.39V1046.55H419.366V1036.01H416.626V1037.29ZM413.806 1044.19C412.226 1044.19 411.086 1042.97 411.086 1041.29C411.086 1039.61 412.226 1038.37 413.806 1038.37C415.426 1038.37 416.526 1039.57 416.526 1041.29C416.526 1043.01 415.426 1044.19 413.806 1044.19ZM429.258 1036.93C428.478 1036.19 427.418 1035.77 426.158 1035.77C423.138 1035.77 420.998 1038.13 420.998 1041.29C420.998 1044.43 423.198 1046.81 426.238 1046.81C427.598 1046.81 428.698 1046.31 429.478 1045.47V1046.55H432.218V1031.93H429.258V1036.93ZM426.658 1044.19C425.078 1044.19 423.938 1042.97 423.938 1041.29C423.938 1039.61 425.078 1038.37 426.658 1038.37C428.278 1038.37 429.378 1039.57 429.378 1041.29C429.378 1043.01 428.278 1044.19 426.658 1044.19ZM437.29 1046.55V1031.93H434.33V1046.55H437.29ZM440.888 1034.47C441.968 1034.47 442.828 1033.71 442.828 1032.61C442.828 1031.51 441.968 1030.71 440.888 1030.71C439.808 1030.71 438.968 1031.51 438.968 1032.61C438.968 1033.71 439.808 1034.47 440.888 1034.47ZM442.368 1046.55V1036.01H439.408V1046.55H442.368ZM450.466 1035.75C449.106 1035.75 448.006 1036.25 447.286 1036.99V1036.01H444.486V1046.55H447.446V1040.31C447.466 1039.23 448.386 1038.39 449.566 1038.39C450.766 1038.39 451.646 1039.15 451.646 1040.49V1046.55H454.586V1039.91C454.586 1037.45 452.986 1035.75 450.466 1035.75ZM466.875 1042.19C466.915 1041.93 466.935 1041.53 466.935 1041.07C466.935 1038.43 464.915 1035.77 461.515 1035.77C458.495 1035.77 456.075 1038.23 456.075 1041.29C456.075 1044.43 458.295 1046.81 461.715 1046.81C464.295 1046.81 465.655 1045.75 466.475 1044.55L464.215 1043.05C463.755 1043.89 463.095 1044.35 461.795 1044.35C460.395 1044.35 459.315 1043.57 458.975 1042.19H466.875ZM458.935 1040.25C459.235 1038.81 460.235 1038.01 461.595 1038.01C462.955 1038.01 463.875 1038.87 464.155 1040.25H458.935ZM481.375 1041.31V1032.67H478.455L471.715 1041.47V1043.63H478.435V1046.55H481.375V1043.63H482.895V1041.31H481.375ZM474.775 1041.31L478.455 1036.47V1041.31H474.775Z" fill="#000D6E"/>
</g>
<g clip-path="url(#clip12_2645_17369)">
<line x1="463.577" y1="1056.05" x2="478.577" y2="1056.05" stroke="#E8178A"/>
<line x1="471.077" y1="1063.56" x2="471.077" y2="1055.56" stroke="#E8178A"/>
<line x1="463.577" y1="1063.05" x2="478.577" y2="1063.05" stroke="#E8178A"/>
</g>
<path d="M450.731 1058.39C450.731 1058.17 450.693 1057.97 450.615 1057.8C450.538 1057.63 450.432 1057.48 450.297 1057.37C450.158 1057.25 449.995 1057.16 449.808 1057.1C449.624 1057.04 449.422 1057.01 449.203 1057.01C448.982 1057.01 448.779 1057.04 448.592 1057.1C448.407 1057.16 448.249 1057.25 448.117 1057.37C447.982 1057.49 447.876 1057.63 447.799 1057.8C447.723 1057.97 447.686 1058.17 447.686 1058.39C447.686 1058.51 447.703 1058.63 447.737 1058.74C447.771 1058.85 447.819 1058.96 447.881 1059.05C447.94 1059.14 448.012 1059.22 448.096 1059.3C448.183 1059.37 448.278 1059.44 448.383 1059.49C448.26 1059.55 448.148 1059.62 448.048 1059.7C447.95 1059.78 447.866 1059.87 447.795 1059.97C447.725 1060.07 447.67 1060.19 447.631 1060.31C447.595 1060.43 447.577 1060.56 447.577 1060.7C447.577 1060.93 447.618 1061.14 447.7 1061.31C447.784 1061.49 447.9 1061.64 448.048 1061.76C448.194 1061.88 448.366 1061.97 448.564 1062.03C448.765 1062.09 448.981 1062.12 449.214 1062.12C449.442 1062.12 449.654 1062.09 449.849 1062.03C450.048 1061.97 450.221 1061.88 450.369 1061.76C450.515 1061.64 450.63 1061.49 450.714 1061.31C450.799 1061.13 450.841 1060.93 450.841 1060.7C450.841 1060.54 450.814 1060.39 450.762 1060.25C450.71 1060.11 450.637 1059.99 450.543 1059.88C450.477 1059.79 450.4 1059.72 450.311 1059.66C450.224 1059.6 450.13 1059.54 450.027 1059.49C450.114 1059.45 450.192 1059.4 450.263 1059.34C450.334 1059.29 450.396 1059.22 450.451 1059.16C450.54 1059.06 450.608 1058.94 450.656 1058.81C450.706 1058.68 450.731 1058.54 450.731 1058.39ZM450.024 1060.66C450.024 1060.78 450.003 1060.9 449.962 1061C449.921 1061.1 449.867 1061.18 449.798 1061.25C449.725 1061.32 449.639 1061.37 449.538 1061.41C449.44 1061.44 449.332 1061.46 449.214 1061.46C449.088 1061.46 448.976 1061.44 448.875 1061.41C448.777 1061.37 448.693 1061.32 448.622 1061.26C448.55 1061.19 448.494 1061.1 448.455 1061C448.416 1060.9 448.397 1060.79 448.397 1060.66C448.397 1060.53 448.415 1060.42 448.452 1060.32C448.49 1060.22 448.545 1060.13 448.616 1060.05C448.686 1059.98 448.771 1059.93 448.869 1059.89C448.969 1059.85 449.082 1059.83 449.207 1059.83C449.328 1059.83 449.438 1059.85 449.538 1059.89C449.639 1059.93 449.725 1059.98 449.798 1060.05C449.869 1060.13 449.924 1060.22 449.962 1060.32C450.003 1060.42 450.024 1060.53 450.024 1060.66ZM449.918 1058.42C449.918 1058.53 449.901 1058.63 449.867 1058.73C449.832 1058.82 449.785 1058.9 449.723 1058.96C449.661 1059.03 449.587 1059.08 449.501 1059.11C449.414 1059.15 449.317 1059.17 449.21 1059.17C449.103 1059.17 449.006 1059.15 448.92 1059.11C448.833 1059.08 448.759 1059.03 448.698 1058.96C448.634 1058.9 448.586 1058.82 448.554 1058.73C448.522 1058.63 448.506 1058.53 448.506 1058.42C448.506 1058.31 448.522 1058.2 448.554 1058.11C448.586 1058.02 448.632 1057.94 448.691 1057.87C448.752 1057.81 448.825 1057.76 448.91 1057.73C448.996 1057.69 449.093 1057.67 449.2 1057.67C449.309 1057.67 449.407 1057.69 449.494 1057.73C449.581 1057.76 449.656 1057.81 449.72 1057.88C449.781 1057.94 449.829 1058.02 449.863 1058.12C449.9 1058.21 449.918 1058.31 449.918 1058.42ZM451.776 1063.48H452.592V1061.72C452.636 1061.77 452.682 1061.81 452.733 1061.85C452.783 1061.89 452.835 1061.93 452.89 1061.96C452.983 1062.01 453.085 1062.05 453.194 1062.08C453.306 1062.11 453.428 1062.12 453.56 1062.12C453.792 1062.12 453.998 1062.07 454.178 1061.98C454.358 1061.88 454.51 1061.75 454.633 1061.58C454.756 1061.42 454.848 1061.22 454.91 1060.99C454.974 1060.76 455.006 1060.51 455.006 1060.24V1060.17C455.006 1059.89 454.974 1059.64 454.91 1059.41C454.846 1059.18 454.754 1058.98 454.633 1058.81C454.51 1058.64 454.357 1058.51 454.175 1058.42C453.995 1058.33 453.786 1058.29 453.549 1058.29C453.429 1058.29 453.315 1058.3 453.208 1058.33C453.101 1058.35 453.003 1058.39 452.914 1058.44C452.845 1058.47 452.782 1058.52 452.722 1058.57C452.663 1058.62 452.608 1058.67 452.558 1058.73L452.528 1058.35H451.776V1063.48ZM454.189 1060.17V1060.24C454.189 1060.41 454.173 1060.56 454.141 1060.71C454.109 1060.86 454.058 1060.99 453.987 1061.1C453.919 1061.21 453.83 1061.3 453.72 1061.37C453.613 1061.43 453.483 1061.46 453.331 1061.46C453.237 1061.46 453.152 1061.45 453.074 1061.43C452.997 1061.41 452.927 1061.38 452.866 1061.34C452.807 1061.3 452.754 1061.26 452.709 1061.21C452.663 1061.15 452.624 1061.1 452.592 1061.03V1059.39C452.629 1059.32 452.671 1059.26 452.719 1059.2C452.769 1059.15 452.827 1059.1 452.893 1059.07C452.95 1059.03 453.015 1059.01 453.088 1058.99C453.161 1058.97 453.24 1058.96 453.324 1058.96C453.477 1058.96 453.608 1058.99 453.717 1059.06C453.826 1059.12 453.916 1059.21 453.987 1059.32C454.055 1059.42 454.105 1059.55 454.137 1059.7C454.172 1059.85 454.189 1060 454.189 1060.17ZM457.526 1059.6L456.651 1058.35H455.752L457.048 1060.18L455.708 1062.05H456.614L457.533 1060.76L458.456 1062.05H459.358L458.019 1060.18L459.317 1058.35H458.412L457.526 1059.6Z" fill="#E8178A"/>
<path opacity="0.2" d="M382 1055.57H1652V1063.57H382V1055.57Z" fill="#E8178A"/>
<path d="M382 1063.57H1652V1155.57C1652 1157.78 1650.21 1159.57 1648 1159.57H386C383.791 1159.57 382 1157.78 382 1155.57V1063.57Z" fill="#E8E8E8"/>
<path d="M985.637 1118.81C989.017 1118.81 990.817 1116.95 991.417 1114.63L989.237 1113.97C988.817 1115.61 987.757 1116.71 985.697 1116.71C983.457 1116.71 981.757 1114.97 981.757 1111.65C981.757 1108.41 983.417 1106.53 985.717 1106.53C987.677 1106.53 988.757 1107.71 989.197 1109.27L991.417 1108.69C990.837 1106.41 989.017 1104.43 985.677 1104.43C982.057 1104.43 979.257 1107.27 979.257 1111.65C979.257 1116.23 981.857 1118.81 985.637 1118.81ZM998.01 1118.81C1000.97 1118.81 1003.33 1116.53 1003.33 1113.31C1003.33 1109.95 1001.13 1107.81 998.01 1107.81C995.05 1107.81 992.73 1110.07 992.73 1113.31C992.73 1116.67 994.91 1118.81 998.01 1118.81ZM998.03 1116.83C996.47 1116.83 995.25 1115.47 995.25 1113.31C995.25 1111.15 996.47 1109.79 998.03 1109.79C999.61 1109.79 1000.81 1111.13 1000.81 1113.31C1000.81 1115.47 999.61 1116.83 998.03 1116.83ZM1011.04 1107.79C1009.58 1107.79 1008.38 1108.43 1007.74 1109.57V1108.03H1005.46V1118.57H1007.92V1112.67C1007.92 1110.99 1008.84 1109.95 1010.16 1109.95C1011.54 1109.93 1012.34 1110.87 1012.34 1112.67V1118.57H1014.8V1112.09C1014.8 1109.37 1013.38 1107.79 1011.04 1107.79ZM1023.67 1118.57V1116.45H1022.49C1021.17 1116.45 1020.69 1115.77 1020.69 1114.53V1110.01H1023.59V1108.03H1020.77V1105.15H1018.37V1106.97C1018.37 1107.83 1018.11 1108.03 1017.35 1108.03H1016.25V1110.01H1018.23V1114.79C1018.23 1117.09 1019.53 1118.57 1022.01 1118.57H1023.67ZM1034.58 1113.95C1034.64 1113.69 1034.66 1113.19 1034.66 1112.73C1034.66 1109.79 1032.8 1107.81 1029.88 1107.81C1027 1107.81 1024.78 1110.05 1024.78 1113.39C1024.78 1116.79 1026.84 1118.81 1029.9 1118.81C1032.02 1118.81 1033.56 1117.91 1034.44 1116.35L1032.76 1115.27C1032.12 1116.39 1031.4 1116.87 1030.12 1116.87C1028.58 1116.87 1027.52 1115.83 1027.32 1113.95H1034.58ZM1027.4 1112.09C1027.7 1110.59 1028.66 1109.73 1029.9 1109.73C1031.24 1109.73 1032.1 1110.59 1032.28 1112.11L1027.4 1112.09ZM1042.41 1107.79C1040.95 1107.79 1039.75 1108.43 1039.11 1109.57V1108.03H1036.83V1118.57H1039.29V1112.67C1039.29 1110.99 1040.21 1109.95 1041.53 1109.95C1042.91 1109.93 1043.71 1110.87 1043.71 1112.67V1118.57H1046.17V1112.09C1046.17 1109.37 1044.75 1107.79 1042.41 1107.79ZM1055.04 1118.57V1116.45H1053.86C1052.54 1116.45 1052.06 1115.77 1052.06 1114.53V1110.01H1054.96V1108.03H1052.14V1105.15H1049.74V1106.97C1049.74 1107.83 1049.48 1108.03 1048.72 1108.03H1047.62V1110.01H1049.6V1114.79C1049.6 1117.09 1050.9 1118.57 1053.38 1118.57H1055.04Z" fill="#000D6E"/>
</g>
</g>
<defs>
<filter id="filter0_d_2645_17369" x="230" y="34" width="1572" height="1156" filterUnits="userSpaceOnUse" color-interpolation-filters="sRGB">
<feFlood flood-opacity="0" result="BackgroundImageFix"/>
<feColorMatrix in="SourceAlpha" type="matrix" values="0 0 0 0 0 0 0 0 0 0 0 0 0 0 0 0 0 0 127 0" result="hardAlpha"/>
<feOffset/>
<feGaussianBlur stdDeviation="15"/>
<feComposite in2="hardAlpha" operator="out"/>
<feColorMatrix type="matrix" values="0 0 0 0 0 0 0 0 0 0.027451 0 0 0 0 0.223529 0 0 0 0.15 0"/>
<feBlend mode="normal" in2="BackgroundImageFix" result="effect1_dropShadow_2645_17369"/>
<feBlend mode="normal" in="SourceGraphic" in2="effect1_dropShadow_2645_17369" result="shape"/>
</filter>
<clipPath id="clip0_2645_17369">
<rect x="260" y="64" width="1512" height="1096" rx="12" fill="white"/>
</clipPath>
<clipPath id="clip1_2645_17369">
<rect width="1270" height="96" fill="white" transform="translate(382 63.5)"/>
</clipPath>
<clipPath id="clip2_2645_17369">
<rect width="15" height="16" fill="white" transform="translate(463.624 159.5)"/>
</clipPath>
<clipPath id="clip3_2645_17369">
<rect width="513" height="56" fill="white" transform="translate(382 303.5)"/>
</clipPath>
<clipPath id="clip4_2645_17369">
<rect width="15" height="8" fill="white" transform="translate(463.577 359.5)"/>
</clipPath>
<clipPath id="clip5_2645_17369">
<rect width="428" height="48" fill="white" transform="translate(382 495.513)"/>
</clipPath>
<clipPath id="clip6_2645_17369">
<rect width="15" height="8" fill="white" transform="translate(463.577 543.513)"/>
</clipPath>
<clipPath id="clip7_2645_17369">
<rect width="336" height="40" fill="white" transform="translate(382 679.527)"/>
</clipPath>
<clipPath id="clip8_2645_17369">
<rect width="15" height="8" fill="white" transform="translate(463.577 719.527)"/>
</clipPath>
<clipPath id="clip9_2645_17369">
<rect width="280" height="32" fill="white" transform="translate(382 855.54)"/>
</clipPath>
<clipPath id="clip10_2645_17369">
<rect width="15" height="8" fill="white" transform="translate(463.577 887.54)"/>
</clipPath>
<clipPath id="clip11_2645_17369">
<rect width="222" height="32" fill="white" transform="translate(382 1023.55)"/>
</clipPath>
<clipPath id="clip12_2645_17369">
<rect width="15" height="8" fill="white" transform="translate(463.577 1055.55)"/>
</clipPath>
</defs>
</svg>
