<svg width="2032" height="1141" viewBox="0 0 2032 1141" fill="none" xmlns="http://www.w3.org/2000/svg">
<rect width="2032" height="1140.53" transform="translate(0 0.176392)" fill="#F6F6F6"/>
<g filter="url(#filter0_d_2645_16927)">
<g clip-path="url(#clip0_2645_16927)">
<rect x="260" y="64.1764" width="1512" height="1012.53" rx="12" fill="white"/>
<g clip-path="url(#clip1_2645_16927)">
<path d="M385.12 84.1596V139.76H406.8C423.44 139.76 435.12 128.88 435.12 111.92C435.12 94.9596 423.44 84.1596 406.8 84.1596H385.12ZM397.04 129.2V94.7196H406.4C416.24 94.7196 423.04 100.96 423.04 112.08C423.04 123.04 416.24 129.2 406.4 129.2H397.04ZM447.894 91.4396C452.214 91.4396 455.654 88.3996 455.654 83.9996C455.654 79.5996 452.214 76.3996 447.894 76.3996C443.574 76.3996 440.214 79.5996 440.214 83.9996C440.214 88.3996 443.574 91.4396 447.894 91.4396ZM453.814 139.76V97.5996H441.974V139.76H453.814ZM477.887 140.8C488.687 140.8 495.647 135.6 495.647 127.12C495.647 111.6 473.087 115.68 473.087 108.88C473.087 106.72 474.847 105.44 478.047 105.44C481.167 105.44 483.407 106.88 484.447 109.76L494.447 105.92C492.687 100.08 486.607 96.6396 478.207 96.6396C467.967 96.6396 461.407 101.52 461.407 109.52C461.407 124 483.887 120.48 483.887 127.84C483.887 130.24 481.807 131.68 478.287 131.68C473.567 131.68 470.527 129.52 469.407 125.84L459.407 129.68C461.807 136.96 468.527 140.8 477.887 140.8ZM526.136 96.6396C520.616 96.6396 516.056 98.6396 512.856 102.24V97.5996H501.896V154.08H513.736V136.24C516.776 139.2 520.856 140.8 525.816 140.8C537.976 140.8 546.776 131.28 546.776 118.72C546.776 106.08 538.296 96.6396 526.136 96.6396ZM524.216 130.32C517.656 130.32 513.256 125.6 513.256 118.72C513.256 111.84 517.656 107.04 524.216 107.04C530.456 107.04 535.016 112 535.016 118.72C535.016 125.44 530.456 130.32 524.216 130.32ZM565.143 139.76V81.2796H553.303V139.76H565.143ZM605.615 102.72C602.575 99.2796 598.175 97.3596 592.655 97.3596C580.495 97.3596 571.695 106.08 571.695 118.72C571.695 131.28 580.495 140.8 592.655 140.8C598.175 140.8 602.575 138.72 605.615 135.12V139.76H616.575V97.5996H605.615V102.72ZM594.335 130.32C588.015 130.32 583.455 125.44 583.455 118.72C583.455 112 588.015 107.04 594.335 107.04C600.815 107.04 605.215 111.84 605.215 118.72C605.215 125.6 600.815 130.32 594.335 130.32ZM642.861 130.32L633.341 97.5996H621.101L635.181 139.76H639.101L633.421 154.08H645.101L650.301 139.76L665.821 97.5996H653.581L642.861 130.32ZM704.162 84.1596H692.322V92.0796H683.522V101.84H692.322V129.92H683.362V139.76H710.802V129.92H704.162V84.1596Z" fill="#000D6E"/>
</g>
<path d="M380 175.76H1650V267.76C1650 269.969 1648.21 271.76 1646 271.76H384C381.791 271.76 380 269.969 380 267.76V175.76Z" fill="#E8E8E8"/>
<path d="M983.637 231C987.017 231 988.817 229.14 989.417 226.82L987.237 226.16C986.817 227.8 985.757 228.9 983.697 228.9C981.457 228.9 979.757 227.16 979.757 223.84C979.757 220.6 981.417 218.72 983.717 218.72C985.677 218.72 986.757 219.9 987.197 221.46L989.417 220.88C988.837 218.6 987.017 216.62 983.677 216.62C980.057 216.62 977.257 219.46 977.257 223.84C977.257 228.42 979.857 231 983.637 231ZM996.01 231C998.97 231 1001.33 228.72 1001.33 225.5C1001.33 222.14 999.13 220 996.01 220C993.05 220 990.73 222.26 990.73 225.5C990.73 228.86 992.91 231 996.01 231ZM996.03 229.02C994.47 229.02 993.25 227.66 993.25 225.5C993.25 223.34 994.47 221.98 996.03 221.98C997.61 221.98 998.81 223.32 998.81 225.5C998.81 227.66 997.61 229.02 996.03 229.02ZM1009.04 219.98C1007.58 219.98 1006.38 220.62 1005.74 221.76V220.22H1003.46V230.76H1005.92V224.86C1005.92 223.18 1006.84 222.14 1008.16 222.14C1009.54 222.12 1010.34 223.06 1010.34 224.86V230.76H1012.8V224.28C1012.8 221.56 1011.38 219.98 1009.04 219.98ZM1021.67 230.76V228.64H1020.49C1019.17 228.64 1018.69 227.96 1018.69 226.72V222.2H1021.59V220.22H1018.77V217.34H1016.37V219.16C1016.37 220.02 1016.11 220.22 1015.35 220.22H1014.25V222.2H1016.23V226.98C1016.23 229.28 1017.53 230.76 1020.01 230.76H1021.67ZM1032.58 226.14C1032.64 225.88 1032.66 225.38 1032.66 224.92C1032.66 221.98 1030.8 220 1027.88 220C1025 220 1022.78 222.24 1022.78 225.58C1022.78 228.98 1024.84 231 1027.9 231C1030.02 231 1031.56 230.1 1032.44 228.54L1030.76 227.46C1030.12 228.58 1029.4 229.06 1028.12 229.06C1026.58 229.06 1025.52 228.02 1025.32 226.14H1032.58ZM1025.4 224.28C1025.7 222.78 1026.66 221.92 1027.9 221.92C1029.24 221.92 1030.1 222.78 1030.28 224.3L1025.4 224.28ZM1040.41 219.98C1038.95 219.98 1037.75 220.62 1037.11 221.76V220.22H1034.83V230.76H1037.29V224.86C1037.29 223.18 1038.21 222.14 1039.53 222.14C1040.91 222.12 1041.71 223.06 1041.71 224.86V230.76H1044.17V224.28C1044.17 221.56 1042.75 219.98 1040.41 219.98ZM1053.04 230.76V228.64H1051.86C1050.54 228.64 1050.06 227.96 1050.06 226.72V222.2H1052.96V220.22H1050.14V217.34H1047.74V219.16C1047.74 220.02 1047.48 220.22 1046.72 220.22H1045.62V222.2H1047.6V226.98C1047.6 229.28 1048.9 230.76 1051.38 230.76H1053.04Z" fill="#000D6E"/>
<g clip-path="url(#clip2_2645_16927)">
<line x1="480.521" y1="272.26" x2="499.725" y2="272.26" stroke="#E8178A"/>
<line x1="490.021" y1="335.792" x2="490.021" y2="271.792" stroke="#E8178A"/>
<line x1="480.521" y1="335.26" x2="499.725" y2="335.26" stroke="#E8178A"/>
</g>
<path d="M452.024 300.187H451.86C451.196 300.187 450.606 300.291 450.09 300.498C449.575 300.705 449.141 301.002 448.79 301.389C448.375 301.838 448.079 302.375 447.899 303C447.723 303.621 447.635 304.275 447.635 304.963V305.543C447.635 306 447.702 306.435 447.834 306.849C447.967 307.26 448.163 307.617 448.42 307.922C448.663 308.215 448.959 308.447 449.311 308.619C449.663 308.791 450.063 308.877 450.512 308.877C450.95 308.877 451.338 308.803 451.678 308.654C452.022 308.502 452.313 308.293 452.551 308.027C452.786 307.766 452.963 307.459 453.084 307.107C453.209 306.752 453.272 306.371 453.272 305.965C453.272 305.594 453.223 305.236 453.125 304.892C453.032 304.549 452.883 304.244 452.68 303.978C452.481 303.713 452.227 303.502 451.918 303.346C451.614 303.189 451.254 303.111 450.84 303.111C450.645 303.111 450.459 303.135 450.284 303.182C450.108 303.224 449.948 303.283 449.803 303.357C449.651 303.435 449.512 303.525 449.387 303.627C449.262 303.724 449.153 303.826 449.059 303.932C449.09 303.568 449.17 303.228 449.299 302.912C449.432 302.596 449.618 302.324 449.856 302.098C450.09 301.871 450.377 301.695 450.717 301.57C451.061 301.441 451.465 301.377 451.93 301.377H452.024V300.187ZM450.495 304.248C450.721 304.248 450.92 304.295 451.092 304.389C451.268 304.478 451.415 304.603 451.532 304.764C451.649 304.924 451.737 305.111 451.795 305.326C451.858 305.537 451.889 305.762 451.889 306C451.889 306.25 451.858 306.482 451.795 306.697C451.733 306.908 451.641 307.092 451.52 307.248C451.399 307.4 451.252 307.521 451.081 307.611C450.909 307.697 450.713 307.74 450.495 307.74C450.295 307.74 450.108 307.695 449.932 307.605C449.756 307.516 449.602 307.385 449.469 307.213C449.336 307.041 449.231 306.826 449.153 306.568C449.079 306.31 449.041 306.012 449.041 305.672V305.238C449.104 305.094 449.182 304.963 449.276 304.846C449.37 304.728 449.475 304.625 449.592 304.535C449.721 304.445 449.862 304.375 450.014 304.324C450.166 304.273 450.327 304.248 450.495 304.248ZM459.533 305.719V300.228H458.091L454.406 305.994L454.441 306.855H458.132V308.76H459.533V306.855H460.605V305.719H459.533ZM455.836 305.719L457.968 302.408L458.132 302.103V305.719H455.836ZM462.026 311.197H463.426V308.185C463.501 308.267 463.581 308.344 463.667 308.414C463.753 308.484 463.842 308.547 463.936 308.601C464.096 308.691 464.27 308.76 464.458 308.807C464.649 308.853 464.858 308.877 465.085 308.877C465.483 308.877 465.837 308.795 466.145 308.631C466.454 308.467 466.714 308.24 466.925 307.951C467.135 307.666 467.294 307.326 467.399 306.932C467.508 306.537 467.563 306.111 467.563 305.654V305.531C467.563 305.055 467.508 304.619 467.399 304.224C467.29 303.826 467.132 303.484 466.925 303.199C466.714 302.914 466.452 302.693 466.139 302.537C465.831 302.381 465.473 302.303 465.067 302.303C464.86 302.303 464.665 302.326 464.481 302.373C464.298 302.416 464.13 302.478 463.977 302.56C463.86 302.623 463.751 302.697 463.649 302.783C463.548 302.869 463.454 302.965 463.368 303.07L463.315 302.42H462.026V311.197ZM466.163 305.531V305.654C466.163 305.935 466.135 306.203 466.081 306.457C466.026 306.707 465.938 306.93 465.817 307.125C465.7 307.316 465.548 307.469 465.36 307.582C465.176 307.691 464.954 307.746 464.692 307.746C464.532 307.746 464.385 307.728 464.253 307.693C464.12 307.654 464.001 307.603 463.895 307.541C463.794 307.474 463.704 307.396 463.626 307.307C463.548 307.217 463.481 307.117 463.426 307.008V304.189C463.489 304.072 463.561 303.967 463.643 303.873C463.729 303.779 463.829 303.701 463.942 303.639C464.04 303.58 464.151 303.535 464.276 303.504C464.401 303.473 464.536 303.457 464.68 303.457C464.942 303.457 465.167 303.512 465.354 303.621C465.542 303.73 465.696 303.879 465.817 304.066C465.934 304.254 466.02 304.474 466.075 304.728C466.133 304.978 466.163 305.246 466.163 305.531ZM471.885 304.553L470.385 302.42H468.844L471.064 305.543L468.767 308.76H470.32L471.896 306.545L473.478 308.76H475.025L472.728 305.543L474.955 302.42H473.402L471.885 304.553Z" fill="#E8178A"/>
<rect opacity="0.2" x="380" y="271.76" width="1270" height="64" fill="#E8178A"/>
<g clip-path="url(#clip3_2645_16927)">
<path d="M383.072 347.4V380.76H396.08C406.064 380.76 413.072 374.232 413.072 364.056C413.072 353.88 406.064 347.4 396.08 347.4H383.072ZM390.224 374.424V353.736H395.84C401.744 353.736 405.824 357.48 405.824 364.152C405.824 370.728 401.744 374.424 395.84 374.424H390.224ZM420.737 351.768C423.329 351.768 425.393 349.944 425.393 347.304C425.393 344.664 423.329 342.744 420.737 342.744C418.145 342.744 416.129 344.664 416.129 347.304C416.129 349.944 418.145 351.768 420.737 351.768ZM424.289 380.76V355.464H417.185V380.76H424.289ZM438.732 381.384C445.212 381.384 449.388 378.264 449.388 373.176C449.388 363.864 435.852 366.312 435.852 362.232C435.852 360.936 436.908 360.168 438.828 360.168C440.7 360.168 442.044 361.032 442.668 362.76L448.668 360.456C447.612 356.952 443.964 354.888 438.924 354.888C432.78 354.888 428.844 357.816 428.844 362.616C428.844 371.304 442.332 369.192 442.332 373.608C442.332 375.048 441.084 375.912 438.972 375.912C436.14 375.912 434.316 374.616 433.644 372.408L427.644 374.712C429.084 379.08 433.116 381.384 438.732 381.384ZM467.682 354.888C464.37 354.888 461.634 356.088 459.714 358.248V355.464H453.138V389.352H460.242V378.648C462.066 380.424 464.514 381.384 467.49 381.384C474.786 381.384 480.066 375.672 480.066 368.136C480.066 360.552 474.978 354.888 467.682 354.888ZM466.53 375.096C462.594 375.096 459.954 372.264 459.954 368.136C459.954 364.008 462.594 361.128 466.53 361.128C470.274 361.128 473.01 364.104 473.01 368.136C473.01 372.168 470.274 375.096 466.53 375.096ZM491.086 380.76V345.672H483.982V380.76H491.086ZM515.369 358.536C513.545 356.472 510.905 355.32 507.593 355.32C500.297 355.32 495.017 360.552 495.017 368.136C495.017 375.672 500.297 381.384 507.593 381.384C510.905 381.384 513.545 380.136 515.369 377.976V380.76H521.945V355.464H515.369V358.536ZM508.601 375.096C504.809 375.096 502.073 372.168 502.073 368.136C502.073 364.104 504.809 361.128 508.601 361.128C512.489 361.128 515.129 364.008 515.129 368.136C515.129 372.264 512.489 375.096 508.601 375.096ZM537.717 375.096L532.005 355.464H524.661L533.109 380.76H535.461L532.053 389.352H539.061L542.181 380.76L551.493 355.464H544.149L537.717 375.096ZM574.497 347.4H567.393V352.152H562.113V358.008H567.393V374.856H562.017V380.76H578.481V374.856H574.497V347.4ZM585.396 381.24C587.652 381.24 589.38 379.512 589.38 377.304C589.38 374.952 587.652 373.224 585.396 373.224C583.14 373.224 581.412 374.952 581.412 377.304C581.412 379.512 583.14 381.24 585.396 381.24ZM605.528 347.4H598.424V352.152H593.144V358.008H598.424V374.856H593.048V380.76H609.512V374.856H605.528V347.4Z" fill="#000D6E"/>
</g>
<path d="M380 407.76H1650V499.76C1650 501.969 1648.21 503.76 1646 503.76H384C381.791 503.76 380 501.969 380 499.76V407.76Z" fill="#E8E8E8"/>
<path d="M983.637 463C987.017 463 988.817 461.14 989.417 458.82L987.237 458.16C986.817 459.8 985.757 460.9 983.697 460.9C981.457 460.9 979.757 459.16 979.757 455.84C979.757 452.6 981.417 450.72 983.717 450.72C985.677 450.72 986.757 451.9 987.197 453.46L989.417 452.88C988.837 450.6 987.017 448.62 983.677 448.62C980.057 448.62 977.257 451.46 977.257 455.84C977.257 460.42 979.857 463 983.637 463ZM996.01 463C998.97 463 1001.33 460.72 1001.33 457.5C1001.33 454.14 999.13 452 996.01 452C993.05 452 990.73 454.26 990.73 457.5C990.73 460.86 992.91 463 996.01 463ZM996.03 461.02C994.47 461.02 993.25 459.66 993.25 457.5C993.25 455.34 994.47 453.98 996.03 453.98C997.61 453.98 998.81 455.32 998.81 457.5C998.81 459.66 997.61 461.02 996.03 461.02ZM1009.04 451.98C1007.58 451.98 1006.38 452.62 1005.74 453.76V452.22H1003.46V462.76H1005.92V456.86C1005.92 455.18 1006.84 454.14 1008.16 454.14C1009.54 454.12 1010.34 455.06 1010.34 456.86V462.76H1012.8V456.28C1012.8 453.56 1011.38 451.98 1009.04 451.98ZM1021.67 462.76V460.64H1020.49C1019.17 460.64 1018.69 459.96 1018.69 458.72V454.2H1021.59V452.22H1018.77V449.34H1016.37V451.16C1016.37 452.02 1016.11 452.22 1015.35 452.22H1014.25V454.2H1016.23V458.98C1016.23 461.28 1017.53 462.76 1020.01 462.76H1021.67ZM1032.58 458.14C1032.64 457.88 1032.66 457.38 1032.66 456.92C1032.66 453.98 1030.8 452 1027.88 452C1025 452 1022.78 454.24 1022.78 457.58C1022.78 460.98 1024.84 463 1027.9 463C1030.02 463 1031.56 462.1 1032.44 460.54L1030.76 459.46C1030.12 460.58 1029.4 461.06 1028.12 461.06C1026.58 461.06 1025.52 460.02 1025.32 458.14H1032.58ZM1025.4 456.28C1025.7 454.78 1026.66 453.92 1027.9 453.92C1029.24 453.92 1030.1 454.78 1030.28 456.3L1025.4 456.28ZM1040.41 451.98C1038.95 451.98 1037.75 452.62 1037.11 453.76V452.22H1034.83V462.76H1037.29V456.86C1037.29 455.18 1038.21 454.14 1039.53 454.14C1040.91 454.12 1041.71 455.06 1041.71 456.86V462.76H1044.17V456.28C1044.17 453.56 1042.75 451.98 1040.41 451.98ZM1053.04 462.76V460.64H1051.86C1050.54 460.64 1050.06 459.96 1050.06 458.72V454.2H1052.96V452.22H1050.14V449.34H1047.74V451.16C1047.74 452.02 1047.48 452.22 1046.72 452.22H1045.62V454.2H1047.6V458.98C1047.6 461.28 1048.9 462.76 1051.38 462.76H1053.04Z" fill="#000D6E"/>
<g clip-path="url(#clip4_2645_16927)">
<line x1="480.521" y1="504.26" x2="499.725" y2="504.26" stroke="#E8178A"/>
<line x1="490.021" y1="631.825" x2="490.021" y2="503.825" stroke="#E8178A"/>
<line x1="480.521" y1="631.26" x2="499.725" y2="631.26" stroke="#E8178A"/>
</g>
<path opacity="0.2" d="M380 504.76H1650V632.76H380V504.76Z" fill="#E8178A"/>
<path d="M444.544 572.76V564.228H444.456L440.947 565.529V566.766L443.132 565.963V572.76H444.544ZM453.272 572.76V571.629H449.299L451.198 569.601C451.448 569.336 451.678 569.078 451.889 568.828C452.104 568.578 452.29 568.33 452.446 568.084C452.598 567.838 452.717 567.59 452.803 567.34C452.893 567.086 452.938 566.824 452.938 566.555C452.938 566.195 452.879 565.867 452.762 565.57C452.645 565.269 452.475 565.012 452.252 564.797C452.026 564.582 451.747 564.414 451.415 564.293C451.086 564.172 450.713 564.111 450.295 564.111C449.85 564.111 449.446 564.183 449.082 564.328C448.723 564.473 448.418 564.668 448.168 564.914C447.915 565.16 447.719 565.449 447.582 565.781C447.446 566.109 447.377 566.459 447.377 566.83H448.784C448.784 566.584 448.815 566.365 448.877 566.174C448.94 565.978 449.034 565.812 449.159 565.676C449.28 565.547 449.432 565.447 449.616 565.377C449.799 565.307 450.016 565.271 450.266 565.271C450.461 565.271 450.637 565.305 450.793 565.371C450.954 565.437 451.09 565.529 451.204 565.646C451.317 565.764 451.403 565.904 451.461 566.068C451.52 566.232 451.549 566.414 451.549 566.613C451.549 566.762 451.528 566.91 451.485 567.058C451.446 567.203 451.379 567.359 451.286 567.527C451.188 567.695 451.061 567.881 450.905 568.084C450.749 568.283 450.555 568.51 450.325 568.764L447.547 571.787V572.76H453.272ZM460.236 566.478C460.236 566.099 460.17 565.764 460.037 565.471C459.904 565.174 459.722 564.926 459.492 564.726C459.254 564.523 458.974 564.371 458.654 564.269C458.337 564.164 457.992 564.111 457.617 564.111C457.238 564.111 456.888 564.164 456.568 564.269C456.252 564.371 455.98 564.523 455.754 564.726C455.523 564.93 455.341 565.178 455.209 565.471C455.08 565.764 455.015 566.099 455.015 566.478C455.015 566.689 455.045 566.891 455.103 567.082C455.162 567.273 455.244 567.449 455.349 567.609C455.451 567.766 455.574 567.908 455.718 568.037C455.867 568.166 456.031 568.275 456.211 568.365C456 568.463 455.808 568.582 455.636 568.723C455.468 568.859 455.324 569.014 455.203 569.185C455.082 569.365 454.988 569.56 454.921 569.771C454.859 569.982 454.828 570.205 454.828 570.439C454.828 570.838 454.898 571.189 455.039 571.494C455.183 571.795 455.382 572.047 455.636 572.25C455.886 572.457 456.181 572.613 456.521 572.719C456.865 572.824 457.236 572.877 457.634 572.877C458.025 572.877 458.388 572.824 458.724 572.719C459.064 572.613 459.361 572.457 459.615 572.25C459.865 572.047 460.062 571.793 460.207 571.488C460.351 571.183 460.423 570.834 460.423 570.439C460.423 570.162 460.379 569.904 460.289 569.666C460.199 569.428 460.074 569.215 459.914 569.027C459.8 568.887 459.668 568.764 459.515 568.658C459.367 568.549 459.205 568.453 459.029 568.371C459.177 568.297 459.312 568.211 459.433 568.113C459.554 568.016 459.662 567.91 459.755 567.797C459.908 567.621 460.025 567.422 460.107 567.199C460.193 566.976 460.236 566.736 460.236 566.478ZM459.023 570.363C459.023 570.582 458.988 570.777 458.918 570.949C458.847 571.117 458.754 571.262 458.636 571.383C458.511 571.5 458.363 571.59 458.191 571.652C458.023 571.715 457.837 571.746 457.634 571.746C457.42 571.746 457.226 571.717 457.054 571.658C456.886 571.596 456.742 571.508 456.621 571.394C456.496 571.277 456.4 571.133 456.334 570.961C456.267 570.785 456.234 570.588 456.234 570.369C456.234 570.154 456.265 569.961 456.328 569.789C456.394 569.613 456.488 569.461 456.609 569.332C456.73 569.211 456.875 569.117 457.043 569.051C457.214 568.984 457.408 568.951 457.623 568.951C457.83 568.951 458.019 568.984 458.191 569.051C458.363 569.117 458.511 569.211 458.636 569.332C458.757 569.461 458.851 569.613 458.918 569.789C458.988 569.961 459.023 570.152 459.023 570.363ZM458.841 566.531C458.841 566.723 458.812 566.898 458.754 567.058C458.695 567.215 458.613 567.348 458.507 567.457C458.402 567.57 458.275 567.658 458.127 567.721C457.978 567.783 457.812 567.814 457.629 567.814C457.445 567.814 457.279 567.783 457.13 567.721C456.982 567.658 456.855 567.57 456.75 567.457C456.64 567.348 456.558 567.215 456.504 567.058C456.449 566.898 456.421 566.723 456.421 566.531C456.421 566.336 456.449 566.158 456.504 565.998C456.558 565.838 456.636 565.703 456.738 565.594C456.843 565.484 456.968 565.4 457.113 565.342C457.261 565.279 457.427 565.248 457.611 565.248C457.798 565.248 457.966 565.279 458.115 565.342C458.263 565.404 458.392 565.49 458.502 565.599C458.607 565.717 458.689 565.853 458.748 566.01C458.81 566.166 458.841 566.34 458.841 566.531ZM462.026 575.197H463.426V572.185C463.501 572.267 463.581 572.344 463.667 572.414C463.753 572.484 463.842 572.547 463.936 572.601C464.096 572.691 464.27 572.76 464.458 572.807C464.649 572.853 464.858 572.877 465.085 572.877C465.483 572.877 465.837 572.795 466.145 572.631C466.454 572.467 466.714 572.24 466.925 571.951C467.135 571.666 467.294 571.326 467.399 570.932C467.509 570.537 467.563 570.111 467.563 569.654V569.531C467.563 569.055 467.509 568.619 467.399 568.224C467.29 567.826 467.132 567.484 466.925 567.199C466.714 566.914 466.452 566.693 466.139 566.537C465.831 566.381 465.473 566.303 465.067 566.303C464.86 566.303 464.665 566.326 464.481 566.373C464.298 566.416 464.13 566.478 463.977 566.56C463.86 566.623 463.751 566.697 463.649 566.783C463.548 566.869 463.454 566.965 463.368 567.07L463.315 566.42H462.026V575.197ZM466.163 569.531V569.654C466.163 569.935 466.135 570.203 466.081 570.457C466.026 570.707 465.938 570.93 465.817 571.125C465.7 571.316 465.548 571.469 465.36 571.582C465.176 571.691 464.954 571.746 464.692 571.746C464.532 571.746 464.385 571.728 464.253 571.693C464.12 571.654 464.001 571.603 463.895 571.541C463.794 571.474 463.704 571.396 463.626 571.307C463.548 571.217 463.481 571.117 463.426 571.008V568.189C463.489 568.072 463.561 567.967 463.643 567.873C463.729 567.779 463.829 567.701 463.942 567.639C464.04 567.58 464.151 567.535 464.276 567.504C464.401 567.473 464.536 567.457 464.68 567.457C464.942 567.457 465.167 567.512 465.354 567.621C465.542 567.73 465.696 567.879 465.817 568.066C465.934 568.254 466.02 568.474 466.075 568.728C466.134 568.978 466.163 569.246 466.163 569.531ZM471.885 568.553L470.385 566.42H468.844L471.064 569.543L468.767 572.76H470.32L471.896 570.545L473.478 572.76H475.025L472.728 569.543L474.955 566.42H473.402L471.885 568.553Z" fill="#E8178A"/>
<g clip-path="url(#clip5_2645_16927)">
<path d="M385.12 653.16V708.76H406.8C423.44 708.76 435.12 697.88 435.12 680.92C435.12 663.96 423.44 653.16 406.8 653.16H385.12ZM397.04 698.2V663.72H406.4C416.24 663.72 423.04 669.96 423.04 681.08C423.04 692.04 416.24 698.2 406.4 698.2H397.04ZM447.894 660.44C452.214 660.44 455.654 657.4 455.654 653C455.654 648.6 452.214 645.4 447.894 645.4C443.574 645.4 440.214 648.6 440.214 653C440.214 657.4 443.574 660.44 447.894 660.44ZM453.814 708.76V666.6H441.974V708.76H453.814ZM477.887 709.8C488.687 709.8 495.647 704.6 495.647 696.12C495.647 680.6 473.087 684.68 473.087 677.88C473.087 675.72 474.847 674.44 478.047 674.44C481.167 674.44 483.407 675.88 484.447 678.76L494.447 674.92C492.687 669.08 486.607 665.64 478.207 665.64C467.967 665.64 461.407 670.52 461.407 678.52C461.407 693 483.887 689.48 483.887 696.84C483.887 699.24 481.807 700.68 478.287 700.68C473.567 700.68 470.527 698.52 469.407 694.84L459.407 698.68C461.807 705.96 468.527 709.8 477.887 709.8ZM526.136 665.64C520.616 665.64 516.056 667.64 512.856 671.24V666.6H501.896V723.08H513.736V705.24C516.776 708.2 520.856 709.8 525.816 709.8C537.976 709.8 546.776 700.28 546.776 687.72C546.776 675.08 538.296 665.64 526.136 665.64ZM524.216 699.32C517.656 699.32 513.256 694.6 513.256 687.72C513.256 680.84 517.656 676.04 524.216 676.04C530.456 676.04 535.016 681 535.016 687.72C535.016 694.44 530.456 699.32 524.216 699.32ZM565.143 708.76V650.28H553.303V708.76H565.143ZM605.615 671.72C602.575 668.28 598.175 666.36 592.655 666.36C580.495 666.36 571.695 675.08 571.695 687.72C571.695 700.28 580.495 709.8 592.655 709.8C598.175 709.8 602.575 707.72 605.615 704.12V708.76H616.575V666.6H605.615V671.72ZM594.335 699.32C588.015 699.32 583.455 694.44 583.455 687.72C583.455 681 588.015 676.04 594.335 676.04C600.815 676.04 605.215 680.84 605.215 687.72C605.215 694.6 600.815 699.32 594.335 699.32ZM642.861 699.32L633.341 666.6H621.101L635.181 708.76H639.101L633.421 723.08H645.101L650.301 708.76L665.821 666.6H653.581L642.861 699.32ZM711.282 688.04C718.322 681.56 722.322 675.8 722.322 668.44C722.322 658.6 714.722 652.2 702.802 652.2C692.642 652.2 684.562 657.88 682.482 666.52L693.682 670.12C694.962 664.92 698.402 662.28 702.722 662.28C707.282 662.28 710.242 665 710.242 669C710.242 673.64 706.562 678.28 702.002 682.44L682.562 700.92V708.76H723.282V698.92H699.842L711.282 688.04Z" fill="#000D6E"/>
</g>
<path d="M380 744.76H1650V836.76C1650 838.969 1648.21 840.76 1646 840.76H384C381.791 840.76 380 838.969 380 836.76V744.76Z" fill="#E8E8E8"/>
<path d="M983.637 800C987.017 800 988.817 798.14 989.417 795.82L987.237 795.16C986.817 796.8 985.757 797.9 983.697 797.9C981.457 797.9 979.757 796.16 979.757 792.84C979.757 789.6 981.417 787.72 983.717 787.72C985.677 787.72 986.757 788.9 987.197 790.46L989.417 789.88C988.837 787.6 987.017 785.62 983.677 785.62C980.057 785.62 977.257 788.46 977.257 792.84C977.257 797.42 979.857 800 983.637 800ZM996.01 800C998.97 800 1001.33 797.72 1001.33 794.5C1001.33 791.14 999.13 789 996.01 789C993.05 789 990.73 791.26 990.73 794.5C990.73 797.86 992.91 800 996.01 800ZM996.03 798.02C994.47 798.02 993.25 796.66 993.25 794.5C993.25 792.34 994.47 790.98 996.03 790.98C997.61 790.98 998.81 792.32 998.81 794.5C998.81 796.66 997.61 798.02 996.03 798.02ZM1009.04 788.98C1007.58 788.98 1006.38 789.62 1005.74 790.76V789.22H1003.46V799.76H1005.92V793.86C1005.92 792.18 1006.84 791.14 1008.16 791.14C1009.54 791.12 1010.34 792.06 1010.34 793.86V799.76H1012.8V793.28C1012.8 790.56 1011.38 788.98 1009.04 788.98ZM1021.67 799.76V797.64H1020.49C1019.17 797.64 1018.69 796.96 1018.69 795.72V791.2H1021.59V789.22H1018.77V786.34H1016.37V788.16C1016.37 789.02 1016.11 789.22 1015.35 789.22H1014.25V791.2H1016.23V795.98C1016.23 798.28 1017.53 799.76 1020.01 799.76H1021.67ZM1032.58 795.14C1032.64 794.88 1032.66 794.38 1032.66 793.92C1032.66 790.98 1030.8 789 1027.88 789C1025 789 1022.78 791.24 1022.78 794.58C1022.78 797.98 1024.84 800 1027.9 800C1030.02 800 1031.56 799.1 1032.44 797.54L1030.76 796.46C1030.12 797.58 1029.4 798.06 1028.12 798.06C1026.58 798.06 1025.52 797.02 1025.32 795.14H1032.58ZM1025.4 793.28C1025.7 791.78 1026.66 790.92 1027.9 790.92C1029.24 790.92 1030.1 791.78 1030.28 793.3L1025.4 793.28ZM1040.41 788.98C1038.95 788.98 1037.75 789.62 1037.11 790.76V789.22H1034.83V799.76H1037.29V793.86C1037.29 792.18 1038.21 791.14 1039.53 791.14C1040.91 791.12 1041.71 792.06 1041.71 793.86V799.76H1044.17V793.28C1044.17 790.56 1042.75 788.98 1040.41 788.98ZM1053.04 799.76V797.64H1051.86C1050.54 797.64 1050.06 796.96 1050.06 795.72V791.2H1052.96V789.22H1050.14V786.34H1047.74V788.16C1047.74 789.02 1047.48 789.22 1046.72 789.22H1045.62V791.2H1047.6V795.98C1047.6 798.28 1048.9 799.76 1051.38 799.76H1053.04Z" fill="#000D6E"/>
<g clip-path="url(#clip6_2645_16927)">
<line x1="480.521" y1="841.26" x2="499.725" y2="841.26" stroke="#E8178A"/>
<line x1="490.021" y1="904.792" x2="490.021" y2="840.792" stroke="#E8178A"/>
<line x1="480.521" y1="904.26" x2="499.725" y2="904.26" stroke="#E8178A"/>
</g>
<path d="M452.024 869.187H451.86C451.196 869.187 450.606 869.291 450.09 869.498C449.575 869.705 449.141 870.002 448.79 870.389C448.375 870.838 448.079 871.375 447.899 872C447.723 872.621 447.635 873.275 447.635 873.963V874.543C447.635 875 447.702 875.435 447.834 875.849C447.967 876.26 448.163 876.617 448.42 876.922C448.663 877.215 448.959 877.447 449.311 877.619C449.663 877.791 450.063 877.877 450.512 877.877C450.95 877.877 451.338 877.803 451.678 877.654C452.022 877.502 452.313 877.293 452.551 877.027C452.786 876.766 452.963 876.459 453.084 876.107C453.209 875.752 453.272 875.371 453.272 874.965C453.272 874.594 453.223 874.236 453.125 873.892C453.032 873.549 452.883 873.244 452.68 872.978C452.481 872.713 452.227 872.502 451.918 872.346C451.614 872.189 451.254 872.111 450.84 872.111C450.645 872.111 450.459 872.135 450.284 872.182C450.108 872.224 449.948 872.283 449.803 872.357C449.651 872.435 449.512 872.525 449.387 872.627C449.262 872.724 449.153 872.826 449.059 872.932C449.09 872.568 449.17 872.228 449.299 871.912C449.432 871.596 449.618 871.324 449.856 871.098C450.09 870.871 450.377 870.695 450.717 870.57C451.061 870.441 451.465 870.377 451.93 870.377H452.024V869.187ZM450.495 873.248C450.721 873.248 450.92 873.295 451.092 873.389C451.268 873.478 451.415 873.603 451.532 873.764C451.649 873.924 451.737 874.111 451.795 874.326C451.858 874.537 451.889 874.762 451.889 875C451.889 875.25 451.858 875.482 451.795 875.697C451.733 875.908 451.641 876.092 451.52 876.248C451.399 876.4 451.252 876.521 451.081 876.611C450.909 876.697 450.713 876.74 450.495 876.74C450.295 876.74 450.108 876.695 449.932 876.605C449.756 876.516 449.602 876.385 449.469 876.213C449.336 876.041 449.231 875.826 449.153 875.568C449.079 875.31 449.041 875.012 449.041 874.672V874.238C449.104 874.094 449.182 873.963 449.276 873.846C449.37 873.728 449.475 873.625 449.592 873.535C449.721 873.445 449.862 873.375 450.014 873.324C450.166 873.273 450.327 873.248 450.495 873.248ZM459.533 874.719V869.228H458.091L454.406 874.994L454.441 875.855H458.132V877.76H459.533V875.855H460.605V874.719H459.533ZM455.836 874.719L457.968 871.408L458.132 871.103V874.719H455.836ZM462.026 880.197H463.426V877.185C463.501 877.267 463.581 877.344 463.667 877.414C463.753 877.484 463.842 877.547 463.936 877.601C464.096 877.691 464.27 877.76 464.458 877.807C464.649 877.853 464.858 877.877 465.085 877.877C465.483 877.877 465.837 877.795 466.145 877.631C466.454 877.467 466.714 877.24 466.925 876.951C467.135 876.666 467.294 876.326 467.399 875.932C467.508 875.537 467.563 875.111 467.563 874.654V874.531C467.563 874.055 467.508 873.619 467.399 873.224C467.29 872.826 467.132 872.484 466.925 872.199C466.714 871.914 466.452 871.693 466.139 871.537C465.831 871.381 465.473 871.303 465.067 871.303C464.86 871.303 464.665 871.326 464.481 871.373C464.298 871.416 464.13 871.478 463.977 871.56C463.86 871.623 463.751 871.697 463.649 871.783C463.548 871.869 463.454 871.965 463.368 872.07L463.315 871.42H462.026V880.197ZM466.163 874.531V874.654C466.163 874.935 466.135 875.203 466.081 875.457C466.026 875.707 465.938 875.93 465.817 876.125C465.7 876.316 465.548 876.469 465.36 876.582C465.176 876.691 464.954 876.746 464.692 876.746C464.532 876.746 464.385 876.728 464.253 876.693C464.12 876.654 464.001 876.603 463.895 876.541C463.794 876.474 463.704 876.396 463.626 876.307C463.548 876.217 463.481 876.117 463.426 876.008V873.189C463.489 873.072 463.561 872.967 463.643 872.873C463.729 872.779 463.829 872.701 463.942 872.639C464.04 872.58 464.151 872.535 464.276 872.504C464.401 872.473 464.536 872.457 464.68 872.457C464.942 872.457 465.167 872.512 465.354 872.621C465.542 872.73 465.696 872.879 465.817 873.066C465.934 873.254 466.02 873.474 466.075 873.728C466.133 873.978 466.163 874.246 466.163 874.531ZM471.885 873.553L470.385 871.42H468.844L471.064 874.543L468.767 877.76H470.32L471.896 875.545L473.478 877.76H475.025L472.728 874.543L474.955 871.42H473.402L471.885 873.553Z" fill="#E8178A"/>
<rect opacity="0.2" x="380" y="840.76" width="1270" height="64" fill="#E8178A"/>
<g clip-path="url(#clip7_2645_16927)">
<path d="M383.072 916.4V949.76H396.08C406.064 949.76 413.072 943.232 413.072 933.056C413.072 922.88 406.064 916.4 396.08 916.4H383.072ZM390.224 943.424V922.736H395.84C401.744 922.736 405.824 926.48 405.824 933.152C405.824 939.728 401.744 943.424 395.84 943.424H390.224ZM420.737 920.768C423.329 920.768 425.393 918.944 425.393 916.304C425.393 913.664 423.329 911.744 420.737 911.744C418.145 911.744 416.129 913.664 416.129 916.304C416.129 918.944 418.145 920.768 420.737 920.768ZM424.289 949.76V924.464H417.185V949.76H424.289ZM438.732 950.384C445.212 950.384 449.388 947.264 449.388 942.176C449.388 932.864 435.852 935.312 435.852 931.232C435.852 929.936 436.908 929.168 438.828 929.168C440.7 929.168 442.044 930.032 442.668 931.76L448.668 929.456C447.612 925.952 443.964 923.888 438.924 923.888C432.78 923.888 428.844 926.816 428.844 931.616C428.844 940.304 442.332 938.192 442.332 942.608C442.332 944.048 441.084 944.912 438.972 944.912C436.14 944.912 434.316 943.616 433.644 941.408L427.644 943.712C429.084 948.08 433.116 950.384 438.732 950.384ZM467.682 923.888C464.37 923.888 461.634 925.088 459.714 927.248V924.464H453.138V958.352H460.242V947.648C462.066 949.424 464.514 950.384 467.49 950.384C474.786 950.384 480.066 944.672 480.066 937.136C480.066 929.552 474.978 923.888 467.682 923.888ZM466.53 944.096C462.594 944.096 459.954 941.264 459.954 937.136C459.954 933.008 462.594 930.128 466.53 930.128C470.274 930.128 473.01 933.104 473.01 937.136C473.01 941.168 470.274 944.096 466.53 944.096ZM491.086 949.76V914.672H483.982V949.76H491.086ZM515.369 927.536C513.545 925.472 510.905 924.32 507.593 924.32C500.297 924.32 495.017 929.552 495.017 937.136C495.017 944.672 500.297 950.384 507.593 950.384C510.905 950.384 513.545 949.136 515.369 946.976V949.76H521.945V924.464H515.369V927.536ZM508.601 944.096C504.809 944.096 502.073 941.168 502.073 937.136C502.073 933.104 504.809 930.128 508.601 930.128C512.489 930.128 515.129 933.008 515.129 937.136C515.129 941.264 512.489 944.096 508.601 944.096ZM537.717 944.096L532.005 924.464H524.661L533.109 949.76H535.461L532.053 958.352H539.061L542.181 949.76L551.493 924.464H544.149L537.717 944.096ZM578.769 937.328C582.993 933.44 585.393 929.984 585.393 925.568C585.393 919.664 580.833 915.824 573.681 915.824C567.585 915.824 562.737 919.232 561.489 924.416L568.209 926.576C568.977 923.456 571.041 921.872 573.633 921.872C576.369 921.872 578.145 923.504 578.145 925.904C578.145 928.688 575.937 931.472 573.201 933.968L561.537 945.056V949.76H585.969V943.856H571.905L578.769 937.328ZM593.459 950.24C595.715 950.24 597.443 948.512 597.443 946.304C597.443 943.952 595.715 942.224 593.459 942.224C591.203 942.224 589.475 943.952 589.475 946.304C589.475 948.512 591.203 950.24 593.459 950.24ZM613.591 916.4H606.487V921.152H601.207V927.008H606.487V943.856H601.111V949.76H617.575V943.856H613.591V916.4Z" fill="#000D6E"/>
</g>
<path d="M380 976.76H1650V1068.76C1650 1070.97 1648.21 1072.76 1646 1072.76H384C381.791 1072.76 380 1070.97 380 1068.76V976.76Z" fill="#E8E8E8"/>
<path d="M983.637 1032C987.017 1032 988.817 1030.14 989.417 1027.82L987.237 1027.16C986.817 1028.8 985.757 1029.9 983.697 1029.9C981.457 1029.9 979.757 1028.16 979.757 1024.84C979.757 1021.6 981.417 1019.72 983.717 1019.72C985.677 1019.72 986.757 1020.9 987.197 1022.46L989.417 1021.88C988.837 1019.6 987.017 1017.62 983.677 1017.62C980.057 1017.62 977.257 1020.46 977.257 1024.84C977.257 1029.42 979.857 1032 983.637 1032ZM996.01 1032C998.97 1032 1001.33 1029.72 1001.33 1026.5C1001.33 1023.14 999.13 1021 996.01 1021C993.05 1021 990.73 1023.26 990.73 1026.5C990.73 1029.86 992.91 1032 996.01 1032ZM996.03 1030.02C994.47 1030.02 993.25 1028.66 993.25 1026.5C993.25 1024.34 994.47 1022.98 996.03 1022.98C997.61 1022.98 998.81 1024.32 998.81 1026.5C998.81 1028.66 997.61 1030.02 996.03 1030.02ZM1009.04 1020.98C1007.58 1020.98 1006.38 1021.62 1005.74 1022.76V1021.22H1003.46V1031.76H1005.92V1025.86C1005.92 1024.18 1006.84 1023.14 1008.16 1023.14C1009.54 1023.12 1010.34 1024.06 1010.34 1025.86V1031.76H1012.8V1025.28C1012.8 1022.56 1011.38 1020.98 1009.04 1020.98ZM1021.67 1031.76V1029.64H1020.49C1019.17 1029.64 1018.69 1028.96 1018.69 1027.72V1023.2H1021.59V1021.22H1018.77V1018.34H1016.37V1020.16C1016.37 1021.02 1016.11 1021.22 1015.35 1021.22H1014.25V1023.2H1016.23V1027.98C1016.23 1030.28 1017.53 1031.76 1020.01 1031.76H1021.67ZM1032.58 1027.14C1032.64 1026.88 1032.66 1026.38 1032.66 1025.92C1032.66 1022.98 1030.8 1021 1027.88 1021C1025 1021 1022.78 1023.24 1022.78 1026.58C1022.78 1029.98 1024.84 1032 1027.9 1032C1030.02 1032 1031.56 1031.1 1032.44 1029.54L1030.76 1028.46C1030.12 1029.58 1029.4 1030.06 1028.12 1030.06C1026.58 1030.06 1025.52 1029.02 1025.32 1027.14H1032.58ZM1025.4 1025.28C1025.7 1023.78 1026.66 1022.92 1027.9 1022.92C1029.24 1022.92 1030.1 1023.78 1030.28 1025.3L1025.4 1025.28ZM1040.41 1020.98C1038.95 1020.98 1037.75 1021.62 1037.11 1022.76V1021.22H1034.83V1031.76H1037.29V1025.86C1037.29 1024.18 1038.21 1023.14 1039.53 1023.14C1040.91 1023.12 1041.71 1024.06 1041.71 1025.86V1031.76H1044.17V1025.28C1044.17 1022.56 1042.75 1020.98 1040.41 1020.98ZM1053.04 1031.76V1029.64H1051.86C1050.54 1029.64 1050.06 1028.96 1050.06 1027.72V1023.2H1052.96V1021.22H1050.14V1018.34H1047.74V1020.16C1047.74 1021.02 1047.48 1021.22 1046.72 1021.22H1045.62V1023.2H1047.6V1027.98C1047.6 1030.28 1048.9 1031.76 1051.38 1031.76H1053.04Z" fill="#000D6E"/>
</g>
</g>
<defs>
<filter id="filter0_d_2645_16927" x="230" y="34.1764" width="1572" height="1072.53" filterUnits="userSpaceOnUse" color-interpolation-filters="sRGB">
<feFlood flood-opacity="0" result="BackgroundImageFix"/>
<feColorMatrix in="SourceAlpha" type="matrix" values="0 0 0 0 0 0 0 0 0 0 0 0 0 0 0 0 0 0 127 0" result="hardAlpha"/>
<feOffset/>
<feGaussianBlur stdDeviation="15"/>
<feComposite in2="hardAlpha" operator="out"/>
<feColorMatrix type="matrix" values="0 0 0 0 0 0 0 0 0 0.027451 0 0 0 0 0.223529 0 0 0 0.15 0"/>
<feBlend mode="normal" in2="BackgroundImageFix" result="effect1_dropShadow_2645_16927"/>
<feBlend mode="normal" in="SourceGraphic" in2="effect1_dropShadow_2645_16927" result="shape"/>
</filter>
<clipPath id="clip0_2645_16927">
<rect x="260" y="64.1764" width="1512" height="1012.53" rx="12" fill="white"/>
</clipPath>
<clipPath id="clip1_2645_16927">
<rect width="643" height="96" fill="white" transform="translate(380 63.7596)"/>
</clipPath>
<clipPath id="clip2_2645_16927">
<rect width="19.2036" height="64" fill="white" transform="translate(480.521 271.76)"/>
</clipPath>
<clipPath id="clip3_2645_16927">
<rect width="513" height="56" fill="white" transform="translate(380 335.76)"/>
</clipPath>
<clipPath id="clip4_2645_16927">
<rect width="19.2036" height="128" fill="white" transform="translate(480.521 503.76)"/>
</clipPath>
<clipPath id="clip5_2645_16927">
<rect width="643" height="96" fill="white" transform="translate(380 632.76)"/>
</clipPath>
<clipPath id="clip6_2645_16927">
<rect width="19.2036" height="64" fill="white" transform="translate(480.521 840.76)"/>
</clipPath>
<clipPath id="clip7_2645_16927">
<rect width="513" height="56" fill="white" transform="translate(380 904.76)"/>
</clipPath>
</defs>
</svg>
