<svg width="992" height="1096" viewBox="0 0 992 1096" fill="none" xmlns="http://www.w3.org/2000/svg">
<g clip-path="url(#clip0_2491_1359)">
<g clip-path="url(#clip1_2491_1359)">
<path d="M5.15857 20.4V76H26.8386C43.4786 76 55.1586 65.12 55.1586 48.16C55.1586 31.2 43.4786 20.4 26.8386 20.4H5.15857ZM17.0786 65.44V30.96H26.4386C36.2786 30.96 43.0786 37.2 43.0786 48.32C43.0786 59.28 36.2786 65.44 26.4386 65.44H17.0786ZM67.9329 27.68C72.2529 27.68 75.6929 24.64 75.6929 20.24C75.6929 15.84 72.2529 12.64 67.9329 12.64C63.6129 12.64 60.2529 15.84 60.2529 20.24C60.2529 24.64 63.6129 27.68 67.9329 27.68ZM73.8529 76V33.84H62.0129V76H73.8529ZM97.9255 77.04C108.725 77.04 115.685 71.84 115.685 63.36C115.685 47.84 93.1254 51.92 93.1254 45.12C93.1254 42.96 94.8854 41.68 98.0854 41.68C101.205 41.68 103.445 43.12 104.485 46L114.485 42.16C112.725 36.32 106.645 32.88 98.2454 32.88C88.0054 32.88 81.4454 37.76 81.4454 45.76C81.4454 60.24 103.925 56.72 103.925 64.08C103.925 66.48 101.845 67.92 98.3255 67.92C93.6054 67.92 90.5654 65.76 89.4454 62.08L79.4454 65.92C81.8454 73.2 88.5655 77.04 97.9255 77.04ZM146.175 32.88C140.655 32.88 136.095 34.88 132.895 38.48V33.84H121.935V90.32H133.775V72.48C136.815 75.44 140.895 77.04 145.855 77.04C158.015 77.04 166.815 67.52 166.815 54.96C166.815 42.32 158.335 32.88 146.175 32.88ZM144.255 66.56C137.695 66.56 133.295 61.84 133.295 54.96C133.295 48.08 137.695 43.28 144.255 43.28C150.495 43.28 155.055 48.24 155.055 54.96C155.055 61.68 150.495 66.56 144.255 66.56ZM185.181 76V17.52H173.341V76H185.181ZM225.654 38.96C222.614 35.52 218.214 33.6 212.694 33.6C200.534 33.6 191.734 42.32 191.734 54.96C191.734 67.52 200.534 77.04 212.694 77.04C218.214 77.04 222.614 74.96 225.654 71.36V76H236.614V33.84H225.654V38.96ZM214.374 66.56C208.054 66.56 203.494 61.68 203.494 54.96C203.494 48.24 208.054 43.28 214.374 43.28C220.854 43.28 225.254 48.08 225.254 54.96C225.254 61.84 220.854 66.56 214.374 66.56ZM262.9 66.56L253.38 33.84H241.14L255.22 76H259.14L253.46 90.32H265.14L270.34 76L285.86 33.84H273.62L262.9 66.56ZM324.2 20.4H312.36V28.32H303.56V38.08H312.36V66.16H303.4V76H330.84V66.16H324.2V20.4ZM375.669 61.12V51.52H352.869V61.12H375.669ZM433.827 46.4C438.467 43.76 441.347 39.2 441.347 33.92C441.347 25.68 435.427 20.4 425.907 20.4H400.627V76H425.027C436.707 76 443.267 69.6 443.267 60.24C443.267 53.92 439.827 48.88 433.827 46.4ZM429.507 36.32C429.507 40.24 426.547 42.72 422.227 42.72H412.387V29.92H422.387C427.107 29.92 429.507 32.48 429.507 36.32ZM412.387 66.48V52.24H423.187C428.147 52.24 431.427 54.72 431.427 59.28C431.427 63.84 428.467 66.48 423.267 66.48H412.387ZM470.938 77.04C484.218 77.04 493.738 67.52 493.738 54.96C493.738 42.32 484.218 32.88 470.938 32.88C457.578 32.88 448.138 42.32 448.138 54.96C448.138 67.52 457.578 77.04 470.938 77.04ZM471.018 66.48C464.458 66.48 460.058 61.68 460.058 54.96C460.058 48.16 464.458 43.44 471.018 43.44C477.578 43.44 481.898 48.16 481.898 54.88C481.898 61.68 477.418 66.48 471.018 66.48ZM512.056 76V17.52H500.216V76H512.056ZM551.649 37.52C548.529 34.56 544.289 32.88 539.249 32.88C527.169 32.88 518.609 42.32 518.609 54.96C518.609 67.52 527.409 77.04 539.569 77.04C545.009 77.04 549.409 75.04 552.529 71.68V76H563.489V17.52H551.649V37.52ZM541.249 66.56C534.929 66.56 530.369 61.68 530.369 54.96C530.369 48.24 534.929 43.28 541.249 43.28C547.729 43.28 552.129 48.08 552.129 54.96C552.129 61.84 547.729 66.56 541.249 66.56Z" fill="#000D6E"/>
</g>
<path d="M0.0385742 112H992.039V204C992.039 206.209 990.248 208 988.039 208H4.03857C1.82943 208 0.0385742 206.209 0.0385742 204V112Z" fill="#E8E8E8"/>
<path d="M464.676 167.24C468.056 167.24 469.856 165.38 470.456 163.06L468.276 162.4C467.856 164.04 466.796 165.14 464.736 165.14C462.496 165.14 460.796 163.4 460.796 160.08C460.796 156.84 462.456 154.96 464.756 154.96C466.716 154.96 467.796 156.14 468.236 157.7L470.456 157.12C469.876 154.84 468.056 152.86 464.716 152.86C461.096 152.86 458.296 155.7 458.296 160.08C458.296 164.66 460.896 167.24 464.676 167.24ZM477.049 167.24C480.009 167.24 482.369 164.96 482.369 161.74C482.369 158.38 480.169 156.24 477.049 156.24C474.089 156.24 471.769 158.5 471.769 161.74C471.769 165.1 473.949 167.24 477.049 167.24ZM477.069 165.26C475.509 165.26 474.289 163.9 474.289 161.74C474.289 159.58 475.509 158.22 477.069 158.22C478.649 158.22 479.849 159.56 479.849 161.74C479.849 163.9 478.649 165.26 477.069 165.26ZM490.079 156.22C488.619 156.22 487.419 156.86 486.779 158V156.46H484.499V167H486.959V161.1C486.959 159.42 487.879 158.38 489.199 158.38C490.579 158.36 491.379 159.3 491.379 161.1V167H493.839V160.52C493.839 157.8 492.419 156.22 490.079 156.22ZM502.713 167V164.88H501.533C500.213 164.88 499.733 164.2 499.733 162.96V158.44H502.633V156.46H499.813V153.58H497.413V155.4C497.413 156.26 497.153 156.46 496.393 156.46H495.293V158.44H497.273V163.22C497.273 165.52 498.573 167 501.053 167H502.713ZM513.62 162.38C513.68 162.12 513.7 161.62 513.7 161.16C513.7 158.22 511.84 156.24 508.92 156.24C506.04 156.24 503.82 158.48 503.82 161.82C503.82 165.22 505.88 167.24 508.94 167.24C511.06 167.24 512.6 166.34 513.48 164.78L511.8 163.7C511.16 164.82 510.44 165.3 509.16 165.3C507.62 165.3 506.56 164.26 506.36 162.38H513.62ZM506.44 160.52C506.74 159.02 507.7 158.16 508.94 158.16C510.28 158.16 511.14 159.02 511.32 160.54L506.44 160.52ZM521.446 156.22C519.986 156.22 518.786 156.86 518.146 158V156.46H515.866V167H518.326V161.1C518.326 159.42 519.246 158.38 520.566 158.38C521.946 158.36 522.746 159.3 522.746 161.1V167H525.206V160.52C525.206 157.8 523.786 156.22 521.446 156.22ZM534.08 167V164.88H532.9C531.58 164.88 531.1 164.2 531.1 162.96V158.44H534V156.46H531.18V153.58H528.78V155.4C528.78 156.26 528.52 156.46 527.76 156.46H526.66V158.44H528.64V163.22C528.64 165.52 529.94 167 532.42 167H534.08Z" fill="#000D6E"/>
<g clip-path="url(#clip2_2491_1359)">
<path d="M3.11057 251.64V285H16.1186C26.1026 285 33.1106 278.472 33.1106 268.296C33.1106 258.12 26.1026 251.64 16.1186 251.64H3.11057ZM10.2626 278.664V257.976H15.8786C21.7826 257.976 25.8626 261.72 25.8626 268.392C25.8626 274.968 21.7826 278.664 15.8786 278.664H10.2626ZM40.7752 256.008C43.3672 256.008 45.4312 254.184 45.4312 251.544C45.4312 248.904 43.3672 246.984 40.7752 246.984C38.1832 246.984 36.1672 248.904 36.1672 251.544C36.1672 254.184 38.1832 256.008 40.7752 256.008ZM44.3272 285V259.704H37.2232V285H44.3272ZM58.7707 285.624C65.2507 285.624 69.4267 282.504 69.4267 277.416C69.4267 268.104 55.8907 270.552 55.8907 266.472C55.8907 265.176 56.9467 264.408 58.8667 264.408C60.7387 264.408 62.0827 265.272 62.7067 267L68.7067 264.696C67.6507 261.192 64.0027 259.128 58.9627 259.128C52.8187 259.128 48.8827 262.056 48.8827 266.856C48.8827 275.544 62.3707 273.432 62.3707 277.848C62.3707 279.288 61.1227 280.152 59.0107 280.152C56.1787 280.152 54.3547 278.856 53.6827 276.648L47.6827 278.952C49.1227 283.32 53.1547 285.624 58.7707 285.624ZM87.7203 259.128C84.4083 259.128 81.6723 260.328 79.7523 262.488V259.704H73.1763V293.592H80.2803V282.888C82.1043 284.664 84.5523 285.624 87.5283 285.624C94.8243 285.624 100.104 279.912 100.104 272.376C100.104 264.792 95.0163 259.128 87.7203 259.128ZM86.5683 279.336C82.6323 279.336 79.9923 276.504 79.9923 272.376C79.9923 268.248 82.6323 265.368 86.5683 265.368C90.3123 265.368 93.0483 268.344 93.0483 272.376C93.0483 276.408 90.3123 279.336 86.5683 279.336ZM111.124 285V249.912H104.02V285H111.124ZM135.408 262.776C133.584 260.712 130.944 259.56 127.632 259.56C120.336 259.56 115.056 264.792 115.056 272.376C115.056 279.912 120.336 285.624 127.632 285.624C130.944 285.624 133.584 284.376 135.408 282.216V285H141.984V259.704H135.408V262.776ZM128.64 279.336C124.848 279.336 122.112 276.408 122.112 272.376C122.112 268.344 124.848 265.368 128.64 265.368C132.528 265.368 135.168 268.248 135.168 272.376C135.168 276.504 132.528 279.336 128.64 279.336ZM157.755 279.336L152.043 259.704H144.699L153.147 285H155.499L152.091 293.592H159.099L162.219 285L171.531 259.704H164.187L157.755 279.336ZM198.808 272.568C203.032 268.68 205.432 265.224 205.432 260.808C205.432 254.904 200.872 251.064 193.72 251.064C187.624 251.064 182.776 254.472 181.528 259.656L188.248 261.816C189.016 258.696 191.08 257.112 193.672 257.112C196.408 257.112 198.184 258.744 198.184 261.144C198.184 263.928 195.976 266.712 193.24 269.208L181.576 280.296V285H206.008V279.096H191.944L198.808 272.568ZM233.479 276.072V270.312H219.799V276.072H233.479ZM268.374 267.24C271.158 265.656 272.886 262.92 272.886 259.752C272.886 254.808 269.334 251.64 263.622 251.64H248.454V285H263.094C270.102 285 274.038 281.16 274.038 275.544C274.038 271.752 271.974 268.728 268.374 267.24ZM265.782 261.192C265.782 263.544 264.006 265.032 261.414 265.032H255.51V257.352H261.51C264.342 257.352 265.782 258.888 265.782 261.192ZM255.51 279.288V270.744H261.99C264.966 270.744 266.934 272.232 266.934 274.968C266.934 277.704 265.158 279.288 262.038 279.288H255.51ZM290.641 285.624C298.609 285.624 304.321 279.912 304.321 272.376C304.321 264.792 298.609 259.128 290.641 259.128C282.625 259.128 276.961 264.792 276.961 272.376C276.961 279.912 282.625 285.624 290.641 285.624ZM290.689 279.288C286.753 279.288 284.113 276.408 284.113 272.376C284.113 268.296 286.753 265.464 290.689 265.464C294.625 265.464 297.217 268.296 297.217 272.328C297.217 276.408 294.529 279.288 290.689 279.288ZM315.312 285V249.912H308.208V285H315.312ZM339.067 261.912C337.195 260.136 334.651 259.128 331.627 259.128C324.379 259.128 319.243 264.792 319.243 272.376C319.243 279.912 324.523 285.624 331.819 285.624C335.083 285.624 337.723 284.424 339.595 282.408V285H346.171V249.912H339.067V261.912ZM332.827 279.336C329.035 279.336 326.299 276.408 326.299 272.376C326.299 268.344 329.035 265.368 332.827 265.368C336.715 265.368 339.355 268.248 339.355 272.376C339.355 276.504 336.715 279.336 332.827 279.336Z" fill="#000D6E"/>
</g>
<path d="M0.0385742 304H992.039V396C992.039 398.209 990.248 400 988.039 400H4.03857C1.82943 400 0.0385742 398.209 0.0385742 396V304Z" fill="#E8E8E8"/>
<path d="M464.676 359.24C468.056 359.24 469.856 357.38 470.456 355.06L468.276 354.4C467.856 356.04 466.796 357.14 464.736 357.14C462.496 357.14 460.796 355.4 460.796 352.08C460.796 348.84 462.456 346.96 464.756 346.96C466.716 346.96 467.796 348.14 468.236 349.7L470.456 349.12C469.876 346.84 468.056 344.86 464.716 344.86C461.096 344.86 458.296 347.7 458.296 352.08C458.296 356.66 460.896 359.24 464.676 359.24ZM477.049 359.24C480.009 359.24 482.369 356.96 482.369 353.74C482.369 350.38 480.169 348.24 477.049 348.24C474.089 348.24 471.769 350.5 471.769 353.74C471.769 357.1 473.949 359.24 477.049 359.24ZM477.069 357.26C475.509 357.26 474.289 355.9 474.289 353.74C474.289 351.58 475.509 350.22 477.069 350.22C478.649 350.22 479.849 351.56 479.849 353.74C479.849 355.9 478.649 357.26 477.069 357.26ZM490.079 348.22C488.619 348.22 487.419 348.86 486.779 350V348.46H484.499V359H486.959V353.1C486.959 351.42 487.879 350.38 489.199 350.38C490.579 350.36 491.379 351.3 491.379 353.1V359H493.839V352.52C493.839 349.8 492.419 348.22 490.079 348.22ZM502.713 359V356.88H501.533C500.213 356.88 499.733 356.2 499.733 354.96V350.44H502.633V348.46H499.813V345.58H497.413V347.4C497.413 348.26 497.153 348.46 496.393 348.46H495.293V350.44H497.273V355.22C497.273 357.52 498.573 359 501.053 359H502.713ZM513.62 354.38C513.68 354.12 513.7 353.62 513.7 353.16C513.7 350.22 511.84 348.24 508.92 348.24C506.04 348.24 503.82 350.48 503.82 353.82C503.82 357.22 505.88 359.24 508.94 359.24C511.06 359.24 512.6 358.34 513.48 356.78L511.8 355.7C511.16 356.82 510.44 357.3 509.16 357.3C507.62 357.3 506.56 356.26 506.36 354.38H513.62ZM506.44 352.52C506.74 351.02 507.7 350.16 508.94 350.16C510.28 350.16 511.14 351.02 511.32 352.54L506.44 352.52ZM521.446 348.22C519.986 348.22 518.786 348.86 518.146 350V348.46H515.866V359H518.326V353.1C518.326 351.42 519.246 350.38 520.566 350.38C521.946 350.36 522.746 351.3 522.746 353.1V359H525.206V352.52C525.206 349.8 523.786 348.22 521.446 348.22ZM534.08 359V356.88H532.9C531.58 356.88 531.1 356.2 531.1 354.96V350.44H534V348.46H531.18V345.58H528.78V347.4C528.78 348.26 528.52 348.46 527.76 348.46H526.66V350.44H528.64V355.22C528.64 357.52 529.94 359 532.42 359H534.08Z" fill="#000D6E"/>
<g clip-path="url(#clip3_2491_1359)">
<path d="M19.1586 453.16H8.55857V442.2H2.59857V470H8.55857V458.48H19.1586V470H25.1186V442.2H19.1586V453.16ZM50.0614 461.28C50.1414 460.76 50.1814 459.96 50.1814 459.04C50.1814 453.76 46.1414 448.44 39.3414 448.44C33.3014 448.44 28.4614 453.36 28.4614 459.48C28.4614 465.76 32.9014 470.52 39.7414 470.52C44.9014 470.52 47.6214 468.4 49.2614 466L44.7414 463C43.8214 464.68 42.5014 465.6 39.9014 465.6C37.1014 465.6 34.9414 464.04 34.2614 461.28H50.0614ZM34.1814 457.4C34.7814 454.52 36.7814 452.92 39.5014 452.92C42.2214 452.92 44.0614 454.64 44.6214 457.4H34.1814ZM69.2914 451.48C67.7714 449.76 65.5714 448.8 62.8114 448.8C56.7314 448.8 52.3314 453.16 52.3314 459.48C52.3314 465.76 56.7314 470.52 62.8114 470.52C65.5714 470.52 67.7714 469.48 69.2914 467.68V470H74.7714V448.92H69.2914V451.48ZM63.6514 465.28C60.4914 465.28 58.2114 462.84 58.2114 459.48C58.2114 456.12 60.4914 453.64 63.6514 453.64C66.8914 453.64 69.0914 456.04 69.0914 459.48C69.0914 462.92 66.8914 465.28 63.6514 465.28ZM94.5545 450.76C92.9945 449.28 90.8745 448.44 88.3545 448.44C82.3145 448.44 78.0345 453.16 78.0345 459.48C78.0345 465.76 82.4345 470.52 88.5145 470.52C91.2345 470.52 93.4345 469.52 94.9945 467.84V470H100.475V440.76H94.5545V450.76ZM89.3545 465.28C86.1945 465.28 83.9145 462.84 83.9145 459.48C83.9145 456.12 86.1945 453.64 89.3545 453.64C92.5945 453.64 94.7945 456.04 94.7945 459.48C94.7945 462.92 92.5945 465.28 89.3545 465.28ZM110.618 470V440.76H104.698V470H110.618ZM117.814 445.84C119.974 445.84 121.694 444.32 121.694 442.12C121.694 439.92 119.974 438.32 117.814 438.32C115.654 438.32 113.974 439.92 113.974 442.12C113.974 444.32 115.654 445.84 117.814 445.84ZM120.774 470V448.92H114.854V470H120.774ZM136.97 448.4C134.25 448.4 132.05 449.4 130.61 450.88V448.92H125.01V470H130.93V457.52C130.97 455.36 132.81 453.68 135.17 453.68C137.57 453.68 139.33 455.2 139.33 457.88V470H145.21V456.72C145.21 451.8 142.01 448.4 136.97 448.4ZM169.788 461.28C169.868 460.76 169.908 459.96 169.908 459.04C169.908 453.76 165.868 448.44 159.068 448.44C153.028 448.44 148.188 453.36 148.188 459.48C148.188 465.76 152.628 470.52 159.468 470.52C164.628 470.52 167.348 468.4 168.988 466L164.468 463C163.548 464.68 162.228 465.6 159.628 465.6C156.828 465.6 154.668 464.04 153.988 461.28H169.788ZM153.908 457.4C154.508 454.52 156.508 452.92 159.228 452.92C161.948 452.92 163.788 454.64 164.348 457.4H153.908ZM190.87 442.2H184.95V446.16H180.55V451.04H184.95V465.08H180.47V470H194.19V465.08H190.87V442.2ZM222.324 455.2C224.644 453.88 226.084 451.6 226.084 448.96C226.084 444.84 223.124 442.2 218.364 442.2H205.724V470H217.924C223.764 470 227.044 466.8 227.044 462.12C227.044 458.96 225.324 456.44 222.324 455.2ZM220.164 450.16C220.164 452.12 218.684 453.36 216.524 453.36H211.604V446.96H216.604C218.964 446.96 220.164 448.24 220.164 450.16ZM211.604 465.24V458.12H217.004C219.484 458.12 221.124 459.36 221.124 461.64C221.124 463.92 219.644 465.24 217.044 465.24H211.604ZM240.879 470.52C247.519 470.52 252.279 465.76 252.279 459.48C252.279 453.16 247.519 448.44 240.879 448.44C234.199 448.44 229.479 453.16 229.479 459.48C229.479 465.76 234.199 470.52 240.879 470.52ZM240.919 465.24C237.639 465.24 235.439 462.84 235.439 459.48C235.439 456.08 237.639 453.72 240.919 453.72C244.199 453.72 246.359 456.08 246.359 459.44C246.359 462.84 244.119 465.24 240.919 465.24ZM261.438 470V440.76H255.518V470H261.438ZM281.234 450.76C279.674 449.28 277.554 448.44 275.034 448.44C268.994 448.44 264.714 453.16 264.714 459.48C264.714 465.76 269.114 470.52 275.194 470.52C277.914 470.52 280.114 469.52 281.674 467.84V470H287.154V440.76H281.234V450.76ZM276.034 465.28C272.874 465.28 270.594 462.84 270.594 459.48C270.594 456.12 272.874 453.64 276.034 453.64C279.274 453.64 281.474 456.04 281.474 459.48C281.474 462.92 279.274 465.28 276.034 465.28Z" fill="#000D6E"/>
</g>
<path d="M0.0385742 488H992.039V580C992.039 582.209 990.248 584 988.039 584H4.03857C1.82943 584 0.0385742 582.209 0.0385742 580V488Z" fill="#E8E8E8"/>
<path d="M464.676 543.24C468.056 543.24 469.856 541.38 470.456 539.06L468.276 538.4C467.856 540.04 466.796 541.14 464.736 541.14C462.496 541.14 460.796 539.4 460.796 536.08C460.796 532.84 462.456 530.96 464.756 530.96C466.716 530.96 467.796 532.14 468.236 533.7L470.456 533.12C469.876 530.84 468.056 528.86 464.716 528.86C461.096 528.86 458.296 531.7 458.296 536.08C458.296 540.66 460.896 543.24 464.676 543.24ZM477.049 543.24C480.009 543.24 482.369 540.96 482.369 537.74C482.369 534.38 480.169 532.24 477.049 532.24C474.089 532.24 471.769 534.5 471.769 537.74C471.769 541.1 473.949 543.24 477.049 543.24ZM477.069 541.26C475.509 541.26 474.289 539.9 474.289 537.74C474.289 535.58 475.509 534.22 477.069 534.22C478.649 534.22 479.849 535.56 479.849 537.74C479.849 539.9 478.649 541.26 477.069 541.26ZM490.079 532.22C488.619 532.22 487.419 532.86 486.779 534V532.46H484.499V543H486.959V537.1C486.959 535.42 487.879 534.38 489.199 534.38C490.579 534.36 491.379 535.3 491.379 537.1V543H493.839V536.52C493.839 533.8 492.419 532.22 490.079 532.22ZM502.713 543V540.88H501.533C500.213 540.88 499.733 540.2 499.733 538.96V534.44H502.633V532.46H499.813V529.58H497.413V531.4C497.413 532.26 497.153 532.46 496.393 532.46H495.293V534.44H497.273V539.22C497.273 541.52 498.573 543 501.053 543H502.713ZM513.62 538.38C513.68 538.12 513.7 537.62 513.7 537.16C513.7 534.22 511.84 532.24 508.92 532.24C506.04 532.24 503.82 534.48 503.82 537.82C503.82 541.22 505.88 543.24 508.94 543.24C511.06 543.24 512.6 542.34 513.48 540.78L511.8 539.7C511.16 540.82 510.44 541.3 509.16 541.3C507.62 541.3 506.56 540.26 506.36 538.38H513.62ZM506.44 536.52C506.74 535.02 507.7 534.16 508.94 534.16C510.28 534.16 511.14 535.02 511.32 536.54L506.44 536.52ZM521.446 532.22C519.986 532.22 518.786 532.86 518.146 534V532.46H515.866V543H518.326V537.1C518.326 535.42 519.246 534.38 520.566 534.38C521.946 534.36 522.746 535.3 522.746 537.1V543H525.206V536.52C525.206 533.8 523.786 532.22 521.446 532.22ZM534.08 543V540.88H532.9C531.58 540.88 531.1 540.2 531.1 538.96V534.44H534V532.46H531.18V529.58H528.78V531.4C528.78 532.26 528.52 532.46 527.76 532.46H526.66V534.44H528.64V539.22C528.64 541.52 529.94 543 532.42 543H534.08Z" fill="#000D6E"/>
<g clip-path="url(#clip4_2491_1359)">
<path d="M15.3346 633.528H6.85457V624.76H2.08657V647H6.85457V637.784H15.3346V647H20.1026V624.76H15.3346V633.528ZM40.0568 640.024C40.1208 639.608 40.1528 638.968 40.1528 638.232C40.1528 634.008 36.9208 629.752 31.4808 629.752C26.6488 629.752 22.7768 633.688 22.7768 638.584C22.7768 643.608 26.3288 647.416 31.8008 647.416C35.9288 647.416 38.1048 645.72 39.4168 643.8L35.8008 641.4C35.0648 642.744 34.0088 643.48 31.9288 643.48C29.6888 643.48 27.9608 642.232 27.4168 640.024H40.0568ZM27.3528 636.92C27.8328 634.616 29.4328 633.336 31.6088 633.336C33.7848 633.336 35.2568 634.712 35.7048 636.92H27.3528ZM55.4408 632.184C54.2248 630.808 52.4648 630.04 50.2568 630.04C45.3928 630.04 41.8728 633.528 41.8728 638.584C41.8728 643.608 45.3928 647.416 50.2568 647.416C52.4648 647.416 54.2248 646.584 55.4408 645.144V647H59.8248V630.136H55.4408V632.184ZM50.9288 643.224C48.4008 643.224 46.5768 641.272 46.5768 638.584C46.5768 635.896 48.4008 633.912 50.9288 633.912C53.5208 633.912 55.2808 635.832 55.2808 638.584C55.2808 641.336 53.5208 643.224 50.9288 643.224ZM75.6513 631.608C74.4033 630.424 72.7073 629.752 70.6913 629.752C65.8593 629.752 62.4353 633.528 62.4353 638.584C62.4353 643.608 65.9553 647.416 70.8193 647.416C72.9953 647.416 74.7553 646.616 76.0033 645.272V647H80.3873V623.608H75.6513V631.608ZM71.4913 643.224C68.9633 643.224 67.1393 641.272 67.1393 638.584C67.1393 635.896 68.9633 633.912 71.4913 633.912C74.0833 633.912 75.8433 635.832 75.8433 638.584C75.8433 641.336 74.0833 643.224 71.4913 643.224ZM88.5018 647V623.608H83.7658V647H88.5018ZM94.2588 627.672C95.9868 627.672 97.3628 626.456 97.3628 624.696C97.3628 622.936 95.9868 621.656 94.2588 621.656C92.5308 621.656 91.1868 622.936 91.1868 624.696C91.1868 626.456 92.5308 627.672 94.2588 627.672ZM96.6268 647V630.136H91.8908V647H96.6268ZM109.584 629.72C107.408 629.72 105.648 630.52 104.496 631.704V630.136H100.016V647H104.752V637.016C104.784 635.288 106.256 633.944 108.144 633.944C110.064 633.944 111.472 635.16 111.472 637.304V647H116.176V636.376C116.176 632.44 113.616 629.72 109.584 629.72ZM135.838 640.024C135.902 639.608 135.934 638.968 135.934 638.232C135.934 634.008 132.702 629.752 127.262 629.752C122.43 629.752 118.558 633.688 118.558 638.584C118.558 643.608 122.11 647.416 127.582 647.416C131.71 647.416 133.886 645.72 135.198 643.8L131.582 641.4C130.846 642.744 129.79 643.48 127.71 643.48C125.47 643.48 123.742 642.232 123.198 640.024H135.838ZM123.134 636.92C123.614 634.616 125.214 633.336 127.39 633.336C129.566 633.336 131.038 634.712 131.486 636.92H123.134ZM155.551 638.712C158.367 636.12 159.967 633.816 159.967 630.872C159.967 626.936 156.927 624.376 152.159 624.376C148.095 624.376 144.863 626.648 144.031 630.104L148.511 631.544C149.023 629.464 150.399 628.408 152.127 628.408C153.951 628.408 155.135 629.496 155.135 631.096C155.135 632.952 153.663 634.808 151.839 636.472L144.063 643.864V647H160.351V643.064H150.975L155.551 638.712ZM183.242 635.16C185.098 634.104 186.25 632.28 186.25 630.168C186.25 626.872 183.882 624.76 180.074 624.76H169.962V647H179.722C184.394 647 187.018 644.44 187.018 640.696C187.018 638.168 185.642 636.152 183.242 635.16ZM181.514 631.128C181.514 632.696 180.33 633.688 178.602 633.688H174.666V628.568H178.666C180.554 628.568 181.514 629.592 181.514 631.128ZM174.666 643.192V637.496H178.986C180.97 637.496 182.282 638.488 182.282 640.312C182.282 642.136 181.098 643.192 179.018 643.192H174.666ZM198.086 647.416C203.398 647.416 207.206 643.608 207.206 638.584C207.206 633.528 203.398 629.752 198.086 629.752C192.742 629.752 188.966 633.528 188.966 638.584C188.966 643.608 192.742 647.416 198.086 647.416ZM198.118 643.192C195.494 643.192 193.734 641.272 193.734 638.584C193.734 635.864 195.494 633.976 198.118 633.976C200.742 633.976 202.47 635.864 202.47 638.552C202.47 641.272 200.678 643.192 198.118 643.192ZM214.533 647V623.608H209.797V647H214.533ZM230.37 631.608C229.122 630.424 227.426 629.752 225.41 629.752C220.578 629.752 217.154 633.528 217.154 638.584C217.154 643.608 220.674 647.416 225.538 647.416C227.714 647.416 229.474 646.616 230.722 645.272V647H235.106V623.608H230.37V631.608ZM226.21 643.224C223.682 643.224 221.858 641.272 221.858 638.584C221.858 635.896 223.682 633.912 226.21 633.912C228.802 633.912 230.562 635.832 230.562 638.584C230.562 641.336 228.802 643.224 226.21 643.224Z" fill="#000D6E"/>
</g>
<path d="M0.0385742 664H992.039V756C992.039 758.209 990.248 760 988.039 760H4.03857C1.82943 760 0.0385742 758.209 0.0385742 756V664Z" fill="#E8E8E8"/>
<path d="M464.676 719.24C468.056 719.24 469.856 717.38 470.456 715.06L468.276 714.4C467.856 716.04 466.796 717.14 464.736 717.14C462.496 717.14 460.796 715.4 460.796 712.08C460.796 708.84 462.456 706.96 464.756 706.96C466.716 706.96 467.796 708.14 468.236 709.7L470.456 709.12C469.876 706.84 468.056 704.86 464.716 704.86C461.096 704.86 458.296 707.7 458.296 712.08C458.296 716.66 460.896 719.24 464.676 719.24ZM477.049 719.24C480.009 719.24 482.369 716.96 482.369 713.74C482.369 710.38 480.169 708.24 477.049 708.24C474.089 708.24 471.769 710.5 471.769 713.74C471.769 717.1 473.949 719.24 477.049 719.24ZM477.069 717.26C475.509 717.26 474.289 715.9 474.289 713.74C474.289 711.58 475.509 710.22 477.069 710.22C478.649 710.22 479.849 711.56 479.849 713.74C479.849 715.9 478.649 717.26 477.069 717.26ZM490.079 708.22C488.619 708.22 487.419 708.86 486.779 710V708.46H484.499V719H486.959V713.1C486.959 711.42 487.879 710.38 489.199 710.38C490.579 710.36 491.379 711.3 491.379 713.1V719H493.839V712.52C493.839 709.8 492.419 708.22 490.079 708.22ZM502.713 719V716.88H501.533C500.213 716.88 499.733 716.2 499.733 714.96V710.44H502.633V708.46H499.813V705.58H497.413V707.4C497.413 708.26 497.153 708.46 496.393 708.46H495.293V710.44H497.273V715.22C497.273 717.52 498.573 719 501.053 719H502.713ZM513.62 714.38C513.68 714.12 513.7 713.62 513.7 713.16C513.7 710.22 511.84 708.24 508.92 708.24C506.04 708.24 503.82 710.48 503.82 713.82C503.82 717.22 505.88 719.24 508.94 719.24C511.06 719.24 512.6 718.34 513.48 716.78L511.8 715.7C511.16 716.82 510.44 717.3 509.16 717.3C507.62 717.3 506.56 716.26 506.36 714.38H513.62ZM506.44 712.52C506.74 711.02 507.7 710.16 508.94 710.16C510.28 710.16 511.14 711.02 511.32 712.54L506.44 712.52ZM521.446 708.22C519.986 708.22 518.786 708.86 518.146 710V708.46H515.866V719H518.326V713.1C518.326 711.42 519.246 710.38 520.566 710.38C521.946 710.36 522.746 711.3 522.746 713.1V719H525.206V712.52C525.206 709.8 523.786 708.22 521.446 708.22ZM534.08 719V716.88H532.9C531.58 716.88 531.1 716.2 531.1 714.96V710.44H534V708.46H531.18V705.58H528.78V707.4C528.78 708.26 528.52 708.46 527.76 708.46H526.66V710.44H528.64V715.22C528.64 717.52 529.94 719 532.42 719H534.08Z" fill="#000D6E"/>
<g clip-path="url(#clip5_2491_1359)">
<path d="M11.5106 805.896H5.15057V799.32H1.57457V816H5.15057V809.088H11.5106V816H15.0866V799.32H11.5106V805.896ZM30.0523 810.768C30.1003 810.456 30.1243 809.976 30.1243 809.424C30.1243 806.256 27.7003 803.064 23.6203 803.064C19.9963 803.064 17.0923 806.016 17.0923 809.688C17.0923 813.456 19.7563 816.312 23.8603 816.312C26.9563 816.312 28.5883 815.04 29.5723 813.6L26.8603 811.8C26.3083 812.808 25.5163 813.36 23.9563 813.36C22.2763 813.36 20.9803 812.424 20.5723 810.768H30.0523ZM20.5243 808.44C20.8843 806.712 22.0843 805.752 23.7163 805.752C25.3483 805.752 26.4523 806.784 26.7883 808.44H20.5243ZM41.5903 804.888C40.6783 803.856 39.3583 803.28 37.7023 803.28C34.0543 803.28 31.4143 805.896 31.4143 809.688C31.4143 813.456 34.0543 816.312 37.7023 816.312C39.3583 816.312 40.6783 815.688 41.5903 814.608V816H44.8783V803.352H41.5903V804.888ZM38.2063 813.168C36.3103 813.168 34.9423 811.704 34.9423 809.688C34.9423 807.672 36.3103 806.184 38.2063 806.184C40.1503 806.184 41.4703 807.624 41.4703 809.688C41.4703 811.752 40.1503 813.168 38.2063 813.168ZM56.7481 804.456C55.8121 803.568 54.5401 803.064 53.0281 803.064C49.4041 803.064 46.8361 805.896 46.8361 809.688C46.8361 813.456 49.4761 816.312 53.1241 816.312C54.7561 816.312 56.0761 815.712 57.0121 814.704V816H60.3001V798.456H56.7481V804.456ZM53.6281 813.168C51.7321 813.168 50.3641 811.704 50.3641 809.688C50.3641 807.672 51.7321 806.184 53.6281 806.184C55.5721 806.184 56.8921 807.624 56.8921 809.688C56.8921 811.752 55.5721 813.168 53.6281 813.168ZM66.386 816V798.456H62.834V816H66.386ZM70.7038 801.504C71.9998 801.504 73.0318 800.592 73.0318 799.272C73.0318 797.952 71.9998 796.992 70.7038 796.992C69.4078 796.992 68.3998 797.952 68.3998 799.272C68.3998 800.592 69.4078 801.504 70.7038 801.504ZM72.4798 816V803.352H68.9278V816H72.4798ZM82.1975 803.04C80.5655 803.04 79.2455 803.64 78.3815 804.528V803.352H75.0215V816H78.5735V808.512C78.5975 807.216 79.7015 806.208 81.1175 806.208C82.5575 806.208 83.6135 807.12 83.6135 808.728V816H87.1415V808.032C87.1415 805.08 85.2215 803.04 82.1975 803.04ZM101.888 810.768C101.936 810.456 101.96 809.976 101.96 809.424C101.96 806.256 99.5362 803.064 95.4562 803.064C91.8322 803.064 88.9282 806.016 88.9282 809.688C88.9282 813.456 91.5922 816.312 95.6962 816.312C98.7922 816.312 100.424 815.04 101.408 813.6L98.6962 811.8C98.1442 812.808 97.3522 813.36 95.7922 813.36C94.1122 813.36 92.8162 812.424 92.4082 810.768H101.888ZM92.3602 808.44C92.7202 806.712 93.9202 805.752 95.5522 805.752C97.1842 805.752 98.2882 806.784 98.6242 808.44H92.3602ZM119.601 802.104V799.32H108.537V802.104H115.593L111.393 805.992V808.344H114.129C115.617 808.344 116.793 809.256 116.793 810.768C116.793 812.208 115.713 813.264 114.057 813.264C112.473 813.264 111.321 812.424 110.937 811.128L107.673 812.424C108.369 814.752 110.865 816.312 114.153 816.312C117.849 816.312 120.465 814.032 120.465 811.008C120.465 808.248 118.449 806.184 115.569 806.016L119.601 802.104ZM137.558 807.12C138.95 806.328 139.814 804.96 139.814 803.376C139.814 800.904 138.038 799.32 135.182 799.32H127.598V816H134.918C138.422 816 140.39 814.08 140.39 811.272C140.39 809.376 139.358 807.864 137.558 807.12ZM136.262 804.096C136.262 805.272 135.374 806.016 134.078 806.016H131.126V802.176H134.126C135.542 802.176 136.262 802.944 136.262 804.096ZM131.126 813.144V808.872H134.366C135.854 808.872 136.838 809.616 136.838 810.984C136.838 812.352 135.95 813.144 134.39 813.144H131.126ZM148.691 816.312C152.675 816.312 155.531 813.456 155.531 809.688C155.531 805.896 152.675 803.064 148.691 803.064C144.683 803.064 141.851 805.896 141.851 809.688C141.851 813.456 144.683 816.312 148.691 816.312ZM148.715 813.144C146.747 813.144 145.427 811.704 145.427 809.688C145.427 807.648 146.747 806.232 148.715 806.232C150.683 806.232 151.979 807.648 151.979 809.664C151.979 811.704 150.635 813.144 148.715 813.144ZM161.027 816V798.456H157.475V816H161.027ZM172.904 804.456C171.968 803.568 170.696 803.064 169.184 803.064C165.56 803.064 162.992 805.896 162.992 809.688C162.992 813.456 165.632 816.312 169.28 816.312C170.912 816.312 172.232 815.712 173.168 814.704V816H176.456V798.456H172.904V804.456ZM169.784 813.168C167.888 813.168 166.52 811.704 166.52 809.688C166.52 807.672 167.888 806.184 169.784 806.184C171.728 806.184 173.048 807.624 173.048 809.688C173.048 811.752 171.728 813.168 169.784 813.168Z" fill="#000D6E"/>
</g>
<path d="M0.0385742 832H992.039V924C992.039 926.209 990.248 928 988.039 928H4.03857C1.82943 928 0.0385742 926.209 0.0385742 924V832Z" fill="#E8E8E8"/>
<path d="M464.676 887.24C468.056 887.24 469.856 885.38 470.456 883.06L468.276 882.4C467.856 884.04 466.796 885.14 464.736 885.14C462.496 885.14 460.796 883.4 460.796 880.08C460.796 876.84 462.456 874.96 464.756 874.96C466.716 874.96 467.796 876.14 468.236 877.7L470.456 877.12C469.876 874.84 468.056 872.86 464.716 872.86C461.096 872.86 458.296 875.7 458.296 880.08C458.296 884.66 460.896 887.24 464.676 887.24ZM477.049 887.24C480.009 887.24 482.369 884.96 482.369 881.74C482.369 878.38 480.169 876.24 477.049 876.24C474.089 876.24 471.769 878.5 471.769 881.74C471.769 885.1 473.949 887.24 477.049 887.24ZM477.069 885.26C475.509 885.26 474.289 883.9 474.289 881.74C474.289 879.58 475.509 878.22 477.069 878.22C478.649 878.22 479.849 879.56 479.849 881.74C479.849 883.9 478.649 885.26 477.069 885.26ZM490.079 876.22C488.619 876.22 487.419 876.86 486.779 878V876.46H484.499V887H486.959V881.1C486.959 879.42 487.879 878.38 489.199 878.38C490.579 878.36 491.379 879.3 491.379 881.1V887H493.839V880.52C493.839 877.8 492.419 876.22 490.079 876.22ZM502.713 887V884.88H501.533C500.213 884.88 499.733 884.2 499.733 882.96V878.44H502.633V876.46H499.813V873.58H497.413V875.4C497.413 876.26 497.153 876.46 496.393 876.46H495.293V878.44H497.273V883.22C497.273 885.52 498.573 887 501.053 887H502.713ZM513.62 882.38C513.68 882.12 513.7 881.62 513.7 881.16C513.7 878.22 511.84 876.24 508.92 876.24C506.04 876.24 503.82 878.48 503.82 881.82C503.82 885.22 505.88 887.24 508.94 887.24C511.06 887.24 512.6 886.34 513.48 884.78L511.8 883.7C511.16 884.82 510.44 885.3 509.16 885.3C507.62 885.3 506.56 884.26 506.36 882.38H513.62ZM506.44 880.52C506.74 879.02 507.7 878.16 508.94 878.16C510.28 878.16 511.14 879.02 511.32 880.54L506.44 880.52ZM521.446 876.22C519.986 876.22 518.786 876.86 518.146 878V876.46H515.866V887H518.326V881.1C518.326 879.42 519.246 878.38 520.566 878.38C521.946 878.36 522.746 879.3 522.746 881.1V887H525.206V880.52C525.206 877.8 523.786 876.22 521.446 876.22ZM534.08 887V884.88H532.9C531.58 884.88 531.1 884.2 531.1 882.96V878.44H534V876.46H531.18V873.58H528.78V875.4C528.78 876.26 528.52 876.46 527.76 876.46H526.66V878.44H528.64V883.22C528.64 885.52 529.94 887 532.42 887H534.08Z" fill="#000D6E"/>
<g clip-path="url(#clip6_2491_1359)">
<path d="M9.59857 974.58H4.29857V969.1H1.31857V983H4.29857V977.24H9.59857V983H12.5786V969.1H9.59857V974.58ZM25.05 978.64C25.09 978.38 25.11 977.98 25.11 977.52C25.11 974.88 23.09 972.22 19.69 972.22C16.67 972.22 14.25 974.68 14.25 977.74C14.25 980.88 16.47 983.26 19.89 983.26C22.47 983.26 23.83 982.2 24.65 981L22.39 979.5C21.93 980.34 21.27 980.8 19.97 980.8C18.57 980.8 17.49 980.02 17.15 978.64H25.05ZM17.11 976.7C17.41 975.26 18.41 974.46 19.77 974.46C21.13 974.46 22.05 975.32 22.33 976.7H17.11ZM34.665 973.74C33.905 972.88 32.805 972.4 31.425 972.4C28.385 972.4 26.185 974.58 26.185 977.74C26.185 980.88 28.385 983.26 31.425 983.26C32.805 983.26 33.905 982.74 34.665 981.84V983H37.405V972.46H34.665V973.74ZM31.845 980.64C30.265 980.64 29.125 979.42 29.125 977.74C29.125 976.06 30.265 974.82 31.845 974.82C33.465 974.82 34.565 976.02 34.565 977.74C34.565 979.46 33.465 980.64 31.845 980.64ZM47.2965 973.38C46.5165 972.64 45.4565 972.22 44.1965 972.22C41.1765 972.22 39.0365 974.58 39.0365 977.74C39.0365 980.88 41.2365 983.26 44.2765 983.26C45.6365 983.26 46.7365 982.76 47.5165 981.92V983H50.2565V968.38H47.2965V973.38ZM44.6965 980.64C43.1165 980.64 41.9765 979.42 41.9765 977.74C41.9765 976.06 43.1165 974.82 44.6965 974.82C46.3165 974.82 47.4165 976.02 47.4165 977.74C47.4165 979.46 46.3165 980.64 44.6965 980.64ZM55.3281 983V968.38H52.3681V983H55.3281ZM58.9262 970.92C60.0062 970.92 60.8662 970.16 60.8662 969.06C60.8662 967.96 60.0062 967.16 58.9262 967.16C57.8462 967.16 57.0062 967.96 57.0062 969.06C57.0062 970.16 57.8462 970.92 58.9262 970.92ZM60.4062 983V972.46H57.4462V983H60.4062ZM68.5044 972.2C67.1444 972.2 66.0444 972.7 65.3244 973.44V972.46H62.5244V983H65.4844V976.76C65.5044 975.68 66.4244 974.84 67.6044 974.84C68.8044 974.84 69.6844 975.6 69.6844 976.94V983H72.6244V976.36C72.6244 973.9 71.0244 972.2 68.5044 972.2ZM84.9133 978.64C84.9533 978.38 84.9733 977.98 84.9733 977.52C84.9733 974.88 82.9533 972.22 79.5533 972.22C76.5333 972.22 74.1133 974.68 74.1133 977.74C74.1133 980.88 76.3333 983.26 79.7533 983.26C82.3333 983.26 83.6933 982.2 84.5133 981L82.2533 979.5C81.7933 980.34 81.1333 980.8 79.8333 980.8C78.4333 980.8 77.3533 980.02 77.0133 978.64H84.9133ZM76.9733 976.7C77.2733 975.26 78.2733 974.46 79.6333 974.46C80.9933 974.46 81.9133 975.32 82.1933 976.7H76.9733ZM99.414 977.76V969.12H96.494L89.754 977.92V980.08H96.474V983H99.414V980.08H100.934V977.76H99.414ZM92.814 977.76L96.494 972.92V977.76H92.814ZM115.087 975.6C116.247 974.94 116.967 973.8 116.967 972.48C116.967 970.42 115.487 969.1 113.107 969.1H106.787V983H112.887C115.807 983 117.447 981.4 117.447 979.06C117.447 977.48 116.587 976.22 115.087 975.6ZM114.007 973.08C114.007 974.06 113.267 974.68 112.187 974.68H109.727V971.48H112.227C113.407 971.48 114.007 972.12 114.007 973.08ZM109.727 980.62V977.06H112.427C113.667 977.06 114.487 977.68 114.487 978.82C114.487 979.96 113.747 980.62 112.447 980.62H109.727ZM124.365 983.26C127.685 983.26 130.065 980.88 130.065 977.74C130.065 974.58 127.685 972.22 124.365 972.22C121.025 972.22 118.665 974.58 118.665 977.74C118.665 980.88 121.025 983.26 124.365 983.26ZM124.385 980.62C122.745 980.62 121.645 979.42 121.645 977.74C121.645 976.04 122.745 974.86 124.385 974.86C126.025 974.86 127.105 976.04 127.105 977.72C127.105 979.42 125.985 980.62 124.385 980.62ZM134.645 983V968.38H131.685V983H134.645ZM144.543 973.38C143.763 972.64 142.703 972.22 141.443 972.22C138.423 972.22 136.283 974.58 136.283 977.74C136.283 980.88 138.483 983.26 141.523 983.26C142.883 983.26 143.983 982.76 144.763 981.92V983H147.503V968.38H144.543V973.38ZM141.943 980.64C140.363 980.64 139.223 979.42 139.223 977.74C139.223 976.06 140.363 974.82 141.943 974.82C143.563 974.82 144.663 976.02 144.663 977.74C144.663 979.46 143.563 980.64 141.943 980.64Z" fill="#000D6E"/>
</g>
<path d="M0.0385742 1000H992.039V1092C992.039 1094.21 990.248 1096 988.039 1096H4.03857C1.82943 1096 0.0385742 1094.21 0.0385742 1092V1000Z" fill="#E8E8E8"/>
<path d="M464.676 1055.24C468.056 1055.24 469.856 1053.38 470.456 1051.06L468.276 1050.4C467.856 1052.04 466.796 1053.14 464.736 1053.14C462.496 1053.14 460.796 1051.4 460.796 1048.08C460.796 1044.84 462.456 1042.96 464.756 1042.96C466.716 1042.96 467.796 1044.14 468.236 1045.7L470.456 1045.12C469.876 1042.84 468.056 1040.86 464.716 1040.86C461.096 1040.86 458.296 1043.7 458.296 1048.08C458.296 1052.66 460.896 1055.24 464.676 1055.24ZM477.049 1055.24C480.009 1055.24 482.369 1052.96 482.369 1049.74C482.369 1046.38 480.169 1044.24 477.049 1044.24C474.089 1044.24 471.769 1046.5 471.769 1049.74C471.769 1053.1 473.949 1055.24 477.049 1055.24ZM477.069 1053.26C475.509 1053.26 474.289 1051.9 474.289 1049.74C474.289 1047.58 475.509 1046.22 477.069 1046.22C478.649 1046.22 479.849 1047.56 479.849 1049.74C479.849 1051.9 478.649 1053.26 477.069 1053.26ZM490.079 1044.22C488.619 1044.22 487.419 1044.86 486.779 1046V1044.46H484.499V1055H486.959V1049.1C486.959 1047.42 487.879 1046.38 489.199 1046.38C490.579 1046.36 491.379 1047.3 491.379 1049.1V1055H493.839V1048.52C493.839 1045.8 492.419 1044.22 490.079 1044.22ZM502.713 1055V1052.88H501.533C500.213 1052.88 499.733 1052.2 499.733 1050.96V1046.44H502.633V1044.46H499.813V1041.58H497.413V1043.4C497.413 1044.26 497.153 1044.46 496.393 1044.46H495.293V1046.44H497.273V1051.22C497.273 1053.52 498.573 1055 501.053 1055H502.713ZM513.62 1050.38C513.68 1050.12 513.7 1049.62 513.7 1049.16C513.7 1046.22 511.84 1044.24 508.92 1044.24C506.04 1044.24 503.82 1046.48 503.82 1049.82C503.82 1053.22 505.88 1055.24 508.94 1055.24C511.06 1055.24 512.6 1054.34 513.48 1052.78L511.8 1051.7C511.16 1052.82 510.44 1053.3 509.16 1053.3C507.62 1053.3 506.56 1052.26 506.36 1050.38H513.62ZM506.44 1048.52C506.74 1047.02 507.7 1046.16 508.94 1046.16C510.28 1046.16 511.14 1047.02 511.32 1048.54L506.44 1048.52ZM521.446 1044.22C519.986 1044.22 518.786 1044.86 518.146 1046V1044.46H515.866V1055H518.326V1049.1C518.326 1047.42 519.246 1046.38 520.566 1046.38C521.946 1046.36 522.746 1047.3 522.746 1049.1V1055H525.206V1048.52C525.206 1045.8 523.786 1044.22 521.446 1044.22ZM534.08 1055V1052.88H532.9C531.58 1052.88 531.1 1052.2 531.1 1050.96V1046.44H534V1044.46H531.18V1041.58H528.78V1043.4C528.78 1044.26 528.52 1044.46 527.76 1044.46H526.66V1046.44H528.64V1051.22C528.64 1053.52 529.94 1055 532.42 1055H534.08Z" fill="#000D6E"/>
<g clip-path="url(#clip7_2491_1359)">
<line x1="60.639" y1="296.487" x2="75.639" y2="296.487" stroke="#E8178A"/>
<line x1="68.139" y1="303.991" x2="68.139" y2="295.991" stroke="#E8178A"/>
<line x1="60.639" y1="303.487" x2="75.639" y2="303.487" stroke="#E8178A"/>
</g>
<path d="M46.5295 298.299C46.5295 298.047 46.4852 297.823 46.3967 297.627C46.3082 297.429 46.1871 297.264 46.0334 297.131C45.8746 296.996 45.6884 296.894 45.4748 296.827C45.2639 296.756 45.0334 296.721 44.7834 296.721C44.5308 296.721 44.2977 296.756 44.0842 296.827C43.8733 296.894 43.6923 296.996 43.5412 297.131C43.3876 297.267 43.2665 297.432 43.1779 297.627C43.092 297.823 43.049 298.047 43.049 298.299C43.049 298.44 43.0686 298.574 43.1076 298.702C43.1467 298.829 43.2014 298.946 43.2717 299.053C43.3394 299.157 43.4214 299.252 43.5178 299.338C43.6167 299.424 43.7261 299.497 43.8459 299.557C43.7053 299.622 43.5777 299.702 43.4631 299.795C43.3511 299.886 43.2548 299.989 43.174 300.104C43.0933 300.224 43.0308 300.354 42.9865 300.495C42.9449 300.635 42.924 300.784 42.924 300.94C42.924 301.205 42.9709 301.44 43.0647 301.643C43.161 301.843 43.2938 302.011 43.4631 302.147C43.6298 302.285 43.8264 302.389 44.0529 302.459C44.2821 302.53 44.5295 302.565 44.7951 302.565C45.0555 302.565 45.2977 302.53 45.5217 302.459C45.7483 302.389 45.9462 302.285 46.1154 302.147C46.2821 302.011 46.4136 301.842 46.51 301.639C46.6063 301.436 46.6545 301.203 46.6545 300.94C46.6545 300.755 46.6246 300.583 46.5647 300.424C46.5048 300.265 46.4214 300.123 46.3147 299.998C46.2391 299.905 46.1506 299.823 46.049 299.752C45.9501 299.679 45.842 299.616 45.7248 299.561C45.8238 299.511 45.9136 299.454 45.9944 299.389C46.0751 299.324 46.1467 299.254 46.2092 299.178C46.3108 299.061 46.3889 298.928 46.4436 298.78C46.5009 298.631 46.5295 298.471 46.5295 298.299ZM45.7209 300.889C45.7209 301.035 45.6975 301.165 45.6506 301.28C45.6037 301.392 45.5412 301.488 45.4631 301.569C45.3798 301.647 45.2808 301.707 45.1662 301.748C45.0542 301.79 44.9305 301.811 44.7951 301.811C44.6519 301.811 44.523 301.791 44.4084 301.752C44.2964 301.711 44.2001 301.652 44.1194 301.577C44.036 301.498 43.9722 301.402 43.9279 301.287C43.8837 301.17 43.8615 301.039 43.8615 300.893C43.8615 300.75 43.8824 300.621 43.924 300.506C43.9683 300.389 44.0308 300.287 44.1115 300.202C44.1923 300.121 44.2886 300.058 44.4006 300.014C44.5152 299.97 44.6441 299.948 44.7873 299.948C44.9253 299.948 45.0516 299.97 45.1662 300.014C45.2808 300.058 45.3798 300.121 45.4631 300.202C45.5438 300.287 45.6063 300.389 45.6506 300.506C45.6975 300.621 45.7209 300.748 45.7209 300.889ZM45.5998 298.334C45.5998 298.462 45.5803 298.579 45.5412 298.686C45.5022 298.79 45.4475 298.879 45.3772 298.952C45.3069 299.027 45.2222 299.086 45.1233 299.127C45.0243 299.169 44.9136 299.19 44.7912 299.19C44.6688 299.19 44.5582 299.169 44.4592 299.127C44.3602 299.086 44.2756 299.027 44.2053 298.952C44.1324 298.879 44.0777 298.79 44.0412 298.686C44.0048 298.579 43.9865 298.462 43.9865 298.334C43.9865 298.204 44.0048 298.086 44.0412 297.979C44.0777 297.872 44.1298 297.782 44.1975 297.709C44.2678 297.636 44.3511 297.58 44.4475 297.541C44.5464 297.5 44.6571 297.479 44.7795 297.479C44.9045 297.479 45.0165 297.5 45.1154 297.541C45.2144 297.583 45.3003 297.64 45.3733 297.713C45.4436 297.791 45.4983 297.883 45.5373 297.987C45.579 298.091 45.5998 298.207 45.5998 298.334ZM47.7229 304.112H48.6565V302.104C48.706 302.159 48.7594 302.209 48.8167 302.256C48.874 302.303 48.9339 302.345 48.9964 302.381C49.1032 302.441 49.219 302.487 49.344 302.518C49.4716 302.549 49.611 302.565 49.762 302.565C50.0276 302.565 50.2633 302.51 50.469 302.401C50.6748 302.291 50.8479 302.14 50.9886 301.948C51.1292 301.758 51.2347 301.531 51.305 301.268C51.3779 301.005 51.4144 300.721 51.4144 300.416V300.334C51.4144 300.017 51.3779 299.726 51.305 299.463C51.2321 299.198 51.1266 298.97 50.9886 298.78C50.8479 298.59 50.6735 298.442 50.4651 298.338C50.2594 298.234 50.0211 298.182 49.7503 298.182C49.6123 298.182 49.4821 298.198 49.3597 298.229C49.2373 298.258 49.1253 298.299 49.0237 298.354C48.9456 298.396 48.8727 298.445 48.805 298.502C48.7373 298.56 48.6748 298.623 48.6175 298.694L48.5823 298.26H47.7229V304.112ZM50.4808 300.334V300.416C50.4808 300.604 50.4625 300.782 50.4261 300.952C50.3896 301.118 50.331 301.267 50.2503 301.397C50.1722 301.524 50.0706 301.626 49.9456 301.702C49.8232 301.774 49.6748 301.811 49.5003 301.811C49.3935 301.811 49.2959 301.799 49.2073 301.776C49.1188 301.75 49.0394 301.716 48.969 301.674C48.9013 301.63 48.8414 301.578 48.7894 301.518C48.7373 301.458 48.693 301.392 48.6565 301.319V299.44C48.6982 299.362 48.7464 299.291 48.8011 299.229C48.8584 299.166 48.9248 299.114 49.0003 299.073C49.0654 299.034 49.1396 299.004 49.2229 298.983C49.3063 298.962 49.3961 298.952 49.4925 298.952C49.667 298.952 49.8167 298.988 49.9417 299.061C50.0667 299.134 50.1696 299.233 50.2503 299.358C50.3284 299.483 50.3857 299.63 50.4222 299.799C50.4612 299.966 50.4808 300.144 50.4808 300.334ZM54.2953 299.682L53.2953 298.26H52.2679L53.7484 300.342L52.2172 302.487H53.2523L54.3031 301.01L55.3578 302.487H56.389L54.8578 300.342L56.3422 298.26H55.307L54.2953 299.682Z" fill="#E8178A"/>
<path opacity="0.2" d="M0.0385742 296H992.039V304H0.0385742V296Z" fill="#E8178A"/>
<g clip-path="url(#clip8_2491_1359)">
<line x1="60.6389" y1="96.5" x2="75.6389" y2="96.5" stroke="#E8178A"/>
<line x1="68.1389" y1="112.008" x2="68.1389" y2="96.0081" stroke="#E8178A"/>
<line x1="60.6389" y1="111.5" x2="75.6389" y2="111.5" stroke="#E8178A"/>
</g>
<path d="M28.9085 108.5V98.5469H28.806L24.7113 100.064V101.507L27.2611 100.57V108.5H28.9085ZM37.6347 98.499H37.4433C36.6686 98.499 35.9804 98.6198 35.3789 98.8613C34.7773 99.1029 34.2715 99.4492 33.8613 99.9004C33.3782 100.424 33.0319 101.051 32.8222 101.78C32.6172 102.505 32.5146 103.268 32.5146 104.07V104.747C32.5146 105.28 32.5921 105.788 32.747 106.271C32.902 106.75 33.1299 107.167 33.4306 107.522C33.7132 107.864 34.0595 108.135 34.4697 108.336C34.8799 108.536 35.347 108.637 35.8711 108.637C36.3815 108.637 36.8349 108.55 37.2314 108.377C37.6325 108.199 37.972 107.955 38.25 107.646C38.5234 107.34 38.7308 106.982 38.872 106.572C39.0179 106.158 39.0908 105.713 39.0908 105.239C39.0908 104.806 39.0338 104.389 38.9199 103.988C38.8105 103.587 38.6373 103.232 38.4004 102.922C38.1679 102.612 37.8717 102.366 37.5117 102.184C37.1562 102.001 36.7369 101.91 36.2539 101.91C36.026 101.91 35.8095 101.938 35.6045 101.992C35.3994 102.042 35.2125 102.111 35.0439 102.197C34.8662 102.288 34.7044 102.393 34.5586 102.512C34.4127 102.626 34.2851 102.744 34.1757 102.867C34.2122 102.443 34.3056 102.047 34.456 101.678C34.611 101.309 34.8274 100.992 35.1054 100.728C35.3789 100.463 35.7138 100.258 36.1103 100.112C36.5114 99.9619 36.983 99.8867 37.5254 99.8867H37.6347V98.499ZM35.8506 103.236C36.1149 103.236 36.3473 103.291 36.5478 103.4C36.7529 103.505 36.9238 103.651 37.0605 103.838C37.1972 104.025 37.2998 104.243 37.3681 104.494C37.441 104.74 37.4775 105.002 37.4775 105.28C37.4775 105.572 37.441 105.843 37.3681 106.094C37.2952 106.34 37.1881 106.554 37.0468 106.736C36.9056 106.914 36.7347 107.055 36.5341 107.16C36.3336 107.26 36.1058 107.311 35.8506 107.311C35.6181 107.311 35.3994 107.258 35.1943 107.153C34.9892 107.049 34.8092 106.896 34.6543 106.695C34.4993 106.495 34.3763 106.244 34.2851 105.943C34.1985 105.643 34.1552 105.294 34.1552 104.897V104.392C34.2282 104.223 34.3193 104.07 34.4287 103.934C34.5381 103.797 34.6611 103.676 34.7978 103.571C34.9482 103.466 35.1123 103.384 35.29 103.325C35.4677 103.266 35.6546 103.236 35.8506 103.236ZM41.0357 111.344H42.6695V107.83C42.7561 107.926 42.8496 108.015 42.9498 108.097C43.0501 108.179 43.1549 108.252 43.2643 108.315C43.4511 108.42 43.6539 108.5 43.8727 108.555C44.096 108.609 44.3398 108.637 44.6041 108.637C45.069 108.637 45.4814 108.541 45.8414 108.35C46.2014 108.158 46.5045 107.894 46.7506 107.557C46.9967 107.224 47.1813 106.827 47.3043 106.367C47.4319 105.907 47.4957 105.41 47.4957 104.877V104.733C47.4957 104.177 47.4319 103.669 47.3043 103.209C47.1767 102.744 46.9921 102.345 46.7506 102.013C46.5045 101.68 46.1992 101.423 45.8346 101.24C45.4746 101.058 45.0576 100.967 44.5836 100.967C44.3421 100.967 44.1142 100.994 43.9 101.049C43.6858 101.099 43.4899 101.172 43.3121 101.268C43.1754 101.34 43.0478 101.427 42.9293 101.527C42.8108 101.628 42.7014 101.739 42.6012 101.862L42.5397 101.104H41.0357V111.344ZM45.8619 104.733V104.877C45.8619 105.205 45.83 105.517 45.7662 105.813C45.7024 106.105 45.5999 106.365 45.4586 106.593C45.3219 106.816 45.1441 106.994 44.9254 107.126C44.7112 107.254 44.4514 107.317 44.1461 107.317C43.9593 107.317 43.7884 107.297 43.6334 107.256C43.4785 107.21 43.3395 107.151 43.2164 107.078C43.0979 107.001 42.9931 106.91 42.902 106.805C42.8108 106.7 42.7333 106.584 42.6695 106.456V103.168C42.7425 103.031 42.8268 102.908 42.9225 102.799C43.0227 102.689 43.1389 102.598 43.2711 102.525C43.385 102.457 43.5149 102.405 43.6607 102.368C43.8066 102.332 43.9638 102.313 44.1324 102.313C44.4378 102.313 44.6998 102.377 44.9186 102.505C45.1373 102.632 45.3173 102.806 45.4586 103.024C45.5953 103.243 45.6956 103.501 45.7594 103.797C45.8277 104.089 45.8619 104.401 45.8619 104.733ZM52.5374 103.592L50.7874 101.104H48.9895L51.5803 104.747L48.9006 108.5H50.7122L52.551 105.916L54.3967 108.5H56.2014L53.5217 104.747L56.1194 101.104H54.3079L52.5374 103.592Z" fill="#E8178A"/>
<rect opacity="0.2" x="0.0385742" y="96.0133" width="992" height="16" fill="#E8178A"/>
<g clip-path="url(#clip9_2491_1359)">
<line x1="60.6003" y1="824.478" x2="75.6003" y2="824.478" stroke="#E8178A"/>
<line x1="68.1003" y1="831.982" x2="68.1003" y2="823.982" stroke="#E8178A"/>
<line x1="60.6003" y1="831.478" x2="75.6003" y2="831.478" stroke="#E8178A"/>
</g>
<path d="M46.4908 826.29C46.4908 826.037 46.4465 825.813 46.358 825.618C46.2695 825.42 46.1484 825.255 45.9947 825.122C45.8359 824.987 45.6497 824.885 45.4361 824.817C45.2252 824.747 44.9947 824.712 44.7447 824.712C44.4921 824.712 44.259 824.747 44.0455 824.817C43.8346 824.885 43.6536 824.987 43.5025 825.122C43.3489 825.257 43.2278 825.423 43.1392 825.618C43.0533 825.813 43.0103 826.037 43.0103 826.29C43.0103 826.431 43.0299 826.565 43.0689 826.692C43.108 826.82 43.1627 826.937 43.233 827.044C43.3007 827.148 43.3827 827.243 43.4791 827.329C43.578 827.415 43.6874 827.488 43.8072 827.548C43.6666 827.613 43.539 827.692 43.4244 827.786C43.3124 827.877 43.2161 827.98 43.1353 828.095C43.0546 828.215 42.9921 828.345 42.9478 828.485C42.9062 828.626 42.8853 828.774 42.8853 828.931C42.8853 829.196 42.9322 829.431 43.026 829.634C43.1223 829.834 43.2551 830.002 43.4244 830.138C43.5911 830.276 43.7877 830.38 44.0142 830.45C44.2434 830.521 44.4908 830.556 44.7564 830.556C45.0169 830.556 45.259 830.521 45.483 830.45C45.7096 830.38 45.9075 830.276 46.0767 830.138C46.2434 830.002 46.3749 829.833 46.4713 829.63C46.5676 829.427 46.6158 829.194 46.6158 828.931C46.6158 828.746 46.5859 828.574 46.526 828.415C46.4661 828.256 46.3827 828.114 46.276 827.989C46.2004 827.896 46.1119 827.813 46.0103 827.743C45.9114 827.67 45.8033 827.606 45.6861 827.552C45.7851 827.502 45.8749 827.445 45.9557 827.38C46.0364 827.315 46.108 827.244 46.1705 827.169C46.2721 827.052 46.3502 826.919 46.4049 826.771C46.4622 826.622 46.4908 826.462 46.4908 826.29ZM45.6822 828.88C45.6822 829.026 45.6588 829.156 45.6119 829.271C45.565 829.382 45.5025 829.479 45.4244 829.56C45.3411 829.638 45.2421 829.698 45.1275 829.739C45.0155 829.781 44.8919 829.802 44.7564 829.802C44.6132 829.802 44.4843 829.782 44.3697 829.743C44.2577 829.701 44.1614 829.643 44.0807 829.567C43.9973 829.489 43.9335 829.393 43.8892 829.278C43.845 829.161 43.8228 829.03 43.8228 828.884C43.8228 828.741 43.8437 828.612 43.8853 828.497C43.9296 828.38 43.9921 828.278 44.0728 828.192C44.1536 828.112 44.2499 828.049 44.3619 828.005C44.4765 827.961 44.6054 827.938 44.7486 827.938C44.8866 827.938 45.0129 827.961 45.1275 828.005C45.2421 828.049 45.3411 828.112 45.4244 828.192C45.5051 828.278 45.5676 828.38 45.6119 828.497C45.6588 828.612 45.6822 828.739 45.6822 828.88ZM45.5611 826.325C45.5611 826.453 45.5416 826.57 45.5025 826.677C45.4635 826.781 45.4088 826.869 45.3385 826.942C45.2682 827.018 45.1835 827.076 45.0846 827.118C44.9856 827.16 44.8749 827.181 44.7525 827.181C44.6301 827.181 44.5195 827.16 44.4205 827.118C44.3215 827.076 44.2369 827.018 44.1666 826.942C44.0937 826.869 44.039 826.781 44.0025 826.677C43.9661 826.57 43.9478 826.453 43.9478 826.325C43.9478 826.195 43.9661 826.076 44.0025 825.97C44.039 825.863 44.0911 825.773 44.1588 825.7C44.2291 825.627 44.3124 825.571 44.4088 825.532C44.5077 825.491 44.6184 825.47 44.7408 825.47C44.8658 825.47 44.9778 825.491 45.0767 825.532C45.1757 825.574 45.2616 825.631 45.3346 825.704C45.4049 825.782 45.4596 825.873 45.4986 825.978C45.5403 826.082 45.5611 826.198 45.5611 826.325ZM47.6842 832.103H48.6178V830.095C48.6673 830.149 48.7207 830.2 48.778 830.247C48.8353 830.294 48.8952 830.336 48.9577 830.372C49.0645 830.432 49.1803 830.478 49.3053 830.509C49.4329 830.54 49.5723 830.556 49.7233 830.556C49.9889 830.556 50.2246 830.501 50.4303 830.392C50.6361 830.282 50.8092 830.131 50.9499 829.938C51.0905 829.748 51.196 829.522 51.2663 829.259C51.3392 828.996 51.3757 828.712 51.3757 828.407V828.325C51.3757 828.007 51.3392 827.717 51.2663 827.454C51.1934 827.188 51.0879 826.961 50.9499 826.771C50.8092 826.58 50.6348 826.433 50.4264 826.329C50.2207 826.225 49.9824 826.173 49.7116 826.173C49.5736 826.173 49.4434 826.188 49.321 826.22C49.1986 826.248 49.0866 826.29 48.985 826.345C48.9069 826.386 48.834 826.436 48.7663 826.493C48.6986 826.55 48.6361 826.614 48.5788 826.685L48.5436 826.251H47.6842V832.103ZM50.4421 828.325V828.407C50.4421 828.595 50.4238 828.773 50.3874 828.942C50.3509 829.109 50.2923 829.257 50.2116 829.388C50.1335 829.515 50.0319 829.617 49.9069 829.692C49.7845 829.765 49.6361 829.802 49.4616 829.802C49.3548 829.802 49.2572 829.79 49.1686 829.767C49.0801 829.741 49.0007 829.707 48.9303 829.665C48.8626 829.621 48.8027 829.569 48.7507 829.509C48.6986 829.449 48.6543 829.382 48.6178 829.31V827.431C48.6595 827.353 48.7077 827.282 48.7624 827.22C48.8197 827.157 48.8861 827.105 48.9616 827.063C49.0267 827.024 49.1009 826.994 49.1842 826.974C49.2676 826.953 49.3574 826.942 49.4538 826.942C49.6283 826.942 49.778 826.979 49.903 827.052C50.028 827.125 50.1309 827.224 50.2116 827.349C50.2897 827.474 50.347 827.621 50.3835 827.79C50.4225 827.957 50.4421 828.135 50.4421 828.325ZM54.2566 827.673L53.2566 826.251H52.2292L53.7097 828.333L52.1785 830.478H53.2136L54.2644 829.001L55.3191 830.478H56.3503L54.8191 828.333L56.3035 826.251H55.2683L54.2566 827.673Z" fill="#E8178A"/>
<g clip-path="url(#clip10_2491_1359)">
<line x1="60.6461" y1="992.477" x2="75.6461" y2="992.477" stroke="#E8178A"/>
<line x1="68.1461" y1="999.981" x2="68.1461" y2="991.981" stroke="#E8178A"/>
<line x1="60.6461" y1="999.477" x2="75.6461" y2="999.477" stroke="#E8178A"/>
</g>
<path d="M46.5366 994.289C46.5366 994.036 46.4923 993.812 46.4038 993.617C46.3152 993.419 46.1941 993.254 46.0405 993.121C45.8816 992.986 45.6954 992.884 45.4819 992.816C45.271 992.746 45.0405 992.711 44.7905 992.711C44.5379 992.711 44.3048 992.746 44.0913 992.816C43.8803 992.884 43.6993 992.986 43.5483 993.121C43.3947 993.257 43.2736 993.422 43.185 993.617C43.0991 993.812 43.0561 994.036 43.0561 994.289C43.0561 994.43 43.0756 994.564 43.1147 994.691C43.1538 994.819 43.2085 994.936 43.2788 995.043C43.3465 995.147 43.4285 995.242 43.5249 995.328C43.6238 995.414 43.7332 995.487 43.853 995.547C43.7124 995.612 43.5848 995.691 43.4702 995.785C43.3582 995.876 43.2618 995.979 43.1811 996.094C43.1004 996.214 43.0379 996.344 42.9936 996.484C42.952 996.625 42.9311 996.773 42.9311 996.93C42.9311 997.195 42.978 997.43 43.0717 997.633C43.1681 997.833 43.3009 998.001 43.4702 998.137C43.6368 998.275 43.8335 998.379 44.06 998.449C44.2892 998.52 44.5366 998.555 44.8022 998.555C45.0626 998.555 45.3048 998.52 45.5288 998.449C45.7553 998.379 45.9533 998.275 46.1225 998.137C46.2892 998.001 46.4207 997.832 46.5171 997.629C46.6134 997.426 46.6616 997.193 46.6616 996.93C46.6616 996.745 46.6316 996.573 46.5717 996.414C46.5118 996.255 46.4285 996.113 46.3217 995.988C46.2462 995.895 46.1577 995.812 46.0561 995.742C45.9572 995.669 45.8491 995.605 45.7319 995.551C45.8309 995.501 45.9207 995.444 46.0014 995.379C46.0822 995.314 46.1538 995.243 46.2163 995.168C46.3178 995.051 46.396 994.918 46.4506 994.77C46.5079 994.621 46.5366 994.461 46.5366 994.289ZM45.728 996.879C45.728 997.025 45.7046 997.155 45.6577 997.27C45.6108 997.382 45.5483 997.478 45.4702 997.559C45.3868 997.637 45.2879 997.697 45.1733 997.738C45.0613 997.78 44.9376 997.801 44.8022 997.801C44.659 997.801 44.5301 997.781 44.4155 997.742C44.3035 997.701 44.2072 997.642 44.1264 997.566C44.0431 997.488 43.9793 997.392 43.935 997.277C43.8908 997.16 43.8686 997.029 43.8686 996.883C43.8686 996.74 43.8895 996.611 43.9311 996.496C43.9754 996.379 44.0379 996.277 44.1186 996.191C44.1993 996.111 44.2957 996.048 44.4077 996.004C44.5223 995.96 44.6512 995.938 44.7944 995.938C44.9324 995.938 45.0587 995.96 45.1733 996.004C45.2879 996.048 45.3868 996.111 45.4702 996.191C45.5509 996.277 45.6134 996.379 45.6577 996.496C45.7046 996.611 45.728 996.738 45.728 996.879ZM45.6069 994.324C45.6069 994.452 45.5874 994.569 45.5483 994.676C45.5092 994.78 45.4546 994.868 45.3842 994.941C45.3139 995.017 45.2293 995.076 45.1303 995.117C45.0314 995.159 44.9207 995.18 44.7983 995.18C44.6759 995.18 44.5652 995.159 44.4663 995.117C44.3673 995.076 44.2827 995.017 44.2124 994.941C44.1395 994.868 44.0848 994.78 44.0483 994.676C44.0118 994.569 43.9936 994.452 43.9936 994.324C43.9936 994.194 44.0118 994.076 44.0483 993.969C44.0848 993.862 44.1368 993.772 44.2046 993.699C44.2749 993.626 44.3582 993.57 44.4546 993.531C44.5535 993.49 44.6642 993.469 44.7866 993.469C44.9116 993.469 45.0236 993.49 45.1225 993.531C45.2215 993.573 45.3074 993.63 45.3803 993.703C45.4506 993.781 45.5053 993.872 45.5444 993.977C45.5861 994.081 45.6069 994.197 45.6069 994.324ZM47.73 1000.1H48.6636V998.094C48.7131 998.148 48.7665 998.199 48.8238 998.246C48.8811 998.293 48.941 998.335 49.0035 998.371C49.1102 998.431 49.2261 998.477 49.3511 998.508C49.4787 998.539 49.618 998.555 49.7691 998.555C50.0347 998.555 50.2704 998.5 50.4761 998.391C50.6818 998.281 50.855 998.13 50.9956 997.938C51.1363 997.747 51.2417 997.521 51.3121 997.258C51.385 996.995 51.4214 996.711 51.4214 996.406V996.324C51.4214 996.007 51.385 995.716 51.3121 995.453C51.2391 995.188 51.1337 994.96 50.9956 994.77C50.855 994.579 50.6805 994.432 50.4722 994.328C50.2665 994.224 50.0282 994.172 49.7574 994.172C49.6193 994.172 49.4891 994.188 49.3667 994.219C49.2443 994.247 49.1324 994.289 49.0308 994.344C48.9527 994.385 48.8798 994.435 48.8121 994.492C48.7443 994.549 48.6818 994.613 48.6246 994.684L48.5894 994.25H47.73V1000.1ZM50.4878 996.324V996.406C50.4878 996.594 50.4696 996.772 50.4331 996.941C50.3967 997.108 50.3381 997.257 50.2574 997.387C50.1792 997.514 50.0777 997.616 49.9527 997.691C49.8303 997.764 49.6818 997.801 49.5074 997.801C49.4006 997.801 49.3029 997.789 49.2144 997.766C49.1259 997.74 49.0464 997.706 48.9761 997.664C48.9084 997.62 48.8485 997.568 48.7964 997.508C48.7443 997.448 48.7001 997.382 48.6636 997.309V995.43C48.7053 995.352 48.7535 995.281 48.8081 995.219C48.8654 995.156 48.9318 995.104 49.0074 995.062C49.0725 995.023 49.1467 994.993 49.23 994.973C49.3134 994.952 49.4032 994.941 49.4996 994.941C49.674 994.941 49.8238 994.978 49.9488 995.051C50.0738 995.124 50.1766 995.223 50.2574 995.348C50.3355 995.473 50.3928 995.62 50.4292 995.789C50.4683 995.956 50.4878 996.134 50.4878 996.324ZM54.3024 995.672L53.3024 994.25H52.275L53.7555 996.332L52.2242 998.477H53.2594L54.3102 997L55.3649 998.477H56.3961L54.8649 996.332L56.3492 994.25H55.3141L54.3024 995.672Z" fill="#E8178A"/>
<path opacity="0.2" d="M0 823.991H992V831.991H0V823.991Z" fill="#E8178A"/>
<path opacity="0.2" d="M0.0457764 991.99H992.046V999.99H0.0457764V991.99Z" fill="#E8178A"/>
<g clip-path="url(#clip11_2491_1359)">
<line x1="60.5474" y1="656.529" x2="75.5474" y2="656.529" stroke="#E8178A"/>
<line x1="68.0474" y1="664.033" x2="68.0474" y2="656.033" stroke="#E8178A"/>
<line x1="60.5474" y1="663.529" x2="75.5474" y2="663.529" stroke="#E8178A"/>
</g>
<path d="M46.4379 658.341C46.4379 658.089 46.3936 657.865 46.3051 657.67C46.2165 657.472 46.0954 657.306 45.9418 657.173C45.7829 657.038 45.5967 656.936 45.3832 656.869C45.1723 656.798 44.9418 656.763 44.6918 656.763C44.4392 656.763 44.2061 656.798 43.9926 656.869C43.7816 656.936 43.6007 657.038 43.4496 657.173C43.296 657.309 43.1749 657.474 43.0863 657.67C43.0004 657.865 42.9574 658.089 42.9574 658.341C42.9574 658.482 42.977 658.616 43.016 658.744C43.0551 658.871 43.1098 658.989 43.1801 659.095C43.2478 659.2 43.3298 659.295 43.4262 659.38C43.5251 659.466 43.6345 659.539 43.7543 659.599C43.6137 659.664 43.4861 659.744 43.3715 659.838C43.2595 659.929 43.1632 660.032 43.0824 660.146C43.0017 660.266 42.9392 660.396 42.8949 660.537C42.8533 660.677 42.8324 660.826 42.8324 660.982C42.8324 661.248 42.8793 661.482 42.973 661.685C43.0694 661.886 43.2022 662.054 43.3715 662.189C43.5382 662.327 43.7348 662.431 43.9613 662.502C44.1905 662.572 44.4379 662.607 44.7035 662.607C44.9639 662.607 45.2061 662.572 45.4301 662.502C45.6566 662.431 45.8546 662.327 46.0238 662.189C46.1905 662.054 46.322 661.884 46.4184 661.681C46.5147 661.478 46.5629 661.245 46.5629 660.982C46.5629 660.797 46.5329 660.625 46.473 660.466C46.4132 660.308 46.3298 660.166 46.223 660.041C46.1475 659.947 46.059 659.865 45.9574 659.795C45.8585 659.722 45.7504 659.658 45.6332 659.603C45.7322 659.554 45.822 659.496 45.9027 659.431C45.9835 659.366 46.0551 659.296 46.1176 659.22C46.2191 659.103 46.2973 658.97 46.352 658.822C46.4092 658.673 46.4379 658.513 46.4379 658.341ZM45.6293 660.931C45.6293 661.077 45.6059 661.207 45.559 661.322C45.5121 661.434 45.4496 661.53 45.3715 661.611C45.2882 661.689 45.1892 661.749 45.0746 661.791C44.9626 661.832 44.8389 661.853 44.7035 661.853C44.5603 661.853 44.4314 661.834 44.3168 661.795C44.2048 661.753 44.1085 661.694 44.0277 661.619C43.9444 661.541 43.8806 661.444 43.8363 661.33C43.7921 661.213 43.7699 661.081 43.7699 660.935C43.7699 660.792 43.7908 660.663 43.8324 660.548C43.8767 660.431 43.9392 660.33 44.0199 660.244C44.1007 660.163 44.197 660.101 44.309 660.056C44.4236 660.012 44.5525 659.99 44.6957 659.99C44.8337 659.99 44.96 660.012 45.0746 660.056C45.1892 660.101 45.2882 660.163 45.3715 660.244C45.4522 660.33 45.5147 660.431 45.559 660.548C45.6059 660.663 45.6293 660.791 45.6293 660.931ZM45.5082 658.377C45.5082 658.504 45.4887 658.621 45.4496 658.728C45.4105 658.832 45.3559 658.921 45.2855 658.994C45.2152 659.069 45.1306 659.128 45.0316 659.17C44.9327 659.211 44.822 659.232 44.6996 659.232C44.5772 659.232 44.4665 659.211 44.3676 659.17C44.2686 659.128 44.184 659.069 44.1137 658.994C44.0408 658.921 43.9861 658.832 43.9496 658.728C43.9132 658.621 43.8949 658.504 43.8949 658.377C43.8949 658.246 43.9132 658.128 43.9496 658.021C43.9861 657.914 44.0382 657.825 44.1059 657.752C44.1762 657.679 44.2595 657.623 44.3559 657.584C44.4548 657.542 44.5655 657.521 44.6879 657.521C44.8129 657.521 44.9249 657.542 45.0238 657.584C45.1228 657.625 45.2087 657.683 45.2816 657.755C45.352 657.834 45.4066 657.925 45.4457 658.029C45.4874 658.133 45.5082 658.249 45.5082 658.377ZM47.6313 664.154H48.5649V662.146C48.6144 662.201 48.6678 662.252 48.7251 662.298C48.7824 662.345 48.8423 662.387 48.9048 662.423C49.0115 662.483 49.1274 662.529 49.2524 662.56C49.38 662.591 49.5194 662.607 49.6704 662.607C49.936 662.607 50.1717 662.552 50.3774 662.443C50.5832 662.334 50.7563 662.183 50.897 661.99C51.0376 661.8 51.143 661.573 51.2134 661.31C51.2863 661.047 51.3227 660.763 51.3227 660.459V660.377C51.3227 660.059 51.2863 659.769 51.2134 659.505C51.1404 659.24 51.035 659.012 50.897 658.822C50.7563 658.632 50.5819 658.485 50.3735 658.38C50.1678 658.276 49.9295 658.224 49.6587 658.224C49.5207 658.224 49.3904 658.24 49.268 658.271C49.1457 658.3 49.0337 658.341 48.9321 658.396C48.854 658.438 48.7811 658.487 48.7134 658.545C48.6457 658.602 48.5832 658.666 48.5259 658.736L48.4907 658.302H47.6313V664.154ZM50.3891 660.377V660.459C50.3891 660.646 50.3709 660.825 50.3345 660.994C50.298 661.16 50.2394 661.309 50.1587 661.439C50.0805 661.567 49.979 661.668 49.854 661.744C49.7316 661.817 49.5832 661.853 49.4087 661.853C49.3019 661.853 49.2042 661.841 49.1157 661.818C49.0272 661.792 48.9477 661.758 48.8774 661.716C48.8097 661.672 48.7498 661.62 48.6977 661.56C48.6457 661.5 48.6014 661.434 48.5649 661.361V659.482C48.6066 659.404 48.6548 659.334 48.7095 659.271C48.7667 659.209 48.8332 659.157 48.9087 659.115C48.9738 659.076 49.048 659.046 49.1313 659.025C49.2147 659.004 49.3045 658.994 49.4009 658.994C49.5753 658.994 49.7251 659.03 49.8501 659.103C49.9751 659.176 50.0779 659.275 50.1587 659.4C50.2368 659.525 50.2941 659.672 50.3305 659.841C50.3696 660.008 50.3891 660.186 50.3891 660.377ZM54.2037 659.724L53.2037 658.302H52.1763L53.6568 660.384L52.1255 662.529H53.1607L54.2115 661.052L55.2662 662.529H56.2974L54.7662 660.384L56.2505 658.302H55.2154L54.2037 659.724Z" fill="#E8178A"/>
<g clip-path="url(#clip12_2491_1359)">
<line x1="60.708" y1="480.561" x2="75.708" y2="480.561" stroke="#E8178A"/>
<line x1="68.208" y1="488.065" x2="68.208" y2="480.065" stroke="#E8178A"/>
<line x1="60.708" y1="487.561" x2="75.708" y2="487.561" stroke="#E8178A"/>
</g>
<path d="M46.5985 482.374C46.5985 482.121 46.5542 481.897 46.4657 481.702C46.3771 481.504 46.256 481.339 46.1024 481.206C45.9435 481.07 45.7573 480.969 45.5438 480.901C45.3329 480.831 45.1024 480.796 44.8524 480.796C44.5998 480.796 44.3667 480.831 44.1532 480.901C43.9422 480.969 43.7612 481.07 43.6102 481.206C43.4565 481.341 43.3355 481.507 43.2469 481.702C43.161 481.897 43.118 482.121 43.118 482.374C43.118 482.514 43.1375 482.649 43.1766 482.776C43.2157 482.904 43.2704 483.021 43.3407 483.128C43.4084 483.232 43.4904 483.327 43.5868 483.413C43.6857 483.499 43.7951 483.572 43.9149 483.632C43.7743 483.697 43.6467 483.776 43.5321 483.87C43.4201 483.961 43.3237 484.064 43.243 484.179C43.1623 484.298 43.0998 484.429 43.0555 484.569C43.0138 484.71 42.993 484.858 42.993 485.014C42.993 485.28 43.0399 485.514 43.1336 485.718C43.23 485.918 43.3628 486.086 43.5321 486.221C43.6987 486.36 43.8954 486.464 44.1219 486.534C44.3511 486.604 44.5985 486.639 44.8641 486.639C45.1245 486.639 45.3667 486.604 45.5907 486.534C45.8172 486.464 46.0151 486.36 46.1844 486.221C46.3511 486.086 46.4826 485.917 46.5789 485.714C46.6753 485.511 46.7235 485.277 46.7235 485.014C46.7235 484.83 46.6935 484.658 46.6336 484.499C46.5737 484.34 46.4904 484.198 46.3836 484.073C46.3081 483.979 46.2196 483.897 46.118 483.827C46.019 483.754 45.911 483.69 45.7938 483.636C45.8927 483.586 45.9826 483.529 46.0633 483.464C46.144 483.399 46.2157 483.328 46.2782 483.253C46.3797 483.136 46.4579 483.003 46.5125 482.854C46.5698 482.706 46.5985 482.546 46.5985 482.374ZM45.7899 484.964C45.7899 485.11 45.7664 485.24 45.7196 485.354C45.6727 485.466 45.6102 485.563 45.5321 485.643C45.4487 485.721 45.3498 485.781 45.2352 485.823C45.1232 485.865 44.9995 485.886 44.8641 485.886C44.7209 485.886 44.592 485.866 44.4774 485.827C44.3654 485.785 44.269 485.727 44.1883 485.651C44.105 485.573 44.0412 485.477 43.9969 485.362C43.9526 485.245 43.9305 485.113 43.9305 484.968C43.9305 484.824 43.9513 484.695 43.993 484.581C44.0373 484.464 44.0998 484.362 44.1805 484.276C44.2612 484.195 44.3576 484.133 44.4696 484.089C44.5842 484.044 44.7131 484.022 44.8563 484.022C44.9943 484.022 45.1206 484.044 45.2352 484.089C45.3498 484.133 45.4487 484.195 45.5321 484.276C45.6128 484.362 45.6753 484.464 45.7196 484.581C45.7664 484.695 45.7899 484.823 45.7899 484.964ZM45.6688 482.409C45.6688 482.537 45.6493 482.654 45.6102 482.761C45.5711 482.865 45.5164 482.953 45.4461 483.026C45.3758 483.102 45.2912 483.16 45.1922 483.202C45.0933 483.244 44.9826 483.264 44.8602 483.264C44.7378 483.264 44.6271 483.244 44.5282 483.202C44.4292 483.16 44.3446 483.102 44.2743 483.026C44.2013 482.953 44.1467 482.865 44.1102 482.761C44.0737 482.654 44.0555 482.537 44.0555 482.409C44.0555 482.279 44.0737 482.16 44.1102 482.054C44.1467 481.947 44.1987 481.857 44.2664 481.784C44.3368 481.711 44.4201 481.655 44.5164 481.616C44.6154 481.574 44.7261 481.554 44.8485 481.554C44.9735 481.554 45.0855 481.574 45.1844 481.616C45.2834 481.658 45.3693 481.715 45.4422 481.788C45.5125 481.866 45.5672 481.957 45.6063 482.061C45.648 482.166 45.6688 482.281 45.6688 482.409ZM47.7919 488.186H48.7255V486.179C48.775 486.233 48.8284 486.284 48.8857 486.331C48.943 486.378 49.0029 486.419 49.0654 486.456C49.1721 486.516 49.288 486.561 49.413 486.593C49.5406 486.624 49.6799 486.639 49.831 486.639C50.0966 486.639 50.3323 486.585 50.538 486.475C50.7437 486.366 50.9169 486.215 51.0575 486.022C51.1982 485.832 51.3036 485.606 51.3739 485.343C51.4469 485.08 51.4833 484.796 51.4833 484.491V484.409C51.4833 484.091 51.4469 483.801 51.3739 483.538C51.301 483.272 51.1956 483.044 51.0575 482.854C50.9169 482.664 50.7424 482.517 50.5341 482.413C50.3284 482.309 50.0901 482.257 49.8193 482.257C49.6812 482.257 49.551 482.272 49.4286 482.304C49.3062 482.332 49.1943 482.374 49.0927 482.429C49.0146 482.47 48.9417 482.52 48.8739 482.577C48.8062 482.634 48.7437 482.698 48.6864 482.768L48.6513 482.335H47.7919V488.186ZM50.5497 484.409V484.491C50.5497 484.679 50.5315 484.857 50.495 485.026C50.4586 485.193 50.4 485.341 50.3193 485.471C50.2411 485.599 50.1396 485.701 50.0146 485.776C49.8922 485.849 49.7437 485.886 49.5693 485.886C49.4625 485.886 49.3648 485.874 49.2763 485.85C49.1877 485.824 49.1083 485.791 49.038 485.749C48.9703 485.705 48.9104 485.652 48.8583 485.593C48.8062 485.533 48.762 485.466 48.7255 485.393V483.514C48.7672 483.436 48.8154 483.366 48.87 483.304C48.9273 483.241 48.9937 483.189 49.0693 483.147C49.1344 483.108 49.2086 483.078 49.2919 483.057C49.3752 483.037 49.4651 483.026 49.5614 483.026C49.7359 483.026 49.8857 483.063 50.0107 483.136C50.1357 483.208 50.2385 483.307 50.3193 483.432C50.3974 483.557 50.4547 483.705 50.4911 483.874C50.5302 484.041 50.5497 484.219 50.5497 484.409ZM54.3643 483.757L53.3643 482.335H52.3369L53.8174 484.417L52.2861 486.561H53.3213L54.3721 485.085L55.4268 486.561H56.458L54.9268 484.417L56.4111 482.335H55.376L54.3643 483.757Z" fill="#E8178A"/>
<path opacity="0.2" d="M0.0547485 480.088H992.055V488.088H0.0547485V480.088Z" fill="#E8178A"/>
<path opacity="0.2" d="M0 656.029H992V664.029H0V656.029Z" fill="#E8178A"/>
</g>
<defs>
<clipPath id="clip0_2491_1359">
<rect width="992" height="1096" fill="white"/>
</clipPath>
<clipPath id="clip1_2491_1359">
<rect width="643" height="96" fill="white" transform="translate(0.0385742)"/>
</clipPath>
<clipPath id="clip2_2491_1359">
<rect width="513" height="56" fill="white" transform="translate(0.0385742 240)"/>
</clipPath>
<clipPath id="clip3_2491_1359">
<rect width="428" height="48" fill="white" transform="translate(0.0385742 432)"/>
</clipPath>
<clipPath id="clip4_2491_1359">
<rect width="336" height="40" fill="white" transform="translate(0.0385742 616)"/>
</clipPath>
<clipPath id="clip5_2491_1359">
<rect width="280" height="32" fill="white" transform="translate(0.0385742 792)"/>
</clipPath>
<clipPath id="clip6_2491_1359">
<rect width="222" height="32" fill="white" transform="translate(0.0385742 960)"/>
</clipPath>
<clipPath id="clip7_2491_1359">
<rect width="15" height="8" fill="white" transform="translate(60.639 295.987)"/>
</clipPath>
<clipPath id="clip8_2491_1359">
<rect width="15" height="16" fill="white" transform="translate(60.6389 96)"/>
</clipPath>
<clipPath id="clip9_2491_1359">
<rect width="15" height="8" fill="white" transform="translate(60.6003 823.978)"/>
</clipPath>
<clipPath id="clip10_2491_1359">
<rect width="15" height="8" fill="white" transform="translate(60.6461 991.977)"/>
</clipPath>
<clipPath id="clip11_2491_1359">
<rect width="15" height="8" fill="white" transform="translate(60.5474 656.029)"/>
</clipPath>
<clipPath id="clip12_2491_1359">
<rect width="15" height="8" fill="white" transform="translate(60.708 480.061)"/>
</clipPath>
</defs>
</svg>
