<svg width="80" height="80" viewBox="0 0 80 80" fill="none" xmlns="http://www.w3.org/2000/svg">
<path d="M10.75 15H69.25C69.8467 15 70.419 15.2371 70.841 15.659C71.2629 16.081 71.5 16.6533 71.5 17.25V55.5H8.5V17.25C8.5 16.6533 8.73705 16.081 9.15901 15.659C9.58097 15.2371 10.1533 15 10.75 15Z" fill="#6C2273"/>
<path d="M69.25 17.25H10.75V53.25H69.25V17.25Z" fill="#B8B2FF"/>
<path d="M4 57.75H76V60C76 61.1935 75.5259 62.3381 74.682 63.182C73.8381 64.0259 72.6935 64.5 71.5 64.5H8.5C7.30653 64.5 6.16193 64.0259 5.31802 63.182C4.47411 62.3381 4 61.1935 4 60V57.75Z" fill="#6C2273"/>
<path d="M46.75 57.75H33.25V62.25H46.75V57.75Z" fill="#000D6E"/>
</svg>
