<svg width="80" height="80" viewBox="0 0 80 80" fill="none" xmlns="http://www.w3.org/2000/svg">
<path d="M62.8745 4H52.5887V9.94L62.8745 19.4029V4Z" fill="#6C2273"/>
<path d="M38.1888 9.99142L14.0173 32.2857V76H65.4459V32.2857L41.2488 9.96571C40.8255 9.59155 40.2788 9.38718 39.7138 9.39193C39.1489 9.39667 38.6057 9.61021 38.1888 9.99142Z" fill="#B8B2FF"/>
<path d="M71.4629 30.82L44.72 6.16004C43.3533 4.92229 41.5753 4.23682 39.7314 4.23682C37.8876 4.23682 36.1095 4.92229 34.7429 6.16004L8 30.82L8.87429 31.7715L9.74857 32.7229L36.4657 8.08862C37.3651 7.28796 38.5273 6.8456 39.7314 6.8456C40.9356 6.8456 42.0978 7.28796 42.9971 8.08862L69.7143 32.7486L70.5886 31.7715L71.4629 30.82Z" fill="#000D6E"/>
</svg>
