<svg width="80" height="80" viewBox="0 0 80 80" fill="none" xmlns="http://www.w3.org/2000/svg">
<path d="M16.7058 65.8235H63.294V23.4706H16.7058V65.8235Z" fill="#FAE052"/>
<path d="M72.633 23.4706H65.4119V65.8235H72.633C73.526 65.8235 74.3825 65.4688 75.0139 64.8373C75.6454 64.2059 76.0001 63.3495 76.0001 62.4565V26.8376C76.0001 25.9446 75.6454 25.0882 75.0139 24.4568C74.3825 23.8253 73.526 23.4706 72.633 23.4706Z" fill="#FA9319"/>
<path d="M4 26.8376V62.4565C4 63.3495 4.35474 64.2059 4.98619 64.8373C5.61763 65.4688 6.47406 65.8235 7.36706 65.8235H14.5882V23.4706H7.36706C6.47406 23.4706 5.61763 23.8253 4.98619 24.4568C4.35474 25.0882 4 25.9446 4 26.8376Z" fill="#FA9319"/>
<path d="M33.6469 18.1765C33.6469 17.8957 33.7585 17.6263 33.9571 17.4278C34.1556 17.2292 34.425 17.1176 34.7058 17.1176H45.294C45.5748 17.1176 45.8441 17.2292 46.0427 17.4278C46.2413 17.6263 46.3528 17.8957 46.3528 18.1765V21.3529H48.4705V18.1765C48.4705 17.334 48.1358 16.5261 47.5401 15.9304C46.9444 15.3347 46.1365 15 45.294 15H34.7058C33.8633 15 33.0554 15.3347 32.4597 15.9304C31.864 16.5261 31.5293 17.334 31.5293 18.1765V21.3529H33.6469V18.1765Z" fill="#FAE052"/>
<path d="M42.1176 27.7058H37.8823V31.9411H42.1176V27.7058Z" fill="#000D6E"/>
</svg>
