<svg width="80" height="80" viewBox="0 0 80 80" fill="none" xmlns="http://www.w3.org/2000/svg">
<path d="M62.7 67.9616C66.6762 64.7368 69.9195 60.6988 72.2131 56.1176C74.5067 51.5364 75.7978 46.5175 76.0001 41.3964H42.8191L62.7 67.9616Z" fill="#FAE052"/>
<path d="M38.6714 4C33.0865 4.19853 27.6248 5.69885 22.7199 8.3818C17.815 11.0647 13.6021 14.8564 10.4157 19.4557C7.22928 24.055 5.1572 29.3353 4.36396 34.8771C3.57073 40.419 4.0782 46.0698 5.84608 51.3808C7.61396 56.6918 10.5935 61.5167 14.5482 65.4724C18.5029 69.4281 23.3237 72.4055 28.6278 74.1683C33.932 75.9311 39.5733 76.4307 45.1039 75.6273C50.6345 74.824 55.9019 72.74 60.4879 69.5406L38.6714 40.4822V4Z" fill="#FA9319"/>
<path d="M76.0001 38.6263C75.6579 29.5522 71.9066 20.9427 65.4973 14.5218C59.0881 8.10093 50.4941 4.34278 41.4365 4V38.6263H76.0001Z" fill="#000D6E"/>
</svg>
