<svg width="80" height="80" viewBox="0 0 80 80" fill="none" xmlns="http://www.w3.org/2000/svg">
<path d="M34.5714 29.7143C29.1155 29.7143 23.8831 27.5469 20.0252 23.689C16.1673 19.8311 14 14.5987 14 9.14282C19.4559 9.14282 24.6883 11.3102 28.5462 15.1681C32.4041 19.0259 34.5714 24.2584 34.5714 29.7143Z" fill="#94E3D4"/>
<path d="M50.0001 73.4286H24.2858V76H50.0001V73.4286Z" fill="#000D6E"/>
<path d="M65.4286 4C57.5858 4 50.0642 7.11555 44.5185 12.6613C38.9727 18.207 35.8572 25.7286 35.8572 33.5714V70.8571H38.4286V33.4429C45.7954 32.7998 52.654 29.42 57.6519 23.9699C62.6499 18.5198 65.4245 11.3948 65.4286 4Z" fill="#1B5951"/>
</svg>
