<svg width="80" height="80" viewBox="0 0 80 80" fill="none" xmlns="http://www.w3.org/2000/svg">
<path d="M40 24C45.5228 24 50 19.5228 50 14C50 8.47715 45.5228 4 40 4C34.4772 4 30 8.47715 30 14C30 19.5228 34.4772 24 40 24Z" fill="#B8B2FF"/>
<path d="M28.4 11H24V13H19C18.7348 13 18.4804 13.1054 18.2929 13.2929C18.1054 13.4804 18 13.7348 18 14C18 14.2652 18.1054 14.5196 18.2929 14.7071C18.4804 14.8946 18.7348 15 19 15H24V17H28.4C27.8671 15.0355 27.8671 12.9645 28.4 11Z" fill="#6C2273"/>
<path d="M61.0001 13H56.0001V11H51.6001C52.1329 12.9645 52.1329 15.0355 51.6001 17H56.0001V15H61.0001C61.2653 15 61.5197 14.8946 61.7072 14.7071C61.8947 14.5196 62.0001 14.2652 62.0001 14C62.0001 13.7348 61.8947 13.4804 61.7072 13.2929C61.5197 13.1054 61.2653 13 61.0001 13Z" fill="#6C2273"/>
<path d="M40 17.5C41.933 17.5 43.5 15.933 43.5 14C43.5 12.067 41.933 10.5 40 10.5C38.067 10.5 36.5 12.067 36.5 14C36.5 15.933 38.067 17.5 40 17.5Z" fill="#000D6E"/>
<path d="M32 60C32.0091 58.0579 32.7243 56.1854 34.0123 54.7318C35.3003 53.2782 37.0731 52.3427 39 52.1V26C35.949 25.7366 33.1182 24.3032 31.1 22H28.34C27.1434 22.028 25.9657 22.3056 24.8825 22.8148C23.7992 23.3241 22.8342 24.0539 22.0492 24.9575C21.2642 25.8611 20.6764 26.9187 20.3236 28.0625C19.9707 29.2063 19.8605 30.4112 20 31.6L22.98 64C23.0447 65.0637 23.5057 66.0646 24.2721 66.8051C25.0386 67.5456 26.0547 67.9719 27.12 68H32V60Z" fill="#B8B2FF"/>
<path d="M51.66 22H48.9C46.8818 24.3032 44.051 25.7366 41 26V52.1C42.9269 52.3427 44.6997 53.2782 45.9877 54.7318C47.2757 56.1854 47.991 58.0579 48 60V68H52.88C53.9453 67.9719 54.9615 67.5456 55.7279 66.8051C56.4943 66.0646 56.9553 65.0637 57.02 64L60 31.6C60.1395 30.4112 60.0293 29.2063 59.6765 28.0625C59.3236 26.9187 58.7359 25.8611 57.9508 24.9575C57.1658 24.0539 56.2008 23.3241 55.1176 22.8148C54.0343 22.3056 52.8567 22.028 51.66 22Z" fill="#6C2273"/>
<path d="M40 54C38.4087 54 36.8826 54.6321 35.7574 55.7574C34.6321 56.8826 34 58.4087 34 60V66H46V60C46 58.4087 45.3679 56.8826 44.2426 55.7574C43.1174 54.6321 41.5913 54 40 54Z" fill="#B8B2FF"/>
<path d="M40 66H36V72C36 73.0609 36.4214 74.0783 37.1716 74.8284C37.9217 75.5786 38.9391 76 40 76C41.0609 76 42.0783 75.5786 42.8284 74.8284C43.5786 74.0783 44 73.0609 44 72V66H40Z" fill="#000D6E"/>
</svg>
