<svg width="36" height="47" viewBox="0 0 36 47" fill="none" xmlns="http://www.w3.org/2000/svg">
    <path d="M36 18C36 25.7811 24.9723 39.7609 20.1801 45.4686C19.0323 46.8356 16.9677 46.8356 15.8199 45.4686C11.0277 39.7609 0 25.7811 0 18C0 8.05887 8.05887 0 18 0C27.9411 0 36 8.05887 36 18Z" fill="#000D6E"/>
    <path d="M17.1955 15.1224C19.0965 15.1224 20.6376 13.584 20.6376 11.6862C20.6376 9.78844 19.0965 8.25 17.1955 8.25C15.2945 8.25 13.7534 9.78844 13.7534 11.6862C13.7534 13.584 15.2945 15.1224 17.1955 15.1224Z" fill="#ffffff"/>
    <path d="M19.5861 24.9187C19.2074 24.539 18.9452 24.059 18.8305 23.5355C18.7159 23.012 18.7535 22.4666 18.939 21.9637C19.1244 21.4608 19.45 21.0213 19.8773 20.6969C20.3047 20.3726 20.816 20.1769 21.351 20.133C21.4091 20.1275 21.4646 20.1058 21.511 20.0705C21.5575 20.0352 21.5931 19.9876 21.6139 19.9331C21.6437 19.8841 21.6595 19.8279 21.6595 19.7706C21.6595 19.7133 21.6437 19.6571 21.6139 19.6082C20.6552 18.5044 19.3137 17.8036 17.8588 17.6464C17.0263 17.5531 16.1834 17.6365 15.3854 17.8911C14.5874 18.1457 13.8523 18.5658 13.2284 19.1238C12.6044 19.6819 12.1055 20.3653 11.7646 21.1292C11.4237 21.8931 11.2483 22.7204 11.25 23.5567V24.4939C11.25 24.8253 11.3819 25.1431 11.6166 25.3774C11.8514 25.6118 12.1697 25.7434 12.5017 25.7434H19.6487C19.7216 25.7583 19.7973 25.7478 19.8634 25.7137C19.9294 25.6796 19.9818 25.6239 20.0117 25.556C20.0319 25.4963 20.0356 25.4323 20.0224 25.3707C20.0091 25.3091 19.9795 25.2523 19.9366 25.2061L19.5861 24.9187Z" fill="#ffffff"/>
    <path d="M23.454 25.7433C23.3306 25.7439 23.2084 25.7199 23.0945 25.6727C22.9806 25.6255 22.8773 25.556 22.7906 25.4684L20.9131 23.5941C20.7473 23.4165 20.657 23.1815 20.6613 22.9387C20.6656 22.6959 20.7641 22.4643 20.9361 22.2926C21.1081 22.1209 21.3401 22.0225 21.5833 22.0182C21.8265 22.014 22.0619 22.1041 22.2399 22.2696L23.2287 23.2568C23.2579 23.287 23.2929 23.311 23.3316 23.3275C23.3703 23.3439 23.4119 23.3524 23.454 23.3524C23.496 23.3524 23.5377 23.3439 23.5764 23.3275C23.6151 23.311 23.6501 23.287 23.6793 23.2568L27.1714 19.7706C27.3494 19.605 27.5848 19.5149 27.828 19.5192C28.0712 19.5235 28.3032 19.6218 28.4752 19.7935C28.6472 19.9652 28.7457 20.1969 28.75 20.4397C28.7543 20.6824 28.664 20.9174 28.4982 21.0951L24.1174 25.4684C24.0307 25.556 23.9274 25.6255 23.8134 25.6727C23.6995 25.7199 23.5773 25.7439 23.454 25.7433V25.7433Z" fill="#ffffff"/>
</svg>
    