<svg width="36" height="47" viewBox="0 0 36 47" fill="none" xmlns="http://www.w3.org/2000/svg">
    <path d="M36 18C36 25.7811 24.9723 39.7609 20.1801 45.4686C19.0323 46.8356 16.9677 46.8356 15.8199 45.4686C11.0277 39.7609 0 25.7811 0 18C0 8.05887 8.05887 0 18 0C27.9411 0 36 8.05887 36 18Z" fill="#000D6E"/>
    <path d="M27.7485 17.3924L18.6069 8.25181C18.5271 8.17198 18.4324 8.10865 18.3281 8.06545C18.2238 8.02224 18.112 8 17.9991 8C17.8862 8 17.7744 8.02224 17.6702 8.06545C17.5659 8.10865 17.4711 8.17198 17.3913 8.25181L8.25152 17.3924C8.09046 17.5536 8 17.7722 8 18C8 18.2279 8.09046 18.4464 8.25152 18.6076L17.3931 27.7482C17.4729 27.828 17.5676 27.8913 17.6719 27.9346C17.7762 27.9778 17.888 28 18.0009 28C18.1138 28 18.2256 27.9778 18.3298 27.9346C18.4341 27.8913 18.5289 27.828 18.6087 27.7482L23.6798 22.6758L20.592 19.5887L17.9993 22.1815L13.8173 18L17.9993 13.8185L25.2687 21.0871L27.7474 18.6086C27.8274 18.5289 27.8909 18.4341 27.9342 18.3298C27.9775 18.2255 27.9999 18.1137 28 18.0008C28.0001 17.8878 27.9779 17.7759 27.9348 17.6716C27.8916 17.5672 27.8283 17.4723 27.7485 17.3924Z" fill="white"/>
</svg>
    