<svg width="36" height="47" viewBox="0 0 36 47" fill="none" xmlns="http://www.w3.org/2000/svg">
    <path d="M36 18C36 25.7811 24.9723 39.7609 20.1801 45.4686C19.0323 46.8356 16.9677 46.8356 15.8199 45.4686C11.0277 39.7609 0 25.7811 0 18C0 8.05887 8.05887 0 18 0C27.9411 0 36 8.05887 36 18Z" fill="#000D6E"/>
    <path d="M21.0105 8.27678C20.6616 8.27784 20.3146 8.32741 19.9795 8.42406C19.9313 8.43991 19.8871 8.4661 19.8501 8.50079C19.8131 8.53548 19.7842 8.57784 19.7652 8.6249C19.7417 8.67045 19.7295 8.72095 19.7295 8.77219C19.7295 8.82343 19.7417 8.87393 19.7652 8.91947C20.3416 9.82246 20.65 10.8704 20.6548 11.9416C20.6595 13.0128 20.3603 14.0635 19.792 14.9715C19.7685 15.017 19.7563 15.0675 19.7563 15.1188C19.7563 15.17 19.7685 15.2205 19.792 15.2661C19.8109 15.3131 19.8399 15.3555 19.8769 15.3902C19.9139 15.4249 19.9581 15.4511 20.0062 15.4669C20.3414 15.5636 20.6884 15.6131 21.0372 15.6142C22.0138 15.6142 22.9503 15.2263 23.6409 14.5357C24.3314 13.8452 24.7193 12.9087 24.7193 11.9321C24.7193 10.9555 24.3314 10.019 23.6409 9.32846C22.9503 8.63793 22.0138 8.25 21.0372 8.25L21.0105 8.27678Z" fill="#ffffff"/>
    <path d="M21.6396 17.6494H21.1844C21.1175 17.6499 21.052 17.6689 20.9953 17.7044C20.9386 17.7398 20.8928 17.7903 20.8631 17.8503C20.8285 17.9042 20.8101 17.9669 20.8101 18.031C20.8101 18.0951 20.8285 18.1578 20.8631 18.2118C22.4575 19.8553 23.3505 22.0543 23.3535 24.3441C23.3512 24.6744 23.3062 25.0029 23.2196 25.3216C23.1961 25.3671 23.1839 25.4176 23.1839 25.4688C23.1839 25.5201 23.1961 25.5706 23.2196 25.6161C23.2515 25.657 23.292 25.6902 23.3384 25.7133C23.3847 25.7365 23.4356 25.749 23.4874 25.75H26.0314C26.3865 25.75 26.7271 25.609 26.9782 25.3579C27.2293 25.1068 27.3703 24.7662 27.3703 24.4111V24.3441C27.4196 22.7152 26.8597 21.1264 25.7999 19.8883C24.7401 18.6503 23.2567 17.852 21.6396 17.6494V17.6494Z" fill="#ffffff"/>
    <path d="M14.9848 15.641C17.0184 15.641 18.6669 13.9925 18.6669 11.959C18.6669 9.92539 17.0184 8.27686 14.9848 8.27686C12.9513 8.27686 11.3027 9.92539 11.3027 11.959C11.3027 13.9925 12.9513 15.641 14.9848 15.641Z" fill="#ffffff"/>
    <path d="M8.62508 24.3441C8.62508 24.6992 8.76614 25.0398 9.01724 25.2909C9.26835 25.542 9.60891 25.683 9.96402 25.683H20.0061C20.3612 25.683 20.7018 25.542 20.9529 25.2909C21.204 25.0398 21.345 24.6992 21.345 24.3441C21.3943 22.7152 20.8344 21.1264 19.7746 19.8883C18.7148 18.6503 17.2314 17.8519 15.6144 17.6494C14.7278 17.5612 13.8327 17.6603 12.9869 17.9402C12.1411 18.2201 11.3635 18.6746 10.7046 19.2742C10.0456 19.8738 9.52001 20.6051 9.16178 21.4209C8.80355 22.2366 8.6207 23.1185 8.62508 24.0094V24.3441Z" fill="#ffffff"/>
</svg>
    