<svg width="562" height="414" viewBox="0 0 562 414" fill="none" xmlns="http://www.w3.org/2000/svg">
<rect width="562" height="414" fill="#F6F6F6"/>
<g filter="url(#filter0_d_2645_17319)">
<rect x="59" y="67" width="445" height="280" rx="12" fill="white" shape-rendering="crispEdges"/>
<g clip-path="url(#clip0_2645_17319)">
<path d="M213.875 100.1H210.895V114H220.235V111.36H213.875V100.1ZM229.105 104.74C228.345 103.88 227.245 103.4 225.865 103.4C222.825 103.4 220.625 105.58 220.625 108.74C220.625 111.88 222.825 114.26 225.865 114.26C227.245 114.26 228.345 113.74 229.105 112.84V114H231.845V103.46H229.105V104.74ZM226.285 111.64C224.705 111.64 223.565 110.42 223.565 108.74C223.565 107.06 224.705 105.82 226.285 105.82C227.905 105.82 229.005 107.02 229.005 108.74C229.005 110.46 227.905 111.64 226.285 111.64ZM240.836 109.7C240.836 110.8 240.036 111.62 238.816 111.62C237.576 111.62 236.816 110.8 236.816 109.64V103.46H233.856V110.02C233.856 112.42 235.256 114.26 237.936 114.26C239.196 114.26 240.276 113.76 241.016 113V114H243.796V103.46H240.836V109.7ZM248.71 103.46H245.91V114H248.87V108.2C248.87 106.8 249.93 105.98 251.73 105.98V103.2C250.49 103.2 249.43 103.72 248.71 104.48V103.46ZM263.025 109.64C263.065 109.38 263.085 108.98 263.085 108.52C263.085 105.88 261.065 103.22 257.665 103.22C254.645 103.22 252.225 105.68 252.225 108.74C252.225 111.88 254.445 114.26 257.865 114.26C260.445 114.26 261.805 113.2 262.625 112L260.365 110.5C259.905 111.34 259.245 111.8 257.945 111.8C256.545 111.8 255.465 111.02 255.125 109.64H263.025ZM255.085 107.7C255.385 106.26 256.385 105.46 257.745 105.46C259.105 105.46 260.025 106.32 260.305 107.7H255.085ZM270.62 103.2C269.26 103.2 268.16 103.7 267.44 104.44V103.46H264.64V114H267.6V107.76C267.62 106.68 268.54 105.84 269.72 105.84C270.92 105.84 271.8 106.6 271.8 107.94V114H274.74V107.36C274.74 104.9 273.14 103.2 270.62 103.2ZM283.253 114V111.42H282.133C281.093 111.42 280.513 110.82 280.513 109.7V105.98H283.173V103.46H280.613V100.68H277.733V102.32C277.733 103.08 277.373 103.46 276.653 103.46H275.753V105.98H277.553V110.06C277.553 112.44 278.893 114 281.513 114H283.253ZM298.458 100.1H287.278V102.74H291.378V114H294.358V102.74H298.458V100.1ZM305.726 104.74C304.966 103.88 303.866 103.4 302.486 103.4C299.446 103.4 297.246 105.58 297.246 108.74C297.246 111.88 299.446 114.26 302.486 114.26C303.866 114.26 304.966 113.74 305.726 112.84V114H308.466V103.46H305.726V104.74ZM302.906 111.64C301.326 111.64 300.186 110.42 300.186 108.74C300.186 107.06 301.326 105.82 302.906 105.82C304.526 105.82 305.626 107.02 305.626 108.74C305.626 110.46 304.526 111.64 302.906 111.64ZM317.458 109.7C317.458 110.8 316.658 111.62 315.438 111.62C314.198 111.62 313.438 110.8 313.438 109.64V103.46H310.478V110.02C310.478 112.42 311.878 114.26 314.558 114.26C315.818 114.26 316.898 113.76 317.638 113V114H320.418V103.46H317.458V109.7ZM328.591 103.22C327.331 103.22 326.271 103.64 325.491 104.38V99.38H322.531V114H325.271V112.9C326.051 113.76 327.151 114.26 328.511 114.26C331.551 114.26 333.751 111.88 333.751 108.74C333.751 105.58 331.631 103.22 328.591 103.22ZM328.111 111.64C326.471 111.64 325.371 110.46 325.371 108.74C325.371 107.02 326.471 105.82 328.111 105.82C329.671 105.82 330.811 107.06 330.811 108.74C330.811 110.42 329.671 111.64 328.111 111.64ZM345.642 109.64C345.682 109.38 345.702 108.98 345.702 108.52C345.702 105.88 343.682 103.22 340.282 103.22C337.262 103.22 334.842 105.68 334.842 108.74C334.842 111.88 337.062 114.26 340.482 114.26C343.062 114.26 344.422 113.2 345.242 112L342.982 110.5C342.522 111.34 341.862 111.8 340.562 111.8C339.162 111.8 338.082 111.02 337.742 109.64H345.642ZM337.702 107.7C338.002 106.26 339.002 105.46 340.362 105.46C341.722 105.46 342.642 106.32 342.922 107.7H337.702ZM350.057 103.46H347.257V114H350.217V108.2C350.217 106.8 351.277 105.98 353.077 105.98V103.2C351.837 103.2 350.777 103.72 350.057 104.48V103.46Z" fill="#000D6E"/>
</g>
<g clip-path="url(#clip1_2645_17319)">
<path d="M215.88 129.88H213.128L210.552 137.736L207.96 129.88H205.192L204.392 141H206.584L207.16 133.336L209.56 140.632H211.528L213.928 133.352L214.488 141H216.696L215.88 129.88ZM226.353 137.512C226.385 137.304 226.401 136.984 226.401 136.616C226.401 134.504 224.785 132.376 222.065 132.376C219.649 132.376 217.713 134.344 217.713 136.792C217.713 139.304 219.489 141.208 222.225 141.208C224.289 141.208 225.377 140.36 226.033 139.4L224.225 138.2C223.857 138.872 223.329 139.24 222.289 139.24C221.169 139.24 220.305 138.616 220.033 137.512H226.353ZM220.001 135.96C220.241 134.808 221.041 134.168 222.129 134.168C223.217 134.168 223.953 134.856 224.177 135.96H220.001ZM228.829 131.336C229.693 131.336 230.381 130.728 230.381 129.848C230.381 128.968 229.693 128.328 228.829 128.328C227.965 128.328 227.293 128.968 227.293 129.848C227.293 130.728 227.965 131.336 228.829 131.336ZM230.013 141V132.568H227.645V141H230.013ZM236.491 132.36C235.403 132.36 234.523 132.76 233.947 133.352V132.568H231.707V141H234.075V136.008C234.091 135.144 234.827 134.472 235.771 134.472C236.731 134.472 237.435 135.08 237.435 136.152V141H239.787V135.688C239.787 133.72 238.507 132.36 236.491 132.36ZM249.463 135.272L253.975 129.88H251.239L247.111 134.76V129.88H244.727V141H247.111V135.848L251.399 141H254.135L249.463 135.272ZM259.836 137.56C259.836 138.44 259.196 139.096 258.22 139.096C257.228 139.096 256.62 138.44 256.62 137.512V132.568H254.252V137.816C254.252 139.736 255.372 141.208 257.516 141.208C258.524 141.208 259.388 140.808 259.98 140.2V141H262.204V132.568H259.836V137.56ZM268.679 132.36C267.591 132.36 266.711 132.76 266.135 133.352V132.568H263.895V141H266.263V136.008C266.279 135.144 267.015 134.472 267.959 134.472C268.919 134.472 269.623 135.08 269.623 136.152V141H271.975V135.688C271.975 133.72 270.695 132.36 268.679 132.36ZM279.822 133.304C279.198 132.712 278.35 132.376 277.342 132.376C274.926 132.376 273.214 134.264 273.214 136.792C273.214 139.304 274.974 141.208 277.406 141.208C278.494 141.208 279.374 140.808 279.998 140.136V141H282.19V129.304H279.822V133.304ZM277.742 139.112C276.478 139.112 275.566 138.136 275.566 136.792C275.566 135.448 276.478 134.456 277.742 134.456C279.038 134.456 279.918 135.416 279.918 136.792C279.918 138.168 279.038 139.112 277.742 139.112ZM292.087 137.512C292.119 137.304 292.135 136.984 292.135 136.616C292.135 134.504 290.519 132.376 287.799 132.376C285.383 132.376 283.447 134.344 283.447 136.792C283.447 139.304 285.223 141.208 287.959 141.208C290.023 141.208 291.111 140.36 291.767 139.4L289.959 138.2C289.591 138.872 289.063 139.24 288.023 139.24C286.903 139.24 286.039 138.616 285.767 137.512H292.087ZM285.735 135.96C285.975 134.808 286.775 134.168 287.863 134.168C288.951 134.168 289.687 134.856 289.911 135.96H285.735ZM298.163 132.36C297.075 132.36 296.195 132.76 295.619 133.352V132.568H293.379V141H295.747V136.008C295.763 135.144 296.499 134.472 297.443 134.472C298.403 134.472 299.107 135.08 299.107 136.152V141H301.459V135.688C301.459 133.72 300.179 132.36 298.163 132.36ZM307.93 132.376C306.922 132.376 306.074 132.712 305.45 133.304V129.304H303.082V141H305.274V140.12C305.898 140.808 306.778 141.208 307.866 141.208C310.298 141.208 312.058 139.304 312.058 136.792C312.058 134.264 310.362 132.376 307.93 132.376ZM307.546 139.112C306.234 139.112 305.354 138.168 305.354 136.792C305.354 135.416 306.234 134.456 307.546 134.456C308.794 134.456 309.706 135.448 309.706 136.792C309.706 138.136 308.794 139.112 307.546 139.112ZM321.572 137.512C321.604 137.304 321.62 136.984 321.62 136.616C321.62 134.504 320.004 132.376 317.284 132.376C314.868 132.376 312.932 134.344 312.932 136.792C312.932 139.304 314.708 141.208 317.444 141.208C319.508 141.208 320.596 140.36 321.252 139.4L319.444 138.2C319.076 138.872 318.548 139.24 317.508 139.24C316.388 139.24 315.524 138.616 315.252 137.512H321.572ZM315.22 135.96C315.46 134.808 316.26 134.168 317.348 134.168C318.436 134.168 319.172 134.856 319.396 135.96H315.22ZM325.104 132.568H322.864V141H325.232V136.36C325.232 135.24 326.08 134.584 327.52 134.584V132.36C326.528 132.36 325.68 132.776 325.104 133.384V132.568ZM334.748 133.592C334.14 132.904 333.26 132.52 332.156 132.52C329.724 132.52 327.964 134.264 327.964 136.792C327.964 139.304 329.724 141.208 332.156 141.208C333.26 141.208 334.14 140.792 334.748 140.072V141H336.94V132.568H334.748V133.592ZM332.492 139.112C331.228 139.112 330.316 138.136 330.316 136.792C330.316 135.448 331.228 134.456 332.492 134.456C333.788 134.456 334.668 135.416 334.668 136.792C334.668 138.168 333.788 139.112 332.492 139.112ZM343.957 141V138.936H343.061C342.229 138.936 341.765 138.456 341.765 137.56V134.584H343.893V132.568H341.845V130.344H339.541V131.656C339.541 132.264 339.253 132.568 338.677 132.568H337.957V134.584H339.397V137.848C339.397 139.752 340.469 141 342.565 141H343.957ZM353.119 137.512C353.151 137.304 353.167 136.984 353.167 136.616C353.167 134.504 351.551 132.376 348.831 132.376C346.414 132.376 344.479 134.344 344.479 136.792C344.479 139.304 346.255 141.208 348.991 141.208C351.055 141.208 352.142 140.36 352.799 139.4L350.991 138.2C350.623 138.872 350.095 139.24 349.055 139.24C347.935 139.24 347.071 138.616 346.799 137.512H353.119ZM346.767 135.96C347.007 134.808 347.807 134.168 348.895 134.168C349.983 134.168 350.719 134.856 350.943 135.96H346.767ZM356.651 132.568H354.411V141H356.779V136.36C356.779 135.24 357.627 134.584 359.067 134.584V132.36C358.075 132.36 357.227 132.776 356.651 133.384V132.568Z" fill="#000D6E"/>
</g>
<rect width="397" height="24" transform="translate(83 147)" fill="#E5BCD3"/>
<g clip-path="url(#clip2_2645_17319)">
<line x1="151.908" y1="147.5" x2="166.908" y2="147.5" stroke="#E8178A"/>
<line x1="159.408" y1="171.188" x2="159.408" y2="147.188" stroke="#E8178A"/>
<line x1="151.908" y1="170.5" x2="166.908" y2="170.5" stroke="#E8178A"/>
</g>
<path d="M138.628 164V162.681H133.994L136.208 160.315C136.5 160.006 136.769 159.705 137.015 159.413C137.266 159.121 137.482 158.832 137.664 158.545C137.842 158.258 137.981 157.968 138.081 157.677C138.186 157.381 138.239 157.075 138.239 156.761C138.239 156.341 138.17 155.959 138.034 155.612C137.897 155.261 137.699 154.961 137.439 154.71C137.175 154.459 136.849 154.263 136.461 154.122C136.078 153.981 135.643 153.91 135.156 153.91C134.636 153.91 134.164 153.994 133.741 154.163C133.321 154.332 132.966 154.56 132.674 154.847C132.378 155.134 132.15 155.471 131.991 155.858C131.831 156.241 131.751 156.649 131.751 157.082H133.392C133.392 156.795 133.428 156.54 133.501 156.316C133.574 156.089 133.684 155.895 133.829 155.735C133.971 155.585 134.148 155.469 134.363 155.387C134.577 155.305 134.83 155.264 135.121 155.264C135.349 155.264 135.554 155.302 135.737 155.38C135.924 155.457 136.083 155.564 136.215 155.701C136.347 155.838 136.448 156.002 136.516 156.193C136.584 156.385 136.619 156.597 136.619 156.829C136.619 157.002 136.593 157.175 136.543 157.349C136.498 157.517 136.42 157.7 136.311 157.896C136.197 158.091 136.049 158.308 135.867 158.545C135.684 158.777 135.459 159.042 135.19 159.338L131.95 162.865V164H138.628ZM145.933 160.452V154.047H144.251L139.951 160.773L139.992 161.778H144.299V164H145.933V161.778H147.184V160.452H145.933ZM141.619 160.452L144.107 156.59L144.299 156.234V160.452H141.619Z" fill="#E8178A"/>
<g clip-path="url(#clip3_2645_17319)">
<path d="M299.5 231.429H312.357V239.143C312.357 239.825 312.086 240.479 311.604 240.961C311.122 241.444 310.468 241.714 309.786 241.714H302.071C301.389 241.714 300.735 241.444 300.253 240.961C299.771 240.479 299.5 239.825 299.5 239.143V231.429Z" fill="#000D6E"/>
<path d="M250.643 231.429H263.5V239.143C263.5 239.825 263.229 240.479 262.747 240.961C262.265 241.444 261.611 241.714 260.929 241.714H253.214C252.533 241.714 251.878 241.444 251.396 240.961C250.914 240.479 250.643 239.825 250.643 239.143V231.429Z" fill="#000D6E"/>
<path d="M316.214 195.429H311.071C310.361 195.429 309.786 196.004 309.786 196.714V199.286C309.786 199.996 310.361 200.572 311.071 200.572H316.214C316.924 200.572 317.5 199.996 317.5 199.286V196.714C317.5 196.004 316.924 195.429 316.214 195.429Z" fill="#1B5951"/>
<path d="M251.929 195.429H246.786C246.076 195.429 245.5 196.004 245.5 196.714V199.286C245.5 199.996 246.076 200.572 246.786 200.572H251.929C252.639 200.572 253.214 199.996 253.214 199.286V196.714C253.214 196.004 252.639 195.429 251.929 195.429Z" fill="#1B5951"/>
<path d="M311.56 210.857L308.989 203.143H254.063L251.492 210.857C250.942 212.106 250.653 213.453 250.643 214.817V228.857H312.357V214.817C312.364 213.457 312.092 212.109 311.56 210.857ZM259.643 221.143C258.62 221.143 257.639 220.737 256.916 220.013C256.192 219.29 255.786 218.309 255.786 217.286C255.786 216.263 256.192 215.282 256.916 214.559C257.639 213.835 258.62 213.429 259.643 213.429C260.666 213.429 261.647 213.835 262.37 214.559C263.094 215.282 263.5 216.263 263.5 217.286C263.5 218.309 263.094 219.29 262.37 220.013C261.647 220.737 260.666 221.143 259.643 221.143ZM303.357 221.143C302.334 221.143 301.353 220.737 300.63 220.013C299.907 219.29 299.5 218.309 299.5 217.286C299.5 216.263 299.907 215.282 300.63 214.559C301.353 213.835 302.334 213.429 303.357 213.429C304.38 213.429 305.361 213.835 306.085 214.559C306.808 215.282 307.215 216.263 307.215 217.286C307.215 218.309 306.808 219.29 306.085 220.013C305.361 220.737 304.38 221.143 303.357 221.143Z" fill="#1B5951"/>
<path d="M301.48 184.757C300.896 183.349 299.907 182.146 298.639 181.299C297.372 180.453 295.881 180 294.357 180H268.643C267.118 180 265.628 180.453 264.36 181.299C263.093 182.146 262.104 183.349 261.52 184.757L254.937 200.571H308.063L301.48 184.757Z" fill="#94E3D4"/>
</g>
<rect width="397" height="24" transform="translate(83 251)" fill="#E5BCD3"/>
<g clip-path="url(#clip4_2645_17319)">
<line x1="151.908" y1="251.5" x2="166.908" y2="251.5" stroke="#E8178A"/>
<line x1="159.408" y1="275.188" x2="159.408" y2="251.188" stroke="#E8178A"/>
<line x1="151.908" y1="274.5" x2="166.908" y2="274.5" stroke="#E8178A"/>
</g>
<path d="M138.628 268V266.681H133.994L136.208 264.315C136.5 264.006 136.769 263.705 137.015 263.413C137.266 263.121 137.482 262.832 137.664 262.545C137.842 262.258 137.981 261.968 138.081 261.677C138.186 261.381 138.239 261.075 138.239 260.761C138.239 260.341 138.17 259.959 138.034 259.612C137.897 259.261 137.699 258.961 137.439 258.71C137.175 258.459 136.849 258.263 136.461 258.122C136.078 257.981 135.643 257.91 135.156 257.91C134.636 257.91 134.164 257.994 133.741 258.163C133.321 258.332 132.966 258.56 132.674 258.847C132.378 259.134 132.15 259.471 131.991 259.858C131.831 260.241 131.751 260.649 131.751 261.082H133.392C133.392 260.795 133.428 260.54 133.501 260.316C133.574 260.089 133.684 259.895 133.829 259.735C133.971 259.585 134.148 259.469 134.363 259.387C134.577 259.305 134.83 259.264 135.121 259.264C135.349 259.264 135.554 259.302 135.737 259.38C135.924 259.457 136.083 259.564 136.215 259.701C136.347 259.838 136.448 260.002 136.516 260.193C136.584 260.385 136.619 260.597 136.619 260.829C136.619 261.002 136.593 261.175 136.543 261.349C136.498 261.517 136.42 261.7 136.311 261.896C136.197 262.091 136.049 262.308 135.867 262.545C135.684 262.777 135.459 263.042 135.19 263.338L131.95 266.865V268H138.628ZM145.933 264.452V258.047H144.251L139.951 264.773L139.992 265.778H144.299V268H145.933V265.778H147.184V264.452H145.933ZM141.619 264.452L144.107 260.59L144.299 260.234V264.452H141.619Z" fill="#E8178A"/>
<path d="M113.063 300.952L108.375 293.88H106.407V305H108.775V297.976L113.447 305H115.431V293.88H113.063V300.952ZM123.6 297.592C122.992 296.904 122.112 296.52 121.008 296.52C118.576 296.52 116.816 298.264 116.816 300.792C116.816 303.304 118.576 305.208 121.008 305.208C122.112 305.208 122.992 304.792 123.6 304.072V305H125.792V296.568H123.6V297.592ZM121.344 303.112C120.08 303.112 119.168 302.136 119.168 300.792C119.168 299.448 120.08 298.456 121.344 298.456C122.64 298.456 123.52 299.416 123.52 300.792C123.52 302.168 122.64 303.112 121.344 303.112ZM131.529 305.208C133.865 305.208 135.273 303.704 135.641 302.472L133.529 301.624C133.289 302.488 132.585 303.096 131.577 303.096C130.393 303.096 129.465 302.2 129.465 300.792C129.465 299.384 130.393 298.488 131.577 298.488C132.569 298.488 133.241 299.096 133.481 299.976L135.593 299.144C135.225 297.88 133.817 296.376 131.529 296.376C128.969 296.376 127.081 298.312 127.081 300.808C127.081 303.304 129.001 305.208 131.529 305.208ZM141.484 296.36C140.476 296.36 139.644 296.712 139.068 297.224V293.304H136.7V305H139.068V300.008C139.084 299.144 139.82 298.472 140.764 298.472C141.724 298.472 142.428 299.08 142.428 300.152V305H144.78V299.688C144.78 297.72 143.5 296.36 141.484 296.36ZM148.643 296.568H146.403V305H148.771V300.36C148.771 299.24 149.619 298.584 151.059 298.584V296.36C150.067 296.36 149.219 296.776 148.643 297.384V296.568ZM153.337 295.336C154.201 295.336 154.889 294.728 154.889 293.848C154.889 292.968 154.201 292.328 153.337 292.328C152.473 292.328 151.801 292.968 151.801 293.848C151.801 294.728 152.473 295.336 153.337 295.336ZM154.521 305V296.568H152.153V305H154.521ZM160.263 305.208C162.599 305.208 164.007 303.704 164.375 302.472L162.263 301.624C162.023 302.488 161.319 303.096 160.311 303.096C159.127 303.096 158.199 302.2 158.199 300.792C158.199 299.384 159.127 298.488 160.311 298.488C161.303 298.488 161.975 299.096 162.215 299.976L164.327 299.144C163.959 297.88 162.551 296.376 160.263 296.376C157.703 296.376 155.815 298.312 155.815 300.808C155.815 303.304 157.735 305.208 160.263 305.208ZM170.218 296.36C169.21 296.36 168.378 296.712 167.802 297.224V293.304H165.434V305H167.802V300.008C167.818 299.144 168.554 298.472 169.498 298.472C170.458 298.472 171.162 299.08 171.162 300.152V305H173.514V299.688C173.514 297.72 172.234 296.36 170.218 296.36ZM180.324 305V302.936H179.428C178.596 302.936 178.132 302.456 178.132 301.56V298.584H180.26V296.568H178.212V294.344H175.908V295.656C175.908 296.264 175.62 296.568 175.044 296.568H174.324V298.584H175.764V301.848C175.764 303.752 176.836 305 178.932 305H180.324ZM187.71 305.208C189.87 305.208 191.262 304.168 191.262 302.472C191.262 299.368 186.75 300.184 186.75 298.824C186.75 298.392 187.102 298.136 187.742 298.136C188.366 298.136 188.814 298.424 189.022 299L191.022 298.232C190.67 297.064 189.454 296.376 187.774 296.376C185.726 296.376 184.414 297.352 184.414 298.952C184.414 301.848 188.91 301.144 188.91 302.616C188.91 303.096 188.494 303.384 187.79 303.384C186.846 303.384 186.238 302.952 186.014 302.216L184.014 302.984C184.494 304.44 185.838 305.208 187.71 305.208ZM196.56 305.208C198.896 305.208 200.304 303.704 200.672 302.472L198.56 301.624C198.32 302.488 197.616 303.096 196.608 303.096C195.424 303.096 194.496 302.2 194.496 300.792C194.496 299.384 195.424 298.488 196.608 298.488C197.6 298.488 198.272 299.096 198.512 299.976L200.624 299.144C200.256 297.88 198.848 296.376 196.56 296.376C194 296.376 192.112 298.312 192.112 300.808C192.112 303.304 194.032 305.208 196.56 305.208ZM206.515 296.36C205.507 296.36 204.675 296.712 204.099 297.224V293.304H201.731V305H204.099V300.008C204.115 299.144 204.851 298.472 205.795 298.472C206.755 298.472 207.459 299.08 207.459 300.152V305H209.811V299.688C209.811 297.72 208.531 296.36 206.515 296.36ZM213.674 296.568H211.434V305H213.802V300.36C213.802 299.24 214.65 298.584 216.09 298.584V296.36C215.098 296.36 214.25 296.776 213.674 297.384V296.568ZM225.126 301.512C225.158 301.304 225.174 300.984 225.174 300.616C225.174 298.504 223.558 296.376 220.838 296.376C218.422 296.376 216.486 298.344 216.486 300.792C216.486 303.304 218.262 305.208 220.998 305.208C223.062 305.208 224.15 304.36 224.806 303.4L222.998 302.2C222.63 302.872 222.102 303.24 221.062 303.24C219.942 303.24 219.078 302.616 218.806 301.512H225.126ZM218.774 299.96C219.014 298.808 219.814 298.168 220.902 298.168C221.99 298.168 222.726 298.856 222.95 299.96H218.774ZM227.602 295.336C228.466 295.336 229.154 294.728 229.154 293.848C229.154 292.968 228.466 292.328 227.602 292.328C226.738 292.328 226.066 292.968 226.066 293.848C226.066 294.728 226.738 295.336 227.602 295.336ZM228.786 305V296.568H226.418V305H228.786ZM235.329 296.376C234.321 296.376 233.473 296.712 232.849 297.304V293.304H230.481V305H232.673V304.12C233.297 304.808 234.177 305.208 235.265 305.208C237.697 305.208 239.457 303.304 239.457 300.792C239.457 298.264 237.761 296.376 235.329 296.376ZM234.945 303.112C233.633 303.112 232.753 302.168 232.753 300.792C232.753 299.416 233.633 298.456 234.945 298.456C236.193 298.456 237.105 299.448 237.105 300.792C237.105 302.136 236.193 303.112 234.945 303.112ZM248.97 301.512C249.002 301.304 249.018 300.984 249.018 300.616C249.018 298.504 247.402 296.376 244.682 296.376C242.266 296.376 240.33 298.344 240.33 300.792C240.33 303.304 242.106 305.208 244.842 305.208C246.906 305.208 247.994 304.36 248.65 303.4L246.842 302.2C246.474 302.872 245.946 303.24 244.906 303.24C243.786 303.24 242.922 302.616 242.65 301.512H248.97ZM242.618 299.96C242.858 298.808 243.658 298.168 244.746 298.168C245.834 298.168 246.57 298.856 246.794 299.96H242.618ZM255.046 296.36C253.958 296.36 253.078 296.76 252.502 297.352V296.568H250.262V305H252.63V300.008C252.646 299.144 253.382 298.472 254.326 298.472C255.286 298.472 255.99 299.08 255.99 300.152V305H258.342V299.688C258.342 297.72 257.062 296.36 255.046 296.36Z" fill="#000D6E"/>
<path d="M105.383 306.6H259.11V307.4H105.383V306.6Z" fill="#000D6E"/>
<line x1="282" y1="275" x2="282" y2="323" stroke="#E8E8E8"/>
<path d="M313.664 305L310.352 300.392C312.272 300.12 313.472 298.856 313.472 297.16C313.472 295.256 311.968 293.88 309.584 293.88H305.04V305H307.392V300.44H307.856L311.024 305H313.664ZM309.52 295.96C310.56 295.96 311.152 296.504 311.152 297.368C311.152 298.216 310.56 298.76 309.52 298.76H307.392V295.96H309.52ZM316.721 295.288C317.553 295.288 318.209 294.68 318.209 293.848C318.209 293 317.569 292.376 316.769 292.376C315.937 292.376 315.265 292.952 315.265 293.8C315.265 294.68 315.937 295.288 316.721 295.288ZM320.497 295.288C321.345 295.288 322.001 294.68 322.001 293.848C322.001 293 321.345 292.376 320.545 292.376C319.713 292.376 319.041 292.952 319.041 293.8C319.041 294.68 319.713 295.288 320.497 295.288ZM320.305 301.56C320.305 302.44 319.665 303.096 318.689 303.096C317.697 303.096 317.089 302.44 317.089 301.512V296.568H314.721V301.816C314.721 303.736 315.841 305.208 317.985 305.208C318.993 305.208 319.857 304.808 320.449 304.2V305H322.673V296.568H320.305V301.56ZM328.412 305.208C330.748 305.208 332.156 303.704 332.524 302.472L330.412 301.624C330.172 302.488 329.468 303.096 328.46 303.096C327.276 303.096 326.348 302.2 326.348 300.792C326.348 299.384 327.276 298.488 328.46 298.488C329.452 298.488 330.124 299.096 330.364 299.976L332.476 299.144C332.108 297.88 330.7 296.376 328.412 296.376C325.852 296.376 323.964 298.312 323.964 300.808C323.964 303.304 325.884 305.208 328.412 305.208ZM338.142 300.472L341.502 296.568H338.862L335.95 299.896V293.304H333.582V305H335.95V301.176L338.974 305H341.55L338.142 300.472ZM344.51 296.568H342.27V305H344.638V300.36C344.638 299.24 345.486 298.584 346.926 298.584V296.36C345.934 296.36 345.086 296.776 344.51 297.384V296.568ZM353.524 301.56C353.524 302.44 352.884 303.096 351.908 303.096C350.916 303.096 350.308 302.44 350.308 301.512V296.568H347.94V301.816C347.94 303.736 349.06 305.208 351.204 305.208C352.212 305.208 353.076 304.808 353.668 304.2V305H355.892V296.568H353.524V301.56ZM362.51 294.968V293.112H361.918C359.55 293.112 358.302 294.44 358.302 296.568H357.022V298.584H358.302V305H360.67V298.584H362.494V296.568H360.67V296.328C360.67 295.464 361.15 294.968 361.998 294.968H362.51ZM369.84 302.696L367.824 296.568H365.376L368.464 305H371.216L374.32 296.568H371.872L369.84 302.696ZM383.04 301.512C383.072 301.304 383.088 300.984 383.088 300.616C383.088 298.504 381.472 296.376 378.752 296.376C376.336 296.376 374.4 298.344 374.4 300.792C374.4 303.304 376.176 305.208 378.912 305.208C380.976 305.208 382.064 304.36 382.72 303.4L380.912 302.2C380.544 302.872 380.016 303.24 378.976 303.24C377.856 303.24 376.992 302.616 376.72 301.512H383.04ZM376.688 299.96C376.928 298.808 377.728 298.168 378.816 298.168C379.904 298.168 380.64 298.856 380.864 299.96H376.688ZM386.572 296.568H384.332V305H386.7V300.36C386.7 299.24 387.548 298.584 388.988 298.584V296.36C387.996 296.36 387.148 296.776 386.572 297.384V296.568ZM398.025 301.512C398.057 301.304 398.073 300.984 398.073 300.616C398.073 298.504 396.457 296.376 393.737 296.376C391.321 296.376 389.385 298.344 389.385 300.792C389.385 303.304 391.161 305.208 393.897 305.208C395.961 305.208 397.049 304.36 397.705 303.4L395.897 302.2C395.529 302.872 395.001 303.24 393.961 303.24C392.841 303.24 391.977 302.616 391.705 301.512H398.025ZM391.673 299.96C391.913 298.808 392.713 298.168 393.801 298.168C394.889 298.168 395.625 298.856 395.849 299.96H391.673ZM400.501 295.336C401.365 295.336 402.053 294.728 402.053 293.848C402.053 292.968 401.365 292.328 400.501 292.328C399.637 292.328 398.965 292.968 398.965 293.848C398.965 294.728 399.637 295.336 400.501 295.336ZM401.685 305V296.568H399.317V305H401.685ZM408.163 296.36C407.075 296.36 406.195 296.76 405.619 297.352V296.568H403.379V305H405.747V300.008C405.763 299.144 406.499 298.472 407.443 298.472C408.403 298.472 409.107 299.08 409.107 300.152V305H411.459V299.688C411.459 297.72 410.179 296.36 408.163 296.36ZM417.93 296.376C416.922 296.376 416.074 296.712 415.45 297.304V293.304H413.082V305H415.274V304.12C415.898 304.808 416.778 305.208 417.866 305.208C420.298 305.208 422.058 303.304 422.058 300.792C422.058 298.264 420.362 296.376 417.93 296.376ZM417.546 303.112C416.234 303.112 415.354 302.168 415.354 300.792C415.354 299.416 416.234 298.456 417.546 298.456C418.794 298.456 419.706 299.448 419.706 300.792C419.706 302.136 418.794 303.112 417.546 303.112ZM429.764 297.592C429.156 296.904 428.276 296.52 427.172 296.52C424.74 296.52 422.98 298.264 422.98 300.792C422.98 303.304 424.74 305.208 427.172 305.208C428.276 305.208 429.156 304.792 429.764 304.072V305H431.956V296.568H429.764V297.592ZM427.508 303.112C426.244 303.112 425.332 302.136 425.332 300.792C425.332 299.448 426.244 298.456 427.508 298.456C428.804 298.456 429.684 299.416 429.684 300.792C429.684 302.168 428.804 303.112 427.508 303.112ZM435.885 296.568H433.645V305H436.013V300.36C436.013 299.24 436.861 298.584 438.301 298.584V296.36C437.309 296.36 436.461 296.776 435.885 297.384V296.568ZM447.337 301.512C447.369 301.304 447.385 300.984 447.385 300.616C447.385 298.504 445.769 296.376 443.049 296.376C440.633 296.376 438.697 298.344 438.697 300.792C438.697 303.304 440.473 305.208 443.209 305.208C445.273 305.208 446.361 304.36 447.017 303.4L445.209 302.2C444.841 302.872 444.313 303.24 443.273 303.24C442.153 303.24 441.289 302.616 441.017 301.512H447.337ZM440.985 299.96C441.225 298.808 442.025 298.168 443.113 298.168C444.201 298.168 444.937 298.856 445.161 299.96H440.985ZM453.413 296.36C452.325 296.36 451.445 296.76 450.869 297.352V296.568H448.629V305H450.997V300.008C451.013 299.144 451.749 298.472 452.693 298.472C453.653 298.472 454.357 299.08 454.357 300.152V305H456.709V299.688C456.709 297.72 455.429 296.36 453.413 296.36Z" fill="#000D6E"/>
<path d="M304.016 306.6H457.477V307.4H304.016V306.6Z" fill="#000D6E"/>
</g>
<defs>
<filter id="filter0_d_2645_17319" x="29" y="37" width="505" height="340" filterUnits="userSpaceOnUse" color-interpolation-filters="sRGB">
<feFlood flood-opacity="0" result="BackgroundImageFix"/>
<feColorMatrix in="SourceAlpha" type="matrix" values="0 0 0 0 0 0 0 0 0 0 0 0 0 0 0 0 0 0 127 0" result="hardAlpha"/>
<feOffset/>
<feGaussianBlur stdDeviation="15"/>
<feComposite in2="hardAlpha" operator="out"/>
<feColorMatrix type="matrix" values="0 0 0 0 0 0 0 0 0 0.027451 0 0 0 0 0.223529 0 0 0 0.15 0"/>
<feBlend mode="normal" in2="BackgroundImageFix" result="effect1_dropShadow_2645_17319"/>
<feBlend mode="normal" in="SourceGraphic" in2="effect1_dropShadow_2645_17319" result="shape"/>
</filter>
<clipPath id="clip0_2645_17319">
<rect width="222" height="32" fill="white" transform="translate(170.5 91)"/>
</clipPath>
<clipPath id="clip1_2645_17319">
<rect width="222" height="24" fill="white" transform="translate(170.5 123)"/>
</clipPath>
<clipPath id="clip2_2645_17319">
<rect width="15" height="24" fill="white" transform="translate(151.908 147)"/>
</clipPath>
<clipPath id="clip3_2645_17319">
<rect width="72" height="61.7143" fill="white" transform="translate(245.5 180)"/>
</clipPath>
<clipPath id="clip4_2645_17319">
<rect width="15" height="24" fill="white" transform="translate(151.908 251)"/>
</clipPath>
</defs>
</svg>
