<svg width="80" height="80" viewBox="0 0 80 80" fill="none" xmlns="http://www.w3.org/2000/svg">
<path d="M48.9198 70.4999C48.9198 71.3509 49.2578 72.167 49.8596 72.7687C50.4613 73.3704 51.2774 73.7085 52.1284 73.7085C52.9793 73.7085 53.7954 73.3704 54.3971 72.7687C54.9989 72.167 55.3369 71.3509 55.3369 70.4999V62.0037C53.2861 62.8068 51.1193 63.2749 48.9198 63.3898V70.4999Z" fill="#000D6E"/>
<path d="M20.6844 70.5C20.6844 71.3509 21.0225 72.167 21.6242 72.7688C22.2259 73.3705 23.042 73.7085 23.893 73.7085C24.744 73.7085 25.5601 73.3705 26.1618 72.7688C26.7635 72.167 27.1016 71.3509 27.1016 70.5V63.4411C24.8752 63.1835 22.7068 62.559 20.6844 61.593V70.5Z" fill="#000D6E"/>
<path d="M74.5882 33.9224C74.2478 33.9224 73.9214 34.0576 73.6807 34.2983C73.44 34.539 73.3048 34.8654 73.3048 35.2058V38.132C73.2927 38.4495 73.2152 38.7611 73.0772 39.0473C72.9391 39.3335 72.7436 39.5882 72.5026 39.7954C72.2617 40.0026 71.9807 40.1578 71.677 40.2514C71.3734 40.3451 71.0537 40.375 70.738 40.3395H69.4545C69.5243 36.1997 68.4913 32.1158 66.4614 28.5071C64.4315 24.8984 61.4779 21.8949 57.9037 19.8048C57.8108 21.6013 57.3199 23.3548 56.4663 24.9384H35.0331C34.0565 23.169 33.536 21.1841 33.5187 19.163C33.5349 18.5168 33.6036 17.873 33.7241 17.2379H31.4652C30.6996 15.3452 29.3871 13.7238 27.6954 12.5807C26.0037 11.4377 24.0096 10.8249 21.9679 10.8208V18.6753C18.9369 19.9214 16.2164 21.8178 13.9987 24.2306C11.7811 26.6435 10.1203 29.5138 9.13369 32.639H7.20856C6.35759 32.639 5.54149 32.977 4.93976 33.5787C4.33804 34.1805 4 34.9966 4 35.8475V44.8315C4 45.6825 4.33804 46.4986 4.93976 47.1003C5.54149 47.702 6.35759 48.04 7.20856 48.04H9.13369C10.0583 50.9427 11.5606 53.6283 13.55 55.9354C15.5394 58.2425 17.975 60.1232 20.7102 61.4646C22.7167 62.4723 24.8765 63.1402 27.1016 63.4411C27.8717 63.4411 28.6417 63.5695 29.4118 63.5695H47.893H48.9198C51.1193 63.4546 53.286 62.9865 55.3369 62.1834C59.2111 60.5604 62.5648 57.9041 65.0319 54.5045C67.499 51.1049 68.9845 47.0928 69.3262 42.9064H70.8663C71.5195 42.9409 72.1729 42.8437 72.7878 42.6206C73.4026 42.3974 73.9663 42.0529 74.4452 41.6075C74.9242 41.162 75.3087 40.6248 75.5758 40.0277C75.8429 39.4307 75.9871 38.786 76 38.132V35.2058C76.0009 35.0259 75.964 34.8478 75.8916 34.6831C75.8192 34.5184 75.713 34.3708 75.5799 34.2497C75.4468 34.1287 75.2897 34.037 75.1189 33.9806C74.948 33.9243 74.7672 33.9044 74.5882 33.9224ZM19.4011 32.331C19.396 31.7551 19.5624 31.1908 19.8792 30.7099C20.1959 30.229 20.6487 29.8533 21.1797 29.6306C21.7107 29.4079 22.2961 29.3483 22.8611 29.4594C23.4261 29.5705 23.9453 29.8472 24.3525 30.2544C24.7597 30.6616 25.0364 31.1808 25.1475 31.7458C25.2586 32.3108 25.199 32.8961 24.9763 33.4272C24.7536 33.9582 24.3779 34.4109 23.897 34.7277C23.4161 35.0445 22.8518 35.2109 22.2759 35.2058C21.5135 35.2058 20.7822 34.9029 20.2431 34.3638C19.704 33.8247 19.4011 33.0934 19.4011 32.331Z" fill="#D9304C"/>
<path d="M35.0331 24.9384H56.3893C57.2697 23.3612 57.7871 21.6073 57.9037 19.8047C57.9163 19.5739 57.9163 19.3425 57.9037 19.1117C57.8898 16.0571 56.7275 13.1195 54.6477 10.8824C52.5678 8.64532 49.7225 7.2724 46.677 7.03639C43.6316 6.80038 40.6087 7.71855 38.209 9.60851C35.8093 11.4985 34.2083 14.2219 33.724 17.2379C33.6036 17.873 33.5349 18.5168 33.5187 19.163C33.536 21.1841 34.0564 23.169 35.0331 24.9384Z" fill="#FFACA6"/>
</svg>
