<svg width="36" height="47" viewBox="0 0 36 47" fill="none" xmlns="http://www.w3.org/2000/svg">
    <path d="M36 18C36 25.7811 24.9723 39.7609 20.1801 45.4686C19.0323 46.8356 16.9677 46.8356 15.8199 45.4686C11.0277 39.7609 0 25.7811 0 18C0 8.05887 8.05887 0 18 0C27.9411 0 36 8.05887 36 18Z" style="fill: rgba(167, 209, 250, 1.00)"/>
    <path d="M21.0102 8.27678C20.6614 8.27784 20.3144 8.32741 19.9792 8.42406C19.931 8.43991 19.8869 8.4661 19.8499 8.50079C19.8129 8.53548 19.7839 8.57784 19.765 8.6249C19.7415 8.67045 19.7292 8.72095 19.7292 8.77219C19.7292 8.82343 19.7415 8.87393 19.765 8.91947C20.3413 9.82246 20.6498 10.8704 20.6545 11.9416C20.6593 13.0128 20.3601 14.0635 19.7918 14.9715C19.7683 15.017 19.756 15.0675 19.756 15.1188C19.756 15.17 19.7683 15.2205 19.7918 15.2661C19.8107 15.3131 19.8397 15.3555 19.8767 15.3902C19.9137 15.4249 19.9578 15.4511 20.006 15.4669C20.3412 15.5636 20.6882 15.6131 21.037 15.6142C22.0135 15.6142 22.9501 15.2263 23.6406 14.5357C24.3311 13.8452 24.7191 12.9087 24.7191 11.9321C24.7191 10.9555 24.3311 10.019 23.6406 9.32846C22.9501 8.63793 22.0135 8.25 21.037 8.25L21.0102 8.27678Z" style="fill: rgba(0, 13, 110, 1.00)"/>
    <path d="M21.6396 17.6494H21.1844C21.1175 17.6499 21.052 17.6689 20.9953 17.7044C20.9386 17.7398 20.8928 17.7903 20.8631 17.8503C20.8285 17.9042 20.8101 17.9669 20.8101 18.031C20.8101 18.0951 20.8285 18.1578 20.8631 18.2118C22.4575 19.8553 23.3505 22.0543 23.3535 24.3441C23.3512 24.6744 23.3062 25.0029 23.2196 25.3216C23.1961 25.3671 23.1839 25.4176 23.1839 25.4688C23.1839 25.5201 23.1961 25.5706 23.2196 25.6161C23.2515 25.657 23.292 25.6902 23.3384 25.7133C23.3847 25.7365 23.4356 25.749 23.4874 25.75H26.0314C26.3865 25.75 26.7271 25.609 26.9782 25.3579C27.2293 25.1068 27.3703 24.7662 27.3703 24.4111V24.3441C27.4196 22.7152 26.8597 21.1264 25.7999 19.8883C24.7401 18.6503 23.2567 17.852 21.6396 17.6494Z" style="fill: rgba(0, 13, 110, 1.00)"/>
    <path d="M14.9851 15.641C17.0186 15.641 18.6672 13.9925 18.6672 11.959C18.6672 9.92539 17.0186 8.27686 14.9851 8.27686C12.9515 8.27686 11.303 9.92539 11.303 11.959C11.303 13.9925 12.9515 15.641 14.9851 15.641Z" style="fill: rgba(0, 13, 110, 1.00)"/>
    <path d="M8.62508 24.3441C8.62508 24.6992 8.76614 25.0398 9.01724 25.2909C9.26835 25.542 9.60891 25.683 9.96402 25.683H20.0061C20.3612 25.683 20.7018 25.542 20.9529 25.2909C21.204 25.0398 21.345 24.6992 21.345 24.3441C21.3943 22.7152 20.8344 21.1264 19.7746 19.8883C18.7148 18.6503 17.2314 17.8519 15.6144 17.6494C14.7278 17.5612 13.8327 17.6603 12.9869 17.9402C12.1411 18.2201 11.3635 18.6746 10.7046 19.2742C10.0456 19.8738 9.52001 20.6051 9.16178 21.4209C8.80355 22.2366 8.6207 23.1185 8.62508 24.0094V24.3441Z" style="fill: rgba(0, 13, 110, 1.00)"/>
</svg>
