<svg width="120" height="120" viewBox="0 0 120 120" fill="none" xmlns="http://www.w3.org/2000/svg">
<rect width="120" height="120" rx="12" fill="#F9F3FF"/>
<path d="M105.83 57.6748L63.3222 15.1709C62.9511 14.7997 62.5105 14.5052 62.0256 14.3043C61.5406 14.1034 61.0208 14 60.4959 14C59.971 14 59.4512 14.1034 58.9662 14.3043C58.4813 14.5052 58.0406 14.7997 57.6695 15.1709L15.1696 57.6748C14.4207 58.4243 14 59.4405 14 60.5C14 61.5595 14.4207 62.5757 15.1696 63.3253L57.6778 105.829C58.0489 106.2 58.4895 106.495 58.9744 106.696C59.4594 106.897 59.9792 107 60.5041 107C61.0291 107 61.5488 106.897 62.0338 106.696C62.5188 106.495 62.9594 106.2 63.3305 105.829L86.9112 82.2425L72.553 67.8875L60.4967 79.9441L41.0506 60.5L60.4967 41.0559L94.2994 74.8551L105.826 63.3302C106.197 62.9593 106.493 62.5187 106.694 62.0337C106.896 61.5487 107 61.0287 107 60.5035C107 59.9783 106.897 59.4581 106.697 58.9728C106.496 58.4874 106.202 58.0463 105.83 57.6748V57.6748Z" fill="#000D6E"/>
</svg>
