<svg width="992" height="493" viewBox="0 0 992 493" fill="none" xmlns="http://www.w3.org/2000/svg">
<g clip-path="url(#clip0_533_32)">
<rect width="992" height="493" fill="white"/>
<rect x="0.5" y="0.5" width="991" height="418" rx="3.5" fill="#F9F3FF" stroke="#E1D9FF"/>
<path d="M0 419L10 424.774L10 413.226L0 419ZM992 419L982 413.226V424.774L992 419ZM9 420L983 420V418L9 418V420Z" fill="#000D6E"/>
<rect x="204" width="583" height="304" fill="#E1D9FF"/>
<rect x="204" width="49" height="199" fill="#BE82FA"/>
<rect x="692" width="49" height="199" fill="#BE82FA"/>
<rect x="594" width="49" height="199" fill="#BE82FA"/>
<rect x="496" width="49" height="199" fill="#BE82FA"/>
<rect x="400" width="49" height="199" fill="#BE82FA"/>
<rect x="302" width="49" height="199" fill="#BE82FA"/>
<path d="M204 304L214 309.774V298.226L204 304ZM787 304L777 298.226V309.774L787 304ZM213 305H778V303H213V305Z" fill="#000D6E"/>
<path d="M204 199L214 204.774V193.226L204 199ZM787 199L777 193.226V204.774L787 199ZM213 200H778V198H213V200Z" fill="#000D6E"/>
<path d="M447.216 336.312C451.488 336.312 454.152 333.768 455.064 330.864L451.632 329.472C451.056 331.584 449.616 332.928 447.168 332.928C444.288 332.928 442.272 330.816 442.272 327.672C442.272 324.504 444.288 322.392 447.144 322.392C449.592 322.392 451.056 323.76 451.632 325.848L455.064 324.456C454.176 321.648 451.536 319.008 447.24 319.008C442.344 319.008 438.648 322.632 438.648 327.672C438.648 332.688 442.344 336.312 447.216 336.312ZM462.946 336.312C466.93 336.312 469.786 333.456 469.786 329.688C469.786 325.896 466.93 323.064 462.946 323.064C458.938 323.064 456.106 325.896 456.106 329.688C456.106 333.456 458.938 336.312 462.946 336.312ZM462.97 333.144C461.002 333.144 459.682 331.704 459.682 329.688C459.682 327.648 461.002 326.232 462.97 326.232C464.938 326.232 466.234 327.648 466.234 329.664C466.234 331.704 464.89 333.144 462.97 333.144ZM478.905 323.04C477.273 323.04 475.953 323.64 475.089 324.528V323.352H471.729V336H475.281V328.512C475.305 327.216 476.409 326.208 477.825 326.208C479.265 326.208 480.321 327.12 480.321 328.728V336H483.849V328.032C483.849 325.08 481.929 323.04 478.905 323.04ZM494.065 336V332.904H492.721C491.473 332.904 490.777 332.184 490.777 330.84V326.376H493.969V323.352H490.897V320.016H487.441V321.984C487.441 322.896 487.009 323.352 486.145 323.352H485.065V326.376H487.225V331.272C487.225 334.128 488.833 336 491.977 336H494.065ZM505.095 324.888C504.183 323.856 502.863 323.28 501.207 323.28C497.559 323.28 494.919 325.896 494.919 329.688C494.919 333.456 497.559 336.312 501.207 336.312C502.863 336.312 504.183 335.688 505.095 334.608V336H508.383V323.352H505.095V324.888ZM501.711 333.168C499.815 333.168 498.447 331.704 498.447 329.688C498.447 327.672 499.815 326.184 501.711 326.184C503.655 326.184 504.975 327.624 504.975 329.688C504.975 331.752 503.655 333.168 501.711 333.168ZM512.693 321.504C513.989 321.504 515.021 320.592 515.021 319.272C515.021 317.952 513.989 316.992 512.693 316.992C511.397 316.992 510.389 317.952 510.389 319.272C510.389 320.592 511.397 321.504 512.693 321.504ZM514.469 336V323.352H510.917V336H514.469ZM524.186 323.04C522.554 323.04 521.234 323.64 520.37 324.528V323.352H517.01V336H520.562V328.512C520.586 327.216 521.69 326.208 523.106 326.208C524.546 326.208 525.602 327.12 525.602 328.728V336H529.13V328.032C529.13 325.08 527.21 323.04 524.186 323.04ZM543.877 330.768C543.925 330.456 543.949 329.976 543.949 329.424C543.949 326.256 541.525 323.064 537.445 323.064C533.821 323.064 530.917 326.016 530.917 329.688C530.917 333.456 533.581 336.312 537.685 336.312C540.781 336.312 542.413 335.04 543.397 333.6L540.685 331.8C540.133 332.808 539.341 333.36 537.781 333.36C536.101 333.36 534.805 332.424 534.397 330.768H543.877ZM534.349 328.44C534.709 326.712 535.909 325.752 537.541 325.752C539.173 325.752 540.277 326.784 540.613 328.44H534.349ZM549.175 323.352H545.815V336H549.367V329.04C549.367 327.36 550.639 326.376 552.799 326.376V323.04C551.311 323.04 550.039 323.664 549.175 324.576V323.352ZM348.23 368.24C350.61 368.24 352.13 367.02 352.13 365.24C352.13 363.52 351.23 362.64 348.79 361.98C346.65 361.4 346.01 361.08 346.01 360.02C346.01 359.04 346.85 358.48 348.23 358.48C349.45 358.48 350.27 358.94 350.59 359.96L351.89 359.62C351.47 358.02 350.21 357.24 348.27 357.24C346.05 357.24 344.55 358.42 344.55 360.14C344.55 361.74 345.43 362.56 347.83 363.22C350.07 363.84 350.67 364.28 350.67 365.32C350.67 366.42 349.73 367 348.27 367C346.59 367 345.79 366.24 345.47 365.18L344.11 365.6C344.53 367.14 345.79 368.24 348.23 368.24ZM363.281 363.04C363.301 362.84 363.301 362.62 363.301 362.16C363.301 359.24 361.521 357.24 358.721 357.24C356.041 357.24 353.841 359.5 353.841 362.78C353.841 366.18 355.901 368.24 358.761 368.24C360.841 368.24 362.261 367.28 363.101 365.64L361.981 364.96C361.281 366.32 360.361 366.94 358.861 366.94C356.981 366.94 355.581 365.54 355.461 363.04H363.281ZM355.541 361.74C355.841 359.78 357.121 358.54 358.741 358.54C360.501 358.54 361.621 359.74 361.761 361.74H355.541ZM371.574 368V366.64H370.314C368.774 366.64 368.174 365.82 368.174 364.36V358.76H371.414V357.46H368.214V354.48H366.714V356.5C366.714 357.32 366.574 357.46 365.774 357.46H364.374V358.76H366.594V364.5C366.594 366.66 367.814 368 370.034 368H371.574ZM376.902 368.24C379.282 368.24 380.802 367.02 380.802 365.24C380.802 363.52 379.902 362.64 377.462 361.98C375.322 361.4 374.682 361.08 374.682 360.02C374.682 359.04 375.522 358.48 376.902 358.48C378.122 358.48 378.942 358.94 379.262 359.96L380.562 359.62C380.142 358.02 378.882 357.24 376.942 357.24C374.722 357.24 373.222 358.42 373.222 360.14C373.222 361.74 374.102 362.56 376.502 363.22C378.742 363.84 379.342 364.28 379.342 365.32C379.342 366.42 378.402 367 376.942 367C375.262 367 374.462 366.24 374.142 365.18L372.782 365.6C373.202 367.14 374.462 368.24 376.902 368.24ZM395.818 359.44C395.038 358.06 393.738 357.24 392.118 357.24C389.438 357.24 387.318 359.6 387.318 362.76C387.318 366.04 389.398 368.24 392.118 368.24C393.698 368.24 394.998 367.4 395.778 366.04L395.938 368H397.278V357.46H395.858L395.818 359.44ZM392.338 366.92C390.418 366.92 388.938 365.18 388.938 362.74C388.938 360.3 390.418 358.56 392.338 358.56C394.318 358.56 395.758 360.3 395.758 362.74C395.758 365.18 394.318 366.92 392.338 366.92ZM416.803 357.22C415.203 357.22 413.863 358.06 413.283 359.42C412.723 358 411.503 357.22 410.043 357.22C408.623 357.22 407.463 357.94 406.843 359.14V357.46H405.343V368H406.923V362.08C406.923 359.96 408.003 358.6 409.563 358.6C411.223 358.58 412.163 359.8 412.163 362.18V368H413.743V362.12C413.743 360 414.843 358.6 416.383 358.6C418.063 358.58 419.003 359.8 419.003 362.18V368H420.563V361.7C420.563 358.86 419.083 357.22 416.803 357.22ZM431.463 359.44C430.683 358.06 429.383 357.24 427.763 357.24C425.083 357.24 422.963 359.6 422.963 362.76C422.963 366.04 425.043 368.24 427.763 368.24C429.343 368.24 430.643 367.4 431.423 366.04L431.583 368H432.923V357.46H431.503L431.463 359.44ZM427.983 366.92C426.063 366.92 424.583 365.18 424.583 362.74C424.583 360.3 426.063 358.56 427.983 358.56C429.963 358.56 431.403 360.3 431.403 362.74C431.403 365.18 429.963 366.92 427.983 366.92ZM440.583 362.64L444.143 357.46H442.443L439.702 361.7L436.803 357.46H435.003L438.603 362.6L434.823 368H436.523L439.483 363.54L442.523 368H444.323L440.583 362.64ZM450.02 363.62V362.32H444.94V363.62H450.02ZM462.312 366.4L459.652 357.46H457.872L455.252 366.4L452.892 357.46H451.272L454.312 368H456.132L458.732 359.2L461.352 368H463.132L466.152 357.46H464.612L462.312 366.4ZM468.994 355.22C469.614 355.22 470.094 354.78 470.094 354.14C470.094 353.5 469.614 353.04 468.994 353.04C468.354 353.04 467.874 353.5 467.874 354.14C467.874 354.78 468.354 355.22 468.994 355.22ZM469.774 368V357.46H468.194V368H469.774ZM480.698 359.3C479.918 358 478.638 357.24 477.098 357.24C474.418 357.24 472.298 359.6 472.298 362.76C472.298 366.04 474.378 368.24 477.098 368.24C478.698 368.24 480.018 367.38 480.798 365.96V368H482.258V353.38H480.698V359.3ZM477.318 366.92C475.398 366.92 473.918 365.18 473.918 362.74C473.918 360.3 475.398 358.56 477.318 358.56C479.298 358.56 480.738 360.3 480.738 362.74C480.738 365.18 479.298 366.92 477.318 366.92ZM491.378 368V366.64H490.118C488.578 366.64 487.978 365.82 487.978 364.36V358.76H491.218V357.46H488.018V354.48H486.518V356.5C486.518 357.32 486.378 357.46 485.578 357.46H484.178V358.76H486.398V364.5C486.398 366.66 487.618 368 489.838 368H491.378ZM498.486 357.22C496.966 357.22 495.726 357.94 495.066 359.16L495.086 353.38H493.526V368H495.086V362.12C495.086 360 496.286 358.64 498.006 358.64C499.786 358.62 500.786 359.84 500.786 362.22V368H502.366V361.7C502.366 358.86 500.866 357.22 498.486 357.22ZM515.387 354.42V353.14H514.607C512.127 353.14 510.847 354.8 510.847 357V357.46H508.887V358.76H510.847V368H512.407V358.76H515.267V357.46H512.367V356.92C512.367 355.18 513.247 354.42 514.747 354.42H515.387ZM521.167 368.24C524.027 368.24 526.227 365.88 526.227 362.74C526.227 359.42 524.107 357.24 521.167 357.24C518.287 357.24 516.107 359.6 516.107 362.74C516.107 366.06 518.207 368.24 521.167 368.24ZM521.187 366.94C519.187 366.94 517.727 365.2 517.727 362.74C517.727 360.28 519.187 358.54 521.187 358.54C523.167 358.54 524.607 360.28 524.607 362.74C524.607 365.2 523.167 366.94 521.187 366.94ZM530.181 357.46H528.741V368H530.321V362.46C530.321 360.06 531.701 358.72 533.821 358.7V357.22C531.961 357.22 530.701 358.32 530.181 359.86V357.46ZM545.539 368V366.64H544.279C542.739 366.64 542.139 365.82 542.139 364.36V358.76H545.379V357.46H542.179V354.48H540.679V356.5C540.679 357.32 540.539 357.46 539.739 357.46H538.339V358.76H540.559V364.5C540.559 366.66 541.779 368 543.999 368H545.539ZM552.646 357.22C551.126 357.22 549.886 357.94 549.226 359.16L549.246 353.38H547.686V368H549.246V362.12C549.246 360 550.446 358.64 552.166 358.64C553.946 358.62 554.946 359.84 554.946 362.22V368H556.526V361.7C556.526 358.86 555.026 357.22 552.646 357.22ZM568.36 363.04C568.38 362.84 568.38 362.62 568.38 362.16C568.38 359.24 566.6 357.24 563.8 357.24C561.12 357.24 558.92 359.5 558.92 362.78C558.92 366.18 560.98 368.24 563.84 368.24C565.92 368.24 567.34 367.28 568.18 365.64L567.06 364.96C566.36 366.32 565.44 366.94 563.94 366.94C562.06 366.94 560.66 365.54 560.54 363.04H568.36ZM560.62 361.74C560.92 359.78 562.2 358.54 563.82 358.54C565.58 358.54 566.7 359.74 566.84 361.74H560.62ZM579.954 368.24C582.254 368.24 583.754 366.88 584.254 365.08L582.914 364.64C582.474 366.1 581.454 366.96 579.974 366.96C577.934 366.96 576.634 365.26 576.634 362.76C576.634 360.24 577.934 358.52 580.014 358.52C581.414 358.52 582.494 359.48 582.894 360.96L584.274 360.52C583.774 358.64 582.314 357.24 579.954 357.24C576.974 357.24 575.014 359.64 575.014 362.76C575.014 365.96 576.954 368.24 579.954 368.24ZM590.952 368.24C593.812 368.24 596.012 365.88 596.012 362.74C596.012 359.42 593.892 357.24 590.952 357.24C588.072 357.24 585.892 359.6 585.892 362.74C585.892 366.06 587.992 368.24 590.952 368.24ZM590.972 366.94C588.972 366.94 587.512 365.2 587.512 362.74C587.512 360.28 588.972 358.54 590.972 358.54C592.952 358.54 594.392 360.28 594.392 362.74C594.392 365.2 592.952 366.94 590.972 366.94ZM603.506 357.22C601.946 357.22 600.646 357.98 600.006 359.28V357.46H598.526V368H600.106V362.18C600.106 359.96 601.306 358.62 603.026 358.62C604.806 358.6 605.806 359.8 605.806 362.18V368H607.386V361.7C607.386 358.88 605.886 357.22 603.506 357.22ZM616.183 368V366.64H614.923C613.383 366.64 612.783 365.82 612.783 364.36V358.76H616.023V357.46H612.823V354.48H611.323V356.5C611.323 357.32 611.183 357.46 610.383 357.46H608.983V358.76H611.203V364.5C611.203 366.66 612.423 368 614.643 368H616.183ZM626.836 363.04C626.856 362.84 626.856 362.62 626.856 362.16C626.856 359.24 625.076 357.24 622.276 357.24C619.596 357.24 617.396 359.5 617.396 362.78C617.396 366.18 619.456 368.24 622.316 368.24C624.396 368.24 625.816 367.28 626.656 365.64L625.536 364.96C624.836 366.32 623.916 366.94 622.416 366.94C620.536 366.94 619.136 365.54 619.016 363.04H626.836ZM619.096 361.74C619.396 359.78 620.676 358.54 622.296 358.54C624.056 358.54 625.176 359.74 625.316 361.74H619.096ZM634.366 357.22C632.806 357.22 631.506 357.98 630.866 359.28V357.46H629.386V368H630.966V362.18C630.966 359.96 632.166 358.62 633.886 358.62C635.666 358.6 636.666 359.8 636.666 362.18V368H638.246V361.7C638.246 358.88 636.746 357.22 634.366 357.22ZM647.043 368V366.64H645.783C644.243 366.64 643.643 365.82 643.643 364.36V358.76H646.883V357.46H643.683V354.48H642.183V356.5C642.183 357.32 642.043 357.46 641.243 357.46H639.843V358.76H642.062V364.5C642.062 366.66 643.283 368 645.503 368H647.043Z" fill="#000D6E"/>
<path d="M480.485 222.048V224.736H485.549C484.877 227.04 483.197 228.096 480.893 228.096C477.557 228.096 475.565 225.96 475.565 222.744C475.565 219.552 477.533 217.392 480.509 217.392C482.765 217.392 484.301 218.568 484.949 220.488L488.357 219.072C487.349 216.408 484.685 214.008 480.581 214.008C475.637 214.008 471.941 217.656 471.941 222.672C471.941 227.64 475.589 231.312 480.581 231.312C485.357 231.312 489.029 227.976 489.029 222.048H480.485ZM494.366 218.352H491.006V231H494.558V224.04C494.558 222.36 495.83 221.376 497.99 221.376V218.04C496.502 218.04 495.23 218.664 494.366 219.576V218.352ZM501.407 216.504C502.703 216.504 503.735 215.592 503.735 214.272C503.735 212.952 502.703 211.992 501.407 211.992C500.111 211.992 499.103 212.952 499.103 214.272C499.103 215.592 500.111 216.504 501.407 216.504ZM503.183 231V218.352H499.631V231H503.183ZM515.061 219.456C514.125 218.568 512.853 218.064 511.341 218.064C507.717 218.064 505.149 220.896 505.149 224.688C505.149 228.456 507.789 231.312 511.437 231.312C513.069 231.312 514.389 230.712 515.325 229.704V231H518.613V213.456H515.061V219.456ZM511.941 228.168C510.045 228.168 508.677 226.704 508.677 224.688C508.677 222.672 510.045 221.184 511.941 221.184C513.885 221.184 515.205 222.624 515.205 224.688C515.205 226.752 513.885 228.168 511.941 228.168ZM339.397 263.24C341.697 263.24 343.197 261.88 343.697 260.08L342.357 259.64C341.917 261.1 340.897 261.96 339.417 261.96C337.377 261.96 336.077 260.26 336.077 257.76C336.077 255.24 337.377 253.52 339.457 253.52C340.857 253.52 341.937 254.48 342.337 255.96L343.717 255.52C343.217 253.64 341.757 252.24 339.397 252.24C336.417 252.24 334.457 254.64 334.457 257.76C334.457 260.96 336.397 263.24 339.397 263.24ZM353.836 254.44C353.056 253.06 351.756 252.24 350.136 252.24C347.456 252.24 345.336 254.6 345.336 257.76C345.336 261.04 347.416 263.24 350.136 263.24C351.716 263.24 353.016 262.4 353.796 261.04L353.956 263H355.296V252.46H353.876L353.836 254.44ZM350.356 261.92C348.436 261.92 346.956 260.18 346.956 257.74C346.956 255.3 348.436 253.56 350.356 253.56C352.336 253.56 353.776 255.3 353.776 257.74C353.776 260.18 352.336 261.92 350.356 261.92ZM363.536 252.22C361.976 252.22 360.676 252.98 360.036 254.28V252.46H358.556V263H360.136V257.18C360.136 254.96 361.336 253.62 363.056 253.62C364.836 253.6 365.836 254.8 365.836 257.18V263H367.416V256.7C367.416 253.88 365.916 252.22 363.536 252.22ZM383.013 254.3C382.233 253 380.953 252.24 379.413 252.24C376.733 252.24 374.613 254.6 374.613 257.76C374.613 261.04 376.693 263.24 379.413 263.24C381.013 263.24 382.333 262.38 383.113 260.96V263H384.573V248.38H383.013V254.3ZM379.633 261.92C377.713 261.92 376.233 260.18 376.233 257.74C376.233 255.3 377.713 253.56 379.633 253.56C381.613 253.56 383.053 255.3 383.053 257.74C383.053 260.18 381.613 261.92 379.633 261.92ZM388.633 250.22C389.253 250.22 389.733 249.78 389.733 249.14C389.733 248.5 389.253 248.04 388.633 248.04C387.993 248.04 387.513 248.5 387.513 249.14C387.513 249.78 387.993 250.22 388.633 250.22ZM389.413 263V252.46H387.833V263H389.413ZM396.297 261.32L392.957 252.46H391.277L395.417 263H397.037L401.177 252.46H399.617L396.297 261.32ZM403.809 250.22C404.429 250.22 404.909 249.78 404.909 249.14C404.909 248.5 404.429 248.04 403.809 248.04C403.169 248.04 402.689 248.5 402.689 249.14C402.689 249.78 403.169 250.22 403.809 250.22ZM404.589 263V252.46H403.009V263H404.589ZM415.513 254.3C414.733 253 413.453 252.24 411.913 252.24C409.233 252.24 407.113 254.6 407.113 257.76C407.113 261.04 409.193 263.24 411.913 263.24C413.513 263.24 414.833 262.38 415.613 260.96V263H417.073V248.38H415.513V254.3ZM412.133 261.92C410.213 261.92 408.733 260.18 408.733 257.74C408.733 255.3 410.213 253.56 412.133 253.56C414.113 253.56 415.553 255.3 415.553 257.74C415.553 260.18 414.113 261.92 412.133 261.92ZM429.053 258.04C429.073 257.84 429.073 257.62 429.073 257.16C429.073 254.24 427.293 252.24 424.493 252.24C421.813 252.24 419.613 254.5 419.613 257.78C419.613 261.18 421.673 263.24 424.533 263.24C426.613 263.24 428.033 262.28 428.873 260.64L427.753 259.96C427.053 261.32 426.133 261.94 424.633 261.94C422.753 261.94 421.353 260.54 421.233 258.04H429.053ZM421.313 256.74C421.613 254.78 422.893 253.54 424.513 253.54C426.273 253.54 427.393 254.74 427.533 256.74H421.313ZM440.647 263.24C442.947 263.24 444.447 261.88 444.947 260.08L443.607 259.64C443.167 261.1 442.147 261.96 440.667 261.96C438.627 261.96 437.327 260.26 437.327 257.76C437.327 255.24 438.627 253.52 440.707 253.52C442.107 253.52 443.187 254.48 443.587 255.96L444.967 255.52C444.467 253.64 443.007 252.24 440.647 252.24C437.667 252.24 435.707 254.64 435.707 257.76C435.707 260.96 437.647 263.24 440.647 263.24ZM451.646 263.24C454.506 263.24 456.706 260.88 456.706 257.74C456.706 254.42 454.586 252.24 451.646 252.24C448.766 252.24 446.586 254.6 446.586 257.74C446.586 261.06 448.686 263.24 451.646 263.24ZM451.666 261.94C449.666 261.94 448.206 260.2 448.206 257.74C448.206 255.28 449.666 253.54 451.666 253.54C453.646 253.54 455.086 255.28 455.086 257.74C455.086 260.2 453.646 261.94 451.666 261.94ZM464.2 252.22C462.64 252.22 461.34 252.98 460.7 254.28V252.46H459.22V263H460.8V257.18C460.8 254.96 462 253.62 463.72 253.62C465.5 253.6 466.5 254.8 466.5 257.18V263H468.08V256.7C468.08 253.88 466.58 252.22 464.2 252.22ZM476.876 263V261.64H475.616C474.076 261.64 473.476 260.82 473.476 259.36V253.76H476.716V252.46H473.516V249.48H472.016V251.5C472.016 252.32 471.876 252.46 471.076 252.46H469.676V253.76H471.896V259.5C471.896 261.66 473.116 263 475.336 263H476.876ZM487.529 258.04C487.549 257.84 487.549 257.62 487.549 257.16C487.549 254.24 485.769 252.24 482.969 252.24C480.289 252.24 478.089 254.5 478.089 257.78C478.089 261.18 480.149 263.24 483.009 263.24C485.089 263.24 486.509 262.28 487.349 260.64L486.229 259.96C485.529 261.32 484.609 261.94 483.109 261.94C481.229 261.94 479.829 260.54 479.709 258.04H487.529ZM479.789 256.74C480.089 254.78 481.369 253.54 482.989 253.54C484.749 253.54 485.869 254.74 486.009 256.74H479.789ZM495.059 252.22C493.499 252.22 492.199 252.98 491.559 254.28V252.46H490.079V263H491.659V257.18C491.659 254.96 492.859 253.62 494.579 253.62C496.359 253.6 497.359 254.8 497.359 257.18V263H498.939V256.7C498.939 253.88 497.439 252.22 495.059 252.22ZM507.736 263V261.64H506.476C504.936 261.64 504.336 260.82 504.336 259.36V253.76H507.576V252.46H504.376V249.48H502.876V251.5C502.876 252.32 502.736 252.46 501.936 252.46H500.536V253.76H502.756V259.5C502.756 261.66 503.976 263 506.196 263H507.736ZM515.488 250.22C516.108 250.22 516.588 249.78 516.588 249.14C516.588 248.5 516.108 248.04 515.488 248.04C514.848 248.04 514.368 248.5 514.368 249.14C514.368 249.78 514.848 250.22 515.488 250.22ZM516.268 263V252.46H514.688V263H516.268ZM524.493 252.22C522.933 252.22 521.633 252.98 520.993 254.28V252.46H519.513V263H521.093V257.18C521.093 254.96 522.293 253.62 524.013 253.62C525.793 253.6 526.793 254.8 526.793 257.18V263H528.373V256.7C528.373 253.88 526.873 252.22 524.493 252.22ZM537.169 263V261.64H535.909C534.369 261.64 533.769 260.82 533.769 259.36V253.76H537.009V252.46H533.809V249.48H532.309V251.5C532.309 252.32 532.169 252.46 531.369 252.46H529.969V253.76H532.189V259.5C532.189 261.66 533.409 263 535.629 263H537.169ZM543.442 263.24C546.302 263.24 548.502 260.88 548.502 257.74C548.502 254.42 546.382 252.24 543.442 252.24C540.562 252.24 538.382 254.6 538.382 257.74C538.382 261.06 540.482 263.24 543.442 263.24ZM543.462 261.94C541.462 261.94 540.002 260.2 540.002 257.74C540.002 255.28 541.462 253.54 543.462 253.54C545.442 253.54 546.882 255.28 546.882 257.74C546.882 260.2 545.442 261.94 543.462 261.94ZM559.481 249.1H557.921V250.96H555.201V252.32H557.921V261.66H555.141V263H562.081V261.66H559.481V249.1ZM569.525 257.5C570.825 256.22 572.105 254.8 572.105 252.64C572.105 250.44 570.405 248.9 567.785 248.9C565.525 248.9 563.745 250.2 563.205 252.18L564.665 252.64C565.105 251.1 566.325 250.26 567.785 250.26C569.405 250.26 570.525 251.26 570.525 252.74C570.525 254.52 569.345 255.7 568.365 256.68L563.225 261.96V263H572.425V261.66H565.465L569.525 257.5ZM583.987 263.24C586.287 263.24 587.787 261.88 588.287 260.08L586.947 259.64C586.507 261.1 585.487 261.96 584.007 261.96C581.967 261.96 580.667 260.26 580.667 257.76C580.667 255.24 581.967 253.52 584.047 253.52C585.447 253.52 586.527 254.48 586.927 255.96L588.307 255.52C587.807 253.64 586.347 252.24 583.987 252.24C581.007 252.24 579.047 254.64 579.047 257.76C579.047 260.96 580.987 263.24 583.987 263.24ZM594.985 263.24C597.845 263.24 600.045 260.88 600.045 257.74C600.045 254.42 597.925 252.24 594.985 252.24C592.105 252.24 589.925 254.6 589.925 257.74C589.925 261.06 592.025 263.24 594.985 263.24ZM595.005 261.94C593.005 261.94 591.545 260.2 591.545 257.74C591.545 255.28 593.005 253.54 595.005 253.54C596.985 253.54 598.425 255.28 598.425 257.74C598.425 260.2 596.985 261.94 595.005 261.94ZM604.139 263V248.38H602.559V263H604.139ZM614.443 258.26C614.443 260.48 613.283 261.84 611.603 261.84C609.863 261.84 608.863 260.9 608.863 258.64V252.44H607.303V259.08C607.303 261.84 608.863 263.22 611.123 263.22C612.623 263.22 613.863 262.52 614.543 261.34V263H616.003V252.46H614.443V258.26ZM630.719 252.22C629.119 252.22 627.779 253.06 627.199 254.42C626.639 253 625.419 252.22 623.959 252.22C622.539 252.22 621.379 252.94 620.759 254.14V252.46H619.259V263H620.839V257.08C620.839 254.96 621.919 253.6 623.479 253.6C625.139 253.58 626.079 254.8 626.079 257.18V263H627.659V257.12C627.659 255 628.759 253.6 630.299 253.6C631.979 253.58 632.919 254.8 632.919 257.18V263H634.479V256.7C634.479 253.86 632.999 252.22 630.719 252.22ZM642.579 252.22C641.019 252.22 639.719 252.98 639.079 254.28V252.46H637.599V263H639.179V257.18C639.179 254.96 640.379 253.62 642.099 253.62C643.879 253.6 644.879 254.8 644.879 257.18V263H646.459V256.7C646.459 253.88 644.959 252.22 642.579 252.22ZM652.751 263.24C655.131 263.24 656.651 262.02 656.651 260.24C656.651 258.52 655.751 257.64 653.311 256.98C651.171 256.4 650.531 256.08 650.531 255.02C650.531 254.04 651.371 253.48 652.751 253.48C653.971 253.48 654.791 253.94 655.111 254.96L656.411 254.62C655.991 253.02 654.731 252.24 652.791 252.24C650.571 252.24 649.071 253.42 649.071 255.14C649.071 256.74 649.951 257.56 652.351 258.22C654.591 258.84 655.191 259.28 655.191 260.32C655.191 261.42 654.251 262 652.791 262C651.111 262 650.311 261.24 649.991 260.18L648.631 260.6C649.051 262.14 650.311 263.24 652.751 263.24Z" fill="#000D6E"/>
<path d="M449.91 451L444.942 444.088C447.822 443.68 449.622 441.784 449.622 439.24C449.622 436.384 447.366 434.32 443.79 434.32H436.974V451H440.502V444.16H441.198L445.95 451H449.91ZM443.694 437.44C445.254 437.44 446.142 438.256 446.142 439.552C446.142 440.824 445.254 441.64 443.694 441.64H440.502V437.44H443.694ZM463.318 445.768C463.366 445.456 463.39 444.976 463.39 444.424C463.39 441.256 460.966 438.064 456.886 438.064C453.262 438.064 450.358 441.016 450.358 444.688C450.358 448.456 453.022 451.312 457.126 451.312C460.222 451.312 461.854 450.04 462.838 448.6L460.126 446.8C459.574 447.808 458.782 448.36 457.222 448.36C455.542 448.36 454.246 447.424 453.838 445.768H463.318ZM453.79 443.44C454.15 441.712 455.35 440.752 456.982 440.752C458.614 440.752 459.718 441.784 460.054 443.44H453.79ZM469.819 451.312C473.059 451.312 475.147 449.752 475.147 447.208C475.147 442.552 468.379 443.776 468.379 441.736C468.379 441.088 468.907 440.704 469.867 440.704C470.803 440.704 471.475 441.136 471.787 442L474.787 440.848C474.259 439.096 472.435 438.064 469.915 438.064C466.843 438.064 464.875 439.528 464.875 441.928C464.875 446.272 471.619 445.216 471.619 447.424C471.619 448.144 470.995 448.576 469.939 448.576C468.523 448.576 467.611 447.928 467.275 446.824L464.275 447.976C464.995 450.16 467.011 451.312 469.819 451.312ZM483.262 451.312C487.246 451.312 490.102 448.456 490.102 444.688C490.102 440.896 487.246 438.064 483.262 438.064C479.254 438.064 476.422 440.896 476.422 444.688C476.422 448.456 479.254 451.312 483.262 451.312ZM483.286 448.144C481.318 448.144 479.998 446.704 479.998 444.688C479.998 442.648 481.318 441.232 483.286 441.232C485.254 441.232 486.55 442.648 486.55 444.664C486.55 446.704 485.206 448.144 483.286 448.144ZM495.597 451V433.456H492.045V451H495.597ZM506.395 445.84C506.395 447.16 505.435 448.144 503.971 448.144C502.483 448.144 501.571 447.16 501.571 445.768V438.352H498.019V446.224C498.019 449.104 499.699 451.312 502.915 451.312C504.427 451.312 505.723 450.712 506.611 449.8V451H509.947V438.352H506.395V445.84ZM520.475 451V447.904H519.131C517.883 447.904 517.187 447.184 517.187 445.84V441.376H520.379V438.352H517.307V435.016H513.851V436.984C513.851 437.896 513.419 438.352 512.555 438.352H511.475V441.376H513.635V446.272C513.635 449.128 515.243 451 518.387 451H520.475ZM523.939 436.504C525.235 436.504 526.267 435.592 526.267 434.272C526.267 432.952 525.235 431.992 523.939 431.992C522.643 431.992 521.635 432.952 521.635 434.272C521.635 435.592 522.643 436.504 523.939 436.504ZM525.715 451V438.352H522.163V451H525.715ZM534.496 451.312C538.48 451.312 541.336 448.456 541.336 444.688C541.336 440.896 538.48 438.064 534.496 438.064C530.488 438.064 527.656 440.896 527.656 444.688C527.656 448.456 530.488 451.312 534.496 451.312ZM534.52 448.144C532.552 448.144 531.232 446.704 531.232 444.688C531.232 442.648 532.552 441.232 534.52 441.232C536.488 441.232 537.784 442.648 537.784 444.664C537.784 446.704 536.44 448.144 534.52 448.144ZM550.456 438.04C548.824 438.04 547.504 438.64 546.64 439.528V438.352H543.28V451H546.832V443.512C546.856 442.216 547.96 441.208 549.376 441.208C550.816 441.208 551.872 442.12 551.872 443.728V451H555.4V443.032C555.4 440.08 553.48 438.04 550.456 438.04ZM418.103 474.3C417.323 473 416.043 472.24 414.503 472.24C411.823 472.24 409.703 474.6 409.703 477.76C409.703 481.04 411.783 483.24 414.503 483.24C416.103 483.24 417.423 482.38 418.203 480.96V483H419.663V468.38H418.103V474.3ZM414.723 481.92C412.803 481.92 411.323 480.18 411.323 477.74C411.323 475.3 412.803 473.56 414.723 473.56C416.703 473.56 418.143 475.3 418.143 477.74C418.143 480.18 416.703 481.92 414.723 481.92ZM431.643 478.04C431.663 477.84 431.663 477.62 431.663 477.16C431.663 474.24 429.883 472.24 427.083 472.24C424.403 472.24 422.203 474.5 422.203 477.78C422.203 481.18 424.263 483.24 427.123 483.24C429.203 483.24 430.623 482.28 431.463 480.64L430.343 479.96C429.643 481.32 428.723 481.94 427.223 481.94C425.343 481.94 423.943 480.54 423.823 478.04H431.643ZM423.903 476.74C424.203 474.78 425.483 473.54 427.103 473.54C428.863 473.54 429.983 474.74 430.123 476.74H423.903ZM441.614 469.52V468.16H438.514C436.194 468.16 434.794 469.58 434.794 471.98V472.46H432.854V473.76H434.794V483H436.354V473.76H440.074V483H441.614V472.46H436.354V471.84C436.354 470.3 437.214 469.52 438.574 469.52H441.614ZM449.836 472.22C448.276 472.22 446.976 472.98 446.336 474.28V472.46H444.856V483H446.436V477.18C446.436 474.96 447.636 473.62 449.356 473.62C451.136 473.6 452.136 474.8 452.136 477.18V483H453.716V476.7C453.716 473.88 452.216 472.22 449.836 472.22ZM465.549 478.04C465.569 477.84 465.569 477.62 465.569 477.16C465.569 474.24 463.789 472.24 460.989 472.24C458.309 472.24 456.109 474.5 456.109 477.78C456.109 481.18 458.169 483.24 461.029 483.24C463.109 483.24 464.529 482.28 465.369 480.64L464.249 479.96C463.549 481.32 462.629 481.94 461.129 481.94C459.249 481.94 457.849 480.54 457.729 478.04H465.549ZM457.809 476.74C458.109 474.78 459.389 473.54 461.009 473.54C462.769 473.54 463.889 474.74 464.029 476.74H457.809ZM471.279 483.24C473.659 483.24 475.179 482.02 475.179 480.24C475.179 478.52 474.279 477.64 471.839 476.98C469.699 476.4 469.059 476.08 469.059 475.02C469.059 474.04 469.899 473.48 471.279 473.48C472.499 473.48 473.319 473.94 473.639 474.96L474.939 474.62C474.519 473.02 473.259 472.24 471.319 472.24C469.099 472.24 467.599 473.42 467.599 475.14C467.599 476.74 468.479 477.56 470.879 478.22C473.119 478.84 473.719 479.28 473.719 480.32C473.719 481.42 472.779 482 471.319 482C469.639 482 468.839 481.24 468.519 480.18L467.159 480.6C467.579 482.14 468.839 483.24 471.279 483.24ZM487.595 472.24C486.035 472.24 484.755 473.04 483.975 474.34V468.38H482.415V483H483.895V481.06C484.675 482.44 485.955 483.24 487.575 483.24C490.275 483.24 492.375 480.88 492.375 477.72C492.375 474.44 490.275 472.24 487.595 472.24ZM487.375 481.92C485.395 481.92 483.955 480.18 483.955 477.74C483.955 475.3 485.395 473.56 487.375 473.56C489.295 473.56 490.755 475.3 490.755 477.74C490.755 480.18 489.295 481.92 487.375 481.92ZM496.355 472.46H494.915V483H496.495V477.46C496.495 475.06 497.875 473.72 499.995 473.7V472.22C498.135 472.22 496.875 473.32 496.355 474.86V472.46ZM510.256 478.04C510.276 477.84 510.276 477.62 510.276 477.16C510.276 474.24 508.496 472.24 505.696 472.24C503.016 472.24 500.816 474.5 500.816 477.78C500.816 481.18 502.876 483.24 505.736 483.24C507.816 483.24 509.236 482.28 510.076 480.64L508.956 479.96C508.256 481.32 507.336 481.94 505.836 481.94C503.956 481.94 502.556 480.54 502.436 478.04H510.256ZM502.516 476.74C502.816 474.78 504.096 473.54 505.716 473.54C507.476 473.54 508.596 474.74 508.736 476.74H502.516ZM520.586 474.44C519.806 473.06 518.506 472.24 516.886 472.24C514.206 472.24 512.086 474.6 512.086 477.76C512.086 481.04 514.166 483.24 516.886 483.24C518.466 483.24 519.766 482.4 520.546 481.04L520.706 483H522.046V472.46H520.626L520.586 474.44ZM517.106 481.92C515.186 481.92 513.706 480.18 513.706 477.74C513.706 475.3 515.186 473.56 517.106 473.56C519.086 473.56 520.526 475.3 520.526 477.74C520.526 480.18 519.086 481.92 517.106 481.92ZM528.546 477.44L533.946 472.46H531.986L526.886 477.2V468.38H525.306V483H526.886V477.82L532.026 483H534.086L528.546 477.44ZM540.955 472.24C539.315 472.24 538.015 473.1 537.235 474.52V472.46H535.755V486.58H537.315V481.18C538.095 482.48 539.355 483.24 540.935 483.24C543.635 483.24 545.735 480.88 545.735 477.72C545.735 474.44 543.635 472.24 540.955 472.24ZM540.735 481.92C538.755 481.92 537.315 480.18 537.315 477.74C537.315 475.3 538.755 473.56 540.735 473.56C542.655 473.56 544.115 475.3 544.115 477.74C544.115 480.18 542.655 481.92 540.735 481.92ZM552.614 483.24C555.474 483.24 557.674 480.88 557.674 477.74C557.674 474.42 555.554 472.24 552.614 472.24C549.734 472.24 547.554 474.6 547.554 477.74C547.554 481.06 549.654 483.24 552.614 483.24ZM552.634 481.94C550.634 481.94 549.174 480.2 549.174 477.74C549.174 475.28 550.634 473.54 552.634 473.54C554.614 473.54 556.054 475.28 556.054 477.74C556.054 480.2 554.614 481.94 552.634 481.94ZM560.988 470.22C561.608 470.22 562.088 469.78 562.088 469.14C562.088 468.5 561.608 468.04 560.988 468.04C560.348 468.04 559.868 468.5 559.868 469.14C559.868 469.78 560.348 470.22 560.988 470.22ZM561.768 483V472.46H560.188V483H561.768ZM569.993 472.22C568.433 472.22 567.133 472.98 566.493 474.28V472.46H565.013V483H566.593V477.18C566.593 474.96 567.793 473.62 569.513 473.62C571.293 473.6 572.293 474.8 572.293 477.18V483H573.873V476.7C573.873 473.88 572.373 472.22 569.993 472.22ZM582.669 483V481.64H581.409C579.869 481.64 579.269 480.82 579.269 479.36V473.76H582.509V472.46H579.309V469.48H577.809V471.5C577.809 472.32 577.669 472.46 576.869 472.46H575.469V473.76H577.689V479.5C577.689 481.66 578.909 483 581.129 483H582.669Z" fill="#000D6E"/>
</g>
<defs>
<clipPath id="clip0_533_32">
<rect width="992" height="493" fill="white"/>
</clipPath>
</defs>
</svg>
